<svg xmlns="http://www.w3.org/2000/svg" xmlns:xlink="http://www.w3.org/1999/xlink" viewBox="0 0 42.02 43.63"><defs><style>.cls-1{fill:url(#Áåçûìÿííûé_ãðàäèåíò_3);}.cls-2{fill:url(#Áåçûìÿííûé_ãðàäèåíò_3-2);}.cls-3{fill:url(#Áåçûìÿííûé_ãðàäèåíò_3-3);}.cls-4{fill:#eb924d;}.cls-5{fill:url(#Áåçûìÿííûé_ãðàäèåíò_3-4);}</style><linearGradient id="Áåçûìÿííûé_ãðàäèåíò_3" x1="40.34" y1="-21.2" x2="28.43" y2="5.28" gradientTransform="translate(0.16 -0.15) rotate(-0.02)" gradientUnits="userSpaceOnUse"><stop offset="0" stop-color="#cf5c2b"/><stop offset="1" stop-color="#59173e"/></linearGradient><linearGradient id="Áåçûìÿííûé_ãðàäèåíò_3-2" x1="35.32" y1="-11.78" x2="-6.85" y2="85.56" xlink:href="#Áåçûìÿííûé_ãðàäèåíò_3"/><linearGradient id="Áåçûìÿííûé_ãðàäèåíò_3-3" x1="30.68" y1="0.24" x2="-11.48" y2="97.58" xlink:href="#Áåçûìÿííûé_ãðàäèåíò_3"/><linearGradient id="Áåçûìÿííûé_ãðàäèåíò_3-4" x1="22.67" y1="61.08" x2="21.39" y2="20.38" xlink:href="#Áåçûìÿííûé_ãðàäèåíò_3"/></defs><g id="Calque_2" data-name="Calque 2"><g id="layer_1" data-name="layer 1"><path class="cls-1" d="M41.59,6.22A6.46,6.46,0,0,0,35.41.27Q21.64-.27,8,.28A6.13,6.13,0,0,0,6.05.66a5.49,5.49,0,0,0-.89.4A8.19,8.19,0,0,0,2,4.58,12,12,0,0,0,.36,9.34C.28,10.7.21,12.07.16,13.43a3.23,3.23,0,0,0,0,.44,1.79,1.79,0,0,1,0,.24,1.89,1.89,0,0,0,.22,1.21,1.58,1.58,0,0,0,.55.57s-.22.16-.24.19a1.51,1.51,0,0,0-.21.23,2.33,2.33,0,0,0-.32.55,2.65,2.65,0,0,0-.14.62C0,18.32,0,19.18,0,20a15.24,15.24,0,0,0,.06,2.24c0,.18,0,.37,0,.55A3.66,3.66,0,0,0,.57,24a2,2,0,0,0-.48,1.28c0,.54.08,1.07.05,1.62a32.5,32.5,0,0,0,.08,4.41,4.29,4.29,0,0,0,.07.5A3.51,3.51,0,0,0,.62,33a1.42,1.42,0,0,0,.39.42c-.16,0-.27.13-.34.27A3.32,3.32,0,0,0,.4,36.13a15.77,15.77,0,0,0,.48,2.8A6.42,6.42,0,0,0,2.16,41a6.54,6.54,0,0,0,4.46,2.15,233.43,233.43,0,0,0,27.86,0h.12a6.72,6.72,0,0,0,3-1,6.8,6.8,0,0,0,2.15-2.28A14.08,14.08,0,0,0,41,36.43a7.25,7.25,0,0,0,.4-2.41c0-.43.08-.86.06-1.3A3.55,3.55,0,0,0,41,31.29a1.15,1.15,0,0,1-.06-.17c0-.15.14-.24.25-.33a1.4,1.4,0,0,0,.49-.84.89.89,0,0,0,0-.23,1.85,1.85,0,0,1,0-.41c0-1,.1-2,.14-3s.07-2.21.1-3.32,0-2.19,0-3.28,0-2.16,0-3.23c0-.54,0-1.07,0-1.6,0-.27,0-.53,0-.8a5.08,5.08,0,0,1,0-.78A.69.69,0,0,0,42,13c0-.1,0-.21-.07-.31a2.66,2.66,0,0,0-.26-.6,2.88,2.88,0,0,0-.4-.52s-.46-.43-.5-.39a2.18,2.18,0,0,0,.34-.4,3.46,3.46,0,0,0,.51-1.24c.06-.22.08-.45.12-.67l0-.13a1.75,1.75,0,0,0,0-.51C41.68,7.57,41.64,6.89,41.59,6.22Z"/><path class="cls-2" d="M42,13.71c0,1.14,0,2.28,0,3.42,0,.55,0,1.1,0,1.64v.89c0,1.55,0,3.1-.08,4.65,0,.77,0,1.54-.07,2.31A4.57,4.57,0,0,1,41.67,28a7.52,7.52,0,0,0-.22,1.57.77.77,0,0,1-.16.45.65.65,0,0,1-.43.14l-.76.08c-1.47.15-3,.29-4.42.33a25.79,25.79,0,0,1-3.29-.13l2.49.37.7.11,5.08.75a.92.92,0,0,1,.43.15.79.79,0,0,1,.17.64,8.83,8.83,0,0,1-.11,1,19.53,19.53,0,0,0-.24,2c0,.14,0,.28,0,.42a3.14,3.14,0,0,1-.63,1.18,6.49,6.49,0,0,1-4.86,2.71A228.4,228.4,0,0,1,8,39.71a6.4,6.4,0,0,1-3.75-1.49,6,6,0,0,1-1.57-2c-.16-.35-.21-.73-.36-1.08A.85.85,0,0,1,2.21,35a.61.61,0,0,1,.17-.64,1.27,1.27,0,0,1,.77-.19c3-.11,6-.3,9.08-.38h.09c.92,0,1.86,0,2.78,0-.34-.05-.68-.1-1-.13-1.56-.19-3.14-.25-4.71-.31H9.29a46.75,46.75,0,0,1-5.66-.45,4.17,4.17,0,0,1-1-.28,1.49,1.49,0,0,1-.6-.48L2,32a1.87,1.87,0,0,1-.23-1.22,6,6,0,0,0,0-1.34c0-.8-.09-1.61-.13-2.41,0-.44,0-.88-.07-1.32a1,1,0,0,1,.14-.7,1,1,0,0,1,.51-.25c.6-.15,1.19-.3,1.79-.39a5.58,5.58,0,0,1,.81-.09L2.7,23.8a2.57,2.57,0,0,1-.61-.2L2,23.52a1.28,1.28,0,0,1-.48-.95c0-.12,0-.25-.05-.37a8.43,8.43,0,0,1-.11-.86c-.05-.44-.07-.89-.1-1.32a4.78,4.78,0,0,1,.52-3,1.34,1.34,0,0,1,1-.4c1.41-.17,2.82-.32,4.23-.44l.88-.07c1.43-.12,2.85-.21,4.29-.28a44.74,44.74,0,0,1-5.18-.06c-1.08-.07-2.16-.17-3.24-.31a4.58,4.58,0,0,1-1.32-.34l0,0A1.44,1.44,0,0,1,2,14.9a1.39,1.39,0,0,1-.47-.65,1.44,1.44,0,0,1,0-.77c0-.11,0-.2,0-.31,0-.6,0-1.22.05-1.83l0-.94c0-1.36.11-2.72.19-4.08A6.45,6.45,0,0,1,8,.28q13.65-.55,27.42,0a6.53,6.53,0,0,1,6.08,5.22,7.53,7.53,0,0,1,.06,2.76,4.1,4.1,0,0,1-.19.66,1.17,1.17,0,0,1-.24.47l0,0a.84.84,0,0,1-.27.08c-.54.13-1.08.24-1.62.34-1.08.19-2.17.32-3.27.42h0c-2.2.2-4.41.23-6.62.27h-.07l1.82.11L36,10.9l3.28.19a4.19,4.19,0,0,1,1.92.43h0A2.25,2.25,0,0,1,42,13.71Z"/><path class="cls-3" d="M42,13.71c0,1.14,0,2.28,0,3.42,0,.54,0,1.09,0,1.64v.89c-4.21.27-8.43.64-12.65.9-4.92.3-9.84.63-14.76,1-2.65.17-5.28.37-7.91.67a30.46,30.46,0,0,1-5.17.39l-.06-.37c-.05-.29-.08-.57-.11-.86A30.2,30.2,0,0,1,6.66,21c2.47-.08,4.92-.26,7.38-.49C19,20,23.89,19.54,28.8,19c2.93-.34,5.87-.64,8.8-1h-.29c-4.81-.26-9.54-1.15-14.33-1.58s-9.52-.79-14.29-1.08c-1.92-.11-4.14-.08-6.32-.24h0A1.44,1.44,0,0,1,2,14.9a1.49,1.49,0,0,1-.47-.66,1.44,1.44,0,0,1,0-.77c0-.1,0-.2,0-.3,0-.61,0-1.23,0-1.83,0-.32,0-.63,0-.94,2.42-.14,4.91,0,7.06,0,4.77.05,9.53.28,14.29.55s9.55.17,14.33.39c1.29.06,2.59.11,3.88.14A2.23,2.23,0,0,1,42,13.71ZM26.22,24.89c-8.13.39-16.69,0-24.61,2.13,0,.8.08,1.61.12,2.41a5.37,5.37,0,0,1,0,1.33A1.89,1.89,0,0,0,2,32a46.54,46.54,0,0,0,7.34,1.26h.07c1.56.16,3.14.25,4.71.3,4.08.15,8.17.06,12.15.1,5,0,10-.06,14.94-.23a8.8,8.8,0,0,0,.1-1,.79.79,0,0,0-.17-.64.8.8,0,0,0-.43-.15l-5.78-.86-2.49-.37a36.15,36.15,0,0,0,7.71-.2l.76-.08a.65.65,0,0,0,.43-.14.8.8,0,0,0,.17-.45,7,7,0,0,1,.21-1.58,4.16,4.16,0,0,0,.16-1.32c0-.77.05-1.54.07-2.31C36.68,24.48,31.44,24.64,26.22,24.89Z"/><path class="cls-4" d="M2,32.05a1.88,1.88,0,0,1-.27-1.29,5.37,5.37,0,0,0,0-1.33c-.07-1.25-.13-2.49-.19-3.73a1,1,0,0,1,.13-.7.94.94,0,0,1,.52-.25c.59-.15,1.18-.3,1.78-.39A6,6,0,0,1,2.91,25a1.16,1.16,0,0,0-.39.26,1.1,1.1,0,0,0-.19.46,14.48,14.48,0,0,0,0,4.78c.08.66.15,1.33.21,2A1.42,1.42,0,0,1,2,32.05Z"/><path class="cls-4" d="M1.43,22.2A17.84,17.84,0,0,1,1.23,20a4.7,4.7,0,0,1,.51-3,1.32,1.32,0,0,1,1-.4c1.7-.21,3.4-.38,5.11-.52-1.61.54-3.47.55-5,1.21a1.61,1.61,0,0,0-.74.54,1.76,1.76,0,0,0-.18.59,8.68,8.68,0,0,0-.13,1.9c0,.41.06.83.1,1.24.06.68.15,1.35.27,2A.57.57,0,0,1,2,23.52C1.51,23.19,1.52,22.69,1.43,22.2Z"/><path class="cls-4" d="M34.6,30.63a1,1,0,0,0,.21.09A.48.48,0,0,1,34.6,30.63Z"/><path class="cls-4" d="M41.26,32.41c0,1-.31,2-.35,3,0,.14,0,.28,0,.42a3,3,0,0,1-.63,1.18,6.44,6.44,0,0,1-4.86,2.7A226.28,226.28,0,0,1,8,39.71a6.46,6.46,0,0,1-3.75-1.49,6.32,6.32,0,0,1-1.57-2c-.16-.35-.2-.73-.36-1.08A2.18,2.18,0,0,1,2.21,35a.6.6,0,0,1,.17-.63,1.29,1.29,0,0,1,.77-.2c3-.1,6.06-.29,9.08-.38a68.19,68.19,0,0,0-7.93,1,10.11,10.11,0,0,0-1.1.19c-.05,0-.11,0-.15.07s0,.17,0,.26a1.75,1.75,0,0,0,.4.82,7.09,7.09,0,0,0,2.15,2.11c2.16,1.14,4.36,1,6.8.91A9.18,9.18,0,0,0,13.85,39a3.57,3.57,0,0,1,.8,0l1.72,0,3.43.1,6.42.18a59.28,59.28,0,0,0,6.11-.06,18.59,18.59,0,0,0,5.89-1.36,2.15,2.15,0,0,0,.46-.22,3.45,3.45,0,0,1,.28-.23,6.16,6.16,0,0,0,.87-.65,1.88,1.88,0,0,0,.53-.63,2.92,2.92,0,0,0,.13-.42,4.12,4.12,0,0,0,.23-1.15,8.07,8.07,0,0,0,0-1.3c0-.19,0-.55-.11-.71a1,1,0,0,0-.32-.21,3.09,3.09,0,0,0-.85-.25,20.39,20.39,0,0,1-4.52-1.39l5.78.86a.8.8,0,0,1,.43.15A.79.79,0,0,1,41.26,32.41Z"/><path class="cls-4" d="M1.59,14.23a3.5,3.5,0,0,1-.06-1c0-1.6.08-3.19.17-4.78a12.57,12.57,0,0,1,.64-4.36A6.5,6.5,0,0,1,8,.28q13.65-.55,27.42,0a6.53,6.53,0,0,1,6.08,5.22,7.53,7.53,0,0,1,.06,2.76,4,4,0,0,1-.18.66,1.34,1.34,0,0,1-.25.47c-.18-1.46.17-3.07-.35-4.44a4.9,4.9,0,0,0-1.47-2.2C37,.93,33.5,1.05,30.69,1,22.92.86,15.2.62,7.46,1.32c-.35,0-.7-.09-1,0A4.45,4.45,0,0,0,4.34,2.45,6.66,6.66,0,0,0,2.62,5a7.25,7.25,0,0,0-.27.87c-.75,2.89-.43,6.22-.07,9.15a1.11,1.11,0,0,1-.67-.76A.64.64,0,0,1,1.59,14.23Z"/><path class="cls-4" d="M42,13.71c0,1.14,0,2.28,0,3.42,0,.54,0,1.09,0,1.64,0,2.62,0,5.24-.15,7.85a4.16,4.16,0,0,1-.16,1.32,7,7,0,0,0-.21,1.58.8.8,0,0,1-.17.45.65.65,0,0,1-.43.14l-.76.08a1.18,1.18,0,0,0,.35-.41,2.27,2.27,0,0,0,.17-.82,125.49,125.49,0,0,0,.26-13.85c0-.61,0-1.23-.06-1.83,0-.14,0-.28,0-.41a1,1,0,0,0-.23-.5,2.22,2.22,0,0,0-1-.65c-2.82-.94-6-.25-8.83-1.11h.34l8.2.48a4.18,4.18,0,0,1,1.92.42A2.24,2.24,0,0,1,42,13.71Z"/><path class="cls-5" d="M34.88,30.76l.7.11a3.62,3.62,0,0,1-.6,1.25C33.84,33.59,31.71,33.85,30,34c-2.86.16-5.7.33-8.55.31-3.08,0-6.09-.3-9.16-.51.92,0,1.86,0,2.78,0-.34-.05-.68-.1-1-.13-1.56-.19-3.14-.25-4.71-.31H9.29l-.38-.11a2.85,2.85,0,0,1-.76-.32,3,3,0,0,1-.91-1.69,13.12,13.12,0,0,1-.17-4.33c.09-1.57.09-3.14.06-4.71,0-2-.13-4-.19-5.93l.88-.07L10,15.94c0,2.59.17,5.19.27,7.77a7.85,7.85,0,0,0,0,.84c0,.16,0,.26.1.39a1.79,1.79,0,0,0,.86.42,6,6,0,0,0,.95,0h2.05a19.47,19.47,0,0,1-2,.21,3.46,3.46,0,0,0-.91.06c-.27.08-.54.13-.81.2a.44.44,0,0,0-.22.1.4.4,0,0,0-.07.19,1.92,1.92,0,0,0,.06.86,1.73,1.73,0,0,1,.12.64,6.88,6.88,0,0,0,.11,1.63,1.21,1.21,0,0,0,.16.55,2,2,0,0,0,1.13.67,38.17,38.17,0,0,0,9.78.95c1.94,0,3.88,0,5.82,0,1.32,0,3.73.22,4.87-.59a1.6,1.6,0,0,0,.41-.41ZM10,14.27c0-.55.05-1.09.1-1.64a1.22,1.22,0,0,0,0-.27,1.4,1.4,0,0,1,0-.5,1.48,1.48,0,0,1,.65-1,2,2,0,0,1,.8-.15c1.36,0,2.72,0,4.08,0l-3.24-.34a5.06,5.06,0,0,0-1.82,0s.08-.16.09-.18.09-.14.14-.2a1.72,1.72,0,0,1,.32-.34c.21-.18.41-.38.63-.55a5.59,5.59,0,0,1,1.55-.81,15.41,15.41,0,0,1,1.61-.45,5.19,5.19,0,0,1,1.12-.1c4.26-.06,8.52-.08,12.78-.12A8.76,8.76,0,0,1,31,8.08a2.61,2.61,0,0,1,1.36.77,3.27,3.27,0,0,1,.56,1.57c1,0,2-.09,3-.18A5.13,5.13,0,0,0,34.79,7,5.55,5.55,0,0,0,31,5.67c-1.44-.08-2.88-.14-4.32-.17-1.13,0-2.25,0-3.37,0-2.3,0-4.56.08-6.84.2C14,5.79,10.9,5,8.8,6.66A4.79,4.79,0,0,0,7.05,9.9,20.53,20.53,0,0,0,6.88,13c0,.9,0,1.81,0,2.73,1,.07,2,.11,3.06.11C10,15.34,10,14.81,10,14.27Zm26.32,3.48c0-2-.14-3.94-.29-5.91L36,10.9l-3-.17c.11,1.07,0,2.28.06,3.08.08,1.24.19,2.47.3,3.71.05.6.09,1.2.13,1.8a.74.74,0,0,1-.06.51,1.16,1.16,0,0,1-.91.35,30.36,30.36,0,0,0-5,.55,60.44,60.44,0,0,0,6.17-.11l-.13.55a2.11,2.11,0,0,0-.1.5,1.77,1.77,0,0,0,.06.3,4.64,4.64,0,0,1,0,.53c0,.76,0,1.52,0,2.28s0,1.27-.06,1.91a1.48,1.48,0,0,1,0,.21,6.49,6.49,0,0,1-.75,3.52,25.06,25.06,0,0,0,3,.1A23.05,23.05,0,0,0,36,28a73.66,73.66,0,0,0,.32-8.14c0-.7,0-1.4,0-2.11C36.34,17.77,36.33,17.76,36.33,17.75Z"/><path class="cls-4" d="M25.66,34.06a27.47,27.47,0,0,0,3.95-.24c.27,0,.56,0,.83,0,.59,0,1.17-.1,1.76-.18a7,7,0,0,0,1.12-.24,3.46,3.46,0,0,0,2.23-2.54c-.61,0-1.3,0-1.91-.06a1.52,1.52,0,0,1,1.49.64,5.8,5.8,0,0,1-2.25,1.33,7,7,0,0,1-1.37.2c-3.15.24-6.31.49-9.47.44-1.52,0-3-.12-4.55-.06l-1.31.06a4.7,4.7,0,0,1-.75,0,4.51,4.51,0,0,0-.52,0c-.37,0-.75,0-1.12,0-.76,0-1.51-.09-2.25-.17s-1.63-.2-2.44-.34A2.08,2.08,0,0,1,8,32.38a1.88,1.88,0,0,1-.41-.66A8.67,8.67,0,0,1,7,29.33a3.29,3.29,0,0,0,.68,2.94,4.44,4.44,0,0,0,2.58,1.39,7.92,7.92,0,0,0,2.28.13,2.69,2.69,0,0,1,.49,0l1.14.06L16.4,34l2.26,0a6.59,6.59,0,0,0,1.09,0,6.39,6.39,0,0,1,1.07,0c1.52.06,3,.09,4.56.08Z"/><path class="cls-4" d="M37.07,11.21l-1.34,0-1.37-.08L33.68,11l-.35,0h-.27l-.13,0-.54-.13v-.08h.27a.9.9,0,0,0,.23,0,1,1,0,0,1,.17,0h.28l1.14,0,1.13.07c.38,0,.76.07,1.13.12l.4,0C37.13,11.1,37.07,11.12,37.07,11.21Z"/><path class="cls-4" d="M10.42,15.89c-1.21.12-2.41.29-3.59.51a.26.26,0,0,1-.09-.27C8,16,9.15,16,10.42,15.89Z"/></g></g></svg>