<svg xmlns="http://www.w3.org/2000/svg" xmlns:xlink="http://www.w3.org/1999/xlink" viewBox="0 0 42.01 43.42"><defs><style>.cls-1{isolation:isolate;}.cls-2{fill:url(#Áåçûìÿííûé_ãðàäèåíò_3);}.cls-3{fill:url(#Áåçûìÿííûé_ãðàäèåíò_3-2);}.cls-4{fill:url(#Áåçûìÿííûé_ãðàäèåíò_3-3);}.cls-5{fill:#eb924d;}.cls-6{fill:url(#Áåçûìÿííûé_ãðàäèåíò_3-4);}.cls-7{fill:url(#Áåçûìÿííûé_ãðàäèåíò_7);}.cls-8{fill:#ffdf80;}.cls-9{fill:url(#Áåçûìÿííûé_ãðàäèåíò_12);}.cls-10{fill:url(#Áåçûìÿííûé_ãðàäèåíò_12-2);}.cls-11{mix-blend-mode:screen;fill:url(#Áåçûìÿííûé_ãðàäèåíò_11);}.cls-12{fill:#a04623;}</style><linearGradient id="Áåçûìÿííûé_ãðàäèåíò_3" x1="40.43" y1="-21.32" x2="28.56" y2="5.08" gradientUnits="userSpaceOnUse"><stop offset="0" stop-color="#cf5c2b"/><stop offset="1" stop-color="#59173e"/></linearGradient><linearGradient id="Áåçûìÿííûé_ãðàäèåíò_3-2" x1="35.42" y1="-11.92" x2="-6.59" y2="85.06" xlink:href="#Áåçûìÿííûé_ãðàäèåíò_3"/><linearGradient id="Áåçûìÿííûé_ãðàäèåíò_3-3" x1="30.82" y1="0.04" x2="-11.23" y2="97.11" xlink:href="#Áåçûìÿííûé_ãðàäèåíò_3"/><linearGradient id="Áåçûìÿííûé_ãðàäèåíò_3-4" x1="22.83" y1="60.62" x2="21.55" y2="20.12" xlink:href="#Áåçûìÿííûé_ãðàäèåíò_3"/><linearGradient id="Áåçûìÿííûé_ãðàäèåíò_7" x1="21.69" y1="5.84" x2="21.69" y2="22.11" gradientUnits="userSpaceOnUse"><stop offset="0" stop-color="#ffca2b"/><stop offset="1" stop-color="#d15b24"/></linearGradient><linearGradient id="Áåçûìÿííûé_ãðàäèåíò_12" x1="21.69" y1="33.71" x2="21.69" y2="19.31" gradientUnits="userSpaceOnUse"><stop offset="0" stop-color="#ffce3b"/><stop offset="1" stop-color="#cc6923"/></linearGradient><linearGradient id="Áåçûìÿííûé_ãðàäèåíò_12-2" x1="21.77" y1="27.79" x2="21.6" y2="5.61" xlink:href="#Áåçûìÿííûé_ãðàäèåíò_12"/><linearGradient id="Áåçûìÿííûé_ãðàäèåíò_11" x1="27.33" y1="0.31" x2="18.3" y2="30.31" gradientUnits="userSpaceOnUse"><stop offset="0" stop-color="#f2de6d"/><stop offset="1"/></linearGradient></defs><g class="cls-1"><g id="Calque_2" data-name="Calque 2"><g id="layer_1" data-name="layer 1"><path class="cls-2" d="M41.58,6.19A6.43,6.43,0,0,0,35.41.28Q21.64-.27,8,.27A6.36,6.36,0,0,0,6.06.65a6,6,0,0,0-.9.4A8.26,8.26,0,0,0,2,4.55,11.93,11.93,0,0,0,.36,9.29C.28,10.64.22,12,.17,13.36a2,2,0,0,0,0,.43,1.93,1.93,0,0,1,0,.24,1.88,1.88,0,0,0,.22,1.21A1.48,1.48,0,0,0,1,15.8S.75,16,.72,16a2.29,2.29,0,0,0-.21.23,2,2,0,0,0-.31.55,2.18,2.18,0,0,0-.15.61c-.07.85,0,1.7,0,2.54a15.24,15.24,0,0,0,.06,2.24c0,.18,0,.36,0,.55a3.8,3.8,0,0,0,.46,1.15,2,2,0,0,0-.48,1.27c0,.54.08,1.06,0,1.61a35.74,35.74,0,0,0,.08,4.39,4.33,4.33,0,0,0,.08.5,3.57,3.57,0,0,0,.33,1.2,1.49,1.49,0,0,0,.38.41c-.15,0-.27.14-.34.27A3.29,3.29,0,0,0,.39,36a16.62,16.62,0,0,0,.48,2.79,6.66,6.66,0,0,0,1.28,2.1A6.57,6.57,0,0,0,6.61,43,235.61,235.61,0,0,0,34.47,43h.11a6.59,6.59,0,0,0,3-1,6.49,6.49,0,0,0,2.15-2.27A14,14,0,0,0,41,36.27a7.24,7.24,0,0,0,.4-2.4c0-.44.08-.87.06-1.3A3.38,3.38,0,0,0,41,31.14.31.31,0,0,1,41,31c0-.15.14-.25.25-.33a1.34,1.34,0,0,0,.48-.83.49.49,0,0,0,0-.24,1.77,1.77,0,0,1,0-.4c0-1,.09-2,.13-3s.08-2.21.11-3.31,0-2.18.05-3.27,0-2.14,0-3.22c0-.53,0-1.06,0-1.59,0-.26,0-.52,0-.79a6.6,6.6,0,0,1,0-.77A1.06,1.06,0,0,0,42,13a1.83,1.83,0,0,0-.07-.32,2.41,2.41,0,0,0-.26-.59,2.49,2.49,0,0,0-.4-.52s-.46-.43-.5-.39a2.5,2.5,0,0,0,.34-.39,3.48,3.48,0,0,0,.52-1.24c0-.22.07-.44.11-.67,0,0,0-.08,0-.13a2.12,2.12,0,0,0,0-.5C41.68,7.54,41.63,6.87,41.58,6.19Z"/><path class="cls-3" d="M42,13.65c0,1.14,0,2.27,0,3.41,0,.54,0,1.09,0,1.63v.88c0,1.54,0,3.09-.08,4.63,0,.77,0,1.53-.07,2.3a4.2,4.2,0,0,1-.17,1.32,7.51,7.51,0,0,0-.21,1.57.69.69,0,0,1-.17.44.63.63,0,0,1-.42.14l-.77.08c-1.47.15-2.94.29-4.42.33a25.7,25.7,0,0,1-3.28-.13l2.49.37.7.1c1.69.26,3.38.5,5.07.75a.9.9,0,0,1,.43.16.78.78,0,0,1,.18.63c0,.34-.06.68-.11,1-.09.67-.22,1.34-.25,2a3,3,0,0,1,0,.42,3,3,0,0,1-.63,1.17,6.49,6.49,0,0,1-4.86,2.69A230.33,230.33,0,0,1,8,39.52,6.46,6.46,0,0,1,4.22,38a6.17,6.17,0,0,1-1.57-2c-.16-.35-.2-.73-.36-1.07l-.09-.23a.59.59,0,0,1,.17-.63,1.38,1.38,0,0,1,.78-.2c3-.1,6-.28,9.07-.37h.09c.93,0,1.86,0,2.78,0-.34-.06-.68-.1-1-.14-1.56-.18-3.13-.24-4.71-.3H9.28a48.51,48.51,0,0,1-5.65-.44,4.08,4.08,0,0,1-1-.29,1.39,1.39,0,0,1-.6-.47l0-.06a1.82,1.82,0,0,1-.24-1.22,5.37,5.37,0,0,0,0-1.33c-.05-.8-.09-1.6-.13-2.4,0-.44-.05-.87-.07-1.31a1,1,0,0,1,.14-.7,1,1,0,0,1,.51-.25c.6-.15,1.19-.29,1.79-.38a7.46,7.46,0,0,1,.81-.1L2.7,23.68a2.57,2.57,0,0,1-.61-.2L2,23.4a1.28,1.28,0,0,1-.48-.95c0-.12,0-.24-.05-.37a7.9,7.9,0,0,1-.11-.85c-.05-.44-.07-.88-.1-1.32a4.72,4.72,0,0,1,.52-3,1.36,1.36,0,0,1,1-.4c1.41-.16,2.82-.31,4.23-.43L7.82,16c1.43-.11,2.85-.2,4.28-.27a44.59,44.59,0,0,1-5.17-.06c-1.08-.07-2.16-.18-3.23-.32A4.26,4.26,0,0,1,2.37,15l0,0A1.44,1.44,0,0,1,2,14.82a1.46,1.46,0,0,1-.47-.65,1.44,1.44,0,0,1,0-.77c0-.1,0-.2,0-.3,0-.6,0-1.22,0-1.82,0-.32,0-.63,0-.94,0-1.35.11-2.7.19-4A6.43,6.43,0,0,1,8,.27q13.65-.54,27.42,0a6.49,6.49,0,0,1,6.07,5.19,7.48,7.48,0,0,1,.06,2.75,3.69,3.69,0,0,1-.18.65,1.5,1.5,0,0,1-.24.47l0,0a.77.77,0,0,1-.27.08c-.54.13-1.08.24-1.62.34-1.08.19-2.17.32-3.26.42h0c-2.21.19-4.42.22-6.63.26h-.06l1.81.11,4.93.29,3.27.19a4.15,4.15,0,0,1,1.92.42h0A2.22,2.22,0,0,1,42,13.65Z"/><path class="cls-4" d="M42,13.65c0,1.14,0,2.27,0,3.41,0,.54,0,1.08,0,1.63v.88c-4.21.27-8.43.64-12.65.89-4.92.3-9.84.63-14.75.94-2.65.17-5.28.37-7.92.67a31.3,31.3,0,0,1-5.16.38l-.06-.37c-.05-.28-.08-.57-.11-.86a31.14,31.14,0,0,1,5.33-.36c2.48-.08,4.92-.25,7.39-.48,4.92-.45,9.84-.93,14.76-1.49,2.92-.33,5.86-.63,8.79-1H37.3c-4.81-.26-9.53-1.15-14.32-1.58s-9.52-.79-14.29-1.07c-1.92-.12-4.14-.09-6.32-.25h0A1.44,1.44,0,0,1,2,14.82a1.52,1.52,0,0,1-.47-.65,1.44,1.44,0,0,1,0-.77c0-.1,0-.2,0-.3,0-.6,0-1.22,0-1.83,0-.31,0-.62,0-.93,2.42-.13,4.92,0,7.06.05,4.77,0,9.53.27,14.29.55s9.55.17,14.32.39c1.29.06,2.59.11,3.88.14A2.25,2.25,0,0,1,42,13.65ZM26.21,24.77c-8.12.39-16.68,0-24.61,2.11,0,.8.08,1.6.13,2.4a5.91,5.91,0,0,1,0,1.33A1.81,1.81,0,0,0,2,31.83a47.3,47.3,0,0,0,7.34,1.26h.07c1.56.15,3.13.24,4.71.3,4.07.15,8.16.06,12.14.1,5,0,10-.06,14.93-.23,0-.34.09-.67.11-1a.8.8,0,0,0-.17-.63.84.84,0,0,0-.44-.16l-5.77-.86-2.49-.37a36.18,36.18,0,0,0,7.71-.19l.76-.08a.61.61,0,0,0,.42-.14.69.69,0,0,0,.17-.44,6.83,6.83,0,0,1,.22-1.57,4.51,4.51,0,0,0,.16-1.32c0-.77,0-1.53.07-2.3C36.67,24.37,31.43,24.53,26.21,24.77Z"/><path class="cls-5" d="M2,31.88a1.77,1.77,0,0,1-.26-1.27,5.91,5.91,0,0,0,0-1.33c-.07-1.24-.13-2.48-.2-3.71a1,1,0,0,1,.14-.7.94.94,0,0,1,.52-.25A18.18,18.18,0,0,1,4,24.24a6.78,6.78,0,0,1-1.06.67,1.3,1.3,0,0,0-.39.25,1.1,1.1,0,0,0-.19.46,14.3,14.3,0,0,0,0,4.75c.08.66.16,1.33.22,2A1.41,1.41,0,0,1,2,31.88Z"/><path class="cls-5" d="M1.43,22.08a17.5,17.5,0,0,1-.2-2.17,4.72,4.72,0,0,1,.51-3,1.36,1.36,0,0,1,1-.4c1.7-.2,3.41-.38,5.11-.51-1.61.54-3.47.54-5,1.2a1.47,1.47,0,0,0-.73.54,1.46,1.46,0,0,0-.19.59,9.15,9.15,0,0,0-.13,1.88c0,.42.06.83.09,1.24.07.68.16,1.35.27,2L2,23.4C1.51,23.07,1.52,22.58,1.43,22.08Z"/><path class="cls-5" d="M34.59,30.49l.21.09A.4.4,0,0,1,34.59,30.49Z"/><path class="cls-5" d="M41.25,32.26c0,1-.32,2-.36,3a2.8,2.8,0,0,1,0,.41,3.14,3.14,0,0,1-.63,1.18,6.52,6.52,0,0,1-4.86,2.69A230.49,230.49,0,0,1,8,39.52,6.55,6.55,0,0,1,4.22,38a6.21,6.21,0,0,1-1.57-2c-.16-.34-.2-.72-.36-1.07a1.43,1.43,0,0,1-.08-.22.57.57,0,0,1,.16-.63,1.3,1.3,0,0,1,.78-.2c3-.1,6-.29,9.08-.37a68.15,68.15,0,0,0-7.93,1,7.91,7.91,0,0,0-1.1.2.24.24,0,0,0-.16.07.31.31,0,0,0,0,.25,1.75,1.75,0,0,0,.4.82A7.17,7.17,0,0,0,5.55,38c2.16,1.13,4.36,1,6.8.91a9.18,9.18,0,0,0,1.49-.09,3.57,3.57,0,0,1,.8,0l1.72,0,3.43.1,6.42.18a54.16,54.16,0,0,0,6.11-.06,18.57,18.57,0,0,0,5.88-1.34,2.82,2.82,0,0,0,.46-.23c.1-.07.18-.16.28-.23a6.18,6.18,0,0,0,.88-.64,2.15,2.15,0,0,0,.53-.63c0-.13.08-.28.13-.41a4.11,4.11,0,0,0,.22-1.15,7,7,0,0,0,0-1.29c0-.19,0-.55-.11-.71a.85.85,0,0,0-.31-.21,2.84,2.84,0,0,0-.85-.24,20.25,20.25,0,0,1-4.52-1.4l5.77.86a.84.84,0,0,1,.44.16A.8.8,0,0,1,41.25,32.26Z"/><path class="cls-5" d="M1.59,14.16a3.57,3.57,0,0,1-.06-1c0-1.58.08-3.17.17-4.75A12.18,12.18,0,0,1,2.35,4.1,6.51,6.51,0,0,1,8,.27q13.65-.54,27.42,0a6.48,6.48,0,0,1,6.07,5.19,7,7,0,0,1,.06,2.74,2.93,2.93,0,0,1-.18.66,1.5,1.5,0,0,1-.24.47c-.19-1.45.17-3-.36-4.42a4.76,4.76,0,0,0-1.47-2.18C37,.93,33.5,1.05,30.69,1,22.93.86,15.21.61,7.47,1.31c-.36,0-.71-.1-1,0A4.4,4.4,0,0,0,4.35,2.43,6.68,6.68,0,0,0,2.62,5q-.15.42-.27.87c-.75,2.87-.43,6.19-.07,9.1a1.14,1.14,0,0,1-.67-.76A.14.14,0,0,0,1.59,14.16Z"/><path class="cls-5" d="M42,13.65c0,1.14,0,2.27,0,3.41,0,.54,0,1.08,0,1.63,0,2.6,0,5.21-.15,7.81a4.51,4.51,0,0,1-.16,1.32,6.83,6.83,0,0,0-.22,1.57.69.69,0,0,1-.17.44.61.61,0,0,1-.42.14l-.76.08a1,1,0,0,0,.34-.41,2,2,0,0,0,.18-.81A126.89,126.89,0,0,0,40.88,15c0-.6,0-1.22-.07-1.82,0-.14,0-.27,0-.41a1,1,0,0,0-.23-.49,2.2,2.2,0,0,0-1.05-.64c-2.82-.95-6-.26-8.83-1.11h.35l8.2.47a4.25,4.25,0,0,1,1.91.43A2.22,2.22,0,0,1,42,13.65Z"/><path class="cls-6" d="M34.87,30.62l.7.1A3.62,3.62,0,0,1,35,32c-1.14,1.46-3.27,1.72-4.95,1.82-2.86.16-5.7.33-8.55.31-3.08,0-6.09-.31-9.16-.52.93,0,1.86,0,2.78,0-.34-.06-.68-.1-1-.14-1.56-.18-3.13-.24-4.71-.3H9.28L8.9,33a2.5,2.5,0,0,1-.75-.32A3,3,0,0,1,7.24,31a12.53,12.53,0,0,1-.17-4.32c.08-1.56.09-3.12.06-4.68,0-2-.13-3.94-.19-5.9L7.82,16,10,15.86c0,2.58.17,5.16.27,7.74,0,.27,0,.55,0,.83s0,.25.11.38a1.76,1.76,0,0,0,.85.43,6,6,0,0,0,.95,0h2.05a17.12,17.12,0,0,1-2,.21,4,4,0,0,0-.92.06c-.26.09-.54.13-.81.2a.38.38,0,0,0-.21.1.41.41,0,0,0-.08.19,2,2,0,0,0,.06.85,1.77,1.77,0,0,1,.12.64,6.77,6.77,0,0,0,.11,1.62,1.15,1.15,0,0,0,.17.55,2,2,0,0,0,1.13.67,38.5,38.5,0,0,0,9.77.95c1.94,0,3.88,0,5.82,0,1.32,0,3.73.23,4.87-.58a2,2,0,0,0,.41-.41ZM10,14.2c0-.55.05-1.09.1-1.64a1.22,1.22,0,0,0,0-.27,1.35,1.35,0,0,1,0-.49,1.47,1.47,0,0,1,.65-1,1.81,1.81,0,0,1,.8-.15c1.36,0,2.72,0,4.08,0l-3.24-.35a5.29,5.29,0,0,0-1.82,0,1,1,0,0,0,.09-.18l.14-.21a2.5,2.5,0,0,1,.32-.33c.22-.18.41-.38.63-.55a5.48,5.48,0,0,1,1.56-.8,12.66,12.66,0,0,1,1.6-.45,5.19,5.19,0,0,1,1.12-.1c4.26-.06,8.52-.08,12.78-.11A8.57,8.57,0,0,1,31,8a2.59,2.59,0,0,1,1.37.78,3.26,3.26,0,0,1,.56,1.56c1,0,2-.09,3-.18a5.1,5.1,0,0,0-1.15-3.28c-.93-1-2.51-1.2-3.78-1.28-1.44-.08-2.88-.13-4.32-.16l-3.37-.05c-2.3,0-4.56.08-6.84.2-2.46.13-5.58-.7-7.68,1A4.75,4.75,0,0,0,7.05,9.85,20.2,20.2,0,0,0,6.88,13c0,.9,0,1.8,0,2.72,1,.07,2,.11,3.06.11C10,15.26,10,14.73,10,14.2Zm26.32,3.47q-.07-2.94-.3-5.88c0-.31,0-.62-.05-.93-1-.06-2-.13-3-.18.1,1.07,0,2.27.06,3.07.07,1.23.19,2.46.29,3.69,0,.6.1,1.19.13,1.79a.74.74,0,0,1-.06.51,1.14,1.14,0,0,1-.9.35,29.41,29.41,0,0,0-5,.54,57.7,57.7,0,0,0,6.17-.11l-.13.55a2.11,2.11,0,0,0-.1.5,1.5,1.5,0,0,0,.06.29,4.87,4.87,0,0,1,0,.54c0,.75,0,1.51,0,2.26s0,1.27-.06,1.9a1.62,1.62,0,0,1,0,.22,6.39,6.39,0,0,1-.75,3.49,25,25,0,0,0,3,.11A20.45,20.45,0,0,0,36,27.9a72.94,72.94,0,0,0,.32-8.1c0-.7,0-1.4,0-2.1Z"/><path class="cls-5" d="M25.65,33.9a28.75,28.75,0,0,0,3.94-.24c.28,0,.57,0,.84,0,.59,0,1.17-.1,1.75-.18a6.14,6.14,0,0,0,1.13-.24,3.47,3.47,0,0,0,2.23-2.52c-.61,0-1.31,0-1.92-.06a1.48,1.48,0,0,1,1.49.64,5.86,5.86,0,0,1-2.24,1.32,7.06,7.06,0,0,1-1.38.19c-3.15.25-6.3.49-9.46.44-1.52,0-3-.12-4.54-.06-.44,0-.88,0-1.32.06a6.26,6.26,0,0,1-.75,0,3,3,0,0,0-.52,0l-1.12,0c-.75,0-1.5-.09-2.25-.17s-1.63-.2-2.43-.34A2.17,2.17,0,0,1,8,32.22a1.93,1.93,0,0,1-.41-.65A8.65,8.65,0,0,1,7,29.18a3.23,3.23,0,0,0,.68,2.93,4.32,4.32,0,0,0,2.57,1.38,8,8,0,0,0,2.28.13,2.68,2.68,0,0,1,.49,0l1.14.06,2.28.09c.75,0,1.51,0,2.26,0a6.6,6.6,0,0,0,1.09,0,6.39,6.39,0,0,1,1.07,0c1.52.05,3,.09,4.56.08Z"/><path class="cls-5" d="M37.07,11.16l-1.35,0L34.36,11l-.69,0-.34,0-.2,0h-.07l-.13,0-.54-.14v-.08a2.26,2.26,0,0,1,.27,0,.82.82,0,0,0,.22,0l.17,0h.29l1.13,0c.38,0,.76,0,1.13.08s.76.06,1.14.11l.4.05C37.13,11.05,37.07,11.07,37.07,11.16Z"/><path class="cls-5" d="M10.42,15.81c-1.21.12-2.41.29-3.59.5a.24.24,0,0,1-.09-.26C8,15.89,9.15,15.87,10.42,15.81Z"/><path class="cls-7" d="M34.53,18.56c0,2.77,0,5.51-.22,8.22,0,.61-.08,1.22-.14,1.83A3.76,3.76,0,0,1,30.67,32a138.39,138.39,0,0,1-18.1,0,3.76,3.76,0,0,1-3.51-3.49s0-.05,0-.08q-.36-7-.13-14.33c0-.23,0-.46,0-.69,0-.92.07-1.84.12-2.76A3.4,3.4,0,0,1,9.15,10a.27.27,0,0,1,0-.12,3.76,3.76,0,0,1,3.47-2.83q8.85-.44,17.93,0a3.78,3.78,0,0,1,3.59,3.45c.14,1.76.24,3.5.3,5.23C34.51,16.71,34.53,17.63,34.53,18.56Z"/><path class="cls-8" d="M34.53,18.56a11.63,11.63,0,0,0-.75,1.55,26.41,26.41,0,0,0-.88,5,6.55,6.55,0,0,1-2.23,4.38,7.34,7.34,0,0,1-4.26,1A38.54,38.54,0,0,1,14,28.59a7.13,7.13,0,0,1-3.14-2.33c-.08-.64-.15-1.28-.23-1.92-.16-1.4-.33-2.8-.5-4.19-.08-.7-.16-1.39-.25-2.09,0-.35-.1-.7-.12-1a1.73,1.73,0,0,1,0-.32,2.22,2.22,0,0,0-.18-.8c-.08-.25-.12-.5-.22-.74s-.3-.56-.4-.87a1.09,1.09,0,0,1-.05-.17,5.57,5.57,0,0,1-.08-2.78c.1-.44.2-.88.31-1.31a.27.27,0,0,1,0-.12,3.76,3.76,0,0,1,3.47-2.83q8.85-.44,17.93,0a3.78,3.78,0,0,1,3.59,3.45c.14,1.76.24,3.5.3,5.23C34.51,16.71,34.53,17.63,34.53,18.56Z"/><path class="cls-9" d="M33,19.92c0,2.06-.08,4.11-.21,6.13q0,.84-.12,1.65a3.33,3.33,0,0,1-3.07,3.08c-1.9.13-3.81.22-5.74.25-3.14,0-6.33,0-9.55-.21l-.61,0a3.36,3.36,0,0,1-3.09-3.15v-.07q-.25-5.19-.17-10.51a.2.2,0,0,1,0-.11c0-1,0-1.92.08-2.89s.06-1.65.09-2.49a3.36,3.36,0,0,1,3.16-3.22c1.77-.08,3.55-.14,5.33-.17q5.16-.08,10.41.18a3.27,3.27,0,0,1,1.21.3h0a3.37,3.37,0,0,1,1.94,2.8c.13,1.58.22,3.15.27,4.7C33,17.41,33,18.68,33,19.92Z"/><path class="cls-10" d="M33,19.92c-.32,1.18-1.6,1.82-3.07,2.14a37.14,37.14,0,0,1-16.22,0c-1.65-.37-3-1.17-3.16-2.55v-.05c0-.79-.09-1.6-.11-2.4a.2.2,0,0,1,0-.11c0-1,0-1.92.08-2.89s.06-1.65.09-2.49a3.36,3.36,0,0,1,3.16-3.22q7.77-.37,15.74,0a3.35,3.35,0,0,1,3.16,3.1c.13,1.58.22,3.15.27,4.7C33,17.41,33,18.68,33,19.92Z"/><path class="cls-11" d="M30.7,8.65A4.11,4.11,0,0,0,29.09,9c-1,.47-1.36,1.86-1.81,2.84q-1,2.21-1.85,4.46c-1,2.71-2,5.43-2.85,8.19-.15.45-.29.89-.44,1.32a5.75,5.75,0,0,0-.36,3.67c.08.2.17.41.26.61a1,1,0,0,0,.6.55,8,8,0,0,0,1.2.39c-3.14,0-6.33,0-9.55-.21a3.2,3.2,0,0,0,1.71-1A7.47,7.47,0,0,0,17.38,27l3.9-12.5a10.52,10.52,0,0,0,.61-2.86,3.56,3.56,0,0,0-1-2.68,3.32,3.32,0,0,0-1.8-.77q5.16-.08,10.41.18A3.27,3.27,0,0,1,30.7,8.65Z"/><path class="cls-8" d="M30.13,23.19v0a2.32,2.32,0,0,0-.46.07l-.35.11a17.79,17.79,0,0,1-2.8.39,2.13,2.13,0,0,0-.27,0,12.63,12.63,0,0,1-3.83,3.31c-.08,0-.17.08-.24,0a.62.62,0,0,1-.1-.29c0-.22-.07-.45-.1-.68a6,6,0,0,0-.05-.61,3.2,3.2,0,0,1-.08-.54c0-.47-.06-.94-.08-1.41q-.06-1.41-.06-2.82c0-.94,0-1.88.08-2.82s.12-1.88.2-2.81c0-.42.07-.84.11-1.27,0-.21,0-.42,0-.63a2.65,2.65,0,0,0,.05-.54A8.73,8.73,0,0,1,24,14.06c.73.68,1.59,1.75,2.31,2.47a28.43,28.43,0,0,0,3.61.44A.27.27,0,0,0,30,17s.07.25.07.27a4.89,4.89,0,0,1,.16.76A33.31,33.31,0,0,1,30.13,23.19Z"/><path class="cls-8" d="M16.78,26.71c-.07-.19-.18-.37-.26-.56s-.14-.41-.2-.61c-.13-.41-.23-.84-.33-1.26a17.13,17.13,0,0,1-.36-3.72,12.94,12.94,0,0,1,.07-1.39,18,18,0,0,1,.72-3.41c.17-.55.36-1.09.56-1.63.07-.18.39-.7.05-.8a8.29,8.29,0,0,1-1.57-.86.64.64,0,0,1-.16-.11,1.59,1.59,0,0,0-.5-.26A9.81,9.81,0,0,0,13,16.76a23.53,23.53,0,0,0,.11,8.45A5.39,5.39,0,0,0,13.67,27a1.69,1.69,0,0,0,.69.71c.29.12.62-.11.88-.21S16.87,27,16.78,26.71Z"/><path class="cls-8" d="M20.74,25c0-.14-.14-.28-.19-.43a4.19,4.19,0,0,1-.16-.46c-.1-.32-.17-.64-.25-1a12.75,12.75,0,0,1-.27-2.83,11.28,11.28,0,0,1,.4-2.95,16,16,0,0,1,.52-1.66l.15-.4c0-.12.13-.24,0-.36s-.13-.09-.23-.12a3.42,3.42,0,0,1-.8-.37,1.25,1.25,0,0,1-.36-.28c-.09-.13-.22-.45-.42-.23a3.32,3.32,0,0,0-.46.71,7.13,7.13,0,0,0-.38.85,10.6,10.6,0,0,0-.49,1.92,18.28,18.28,0,0,0,.09,6.43,2.83,2.83,0,0,0,.91,1.85s.19,0,.25,0h.14a2.43,2.43,0,0,0,.38-.13c.21-.09.4-.24.62-.31A1.62,1.62,0,0,0,20.74,25Z"/><path class="cls-12" d="M30.47,22.77v0a3.65,3.65,0,0,0-.46.07l-.35.11a18.88,18.88,0,0,1-2.8.4s-.25,0-.27,0a12.73,12.73,0,0,1-3.83,3.3c-.08,0-.17.08-.24,0a.59.59,0,0,1-.1-.29c0-.22-.07-.45-.1-.67a4.32,4.32,0,0,0-.05-.62,3.2,3.2,0,0,1-.08-.54c0-.47-.05-.94-.08-1.41,0-.94-.06-1.88-.05-2.82s0-1.88.07-2.82.13-1.87.2-2.81c0-.42.07-.84.11-1.26,0-.21,0-.42,0-.64a2.65,2.65,0,0,0,.05-.54,9.11,9.11,0,0,1,1.82,1.33c.73.69,1.59,1.75,2.31,2.47a28.59,28.59,0,0,0,3.62.44.11.11,0,0,0,.08,0s.07.25.08.27a5.1,5.1,0,0,1,.15.76A32.27,32.27,0,0,1,30.47,22.77Z"/><path class="cls-12" d="M17.12,26.28c-.07-.19-.18-.37-.25-.56a6.26,6.26,0,0,1-.21-.61c-.13-.41-.23-.83-.33-1.25A17.22,17.22,0,0,1,16,20.13c0-.46,0-.93.07-1.39a17.89,17.89,0,0,1,.72-3.4c.17-.56.36-1.1.57-1.64.06-.18.39-.7,0-.79a8.89,8.89,0,0,1-1.57-.86.67.67,0,0,1-.16-.12,1.49,1.49,0,0,0-.5-.26,9.81,9.81,0,0,0-1.82,4.67,23.76,23.76,0,0,0,.11,8.45A5.58,5.58,0,0,0,14,26.53a1.63,1.63,0,0,0,.69.71c.29.12.62-.11.88-.21S17.21,26.53,17.12,26.28Z"/><path class="cls-12" d="M21.08,24.62c0-.15-.13-.29-.19-.44s-.11-.3-.16-.46c-.1-.32-.17-.63-.25-.95a13.47,13.47,0,0,1-.27-2.84,11.28,11.28,0,0,1,.4-2.95,16.75,16.75,0,0,1,.52-1.66l.15-.4c0-.12.13-.24,0-.36s-.14-.08-.24-.11a3.91,3.91,0,0,1-.8-.38,1.07,1.07,0,0,1-.36-.27c-.09-.14-.21-.46-.42-.24a3.15,3.15,0,0,0-.46.72,6.35,6.35,0,0,0-.38.84A10.58,10.58,0,0,0,18.19,17a18.1,18.1,0,0,0,.08,6.44,2.83,2.83,0,0,0,.91,1.84,1.1,1.1,0,0,0,.25,0,.33.33,0,0,0,.14,0,2.43,2.43,0,0,0,.38-.13c.22-.08.41-.23.62-.31A1.59,1.59,0,0,0,21.08,24.62Z"/></g></g></g></svg>