<svg xmlns="http://www.w3.org/2000/svg" xmlns:xlink="http://www.w3.org/1999/xlink" viewBox="0 0 220.36 194.84"><defs><linearGradient id="linear-gradient" x1="111.03" y1="120.17" x2="111.03" y2="12.34" gradientUnits="userSpaceOnUse"><stop offset="0" stop-color="#848ba5"/><stop offset="0.21" stop-color="#888ea8"/><stop offset="0.41" stop-color="#9399b0"/><stop offset="0.6" stop-color="#a7aabe"/><stop offset="0.8" stop-color="#c2c2d2"/><stop offset="0.99" stop-color="#e5e1eb"/><stop offset="1" stop-color="#e7e3ed"/></linearGradient><linearGradient id="linear-gradient-2" x1="109.04" y1="120.17" x2="109.04" y2="12.34" gradientUnits="userSpaceOnUse"><stop offset="0" stop-color="#6c71b6"/><stop offset="0.32" stop-color="#494c7b"/><stop offset="1"/></linearGradient><linearGradient id="linear-gradient-3" x1="-5.81" y1="35.48" x2="138.07" y2="179.36" gradientUnits="userSpaceOnUse"><stop offset="0" stop-color="#303f5a"/><stop offset="0.28" stop-color="#27344b"/><stop offset="0.5" stop-color="#1f293d"/></linearGradient><clipPath id="clip-path"><path id="SVGID" d="M31,6.4c3.06-.48,7.33,7.47,28.67,14.78s24.68,35.06,14.17,48S41.47,82.13,39.14,97.52c0,0-.2-7.62-11.45-9.6S14.76,84.29,12.17,74.14s-3.66-8.22,0-14.67,2.13-8.31,2.13-8.31,7.44-16.72,5.78-21.9,11.08-7.62,13.16-11.13S28.13,6.86,31,6.4Z" style="fill:none"/></clipPath><linearGradient id="linear-gradient-4" x1="75.81" y1="24.61" x2="21.75" y2="78.67" gradientUnits="userSpaceOnUse"><stop offset="0" stop-color="#a6b7cb"/><stop offset="0.04" stop-color="#a9b9cd"/><stop offset="1" stop-color="#e7e3ed"/></linearGradient><linearGradient id="linear-gradient-5" x1="52.73" y1="45.56" x2="38.2" y2="60.09" gradientUnits="userSpaceOnUse"><stop offset="0" stop-color="#303f5a"/><stop offset="0.91" stop-color="#212b40"/><stop offset="1" stop-color="#1f293d"/></linearGradient><linearGradient id="linear-gradient-6" x1="20.48" y1="46.65" x2="31.74" y2="57.91" gradientUnits="userSpaceOnUse"><stop offset="0" stop-color="#303f5a"/><stop offset="1" stop-color="#1f293d"/></linearGradient><linearGradient id="linear-gradient-7" x1="26.34" y1="61.25" x2="33.72" y2="68.63" xlink:href="#linear-gradient-6"/><linearGradient id="linear-gradient-8" x1="48.55" y1="32.14" x2="88" y2="74.8" gradientUnits="userSpaceOnUse"><stop offset="0" stop-color="#fff"/><stop offset="0.56" stop-color="#9384a4"/><stop offset="0.84" stop-color="#5b4475"/></linearGradient><linearGradient id="linear-gradient-9" x1="22" y1="28.89" x2="59.33" y2="28.89" xlink:href="#linear-gradient-2"/><radialGradient id="radial-gradient" cx="96.68" cy="54.82" r="17.52" gradientTransform="translate(-19.27) scale(0.7 1)" gradientUnits="userSpaceOnUse"><stop offset="0" stop-color="#ab3ff9"/><stop offset="0.03" stop-color="#a03be9"/><stop offset="0.13" stop-color="#7b2db3"/><stop offset="0.24" stop-color="#5a2183"/><stop offset="0.35" stop-color="#3e175b"/><stop offset="0.46" stop-color="#280f3a"/><stop offset="0.58" stop-color="#160820"/><stop offset="0.7" stop-color="#0a040e"/><stop offset="0.82" stop-color="#020104"/><stop offset="0.96"/></radialGradient><radialGradient id="radial-gradient-2" cx="-1.76" cy="-10.32" r="17.52" gradientTransform="matrix(0, 0.7, -0.83, 0, 21.62, 53.87)" xlink:href="#radial-gradient"/><linearGradient id="linear-gradient-10" x1="53.44" y1="154.81" x2="53.44" y2="93.44" gradientUnits="userSpaceOnUse"><stop offset="0.19" stop-color="#303f5a"/><stop offset="0.76" stop-color="#1f293d"/></linearGradient><linearGradient id="linear-gradient-11" x1="40.3" y1="107.81" x2="109.58" y2="107.81" gradientUnits="userSpaceOnUse"><stop offset="0" stop-color="#723617"/><stop offset="0.05" stop-color="#6e3417"/><stop offset="0.42" stop-color="#532716"/><stop offset="0.75" stop-color="#432015"/><stop offset="1" stop-color="#3d1d15"/></linearGradient><linearGradient id="linear-gradient-12" x1="35.61" y1="108.04" x2="48.08" y2="120.51" gradientUnits="userSpaceOnUse"><stop offset="0" stop-color="#e7e3ed"/><stop offset="0.23" stop-color="#ced2e0"/><stop offset="0.5" stop-color="#b8c3d4"/><stop offset="0.76" stop-color="#abbacd"/><stop offset="1" stop-color="#a6b7cb"/></linearGradient><linearGradient id="linear-gradient-13" x1="41.61" y1="120.34" x2="71.25" y2="149.97" gradientUnits="userSpaceOnUse"><stop offset="0.17" stop-color="#303f5a"/><stop offset="0.21" stop-color="#2f3d58"/><stop offset="0.58" stop-color="#232e44"/><stop offset="0.84" stop-color="#1f293d"/></linearGradient><linearGradient id="Áåçûìÿííûé_ãðàäèåíò_4" x1="125.03" y1="203.83" x2="130.64" y2="23.58" gradientUnits="userSpaceOnUse"><stop offset="0" stop-color="#726865"/><stop offset="1" stop-color="#7f7c83"/></linearGradient><linearGradient id="Áåçûìÿííûé_ãðàäèåíò_4-2" x1="173.76" y1="83.52" x2="155.07" y2="70.81" xlink:href="#Áåçûìÿííûé_ãðàäèåíò_4"/><linearGradient id="Áåçûìÿííûé_ãðàäèåíò_24" x1="132.39" y1="94.12" x2="148.07" y2="74.71" gradientUnits="userSpaceOnUse"><stop offset="0" stop-color="#6f5872"/><stop offset="1" stop-color="#8f9499"/></linearGradient><radialGradient id="radial-gradient-3" cx="253.91" cy="70.11" r="18.28" xlink:href="#radial-gradient"/><radialGradient id="radial-gradient-4" cx="164.82" cy="-44.83" r="17.65" gradientTransform="matrix(0.65, 0.24, -0.29, 0.77, 28.29, 61.06)" xlink:href="#radial-gradient"/></defs><g style="isolation:isolate"><g id="Calque_2" data-name="Calque 2"><g id="Ñëîé_1" data-name="Ñëîé 1"><g id="Calque_2-2" data-name="Calque 2"><path d="M138.13,168.24s-32.3-.3-8.43-.43l-46.53-.31s3.46-1.35-6.7-.62c0,0,4.06-2.7-.71-1,0,0,4.16-2.49-4.57-3.45-6-.64-11.69-2.71-14-4.53a18,18,0,0,1,1.08-1.77,129.28,129.28,0,0,1,17.91-.92c15.34.46,17.78,4,21.74,4.5s11.68-.47,11.68-.47l-1-.42c52.21-10.78,15.59-21.93,15.59-21.93,6.18,4.23,4.27,7.54-1.14,10.08a18.19,18.19,0,0,1,6.17-.47c3.05.6-13.4,5.16-17.14,3.91A209.15,209.15,0,0,1,87.19,154c-2-.26-3.31-.4-3.31-.4l-.52,0a25,25,0,0,1,6.11-1.61c3.86-.4,16-1.48,14.22-3.87s-3.15-3.13-1.93-4.84-6.6-5.28-26.41-6.06S61.94,135.8,52.7,135.4L51,135.33l-.49,0-1.23,0h-.45l-1.33,0h-.24c-6.55-.16-12.8-.18-16-.68a10.11,10.11,0,0,1-1.18-.24,6.26,6.26,0,0,1-2.14.4c-1.32,0-1.62.67-1.62.67s6.6,1.53,4.67,2.29S12.78,139,13.79,139.39s2.13,4.5-9.85,7.23c0,0,10.36,4.37,11,6.44,0,0,13.92-.4,18.18,1.1,0,0-5-.7,0,.87,0,0-2-.54-1.84.29-2.55.61-9.68,2.49-14.11,5.45C8.64,162.46.79,164.14.79,164.14c-3.66.55,6.5,3.32,8,2.74s3.37-1.1,5.09-1.61a4.39,4.39,0,0,0,.57.18,6.18,6.18,0,0,0-.44,1.16c0,.07,0,.12,0,.17s0,.12,0,.17,0,.13,0,.17v.33s0,.05,0,.07,0,.06,0,.1,0,0,0,.06,0,.06,0,.09l0,.07,0,.08,0,.07s0,0,0,.08l0,.06a.18.18,0,0,0,.05.07l.06.07,0,0,.08.07.06.05.1.06.07,0,.12.05.07,0,.21.07c2.52.68,1.83-1.23,1.83-1.23a16.85,16.85,0,0,0,6.18,1.22l-5.93.87s71.82.06,79.14,0,11.27-.62,54-.49C150.32,169.06,94.55,168.74,138.13,168.24Zm-113.3.18a16.05,16.05,0,0,0-2.23-.57s1.45.23,2.43.28l.34.21Zm58.53-14.76c-.58.23-1.06.43-1.39.58C82.3,154.09,82.78,153.89,83.36,153.66Zm-29.95.48a133.24,133.24,0,0,1,24.15,0l-1.24-.1c-10.93.44-15.7.24-15.7.24-.57,0-1.19.05-1.83.1C58,153.89,55.85,154,53.41,154.14Z" style="fill:#8389c1;opacity:0.36;mix-blend-mode:multiply"/><path d="M13.54,147.73s.35,5.36,10.82,5-.59-9.57-1.36-9.36S13.54,147.73,13.54,147.73Z" style="fill:#171d27"/><path d="M15.06,144.91s-2.51,17.14,0,20.42,1.83-6,1.83-6,2.36,5.49,6.48,6-.77-4-.77-4,2.29,1.75,3,1.29S22.78,152.83,23,152.3s0-7.93,0-7.93Z" style="fill:#a6b7cb"/><path d="M32.2,100S15,117.33,13.54,147.73c0,0,6-6.43,15.59,4.34S32.2,100,32.2,100Z" style="fill:#19212c"/><path d="M124.16,12.34c6.18,20.32,4.27,36.22-1.14,48.43,2-2,4.57-3.78,6.17-2.26,3.05,2.9-13.4,24.81-17.14,18.81A74.78,74.78,0,0,1,85.41,95.59l12,17.88,7.52,6.7,3.66-2.44C160.78,65.91,124.16,12.34,124.16,12.34Z" style="fill:url(#linear-gradient)"/><path d="M124.16,12.34c6.18,20.32,4.27,36.22-1.14,48.43,2-2,4.57-3.78,6.17-2.26,3.05,2.9-13.4,24.81-17.14,18.81A74.78,74.78,0,0,1,85.41,95.59l6.64,9.9c1.12-.53,2.27-1.11,3.52-1.77C156.31,71.21,124.16,12.34,124.16,12.34Z" style="opacity:0.30000000000000004;mix-blend-mode:color-dodge;fill:url(#linear-gradient-2)"/><path d="M30.15,0S29.33,1.73,28,1.93s-1.62,3.25-1.62,3.25,6.6,7.31,4.67,11-18.28,6.6-17.27,8.33,2.13,21.64-9.85,34.74c0,0,10.36,21,11,31,0,0,13.92-1.93,18.18,5.28,0,0-5-3.35,0,4.16,0,0-2.44-3.15-1.72,2.85,0,0-15.65,34.43-6,61.15l-8.23,5.79s71.82.31,79.14,0,11.27-2.95,54-2.34c0,0-55.77-1.52-12.19-4,0,0-32.3-1.42-8.43-2l-46.53-1.52s3.46-6.5-6.7-3c0,0,4.06-13-.71-5,0,0,4.16-12-4.57-16.55s-17-23.78-14.73-32.41-3.05-7.31-3.05-7.31,12.49-7,28,1.62c0,0,4.16-9.75,8-11.68s16-7.11,14.22-18.59-3.15-15-1.93-23.26-6.6-25.4-26.41-29.16-13.41-7.11-22.65-9S33.3,4.47,30.15,0Z" style="fill:url(#linear-gradient-3)"/><path d="M96.28,169.44c7.31-.3,11.27-2.95,54-2.34,0,0-55.77-1.52-12.19-4,0,0-32.3-1.42-8.43-2l-46.53-1.52s3.46-6.5-6.7-3c0,0,4.06-13-.71-5,0,0,4.16-12-4.57-16.55s-17-23.78-14.73-32.41-3.05-7.31-3.05-7.31,12.49-7,28,1.62c0,0,4.16-9.75,8-11.68s16-7.11,14.22-18.59-3.15-15-1.93-23.26-6.6-25.4-26.41-29.16-13.41-7.11-22.65-9c-8.31-1.73-17.34-1-21.37-4.1,3.13,3,12.19,11.09,23.3,14.77,13.81,4.57,32.61,16.56,26.31,42.46S42.34,82.89,41.22,96.3c0,0-.2,7.52-2.08,1.22l0-5.28-.71-73L31,6.4s-2.84-1.19.83,6.09S17.25,25.6,17.25,25.6s2.23,13.31-4.68,25.29c0,0,1.83,4.37-4.16,11.89l7.31,24.58s19.81.2,20.52,8.33-3.15-.2-3.15-.2,1.46,11.58,12.21,3.76c0,0-6.55,11.17-12.21.4,0,0,3.25,16.76,14,1.93s-5,11.18,2.85,27,22.44,41.35-22.45,35c0,0,10.36,4.26,29.56,1.83,0,0-17.88,6.7-31.7-1.73l-8.23,5.79S89,169.75,96.28,169.44Z" style="fill:#5b4475;opacity:0.28;mix-blend-mode:multiply"/><g style="clip-path:url(#clip-path)"><path d="M31,6.4c3.06-.48,7.33,7.47,28.67,14.78s24.68,35.06,14.17,48S41.47,82.13,39.14,97.52c0,0-.2-7.62-11.45-9.6S14.76,84.29,12.17,74.14s-3.66-8.22,0-14.67,2.13-8.31,2.13-8.31,7.44-16.72,5.78-21.9,11.08-7.62,13.16-11.13S28.13,6.86,31,6.4Z" style="fill:#171d27"/><polygon points="25.47 82.38 27.4 85.38 30.05 82.38 25.47 82.38" style="fill:#8e89a4"/><path d="M25.27,71.51S19.58,75,15,68.47c0,0,2.13-7.32,0-10.47,0,0,9.24-12.49,5.13-17.27a4.18,4.18,0,0,0,2.08-3.55c-.1-2.34,1-22.35,29.87-20S91.6,39.41,87.85,56.58,54.73,85.33,57.27,77.2c0,0-8.94,1.83-7.31-4.77,0,0-6.4-.2-5.49,2.84a8.3,8.3,0,0,1-.71,5.89l-1.93,6.1s-3.56-1.93-4.17-4.77a19.19,19.19,0,0,1-11.68.3A9.48,9.48,0,0,1,22.73,78Z" style="fill:url(#linear-gradient-4)"/><path d="M46.58,64.87a10.4,10.4,0,0,1-9.58-9c-.71-4.92-1.06-11.67,1.78-14C43.45,38,56.46,45.1,57,53.53,57.33,59.59,53.08,65.18,46.58,64.87Z" style="fill:url(#linear-gradient-5)"/><path d="M22.73,78a9.26,9.26,0,0,0,1.52,3C27.79,68,22.73,78,22.73,78Z" style="fill:#efedf2"/><path d="M26,82.79a17.45,17.45,0,0,0,6.21.76C32,66.68,26,82.79,26,82.79Z" style="fill:#efedf2"/><path d="M32.19,83.55a19.37,19.37,0,0,0,5.47-1.06C35.13,69.75,32.19,83.51,32.19,83.55Z" style="fill:#efedf2"/><path d="M24.25,81A8.82,8.82,0,0,0,26,82.79C30.64,65.84,24.29,80.9,24.25,81Z" style="fill:#efedf2"/><path d="M37.66,82.49c.61,2.84,4.17,4.77,4.17,4.77l1.93-6.1C38.22,69.13,37.66,82.49,37.66,82.49Z" style="fill:#efedf2"/><path d="M32.79,54.14c.93-3.56-.92-12.62-5.28-13.37S18.06,58.41,20.9,61a7.74,7.74,0,0,0,5.57,2.23l-.6-2a1.55,1.55,0,0,1,1.45-2C29.17,59.17,31.69,58.35,32.79,54.14Z" style="fill:url(#linear-gradient-6)"/><path d="M27,60.61s9.15,4.26,8,6.6-4.88-1.76-4.88-1.76,1.39,3.16-.14,3.16S27,60.61,27,60.61Z" style="fill:url(#linear-gradient-7)"/><path d="M48,48.76c2.9-.53,4.19,11.05.54,11.2S43.78,49.53,48,48.76Z" style="fill:#fff"/><path d="M31.37,49.29c-1.86-.43-5.9,6.3-3.28,7.47S33.65,49.83,31.37,49.29Z" style="fill:#fff"/><path d="M57.78,33.22s.4,6.09,4.57,8.63c0,0-3.25,9.68.1,18.76S55,76.84,50.74,71.11c-5.47-7.32-12.47,2.54-9,7.92,1.07,1.68.49,4.52-.81,7.65.53.37.91.58.91.58l1.93-6.1a8.3,8.3,0,0,0,.71-5.89c-.91-3,5.49-2.84,5.49-2.84-1.63,6.6,7.31,4.77,7.31,4.77-2.54,8.13,26.82-3.45,30.58-20.62a30.28,30.28,0,0,0-5.11-24.52C81.74,31,67.19,16,57.78,33.22Z" style="fill:#5b4475;opacity:0.28;mix-blend-mode:multiply"/><path d="M25.27,71.51s3.45-4.57-1.22-5.58-1.12,7.9-8.23,2.68l-.71-.53-.1.39C19.58,75,25.27,71.51,25.27,71.51Z" style="fill:#5b4475;opacity:0.28;mix-blend-mode:multiply"/><path d="M22.73,78s5.06-10,1.51,3c0,0,6.41-15.25,1.74,1.77,0,0,6-16.11,6.21.76,0,0,2.93-13.81,5.47-1.06,0,0,.56-13.36,6.1-1.33,0,0-4.67-12.13-6.35-1.57,0,0-2.13-8.84-4.93.46,0,0-.56-10.39-5.15-1.35,0,0,2.92-10.46-1.88-1.5C25.45,77.2,27.76,67.81,22.73,78Z" style="fill:#5b4475;opacity:0.28;mix-blend-mode:multiply"/><path d="M25.27,71.51s1.07-2.74-1.07-3c-1.24-.15-2,2.34-3.74,3.8A7.58,7.58,0,0,0,25.27,71.51Z" style="fill:#5b4475;opacity:0.28;mix-blend-mode:multiply"/><path d="M44.47,75.27c-.91-3,5.49-2.84,5.49-2.84S41.12,68.11,44.47,75.27Z" style="fill:#5b4475;opacity:0.28;mix-blend-mode:multiply"/><path d="M62.1,27.64C79.67,41.75,72.81,75.37,57.27,77.2c-2.54,8.13,26.82-3.45,30.58-20.62S80.94,19.5,52.09,17.17c-10.41-.85-17.19,1.23-21.63,4.32C30.57,21.43,44.6,13.59,62.1,27.64Z" style="opacity:0.28;mix-blend-mode:multiply;fill:url(#linear-gradient-8)"/><path d="M48.28,37.94c22-2.86,7.72-15.31.81-17.41l-.65-.19-.06,0c-10.57-2.93-17.84,1.12-17.92,1.17A19.09,19.09,0,0,0,23.1,31.63l0,.42S26,40.84,48.28,37.94Z" style="opacity:0.30000000000000004;mix-blend-mode:color-dodge;fill:url(#linear-gradient-9)"/></g><path d="M37.42,30.82c-.49,3.89,4.54,4.87,5.49,4.61S38.18,24.76,37.42,30.82Z" style="fill:#5b4475;opacity:0.28;mix-blend-mode:multiply"/><path d="M33.16,30.47c.1,2-4.61,5.41-5.34,4.5S32.89,25.64,33.16,30.47Z" style="fill:#5b4475;opacity:0.28;mix-blend-mode:multiply"/><ellipse cx="47.98" cy="54.82" rx="12.19" ry="17.52" style="mix-blend-mode:screen;fill:url(#radial-gradient)"/><ellipse cx="30.15" cy="52.64" rx="14.49" ry="12.19" transform="translate(-29.73 62.33) rotate(-69.39)" style="mix-blend-mode:screen;fill:url(#radial-gradient-2)"/><path d="M49.65,103.77s.2-7.62,3.76-8.38,6.6-1.83,5.38,5.79-3.36,24.48-2.51,32.5-8.3-4.47-8.3-4.47S47.06,107.27,49.65,103.77Z" style="fill:url(#linear-gradient-10)"/><path d="M48.89,113.06s-16.09,5-13.1,16l11.42,3.4S50.16,117.13,48.89,113.06Z" style="fill:#171d27"/><path d="M.79,143.44s29.76-30.58,36.06-32.71a3.16,3.16,0,0,0,2.64,1.93s1.83,3.75,0,6.5A186,186,0,0,0,8.81,156.64Z" style="fill:#723617"/><path d="M108.57,117.73s-4.88,3.15-7.92-7.41S83.88,93,83.88,93l-.52.13C82.2,95.25,81.45,97,81.45,97a37.17,37.17,0,0,0-5.13-2.35c-10.93,2.1-15.7,1.13-15.7,1.13a17.5,17.5,0,0,0-3.9,1.33,51.68,51.68,0,0,0-6.36,3.6c-2.43,1.59-4.73,3.27-6.52,4.65a12.27,12.27,0,0,1-1.77,1.38c-1.1.88-1.77,1.44-1.77,1.44l1.63,8.73a78.22,78.22,0,0,1,6.17-5.34,76,76,0,0,1,8-5.54c6.15-3.68,13.44-6.64,20.07-5.68C91.5,102.6,93.94,119.66,97.9,122s11.68-2.23,11.68-2.23Z" style="fill:url(#linear-gradient-11)"/><path d="M39.49,119.16c1.83-2.75,0-6.5,0-6.5a3.16,3.16,0,0,1-2.64-1.93,10.87,10.87,0,0,0-2.38,1.32c2.53.47,3.87,2.59-.51,9.09-9,13.37-22.3,18.44-25.55,24.83-1.26,2.48-2.13,4.27-2.72,5.53l3.12,5.14A186,186,0,0,1,39.49,119.16Z" style="fill:#5b4475;opacity:0.28;mix-blend-mode:multiply"/><path d="M50.36,100.72c-2.43,1.59-4.73,3.27-6.52,4.65a12.27,12.27,0,0,1-1.77,1.38c-1.1.88-1.77,1.44-1.77,1.44l1.63,8.73a78.22,78.22,0,0,1,6.17-5.34,76,76,0,0,1,8-5.54c6.15-3.68,13.44-6.64,20.07-5.68C91.5,102.6,93.94,119.66,97.9,122s11.68-2.23,11.68-2.23l-1-2s-4.88,3.15-7.92-7.41S83.88,93,83.88,93l-.52.13C82.2,95.25,81.45,97,81.45,97a37.17,37.17,0,0,0-5.13-2.35s-.65,3.94-9.3,2.86-15.21,11.17-17.83,8,8.92-8.92,9.17-9c-.54.2-1.08.42-1.64.67A51.68,51.68,0,0,0,50.36,100.72Z" style="fill:#5b4475;opacity:0.28;mix-blend-mode:multiply"/><path d="M.79,143.44c1.92-1.39,9.55,10.46,8,13.2S-2.87,146.08.79,143.44Z" style="fill:#3d1d15"/><path d="M34.47,112.05l2.38-1.32a2.12,2.12,0,0,0,2.64,1.93s1.2,4.36,0,6.5l-4.18,4s-.45,3.62,5.12,3.49,6.86-12.62,8.46-13.61,3.85-6.15-.06-8.41-6.65-2.94-8.86.49c0,0-3.18.77-2.58,2.1C37.39,107.24,33.31,108.14,34.47,112.05Z" style="fill:url(#linear-gradient-12)"/><path d="M39.49,112.66s1.2,4.36,0,6.5l-4.18,4s-.45,3.62,5.12,3.49,6.86-12.62,8.46-13.61c1.32-.82,3.08-4.48,1.44-7,.11.29,1,2.83-2.51.4a10.25,10.25,0,0,0-7.8-1.39s0,0-.05.07c10,.15,8.16,5,3.89,3.25s-6.47-1.15-6.47-1.15,4.64.39,6.22,1.91-1.17,9.45-2.34,8.58-.71-6.4-.71-6.4c-2.74.11-3-1.82-4.42-1.42a2.61,2.61,0,0,0-1.67,2.14l2.38-1.32A2.12,2.12,0,0,0,39.49,112.66Z" style="fill:#5b4475;opacity:0.28;mix-blend-mode:multiply"/><path d="M15.06,165.33c2.52,3.27,1.83-6,1.83-6s2.36,5.49,6.48,6-.77-4-.77-4,2.29,1.75,3,1.29S22.78,152.83,23,152.3a15.58,15.58,0,0,0,.09-2.38.43.43,0,0,0-.09.25c-.41,2.51-3.21,7.73-4.89,8.3s-1.72-2.4-1-5.16a42.19,42.19,0,0,0,1-6.19c-1.94.37-3.21,3.7-4,7.41C13.81,159,13.86,163.76,15.06,165.33Z" style="fill:#5b4475;opacity:0.28;mix-blend-mode:multiply"/><path d="M16.75,157.33a10.32,10.32,0,0,1,.37-4,42.19,42.19,0,0,0,1-6.19,16.48,16.48,0,0,0-1.22,12.26A9.9,9.9,0,0,1,16.75,157.33Z" style="fill:#5b4475;opacity:0.28;mix-blend-mode:multiply"/><path d="M19.54,157.26a32.11,32.11,0,0,1,3.06,4A21.8,21.8,0,0,1,20.46,156,12.45,12.45,0,0,1,19.54,157.26Z" style="fill:#5b4475;opacity:0.28;mix-blend-mode:multiply"/><path d="M36.47,20.92c-1.28-.61,3.18-3.67,7.43-1.82S40.69,22.92,36.47,20.92Z" style="fill:#fdffff;opacity:0.6000000000000001;mix-blend-mode:color-dodge"/><path d="M31.62,23.05c-.79-.52,2.5-2.47,5.13-.85S34.2,24.77,31.62,23.05Z" style="fill:#fdffff;opacity:0.6000000000000001;mix-blend-mode:color-dodge"/><path d="M35.79,129.06s13.91-5.2,13.1-16c0,0,2.74,14.93,4.87,16s4.42,8.08.92,11.89S35.79,129.06,35.79,129.06Z" style="fill:url(#linear-gradient-13)"/></g><path d="M165.87,194.54c-15.75.55-72.32,1.05-100.62-5.24-17.51-3.89-21-4.19-21-4.19s26.2-9.44,49.26-10.49c16.76-.76,50.67-1,68-1l10.64,0-1,2.09,2.09-2.09,9.47.86,2.06.18v4.2l1.05-7.34,1.05,3.14v4.2l1-4.2,22,6.29S199.27,193.36,165.87,194.54Z" style="fill:#aa931f"/><path d="M175.3,180.91,169,184.06l-22,3.14,14.51-13.6,10.64,0-1,2.09,2.09-2.09,9.47.86a21.12,21.12,0,0,1-2.13,3.33v2.09Z" style="fill:#756515"/><polygon points="182.95 189.91 181.59 186.15 182.67 192.44 203.84 194.54 207.64 194.54 214.69 194.54 219.58 192.44 220.37 186.5 219.06 190.35 219.04 188.25 213.07 188.25 213.07 192.44 212.52 188.25 196.5 189.37 195.7 186.15 196.24 190.35 192.98 190.35 192.44 186.15 190.76 186.15 190.81 190.35 189.93 186.15 182.95 189.91" style="fill:#aa931f"/><polygon points="86.94 171.22 87.39 167.25 87.8 173.62 67.7 180.58 64.01 181.47 57.15 183.11 51.91 182.21 49.76 176.62 51.92 180.05 51.46 178 57.27 176.62 58.24 180.69 57.79 176.49 73.64 173.85 73.67 170.54 74.12 174.74 77.28 173.98 76.84 169.78 78.47 169.39 79.4 173.48 79.28 169.19 86.94 171.22" style="fill:#aa931f"/><polygon points="179.9 97.16 181.69 96.32 183.7 96.11 182.64 99.06 179.9 97.16" style="fill:#7648a3;opacity:0.34;mix-blend-mode:multiply"/><polygon points="180 71.19 184.65 85.44 178.53 82.38 180 71.19" style="fill:#7648a3;opacity:0.34;mix-blend-mode:multiply"/><polygon points="182.66 99.07 181.66 99.07 182.33 101.06 182.31 101.06 181.38 107.09 179.05 99.59 179.05 98 176.52 96.32 181.59 96.32 183.64 96.12 182.66 99.07" style="fill:#7648a3;opacity:0.34;mix-blend-mode:multiply"/><path d="M183.76,93.77l-3.65.66,3.65,1.66v0l-1,2.95h-1l.66,2-1,6,0,.26-11.26,13.58h0L162.89,163h2.32l-.3,4-.7,9.27-16.68,10.58-.55.35H80.06l-9.93-19.53v0L71.44,165l29.49-5.3s.1-2.48,0-6.3l1.21,0,1.68,0-1.64-.55-.89-.3-.47-1.62c-.15-2.68-.41-5.78-.85-9-1.33-9.61-2.32-11.6-2.32-11.6l3-3.64-.17-1.75h0l-.49-5.21L97.66,117l0-.05-.32-3.11h0v-.13L97,110.36h0l-1-.79-2.61-2.14h0l-.06-.06L91,99.73l1.66-2.32h24.51l0,0,.11-.17,1.52-2.43,8.33-2.56.28-.09-1.78-17.27h0l-.16-1.53,0-.4h0l0,0-6.9,2.63-7.29-4.31v0l-1.64-16.4,0-.13h0l.08,0,1.65-.42,3.53-.88h0l11.89,4.69,0,0,.61.24h0l1.66-.33-5.3-17.56.66-2,1-.32,3-1,2.57.06h.22l.75,0,9.07.19,3,.07.66,2L142.08,52.6l-1,5.24v.06l0,.09.86-.51h0c2.7-1.55,11.08-6.12,16-6.12,6,0,15.9,1,18.55,4.31a9.63,9.63,0,0,1,1.38,2.84c1.62,4.83,2.26,12.73,2.26,12.73l4.64,14.25Z" style="fill:url(#Áåçûìÿííûé_ãðàäèåíò_4)"/><polygon points="125.34 72.9 125.28 72.92 118.38 75.55 111.09 71.24 111.09 71.2 113.5 71.83 124.48 70.88 125.22 71.83 125.34 72.9" style="fill:#7648a3;opacity:0.44;mix-blend-mode:multiply"/><path d="M155.94,110.78l-3.91.53-2.32-1.17-16.15-.73L126.48,111l-18.15-2.11-3.48-1.06,1.05,7.07-.63,5.28,2.15,2.69,0,0V123l1,7.13-6.12,1.06,7.18.63,1.06,25.87,1.79,1.26L129,160.18l4-1.37.63,2.95.32-2.11,12.88.32v-2.32l3.8-20.69-.74-4L152,112.15Zm-8,27.65-2.42,18.79-.32,1.27L133,158.28l-2.53.1-2.1.38-2.23-.48-13.83-.63-.53-16.16L107,110.78l19.42,1h24.28l-2,11.08Z" style="fill:#f0ff97;opacity:0.14;mix-blend-mode:color-dodge"/><polygon points="150.66 111.73 149.28 123.02 148.34 137.91 145.53 157.33 145.49 157.65 145.51 157.33 147.38 137.59 148.12 122.92 148.97 113.42 126.27 113.42 109.07 112.99 112.97 141.81 114.87 157.33 112.34 157.65 111.28 141.5 109.49 131.78 105.27 131.47 109.17 131.15 108.33 124.92 107.46 122.96 107.42 122.86 106.75 121.33 106.85 117 106.22 110.14 125.96 111.73 150.66 111.73" style="fill:#7648a3;opacity:0.45;mix-blend-mode:multiply"/><polygon points="159.42 162.08 150.13 165.03 146.33 166.72 143.69 168.94 132.29 169.68 98.62 169.68 83.94 165.88 71.38 165.03 100.83 159.65 106.11 161.13 108.96 161.02 131.76 161.87 147.81 162.4 159.42 162.08" style="fill:#f0ff97;opacity:0.33;mix-blend-mode:color-dodge"/><polygon points="145.59 159.12 138.31 158.7 133.56 158.7 133.45 160.6 133.03 158.81 131.24 158.7 128.38 159.12 123.11 158.59 115.3 158.07 112.34 157.65 114.87 157.33 145.55 157.33 145.59 159.12" style="fill:#7648a3;opacity:0.34;mix-blend-mode:multiply"/><polygon points="146.86 187.2 79.95 187.2 70.02 167.67 82.47 167.67 97.98 171.05 99.57 184.56 98.93 171.26 111.92 172.11 122.16 171.79 125.32 175.38 125.64 182.45 126.59 172.11 143.48 171.05 143.9 183.09 146.86 187.2" style="fill:#7648a3;opacity:0.36;mix-blend-mode:multiply"/><polygon points="153.09 97.16 134.09 97.37 119.2 95.47 117.09 97.37 117.09 97.36 118.72 94.76 127.05 92.2 127.33 92.11 125.54 74.84 125.54 74.83 125.38 73.3 125.34 72.9 125.34 72.9 125.28 72.92 118.38 75.55 111.09 71.24 111.09 71.2 109.45 54.8 109.49 54.73 111.92 70.14 114.35 71.09 125.11 70.35 126.8 69.61 128.7 73.2 127.33 76.79 127.33 84.92 127.96 91.36 128.49 91.99 143.37 92.52 127.33 92.83 122.9 94.2 134.51 96.84 153.09 97.16" style="fill:#7648a3;opacity:0.34;mix-blend-mode:multiply"/><polygon points="90.91 99.69 102 100.43 92.5 97.37 90.91 99.69" style="fill:#f0ff97;opacity:0.14;mix-blend-mode:color-dodge"/><polygon points="103.05 109.41 96.85 110.35 96.85 110.34 95.89 109.55 93.27 107.41 99.99 109.19 103.05 109.41" style="fill:#7648a3;opacity:0.6000000000000001;mix-blend-mode:multiply"/><polygon points="100.52 126.61 106.43 129.15 97.56 130.2 100.52 126.61" style="fill:#f0ff97;opacity:0.14;mix-blend-mode:color-dodge"/><polygon points="100.31 119.86 100.33 124.82 99.83 119.61 97.55 117.01 97.56 117 103.05 117.64 100.31 119.86" style="fill:#7648a3;opacity:0.6000000000000001;mix-blend-mode:multiply"/><polygon points="96.82 110.36 97.98 116.58 104.32 117.74 97.56 117 96.82 110.36" style="fill:#f0ff97;opacity:0.14;mix-blend-mode:color-dodge"/><polygon points="90.91 99.69 93.76 106.87 99.99 108.88 103.58 109.41 99.99 109.19 93.23 107.4 90.91 99.69" style="fill:#f0ff97;opacity:0.14;mix-blend-mode:color-dodge"/><polygon points="103.05 148.46 109.81 149.73 109.81 157.65 106.96 160.6 101.68 158.49 102.01 153.37 103.68 153.32 102.05 152.77 102.31 148.67 100.31 140.33 109.07 140.33 109.81 148.99 103.05 148.46" style="fill:#7648a3;opacity:0.1;mix-blend-mode:multiply"/><polygon points="103.05 100.96 105.27 106.77 125.53 109.41 129.55 104.55 129.02 101.59 120.15 101.59 118.89 105.18 114.45 105.18 113.71 100.96 110.97 101.38 111.71 105.18 109.81 101.59 103.05 100.96" style="fill:#f0ff97;opacity:0.04;mix-blend-mode:color-dodge"/><polygon points="114.24 151.1 136.3 149.2 142.95 149.2 136.3 149.73 114.87 151.94 114.24 151.1" style="fill:#f0ff97;opacity:0.07;mix-blend-mode:color-dodge"/><polygon points="111.6 126.4 125.64 129.25 129.86 129.25 125.75 129.78 111.6 126.4" style="fill:#f0ff97;opacity:0.07;mix-blend-mode:color-dodge"/><polygon points="117.94 139.17 129.76 137.91 141.05 138.22 129.76 138.54 117.94 139.17" style="fill:#f0ff97;opacity:0.07;mix-blend-mode:color-dodge"/><polygon points="118.36 151.63 118.57 156.91 133.56 154.37 145.59 155.22 145.91 153.74 139.15 153.42 145.59 153 145.91 151.42 132.71 152.68 118.36 151.63" style="fill:#7648a3;opacity:0.06;mix-blend-mode:multiply"/><polygon points="111.67 132.21 110.86 118.38 112.34 115.53 130.18 116.16 137.57 117.74 137.57 116.48 138.2 117.74 145.59 118.59 146.86 117.74 147.6 124.39 147.69 131.47 148.97 113.42 109.07 112.99 111.67 132.21" style="fill:#7648a3;opacity:0.22;mix-blend-mode:multiply"/><polygon points="123.64 40.48 139.47 39.53 124.37 38.47 123.64 40.48" style="fill:#f0ff97;opacity:0.14;mix-blend-mode:color-dodge"/><polygon points="136.2 43.43 132.71 43.12 129.23 43.43 132.4 57.89 135.35 57.89 133.24 57.37 131.24 44.91 133.45 44.91 136.2 45.02 136.62 43.54 136.2 43.43" style="fill:#7648a3;opacity:0.45;mix-blend-mode:multiply"/><path d="M129,63.07l-12.67-3.49h-1.27V64l1.27,4.11,1.27-.53L116.56,64l-.74.1.85-.21V61c0,.11,12.35,3,12.35,3Z" style="fill:#7648a3;opacity:0.45;mix-blend-mode:multiply"/><polygon points="136.2 70.88 132.61 70.88 131.24 85.34 131.24 90.62 139.89 90.62 133.56 89.88 133.45 85.44 134.93 73.2 136.41 73.2 136.2 70.88" style="fill:#7648a3;opacity:0.45;mix-blend-mode:multiply"/><polygon points="139.89 89.77 136.41 73.2 136.41 70.88 132.61 70.88 135.77 70.24 137.25 70.24 137.25 73.2 139.89 89.77" style="fill:#f0ff97;opacity:0.14;mix-blend-mode:color-dodge"/><polygon points="132.61 70.88 131.45 76.05 131.24 80.38 129.65 80.38 131.24 80.69 130.28 85.44 130.6 91.04 137.73 90.62 131.87 90.3 132.61 70.88" style="fill:#f0ff97;opacity:0.14;mix-blend-mode:color-dodge"/><polygon points="129.23 63.38 129.23 66.55 125.32 66.86 116.35 68.34 115.61 67.71 114.87 64.44 112.97 64.44 114.77 63.91 114.77 59.58 115.3 58.84 117.09 59.16 129.23 62.64 129.23 63.06 129.02 63.91 129.02 63.06 128.36 62.88 116.35 59.79 115.3 59.9 115.51 64.02 116.34 68.03 116.35 68.13 116.98 67.9 119.41 67.5 125.43 66.65 128.91 66.44 129.23 63.38" style="fill:#f0ff97;opacity:0.14;mix-blend-mode:color-dodge"/><polygon points="135.56 57.68 136.62 49.03 137.25 48.6 136.62 48.6 136.62 47.02 137.36 45.86 136.83 45.02 136.83 43.33 135.35 42.9 133.56 42.8 131.02 42.48 128.91 42.9 126.17 42.9 128.91 43.54 130.6 51.88 130.6 52.83 131.45 55.15 132.08 58 135.35 58 135.35 57.89 132.29 57.79 132.4 57.26 131.87 53.88 129.55 44.28 129.44 43.64 131.34 43.43 133.98 43.43 136.41 43.64 136.2 45.02 136.3 47.34 135.99 51.88 135.35 57.58 135.46 58 135.56 57.68" style="fill:#f0ff97;opacity:0.14;mix-blend-mode:color-dodge"/><polygon points="86.27 165.88 105.27 162.08 92.39 166.72 98.41 169.26 86.27 165.88" style="fill:#7648a3;opacity:0.1;mix-blend-mode:multiply"/><path d="M145.59,166.51c-.1-.21-10.55,0-10.55,0l7.7,2.11Z" style="fill:#7648a3;opacity:0.1;mix-blend-mode:multiply"/><polygon points="159.42 162.08 152.66 163.45 147.17 162.71 132.4 163.98 122.79 164.29 106.64 161.55 105.27 162.08 100.83 159.65 106.11 161.13 108.96 161.02 131.76 161.87 147.81 162.4 159.42 162.08" style="fill:#7648a3;opacity:0.1;mix-blend-mode:multiply"/><polygon points="145.29 94.79 143.53 93.03 136.5 92.74 143.53 92.74 142.65 90.4 144.12 88.64 142.07 84.25 140.9 78.4 141.77 75.18 147.92 79.57 145.29 94.79" style="fill:#7648a3;opacity:0.36;mix-blend-mode:multiply"/><path d="M143.59,56.63l.23,1.27s-1.92,1.68-1.71,2.1a33.14,33.14,0,0,1,.63,3.59l-5,.74H143l.11,2.85-.74,2.54a41.1,41.1,0,0,0-2,3.8c0,.31,4.12,6.54,4.44,7.17a12.4,12.4,0,0,0,2.11,2.11l1.26,7.29-3,4.43,6.86,1.8,6.23-1.8,14.25-.21-6.44-1,3.38-3.59,1.79-3L178,82.38l1.05-14.46Z" style="fill:#7648a3;opacity:0.54;mix-blend-mode:multiply"/><path d="M177.37,74.17s-7,7.9-7.4,8.21a19.72,19.72,0,0,1-3.9.53s.32,4.86.53,5.38-.74,1.69-.74,1.69L160,92.09s-2.43.11-2.75.21-4.67,2.7-4.67,2.7l4.14-5.86,7.6-11.4Z" style="fill:#3d3849"/><polygon points="178.53 72.67 173.67 80.69 176.52 81.54 173.04 81.54 170.29 86.82 167.13 86.82 166.6 89.77 164.7 91.04 157.31 94.31 152.35 96.11 145.17 94.73 159.1 78.05 178.53 72.67" style="fill:#7648a3;opacity:0.54;mix-blend-mode:multiply"/><path d="M179.79,69.35a6.2,6.2,0,0,1-.11,1.38,9.63,9.63,0,0,1-1.8,2.82c-.45.55-.95,1.13-1.48,1.72h0c-.58.64-1.19,1.3-1.8,1.93s-1.27,1.3-1.85,1.86l-.42.41c-.07.07-.14.13-.2.2l-.18.17-1,.89-.13.12-.31.27-.06,0-.22.19,0,0-.08.06c-.78.52-4.05.81-4.87.88h-.19a.08.08,0,0,0,0,0s0,.14.06.26h0c0,.08,0,.19.07.31a32.58,32.58,0,0,1,.79,5.5,5,5,0,0,1,0,.71.74.74,0,0,1,0,.14,0,0,0,0,0,0,0,.2.2,0,0,0,0,.08l0,0s0,0,0,0l0,.06,0,0a2.17,2.17,0,0,1-.35.3l-.05,0a1.75,1.75,0,0,1-.27.16l-.06,0-.13.06a1.69,1.69,0,0,1-.27.12h0l-.14.06-.09,0-.07,0-.24.08-.25.08-.3.09-.41.11-.1,0-.1,0h0l-.18,0h0l-.38.09h0l-.18,0-.22,0-.4.09-.21,0-.1,0-.2,0-.31.06-.1,0-.12,0-.18,0h0a.8.8,0,0,1-.15,0l-.14,0-.29,0h0l-.18,0-1.63.29-.52.1-.07,0-.14,0-.12,0L157,92h-.14l-.1,0-.09,0h0l-.05,0-.06,0h0l-.1,0-.1.05a10.4,10.4,0,0,0-1.47.93l-.19.14-.18.13-.13.1-.43.34-.07.06c-.21.16-.41.33-.6.49l-.13.1c-.45.38-.83.71-1.07.93l-.08.06-.22.2-6.45-1.17-.1,0a.86.86,0,0,1-.07-.12.93.93,0,0,0-.05-.1l-.09-.16,0-.07-.21-.42-.1-.21c-.05-.09-.09-.19-.14-.3l-.06-.13a2.14,2.14,0,0,1-.1-.22l-.06-.12,0-.09,0-.08c-.09-.22-.17-.44-.25-.65a2.25,2.25,0,0,1-.08-.24l0-.14,0-.09a.83.83,0,0,0,0-.15s0,0,0-.07a1.67,1.67,0,0,1-.06-.29.25.25,0,0,1,0-.08.38.38,0,0,1,0-.1.28.28,0,0,1,0-.09.93.93,0,0,1,0-.25,3.27,3.27,0,0,1,1-1.15l.07-.06a16.59,16.59,0,0,1-.77-2.66.09.09,0,0,1,0-.05.53.53,0,0,1,.25-.45.63.63,0,0,1,.23-.08h.09a2.44,2.44,0,0,1-.78-.26l-.09,0a.47.47,0,0,1-.22-.38s0,0,0-.07a.07.07,0,0,1,0,0v-.05a.57.57,0,0,1,0-.13,5.14,5.14,0,0,1,.64-2.33,6.16,6.16,0,0,1-.69-.57A2.9,2.9,0,0,0,143.6,81a2.16,2.16,0,0,0,0-.36l0-.15a1.85,1.85,0,0,0,0-.23s0,0,0-.07a1,1,0,0,0,0-.14s0-.08,0-.13l-.1-.22c-.59-1.19-3.28-2.08-3.28-2.08a29.35,29.35,0,0,1-.59-3.58,1.25,1.25,0,0,1,.23-.55c.1-.16.24-.35.4-.56h0c1.18-1.56,3.61-4.15,3.83-5.73a25.69,25.69,0,0,0-.43-5.38c-.35-2.32-.75-4.45-.75-4.45a3.79,3.79,0,0,1,1.42-2.14l0,0a8,8,0,0,1,.79-.57q.47-.28,1-.54c.36-.18.74-.36,1.13-.52l.57-.23c.64-.24,1.32-.46,2-.67a79.17,79.17,0,0,1,8.87-1.85c3.28-.59,15.19,1.79,17.57,3.87a8.41,8.41,0,0,1,1.78,3.46A43.69,43.69,0,0,1,179.79,69.35Z" style="fill:url(#Áåçûìÿííûé_ãðàäèåíò_4-2)"/><path d="M143.54,80.22a1.85,1.85,0,0,1,0,.23A1.85,1.85,0,0,0,143.54,80.22Z" style="fill:#7648a3;opacity:0.36;mix-blend-mode:multiply"/><polygon points="173.88 54.94 173.87 54.96 173.86 54.95 173.86 54.93 173.88 54.94" style="fill:#f0ff97;opacity:0.33;mix-blend-mode:color-dodge"/><path d="M161.39,67.16s-.7-1.93-1.41-2.22-2.68-1.4-2.68-1.4l.52-.7-.93.4s-1.41-1-1.76-.93A16.86,16.86,0,0,0,153,63.54s-1.75,3.45-1.69,4.15.46,4.21.46,4.21l.41,2.8-.41.35,1.29-.41a14.26,14.26,0,0,0,2.1.3c.7,0,4.15-.88,4.62-.94a16.73,16.73,0,0,1,3,.88l-2.8-1.41s1.22-1.4,1.11-2.16a15.21,15.21,0,0,1,.17-2.8Z" style="fill:#f0ff97;opacity:0.33;mix-blend-mode:color-dodge"/><path d="M159.13,73.7a15.59,15.59,0,0,1-1.8.46c-1.68.34-4,.54-4.76-.46a32.19,32.19,0,0,1-.59-4.76c0-1.79,1.78-6,3.27-6a6.4,6.4,0,0,1,3,1.44,9.62,9.62,0,0,1,2.41,2.43C161.21,68,160,73.41,159.13,73.7Z" style="fill:#6c20cd"/><path d="M153.73,69.5a16.65,16.65,0,0,0,.7,3.74,3.13,3.13,0,0,0,1.35,1l1.55-.07c-1.68.34-4,.54-4.76-.46a32.19,32.19,0,0,1-.59-4.76c0-1.79,1.78-6,3.27-6a6.4,6.4,0,0,1,3,1.44,4.54,4.54,0,0,0-1.85.4C155.19,65.29,153.73,69.5,153.73,69.5Z" style="fill:#555066"/><path d="M165.09,82.35h0Z" style="fill:#778691"/><path d="M179.68,70.73a9.49,9.49,0,0,1-1.8,2.81h0c-.44.55-.95,1.13-1.48,1.72h0c-.58.64-1.19,1.3-1.8,1.93h0c-.64.66-1.27,1.3-1.85,1.86l-.42.41c-.07.07-.14.13-.2.2l-.18.17-1,.89-.13.12-.31.27-.06,0a2.9,2.9,0,0,1-.22.19l0,0-.08.07c-.83.55-4.44.84-5,.89.65-.18,3-.68,3.44-1.44s-3.4.13-3.4.13l2.39-2.42-.34.07,2.62-7.28,5.07-2.21L177,64.62l1.34-3.5-.49-3C179.28,62.38,180.11,69,179.68,70.73Z" style="fill:#7648a3;opacity:0.54;mix-blend-mode:multiply"/><path d="M143.54,80.22a1.85,1.85,0,0,1,0,.23A1.85,1.85,0,0,0,143.54,80.22Z" style="fill:#7648a3;opacity:0.36;mix-blend-mode:multiply"/><path d="M155.66,87.61h0Z" style="fill:#6f6977"/><path d="M149.87,67.92s.7-2.4.88-3.27-.88-2.11-.88-2.11l-1-.93.76-1.64-1.11,1.64s-1.21-1.47-1.62-1.52-1.52-.53-1.69-.24a14.75,14.75,0,0,0-.2,2.64l-.64.17.64.06s-.29,1.34-.41,1.93a40.93,40.93,0,0,0,.18,5.26,7.74,7.74,0,0,0,.87,2.69,1.3,1.3,0,0,0,1,.41l2.16-2Z" style="fill:#f0ff97;opacity:0.33;mix-blend-mode:color-dodge"/><path d="M148.4,71a1.61,1.61,0,0,1-.28.24,5.21,5.21,0,0,1-1.5.66A7.18,7.18,0,0,1,144.83,68c-.3-2.38.6-6.55,1.19-6.85s2.77,1,3.88,2.26a2.42,2.42,0,0,1,.59,1C150.79,66,149,70.43,148.4,71Z" style="fill:#6c20cd"/><path d="M148.12,71.26a5.21,5.21,0,0,1-1.5.66A7.18,7.18,0,0,1,144.83,68c-.3-2.38.6-6.55,1.19-6.85s2.77,1,3.88,2.26c-.92-.37-2.59-1-3-.79-.58.29-.35,6.61,0,7.19A9.93,9.93,0,0,0,148.12,71.26Z" style="fill:#555066"/><path d="M149.83,67.93s-1.13,2.33-1.36,2.56-.76.12-1.11.41a18.87,18.87,0,0,0-1.4,3l.17.24-.35.17s-.41,1.17-.17,1.64a6.65,6.65,0,0,0,2.63,1.81,1.16,1.16,0,0,0,.93-.12l.35-.06.12-1.69.47-.47-.45.11s0-2.91-.14-3.32-.47-1.52-.47-1.52Z" style="fill:url(#Áåçûìÿííûé_ãðàäèåíò_24)"/><path d="M149.83,67.93s-1.13,2.33-1.36,2.56-.76.12-1.11.41a18.87,18.87,0,0,0-1.4,3l.17.24-.35.17s-.41,1.17-.17,1.64a6.65,6.65,0,0,0,2.63,1.81,1.16,1.16,0,0,0,.93-.12l.35-.06.12-1.69.47-.47-.45.11s0-2.91-.14-3.32-.47-1.52-.47-1.52Z" style="fill:#f0ff97;opacity:0.33;mix-blend-mode:color-dodge"/><path d="M149.16,77.64a.1.1,0,0,1,0,0c-.52.24-2.87-1.48-2.87-2.05S147.59,71,148.41,71c.22,0,.41.45.56,1.11C149.36,73.89,149.49,77.19,149.16,77.64Z" style="fill:#3d3849"/><path d="M149.16,77.64a.1.1,0,0,1,0,0c-.52.24-2.87-1.48-2.87-2.05S147.59,71,148.41,71c.22,0,.41.45.56,1.11a2.08,2.08,0,0,0-.91.47c-.17.29-.35,3.56-.41,3.8S148.58,77.25,149.16,77.64Z" style="fill:#555066"/><path d="M161.27,64.59a21.77,21.77,0,0,1,1.46,2.28,31,31,0,0,1,.35,3.51,20,20,0,0,0,1.06-3.51c0-.76-2.34-2.75-2.34-2.75l-1.58-.47Z" style="fill:#f0ff97;opacity:0.14;mix-blend-mode:color-dodge"/><path d="M144.22,85.87h0Z" style="fill:#7648a3;opacity:0.34;mix-blend-mode:multiply"/><polygon points="143.48 57.26 147.38 56.94 154.88 59.69 147.38 57.79 143.48 57.26" style="fill:#f0ff97;opacity:0.14;mix-blend-mode:color-dodge"/><polygon points="143.9 56.41 145.91 54.41 158.57 51.77 148.34 56.63 143.9 56.41" style="fill:#f0ff97;opacity:0.33;mix-blend-mode:color-dodge"/><polygon points="173.88 54.94 173.87 54.96 173.86 54.95 173.86 54.93 173.88 54.94" style="fill:#f0ff97;opacity:0.33;mix-blend-mode:color-dodge"/><polygon points="173.88 54.94 173.87 54.96 173.86 54.95 173.88 54.94" style="fill:#f0ff97;opacity:0.33;mix-blend-mode:color-dodge"/><path d="M143.59,68.66l-3,4s.74.32.84.53,2.85,1.9,2.85,1.9a24.7,24.7,0,0,1-.73-2.85C143.48,71.4,143.59,68.66,143.59,68.66Z" style="fill:#f0ff97;opacity:0.14;mix-blend-mode:color-dodge"/><path d="M177.77,57.75l-5.05,1.52-3.91,1.9-3.27.63-15.83-5.17L159.63,52l5.49,1.27,8.74,1.68v0h0v0h0l0,0s-12.16-3.22-13.74-3.39-10.44,1.12-10.44,1.12h0a79.17,79.17,0,0,1,8.87-1.85c3.28-.59,15.19,1.79,17.57,3.87A7.78,7.78,0,0,1,177.77,57.75Z" style="fill:#f0ff97;opacity:0.33;mix-blend-mode:color-dodge"/><polygon points="168.09 64.34 169.87 62.63 172.51 59.74 176.63 58.32 177.75 60.55 177.25 63.08 175.1 67.42 170.6 69.52 168.09 64.34" style="fill:#7648a3;opacity:0.34;mix-blend-mode:multiply"/><path d="M152.35,77.74l.42-1.69s9.18.63,10.34.21a26.87,26.87,0,0,0,3.49-1.9s-1.9,3.17-2.43,3.91S152.35,77.74,152.35,77.74Z" style="fill:#f0ff97;opacity:0.14;mix-blend-mode:color-dodge"/><path d="M147.34,85.63l0,0C147.32,85.64,147.3,85.64,147.34,85.63Z" style="fill:#7648a3;opacity:0.36;mix-blend-mode:multiply"/><path d="M160,82.59c0,.32-.43,4.12-.53,4.33s-8.66,2.43-11,2.43a21.39,21.39,0,0,1-3.78-.29,15.67,15.67,0,0,1-.72-2.55v-.05a.49.49,0,0,1,.25-.44.52.52,0,0,1,.23-.09h.09l-.23,0,.47-.22,2.42.11a20.56,20.56,0,0,0-2.21.53,6.66,6.66,0,0,0,.31,2.43,6.33,6.33,0,0,0,2.33.21,16.43,16.43,0,0,0-.23-3.28c.34,0,2.27.2,2.52.21-.22,0-1.77.13-1.87.43a6,6,0,0,0,.32,2.43A4.49,4.49,0,0,0,151,88.5c.22-.31-.42-2.63-.42-2.63l1.5-.1c-.4.06-.72.16-.76.31-.1.42.21,2.11.74,2.21a3.6,3.6,0,0,0,1.58-.1,10,10,0,0,0-.21-2.54l2.92-.41c-.26.07-2.29.34-2.39.73s-.21,2.11,0,2.11a9.24,9.24,0,0,0,2.43-.63,12.08,12.08,0,0,0-.11-2l.64-.31a9.81,9.81,0,0,1,2-.43,2.35,2.35,0,0,1,.33.23.58.58,0,0,0-.43,0,7.59,7.59,0,0,0-2.22.52c-.32.32.1,1.69.42,1.69a3.88,3.88,0,0,0,1.8-.53c.31-.31.63-2.74.84-2.95s-.11-.63-.21-.74-3.06.11-3.06.42V84.7s-.11-1.37-.32-1.37-2-.21-2.11,0a13.44,13.44,0,0,0,0,2.11,15.75,15.75,0,0,0-.42-2.11c-.11,0-2.22.11-2.22.32v1.79a6.72,6.72,0,0,0-.53-1.79c-.21-.11-2.32.1-2.32.42v1.37s-.1-1.69-.42-1.79-2-.53-2-.53l-.21,2.32a10.91,10.91,0,0,0-.31-2.32c-.22-.32-1.06-.21-1.27,0a4,4,0,0,0-.53,1.9,3.9,3.9,0,0,0,.52.83,3.6,3.6,0,0,1-.48-.19l-.09,0a.47.47,0,0,1-.22-.38s0,0,0-.07h0a.07.07,0,0,1,0,0v0a.66.66,0,0,1,0-.14,5.26,5.26,0,0,1,.64-2.33,5.85,5.85,0,0,1-.66-.54l.75.13s3.69,1.24,4.22,1.34S160,82.28,160,82.59Z" style="fill:#7648a3;opacity:0.34;mix-blend-mode:multiply"/><path d="M163.32,82a25.15,25.15,0,0,1,0,4.12c-.21.84-3.37,1.47-3.37,1.47s2.21-1.79,2.53-2.63S163.32,82,163.32,82Z" style="fill:#7648a3;opacity:0.36;mix-blend-mode:multiply"/><polygon points="163.22 74.68 168.92 71.4 168.07 68.66 163.43 70.35 163.22 74.68" style="fill:#7648a3;opacity:0.19;mix-blend-mode:multiply"/><path d="M155.09,59.8s3.26,1.22,3.9,1.34a37,37,0,0,0,4.74-.64l3-2.52-.41-4.38.76,4.56-2.92,2.63s-3.22.47-3,.88,5.49,2.22,5.49,2.22l2.57-1s-2,1.11-2,1.46S169.63,71,170,71a46,46,0,0,0,4.79-2.22l2.34-4.33-1.86,4.93s-4.35,2.22-4.64,2.74-3.27,6.34-3.27,6.34,2.11-6.93,2-7.46-2.46-6.08-2.75-6.43-6.72-2.28-6.72-2.28Z" style="fill:#7648a3;opacity:0.34;mix-blend-mode:multiply"/><path d="M139.49,74.36l.72,2.11c.1.32,3.16.74,3.16.74s-3.06-.42-3.06-.21a1.32,1.32,0,0,1-.21.53Z" style="fill:#7648a3;opacity:0.36;mix-blend-mode:multiply"/><path d="M139.49,74.3l1,2.07,2.74.82a13.07,13.07,0,0,1-3-.65C140.1,76.26,139.49,74.3,139.49,74.3Z" style="fill:#f0ff97;opacity:0.33;mix-blend-mode:color-dodge"/><path d="M150.65,81.64c-.19,0-6.12-.73-6.22-.52a8,8,0,0,1-1.06.95V82a.92.92,0,0,1,0-.09,3.07,3.07,0,0,0,.21-1,2.16,2.16,0,0,0,0-.36s0-.1,0-.15a1.85,1.85,0,0,0,0-.23.64.64,0,0,1,0-.07,1,1,0,0,0,0-.14.93.93,0,0,0,0-.13l-.1-.22a2.92,2.92,0,0,0-.88-.92l2.29,1.53Z" style="fill:#f0ff97;opacity:0.14;mix-blend-mode:color-dodge"/><polygon points="146.22 78.58 149.18 79.74 150.76 79.53 149.6 78.48 148.65 78.48 146.22 77.1 146.22 78.58" style="fill:#7648a3;opacity:0.36;mix-blend-mode:multiply"/><path d="M160,91l-4,.63-4.65,3.8-5.12-.84-.94-.06-.1,0a.86.86,0,0,1-.07-.12.93.93,0,0,0-.05-.1l-.09-.16,0-.07-.21-.42-.1-.21c-.05-.09-.09-.19-.14-.3l-.06-.13a2.14,2.14,0,0,1-.1-.22l-.06-.12,0-.09,0-.08c-.09-.22-.17-.44-.25-.65a2.25,2.25,0,0,1-.08-.24l0-.14,0-.09a.83.83,0,0,0,0-.15s0,0,0-.07a1.67,1.67,0,0,1-.06-.29.25.25,0,0,1,0-.08.38.38,0,0,1,0-.1.28.28,0,0,1,0-.09.93.93,0,0,1,0-.25,3.27,3.27,0,0,1,1-1.15h.07s-.88.88-.88,1.46a.89.89,0,0,0,.2.43l-.12-.29a4.88,4.88,0,0,1,1.06.84c.21.32,2.95.63,4.85.63s4.44-1.47,5.07-1.68S160,91,160,91Z" style="fill:#f0ff97;opacity:0.14;mix-blend-mode:color-dodge"/><path d="M165.2,82.33V82.2l.08.13Z" style="fill:#7648a3;opacity:0.36;mix-blend-mode:multiply"/><path d="M166,88.48a5,5,0,0,1,0,.71.74.74,0,0,1,0,.14,0,0,0,0,0,0,0,.2.2,0,0,0,0,.08l0,0s0,0,0,0l0,.06,0,0a2.17,2.17,0,0,1-.35.3l-.05,0a1.75,1.75,0,0,1-.27.16l-.06,0-.13.06a1.69,1.69,0,0,1-.27.12h0l-.14.06-.09,0-.07,0-.24.08-.25.08-.3.09-.41.11-.1,0-.1,0h0l-.18,0h0l-.38.09h0l-.18,0-.22,0-.4.09-.21,0-.1,0-.2,0-.31.06-.1,0-.12,0-.18,0h0a.8.8,0,0,1-.15,0l-.14,0-.29,0h0l-.18,0-1.63.29-.52.1-.07,0-.14,0-.12,0L157,92h-.14l-.1,0-.09,0h0l-.05,0-.06,0h-.06s7.32-2,8.2-3.22c.67-.9.66-4.4.62-6A32.58,32.58,0,0,1,166,88.48Z" style="fill:#7648a3;opacity:0.36;mix-blend-mode:multiply"/><polygon points="168.29 92.73 170.82 88.72 181.06 88.72 181.38 91.67 175.46 93.36 168.29 92.73" style="fill:#f0ff97;opacity:0.14;mix-blend-mode:color-dodge"/><polygon points="178.21 82.91 171.88 87.03 181.16 88.08 183.7 85.23 178.21 82.91" style="fill:#f0ff97;opacity:0.33;mix-blend-mode:color-dodge"/><polygon points="175.89 93.78 181.8 92.2 181.8 89.03 184.65 85.44 183.7 93.78 180 94.42 183.7 96.11 176.31 94.2 172.51 94.31 175.89 93.78" style="fill:#7648a3;opacity:0.56;mix-blend-mode:multiply"/><polygon points="175.99 96.21 179.05 98 172.51 98.95 169.66 101.38 162.16 101.81 159.11 99.58 131.66 100.86 131.13 103.6 129.76 100.64 102.1 99.69 92.67 97.41 117.06 97.41 117.09 97.36 117.2 97.19 131.87 98.32 163.54 97.8 160.26 97.37 166.6 95.26 175.46 94.73 180.95 96 175.99 96.21" style="fill:#f0ff97;opacity:0.33;mix-blend-mode:color-dodge"/><polygon points="172.82 99.69 170.08 101.81 172.51 108.35 181.38 107.4 178.53 99.69 179.05 98.28 173.78 99.27 176.52 105.39 172.82 99.69" style="fill:#7648a3;opacity:0.34;mix-blend-mode:multiply"/><path d="M100.83,183.51l19.64-2.64,3.59,1.26h-3.38l-2.85,3.49s-17.1.1-17,0A13.49,13.49,0,0,0,100.83,183.51Z" style="fill:#7648a3;opacity:0.11;mix-blend-mode:multiply"/><polygon points="126.7 183.3 130.65 187.2 144.43 186.88 143.37 183.3 126.7 183.3" style="fill:#7648a3;opacity:0.11;mix-blend-mode:multiply"/><path d="M153,113l8.13-2L159,121.44l-5.81.74,6.44.74,1.79,5.06-2.95,4.75-7.28-.52s.31-6,.31-6.23.85-2.64.85-2.64V118.8Z" style="fill:#7648a3;opacity:0.1;mix-blend-mode:multiply"/><polygon points="83.1 185.94 81.73 169.26 96.32 173.72 95.66 181.19 95.13 181.4 94.5 176.43 94.5 185.2 91.65 183.19 83.1 185.94" style="fill:#7648a3;opacity:0.11;mix-blend-mode:multiply"/><polygon points="146.86 187.2 144.11 182.87 143.48 171.05 144.53 170.73 147.38 180.34 147.38 181.61 148.02 181.71 147.38 186.88 146.86 187.2" style="fill:#7648a3;opacity:0.23;mix-blend-mode:multiply"/><polygon points="122.79 171.79 126.27 172.32 125.32 175.38 122.79 171.79" style="fill:#7648a3;opacity:0.23;mix-blend-mode:multiply"/><path d="M164.64,152.28s-1.32-3.82-1.63-4.24-3.21-2.58-3.21-2.58l-1.44,0-8.65-2.22,8.65,1.69.64-.11-.21-1.58L155,139l2.21-2.53-1.79,2.64,2,2.21.64.43,1.26,1.47.21,1.59h.34l3.36,2.85Z" style="fill:#322e3f"/><polygon points="108.65 122.07 106.83 117.74 105.65 117 99.88 116.16 105.7 116.58 106.96 117.43 108.65 122.07" style="fill:#3d3849"/><polygon points="120.78 150.15 115.82 152.9 112.19 153.14 110.33 152.43 107.7 153.11 105.69 153.84 100.8 153.4 103.68 153.32 101.15 152.47 101.36 152.37 105.69 153.63 107.48 152.79 109.6 152.05 110.31 152 112.01 152.58 115.61 152.58 120.78 150.15" style="fill:#3d3849"/><polygon points="100.83 153.42 101.96 154.19 105.8 154.16 110.33 152.47 107.8 153.11 105.69 153.84 100.83 153.42" style="fill:#7648a3;opacity:0.45;mix-blend-mode:multiply"/><polygon points="100.73 150.89 102.1 151.21 105.69 153.32 107.48 152.79 105.69 153.63 101.36 152.37 101.14 152.42 100.73 150.89" style="fill:#7648a3;opacity:0.1;mix-blend-mode:multiply"/><polygon points="149.84 143.31 158.36 144.56 158.57 144.24 158.57 143.29 154.99 138.96 158.79 143.29 159 144.87 158.36 144.98 149.84 143.31" style="fill:#f0ff97;opacity:0.14;mix-blend-mode:color-dodge"/><polygon points="157.2 136.43 155.83 139.07 157.52 141.18 158.05 141.71 157.41 141.28 155.41 139.07 157.2 136.43" style="fill:#f0ff97;opacity:0.14;mix-blend-mode:color-dodge"/><polygon points="158.36 145.51 159.76 145.87 162.8 148.25 164.06 152.9 164.27 154.42 164.64 152.18 163.01 147.94 159.79 145.31 158.36 145.51" style="fill:#7648a3;opacity:0.23;mix-blend-mode:multiply"/><path d="M130.81,56.94a9.27,9.27,0,0,1-1.37-2.74c0-.74-.21-2.43-.21-2.43L128.6,51l1.16-.53h-1.59s-.84-1.47-1.16-2a24.4,24.4,0,0,1-.53-3.91c-.1-.63-1.26-2.43-1.16-2.85s6.65-.21,6.86-.31S136.51,40,136.51,40l-7.81.53h-5.07l2.54,11.08L129,58s.53-1,.74-.85,1.05,1.48,1.47,1.38S130.81,56.94,130.81,56.94Z" style="fill:#969322"/><path d="M144.56,39.43,142,52.6a3.41,3.41,0,0,0-.92.12c-.21.11-.74,2.85-1.16,3.38s-1.16,1-1.16-.11.63-4.33.53-4.85-.21-.53-.53-1-.11-.53.11-.95a2.34,2.34,0,0,0,.21-1.06c0-.21-.32-.32-.21-.84a2.9,2.9,0,0,1,.63-1.06l.32-.63-.74-.74-.21-1.16s1-.32,1-1.06a9.79,9.79,0,0,0-.1-1.37l-1.59.11-2.21.1a16.92,16.92,0,0,0,3.27-.74,3.69,3.69,0,0,0,.84-1c.21-.32,1.06-.21,1.16-.53s-6.22-.53-6.33-1-2.77-.89-3.82-1.09l.76,0,9.06.19,3,.07Z" style="fill:#969322"/><path d="M132,46.18c0-.32-.42-.74.43-.85s1.58-.21,2-.21h1.8a11.47,11.47,0,0,0-.21,2.11,6.85,6.85,0,0,1,.1,1.37c0,.11-.18,4-.18,4a13.71,13.71,0,0,0-.56,1.6c0,.21-.1,1.27-.1,1.27l-.53-1.9.42-.43.11-1,.21-4s-1-.53-1-.64-.21-.74-.32-.74-.84-.1-.84-.1l-.43.53v.21l-.95.52Z" style="fill:#969322"/><path d="M134,46.91c.11,0,.14.1.19.24a.58.58,0,0,1,0,.37c-.05.09-.19-.05-.19-.05a.11.11,0,0,0,.05-.14c-.05-.09-.19-.18-.14-.23S133.94,46.91,134,46.91Z" style="fill:#969322"/><path d="M134,47.79c-.05,0-.1,0-.1.09s.05.24.1.24.09,0,.09-.1A.59.59,0,0,0,134,47.79Z" style="fill:#969322"/><path d="M134.34,47.75s0,.08,0,.08.06,0,.06,0v-.08Z" style="fill:#969322"/><path d="M134.12,48.12s0,.13,0,.13.1,0,.1,0v-.13Z" style="fill:#969322"/><path d="M133.94,47.39c0-.07-.06-.16-.1-.12s-.12,0-.09.07l.11.12Z" style="fill:#969322"/><path d="M134.94,49.65c-.11,0-.14-.1-.18-.24a.51.51,0,0,1,0-.37c0-.09.18.05.18.05a.11.11,0,0,0,0,.14c0,.09.18.19.14.24S135,49.65,134.94,49.65Z" style="fill:#969322"/><path d="M135,48.77c.05,0,.09,0,.1-.09s0-.23-.09-.23-.09,0-.09.09A.48.48,0,0,0,135,48.77Z" style="fill:#969322"/><path d="M134.63,49.85c0-.05-.08-.06-.11.07s0,.24,0,.25.09,0,.11-.07A.5.5,0,0,0,134.63,49.85Z" style="fill:#969322"/><path d="M134.65,48.81s0-.09,0-.09-.06,0-.06,0v.08Z" style="fill:#969322"/><path d="M134.88,48.44c.05,0,.05-.13,0-.13s-.09-.05-.09,0v.14Z" style="fill:#969322"/><path d="M135,49.17c0,.08.06.16.1.13s.12,0,.09-.07l-.1-.12Z" style="fill:#969322"/><path d="M134.31,49.12s-.09,0-.07.06,0,.06,0,0l.07-.06Z" style="fill:#969322"/><path d="M134.32,48.59c.06-.05.08-.15,0-.16s-.1-.07-.11,0l0,.16Z" style="fill:#969322"/><path d="M134.83,50.55c0,.07.06.16.1.12s.12,0,.09-.06l-.1-.13Z" style="fill:#969322"/><path d="M134.83,49.6c0,.07.06.16.1.12s.12,0,.09-.06l-.1-.13Z" style="fill:#969322"/><path d="M128.77,50.29c-.1,0-.16-.06-.24-.18a.44.44,0,0,1-.09-.35c0-.11.19,0,.19,0a.1.1,0,0,0,0,.15c.07.08.22.13.19.19S128.86,50.26,128.77,50.29Z" style="fill:#969322"/><path d="M128.59,49.43s.1,0,.06-.11-.1-.22-.15-.2-.08,0-.06.11A.52.52,0,0,0,128.59,49.43Z" style="fill:#969322"/><path d="M128.25,49.56s0-.09,0-.08-.06,0,0,0l0,.09Z" style="fill:#969322"/><path d="M128.37,49.15s0-.14,0-.13-.1,0-.08,0l0,.14Z" style="fill:#969322"/><path d="M128.74,49.8c0,.08.1.14.13.1s.1-.06.06-.09l-.13-.09Z" style="fill:#969322"/><path d="M127.19,47.88c.1,0,.16.06.23.18a.52.52,0,0,1,.09.36c0,.1-.19,0-.19,0a.1.1,0,0,0,0-.15c-.07-.08-.22-.13-.19-.19S127.1,47.9,127.19,47.88Z" style="fill:#969322"/><path d="M127.34,48.75s-.1,0-.06.11.09.21.14.2.09,0,.07-.11A.52.52,0,0,0,127.34,48.75Z" style="fill:#969322"/><path d="M127.44,47.6s.09,0,.09-.09-.06-.23-.1-.23-.09,0-.09.09A.49.49,0,0,0,127.44,47.6Z" style="fill:#969322"/><path d="M127.68,48.62s0,.09,0,.09.07,0,.06,0l0-.08Z" style="fill:#969322"/><path d="M127.55,49s0,.14,0,.13.1,0,.09,0l0-.13Z" style="fill:#969322"/><path d="M127.21,48.37c0-.08-.1-.14-.13-.1s-.11,0-.06.08l.12.1Z" style="fill:#969322"/><path d="M127.93,48.23s.08-.06,0-.08,0,0,0,0l-.06.07Z" style="fill:#969322"/><path d="M128.06,48.75c-.05,0,0,.16,0,.16s.11,0,.11,0v-.16Z" style="fill:#969322"/><path d="M127.06,47c0-.07-.1-.13-.13-.09s-.11,0-.06.08l.13.1Z" style="fill:#969322"/><path d="M127.3,47.9c0-.07-.09-.14-.12-.09s-.11,0-.07.08l.13.1Z" style="fill:#969322"/><path d="M126.54,45.11c-.1,0-.12-.11-.15-.26a.51.51,0,0,1,.06-.36c.06-.09.17.07.17.07a.09.09,0,0,0-.06.13c0,.1.15.21.1.25S126.63,45.12,126.54,45.11Z" style="fill:#969322"/><path d="M126.72,44.25s.08.06.1-.08,0-.23-.06-.24-.09,0-.1.08A.47.47,0,0,0,126.72,44.25Z" style="fill:#969322"/><path d="M126.36,44.24s0-.08,0-.08-.05,0-.06,0v.08Z" style="fill:#969322"/><path d="M126.63,43.91c.05,0,.06-.13,0-.14s-.09-.06-.09,0l0,.14Z" style="fill:#969322"/><path d="M126.7,44.65c0,.08,0,.17.09.14s.11,0,.09-.06l-.09-.13Z" style="fill:#969322"/><path d="M126.05,42.27c.1,0,.12.12.14.26a.54.54,0,0,1-.06.37c-.07.08-.18-.08-.18-.08a.1.1,0,0,0,.07-.13c0-.1-.14-.22-.09-.25S126,42.26,126.05,42.27Z" style="fill:#969322"/><path d="M125.85,43.13c0-.06-.08-.06-.11.07s0,.24.05.25.09,0,.11-.08A.67.67,0,0,0,125.85,43.13Z" style="fill:#969322"/><path d="M126.39,42.12c0,.06.07.07.12-.06s0-.23,0-.24-.09,0-.12,0A.66.66,0,0,0,126.39,42.12Z" style="fill:#969322"/><path d="M126.21,43.15s0,.08,0,.08,0,0,.06,0l0-.08Z" style="fill:#969322"/><path d="M125.93,43.47c-.06,0-.07.13,0,.14s.08.06.09,0l0-.13Z" style="fill:#969322"/><path d="M125.88,42.73c0-.08,0-.17-.08-.15s-.12,0-.1.06l.08.14Z" style="fill:#969322"/><path d="M126.6,42.89s.09,0,.07,0,0-.07,0-.05l-.08.05Z" style="fill:#969322"/><path d="M126.5,43.41c-.07,0-.1.14,0,.16s.09.08.1,0l0-.15Z" style="fill:#969322"/><path d="M126.29,41.4c0-.07,0-.17-.08-.14s-.12,0-.09.05l.08.14Z" style="fill:#969322"/><path d="M126.15,42.34c0-.07,0-.17-.08-.14s-.12,0-.1,0l.08.14Z" style="fill:#969322"/><path d="M128.17,41.27c.06-.14.2-.13.41-.11a.72.72,0,0,1,.48.21c.1.12-.16.22-.16.22a.15.15,0,0,0-.16-.14c-.15,0-.35.13-.38,0S128.11,41.39,128.17,41.27Z" style="fill:#969322"/><path d="M129.29,41.83c-.08,0-.11.1.07.18s.33.07.36,0,.05-.12-.07-.17A.77.77,0,0,0,129.29,41.83Z" style="fill:#969322"/><path d="M129.44,41.34s.1.09.11,0,.08-.06,0-.08l-.12-.05Z" style="fill:#969322"/><path d="M129.8,41.84c0,.09.15.14.18.08s.11-.1.05-.12l-.18-.08Z" style="fill:#969322"/><path d="M128.74,41.66c-.09,0-.24,0-.22.07s0,.17,0,.15l.22-.07Z" style="fill:#969322"/><path d="M132.28,41.65c-.06.14-.2.12-.41.1a.73.73,0,0,1-.48-.23c-.09-.12.17-.21.17-.21s0,.15.15.15.36-.13.39,0S132.34,41.53,132.28,41.65Z" style="fill:#969322"/><path d="M131.17,41.05c.09,0,.12-.09-.06-.18s-.33-.08-.36,0-.05.12.07.18A.89.89,0,0,0,131.17,41.05Z" style="fill:#969322"/><path d="M132.37,42.18c-.09,0-.13.06,0,.18s.31.15.34.1.08-.11,0-.19A.82.82,0,0,0,132.37,42.18Z" style="fill:#969322"/><path d="M131,41.54c0-.06-.09-.09-.11,0s-.08,0,0,.07l.12.06Z" style="fill:#969322"/><path d="M130.67,41c0-.09-.15-.15-.18-.09s-.12.1-.06.12l.18.09Z" style="fill:#969322"/><path d="M131.72,41.24c.09,0,.24,0,.23-.06s0-.17,0-.15l-.23.06Z" style="fill:#969322"/><path d="M131.23,42.18s0,.13,0,.12.09,0,.08,0l0-.12Z" style="fill:#969322"/><path d="M130.53,41.85c0-.11-.15-.19-.19-.13s-.15.09-.09.13l.2.13Z" style="fill:#969322"/><path d="M133.4,42.31c.1,0,.25,0,.23-.06s0-.17,0-.15l-.22.06Z" style="fill:#969322"/><path d="M132.15,41.76c.1.05.25,0,.23-.06s0-.17,0-.15l-.22.06Z" style="fill:#969322"/><path d="M137.33,40.74c0-.15.13-.2.33-.27a.75.75,0,0,1,.53,0c.14.07-.06.27-.06.27a.14.14,0,0,0-.2-.06c-.13.06-.26.26-.33.2S137.34,40.87,137.33,40.74Z" style="fill:#969322"/><path d="M138.59,40.79c-.06.07-.06.13.14.13s.33-.07.33-.14,0-.13-.14-.13A.8.8,0,0,0,138.59,40.79Z" style="fill:#969322"/><path d="M138.52,40.28s.13,0,.13,0,0-.09,0-.09h-.13Z" style="fill:#969322"/><path d="M139.06,40.58c.06.07.19.07.19,0s.07-.13,0-.13h-.2Z" style="fill:#969322"/><path d="M138,40.86c-.11,0-.23.1-.18.15s0,.17.11.12l.17-.15Z" style="fill:#969322"/><path d="M141.24,39.39c0,.15-.14.2-.34.26a.73.73,0,0,1-.53,0c-.13-.07.07-.27.07-.27a.15.15,0,0,0,.2.07c.14-.06.27-.26.34-.19S141.24,39.26,141.24,39.39Z" style="fill:#969322"/><path d="M140,39.3c.07-.07.07-.13-.13-.14s-.33.06-.33.13,0,.13.13.14A.83.83,0,0,0,140,39.3Z" style="fill:#969322"/><path d="M141.54,39.83c-.08.05-.09.11.1.16s.34,0,.35-.06,0-.13-.1-.16A.77.77,0,0,0,141.54,39.83Z" style="fill:#969322"/><path d="M140,39.81s-.13,0-.13,0,0,.08,0,.08H140Z" style="fill:#969322"/><path d="M139.51,39.49c-.06-.07-.19-.07-.2,0s-.06.14,0,.14h.2Z" style="fill:#969322"/><path d="M140.56,39.24c.11,0,.23-.08.18-.14s0-.17-.1-.12l-.18.14Z" style="fill:#969322"/><path d="M140.5,40.3c0,.06.05.12.08.1s.09,0,.07-.06l-.09-.09Z" style="fill:#969322"/><path d="M139.73,40.29c-.07-.09-.22-.11-.23,0s-.1.14,0,.15l.22,0Z" style="fill:#969322"/><path d="M142.53,39.52c.11,0,.23-.08.18-.14s0-.17-.1-.12l-.18.14Z" style="fill:#969322"/><path d="M141.17,39.54c.11,0,.23-.09.18-.15s0-.17-.1-.12l-.18.15Z" style="fill:#969322"/><path d="M137.31,47.44c-.09-.23,0-.36.14-.55a.45.45,0,0,1,.49-.2c.16.05.11.45.11.45s-.15-.19-.23,0-.07.52-.18.44S137.4,47.65,137.31,47.44Z" style="fill:#969322"/><path d="M138.52,47.06c0,.13,0,.24.2.16s.27-.23.23-.34-.09-.21-.21-.16S138.52,47.06,138.52,47.06Z" style="fill:#969322"/><path d="M138.13,46.27c.07,0,.14,0,.12,0s0-.16-.06-.14l-.11,0Z" style="fill:#969322"/><path d="M138.82,46.57c.1.08.23,0,.18-.08s0-.24-.08-.21l-.19.08Z" style="fill:#969322"/><path d="M138,47.39a.2.2,0,0,0-.07.3c.08.08.14.25.17.15l.07-.3Z" style="fill:#969322"/><path d="M140.11,43.87c.09.23,0,.36-.16.53a.46.46,0,0,1-.5.18c-.16-.06-.09-.45-.09-.45s.14.19.22,0,.09-.51.2-.43S140,43.65,140.11,43.87Z" style="fill:#969322"/><path d="M138.88,44.18c0-.13,0-.23-.21-.17s-.27.22-.23.33.08.21.21.16S138.88,44.18,138.88,44.18Z" style="fill:#969322"/><path d="M140.66,44.45c0,.11,0,.22.19.22s.32-.11.3-.22-.06-.22-.2-.21S140.66,44.45,140.66,44.45Z" style="fill:#969322"/><path d="M139.25,45c-.06-.06-.14,0-.12,0s0,.15.05.13l.12,0Z" style="fill:#969322"/><path d="M138.56,44.65c-.1-.08-.23,0-.19.07s0,.23.08.21l.19-.06Z" style="fill:#969322"/><path d="M139.38,43.88a.19.19,0,0,0,.08-.29c-.09-.08-.14-.26-.17-.16l-.07.3Z" style="fill:#969322"/><path d="M140,45.59c0,.09.12.17.13.12s.07-.07,0-.11l-.14-.12Z" style="fill:#969322"/><path d="M139.26,45.86c-.11-.12-.27-.1-.23,0s0,.26.07.25l.24,0Z" style="fill:#969322"/><path d="M141.39,43.6a.19.19,0,0,0,.08-.29c-.08-.08-.14-.26-.17-.16l-.07.3Z" style="fill:#969322"/><path d="M140.13,44.13a.2.2,0,0,0,.08-.3c-.08-.08-.14-.25-.17-.15L140,44Z" style="fill:#969322"/><path d="M141.18,40.62c.09.24,0,.37-.14.55a.46.46,0,0,1-.5.2c-.16-.06-.1-.45-.1-.45s.15.19.23,0,.08-.52.18-.44S141.1,40.41,141.18,40.62Z" style="fill:#969322"/><path d="M140,41c0-.13,0-.24-.2-.16s-.27.23-.23.33.08.21.2.16S140,41,140,41Z" style="fill:#969322"/><path d="M140.35,41.78c-.07-.05-.15,0-.12,0s0,.15.05.13l.12,0Z" style="fill:#969322"/><path d="M139.66,41.48c-.1-.08-.22,0-.18.07s0,.24.08.22l.18-.08Z" style="fill:#969322"/><path d="M140.46,40.67a.21.21,0,0,0,.08-.31c-.09-.07-.14-.25-.17-.15l-.07.31Z" style="fill:#969322"/><path d="M138.34,44.16c-.09-.24,0-.36.16-.53a.46.46,0,0,1,.5-.17c.16.06.09.45.09.45s-.14-.2-.23,0-.09.52-.19.43S138.42,44.38,138.34,44.16Z" style="fill:#969322"/><path d="M139.57,43.86c0,.13,0,.24.2.17s.28-.21.24-.31-.08-.22-.2-.18S139.57,43.86,139.57,43.86Z" style="fill:#969322"/><path d="M137.79,43.57c.05-.11,0-.22-.19-.22s-.32.1-.29.21.05.22.19.22S137.79,43.57,137.79,43.57Z" style="fill:#969322"/><path d="M139.21,43.06c.06.06.14,0,.12,0s0-.15-.05-.13l-.12,0Z" style="fill:#969322"/><path d="M139.89,43.4c.11.08.23,0,.19-.07s0-.23-.08-.21l-.18.06Z" style="fill:#969322"/><path d="M139.06,44.16a.19.19,0,0,0-.08.29c.08.08.14.26.17.16l.08-.3Z" style="fill:#969322"/><path d="M138.48,42.44c0-.09-.12-.18-.13-.12s-.07.07,0,.11l.14.12Z" style="fill:#969322"/><path d="M139.21,42.18c.11.12.27.11.23,0s0-.26-.06-.25l-.24,0Z" style="fill:#969322"/><path d="M137.05,44.41a.19.19,0,0,0-.08.29c.08.08.13.26.16.16l.08-.29Z" style="fill:#969322"/><path d="M138.32,43.9a.19.19,0,0,0-.09.29c.09.08.14.26.17.16l.08-.29Z" style="fill:#969322"/><path d="M140.32,39c.16.2.11.35,0,.56a.46.46,0,0,1-.41.34c-.17,0-.23-.4-.23-.4s.19.14.23,0-.07-.52,0-.47S140.18,38.86,140.32,39Z" style="fill:#969322"/><path d="M139.27,39.74c0-.13-.09-.22-.24-.1s-.19.3-.12.39.14.18.24.1S139.27,39.74,139.27,39.74Z" style="fill:#969322"/><path d="M139.86,40.39c-.08,0-.14,0-.1.08s.06.14.09.11l.1-.08Z" style="fill:#969322"/><path d="M139.12,40.3c-.12,0-.23,0-.16.12s.09.22.14.18l.16-.12Z" style="fill:#969322"/><path d="M139.65,39.29a.2.2,0,0,0,0-.31c-.1,0-.21-.2-.2-.1l0,.31Z" style="fill:#969322"/><path d="M138.63,43.25c-.15-.2-.1-.35,0-.56a.44.44,0,0,1,.43-.3c.18,0,.22.4.22.4s-.19-.15-.23,0,0,.52-.07.47S138.77,43.43,138.63,43.25Z" style="fill:#969322"/><path d="M139.72,42.61c0,.13.09.22.25.1s.2-.28.13-.37-.14-.18-.24-.11S139.72,42.61,139.72,42.61Z" style="fill:#969322"/><path d="M137.94,42.84c0-.12-.05-.22-.25-.16s-.27.2-.22.3.11.19.25.15S137.94,42.84,137.94,42.84Z" style="fill:#969322"/><path d="M139.14,41.94c.08,0,.15,0,.11-.07s-.06-.14-.09-.11l-.1.07Z" style="fill:#969322"/><path d="M139.9,42.06c.12.06.23,0,.16-.11s-.08-.22-.14-.18l-.16.11Z" style="fill:#969322"/><path d="M139.32,43a.2.2,0,0,0,0,.31c.1,0,.21.21.2.1v-.3Z" style="fill:#969322"/><path d="M138.27,41.56c-.06-.08-.17-.13-.17-.08s0,.09,0,.12l.17.08Z" style="fill:#969322"/><path d="M138.89,41.1c.14.09.29,0,.22-.08s-.07-.26-.14-.23l-.22.09Z" style="fill:#969322"/><path d="M137.47,43.86c-.1,0-.09.25,0,.31s.2.2.2.1,0-.31,0-.31Z" style="fill:#969322"/><path d="M138.53,43a.2.2,0,0,0,0,.31c.1,0,.21.21.2.1v-.3Z" style="fill:#969322"/><path d="M138.71,55.76c-.21-.15-.2-.31-.18-.54a.47.47,0,0,1,.29-.44c.17,0,.34.32.34.32s-.22-.08-.21.1.23.48.1.47S138.9,55.89,138.71,55.76Z" style="fill:#969322"/><path d="M139.51,54.78c.06.12.15.18.26,0s.1-.34,0-.4-.18-.13-.26,0S139.51,54.78,139.51,54.78Z" style="fill:#969322"/><path d="M138.76,54.33c.08,0,.13-.06.07-.1s-.09-.12-.12-.09l-.07.11Z" style="fill:#969322"/><path d="M139.5,54.2c.13,0,.2-.1.11-.16s-.15-.19-.19-.13l-.11.16Z" style="fill:#969322"/><path d="M139.28,55.32a.2.2,0,0,0,.11.29c.11,0,.26.13.22,0l-.11-.3Z" style="fill:#969322"/><path d="M139.1,51.23c.21.15.2.31.17.54a.46.46,0,0,1-.33.42c-.17,0-.32-.32-.32-.32s.22.08.21-.09-.2-.48-.07-.47S138.92,51.1,139.1,51.23Z" style="fill:#969322"/><path d="M138.24,52.17c-.05-.12-.14-.19-.26,0s-.11.33,0,.4.18.13.27,0S138.24,52.17,138.24,52.17Z" style="fill:#969322"/><path d="M139.89,51.43c0,.11.1.19.28.07s.2-.27.12-.34-.16-.15-.28-.08S139.89,51.43,139.89,51.43Z" style="fill:#969322"/><path d="M139,52.63c-.08,0-.13.06-.08.1s.1.12.12.09l.08-.1Z" style="fill:#969322"/><path d="M138.24,52.74c-.14,0-.22.09-.12.16s.14.18.18.13l.12-.16Z" style="fill:#969322"/><path d="M138.5,51.64a.19.19,0,0,0-.1-.29c-.11,0-.25-.13-.22,0l.1.29Z" style="fill:#969322"/><path d="M139.94,52.74c.08.07.2.08.18,0s0-.1,0-.11l-.18,0Z" style="fill:#969322"/><path d="M139.48,53.36c-.16,0-.28.07-.18.15s.13.22.19.17l.19-.15Z" style="fill:#969322"/><path d="M140,50.31a.19.19,0,0,0-.09-.29c-.11,0-.26-.14-.23,0l.1.29Z" style="fill:#969322"/><path d="M139.27,51.44a.19.19,0,0,0-.1-.29c-.11,0-.26-.14-.22,0l.09.29Z" style="fill:#969322"/><path d="M131.39,58.66c-.07.24-.22.29-.44.34a.43.43,0,0,1-.51-.14c-.1-.14.19-.41.19-.41s0,.23.16.16.38-.37.41-.24S131.46,58.44,131.39,58.66Z" style="fill:#969322"/><path d="M130.21,58.21c.1-.09.13-.2-.06-.25s-.35,0-.38.13-.07.22.06.25S130.21,58.21,130.21,58.21Z" style="fill:#969322"/><path d="M130,59.07c0-.08-.1-.1-.12,0s-.08.12,0,.13l.12,0Z" style="fill:#969322"/><path d="M129.67,58.41c0-.12-.16-.16-.19,0s-.13.2-.07.22l.2.05Z" style="fill:#969322"/><path d="M130.8,58.26a.21.21,0,0,0,.24-.2c0-.11,0-.29,0-.22l-.24.2Z" style="fill:#969322"/><path d="M127,59.74c.07-.25.22-.29.45-.33a.46.46,0,0,1,.5.17c.09.15-.2.41-.2.41s0-.24-.15-.17-.39.35-.42.22S126.92,60,127,59.74Z" style="fill:#969322"/><path d="M128.15,60.25c-.1.09-.14.19,0,.26s.35,0,.38-.11.07-.22-.05-.26S128.15,60.25,128.15,60.25Z" style="fill:#969322"/><path d="M126.92,58.93c.1-.06.14-.16,0-.29s-.32-.11-.37,0-.09.21,0,.29S126.92,58.93,126.92,58.93Z" style="fill:#969322"/><path d="M128.35,59.39c0,.09.09.11.12,0s.08-.12,0-.13l-.12,0Z" style="fill:#969322"/><path d="M128.69,60.07c0,.13.15.18.19.07s.13-.2.06-.22l-.18-.06Z" style="fill:#969322"/><path d="M127.57,60.17c-.1-.05-.26.08-.25.19s0,.29,0,.22l.24-.18Z" style="fill:#969322"/><path d="M128.15,58.46c0-.1,0-.22,0-.18s-.1,0-.09.07l0,.18Z" style="fill:#969322"/><path d="M128.88,58.7c0,.16.15.24.2.12s.17-.2.1-.24l-.2-.13Z" style="fill:#969322"/><path d="M125.82,59.15c-.1,0-.27.07-.25.18s0,.29,0,.23l.25-.19Z" style="fill:#969322"/><path d="M127.13,59.51c-.1,0-.26.08-.25.19s0,.29,0,.22l.24-.18Z" style="fill:#969322"/><path d="M142.08,62.45c-.14.48-.44.58-.89.69a.9.9,0,0,1-1-.29c-.19-.28.38-.83.38-.83s0,.47.32.32.77-.72.83-.47S142.21,62,142.08,62.45Z" style="fill:#969322"/><path d="M139.72,61.55c.19-.18.26-.4-.13-.5s-.7,0-.76.25-.13.44.12.51S139.72,61.55,139.72,61.55Z" style="fill:#969322"/><path d="M139.35,63.27c0-.16-.2-.21-.24-.07s-.16.26-.08.28l.24.07Z" style="fill:#969322"/><path d="M138.63,62c-.06-.26-.31-.33-.38-.11s-.25.4-.13.44l.39.1Z" style="fill:#969322"/><path d="M140.89,61.64a.41.41,0,0,0,.49-.39c0-.22.08-.57-.08-.44l-.48.39Z" style="fill:#969322"/><path d="M133.27,64.6c.15-.48.45-.56.9-.65a.9.9,0,0,1,1,.34c.19.3-.4.82-.4.82s0-.47-.3-.34-.78.69-.84.44S133.13,65,133.27,64.6Z" style="fill:#969322"/><path d="M135.59,65.63c-.2.17-.27.39.11.52s.7,0,.76-.22.14-.43-.11-.52S135.59,65.63,135.59,65.63Z" style="fill:#969322"/><path d="M133.13,63c.2-.12.29-.32,0-.58s-.64-.22-.73,0-.18.4,0,.57S133.13,63,133.13,63Z" style="fill:#969322"/><path d="M136,63.92c0,.16.19.22.24.08s.16-.25.08-.28l-.24-.08Z" style="fill:#969322"/><path d="M136.67,65.28c.06.26.31.34.38.13s.26-.39.13-.43l-.37-.13Z" style="fill:#969322"/><path d="M134.43,65.48a.39.39,0,0,0-.49.37c0,.22-.1.57.06.45l.49-.37Z" style="fill:#969322"/><path d="M135.59,62.05c.07-.19,0-.43-.06-.36s-.2,0-.18.14l.06.36Z" style="fill:#969322"/><path d="M137.06,62.52c0,.33.3.5.4.25s.33-.39.2-.48l-.4-.25Z" style="fill:#969322"/><path d="M130.92,63.42c-.19-.1-.52.15-.48.38s-.1.57.06.44l.49-.37Z" style="fill:#969322"/><path d="M133.55,64.16c-.19-.1-.52.14-.49.37s-.09.57.07.45l.49-.37Z" style="fill:#969322"/><path d="M124.26,59.18c-.36.35-.67.29-1.11.17a.91.91,0,0,1-.76-.75c0-.34.74-.54.74-.54s-.23.41.12.44,1-.27,1,0S124.59,58.86,124.26,59.18Z" style="fill:#969322"/><path d="M122.63,57.25c.25-.07.42-.23.13-.5s-.63-.31-.79-.15-.33.32-.14.5S122.63,57.25,122.63,57.25Z" style="fill:#969322"/><path d="M121.48,58.57c0-.16-.08-.27-.18-.17s-.27.14-.21.2l.18.18Z" style="fill:#969322"/><path d="M121.48,57.08c.07-.26-.12-.44-.28-.28s-.42.22-.32.32l.28.28Z" style="fill:#969322"/><path d="M123.61,57.9a.42.42,0,0,0,.62-.11c.07-.21.35-.46.14-.43l-.61.11Z" style="fill:#969322"/><path d="M115.51,56.79c.36-.35.67-.27,1.1-.13a.9.9,0,0,1,.71.79c0,.35-.74.52-.74.52s.24-.41-.11-.45-1,.23-.94,0S115.18,57.11,115.51,56.79Z" style="fill:#969322"/><path d="M117,58.81c-.26.06-.42.22-.15.51s.61.34.77.18.33-.31.15-.51S117,58.81,117,58.81Z" style="fill:#969322"/><path d="M116.16,55.32c.24,0,.41-.14.25-.53s-.45-.5-.63-.36-.36.26-.25.52S116.16,55.32,116.16,55.32Z" style="fill:#969322"/><path d="M118.22,57.51c0,.16.06.29.17.19s.26-.14.21-.2l-.17-.19Z" style="fill:#969322"/><path d="M118.15,59c-.07.26.11.45.27.3s.42-.22.33-.31l-.27-.3Z" style="fill:#969322"/><path d="M116.1,58.12a.4.4,0,0,0-.61.09c-.08.21-.36.45-.16.42l.61-.08Z" style="fill:#969322"/><path d="M118.77,55.68c.15-.13.23-.36.12-.34s-.18-.08-.22,0l-.12.34Z" style="fill:#969322"/><path d="M119.83,56.81c-.13.3,0,.58.23.41s.48-.19.4-.33l-.22-.41Z" style="fill:#969322"/><path d="M114,54.63a.39.39,0,0,0-.61.09c-.08.21-.36.45-.16.42l.61-.09Z" style="fill:#969322"/><path d="M116,56.54a.4.4,0,0,0-.61.09c-.08.21-.36.45-.16.42l.61-.08Z" style="fill:#969322"/><path d="M130,61.69c-.21.15-.36.09-.58,0a.49.49,0,0,1-.32-.44c0-.18.42-.21.42-.21s-.15.18,0,.23.53-.05.48.07S130.14,61.56,130,61.69Z" style="fill:#969322"/><path d="M129.29,60.59c.13,0,.23-.08.11-.25a.32.32,0,0,0-.39-.14c-.1.07-.19.14-.11.25S129.29,60.59,129.29,60.59Z" style="fill:#969322"/><path d="M128.6,61.16c0-.08,0-.15-.08-.11s-.15.05-.12.09l.08.1Z" style="fill:#969322"/><path d="M128.73,60.4c.05-.12,0-.23-.12-.16s-.23.08-.19.13l.12.17Z" style="fill:#969322"/><path d="M129.73,61a.21.21,0,0,0,.32,0c0-.1.21-.2.11-.2h-.32Z" style="fill:#969322"/><path d="M125.74,59.76c.22-.15.36-.08.57,0a.48.48,0,0,1,.29.46c0,.18-.42.2-.42.2s.16-.18,0-.23-.53,0-.47-.09S125.55,59.89,125.74,59.76Z" style="fill:#969322"/><path d="M126.34,60.9c-.13,0-.23.08-.12.25s.28.22.38.15.19-.13.12-.24S126.34,60.9,126.34,60.9Z" style="fill:#969322"/><path d="M126.2,59.07c.11,0,.22,0,.16-.24s-.18-.29-.28-.24-.2.1-.17.24S126.2,59.07,126.2,59.07Z" style="fill:#969322"/><path d="M127.05,60.35c0,.07,0,.15.07.11s.14-.05.12-.09l-.07-.11Z" style="fill:#969322"/><path d="M126.89,61.11c-.06.12,0,.23.11.17s.22-.07.19-.13l-.11-.17Z" style="fill:#969322"/><path d="M125.93,60.48a.2.2,0,0,0-.32,0c0,.1-.22.2-.11.2h.31Z" style="fill:#969322"/><path d="M127.48,59.48c.09-.06.15-.17.09-.17s-.09-.05-.12,0l-.09.17Z" style="fill:#969322"/><path d="M127.92,60.13c-.09.14,0,.29.08.23s.25-.06.23-.13l-.08-.23Z" style="fill:#969322"/><path d="M125.18,58.55a.2.2,0,0,0-.32,0c0,.1-.22.2-.11.2h.31Z" style="fill:#969322"/><path d="M126,59.67a.21.21,0,0,0-.32,0c-.05.1-.22.2-.11.2h.31Z" style="fill:#969322"/><path d="M135.31,62.6c-.12.08-.21,0-.34,0a.27.27,0,0,1-.19-.26c0-.1.25-.12.25-.12s-.09.11,0,.13.31,0,.28,0S135.43,62.52,135.31,62.6Z" style="fill:#969322"/><path d="M134.92,61.94c.08,0,.14,0,.07-.14s-.18-.13-.23-.09-.12.08-.07.15S134.92,61.94,134.92,61.94Z" style="fill:#969322"/><path d="M134.51,62.28c0-.05,0-.09,0-.06s-.09,0-.07.05l0,.06Z" style="fill:#969322"/><path d="M134.59,61.83c0-.07,0-.14-.07-.1s-.14.05-.12.08l.08.1Z" style="fill:#969322"/><path d="M135.18,62.18a.12.12,0,0,0,.19,0c0-.06.13-.12.07-.12h-.19Z" style="fill:#969322"/><path d="M132.82,61.45c.12-.09.21-.05.33,0a.29.29,0,0,1,.18.27c0,.11-.25.12-.25.12s.09-.11,0-.14-.31,0-.28-.05S132.7,61.53,132.82,61.45Z" style="fill:#969322"/><path d="M133.17,62.13c-.07,0-.13,0-.07.14a.2.2,0,0,0,.23.1s.11-.08.07-.15S133.17,62.13,133.17,62.13Z" style="fill:#969322"/><path d="M133.09,61c.07,0,.13,0,.1-.14s-.11-.17-.17-.14-.12.06-.1.14S133.09,61,133.09,61Z" style="fill:#969322"/><path d="M133.59,61.8s0,.09,0,.06.09,0,.08,0l-.05-.06Z" style="fill:#969322"/><path d="M133.5,62.25c0,.07,0,.14.06.1s.14,0,.12-.08l-.07-.1Z" style="fill:#969322"/><path d="M132.93,61.87a.12.12,0,0,0-.19,0c0,.06-.13.12-.07.12h.19Z" style="fill:#969322"/><path d="M133.85,61.28c.05,0,.09-.1.05-.1s-.05,0-.07,0l-.05.1Z" style="fill:#969322"/><path d="M134.11,61.67c-.06.08,0,.17,0,.13s.16,0,.14-.07l0-.14Z" style="fill:#969322"/><path d="M132.48,60.73c0-.06-.15-.06-.18,0s-.13.11-.07.11h.18Z" style="fill:#969322"/><path d="M133,61.4a.12.12,0,0,0-.19,0c0,.06-.13.12-.07.12h.19Z" style="fill:#969322"/><path d="M138.88,63.88c-.1.12-.2.11-.34.08a.26.26,0,0,1-.24-.2c0-.11.2-.19.2-.19s-.05.13.05.13.3-.1.29,0S139,63.78,138.88,63.88Z" style="fill:#969322"/><path d="M138.33,63.34c.08,0,.12-.08,0-.15s-.2-.08-.24,0-.09.11,0,.16S138.33,63.34,138.33,63.34Z" style="fill:#969322"/><path d="M138,63.77c0-.05,0-.08-.06-.05s-.08.05-.06.07l.06.05Z" style="fill:#969322"/><path d="M138,63.32c0-.08,0-.13-.09-.08s-.12.08-.09.11l.09.07Z" style="fill:#969322"/><path d="M138.65,63.51c0,.05.16,0,.18,0s.09-.14,0-.13l-.18.05Z" style="fill:#969322"/><path d="M136.17,63.38c.11-.11.2-.09.33-.06s.23.11.24.21-.21.18-.21.18.06-.13-.05-.13-.3.09-.28,0S136.08,63.49,136.17,63.38Z" style="fill:#969322"/><path d="M136.69,64c-.08,0-.12.07,0,.15s.2.09.24,0,.09-.11,0-.16S136.69,64,136.69,64Z" style="fill:#969322"/><path d="M136.33,62.92c.07,0,.13-.05.07-.16s-.15-.14-.2-.1-.1.09-.07.17S136.33,62.92,136.33,62.92Z" style="fill:#969322"/><path d="M137,63.53s0,.09.06,0,.07,0,.05-.06l-.05-.05Z" style="fill:#969322"/><path d="M137,64c0,.08,0,.14.09.08s.12-.07.09-.1l-.09-.08Z" style="fill:#969322"/><path d="M136.39,63.77a.13.13,0,0,0-.19,0c0,.07-.09.15,0,.13l.18,0Z" style="fill:#969322"/><path d="M137.13,63s.06-.12,0-.11-.06,0-.07,0l0,.1Z" style="fill:#969322"/><path d="M137.48,63.28c0,.09,0,.17.08.12s.14-.07.11-.11l-.08-.12Z" style="fill:#969322"/><path d="M135.67,62.77a.12.12,0,0,0-.18,0c0,.07-.1.15,0,.13l.18,0Z" style="fill:#969322"/><path d="M136.31,63.3c0-.06-.16,0-.18,0s-.1.14,0,.13l.18,0Z" style="fill:#969322"/><path d="M142,62c-.1.12-.19.11-.33.08a.27.27,0,0,1-.25-.2c0-.11.21-.19.21-.19s-.06.13.05.13.3-.1.29,0S142.13,61.88,142,62Z" style="fill:#969322"/><path d="M141.5,61.44c.08,0,.12-.08,0-.15s-.2-.08-.25,0-.09.11,0,.16S141.5,61.44,141.5,61.44Z" style="fill:#969322"/><path d="M141.19,61.87s0-.08-.06,0-.08,0-.06.07l.06,0Z" style="fill:#969322"/><path d="M141.15,61.42c0-.08-.05-.13-.09-.08s-.12.08-.09.11l.09.07Z" style="fill:#969322"/><path d="M141.81,61.61a.13.13,0,0,0,.19,0c0-.06.09-.14,0-.13l-.18,0Z" style="fill:#969322"/><path d="M139.34,61.48c.1-.11.2-.09.33-.06a.27.27,0,0,1,.23.21c0,.11-.21.18-.21.18s.06-.13,0-.13-.3.09-.28,0S139.25,61.59,139.34,61.48Z" style="fill:#969322"/><path d="M139.85,62.05c-.07,0-.12.08,0,.16s.19.09.24,0,.09-.11,0-.16S139.85,62.05,139.85,62.05Z" style="fill:#969322"/><path d="M139.5,61c.07,0,.12-.05.06-.16s-.15-.14-.2-.1-.1.09-.06.17S139.5,61,139.5,61Z" style="fill:#969322"/><path d="M140.18,61.63s0,.09,0,0,.08,0,.06-.06l-.06,0Z" style="fill:#969322"/><path d="M140.2,62.09c0,.08,0,.14.08.08s.12-.07.1-.1l-.09-.08Z" style="fill:#969322"/><path d="M139.55,61.87a.12.12,0,0,0-.18,0c0,.07-.1.15,0,.13l.19,0Z" style="fill:#969322"/><path d="M140.3,61.07s.06-.12,0-.11,0,0-.06,0l0,.1Z" style="fill:#969322"/><path d="M140.64,61.38c0,.09,0,.17.08.12s.14-.07.12-.11l-.08-.12Z" style="fill:#969322"/><path d="M138.84,60.87a.12.12,0,0,0-.18,0c0,.07-.1.15,0,.13l.18,0Z" style="fill:#969322"/><path d="M139.47,61.4c0-.06-.16,0-.18,0s-.09.14,0,.13l.18,0Z" style="fill:#969322"/><path d="M115,57.16c-.16.12-.27.07-.44,0a.36.36,0,0,1-.24-.34c0-.13.32-.16.32-.16s-.12.14,0,.18.41,0,.37,0S115.15,57.06,115,57.16Z" style="fill:#969322"/><path d="M114.5,56.32c.1,0,.17-.06.08-.19a.23.23,0,0,0-.3-.11c-.07,0-.14.1-.08.19S114.5,56.32,114.5,56.32Z" style="fill:#969322"/><path d="M114,56.75c0-.06,0-.11-.06-.08s-.11,0-.09.07l.06.08Z" style="fill:#969322"/><path d="M114.07,56.18c0-.1,0-.18-.09-.13s-.18.06-.15.1l.09.13Z" style="fill:#969322"/><path d="M114.83,56.63a.18.18,0,0,0,.25,0c0-.08.16-.16.08-.16h-.24Z" style="fill:#969322"/><path d="M111.78,55.68a.36.36,0,0,1,.43,0,.35.35,0,0,1,.23.35c0,.14-.32.16-.32.16s.11-.15,0-.19-.41,0-.37-.06S111.63,55.78,111.78,55.68Z" style="fill:#969322"/><path d="M112.24,56.56c-.1,0-.18.06-.09.19a.23.23,0,0,0,.29.12c.07,0,.14-.1.09-.19S112.24,56.56,112.24,56.56Z" style="fill:#969322"/><path d="M112.13,55.15c.09,0,.17,0,.13-.18s-.15-.22-.22-.18-.16.08-.13.18S112.13,55.15,112.13,55.15Z" style="fill:#969322"/><path d="M112.78,56.13c0,.06,0,.12,0,.09s.11,0,.1-.07l-.06-.08Z" style="fill:#969322"/><path d="M112.66,56.72c0,.09,0,.18.08.13s.18-.06.15-.1l-.09-.13Z" style="fill:#969322"/><path d="M111.92,56.23c0-.08-.19-.08-.24,0s-.17.15-.09.15h.24Z" style="fill:#969322"/><path d="M113.11,55.46c.07,0,.11-.12.07-.12s-.07,0-.09,0l-.07.13Z" style="fill:#969322"/><path d="M113.45,56c-.07.11,0,.23.06.18s.2,0,.18-.1l-.07-.18Z" style="fill:#969322"/><path d="M111.35,54.75a.15.15,0,0,0-.24,0c0,.07-.17.15-.09.15h.24Z" style="fill:#969322"/><path d="M112,55.61a.16.16,0,0,0-.24,0c0,.08-.16.15-.08.15h.24Z" style="fill:#969322"/><polygon points="127.32 58.31 119.73 57.05 119.41 56.41 115.19 54.73 114.45 56.41 114.45 54.09 109.49 54.73 109.55 54.65 111.21 54.23 114.74 53.35 114.76 53.36 126.66 58.05 126.71 58.07 127.32 58.31" style="fill:#f0ff97;opacity:0.33;mix-blend-mode:color-dodge"/><polygon points="159 153.21 153.51 156.27 154.77 160.6 154.77 156.17 159 153.21" style="fill:#f0ff97;opacity:0.14;mix-blend-mode:color-dodge"/><polygon points="144.56 39.43 140.94 57.84 140.93 57.9 139.26 58.31 140.1 49.98 142.11 43.22 142.85 40.69 142.42 38.05 142.95 37.41 143.9 37.45 144.56 39.43" style="fill:#7648a3;opacity:0.34;mix-blend-mode:multiply"/><polygon points="124.37 38.47 128.15 37.17 143.9 37.41 141.47 38.47 141.37 38.89 135.88 38.47 128.38 38.05 124.37 38.47" style="fill:#f0ff97;opacity:0.33;mix-blend-mode:color-dodge"/><path d="M128.77,120.28c-.37-1.93-1.08-2.89-2.15-2.89a1.57,1.57,0,0,0-.86.28h-.06c-.1-.37-.21-.55-.34-.55s-.31.13-.31.27a2.22,2.22,0,0,1,.2.89l-.09,2.67q0,.72.24,3.9a1.74,1.74,0,0,0,0,.43.58.58,0,0,0,0,.14.27.27,0,0,0,.25.17l.06,0c.13-.07.19-.15.19-.22l0-.17v-.08a2,2,0,0,0,.59.13h0l.47,0a2.84,2.84,0,0,0,1.72-2.13,5.25,5.25,0,0,0,.13-1.24Zm-3-1.62c0-.47.27-.71.66-.71h.34a1.17,1.17,0,0,1,.8.51,5.93,5.93,0,0,1,.74,3.06V122a2.77,2.77,0,0,1-.5,1.69,1.25,1.25,0,0,1-1.09.53h-.24q-.44,0-.66-.78l-.14-2.53Z" style="fill:#6c20cd;opacity:0.45;mix-blend-mode:multiply"/><path d="M132.58,120.79s0,0,0,0c-.49-2.27-1.15-3.4-2-3.4-.29,0-.46.1-.53.32l0,0v.09a15.4,15.4,0,0,0-.73,4.51v.14a5.71,5.71,0,0,0,.06.86,2.71,2.71,0,0,0,.1.51c.21,1,.63,1.54,1.27,1.54a2.39,2.39,0,0,0,.72-.17,3.32,3.32,0,0,0,1.17-3C132.68,121.72,132.64,121.25,132.58,120.79Zm-.44,1.73a3.49,3.49,0,0,1-.09.84c-.23,1-.6,1.44-1.14,1.44h-.09l-.22-.07q-.45-.24-.6-1.26a8.77,8.77,0,0,1-.06-1.1v-.08a13.41,13.41,0,0,1,.71-4.41c.09,0,.2.07.35.21a6.73,6.73,0,0,1,1.1,3.19,5.69,5.69,0,0,1,0,.72Z" style="fill:#6c20cd;opacity:0.45;mix-blend-mode:multiply"/><path d="M126.89,129a.22.22,0,0,0-.2-.12h0c-.14,0-.25.11-.31.31,0,0,.06.1.06.29v.09c0,1.47-.09,3.49-.26,6h-.06a36.77,36.77,0,0,1-1.37-5.73,3.84,3.84,0,0,0-.22-1.14c0-.09-.09-.14-.15-.14l-.12,0h0s-.09.08-.13.24a16.37,16.37,0,0,0-.12,2.56l0,2.32v3.15a.93.93,0,0,0,0,.26h0a.23.23,0,0,0,.25.17c.17,0,.26-.07.26-.22v-3.44l0-2v-.05c.05,0,.12.29.23.88q.3,1.37.57,2.31a13.18,13.18,0,0,0,.48,1.38c.19.61.37.91.54.91l.15-.06c.09,0,.17-.39.24-1.16q.17-1.76.27-6.2v-.21A.84.84,0,0,0,126.89,129Z" style="fill:#6c20cd;opacity:0.45;mix-blend-mode:multiply"/><path d="M130.58,132.57c-.08-.35-.16-.68-.25-1-.46-1.61-1-2.41-1.71-2.41-.29,0-.47.1-.53.31l0,0v.09a15.7,15.7,0,0,0-.72,4.5v.15a5.63,5.63,0,0,0,.15,1.37,1.16,1.16,0,0,1,0,.18c.23.9.64,1.36,1.24,1.36a2.18,2.18,0,0,0,.72-.18,3.32,3.32,0,0,0,1.16-3C130.69,133.53,130.64,133,130.58,132.57Zm-.44,1.78a3.49,3.49,0,0,1-.09.84c-.22.95-.6,1.2-1.13,1.2h-.09l-.23-.06c-.31-.17-.51-.5-.6-1.15h0a6.81,6.81,0,0,1-.06-1v-.08a13.4,13.4,0,0,1,.72-4.4.59.59,0,0,1,.34.21,6.56,6.56,0,0,1,1,2.24,7.47,7.47,0,0,1,.18,1.66Z" style="fill:#6c20cd;opacity:0.45;mix-blend-mode:multiply"/><path d="M134.24,128.62a1,1,0,0,0-.56-.27,4,4,0,0,0-.65,0h-.45c-.87,0-1.31.1-1.31.32s.07.21.22.28l.81-.06v0c0,1,0,2.72.08,5.07,0,.89.06,1.6.11,2.11h0c.08.83.2,1.16.35,1a.32.32,0,0,0,.31-.26,11,11,0,0,1-.28-3.29c0-2,0-3.53,0-4.64v0h.09a1.81,1.81,0,0,1,1.09.23c.19,0,.28-.1.28-.26v0Z" style="fill:#6c20cd;opacity:0.45;mix-blend-mode:multiply"/><path d="M119.11,144.24v0l0-.26c-.36-1.93-1.08-2.9-2.14-2.9a1.57,1.57,0,0,0-.86.28H116c-.1-.36-.22-.54-.34-.54s-.31.12-.31.26a2.41,2.41,0,0,1,.2.9l-.09,2.66c0,.48.08,1.78.23,3.9a1.64,1.64,0,0,0,.07.51h0l0,0h0a.26.26,0,0,0,.25.18c.17-.09.25-.17.25-.26l0-.17v-.08a2.09,2.09,0,0,0,.6.13h0l.47-.05c1.23-.52,1.85-1.64,1.85-3.37Zm-.46,1.41a3.06,3.06,0,0,1-.45,1.81,1.33,1.33,0,0,1-1.15.53h-.23c-.23,0-.41-.16-.55-.47a1.85,1.85,0,0,1-.11-.31l-.14-2.65.08-2.24q.09-.72.66-.72h.35a1.16,1.16,0,0,1,.8.52,5,5,0,0,1,.6,1.59,7.46,7.46,0,0,1,.14,1.46Z" style="fill:#6c20cd;opacity:0.45;mix-blend-mode:multiply"/><path d="M122.51,147.94l-1,.14c-.18,0-.32-2.43-.4-7.28v0h.2l.4,0a.33.33,0,0,0,.22-.19v-.18a.08.08,0,0,0,0-.08h0a1.74,1.74,0,0,0-.64-.11H121q-.39,0-.39.06c-.76.07-1.14.19-1.14.37a.32.32,0,0,0,.08.21l.13.09h0l.82-.15h0c0,1.28.05,2.41.08,3.37.07,2,.15,3.27.25,3.93v0c-.45,0-.68.1-.68.31a.28.28,0,0,0,.2.26,6.89,6.89,0,0,0,1.14-.14c.75-.06,1.12-.18,1.12-.38v0A.29.29,0,0,0,122.51,147.94Z" style="fill:#6c20cd;opacity:0.45;mix-blend-mode:multiply"/><path d="M125.8,145.9a18.53,18.53,0,0,1-.93-1.64,5.55,5.55,0,0,1-.72-2.3v0c.06-.73.28-1.09.65-1.09h.13c.25,0,.25.17.45.51,0,.07,0,.12,0,.17,0,.29.14.43.28.43s.51-.1.51-.25a.85.85,0,0,0,0-.32,2.53,2.53,0,0,0-.29-.57,1.18,1.18,0,0,0-1-.51l-.37.06a1.64,1.64,0,0,0-.88,1.59,6.72,6.72,0,0,0,.91,2.8,6,6,0,0,1,1.26,2.86v.1q-.23.81-.69.81H125l-.17,0a1.08,1.08,0,0,1-.74-1.08v0l.05-.26c0-.08-.06-.17-.2-.26h-.08l-.17.06h0a.54.54,0,0,0-.37.46,1,1,0,0,0,.15.54l.09.14a1.94,1.94,0,0,0,1.5,1l.32,0a2.23,2.23,0,0,0,.53-.4,1.44,1.44,0,0,0,.41-1A3.85,3.85,0,0,0,125.8,145.9Z" style="fill:#6c20cd;opacity:0.45;mix-blend-mode:multiply"/><path d="M133.39,142.37c-.08-.53-.16-1.08-.25-1.66l0-.13c-.09-.18-.17-.27-.26-.27a.4.4,0,0,0-.29.12c-.21.55-.43,1.27-.68,2.17a38.61,38.61,0,0,1-1.56,6.06.2.2,0,0,0,0,.08c0,.14.1.23.29.29h0c.16,0,.47-.77.92-2.29a12.29,12.29,0,0,0,1.42.12l.5,0,.1.71c0,.91.16,1.36.38,1.36s.22-.08.28-.25Q134,146.37,133.39,142.37Zm-.14,3.94h-.49a4.44,4.44,0,0,1-1-.12l.11-.5.4-1.89a9,9,0,0,1,.52-2h0l.21,1.41.45,3A.23.23,0,0,1,133.25,146.31Z" style="fill:#6c20cd;opacity:0.45;mix-blend-mode:multiply"/><path d="M137.3,146.92c-.42-1.54-.69-2.45-.82-2.74h0a4.12,4.12,0,0,0,1.14-2.27v-.38a2.76,2.76,0,0,0-.22-.87,1.16,1.16,0,0,0-.35-.47h0a1,1,0,0,0-.41-.15,2,2,0,0,0-1.19.48l-.13-.06c-.2,0-.3.09-.32.33a.81.81,0,0,0-.2.25.37.37,0,0,0,.16.32,57,57,0,0,0,.07,6.95,1.62,1.62,0,0,0,0,.23c0,.21.11.33.24.33h.09a.38.38,0,0,0,.23-.26c0-.28,0-.57-.07-.87-.05-.91-.09-1.87-.1-2.87l.61-.32s.1.12.17.34c0,0,0,.1,0,.15a12.58,12.58,0,0,0,.74,2.42c.35.93.6,1.4.76,1.4s.23-.05.31-.21Zm-1.66-3.13h-.08a20,20,0,0,1-.05-2.62c.49-.41.84-.6,1.05-.58h.14a1.38,1.38,0,0,1,.37,1.24V142l-.05.28c0,.07-.05.14-.08.2A2.08,2.08,0,0,1,135.64,143.79Z" style="fill:#6c20cd;opacity:0.45;mix-blend-mode:multiply"/><path d="M132.58,120.79h0s0,0,0,0c-.49-2.27-1.15-3.4-2-3.4-.29,0-.46.1-.53.32l0,0v.09a15.4,15.4,0,0,0-.73,4.51v.14a5.71,5.71,0,0,0,.06.86l-.35-.76-.33.51a5.25,5.25,0,0,0,.13-1.24l-.13-1.52c-.37-1.93-1.08-2.89-2.15-2.89a1.57,1.57,0,0,0-.86.28h-.06c-.1-.37-.21-.55-.34-.55s-.31.13-.31.27a2.22,2.22,0,0,1,.2.89l-.09,2.67q0,.72.24,3.9a1.74,1.74,0,0,0,0,.43l-.4-.2v-1.16l-1.27-1.39.92.46.12-.81V120c0-.12.23-1.63.23-1.63l-.46-1v-1H125l.93,1a2.27,2.27,0,0,1,.81-.23,14.34,14.34,0,0,1,1.51.23l.58,2.09,0,1.94.55-3.1v-.58l.23-.58,1-.58,1.4,1.51Z" style="fill:#f0ff97;opacity:0.14;mix-blend-mode:color-dodge"/><path d="M143,143.82c-.36-1.93-1.08-2.9-2.15-2.9a1.68,1.68,0,0,0-.86.28H140c-.11-.36-.22-.54-.35-.54s-.31.13-.31.26a2.3,2.3,0,0,1,.2.9l-.09,2.66c0,.49.08,1.79.24,3.91a1.66,1.66,0,0,0,0,.42.38.38,0,0,0,.05.14.27.27,0,0,0,.25.18l.06,0c.13-.08.2-.15.2-.22l0-.18v-.08a2.12,2.12,0,0,0,.6.14h0l.47-.06a2.84,2.84,0,0,0,1.71-2.12,5.33,5.33,0,0,0,.13-1.25Zm-3-1.62c0-.48.27-.71.66-.71h.34a1.15,1.15,0,0,1,.8.51,5.82,5.82,0,0,1,.74,3.05v.48a2.75,2.75,0,0,1-.5,1.69,1.23,1.23,0,0,1-1.09.54h-.24q-.44,0-.66-.78l-.13-2.53Z" style="fill:#6c20cd;opacity:0.45;mix-blend-mode:multiply"/><path d="M143.36,146.07l-.33.51a5.33,5.33,0,0,0,.13-1.25l-.13-1.51c-.36-1.93-1.08-2.9-2.15-2.9a1.68,1.68,0,0,0-.86.28H140c-.11-.36-.22-.54-.35-.54s-.31.13-.31.26a2.3,2.3,0,0,1,.2.9l-.09,2.66c0,.49.08,1.79.24,3.91a1.66,1.66,0,0,0,0,.42l-.4-.19v-1.16L138,146.07l.93.46.11-.81v-2.21c0-.11.23-1.62.23-1.62l-.46-1v-1h.46l.93,1a2.35,2.35,0,0,1,.81-.23,14.34,14.34,0,0,1,1.51.23l.58,2.08,0,1.95Z" style="fill:#f0ff97;opacity:0.14;mix-blend-mode:color-dodge"/><path d="M126.37,129.14s.06.1.06.29v.09c0,1.47-.09,3.49-.26,6h-.06a36.77,36.77,0,0,1-1.37-5.73,3.84,3.84,0,0,0-.22-1.14l.3.13.45,3.45.58.46v.7s.24-1.16.24-1.28-.24-1.39-.24-1.39l.24-1.62.23-.58.36.27C126.54,128.84,126.43,128.94,126.37,129.14Z" style="fill:#f0ff97;opacity:0.14;mix-blend-mode:color-dodge"/><path d="M124,136.84a.93.93,0,0,0,0,.26l-.23-.54v-3.83l-.47-.69.35.11v-2.67l.42-.67a16.37,16.37,0,0,0-.12,2.56l0,2.32v3.15Z" style="fill:#f0ff97;opacity:0.14;mix-blend-mode:color-dodge"/><path d="M130.34,131.57v0c-.46-1.61-1-2.41-1.71-2.41-.29,0-.47.1-.53.31l0,0v.09a15.7,15.7,0,0,0-.72,4.5v.15a5.63,5.63,0,0,0,.15,1.37,1.16,1.16,0,0,1,0,.18l-.34-1-.24-1.16-.31,2.14q.17-1.76.27-6.2v-.21a.84.84,0,0,0-.08-.44l.47.19-.23,2.43.46-.58v-.81l.58-1,.12-.24,1.39.12Z" style="fill:#f0ff97;opacity:0.14;mix-blend-mode:color-dodge"/><path d="M133.74,128.33l-.06,0a4,4,0,0,0-.65,0h-.45c-.87,0-1.31.1-1.31.32s.07.21.22.28l.81-.06v0c0,1,0,2.72.08,5.07,0,.89.06,1.6.11,2.11h0l-.49-1.83V132l-.7-.35-.69-.12.69-.11.58.23.12-1.16v-1.16l-.46-.23-.7-.24v-.57l.23.23v-.23l1.05-.24Z" style="fill:#f0ff97;opacity:0.14;mix-blend-mode:color-dodge"/><path d="M130.06,140.56a1.05,1.05,0,0,0-.56-.27,3.87,3.87,0,0,0-.64,0h-.45c-.88,0-1.32.11-1.32.32s.08.21.23.28l.81-.06v0c0,1,0,2.72.08,5.07,0,.9,0,1.6.1,2.12h0c.08.83.2,1.17.36,1a.33.33,0,0,0,.31-.25,11.07,11.07,0,0,1-.28-3.29c0-2,0-3.53,0-4.65v0h.09a1.83,1.83,0,0,1,1.09.23c.18,0,.28-.1.28-.25v0Z" style="fill:#6c20cd;opacity:0.45;mix-blend-mode:multiply"/><path d="M129.56,140.27l-.06,0a3.87,3.87,0,0,0-.64,0h-.45c-.88,0-1.32.11-1.32.32s.08.21.23.28l.81-.06v0c0,1,0,2.72.08,5.07,0,.9,0,1.6.1,2.12h0l-.48-1.83V144l-.7-.35-.7-.12.7-.11.58.23.12-1.16v-1.16l-.47-.23-.69-.23v-.58l.23.23v-.23l1-.23Z" style="fill:#f0ff97;opacity:0.14;mix-blend-mode:color-dodge"/><path d="M120.72,146c0,.9.1,1.6.16,2.11h0l-.53-1.82-.06-2.2-.71-.33-.7-.1.7-.13.58.21.09-1.16,0-1.16-.47-.22-.7-.21,0-.58.24.23v-.24l1-.25.74.08q-.39,0-.39.06c-.76.07-1.14.19-1.14.37a.32.32,0,0,0,.08.21s0,.06.11.09h0l.82-.15h0c0,1.28.05,2.41.08,3.37C120.68,144.75,120.69,145.35,120.72,146Z" style="fill:#f0ff97;opacity:0.14;mix-blend-mode:color-dodge"/><path d="M119,143.05l.1,1.15,0-.26c-.36-1.93-1.08-2.9-2.14-2.9a1.57,1.57,0,0,0-.86.28H116c-.1-.36-.22-.54-.34-.54s-.31.12-.31.26a2.41,2.41,0,0,1,.2.9l-.09,2.66c0,.48.08,1.78.23,3.9a1.64,1.64,0,0,0,.07.51l-.36-.86v-1l-.58-.81.23-.58.23.46v-1l-.69-.47-1.74-.23h1.74l.58.23v-1.39l.23-.92v-.82l-.58-.92.58-.35.58.35.23.11h.93l.93.47.81,1.39v.26l.35-.15Z" style="fill:#f0ff97;opacity:0.14;mix-blend-mode:color-dodge"/><path d="M124.52,144.76a6,6,0,0,1,1.26,2.86v.1q-.23.81-.69.81H125l-.17,0a1.08,1.08,0,0,1-.74-1.08v0l.05-.26c0-.08-.06-.17-.2-.26h-.08l-.17.06.41-.28-.11-.24.46.24-.11.81.11.34.7.24h.35v-1l-.7-.69.12-.12-.12-.35a12.55,12.55,0,0,1-1.16-2.2,3.4,3.4,0,0,0-.23-.93l-.12-.11.24-.81v-1.05h.11l.81-.46.23-.23.93.23.24.55a1.18,1.18,0,0,0-1-.51l-.37.06a1.64,1.64,0,0,0-.88,1.59A6.72,6.72,0,0,0,124.52,144.76Z" style="fill:#f0ff97;opacity:0.14;mix-blend-mode:color-dodge"/><path d="M133.42,142.3l0,.07c-.08-.53-.16-1.08-.25-1.66l0-.13c-.09-.18-.17-.27-.26-.27a.4.4,0,0,0-.29.12c-.21.55-.43,1.27-.68,2.17a38.61,38.61,0,0,1-1.56,6.06v-.51l-.47-.35.47-.34.11-1.51.58-.58.23-1.74.58-3.36,1.05-1.05.46.58Z" style="fill:#f0ff97;opacity:0.14;mix-blend-mode:color-dodge"/><path d="M137.05,140.19a1,1,0,0,0-.41-.15,2,2,0,0,0-1.19.48l-.13-.06c-.2,0-.3.09-.32.33a.81.81,0,0,0-.2.25.37.37,0,0,0,.16.32,57,57,0,0,0,.07,6.95,1.62,1.62,0,0,0,0,.23l-.26-.39-.23-1.5v-2.21l-.23-2,.46-.69v-.24l-.58-.92.58-.82.47.35.81-.69.69.34Z" style="fill:#f0ff97;opacity:0.14;mix-blend-mode:color-dodge"/><polygon points="170.08 120.91 170.08 120.93 170.07 120.94 162.78 163.01 165.1 163.01 164.8 167 164.06 176.22 147.42 186.85 148.02 181.71 147.38 181.61 147.81 180.34 144.53 170.73 146.33 168.94 151.5 167.67 158.36 164.61 159.1 163.66 160.26 165.14 162.27 165.56 161.43 164.61 161.05 163.86 161.05 163.86 161.05 163.86 160.49 162.35 160.26 161.76 154.77 160.6 154.77 156.38 159.1 153.21 160.26 140.33 160.26 135.16 155.94 134.53 160.26 134.53 162.16 128.41 160.26 122.6 162.16 109.41 163.22 108.88 160.26 103.6 154.77 100.96 161.53 103.28 168.81 102.23 172.51 108.35 181.38 107.4 170.82 120.07 170.08 120.91" style="fill:#7648a3;opacity:0.54;mix-blend-mode:multiply"/><polygon points="161.11 122.6 169.45 121.44 168.29 127.88 163.01 128.41 161.11 122.6" style="fill:#7648a3;opacity:0.21;mix-blend-mode:multiply"/><polygon points="163.75 109.41 162.69 109.72 172.51 110.99 172.51 109.93 163.75 109.41" style="fill:#7648a3;opacity:0.21;mix-blend-mode:multiply"/><polygon points="159.42 153.63 161.43 156.59 155.2 156.38 159.42 153.63" style="fill:#7648a3;opacity:0.21;mix-blend-mode:multiply"/><polygon points="155.2 157.33 155.2 160.18 161.64 157.96 163.43 157.96 161.43 157.33 155.2 157.33" style="fill:#7648a3;opacity:0.21;mix-blend-mode:multiply"/><polygon points="155.94 160.39 160.37 161.44 161.64 158.38 155.94 160.39" style="fill:#f0ff97;opacity:0.08;mix-blend-mode:color-dodge"/><polygon points="144.53 170.73 156.57 168.31 146.33 168.94 144.53 170.73" style="fill:#7648a3;opacity:0.21;mix-blend-mode:multiply"/><polygon points="147.38 181.61 155.94 177.28 147.81 180.34 147.38 181.61" style="fill:#7648a3;opacity:0.21;mix-blend-mode:multiply"/><polygon points="148.02 181.61 154.03 178.86 154.14 180.87 154.67 179.71 154.88 178.55 160.58 176.75 162.06 176.22 163.43 174.64 164.06 170 163.66 176.48 147.38 186.88 148.02 181.61" style="fill:#7648a3;opacity:0.21;mix-blend-mode:multiply"/><polygon points="78.36 184.67 75.73 180.91 77.83 187.2 118.7 189.3 126.04 189.3 139.66 189.3 149.1 187.2 150.61 181.26 148.09 185.1 148.05 183.01 136.52 183.01 136.52 187.2 135.47 183.01 104.54 184.13 102.98 180.91 104.03 185.1 97.74 185.1 96.69 180.91 93.45 180.91 93.55 185.1 91.83 180.91 78.36 184.67" style="fill:#756515"/><path d="M77.5,168.51s3.82,3.16,4.59,3.25,2.68-3.34,3-3.44a7.18,7.18,0,0,0,1.24-1.15H92s-2,3.45-1.63,4.31,5.74,3.91,6,4.39c1.23,2,.09-4.06,3.63-3.82,2.87.19,4.78-4.11,4.78-4.11l3.44,6a20.7,20.7,0,0,0,1,2.49c.29.38,6.69,6.59,6.69,6.59s2-6,2.3-6.59-.2-2.11-.2-2.11,1.44-3.92,1.25-4.3a47.24,47.24,0,0,0-3.64-3.15l1.53-1.91c.39-.48,3.54-1.53,3.54-1.53s4.68,1.33,6.69,1.62,27.11,2.48,27.11,2.48L150,165.74l-27.33-2.58-2.13-.32-3.23,1.56-2.58,2.49h-1.62l-3.73-1.53,3-1,4.68-1.56,3.86-.49-5.1.05-8.82.91-1.4-.25-4-.28-19.44.05Z" style="fill:#7648a3;opacity:0.43;mix-blend-mode:multiply"/><path d="M113,154.18a10.44,10.44,0,0,0,.87-2,5.6,5.6,0,0,1-.38-1.57c0-.76,2.14-1.92,3.39-1.77a16.37,16.37,0,0,1,3.36,1.07s-1.25,1.85-2,2-1,1.45-1.57,1.64-2.61-.92-2.61-.92a16.59,16.59,0,0,0-.8,1.52,17,17,0,0,0,.16,1.89Z" style="fill:#756515"/><path d="M114.34,151.85a6.34,6.34,0,0,1-.42-1.26c-.09-.51,1.82-1.54,1.82-1.54l.11,1.86L116,149a10,10,0,0,1,1,0,4.53,4.53,0,0,1,.6.15L117,150.6l.87-1.39,1.92.59s-2.3.83-2.5.92,1.08.72,1.08.72a7,7,0,0,0-1.48-.51,5.18,5.18,0,0,0-.84.43l1.4.95a7.9,7.9,0,0,0-1.53-.84l-1,.51,1.9.48s-1.8-.24-2-.33A1.06,1.06,0,0,1,114.34,151.85Z" style="fill:#89791d;opacity:0.2;mix-blend-mode:multiply"/><path d="M89.63,148.63c.73,0,1.46-.81,1.67-.94,0,0,.14,0,.3.12s.69.43,1.18.74h0l.38.24.13.08c1.2.73,2.57,1.48,3.08,1.15a17.32,17.32,0,0,0,2.73-3.14,6,6,0,0,0,.52-1.18.93.93,0,0,0,0-.13,2.62,2.62,0,0,0-.29-2.48A22.42,22.42,0,0,0,95.16,140c-.59-.42,1.43-1.73.93-2.1a1.4,1.4,0,0,0-.69-.14h0a5.77,5.77,0,0,0-1,.07c-1.18.18-2.37-.4-3.53.66-2,1.83-.89,5-.89,5s-1.88.23-1.83,1.23S88.91,148.65,89.63,148.63Z" style="fill:#6c20cd"/><path d="M91.21,139.54s4.62.19,2.18,3.38-3.55,4.08-4,3.23.8-2.31.8-2.31l.54.39-.56.19s-.17.6,0,.67a13.35,13.35,0,0,0,2.92-2.38c.26-.43-1.63-2.35-1.94-2.27s-1,2.06-1,2.06S90.69,139.88,91.21,139.54Z" style="fill:#6c20cd"/><path d="M88.44,146.52a6.62,6.62,0,0,0,1.23,1.29c.36.15,3.35-4.27,4.58-4.5a4.21,4.21,0,0,1,2.52.55s-2.44-.24-2.76.08-2.23,4-3.24,4.85-.33.33-1,.3S88.44,146.52,88.44,146.52Z" style="fill:#6c20cd"/><path d="M96.37,150a17.32,17.32,0,0,0,2.73-3.14,6,6,0,0,0,.52-1.18,14.86,14.86,0,0,0-1.16-1.09c-.45-.33-3.88-.32-4.42-.19s-2.44,3.39-2.44,3.39l1.18.74h0l.38.24.13.08C94.49,149.6,95.86,150.35,96.37,150Z" style="fill:#6c20cd;opacity:0.79;mix-blend-mode:multiply"/><path d="M99.66,145.57a2.62,2.62,0,0,0-.29-2.48A22.42,22.42,0,0,0,95.16,140c-.59-.42,1.43-1.73.93-2.1a1.4,1.4,0,0,0-.69-.14c.22,0,.4.1.44.25.11.46-1.79,1.25-1.83,1.75s4.2,2.27,4.85,2.91A6.68,6.68,0,0,1,99.66,145.57Z" style="fill:#6c20cd;opacity:0.79;mix-blend-mode:multiply"/><path d="M94.24,141s1.14,1.34,1.65,1.78a21.52,21.52,0,0,0,2.28,1.37s-2.62-.8-3-1a6.84,6.84,0,0,1-1.22-1Z" style="fill:#6c20cd;opacity:0.79;mix-blend-mode:multiply"/><path d="M91,142.76s.57-1.4.9-1.28S93,142.67,93,142.67s-1.08-.55-1.35-.35S91,142.76,91,142.76Z" style="fill:#6c20cd;opacity:0.79;mix-blend-mode:multiply"/><path d="M92.19,143.37s-1.28.82-1.47.53a5.53,5.53,0,0,1-.23-1.61s.57,1.07.9,1.06S92.19,143.37,92.19,143.37Z" style="fill:#6c20cd;opacity:0.79;mix-blend-mode:multiply"/><path d="M98.08,152.29S96,149.58,96.49,149a12.61,12.61,0,0,1,2.12-1.43,8,8,0,0,1,0-2.7c.29-.58,2-2.8,2-2.8s-1.58,2.45-1.45,2.84a5.23,5.23,0,0,0,.86,1.66c.28.23.9.14,1.42.73a3.22,3.22,0,0,1,.66,1.24s11.06,6.56,13.74,7.69,27.87,8.25,27.87,8.25l2.45,2.07s-29-8.75-30.75-9.48-12.86-7.82-13.6-7.95-1.44.57-2,.27l-1.67-.87s-1.14.48-1.18.71A32,32,0,0,0,98.08,152.29Z" style="fill:#89791d"/><path d="M112.81,154.71s-1.42-3.59-1.91-3.92a11.51,11.51,0,0,1-2.84-1.45c-1.12-1-.1-5.68,1.73-7.35a32.66,32.66,0,0,1,5.94-3.63s1.15,4.26.43,5.51.91,3.32.41,4.45-4.73,2.71-4.73,2.71a31.77,31.77,0,0,0,1.23,3.16,31.94,31.94,0,0,0,3,2.2Z" style="fill:#a59025"/><path d="M111,149.72a13,13,0,0,1-2.42-1c-.87-.53,0-4.7,0-4.7l2.93,2.23-2.73-2.62a18.47,18.47,0,0,1,1.28-1.54,10.46,10.46,0,0,1,1-.71l1.43,2.77-.94-3.09L115,139s-1.73,4.49-1.87,4.91,2.47-.69,2.47-.69a13.45,13.45,0,0,0-2.67,1.56,11,11,0,0,0-.44,1.81l3.22-.87s-3.15.9-3.22,1.2-.54,2.16-.54,2.16l3.16-2.2s-2.68,2.37-3.13,2.62A2.06,2.06,0,0,1,111,149.72Z" style="fill:#89791d;opacity:0.28;mix-blend-mode:multiply"/><path d="M108.65,153.13s-3.7,1.21-4.27,1.05a11.08,11.08,0,0,0-3-1.26c-1.49-.24-4.47,3.58-4.58,6.07a32.92,32.92,0,0,0,1,7s4.05-1.85,4.56-3.23,3.16-1.43,3.71-2.55-1-5.41-1-5.41a30.71,30.71,0,0,1,3.25-1.08,31.71,31.71,0,0,1,3.66.92Z" style="fill:#706116"/><path d="M103.64,155a13.72,13.72,0,0,0-2.33-1.24c-1-.33-3.62,3.07-3.62,3.07l3.62.83-3.79-.42a18.3,18.3,0,0,0-.37,2,11.54,11.54,0,0,0,.1,1.23l3.08-.67-3,1.26.53,4s2.37-4.24,2.61-4.62,1.06,2.36,1.06,2.36a13.77,13.77,0,0,1-.51-3.08,11.27,11.27,0,0,1,1.12-1.51l1.4,3.06s-1.33-3-1.15-3.27l1.33-1.82.34,3.88s.11-3.61,0-4.13A2.11,2.11,0,0,0,103.64,155Z" style="fill:#89791d;opacity:0.27;mix-blend-mode:multiply"/><path d="M111,160.34a16.31,16.31,0,0,1-2.45,2.16,8.36,8.36,0,0,0-2.38.19c-1.07.36-1.71,3.9-.92,5.59a24.4,24.4,0,0,0,3.06,4.22s2-2.61,1.89-3.69,1.58-2,1.56-3-2.49-3.24-2.49-3.24a21.57,21.57,0,0,1,1.76-1.83,23.33,23.33,0,0,1,2.73-.66Z" style="fill:#706116"/><path d="M108.32,163.28a9.82,9.82,0,0,0-2,0c-.76.11-1.32,3.27-1.32,3.27l2.67-.71-2.65,1s.31,1.18.44,1.44a8.77,8.77,0,0,0,.5.78l1.79-1.51-1.54,1.87,1.72,2.43s.09-3.61.12-3.94,1.52,1.19,1.52,1.19a10.3,10.3,0,0,1-1.41-1.86,9,9,0,0,1,.22-1.38l2,1.54s-1.93-1.54-1.89-1.76.25-1.66.25-1.66l1.56,2.44s-1.18-2.42-1.42-2.72A1.59,1.59,0,0,0,108.32,163.28Z" style="fill:#89791d;opacity:0.31;mix-blend-mode:multiply"/><path d="M93.44,172.5c.58-.5.65-1.63.73-1.88,0,0,.14-.07.33-.1s.86-.12,1.46-.19h0l.47-.06.17,0c1.46-.19,3.08-.5,3.28-1.11a18.14,18.14,0,0,0,.14-4.4,6.49,6.49,0,0,0-.37-1.31.78.78,0,0,0-.05-.14,2.76,2.76,0,0,0-1.89-1.83,23.1,23.1,0,0,0-5.53.27c-.76.05,0-2.38-.63-2.34a1.47,1.47,0,0,0-.67.35h0a5.4,5.4,0,0,0-.81.75c-.84.94-2.2,1.26-2.45,2.9-.41,2.84,2.64,4.71,2.64,4.71s-1.39,1.45-.69,2.23S92.86,173,93.44,172.5Z" style="fill:#6c20cd"/><path d="M88.66,164s3.9-2.93,4,1.31-.18,5.71-1.13,5.32-.88-2.42-.88-2.42l.7,0-.33.52s.26.61.48.52a13.56,13.56,0,0,0,.8-3.91c-.07-.52-2.9-.82-3.1-.55s.58,2.34.58,2.34S88.45,164.63,88.66,164Z" style="fill:#6c20cd;opacity:0.79;mix-blend-mode:multiply"/><path d="M91.05,171.57a7,7,0,0,0,1.87.23c.4-.11-.11-5.72.75-6.74a4.4,4.4,0,0,1,2.43-1.23s-2.17,1.43-2.21,1.91.86,4.79.59,6.14,0,.48-.64.92S91.05,171.57,91.05,171.57Z" style="fill:#6c20cd;opacity:0.79;mix-blend-mode:multiply"/><path d="M99.88,169.14a18.14,18.14,0,0,0,.14-4.4,6.49,6.49,0,0,0-.37-1.31,14.28,14.28,0,0,0-1.67-.11c-.59,0-3.4,2.32-3.75,2.79s.27,4.41.27,4.41l1.46-.19h0l.47-.06.17,0C98.06,170.06,99.68,169.75,99.88,169.14Z" style="fill:#6c20cd;opacity:0.79;mix-blend-mode:multiply"/><path d="M99.6,163.29a2.76,2.76,0,0,0-1.89-1.83,23.1,23.1,0,0,0-5.53.27c-.76.05,0-2.38-.63-2.34a1.47,1.47,0,0,0-.67.35c.2-.13.39-.19.53-.09.39.29-.63,2.22-.33,2.65s5-1,5.92-.86C97.7,161.52,99,162.67,99.6,163.29Z" style="fill:#6c20cd;opacity:0.79;mix-blend-mode:multiply"/><path d="M92.09,163.16a24.88,24.88,0,0,0,2.54.34,21,21,0,0,0,2.78-.4s-2.68,1.1-3.08,1.22a8.1,8.1,0,0,1-1.66,0Z" style="fill:#6c20cd;opacity:0.79;mix-blend-mode:multiply"/><path d="M90.63,166.78s-.46-1.53-.11-1.64a5.82,5.82,0,0,1,1.7.23s-1.25.27-1.34.61S90.63,166.78,90.63,166.78Z" style="fill:#6c20cd;opacity:0.79;mix-blend-mode:multiply"/><path d="M92,166.49s-.5,1.52-.86,1.41-1.25-1.16-1.25-1.16,1.17.49,1.44.27S92,166.49,92,166.49Z" style="fill:#6c20cd;opacity:0.79;mix-blend-mode:multiply"/><path d="M101.06,160.18s-3,2-2.7,2.72a14.13,14.13,0,0,0,1.63,2.15,8.44,8.44,0,0,0-.93,2.7c.1.68,1,3.49,1,3.49s-.74-3-.48-3.34a5.6,5.6,0,0,1,1.43-1.37c.37-.13,1,.17,1.67-.24a3.44,3.44,0,0,0,1.09-1s13.3-2.77,16.37-3,30.68,1.3,30.68,1.3l3.15-1.23s-32-1.19-34-1.06-15.54,3.41-16.33,3.29-1.23-1.06-1.92-1l-2,.29s-1-.87-.93-1.11A32,32,0,0,1,101.06,160.18Z" style="fill:#665f0a"/><path d="M116.61,162.81s-2.65,3.1-3.24,3.26a11.68,11.68,0,0,0-3.34.48c-1.46.6-2,5.64-.79,7.93a34.05,34.05,0,0,0,4.69,5.67s2.62-3.86,2.32-5.36,2-3,1.94-4.31-3.8-4.33-3.8-4.33a31.66,31.66,0,0,1,2.31-2.73,33.58,33.58,0,0,1,3.78-1.16Z" style="fill:#89791d"/><path d="M113.14,167.19a13.87,13.87,0,0,0-2.76.16c-1,.23-1.56,4.72-1.56,4.72l3.69-1.23-3.63,1.68s.55,1.63.75,2a12.25,12.25,0,0,0,.77,1.05l2.38-2.28-2,2.77,2.64,3.26s-.19-5.08-.18-5.55,2.23,1.54,2.23,1.54a14.32,14.32,0,0,1-2.13-2.48,11.23,11.23,0,0,1,.18-2l2.91,2s-2.84-2-2.8-2.31.2-2.35.2-2.35l2.41,3.29s-1.87-3.29-2.24-3.7A2.23,2.23,0,0,0,113.14,167.19Z" style="fill:#89791d;opacity:0.29;mix-blend-mode:multiply"/><path d="M97.4,156.71s-1.59.55-1.8,1.11-.83,2.83-.49,3a18.61,18.61,0,0,0,2.89.32s-2.17-.89-2.12-1.33.13-1.81.44-1.92,1.58-.4,1.58-.4l1.12.41,2.15-.34s20.77,6.05,27.87,7.14,26.16,2.94,26.16,2.94l-2.78-2.5s-19-1-23.61-1.63-27.24-6.93-27.24-6.93a5.81,5.81,0,0,0-.83-1c-.27-.17-1.51-.82-1.51-.82a16.27,16.27,0,0,1-.07-2c0-.51,1.4-.14,1.4-.14s-1.17-1.07-2-.72-.92,2.23-.92,2.23l.82,1.11s-.86-.75-1.48-.46-2,.8-2,.8a7.25,7.25,0,0,1,1.92-.22C97.39,155.47,97.4,156.71,97.4,156.71Z" style="fill:#8e7713"/><path d="M86.47,158.77h0c.71.17,3-1.62,3.33-1.59s2.9,2.09,4.2,1.6A17.85,17.85,0,0,0,97.76,156a4.11,4.11,0,0,0,.24-.39,5.44,5.44,0,0,0-.73-5.49c-1.33-1.67-4.22-1.81-4.87-2.39s-.44-2.34-1.15-2.19a13.22,13.22,0,0,0-2.09.88h0a12.44,12.44,0,0,0-2.79,1.66c-.43.59-.17,3.25-.17,3.25s-2.74,3.09-2.5,3.69S85.79,158.55,86.47,158.77Z" style="fill:#6c20cd"/><path d="M96.66,154.73a31,31,0,0,1-4.44-4.82c-1.33-1.67.83-1.59.18-2.17s-.44-2.34-1.15-2.19a13.2,13.2,0,0,0-2.1.88s2-.82,2.22-.48-.52,2.45.12,3.8C92,150.8,94.87,153.31,96.66,154.73Z" style="fill:#6c20cd;opacity:0.79;mix-blend-mode:multiply"/><path d="M86.49,158.78c.71.17,3-1.62,3.33-1.59s2.9,2.09,4.2,1.6A17.85,17.85,0,0,0,97.76,156s-4.8,2.12-5.4-3.64c0-.51-2.91,2-2.88,2.58a3.38,3.38,0,0,1-.79,2.2C88.26,157.54,86.82,158.54,86.49,158.78Z" style="fill:#6c20cd;opacity:0.79;mix-blend-mode:multiply"/><path d="M87.05,151a1.6,1.6,0,0,1,.38-1.4,2.4,2.4,0,0,1,2-.53c.56.17,1,2.41.95,2.66s-3,3.61-3.9,3.32-.45-1.19-.52-1.72,2.37-3.19,2.88-2.89-.46,2-.46,2l.74-.74a3.92,3.92,0,0,0,.18-1.44c-.12-.5-3.68,1.47-4,2.91a2.23,2.23,0,0,0,1.08,2.78c.9.49,4.27-4.1,4.27-4.1s.24-3-.63-3.72-3.1.64-3.11,1.18A12.63,12.63,0,0,0,87.05,151Z" style="fill:#6c20cd"/><path d="M88.35,151.32s-1.66.66-1.87,1.44a1.82,1.82,0,0,0,.41,1.72c.27.24,3.11-2.95,3.11-2.95s-2.29,2-2.59,1.38S88.35,151.32,88.35,151.32Z" style="fill:#6c20cd;opacity:0.79;mix-blend-mode:multiply"/><path d="M84.61,153.27s-.74,1.34-.57,1.69a13.18,13.18,0,0,0,2.1,1.57l.37,1.11.09-1.09a22.7,22.7,0,0,0,2.17-1.46c.49-.44,2.7-3,2.7-3s-2.3,2.7-2.44,3.07.12,1.07-.17,1.5a17.25,17.25,0,0,1-2.46,1.78s-2.74-3-2.71-3.38a10.2,10.2,0,0,1,1-1.86Z" style="fill:#6c20cd"/><path d="M88,159.79s-1.41-.92-1.48-1.52-.11-2.94.27-3a18.47,18.47,0,0,1,2.87.39s-2.31.34-2.37.77-.32,1.79,0,2,1.43.78,1.43.78l1.19-.13,2,.85s21.62-.81,28.77-.14,26.09,3.52,26.09,3.52L143.41,165s-18.67-3.69-23.29-4.17-28.11.09-28.11.09a5.72,5.72,0,0,1-1.06.81c-.31.1-1.67.43-1.67.43a17.53,17.53,0,0,0-.55,1.9c-.06.5,1.33.47,1.33.47s-1.39.76-2.07.23-.35-2.38-.35-2.38l1.07-.88s-1,.52-1.54.08-1.74-1.26-1.74-1.26a7.38,7.38,0,0,0,1.81.69C87.68,161,88,159.79,88,159.79Z" style="fill:#9e8920"/><path d="M81.17,170h0c.68-.24,1.56-3,1.87-3.17s3.57.11,4.38-1a17.89,17.89,0,0,0,1.55-4.4,3.4,3.4,0,0,0,0-.45,5.43,5.43,0,0,0-3.67-4.15c-2-.64-4.5.86-5.37.74s-1.67-1.69-2.18-1.17a13.15,13.15,0,0,0-1.24,1.9h0a12.21,12.21,0,0,0-1.38,2.93c0,.73,1.67,2.79,1.67,2.79s-.55,4.09,0,4.46S80.48,170.19,81.17,170Z" style="fill:#6c20cd"/><path d="M87.36,161A31.16,31.16,0,0,1,81,159.43c-2-.64-.19-1.78-1.06-1.9s-1.67-1.69-2.18-1.17a14.16,14.16,0,0,0-1.25,1.91c0-.05,1.24-1.84,1.58-1.65s.93,2.32,2.22,3.08C81.3,160.3,85.08,160.78,87.36,161Z" style="fill:#6c20cd;opacity:0.79;mix-blend-mode:multiply"/><path d="M81.19,170c.68-.24,1.56-3,1.87-3.17s3.57.11,4.38-1a17.89,17.89,0,0,0,1.55-4.4s-2.8,4.45-6.51,0c-.33-.4-1.32,3.26-1,3.75a3.42,3.42,0,0,1,.57,2.27C82,168,81.34,169.61,81.19,170Z" style="fill:#6c20cd;opacity:0.79;mix-blend-mode:multiply"/><path d="M77.28,163.19a1.62,1.62,0,0,1-.47-1.38,2.4,2.4,0,0,1,1.34-1.54c.56-.17,2.19,1.42,2.27,1.67s-.51,4.7-1.38,4.94-1-.74-1.39-1.14.18-4,.78-4,.75,2,.75,2l.2-1a3.81,3.81,0,0,0-.66-1.29c-.37-.35-2.23,3.27-1.7,4.65a2.24,2.24,0,0,0,2.45,1.7c1-.1,1.26-5.79,1.26-5.79s-1.49-2.64-2.61-2.73-2.21,2.26-1.92,2.72A13.07,13.07,0,0,0,77.28,163.19Z" style="fill:#6c20cd;opacity:0.79;mix-blend-mode:multiply"/><path d="M78.56,162.76s-1,1.48-.74,2.24a1.81,1.81,0,0,0,1.3,1.2c.36.05.93-4.19.93-4.19s-.77,3-1.37,2.6S78.56,162.76,78.56,162.76Z" style="fill:#6c20cd;opacity:0.79;mix-blend-mode:multiply"/><path d="M76.55,166.47s.13,1.53.47,1.72a13.17,13.17,0,0,0,2.62.13l.93.71-.53-.95a24.91,24.91,0,0,0,1-2.42c.16-.64.54-4,.54-4s-.4,3.53-.3,3.91.69.83.69,1.34a16.61,16.61,0,0,1-1,2.86s-4-1-4.14-1.29a10,10,0,0,1-.21-2.1Z" style="fill:#6c20cd;opacity:0.79;mix-blend-mode:multiply"/><path d="M170.25,72.11c0,12-1.64,16-10,16s-15.81-5.25-15.81-17.25,8.46-18.75,16.81-18.75S170.25,60.11,170.25,72.11Z" style="mix-blend-mode:screen;fill:url(#radial-gradient-3)"/><path d="M154.25,75.11c-3.62,9.65-1.87,9-10,6-5.7-2.11-12.57-2.32-9-12s17.89-17,26-14S157.88,65.47,154.25,75.11Z" style="mix-blend-mode:screen;fill:url(#radial-gradient-4)"/></g></g></g></svg>