<svg xmlns="http://www.w3.org/2000/svg" xmlns:xlink="http://www.w3.org/1999/xlink" viewBox="0 0 1920 1080"><defs><style>.cls-1,.cls-2{fill:none;}.cls-2{clip-rule:evenodd;}.cls-3{isolation:isolate;}.cls-4{clip-path:url(#clip-path);}.cls-5{fill:url(#_ÂÁ_Ï_ÌÌ_È_ËÂÌÚ_351);}.cls-10,.cls-100,.cls-101,.cls-102,.cls-103,.cls-104,.cls-105,.cls-106,.cls-107,.cls-108,.cls-109,.cls-11,.cls-110,.cls-111,.cls-112,.cls-113,.cls-114,.cls-115,.cls-116,.cls-117,.cls-118,.cls-119,.cls-12,.cls-120,.cls-121,.cls-122,.cls-123,.cls-124,.cls-125,.cls-126,.cls-127,.cls-128,.cls-129,.cls-13,.cls-130,.cls-131,.cls-132,.cls-133,.cls-134,.cls-135,.cls-136,.cls-137,.cls-138,.cls-139,.cls-14,.cls-140,.cls-141,.cls-142,.cls-143,.cls-144,.cls-145,.cls-146,.cls-147,.cls-148,.cls-149,.cls-15,.cls-150,.cls-151,.cls-152,.cls-153,.cls-154,.cls-155,.cls-156,.cls-157,.cls-158,.cls-159,.cls-16,.cls-160,.cls-161,.cls-162,.cls-163,.cls-17,.cls-18,.cls-19,.cls-20,.cls-21,.cls-22,.cls-23,.cls-24,.cls-25,.cls-26,.cls-27,.cls-28,.cls-29,.cls-30,.cls-31,.cls-32,.cls-33,.cls-34,.cls-35,.cls-36,.cls-37,.cls-38,.cls-39,.cls-40,.cls-41,.cls-42,.cls-43,.cls-44,.cls-55,.cls-58,.cls-6,.cls-7,.cls-70,.cls-72,.cls-73,.cls-74,.cls-75,.cls-76,.cls-77,.cls-78,.cls-79,.cls-8,.cls-80,.cls-81,.cls-82,.cls-83,.cls-84,.cls-85,.cls-86,.cls-87,.cls-88,.cls-89,.cls-9,.cls-90,.cls-91,.cls-92,.cls-93,.cls-94,.cls-95,.cls-96,.cls-97,.cls-98,.cls-99{fill-rule:evenodd;}.cls-10,.cls-100,.cls-11,.cls-119,.cls-12,.cls-120,.cls-124,.cls-126,.cls-127,.cls-13,.cls-132,.cls-136,.cls-14,.cls-143,.cls-144,.cls-15,.cls-153,.cls-159,.cls-16,.cls-17,.cls-20,.cls-21,.cls-22,.cls-23,.cls-24,.cls-25,.cls-26,.cls-40,.cls-41,.cls-44,.cls-55,.cls-58,.cls-6,.cls-76,.cls-77,.cls-80,.cls-81,.cls-82,.cls-9,.cls-91,.cls-92,.cls-93,.cls-94,.cls-95,.cls-96,.cls-97,.cls-98,.cls-99{mix-blend-mode:multiply;}.cls-10,.cls-11,.cls-119,.cls-12,.cls-123,.cls-124,.cls-126,.cls-127,.cls-13,.cls-136,.cls-14,.cls-15,.cls-16,.cls-17,.cls-20,.cls-21,.cls-23,.cls-24,.cls-25,.cls-26,.cls-40,.cls-41,.cls-44,.cls-55,.cls-58,.cls-6,.cls-76,.cls-77,.cls-78,.cls-80,.cls-81,.cls-82,.cls-9{opacity:0.6;}.cls-6{fill:url(#_ÂÁ_Ï_ÌÌ_È_ËÂÌÚ_161);}.cls-7{fill:#2e184d;}.cls-8{fill:url(#_ÂÁ_Ï_ÌÌ_È_ËÂÌÚ_219);}.cls-9{fill:url(#_ÂÁ_Ï_ÌÌ_È_ËÂÌÚ_150);}.cls-10{fill:url(#_ÂÁ_Ï_ÌÌ_È_ËÂÌÚ_150-2);}.cls-11{fill:url(#_ÂÁ_Ï_ÌÌ_È_ËÂÌÚ_150-3);}.cls-12{fill:url(#_ÂÁ_Ï_ÌÌ_È_ËÂÌÚ_150-4);}.cls-13{fill:url(#_ÂÁ_Ï_ÌÌ_È_ËÂÌÚ_150-5);}.cls-14{fill:url(#_ÂÁ_Ï_ÌÌ_È_ËÂÌÚ_150-6);}.cls-15{fill:url(#_ÂÁ_Ï_ÌÌ_È_ËÂÌÚ_150-7);}.cls-16{fill:url(#_ÂÁ_Ï_ÌÌ_È_ËÂÌÚ_150-8);}.cls-17{fill:url(#_ÂÁ_Ï_ÌÌ_È_ËÂÌÚ_150-9);}.cls-18{fill:url(#_ÂÁ_Ï_ÌÌ_È_ËÂÌÚ_150-10);}.cls-19{fill:url(#_ÂÁ_Ï_ÌÌ_È_ËÂÌÚ_202);}.cls-20{fill:url(#_ÂÁ_Ï_ÌÌ_È_ËÂÌÚ_150-11);}.cls-21{fill:url(#_ÂÁ_Ï_ÌÌ_È_ËÂÌÚ_150-12);}.cls-22{fill:#573b51;}.cls-23{fill:url(#_ÂÁ_Ï_ÌÌ_È_ËÂÌÚ_150-13);}.cls-24{fill:url(#_ÂÁ_Ï_ÌÌ_È_ËÂÌÚ_150-14);}.cls-25{fill:url(#_ÂÁ_Ï_ÌÌ_È_ËÂÌÚ_150-15);}.cls-26{fill:url(#_ÂÁ_Ï_ÌÌ_È_ËÂÌÚ_150-16);}.cls-27{fill:#ffd6a1;}.cls-125,.cls-128,.cls-133,.cls-137,.cls-138,.cls-27,.cls-28,.cls-53,.cls-56{mix-blend-mode:soft-light;}.cls-128,.cls-27{opacity:0.81;}.cls-28{fill:#ff5e54;}.cls-125,.cls-28{opacity:0.3;}.cls-29{fill:url(#_ÂÁ_Ï_ÌÌ_È_ËÂÌÚ_491);}.cls-139,.cls-140,.cls-164,.cls-165,.cls-166,.cls-167,.cls-168,.cls-169,.cls-170,.cls-171,.cls-30,.cls-31,.cls-32,.cls-33,.cls-34,.cls-35,.cls-36,.cls-37,.cls-38,.cls-39,.cls-68,.cls-69,.cls-70,.cls-71{mix-blend-mode:screen;}.cls-30,.cls-31,.cls-32,.cls-33,.cls-34,.cls-35,.cls-36,.cls-37,.cls-38,.cls-39,.cls-68,.cls-69{opacity:0.5;}.cls-30{fill:url(#_ÂÁ_Ï_ÌÌ_È_ËÂÌÚ_240);}.cls-31{fill:url(#_ÂÁ_Ï_ÌÌ_È_ËÂÌÚ_240-2);}.cls-32{fill:url(#_ÂÁ_Ï_ÌÌ_È_ËÂÌÚ_240-3);}.cls-33{fill:url(#_ÂÁ_Ï_ÌÌ_È_ËÂÌÚ_240-4);}.cls-34{fill:url(#_ÂÁ_Ï_ÌÌ_È_ËÂÌÚ_240-5);}.cls-35{fill:url(#_ÂÁ_Ï_ÌÌ_È_ËÂÌÚ_240-6);}.cls-36{fill:url(#_ÂÁ_Ï_ÌÌ_È_ËÂÌÚ_240-7);}.cls-37{fill:url(#_ÂÁ_Ï_ÌÌ_È_ËÂÌÚ_240-8);}.cls-38{fill:url(#_ÂÁ_Ï_ÌÌ_È_ËÂÌÚ_240-9);}.cls-39{fill:url(#_ÂÁ_Ï_ÌÌ_È_ËÂÌÚ_240-10);}.cls-40{fill:url(#_ÂÁ_Ï_ÌÌ_È_ËÂÌÚ_249);}.cls-41{fill:url(#_ÂÁ_Ï_ÌÌ_È_ËÂÌÚ_249-2);}.cls-42{fill:#614a93;}.cls-43{fill:#7a81d7;}.cls-44{fill:url(#_ÂÁ_Ï_ÌÌ_È_ËÂÌÚ_150-17);}.cls-45{fill:url(#_ÂÁ_Ï_ÌÌ_È_ËÂÌÚ_528);}.cls-46{fill:url(#_ÂÁ_Ï_ÌÌ_È_ËÂÌÚ_528-2);}.cls-47{fill:url(#_ÂÁ_Ï_ÌÌ_È_ËÂÌÚ_528-3);}.cls-48{fill:url(#_ÂÁ_Ï_ÌÌ_È_ËÂÌÚ_528-4);}.cls-49{fill:url(#_ÂÁ_Ï_ÌÌ_È_ËÂÌÚ_528-5);}.cls-50{fill:url(#_ÂÁ_Ï_ÌÌ_È_ËÂÌÚ_528-6);}.cls-51{fill:url(#_ÂÁ_Ï_ÌÌ_È_ËÂÌÚ_528-7);}.cls-52{fill:url(#_ÂÁ_Ï_ÌÌ_È_ËÂÌÚ_528-8);}.cls-53{fill:url(#_ÂÁ_Ï_ÌÌ_È_ËÂÌÚ_528-9);}.cls-54{fill:url(#_ÂÁ_Ï_ÌÌ_È_ËÂÌÚ_528-10);}.cls-55{fill:url(#_ÂÁ_Ï_ÌÌ_È_ËÂÌÚ_251);}.cls-57{fill:#dbbbd0;}.cls-58{fill:#68255b;}.cls-59{clip-path:url(#clip-path-2);}.cls-60{fill:url(#_ÂÁ_Ï_ÌÌ_È_ËÂÌÚ_55);}.cls-61{fill:url(#_ÂÁ_Ï_ÌÌ_È_ËÂÌÚ_47);}.cls-62{fill:url(#_ÂÁ_Ï_ÌÌ_È_ËÂÌÚ_47-2);}.cls-63{fill:url(#_ÂÁ_Ï_ÌÌ_È_ËÂÌÚ_47-3);}.cls-64{fill:url(#_ÂÁ_Ï_ÌÌ_È_ËÂÌÚ_55-2);}.cls-65{fill:url(#_ÂÁ_Ï_ÌÌ_È_ËÂÌÚ_47-4);}.cls-66{fill:url(#_ÂÁ_Ï_ÌÌ_È_ËÂÌÚ_47-5);}.cls-67{opacity:0.75;}.cls-68{fill:url(#_ÂÁ_Ï_ÌÌ_È_ËÂÌÚ_386);}.cls-69{fill:url(#_ÂÁ_Ï_ÌÌ_È_ËÂÌÚ_385);}.cls-70{opacity:0.71;fill:url(#_ÂÁ_Ï_ÌÌ_È_ËÂÌÚ_412);}.cls-71{fill:url(#linear-gradient);}.cls-72{fill:#6e2020;}.cls-73{fill:url(#linear-gradient-2);}.cls-74{fill:url(#linear-gradient-3);}.cls-75{fill:url(#linear-gradient-4);}.cls-76{fill:url(#_ÂÁ_Ï_ÌÌ_È_ËÂÌÚ_268);}.cls-77{fill:url(#_ÂÁ_Ï_ÌÌ_È_ËÂÌÚ_268-2);}.cls-78{fill:#cf4949;}.cls-123,.cls-78{mix-blend-mode:color-dodge;}.cls-79{fill:url(#linear-gradient-5);}.cls-80{fill:url(#_ÂÁ_Ï_ÌÌ_È_ËÂÌÚ_150-18);}.cls-81{fill:url(#_ÂÁ_Ï_ÌÌ_È_ËÂÌÚ_150-19);}.cls-82{fill:url(#_ÂÁ_Ï_ÌÌ_È_ËÂÌÚ_150-20);}.cls-83{fill:url(#linear-gradient-6);}.cls-84{fill:url(#linear-gradient-7);}.cls-85{fill:url(#linear-gradient-8);}.cls-86{fill:url(#linear-gradient-9);}.cls-87{fill:url(#linear-gradient-10);}.cls-88{fill:url(#linear-gradient-11);}.cls-89{fill:url(#linear-gradient-12);}.cls-90{fill:url(#linear-gradient-13);}.cls-100,.cls-143,.cls-144,.cls-153,.cls-159,.cls-91,.cls-92,.cls-93,.cls-94,.cls-95,.cls-96,.cls-97,.cls-98,.cls-99{opacity:0.97;}.cls-91{fill:url(#_ÂÁ_Ï_ÌÌ_È_ËÂÌÚ_278);}.cls-92{fill:url(#_ÂÁ_Ï_ÌÌ_È_ËÂÌÚ_278-2);}.cls-93{fill:url(#_ÂÁ_Ï_ÌÌ_È_ËÂÌÚ_278-3);}.cls-94{fill:url(#_ÂÁ_Ï_ÌÌ_È_ËÂÌÚ_278-4);}.cls-95{fill:url(#_ÂÁ_Ï_ÌÌ_È_ËÂÌÚ_278-5);}.cls-96{fill:url(#_ÂÁ_Ï_ÌÌ_È_ËÂÌÚ_278-6);}.cls-97{fill:url(#_ÂÁ_Ï_ÌÌ_È_ËÂÌÚ_278-7);}.cls-98{fill:url(#_ÂÁ_Ï_ÌÌ_È_ËÂÌÚ_278-8);}.cls-99{fill:url(#_ÂÁ_Ï_ÌÌ_È_ËÂÌÚ_278-9);}.cls-100{fill:url(#_ÂÁ_Ï_ÌÌ_È_ËÂÌÚ_278-10);}.cls-101{fill:url(#_ÂÁ_Ï_ÌÌ_È_ËÂÌÚ_611);}.cls-102{fill:url(#_ÂÁ_Ï_ÌÌ_È_ËÂÌÚ_611-2);}.cls-103{fill:url(#_ÂÁ_Ï_ÌÌ_È_ËÂÌÚ_611-3);}.cls-104{fill:url(#_ÂÁ_Ï_ÌÌ_È_ËÂÌÚ_611-4);}.cls-105{fill:url(#_ÂÁ_Ï_ÌÌ_È_ËÂÌÚ_611-5);}.cls-106{fill:url(#_ÂÁ_Ï_ÌÌ_È_ËÂÌÚ_611-6);}.cls-107{fill:url(#_ÂÁ_Ï_ÌÌ_È_ËÂÌÚ_611-7);}.cls-108{fill:url(#_ÂÁ_Ï_ÌÌ_È_ËÂÌÚ_611-8);}.cls-109{fill:url(#_ÂÁ_Ï_ÌÌ_È_ËÂÌÚ_611-9);}.cls-110{fill:url(#_ÂÁ_Ï_ÌÌ_È_ËÂÌÚ_611-10);}.cls-111{fill:url(#_ÂÁ_Ï_ÌÌ_È_ËÂÌÚ_611-11);}.cls-112{fill:url(#_ÂÁ_Ï_ÌÌ_È_ËÂÌÚ_611-12);}.cls-113{fill:url(#_ÂÁ_Ï_ÌÌ_È_ËÂÌÚ_611-13);}.cls-114{fill:url(#_ÂÁ_Ï_ÌÌ_È_ËÂÌÚ_611-14);}.cls-115{fill:url(#_ÂÁ_Ï_ÌÌ_È_ËÂÌÚ_611-15);}.cls-116{fill:url(#_ÂÁ_Ï_ÌÌ_È_ËÂÌÚ_611-16);}.cls-117{fill:url(#_ÂÁ_Ï_ÌÌ_È_ËÂÌÚ_616);}.cls-118{fill:url(#_ÂÁ_Ï_ÌÌ_È_ËÂÌÚ_339);}.cls-119{fill:url(#_ÂÁ_Ï_ÌÌ_È_ËÂÌÚ_150-21);}.cls-120{fill:#432551;}.cls-121{fill:url(#linear-gradient-14);}.cls-122{fill:#ffd04f;}.cls-123{fill:url(#linear-gradient-15);}.cls-124{fill:url(#_ÂÁ_Ï_ÌÌ_È_ËÂÌÚ_161-2);}.cls-125{fill:#a15e54;}.cls-126{fill:url(#_ÂÁ_Ï_ÌÌ_È_ËÂÌÚ_161-3);}.cls-127{fill:url(#_ÂÁ_Ï_ÌÌ_È_ËÂÌÚ_161-4);}.cls-128{fill:#ffd672;}.cls-129{fill:#ffce3f;}.cls-130{fill:url(#linear-gradient-16);}.cls-131{fill:#471c1c;}.cls-132,.cls-136{fill:#6e1717;}.cls-133{fill:#97767c;}.cls-134{fill:url(#linear-gradient-17);}.cls-135{fill:url(#linear-gradient-18);}.cls-137{fill:#9f6e79;}.cls-138{fill:#ae7f8a;}.cls-139{fill:#ffb368;}.cls-139,.cls-140{opacity:0.35;}.cls-140{fill:#b33c1e;}.cls-141{fill:url(#linear-gradient-19);}.cls-142{fill:url(#linear-gradient-20);}.cls-143{fill:url(#_ÂÁ_Ï_ÌÌ_È_ËÂÌÚ_278-11);}.cls-144{fill:url(#_ÂÁ_Ï_ÌÌ_È_ËÂÌÚ_278-12);}.cls-145{fill:url(#linear-gradient-21);}.cls-146{fill:url(#linear-gradient-22);}.cls-147{fill:url(#linear-gradient-23);}.cls-148{fill:url(#linear-gradient-24);}.cls-149{fill:url(#linear-gradient-25);}.cls-150{fill:url(#linear-gradient-26);}.cls-151{fill:url(#linear-gradient-27);}.cls-152{fill:url(#linear-gradient-28);}.cls-153{fill:url(#_ÂÁ_Ï_ÌÌ_È_ËÂÌÚ_278-13);}.cls-154{fill:url(#linear-gradient-29);}.cls-155{fill:url(#_ÂÁ_Ï_ÌÌ_È_ËÂÌÚ_611-17);}.cls-156{fill:url(#_ÂÁ_Ï_ÌÌ_È_ËÂÌÚ_611-18);}.cls-157{fill:url(#_ÂÁ_Ï_ÌÌ_È_ËÂÌÚ_611-19);}.cls-158{fill:url(#linear-gradient-30);}.cls-159{fill:url(#_ÂÁ_Ï_ÌÌ_È_ËÂÌÚ_278-14);}.cls-160{fill:url(#_ÂÁ_Ï_ÌÌ_È_ËÂÌÚ_611-20);}.cls-161{fill:url(#_ÂÁ_Ï_ÌÌ_È_ËÂÌÚ_611-21);}.cls-162{fill:url(#_ÂÁ_Ï_ÌÌ_È_ËÂÌÚ_611-22);}.cls-163{fill:url(#_ÂÁ_Ï_ÌÌ_È_ËÂÌÚ_611-23);}.cls-164,.cls-165,.cls-166,.cls-167,.cls-168,.cls-169,.cls-170,.cls-171{opacity:0.57;}.cls-164{fill:url(#_ÂÁ_Ï_ÌÌ_È_ËÂÌÚ_187);}.cls-165{fill:url(#_ÂÁ_Ï_ÌÌ_È_ËÂÌÚ_187-2);}.cls-166{fill:url(#_ÂÁ_Ï_ÌÌ_È_ËÂÌÚ_187-3);}.cls-167{fill:url(#_ÂÁ_Ï_ÌÌ_È_ËÂÌÚ_187-4);}.cls-168{fill:url(#_ÂÁ_Ï_ÌÌ_È_ËÂÌÚ_187-5);}.cls-169{fill:url(#_ÂÁ_Ï_ÌÌ_È_ËÂÌÚ_187-6);}.cls-170{fill:url(#_ÂÁ_Ï_ÌÌ_È_ËÂÌÚ_187-7);}.cls-171{fill:url(#_ÂÁ_Ï_ÌÌ_È_ËÂÌÚ_187-8);}</style><clipPath id="clip-path"><rect class="cls-1" x="-780" width="2700" height="1080"/></clipPath><linearGradient id="_ÂÁ_Ï_ÌÌ_È_ËÂÌÚ_351" x1="873.69" y1="770.62" x2="873.69" gradientUnits="userSpaceOnUse"><stop offset="0" stop-color="#1f0c18"/><stop offset="1" stop-color="#12071b"/></linearGradient><linearGradient id="_ÂÁ_Ï_ÌÌ_È_ËÂÌÚ_161" x1="1131.35" y1="631.18" x2="1131.35" gradientUnits="userSpaceOnUse"><stop offset="0" stop-color="#c1acb9"/><stop offset="1" stop-color="#775477"/></linearGradient><linearGradient id="_ÂÁ_Ï_ÌÌ_È_ËÂÌÚ_219" x1="568.09" y1="647.8" x2="568.09" y2="0" xlink:href="#_ÂÁ_Ï_ÌÌ_È_ËÂÌÚ_351"/><linearGradient id="_ÂÁ_Ï_ÌÌ_È_ËÂÌÚ_150" x1="723.33" y1="647.8" x2="723.33" gradientUnits="userSpaceOnUse"><stop offset="0" stop-color="#9d7c90"/><stop offset="1" stop-color="#775477"/></linearGradient><linearGradient id="_ÂÁ_Ï_ÌÌ_È_ËÂÌÚ_150-2" x1="528.88" y1="606.36" x2="528.88" y2="359.44" xlink:href="#_ÂÁ_Ï_ÌÌ_È_ËÂÌÚ_150"/><linearGradient id="_ÂÁ_Ï_ÌÌ_È_ËÂÌÚ_150-3" x1="645.22" y1="368.66" x2="645.22" y2="0" xlink:href="#_ÂÁ_Ï_ÌÌ_È_ËÂÌÚ_150"/><linearGradient id="_ÂÁ_Ï_ÌÌ_È_ËÂÌÚ_150-4" x1="873.5" y1="223.7" x2="873.5" y2="121.96" xlink:href="#_ÂÁ_Ï_ÌÌ_È_ËÂÌÚ_150"/><linearGradient id="_ÂÁ_Ï_ÌÌ_È_ËÂÌÚ_150-5" x1="452.99" y1="647.8" x2="452.99" y2="591.53" xlink:href="#_ÂÁ_Ï_ÌÌ_È_ËÂÌÚ_150"/><linearGradient id="_ÂÁ_Ï_ÌÌ_È_ËÂÌÚ_150-6" x1="320.02" y1="647.8" x2="320.02" y2="540" xlink:href="#_ÂÁ_Ï_ÌÌ_È_ËÂÌÚ_150"/><linearGradient id="_ÂÁ_Ï_ÌÌ_È_ËÂÌÚ_150-7" x1="16.83" y1="647.8" x2="16.83" y2="-6.51" xlink:href="#_ÂÁ_Ï_ÌÌ_È_ËÂÌÚ_150"/><linearGradient id="_ÂÁ_Ï_ÌÌ_È_ËÂÌÚ_150-8" x1="545.47" y1="520.93" x2="545.47" y2="0" xlink:href="#_ÂÁ_Ï_ÌÌ_È_ËÂÌÚ_150"/><linearGradient id="_ÂÁ_Ï_ÌÌ_È_ËÂÌÚ_150-9" x1="659.38" y1="245.19" x2="659.38" y2="-6.51" xlink:href="#_ÂÁ_Ï_ÌÌ_È_ËÂÌÚ_150"/><linearGradient id="_ÂÁ_Ï_ÌÌ_È_ËÂÌÚ_150-10" x1="463.19" y1="647.8" x2="463.19" y2="68.18" xlink:href="#_ÂÁ_Ï_ÌÌ_È_ËÂÌÚ_150"/><linearGradient id="_ÂÁ_Ï_ÌÌ_È_ËÂÌÚ_202" x1="-255.12" y1="410.62" x2="767.32" y2="410.62" gradientUnits="userSpaceOnUse"><stop offset="0" stop-color="#341d2c"/><stop offset="1" stop-color="#3f1436"/></linearGradient><linearGradient id="_ÂÁ_Ï_ÌÌ_È_ËÂÌÚ_150-11" x1="400.93" y1="821.23" x2="400.93" y2="0" xlink:href="#_ÂÁ_Ï_ÌÌ_È_ËÂÌÚ_150"/><linearGradient id="_ÂÁ_Ï_ÌÌ_È_ËÂÌÚ_150-12" x1="-64.86" y1="806.9" x2="-64.86" y2="-2.07" xlink:href="#_ÂÁ_Ï_ÌÌ_È_ËÂÌÚ_150"/><linearGradient id="_ÂÁ_Ï_ÌÌ_È_ËÂÌÚ_150-13" x1="229.8" y1="821.23" x2="229.8" y2="482.9" xlink:href="#_ÂÁ_Ï_ÌÌ_È_ËÂÌÚ_150"/><linearGradient id="_ÂÁ_Ï_ÌÌ_È_ËÂÌÚ_150-14" x1="312.09" y1="821.23" x2="312.09" y2="528.69" xlink:href="#_ÂÁ_Ï_ÌÌ_È_ËÂÌÚ_150"/><linearGradient id="_ÂÁ_Ï_ÌÌ_È_ËÂÌÚ_150-15" x1="34.54" y1="658.21" x2="200.5" y2="658.21" xlink:href="#_ÂÁ_Ï_ÌÌ_È_ËÂÌÚ_150"/><linearGradient id="_ÂÁ_Ï_ÌÌ_È_ËÂÌÚ_150-16" x1="30.66" y1="633.47" x2="30.66" y2="409.91" xlink:href="#_ÂÁ_Ï_ÌÌ_È_ËÂÌÚ_150"/><radialGradient id="_ÂÁ_Ï_ÌÌ_È_ËÂÌÚ_491" cx="686.3" cy="12125.39" r="630.45" gradientTransform="translate(0 -4373.31) scale(1 0.43)" gradientUnits="userSpaceOnUse"><stop offset="0" stop-color="#db5e63"/><stop offset="0.65" stop-color="#3a207c"/><stop offset="1" stop-color="#20184d"/></radialGradient><linearGradient id="_ÂÁ_Ï_ÌÌ_È_ËÂÌÚ_240" x1="385.22" y1="858.06" x2="385.22" y2="800.29" gradientUnits="userSpaceOnUse"><stop offset="0.2"/><stop offset="1" stop-color="#3b5972"/></linearGradient><linearGradient id="_ÂÁ_Ï_ÌÌ_È_ËÂÌÚ_240-2" x1="272.3" y1="826.49" x2="272.3" y2="737.71" xlink:href="#_ÂÁ_Ï_ÌÌ_È_ËÂÌÚ_240"/><linearGradient id="_ÂÁ_Ï_ÌÌ_È_ËÂÌÚ_240-3" x1="280.11" y1="770.62" x2="280.11" y2="726.7" xlink:href="#_ÂÁ_Ï_ÌÌ_È_ËÂÌÚ_240"/><linearGradient id="_ÂÁ_Ï_ÌÌ_È_ËÂÌÚ_240-4" x1="628.57" y1="805.03" x2="628.57" y2="788.23" xlink:href="#_ÂÁ_Ï_ÌÌ_È_ËÂÌÚ_240"/><linearGradient id="_ÂÁ_Ï_ÌÌ_È_ËÂÌÚ_240-5" x1="88.34" y1="903.84" x2="88.34" y2="864.2" xlink:href="#_ÂÁ_Ï_ÌÌ_È_ËÂÌÚ_240"/><linearGradient id="_ÂÁ_Ï_ÌÌ_È_ËÂÌÚ_240-6" x1="323.24" y1="980.97" x2="323.24" y2="891.84" xlink:href="#_ÂÁ_Ï_ÌÌ_È_ËÂÌÚ_240"/><linearGradient id="_ÂÁ_Ï_ÌÌ_È_ËÂÌÚ_240-7" x1="744.22" y1="1080" x2="744.22" y2="913.27" xlink:href="#_ÂÁ_Ï_ÌÌ_È_ËÂÌÚ_240"/><linearGradient id="_ÂÁ_Ï_ÌÌ_È_ËÂÌÚ_240-8" x1="752.71" y1="921.13" x2="752.71" y2="890.12" xlink:href="#_ÂÁ_Ï_ÌÌ_È_ËÂÌÚ_240"/><linearGradient id="_ÂÁ_Ï_ÌÌ_È_ËÂÌÚ_240-9" x1="978.29" y1="898.72" x2="978.29" y2="886.95" xlink:href="#_ÂÁ_Ï_ÌÌ_È_ËÂÌÚ_240"/><linearGradient id="_ÂÁ_Ï_ÌÌ_È_ËÂÌÚ_240-10" x1="1081.85" y1="984.25" x2="1081.85" y2="923.5" xlink:href="#_ÂÁ_Ï_ÌÌ_È_ËÂÌÚ_240"/><linearGradient id="_ÂÁ_Ï_ÌÌ_È_ËÂÌÚ_249" x1="301.55" y1="1080" x2="301.55" y2="647.8" gradientUnits="userSpaceOnUse"><stop offset="0" stop-color="#fff"/><stop offset="1" stop-color="#ab96ab"/></linearGradient><linearGradient id="_ÂÁ_Ï_ÌÌ_È_ËÂÌÚ_249-2" x1="121.31" x2="121.31" y2="718.4" xlink:href="#_ÂÁ_Ï_ÌÌ_È_ËÂÌÚ_249"/><linearGradient id="_ÂÁ_Ï_ÌÌ_È_ËÂÌÚ_150-17" x1="1115.6" y1="712.85" x2="1146.32" y2="554.84" xlink:href="#_ÂÁ_Ï_ÌÌ_È_ËÂÌÚ_150"/><radialGradient id="_ÂÁ_Ï_ÌÌ_È_ËÂÌÚ_528" cx="548.37" cy="792.58" r="372.69" gradientUnits="userSpaceOnUse"><stop offset="0" stop-color="#d67768"/><stop offset="0.45" stop-color="#a24f75"/><stop offset="0.81" stop-color="#7e347f"/><stop offset="1" stop-color="#702a82"/></radialGradient><radialGradient id="_ÂÁ_Ï_ÌÌ_È_ËÂÌÚ_528-2" cx="548.37" cy="792.58" r="372.69" xlink:href="#_ÂÁ_Ï_ÌÌ_È_ËÂÌÚ_528"/><radialGradient id="_ÂÁ_Ï_ÌÌ_È_ËÂÌÚ_528-3" cx="548.37" cy="792.58" r="372.69" xlink:href="#_ÂÁ_Ï_ÌÌ_È_ËÂÌÚ_528"/><radialGradient id="_ÂÁ_Ï_ÌÌ_È_ËÂÌÚ_528-4" cx="548.37" cy="792.58" r="372.69" xlink:href="#_ÂÁ_Ï_ÌÌ_È_ËÂÌÚ_528"/><radialGradient id="_ÂÁ_Ï_ÌÌ_È_ËÂÌÚ_528-5" cx="548.37" cy="792.58" r="372.69" xlink:href="#_ÂÁ_Ï_ÌÌ_È_ËÂÌÚ_528"/><radialGradient id="_ÂÁ_Ï_ÌÌ_È_ËÂÌÚ_528-6" cx="548.37" cy="792.58" r="372.69" xlink:href="#_ÂÁ_Ï_ÌÌ_È_ËÂÌÚ_528"/><radialGradient id="_ÂÁ_Ï_ÌÌ_È_ËÂÌÚ_528-7" cx="548.37" cy="792.58" r="372.69" xlink:href="#_ÂÁ_Ï_ÌÌ_È_ËÂÌÚ_528"/><radialGradient id="_ÂÁ_Ï_ÌÌ_È_ËÂÌÚ_528-8" cx="548.37" cy="792.58" r="372.69" xlink:href="#_ÂÁ_Ï_ÌÌ_È_ËÂÌÚ_528"/><radialGradient id="_ÂÁ_Ï_ÌÌ_È_ËÂÌÚ_528-9" cx="548.37" cy="792.58" r="372.69" xlink:href="#_ÂÁ_Ï_ÌÌ_È_ËÂÌÚ_528"/><radialGradient id="_ÂÁ_Ï_ÌÌ_È_ËÂÌÚ_528-10" cx="548.37" cy="792.58" r="372.69" xlink:href="#_ÂÁ_Ï_ÌÌ_È_ËÂÌÚ_528"/><linearGradient id="_ÂÁ_Ï_ÌÌ_È_ËÂÌÚ_251" x1="1046.24" y1="714.88" x2="1050.25" y2="694.26" gradientUnits="userSpaceOnUse"><stop offset="0" stop-color="#fff"/><stop offset="1" stop-color="#775477"/></linearGradient><clipPath id="clip-path-2"><path class="cls-2" d="M1558.93,635,692.44,611.53,752,642.17l.51,5.63H381.74l10.09,50.65,8.64,9.34L392,718.4l-541.39,12.11L-65,1080H856l103.68-95.75,345.16-55.93,50.46-10.45s-285.12-30.48-395.62-56.4l-6.14-18.29-46.38-4.9S765.28,811,657.85,782.35l-10.23-26.61,8.18-12.27,430.75-42-72.64-14.33,10.23-18.41,547-21Z"/></clipPath><linearGradient id="_ÂÁ_Ï_ÌÌ_È_ËÂÌÚ_55" x1="642.58" y1="542.59" x2="658.59" y2="1391.18" gradientUnits="userSpaceOnUse"><stop offset="0" stop-color="#ffab00"/><stop offset="0.99" stop-color="#ff0c00"/></linearGradient><linearGradient id="_ÂÁ_Ï_ÌÌ_È_ËÂÌÚ_47" x1="637.52" y1="1187.16" x2="537.49" y2="723.52" gradientUnits="userSpaceOnUse"><stop offset="0" stop-color="#ffbd00"/><stop offset="0.23" stop-color="#ffc200"/><stop offset="0.49" stop-color="#ffcf00"/><stop offset="0.76" stop-color="#ffe500"/><stop offset="1" stop-color="#ff0"/></linearGradient><linearGradient id="_ÂÁ_Ï_ÌÌ_È_ËÂÌÚ_47-2" x1="1494.93" y1="1073.07" x2="1392.36" y2="597.68" xlink:href="#_ÂÁ_Ï_ÌÌ_È_ËÂÌÚ_47"/><linearGradient id="_ÂÁ_Ï_ÌÌ_È_ËÂÌÚ_47-3" x1="1741.73" y1="1007.06" x2="1587.39" y2="291.73" xlink:href="#_ÂÁ_Ï_ÌÌ_È_ËÂÌÚ_47"/><linearGradient id="_ÂÁ_Ï_ÌÌ_È_ËÂÌÚ_55-2" x1="153.37" y1="346.76" x2="30.44" y2="1191.93" xlink:href="#_ÂÁ_Ï_ÌÌ_È_ËÂÌÚ_55"/><linearGradient id="_ÂÁ_Ï_ÌÌ_È_ËÂÌÚ_47-4" x1="545.77" y1="1007.55" x2="547.69" y2="884.26" xlink:href="#_ÂÁ_Ï_ÌÌ_È_ËÂÌÚ_47"/><linearGradient id="_ÂÁ_Ï_ÌÌ_È_ËÂÌÚ_47-5" x1="627.55" y1="585.41" x2="627.55" y2="1070.66" xlink:href="#_ÂÁ_Ï_ÌÌ_È_ËÂÌÚ_47"/><radialGradient id="_ÂÁ_Ï_ÌÌ_È_ËÂÌÚ_386" cx="985.42" cy="528.56" r="78.64" gradientTransform="matrix(1.69, 0, 0, -1.32, -756.67, 1618.57)" gradientUnits="userSpaceOnUse"><stop offset="0" stop-color="#ff7c07"/><stop offset="0.12" stop-color="#cf6506"/><stop offset="0.3" stop-color="#914704"/><stop offset="0.48" stop-color="#5d2d03"/><stop offset="0.64" stop-color="#351a01"/><stop offset="0.78" stop-color="#180c01"/><stop offset="0.91" stop-color="#060300"/><stop offset="1"/></radialGradient><radialGradient id="_ÂÁ_Ï_ÌÌ_È_ËÂÌÚ_385" cx="987.81" cy="528.04" r="134.6" gradientTransform="matrix(1.69, 0, 0, -1.32, -756.67, 1618.57)" gradientUnits="userSpaceOnUse"><stop offset="0" stop-color="red"/><stop offset="0.22" stop-color="#bc0000"/><stop offset="0.5" stop-color="#6c0000"/><stop offset="0.74" stop-color="#320000"/><stop offset="0.91" stop-color="#0e0000"/><stop offset="1"/></radialGradient><linearGradient id="_ÂÁ_Ï_ÌÌ_È_ËÂÌÚ_412" x1="911.12" y1="1080" x2="911.12" y2="862.03" gradientUnits="userSpaceOnUse"><stop offset="0"/><stop offset="0.09" stop-color="#0e0600"/><stop offset="0.26" stop-color="#321500"/><stop offset="0.5" stop-color="#6c2e00"/><stop offset="0.78" stop-color="#bc5000"/><stop offset="1" stop-color="#ff6d00"/></linearGradient><linearGradient id="linear-gradient" x1="863.99" y1="1033.19" x2="863.99" y2="391.5" gradientUnits="userSpaceOnUse"><stop offset="0" stop-color="#c46600"/><stop offset="0.18" stop-color="#914c00"/><stop offset="0.38" stop-color="#5e3100"/><stop offset="0.57" stop-color="#351c00"/><stop offset="0.74" stop-color="#180c00"/><stop offset="0.89" stop-color="#060300"/><stop offset="1"/></linearGradient><linearGradient id="linear-gradient-2" x1="1158.17" y1="701.51" x2="1158.17" y2="668.76" gradientUnits="userSpaceOnUse"><stop offset="0" stop-color="#a15b2d"/><stop offset="1" stop-color="#450529"/></linearGradient><linearGradient id="linear-gradient-3" x1="946.84" y1="852.07" x2="946.84" y2="755.74" xlink:href="#linear-gradient-2"/><linearGradient id="linear-gradient-4" x1="1300.09" y1="919.6" x2="1300.09" y2="821.23" xlink:href="#linear-gradient-2"/><linearGradient id="_ÂÁ_Ï_ÌÌ_È_ËÂÌÚ_268" x1="1055.87" y1="689.76" x2="1302.43" y2="689.76" gradientUnits="userSpaceOnUse"><stop offset="0" stop-color="#977c9d"/><stop offset="1" stop-color="#593191"/></linearGradient><linearGradient id="_ÂÁ_Ï_ÌÌ_È_ËÂÌÚ_268-2" x1="912.62" y1="825.84" x2="1066.66" y2="825.84" xlink:href="#_ÂÁ_Ï_ÌÌ_È_ËÂÌÚ_268"/><linearGradient id="linear-gradient-5" x1="325.32" y1="516.78" x2="325.32" y2="-4.83" gradientUnits="userSpaceOnUse"><stop offset="0" stop-color="#261212"/><stop offset="1" stop-color="#1f0000"/></linearGradient><linearGradient id="_ÂÁ_Ï_ÌÌ_È_ËÂÌÚ_150-18" x1="325.32" y1="516.78" x2="325.32" y2="-4.83" xlink:href="#_ÂÁ_Ï_ÌÌ_È_ËÂÌÚ_150"/><linearGradient id="_ÂÁ_Ï_ÌÌ_È_ËÂÌÚ_150-19" x1="373.53" y1="224.35" x2="373.53" y2="191.66" xlink:href="#_ÂÁ_Ï_ÌÌ_È_ËÂÌÚ_150"/><linearGradient id="_ÂÁ_Ï_ÌÌ_È_ËÂÌÚ_150-20" x1="359.63" y1="179" x2="359.63" y2="-4.83" xlink:href="#_ÂÁ_Ï_ÌÌ_È_ËÂÌÚ_150"/><linearGradient id="linear-gradient-6" x1="532.91" y1="750.97" x2="532.91" gradientUnits="userSpaceOnUse"><stop offset="0" stop-color="#ba6b0b"/><stop offset="0.21" stop-color="#3c0404"/><stop offset="1" stop-color="#260000"/></linearGradient><linearGradient id="linear-gradient-7" x1="1389.74" y1="641.15" x2="1389.74" y2="92.74" gradientUnits="userSpaceOnUse"><stop offset="0" stop-color="#420404"/><stop offset="1" stop-color="#260000"/></linearGradient><linearGradient id="linear-gradient-8" x1="1576.29" y1="775.01" x2="1576.29" y2="364.73" xlink:href="#linear-gradient-7"/><linearGradient id="linear-gradient-9" x1="1637.29" y1="705.69" x2="1637.29" y2="444.49" xlink:href="#linear-gradient-7"/><linearGradient id="linear-gradient-10" x1="1723.85" y1="796.83" x2="1723.85" y2="483.82" xlink:href="#linear-gradient-7"/><linearGradient id="linear-gradient-11" x1="819.51" y1="580.78" x2="819.51" y2="148.67" gradientUnits="userSpaceOnUse"><stop offset="0.24" stop-color="#893645"/><stop offset="1" stop-color="#34033e"/></linearGradient><linearGradient id="linear-gradient-12" x1="307.93" y1="417.62" x2="307.93" y2="0" xlink:href="#linear-gradient-6"/><linearGradient id="linear-gradient-13" x1="244.66" y1="606.36" x2="244.66" y2="0" xlink:href="#linear-gradient-6"/><linearGradient id="_ÂÁ_Ï_ÌÌ_È_ËÂÌÚ_278" x1="532.91" y1="750.97" x2="532.91" gradientUnits="userSpaceOnUse"><stop offset="0" stop-color="#c7e0ff"/><stop offset="1" stop-color="#392079"/></linearGradient><linearGradient id="_ÂÁ_Ï_ÌÌ_È_ËÂÌÚ_278-2" x1="244.66" y1="606.36" x2="244.66" y2="0" xlink:href="#_ÂÁ_Ï_ÌÌ_È_ËÂÌÚ_278"/><linearGradient id="_ÂÁ_Ï_ÌÌ_È_ËÂÌÚ_278-3" x1="303.84" y1="417.62" x2="303.84" y2="0" xlink:href="#_ÂÁ_Ï_ÌÌ_È_ËÂÌÚ_278"/><linearGradient id="_ÂÁ_Ï_ÌÌ_È_ËÂÌÚ_278-4" x1="822.07" y1="575.5" x2="822.07" y2="148.67" xlink:href="#_ÂÁ_Ï_ÌÌ_È_ËÂÌÚ_278"/><linearGradient id="_ÂÁ_Ï_ÌÌ_È_ËÂÌÚ_278-5" x1="1389.74" y1="575.97" x2="1389.74" y2="92.74" xlink:href="#_ÂÁ_Ï_ÌÌ_È_ËÂÌÚ_278"/><linearGradient id="_ÂÁ_Ï_ÌÌ_È_ËÂÌÚ_278-6" x1="1576.8" y1="775.01" x2="1576.8" y2="364.73" xlink:href="#_ÂÁ_Ï_ÌÌ_È_ËÂÌÚ_278"/><linearGradient id="_ÂÁ_Ï_ÌÌ_È_ËÂÌÚ_278-7" x1="1637.08" y1="705.69" x2="1637.08" y2="444.49" xlink:href="#_ÂÁ_Ï_ÌÌ_È_ËÂÌÚ_278"/><linearGradient id="_ÂÁ_Ï_ÌÌ_È_ËÂÌÚ_278-8" x1="1723.85" y1="796.83" x2="1723.85" y2="483.82" xlink:href="#_ÂÁ_Ï_ÌÌ_È_ËÂÌÚ_278"/><linearGradient id="_ÂÁ_Ï_ÌÌ_È_ËÂÌÚ_278-9" x1="491.17" y1="357.99" x2="491.17" y2="0" xlink:href="#_ÂÁ_Ï_ÌÌ_È_ËÂÌÚ_278"/><linearGradient id="_ÂÁ_Ï_ÌÌ_È_ËÂÌÚ_278-10" x1="593.65" y1="196.08" x2="593.65" y2="-2.42" xlink:href="#_ÂÁ_Ï_ÌÌ_È_ËÂÌÚ_278"/><radialGradient id="_ÂÁ_Ï_ÌÌ_È_ËÂÌÚ_611" cx="521.52" cy="471.85" r="56.06" gradientUnits="userSpaceOnUse"><stop offset="0" stop-color="#feb036"/><stop offset="0.27" stop-color="#fe993f"/><stop offset="0.74" stop-color="#ff764e"/><stop offset="1" stop-color="#ff6854"/></radialGradient><radialGradient id="_ÂÁ_Ï_ÌÌ_È_ËÂÌÚ_611-2" cx="511.82" cy="332.5" r="100.84" xlink:href="#_ÂÁ_Ï_ÌÌ_È_ËÂÌÚ_611"/><radialGradient id="_ÂÁ_Ï_ÌÌ_È_ËÂÌÚ_611-3" cx="615.97" cy="156.81" r="28.6" xlink:href="#_ÂÁ_Ï_ÌÌ_È_ËÂÌÚ_611"/><radialGradient id="_ÂÁ_Ï_ÌÌ_È_ËÂÌÚ_611-4" cx="608.44" cy="312.34" r="14.45" xlink:href="#_ÂÁ_Ï_ÌÌ_È_ËÂÌÚ_611"/><radialGradient id="_ÂÁ_Ï_ÌÌ_È_ËÂÌÚ_611-5" cx="298.29" cy="306.85" r="79.14" xlink:href="#_ÂÁ_Ï_ÌÌ_È_ËÂÌÚ_611"/><radialGradient id="_ÂÁ_Ï_ÌÌ_È_ËÂÌÚ_611-6" cx="252.9" cy="528.94" r="54.78" xlink:href="#_ÂÁ_Ï_ÌÌ_È_ËÂÌÚ_611"/><radialGradient id="_ÂÁ_Ï_ÌÌ_È_ËÂÌÚ_611-7" cx="258.01" cy="335.01" r="43.33" xlink:href="#_ÂÁ_Ï_ÌÌ_È_ËÂÌÚ_611"/><radialGradient id="_ÂÁ_Ï_ÌÌ_È_ËÂÌÚ_611-8" cx="457.8" cy="307.78" r="20.71" xlink:href="#_ÂÁ_Ï_ÌÌ_È_ËÂÌÚ_611"/><radialGradient id="_ÂÁ_Ï_ÌÌ_È_ËÂÌÚ_611-9" cx="1379.77" cy="460.26" r="14.41" xlink:href="#_ÂÁ_Ï_ÌÌ_È_ËÂÌÚ_611"/><radialGradient id="_ÂÁ_Ï_ÌÌ_È_ËÂÌÚ_611-10" cx="1381.97" cy="417.71" r="12.18" xlink:href="#_ÂÁ_Ï_ÌÌ_È_ËÂÌÚ_611"/><radialGradient id="_ÂÁ_Ï_ÌÌ_È_ËÂÌÚ_611-11" cx="1568.04" cy="698.72" r="12.83" xlink:href="#_ÂÁ_Ï_ÌÌ_È_ËÂÌÚ_611"/><radialGradient id="_ÂÁ_Ï_ÌÌ_È_ËÂÌÚ_611-12" cx="1580.79" cy="526.39" r="29.24" xlink:href="#_ÂÁ_Ï_ÌÌ_È_ËÂÌÚ_611"/><radialGradient id="_ÂÁ_Ï_ÌÌ_È_ËÂÌÚ_611-13" cx="300.82" cy="116.02" r="15.2" xlink:href="#_ÂÁ_Ï_ÌÌ_È_ËÂÌÚ_611"/><radialGradient id="_ÂÁ_Ï_ÌÌ_È_ËÂÌÚ_611-14" cx="305.83" cy="71.83" r="26.44" xlink:href="#_ÂÁ_Ï_ÌÌ_È_ËÂÌÚ_611"/><radialGradient id="_ÂÁ_Ï_ÌÌ_È_ËÂÌÚ_611-15" cx="826.99" cy="315.58" r="15.17" xlink:href="#_ÂÁ_Ï_ÌÌ_È_ËÂÌÚ_611"/><radialGradient id="_ÂÁ_Ï_ÌÌ_È_ËÂÌÚ_611-16" cx="826.03" cy="415.05" r="9.01" xlink:href="#_ÂÁ_Ï_ÌÌ_È_ËÂÌÚ_611"/><radialGradient id="_ÂÁ_Ï_ÌÌ_È_ËÂÌÚ_616" cx="823.25" cy="524.92" r="39.74" gradientUnits="userSpaceOnUse"><stop offset="0" stop-color="#fed336"/><stop offset="0.25" stop-color="#febe3f"/><stop offset="0.74" stop-color="#ff9b4e"/><stop offset="1" stop-color="#ff8d54"/></radialGradient><linearGradient id="_ÂÁ_Ï_ÌÌ_È_ËÂÌÚ_339" x1="823.94" y1="383.31" x2="823.94" gradientUnits="userSpaceOnUse"><stop offset="0" stop-color="#5f2226"/><stop offset="1" stop-color="#11001f"/></linearGradient><linearGradient id="_ÂÁ_Ï_ÌÌ_È_ËÂÌÚ_150-21" x1="799.9" y1="383.31" x2="799.9" y2="0" xlink:href="#_ÂÁ_Ï_ÌÌ_È_ËÂÌÚ_150"/><linearGradient id="linear-gradient-14" x1="777.35" y1="748.66" x2="777.35" y2="447.01" gradientUnits="userSpaceOnUse"><stop offset="0" stop-color="#bd4034"/><stop offset="1" stop-color="#433646"/></linearGradient><linearGradient id="linear-gradient-15" x1="706.45" y1="597.84" x2="782.81" y2="597.84" gradientUnits="userSpaceOnUse"><stop offset="0" stop-color="#c1a264"/><stop offset="1" stop-color="#b0ae7d"/></linearGradient><linearGradient id="_ÂÁ_Ï_ÌÌ_È_ËÂÌÚ_161-2" x1="772.84" y1="747.58" x2="772.84" y2="494.54" xlink:href="#_ÂÁ_Ï_ÌÌ_È_ËÂÌÚ_161"/><linearGradient id="_ÂÁ_Ï_ÌÌ_È_ËÂÌÚ_161-3" x1="767.33" y1="674.81" x2="808.88" y2="674.81" xlink:href="#_ÂÁ_Ï_ÌÌ_È_ËÂÌÚ_161"/><linearGradient id="_ÂÁ_Ï_ÌÌ_È_ËÂÌÚ_161-4" x1="727" y1="748.66" x2="727" y2="680.59" xlink:href="#_ÂÁ_Ï_ÌÌ_È_ËÂÌÚ_161"/><linearGradient id="linear-gradient-16" x1="1600.51" y1="730.51" x2="1600.51" gradientUnits="userSpaceOnUse"><stop offset="0" stop-color="#330606"/><stop offset="1" stop-color="#240000"/></linearGradient><linearGradient id="linear-gradient-17" x1="-236.28" y1="1080" x2="-236.28" y2="0" xlink:href="#linear-gradient-16"/><linearGradient id="linear-gradient-18" x1="573.6" y1="1080" x2="573.6" y2="736.76" xlink:href="#linear-gradient-16"/><linearGradient id="linear-gradient-19" x1="724.78" y1="562.3" x2="724.78" y2="-1.21" xlink:href="#linear-gradient-6"/><linearGradient id="linear-gradient-20" x1="180.65" y1="484.31" x2="180.65" y2="-2.42" xlink:href="#linear-gradient-6"/><linearGradient id="_ÂÁ_Ï_ÌÌ_È_ËÂÌÚ_278-11" x1="172.38" y1="484.31" x2="172.38" y2="-1.73" xlink:href="#_ÂÁ_Ï_ÌÌ_È_ËÂÌÚ_278"/><linearGradient id="_ÂÁ_Ï_ÌÌ_È_ËÂÌÚ_278-12" x1="724.78" y1="562.3" x2="724.78" y2="-1.21" xlink:href="#_ÂÁ_Ï_ÌÌ_È_ËÂÌÚ_278"/><linearGradient id="linear-gradient-21" x1="1610.91" y1="413.27" x2="1610.91" y2="261.34" gradientUnits="userSpaceOnUse"><stop offset="0" stop-color="#7f3931"/><stop offset="1" stop-color="#2d0000"/></linearGradient><linearGradient id="linear-gradient-22" x1="1647.66" y1="371.74" x2="1647.66" y2="282.62" xlink:href="#linear-gradient-21"/><linearGradient id="linear-gradient-23" x1="1600.58" y1="340.34" x2="1600.58" y2="250.46" xlink:href="#linear-gradient-21"/><linearGradient id="linear-gradient-24" x1="1688.79" y1="149.78" x2="1688.79" y2="86.7" xlink:href="#linear-gradient-21"/><linearGradient id="linear-gradient-25" x1="1705.52" y1="132.13" x2="1705.52" y2="96.33" xlink:href="#linear-gradient-21"/><linearGradient id="linear-gradient-26" x1="1815.63" y1="432.43" x2="1815.63" y2="157.21" xlink:href="#linear-gradient-21"/><linearGradient id="linear-gradient-27" x1="1838.03" y1="230.42" x2="1838.03" y2="169.6" xlink:href="#linear-gradient-21"/><linearGradient id="linear-gradient-28" x1="7.91" y1="170.38" x2="7.91" y2="64.38" xlink:href="#linear-gradient-6"/><linearGradient id="_ÂÁ_Ï_ÌÌ_È_ËÂÌÚ_278-13" x1="7.91" y1="170.38" x2="7.91" y2="64.38" xlink:href="#_ÂÁ_Ï_ÌÌ_È_ËÂÌÚ_278"/><linearGradient id="linear-gradient-29" x1="1803.69" y1="233.9" x2="1803.69" y2="150.35" xlink:href="#linear-gradient-21"/><radialGradient id="_ÂÁ_Ï_ÌÌ_È_ËÂÌÚ_611-17" cx="720.3" cy="138.93" r="29.06" xlink:href="#_ÂÁ_Ï_ÌÌ_È_ËÂÌÚ_611"/><radialGradient id="_ÂÁ_Ï_ÌÌ_È_ËÂÌÚ_611-18" cx="722.02" cy="250.4" r="9.94" xlink:href="#_ÂÁ_Ï_ÌÌ_È_ËÂÌÚ_611"/><radialGradient id="_ÂÁ_Ï_ÌÌ_È_ËÂÌÚ_611-19" cx="167.72" cy="275.95" r="15.5" xlink:href="#_ÂÁ_Ï_ÌÌ_È_ËÂÌÚ_611"/><linearGradient id="linear-gradient-30" x1="1151.56" y1="570.39" x2="1151.56" y2="0" xlink:href="#linear-gradient-7"/><linearGradient id="_ÂÁ_Ï_ÌÌ_È_ËÂÌÚ_278-14" x1="1153.95" y1="570.39" x2="1153.95" y2="0" xlink:href="#_ÂÁ_Ï_ÌÌ_È_ËÂÌÚ_278"/><radialGradient id="_ÂÁ_Ï_ÌÌ_È_ËÂÌÚ_611-20" cx="1189.08" cy="205.61" r="24.14" xlink:href="#_ÂÁ_Ï_ÌÌ_È_ËÂÌÚ_611"/><radialGradient id="_ÂÁ_Ï_ÌÌ_È_ËÂÌÚ_611-21" cx="1187.88" cy="317.56" r="22.81" xlink:href="#_ÂÁ_Ï_ÌÌ_È_ËÂÌÚ_611"/><radialGradient id="_ÂÁ_Ï_ÌÌ_È_ËÂÌÚ_611-22" cx="1186.97" cy="361.03" r="10.81" xlink:href="#_ÂÁ_Ï_ÌÌ_È_ËÂÌÚ_611"/><radialGradient id="_ÂÁ_Ï_ÌÌ_È_ËÂÌÚ_611-23" cx="1155.9" cy="315.15" r="14.89" xlink:href="#_ÂÁ_Ï_ÌÌ_È_ËÂÌÚ_611"/><radialGradient id="_ÂÁ_Ï_ÌÌ_È_ËÂÌÚ_187" cx="948.69" cy="396.71" r="147.21" gradientTransform="translate(1504.91 -556.87) rotate(75)" gradientUnits="userSpaceOnUse"><stop offset="0" stop-color="#ff3800"/><stop offset="0.12" stop-color="#d12e00"/><stop offset="0.3" stop-color="#922000"/><stop offset="0.48" stop-color="#5e1500"/><stop offset="0.64" stop-color="#350c00"/><stop offset="0.78" stop-color="#180500"/><stop offset="0.91" stop-color="#060100"/><stop offset="1"/></radialGradient><radialGradient id="_ÂÁ_Ï_ÌÌ_È_ËÂÌÚ_187-2" cx="709.11" cy="368.75" r="147.21" gradientTransform="translate(1346.41 -462.22) rotate(75)" xlink:href="#_ÂÁ_Ï_ÌÌ_È_ËÂÌÚ_187"/><radialGradient id="_ÂÁ_Ï_ÌÌ_È_ËÂÌÚ_187-3" cx="1241.97" cy="499.67" r="147.21" gradientTransform="translate(1730.96 -631) rotate(75)" xlink:href="#_ÂÁ_Ï_ÌÌ_È_ËÂÌÚ_187"/><radialGradient id="_ÂÁ_Ï_ÌÌ_È_ËÂÌÚ_187-4" cx="-66.13" cy="808.04" r="247.99" gradientTransform="translate(1080.35 165.7) rotate(75)" xlink:href="#_ÂÁ_Ï_ÌÌ_È_ËÂÌÚ_187"/><radialGradient id="_ÂÁ_Ï_ÌÌ_È_ËÂÌÚ_187-5" cx="191.06" cy="753.08" r="247.99" gradientTransform="translate(1210.91 12.51) rotate(75)" xlink:href="#_ÂÁ_Ï_ÌÌ_È_ËÂÌÚ_187"/><radialGradient id="_ÂÁ_Ï_ÌÌ_È_ËÂÌÚ_187-6" cx="247.81" cy="462.58" r="247.99" gradientTransform="translate(1110.02 -190.33) rotate(75)" xlink:href="#_ÂÁ_Ï_ÌÌ_È_ËÂÌÚ_187"/><radialGradient id="_ÂÁ_Ï_ÌÌ_È_ËÂÌÚ_187-7" cx="498.98" cy="710.4" r="126.43" gradientTransform="translate(1377.99 -156.87) rotate(75)" xlink:href="#_ÂÁ_Ï_ÌÌ_È_ËÂÌÚ_187"/><radialGradient id="_ÂÁ_Ï_ÌÌ_È_ËÂÌÚ_187-8" cx="-367.56" cy="905.17" r="126.43" gradientTransform="translate(942.58 365.12) rotate(75)" xlink:href="#_ÂÁ_Ï_ÌÌ_È_ËÂÌÚ_187"/></defs><g class="cls-3"><g id="cave"><g class="cls-4"><rect class="cls-5" x="-176.45" width="2100.29" height="770.62"/><polygon class="cls-6" points="682.4 594.09 800.07 422.88 886.7 334.34 853.27 431.06 784.55 540 784.55 527.92 753.68 580.78 784.55 551.11 758.62 608.86 783.02 608.86 808.76 540 900.34 415.37 968.55 266.33 968.55 319.2 877.15 513.6 866.23 529.28 871.69 504.53 832.36 611.27 935.13 410.61 964.46 365.25 906.48 508.82 932.57 464.4 877.15 612.73 998.56 311.01 1053.13 242.8 1029.26 364.73 955.59 616.28 1018.34 616.28 1045.63 522.63 1038.29 534.06 1077 301.46 1130.55 208.87 1150.43 223.7 1094.74 493.82 1108.38 463.8 1106.67 454.25 1133.96 332.16 1142.45 315.59 1109.57 575.16 1102.41 585.9 1094.74 619.85 1117.25 619.85 1150.43 455.82 1141.8 484.34 1122.36 574.13 1118.78 559.81 1196.03 194.03 1257.42 217.56 1171.45 622.36 1188.86 622.93 1202.68 536.79 1182.73 591.53 1218.54 421.17 1280.95 217.56 1321.28 348.73 1292.03 626.31 1321.28 626.31 1372.28 410.61 1387.36 395.86 1336.08 627.75 1345.9 627.75 1403.05 364.73 1394.18 379.05 1459.34 141.85 1434.43 301.97 1447.53 261.9 1379.21 629.16 1441.08 631.18 1498.88 455.82 1580.29 0 767.33 0 682.4 594.09"/><polygon class="cls-7" points="731.51 522.63 712.76 565.44 701.85 586.58 720.94 600.22 753.68 600.22 782.51 555.66 822.06 480.55 854.91 426.32 827.8 486.2 808.76 540 799.02 566.06 795.37 596.87 842.53 516.33 871.69 469.26 832.36 540 810.3 600.22 823.94 600.22 843.59 580.78 842.47 591.53 851.23 606.36 954.05 618.38 668.14 611.09 731.51 522.63"/><polygon class="cls-7" points="877.15 462.44 881.58 447.43 907.5 410.61 877.15 462.44"/><polygon class="cls-7" points="871.69 608.31 888.83 570.39 939.06 447.01 898.29 570.39 899.32 574.64 900.59 578.99 909.55 575.16 910.83 563.65 913.32 562.11 924.38 533.98 909.55 577.12 904.69 579.68 896.93 603.63 897.27 608.31 914.71 612.4 871.69 608.31"/><polygon class="cls-7" points="954.05 618.38 964.19 586.92 984.98 515.91 979.12 586.92 980.14 600.22 974.35 606.36 970.6 601.25 968.38 600.91 961.73 613.52 968.89 615.74 977.93 614.72 988.16 590.22 1014.93 503.02 1040.85 419.13 1042.56 419.13 1021.33 489.98 1026.53 492.79 1052.11 399.34 1056.54 387.07 1065.82 368.66 1038.29 534.06 1033.01 544.63 1034.03 525.53 1048.36 458.69 1047.33 446.41 1041.19 454.25 1021.41 528.94 1024.21 540 1026.44 534.61 1030.66 527.2 1005.03 620.01 954.05 618.38"/><polygon class="cls-7" points="1085.02 591.53 1105.65 492.47 1130.08 413.27 1121.08 484.34 1119.2 499.18 1107.55 510.87 1114.52 484.34 1109.45 489.21 1095.51 544.21 1094.06 570.39 1095.93 572.26 1100.54 547.19 1105.65 525.7 1098.32 579.59 1092.18 598.86 1085.02 613.01 1085.02 591.53"/><polygon class="cls-7" points="1080.24 561.51 1080.24 545.83 1085.02 520.93 1081.52 548.04 1080.24 561.51"/><polygon class="cls-7" points="1206.47 518.27 1213.91 462.44 1231.26 323.9 1221.06 290.72 1238.89 311.01 1280.42 158.22 1236.42 361.83 1238.89 395.86 1217.31 553.52 1209.64 626.31 1216.21 522.63 1221.33 459.54 1218.01 461.59 1206.47 518.27"/><polygon class="cls-8" points="1322.56 0 962.19 128.89 969.6 135.03 734.28 346.48 550.4 594.09 550.4 606.36 634.32 642.17 634.93 647.8 -186.39 647.8 -158.42 0 1322.56 0"/><polygon class="cls-9" points="1250.47 0 1002.09 85.58 961.27 121.97 999.01 78.41 1126.74 0 1010.73 0 692.65 232.91 636.19 311.01 675.34 303.18 785.29 217.56 683.68 304.53 648.51 354.84 662.7 318.34 646.66 323.9 396.95 540 350.88 631.18 372.8 631.18 533.19 591.53 731.27 342.39 550.4 594.09 550.4 598.18 448.89 621.46 477.89 633.99 634.32 642.17 634.93 647.8 384.85 647.8 388.72 636.38 296.57 631.18 243.09 647.8 372.8 541.22 568.09 334.34 679.98 177.66 785.29 18.39 715.77 156.07 701.28 191.66 746.78 171.52 879.91 0 731.27 0 446.92 379.05 224.58 647.8 196.19 647.8 249.26 591.53 407.05 342.39 501.03 223.7 442.41 311.69 425.75 337.46 372.8 426.32 425.75 380.25 599.42 57.95 619.51 0 1250.47 0"/><polygon class="cls-10" points="642.96 359.44 579.32 426.32 550.4 455.82 550.4 443.68 414.81 606.36 563.15 452.89 609.63 403.78 642.96 359.44"/><polygon class="cls-11" points="785.29 0 642.96 159.93 493.21 368.66 721.12 99.34 797.23 0 785.29 0"/><polygon class="cls-12" points="969.6 135.03 916.12 164.36 803.6 208.81 777.41 223.7 869.8 167.09 961.27 121.97 969.6 135.03"/><polygon class="cls-13" points="476.35 647.8 477.89 633.99 448.89 621.46 533.19 591.53 372.8 631.18 388.72 636.38 384.85 647.8 476.35 647.8"/><polygon class="cls-14" points="396.95 540 372.8 541.22 243.09 647.8 296.57 631.18 350.88 631.18 396.95 540"/><polygon class="cls-15" points="-158.42 0 -186.39 647.8 -158.42 647.8 -145.25 334.34 -90.95 148.67 -113.99 368.66 -131.18 529.71 -133.94 454.94 -138.67 616.28 -127.77 540 -121.6 534.74 -95.68 393.04 11.07 298.39 22.39 298.9 -48.17 556.4 -82 647.8 -50.68 647.8 -50.58 616.28 -61.74 627.85 -71 636.55 -29.65 513.26 57.97 314.25 57.97 337.46 67.84 460.01 26.5 606.36 11.07 637.57 -0.03 647.8 18.48 543.44 37.61 459.03 -9.5 647.8 54.27 647.8 220.06 -6.51 180.15 -1.39 119.67 323.9 86.36 417.63 67.84 315.59 113.83 -6.51 -158.42 0"/><polygon class="cls-16" points="682.4 0 535.17 268.64 408.54 520.93 535.17 232.91 647.62 0 682.4 0"/><polygon class="cls-17" points="712.76 0 664.57 99.34 655.8 89.67 586.23 245.19 732.54 -6.51 712.76 0"/><polygon class="cls-18" points="371.71 647.8 371.71 631.18 408.54 520.93 366.25 612.4 372.73 606.36 351.24 647.8 325.32 647.8 408.54 474.38 545.47 148.67 535.17 184.82 527.4 217.56 497.73 294.3 601.06 68.18 371.71 647.8"/><path class="cls-19" d="M472.66,504.52,380.84,628.45l11,70L505.39,821.23-237.47,805-255.12,0H-77.81S-56.32,182.76-42,260.52c14.09,76.55,55,190.76,56.24,194.32l0,.08,9.55,4.35L47,409.91,55.22,299.4,34.75,0h77.76L88.24,279.15v.06l-9.83,113L92.56,540,200.5,495.18,502.66,120.72l36.16-86.65L493.13,0H767.32L741.4,25.22Z"/><polygon class="cls-20" points="493.12 0 538.82 34.08 502.67 120.7 200.5 495.18 92.56 540 69.51 640.85 34.53 821.23 52.14 821.23 105.34 686.17 86.59 710.04 64.08 755.74 50.44 767.34 126.15 593.9 230.51 471.99 463.19 206.44 513.58 184.33 427.64 314.92 332.72 413.27 338.65 383.31 231.19 529.71 366.76 382.12 383.3 370.01 414.85 343.07 291.22 541.22 193.68 639.79 152.07 674.57 222.32 547.02 127.51 681.39 140.47 675.26 147.29 678.67 115.52 821.23 207.66 821.23 161.62 812.02 168.78 755.74 577.68 119.34 601.65 95.2 668.14 26.02 635 86.49 545.47 232.91 374.44 482.9 471.98 359.44 601.65 158.22 586.23 200.17 463.19 436.53 307.93 631.18 342.72 549.07 364.2 504.53 251.66 710.73 218.23 786.44 230.17 821.23 282.35 821.23 271.1 797.35 301.79 750.97 351.34 730.51 427.64 797.35 435.82 821.23 451.17 821.23 412.29 774.16 363.18 698.96 372.39 654.96 391.83 698.45 380.83 628.45 365.23 651.89 351.34 715.84 320.48 735.28 271.1 735.96 434.8 484.34 584.63 266.33 712.76 76.31 741.41 25.21 767.33 0 493.12 0"/><path class="cls-21" d="M-64.5,447-42,591.52-74.73,445.2-86,410.62l-10.24,7-4.07,236.81,18.64,151.91-35.08.54-1.85-531.58L-144-2.07-77.81,0S-56.32,182.76-42,260.52c14.09,76.55,55,190.76,56.24,194.32L-43,315.6-79.84,206.44-90.07,223.7v91.9Z"/><polygon class="cls-22" points="89.32 75.68 89.32 152.41 88.24 279.15 88.24 279.21 78.41 392.18 54.19 580.8 34.54 766.99 52.11 730.51 34.54 821.23 -15.39 821.23 9.16 741.42 24.52 764.96 48.55 520.94 38.32 540 14.8 633.47 10.18 710.21 11.21 602.26 14.29 454.92 23.84 459.27 47.04 409.91 55.22 299.4 34.75 0 78.41 0 61.35 134.35 63.4 191.65 64.07 328.08 82.49 229.15 89.32 75.68"/><polygon class="cls-23" points="147.29 678.67 152.07 674.57 193.68 639.79 291.22 541.22 344.09 482.9 293.05 562.34 168.78 755.74 161.62 812.02 133.48 821.23 115.52 821.23 147.29 678.67"/><polygon class="cls-24" points="271.1 735.96 320.48 735.28 301.79 750.97 271.1 797.35 282.35 821.23 230.17 821.23 218.23 786.44 254.94 704.71 307.93 631.18 405.95 528.69 271.1 735.96"/><polygon class="cls-25" points="92.56 540 52.11 730.51 34.54 766.99 34.54 821.23 50.44 767.34 126.15 593.9 200.5 495.18 92.56 540"/><polygon class="cls-26" points="47.04 409.91 38.32 540 14.8 633.47 14.29 454.92 23.84 459.27 47.04 409.91"/><polygon class="cls-27" points="380.83 628.45 370.24 644.36 288.9 708.59 483.65 413.27 668.14 145.34 528.88 401.05 466.28 513.14 380.83 628.45"/><polygon class="cls-27" points="364.2 504.53 307.93 631.18 463.19 436.53 586.23 200.17 601.65 158.22 471.98 359.44 364.2 504.53"/><polygon class="cls-28" points="372.39 654.96 363.18 698.96 451.17 821.23 505.39 821.23 391.83 698.45 372.39 654.96"/><path class="cls-29" d="M1558.93,635,692.44,611.53,752,642.17l.51,5.63H381.74l10.09,50.65,8.64,9.34L392,718.4l-541.39,12.11L-65,1080H856l103.68-95.75,345.16-55.93,50.46-10.45s-285.12-30.48-395.62-56.4l-6.14-18.29-46.38-4.9S765.28,811,657.85,782.35l-10.23-26.61,8.18-12.27,430.75-42-72.64-14.33,10.23-18.41,547-21Z"/><polygon class="cls-30" points="812.61 818.88 530.94 800.29 -117.53 834.87 -121.89 843.18 -118.59 858.06 535.17 814.26 892.32 835.37 812.61 818.88"/><polygon class="cls-31" points="206.48 826.49 233.21 824.22 338.12 744.41 336.45 737.71 206.48 826.49"/><polygon class="cls-32" points="650.07 762.12 653.34 770.62 -93.12 728.22 -55.56 726.7 650.07 762.12"/><polygon class="cls-33" points="680.42 788.23 710.37 795.65 633.75 795.65 626.87 805.03 625.62 803.45 629.41 795.49 555.06 800.55 547.01 800.29 546.78 798.94 680.42 788.23"/><polygon class="cls-34" points="-115.91 869.17 -111.96 882.1 266.18 903.84 284 897.96 292.58 894.38 -113.78 864.2 -115.91 869.17"/><polygon class="cls-35" points="-96.06 951.39 306.91 903.84 609.76 906.15 737.51 980.97 746.35 975.83 607.03 891.84 292.58 894.38 -99.88 935.58 -96.06 951.39"/><polygon class="cls-36" points="558.7 1080 906.8 923.5 991.29 935.21 997.03 923.5 901.4 913.27 491.42 1080 558.7 1080"/><polygon class="cls-37" points="626.87 902 770.74 899.33 882.32 921.13 898.38 912.29 769.54 890.12 607.03 891.84 626.87 902"/><polygon class="cls-38" points="819.51 898.72 1179.02 896.82 1106.72 886.95 1085.02 890.12 777.56 891.48 819.51 898.72"/><polygon class="cls-39" points="997.03 923.5 964.8 984.25 976.05 980.97 1007.09 935.21 1164.99 951.39 1198.9 945.48 997.03 923.5"/><polygon class="cls-40" points="752.49 647.8 680.42 674.96 675.99 741.5 655.8 743.47 647.62 755.74 657.85 782.35 647.62 1080 -65.01 1080 -149.39 730.51 392 718.4 400.47 707.79 391.83 698.45 381.75 647.8 752.49 647.8"/><polygon class="cls-41" points="392 718.4 392 1080 -65.01 1080 -149.39 730.51 392 718.4"/><polygon class="cls-42" points="752.49 647.8 805.52 652.06 745.57 650.41 737.91 652.06 726.55 652.79 733.05 653.81 739.19 654.71 689.57 654.71 691.1 653.43 700.37 651.25 686.75 651.25 673.71 652.92 653.88 654.71 663.09 652.53 664.57 651.25 629.54 652.92 463.19 649.59 477.52 651.25 537.12 652.06 459.1 654.71 463.19 652.06 457.06 651.25 405.95 651.25 382.43 651.25 381.75 647.8 752.49 647.8"/><polygon class="cls-43" points="620.85 656.5 634.32 654.71 652.22 656.5 620.85 656.5"/><polygon class="cls-42" points="400.47 707.79 415.02 711.07 491.42 718.4 405.95 718.4 414.86 723.34 357.72 723.34 285.42 726.7 315.77 728.8 338.12 732.89 244.66 732.89 274.17 730.93 276.98 729.53 278.51 727.86 271.48 726.7 255.11 727.61 227.23 727.99 216.49 731.57 240.66 732.89 -94.94 737.71 -139.45 736.76 -103.64 735.02 -98.01 731.7 -148.84 732.77 -149.39 730.51 395.75 713.7 400.47 707.79"/><polygon class="cls-44" points="751.98 642.17 1136.69 664.46 1571.1 647.8 1558.93 635.04 692.44 611.53 751.98 642.17"/><path class="cls-45" d="M575.49,794q26,2.35,51.9,4.84l-2.11,4.53L620,804.6h0l-69.05-4.31.55-1.75-20.54,1.75,96.56,6.07h0l154.9,9.73,27.45,2.53c33.17,4.12,65.16,8.43,95.55,12.93l.1-.67c-31.55-4.67-64.84-9.14-99.36-13.39l-33.7-7.26,2.15,3.46c-47.23-5.54-96.43-10.71-146.46-15.51l2.57-5.41,3-1.24-10.3.88,6.43,1-2.19,4.7Q604,795.87,580,793.68l92.4-5.45h8l-11.18-2.88,2.51,1.6-100.64,5.93c-31.57-2.84-63.29-5.53-94.88-8.09l181.62-2.11V782L468.92,784.2c-62.19-5-123.78-9.46-182.59-13.41l49.93-32.7,1.86-1-4.1-.33,2.43,1-52.3,32.94c-236.62-15.84-427.68-23.27-431.22-23.41l0,.68c3.53.13,194.09,7.54,430.27,23.34l-24.42,15.38-392.57,4.55v.67l391.47-4.54-41.32,26-2.75.6-334.12,19.68-4-.77,2.59,10.32,4.36-8.31Zm196.7,20.14L626.63,805l-1-1.56,2.2-4.62C677.11,803.56,725.6,808.65,772.19,814.09ZM285.4,771.41c56.75,3.8,116.1,8.09,176.11,12.88l-199.3,2.31Zm-24.24,15.87,207.72-2.4c32.49,2.61,65.15,5.36,97.67,8.27L221.13,813.5Z"/><polygon class="cls-46" points="331.65 736.57 208.68 726.7 -55.56 726.7 208.68 727.74 331.65 736.57"/><polygon class="cls-47" points="649.01 759.36 331.65 736.57 650.07 762.12 649.01 759.36"/><polygon class="cls-48" points="284 897.96 283.25 896.76 189.92 906.22 284 897.96"/><polygon class="cls-49" points="-100.87 931.47 -99.88 935.58 189.92 906.22 -98.01 931.47 -100.87 931.47"/><polygon class="cls-50" points="906.8 913.17 906.8 913.17 898.38 912.29 801.43 896.82 803.81 891.84 1075.81 890.12 1106.72 886.95 1043.24 877.09 1062.34 887.04 282.35 892.9 -113.78 864.2 -118.59 858.06 -115.91 869.17 -111.82 866.76 282.1 894.89 283.25 896.76 300.38 895.02 596.97 893.15 612.58 895.15 742.52 972.65 742.52 977.39 755.01 972.29 745.84 972.31 614.11 894.47 615.57 893.03 598.67 893.14 766.1 892.08 895.73 912.63 894.97 915.1 491.42 1080 508.81 1080 506.72 1076.33 897.52 914.85 904.38 913.61 991.9 923.5 994.47 926.61 959.68 984.25 964.8 984.25 996 926.48 1000.21 924.44 996.81 924.05 1168.4 943.45 1168.45 950.42 1205.63 944.39 906.8 913.17 906.8 913.17"/><polygon class="cls-51" points="400.47 707.79 861.12 723.34 866.7 722.93 399.47 706.71 400.47 707.79"/><polygon class="cls-52" points="968.91 712.97 685.35 647.8 682.4 647.8 964.8 713.37 968.91 712.97"/><polygon class="cls-53" points="726.55 629.09 730.63 631.18 1262.79 659.62 1269.73 659.36 726.55 629.09"/><path class="cls-54" d="M510.84,675.64c78.27,2.11,214.39,11,418.44,41.22l.1-.67C725.27,685.94,589.11,677.07,510.82,675c-84.84-2.28-121.88,2.66-122.25,2.7l.09.67C389,678.28,426.05,673.35,510.84,675.64Z"/><polygon class="cls-55" points="1013.91 687.19 1013.91 708.59 1086.55 701.52 1013.91 687.19"/><g class="cls-56"><rect class="cls-57" x="-86.65" y="932.96" width="969.78" height="0.67" transform="translate(-188.24 105.24) rotate(-12.2)"/></g><g class="cls-56"><rect class="cls-57" x="165.88" y="1059.38" width="734.61" height="0.68" transform="translate(-56.81 30.55) rotate(-3.12)"/></g><g class="cls-56"><rect class="cls-57" x="405.52" y="456.35" width="0.67" height="1037.02" transform="translate(-606.71 1274.51) rotate(-83.88)"/></g><g class="cls-56"><rect class="cls-57" x="413.63" y="419.39" width="0.67" height="1060.58" transform="matrix(0.1, -1, 1, 0.1, -571.55, 1269.06)"/></g><g class="cls-56"><rect class="cls-57" x="420.21" y="320.63" width="0.68" height="1078.28" transform="matrix(0, -1, 1, 0, -440.55, 1277.59)"/></g><polygon class="cls-58" points="647.62 780.05 656.33 826.49 1339.27 994.14 1372.28 917.87 647.62 780.05"/><g class="cls-59"><polygon class="cls-60" points="2377.2 1020.71 -1073.48 1047.84 -1026.68 645.3 2247.57 645.3 2267.68 703.58 2377.2 1020.71"/><path class="cls-61" d="M208.21,760.32c304.52,22.12,596.32-5.81,745.22,0s874.89,55,988,106.5S333.29,1047.89,333.29,1047.89H2253s-495.93-48-472.58-75.21,205.2-103.27,202.94-112.33-543.3-76.1-544.43-87-630.69-30.8-666.62-32.61-485.78-27.18-485.78-27.18l-580.53,29-793.74-29-16.17,29Z"/><path class="cls-62" d="M1536.26,992.61s103.11-61.6,112.11-96S1218.1,802.87,1230.28,782s22-20.55,22-20.55l2.39-1.13s-24.28,10.21-13.82,21.68,409,77,417.18,109.14-44.06,86.12-44.06,86.12Z"/><path class="cls-63" d="M1759.25,956.37s113.79-47.1,129.1-85.15-374.94-75.34-374.94-75.34l280.93,11.32s104.83,32.92,100.33,66.13-117.83,83-117.83,83Z"/><path class="cls-64" d="M-1116.73,807.4S-324.23,880.53-26,866.82s1289.81,5.43,1297.8,61.08S225,1076,225,1076l-1357.8-13.59Z"/><path class="cls-65" d="M262.65,807.4s381.29-.17,388.68,0S446.7,895.56,457,899.8s361.47-5.17,440.68,17.07-15.18,95.32-15.18,95.32l125.08,5.84S974.7,904.63,919,901.41s-381.88-4.5-387.89-20.67S710.2,810.49,710.2,800.26s-321.47,7.09-321.47,7.09L87.06,798.59Z"/><path class="cls-66" d="M2267.68,703.58c-262.42-9.16-1157.22-39.73-1589-43.51-509.33-4.46-1691.28,33.2-1691.28,33.2v-48H2247.57Z"/></g><g class="cls-67"><ellipse class="cls-68" cx="905.74" cy="918.92" rx="132.67" ry="104.1"/><ellipse class="cls-69" cx="909.77" cy="919.6" rx="227.06" ry="178.16"/><polygon class="cls-70" points="800.69 862.03 800.69 1075.89 1021.56 1080 1013.88 918.27 800.69 862.03"/></g><rect class="cls-71" x="-209.12" y="391.5" width="2146.22" height="641.69"/><path class="cls-72" d="M1923.84,654.45V1080H950.48l-137.87-78.61,542.69-83.52c-221-17.26-395.61-56.41-395.61-56.41L955,847.56c-113.13-9.13-297.16-65.21-297.16-65.21l-10.24-26.59,8.19-12.29,350-34.1,80.73-7.86-20.73-4.07-51.92-10.24,10.23-18.44,547-21,352.73,6.64Z"/><polygon class="cls-73" points="1302.43 690.25 1086.56 701.51 1065.83 697.44 1013.91 687.2 1024.14 668.76 1055.87 678 1302.43 690.25"/><path class="cls-74" d="M955.59,852.07l-5.32-30.84h115.55l180.24,21.95L955.59,803.83l-59.86-6.48L647.62,755.74v24.31s189,56.86,257.76,66.76Z"/><path class="cls-75" d="M1649.9,919.6l-242.08-11.41L1345.9,919.6s-227.29-22.28-386.22-55.7a105.31,105.31,0,0,1-9.41-42.67S1493.16,911.42,1649.9,919.6Z"/><polygon class="cls-76" points="1302.43 690.25 1086.56 701.51 1065.83 697.44 1055.87 678 1302.43 690.25"/><path class="cls-77" d="M916.68,799.62l-4.06,47.94,43,4.51a100.49,100.49,0,0,1-5.32-30.84h115.55l.84-2.35Z"/><path class="cls-78" d="M-147.09,800.29,395.75,713.7l4.72-5.91-8.64-9.34-3.78-24.09,748.5,24.55s409.13-1,759.42,65c0,0,46.43,87.9,7.16,123.11-73.43,65.83-425.08,76.74-425.08,76.74l-323.56-15s-455.38,65.82-842.4,27.39C39,949-101.77,854.59-101.77,854.59L-313.33,893l-159,190.69L1920,1080V0H-509.59Z"/><polygon class="cls-79" points="239.34 105.89 245.59 112.49 259.91 300.68 255.82 325.3 270.83 458.31 278.33 466.5 303.57 516.78 312.44 516.78 370.42 224.35 385.42 195.7 427.57 -1.1 223.08 -4.83 239.34 105.89"/><polygon class="cls-80" points="223.08 -4.83 239.34 105.89 245.59 112.49 259.91 300.68 255.82 325.3 270.83 458.31 278.33 466.5 303.57 516.78 312.44 516.78 282.35 460.01 267.76 266.42 267.76 231.38 282.35 184.33 312.09 378.89 326.27 447.01 315.6 357.99 288.9 0 333.51 -1.21 353.57 25.21 361.01 179 364.25 82.51 372.8 11.91 427.57 -1.1 223.08 -4.83"/><polygon class="cls-81" points="370.42 224.35 361.64 191.66 366.03 200.53 385.42 195.7 370.42 224.35"/><polygon class="cls-82" points="372.8 11.91 374.17 -2.08 345.1 -4.83 353.57 25.21 361.01 179 364.25 82.51 372.8 11.91"/><polygon class="cls-83" points="418.21 42.6 434.8 42.6 448.1 337.46 459.36 365.25 468.56 365.25 468.56 265.65 479.48 565.44 484.25 576.35 509.49 606.36 515.63 659.57 530.64 750.97 536.09 679.35 543.6 677.3 549.74 561.34 570 540 570 519.07 579.07 510.87 586.23 196.08 595.44 178.68 596.96 435.98 601.58 528.6 607.2 443.17 647.62 0 422.72 0 418.21 42.6"/><polygon class="cls-84" points="1326.34 104.64 1332.14 318.65 1341.35 327.35 1341.35 451.5 1346.98 486.45 1352.1 486.45 1366.42 291.54 1375.12 277.91 1364.37 517.14 1371.54 575.97 1375.41 641.15 1400.7 370.32 1419.63 359.06 1426.79 322.74 1431.9 317.11 1443.4 218.38 1464.94 226.44 1424.06 174.21 1424.74 162.62 1376.31 104.64 1370.17 108.73 1353.8 104.64 1314.54 92.74 1326.34 104.64"/><polygon class="cls-85" points="1537.01 364.73 1545.33 539.48 1552.15 549.23 1561.02 775.01 1562.98 755.23 1578.07 683.6 1578.07 647.28 1581.14 677.81 1587.62 673.03 1615.58 437.95 1583.53 420.31 1537.01 364.73"/><polygon class="cls-86" points="1627.48 444.49 1627.48 591.01 1631.12 705.69 1644.58 549.57 1647.11 455.3 1627.48 444.49"/><polygon class="cls-87" points="1698.95 483.82 1698.95 796.83 1704.94 729.99 1711.73 653.44 1722 639.27 1732.91 525.36 1748.75 517.75 1735.64 504.01 1698.95 483.82"/><polygon class="cls-88" points="871.69 148.67 845.09 289.18 819.51 580.78 816.44 473.86 817.46 397.64 812.35 394.06 808.25 248.1 804.67 255.42 799.04 328.06 791.88 365.25 787.79 365.25 789.15 297.37 787.79 205.8 772.44 180.73 767.33 180.22 795.46 171.01 812.35 163.68 811.58 157.2 871.69 148.67"/><polygon class="cls-89" points="282.35 0 282.35 231.89 282.35 254.4 302.76 417.63 304.86 342.06 320.48 98.88 325.32 90.69 333.51 0 282.35 0"/><polygon class="cls-90" points="271.1 0 271.1 371.58 267 401.21 256.68 487.68 255.82 606.36 218.23 0 271.1 0"/><polygon class="cls-91" points="448.1 337.46 440.43 41.58 444.26 31.86 451.68 25.21 468.56 265.65 463.19 54.88 468.56 33.91 479.31 25.21 479.31 364.73 468.56 275.32 479.48 565.44 486.23 540 486.23 357.99 497.39 303.18 505.91 540 489.2 540 484.25 576.35 509.49 606.36 515.63 659.57 530.64 750.97 515.63 619.66 511.54 57.95 526.93 25.21 536.09 679.35 543.6 677.3 535.17 64.27 555.19 10.88 570 10.88 570 519.07 579.07 17.89 586.23 10.88 586.23 196.08 595.44 178.68 596.96 435.98 608.74 57.95 645.99 17.89 647.62 0 579.07 0 422.72 0 418.21 42.6 434.8 42.6 448.1 337.46"/><polygon class="cls-92" points="218.23 0 248.56 489.21 255.82 606.36 240.06 270.26 244.66 136.45 256.68 487.68 252.17 130.59 271.1 0 218.23 0"/><polygon class="cls-93" points="282.35 0 282.35 254.4 302.76 417.63 288.88 260.46 298.21 22.14 302.76 13.44 320.48 95.81 325.32 90.69 315.6 25.21 319.7 0 282.35 0"/><polygon class="cls-94" points="772.44 180.73 787.79 205.8 787.79 365.25 794.95 232.91 803.14 199.66 804.67 255.42 806.58 251.52 812.35 394.06 815.42 191.66 823.94 180.73 817.46 397.64 816.44 473.86 819.36 575.5 823.94 356.51 836.83 153.62 863.5 153.62 845.84 285.19 871.69 148.67 811.58 157.2 812.35 163.68 772.44 180.73"/><polygon class="cls-95" points="1326.34 104.64 1332.14 318.65 1341.35 327.35 1341.35 451.5 1349.83 163.34 1358.53 135.71 1355.11 445.4 1366.15 295.25 1375.12 277.91 1364.37 517.14 1371.54 575.97 1380.53 252.35 1389.74 137.27 1412.27 169.99 1400.7 370.32 1406.37 366.94 1415.32 183.46 1422.48 196.08 1426.79 322.74 1431.9 317.11 1428.79 314.42 1429.13 198.81 1435.27 195.74 1464.94 226.44 1424.06 174.21 1424.74 162.62 1376.31 104.64 1370.17 108.73 1314.54 92.74 1326.34 104.64"/><polygon class="cls-96" points="1537.01 364.73 1545.33 539.48 1552.15 549.23 1561.02 775.01 1564.01 598.34 1569.89 437.69 1569.89 605.84 1578.07 653.93 1578.07 504.01 1590.08 437.69 1603.65 444.49 1587.62 673.03 1616.59 438.5 1583.53 420.31 1537.01 364.73"/><polygon class="cls-97" points="1627.48 444.49 1627.05 606.54 1631.12 705.69 1631.12 539.48 1637.29 458.51 1645.36 465.93 1644.58 549.57 1647.11 455.3 1627.48 444.49"/><polygon class="cls-98" points="1698.95 483.82 1698.95 796.83 1703.58 594.25 1710.06 514.78 1713.47 506.26 1711.73 653.44 1716.19 647.28 1713.81 648.48 1712.53 641.14 1721.06 509.92 1732.91 525.36 1748.75 517.75 1735.64 504.01 1698.95 483.82"/><polygon class="cls-99" points="478.8 0 477.62 350.69 486.23 357.99 497.39 303.18 504.72 0 478.8 0"/><polygon class="cls-100" points="595.44 178.68 601.06 0 586.23 -2.42 586.23 196.08 595.44 178.68"/><polygon class="cls-101" points="473.03 417.63 486.23 409.13 501.85 426.97 514.25 430.35 533.76 513.14 541.59 515.69 570 531.84 570 534.57 541.39 516.84 532.91 517.35 512.73 435.32 502.18 436.37 486.98 418.44 474.88 423.56 473.03 417.63"/><polygon class="cls-102" points="581.38 409.13 571.96 410.62 570 394.7 538.86 332.93 532.91 337.46 512.88 280.54 497.94 280.54 478.52 227.11 465.86 227.11 442.26 208 442.26 224.35 466.52 235.64 478.52 240.94 497.83 285.19 511.82 285.19 532.91 348.87 539.5 344.78 570 414.01 571.21 452.21 580.29 457 581.38 409.13"/><polygon class="cls-103" points="636.5 121.97 617.11 152.18 595.44 178.68 595.51 191.66 619.48 154.13 634.36 145.34 636.5 121.97"/><polygon class="cls-104" points="620.63 295.94 600.71 315.59 596.26 317.5 596.3 323.9 600.3 328.74 618.08 323.9 620.63 295.94"/><polygon class="cls-105" points="302.76 417.63 282.35 254.4 288.9 204.68 314.23 196.08 302.76 417.63"/><polygon class="cls-106" points="255.82 606.36 249.98 481.88 255.82 451.52 255.82 606.36"/><polygon class="cls-107" points="245.89 394.7 255.17 368.66 254.77 336.76 271.85 320.65 271.1 275.32 254.35 303.18 252.9 351.26 244.17 357.99 245.89 394.7"/><polygon class="cls-108" points="447.04 280.54 467.2 292.6 468.56 335.01 454.79 311.33 447.45 312.34 447.04 280.54"/><polygon class="cls-109" points="1391.34 470.58 1374.46 470.58 1366.24 475.51 1367.13 455.82 1375.17 445.01 1393.3 449.56 1391.34 470.58"/><polygon class="cls-110" points="1395.25 428.68 1376.06 413.27 1368.7 420.83 1368.7 416.74 1376.24 406.74 1395.25 417.71 1395.25 428.68"/><polygon class="cls-111" points="1578.07 683.6 1562.32 698.11 1558 698.11 1558.62 713.83 1562.05 713.83 1576.29 692.05 1578.07 683.6"/><polygon class="cls-112" points="1609.42 496.54 1600.58 496.54 1578.07 504.01 1571.1 520.08 1566.87 520.08 1552.15 549.23 1552.43 556.23 1566.64 526.39 1571.1 526.39 1578.01 517.35 1599.07 509.84 1607.4 512.88 1609.42 496.54"/><polygon class="cls-113" points="282.35 127.01 294.48 117.38 319.29 117.38 319.29 111.16 294.96 105.02 282.35 119.34 282.35 127.01"/><polygon class="cls-114" points="328.73 52.9 319.29 50.03 312.36 58.1 296.7 60.73 282.35 100.92 282.35 95.64 296.93 54.89 310.83 55.9 318.21 42.74 329.31 46.48 328.73 52.9"/><polygon class="cls-115" points="843.93 302.41 827.38 302.41 819.51 311.33 813.64 308.98 810.05 312.34 810.51 328.74 813.41 323.9 819.51 323.9 826.42 317.56 842.4 319.85 843.93 302.41"/><polygon class="cls-116" points="834.85 405.85 822.75 413.27 817.2 417.4 817.2 424.24 822.6 420.49 833.45 421.91 834.85 405.85"/><polygon class="cls-117" points="829.31 469.05 817.2 489.78 817.2 540 819.51 580.78 829.31 469.05"/><polygon class="cls-118" points="712.76 0 734.59 207.33 748.91 216.54 755.05 342.06 759.82 383.31 767.33 383.31 767.33 337.46 789.15 297.37 812.35 163.68 871.69 148.67 886.01 137.76 935.13 0 712.76 0"/><polygon class="cls-119" points="732.54 187.89 732.54 17.89 747.89 6.79 759.14 135.2 745.84 203.92 734.59 207.33 748.91 216.54 754.03 186.53 785.06 85.23 798.7 72.96 776.2 285.19 765.62 302.49 749.71 232.91 754.57 332.16 759.82 383.31 767.33 383.31 767.33 337.46 765.62 320.65 780.63 285.19 806.21 85.58 812.35 0 825.55 0 811.87 148.67 789.15 297.37 812.35 163.68 819.51 161.87 836.39 38.2 847.64 17.89 845.22 77.29 852.18 43.63 855.83 18.39 871.69 6.03 851.4 138.89 819.51 161.87 871.69 148.67 886.01 137.76 859.92 135.2 859.41 111.16 887.04 0 712.76 0 732.54 187.89"/><polygon class="cls-120" points="759.82 383.31 765.62 302.49 757.36 266.33 748.91 216.54 785.06 85.23 798.7 72.96 818.84 72.96 812.35 163.68 819.51 161.87 830.53 81.11 880.56 26.06 929.6 15.51 935.13 0 712.76 0 734.59 207.33 747.03 218.76 755.05 342.06 759.82 383.31"/><polygon class="cls-27" points="886.01 137.76 859.92 135.2 812.35 163.68 871.69 148.67 886.01 137.76"/><polygon class="cls-27" points="789.15 297.37 780.63 285.19 765.62 320.65 767.33 337.46 789.15 297.37"/><polygon class="cls-121" points="706.45 748.66 706.45 699.44 712.76 687.39 723.33 478.81 732.54 447.01 805.52 652.06 805.52 658.21 819.51 668.76 848.26 747.58 787.79 747.58 706.45 748.66"/><polygon class="cls-122" points="706.45 699.44 712.76 687.39 714.94 644.36 726.91 631.18 726.55 680.59 738.06 734.98 738.06 712 740.73 685.58 740.26 636.14 763.23 715.67 780.29 738.54 777.35 718.4 782.67 674.96 794.09 729.63 808.88 738.1 825.66 726.92 837.92 737.71 848.26 747.58 706.45 748.66 706.45 699.44"/><polygon class="cls-123" points="706.45 748.66 706.45 699.44 710.37 715.02 720.42 736.24 712.76 687.39 723.33 478.81 732.54 447.01 726.55 482.9 737.66 594.33 751.98 642.17 747.23 613.01 782.81 748.08 772.61 748.16 735.1 618.27 726.55 601.79 726.55 680.59 740.9 748.4 706.45 748.66"/><polygon class="cls-124" points="805.52 652.06 782.67 637.01 755.56 570.39 734.59 494.54 775.23 643.52 798.02 747.58 811.1 747.58 789.84 656.5 797 655.6 805.52 658.21 805.52 652.06"/><polygon class="cls-125" points="723.33 481.88 734.59 485.97 782.11 678.03 782.67 721.47 776.13 725.82 747.23 616.08 737.66 597.4 723.33 481.88"/><polygon class="cls-28" points="732.54 447.01 726.55 467.68 782.67 637.01 805.52 652.06 732.54 447.01"/><polygon class="cls-126" points="782.67 637.01 772.84 611.53 767.33 615.21 794.09 729.63 808.88 738.1 789.84 656.5 797 655.6 799.05 647.8 782.67 637.01"/><polygon class="cls-127" points="740.9 748.4 726.55 680.59 713.1 680.59 723.6 748.66 740.9 748.4"/><polygon class="cls-128" points="776.13 725.82 737.66 594.33 726.55 482.9 732.54 447.01 805.52 652.06 805.52 658.21 819.51 668.76 848.26 747.58 782.67 751.42 776.13 725.82"/><path class="cls-129" d="M288.13,624.08c-4.71-4.72,14.72-20.56,19.84-15.44S293.47,629.42,288.13,624.08Z"/><path class="cls-129" d="M391,969.27c-4.72-4.72,14.72-20.56,19.83-15.45S396.3,974.61,391,969.27Z"/><path class="cls-129" d="M196.51,859.74c-10.68-6.66,14.72-20.55,19.83-15.44S212.66,869.82,196.51,859.74Z"/><path class="cls-129" d="M773.55,416.22c-4.57-2.85,6.31-8.8,8.5-6.61S780.47,420.54,773.55,416.22Z"/><path class="cls-129" d="M955.68,211.77c-4.58-2.86,6.3-8.81,8.49-6.62S962.6,216.08,955.68,211.77Z"/><path class="cls-129" d="M987.67,359.45c-2.26-1.41,3.11-4.34,4.19-3.26S991.08,361.58,987.67,359.45Z"/><path class="cls-129" d="M942.84,399.37c-4.58-2.85,6.3-8.8,8.49-6.61S949.76,403.69,942.84,399.37Z"/><path class="cls-129" d="M343.53,599.55c0-3.33,8.06-8.06,13.34-8.06s8.28,9.61,5.94,12S343.53,605.43,343.53,599.55Z"/><path class="cls-129" d="M610.8,728.11c0-3.34,8.06-8.06,13.34-8.06s8.28,9.61,5.94,12S610.8,734,610.8,728.11Z"/><path class="cls-129" d="M362.37,557c-1.35-.6-1.8-4.72-.85-6.85s5.39-1.61,5.91-.24S364.75,558.08,362.37,557Z"/><path class="cls-129" d="M503.51,949.46c-1.35-.6-1.8-4.72-.85-6.85s5.38-1.62,5.91-.25S505.89,950.52,503.51,949.46Z"/><path class="cls-129" d="M927.72,217.47c-1.35-.6-1.81-4.71-.85-6.85s5.38-1.61,5.91-.24S930.1,218.54,927.72,217.47Z"/><path class="cls-129" d="M441.92,508.67c-1.35-.61-1.8-4.72-.85-6.86s5.39-1.61,5.91-.24S444.3,509.73,441.92,508.67Z"/><path class="cls-129" d="M390.27,548.15c2.79-4.23,10.5-2.78,10.5,0s-9.09,5.58-10.5,4.16S388.89,550.23,390.27,548.15Z"/><path class="cls-129" d="M25.93,561.35c2.79-4.23,10.51-2.78,10.51,0s-9.09,5.58-10.51,4.17S24.56,563.43,25.93,561.35Z"/><polygon class="cls-130" points="1920.6 0 1920.6 730.51 1705.03 504.53 1552.92 420.83 1363.7 194.78 1365.34 190.28 1428.09 217.56 1476.64 256.72 1475.84 247.58 1299.86 78.41 1280.42 57.95 1280.42 43.63 1308.9 37.49 1545.68 107.06 1289.63 0 1920.6 0"/><polygon class="cls-131" points="1308.9 37.49 1465.62 108.4 1506.4 126.84 1477.89 121.97 1439.69 107.06 1516.66 148.67 1509.27 133.66 1516.66 133.66 1634.09 179.37 1666.15 186.87 1751.41 206.44 1813.48 217.56 1844.18 229.84 1874.87 232.91 1814.85 214.84 1662.4 175.61 1636.14 168.11 1653.87 176.64 1656.86 175.27 1659.58 176.21 1683.71 184.65 1690.7 190.11 1651.06 180.3 1506.54 109.11 1486.59 96.32 1499.89 94.27 1308.9 37.49"/><path class="cls-131" d="M1920.58,330.8l-97.2-44.6-62.08-38.64,22.06,24.57L1810,279l17.09,20.6,10.29,12.29-54.06-20.44-60.59-20.65-29.53-16.39,18.44,14.25-12.42,3.46-6,4.32-37.08-7.78-10.47-8.34-12.29-13,2.57-3.32-1.27-7.18-27.65-13-67.77-38.88,42,27.29,11.93,5.46,3.27,2.86,55.38,48.19L1675.69,279l24.57,7.24L1758.58,306,1810,337.45l43.68,30.86,32.08,6.13,13.63,16.39L1920.6,445Zm-44.31,35.37-13.66,1.54-9.72-1.4-19.71-15-7.67-8.69v-8.32l42.06,8.05,8.7,12.52Z"/><polygon class="cls-131" points="1664.79 194.03 1689.34 197.44 1732.31 212.11 1758.57 223.7 1725.32 212.96 1720.39 212.28 1726.17 215.69 1733.17 222.17 1694.12 214.32 1669.56 197.78 1672.12 197.44 1664.79 194.03"/><polygon class="cls-132" points="1552.92 420.83 1740.5 518.27 1848.03 585.46 1826.2 555.16 1575.43 342.06 1593.16 365.25 1600.51 396.27 1428.09 217.56 1476.64 256.72 1475.84 247.58 1506.4 276.22 1650.46 390.82 1819.62 504.53 1866.01 518.27 1853.73 368.32 1820.99 341.71 1655.23 246.89 1642.96 235.3 1520.18 158.22 1722.76 270.77 1807.35 299.57 1506.4 126.84 1308.9 37.49 1541.24 105.21 1606.68 123.43 1874.87 232.91 1901.47 229.84 1841.7 179.71 1831.9 181.75 1763.35 140.31 1771.53 139.29 1893.8 205.28 1912.73 205.8 1902.5 85.58 1877.94 64.09 1600.51 0 1920.6 0 1920.6 730.51 1705.03 504.53 1552.92 420.83"/><polygon class="cls-132" points="1430.82 0 1496.31 25.21 1614.75 65.11 1626.25 57.95 1761.3 128.55 1401.15 0 1430.82 0"/><polygon class="cls-132" points="1280.42 43.63 1364.66 117.29 1390.62 127.83 1545.68 223.7 1280.42 43.63"/><polygon class="cls-132" points="1541.24 105.21 1308.9 37.49 1506.4 126.84 1614.75 143.21 1810.03 206.44 1606.68 123.43 1541.24 105.21"/><polygon class="cls-132" points="1920.6 554.18 1866.01 518.27 1819.62 504.53 1650.46 390.82 1642.88 399.38 1826.2 555.16 1848.03 585.46 1923.84 654.45 1920.6 554.18"/><polygon class="cls-132" points="1807.35 299.57 1725.83 271.81 1520.18 158.22 1642.96 235.3 1920.6 379.05 1920.6 345.8 1807.35 299.57"/><polygon class="cls-132" points="1428.09 217.56 1525.11 318.12 1605.23 354.84 1475.84 247.58 1476.64 256.72 1428.09 217.56"/><polygon class="cls-131" points="1365.34 190.28 1401.15 226.52 1406.78 235.21 1421.71 264.08 1440.23 286.2 1421.61 259.51 1412.41 238.24 1414.07 234.32 1422 232.01 1432.1 244.29 1431.85 261.56 1430.82 268.64 1432.02 271.28 1431.85 267.44 1433.3 257.38 1436.19 245.87 1450.26 265.91 1462.03 293.53 1485.05 318.6 1533.39 342.39 1533.39 339.57 1514.72 327.81 1508.33 308.11 1508.45 300.85 1533.39 326.71 1463.05 251 1428.09 217.56 1365.34 190.28"/><polygon class="cls-131" points="1794.73 334.34 1769.83 318.51 1753.46 311.01 1744.25 311.01 1775.29 334.34 1794.73 334.34"/><polygon class="cls-131" points="1882.04 301.97 1876.27 294.81 1879.15 279.46 1882.04 301.97"/><polygon class="cls-131" points="1740.56 395.86 1761.37 408.23 1806.67 445.46 1837.26 462.68 1829.11 458.18 1816.05 440.43 1844.88 464.36 1842.27 466.67 1840.17 471.5 1848.89 480.55 1783.65 433.05 1740.56 395.86"/><polygon class="cls-131" points="1616.5 455.82 1654.21 470.28 1705.03 504.53 1616.5 455.82"/><polygon class="cls-131" points="1430.82 0 1614.75 65.11 1626.25 57.95 1705.43 99.34 1675.36 75.6 1668.19 74.58 1656.68 68.18 1655.41 60.25 1705.43 64.27 1825.51 90.01 1866.01 99.34 1791.66 77.73 1767.44 75 1758.57 64.27 1761.3 52.15 1772.56 49.67 1703.32 33.4 1676.72 28.96 1654.89 27.6 1684.57 33.27 1688.79 32.24 1719.87 39.02 1735.6 55.01 1725.36 58.21 1686.61 59.36 1559.46 22.14 1506.54 0 1430.82 0"/><polygon class="cls-133" points="1552.92 420.83 1576.29 424.92 1580.29 418.44 1485.05 318.6 1462.03 293.53 1440.23 286.2 1552.92 420.83"/><polygon class="cls-133" points="1325.19 102.76 1364.66 117.29 1390.62 127.83 1689.19 334.36 1740.56 395.86 1819.62 504.53 1650.46 390.82 1475.84 247.58 1325.19 102.76"/><polygon class="cls-133" points="1679.98 315.59 1539.28 213.47 1464.94 158.22 1464.94 143.9 1647.11 268.64 1693.63 323.9 1679.98 315.59"/><polygon class="cls-134" points="-780.81 1038.14 -751.72 1080 -721.04 870.34 -700.58 827.37 -600.31 169.82 -477.53 108.43 -425.69 108.43 -281.08 255.76 -270.85 258.49 -221.41 377.83 -179.45 401.05 -171.26 393.55 -142.62 345.8 -142.62 317.83 -113.97 232.57 -124.2 223.02 -113.97 223.7 38.32 38.2 308.26 0 -780.81 0 -780.81 1038.14"/><polygon class="cls-132" points="-41.01 -2.42 12.56 24.19 38.32 38.2 308.26 0 -41.01 -2.42"/><polygon class="cls-135" points="1927.19 1080 -537.81 1080 -780 1080 -780 736.76 -767.41 739.88 -646.01 914.85 -636.45 921.13 -561.41 901.66 -537.81 890.8 -522.04 890.8 -499.53 916.38 -478.04 870.34 -457.07 772.63 -447.4 760.65 -435.58 755.74 -385.44 770.58 -286.71 858.57 -266.25 861.64 -235.04 828.9 -212.53 827.88 -91.97 898.99 -81.74 894.21 -27.17 858.06 -11.48 862.84 22.63 945.37 314.91 1008.46 719.34 1008.46 751.4 996.53 777.32 990.39 810.74 1001.3 839.19 976.75 848.26 954.24 932.84 902.4 947.16 901.03 979.22 911.95 1007.19 896.94 1022.19 893.53 1174.3 882.1 1181.81 890.12 1164.07 960.38 1241.15 948.78 1250.7 953.55 1263.66 1008.46 1283.1 998.23 1308.68 1008.46 1316.86 1016.65 1405.88 1016.65 1516.38 969.58 1528.66 969.58 1573.67 912.29 1591.42 911.26 1583.91 990.05 1618.69 977.77 1654.51 990.05 1693.38 1029.95 1791.61 892.85 1878.58 808.95 1888.81 806.9 1911.32 885.68 1895.97 969.58 1920 964.65 1927.19 1080"/><polygon class="cls-131" points="1867.83 1008.46 1859.14 1016.99 1820.26 1049.39 1846.63 1033.03 1855.56 1028.08 1883.18 1024.79 1869.88 1035.02 1834.07 1056.04 1774.21 1071.39 1788.03 1064.69 1808.49 1052.97 1762.96 1071.39 1721.02 1080 1769.1 1080 1840.29 1080 1831.51 1070.37 1846.63 1060.13 1902.62 1024.79 1911.32 1019.72 1900.06 1018.7 1867.83 1008.46"/><polygon class="cls-131" points="73.3 1080 22.63 1019.15 -32.58 952.87 -32.58 961.59 -22.05 987.1 -55.48 936.84 -73.17 927.76 -91.97 898.99 -81.74 894.21 -27.17 858.06 -11.48 862.84 22.63 945.37 80.41 1011.77 65.8 998.35 15.35 961.59 22.63 961.59 39.51 969.03 5.84 930.26 -20.69 911.26 6.73 952.87 12.56 961.59 2.33 952.87 -8.41 948.35 5.84 966.26 47.86 1042.23 73.3 1080"/><polygon class="cls-131" points="1786 1008.46 1812.07 984.25 1835.94 941.75 1831.85 929.68 1824.35 939.4 1781.94 969.75 1803.89 948.78 1840.29 901.03 1849.93 872.04 1845.49 863.9 1837.65 867.27 1820.26 865.21 1878.58 808.95 1888.81 806.9 1911.32 885.68 1895.97 969.58 1895.97 954.58 1901.43 907.68 1903.13 887.04 1892.22 883.3 1879.94 915.7 1871.41 947.08 1885.4 959.01 1891.19 959.01 1883.69 963.79 1869.03 964.47 1843.45 983.23 1834.07 992.09 1786 1008.46"/><polygon class="cls-131" points="22.63 945.37 89.71 1022.45 133.81 1043.59 161.43 1044.15 237.64 1045.67 289.84 1046.32 284.28 1037.47 172.69 1028.88 129.03 1010 115.49 1001.39 109.25 997.42 164.5 1010 310.25 1029.54 249.08 1014.6 187.01 1008.72 218.73 1014.6 217.68 1017.13 168.85 1009.36 133.81 1000.28 120.64 989.92 177.93 1005.91 183.43 1007.06 98.77 976.75 63.98 963.45 80.41 962.68 117.37 965.82 22.63 945.37"/><polygon class="cls-131" points="1022.19 893.53 1007.19 896.94 904.39 945.37 974.45 919.45 986.04 919.45 1022.19 924.91 1009.23 939.4 1001.73 934.46 973.08 948.78 1015.54 943.45 1101.55 912.63 1139.6 912.63 1134.06 921.15 1146.34 945.37 1099.17 979.82 1094.96 1012.39 1070.62 1014.49 997.64 1028.08 951.6 1029.61 945.12 1042.23 974.45 1042.23 1015.54 1030.68 1121.18 1014.49 1146.34 1011.98 1146.34 1003.4 1198.79 955.15 1164.07 960.38 1181.81 890.12 1174.3 882.1 1022.19 893.53"/><polygon class="cls-136" points="-25.29 962.42 -61.62 914.85 -57.52 897.45 -27.97 862.84 -11.48 862.84 -27.17 858.06 -81.74 894.21 -91.97 898.99 -67.24 936.84 -63.71 940.77 -66.22 949.12 -71.33 958.33 -151.14 962.93 -157.8 952.87 -224.81 872.38 -238.62 843.18 -235.04 828.9 -266.25 861.64 -286.71 858.57 -229.41 906.66 -234.02 917.87 -252.43 922.52 -361.99 917.87 -374.48 917.87 -383.4 917.87 -393.63 889.78 -427.91 829.47 -435.58 768.53 -435.58 796.67 -435.58 817.13 -440.61 807.41 -445.64 767 -435.58 755.74 -447.4 760.65 -457.07 772.63 -478.04 870.34 -499.53 916.38 -357.31 1080 -274.39 1080 -338.89 976.7 -352.63 952.87 -238.62 980.15 -219.75 972.65 -200.76 952.87 -122.49 1080 -109.7 1080 -140.91 1012.04 -144.5 975.21 -129.66 975.21 -66.22 962.93 -61.9 942.78 61.51 1080 73.3 1080 21.77 1012.56 -25.29 962.42"/><polygon class="cls-136" points="1250.7 953.55 1241.15 948.78 1201.59 1001.98 1174.57 1006.08 1131.33 1001.98 1164.07 960.38 1181.81 890.12 1146.34 945.37 1094.96 982.88 1064.48 991.07 908.28 1001.98 870.25 997.38 848.26 978.11 857.81 966.17 976.73 911.1 947.16 901.03 951.6 912.63 883.73 945.37 848.26 954.24 839.19 976.75 810.74 1001.3 777.32 990.39 784.48 1001.98 749.01 1008.12 719.34 1008.46 775.95 1014.94 1181.12 1011.7 1233.99 1032 779.71 1029.27 314.91 1008.46 772.54 1032 720.36 1046.32 133.81 1027.9 99.02 1014.6 22.63 945.37 89.71 1022.45 133.81 1043.59 718.83 1049.39 790.45 1042.23 1249.33 1042.23 1263.66 1008.46 1250.7 953.55"/><polygon class="cls-136" points="1308.68 1008.46 1298.45 1016.99 1257.18 1042.23 1282.93 1038.14 1312.43 1028.24 1405.88 1016.65 1316.86 1016.65 1308.68 1008.46"/><polygon class="cls-136" points="1516.38 969.58 1520.98 978.28 1499.5 1028.93 1405.88 1016.65 1432.48 1021.94 1480.91 1027.73 1491.65 1034.04 1473.07 1080 1494.21 1080 1528.66 969.58 1516.38 969.58"/><path class="cls-136" d="M1896,969.58l15.35-83.89-22.51-78.79L1878.58,809,1896,863.9l-8.7,23.14-53.2,105.05L1735.85,1030s-27.64,6.14-31,6.14-11.51-6.14-11.51-6.14l-38.88-39.9,17.91,31.2-22.51,9.21-70.6,5.63-27.88-8.95,17.14-28.4,15.35-8.69,7.51-78.79-17.74,1,9.87,5.58L1571,984.93l-8.53,12.45L1522.86,1080h190.73l3.13-29.59,103.54-42h47.57l32.23,10.24-80.83,54.22L1769.1,1080H1920V964.65Z"/><polygon class="cls-132" points="1649.9 1030.46 1649.9 1080 1713.59 1080 1716.72 1050.41 1749.93 1036.96 1735.85 1029.95 1704.89 1036.09 1693.38 1029.95 1654.51 990.05 1672.41 1021.25 1649.9 1030.46"/><polygon class="cls-131" points="1533.77 963.1 1544.77 952.19 1557.14 939.03 1562.08 933.77 1557.14 943.45 1544.27 963.1 1538.88 976.17 1538.88 965.49 1533.77 976.17 1526.6 993.46 1535.48 982.88 1538.88 980.5 1531.04 999.26 1508.44 1054.25 1547.41 969.58 1562.08 951.17 1567.19 948.78 1569.92 957.31 1570.95 984.93 1579.81 961.74 1586.29 964.81 1591.42 911.26 1573.67 912.29 1533.77 963.1"/><polygon class="cls-132" points="1834.07 992.09 1820.26 1008.46 1867.83 1008.46 1895.97 969.58 1911.32 885.68 1895.97 863.9 1834.07 992.09"/><polygon class="cls-132" points="1570.95 984.93 1562.42 997.38 1522.86 1080 1546.9 1080 1551.42 1027.14 1568.56 998.74 1583.91 990.05 1591.42 911.26 1583.55 917.87 1570.95 984.93"/><polygon class="cls-132" points="1499.5 1028.93 1480.91 1027.73 1491.65 1034.04 1473.07 1080 1494.21 1080 1526.6 976.17 1520.98 978.28 1499.5 1028.93 1499.5 1028.93"/><polygon class="cls-132" points="1298.45 1016.99 1312.43 1028.24 1282.93 1038.14 1257.18 1042.23 1298.45 1016.99"/><polygon class="cls-132" points="1241.15 948.78 1201.59 1001.98 1174.57 1006.08 1181.12 1011.7 1233.99 1032 1015.54 1030.68 1025.26 1042.23 1249.33 1042.23 1263.66 1008.46 1250.7 953.55 1241.15 948.78"/><polygon class="cls-132" points="1146.34 945.37 1094.96 982.88 1064.48 991.07 1060.56 1012.67 1125.54 1012.15 1131.33 1001.98 1164.07 960.38 1181.81 890.12 1146.34 945.37"/><polygon class="cls-132" points="857.81 966.17 848.26 954.24 883.73 945.37 951.6 912.63 946.78 925.4 857.81 966.17"/><polygon class="cls-132" points="-61.62 914.85 -73.17 927.76 -61.9 942.78 61.51 1080 73.3 1080 21.77 1012.56 -61.62 914.85"/><polygon class="cls-132" points="99.02 1014.6 89.71 1022.45 133.81 1043.59 720.19 1049.39 720.36 1046.32 133.81 1027.9 99.02 1014.6"/><polygon class="cls-132" points="810.74 1001.3 832.92 1014.49 959.27 1013.48 908.28 1001.98 870.25 997.38 848.26 978.11 810.74 1001.3"/><polygon class="cls-132" points="772.54 1032 734.37 1026.4 735.84 1023.83 779.71 1029.27 921.41 1030.12 916.81 1042.23 790.45 1042.23 772.54 1032"/><polygon class="cls-137" points="36.84 948.44 99.02 1014.6 133.81 1027.9 720.36 1046.32 772.54 1032 314.91 1008.46 36.84 948.44"/><polygon class="cls-137" points="848.26 978.11 857.81 966.17 976.73 911.1 1007.19 896.94 1022.19 893.53 1174.3 882.1 1181.81 890.12 1146.34 945.37 1094.96 982.88 1064.48 991.07 916.81 1001.39 870.25 997.38 848.26 978.11"/><polygon class="cls-137" points="1693.38 1029.95 1704.89 1036.09 1834.07 992.09 1895.97 863.9 1878.58 808.95 1791.61 892.85 1693.38 1029.95"/><polygon class="cls-137" points="1528.66 969.58 1573.67 912.29 1583.55 917.87 1570.95 984.93 1562.42 997.38 1522.86 1080 1494.21 1080 1528.66 969.58"/><polygon class="cls-138" points="129.03 1080 172.69 1049.39 745.26 1056.55 1176.69 1049.39 1419.62 1080 129.03 1080"/><polygon class="cls-131" points="1781.94 969.75 1764.32 978.11 1764.32 969.58 1756.14 978.11 1733.29 1011.88 1757.62 987.32 1781.94 969.75"/><polygon class="cls-131" points="1542.3 1008.46 1547.07 996.14 1557.14 979.82 1549.72 1001.3 1542.3 1008.46"/><polygon class="cls-131" points="959.27 951.39 916.81 966.17 899.93 976.17 922.83 969.58 951.6 963.78 959.27 951.39"/><polygon class="cls-133" points="-121.89 973.71 -65.01 1080 -38.92 1080 -64.86 1052.46 -85.47 1020.23 -85.99 1011.02 -25.62 1080 0.07 1080 -67.24 971.07 -73.76 964.39 -121.89 973.71"/><polygon class="cls-133" points="1334.63 1069.29 1413.26 1018.12 1436.4 1022.4 1400.15 1064.69 1401.17 1069.29 1450.97 1024.15 1456.34 1024.79 1409.69 1078.75 1334.63 1069.29"/><polygon class="cls-133" points="1597.26 1034.66 1637.59 984.25 1654.51 990.05 1661.01 1001.39 1638.38 1029.61 1644.17 1028.08 1665.07 1008.46 1667.48 1012.67 1649.9 1030.46 1597.26 1034.66"/><polygon class="cls-139" points="1365.34 190.28 1414.07 234.32 1552.92 420.83 1363.7 194.78 1365.34 190.28"/><polygon class="cls-139" points="1280.42 43.63 1313.19 49.67 1475.84 247.58 1280.42 57.95 1280.42 43.63"/><polygon class="cls-140" points="947.16 901.03 951.6 912.63 883.73 945.37 848.26 954.24 932.84 902.4 947.16 901.03"/><polygon class="cls-140" points="36.84 948.44 99.02 1014.6 133.81 1027.9 411.63 1035.71 36.84 948.44"/><polygon class="cls-140" points="-113.97 223.7 -150.12 225.75 -94.22 81.92 38.32 38.2 -113.97 223.7"/><polygon class="cls-140" points="1528.66 969.58 1583.55 917.87 1591.42 911.26 1573.67 912.29 1528.66 969.58"/><polygon class="cls-140" points="1283.1 998.23 1308.68 1008.46 1298.45 1016.99 1263.66 1008.46 1283.1 998.23"/><polygon class="cls-140" points="1704.89 1036.09 1834.07 992.09 1895.97 863.9 1878.58 808.95 1791.61 892.85 1693.38 1029.95 1704.89 1036.09"/><polygon class="cls-141" points="697.07 -1.21 697.07 357.11 697.07 562.29 709.21 198.01 712.76 266.33 719.75 383.31 752.49 0 697.07 -1.21"/><polygon class="cls-142" points="151.94 -1.73 151.94 145.34 156.84 116.45 158.55 336.25 161.62 484.31 188.22 82.51 188.22 107.06 188.22 298.05 209.37 -2.42 151.94 -1.73"/><polygon class="cls-143" points="151.94 -1.73 151.94 145.34 156.84 116.45 161.62 484.31 165.2 90.39 180.65 27.77 188.22 82.51 188.22 298.05 192.82 -1.73 151.94 -1.73"/><polygon class="cls-144" points="697.07 -1.21 697.07 562.29 700.82 231.89 705.94 21.63 709.21 198.01 719.75 383.31 712.76 88.13 719.75 7.3 752.49 0 697.07 -1.21"/><polygon class="cls-145" points="1605.23 261.34 1610.92 413.27 1616.59 269.58 1605.23 261.34"/><polygon class="cls-146" points="1642.88 290.2 1647.24 371.74 1654.06 301.12 1660.77 301.64 1634.55 282.62 1642.88 290.2"/><polygon class="cls-147" points="1590.25 250.46 1590.25 257.98 1591.88 261.34 1600.58 340.34 1607.6 268.64 1610.91 268.64 1610.91 265.46 1590.25 250.46"/><polygon class="cls-148" points="1681.24 86.7 1681.24 95.55 1684.08 95.55 1684.08 149.78 1689.7 97.6 1693.63 99.34 1696.33 94.58 1681.24 86.7"/><polygon class="cls-149" points="1699.67 96.33 1701.47 99.34 1704.03 102.76 1704.03 132.13 1709.74 103.48 1711.36 102.76 1699.67 96.33"/><polygon class="cls-150" points="1801.33 157.21 1811.57 166.09 1814.56 432.43 1822.42 175.32 1829.92 173.56 1801.33 157.21"/><polygon class="cls-151" points="1830.9 169.6 1834.63 172.89 1838.42 230.42 1841.87 177.16 1845.15 177.29 1830.9 169.6"/><polygon class="cls-152" points="-1.02 86.12 9.17 170.38 16.83 64.38 -1.02 86.12"/><polygon class="cls-153" points="9.17 170.38 5.25 81.05 16.59 67.68 16.83 64.38 -1.02 86.12 9.17 170.38"/><polygon class="cls-154" points="1789.69 150.35 1796.85 159.51 1807.54 233.9 1817.69 166.8 1817.69 166.8 1789.69 150.35"/><polygon class="cls-155" points="743.52 105.02 712.76 109.22 708.06 135.2 703.1 138.29 697.07 156.81 697.07 172.83 705.21 148.67 709.77 145.34 712.76 132.38 742.3 119.34 743.52 105.02"/><polygon class="cls-156" points="731.95 240.45 716.37 240.45 712.09 248.6 712.76 260.35 715.83 252.69 730.74 255.97 731.95 240.45"/><polygon class="cls-157" points="176.74 255.97 163.69 255.97 158.71 260.46 159.17 295.94 163.38 290.55 174.52 289.48 176.74 255.97"/><polygon class="cls-158" points="1086.4 41.21 1101.09 51.13 1113.37 122.07 1125.64 135.71 1133.83 124.11 1139.29 69.55 1145.42 299.57 1153.61 376.49 1160.15 480.17 1164.52 375.81 1164.52 232.57 1169.98 226.43 1175.78 439.25 1180.89 450.84 1187.71 570.39 1193.85 494.5 1208.18 177.32 1230.94 19.21 1260.02 0 1043.11 0 1086.4 41.21"/><polygon class="cls-159" points="1113.37 122.07 1108.25 12.42 1116.24 0 1130.25 14.98 1138.95 72.94 1145.42 299.57 1154.04 383.31 1160.15 480.17 1151.56 266.33 1156.85 12.93 1160.15 43.63 1164.52 232.57 1169.98 226.43 1175.78 439.25 1180.89 450.84 1187.71 570.39 1176.67 99.34 1187.71 54.06 1227.77 48.13 1230.01 0 1077.9 0 1077.9 38.2 1101.09 51.13 1113.37 122.07"/><polygon class="cls-160" points="1208.18 177.32 1178.49 177.32 1169.98 226.43 1170.18 233.9 1178.83 191.66 1207.23 198.32 1208.18 177.32"/><polygon class="cls-161" points="1203.13 289.13 1181.46 303.65 1172.63 323.9 1173.24 345.99 1182.18 334.36 1201.09 334.36 1203.13 289.13"/><polygon class="cls-162" points="1200.23 353.4 1182.63 353.4 1173.72 363.61 1173.86 368.66 1182.68 355.95 1199.93 360.03 1200.23 353.4"/><polygon class="cls-163" points="1164.52 295.94 1151.56 303.65 1147.28 317.56 1149 334.36 1153.87 323.9 1164.52 323.9 1164.52 295.94"/><circle class="cls-164" cx="1367.25" cy="462.15" r="147.21" transform="translate(73.67 1102.15) rotate(-45)"/><circle class="cls-165" cx="1173.75" cy="318.15" r="147.21" transform="translate(118.82 923.15) rotate(-45)"/><circle class="cls-166" cx="1569.75" cy="697.95" r="147.21" transform="translate(-33.76 1314.4) rotate(-45)"/><circle class="cls-167" cx="282.75" cy="310.95" r="247.98" transform="translate(-137.06 291.01) rotate(-45)"/><circle class="cls-168" cx="532.95" cy="391.95" r="247.98" transform="translate(-121.05 491.65) rotate(-45)"/><circle class="cls-169" cx="727.35" cy="168.75" r="247.98" transform="translate(93.71 563.74) rotate(-45)"/><circle class="cls-170" cx="820.95" cy="508.95" r="126.43" transform="translate(-119.43 729.57) rotate(-45)"/><circle class="cls-171" cx="-26.85" cy="244.35" r="126.43" transform="translate(-180.65 52.58) rotate(-45)"/></g></g></g></svg>