<svg xmlns="http://www.w3.org/2000/svg" xmlns:xlink="http://www.w3.org/1999/xlink" viewBox="0 0 1920 1080"><defs><clipPath id="clip-path"><rect x="-137.74" width="2159.75" height="1080" style="fill:none"/></clipPath><linearGradient id="Áåçûìÿííûé_ãðàäèåíò_14" x1="949.6" y1="561.19" x2="949.6" y2="-81.93" gradientTransform="translate(1899.2 573.8) rotate(-180)" gradientUnits="userSpaceOnUse"><stop offset="0" stop-color="#2f95c9"/><stop offset="0.23" stop-color="#267eb7"/><stop offset="0.7" stop-color="#104388"/><stop offset="1" stop-color="#001a68"/></linearGradient><radialGradient id="Áåçûìÿííûé_ãðàäèåíò_550" cx="-667.23" cy="490.62" r="52.51" gradientTransform="matrix(0, -2.39, -2.37, 0, 2342.17, -1282.36)" gradientUnits="userSpaceOnUse"><stop offset="0" stop-color="#6a229d"/><stop offset="0.16" stop-color="#672199"/><stop offset="0.32" stop-color="#5f1e8c"/><stop offset="0.48" stop-color="#511a78"/><stop offset="0.64" stop-color="#3d145b"/><stop offset="0.81" stop-color="#240c36"/><stop offset="0.97" stop-color="#060209"/><stop offset="1"/></radialGradient><radialGradient id="Áåçûìÿííûé_ãðàäèåíò_558" cx="-666.11" cy="488.61" r="44.79" gradientTransform="matrix(0, -2.39, -2.37, 0, 2338.7, -1285.08)" gradientUnits="userSpaceOnUse"><stop offset="0" stop-color="#0037a4"/><stop offset="0.15" stop-color="#0036a0"/><stop offset="0.31" stop-color="#003294"/><stop offset="0.47" stop-color="#002b7f"/><stop offset="0.63" stop-color="#002163"/><stop offset="0.79" stop-color="#00153e"/><stop offset="0.95" stop-color="#000611"/><stop offset="1"/></radialGradient><linearGradient id="linear-gradient" x1="938.26" y1="684.84" x2="933.56" y2="536.48" gradientUnits="userSpaceOnUse"><stop offset="0" stop-color="#0a3e82"/><stop offset="0.42" stop-color="#0e4c9b"/><stop offset="1" stop-color="#1463c2"/></linearGradient><linearGradient id="Áåçûìÿííûé_ãðàäèåíò_276" x1="873.08" y1="-231.65" x2="2119.51" y2="1014.78" gradientUnits="userSpaceOnUse"><stop offset="0" stop-color="#fff"/><stop offset="1" stop-color="#837700"/></linearGradient><linearGradient id="Áåçûìÿííûé_ãðàäèåíò_276-2" x1="1264.31" y1="-92.96" x2="2004.65" y2="647.38" xlink:href="#Áåçûìÿííûé_ãðàäèåíò_276"/><linearGradient id="Áåçûìÿííûé_ãðàäèåíò_276-3" x1="899.1" y1="364.84" x2="1494.48" y2="960.23" xlink:href="#Áåçûìÿííûé_ãðàäèåíò_276"/><linearGradient id="Áåçûìÿííûé_ãðàäèåíò_276-4" x1="1035.64" y1="46.57" x2="2070.26" y2="1081.19" xlink:href="#Áåçûìÿííûé_ãðàäèåíò_276"/><linearGradient id="linear-gradient-2" x1="1201.87" y1="676.48" x2="1197.17" y2="528.13" gradientUnits="userSpaceOnUse"><stop offset="0" stop-color="#be1010"/><stop offset="0.22" stop-color="#c62917"/><stop offset="0.67" stop-color="#da6827"/><stop offset="1" stop-color="#ea9834"/></linearGradient><linearGradient id="linear-gradient-3" x1="948.67" y1="684.51" x2="969.26" y2="537.51" gradientUnits="userSpaceOnUse"><stop offset="0" stop-color="#1090be"/><stop offset="0.59" stop-color="#2496d7"/><stop offset="1" stop-color="#349bea"/></linearGradient><linearGradient id="Áåçûìÿííûé_ãðàäèåíò_335" x1="385.55" y1="649.09" x2="385.55" y2="371.23" gradientUnits="userSpaceOnUse"><stop offset="0" stop-color="#837700"/><stop offset="1" stop-color="#fff"/></linearGradient><linearGradient id="Áåçûìÿííûé_ãðàäèåíò_335-2" x1="808.32" y1="750.76" x2="808.32" y2="489.04" xlink:href="#Áåçûìÿííûé_ãðàäèåíò_335"/><linearGradient id="Áåçûìÿííûé_ãðàäèåíò_335-3" x1="524.06" y1="704.74" x2="524.06" y2="390.91" xlink:href="#Áåçûìÿííûé_ãðàäèåíò_335"/><linearGradient id="linear-gradient-4" x1="692.42" y1="669.66" x2="2377.24" y2="669.66" gradientUnits="userSpaceOnUse"><stop offset="0.59" stop-color="#3d78d8"/><stop offset="1" stop-color="#2337ab"/></linearGradient><linearGradient id="linear-gradient-5" x1="-1450.48" y1="1255.98" x2="1311.59" y2="947.81" gradientUnits="userSpaceOnUse"><stop offset="0.34" stop-color="#1d1021"/><stop offset="1" stop-color="#4d46a1"/></linearGradient><linearGradient id="Áåçûìÿííûé_ãðàäèåíò_88" x1="63.46" y1="309.72" x2="227.14" y2="899.44" gradientUnits="userSpaceOnUse"><stop offset="0.01" stop-color="#00104d"/><stop offset="0.56" stop-color="#001748"/><stop offset="0.99" stop-color="#002042"/></linearGradient><linearGradient id="Áåçûìÿííûé_ãðàäèåíò_88-2" x1="237.65" y1="325.03" x2="463.07" y2="1137.19" xlink:href="#Áåçûìÿííûé_ãðàäèåíò_88"/><linearGradient id="Áåçûìÿííûé_ãðàäèåíò_88-3" x1="84.39" y1="400.35" x2="144.34" y2="649.55" xlink:href="#Áåçûìÿííûé_ãðàäèåíò_88"/><linearGradient id="Áåçûìÿííûé_ãðàäèåíò_116" x1="116.92" y1="306.31" x2="131.79" y2="471.73" gradientUnits="userSpaceOnUse"><stop offset="0" stop-color="#586400"/><stop offset="1" stop-color="#fff"/></linearGradient><linearGradient id="Áåçûìÿííûé_ãðàäèåíò_88-4" x1="172.11" y1="201.44" x2="195.3" y2="635.28" xlink:href="#Áåçûìÿííûé_ãðàäèåíò_88"/><linearGradient id="Áåçûìÿííûé_ãðàäèåíò_88-5" x1="363.84" y1="121.35" x2="390.65" y2="622.78" xlink:href="#Áåçûìÿííûé_ãðàäèåíò_88"/><linearGradient id="Áåçûìÿííûé_ãðàäèåíò_88-6" x1="203.25" y1="427.64" x2="210.53" y2="563.71" xlink:href="#Áåçûìÿííûé_ãðàäèåíò_88"/><linearGradient id="Áåçûìÿííûé_ãðàäèåíò_116-2" x1="229.44" y1="333.27" x2="233.03" y2="400.46" xlink:href="#Áåçûìÿííûé_ãðàäèåíò_116"/><linearGradient id="Áåçûìÿííûé_ãðàäèåíò_88-7" x1="384.43" y1="514.42" x2="393.49" y2="691.66" xlink:href="#Áåçûìÿííûé_ãðàäèåíò_88"/><linearGradient id="Áåçûìÿííûé_ãðàäèåíò_88-8" x1="1480.55" y1="226.49" x2="1705.15" y2="1035.69" xlink:href="#Áåçûìÿííûé_ãðàäèåíò_88"/><linearGradient id="Áåçûìÿííûé_ãðàäèåíò_88-9" x1="547.89" y1="165.43" x2="869.7" y2="1324.89" gradientTransform="matrix(-0.98, -0.21, -0.21, 0.98, 2200.23, 238.13)" xlink:href="#Áåçûìÿííûé_ãðàäèåíò_88"/><linearGradient id="Áåçûìÿííûé_ãðàäèåíò_88-10" x1="1505.53" y1="342.25" x2="1589.61" y2="691.74" xlink:href="#Áåçûìÿííûé_ãðàäèåíò_88"/><linearGradient id="Áåçûìÿííûé_ãðàäèåíò_116-3" x1="1568.24" y1="341.07" x2="1563.63" y2="394.24" xlink:href="#Áåçûìÿííûé_ãðàäèåíò_116"/><linearGradient id="Áåçûìÿííûé_ãðàäèåíò_88-11" x1="1613.64" y1="34.76" x2="1645.88" y2="637.69" xlink:href="#Áåçûìÿííûé_ãðàäèåíò_88"/><linearGradient id="Áåçûìÿííûé_ãðàäèåíò_88-12" x1="1640.1" y1="349.99" x2="1653.02" y2="591.62" xlink:href="#Áåçûìÿííûé_ãðàäèåíò_88"/><linearGradient id="Áåçûìÿííûé_ãðàäèåíò_116-4" x1="1677.18" y1="219.27" x2="1682.14" y2="312.08" xlink:href="#Áåçûìÿííûé_ãðàäèåíò_116"/><linearGradient id="linear-gradient-6" x1="853.3" y1="1037.75" x2="1011.17" y2="429.23" gradientUnits="userSpaceOnUse"><stop offset="0" stop-color="#042b6b"/><stop offset="1" stop-color="#0f4b93"/></linearGradient><linearGradient id="linear-gradient-7" x1="579.28" y1="661.65" x2="1964.35" y2="661.65" gradientUnits="userSpaceOnUse"><stop offset="0" stop-color="#e43d0f"/><stop offset="1"/></linearGradient><linearGradient id="Áåçûìÿííûé_ãðàäèåíò_276-5" x1="-221.06" y1="707.84" x2="1249.3" y2="707.84" xlink:href="#Áåçûìÿííûé_ãðàäèåíò_276"/><linearGradient id="Áåçûìÿííûé_ãðàäèåíò_305" x1="455.97" y1="899.76" x2="2140.77" y2="899.76" gradientUnits="userSpaceOnUse"><stop offset="0.35" stop-color="#837700"/><stop offset="1" stop-color="#fff"/></linearGradient><linearGradient id="Áåçûìÿííûé_ãðàäèåíò_306" x1="1459.68" y1="1081.9" x2="1697.28" y2="1081.9" gradientUnits="userSpaceOnUse"><stop offset="0" stop-color="#fff"/><stop offset="0.65" stop-color="#837700"/></linearGradient><linearGradient id="Áåçûìÿííûé_ãðàäèåíò_305-2" x1="1654.94" y1="976.27" x2="2073.67" y2="976.27" xlink:href="#Áåçûìÿííûé_ãðàäèåíò_305"/><linearGradient id="Áåçûìÿííûé_ãðàäèåíò_305-3" x1="1692.08" y1="996.96" x2="2105.84" y2="996.96" xlink:href="#Áåçûìÿííûé_ãðàäèåíò_305"/><linearGradient id="linear-gradient-8" x1="1757.03" y1="851.3" x2="1757.03" y2="691.03" gradientUnits="userSpaceOnUse"><stop offset="0" stop-color="#274887"/><stop offset="1" stop-color="#274887"/></linearGradient><linearGradient id="linear-gradient-9" x1="1376.5" y1="854.6" x2="1376.5" y2="741.09" xlink:href="#linear-gradient-8"/><linearGradient id="Áåçûìÿííûé_ãðàäèåíò_6" x1="1436.23" y1="524.09" x2="1913.52" y2="670.53" gradientUnits="userSpaceOnUse"><stop offset="0" stop-color="#a49ac5"/><stop offset="1" stop-color="#4b2b95"/></linearGradient><linearGradient id="Áåçûìÿííûé_ãðàäèåíò_6-2" x1="1540.16" y1="185.36" x2="2017.45" y2="331.8" xlink:href="#Áåçûìÿííûé_ãðàäèåíò_6"/><linearGradient id="Áåçûìÿííûé_ãðàäèåíò_6-3" x1="1779.31" y1="835.97" x2="1892.62" y2="835.97" xlink:href="#Áåçûìÿííûé_ãðàäèåíò_6"/><linearGradient id="Áåçûìÿííûé_ãðàäèåíò_6-4" x1="1709.1" y1="956.18" x2="1870.46" y2="956.18" xlink:href="#Áåçûìÿííûé_ãðàäèåíò_6"/><linearGradient id="Áåçûìÿííûé_ãðàäèåíò_6-5" x1="1758.69" y1="1025.12" x2="1823.91" y2="1025.12" xlink:href="#Áåçûìÿííûé_ãðàäèåíò_6"/><linearGradient id="Áåçûìÿííûé_ãðàäèåíò_6-6" x1="1769.05" y1="801.38" x2="1772.42" y2="801.38" xlink:href="#Áåçûìÿííûé_ãðàäèåíò_6"/><linearGradient id="Áåçûìÿííûé_ãðàäèåíò_6-7" x1="1818.2" y1="539.17" x2="1931.4" y2="539.17" xlink:href="#Áåçûìÿííûé_ãðàäèåíò_6"/><linearGradient id="Áåçûìÿííûé_ãðàäèåíò_30" x1="-2566.42" y1="491.03" x2="-2566.38" y2="490.5" gradientTransform="matrix(-1, 0, 0, 1, -654.81, 0)" gradientUnits="userSpaceOnUse"><stop offset="0" stop-color="#fff"/><stop offset="1" stop-color="#bf4042"/></linearGradient><linearGradient id="Áåçûìÿííûé_ãðàäèåíò_6-8" x1="1599.46" y1="458" x2="1707.92" y2="458" xlink:href="#Áåçûìÿííûé_ãðàäèåíò_6"/><linearGradient id="Áåçûìÿííûé_ãðàäèåíò_6-9" x1="243.87" y1="196.75" x2="3.22" y2="473.66" xlink:href="#Áåçûìÿííûé_ãðàäèåíò_6"/><linearGradient id="Áåçûìÿííûé_ãðàäèåíò_6-10" x1="24.77" y1="379.99" x2="79.84" y2="379.99" xlink:href="#Áåçûìÿííûé_ãðàäèåíò_6"/><linearGradient id="Áåçûìÿííûé_ãðàäèåíò_6-11" x1="22.81" y1="641.59" x2="39.04" y2="641.59" xlink:href="#Áåçûìÿííûé_ãðàäèåíò_6"/><linearGradient id="linear-gradient-10" x1="51" y1="141.68" x2="78.59" y2="141.68" gradientUnits="userSpaceOnUse"><stop offset="0"/><stop offset="0.34" stop-color="#020103"/><stop offset="0.59" stop-color="#07030d"/><stop offset="0.82" stop-color="#0f081d"/><stop offset="1" stop-color="#190d30"/></linearGradient><linearGradient id="linear-gradient-11" x1="34.21" y1="235.15" x2="85.48" y2="235.15" xlink:href="#linear-gradient-10"/><linearGradient id="Áåçûìÿííûé_ãðàäèåíò_6-12" x1="64.98" y1="397.77" x2="67.33" y2="397.77" xlink:href="#Áåçûìÿííûé_ãðàäèåíò_6"/><linearGradient id="Áåçûìÿííûé_ãðàäèåíò_6-13" x1="59.76" y1="144.07" x2="130.06" y2="144.07" xlink:href="#Áåçûìÿííûé_ãðàäèåíò_6"/><linearGradient id="Áåçûìÿííûé_ãðàäèåíò_6-14" x1="22.16" y1="644.33" x2="148.17" y2="644.33" xlink:href="#Áåçûìÿííûé_ãðàäèåíò_6"/><linearGradient id="Áåçûìÿííûé_ãðàäèåíò_6-15" x1="-43.52" y1="710.48" x2="93.57" y2="710.48" xlink:href="#Áåçûìÿííûé_ãðàäèåíò_6"/><linearGradient id="Áåçûìÿííûé_ãðàäèåíò_6-16" x1="64.78" y1="755.65" x2="192.25" y2="755.65" xlink:href="#Áåçûìÿííûé_ãðàäèåíò_6"/><radialGradient id="radial-gradient" cx="-729.04" cy="531.44" r="288.06" gradientTransform="matrix(-2.98, 0, 0, 2.37, -942.71, -949.54)" gradientUnits="userSpaceOnUse"><stop offset="0" stop-color="#0037a4"/><stop offset="0.29" stop-color="#00256d"/><stop offset="0.62" stop-color="#001132"/><stop offset="0.87" stop-color="#00050e"/><stop offset="1"/></radialGradient><radialGradient id="radial-gradient-2" cx="2849.83" cy="2364.8" r="18.32" gradientTransform="translate(2328.35 -3500.68) rotate(60.29)" gradientUnits="userSpaceOnUse"><stop offset="0.02" stop-color="#24ff8e"/><stop offset="0.33" stop-color="#24fd8d"/><stop offset="0.46" stop-color="#23f689"/><stop offset="0.56" stop-color="#21e982"/><stop offset="0.65" stop-color="#1ed778"/><stop offset="0.72" stop-color="#1bc06b"/><stop offset="0.79" stop-color="#17a35b"/><stop offset="0.85" stop-color="#128148"/><stop offset="0.9" stop-color="#0d5932"/><stop offset="0.95" stop-color="#062e19"/><stop offset="1"/></radialGradient><radialGradient id="radial-gradient-3" cx="3173.89" cy="2489" r="18.32" xlink:href="#radial-gradient-2"/><radialGradient id="radial-gradient-4" cx="3132.67" cy="2717.79" r="6.61" xlink:href="#radial-gradient-2"/><radialGradient id="radial-gradient-5" cx="2808.11" cy="4206.84" r="6.61" xlink:href="#radial-gradient-2"/><radialGradient id="radial-gradient-6" cx="3132.66" cy="2516.5" r="8.45" gradientTransform="translate(2328.35 -3500.68) rotate(60.29)" gradientUnits="userSpaceOnUse"><stop offset="0.02" stop-color="#7cffc2"/><stop offset="0.33" stop-color="#7bfdc0"/><stop offset="0.46" stop-color="#77f6bb"/><stop offset="0.56" stop-color="#71e9b1"/><stop offset="0.65" stop-color="#69d7a4"/><stop offset="0.72" stop-color="#5dc092"/><stop offset="0.79" stop-color="#4fa37c"/><stop offset="0.85" stop-color="#3f8162"/><stop offset="0.9" stop-color="#2b5944"/><stop offset="0.95" stop-color="#162e23"/><stop offset="1"/></radialGradient><radialGradient id="radial-gradient-7" cx="3606.66" cy="2786.06" r="8.45" xlink:href="#radial-gradient-6"/><radialGradient id="radial-gradient-8" cx="2619.47" cy="3435.32" r="166.71" gradientTransform="translate(2328.35 -3500.68) rotate(60.29)" gradientUnits="userSpaceOnUse"><stop offset="0.46" stop-color="#349565"/><stop offset="0.69" stop-color="#339364"/><stop offset="0.77" stop-color="#318c5f"/><stop offset="0.82" stop-color="#2d8157"/><stop offset="0.87" stop-color="#27704c"/><stop offset="0.91" stop-color="#1f5a3d"/><stop offset="0.94" stop-color="#163e2a"/><stop offset="0.98" stop-color="#0b1f15"/><stop offset="1"/></radialGradient><radialGradient id="radial-gradient-9" cx="3769.56" cy="2793.48" r="127.83" gradientTransform="translate(2335.98 -3495.95) rotate(60.29)" gradientUnits="userSpaceOnUse"><stop offset="0.02" stop-color="#34ff9a"/><stop offset="0.33" stop-color="#24b26c"/><stop offset="1"/></radialGradient><radialGradient id="radial-gradient-10" cx="3113.41" cy="2191.93" r="60.46" gradientTransform="translate(2328.35 -3500.68) rotate(60.29)" xlink:href="#radial-gradient-9"/><radialGradient id="radial-gradient-11" cx="2780.01" cy="3268.73" r="83.36" gradientTransform="translate(4744.19 -1292.98) rotate(105.29)" gradientUnits="userSpaceOnUse"><stop offset="0.46" stop-color="#34ff9a"/><stop offset="0.66" stop-color="#34fd99"/><stop offset="0.74" stop-color="#32f695"/><stop offset="0.79" stop-color="#30eb8e"/><stop offset="0.83" stop-color="#2cda83"/><stop offset="0.86" stop-color="#28c476"/><stop offset="0.9" stop-color="#22a866"/><stop offset="0.92" stop-color="#1c8852"/><stop offset="0.95" stop-color="#14623b"/><stop offset="0.97" stop-color="#0b3721"/><stop offset="1" stop-color="#020906"/><stop offset="1"/></radialGradient><radialGradient id="radial-gradient-12" cx="2987.29" cy="2756.65" r="38.85" gradientTransform="translate(2328.35 -3500.68) rotate(60.29)" xlink:href="#radial-gradient-9"/><radialGradient id="radial-gradient-13" cx="3034.95" cy="2590.06" r="20.42" gradientTransform="translate(2328.35 -3500.68) rotate(60.29)" xlink:href="#radial-gradient-9"/><radialGradient id="radial-gradient-14" cx="2572.75" cy="4098.56" r="54.87" gradientTransform="translate(2328.35 -3500.68) rotate(60.29)" xlink:href="#radial-gradient-9"/><radialGradient id="radial-gradient-15" cx="2722.65" cy="2900.37" r="20.42" gradientTransform="translate(2328.35 -3500.68) rotate(60.29)" xlink:href="#radial-gradient-9"/></defs><g style="isolation:isolate"><g id="Ñëîé_1" data-name="Ñëîé 1"><g style="clip-path:url(#clip-path)"><rect x="-151.68" y="-5.58" width="2202.55" height="584.96" transform="translate(1899.2 573.8) rotate(180)" style="fill:url(#Áåçûìÿííûé_ãðàäèåíò_14)"/><g style="opacity:0.7000000000000001"><path d="M1273.85,446.55l385.33,82.78L-185.44,492.4l17.5-211.16c73.48,38.13,652.86,165.56,949.9,162C-100,506,682.06,584,827.63,458.45c214,76.65,355.39,63.72,355.39,63.72s-108-76.09-355.74-67.56C792.6,442.16,697.11,430.35,658.91,413c-2.75-1.26-224.36-27.5-227.07-28.76,53.73,9.09,487.56,46.31,490,46.62-2.24-.79-123.68-50.43-253.08-44.72C475.72,295.86,149.36,24.28,88.27-34.33H-27.84C215.86,175.24,859.34,367.74,972.24,389.74L753.42,350S890,489.37,1410.86,516.48C1920.31,543,1273.85,446.55,1273.85,446.55Z" style="fill:#7c92ed;opacity:0.30000000000000004;mix-blend-mode:multiply"/><path d="M1883.82,494.33c-331.82-10.42-542.4-67.18-542.4-67.18s610.81,20.76,692.66-2.45-529,47.65-529,47.65,366.49,19.54,434.9,50.08S1883.82,494.33,1883.82,494.33Z" style="fill:#7c92ed;opacity:0.30000000000000004;mix-blend-mode:multiply"/></g><path d="M1330.08,136a1.42,1.42,0,1,1-1.41-1.42A1.42,1.42,0,0,1,1330.08,136Z" style="fill:#09b9ea;fill-rule:evenodd"/><path d="M1302.57,288.43a1.42,1.42,0,1,1-1.41-1.42A1.42,1.42,0,0,1,1302.57,288.43Z" style="fill:#09b9ea;fill-rule:evenodd"/><path d="M1185.17,362.79a1.42,1.42,0,1,1-1.42-1.42A1.43,1.43,0,0,1,1185.17,362.79Z" style="fill:#09b9ea;fill-rule:evenodd"/><path d="M1225.28,536.5a1.42,1.42,0,1,1-1.42-1.42A1.43,1.43,0,0,1,1225.28,536.5Z" style="fill:#09b9ea;fill-rule:evenodd"/><path d="M747.68,619.29a1.42,1.42,0,1,1-1.42-1.42A1.41,1.41,0,0,1,747.68,619.29Z" style="fill:#0998e3;fill-rule:evenodd"/><path d="M1095.94,304.76a1.42,1.42,0,1,1-1.42-1.42A1.43,1.43,0,0,1,1095.94,304.76Z" style="fill:#0998e3;fill-rule:evenodd"/><path d="M1028.92,272.44a1.42,1.42,0,1,1-1.42-1.41A1.41,1.41,0,0,1,1028.92,272.44Z" style="fill:#0998e3;fill-rule:evenodd"/><path d="M945.69,207.68a1.42,1.42,0,1,1-1.42-1.41A1.42,1.42,0,0,1,945.69,207.68Z" style="fill:#095cc0;fill-rule:evenodd"/><path d="M860,101.68a1.42,1.42,0,1,1-1.42-1.42A1.42,1.42,0,0,1,860,101.68Z" style="fill:#095cc0;fill-rule:evenodd"/><path d="M1027.5,53.2a1.42,1.42,0,1,1-1.41-1.41A1.41,1.41,0,0,1,1027.5,53.2Z" style="fill:#095cc0;fill-rule:evenodd"/><path d="M883.84,421.36a1.42,1.42,0,1,1-1.42-1.42A1.41,1.41,0,0,1,883.84,421.36Z" style="fill:#095cc0;fill-rule:evenodd"/><circle cx="1116.17" cy="303.34" r="1.42" style="fill:#095cc0"/><path d="M1129.32,41.38A1.42,1.42,0,1,1,1127.9,40,1.42,1.42,0,0,1,1129.32,41.38Z" style="fill:#095cc0;fill-rule:evenodd"/><path d="M844,633a1.42,1.42,0,1,1-1.42-1.42A1.43,1.43,0,0,1,844,633Z" style="fill:#09ffff;fill-rule:evenodd"/><path d="M1500.65,73.77a1.42,1.42,0,1,1-1.42-1.42A1.43,1.43,0,0,1,1500.65,73.77Z" style="fill:#0998e3;fill-rule:evenodd"/><path d="M1167.88,260.35a1.42,1.42,0,1,1-1.41-1.42A1.41,1.41,0,0,1,1167.88,260.35Z" style="fill:#0998e3;fill-rule:evenodd"/><path d="M805.92,192.39A1.42,1.42,0,1,1,804.5,191,1.42,1.42,0,0,1,805.92,192.39Z" style="fill:#0998e3;fill-rule:evenodd"/><path d="M1702.93,61.07a1.42,1.42,0,1,1-1.42-1.42A1.43,1.43,0,0,1,1702.93,61.07Z" style="fill:#0998e3;fill-rule:evenodd"/><circle cx="879.35" cy="266.55" r="1.42" style="fill:#0998e3"/><path d="M1011.16,650.62a1.42,1.42,0,1,1-1.42-1.42A1.42,1.42,0,0,1,1011.16,650.62Z" style="fill:#0998e3;fill-rule:evenodd"/><path d="M1801,42.8a1.42,1.42,0,1,1-1.41-1.42A1.42,1.42,0,0,1,1801,42.8Z" style="fill:#0998e3;fill-rule:evenodd"/><path d="M899.33,91.71a1.42,1.42,0,1,1-1.42-1.42A1.43,1.43,0,0,1,899.33,91.71Z" style="fill:#0998e3;fill-rule:evenodd"/><path d="M891.53,465a1.42,1.42,0,1,1-1.42-1.42A1.42,1.42,0,0,1,891.53,465Z" style="fill:#0998e3;fill-rule:evenodd"/><circle cx="1493.88" cy="454.41" r="1.42" style="fill:#0998e3"/><path d="M723.68,257.6a1.42,1.42,0,1,1-1.42-1.42A1.41,1.41,0,0,1,723.68,257.6Z" style="fill:#0998e3;fill-rule:evenodd"/><path d="M755.83,56a1.42,1.42,0,1,1-1.41-1.42A1.42,1.42,0,0,1,755.83,56Z" style="fill:#0998e3;fill-rule:evenodd"/><path d="M1378.36,391.83a1.42,1.42,0,1,1-1.41-1.41A1.41,1.41,0,0,1,1378.36,391.83Z" style="fill:#0998e3;fill-rule:evenodd"/><path d="M947.1,156a1.42,1.42,0,1,1-1.41-1.42A1.41,1.41,0,0,1,947.1,156Z" style="fill:#0998e3;fill-rule:evenodd"/><path d="M1278.46,494.1a1.42,1.42,0,1,1-1.42-1.42A1.43,1.43,0,0,1,1278.46,494.1Z" style="fill:#0998e3;fill-rule:evenodd"/><path d="M1517.1,163.05a1.42,1.42,0,1,1-1.42-1.41A1.42,1.42,0,0,1,1517.1,163.05Z" style="fill:#09b9ea;fill-rule:evenodd"/><path d="M1586.59,174.83a1.42,1.42,0,1,1-1.41-1.42A1.41,1.41,0,0,1,1586.59,174.83Z" style="fill:#0998e3;fill-rule:evenodd"/><path d="M1423.42,542.24a1.42,1.42,0,1,1-1.42-1.42A1.43,1.43,0,0,1,1423.42,542.24Z" style="fill:#0998e3;fill-rule:evenodd"/><path d="M837.4,215.85a1.42,1.42,0,1,1-1.41-1.41A1.41,1.41,0,0,1,837.4,215.85Z" style="fill:#09ffff;fill-rule:evenodd"/><path d="M1290.29,234.33a1.42,1.42,0,1,1-1.42-1.41A1.42,1.42,0,0,1,1290.29,234.33Z" style="fill:#09ffff;fill-rule:evenodd"/><path d="M955.53,54.62a1.42,1.42,0,1,1-1.42-1.42A1.43,1.43,0,0,1,955.53,54.62Z" style="fill:#09ffff;fill-rule:evenodd"/><path d="M716.37,161.64a1.42,1.42,0,1,1-1.41-1.42A1.41,1.41,0,0,1,716.37,161.64Z" style="fill:#09ffff;fill-rule:evenodd"/><path d="M1054.72,438.81a1.42,1.42,0,1,1-1.42-1.42A1.43,1.43,0,0,1,1054.72,438.81Z" style="fill:#92ffff;fill-rule:evenodd"/><path d="M1316.61,107.47a1.42,1.42,0,1,1-1.41-1.42A1.42,1.42,0,0,1,1316.61,107.47Z" style="fill:#09ffff;fill-rule:evenodd"/><path d="M1585.18,301.34a1.42,1.42,0,1,1-1.42-1.42A1.42,1.42,0,0,1,1585.18,301.34Z" style="fill:#09ffff;fill-rule:evenodd"/><path d="M977,443.46a1.42,1.42,0,1,1-1.42-1.42A1.43,1.43,0,0,1,977,443.46Z" style="fill:#09ffff;fill-rule:evenodd"/><circle cx="779.93" cy="455.83" r="1.42" style="fill:#09ffff"/><path d="M1583.76,34.53a1.42,1.42,0,1,1-1.42-1.42A1.43,1.43,0,0,1,1583.76,34.53Z" style="fill:#09ffff;fill-rule:evenodd"/><path d="M1167.1,134.54a1.42,1.42,0,1,1-1.42-1.41A1.42,1.42,0,0,1,1167.1,134.54Z" style="fill:#09ffff;fill-rule:evenodd"/><path d="M1119,215.85a1.42,1.42,0,1,1-1.42-1.41A1.42,1.42,0,0,1,1119,215.85Z" style="fill:#09ffff;fill-rule:evenodd"/><path d="M977.14,226.3a1.42,1.42,0,1,1-1.42-1.42A1.42,1.42,0,0,1,977.14,226.3Z" style="fill:#09ffff;fill-rule:evenodd"/><path d="M1018.14,463.55a1.42,1.42,0,1,1-1.42-1.42A1.42,1.42,0,0,1,1018.14,463.55Z" style="fill:#09ffff;fill-rule:evenodd"/><path d="M473.24,338.37a1.42,1.42,0,1,1-1.42-1.41A1.42,1.42,0,0,1,473.24,338.37Z" style="fill:#09b9ea;fill-rule:evenodd"/><path d="M384,280.34a1.42,1.42,0,1,1-1.42-1.41A1.42,1.42,0,0,1,384,280.34Z" style="fill:#0998e3;fill-rule:evenodd"/><path d="M317,248a1.42,1.42,0,1,1-1.41-1.42A1.42,1.42,0,0,1,317,248Z" style="fill:#0998e3;fill-rule:evenodd"/><path d="M233.76,183.27a1.42,1.42,0,1,1-1.42-1.42A1.43,1.43,0,0,1,233.76,183.27Z" style="fill:#095cc0;fill-rule:evenodd"/><path d="M148.05,77.26a1.42,1.42,0,1,1-1.42-1.42A1.43,1.43,0,0,1,148.05,77.26Z" style="fill:#095cc0;fill-rule:evenodd"/><circle cx="314.16" cy="28.79" r="1.42" style="fill:#095cc0"/><path d="M171.91,396.94a1.42,1.42,0,1,1-1.42-1.42A1.42,1.42,0,0,1,171.91,396.94Z" style="fill:#095cc0;fill-rule:evenodd"/><circle cx="404.24" cy="278.93" r="1.42" style="fill:#095cc0"/><path d="M417.39,17A1.42,1.42,0,1,1,416,15.55,1.42,1.42,0,0,1,417.39,17Z" style="fill:#095cc0;fill-rule:evenodd"/><circle cx="92.57" cy="167.98" r="1.42" style="fill:#0998e3"/><circle cx="167.42" cy="242.14" r="1.42" style="fill:#0998e3"/><path d="M187.4,67.29A1.42,1.42,0,1,1,186,65.88,1.42,1.42,0,0,1,187.4,67.29Z" style="fill:#0998e3;fill-rule:evenodd"/><circle cx="178.18" cy="440.55" r="1.42" style="fill:#0998e3"/><path d="M11.75,233.18a1.42,1.42,0,1,1-1.42-1.42A1.42,1.42,0,0,1,11.75,233.18Z" style="fill:#0998e3;fill-rule:evenodd"/><path d="M43.9,31.62a1.42,1.42,0,1,1-1.41-1.41A1.41,1.41,0,0,1,43.9,31.62Z" style="fill:#0998e3;fill-rule:evenodd"/><path d="M235.17,131.58a1.42,1.42,0,1,1-1.41-1.42A1.42,1.42,0,0,1,235.17,131.58Z" style="fill:#0998e3;fill-rule:evenodd"/><path d="M125.47,191.44a1.42,1.42,0,1,1-1.41-1.42A1.42,1.42,0,0,1,125.47,191.44Z" style="fill:#09ffff;fill-rule:evenodd"/><path d="M243.6,30.21a1.42,1.42,0,1,1-1.42-1.42A1.42,1.42,0,0,1,243.6,30.21Z" style="fill:#09ffff;fill-rule:evenodd"/><path d="M342.79,414.39a1.42,1.42,0,1,1-1.42-1.41A1.42,1.42,0,0,1,342.79,414.39Z" style="fill:#92ffff;fill-rule:evenodd"/><path d="M254.33,379.15a1.42,1.42,0,1,1-1.41-1.41A1.41,1.41,0,0,1,254.33,379.15Z" style="fill:#09ffff;fill-rule:evenodd"/><path d="M69.42,431.41A1.42,1.42,0,1,1,68,430,1.43,1.43,0,0,1,69.42,431.41Z" style="fill:#09ffff;fill-rule:evenodd"/><path d="M5.9,357.25a1.42,1.42,0,1,1-1.42-1.41A1.42,1.42,0,0,1,5.9,357.25Z" style="fill:#095cc0;fill-rule:evenodd"/><path d="M2.82,202.45A1.42,1.42,0,1,1,1.4,201,1.42,1.42,0,0,1,2.82,202.45Z" style="fill:#0998e3;fill-rule:evenodd"/><path d="M21.39,27.61A1.42,1.42,0,1,1,20,26.19,1.43,1.43,0,0,1,21.39,27.61Z" style="fill:#0998e3;fill-rule:evenodd"/><path d="M13.58,400.86a1.42,1.42,0,1,1-1.41-1.41A1.41,1.41,0,0,1,13.58,400.86Z" style="fill:#0998e3;fill-rule:evenodd"/><path d="M455.17,110.13a1.42,1.42,0,1,1-1.42-1.42A1.42,1.42,0,0,1,455.17,110.13Z" style="fill:#09ffff;fill-rule:evenodd"/><path d="M407.08,191.44a1.42,1.42,0,1,1-1.42-1.42A1.43,1.43,0,0,1,407.08,191.44Z" style="fill:#09ffff;fill-rule:evenodd"/><path d="M265.21,201.88a1.42,1.42,0,1,1-1.42-1.42A1.43,1.43,0,0,1,265.21,201.88Z" style="fill:#09ffff;fill-rule:evenodd"/><path d="M318.41,398.36a1.42,1.42,0,1,1-1.42-1.42A1.42,1.42,0,0,1,318.41,398.36Z" style="fill:#09ffff;fill-rule:evenodd"/><path d="M1487.34,436.5a1.42,1.42,0,1,1-1.42-1.41A1.42,1.42,0,0,1,1487.34,436.5Z" style="fill:#09ffff;fill-rule:evenodd"/><path d="M1685.41,257.56a1.42,1.42,0,1,1-1.42-1.42A1.42,1.42,0,0,1,1685.41,257.56Z" style="fill:#0998e3;fill-rule:evenodd"/><path d="M1568.48,195a1.42,1.42,0,1,1-1.42-1.41A1.42,1.42,0,0,1,1568.48,195Z" style="fill:#0998e3;fill-rule:evenodd"/><path d="M627.39,49.9A1.42,1.42,0,1,1,626,48.48,1.43,1.43,0,0,1,627.39,49.9Z" style="fill:#0998e3;fill-rule:evenodd"/><path d="M1468.57,297.25a1.42,1.42,0,1,1-1.42-1.42A1.42,1.42,0,0,1,1468.57,297.25Z" style="fill:#0998e3;fill-rule:evenodd"/><path d="M1613.53,345.39a1.42,1.42,0,1,1-1.41-1.42A1.42,1.42,0,0,1,1613.53,345.39Z" style="fill:#0998e3;fill-rule:evenodd"/><path d="M1677.45,239.65a1.42,1.42,0,1,1-1.41-1.41A1.41,1.41,0,0,1,1677.45,239.65Z" style="fill:#09ffff;fill-rule:evenodd"/><path d="M1757.58,93.56a1.42,1.42,0,1,1-1.42-1.42A1.43,1.43,0,0,1,1757.58,93.56Z" style="fill:#09b9ea;fill-rule:evenodd"/><path d="M1827.08,105.34a1.42,1.42,0,1,1-1.42-1.42A1.43,1.43,0,0,1,1827.08,105.34Z" style="fill:#0998e3;fill-rule:evenodd"/><path d="M1825.66,231.85a1.42,1.42,0,1,1-1.42-1.42A1.43,1.43,0,0,1,1825.66,231.85Z" style="fill:#09ffff;fill-rule:evenodd"/><path d="M1809,125.49a1.42,1.42,0,1,1-1.42-1.42A1.42,1.42,0,0,1,1809,125.49Z" style="fill:#0998e3;fill-rule:evenodd"/><path d="M1854,275.9a1.42,1.42,0,1,1-1.41-1.42A1.41,1.41,0,0,1,1854,275.9Z" style="fill:#0998e3;fill-rule:evenodd"/><path d="M1917.93,170.16a1.42,1.42,0,1,1-1.41-1.42A1.42,1.42,0,0,1,1917.93,170.16Z" style="fill:#09ffff;fill-rule:evenodd"/><ellipse cx="1177.56" cy="315.07" rx="124.64" ry="125.71" transform="translate(122.11 924.94) rotate(-45)" style="mix-blend-mode:screen;fill:url(#Áåçûìÿííûé_ãðàäèåíò_550)"/><ellipse cx="1179.04" cy="309.8" rx="106.33" ry="107.24" transform="translate(126.21 924.33) rotate(-44.99)" style="mix-blend-mode:screen;fill:url(#Áåçûìÿííûé_ãðàäèåíò_558)"/><path d="M1085.6,310.18a92.79,92.79,0,1,0,185.57,0,95.55,95.55,0,0,0-.54-10.06,92.79,92.79,0,0,0-185,10.06Z" style="fill:#fff;fill-rule:evenodd"/><g style="opacity:0.2"><path d="M1201.82,372.91c-1.16,2.49-2,4.67-3.93,6.74-2.16,2.24-3.84,2.66-6.64,3.48-1.63.47-2,1-4,1a21.66,21.66,0,0,0-4.55-.05c-3,.66-4.51,3.27-7.81,3.45-3.14.17-5.15-.86-7.87-1.7-2.55-.78-5.53-1.89-7.9-2.79-2.59-1-4.9-1.67-7.58-2.53-2.88-.92-4.35-2.84-8-1.83-.22,1.34.11,3.46-1.54,4.13-1.13.46-3-.73-4.21-1.2-3.15-1.21-6-1.88-9-3.13-1.45-.6-2.5-.56-4-1.65s-2.92-1.83-4.38-2.81c-2.72-1.81-5.39-3.78-8.09-5.62-5.19-3.53-8.53-8.37-11.69-13.49a41.75,41.75,0,0,1-3.65-8.74c-1.28-3.78-.85-4.86,1.68-7.95,4.55,1.89,6.35-.92,5.09-5.78a33.76,33.76,0,0,1-.62-14.37c.17-.79.77-1.35.9-2.47a22.79,22.79,0,0,1,.22-3.39,19.19,19.19,0,0,0,.88-5.62c0-2.21-.31-4.62.25-6.75a14.42,14.42,0,0,0,.9-3.37,17.6,17.6,0,0,1,.22-4.24c1.09-3.75,4.52-4.8,7.62-5.87,2.11-.73,3.17-1.45,4.52,0s1.08,3.63,1.09,5.63c0,3.76-2.39,7.07-4.49,10.12-.93,1.35-2.57,2.66-2.33,4.53.13,1,1.4,1.18,1.32,2.21-.09,1.25-1.44,1.63-2.11,2.5-5.36,7,4.74,13.17,9.56,16.89,2.74,2.12,6.87,3.2,7.92,6.72,1.12,3.76-1.47,6.9-2.84,10.11-1.43,3.36-2.67,9.26-.58,12.41.89,1.35,2.62,2.15,4,2.79,2,.95,2.72,2.14,4.47,3.4a14.92,14.92,0,0,0,9.86,2.53,10.52,10.52,0,0,0,5.62-2.28c1.35-.94,3.16-2.66,4.75-3.11a17.45,17.45,0,0,1,3.15-.23c1.58-.19,1.89-.85,3.28-1.21,2.39-.61,4.09,1.08,6,2,1.59.8,3.47,2,5.4,1.45s4-1.68,5.81-2c4.29-.89,11.23-1.19,14.66,1.72,1.74,1.47,2.34,3.53,3.89,5.08S1201.36,369.46,1201.82,372.91Z" style="fill:#635eb0;fill-rule:evenodd"/><path d="M1116.41,275.13c4.11.08,7.9-3,11.26-5.34a21.31,21.31,0,0,0,7-7.87,25.06,25.06,0,0,0,.85-2.53c.07-.2,1.07-2.87,1.07-2.95,0-1.56-1.31-3.43-2.48-4.63-3.35-3.45-8.47-1-11.83,1.12a55.32,55.32,0,0,0-8.93,6.74c-1.29,1.24-3.07,2.35-4,3.91-1.21,2.05-.86,4.56-.83,7.05.06,3.8-4.92,8.18,1.1,9,2.37.33,9.61-1.66,10.15-4.51Z" style="fill:#635eb0;fill-rule:evenodd"/><path d="M1190.58,395.38c1,1.14,2.23.35,3.39,0a10,10,0,0,1,3.36-.55,27.28,27.28,0,0,0,7-.56c2.22-.55,4.34-.88,6.46-1.41.85-.21,1.65-.68,2.51-.86.53-.11,1.12.07,1.66,0,.25,0,.27-.35.45-.39.44-.09.85,0,1.28-.11a54.11,54.11,0,0,0,6-1.57,10,10,0,0,0,2.54-.81c.87-.53,2-1.12,2.83-1.69,3-2.24,6.35-4.12,9.11-6.9,2.61-2.61,5.29-5,8-7.44.64-.57,1.15-1.31,1.81-1.84a16.94,16.94,0,0,0,2.11-1.54,34,34,0,0,0,3.66-4.65c2.22-3.2,5.07-5.82,6.81-9.32.84-1.7,1.6-3.35,2.6-5a23.45,23.45,0,0,0,1.7-3.4c.34-.84,1-1.84,1.26-2.65.35-1.21.35-2.37.68-3.54.14-.51.48-.86.6-1.36s-.18-1.38,0-2,.49-.82.62-1.35-.19-1.38,0-2,.48-.82.61-1.35c.17-.72-.24-1.59-.06-2.31.13-.53.49-.79.61-1.35a9.46,9.46,0,0,0,0-2c0-1.45.5-2.56.58-3.94a18.7,18.7,0,0,0,0-4.23c-.12-.57-.48-.82-.61-1.36-.17-.73.18-1.48-.07-2.23-1.51-.39-1,2.82-1,3.61,0,1.45-.6,2.24-.57,3.65,0,1.74-.68,2-1.71,3.25a10,10,0,0,0-1.69,2.34c-.14.48-.13,1.25-.25,1.72a5.43,5.43,0,0,0-.28,1.69c0,1.37.1,2.06-1,2.94a8.52,8.52,0,0,1-2.93,1.58c-1.28.29-2.4.27-3.71.51-.59.11-.8.48-1.35.61-.71.17-1.47-.27-2.17.08a5,5,0,0,0-1.67,2.27,4.07,4.07,0,0,0,.44,3.24c.19.38.34.77.56,1.12s.78.82,1,1.24c1.06,1.95-.47,5.11-.89,6.76-.16.64-1.12,2.58-.6,3.16s3.72.08,4.33-.27c.34.71-.32,2.08-.53,2.83a13.6,13.6,0,0,1-1.2,3,12.41,12.41,0,0,1-4.58,4.14c-1.14.6-1.84.91-2-.62-.09-.7.11-1.08-.25-1.72-.25-.46-.71-.52-.89-1.08s.2-1.39,0-2c-.11-.46-.44-.75-.53-1.15-.31-1.33.2-2.83,0-4.17-.46-2.7-2.47-3.92-4.81-4.49a41.58,41.58,0,0,1-7-2.25,11.11,11.11,0,0,0-7.9-.7c-2.15.67-3.86,2-5.83,3a20.53,20.53,0,0,1-2.61,1c-1,.4-2.1.79-3.13,1.09-1.86.53-4,.84-5.71,1.86s-3.79,2.24-4.93,3.8-2.14,4.56-1.35,6.43c.6,1.42,2.73,2.65,3.75,3.84,1.73,2,1.27,3.37,0,5.46a12.81,12.81,0,0,0-1.49,2.59,14.12,14.12,0,0,0-.06,3.9,4.89,4.89,0,0,0,1,2.67c.55.84,1.84,1.36,2.28,2.21s0,1.15-.29,1.73c-.09.16-.37.21-.46.38-.21.4-.07.77-.24,1.16-.56,1.29-1.67,1.09-2.83,1.39a5.18,5.18,0,0,1-3.38-.26,6.09,6.09,0,0,0-1.66-.59c-.82-.13-1.22.32-1.82.44-1.39.29-2.18-.66-3.55-.73a3.29,3.29,0,0,0-2.65,1.28c-.71.72-1.71,1.9-1.59,3S1189.81,394.37,1190.58,395.38Z" style="fill:#635eb0;fill-rule:evenodd"/><path d="M1201.26,353.24a7.34,7.34,0,0,0-1-.48,13.8,13.8,0,0,1-3,2.72c-1.64,1-2.45.38-2.82-1.38-.2-.9.29-1.46.45-2.11s0-1.54.8-2c1.1-.65,4.3-.31,3.82,1.57Z" style="fill:#635eb0;fill-rule:evenodd"/><path d="M1255.21,280.75a1,1,0,0,0,1,.52,10,10,0,0,0,0-3.57c-.1-.52-.44-.78-.53-1.43s0-1-.11-1.58-.72-1.8-.87-2.5a11.65,11.65,0,0,0-.7-2.67c-.4-.91-.63-2.09-1-3.13a15.71,15.71,0,0,0-1.34-2.49c-1-1.7-1.89-3.36-3-5.07a33.75,33.75,0,0,0-6.78-8.41c-1-.81-2.06-1.42-3.06-2.13-.35-.24-.62-.63-1-.85s-.86-.32-1.15-.54c-.88-.64-3.41-3.19-4.56-2.58.8,2.09,2.17,4.18,3.17,6.22,1.15,2.36,3.32,2.26,5,3.94,2.71,2.62-1.8,3.72-3.36,4.75s-1.56,2.44-1.55,4.1a13.18,13.18,0,0,1-.56,4.21,16,16,0,0,0-.6,2l.06,1.15a.79.79,0,0,1-.46.66c-.35,1.6.31,2.55.86,3.93a9,9,0,0,0,2,3.67c1.1,1,2.32.68,3.8.7a7.25,7.25,0,0,0,2.24-.44c.56-.14,1.38-.47,1.81-.56.68-.13,1.33-.1,2-.25s.75-.55,1.69-.3,1.89,1.35,2.9,1.58c1.41.32,3-.34,4.43.07C1255.7,279.87,1255.74,280,1255.21,280.75Z" style="fill:#635eb0;fill-rule:evenodd"/><path d="M1150.08,352.5c1.63,0,3.76,1.84,4.73,3.24,1.32,1.91-1.14,3.88-2.52,4.83a15.24,15.24,0,0,1-3,1.63c-1,0-1.37-2.37-1.75-3.15-1.18-2.47.71-4.26,2.57-5.71Z" style="fill:#635eb0;fill-rule:evenodd"/><path d="M1142.11,356.27l.35.28c.54-1.19-.32-2.47-.41-3.59a3.47,3.47,0,0,0-2.49,2.26c0,1.38,2,1.46,3,1.47Z" style="fill:#635eb0;fill-rule:evenodd"/><path d="M1127.42,301.73c.47-2.05,3.34.23,4.1.94a6.53,6.53,0,0,1,1.37,1.57,6.13,6.13,0,0,1,.4,2.73c0,1,.43,1.87.43,2.94a11.17,11.17,0,0,1-.41,3.17,8,8,0,0,1-3.37,4.17,27.52,27.52,0,0,1-2.52,1.37c-1.09.58-1.11.85-2.25.26a14.15,14.15,0,0,1-3.72-2.36,19.64,19.64,0,0,1-3.25-3.88c-1.11-1.9.07-3.37,1-5a33.61,33.61,0,0,1,4.5-5.35,9.23,9.23,0,0,1,1.66-1.7C1126.49,300,1127.63,300.91,1127.42,301.73Z" style="fill:#635eb0;fill-rule:evenodd"/><path d="M1127.84,294.18l.34-.08c0-.55,1.2-2.3.43-2.81-.57-.38-1.48.78-1.81,1.19-.57.69-1.07,1.91-.34,2.66a1.06,1.06,0,0,0,1.8-1Z" style="fill:#635eb0;fill-rule:evenodd"/><path d="M1146.31,386.06a4,4,0,0,1,3.14-.8c1.07.24,1.9.61,2.94.79a20.59,20.59,0,0,1,6.51,2.52c2.62,1.61,7.21,6.16,2.77,8.45-1.8.93-4.05.76-6.13.79-1.07,0-1.65-.44-2.73-.42a12,12,0,0,1-3.15-.63,34.31,34.31,0,0,1-5.45-1.77,13.59,13.59,0,0,1-4.1-3.05,3.4,3.4,0,0,1-.2-5.14c.93-.95,1.74-.74,3-.74Z" style="fill:#635eb0;fill-rule:evenodd"/><path d="M1135,385.22a.66.66,0,0,0,.78.38c.46-1-1.9-2.46-2.57-2.79-1.11-.56-3.26-1.75-3.68.09-.27,1.2,1.06,2.8,2.1,3.39s3.49,0,3.79-1.49Z" style="fill:#635eb0;fill-rule:evenodd"/><path d="M1100.15,305.92l.35.08c.49,1.68-.27,3.36-.36,5s0,3.37,0,5v5a8.86,8.86,0,0,1-.09,2,7.88,7.88,0,0,0-.34.93,13.46,13.46,0,0,0,0,1.68,12.24,12.24,0,0,1-.09,2.43c0,.08-.29.82-.33.93-.16.48,0,.52-.3.95a2.8,2.8,0,0,1-3.49,1.26c-1-.52-1.82-1.33-2.9-1.79a5.43,5.43,0,0,1-3-2.94,23.35,23.35,0,0,1-1.24-3.79c-.12-.37-.37-.43-.46-.8s0-.8-.07-1.19a6.26,6.26,0,0,1-.34-.92c0-.29,0-.58,0-.87a.61.61,0,0,0-.35-.49,12.16,12.16,0,0,1-.08-2c-.06-.89-.38-1.6-.42-2.51s-.44-1.58-.43-2.52,0-1.68,0-2.52c0-1.68,0-3.36,0-5a8.25,8.25,0,0,1,.42-2.09c.17-.84.21-1.73.39-2.55.13-.57.64-1.22.77-1.75a5.38,5.38,0,0,1,.83-2,5.8,5.8,0,0,1,2.94-2.61,4.76,4.76,0,0,1,4.63.63,4.48,4.48,0,0,1,1.37,1.55c.1.34,0,.83.07,1.19a4.7,4.7,0,0,1,.32,1.35c0,1.62-.38,3.91,0,5.48.18.77.7,1.68,1,2.49C1099.32,306.52,1099.32,307.36,1100.15,305.92Z" style="fill:#635eb0;fill-rule:evenodd"/><path d="M1102.25,284.53c1.1-.35,1.68,2.14,1.68,2.93s.21,1.46-.4,1.91a3.45,3.45,0,0,1-2.14.21c-1.33-.39-1.22-2.29-1.24-3.37s1-2.81,2.52-2.52Z" style="fill:#635eb0;fill-rule:evenodd"/><path d="M1246.16,282.85c0-.11.06-.23.08-.34.43,0,.66-.38,1-.46a5.25,5.25,0,0,1,1.43,0,17,17,0,0,0,2.51-.43,10.44,10.44,0,0,1,1.48,0,4.19,4.19,0,0,1,1.14.33,5.28,5.28,0,0,1,2.43.71,11.7,11.7,0,0,1,2.93,3.74,10.63,10.63,0,0,1,1.68,5.29,3.58,3.58,0,0,1-.47,2.26,9.87,9.87,0,0,0-1.11,2c-.76,1.79-1.44,2.4-3.46,2.41-1.82,0-3.51-1-5-1.87a20.31,20.31,0,0,1-1.94-1.44,6,6,0,0,1-1.64-1.29c-1.07-1.49-1.24-3.41-1.67-5a7.36,7.36,0,0,1-.17-3.11c0-.18.25-.2.29-.34.09-.32,0-.66.08-1C1245.86,283.83,1246.31,283.39,1246.16,282.85Z" style="fill:#635eb0;fill-rule:evenodd"/><path d="M1241.55,286.2c1.07,0-.38-3-1.58-2.85-1,.14-1.92,1.81-2.16,2.68-1,3.76,4.65,4,4.58.59Z" style="fill:#635eb0;fill-rule:evenodd"/><path d="M1227.7,292.92c.09.88,1,1.42,1.16,2.19a2.43,2.43,0,0,1-.62,2.12c-.38.52-1.11,1.32-1.81,1.17s-1.11-1.1-1.65-1.51c-1.11-.83-3.06-1.67-1.7-3.35a3.61,3.61,0,0,1,2.31-1.06,3.17,3.17,0,0,1,2.73.86Z" style="fill:#635eb0;fill-rule:evenodd"/><path d="M1256.65,330.26c1.55.37,1.42-2,1.2-2.88a10.41,10.41,0,0,0-2-.51,6.14,6.14,0,0,0-2.43,1,2.84,2.84,0,0,0-1.16,3.67c.45.9,2.5,2.25,3.5,1.59s1.36-2.75,1.34-3.69Z" style="fill:#635eb0;fill-rule:evenodd"/><path d="M1138.33,240.05c.4-.76.68-1.09,0-1.68a2.07,2.07,0,0,0-2-.32,7.47,7.47,0,0,0-2.72,2.31,5.22,5.22,0,0,0-1.07,1.89,2.55,2.55,0,0,0,.64,1.69,28.54,28.54,0,0,0,2.53,2.51c1.21,1.24,2,.52,2.94-.63.78-.91,1.39-2,2.11-2.92a9.55,9.55,0,0,0,.85-1.69,2.45,2.45,0,0,0-.54-1.59,8,8,0,0,0-3.16-2.51Z" style="fill:#635eb0;fill-rule:evenodd"/><path d="M1128.26,243.41l.35.07a1.43,1.43,0,0,1-1.16,2.05c-1,.22-2.35-.19-2.57-1.06s.65-1.66,1.28-2.12c1-.73,1.88-.86,2.1.64Z" style="fill:#635eb0;fill-rule:evenodd"/><path d="M1134.56,350.82c-.13.41.38,1.58.51,2a16.39,16.39,0,0,0,.75,2,9.48,9.48,0,0,1,.63,2.1c.14.77.51,1.38.64,2.09.3,1.58-1.54,2.68-3,2.34a10.56,10.56,0,0,1-3.43-2c-.69-.49-.88-.39-1.27-1.25a16,16,0,0,1-.72-2.22,5.75,5.75,0,0,1-.44-2.07,11.11,11.11,0,0,1,.1-2.52c1-4,5.29-1.42,6.2,1.26Z" style="fill:#635eb0;fill-rule:evenodd"/><path d="M1122,378.09c.41-1.49-2.39-2.51-3.36-2.51-1.15,0-1.35.12-1.78,1.15a2.16,2.16,0,0,0,.1,2.41,4.7,4.7,0,0,0,4.8,1.44c1.76-.7,1-3-.6-3.33Z" style="fill:#635eb0;fill-rule:evenodd"/><path d="M1140,347.88a2.2,2.2,0,0,0,1.28-1.24c.11-.36,0-.79.07-1.18a4.77,4.77,0,0,0,.34-.93c0-.4-.12-.86,0-1.26s.38-.81.46-1.26c.14-.81-.18-1.71,0-2.52s.87-1.62.35-2.43-1.33-.6-2-.52a19.41,19.41,0,0,0-2.09.53,8.92,8.92,0,0,0-2.69,1.16c-1.18.79-2.45,1.69-2.78,3.13a12.84,12.84,0,0,0,.23,4.84,5,5,0,0,0,1.87,3.16c1.09.65,3.59.28,4.63-.22Z" style="fill:#635eb0;fill-rule:evenodd"/><path d="M1130.36,347v-.28c.38,2-2,1.81-2.53.3-.58-1.72,2.18-2.25,2.53-.44Z" style="fill:#635eb0;fill-rule:evenodd"/></g><path d="M-150.67,500.42s1160.89,41.36,1318.06,52.39,856.08-66.07,856.08-66.07L2022.26,1080h-2160Z" style="fill:#90ffff"/><path d="M-153.72,508.38s1160.89,41.36,1318.06,52.39,859.72-66.07,859.72-66.07L2019.21,1088h-2160Z" style="fill:url(#linear-gradient)"/><path d="M1380.73,554.06c-30,2-58.53,3.72-84.8,5,149.54,8.29,536.25,27.73,727.45,18.93l.22-27C1903.3,553.88,1537.08,561.69,1380.73,554.06Z" style="opacity:0.14;mix-blend-mode:multiply;fill:url(#Áåçûìÿííûé_ãðàäèåíò_276)"/><path d="M2023.68,540.43l.08-9.33c-55.91-2.32-148.51-6.77-223.49-13.26-17.81,1.76-36.25,3.56-55.16,5.38C1833.52,529.86,1946.48,537.64,2023.68,540.43Z" style="opacity:0.14;mix-blend-mode:multiply;fill:url(#Áåçûìÿííûé_ãðàäèåíò_276-2)"/><path d="M1329.72,630.31c232,38.31,65.35,0,65.35,0L976.49,579.38q-67.5,3.87-128.18,6.87C928.9,589.28,1145.1,599.82,1329.72,630.31Z" style="opacity:0.14;mix-blend-mode:multiply;fill:url(#Áåçûìÿííûé_ãðàäèåíò_276-3)"/><g style="opacity:0.33;mix-blend-mode:multiply"><polygon points="822.81 645.55 2062.64 573.14 2060.56 618.3 833.74 660.44 822.81 645.55" style="fill:#837700"/></g><path d="M1193.59,565.66q-39.55,2.72-77.33,5.17C1327.7,584,1844.33,614.32,2023.14,607l.13-16.45C1890.58,592.71,1355,599.09,1193.59,565.66Z" style="opacity:0.14;mix-blend-mode:multiply;fill:url(#Áåçûìÿííûé_ãðàäèåíò_276-4)"/><path d="M1270.47,560.23c-475.54,34.48-773.1,40.09-898.95,40.6L456,656.24l163.15-25.93s16.08-9.94,256-33.38c203.08-19.84,930.28-59.94,1148.71-71.78l.25-30.45S1520.25,550,1270.47,560.23Z" style="opacity:0.21;mix-blend-mode:screen;fill:url(#linear-gradient-2)"/><path d="M340,659.25l-38-58.72s317.53,6.9,968.46-40.3c-45.18,1.85-82.06,2.23-106.13.54-157.17-11-1318.06-52.39-1318.06-52.39L-140.79,1088h2160l2.8-342.59Z" style="opacity:0.5;mix-blend-mode:screen;fill:url(#linear-gradient-3)"/><path d="M554.61,597.74,299.38,524.92l-82.89-3.07c76.65,16.08,193.27,42.45,312.68,76.56Q541.54,598.1,554.61,597.74Z" style="opacity:0.14;mix-blend-mode:multiply;fill:url(#Áåçûìÿííûé_ãðàäèåíò_335)"/><path d="M910.05,583.07q23.07-1.25,47-2.59c-38-11.79-83.83-24-137.27-35.51-50.94-2.06-104.9-4.19-160.27-6.35C745.22,550.16,835.88,565.08,910.05,583.07Z" style="opacity:0.14;mix-blend-mode:multiply;fill:url(#Áåçûìÿííûé_ãðàäèåíò_335-2)"/><path d="M349.64,526.8c92.44,17.47,220.91,42.6,329.29,66.89l19.54-.76c-84.14-22.34-174.72-46-239.66-62C422,529.52,385.51,528.14,349.64,526.8Z" style="opacity:0.14;mix-blend-mode:multiply;fill:url(#Áåçûìÿííûé_ãðàäèåíò_335-3)"/><polygon points="692.42 655.5 2053.22 585.19 2053.22 744.43 692.42 655.5" style="fill:#1f225e"/><polygon points="692.42 660.35 2053.22 590.04 2053.22 749.28 692.42 660.35" style="fill:url(#linear-gradient-4)"/><g style="opacity:0.22;mix-blend-mode:multiply"><path d="M1824.69,641.3c-.57-6.15,106.16-10.54,127.53-3.16S1825.38,648.78,1824.69,641.3Z" style="fill:#ba4122"/></g><g style="opacity:0.22;mix-blend-mode:multiply"><path d="M1558,629.93c5.27-1.11,142.24-2.87,155.34.75S1536.43,634.47,1558,629.93Z" style="fill:#ba4122"/></g><g style="opacity:0.22;mix-blend-mode:multiply"><path d="M1707.16,623c-4.78-.86,66.71-6.64,77-4S1729.22,627,1707.16,623Z" style="fill:#ba4122"/></g><g style="opacity:0.44;mix-blend-mode:multiply"><polygon points="2053.22 654.84 969.06 648.24 969.06 669.66 2032.54 669.66 2053.22 654.84" style="fill:#ba4122"/></g><polygon points="-150.67 1011.92 440.12 980.9 555.93 898.18 888.88 891.6 1496.91 829.93 1327.32 1080 -137.74 1080 -150.67 1011.92" style="fill:url(#linear-gradient-5)"/><g style="opacity:0.44;mix-blend-mode:multiply"><polygon points="1076.4 937.01 165.06 1111.19 868.21 1068.45 1076.4 937.01" style="fill:#ba4122"/></g><g style="opacity:0.2;mix-blend-mode:multiply"><polygon points="548.96 921.9 649.75 896.33 555.93 898.18 440.12 980.9 -150.67 1011.92 -137.74 1080 418.35 1080 495.43 1045.96 548.96 921.9" style="fill:#ba4122"/></g><path d="M1148.09,949.88c86,81.58,49.66-120,49.66-120l-578.6,63.69S1070,875.79,1148.09,949.88Z" style="fill:#3d80d8"/><g style="opacity:0.22;mix-blend-mode:multiply"><path d="M861.31,926.9c-.56-17.39,106.17-29.81,127.54-8.93S862,948,861.31,926.9Z" style="fill:#ba4122"/></g><g style="opacity:0.22;mix-blend-mode:multiply"><path d="M997.12,911.28c-7.61-15.21,63.42-13.79,79.28,0S1003.32,923.69,997.12,911.28Z" style="fill:#ba4122"/></g><g style="opacity:0.22;mix-blend-mode:multiply"><path d="M721.37,969.32c3.48-14,70.32-10.2,82,0S717.24,986,721.37,969.32Z" style="fill:#ba4122"/></g><g style="opacity:0.22;mix-blend-mode:multiply"><path d="M787.55,921.11c-5-5.17,33.09-1.89,35.16,0S793.76,927.49,787.55,921.11Z" style="fill:#ba4122"/></g><g style="opacity:0.22;mix-blend-mode:multiply"><path d="M798.48,959.93c-5-5.17,33.09-1.89,35.16,0S804.69,966.31,798.48,959.93Z" style="fill:#ba4122"/></g><g style="opacity:0.22;mix-blend-mode:multiply"><path d="M998.1,928.8c-5-5.17,33.09-1.89,35.16,0S1004.31,935.18,998.1,928.8Z" style="fill:#ba4122"/></g><g style="opacity:0.22;mix-blend-mode:multiply"><path d="M-13.14,1053.65c-.57-17.4,106.16-29.82,127.53-8.94S-12.45,1074.79-13.14,1053.65Z" style="fill:#ba4122"/></g><g style="opacity:0.22;mix-blend-mode:multiply"><path d="M122.67,1038c-7.61-15.21,63.42-13.79,79.27,0S128.87,1050.43,122.67,1038Z" style="fill:#ba4122"/></g><g style="opacity:0.22;mix-blend-mode:multiply"><path d="M123.65,1055.54c-5-5.17,33.09-1.89,35.16,0S129.85,1061.92,123.65,1055.54Z" style="fill:#ba4122"/></g><polygon points="389.02 391.9 410.16 496.2 402.66 493.5 427.26 562.5 415.46 560 429.16 609.9 403.76 595.5 389.02 391.9" style="fill:#54b5ff"/><polygon points="224.81 205.13 263.18 356.7 251.56 352.8 285.88 455.5 274.82 462.01 255.34 391.17 224.81 205.13" style="fill:#54b5ff"/><polygon points="254.48 407.49 301.46 604.8 263.18 570.01 254.48 407.49" style="fill:#54b5ff"/><polygon points="271.41 476.04 305.96 533.7 303.95 534.5 271.41 476.04" style="fill:#54b5ff"/><polygon points="131.76 330.56 163.96 400.5 159.31 404.08 158.76 397.3 131.76 330.56" style="fill:#54b5ff"/><polygon points="144.93 373.44 157.76 409.33 156.91 411.3 172.46 470.1 166.46 476.04 172.46 499.56 155.66 498.9 144.93 373.44" style="fill:#54b5ff"/><path d="M177.06,566.37l-39-2.66-22.93-1.56-.42,0-1.86-.12-53.15-3.63,16.66-40.75,14.07-34.36L101,457.48,87.57,482.54l-.4.73-18-5.33,26-54.09,17.34-36.11-6.24-5,.07-.07c1.18-1.49,18-23,24.82-49.4q.35-1.35.66-2.67l27.46,64.68,2.19,5.18-2.1,3.66c-1.06-3.26-2.17-6.25-3.25-9-5.49-13.78-10.87-21.3-11.13-21.63l6.27,21.09.07.26,4.58,15.34-.26.5L161,436l7.49,35.32.24,1.07-3.7,3.27,1.25,9.48,1.32,9.85,1.67,12.58,7.12,53.53Z" style="fill:url(#Áåçûìÿííûé_ãðàäèåíò_88)"/><polygon points="303.95 534.5 292.98 539.7 271.41 476.04 303.95 534.5" style="fill:url(#Áåçûìÿííûé_ãðàäèåíò_88-2)"/><polygon points="179.25 570.01 57.07 565.24 90.44 483.27 115.68 489.56 126.93 451.45 125.72 485.55 168.46 471.3 168.69 472.36 164.99 475.63 166.24 485.11 167.56 494.96 179.25 570.01" style="fill:url(#Áåçûìÿííûé_ãðàäèåíò_88-3)"/><polygon points="95.11 423.85 112.45 387.74 106.21 382.7 118.3 390.08 151.2 394.53 151.27 394.79 155.84 410.13 155.59 410.63 160.96 435.96 95.11 423.85" style="opacity:0.5;mix-blend-mode:multiply;fill:url(#Áåçûìÿííûé_ãðàäèåíò_116)"/><path d="M295.73,602l-71-4.88-6.27,1V544l-3.07,15.57-7.16,36.65-.38,1.89-116.5,4.71c2.1-2.07,4.36-4.47,6.74-7.28a297.37,297.37,0,0,0,19-25.64l2.19-3.28c12.26-18.48,25.22-40.32,36.46-60.1,4.48-7.85,8.68-15.37,12.45-22.22,11.08-20.09,18.52-34.44,18.52-34.44l-9.9-3.28,1.56-4.71,22.49-74.08,8.69-28.68.05-.14-10.16,2.66,7-37.71L224,209.54l.09-.54.38-2,.33-1.86,1.13,5.3,30.45,142.05.19.9-.05,0-6.15-1.7,12.8,42.87,18,60.41L274.82,462l-20.34-54.52,12.35,56.29,19.05,86.64,7.8,35.56v.14Z" style="fill:url(#Áåçûìÿííûé_ãðàäèåíò_88-4)"/><polygon points="424.04 608.36 388.38 604.02 354 599.85 358.78 569.66 360.29 560.14 360.48 558.91 354.18 571.34 352.7 574.28 353.1 572.56 361.54 536.59 366.86 513.78 368.25 507.79 364.37 506.1 389.02 391.9 389.25 393.25 407 493.27 407.19 494.17 401.98 492.47 400.69 489.03 404.17 500.32 414.52 533.95 422.75 560.61 416.26 558.91 409.76 540.18 416.5 572.39 424.04 608.36" style="fill:url(#Áåçûìÿííûé_ãðàäèåíò_88-5)"/><path d="M285.88,550.42,134.22,559c4.47-7.85,52.45-109.17,52.45-109.17l-9.9-3.28,45.63,9.67,8.84-28.07,3.21,37.71,32.38-2.12Z" style="fill:url(#Áåçûìÿííûé_ãðàäèåíò_88-6)"/><path d="M263.18,394.53,200.82,367.8l8.69-28.68,19.3-4.81,27.58,18.17.19.9-.05,0-6.15-1.7Z" style="opacity:0.5;mix-blend-mode:multiply;fill:url(#Áåçûìÿííûé_ãðàäèåíò_116-2)"/><polygon points="424.04 608.36 388.38 604.02 354 599.85 358.78 569.66 360.29 560.14 380.16 523.68 382.56 567.61 416.5 572.39 424.04 608.36" style="fill:url(#Áåçûìÿííûé_ãðàäèåíò_88-7)"/><polygon points="1567.12 257.08 1540.16 328.5 1547.16 337.1 1501.56 461.7 1524.76 471.3 1497.45 574.6 1518.96 573.9 1567.12 257.08" style="fill:#54b5ff"/><path d="M1610.93,585.74l-37.7-3.71-22.18-2.17-.41,0-1.8-.17-51.39-5.06,16.11-56.79,13.61-47.9L1537.36,434l-13,34.92-.39,1-17.43-7.42,25.11-75.39,16.78-50.33-6-7,.06-.1c1.14-2.07,17.44-32,24-68.85.23-1.25.44-2.5.64-3.71l26.55,90.14,2.12,7.22-2,5.1c-1-4.54-2.1-8.71-3.15-12.55-5.31-19.22-10.51-29.7-10.76-30.16l6.07,29.4.06.36,4.42,21.39-.25.69,5.2,35.31,7.25,49.24.23,1.48-3.58,4.57,1.21,13.2,1.27,13.73,1.62,17.55,6.88,74.6Z" style="fill:url(#Áåçûìÿííûé_ãðàäèåíò_88-8)"/><polygon points="1485.7 543.56 1485.88 564.11 1487.31 561.2 1522.32 475.01 1485.7 543.56" style="fill:url(#Áåçûìÿííûé_ãðàäèåíò_88-9)"/><polygon points="1619.75 584.71 1494.69 589.74 1527.17 469.91 1579.69 474.59 1579.27 410.53 1593.51 461.61 1602.61 453.22 1602.84 454.7 1599.26 459.27 1600.47 472.47 1601.74 486.2 1619.75 584.71" style="fill:url(#Áåçûìÿííûé_ãðàäèåíò_88-10)"/><polygon points="1531.68 387.1 1548.46 336.77 1542.42 329.74 1554.11 340.02 1585.92 346.23 1585.99 346.59 1590.41 367.98 1590.16 368.67 1595.36 403.98 1531.68 387.1" style="opacity:0.5;mix-blend-mode:multiply;fill:url(#Áåçûìÿííûé_ãðàäèåíò_116-3)"/><path d="M1673.47,43.19l-31.16,194.56,15.58-9L1620.76,377.9l16.15,3.8-92.17,213.2s88.12-87.9,89-88.5,23.1-137.4,23.1-137.4l13.5-182.7Z" style="fill:#54b5ff"/><path d="M1742.37,593.75l-68.65-6.8-6.06,1.38V512.9l-3,21.72-6.93,51.08-.37,2.63-112.66,6.57c2-2.9,4.22-6.25,6.52-10.16,5.59-9.49,11.83-21.81,18.33-35.74.7-1.51,1.41-3,2.12-4.56,11.85-25.76,24.38-56.21,35.26-83.77,4.33-10.94,29.94-79,29.94-79l-9.57-4.56,1.51-6.57,21.74-103.25,8.41-40,0-.2-9.82,3.72L1656,178.3l17-131.57.09-.75.36-2.79.32-2.6,1.09,7.39,29.45,198,.18,1.25s0,0,0,0l-6-2.36,12.37,59.75,17.42,84.19-6.16,9.86-19.67-76,12,78.44,18.41,120.76,7.55,49.57v.19Z" style="fill:url(#Áåçûìÿííûé_ãðàäèåíò_88-11)"/><path d="M1740.39,571.41l-176.87.52c4.33-10.94,73.39-190.23,73.39-190.23l-9.57-4.56,44.13,13.46,8.54-39.12,3.1,52.56,31.32-3Z" style="fill:url(#Áåçûìÿííûé_ãðàäèåíò_88-12)"/><path d="M1710.89,304.57l-60.3-37.25,8.41-40,18.66-6.7L1704.33,246l.18,1.25s0,0,0,0l-6-2.36Z" style="opacity:0.5;mix-blend-mode:multiply;fill:url(#Áåçûìÿííûé_ãðàäèåíò_116-4)"/><polygon points="-137.74 1032.61 102.33 1019.36 115.42 1009.96 440.12 980.9 555.93 898.18 2021.92 869.22 2022.26 663.11 655.2 643.81 594.34 604.01 266.4 573.49 225.03 540 -137.74 521.79 -137.74 1032.61" style="fill:url(#linear-gradient-6)"/><g style="opacity:0.97;mix-blend-mode:multiply"><path d="M159.29,770.7s-2.24-12-38.32-27.6S16.66,761.17,16.66,761.17L51,730.5S-13.66,717-83.57,719.87s-87.32,63.5-87.32,63.5l27.34-83.25L15.79,689.56,140.56,723.1l35.6,34.8,8.91,55.1Z" style="fill:#837700"/></g><g style="opacity:0.33;mix-blend-mode:multiply"><polygon points="292.59 672.76 182.98 703.62 329.17 732.44 282.11 749.28 169.32 728.79 187.52 1003.5 169.32 1005.13 115.42 1009.96 16.66 829.93 -35.55 827.64 -66.11 777.2 -137.74 767.1 -137.74 703.62 81.92 623.68 292.59 672.76" style="fill:#837700"/></g><path d="M655.2,643.81l-18,12.43s464.53.1,619.82,2.71c191,3.21,765.22,20.55,765.22,20.55l0-16.39Z" style="opacity:0.53;mix-blend-mode:color-dodge;fill:url(#linear-gradient-7)"/><g style="opacity:0.33;mix-blend-mode:multiply"><polygon points="431.88 797.95 655.2 643.81 594.34 604.01 342.92 741.7 318.79 755.94 -156.18 669.66 -137.74 1032.61 102.33 1019.36 115.42 1009.96 440.12 980.9 555.93 898.18 1131.14 886.82 431.88 797.95" style="fill:#837700;opacity:0.8"/></g><g style="opacity:0.33;mix-blend-mode:multiply"><polygon points="266.39 573.49 225.03 540 -35.55 597.07 5.82 654.15 266.39 573.49" style="fill:#837700;opacity:0.8"/></g><path d="M2032.54,704.47s-791.15,20-1414.8-34.81l-77.37-36.09s-211.66,3.31-331-42.44L133.5,561.07s-136,6.1-283.17-21.07-21.22,33.49-21.22,33.49,98.81-14.84,233.92,5l121.33,22.63s224.33,35.65,303.12,60.54l81.06,42s1255.12,22,1530.87,73.48L564,726.67l1629.19,83.5-13.79,41S1165.83,863.49,514,741.24l-83.67-43.66-323-73.9L33.49,597.07-165.83,585.9l16.16,14.63L-2.91,610.72-19.69,619l-136.49-8.27V619L23.05,630.31h72.3L194.64,659s134.49,23.33,207.56,50.28l90.54,46.71S1445.2,917.51,2138,875.79,2032.54,704.47,2032.54,704.47Z" style="opacity:0.14;mix-blend-mode:multiply;fill:url(#Áåçûìÿííûé_ãðàäèåíò_276-5)"/><g style="opacity:0.63;mix-blend-mode:multiply"><polygon points="-137.74 723.9 -50.63 713.18 53.36 708.3 318.79 755.94 530.42 860.27 1131.14 886.82 555.93 898.18 440.12 980.9 115.42 1009.96 102.33 1019.36 -137.74 1032.61 -137.74 723.9" style="fill:#2d4085"/></g><g style="opacity:0.33;mix-blend-mode:multiply"><polygon points="43.65 829.93 -18.31 823.96 -42.21 777.2 -137.74 761.17 -137.74 767.1 -66.11 777.2 -35.55 827.64 16.66 829.93 115.42 1009.96 169.32 1005.13 115.42 990.33 43.65 829.93" style="fill:#837700"/></g><g style="opacity:0.33;mix-blend-mode:multiply"><polygon points="102.33 1019.36 -19 911.28 -102.41 919.02 -41.75 838.9 -103.1 903.7 -137.74 805.43 -137.74 1032.61 102.33 1019.36" style="fill:#837700"/></g><path d="M373.25,1080s304.24-47.39,703.15-143c0,0,86.4-77.21,114-109.38,0,0-9.19-2.76-46.88,4.59,0,0,29.42-13.79,55.15-12.87,0,0-13.78-9.19-39.52-11,0,0,34.93-4.59,52.39,7.36,0,0,2.76-18.39,15.63-28.5,0,0-4.6,12.87-4.6,21.14l799.72-120.4V1080Z" style="fill:#00215e"/><path d="M456,1080s347.51-22.06,664.58-125l116.21-105.39s614.48-98.28,816.46-147.2-8.76,14.84-8.76,14.84-633,119.11-768.15,151.07l-120.37,101S806.17,1050.94,673.12,1088l73.58-8s253-67.87,446.22-95.61l99.25-108.6,651.44-129.06L1309.44,884,1205.38,989.45s-268.24,39-429.55,101.06S456,1080,456,1080Z" style="opacity:0.14;mix-blend-mode:multiply;fill:url(#Áåçûìÿííûé_ãðàäèåíò_305)"/><path d="M1218.06,802l2.65,10.45,55.6-7.73,266.78-31.33,88.61-26.68-409.16,61.6c0-8.27,4.6-21.14,4.6-21.14-12.87,10.11-15.63,28.5-15.63,28.5-17.46-12-52.39-7.36-52.39-7.36,25.74,1.84,39.52,11,39.52,11-25.73-.92-55.15,12.87-55.15,12.87,37.69-7.35,46.88-4.59,46.88-4.59l19.29,9.12L1188.76,822l22.53.34Z" style="fill:#0ea3d9"/><path d="M382.44,1078.53l-2.3,1.47,714.69-135.49L1076.4,937C717.88,1022.93,435.88,1069.9,382.44,1078.53Z" style="fill:#0ea3d9"/><polygon points="1314.91 1033.98 1343.87 900.25 2021.74 755.94 2022.26 1080 792.38 1080 1314.91 1033.98" style="fill:#857e2d;opacity:0.31;mix-blend-mode:multiply"/><polygon points="1314.91 1033.98 792.38 1080 2022.26 1080 2021.74 755.94 1507.48 810.17 1476.68 793.56 1342.49 793.56 1276.31 804.74 1369.34 894.83 1343.87 900.25 1314.91 1033.98" style="fill:#2d4085;opacity:0.63;mix-blend-mode:multiply"/><path d="M1343.87,900.25l-153.5-72.61s-36.62,37.64-49,49.52c-16.12,15.47-65,59.86-65,59.86l238.51,97Z" style="fill:#857e2d;opacity:0.29;mix-blend-mode:multiply"/><path d="M1276.31,1088,1558,993.79,1378.37,955l190.23,28-160.77-38.6,169,31.71,31.71-64.8,424-105.94,11.92,4.83s-353.15,80.43-393.14,101.11,393.14-44.12,393.14-44.12L2098,918l-642.53,185Z" style="fill:#857e2d;opacity:0.4;mix-blend-mode:multiply"/><polygon points="1402.32 1087.96 1576.87 995.64 1609.96 944.37 2044.46 899.63 2032.54 1087.96 1402.32 1087.96" style="fill:#001c4f"/><polygon points="1609.96 944.37 1963.37 1017.44 2062.64 995.64 2060.56 1111.19 1402.32 1087.96 1576.87 995.64 1609.96 944.37" style="fill:#857e2d;opacity:0.29;mix-blend-mode:multiply"/><polygon points="2062.64 995.64 1963.37 1017.44 1744.87 1046.39 1596.83 1017.44 1732.48 1059.49 1614.76 1095.46 2077.54 1129.81 2062.64 995.64" style="fill:#857e2d;opacity:0.29;mix-blend-mode:multiply"/><polygon points="1697.28 1048.58 1681.47 1043.68 1569.98 1088.67 1518.51 1097.87 1661.92 1037.62 1650.2 1033.98 1459.68 1088.67 1464.28 1129.81 1614.76 1095.46 1697.28 1048.58 1697.28 1048.58" style="opacity:0.14;mix-blend-mode:multiply;fill:url(#Áåçûìÿííûé_ãðàäèåíò_306)"/><polygon points="1732.48 969.7 2073.67 937.01 2062.64 921.11 1712.77 965.63 1654.94 1028.81 1668.35 1031.43 1732.48 969.7" style="opacity:0.14;mix-blend-mode:multiply;fill:url(#Áåçûìÿííûé_ãðàäèåíò_305-2)"/><polygon points="2105.84 961.83 2105.84 954.97 1754.59 974.27 1694.99 1033.98 1692.08 1036.07 1706.78 1038.94 1767.82 977.01 2105.84 961.83" style="opacity:0.14;mix-blend-mode:multiply;fill:url(#Áåçûìÿííûé_ãðàäèåíò_305-3)"/><polygon points="1507.48 810.17 1568.14 829.93 1720.72 810.17 1766.68 824.88 1905.27 780.74 1936.72 783.37 2006.57 766.97 1987.86 693.1 1973.51 686.35 1963.37 669.66 1867.74 682.94 1856.75 699.88 1817.23 681.31 1680.28 697.12 1618.69 684.25 1565.38 741.24 1552.52 740.32 1507.48 810.17" style="fill:url(#linear-gradient-8)"/><polygon points="1568.14 829.93 1615.94 755.94 1558.03 749.28 1621.45 748.59 1654.54 705.39 1691.31 705.39 1712.45 755.94 1752.89 760.54 1777.71 716.42 1862.27 705.39 1930.29 732.96 1868.7 694.36 1941.32 705.39 1963.37 669.66 1973.51 686.35 1987.86 693.1 2006.57 766.97 1936.72 783.37 1905.27 780.74 1766.68 824.88 1720.72 810.17 1568.14 829.93" style="fill:#856b3b;opacity:0.36;mix-blend-mode:multiply"/><polygon points="1507.48 810.17 1548.84 758.24 1615.94 755.94 1558.03 749.28 1567.22 743.99 1646.27 701.25 1686.71 701.25 1691.31 705.39 1752.89 760.54 1777.71 716.42 1721.64 701.25 1811.71 687.92 1862.27 705.39 1904.45 716.77 1868.7 694.36 1873.76 687.92 1948.64 693.53 1963.37 669.66 1867.74 682.94 1856.75 699.88 1817.23 681.31 1680.28 697.12 1618.69 684.25 1565.38 741.24 1552.52 740.32 1507.48 810.17" style="fill:#8abdde;opacity:0.39;mix-blend-mode:color-dodge"/><polygon points="1631.7 814.23 1676.96 739.91 1676.96 775.61 1712.45 755.94 1752.89 760.54 1767.82 814.23 1876.06 726.61 1900.87 752.73 1930.29 732.96 1936.72 783.37 1905.27 780.74 1872.78 739.91 1766.68 824.88 1720.72 810.17 1675.54 804.74 1631.7 814.23" style="fill:#856b3b;opacity:0.15;mix-blend-mode:multiply"/><polygon points="1276.31 804.74 1328.7 840.13 1381.09 822.43 1381.09 804.74 1476.68 793.56 1451.87 759.47 1447.27 726.61 1355.36 726.61 1292.86 755.11 1276.31 804.74" style="fill:url(#linear-gradient-9)"/><polygon points="1328.7 840.13 1342.49 793.56 1305.72 759.99 1347.09 783.37 1363.63 755.11 1395.8 755.11 1390.29 776.25 1435.32 759.99 1447.27 726.61 1451.87 759.47 1476.68 793.56 1381.09 804.74 1381.09 822.43 1328.7 840.13" style="fill:#856b3b;opacity:0.36;mix-blend-mode:multiply"/><polygon points="1276.31 804.74 1297.91 763.3 1342.49 793.56 1305.72 759.99 1353.06 735.26 1362.25 749.8 1397.18 746.73 1391.2 731.13 1435.32 759.99 1447.27 726.61 1355.36 726.61 1292.86 755.11 1276.31 804.74" style="fill:#8abdde;opacity:0.39;mix-blend-mode:color-dodge"/><polygon points="1381.09 804.74 1390.29 776.25 1469.15 790.49 1381.09 804.74" style="fill:#856b3b;opacity:0.15;mix-blend-mode:multiply"/><path d="M917.57,0l61.59,114.3V98.09s-18.52-28.17,0-37.79,140.4,25.8,140.4,25.8Z" style="fill:#54b5ff"/><path d="M1040.72,129.55s26-14.05,29-15.25,56.4-26.4,81.6-24,120.83,7.87,208.14,39.25c24.36,8.75,71.19,73.35,71.19,73.35l-7.83-14.3-23.1-37.4L1371,122,1189.76,80.34l-66.6,6.36-64.8,27Z" style="fill:#54b5ff"/><path d="M2027.86,22.71c-23,74.58-398.23,275.45-398.23,275.45l10.85,4.07s115.25-59.67,123.39-59.67,24.4,10.85,9.49,42-257.63,200.68-257.63,200.68l-12.2,10.85s204.74-138,226.44-151.53-25.43,134.24-25.43,134.24S1773.36,248,1816.75,210,2049.56,33.9,2049.56,33.9Z" style="fill:#13001f;fill-rule:evenodd"/><path d="M110.68,71.85c-43.57,65.32-144.3,95.74-144.3,95.74l6.35,3.58,98-46.53Z" style="fill:#13001f;fill-rule:evenodd"/><path d="M1896,228.82c-3.92,43.4-6.52,87.56-6.52,128.29,0,3.84,0,7.65.08,11.42,1.64,130.63,16.73,292.61,23.84,367.79,1.79,19.16,3.11,32.67,3.51,38.6.59,7.91-.25,35.64-1.79,71.86,0,.76-.07,1.53-.07,2.3-.11,1.65-.19,3.34-.26,5-.11,3.11-.26,6.3-.4,9.52-1,23.33-2.27,49.15-3.56,75-3.4,68-7.17,135.83-8.35,157.25,0,.51-.07,1-.11,1.43-.18,3.59-.29,5.53-.29,5.53h-9.48l-22.16,0h-77.64l-34.13,0h-60.94l-25.67,0c2.2-.33,4.54-1.8,7-4.29.44-.44.88-.91,1.32-1.42,8.2-9.23,17.54-29,27.1-54.72.66-1.68,1.28-3.4,1.94-5.16,8.53-23.59,17.21-51.64,25.42-80.94,8.79-31.38,17-64.23,23.8-94.55v0c3.88-17.21,7.29-33.65,10.14-48.52,1.32-6.89,2.53-13.41,3.56-19.52,0-.15,0-.26,0-.33a.27.27,0,0,0,0-.15c2.75-16,4.5-29.33,5.09-38.6,1.28-21.6,1.79-73.39,1.83-134v0l-.07-51.23c-.07-37-.29-75.08-.51-110-.08-7.77-.11-15.38-.19-22.78-.51-67.82-1.06-119.09-1.06-119.09l6.78-79.47,7.87-92.55,3.3-38.56L1804.91-4l48.78-7.88,8.49-1.39,30.88-5,.36-.07,38-6.11s-.44,2.19-1.17,6.33C1927.33-2.48,1919.57,41,1911.59,97c-.48,3.33-1,6.74-1.43,10.18-1.69,12.2-3.37,24.9-5,38v.19c0,.4-.15,1.39-.33,2.78,0,.33-.07.66-.11,1-1.76,13.84-3.44,28.12-5,42.63C1898.4,204,1897.16,216.37,1896,228.82Z" style="fill:#13001f;fill-rule:evenodd"/><path d="M1915.14,846.78c0,.76-.07,1.53-.07,2.3-.11,1.65-.19,3.34-.26,5-.11,3.11-.26,6.3-.4,9.52-.63-3.15-1.25-6.26-1.91-9.41-.33-1.61-.66-3.22-1-4.8-.14-.77-.29-1.54-.44-2.27-3.55-16.84-7.28-33.54-11.13-49.77,0,0,0-.07,0-.11a6.23,6.23,0,0,0-.14-.62c-.11-.44-.22-.84-.33-1.28s-.15-.59-.22-.92c-6.59-27.87-13.37-54.05-19.45-76.39v0c-1-3.84-2-7.58-3-11.17-3.4-12.41-6.48-23.29-9.12-32.26a4.83,4.83,0,0,1-.18-.62.12.12,0,0,0,0-.08,1.21,1.21,0,0,1-.07-.29c0-.11,0-.22-.07-.29a5.32,5.32,0,0,1-.15-.55.37.37,0,0,1,0-.18.7.7,0,0,1-.07-.22s0-.08,0-.08a.62.62,0,0,0-.07-.29.13.13,0,0,0,0-.11v-.15l0,0v-.08s0,0,0,0v0c-2.2-7.62-4-13.66-5.2-17.8s-1.94-6.33-1.94-6.33l-20.87-48.67a0,0,0,0,1,0,0l-9.93-23.18-50-116.42c-.08-7.77-.11-15.38-.19-22.78,10.88,28.67,28.57,72.44,46.84,105.62l.08.11,0,.07a.54.54,0,0,1,0,.15c2.23,4,4.47,7.87,6.66,11.5q4,6.65,7.91,12.78c1.94,3.07,3.85,6.08,5.72,9,.91,1.43,1.83,2.82,2.71,4.21,6.08,9.27,11.68,17.54,16.7,24.68s9.44,13.22,13.07,18.09l0,0,1.24,1.65c3.33,4.43,5.9,7.73,7.62,9.85l1.39,1.76.88,1.13,0,0s0,.11.07.33,0,.11,0,.18.07.22.11.37l.07.29a1.63,1.63,0,0,0,.07.33c.08.4.19.84.33,1.39.08.26.11.52.19.81l23,95.65c1.79,19.16,3.11,32.67,3.51,38.6C1917.52,782.83,1916.68,810.56,1915.14,846.78Z" style="fill-rule:evenodd;opacity:0.4;mix-blend-mode:multiply;fill:url(#Áåçûìÿííûé_ãðàäèåíò_6)"/><path d="M1905.15,145.2a.08.08,0,0,1,0,0v0s0,.07,0,.12c-.34,3.18-4.73,43.87-5.41,46.4h0c-.29,1.07-12.77,32.66-27.48,71.29-20.86,54.72-46.2,123.56-47.71,139.74-2.58,27.59,16,71.49,16,76.09,0,1.19.6,9.31,1.5,20.71h0c1.82,22.87,4.8,58.91,6.45,78.59,0,.51.08,1,.12,1.48h0c.15,1.8.29,3.45.41,4.91.39,4.75.63,7.57.63,7.57l-17.38-25.61V481.85s-17-56-17-83.2-22.84-251.53-23-253.44h0l3.29-38.56,62.89-113,3.81-6.86,30.88-5s-17.33,23.54-35.77,50.18h0c-19.72,28.49-40.69,60.53-43.09,71.12-1.08,4.76-1.86,15.39-2.41,28.9V132c-.47,11.51-.78,25.11-1,39v0c-.56,39.85-.23,81.7-.23,81.7s0,0,0,.06a.19.19,0,0,1,0,.07l.13.46.08.29s0,.11,0,.16c2.52,9.26,21.17,77.15,25,77.15.95,0,5.08-9.71,10.89-24.69C1866.39,255.71,1905.15,145.2,1905.15,145.2Z" style="fill-rule:evenodd;opacity:0.4;mix-blend-mode:multiply;fill:url(#Áåçûìÿííûé_ãðàäèåíò_6-2)"/><path d="M1870.46,1102.76a16.22,16.22,0,0,0-.4-4.76c0-.18-.08-.37-.11-.55-.08-.44-.19-1-.33-1.46-1.36-6.19-4.84-17.33-13.59-36.33a2,2,0,0,1-.18-.4c-.19-.33-.33-.7-.51-1l-5.68-16.85-7-16.26-23.81-55.37s-4.17-7.47-10.14-19.63c-.4-.84-.84-1.72-1.28-2.6,0,0,0,0,0-.07-2.16-4.4-4.47-9.38-6.92-14.72-.15-21-.26-47.17-.29-72.07a1.83,1.83,0,0,1,0-.66,23,23,0,0,1,0-2.35c-.11-35.56,0-68,.62-78.44,1.54-26.44-21.06-156.82-21.39-158.79v0l-.07-51.23c.14.66,8.35,42.92,16.51,88.91s16.3,95.59,16.3,111c0,11.43,10.77,43.33,24.39,85.15.26.77.51,1.5.73,2.27s.44,1.36.66,2,.33,1,.52,1.54v0c6.22,19.08,12.92,40,19.48,62,2.16,7.33,4.32,14.8,6.44,22.31.88,3.15,1.76,6.3,2.64,9.48,0,.07,0,.11,0,.15s0,.18.07.29c12,44.13,22.05,90.09,24.79,130.85v0c.26,3.62.44,7.17.55,10.73,0,.47,0,.95,0,1.42a4.11,4.11,0,0,1,0,.7c0,1.61.07,3.19.11,4.8h-22.16Z" style="fill-rule:evenodd;opacity:0.64;mix-blend-mode:multiply;fill:url(#Áåçûìÿííûé_ãðàäèåíò_6-3)"/><path d="M1870.46,1102.76v0l-16.55,0h-61.09l-34.13,0H1709.1c0-.08,1.07-1.69,2.79-4.47.25-.44.58-1,.88-1.47.69-1.1,1.43-2.3,2.23-3.66,4.83-7.87,12-19.81,19.34-32.74,12.78-22.6,26.18-48.27,28.75-60.94,1.79-9,6.44-26.48,10-46.18.22-1.13.4-2.31.62-3.48,0-.07,0-.11,0-.18v-.07c.07-.37.15-.74.22-1.14v0c6-35.3,7.91-75.88-15.27-86.79h0c-.69-.33,6.23-31.9,10.36-52-.11,1.17-.18,2.34-.22,3.48-.47,15.16,4.88,30.47,9.75,46.65,6.81,22.67,12.74,47.1.76,75.33a44.82,44.82,0,0,0,3.74,17.4,59.32,59.32,0,0,0,17.69,22.78s29.33,37.17,47.61,69.65l0,0s0,0,0,.07c2.56,4.54,4.87,9,6.89,13.26l.47,1.39,12.34,36.4.52,1.43.18.55Z" style="fill-rule:evenodd;opacity:0.64;mix-blend-mode:multiply;fill:url(#Áåçûìÿííûé_ãðàäèåíò_6-4)"/><path d="M1823.91,1102.73l-23.8,0h-7.29l-34.13,0v-.07c.26-2.93,6.48-79.58,9-86.1,2.27-5.9,5.38-56,6-67v-.07c.07-1.36.11-2.09.11-2.09l.11.91v0c.73,7.25,5.57,53.8,5.31,61.38C1779,1018.06,1823.91,1079.73,1823.91,1102.73Z" style="fill-rule:evenodd;opacity:0.64;mix-blend-mode:multiply;fill:url(#Áåçûìÿííûé_ãðàäèåíò_6-5)"/><path d="M1857.88,922c12.59,13.44,29.11-114.91,28.59-147.94s-19.71-102.57-19.71-102.57,31.09,117.15,33.15,125.75S1863,938.16,1867,954s11.92,79.75,11.92,79.75Z" style="fill:#be4a54;fill-rule:evenodd;opacity:0.7000000000000001;mix-blend-mode:multiply"/><path d="M1772.42,793.2c0,.07,0,.18,0,.33-.37,1.76-1.65,8-3.34,16A70.19,70.19,0,0,1,1772.42,793.2Z" style="fill-rule:evenodd;opacity:0.64;mix-blend-mode:multiply;fill:url(#Áåçûìÿííûé_ãðàäèåíò_6-6)"/><path d="M1779,326.92c-3.62,55.33,46.62,215.33,46.62,215.33l-46.3-112.74Z" style="fill:#aca3e0;fill-rule:evenodd;opacity:0.19;mix-blend-mode:screen"/><path d="M1866.94,252.16s-26.22,44-30.6,46.66-16.07-50-16.07-50L1811.79,132s-3.22,112.84-1.21,120.77,25.3,78.19,25.3,78.19Z" style="fill:#aca3e0;fill-rule:evenodd;opacity:0.19;mix-blend-mode:screen"/><path d="M1807.36,947.45C1838.16,1000.1,1900,1098,1900,1098h-36.07l-21.28-72.87Z" style="fill:#13001f;fill-rule:evenodd"/><path d="M1896,228.82c-3.92,43.4-6.52,87.56-6.52,128.29,0,3.84,0,7.65.08,11.42,1.64,130.63,16.73,292.61,23.84,367.79,1.79,19.16,3.11,32.67,3.51,38.6.66,9.12-.55,44.43-2.52,88.7-4.33,97.71-12.31,239.18-12.31,239.18h-31.64l-16.55,0,1.5-33.87v0l.4-9.23,0-.36,1.32-29.74v0l.73-16.08-19.48-153.33v0s7.28,1.25,26.47-16.59c.66-.62,1.36-1.24,2-1.9,16.41-15.71,12.64-94.85,10.33-127.3v-.11c-.11-1.46-.22-2.85-.29-4.1s-.18-2.23-.26-3.19c-.33-4.13-.55-6.51-.55-6.51a14,14,0,0,0,4,.44,46.76,46.76,0,0,0,12.42-2c9.81-2.71.33-47.1-2.35-58.93-.14-.55-.25-1-.33-1.39a1.63,1.63,0,0,1-.07-.33l-.07-.29c0-.15-.08-.26-.11-.37s0-.11,0-.18-.07-.33-.07-.33l0,0-.88-1.13-9-11.61-1.24-1.65,0,0L1849,584.64,1840,573l.18-6.44,1.87-66.91,3.85,75.88,2.6,2.71,35.74,37.35a201.47,201.47,0,0,0,0-23.36c-.7-14.83-9.56-160.59-9.56-160.59L1851.2,479.5c0-.15.77-2.46,2-6.27,5.83-18.6,22.42-73.46,21.5-92.47-.66-14.39-1.46-56.69-1.94-86.42-.15-7.84-.26-14.76-.33-20.11-.11-6.7-.18-10.87-.18-11.13l-5.64,9.78-3.44,6L1846,308.69l.74-2.45,4-13.11,0-.07,8.79-28.83v0l9.7-31.68,4.25-13.84,1.47-16.59-12.78,9.78s24.13-96.72,21.79-118.37.14-67.67-10.48-61.78c-10.32,5.79-53.36,59.18-55.37,61.71l0-.15,39-61.34c.11-.36,4.21-12,4.21-23.73,0-5.2-.81-10.4-3.12-14.61a17.57,17.57,0,0,0-4.68-5.46l8.49-1.39,30.88-5,.36-.07,38-6.11s-.44,2.19-1.17,6.33C1927.33-2.48,1919.57,41,1911.59,97c-.48,3.33-1,6.74-1.43,10.18-1.69,12.2-3.37,24.9-5,38v.19c0,.4-.15,1.39-.33,2.78-1.06,10-4.5,41.42-5.09,43.62C1898.4,204,1897.16,216.37,1896,228.82Z" style="fill-rule:evenodd;opacity:0.64;mix-blend-mode:multiply;fill:url(#Áåçûìÿííûé_ãðàäèåíò_6-7)"/><path d="M1669.67,78.83c0,28.31,44.89,101.65,72.58,132.05-19.23-17.91-39.26-41-52.33-56.77-3.45-4.14-6.41-7.8-8.76-10.69-1.32-1.65-2.41-3-3.33-4.18a1.3,1.3,0,0,0-.18-.25c-1.54-1.94-2.38-3-2.38-3l0,0c-.4.32-3,2.49-7,5.56v0c-1.68,1.32-3.59,2.78-5.67,4.36-1,.77-2.06,1.57-3.15,2.38-.48.36-1,.69-1.43,1.06-5.94,4.39-109.33,155-110.72,155.55-1.07.47,78.2-135.85,77.21-135.52-2.16.77-210.44,112.77-212.13,112.81,0,0,208.58-115.41,211.87-122,8.94-17.84,25.56-55.74,25.23-90.42a91.94,91.94,0,0,0-.87-12.35,74.85,74.85,0,0,0-1.47-7.39c-4.65-18.72-16.48-36.11-29-50.25a229.19,229.19,0,0,0-19.77-19.74l0,0a219.79,219.79,0,0,0-19-15.2l36.92-1.17,19.26-.63,10.15-.33s-1,7.29-1.8,17.58c-1.76,22.89-2.34,60.72,11.94,67.2A38.61,38.61,0,0,0,1665,50c33,5.64,229.44-2.69,229.44-2.69l84.4,5.08S1669.67,50.2,1669.67,78.83Z" style="fill:#13001f;fill-rule:evenodd"/><path d="M1911.48,490.62l.18-.21C1911.48,490.52,1911.48,490.62,1911.48,490.62Z" style="fill:url(#Áåçûìÿííûé_ãðàäèåíò_30)"/><path d="M1718.44,1110.49l-25.12,4.36-1.94.33-6.63,1.17-9.92,1.72-66.14,11.54s1.1-10.26,2.82-30.84c0-.48.11-1,.11-1.47,2.3-27.42,5.56-72.36,8.75-134.95.15-2.67.26-5.38.4-8.13q1.77-36.19,3.41-79.9c0-.44,0-.92,0-1.36q1.14-31.2,2.16-66.18,1.59-59.16,2.6-129.16.49-33.12.69-68.7c0-6.78.11-13.59.11-20.47q.49-108.76-1.39-239.51c-.11-6.08-.22-12.05-.33-18-.15-9.41-.33-18.57-.47-27.65-.92-49.11-1.95-93.61-3.08-133.89-.07-3.08-.15-6.12-.26-9.15-1.83-63.54-3.92-116.42-6.08-160.41q-.5-10.16-1-19.66c-.33-5.68-.62-11.14-.91-16.48-8.79-155.61-18.31-177.91-18.93-179.3l2.12,2L1636-179.95l21.86,20.14s1.76,54.2,4.69,140.26c.73,21.32,1.54,44.61,2.42,69.55,1,28.56,2.08,59.25,3.29,91.55v0c1.54,43.25,3.26,89.39,5.06,137.18.36,10,.76,20.15,1.13,30.36l.11,1.87.15,4.43.47,13.3.37,8.89.33,8.94.11,2.38c6,155.2,12.85,321,19.7,458.17.44,8.06.81,16,1.21,23.85.07,1.13.11,2.27.18,3.33.59,11.24,1.14,22.23,1.72,33,1.76,32.82,3.48,63.32,5.2,90.94q1.27,20,2.46,37.83c1,14.94,2,28.67,3,41,1.91,24.1,3.77,43.14,5.53,56,.18,1.28.37,2.53.51,3.66.11.51.19,1,.26,1.43.26,1.65.51,3.15.77,4.51A44.76,44.76,0,0,0,1718.44,1110.49Z" style="fill:#13001f;fill-rule:evenodd"/><path d="M1707.53,1064.46c-3,13.58-5.64,24.2-8,32.41-.15.51-.26,1-.4,1.42-.48,1.58-.92,3-1.36,4.44a119.91,119.91,0,0,1-4.43,12.12c-5.57,12.52-8.35,7.25-8.57,1.5l-9.92,1.72-66.14,11.54s1.1-10.26,2.82-30.84c0-.48.11-1,.11-1.47,2.3-27.42,5.56-72.36,8.75-134.95.15-2.67.26-5.38.4-8.13.63-3,1.28-5.93,2-8.82,4.72-20.91,8.75-46.07,12.09-72.07,10.18-78.48,14.17-164.58,12.34-164.58-2.42-.07-2.09-99-14.1-54.35-1.1,4.21-2.49,12.27-4.1,23.22q.49-33.12.69-68.7c12.71-98.73,23.81-192.82,25.67-205.41,4.55-30.29.37-69.26.37-69.26s8.53-98.76,2.16-98.84c-4.83,0-21.68,63.69-29.81,95.55-.15-9.41-.33-18.57-.47-27.65,7.65-21.09,34.68-96.72,34.75-104.81,0-1.5-1.47-20.14-4.32-49.11-2.13-21.68-5-49.15-8.54-79.54q-1.14-9.67-2.34-19.74c-2.75-22.45-5.79-46-9.15-69.8-.77-5.72-1.62-11.47-2.46-17.22-9.89-67.34-22.15-134-36.07-176.7L1636-179.95l21.86,20.14s1.76,54.2,4.69,140.26c.73,21.32,1.54,44.61,2.42,69.55,1,28.56,2.08,59.25,3.29,91.55v0c1.54,43.25,3.26,89.39,5.06,137.18q-1,33.68-2.09,70.43c-2.35,87.23-18.61,109.61-23.84,147.69-6.56,29.41,5.12,103.39-.37,128.58-8.83,40.47,41.24,163.66,48.67,181.64l1,2.2q.16,12.8.44,25c.08,3.11.11,6.22.19,9.3-7.48-16.7-21.65-47.5-24.36-47.5-1.61,0-7.91,29-14,75-3.37,25.48-6.7,56.17-9.08,90-3,41.82-4.54,88.44-3.11,136,0,.48,0,1,0,1.47q.33,11.42.92,22.89l2.93-22.93.22-1.43,17.58-137,3.88-30c.33,0,25.38-54.61,25.75-54.61-1,4.77,1.57,42.3,4.32,82.77,2.08,30.65,4.28,63,5.16,84C1708,1053.8,1708.08,1061.93,1707.53,1064.46Z" style="fill-rule:evenodd;opacity:0.64;mix-blend-mode:multiply;fill:url(#Áåçûìÿííûé_ãðàäèåíò_6-8)"/><path d="M213.93,175l-.09,0c-3.21-5.29-12.1-29.31-35.43-48.86a139.65,139.65,0,0,0-30.33-19.68c-8.85-4.13-24.12-6.24-34.27-7.73L101,99.13c6-1.62,13.14-2.09,21.83-1.07a110.11,110.11,0,0,1,17.9,3.57c-.95-3.61-1.63-6.29-1.63-6.29L98.88,67.9s-7.35,8.52-14.83,15.6L82.42-8.84l22.94.13C81.1,89.7,210.68,132.4,210.68,132.4l.09,1.09c-7-.67-15.32-1.93-23.6-3.44A120.32,120.32,0,0,1,213.93,175Z" style="fill:#13001f;fill-rule:evenodd"/><path d="M1619.6,232.83a4.49,4.49,0,0,0,.15.43c-47.45-20.41-210.39-105.5-342.37-133.5-43.7-9.29-85.4-14.76-122.49-13.85-28.1.69-63.92,15.45-88,25l-26.19,18.63c9.34-13,23.3-24,43.13-32.83a293.81,293.81,0,0,1,31.58-11.45s-93.77-45.19-129.77-32.42-2,28-6.56,55.28L886-55.39l32.07-17.19c64.23,201.79,449.29,142.9,449.29,142.9l4.79,3.05c-17,8.49-39.19,17.18-62.25,25.09C1449.89,138.77,1619.6,232.83,1619.6,232.83Z" style="fill:#13001f;fill-rule:evenodd"/><path d="M270.75,61.26c-7.18-5.85-13.55-10.88-13.55-10.88s1.57,20-3.34,37.63c-2.5,8.92-14.85,48.89-21.69,53.67C257,103.42,263.94,13.27,226.61-11l20.11-1.17c.57,43.7,21.58,70.12,35.44,82.83C278.69,67.71,274.6,64.37,270.75,61.26Z" style="fill:#13001f;fill-rule:evenodd"/><polygon points="117.26 -3.45 102.16 245.1 94.91 584.42 60.89 310.38 91.84 -58.23 117.26 -3.45" style="fill:#54b5ff"/><path d="M92.55,459.5c-.13,25.6.27,48.65,1,69.39,2,54.78,6.69,93.47,11.89,120.55.38,1.84.72,3.65,1.09,5.41.19.82.35,1.63.54,2.45,2,9.36,4,17.14,6,23.58a155.37,155.37,0,0,0,5.68,15.77c4.08,9.59,7,12.59,7,12.59l-2.43,0-10.1-.35-9.44-.31L87.91,708l-14-.44-26.79-.87-9.63-.32-31.85-1c.79-.47,1.62-2.63,2.45-6.23v0c2-8.49,3.94-25,5.86-47V652c3.87-43.53,7.6-108.38,10.85-173.83v-.08c.8-16.06,1.55-32.12,2.3-47.91,4.5-97.79,7.65-185.4,8.05-191.1a32.53,32.53,0,0,1,1.41-7.47c.43-1.44,1-2.89,1.52-4.33a90.21,90.21,0,0,1,3.76-8.39c.64-1.31,1.31-2.55,1.94-3.68.88-1.6,1.71-3,2.43-4.18l.64-1c.11-.16.19-.29.29-.45s.35-.55.48-.78.43-.66.59-.87a2,2,0,0,1,.16-.26l.11-.16L50,183l1.92-31.44.13-2,.45-7.15,2.91-47.1,1.78-29,2.11-82.59,2.16-85.56,0-.71,1.06-42.11,2.78-109.56,31.27-50,5.89-9.41,3.15-5,16-25.55,8.48-13.56s-.56,16.79-1.55,44.1C127.05-273.24,124.7-210,122-144.28c-1.87,45.45-3.9,92.13-6,133.27-1.84,37.74-3.68,70.86-5.38,94.12q-.48,6.67-1,13.49c-1,14-2,28.47-3,43.19-.38,5.91-.77,11.9-1.2,17.92-.67,10.1-1.31,20.32-2,30.6,0,.74-.1,1.52-.16,2.26-.18,3.26-.42,6.55-.61,9.83-.4,6.39-.77,12.8-1.15,19.24-.18,3.42-.42,6.84-.61,10.25-.16,2.68-.29,5.37-.48,8.07-.08,2.08-.21,4.18-.32,6.26-.29,4.68-.53,9.33-.77,14-.16,3-.35,6-.48,9-.27,5.13-.56,10.25-.83,15.38-.35,7.1-.67,14.14-1,21.21-.22,4.29-.4,8.6-.59,12.91,0,1.42-.13,2.84-.21,4.26-.11,2.91-.24,5.75-.35,8.64,0,1.27-.11,2.55-.16,3.87,0,.42,0,.89-.08,1.31-.08,1.82-.13,3.63-.21,5.42q-.17,4.22-.32,8.36c-.08,1.52-.14,3-.16,4.52q-.12,3.08-.24,6.07c-.06,1-.06,2-.11,3-.08,2-.13,4-.21,6l-.08,3c-.08,2-.16,4-.22,6,0,1,0,2-.08,3s-.08,2-.1,3c-.06,1.81-.14,3.65-.16,5.46-.08,3.1-.19,6.18-.27,9.23C93,419.33,92.63,440,92.55,459.5Z" style="fill:#13001f;fill-rule:evenodd"/><path d="M122.79-334.93l-.66,21.34-5.3,169.25L112.69-11.17l-1.13,36-19,69.31L66,191.4S47,222.77,38,227.31a87.47,87.47,0,0,1,3.77-8.38c.64-1.31,1.3-2.54,1.94-3.68.88-1.59,1.71-3,2.42-4.18.25-.38.45-.72.64-1,.1-.17.2-.31.3-.46s.34-.55.49-.79.41-.66.56-.87l.17-.24.1-.17L49.94,183c6.84-15.25,18.16-41.5,28.58-70.79,0-.07,0-.12,0-.14v0h0v0c.3-.82.59-1.67.89-2.49.85-2.49,1.74-5,2.57-7.47v0s0-.07,0-.1c4.29-12.69,8.33-25.79,11.69-38.62,2.6-10,4.81-19.79,6.4-29.19v0c.44-2.54.83-5.07,1.15-7.56.22-1.57.44-3.12.61-4.67v0c.76-6.14,1.45-17.91,2-33.55.59-15,1.08-33.49,1.47-54a.5.5,0,0,0,0-.17c.32-16.87.59-35.07.81-53.68,0-2.08,0-4.16.08-6.23.07-6.19.14-12.43.19-18.64.69-73.61.49-147.76-.61-169.2-.1-2.29-.22-4-.37-5a195.34,195.34,0,0,0-4-22.09l17.06-26,0,0,2.94,22.59Z" style="fill:#13001f;fill-rule:evenodd"/><path d="M110.68,83.11q-.48,6.67-1,13.49c-1,14-2,28.47-3,43.19-.38,5.91-.77,11.9-1.2,17.92-.67,10.1-1.31,20.32-2,30.6,0,.74-.1,1.52-.16,2.26A83.29,83.29,0,0,1,93.69,204c-9.43,9.94-8.45,117.66-8.45,117.66a5.61,5.61,0,0,1-.18.6c0,.11-.06.21-.08.32-.22.73-.54,1.84-.94,3.26-.13.5-.26,1-.45,1.55,0,0,0,.05,0,.1-2.85,10.31-9,32.52-13.62,52.78-.67,2.9-1.3,5.79-1.89,8.55-1,4.89-1.92,9.49-2.59,13.64-.08.45-.16.87-.21,1.23,0,.16,0,.35,0,.5s0,.16-.06.24,0,.13,0,.21,0,.08,0,.08a1,1,0,0,1,0,.31v0c0,.11,0,.18,0,.24a1,1,0,0,0,0,.18c-1.41,9.57-1.44,16,1,15.93,3.84-.08,9-10.59,13.81-23.24,3.65-9.54,7.07-20.29,9.6-28.65s4.13-14.32,4.13-14.32V533.7l-5.81-130s-7.81,6.78-17,21.52a177,177,0,0,0-18.52,41.59c-1.82,5.94-3.47,12.3-4.88,19.13-1.15,5.52-2.14,11.36-2.94,17.46-2.74,21-4.42,47.08-5.41,73.36-1.12,28.86-1.41,57.91-1.41,80.59,0,19.56.21,34.41.32,40.33,0,.47,0,.86,0,1.23,0,1,.05,1.55.05,1.55l-6.69,1-9.15,1.37h0L5.59,705.32s.32-2.13.9-5.91c1.36-8.7,4.11-26.18,7.41-47.32V652C22.67,596.16,35.58,514.91,38,503.55c3.09-14.43,28.42-127.14,37.43-167.09v0c1-4.34,1.76-7.83,2.29-10.23l.86-3.7s.4-8.78,1.22-23c1-16.14,2.45-39.35,4.56-64.61,1.89-23.24,4.29-48.24,7.23-71.21v0C96.49,125.09,102.84,92.24,110.68,83.11Z" style="fill-rule:evenodd;opacity:0.64;mix-blend-mode:multiply;fill:url(#Áåçûìÿííûé_ãðàäèåíò_6-9)"/><path d="M79.84,281.86V299.5S72,322,62.22,351.2c0,0,0,0,0,.05-15.72,46.91-36.4,111.1-37.43,126.88.78-16.05,1.54-32.12,2.28-47.93C31.75,423.63,45,386.53,57,351.1,66.36,323.45,75,296.77,78.4,286.4l.19-.67C79.4,283.24,79.84,281.86,79.84,281.86Z" style="fill-rule:evenodd;opacity:0.64;mix-blend-mode:multiply;fill:url(#Áåçûìÿííûé_ãðàäèåíò_6-10)"/><path d="M106,6.14C97.52,48,72.17,80.77,66,80.57s-8.87-14.26-8.87-14.26v26.5L66,104.16l34.17-70Z" style="fill:#13001f;fill-rule:evenodd"/><path d="M109.78-152.32C101.27-70.19,75.92-5.76,69.76-6.14s-8.87-28-8.87-28V17.91l8.87,22.27L103.93-97.38Z" style="fill:#13001f;fill-rule:evenodd"/><polygon points="39.03 576.8 22.81 696.12 39.04 706.37 39.03 576.8" style="fill-rule:evenodd;opacity:0.64;mix-blend-mode:multiply;fill:url(#Áåçûìÿííûé_ãðàäèåíò_6-11)"/><path d="M51,171.35C52.57,170,78.59,112,78.59,112L51.87,151.58Z" style="fill-rule:evenodd;fill:url(#linear-gradient-10)"/><path d="M34.21,287.58S55,204.21,85.48,182.72c-25.26,16.07-40,38.14-43.66,50.35S34.21,287.58,34.21,287.58Z" style="fill-rule:evenodd;fill:url(#linear-gradient-11)"/><path d="M85.24,321.67l-3.33,31.59s-10.8,28.77-12,27S85.24,321.67,85.24,321.67Z" style="fill:#e0c7a3;fill-rule:evenodd;opacity:0.19;mix-blend-mode:screen"/><path d="M66,392.21,67.33,390c-.93,6.15-1.69,11.12-2.07,13.64,0,.19-.06.36-.08.52s0,.15,0,.23l0,.21s0,.06,0,.09,0,.23,0,.32v0c0,.09,0,.17,0,.23l0,.19v0Z" style="fill-rule:evenodd;opacity:0.64;mix-blend-mode:multiply;fill:url(#Áåçûìÿííûé_ãðàäèåíò_6-12)"/><polygon points="159.29 709.25 147.15 710.7 131.34 712.58 127.69 713.02 126.27 713.18 106 715.6 105.24 713.18 103.77 708.52 100.97 699.7 90.95 667.87 82.66 641.58 98.42 647.01 105.46 649.43 105.48 649.43 116.61 667.7 142.84 693.22 159.29 709.25" style="fill:#13001f;fill-rule:evenodd"/><path d="M130.06-357.69s-.56,16.79-1.55,44.1C127.05-273.24,124.7-210,122-144.28c-1.87,45.45-3.9,92.13-6,133.27-1.84,37.74-3.68,70.86-5.38,94.12q-.48,6.67-1,13.49c-1,14-2,28.47-3,43.19-.38,5.91-.77,11.9-1.2,17.92-.67,10.1-1.31,20.32-2,30.6,0,.74-.1,1.52-.16,2.26-.18,3.26-.42,6.55-.61,9.83-.4,6.39-.77,12.8-1.15,19.24-.18,3.42-.42,6.84-.61,10.25-.16,2.68-.29,5.37-.48,8.07-.08,2.08-.21,4.18-.32,6.26-.29,4.68-.53,9.33-.77,14-.16,3-.35,6-.48,9-.27,5.13-.56,10.25-.83,15.38-.35,7.1-.67,14.14-1,21.21-.22,4.29-.4,8.6-.59,12.91,0,1.42-.13,2.84-.21,4.26-.11,2.91-.24,5.75-.35,8.64,0,1.27-.11,2.55-.16,3.87,0,.42,0,.89-.08,1.31-.08,1.82-.13,3.63-.21,5.42q-.17,4.22-.32,8.36c-.08,1.52-.14,3-.16,4.52q-.12,3.08-.24,6.07c-.06,1-.06,2-.11,3-.08,2-.13,4-.21,6l-.08,3c-.08,2-.16,4-.22,6,0,1,0,2-.08,3s-.08,2-.1,3c-.06,1.81-.14,3.65-.16,5.46-.08,3.1-.19,6.18-.27,9.23v131c2,54.78,6.69,93.47,11.89,120.55.38,1.84.72,3.65,1.09,5.41-2.42-2.63-4.69-4.75-6.31-6.25-.72-.66-1.36-1.21-1.82-1.58a7.86,7.86,0,0,0-.85-.76C97.35,644.81,82.1,539,80.45,510.81c-1.66-28.34-2.7-85.54-2.7-85.54h-7l9-27.1L79,382.4l-5.76-2-5.17,8.47L67.36,390c3-20,7.94-52.6,8.1-53.57v0c.19-1.45-2.24-7.07-2.24-7.07s-7.09,14.46-11,21.84c0,0,0,0,0,.05a40.65,40.65,0,0,1-2.34,4.08c-.06.05-.08,0-.08-.11,0-3,16.63-61.77,18.63-68.81l.22-.69,5.78-50.83.85-7.57,3.42-34,3-29.65v0c0-.31.21-3.44.48-8.22.24-4.08.5-9.31.8-15,.79-16.67,1.46-37.38.32-44.21a5,5,0,0,0-.62-2.08c-.88-1.16-2.45-.16-4.32,1.94-2.85,3.26-6.32,9-8.79,13.46-1.47,2.53-2.54,4.6-3,5.47.64-1.42,2.91-6.47,5.57-13,0,0,0-.08.06-.1.77-1.9,1.6-3.87,2.42-5.92C89.75,83,95.29,67.42,93.8,63.32,91.27,56.38,78.18,79.7,76.47,82.75L95.35,39.48l.18-.45c0-.13,2.08-20.34,5-51,1.49-15.64,3.17-34,5-53.89,2.18-24.73,4.48-51.75,6.53-78.51,5.71-74,9.65-145.86,5.09-162l-6.8-7.18-4.71-5a196.94,196.94,0,0,0-4-22.11l17.06-26,3,22.58Z" style="fill-rule:evenodd;opacity:0.64;mix-blend-mode:multiply;fill:url(#Áåçûìÿííûé_ãðàäèåíò_6-13)"/><path d="M148.17,715.61l-31-3.92a38.25,38.25,0,0,1-3.94-2.85L87.9,708l5.67,1.24-29.52,3.22-20.22-4.64-6.4-1.46-15.27-3.5h0l9.34-1.23,7.5-1,2.09-.28,6.31-.83,25.79-3.39s2.44-7.42,0-26.6c-1.51-11.88-7.72-46-12.23-70.35-2.78-15-4.91-26.16-4.91-26.16L73.23,637.3l24.33,42s8.88,2.15,15.5,1.59c5.14-.44,8.92-2.51,6.1-8.5a46,46,0,0,0-2.54-4.66c14.69,15.62,27.3,27.38,27.3,27.38Z" style="fill-rule:evenodd;opacity:0.64;mix-blend-mode:multiply;fill:url(#Áåçûìÿííûé_ãðàäèåíò_6-14)"/><path d="M93.57,709.25l-23.9,2.61h0l-5.59.6-6.64.73-100.94,11-23.41,2.56,16.3-13.58,4.73-3.94h10.12l.3-.08.17,0h.05l.07,0,.15-.05h.1l.34-.09.83-.22.88-.22.4-.1.49-.12.9-.21.22-.05c7.87-2,23.83-5.85,37.38-8.63.52-.12,1-.22,1.55-.31,6-1.24,11.37-2.2,15.25-2.66h0a29.19,29.19,0,0,1,4.75-.27c1,.07,2.46.29,4.34.58,1.6.27,3.46.58,5.54,1,.37.07.71.14,1.08.19,2.58.48,5.42,1,8.41,1.62,9.85,2,21.45,4.4,30.54,6.33h0c3.84.85,7.25,1.57,9.9,2.15C91.41,708.79,93.57,709.25,93.57,709.25Z" style="fill:#13001f;fill-rule:evenodd"/><path d="M93.57,709.25l-23.9,2.61h0l-5.59.6-6.64.73-100.94,11c3.7-3.07,5.73-7.71,6.76-11a27.08,27.08,0,0,0,1-3.94l.3-.08.17,0h.05l.07,0,.15-.05h.1l.34-.09.83-.22.88-.22.4-.1.49-.12.9-.21.22-.05a39.12,39.12,0,0,0,3.26,5,.87.87,0,0,0,.13.15c1.91,2.51,4.48,5.22,7.23,6.11,3.28,1.09,23.87-2.44,41.47-6.11,9.44-2,18-4,22.63-5.35A20,20,0,0,0,47,706.73s.07,0,.12-.05c2.72-1.49-1.4-4.13-5.93-6.3-.71-.34-1.4-.66-2.11-1L38,699c-3-1.28-5.57-2.2-5.57-2.2,1.6.27,3.46.58,5.54,1,.37.07.71.14,1.08.19,2.58.48,5.42,1,8.41,1.62,9.85,2,21.45,4.4,30.54,6.33h0c3.84.85,7.25,1.57,9.9,2.15C91.41,708.79,93.57,709.25,93.57,709.25Z" style="fill-rule:evenodd;opacity:0.64;mix-blend-mode:multiply;fill:url(#Áåçûìÿííûé_ãðàäèåíò_6-15)"/><path d="M192.25,754.81s-7,65.48-7.18,58.19l-15-53.71-30-32.53c-3.08-.35-34.21-7.18-54-11.45-8.43-1.83-14.8-3.18-16.18-3.43a.29.29,0,0,0-.16,0l-4.89-.59,9.08-3.7,4.15-1.7,8.75-3.56s6-1.14,14.2-2.6c3.43-.62,7.19-1.29,11.13-2l6.64-1.08c8.86-1.45,17.63-2.78,23.3-3.34l.81-.09a30.52,30.52,0,0,1,4.62-.18c5.8.51,13.85,9.93,20.95,20.06,2.3,3.21,4.46,6.5,6.45,9.61C175.38,723.52,192.25,754.81,192.25,754.81Z" style="fill:#13001f;fill-rule:evenodd"/><path d="M192.25,754.81s-7,65.48-7.18,58.19l-15-53.71-30-32.53c-3.08-.35-34.21-7.18-54-11.45a11.24,11.24,0,0,0-5.3-2.13c-4.4-.51-8.12-.95-10.88-1.3a.29.29,0,0,0-.16,0l-4.89-.59,9.08-3.7,4.15-1.7,8.75-3.56s6-1.14,14.2-2.6c3.43-.62,7.19-1.29,11.13-2,1.78,4.94,6,8.67,11.2,11.45a59,59,0,0,0,8,3.4c.65.22,1.24.41,1.89.6,1.13.38,2.24.67,3.32.94a103.69,103.69,0,0,0,16.77,3c1.08.14,7.21-1.62,14.82-3.91l.27-.08c2.3,3.21,4.46,6.5,6.45,9.61C175.38,723.52,192.25,754.81,192.25,754.81Z" style="fill-rule:evenodd;opacity:0.64;mix-blend-mode:multiply;fill:url(#Áåçûìÿííûé_ãðàäèåíò_6-16)"/><path d="M5.4,200.7h0c-19.43-13.47-19.93-26.1-74-44.58-17.9-6.13-35-9.74-50.18-9.13-11.51.45-26.18,10.19-36,16.5l-10.73,12.29a52.45,52.45,0,0,1,17.67-21.66,95.41,95.41,0,0,1,12.94-7.56s-38.41-29.82-53.16-21.4-.81,18.5-2.69,36.49L-228.91,53.73l13.14-11.34C-189.46,175.56-31.72,136.7-31.72,136.7l2,2a183.59,183.59,0,0,1-25.5,16.55C2.07,181.87,5.4,200.7,5.4,200.7Z" style="fill:#13001f;fill-rule:evenodd"/><path d="M303.77-7.08c157.92,44.29,239.6,146.3,239.6,146.3S493.9,66.29,387.72,4.55,429.47-39.3,429.47-39.3L480.29,64.5S444.9-16,448.53-28.56s68.06,26.85,81.68,44.74-1.82,94-1.82,94l2.72,6.26s5-57.71,9.53-59,88.49,31.31,103.47,61.74S672.24,201,672.24,201l2.27-8.51s-28.14-82.32-35.4-91.72S557.43,61.82,544.73,48.4s-8.17-58.17-8.17-58.17S493.45-49.59,420.85-48.69,303.77-7.08,303.77-7.08Z" style="fill:#13001f;fill-rule:evenodd"/><path d="M1359.5,121.55c44.75,25.42,71.19,81.35,71.19,81.35s-31-66.1-47.29-73.22S1359.5,121.55,1359.5,121.55Z" style="fill:#13001f;fill-rule:evenodd"/><path d="M477-16.28C410,81.15,371.79,193,371.79,311.93c0,377.63,384.42,683.76,858.64,683.76s858.64-306.13,858.64-683.76c0-118.94-38.17-230.78-105.25-328.21Z" style="fill-rule:evenodd;opacity:0.5;mix-blend-mode:screen;fill:url(#radial-gradient)"/><path d="M729.36,883.32a2.56,2.56,0,1,0,3.62-.24A2.57,2.57,0,0,0,729.36,883.32Z" style="fill:#a4fff9"/><path d="M1386.62,258a2.57,2.57,0,1,0,3.62-.24A2.57,2.57,0,0,0,1386.62,258Z" style="fill:#a4fff9"/><path d="M640.12,445.59a2.56,2.56,0,1,0,3.62-.25A2.55,2.55,0,0,0,640.12,445.59Z" style="fill:#a4fff9"/><path d="M16.18,525a4,4,0,1,0,5.63-.37A4,4,0,0,0,16.18,525Z" style="fill:#a4fff9"/><path d="M94,860.87a3.94,3.94,0,1,0,5.56-.37A4,4,0,0,0,94,860.87Z" style="fill:#a4fff9"/><path d="M1007.28,884.19a2.56,2.56,0,1,0,3.61-.25A2.54,2.54,0,0,0,1007.28,884.19Z" style="fill:#a4fff9"/><path d="M674.94,251.65a2.56,2.56,0,1,0,3.62-.25A2.57,2.57,0,0,0,674.94,251.65Z" style="fill:#a4fff9"/><path d="M565.78,308.69a2.57,2.57,0,1,0,3.62-.24A2.57,2.57,0,0,0,565.78,308.69Z" style="fill:#a4fff9"/><path d="M1225.93,196a2.57,2.57,0,1,0,3.62-.24A2.57,2.57,0,0,0,1225.93,196Z" style="fill:#a4fff9"/><path d="M397,373.3a3.94,3.94,0,1,0,5.57-.38A3.94,3.94,0,0,0,397,373.3Z" style="fill:#a4fff9"/><path d="M716.52,176a2.57,2.57,0,1,0,3.62-.24A2.57,2.57,0,0,0,716.52,176Z" style="fill:#a4fff9"/><path d="M1203,519.93a4.54,4.54,0,1,0,6.4-.43A4.53,4.53,0,0,0,1203,519.93Z" style="fill:#a4fff9;mix-blend-mode:soft-light"/><path d="M1372,436.64a4.54,4.54,0,1,0,6.4-.43A4.53,4.53,0,0,0,1372,436.64Z" style="fill:#a4fff9;mix-blend-mode:soft-light"/><path d="M1140.9,246.37a4.54,4.54,0,1,0,6.4-.43A4.53,4.53,0,0,0,1140.9,246.37Z" style="fill:#a4fff9;mix-blend-mode:soft-light"/><path d="M999,859.24a7,7,0,1,0,9.85-.66A7,7,0,0,0,999,859.24Z" style="fill:#a4fff9;mix-blend-mode:soft-light"/><path d="M1253.9,656.58a4.54,4.54,0,1,0,6.4-.43A4.54,4.54,0,0,0,1253.9,656.58Z" style="fill:#a4fff9;mix-blend-mode:soft-light"/><path d="M15.56,525a4.54,4.54,0,1,0,6.4-.43A4.53,4.53,0,0,0,15.56,525Z" style="fill:#a4fff9;mix-blend-mode:soft-light"/><path d="M1679.45,163.5a18.34,18.34,0,0,0,14.46,0Z" style="fill-rule:evenodd;mix-blend-mode:screen;fill:url(#radial-gradient-2)"/><path d="M1748.47,505.62a18.33,18.33,0,1,1,6.83-25A18.32,18.32,0,0,1,1748.47,505.62Z" style="fill-rule:evenodd;mix-blend-mode:screen;fill:url(#radial-gradient-3)"/><path d="M1523.51,573a6.61,6.61,0,1,1,2.47-9A6.6,6.6,0,0,1,1523.51,573Z" style="fill-rule:evenodd;mix-blend-mode:screen;fill:url(#radial-gradient-4)"/><path d="M69.27,1029.1a6.61,6.61,0,1,1,2.46-9A6.62,6.62,0,0,1,69.27,1029.1Z" style="fill-rule:evenodd;mix-blend-mode:screen;fill:url(#radial-gradient-5)"/><path d="M1699.26,474.87a8.46,8.46,0,1,1,3.15-11.53A8.47,8.47,0,0,1,1699.26,474.87Z" style="fill-rule:evenodd;mix-blend-mode:screen;fill:url(#radial-gradient-6)"/><path d="M1700,1020.18a8.46,8.46,0,1,1,3.16-11.53A8.46,8.46,0,0,1,1700,1020.18Z" style="fill-rule:evenodd;mix-blend-mode:screen;fill:url(#radial-gradient-7)"/><path d="M725.27,621.93a166.71,166.71,0,1,1,62.17-227.42A166.72,166.72,0,0,1,725.27,621.93Z" style="fill-rule:evenodd;opacity:0.2;mix-blend-mode:screen;fill:url(#radial-gradient-8)"/><path d="M1881.74,1080a127.59,127.59,0,0,0-206.17,0Z" style="fill-rule:evenodd;opacity:0.4;mix-blend-mode:screen;fill:url(#radial-gradient-9)"/><path d="M1997.42,342.46A60.47,60.47,0,1,1,2020,260,60.47,60.47,0,0,1,1997.42,342.46Z" style="fill-rule:evenodd;opacity:0.2;mix-blend-mode:screen;fill:url(#radial-gradient-10)"/><circle cx="839.46" cy="535.43" r="83.76" transform="translate(-132.74 750.41) rotate(-45)" style="opacity:0.2;mix-blend-mode:screen;fill:url(#radial-gradient-11)"/><path d="M1433.69,494a38.86,38.86,0,1,1,14.49-53A38.86,38.86,0,0,1,1433.69,494Z" style="fill-rule:evenodd;opacity:0.41000000000000003;mix-blend-mode:screen;fill:url(#radial-gradient-12)"/><path d="M1592.87,436.85a20.43,20.43,0,1,1,7.61-27.86A20.42,20.42,0,0,1,1592.87,436.85Z" style="fill-rule:evenodd;opacity:0.5;mix-blend-mode:screen;fill:url(#radial-gradient-13)"/><path d="M70.59,812.91a54.87,54.87,0,1,1,20.46-74.85A54.87,54.87,0,0,1,70.59,812.91Z" style="fill-rule:evenodd;opacity:0.5;mix-blend-mode:screen;fill:url(#radial-gradient-14)"/><path d="M1168.56,319.37a20.42,20.42,0,1,1,7.62-27.86A20.43,20.43,0,0,1,1168.56,319.37Z" style="fill-rule:evenodd;opacity:0.5;mix-blend-mode:screen;fill:url(#radial-gradient-15)"/></g></g></g></svg>