<svg xmlns="http://www.w3.org/2000/svg" xmlns:xlink="http://www.w3.org/1999/xlink" viewBox="0 0 1920 1080"><defs><style>.cls-1{fill:none;}.cls-2{isolation:isolate;}.cls-3{clip-path:url(#clip-path);}.cls-4{fill:url(#linear-gradient);}.cls-10,.cls-11,.cls-12,.cls-13,.cls-14,.cls-15,.cls-16,.cls-17,.cls-18,.cls-19,.cls-20,.cls-21,.cls-22,.cls-27,.cls-46,.cls-47,.cls-48,.cls-49,.cls-5,.cls-6,.cls-7,.cls-8,.cls-9{fill-rule:evenodd;}.cls-34,.cls-5{opacity:0.7;}.cls-5{fill:url(#linear-gradient-2);}.cls-6{fill:#61a8cd;}.cls-100,.cls-101,.cls-103,.cls-104,.cls-105,.cls-107,.cls-108,.cls-110,.cls-111,.cls-112,.cls-114,.cls-116,.cls-117,.cls-120,.cls-121,.cls-24,.cls-25,.cls-26,.cls-27,.cls-30,.cls-31,.cls-33,.cls-34,.cls-35,.cls-37,.cls-38,.cls-40,.cls-41,.cls-43,.cls-44,.cls-45,.cls-48,.cls-49,.cls-50,.cls-52,.cls-55,.cls-56,.cls-58,.cls-59,.cls-6,.cls-61,.cls-62,.cls-65,.cls-66,.cls-68,.cls-69,.cls-71,.cls-74,.cls-76,.cls-82,.cls-85,.cls-86,.cls-91,.cls-92,.cls-94,.cls-96,.cls-97,.cls-98{mix-blend-mode:multiply;}.cls-6,.cls-84{opacity:0.36;}.cls-7{fill:url(#linear-gradient-3);}.cls-8{fill:url(#linear-gradient-4);}.cls-9{fill:url(#linear-gradient-5);}.cls-10{fill:url(#linear-gradient-6);}.cls-11{fill:url(#linear-gradient-7);}.cls-12{fill:url(#linear-gradient-8);}.cls-13{fill:url(#linear-gradient-9);}.cls-14{fill:url(#linear-gradient-10);}.cls-15{fill:url(#linear-gradient-11);}.cls-16{fill:url(#linear-gradient-12);}.cls-17{fill:url(#linear-gradient-13);}.cls-18{fill:url(#linear-gradient-14);}.cls-19{fill:url(#linear-gradient-15);}.cls-20{fill:url(#linear-gradient-16);}.cls-21{fill:url(#linear-gradient-17);}.cls-22{fill:url(#linear-gradient-18);}.cls-23{fill:url(#linear-gradient-19);}.cls-24,.cls-25{fill:#41763a;}.cls-24{opacity:0.2;}.cls-25,.cls-26,.cls-27{opacity:0.16;}.cls-26{fill:#bc6692;}.cls-27{fill:#8c80b9;}.cls-28,.cls-51,.cls-84,.cls-87,.cls-88{mix-blend-mode:screen;}.cls-28{opacity:0.35;}.cls-29{fill:#b0c722;}.cls-30{fill:#ad9166;opacity:0.84;}.cls-31{opacity:0.34;fill:url(#linear-gradient-20);}.cls-32{fill:url(#linear-gradient-21);}.cls-33,.cls-35,.cls-37,.cls-38,.cls-40,.cls-41,.cls-43,.cls-44,.cls-45,.cls-48,.cls-49,.cls-52,.cls-82{opacity:0.5;}.cls-34{fill:url(#linear-gradient-22);}.cls-35{fill:url(#linear-gradient-23);}.cls-36{fill:url(#linear-gradient-24);}.cls-37{fill:url(#linear-gradient-25);}.cls-38{fill:url(#linear-gradient-26);}.cls-39{fill:url(#linear-gradient-27);}.cls-40{fill:url(#linear-gradient-28);}.cls-41{fill:url(#linear-gradient-29);}.cls-42{fill:url(#linear-gradient-30);}.cls-43{fill:url(#linear-gradient-31);}.cls-44{fill:url(#linear-gradient-32);}.cls-45{fill:url(#linear-gradient-33);}.cls-46{fill:url(#linear-gradient-34);}.cls-47{fill:url(#linear-gradient-35);}.cls-48{fill:url(#linear-gradient-36);}.cls-49{fill:url(#linear-gradient-37);}.cls-50{fill:url(#linear-gradient-38);}.cls-51{opacity:0.4;fill:url(#linear-gradient-39);}.cls-52{fill:url(#linear-gradient-40);}.cls-53{fill:#8c452c;}.cls-54{fill:url(#_ÂÁ_Ï_ÌÌ_È_ËÂÌÚ_68);}.cls-55,.cls-69{opacity:0.57;}.cls-55{fill:url(#_ÂÁ_Ï_ÌÌ_È_ËÂÌÚ_866);}.cls-105,.cls-56,.cls-58,.cls-59,.cls-62,.cls-65,.cls-66,.cls-68,.cls-71,.cls-74,.cls-76,.cls-85,.cls-86,.cls-91,.cls-94,.cls-96,.cls-97,.cls-98{opacity:0.38;}.cls-56{fill:url(#_ÂÁ_Ï_ÌÌ_È_ËÂÌÚ_877);}.cls-57{fill:url(#_ÂÁ_Ï_ÌÌ_È_ËÂÌÚ_878);}.cls-58{fill:url(#_ÂÁ_Ï_ÌÌ_È_ËÂÌÚ_872);}.cls-59{fill:url(#_ÂÁ_Ï_ÌÌ_È_ËÂÌÚ_872-2);}.cls-60{fill:url(#_ÂÁ_Ï_ÌÌ_È_ËÂÌÚ_61);}.cls-61,.cls-85{fill:#fba163;}.cls-61{opacity:0.17;}.cls-62{fill:url(#_ÂÁ_Ï_ÌÌ_È_ËÂÌÚ_871);}.cls-63{fill:url(#_ÂÁ_Ï_ÌÌ_È_ËÂÌÚ_49);}.cls-64{fill:url(#_ÂÁ_Ï_ÌÌ_È_ËÂÌÚ_60);}.cls-65{fill:url(#_ÂÁ_Ï_ÌÌ_È_ËÂÌÚ_870);}.cls-66{fill:url(#_ÂÁ_Ï_ÌÌ_È_ËÂÌÚ_839);}.cls-67{fill:url(#_ÂÁ_Ï_ÌÌ_È_ËÂÌÚ_867);}.cls-68{fill:url(#_ÂÁ_Ï_ÌÌ_È_ËÂÌÚ_859);}.cls-69{fill:url(#_ÂÁ_Ï_ÌÌ_È_ËÂÌÚ_873);}.cls-70{fill:#e58b69;}.cls-71{fill:url(#_ÂÁ_Ï_ÌÌ_È_ËÂÌÚ_859-2);}.cls-72{fill:url(#_ÂÁ_Ï_ÌÌ_È_ËÂÌÚ_857);}.cls-73{fill:url(#_ÂÁ_Ï_ÌÌ_È_ËÂÌÚ_66);}.cls-74{fill:url(#_ÂÁ_Ï_ÌÌ_È_ËÂÌÚ_875);}.cls-75{fill:url(#_ÂÁ_Ï_ÌÌ_È_ËÂÌÚ_874);}.cls-76{fill:url(#_ÂÁ_Ï_ÌÌ_È_ËÂÌÚ_861);}.cls-77{clip-path:url(#clip-path-2);}.cls-78{fill:url(#_ÂÁ_Ï_ÌÌ_È_ËÂÌÚ_50);}.cls-79{fill:url(#_ÂÁ_Ï_ÌÌ_È_ËÂÌÚ_453);}.cls-80{fill:url(#_ÂÁ_Ï_ÌÌ_È_ËÂÌÚ_448);}.cls-81{fill:url(#_ÂÁ_Ï_ÌÌ_È_ËÂÌÚ_453-2);}.cls-82{fill:#8486ea;}.cls-83{fill:#fff;}.cls-84{fill:url(#linear-gradient-41);}.cls-86{fill:url(#_ÂÁ_Ï_ÌÌ_È_ËÂÌÚ_841);}.cls-87{fill:url(#_ÂÁ_Ï_ÌÌ_È_ËÂÌÚ_845);}.cls-88{fill:url(#_ÂÁ_Ï_ÌÌ_È_ËÂÌÚ_845-2);}.cls-89{fill:url(#_ÂÁ_Ï_ÌÌ_È_ËÂÌÚ_160);}.cls-90{fill:url(#_ÂÁ_Ï_ÌÌ_È_ËÂÌÚ_856);}.cls-91{fill:url(#_ÂÁ_Ï_ÌÌ_È_ËÂÌÚ_859-3);}.cls-92{fill:#d8429c;opacity:0.33;}.cls-93{fill:url(#_ÂÁ_Ï_ÌÌ_È_ËÂÌÚ_860);}.cls-94{fill:url(#_ÂÁ_Ï_ÌÌ_È_ËÂÌÚ_859-4);}.cls-95{fill:#55230e;}.cls-96{fill:url(#_ÂÁ_Ï_ÌÌ_È_ËÂÌÚ_866-2);}.cls-97{fill:url(#_ÂÁ_Ï_ÌÌ_È_ËÂÌÚ_876);}.cls-98{fill:url(#_ÂÁ_Ï_ÌÌ_È_ËÂÌÚ_873-2);}.cls-99{fill:url(#_ÂÁ_Ï_ÌÌ_È_ËÂÌÚ_3615);}.cls-100{fill:url(#_ÂÁ_Ï_ÌÌ_È_ËÂÌÚ_3107);}.cls-101{fill:url(#_ÂÁ_Ï_ÌÌ_È_ËÂÌÚ_3110);}.cls-102{fill:url(#_ÂÁ_Ï_ÌÌ_È_ËÂÌÚ_3616);}.cls-103{fill:url(#_ÂÁ_Ï_ÌÌ_È_ËÂÌÚ_3107-2);}.cls-104{fill:url(#_ÂÁ_Ï_ÌÌ_È_ËÂÌÚ_3108);}.cls-105,.cls-110,.cls-114{fill:#97ccbe;}.cls-106{fill:url(#_ÂÁ_Ï_ÌÌ_È_ËÂÌÚ_3615-2);}.cls-107{fill:url(#_ÂÁ_Ï_ÌÌ_È_ËÂÌÚ_3107-3);}.cls-108{fill:url(#_ÂÁ_Ï_ÌÌ_È_ËÂÌÚ_3110-2);}.cls-109{fill:url(#_ÂÁ_Ï_ÌÌ_È_ËÂÌÚ_3614);}.cls-111{fill:url(#_ÂÁ_Ï_ÌÌ_È_ËÂÌÚ_3116);}.cls-112{fill:url(#_ÂÁ_Ï_ÌÌ_È_ËÂÌÚ_3112);}.cls-113{fill:url(#_ÂÁ_Ï_ÌÌ_È_ËÂÌÚ_7);}.cls-114{opacity:0.65;}.cls-115{fill:url(#_ÂÁ_Ï_ÌÌ_È_ËÂÌÚ_3614-2);}.cls-116{fill:url(#_ÂÁ_Ï_ÌÌ_È_ËÂÌÚ_3116-2);}.cls-117{fill:url(#_ÂÁ_Ï_ÌÌ_È_ËÂÌÚ_3115);}.cls-118{fill:url(#_ÂÁ_Ï_ÌÌ_È_ËÂÌÚ_7-2);}.cls-119{fill:url(#_ÂÁ_Ï_ÌÌ_È_ËÂÌÚ_3614-3);}.cls-120{fill:url(#_ÂÁ_Ï_ÌÌ_È_ËÂÌÚ_3116-3);}.cls-121{fill:url(#_ÂÁ_Ï_ÌÌ_È_ËÂÌÚ_3112-2);}</style><clipPath id="clip-path"><rect class="cls-1" width="2400" height="1080"/></clipPath><linearGradient id="linear-gradient" x1="1186.91" y1="-10.71" x2="1203.13" y2="887.32" gradientUnits="userSpaceOnUse"><stop offset="0" stop-color="#42b9fe"/><stop offset="0.07" stop-color="#4ebefd"/><stop offset="0.2" stop-color="#6dcdf9"/><stop offset="0.36" stop-color="#a0e4f2"/><stop offset="0.53" stop-color="#dbffeb"/></linearGradient><linearGradient id="linear-gradient-2" x1="1179.02" y1="-119.41" x2="1195.36" y2="689.44" gradientUnits="userSpaceOnUse"><stop offset="0" stop-color="#48acba"/><stop offset="1" stop-color="#62e7e3"/></linearGradient><linearGradient id="linear-gradient-3" x1="1438.78" y1="-70.25" x2="1457.17" y2="956.13" gradientUnits="userSpaceOnUse"><stop offset="0" stop-color="#3695a4"/><stop offset="1" stop-color="#40d4cd"/></linearGradient><linearGradient id="linear-gradient-4" x1="448.63" y1="-52.52" x2="467.01" y2="973.86" xlink:href="#linear-gradient-3"/><linearGradient id="linear-gradient-5" x1="1739.23" y1="-75.64" x2="1757.61" y2="950.75" xlink:href="#linear-gradient-3"/><linearGradient id="linear-gradient-6" x1="1839.32" y1="-77.43" x2="1857.7" y2="948.96" xlink:href="#linear-gradient-3"/><linearGradient id="linear-gradient-7" x1="22.15" y1="-44.88" x2="40.53" y2="981.5" xlink:href="#linear-gradient-3"/><linearGradient id="linear-gradient-8" x1="228.9" y1="-48.58" x2="247.28" y2="977.8" xlink:href="#linear-gradient-3"/><linearGradient id="linear-gradient-9" x1="168.58" y1="-47.5" x2="186.97" y2="978.88" xlink:href="#linear-gradient-3"/><linearGradient id="linear-gradient-10" x1="1173.97" y1="-289.21" x2="1207.68" y2="1533.77" xlink:href="#linear-gradient-3"/><linearGradient id="linear-gradient-11" x1="404.54" y1="-274.99" x2="438.24" y2="1547.99" xlink:href="#linear-gradient-3"/><linearGradient id="linear-gradient-12" x1="1063.64" y1="-287.17" x2="1097.34" y2="1535.81" xlink:href="#linear-gradient-3"/><linearGradient id="linear-gradient-13" x1="333.86" y1="-273.68" x2="367.56" y2="1549.3" xlink:href="#linear-gradient-3"/><linearGradient id="linear-gradient-14" x1="270.7" y1="-272.51" x2="304.41" y2="1550.47" xlink:href="#linear-gradient-3"/><linearGradient id="linear-gradient-15" x1="2051.66" y1="-305.43" x2="2085.36" y2="1517.54" xlink:href="#linear-gradient-3"/><linearGradient id="linear-gradient-16" x1="1620.01" y1="-297.45" x2="1653.71" y2="1525.53" xlink:href="#linear-gradient-3"/><linearGradient id="linear-gradient-17" x1="692.78" y1="-280.31" x2="726.48" y2="1542.67" xlink:href="#linear-gradient-3"/><linearGradient id="linear-gradient-18" x1="757.39" y1="-281.51" x2="791.09" y2="1541.48" xlink:href="#linear-gradient-3"/><linearGradient id="linear-gradient-19" x1="1207.75" y1="1169.71" x2="1203.64" y2="770.56" gradientUnits="userSpaceOnUse"><stop offset="0" stop-color="#439721"/><stop offset="1" stop-color="#83cb21"/></linearGradient><linearGradient id="linear-gradient-20" x1="551.31" y1="219.85" x2="548.78" y2="219.2" gradientUnits="userSpaceOnUse"><stop offset="0" stop-color="#fff"/><stop offset="1" stop-color="#7d2171"/></linearGradient><linearGradient id="linear-gradient-21" x1="1247.05" y1="764.09" x2="1260.84" y2="587.15" xlink:href="#linear-gradient-19"/><linearGradient id="linear-gradient-22" x1="-1922.05" y1="624.98" x2="-1923.23" y2="750.96" gradientTransform="matrix(-1, 0, 0, 1, -672.11, 0)" gradientUnits="userSpaceOnUse"><stop offset="0" stop-color="#214c85"/><stop offset="1" stop-color="#2189be"/></linearGradient><linearGradient id="linear-gradient-23" x1="-2097.58" y1="887.73" x2="-2094.47" y2="769.98" gradientTransform="matrix(-1, 0.02, 0.02, 1, -683.25, -14.06)" xlink:href="#linear-gradient-22"/><linearGradient id="linear-gradient-24" x1="1059.96" y1="762.43" x2="1085.24" y2="595.84" xlink:href="#linear-gradient-19"/><linearGradient id="linear-gradient-25" x1="-1735.39" y1="670.21" x2="-1736.21" y2="757.43" xlink:href="#linear-gradient-22"/><linearGradient id="linear-gradient-26" x1="-1711.23" y1="901.59" x2="-1706.93" y2="738.86" gradientTransform="matrix(-1, 0.02, 0.02, 1, -683.25, -14.06)" xlink:href="#linear-gradient-22"/><linearGradient id="linear-gradient-27" x1="1568.35" y1="827.53" x2="1560.31" y2="610.38" xlink:href="#linear-gradient-19"/><linearGradient id="linear-gradient-28" x1="1566.8" y1="713.52" x2="1566.25" y2="772.48" gradientTransform="matrix(1, 0, 0, 1, 0, 0)" xlink:href="#linear-gradient-22"/><linearGradient id="linear-gradient-29" x1="1579.91" y1="833.7" x2="1582.68" y2="728.83" gradientTransform="matrix(1, 0, 0, 1, 0, 0)" xlink:href="#linear-gradient-22"/><linearGradient id="linear-gradient-30" x1="329.21" y1="796.01" x2="334.96" y2="588.06" xlink:href="#linear-gradient-19"/><linearGradient id="linear-gradient-31" x1="331.62" y1="670.67" x2="330.83" y2="754.77" gradientTransform="matrix(1, 0, 0, 1.08, 0.74, -51.64)" xlink:href="#linear-gradient-22"/><linearGradient id="linear-gradient-32" x1="134.75" y1="823.03" x2="137.19" y2="730.66" gradientTransform="matrix(1, 0.02, -0.02, 1.08, 12.15, -66.94)" xlink:href="#linear-gradient-22"/><linearGradient id="linear-gradient-33" x1="290.84" y1="813.75" x2="293" y2="731.76" gradientTransform="matrix(1, 0.02, -0.02, 1.08, 12.15, -66.94)" xlink:href="#linear-gradient-22"/><linearGradient id="linear-gradient-34" x1="2065.45" y1="759.01" x2="2028.68" y2="353.44" xlink:href="#linear-gradient-19"/><linearGradient id="linear-gradient-35" x1="2123.46" y1="538" x2="2136.18" y2="682.52" gradientTransform="translate(-88.45 226.15) rotate(-2.33)" xlink:href="#linear-gradient-22"/><linearGradient id="linear-gradient-36" x1="1928.42" y1="622.25" x2="1929.77" y2="637.58" gradientTransform="translate(-88.45 226.15) rotate(-2.33)" xlink:href="#linear-gradient-22"/><linearGradient id="linear-gradient-37" x1="1815.98" y1="588.59" x2="1819.58" y2="629.4" gradientTransform="translate(-88.45 226.15) rotate(-2.33)" xlink:href="#linear-gradient-22"/><linearGradient id="linear-gradient-38" x1="1185.68" y1="-176.44" x2="1199.33" y2="1528.64" gradientUnits="userSpaceOnUse"><stop offset="0" stop-color="#282179"/><stop offset="0.13" stop-color="#565c9d"/><stop offset="0.25" stop-color="#7b8cba"/><stop offset="0.35" stop-color="#96afcf"/><stop offset="0.44" stop-color="#a7c4dc"/><stop offset="0.5" stop-color="#adcce1"/><stop offset="0.56" stop-color="#a8c6de"/><stop offset="0.64" stop-color="#9bb5d5"/><stop offset="0.74" stop-color="#849ac7"/><stop offset="0.84" stop-color="#6573b2"/><stop offset="0.95" stop-color="#3e4299"/><stop offset="0.99" stop-color="#2c2c8d"/></linearGradient><linearGradient id="linear-gradient-39" x1="1199.64" y1="1013.83" x2="1193.51" y2="655.36" gradientUnits="userSpaceOnUse"><stop offset="0" stop-color="#212121"/><stop offset="0.2" stop-color="#2a3d61"/><stop offset="0.39" stop-color="#325497"/><stop offset="0.56" stop-color="#3865be"/><stop offset="0.69" stop-color="#3c6fd6"/><stop offset="0.77" stop-color="#3d73df"/></linearGradient><linearGradient id="linear-gradient-40" x1="1106.64" y1="1061.65" x2="1106.64" y2="956.8" gradientUnits="userSpaceOnUse"><stop offset="0" stop-color="#00b200"/><stop offset="0.16" stop-color="#31c131"/><stop offset="0.47" stop-color="#88db88"/><stop offset="0.72" stop-color="#c8eec8"/><stop offset="0.91" stop-color="#f0faf0"/><stop offset="1" stop-color="#fff"/></linearGradient><linearGradient id="_ÂÁ_Ï_ÌÌ_È_ËÂÌÚ_68" x1="735.45" y1="644.11" x2="1027.32" y2="894.53" gradientUnits="userSpaceOnUse"><stop offset="0.26" stop-color="#feecdb"/><stop offset="0.37" stop-color="#f4d3c1"/><stop offset="0.54" stop-color="#e8b4a1"/><stop offset="0.71" stop-color="#df9d8a"/><stop offset="0.87" stop-color="#da907c"/><stop offset="1" stop-color="#d88b77"/></linearGradient><linearGradient id="_ÂÁ_Ï_ÌÌ_È_ËÂÌÚ_866" x1="732.68" y1="647.34" x2="1024.55" y2="897.76" gradientUnits="userSpaceOnUse"><stop offset="0.17" stop-color="#fff"/><stop offset="0.21" stop-color="#fef3eb"/><stop offset="0.34" stop-color="#fdd0b1"/><stop offset="0.46" stop-color="#fcb687"/><stop offset="0.55" stop-color="#fba76d"/><stop offset="0.6" stop-color="#fba163"/></linearGradient><linearGradient id="_ÂÁ_Ï_ÌÌ_È_ËÂÌÚ_877" x1="781.02" y1="685.01" x2="1072.89" y2="935.43" gradientUnits="userSpaceOnUse"><stop offset="0.06" stop-color="#fff"/><stop offset="0.11" stop-color="#fef3eb"/><stop offset="0.28" stop-color="#fdd0b1"/><stop offset="0.43" stop-color="#fcb687"/><stop offset="0.54" stop-color="#fba76d"/><stop offset="0.6" stop-color="#fba163"/></linearGradient><linearGradient id="_ÂÁ_Ï_ÌÌ_È_ËÂÌÚ_878" x1="778.18" y1="459.99" x2="1202.97" y2="905.34" gradientUnits="userSpaceOnUse"><stop offset="0.17" stop-color="#feecba"/><stop offset="0.32" stop-color="#fae2b3"/><stop offset="0.57" stop-color="#efc7a0"/><stop offset="0.9" stop-color="#de9a82"/><stop offset="1" stop-color="#d88b77"/></linearGradient><linearGradient id="_ÂÁ_Ï_ÌÌ_È_ËÂÌÚ_872" x1="1033.63" y1="647.81" x2="1126.29" y2="1017.05" gradientUnits="userSpaceOnUse"><stop offset="0" stop-color="#fba163"/><stop offset="0.12" stop-color="#fba76d"/><stop offset="0.33" stop-color="#fcb687"/><stop offset="0.59" stop-color="#fdd0b1"/><stop offset="0.9" stop-color="#fef3eb"/><stop offset="1" stop-color="#fff"/></linearGradient><linearGradient id="_ÂÁ_Ï_ÌÌ_È_ËÂÌÚ_872-2" x1="1044.71" y1="732.91" x2="1301.93" y2="1002.58" xlink:href="#_ÂÁ_Ï_ÌÌ_È_ËÂÌÚ_872"/><linearGradient id="_ÂÁ_Ï_ÌÌ_È_ËÂÌÚ_61" x1="910.86" y1="430.57" x2="1348.35" y2="889.23" gradientUnits="userSpaceOnUse"><stop offset="0" stop-color="#feecba"/><stop offset="0.96" stop-color="#d98f79"/><stop offset="1" stop-color="#d88b77"/></linearGradient><linearGradient id="_ÂÁ_Ï_ÌÌ_È_ËÂÌÚ_871" x1="1271.92" y1="586.23" x2="1127.89" y2="730.26" gradientUnits="userSpaceOnUse"><stop offset="0" stop-color="#fff"/><stop offset="0.02" stop-color="#fffcfb"/><stop offset="0.18" stop-color="#fee1cd"/><stop offset="0.35" stop-color="#fdcaa7"/><stop offset="0.52" stop-color="#fcb889"/><stop offset="0.69" stop-color="#fbab74"/><stop offset="0.85" stop-color="#fba467"/><stop offset="1" stop-color="#fba163"/></linearGradient><linearGradient id="_ÂÁ_Ï_ÌÌ_È_ËÂÌÚ_49" x1="759.7" y1="81.11" x2="1144.96" y2="485.02" gradientUnits="userSpaceOnUse"><stop offset="0" stop-color="#feecba"/><stop offset="0.48" stop-color="#edbf9b"/><stop offset="1" stop-color="#d88b77"/></linearGradient><linearGradient id="_ÂÁ_Ï_ÌÌ_È_ËÂÌÚ_60" x1="931.25" y1="585.27" x2="1425.94" y2="1103.91" gradientUnits="userSpaceOnUse"><stop offset="0" stop-color="#feecba"/><stop offset="0.07" stop-color="#fae1b2"/><stop offset="0.35" stop-color="#ebbc99"/><stop offset="0.6" stop-color="#e1a186"/><stop offset="0.83" stop-color="#da917b"/><stop offset="1" stop-color="#d88b77"/></linearGradient><linearGradient id="_ÂÁ_Ï_ÌÌ_È_ËÂÌÚ_870" x1="884.25" y1="534.98" x2="1185.94" y2="851.28" gradientUnits="userSpaceOnUse"><stop offset="0.37" stop-color="#fff"/><stop offset="0.43" stop-color="#fef3eb"/><stop offset="0.63" stop-color="#fdd0b1"/><stop offset="0.79" stop-color="#fcb687"/><stop offset="0.92" stop-color="#fba76d"/><stop offset="1" stop-color="#fba163"/></linearGradient><linearGradient id="_ÂÁ_Ï_ÌÌ_È_ËÂÌÚ_839" x1="840.26" y1="165.54" x2="1044.25" y2="379.4" gradientUnits="userSpaceOnUse"><stop offset="0" stop-color="#fff"/><stop offset="0.08" stop-color="#fef3eb"/><stop offset="0.33" stop-color="#fdd0b1"/><stop offset="0.55" stop-color="#fcb687"/><stop offset="0.72" stop-color="#fba76d"/><stop offset="0.82" stop-color="#fba163"/></linearGradient><linearGradient id="_ÂÁ_Ï_ÌÌ_È_ËÂÌÚ_867" x1="1005.25" y1="475.88" x2="1253.31" y2="735.95" gradientUnits="userSpaceOnUse"><stop offset="0" stop-color="#feecdb"/><stop offset="0.17" stop-color="#fae2d1"/><stop offset="0.47" stop-color="#f0c9b6"/><stop offset="0.84" stop-color="#e09f8b"/><stop offset="1" stop-color="#d88b77"/></linearGradient><linearGradient id="_ÂÁ_Ï_ÌÌ_È_ËÂÌÚ_859" x1="974.15" y1="540.41" x2="1222.21" y2="800.48" gradientUnits="userSpaceOnUse"><stop offset="0" stop-color="#fff"/><stop offset="0.1" stop-color="#fef3eb"/><stop offset="0.41" stop-color="#fdd0b1"/><stop offset="0.67" stop-color="#fcb687"/><stop offset="0.88" stop-color="#fba76d"/><stop offset="1" stop-color="#fba163"/></linearGradient><linearGradient id="_ÂÁ_Ï_ÌÌ_È_ËÂÌÚ_873" x1="826.62" y1="440" x2="1158.25" y2="958.45" gradientUnits="userSpaceOnUse"><stop offset="0.71" stop-color="#fba163"/><stop offset="0.75" stop-color="#fba76d"/><stop offset="0.81" stop-color="#fcb687"/><stop offset="0.88" stop-color="#fdd0b1"/><stop offset="0.97" stop-color="#fef3eb"/><stop offset="1" stop-color="#fff"/></linearGradient><linearGradient id="_ÂÁ_Ï_ÌÌ_È_ËÂÌÚ_859-2" x1="1040.06" y1="477.54" x2="1288.12" y2="737.61" xlink:href="#_ÂÁ_Ï_ÌÌ_È_ËÂÌÚ_859"/><linearGradient id="_ÂÁ_Ï_ÌÌ_È_ËÂÌÚ_857" x1="827.65" y1="196.94" x2="1246.91" y2="636.49" gradientUnits="userSpaceOnUse"><stop offset="0" stop-color="#feecba"/><stop offset="0.17" stop-color="#fce6b6"/><stop offset="0.4" stop-color="#f6d7ab"/><stop offset="0.65" stop-color="#ebbc99"/><stop offset="0.92" stop-color="#dd9880"/><stop offset="1" stop-color="#d88b77"/></linearGradient><linearGradient id="_ÂÁ_Ï_ÌÌ_È_ËÂÌÚ_66" x1="708" y1="944.26" x2="1341.27" y2="944.26" gradientUnits="userSpaceOnUse"><stop offset="0" stop-color="#feecba"/><stop offset="0.03" stop-color="#fde9b8"/><stop offset="0.69" stop-color="#e2a589"/><stop offset="1" stop-color="#d88b77"/></linearGradient><linearGradient id="_ÂÁ_Ï_ÌÌ_È_ËÂÌÚ_875" x1="740.59" y1="958.58" x2="1373.86" y2="958.58" gradientUnits="userSpaceOnUse"><stop offset="0.07" stop-color="#fba163"/><stop offset="0.18" stop-color="#fba76d"/><stop offset="0.37" stop-color="#fcb687"/><stop offset="0.62" stop-color="#fdd0b1"/><stop offset="0.91" stop-color="#fef3eb"/><stop offset="1" stop-color="#fff"/></linearGradient><linearGradient id="_ÂÁ_Ï_ÌÌ_È_ËÂÌÚ_874" x1="932.57" y1="835.2" x2="1435.99" y2="1362.98" gradientUnits="userSpaceOnUse"><stop offset="0.14" stop-color="#e6af90"/><stop offset="0.33" stop-color="#ebbd9a"/><stop offset="1" stop-color="#feecba"/></linearGradient><linearGradient id="_ÂÁ_Ï_ÌÌ_È_ËÂÌÚ_861" x1="895.93" y1="299.19" x2="1223.02" y2="483.92" gradientUnits="userSpaceOnUse"><stop offset="0.29" stop-color="#fba163"/><stop offset="0.37" stop-color="#fba76d"/><stop offset="0.52" stop-color="#fcb687"/><stop offset="0.71" stop-color="#fdd0b1"/><stop offset="0.93" stop-color="#fef3eb"/><stop offset="1" stop-color="#fff"/></linearGradient><clipPath id="clip-path-2"><path class="cls-1" d="M1013.88,497c37,11,79.35-9.18,82.36-50,2.59-35.26-38.3-62.51-75.75-40.59S981.17,487.33,1013.88,497Z"/></clipPath><linearGradient id="_ÂÁ_Ï_ÌÌ_È_ËÂÌÚ_50" x1="1037.5" y1="570.63" x2="1046" y2="468.99" gradientTransform="matrix(0.95, -0.31, 0.31, 0.95, -99.53, 282.37)" gradientUnits="userSpaceOnUse"><stop offset="0" stop-color="#dff"/><stop offset="0.51" stop-color="#9ed5ed"/><stop offset="1" stop-color="#5ea9db"/></linearGradient><linearGradient id="_ÂÁ_Ï_ÌÌ_È_ËÂÌÚ_453" x1="1036.11" y1="535.3" x2="1036.11" y2="450" gradientTransform="translate(79.21 -172.83) rotate(6.82)" gradientUnits="userSpaceOnUse"><stop offset="0" stop-color="#0039c4"/><stop offset="0.08" stop-color="#002fa1"/><stop offset="0.18" stop-color="#002276"/><stop offset="0.29" stop-color="#001852"/><stop offset="0.41" stop-color="#000f34"/><stop offset="0.53" stop-color="#00081d"/><stop offset="0.66" stop-color="#00040d"/><stop offset="0.81" stop-color="#000103"/><stop offset="1"/></linearGradient><linearGradient id="_ÂÁ_Ï_ÌÌ_È_ËÂÌÚ_448" x1="1036.11" y1="532.03" x2="1036.11" y2="453.27" gradientTransform="translate(79.21 -172.83) rotate(6.82)" gradientUnits="userSpaceOnUse"><stop offset="0" stop-color="#00bdff"/><stop offset="0.23" stop-color="#0089e8"/><stop offset="0.75" stop-color="#0006ae"/><stop offset="0.78" stop-color="#0000ab"/></linearGradient><linearGradient id="_ÂÁ_Ï_ÌÌ_È_ËÂÌÚ_453-2" x1="1036.11" y1="520.41" x2="1036.11" y2="464.88" xlink:href="#_ÂÁ_Ï_ÌÌ_È_ËÂÌÚ_453"/><linearGradient id="linear-gradient-41" x1="1185.25" y1="0.36" x2="1146.51" y2="-66.74" gradientTransform="matrix(0.46, 0.89, -0.68, 0.35, 504.53, -553.46)" gradientUnits="userSpaceOnUse"><stop offset="0"/><stop offset="0.1" stop-color="#1b1b12"/><stop offset="0.73" stop-color="#bdbd83"/><stop offset="1" stop-color="#ffffb1"/></linearGradient><linearGradient id="_ÂÁ_Ï_ÌÌ_È_ËÂÌÚ_841" x1="1043.02" y1="420" x2="1231.3" y2="526.34" gradientUnits="userSpaceOnUse"><stop offset="0" stop-color="#fff"/><stop offset="0.06" stop-color="#fff5ee"/><stop offset="0.24" stop-color="#fdd7bd"/><stop offset="0.42" stop-color="#fcc096"/><stop offset="0.58" stop-color="#fcaf7a"/><stop offset="0.72" stop-color="#fba569"/><stop offset="0.82" stop-color="#fba163"/></linearGradient><linearGradient id="_ÂÁ_Ï_ÌÌ_È_ËÂÌÚ_845" x1="1018.46" y1="346.73" x2="919.07" y2="446.12" gradientUnits="userSpaceOnUse"><stop offset="0"/><stop offset="0.1" stop-color="#11110a"/><stop offset="0.3" stop-color="#3d3d24"/><stop offset="0.57" stop-color="#85854f"/><stop offset="0.92" stop-color="#e6e688"/><stop offset="1" stop-color="#ffff97"/></linearGradient><linearGradient id="_ÂÁ_Ï_ÌÌ_È_ËÂÌÚ_845-2" x1="948.21" y1="503.38" x2="919.26" y2="532.33" xlink:href="#_ÂÁ_Ï_ÌÌ_È_ËÂÌÚ_845"/><linearGradient id="_ÂÁ_Ï_ÌÌ_È_ËÂÌÚ_160" x1="917.89" y1="526.75" x2="944" y2="552.86" gradientUnits="userSpaceOnUse"><stop offset="0" stop-color="#ffc474"/><stop offset="0.1" stop-color="#ffb773"/><stop offset="0.51" stop-color="#ff8570"/><stop offset="0.82" stop-color="#ff676f"/><stop offset="1" stop-color="#ff5b6e"/></linearGradient><linearGradient id="_ÂÁ_Ï_ÌÌ_È_ËÂÌÚ_856" x1="927.92" y1="332.24" x2="997.81" y2="371.72" gradientTransform="translate(168.51 -221.89) rotate(17.14)" gradientUnits="userSpaceOnUse"><stop offset="0.17" stop-color="#fff"/><stop offset="0.43" stop-color="#fffaed"/><stop offset="0.95" stop-color="#feedbf"/><stop offset="1" stop-color="#feecba"/></linearGradient><linearGradient id="_ÂÁ_Ï_ÌÌ_È_ËÂÌÚ_859-3" x1="927.92" y1="332.24" x2="997.81" y2="371.72" gradientTransform="translate(168.51 -221.89) rotate(17.14)" xlink:href="#_ÂÁ_Ï_ÌÌ_È_ËÂÌÚ_859"/><linearGradient id="_ÂÁ_Ï_ÌÌ_È_ËÂÌÚ_860" x1="922.22" y1="573.27" x2="985.64" y2="573.27" gradientUnits="userSpaceOnUse"><stop offset="0" stop-color="#fff"/><stop offset="0.31" stop-color="#fffaed"/><stop offset="0.93" stop-color="#feedbf"/><stop offset="1" stop-color="#feecba"/></linearGradient><linearGradient id="_ÂÁ_Ï_ÌÌ_È_ËÂÌÚ_859-4" x1="901.8" y1="573.09" x2="1078.54" y2="573.09" xlink:href="#_ÂÁ_Ï_ÌÌ_È_ËÂÌÚ_859"/><linearGradient id="_ÂÁ_Ï_ÌÌ_È_ËÂÌÚ_866-2" x1="1092.01" y1="522.63" x2="1152.44" y2="876.91" xlink:href="#_ÂÁ_Ï_ÌÌ_È_ËÂÌÚ_866"/><linearGradient id="_ÂÁ_Ï_ÌÌ_È_ËÂÌÚ_876" x1="958.47" y1="862.66" x2="1461.89" y2="1390.44" gradientUnits="userSpaceOnUse"><stop offset="0.07" stop-color="#fba163"/><stop offset="0.22" stop-color="#fcbb8f"/><stop offset="0.39" stop-color="#fdd3b7"/><stop offset="0.55" stop-color="#fee6d6"/><stop offset="0.71" stop-color="#fff4ed"/><stop offset="0.87" stop-color="#fffcfa"/><stop offset="1" stop-color="#fff"/></linearGradient><linearGradient id="_ÂÁ_Ï_ÌÌ_È_ËÂÌÚ_873-2" x1="912.61" y1="854.23" x2="1416.03" y2="1382.02" xlink:href="#_ÂÁ_Ï_ÌÌ_È_ËÂÌÚ_873"/><linearGradient id="_ÂÁ_Ï_ÌÌ_È_ËÂÌÚ_3615" x1="1358.6" y1="357.86" x2="4427.53" y2="3426.8" gradientUnits="userSpaceOnUse"><stop offset="0.06" stop-color="#cce200"/><stop offset="0.08" stop-color="#b4d503"/><stop offset="0.13" stop-color="#88be09"/><stop offset="0.17" stop-color="#61aa0e"/><stop offset="0.22" stop-color="#429a13"/><stop offset="0.27" stop-color="#2a8d16"/><stop offset="0.32" stop-color="#188418"/><stop offset="0.37" stop-color="#0e7f1a"/><stop offset="0.44" stop-color="#0b7d1a"/></linearGradient><linearGradient id="_ÂÁ_Ï_ÌÌ_È_ËÂÌÚ_3107" x1="1996.98" y1="1220.14" x2="1996.98" y2="787.48" gradientUnits="userSpaceOnUse"><stop offset="0.45" stop-color="#97ccbe"/><stop offset="0.54" stop-color="#9ecfc2"/><stop offset="0.67" stop-color="#b2d9cf"/><stop offset="0.83" stop-color="#d2e9e3"/><stop offset="1" stop-color="#feffff"/><stop offset="1" stop-color="#fff"/></linearGradient><linearGradient id="_ÂÁ_Ï_ÌÌ_È_ËÂÌÚ_3110" x1="1996.07" y1="3862.21" x2="1996.07" y2="898.32" gradientUnits="userSpaceOnUse"><stop offset="0.92" stop-color="#97ccbe"/><stop offset="0.93" stop-color="#9ecfc2"/><stop offset="0.95" stop-color="#b2d9cf"/><stop offset="0.97" stop-color="#d2e9e3"/><stop offset="1" stop-color="#feffff"/><stop offset="1" stop-color="#fff"/></linearGradient><linearGradient id="_ÂÁ_Ï_ÌÌ_È_ËÂÌÚ_3616" x1="-1286.79" y1="-709.12" x2="4888.86" y2="5466.53" gradientUnits="userSpaceOnUse"><stop offset="0.06" stop-color="#cce200"/><stop offset="0.08" stop-color="#b4d503"/><stop offset="0.13" stop-color="#88be09"/><stop offset="0.17" stop-color="#61aa0e"/><stop offset="0.22" stop-color="#429a13"/><stop offset="0.27" stop-color="#2a8d16"/><stop offset="0.32" stop-color="#188418"/><stop offset="0.37" stop-color="#0e7f1a"/><stop offset="0.44" stop-color="#0b7d1a"/><stop offset="0.97" stop-color="#0b7d1a"/></linearGradient><linearGradient id="_ÂÁ_Ï_ÌÌ_È_ËÂÌÚ_3107-2" x1="337.51" y1="1152.39" x2="337.51" y2="682.36" xlink:href="#_ÂÁ_Ï_ÌÌ_È_ËÂÌÚ_3107"/><linearGradient id="_ÂÁ_Ï_ÌÌ_È_ËÂÌÚ_3108" x1="293.14" y1="1176.55" x2="293.14" y2="832.98" gradientUnits="userSpaceOnUse"><stop offset="0.6" stop-color="#97ccbe"/><stop offset="0.66" stop-color="#9ecfc2"/><stop offset="0.76" stop-color="#b2d9cf"/><stop offset="0.87" stop-color="#d2e9e3"/><stop offset="1" stop-color="#feffff"/><stop offset="1" stop-color="#fff"/></linearGradient><linearGradient id="_ÂÁ_Ï_ÌÌ_È_ËÂÌÚ_3615-2" x1="-472.03" y1="479.32" x2="2332.91" y2="3284.26" gradientTransform="matrix(0.99, -0.16, 0.16, 0.99, -204.31, -110.92)" xlink:href="#_ÂÁ_Ï_ÌÌ_È_ËÂÌÚ_3615"/><linearGradient id="_ÂÁ_Ï_ÌÌ_È_ËÂÌÚ_3107-3" x1="140.2" y1="1267.42" x2="140.2" y2="871.97" gradientTransform="matrix(0.99, -0.16, 0.16, 0.99, -204.31, -110.92)" xlink:href="#_ÂÁ_Ï_ÌÌ_È_ËÂÌÚ_3107"/><linearGradient id="_ÂÁ_Ï_ÌÌ_È_ËÂÌÚ_3110-2" x1="110.61" y1="3682.25" x2="110.61" y2="973.29" gradientTransform="matrix(0.99, -0.16, 0.16, 0.99, -204.31, -110.92)" xlink:href="#_ÂÁ_Ï_ÌÌ_È_ËÂÌÚ_3110"/><linearGradient id="_ÂÁ_Ï_ÌÌ_È_ËÂÌÚ_3614" x1="-244.9" y1="839.67" x2="1043.63" y2="2128.19" gradientUnits="userSpaceOnUse"><stop offset="0.06" stop-color="#cce200"/><stop offset="0.11" stop-color="#b4d503"/><stop offset="0.22" stop-color="#88be09"/><stop offset="0.33" stop-color="#61aa0e"/><stop offset="0.45" stop-color="#429a13"/><stop offset="0.57" stop-color="#2a8d16"/><stop offset="0.7" stop-color="#188418"/><stop offset="0.83" stop-color="#0e7f1a"/><stop offset="1" stop-color="#0b7d1a"/></linearGradient><linearGradient id="_ÂÁ_Ï_ÌÌ_È_ËÂÌÚ_3116" x1="-140.37" y1="870.46" x2="35.38" y2="1046.22" gradientUnits="userSpaceOnUse"><stop offset="0" stop-color="#97ccbe"/><stop offset="0.16" stop-color="#9ecfc2"/><stop offset="0.4" stop-color="#b2d9cf"/><stop offset="0.68" stop-color="#d2e9e3"/><stop offset="1" stop-color="#feffff"/><stop offset="1" stop-color="#fff"/></linearGradient><linearGradient id="_ÂÁ_Ï_ÌÌ_È_ËÂÌÚ_3112" x1="92.39" y1="1248.89" x2="-14.17" y2="1002.83" gradientUnits="userSpaceOnUse"><stop offset="0" stop-color="#fff"/><stop offset="0" stop-color="#feffff"/><stop offset="0.32" stop-color="#d2e9e3"/><stop offset="0.6" stop-color="#b2d9cf"/><stop offset="0.84" stop-color="#9ecfc2"/><stop offset="1" stop-color="#97ccbe"/></linearGradient><linearGradient id="_ÂÁ_Ï_ÌÌ_È_ËÂÌÚ_7" x1="-1747.91" y1="1139.97" x2="-1818.4" y2="740.24" gradientTransform="matrix(-1, 0, 0, 1, -1399.08, 0)" gradientUnits="userSpaceOnUse"><stop offset="0" stop-color="#0b7d1a"/><stop offset="0.08" stop-color="#329215"/><stop offset="0.17" stop-color="#5ba70f"/><stop offset="0.27" stop-color="#7eb90b"/><stop offset="0.37" stop-color="#9ac807"/><stop offset="0.48" stop-color="#b0d404"/><stop offset="0.6" stop-color="#c0dc02"/><stop offset="0.74" stop-color="#c9e100"/><stop offset="0.94" stop-color="#cce200"/></linearGradient><linearGradient id="_ÂÁ_Ï_ÌÌ_È_ËÂÌÚ_3614-2" x1="250.45" y1="784.26" x2="1418.66" y2="1952.47" xlink:href="#_ÂÁ_Ï_ÌÌ_È_ËÂÌÚ_3614"/><linearGradient id="_ÂÁ_Ï_ÌÌ_È_ËÂÌÚ_3116-2" x1="501.5" y1="957.3" x2="667.84" y2="1123.64" xlink:href="#_ÂÁ_Ï_ÌÌ_È_ËÂÌÚ_3116"/><linearGradient id="_ÂÁ_Ï_ÌÌ_È_ËÂÌÚ_3115" x1="570.57" y1="1276.5" x2="567.88" y2="1040.51" gradientUnits="userSpaceOnUse"><stop offset="0" stop-color="#fff"/><stop offset="0.65" stop-color="#bcded5"/><stop offset="1" stop-color="#97ccbe"/></linearGradient><linearGradient id="_ÂÁ_Ï_ÌÌ_È_ËÂÌÚ_7-2" x1="2093.8" y1="1178.33" x2="2008.63" y2="695.36" gradientTransform="matrix(1, 0, 0, 1, 0, 0)" xlink:href="#_ÂÁ_Ï_ÌÌ_È_ËÂÌÚ_7"/><linearGradient id="_ÂÁ_Ï_ÌÌ_È_ËÂÌÚ_3614-3" x1="1496.87" y1="856.3" x2="2826.91" y2="2186.34" xlink:href="#_ÂÁ_Ï_ÌÌ_È_ËÂÌÚ_3614"/><linearGradient id="_ÂÁ_Ï_ÌÌ_È_ËÂÌÚ_3116-3" x1="1596.08" y1="896.77" x2="1777.5" y2="1078.18" xlink:href="#_ÂÁ_Ï_ÌÌ_È_ËÂÌÚ_3116"/><linearGradient id="_ÂÁ_Ï_ÌÌ_È_ËÂÌÚ_3112-2" x1="1796" y1="1281.66" x2="1686" y2="1027.68" xlink:href="#_ÂÁ_Ï_ÌÌ_È_ËÂÌÚ_3112"/></defs><g class="cls-2"><g id="_ÎÓÈ_2" data-name="—ÎÓÈ_2"><g class="cls-3"><rect class="cls-4" x="-53.82" y="-13.71" width="2495.29" height="771.75"/><polygon class="cls-5" points="2441.47 -8.23 -58.61 -16.79 -58.61 998.07 2441.47 1006.63 2441.47 -8.23"/><polygon class="cls-6" points="766.53 -114.97 770.04 847.64 817.36 842.98 785.81 -154.59 766.53 -114.97"/><path class="cls-6" d="M920.28-168.64l12.27,643.29L899.24,840.58l54.34,4.67,19.28-365.94L1098.3-15.83l-14-9.32S981.63,418.71,969.36,421.05s-1.76-587.36-1.76-587.36Z"/><path class="cls-6" d="M485.92-60.64l28.21,919L708.81,847l46-946.72-11.49-18.39-23,528.52-4.59-517h-46s50.55,836.43-16.09,875.49S518.09-81.32,518.09-81.32Z"/><polygon class="cls-7" points="1404.56 765.12 1415.49 -152.01 1457.15 -164.86 1502.72 753.46 1404.56 765.12"/><polygon class="cls-8" points="415.97 870 426.9 -47.12 468.56 -59.98 514.13 858.35 415.97 870"/><polygon class="cls-9" points="1706.92 866.5 1717.85 -50.62 1759.51 -63.47 1805.08 854.85 1706.92 866.5"/><polygon class="cls-10" points="1806.83 854.85 1817.77 -62.27 1859.42 -75.13 1904.99 843.2 1806.83 854.85"/><polygon class="cls-11" points="-12.59 761.62 -1.66 -155.5 39.99 -168.36 85.56 749.97 -12.59 761.62"/><path class="cls-12" d="M206.24-232.59,218.51,410.7,185.2,776.63l54.34,4.66,19.28-365.93,34.62-125-14-9.32s-11.83,73.7-24.1,76-1.76-587.35-1.76-587.35Z"/><polygon class="cls-13" points="134.64 803.57 145.58 -113.55 187.23 -126.4 232.8 791.92 134.64 803.57"/><path class="cls-14" d="M2441.47,495.21c-82.95,18.13-176.53,47.95-200,62.28-31.18,19.06-36.24,66.85-36.84,89.21.33,6.87.08,11.9.08,11.9s-.28-4.61-.08-11.9c-.66-14-3.69-35.58-16-38.66-18.38-4.59-57.44,2.3-57.44,2.3s2.29-39.06-9.19-43.66-80.43-23-114.9,6.89c-29.61,25.67-11.75,114-6.12,138.42,1,4,1.53,6.35,1.53,6.35s-.61-2.34-1.53-6.35c-4.43-17-18.78-62.9-46.73-74.08-34.47-13.78-275.74,82.73-289.53,91.92s-32.17,62-32.17,62l-523.92,9.19s-13.78-48.25-25.27-57.44-243.58-55.15-275.75-32.17-48.25,98.81-48.25,98.81-6.9-181.54-23-202.22S568.64,543.7,534.18,571.28s-48.26,147.06-48.26,147.06-5.11-92.81-20.68-101.11-80.43-9.19-105.7-6.89-16.09,71.23-16.09,71.23-36.76-96.51-108-112.59C189.18,558.53,40.17,581-58.61,598.11V814.85H2441.47Z"/><path class="cls-15" d="M-58.61,31.89V90.68c193.62,56.26,397.73-22.85,409-31.83,11.49-9.19,23-46,23-46s0,27.58,27.58,50.56,163.15,91.91,250.47,82.72S798.43,31.28,798.43,31.28s-1.72,7.46,2.3,12.63,39.06,19.54,57.45,7.47c14.44-9.48,19.31-62.94,20.73-85.4L-35.7-58.34Z"/><path class="cls-16" d="M1196-25.6l-255.3-6.78c1.77,27.42,6.55,80,17.47,91.81,14.94,16.08,73,38.48,102.83,10.34s47.68-74.11,47.68-74.11-9.76,37.34-1.72,47.68,70.09-5.74,81-23S1196-25.6,1196-25.6Z"/><path class="cls-17" d="M303.62,118.6c-4.59,17.61,32.17,20.68,46,18.38s42.89-41.36,29.11-52.85S298.26,88.72,299,96.38,303.62,118.6,303.62,118.6Z"/><path class="cls-18" d="M263.79,100.21c0,6.13,11.49,23.75,20.68,19.92S295.2,91,280.64,90.26,263.79,100.21,263.79,100.21Z"/><path class="cls-19" d="M2441.47-81.53,1682-73.28c-39.06,62.05,36.77,147.07,64.34,165.45s250.47-23,260.81-37.91S2037-56,2037-56s0,91.91,19.54,104.55,75.83,28.72,95.36,17.23,46-86.17,46-86.17-9.2,48.26-1.15,54,37.91,6.9,45.95,1.15,14.94-47.1,14.94-47.1-14.94,99.95,54,117.19c32.81,8.2,84.6-7.55,129.89-26.31Z"/><path class="cls-20" d="M1629.11-15.83c77,46,71.24,88.47,58.6,103.4s-78.13,24.13-102.26,5.75-31-91.92-27.57-96.51S1629.11-15.83,1629.11-15.83Z"/><path class="cls-21" d="M641,498.89c-4.55,33.63,85,26.43,98.81,16.09s37.91-46,32.17-57.45S646.77,456.38,641,498.89Z"/><path class="cls-22" d="M744.43,425.36c-13.37,5.35,12.64,24.13,36.77,14.94s18.38-18.39,18.38-18.39S761.66,418.47,744.43,425.36Z"/><polygon class="cls-23" points="2441.47 750.99 -28.98 750.99 -31.06 1094.13 2441.47 1094.13 2441.47 750.99"/><path class="cls-24" d="M1834,853.9,2049.79,872S1998.69,849.07,1834,853.9Z"/><path class="cls-24" d="M1455.21,822.13-58.61,825.78v23.27c378.27-19.07,1628.33-5.19,1628.33-5.19S1003.9,897.2,787.3,975.24c-503.81,181.53-423.47,163.82-423.47,163.82l713,125.44S1525.61,874.1,1754.12,858c29.22-2.06,55.78-3.36,79.92-4.07Z"/><path class="cls-24" d="M2441.47,795.38l-933,7-34.85,19c97.37,7.66,584.18,25.08,967.84,38.11Z"/><path class="cls-24" d="M2441.47,904.25c-118.23,8.28-232.24,17.61-307.66,27-820.87,101.65-1429.55,394.42-1429.55,394.42l1737.21-197.08Z"/><polygon class="cls-25" points="-1.26 804.81 680.29 813.3 19.88 809.43 -1.26 804.81"/><polygon class="cls-26" points="567.65 818.89 691.29 823.29 685.64 823.96 552.1 822.12 567.65 818.89"/><polygon class="cls-25" points="841.46 762.21 591.29 814 567.65 818.89 321.72 810.16 32.13 805.73 -26.84 803.63 334.23 809.74 662.23 760.91 841.46 762.21"/><polygon class="cls-27" points="1464.41 805.02 1459.44 805.65 1273.7 797.8 1080.02 789.6 1004.44 786.4 1012.01 785.51 1085.23 788.67 1280.93 797.11 1464.41 805.02"/><path class="cls-27" d="M44.79,757.58c1.85-3.07,1076,15.81,1076,15.81l73.36-8.93L39.58,754.2Z"/><g class="cls-28"><path class="cls-29" d="M951.5,819l37-2.55s-17.19-2.55-24.4-2.55S951.5,819,951.5,819Z"/><path class="cls-29" d="M1153.79,823.49c15.56,0,33.72-3,33.72-3l-38.9.75,11.09.8Z"/><path class="cls-29" d="M967.06,827.25a62.28,62.28,0,0,0,15.56-.75Z"/><path class="cls-29" d="M1096.73,818.24c5.19.75,41.5-.75,41.5-.75l-38.9-.75Z"/><path class="cls-29" d="M920.37,821.24a394,394,0,0,1-47-3.28l59.5,2Z"/><path class="cls-29" d="M1065.61,820.49c5.19.75,7.78,0,7.78,0Z"/><path class="cls-29" d="M1190.1,814.49c2.6,1.5,15.56,0,15.56,0Z"/><path class="cls-29" d="M1190.1,816c5.19.75,31.13-.75,31.13-.75h-51.88Z"/><path class="cls-29" d="M1122.5,850.79l37-2.56s-17.19-2.55-24.4-2.55S1122.5,850.79,1122.5,850.79Z"/><path class="cls-29" d="M1423.61,877.59c15.56,0,33.72-3,33.72-3l-38.91.75,11.1.79Z"/><path class="cls-29" d="M1138.06,859a62,62,0,0,0,15.56-.76Z"/><path class="cls-29" d="M1366.55,872.33c5.19.75,41.5-.75,41.5-.75l-38.9-.75Z"/><path class="cls-29" d="M1190.19,875.34a392.87,392.87,0,0,1-47-3.29l59.5,2Z"/><path class="cls-29" d="M1335.43,874.59c5.19.75,7.78,0,7.78,0Z"/><path class="cls-29" d="M1459.92,868.58c2.6,1.5,15.56,0,15.56,0Z"/><path class="cls-29" d="M1459.92,870.08c5.19.75,31.12-.75,31.12-.75h-51.87Z"/><path class="cls-29" d="M1616.59,869.91l37-2.55s-17.19-2.55-24.41-2.55S1616.59,869.91,1616.59,869.91Z"/><path class="cls-29" d="M1632.15,878.15a62.28,62.28,0,0,0,15.56-.75Z"/><path class="cls-29" d="M1770.35,897.65a392.87,392.87,0,0,1-47-3.29l59.5,2Z"/><path class="cls-29" d="M1915.59,896.9c5.19.75,7.78,0,7.78,0Z"/><path class="cls-29" d="M1803.24,893l-61,4.21s28.31,4.2,40.19,4.2S1803.24,893,1803.24,893Z"/><path class="cls-29" d="M1796.93,853.61c-15.56,0-33.72,3-33.72,3l38.91-.75-11.1-.8Z"/><path class="cls-29" d="M1617.08,865.79a62.28,62.28,0,0,0-15.56.75Z"/><path class="cls-29" d="M1621.29,871.61c-5.19-.75-41.5.75-41.5.75l38.9.75Z"/><path class="cls-29" d="M1663.76,871.8a394.1,394.1,0,0,1,47,3.28l-59.51-2Z"/><path class="cls-29" d="M1518.53,872.55c-5.19-.75-7.79,0-7.79,0Z"/><path class="cls-29" d="M1394,878.55c-2.59-1.5-15.56,0-15.56,0Z"/><path class="cls-29" d="M1394,877.05c-5.18-.75-31.12.75-31.12.75h51.87Z"/><path class="cls-29" d="M1092.69,852l28.09,1.93s-13,1.94-18.52,1.94A15.47,15.47,0,0,1,1092.69,852Z"/><path class="cls-29" d="M1264.47,841.13a112,112,0,0,1,15.53,1.39l-17.92-.35,5.11-.37Z"/><path class="cls-29" d="M1274.07,845.78a28.32,28.32,0,0,1,7.17.35Z"/><path class="cls-29" d="M1272.14,848.46c2.39-.35,19.11.35,19.11.35l-17.92.34Z"/><path class="cls-29" d="M1252.57,848.55a181.82,181.82,0,0,0-21.67,1.51l27.41-.93Z"/><path class="cls-29" d="M1223.85,842.52a9.26,9.26,0,0,1,3.58,0Z"/><path class="cls-29" d="M1281.2,845.28c1.19-.69,7.17,0,7.17,0Z"/><path class="cls-29" d="M1281.2,844.59c2.39-.34,14.33.35,14.33.35h-23.89Z"/></g><g class="cls-28"><path class="cls-29" d="M50.24,857.75l41.1-2.55s-19.08-2.55-27.09-2.55A23.85,23.85,0,0,0,50.24,857.75Z"/><path class="cls-29" d="M274.79,862.24c17.27,0,37.42-3,37.42-3L269,860l12.31.79Z"/><path class="cls-29" d="M67.51,866a76.67,76.67,0,0,0,17.28-.75Z"/><path class="cls-29" d="M211.45,857c5.76.75,46.07-.75,46.07-.75l-43.19-.75Z"/><path class="cls-29" d="M15.69,860a483,483,0,0,1-52.2-3.29l66.05,2Z"/><path class="cls-29" d="M176.91,859.23c5.76.76,8.63,0,8.63,0Z"/><path class="cls-29" d="M315.09,853.23c2.88,1.5,17.27,0,17.27,0Z"/><path class="cls-29" d="M315.09,854.73c5.76.75,34.55-.75,34.55-.75H292.06Z"/><path class="cls-29" d="M240.05,889.53l41.1-2.55s-19.08-2.55-27.09-2.55A23.85,23.85,0,0,0,240.05,889.53Z"/><path class="cls-29" d="M574.28,916.33c17.28,0,37.43-3,37.43-3l-43.18.75,12.31.8Z"/><path class="cls-29" d="M257.32,897.77a76.55,76.55,0,0,0,17.27-.75Z"/><path class="cls-29" d="M511,911.08c5.76.75,46.06-.75,46.06-.75l-43.18-.76Z"/><path class="cls-29" d="M315.19,914.08a483,483,0,0,1-52.2-3.29l66,2Z"/><path class="cls-29" d="M476.4,913.33c5.76.75,8.64,0,8.64,0Z"/><path class="cls-29" d="M614.59,907.32c2.88,1.5,17.27,0,17.27,0Z"/><path class="cls-29" d="M614.59,908.82c5.76.75,34.54-.75,34.54-.75H591.56Z"/><path class="cls-29" d="M788.48,908.65l41.11-2.55s-19.08-2.55-27.09-2.55A23.9,23.9,0,0,0,788.48,908.65Z"/><path class="cls-29" d="M1218.25,938.64c17.28,0,37.43-3,37.43-3l-43.18.75,12.31.8Z"/><path class="cls-29" d="M805.76,916.89a76.61,76.61,0,0,0,17.27-.75Z"/><path class="cls-29" d="M1154.92,933.39c5.76.75,46.06-.75,46.06-.75l-43.18-.75Z"/><path class="cls-29" d="M959.16,936.39a484.44,484.44,0,0,1-52.2-3.28l66,2Z"/><path class="cls-29" d="M1120.37,935.64c5.76.75,8.64,0,8.64,0Z"/><path class="cls-29" d="M1258.56,929.64c2.88,1.5,17.27,0,17.27,0Z"/><path class="cls-29" d="M1258.56,931.14c5.76.75,34.54-.75,34.54-.75h-57.57Z"/><path class="cls-29" d="M995.67,931.78,928,936s31.43,4.2,44.61,4.2S995.67,931.78,995.67,931.78Z"/><path class="cls-29" d="M988.66,892.35c-17.27,0-37.42,3-37.42,3l43.18-.75-12.31-.8Z"/><path class="cls-29" d="M789,904.53a76.61,76.61,0,0,0-17.27.75Z"/><path class="cls-29" d="M793.7,910.35c-5.76-.75-46.06.75-46.06.75l43.18.75Z"/><path class="cls-29" d="M840.85,910.54a484.74,484.74,0,0,1,52.21,3.28l-66-2Z"/><path class="cls-29" d="M679.64,911.29c-5.76-.75-8.64,0-8.64,0Z"/><path class="cls-29" d="M541.45,917.29c-2.88-1.5-17.27,0-17.27,0Z"/><path class="cls-29" d="M541.45,915.79c-5.75-.75-34.54.75-34.54.75h57.57Z"/><path class="cls-29" d="M207,890.7l31.19,1.94s-14.48,1.93-20.56,1.93A18.12,18.12,0,0,1,207,890.7Z"/><path class="cls-29" d="M397.64,879.88a138.77,138.77,0,0,1,17.24,1.38L395,880.91l5.67-.37Z"/><path class="cls-29" d="M408.3,884.52a35.54,35.54,0,0,1,8,.35Z"/><path class="cls-29" d="M406.15,887.2c2.65-.34,21.22.35,21.22.35l-19.89.34Z"/><path class="cls-29" d="M384.43,887.29a223.3,223.3,0,0,0-24.05,1.51l30.42-.93Z"/><path class="cls-29" d="M352.55,881.26a11.36,11.36,0,0,1,4,0Z"/><path class="cls-29" d="M416.2,884c1.33-.69,8,0,8,0Z"/><path class="cls-29" d="M416.2,883.33c2.66-.34,15.92.35,15.92.35H405.59Z"/></g><path class="cls-30" d="M1084,904.08l-.19,0-.83,0Z"/><path class="cls-31" d="M551.65,220.56l.38.24-5.31-2.9Z"/><path class="cls-32" d="M1024.9,772.65l411.17.21h.21l3.47.06,21.78.44c5.88-33.28,15.49-92.53,15.06-123.3,0-1.08,0-2.17-.08-3.26-.42-10.54-1.78-19.62-4.54-26-13.69-31.71-49.36-91.07-83.79-94.47-16.25-1.63-26,8.64-31.89,21.25-8,17.18-8.3,38-8.3,38s-.81-.52-2.32-1.37c-7.84-4.23-35.2-15.95-64.13,7-29.09,23.09-47.14,100.67-54.42,138.43-2.34,12.17-3.47,19.8-3.47,19.8l-1.26-5.78s.2-6.74-.17-15.59c-.58-15-2.7-36.06-10.15-40.24-4.72-2.6-8,5.41-10.35,16.23-3.15,14.64-4.35,34-4.6,38.57.17-11.56-22.78-13.44-54-52.34-4.84-6.13-10.58-10.56-17.28-12.74-57.5-18.6-63.6-.55-76.3,21.42a57.93,57.93,0,0,0-4.41,10.23C1035.8,736.77,1024.9,772.65,1024.9,772.65Z"/><g class="cls-33"><path class="cls-34" d="M1024.9,772.65l411.17.21h.21l3.47.06,21.78.44c5.88-33.28,15.49-92.53,15.06-123.3,0-1.08,0-2.17-.08-3.26l-1.91-14.75s-4.91,37.66-40.43,37.91c-38.24.25-87.48-73.11-77.88-122.4-8,17.18-8.3,38-8.3,38s-.81-.52-2.32-1.37c8.57,11.76,28.4,46.45,16.85,109-15.78,85.19-119.39,67.91-135.4,36.49-2.34,12.17-3.47,19.8-3.47,19.8l-1.26-5.78s.2-6.74-.17-15.59c-3,10.5-6.84,18.18-11.5,21.38-10.72,7.39-11.88-14.91-9-45.39-3.15,14.64-4.35,34-4.6,38.57.17-11.56-22.78-13.44-54-52.34,2.85,16.15,45.14,20.52-25.65,49.42-60.61,24.76-45.65,3.06-72.34-30.51C1035.8,736.77,1024.9,772.65,1024.9,772.65Zm349-58.17c2.2-10,22.3-37,41.18-21.31,0,0,13.79,12.48,2.95,26.54C1406.71,734.49,1371.74,724.72,1374,714.48Zm-12.79,19.61s5.19-13.32,18.87-4c0,0-2.58,11-8.82,12.37S1361.16,734.09,1361.16,734.09Z"/></g><path class="cls-35" d="M1424,715.32c0,34.61-4.91,56.26-4.91,56.26l20.9,1.54C1422.46,760.57,1424.84,730.85,1424,715.32Z"/><path class="cls-36" d="M945.5,744.16,948.88,774l78.2.68,30.88-5.87,123.76-2.06s7.55-114-27.61-150.26a36.8,36.8,0,0,0-6.72-5.61c-42.81-28-91.89,10.73-103.75,23.55a4.41,4.41,0,0,0-.71.89,7.4,7.4,0,0,0-.61.77c0,.06,0,.13-.11.19a19.79,19.79,0,0,0-1.58,3c-.33.63-.6,1.34-.93,2.1s-.55,1.47-.82,2.3-.55,1.66-.77,2.48-.49,1.79-.71,2.68-.43,1.85-.65,2.81a.21.21,0,0,0-.06.13q-.9,4.31-1.64,9c-.6,4-1.09,8-1.53,12.12-.16,1.34-.27,2.74-.38,4.08-.11,1.08-.16,2.17-.27,3.19a10.09,10.09,0,0,0-.11,1.34c-.33,4.4-.55,8.61-.71,12.37-.22,4-.33,7.53-.39,10.21-.05,1.21-.05,2.29-.05,3.12-.06,1.72-.06,2.74-.06,2.74s0-.25-.11-.7-.1-.76-.21-1.34a74.9,74.9,0,0,0-3.72-13.64,29.89,29.89,0,0,0-1.31-3.13c-.06-.13-.11-.19-.11-.26-.5-1-1-1.91-1.48-2.74a24,24,0,0,0-1.8-2.74c-2.57-3.38-5.85-5.68-9.95-5.55-14.77.38-60.31,10.08-64.24,14.86S945.5,744.16,945.5,744.16Z"/><path class="cls-37" d="M945.5,744.16,948.88,774l78.2.68,30.88-5.87,123.76-2.06s7.55-114-27.61-150.26c-16.62,74.68-51.21,98.81-78.16,99.45-30.89.77-45.11-45.92-32.31-81.51a4.41,4.41,0,0,0-.71.89,7.4,7.4,0,0,0-.61.77c0,.06,0,.13-.11.19a17.55,17.55,0,0,0-1.58,3c-.33.63-.6,1.34-.93,2.1s-.55,1.47-.82,2.3-.55,1.66-.77,2.48-.49,1.79-.71,2.68-.43,1.85-.65,2.81a.21.21,0,0,0-.06.13c-.65,2.8-1.2,5.87-1.64,9-.65,4-1.15,8-1.53,12.12-.16,1.34-.27,2.74-.38,4.08-.11,1.08-.16,2.17-.27,3.19a10.09,10.09,0,0,0-.11,1.34c-.33,4.27-.6,8.35-.77,12-.16,4.15-.27,7.78-.33,10.59-.05,1.21-.05,2.29-.05,3.12-.06,1.72-.06,2.74-.06,2.74s0-.25-.11-.7-.1-.76-.21-1.34a74.9,74.9,0,0,0-3.72-13.64,29.89,29.89,0,0,0-1.31-3.13c-.06-.13-.11-.19-.11-.26-.5-1-1-1.91-1.48-2.74a24,24,0,0,0-1.8-2.74c-1,8.87-7.71,54-38.88,68.82-34.6,16.52-35.31-59.51-35.31-59.51C944.68,699.45,945.5,744.16,945.5,744.16Z"/><path class="cls-38" d="M1027.07,774.64l30.9-5.84c-8.9-15.18-22.12-42.26-26-75.32-.46,9.61-.48,16.44-.48,16.44s-.1-.75-.32-2C1034.19,730.7,1030.31,760.16,1027.07,774.64Z"/><path class="cls-39" d="M1650.09,783.11H1482.87s-5.32-80.38,19.47-106a25.62,25.62,0,0,1,4.75-4c30.18-19.75,64.79,7.57,73.16,16.61a4.47,4.47,0,0,1,.5.63,6.35,6.35,0,0,1,.42.54s0,.09.08.14l.29.46c.16.27.32.57.47.89a7.6,7.6,0,0,1,.35.76c.24.45.43.94.66,1.48s.39,1,.58,1.62.38,1.17.54,1.76.35,1.26.5,1.89.31,1.3.46,2a.14.14,0,0,1,.05.09c.42,2,.81,4.14,1.15,6.33.42,2.79.77,5.67,1.08,8.55.11,1,.19,1.94.27,2.88.08.77.11,1.53.19,2.25a7.45,7.45,0,0,1,.08.94c0,.39.06.77.08,1.16.19,2.67.32,5.21.42,7.52v.05c.12,2.1.18,4,.24,5.6q0,.86,0,1.59c0,.86,0,1.62,0,2.21,0,1.21,0,1.93,0,1.93a.15.15,0,0,0,0-.06h0s0-.1,0-.17,0-.15,0-.25.08-.54.16-.95a53.35,53.35,0,0,1,2.62-9.62,21.32,21.32,0,0,1,.93-2.2.62.62,0,0,0,.07-.18c.35-.68.69-1.35,1.05-1.94a16.44,16.44,0,0,1,1.26-1.93c1.82-2.39,4.13-4,7-3.91,10.41.27,42.53,7.1,45.3,10.48s2.2,34.89,2.2,34.89Z"/><path class="cls-40" d="M1650.09,783.11H1482.87s-5.32-80.38,19.47-106c11.72,52.67,36.11,69.68,55.12,70.13,21.78.54,31.81-32.38,22.79-57.48a4.47,4.47,0,0,1,.5.63,6.35,6.35,0,0,1,.42.54s0,.09.08.14l.29.46c.16.27.32.57.47.89a7.6,7.6,0,0,1,.35.76c.24.45.43.94.66,1.48s.39,1,.58,1.62.38,1.17.54,1.76.35,1.26.5,1.89.31,1.3.46,2a.14.14,0,0,1,.05.09c.45,2,.84,4.14,1.15,6.33.47,2.79.81,5.67,1.08,8.55.11,1,.19,1.94.27,2.88.08.77.11,1.53.19,2.25a7.45,7.45,0,0,1,.08.94c0,.39.06.77.08,1.16.2,2.59.36,5.07.46,7.3,0,.6,0,1.18.06,1.74s0,.94,0,1.39c0,.29,0,.57,0,.85q0,1,.06,1.89t0,1.59c0,.86,0,1.62,0,2.21,0,1.21,0,1.93,0,1.93a.15.15,0,0,0,0-.06h0s0-.1,0-.17,0-.15,0-.25.08-.54.16-.95a53.35,53.35,0,0,1,2.62-9.62,21.32,21.32,0,0,1,.93-2.2.62.62,0,0,0,.07-.18c.35-.68.69-1.35,1.05-1.94a16.44,16.44,0,0,1,1.26-1.93c.74,6.25,5.44,38,27.42,48.53,24.4,11.65,24.9-42,24.9-42,2.78,3.37,2.2,34.89,2.2,34.89Z"/><path class="cls-41" d="M1591.51,783.11H1571c6.22-10.9,14.83-29.25,17.44-51.45l0-.2c0,.59,0,1.17.07,1.72s0,.94,0,1.39c0,.29,0,.57,0,.85.15,4.17.18,7,.18,7.55h0v.07l0-.25c0-.24.1-.65.2-1.19C1587,757.08,1589.3,772.85,1591.51,783.11Z"/><path class="cls-42" d="M665,771-5.9,778.93s-5.16-73.76,19.41-97.32A27.74,27.74,0,0,1,18.23,678c29.93-18.15,103.57,4.18,111.85,12.47s8.36,48.87,8.36,48.87,1.44-10.28,6.12-15.92a8.71,8.71,0,0,1,6.95-3.59c10.32.21,42.08,6.45,44.83,9.55s2.15,32,2.15,32l33.74,1.71s-22.52-57.53-19.49-93.37c.78-9.24,3.27-17,8.28-22,24.42-24.35,83.88-64.21,133.41-55.07,21.33,3.94,32.94,14.82,39.26,25.95a59.43,59.43,0,0,1,7.43,29.81s1-.22,2.77-.49c9.14-1.37,39.2-3.87,65.84,16.62C494,683.15,503,730.34,505.88,751.77c.91,6.71,1.22,10.9,1.22,10.9L527.32,760s.39-3.57,1.34-8.22c1.61-8,4.86-19.15,10.52-21,3.57-1.14,5.24,3.31,6,9.06v0c1.05,8.36.08,19.49,0,20.41.31-2.3,9-66.78,33.92-84.74a23,23,0,0,1,12-4.55c34.76-2.33,71.1,54.74,74.65,64.45a21.61,21.61,0,0,1,1,4.39C668.26,751.35,665,771,665,771Z"/><path class="cls-43" d="M666.73,739.9c-14.51,13.13-41.88,31.65-71.86,20-41.15-16-19.07-76.06-15.81-84.31-24.92,18-33.61,82.44-33.92,84.74.08-.92,1.05-12.05,0-20.41-.49,15.85-3,27.21-9.91,23.31-3.08-1.75-5.19-5.83-6.57-11.43-.95,4.65-1.34,8.22-1.34,8.22l-20.22,2.63s-.31-4.19-1.22-10.9c-15.2,17-114.54,27.13-127.86-29.83-10.72-45.83,15.22-67.37,25.87-74.08-1.79.27-2.77.49-2.77.49a59.43,59.43,0,0,0-7.43-29.81c8.22,38.21-56.37,83.5-110.83,78.09C224.81,690.87,216.22,657,216.22,657l-3.48,12.65c-3,35.84,19.49,93.37,19.49,93.37l-33.74-1.71s.6-28.91-2.15-32c0,0-.55,49.2-24.72,38.56-21.75-9.59-26.36-38.78-27.06-44.52-3.65,4.4-5.33,11.62-5.89,14.59h0c-.16.83-.23,1.32-.23,1.32s0-4.42-.32-10.64c-.63-12.63-2.5-32.68-8-38.23,8.9,23-1.11,53.24-22.67,52.8-18.82-.39-82.35-13.29-93.9-61.62C-11.06,705.17-5.9,778.93-5.9,778.93l125.82-1.48,21.43-.26,130.56-1.54h0l5.19-.06h0L665,771S668.26,751.35,666.73,739.9ZM305,736.67c-15.24-11.48,5.1-19.68,5.1-19.68,26.46-9.6,50.88,11.7,53.08,18.85S320.25,748.14,305,736.67Zm60.12,18.49C357.65,754,355,746.33,355,746.33c17-5.74,22.44,3.51,22.44,3.51S372.61,756.33,365.13,755.16Z"/><path class="cls-44" d="M141.35,777.19l-21.43.26c6.23-9.84,15.49-27.38,18.2-48.79.31,6.22.32,10.64.32,10.64s.07-.49.23-1.32C136.56,752.76,139.1,767.83,141.35,777.19Z"/><path class="cls-45" d="M296.64,732.94c-1,25.86,5.24,41.71,5.24,41.71l-30.39,1.15C297.51,766.64,295,744.58,296.64,732.94Z"/><path class="cls-46" d="M2441.47,567.93c-11.42-5-25.55-8-42.92-8.44-129.53-3.23-291.25,112-306.16,129.78-12.43,14.78-18.34,60.53-20.1,76.72.11-5.09-.75-12.66-5.89-18.2-3.94-4.23-10.34-7.26-20.69-7.1-13.68.2-21.34,6.37-25.72,13.33-.5.78-1,1.57-1.36,2.37q-.17.3-.3.6c-.28.55-.54,1.11-.78,1.66-.06.13-.12.27-.17.41a4.89,4.89,0,0,0-.2.48c-.35.85-.66,1.69-.93,2.51h0c-.08.23-.15.47-.23.7-.44,1.43-.79,2.79-1.06,4,0,.17-.07.34-.1.5-.08.37-.14.73-.21,1.08s-.12.68-.17,1l-.09.62c0,.13,0,.26-.05.39q-.08.51-.12,1c0,.39-.08.74-.1,1,0,.15,0,.29,0,.42,0,.44,0,.73,0,.83,0-.16,0-.88-.12-2,0-.16,0-.32,0-.5s0-.17,0-.26c0-.3,0-.62-.07-1l-.06-.86c0-.23,0-.46-.06-.71q-.06-.88-.15-1.92c0-.2,0-.4,0-.61l-.06-.65c0-.3,0-.59-.07-.9l-.09-.92c0-.27,0-.54-.07-.82-.14-1.56-.31-3.25-.5-5,0-.24,0-.49-.08-.74-.11-1-.22-2.05-.34-3.11-.06-.53-.12-1.07-.19-1.61,0-.28-.06-.55-.1-.83s-.06-.55-.1-.82l-.21-1.69c-.08-.56-.15-1.13-.23-1.71,0-.29-.07-.58-.11-.87-.08-.57-.16-1.16-.24-1.75-.13-.88-.25-1.77-.39-2.67l-.27-1.8c-.65-4.21-1.4-8.57-2.27-12.92-.09-.47-.19-.93-.29-1.39-.18-.93-.38-1.86-.58-2.78-.1-.46-.21-.92-.31-1.38a162.41,162.41,0,0,0-4.34-15.84.06.06,0,0,1,0,0l-.84-2.4v0l-.39-1c-.14-.37-.27-.74-.42-1.1l-.36-.92-.33-.82c-.18-.43-.35-.85-.54-1.27a51.92,51.92,0,0,0-7-12.1c-.27-.33-.55-.66-.83-1l-.41-.47a18.14,18.14,0,0,0-9.13-5.73c-25.37-6-65.35-2.15-81.41,3.87a28.74,28.74,0,0,0-8,4.66c-10.18,8.29-15,22.22-15,22.22s-2.23-1-6-2.5c-12-4.69-38.81-13.6-59.88-9.14-8.9,1.89-19.92,10.91-30.74,22.16l-1,1.07-.86.91q-1.82,1.93-3.63,4c-1.85,2.06-3.69,4.16-5.5,6.28l-.9,1.06c-.9,1.07-1.79,2.13-2.67,3.2-3.88,4.69-7.58,9.38-11,13.81-.22.3-.45.59-.67.88l-.76,1c-.5.66-1,1.32-1.48,2l-1.44,1.92c-1.18,1.58-2.3,3.11-3.36,4.56-.16.23-.33.45-.48.67l-.15.2-.19.26c-.34.47-.68,1-1,1.41l-.29.4-.85,1.19c-.16.22-.3.43-.45.63-.52.73-1,1.43-1.49,2.09-.08.13-.17.25-.26.38l-.36.51-.23.33-1.94,2.77c-.08.13-.17.26-.26.38l-.28.41c-1,1.38-1.62,2.36-2,2.86l-.1.14-.14.22,0,0a2,2,0,0,1,.08-.23.14.14,0,0,1,0-.07c0-.13.09-.3.16-.51l0-.1,0-.13c0-.05,0-.09,0-.14.18-.57.41-1.33.67-2.25,0-.12.07-.25.11-.37s.16-.56.24-.86.1-.35.15-.54a.25.25,0,0,1,0-.07c0-.13.07-.26.11-.4.26-1,.54-2,.82-3.16l.12-.47.47-2c.08-.33.16-.68.23-1,0-.06,0-.11,0-.17l.12-.57c.13-.62.27-1.25.4-1.89h0c.4-2,.77-4.12,1.07-6.23,0-.29.07-.57.11-.86s.09-.69.13-1,.07-.58.1-.87c0-.12,0-.24,0-.36,0-.27,0-.55.07-.82s.05-.59.08-.89a2.83,2.83,0,0,1,0-.29c0-.23,0-.47,0-.7,0-.59.06-1.16.07-1.73,0-.16,0-.32,0-.48s0-.43,0-.65v-1.2c-.15-7-2-12.71-7.5-13.75-15-2.85-39.91,11.45-43.9,15a11.62,11.62,0,0,0-1.83,2.67c-5.16,9.29-15.52,38.12-15.52,38.12l53.64-.16,9.46,0,120.78-.37,7,0,128.07-.38,28.26-.09,177.16-.53,33.12-.11h0l153.47-.45,37.11-.12,18.8-.06Z"/><path class="cls-47" d="M2441.47,611.81C2356,675.92,2086,719.08,2092.39,689.27c-12.43,14.78-18.34,60.53-20.1,76.72.11-5.09-.75-12.66-5.89-18.2-7.28,10.15-26.08,33.61-36.81,22.47A42.82,42.82,0,0,1,2020,754c-.5.78-1,1.57-1.36,2.37q-.17.3-.3.6c-.28.55-.54,1.11-.78,1.66-.06.13-.12.27-.17.41a4.89,4.89,0,0,0-.2.48c-.35.85-.66,1.69-.93,2.51h0c-.08.23-.15.47-.23.7-.44,1.43-.79,2.79-1.06,4,0,.17-.07.34-.1.5-.08.37-.14.73-.21,1.08s-.12.68-.17,1l-.09.62c0,.13,0,.26-.05.39q-.08.51-.12,1c0,.39-.08.74-.1,1,0,.15,0,.29,0,.42,0,.44,0,.73,0,.83,0-.16,0-.88-.12-2,0-.16,0-.32,0-.5s0-.17,0-.26c0-.3,0-.62-.07-1l-.06-.86c0-.23,0-.46-.06-.71q-.06-.88-.15-1.92c0-.2,0-.4,0-.61l-.06-.65c0-.3-.05-.59-.07-.9l-.09-.92c0-.27,0-.54-.07-.82-.14-1.56-.31-3.25-.5-5,0-.24,0-.49-.08-.74-.11-1-.22-2.05-.34-3.11-.06-.53-.12-1.07-.19-1.61,0-.28-.06-.55-.1-.83s-.06-.55-.1-.82l-.21-1.69c-.08-.56-.15-1.13-.23-1.71,0-.29-.07-.58-.11-.87-.08-.57-.16-1.16-.24-1.75-.13-.88-.25-1.77-.39-2.67-.08-.6-.18-1.2-.27-1.8-.65-4.21-1.4-8.57-2.27-12.92-.09-.47-.19-.93-.29-1.39-.18-.93-.38-1.86-.58-2.78-.1-.46-.21-.92-.31-1.38a162.41,162.41,0,0,0-4.34-15.84.06.06,0,0,1,0,0l-.84-2.4v0l-.39-1c-.14-.37-.27-.74-.42-1.1l-.36-.92-.33-.82c-.18-.43-.35-.85-.54-1.27a51.92,51.92,0,0,0-7-12.1c-.27-.33-.55-.66-.83-1l-.41-.47c-1.29,1.55-49.86,59.83-82.49,61.53-29.5,1.54-35.51-36.19-16-58.73-10.18,8.29-15,22.22-15,22.22s-2.23-1-6-2.5c1.93,3.14,6.27,12.67-.78,26.67-8.94,17.76-117.68,30.8-97.33-2.77a119.34,119.34,0,0,1,7.49-10.88l-1,1.07-.86.91q-1.82,1.93-3.63,4c-1.85,2.06-3.69,4.16-5.5,6.28l-.9,1.06c-.9,1.07-1.79,2.13-2.67,3.2-3.88,4.69-7.58,9.38-11,13.81-.22.3-.45.59-.67.88l-.76,1c-.5.66-1,1.32-1.48,2l-1.44,1.92c-1.18,1.58-2.3,3.11-3.36,4.56-.16.23-.33.45-.48.67l-.15.2-.19.26c-.34.47-.68,1-1,1.41l-.29.4-.85,1.19c-.16.22-.3.43-.45.63-.52.73-1,1.43-1.49,2.09-.08.13-.17.25-.26.38l-.36.51-.23.33-1.94,2.77c-.08.13-.17.26-.26.38l-.28.41c-1,1.38-1.62,2.36-2,2.86l-.1.14-.14.22,0,0a2,2,0,0,1,.08-.23.14.14,0,0,1,0-.07c0-.13.09-.3.16-.51l0-.1,0-.13c0-.05,0-.09,0-.14.18-.57.41-1.33.67-2.25,0-.12.07-.25.11-.37s.16-.56.24-.86.1-.35.15-.54a.25.25,0,0,1,0-.07c0-.13.07-.26.11-.4.26-1,.54-2,.82-3.16l.12-.47.47-2c.08-.33.16-.68.23-1,0-.06,0-.11,0-.17l.12-.57c.13-.62.27-1.25.4-1.89h0c.4-2,.77-4.12,1.07-6.23,0-.29.07-.57.11-.86s.09-.69.13-1,.07-.58.1-.87c0-.12,0-.24,0-.36,0-.27,0-.55.07-.82s.05-.59.08-.89a2.83,2.83,0,0,1,0-.29c0-.23,0-.47,0-.7,0-.59.06-1.16.07-1.73,0-.16,0-.32,0-.48s0-.43,0-.65v-1.2l-.63.5s-32.23,15.43-45.47,14c-5.4-.57-7.08-5.31-7.13-10.56-5.16,9.29-15.52,38.12-15.52,38.12l53.64-.16,9.46,0,120.78-.37,7,0,128.07-.38,28.26-.09,177.16-.53,33.12-.11h0l153.47-.45,37.11-.12,18.8-.06ZM1870.52,764.34c-2.28,1.21-61.2,8.84-43-4C1859.2,738,1872.81,763.13,1870.52,764.34Zm338.56-22c-9.37,6.62-70.29,16.76-79.62,11.74,0,0,2.37-8.35,21.33-13.74C2170.17,734.84,2218.49,735.71,2209.08,742.35Zm214.47-52.65s0,0,0,0,0,0,0,0a10,10,0,0,1-1.63,3v0c-2,2.62-5.42,5.45-10.74,8.52-48.84,28.26-226.72,28-227.16,23.7s46.74-48.91,170.17-58.15c0,0,75.49,3.85,69.36,22.86C2423.56,689.68,2423.56,689.69,2423.55,689.7Z"/><path class="cls-48" d="M1858.46,785.84c4.08-5.65,10-14.59,12.06-21.5l-5,21.48Z"/><path class="cls-49" d="M1769.12,734.79c-17.3,22.86-26.56,39.52-31.44,51.42l-9.46,0c5.63-7.93,10.78-16.91,13.35-25.8-.13.64-.27,1.27-.4,1.89l-.12.58c0,.05,0,.1,0,.16-.07.34-.15.69-.23,1l-.47,2-.12.47c-.28,1.14-.56,2.2-.82,3.16,0,.14-.08.27-.11.4a.25.25,0,0,0,0,.07c0,.19-.1.36-.15.54s-.16.59-.24.86-.07.25-.11.37c-.26.92-.49,1.68-.67,2.25,0,0,0,.09,0,.14l0,.13,0,.11c-.07.2-.12.37-.16.5a.14.14,0,0,0,0,.07,2,2,0,0,0-.08.23l0,0,.14-.22.1-.14c.33-.5,1-1.48,2-2.86l.28-.41c.09-.12.18-.25.26-.38l1.94-2.77.23-.33.36-.51.27-.38,1.48-2.09c.15-.2.29-.41.45-.63l.85-1.19.29-.4q.51-.69,1-1.41l.19-.26.15-.2c.15-.22.32-.44.48-.67,1.06-1.45,2.18-3,3.36-4.56L1753,754c.48-.65,1-1.31,1.48-2l.76-1c.22-.29.45-.58.67-.88,3.39-4.43,7.09-9.12,11-13.81l2.67-3.2.9-1.06c1.81-2.12,3.65-4.22,5.5-6.28Q1772.7,730,1769.12,734.79Z"/><rect class="cls-50" x="-58.61" y="-23.7" width="2500.09" height="1131.1"/><rect class="cls-51" x="-58.61" y="-29.46" width="2500.09" height="1126.65"/><ellipse class="cls-52" cx="1106.64" cy="965.63" rx="281.19" ry="52.43"/><path class="cls-53" d="M895.59,512.14s16.24-.19,24.56,11.74C920.15,523.88,915.68,517.79,895.59,512.14Z"/><path class="cls-53" d="M892.05,525s15-6.11,27.15,2C919.2,526.91,912.81,522.88,892.05,525Z"/><path class="cls-54" d="M1002.17,831c.44-12.86-.43-25.75-1.34-38.57-.79-11-1.94-22.12-6.39-32.35-4.35-10-11.59-18.07-18-26.76S965,715.4,960.06,706s-9.76-18.79-15.92-27.4c-5.31-7.41-11.7-16.7-21.23-18.45-4.2-.77-8.72,1.82-8.61,6.57,0,.69.1,1.36.13,2-18.15-18.17-43.63-28.67-66.17-11.69-24.81,18.69-25,50.18-18.34,79.2-1.13-1.16-2.1-2.5-3.27-3.61-7.09-6.73-15.78-10.65-24.47-4.19-18.45,13.71-13.25,46.39-10.23,65.66,4.9,31.39,24.78,58.87,51.6,75-.68.14-1.35.2-2,.35-5.87,1.29-6.46,9.56-1.63,12.44a121.23,121.23,0,0,0,38.73,14.78,12.85,12.85,0,0,0,3.9,10.38c6.1,5.87,16.81,5.9,24.33,1.62,9.32,10.56,24.89,12.64,38.88,12.06,16.71-.69,35.63-3.8,43.57-20.56a6.85,6.85,0,0,0,.27-5.46C995.37,873.8,1001.41,852.9,1002.17,831Z"/><path class="cls-55" d="M843.55,869.14c-.68.14-1.35.2-2,.35-5.87,1.29-6.46,9.56-1.63,12.44a121.23,121.23,0,0,0,38.73,14.78,12.85,12.85,0,0,0,3.9,10.38c6.1,5.87,16.81,5.9,24.33,1.61,9.32,10.57,24.89,12.65,38.88,12.07,16.71-.69,35.63-3.8,43.57-20.56a6.85,6.85,0,0,0,.27-5.46c5.8-21,11.84-41.85,12.6-63.72.44-12.86-.43-25.75-1.34-38.57-.79-11-1.94-22.12-6.39-32.35-4.35-10-11.59-18.07-18-26.76S965,715.4,960.06,706c-2-3.88-4.1-7.75-6.22-11.6a4.1,4.1,0,0,0-1.45.13c-23.72,9.85-37.4-14.19-37.4-14.19,39.69,144.26-71.85,73.43-71.85,73.43s55.51,77.67,11.3,85.61c-43.82,7.85-64.83-66.32-65.21-67.67.54,8.15,1.72,16.05,2.72,22.43C796.85,825.5,816.73,853,843.55,869.14Z"/><path class="cls-56" d="M1001.43,802.27c-.12-1.87-.22-3.75-.35-5.62-3.63-9.71-15.52-40.93-28.67-69.46-4.47-6.86-8.53-14-12.35-21.22-4.91-9.35-9.76-18.79-15.92-27.4-21.25-20.56-36.27-4.93-36.27-4.93-55.2-23.17-68.21,76.48-68.21,76.48-38.24-24.91-50.42,21.56-50.43,21.56.54,8.15,1.72,16.05,2.72,22.43,4.9,31.39,24.78,58.87,51.6,75-.68.14-1.35.2-2,.35-5.87,1.29-6.46,9.56-1.63,12.44a121.23,121.23,0,0,0,38.73,14.78,12.85,12.85,0,0,0,3.9,10.38c6.1,5.87,16.81,5.9,24.33,1.61,9.32,10.57,24.89,12.65,38.88,12.07a116.07,116.07,0,0,0,12.49-1.12l4.17-9.09Z"/><path class="cls-57" d="M942.21,669.59s-19.12,20.86-18.54,49.83c0,0-14.6-8.12-8.75,18,0,0-45.13,29-33.54,88.06S990.3,946,1010.58,928.57c0,0,111.82,20.28,157.59-2.9,0,0,21.43,28.59,49.24,11.11s51-65.57,52.73-102.07-7-70.1-24.92-69c0,0,.22-23.75-10.43-36.5s-.58-69.52-.58-69.52Z"/><path class="cls-58" d="M1010.58,928.57s111.81,20.28,157.59-2.9c0,0,21.43,28.59,49.24,11.11s51-65.57,52.73-102.07c.76-16.09-.5-31.6-3.69-43.84,0,.31,4.47,49.66-8.65,57.75s-11.42-45.2-12.58-82.85c0-1.58-.13-3-.18-4.56-.5-7.5-2.46-22.62-10.25-32-5.25-6.29-5.45-23.32-4.31-39l-28.79-29.47-254.13,8.57-8.4,4s-2.43,38.49,32.31,57.6,44.9,39.4,44.9,39.4S985.66,738.82,928.74,738c0,0,63.76,8,103.51,67.45s-95.89,60.33-151.75,13.93c.28,2,.46,4,.88,6.11C893,884.54,990.3,946,1010.58,928.57Z"/><path class="cls-59" d="M1236.53,833.55c14.52-91.13-84.64-162.5-99.93-170.52l-2,.07-1.95.06-118.42,64.49s-3,27.1,14.43,57c0,0-10.77-11.45-41.23-23.35l-.27-.09a155.34,155.34,0,0,1,34.56,30.4c.28.3.55.52.83.84,15.67,17.34,63,70.35,44.35,121.62-3.7,10.15-2.32,16.95,2.07,21.49,4,.28,8.13.51,12.28.71l1.13.06c3.73.16,7.51.26,11.29.33.82,0,1.63.05,2.45.06,3.41,0,6.81,0,10.2-.06,1.16,0,2.32,0,3.47,0,3.07-.08,6.09-.26,9.11-.44,1.41-.08,2.85-.12,4.24-.23,2.8-.21,5.51-.53,8.22-.84,1.51-.17,3.06-.29,4.53-.5,2.61-.35,5.07-.84,7.55-1.31,1.45-.27,3-.47,4.37-.78,2.54-.56,4.88-1.27,7.25-2,1.18-.35,2.46-.62,3.59-1a69.52,69.52,0,0,0,9.5-3.9s.22.29.57.71,1,1.24,1.81,2C1192.23,918.53,1225.35,903.74,1236.53,833.55Z"/><path class="cls-60" d="M1238.27,609.91s15.64,19.7,19.12,45.77-15.5,42.3-33.24,60.84-67.57,57.94-81.48,72.42-12.16,19.7-24.91,14.48c0,0-16.22-.58-19.12-18s4.06-36.5,4.06-36.5l29-53.88,29.67-80.53Z"/><path class="cls-61" d="M1117.76,803.42s-8-13.21,2.9-25.78C1120.66,777.64,1101.25,790.1,1117.76,803.42Z"/><path class="cls-62" d="M1171,725.21c19-42.3,67.3-46.35,69.62-73.58s-4.64-35.34-4.64-35.34l-3.53-6-71.08,4.28-29.68,80.53-29,53.88s-7,19.12-4.06,36.5,19.12,18,19.12,18c12.75,5.22,11,0,24.91-14.48,12-12.5,50.71-43.53,72.51-63.72C1214.93,725.39,1152,767.42,1171,725.21Z"/><path class="cls-63" d="M992.18,295.31s-53.45,30-118.19-22.16-.9-137.31,59.1-67.35,84.73,72.57,84.73,72.57l-5.65,10.86Z"/><path class="cls-64" d="M968.28,588.48s-24.91,19.7-30.7,63.15,38.23,60.83,73.58,77.63,79.95,26.66,90.38,38.24,8.69,15.65,19.12,15.65c0,0,7.53,8.69,19.12,9.85s14.48-13.91,15.64-21.44c0,0,6.95-9.85,5.79-20.86s-20.27-38.82-44-51S968.28,588.48,968.28,588.48Z"/><path class="cls-65" d="M1101.54,767.5c10.43,11.59,8.69,15.65,19.12,15.65,0,0,7.53,8.69,19.12,9.85s14.48-13.91,15.64-21.44c0,0,6.95-9.85,5.79-20.86s-20.27-38.82-44-51c-13.62-7-60.5-42.47-98.07-71.53-26.62-3.57-50.79-2.87-49.78,11.91,2.2,32.51,33.71,44,62.92,50.67s76.24,56.45,29.89,50.08c-45-6.18-96.73-36.06-99.75-37.82,14.27,10.54,32.42,18.47,48.77,26.23C1046.5,746.07,1091.11,755.92,1101.54,767.5Z"/><path class="cls-66" d="M874,273.15c64.74,52.15,118.19,22.16,118.19,22.16l20-6.08,5.65-10.86s-24.74-2.61-84.73-72.57c-15.84-18.46-31.91-26-45.84-26.36,25.15,2.34,6.43,56.66,39.83,73.72,35.71,18.25,5.26,26,5.26,26-25.27,25.31-67.11-14.6-70.37-17.79A85.23,85.23,0,0,0,874,273.15Z"/><path class="cls-67" d="M967,570.37s-11.3,8.69,0,61.27,65.61,52.58,65.61,52.58,10.87,12.6,26.07,6.95c0,0,23.9,20,64.31,17.38s53.89-38.67,45.63-78.21c0,0,10.86,30-1.3,55.62,0,0,13.9,9.56,25.2-10.43,0,0,26.07,3.88,31.72-35.43,0,0,20.86-8.89,21.29-50.61s-22.59-64.74-22.59-64.74,16.07,14.77,26.5,6.51-15.21-23.46-29.55-22.16a8.17,8.17,0,0,0,6-9.56c-1.21-7.82-16,4.35-16,4.35s3.14-6.12-4.73-7S967,570.37,967,570.37Z"/><path class="cls-68" d="M1131.66,689c-47.79,5.5-56.75-25.78-56.75-25.78s-4.66,21.43-24.07,17.38-26.07-32.13-26.07-32.13-3.48,24.6-26.65,21.41c-9.23-1.27-16.81-8.52-22.63-16.78,19,31,57.1,31.12,57.1,31.12s10.87,12.6,26.07,6.95c0,0,23.9,20,64.32,17.38,40.11-2.59,53.65-38.15,45.77-77.35C1169.87,637.85,1176,683.89,1131.66,689Z"/><path class="cls-69" d="M1010.58,928.57s111.81,20.28,157.59-2.9c0,0,21.43,28.59,49.24,11.11,17.12-10.76,32.43-33.13,42.12-57.24-33.66,30.73-21.56-62.78-21.56-62.78s-11.65,55.57-76.63,59.67-107.29-42.31-107.29-42.31C1066.2,946.56,962.39,917,962.39,917l-.31,1.1C983.47,930.18,1002.76,935.27,1010.58,928.57Z"/><path class="cls-70" d="M992.54,569.38s25.29-7.51,59.22,16.78c0,0,25.9-18.92,63.11-5.19,0,0,8.56-12.48,32.3-12.77,0,0,5.31-20,34.34-15.64,0,0-4.9-43,18.81-34.55,0,0-1.23-15.86-20-13.69S1065,518,1065,518l-54,34.55Z"/><path class="cls-71" d="M1249.42,531.26c10.43-8.25-15.21-23.46-29.55-22.16a8.18,8.18,0,0,0,6-9.56c-1.21-7.82-16,4.35-16,4.35s3.14-6.12-4.73-7S967,570.37,967,570.37a9.9,9.9,0,0,0-2.35,3.82l2.07,1.07s3.32,13.8,41.27,8.87,61.57,42.59,61.57,42.59.71-22.6-9.43-34.19c0,0,74.16-16.8,99.65,31.87,0,0-2-32.16-27.81-40.85,0,0,48.09-20.28,69.24,12.75,0,0-6.37-21.15-34.47-28.1,0,0,30.41-4.93,41.71,13.32s10.43,38.82,10.43,38.82,5.5-44.61-22-64.6c0,0,49.54,27.81,39.11,60.55s-16.22,10.43-16.22,10.43S1220,654,1205,664.37s-15.36-15.9-15.36-15.9-3.76,19.09-21-18.13c0,0,10.86,30-1.3,55.62,0,0,13.9,9.56,25.2-10.43,0,0,26.07,3.88,31.72-35.43,0,0,20.86-8.89,21.29-50.61s-22.59-64.74-22.59-64.74S1239,539.52,1249.42,531.26Z"/><path class="cls-72" d="M1008.26,281s-76.48-16.07-85.17-106.45,57.36-86,85.17-40.85,17.38,102.55,35.63,128.62c0,0,26.94-2.61,39.54-13.9s10.43,7,0,10.86c0,0,8.69-3.91,12.17-.44s.43,10-8.26,9.13c0,0,30.85,7.82,48.67,30.42s45.19,63.44,72.13,61.7c0,0,1.74,16.51-14.77,30,0,0,12.46-7.53,19.12-19.41,0,0-.58,13.33-14.78,29.84,0,0,10.72-7.53,16.81-24.33,0,0-3.19,15.64-15.07,25.78,0,0,12.46-5.79,18.83-12.75,0,0,8.68,27.75,4.93,55.91-2.9,21.73-10.78,35.91-26.55,37.23,0,0,10.61,1.88,17-6.81,0,0-4.06,35.63-47.8,51.56,0,0-31.87,45.77-97.63,37.37,0,0,12.3,5.48,3.19,9.27-8.18,3.41-19.7-.87-29.55-9.56,0,0,5.22,9.78,16.51,12,0,0-17.09,4-25.78-4.45,0,0,4.64,5.5,8.69,6.66,0,0-13.9,0-23.17-7.53s-16.51-3.48-23.18.29-26.65,9.85-46.35-2.9c0,0-6.37,4-21.14-11.59s-13.62-25.49-10.72-36.5,16.8-25.78,15.06-42-10.43-18.83-11.59-37.37,20.72-67.64,32.45-91.11S977.84,285.32,1008.26,281Z"/><path class="cls-73" d="M1219.73,973.86c13.9-6.76-2.61-55.14-30.42-62.09s-59.68,17.63-67.5,36.91-4.63,16.39,1.45,23.05S1205.83,980.62,1219.73,973.86Z"/><path class="cls-74" d="M1123.26,971.73c6.09,6.67,82.57,8.89,96.47,2.13,6.33-3.08,6.31-14.78,1.84-27.27-19.1,18.08-19.08,0-19.08,0-35.63,14.66-38.67-4.12-38.67-4.12-34.86,17.12-36.31-1.51-36.37-3.23a45.9,45.9,0,0,0-5.64,9.47C1114,968,1117.18,965.07,1123.26,971.73Z"/><path class="cls-75" d="M1130.8,965.79c0-11.43-33.9-50-63.88-51.71s-37.31,17.41-37.31,17.41l-19-2.92s-19.55,8.62-69.38-24c0,0-13.64,3.88-4.14,20s52.51,27.81,62.51,36.07,23.75,28,63.44,27.81C1063,988.39,1130.8,992,1130.8,965.79Z"/><path class="cls-76" d="M1223.21,445.08c3.75-28.16-4.93-55.91-4.93-55.91-6.37,6.95-18.83,12.75-18.83,12.75,11.88-10.14,15.07-25.78,15.07-25.78-6.09,16.8-16.81,24.33-16.81,24.33,14.2-16.51,14.78-29.84,14.78-29.84-6.66,11.88-19.12,19.41-19.12,19.41,16.51-13.47,14.77-30,14.77-30-26.94,1.74-54.31-39.11-72.13-61.7s-48.67-30.42-48.67-30.42c8.69.87,11.74-5.65,8.26-9.13s-12.17.44-12.17.44c10.43-3.91,12.6-22.16,0-10.86s-39.54,13.9-39.54,13.9c-18.25-26.07-7.82-83.43-35.63-128.62-7.56-12.28-18-21.4-28.89-26.56,26.57,16.42-8.77,65.09,13.54,106.46,6.16,11.44,29.25,29.89,18.83,34.53a25.54,25.54,0,0,1-19.44.6c-12.3,21.7-37.09-.36-41.86-4.92,25.08,30.14,57.82,37.19,57.82,37.19-19.69,2.82-32.26,20.93-41.88,39.72.11-.07,31.85-23.64,56-22.48s0,28.39,0,28.39,68.19-18.35,35.74,2.13c0,0,15.07-2.52,24.92,0s-11,6.57-11,6.57-9.7,26.94,16.8,37.37c21.88,8.61-1.78,27.83-10.72,34.28-12.25-11.57-42.34-20.63-65.76-16-34.06,6.7-40.55,37.08-25.81,54.64-15.66,9.47-54.41,30-63.8,7.74,3.06,8.5,7.84,13.2,9.08,24.82.78,7.25-1.62,14.18-4.71,20.65,0,0,27.89-44.76,15.43,30.88v9s29.41-46,37.08-30c27.82,58-31,59.53-31,59.53,19.7,12.74,39.69,6.66,46.35,2.9s13.91-7.83,23.18-.29,23.17,7.53,23.17,7.53c-4-1.16-8.69-6.67-8.69-6.67,8.69,8.41,25.78,4.46,25.78,4.46-11.29-2.21-16.51-12-16.51-12,9.85,8.69,21.37,13,29.55,9.56,9.11-3.79-3.19-9.27-3.19-9.27,65.76,8.4,97.63-37.37,97.63-37.37,43.74-15.93,47.8-51.56,47.8-51.56-6.38,8.69-17,6.81-17,6.81C1212.43,481,1220.31,466.81,1223.21,445.08ZM1096.35,461.3c-11.18,54.32-44.75,69.82-78.53,65.18s-24-45.56-24-45.56l-.12-7.14c2.6,8.93,5.12,29.83,36.67,29.24,45.56-.85,60.31-33.51,65.53-53.14a27.47,27.47,0,0,0,0-11.72A49.88,49.88,0,0,1,1096.35,461.3Z"/><g class="cls-77"><path class="cls-78" d="M1013.88,497c37,11,91.57,1.24,100.72-59.89,5.24-35-56.66-52.63-94.11-30.71S981.17,487.33,1013.88,497Z"/><path class="cls-79" d="M1091,444.38c-2.79,23.39-23.69,40.12-46.67,37.37s-39.33-23.94-36.54-47.32,23.7-40.12,46.68-37.37S1093.84,421,1091,444.38Z"/><path class="cls-80" d="M1086.45,443.83c-2.58,21.6-21.25,37.13-41.69,34.68s-34.92-21.94-32.34-43.53,21.25-37.12,41.7-34.68S1089,422.24,1086.45,443.83Z"/><path class="cls-81" d="M1075.53,442.53c-1.82,15.22-15,26.17-29.39,24.44s-24.62-15.46-22.8-30.69,15-26.17,29.4-24.44S1077.36,427.3,1075.53,442.53Z"/><path class="cls-82" d="M993.87,480.92s-14.74-53.24,54.66-72.88c50.46-14.28,53.42,56,53.42,56l7.75-127.18L964.24,404.19Z"/><path class="cls-83" d="M1022.49,421.74c6.32-7.21,14.89,13.09,9,13.92S1013,432.6,1022.49,421.74Z"/><path class="cls-84" d="M1032.83,489.83c-10.29-18.47,5.74-43.87,27.05-46.7,9.51-1.26,27.61,6,30.64,24.92C1091.56,474.58,1049.57,519.88,1032.83,489.83Z"/></g><path d="M990.78,468.64s-10.88-57.07,40.51-70.08c45.62-11.56,73.2,27,70.83,24.94C1087.34,410.46,1004.35,372.66,990.78,468.64Z"/><path class="cls-85" d="M986,287.2s-69.41,3-94.58-38.38c-26.59-43.74-30.27-23.76-11.15,4.13S935.26,294.16,986,287.2Z"/><path class="cls-85" d="M1022.34,271.1s-60.9-33.44-60.92-81.9c0-51.18-13.55-36-11.68-2.26S975.4,250.73,1022.34,271.1Z"/><path class="cls-86" d="M1018.11,570.81c9.27,7.53,23.17,7.53,23.17,7.53-4-1.16-8.69-6.67-8.69-6.67,8.69,8.41,25.78,4.46,25.78,4.46-11.29-2.21-16.51-12-16.51-12,9.85,8.69,21.37,13,29.55,9.56,9.11-3.79-3.19-9.27-3.19-9.27,65.76,8.4,97.63-37.37,97.63-37.37,43.74-15.93,47.8-51.56,47.8-51.56-6.38,8.69-17,6.81-17,6.81,15.77-1.33,23.65-15.5,26.55-37.23,3.75-28.16-4.93-55.91-4.93-55.91-6.37,6.95-18.83,12.75-18.83,12.75,11.88-10.14,15.07-25.78,15.07-25.78-6.09,16.8-16.81,24.33-16.81,24.33,14.2-16.51,14.78-29.84,14.78-29.84-6.66,11.88-19.12,19.41-19.12,19.41,16.51-13.47,14.77-30,14.77-30-26.94,1.74-54.31-39.11-72.13-61.7a69.84,69.84,0,0,0-8.67-9c3,3.44,33.58,39.32,34,79.53.45,42.3-41.84,48.09-41.84,48.09s38.24,3.26,45.19,15.54-30.71,3-30.71,3,39.38,18,31.57,41.14-35-8-35-8,16.22,38.27-11,53.27-55.62,13.82-55.62,13.82,12.74,21.46-12.17,20.3-27.23-6.95-56.78,15.07C1001.6,567.33,1008.84,563.27,1018.11,570.81Z"/><path class="cls-87" d="M928.35,465.63c-1.84-4.12-4-7.7-5.65-12.34,9.39,22.27,48.14,1.73,63.8-7.74,0,0-18.6-14.66,3.32-62.9s-4.16-86.47-37.18-33c-11.73,23.46-33.6,72.57-32.45,91.11C921,453.25,925.16,458.55,928.35,465.63Z"/><path class="cls-88" d="M942.5,535.81v-6.17s.27-55.17-15.29-31.07l-.13.21c-3.84,8-8.76,15.24-10.36,21.33-1.56,5.9-2.52,11.5-.88,17.8l6.86,3.35Z"/><path class="cls-89" d="M915,529.64c.23,5.58,11.57,11.26,27.5,0,0,0,5.21,2.06,0,9s-9.44,15.93-5.44,21.15c0,0-15.13-3.19-20.63-13.62S915,529.64,915,529.64Z"/><path class="cls-90" d="M962.66,417.71C967.1,430,986.12,426,998,406.89s16.9-39.8-10.58-33.27S959.34,408.5,962.66,417.71Z"/><path class="cls-91" d="M998,406.89c11.87-19.07,16.9-39.8-10.57-33.27-.87.21-1.49.61-2.31.86,12.58-1.91,18.82,20.85,1.41,38.16-16.8,16.71-23.73,4.11-24.43,2.7a22.49,22.49,0,0,0,.56,2.37C967.1,430,986.12,426,998,406.89Z"/><path class="cls-92" d="M937.06,559.8c-4-5.22.23-14.2,5.44-21.15s0-9,0-9c-12.81,8.6-4.26,15.72-13.76,17.7-8.94,1.87-13.8-5.42-14.35-6.3a25.55,25.55,0,0,0,2,5.14C921.93,556.61,937.06,559.8,937.06,559.8Z"/><path class="cls-93" d="M948.58,568.2s2.76,10.28,11.88,10.14,7.91-10.14,7.91-10.14A74.88,74.88,0,0,1,948.58,568.2Z"/><path class="cls-94" d="M968.37,568.2a74.88,74.88,0,0,1-19.79,0,19,19,0,0,0,1.73,3.84c-.22-.55-.36-2.16,5.7-1.89,6.94.31,11.84,6.43,6.65,7.83C969.29,576.35,968.37,568.2,968.37,568.2Z"/><path class="cls-95" d="M948.58,568.2s20.28,3.76,36.21-6.37,11.59-20.57,7.25-22-.36-8.4,10.25,0c0,0-7.5-1.74-3.88,3.91S997.25,575.15,948.58,568.2Z"/><path class="cls-96" d="M1032.59,684.22s10.87,12.6,26.07,6.95c0,0,23.9,20,64.32,17.38s53.88-38.67,45.62-78.21c0,0,10.86,30-1.3,55.62,0,0,13.9,9.56,25.2-10.43,0,0,26.07,3.88,31.72-35.43,0,0,20.86-8.89,21.29-50.61s-22.59-64.74-22.59-64.74,36.87,65.94-6.62,75.55c0,0-.63,17.15-15.11,9.61,0,0-.67,22.74-42.63,7,0,0,7.92,49.17-83.65,19,0,0-15.15,22.88-51.91-4.79,0,0-38.61,34.55-57.66-7.81.49,2.64,1,5.35,1.64,8.25C978.28,684.22,1032.59,684.22,1032.59,684.22Z"/><path class="cls-61" d="M1120.66,783.15s17.09,8,6.23-29.41C1126.89,753.74,1147,793.86,1120.66,783.15Z"/><path class="cls-61" d="M1155.42,771.56s-.29-17.82-11.59-33C1143.83,738.53,1160.05,750.27,1155.42,771.56Z"/><path class="cls-97" d="M941.2,904.56s-13.64,3.88-4.14,20,52.51,27.81,62.51,36.07,23.75,28,63.44,27.81c0,0,67.79,3.62,67.79-22.6,0-3.6-3.37-9.89-8.92-16.87,10.57,28.33-33.64-4.66-33.64-4.66,6.38,24.36-34.15,9.65-34.15,9.65s-3.54,30.28-21.84,12.9-2.64-35.32-2.64-35.32l-19-2.92S991,937.19,941.2,904.56Z"/><path class="cls-61" d="M1054.09,953.91s19.54,31.63,3.26,34.36C1057.35,988.27,1088.24,986.94,1054.09,953.91Z"/><path class="cls-61" d="M1088.24,944.26s20.32,39.06,8.52,42.68C1096.76,986.94,1120.66,986.94,1088.24,944.26Z"/><path class="cls-98" d="M1029.61,931.49l-19-2.92s-19.55,8.62-69.38-24c0,0-13.64,3.88-4.14,20s52.51,27.81,62.51,36.07c3.59,3,7.73,7.43,13.34,11.91C985.46,947.63,1029.61,931.49,1029.61,931.49Z"/><path class="cls-61" d="M1163.82,942.44s-28.71,27.78-9.58,34.77C1154.24,977.21,1146.44,967.61,1163.82,942.44Z"/><path class="cls-61" d="M1202.49,946.56s-31.41,24.07-14.62,31.29C1187.87,977.85,1185.55,964.84,1202.49,946.56Z"/><path class="cls-99" d="M2195.66,1140.4a78.88,78.88,0,0,0,18.4-20.4c9-14.37,13.5-32,11.62-48.87-3.39-30.34-25.79-54.53-53.87-63.63,17.82-17.25,27.14-42.7,22.42-67.63-5.07-26.82-26.36-48.92-52.16-56.77,7.61-17.43,12.93-40.83.56-55.26-9.57-11.17-22.73-9.51-33.41-2.72-3.08-31-14.82-62-46.27-74-16.88-6.46-35.47-2.26-48.07,8.41-3-21.93-10.65-42.64-29.68-56.6-11.71-8.59-27.29-13.2-41.54-8.77-8.77,2.72-16.17,8.45-20.26,16.09a43.13,43.13,0,0,0-33.66-1.55c-17.59,6.39-30.43,21.83-40.91,36.66C1830,772,1818.32,805,1825.9,836.69c-14.49,1.65-25.75,15.16-21.79,31.58a8.11,8.11,0,0,0-3.31,6.06c-.16,2-6.61,4.73-8.06,5.71a42.25,42.25,0,0,0-8.22,7.17c-5.51,6.33-8.9,14.42-11,22.47-4.73,17.87-5.71,37.39-5.62,55.79a285.77,285.77,0,0,0,23.59,112.33c16,36.79,41,67.37,67.78,96.81,27.78,30.54,55.62,61.38,88.87,86.15,54.22,40.41,136.75,74.77,203.55,45.8,29.23-12.68,50.23-38.45,55.69-70a105.48,105.48,0,0,0-1.75-45c-3.5-13.22-10.48-30-21.29-39,0,0-2.75-2.64-4-3.11,1.37-.77,5-2.25,5.36-2.46A68.55,68.55,0,0,0,2195.66,1140.4Z"/><path class="cls-100" d="M2180.27,1149.45c1.37-.77,5-2.25,5.36-2.46a68.55,68.55,0,0,0,10-6.59,78.88,78.88,0,0,0,18.4-20.4c9-14.37,13.5-32,11.62-48.87-3.39-30.34-25.79-54.53-53.87-63.63,17.82-17.25,27.14-42.7,22.42-67.63a71.64,71.64,0,0,0-17.47-34.47c20.2,33.53,4.3,44.82-27.93,32.21s-20.06-44.24-20.06-44.24c-45.32,7.69-34.66-47-34.66-47-88.4,95.42-85.46-36.48-85.46-36.48-31.8,1.23-54.24-36.2-59.36-45.59,7.8,14.94,56.53,112.14,7.31,119.4-53.32,7.86-102.43-24.7-102.43-24.7s42.09,44.9,9.82,49.11-59.88-39.87-59.88-39.87a8.11,8.11,0,0,0-3.31,6.06c-.16,2-6.61,4.73-8.06,5.71a42.25,42.25,0,0,0-8.22,7.17c-5.51,6.33-8.9,14.42-11,22.47-4.73,17.87-5.71,37.39-5.62,55.79a285.77,285.77,0,0,0,23.59,112.33c16,36.79,41,67.37,67.78,96.81q10.11,11.1,20.29,22.16c39.47.73,80-.35,119.16-3.1a672.2,672.2,0,0,0,186.45-40.2c-.3-.27-.53-.66-.83-.91C2184.29,1152.54,2181.56,1149.92,2180.27,1149.45Z"/><path class="cls-101" d="M1875.92,947.18s124.93,64.49,123-37c0,0,35.94,72.56,94.88,28.62,0,0-40,35.78,14.73,59.33s-82.48,152.8-82.48,152.8-138.52-16.21-150.09-50.38S1875.92,947.18,1875.92,947.18Z"/><path class="cls-102" d="M626.08,842.88c-2-15.19-13.38-29.29-28.12-33,3.09-10.64-1.8-23.34-10.84-30.22-12.59-9.58-28.11-6-40.67,1.9,1-29.13-12.84-58.25-37.73-74.42s-56.83-16.2-82.82-3.48c2.76-11.82,2-24-8.86-32.26-5-3.84-11.53-4.58-17.38-3.11-.41-15.88-4.75-32.86-18.85-38.34-8.52-3.31-17.44.16-22.81,7.26a26.92,26.92,0,0,0-5.21,15.72c-30.62-24.2-69.25-37-108.36-38-45.27-1.1-94.9,13.63-124.53,49.63C103.9,684,94.28,708,94.72,733.31a4.79,4.79,0,0,0,.17.77c-.19.15-.4.19-.58.36-53.51,50.74-50.12,131.1-43,198.5C55,967.28,61.47,1002,78.45,1032.5c15.44,27.71,38.83,49.92,64.77,67.75,27.69,19,59.46,35.56,91.49,45.8,37.93,12.12,75.91,3.29,114.64,2.45,37.13-.79,75,3.37,111.31-6.87,30.11-8.5,57.39-25.84,79.24-48.07,26-26.48,44-59.84,54.49-95.29a302,302,0,0,0,10.9-58.5c1.36-14.93,3.62-32.76-3.53-46.64C616.57,880.68,628.75,863,626.08,842.88Z"/><path class="cls-103" d="M528.78,804s-23.28,39.91-88.14,25.44-34.92-96.95-34.92-96.95c-24.94,10-11.64-25-11.64-25-32.8,19.19-48.23-25.17-48.23-25.17s34.93,118.3-78.16,143.25S133,745.37,133,745.37s-1.66,85.23-3.33,111.83c-.9,14.56-11.77,120.87-21.43,214.17a247,247,0,0,0,35,28.88c27.69,19,59.46,35.56,91.49,45.8,37.93,12.12,75.91,3.29,114.64,2.45,37.13-.79,75,3.37,111.31-6.87,30.11-8.5,57.39-25.84,79.24-48.07a203.58,203.58,0,0,0,21.35-25.87l5.55-226.11C510.32,850.35,528.78,804,528.78,804Z"/><path class="cls-104" d="M188.62,833s63.27,94.07,177.19,12.58c0,0,24.87,79,107.25,38.06s4.17,179.55,4.17,179.55L414,1170s-49.89,18.12-121.4-6-121.76-92.11-163.16-131.28-64.89-86-49-115.37S188.62,833,188.62,833Z"/><path class="cls-105" d="M218.34,688.61c-25.22,8.83-34.8,22.84-7.25,11.1S243.56,679.77,218.34,688.61Z"/><path class="cls-105" d="M209.49,653.4c-57.09,30.77-68.3,16.65-24.88-2.37S248.73,632.26,209.49,653.4Z"/><path class="cls-105" d="M188,718.87c-18.47,10.2-17.48,1.46-1-6.48S208.61,707.46,188,718.87Z"/><path class="cls-105" d="M237,652.3c-16.38,8.05-17.77,1.68,0-6.72S260.6,640.68,237,652.3Z"/><path class="cls-106" d="M286.93,1068.5c-5-11.44-13.74-25.65-24.77-32.24,0,0-2.86-2-4.09-2.24,1.13-.89,4.17-2.73,4.49-3a61.68,61.68,0,0,0,8.12-7.37,72,72,0,0,0,13.72-21c6.1-14.24,7.66-30.77,3.55-45.76-7.36-26.92-31-45.59-57.67-49.81,13.65-18.11,18.45-42.42,10.66-64.26-8.39-23.49-30.75-40.42-55.16-43.85,4.4-16.82,5.88-38.7-7.34-50-10.22-8.72-21.87-5.36-30.55,2.29-7.18-27.54-22.18-53.84-52.27-60.24A44.25,44.25,0,0,0,53.4,705.44c-5.85-19.37-15.66-37-34.83-46.89-11.79-6.1-26.51-8-38.75-2a31.37,31.37,0,0,0-16,17.4,38.57,38.57,0,0,0-22.42,0v402.45c9.75,9,20,17.56,30.39,25.93,29.41,23.63,58.93,47.53,92.46,65.18,54.69,28.79,134.09,48.11,190.3,12.46,24.59-15.59,39.89-41.85,40.34-71.09A96.3,96.3,0,0,0,286.93,1068.5Z"/><path class="cls-107" d="M288,956.87c-7.36-26.92-31-45.59-57.67-49.81,13.65-18.11,18.45-42.42,10.66-64.26a65.65,65.65,0,0,0-20.67-28.64c23,27.41,10.25,39.86-20.65,33.05s-24.39-37.1-24.39-37.1c-39.83,13.37-38-37.49-38-37.49C71,871.32,54.93,751.81,54.93,751.81c-28.54,5.62-54.12-25-60.07-32.75C4,731.45,61.81,812.3,18.4,825.84c-28.87,9-58.46,4-77-1.17v12.21c6.67,8.76,10.22,18.25,0,23v216.54c9.75,9,20,17.56,30.39,25.93,7.13,5.72,14.26,11.46,21.46,17.13,35.74-4.94,72.23-11.68,107.15-19.71A613.87,613.87,0,0,0,263,1037c-.31-.2-.57-.52-.88-.7,0,0-2.86-2-4.09-2.24,1.13-.89,4.17-2.73,4.49-3a61.68,61.68,0,0,0,8.12-7.37,72,72,0,0,0,13.72-21C290.5,988.39,292.06,971.86,288,956.87Z"/><path class="cls-108" d="M171.78,907.54c-52.73-13.5-21.72-51.48-21.72-51.48-47,48-89.73-12.37-89.73-12.37,16.19,91.39-105.77,50.89-105.77,50.89S-39,1003.82-23.68,1033,119,1057.21,119,1057.21,224.51,921,171.78,907.54Z"/><path class="cls-109" d="M157.3,1186.92c5.19-11.11,6.48-23.19-3.58-33.47a25.74,25.74,0,0,0-12.12-7c30.1-36.72,38.39-86.51,24-132.24-7-22.24-21.92-43.31-45.26-50.13A47.07,47.07,0,0,0,92,965c.54-8.38-1.73-16.55-9.13-23a22,22,0,0,0-15.37-5.26c1.17-7.6,1-15.27-2-22.73-4.69-11.81-15.23-20-28.23-19.34s-24.12,7.79-32.2,17.67a167.48,167.48,0,0,0-3.37-65.58c-8.25-32.45-27.7-69-58.54-84.89-.58-.3-1.21-.55-1.8-.84v536.56A110.89,110.89,0,0,0-26,1293.88c16.34-4.4,33.81-10.66,48.26-20.14,19.31,12.42,41.5,18.4,64.54,8.37,14.15-6.16,27-16.28,38.48-26.44,7.88-7,15.11-15.38,18-25.32,14.39,3.85,30.71-4.24,31-21.89C174.5,1197.23,166.61,1189.29,157.3,1186.92Z"/><path class="cls-110" d="M18.44,1047.42a62.69,62.69,0,0,1-37.38-14.52c-10.6-8.74-17.62-20.59-22.35-33.35a56.35,56.35,0,0,1-17.32,16.62V1072a102.34,102.34,0,0,1,43.08,17.35,27.08,27.08,0,0,1,6.67-14,28.72,28.72,0,0,1,24-8.95A41.1,41.1,0,0,1,18.44,1047.42Z"/><path class="cls-111" d="M49.4,958.11s-30,31.34-65.33,23.63S-1.8,925.22-1.8,925.22s-22,10.1-56.81,8.48V1072a102.34,102.34,0,0,1,43.08,17.35,27.08,27.08,0,0,1,6.67-14,28.72,28.72,0,0,1,24-8.95,41.1,41.1,0,0,1,3.26-19S22,1002.3,84.91,976C84.91,976,40.22,985.86,49.4,958.11Z"/><path class="cls-112" d="M157.3,1186.92c5.19-11.11,6.48-23.19-3.58-33.47a25.74,25.74,0,0,0-12.12-7c26.81-32.7,36.2-75.77,27.79-117.11-5,134.27-117.56,90.17-117.56,90.17s33.73,56.16-11.56,52.87C1.09,1169.59-9.22,1140-11.29,1132c3,13,18.2,92.24-47.32,91.62v73.88A110.89,110.89,0,0,0-26,1293.88c16.34-4.4,33.81-10.66,48.26-20.14,19.31,12.42,41.5,18.4,64.54,8.37,14.15-6.16,27-16.28,38.48-26.44,7.88-7,15.11-15.38,18-25.32,14.39,3.85,30.71-4.24,31-21.89C174.5,1197.23,166.61,1189.29,157.3,1186.92Z"/><path class="cls-105" d="M119.64,1031.42c-17.67,4.94-22.45,18.26-3.53,10.63S137.3,1026.49,119.64,1031.42Z"/><path class="cls-105" d="M106.5,992c-38,22.74-49.16,5.52-19.44-7.07S132.64,976.34,106.5,992Z"/><path class="cls-105" d="M101.93,1058.46c-12.26,7.63-13.09-1.59-2-7.15S115.62,1049.94,101.93,1058.46Z"/><path class="cls-105" d="M66,1019.62c-11.05,5.7-13.26-1.41-1.21-7.22S81.89,1011.41,66,1019.62Z"/><path class="cls-113" d="M660,836.12S679.06,957.19,600.88,1083c0,0,52.44-96.28,0-355.59,0,0,30.79,184.95-19.4,344.15,0,0,13-82,0-161.11,0,0,2.24,108.68-18.73,160.16,0,0,11.44-30.51,10.49-103,0,0-2.86,68.64-40,107.73,0,0,21.92-53.29,4.76-116.26,0,0,10.49,84.8-34.32,136.28,0,0-38.13-30-42.9-82,0,0-3,40.52,13.18,65.78,0,0-8.89-7.63-18.9-31a97.23,97.23,0,0,0,5.72,31.93s-13.82-14.77-11-43.37c0,0-6.2,22.88-3.81,47.66,0,0-28.6-71-18.59-110.11,0,0-19.07,25.74,6.19,111.54,0,0-43.37-78.24-45.76-144.46,0,0-2.86,59.62,24.31,121.11,0,0-77.22-147.29-92.95-222.61,0,0,14.78,134.9,66.74,213.07,0,0-45-55.88-54.82-126.79,0,0,.48,80.07,39.56,139.18,0,0-33.84-41.36-49.57-106.24,0,0,9.53,84.32,37.66,131,0,0-20-23.35-27.41-40.75a62,62,0,0,0,4.29,23.83s-10.49-16.2-6-42.9c0,0-17.16,51.72-38.13,63.4,0,0,17.63-56,11.91-121.07,0,0,1.91,45.52-20.49,101.76,0,0,10-97.24-14.3-197.34,0,0,5.72,111.07-9.54,191.62,0,0,.55-134.47-54.54-259.57,0,0,31.19,140.41,28.33,267.2,0,0-47.67-122.5-115.83-176.84,0,0,43.37,43.85,93.9,174.46,0,0-59.11-105.35-109.16-148.72,0,0,55.3,69.58,81.51,140.13,0,0-29.55-35.27-62.92-49.09,0,0,25.68,27,40.49,54.51,0,0-20.32-15.86-24.76-28.77,0,0,13.35,51.48,47.19,53.39,0,0,21,11.91,28.6,2.86,0,0,28.6,15.71,54.82,6.9,0,0,12.8,6.26,21.45,2.68,0,0,40.52,11.37,51-2.68,0,0,20,7.86,23.84,0,0,0,54.34,8.83,69.59-5,0,0,19.54,10.49,30,.48,0,0,35.27,24.77,62.92,4.52,0,0,21.93,5,27.17-9.29,0,0,11.94,7.9,21.93,2.39,0,0,21.45,13.34,47.19-4.29S680,951.47,660,836.12Z"/><path class="cls-114" d="M174.87,1067.57c32.56,44.74,29.33,7.71,29.33,7.71,20.05,34.6,20.88,2,20.88,2,16.4,22.62,28.08-3.48,28.08-3.48-2,33.06,21.87,6.46,21.87,6.46-6.71,29.08,12.43,14.67,12.43,14.67,15.66,23.86,46.73-12.18,46.73-12.18,11.44,31.56,24.86,7.45,24.86,7.45,17.64,12.43,17.64-20.88,17.64-20.88,19.38,27.22,11.69-13.91,11.69-13.91,32.06,48.22,47.47,33.8,47.47,33.8,14.67,15.16,27.59.75,27.59.75,26.1,22.36,47.23,7.7,47.23,7.7,6.09,6.14,25.6-17.15,25.6-17.15-3,24.11,33.06-9.69,33.06-9.69-4.81,18.87,21.12.74,21.12.74-3.48,26.6,17.65,12.18,17.65,12.18,15.95,26.23,43.76-25.84,46.92-32-7.45,21.14-15.78,36.07-23.55,41.4-26.85,18.39-49.22,4.47-49.22,4.47-10.41,5.75-22.87-2.49-22.87-2.49-5.46,14.92-28.33,9.69-28.33,9.69-28.83,21.12-65.62-4.71-65.62-4.71-10.94,10.43-31.32-.5-31.32-.5-15.91,14.41-72.58,5.21-72.58,5.21-4,8.19-24.85,0-24.85,0-10.94,14.66-53.19,2.8-53.19,2.8-9,3.73-22.37-2.8-22.37-2.8-27.35,9.19-57.17-7.2-57.17-7.2-8,9.45-29.83-3-29.83-3-14.67-.83-25.6-10.61-33.42-21.74C166.52,1103.64,174.87,1067.57,174.87,1067.57Z"/><path class="cls-115" d="M748.21,1135.61c9.77-8.68,14.34-23.46,11-36.68-3.72-14.76-16.74-24.73-30.26-24.51,0-7.84-3.55-15.64-10.68-20.13a22,22,0,0,0-12.82-3.35c15-37.79,21.06-79.39,7-118.5C705,911.88,692.64,893,675.3,879.5c-11.65-9.06-28.19-15-41.77-9.93-2.86-15.32-13.07-28.88-28.66-34.17-18-6.08-38.26,1.56-49.25,16.43-29-11.12-65.65,8.5-84.93,30.43-20.17,23-35.76,62.6-24.25,93.17-33.08-1.08-63.23,21.84-75.12,53.08-7.39,19.4-7.86,41.12-3.63,61.29,1.68,8,5.12,17.26,10.62,24.16a19.74,19.74,0,0,0-4.27,3.84,17,17,0,0,0-.5,20.92c4.94,6.72,14.06,10.29,21.6,13.14a49.23,49.23,0,0,0,6.6,2c-13.9,16.85-24.47,37-25.06,59-.69,26.55,15.41,49.42,38.06,62,26.35,14.69,57.1,14.29,85.81,7.73,14.78-3.37,30.09-7.63,43.94-13.91,8.16-3.71,15.41-9.78,18.84-17.66A48.1,48.1,0,0,0,628,1230.14c14.07,9.25,30.52,13.42,47.64,13.63,20.82.24,46-2.92,63.52-15,18.75-12.85,24.22-35.27,23.42-56.93C762.05,1158.42,757.72,1144.11,748.21,1135.61Z"/><path class="cls-110" d="M629.78,1096.56c-3.67-8.91-9.75-16.38-20.16-18.28-11.64-2.13-20.54,3.52-27.19,11.66-7.39-13.43-23.16-21.65-40-19.17-19,2.8-32.06,15.2-41.74,30.31a55.08,55.08,0,0,0-23.59-29.31c18.45-14.06,26.91-37.06,21.12-59.83a55.51,55.51,0,0,0,43.37-21.48,48.65,48.65,0,0,0,56.14,44.2c3.23,10.58,13.29,16.86,24.24,16a45.73,45.73,0,0,0,22.53,29.49A90.76,90.76,0,0,0,629.78,1096.56Z"/><path class="cls-116" d="M658,1069.06c0-15.41,36.61-21.41,36.61-21.41-121.4-30.41-84.15-126-84.15-126s-25.69,38.19-46.61,29.84c-15.05-6-13.25-30.87-11-44.41-3.33,13.74-12.34,40.82-34.84,62.39-18.47,17.72-35.78,19.7-47,18.34,28.94,9.84,27.3,24.1,27.3,24.1,5.79,22.77-2.67,45.77-21.12,59.83a55.08,55.08,0,0,1,23.59,29.31c9.68-15.11,22.79-27.51,41.74-30.31,16.8-2.48,32.57,5.74,40,19.17,6.65-8.14,15.55-13.79,27.19-11.66,10.41,1.9,16.49,9.37,20.16,18.28,17.38-16.28,53.34-.28,61.48,3.66C684.31,1096.7,658,1082.45,658,1069.06Z"/><path class="cls-117" d="M414.74,1274.85c26.35,14.69,57.1,14.29,85.81,7.73,14.78-3.37,30.09-7.63,43.94-13.91,8.16-3.71,15.41-9.78,18.84-17.66A48.1,48.1,0,0,0,628,1230.14c14.07,9.25,30.52,13.42,47.64,13.63,20.82.24,46-2.92,63.52-15,18.75-12.85,24.22-35.27,23.42-56.93-.5-13.46-4.83-27.77-14.34-36.27,9.77-8.68,14.34-23.46,11-36.68-3.72-14.76-16.74-24.73-30.26-24.51,0-7.84-3.55-15.64-10.68-20.13a22,22,0,0,0-12.82-3.35c36.55,8.22-7.65,50.14-7.65,50.14s52,22.58,9.63,37.05S612,1123.66,612,1123.66s24.09,30.83-9.63,42.39-73.23-8.67-73.23-8.67c22.16,53.95-43.35,105-108.32,84.78s-19.12-88.34-19.12-88.34c-13.9,16.85-24.47,37-25.06,59C376,1239.35,392.09,1262.22,414.74,1274.85Z"/><path class="cls-105" d="M431.3,992c-17.66,4.93-22.44,18.26-3.52,10.63S449,987.06,431.3,992Z"/><path class="cls-105" d="M513.54,885.77c-38,22.74-49.16,5.52-19.44-7.06S539.69,870.15,513.54,885.77Z"/><path class="cls-105" d="M413.59,1019c-12.25,7.63-13.08-1.6-2-7.15S427.29,1010.5,413.59,1019Z"/><path class="cls-105" d="M534.34,889.57c-11.05,5.69-13.27-1.42-1.21-7.23S550.28,881.35,534.34,889.57Z"/><path class="cls-118" d="M1717.85,811.22s-23,146.28,71.42,298.32c0,0-63.35-116.33,0-429.63,0,0-37.2,223.45,23.44,415.81,0,0-15.71-99.06,0-194.66,0,0-2.71,131.31,22.63,193.51,0,0-13.82-36.86-12.67-124.4,0,0,3.46,82.93,48.38,130.16,0,0-26.49-64.39-5.76-140.47,0,0-12.67,102.46,41.47,164.66,0,0,46.07-36.29,51.83-99.06,0,0,3.59,49-15.92,79.48,0,0,10.74-9.22,22.83-37.44a117.17,117.17,0,0,1-6.91,38.59s16.7-17.86,13.25-52.41c0,0,7.48,27.64,4.6,57.59,0,0,34.56-85.81,22.46-133,0,0,23,31.1-7.48,134.77,0,0,52.41-94.54,55.29-174.55,0,0,3.45,72-29.38,146.33,0,0,93.3-178,112.31-269,0,0-17.85,163-80.63,257.44,0,0,54.32-67.53,66.23-153.2,0,0-.58,96.74-47.8,168.17,0,0,40.89-50,59.89-128.37,0,0-11.51,101.88-45.49,158.32,0,0,24.19-28.22,33.11-49.24,0,0,.87,13-5.18,28.8,0,0,12.67-19.58,7.2-51.84,0,0,20.73,62.49,46.07,76.6,0,0-21.31-67.67-14.4-146.28,0,0-2.3,55,24.77,123,0,0-12.1-117.49,17.28-238.43,0,0-6.91,134.18,11.51,231.52,0,0-.66-162.48,65.91-313.63,0,0-37.69,169.65-34.23,322.84,0,0,57.59-148,139.95-213.67,0,0-52.41,53-113.46,210.79,0,0,71.42-127.28,131.89-179.69,0,0-66.81,84.07-98.48,169.32,0,0,35.7-42.61,76-59.32,0,0-31,32.66-48.91,65.86,0,0,24.55-19.16,29.9-34.76,0,0-16.12,62.2-57,64.51,0,0-25.34,14.4-34.56,3.45,0,0-34.55,19-66.23,8.34,0,0-15.46,7.57-25.92,3.24,0,0-49,13.74-61.62-3.24,0,0-24.19,9.5-28.8,0,0,0-65.65,10.67-84.08-6,0,0-23.61,12.67-36.28.57,0,0-42.62,29.93-76,5.46,0,0-26.49,6.06-32.82-11.22,0,0-14.43,9.55-26.5,2.88,0,0-25.91,16.13-57-5.18S1693.67,950.59,1717.85,811.22Z"/><path class="cls-114" d="M2304,1090.86c-39.34,54.06-35.43,9.31-35.43,9.31-24.24,41.81-25.23,2.41-25.23,2.41-19.82,27.33-33.93-4.21-33.93-4.21,2.4,39.94-26.43,7.81-26.43,7.81,8.11,35.14-15,17.72-15,17.72-18.92,28.83-56.46-14.72-56.46-14.72-13.81,38.14-30,9-30,9-21.32,15-21.32-25.22-21.32-25.22-23.41,32.88-14.11-16.82-14.11-16.82-38.75,58.26-57.36,40.84-57.36,40.84-17.72,18.32-33.34.9-33.34.9-31.53,27-57.06,9.31-57.06,9.31-7.35,7.42-30.93-20.72-30.93-20.72,3.6,29.13-39.94-11.71-39.94-11.71,5.8,22.8-25.53.9-25.53.9,4.21,32.13-21.32,14.71-21.32,14.71-19.27,31.7-52.87-31.21-56.69-38.6,9,25.55,19.06,43.58,28.46,50,32.43,22.22,59.46,5.4,59.46,5.4,12.58,7,27.63-3,27.63-3,6.61,18,34.24,11.7,34.24,11.7,34.83,25.52,79.28-5.69,79.28-5.69,13.21,12.61,37.84-.61,37.84-.61,19.22,17.42,87.69,6.3,87.69,6.3,4.8,9.9,30,0,30,0,13.21,17.71,64.27,3.38,64.27,3.38,10.9,4.51,27-3.38,27-3.38,33,11.1,69.07-8.7,69.07-8.7,9.61,11.41,36-3.6,36-3.6,17.72-1,30.93-12.82,40.38-26.26C2314.08,1134.44,2304,1090.86,2304,1090.86Z"/><path class="cls-119" d="M1944.27,1182.5c5.36-11.47,6.68-23.94-3.7-34.55a26.57,26.57,0,0,0-12.5-7.17c31.07-37.9,39.62-89.3,24.76-136.5-7.23-23-22.62-44.71-46.71-51.75a48.67,48.67,0,0,0-29.26.86c.56-8.65-1.78-17.09-9.42-23.78a22.73,22.73,0,0,0-15.86-5.44c1.2-7.84,1-15.76-2-23.46-4.85-12.19-15.72-20.67-29.15-20s-24.9,8-33.23,18.25a172.9,172.9,0,0,0-3.49-67.7c-8.51-33.49-28.59-71.19-60.42-87.62-31-16-76.49-13.39-107.17,2.3-31.8,16.25-53.34,57-60.73,90.65-7.13,32.42-1.29,67.59,19,93.72a34.21,34.21,0,0,0-18.12,12.14c-5.62,7.43-6.89,15.65-6,23.93a22.25,22.25,0,0,0-9-.79c-11.34,1.36-18.47,11.37-20.62,21.93-2.26,11.13.18,21.93,5.32,31.43-.56.16-1.22.29-1.75.46a93.29,93.29,0,0,0-52.7,42.73c-26.17,46.32-9.6,104,26.32,139.87a166.28,166.28,0,0,0,34.63,26.33c7.88,4.52,17,8.59,25.8,7.6,3.78,10.65,13.24,18.7,24.55,21.79,15.72,4.3,31.4-2,45-10a122.18,122.18,0,0,0,77.36,47.3,117.46,117.46,0,0,0,49.92-2.16c16.87-4.54,34.9-11,49.82-20.79,19.93,12.82,42.84,19,66.62,8.65,14.61-6.36,27.83-16.81,39.72-27.29,8.13-7.18,15.59-15.88,18.58-26.14,14.85,4,31.7-4.37,32-22.6C1962,1193.14,1953.88,1185,1944.27,1182.5Z"/><path class="cls-110" d="M1772.76,1067.34a28,28,0,0,0-6.89,14.45c-22.06-15.83-50.78-22-78.07-18.76-10.74,1.26-19.54,4-27.49,11.56a114.34,114.34,0,0,0-19.58,25.06,97.78,97.78,0,0,0-11.77,31.49,102.16,102.16,0,0,0-25.48-21.48,96.41,96.41,0,0,0,15.12-62.46c4.36,3.87,8.93,7.45,14.58,9.61,11.1,4.25,23.75,2.85,31.33-7,8.45-11,7.72-25.32,2.7-38.26,14.59,4.49,30.19,5.13,44.73-.54a58.13,58.13,0,0,0,27.34-21.89c4.88,13.17,12.13,25.4,23.07,34.43a64.75,64.75,0,0,0,38.59,15,42.44,42.44,0,0,0-3.37,19.61A29.65,29.65,0,0,0,1772.76,1067.34Z"/><path class="cls-120" d="M1832.89,946.32s-31,32.35-67.43,24.39,14.59-58.34,14.59-58.34-74.92,34.47-167.75-31.83c0,0,78.5,72.4-8.82,56.76,0,0,46.62,32.65-8.41,39.66,0,0,19.29,25.58-61.28,40.56,16.92-2.43,57.76-4.13,84.81,29.68a96.41,96.41,0,0,1-15.12,62.46,102.16,102.16,0,0,1,25.48,21.48,97.78,97.78,0,0,1,11.77-31.49,114.34,114.34,0,0,1,19.58-25.06c8-7.58,16.75-10.3,27.49-11.56,27.29-3.22,56,2.93,78.07,18.76a28,28,0,0,1,6.89-14.45,29.65,29.65,0,0,1,24.81-9.23,42.44,42.44,0,0,1,3.37-19.61s3.64-46.57,68.61-73.75C1869.55,964.75,1823.42,975,1832.89,946.32Z"/><path class="cls-121" d="M1497.83,1202a166.28,166.28,0,0,0,34.63,26.33c7.88,4.52,17,8.59,25.8,7.6,3.78,10.65,13.24,18.7,24.55,21.79,15.72,4.3,31.4-2,45-10a122.18,122.18,0,0,0,77.36,47.3,117.46,117.46,0,0,0,49.92-2.16c16.87-4.54,34.9-11,49.82-20.79,19.93,12.82,42.84,19,66.62,8.65,14.61-6.36,27.83-16.81,39.72-27.29,8.13-7.18,15.59-15.88,18.58-26.14,14.85,4,31.7-4.37,32-22.6.2-11.59-7.95-19.78-17.56-22.23,5.36-11.47,6.68-23.94-3.7-34.55a26.57,26.57,0,0,0-12.5-7.17c27.67-33.76,37.36-78.21,28.67-120.89-5.12,138.6-121.33,93.08-121.33,93.08s34.8,58-11.94,54.58c-40.44-2.94-51.09-33.54-53.22-41.73,3.21,14.16,20.52,103.93-60,93.86-87.34-10.94-85.71-70.62-85.71-70.62s-20.88,62.66-49.73,37.79c-23.25-20,1.32-48.76,11.72-59.13-9.22,7.73-33.86,23.34-74.66,13.39-53-12.93-43.51-72.5-43.51-72.5C1447,1113.67,1463.53,1167.8,1497.83,1202Z"/><path class="cls-105" d="M1590,812.77c-18.23,5.1-23.16,18.85-3.64,11S1608.22,807.68,1590,812.77Z"/><path class="cls-105" d="M1675.87,758.45c-39.27,23.47-50.74,5.7-20.07-7.3S1702.86,742.32,1675.87,758.45Z"/><path class="cls-105" d="M1620.43,814.69c-12.65,7.88-13.5-1.65-2-7.38S1634.57,805.89,1620.43,814.69Z"/><path class="cls-105" d="M1649.6,787.23c-11.41,5.88-13.69-1.46-1.25-7.46S1666.06,778.75,1649.6,787.23Z"/><path class="cls-105" d="M1905.39,1022c-18.23,5.09-23.17,18.85-3.64,11S1923.63,1016.9,1905.39,1022Z"/><path class="cls-105" d="M1891.83,981.26c-39.27,23.47-50.75,5.7-20.07-7.3S1918.82,965.13,1891.83,981.26Z"/><path class="cls-105" d="M1887.11,1049.9c-12.65,7.88-13.51-1.65-2-7.38S1901.25,1041.1,1887.11,1049.9Z"/><path class="cls-105" d="M1850,1009.81c-11.41,5.88-13.7-1.46-1.26-7.45S1866.43,1001.33,1850,1009.81Z"/></g></g></g></svg>