<svg xmlns="http://www.w3.org/2000/svg" xmlns:xlink="http://www.w3.org/1999/xlink" viewBox="0 0 1920 1080"><defs><clipPath id="clip-path"><rect width="1920" height="1080" style="fill:none"/></clipPath><linearGradient id="Áåçûìÿííûé_ãðàäèåíò_85" x1="818" y1="1106" x2="818" gradientUnits="userSpaceOnUse"><stop offset="0" stop-color="#6ae0ff"/><stop offset="0.16" stop-color="#5ec9ef"/><stop offset="0.5" stop-color="#3e8ec6"/><stop offset="0.68" stop-color="#2c6cae"/><stop offset="0.86" stop-color="#2d347d"/><stop offset="1" stop-color="#2e0452"/></linearGradient><linearGradient id="Áåçûìÿííûé_ãðàäèåíò_588" x1="299.44" y1="689.99" x2="323.33" y2="214.05" gradientTransform="translate(-4.01 -29.5) rotate(-2.38)" gradientUnits="userSpaceOnUse"><stop offset="0" stop-color="#353683"/><stop offset="0.65" stop-color="#6d3cd7"/><stop offset="1" stop-color="#883fff"/></linearGradient><linearGradient id="Áåçûìÿííûé_ãðàäèåíò_588-2" x1="2351.13" y1="346.95" x2="968.98" y2="463.37" xlink:href="#Áåçûìÿííûé_ãðàäèåíò_588"/><linearGradient id="Áåçûìÿííûé_ãðàäèåíò_180" x1="789.96" y1="354.84" x2="789.96" y2="683.86" gradientUnits="userSpaceOnUse"><stop offset="0" stop-color="#e7eae1"/><stop offset="0.45" stop-color="#e5e8e1"/><stop offset="0.6" stop-color="#dee3e3"/><stop offset="0.72" stop-color="#d3d9e5"/><stop offset="0.81" stop-color="#c2cce8"/><stop offset="0.89" stop-color="#acbaec"/><stop offset="0.96" stop-color="#91a5f1"/><stop offset="1" stop-color="#7b93f5"/></linearGradient><linearGradient id="Áåçûìÿííûé_ãðàäèåíò_13" x1="1370.2" y1="149.79" x2="1357.58" y2="778.04" gradientUnits="userSpaceOnUse"><stop offset="0" stop-color="#1919a2"/><stop offset="1" stop-color="#fff"/></linearGradient><linearGradient id="Áåçûìÿííûé_ãðàäèåíò_13-2" x1="1681.09" y1="458.63" x2="1678.5" y2="462.13" xlink:href="#Áåçûìÿííûé_ãðàäèåíò_13"/><linearGradient id="Áåçûìÿííûé_ãðàäèåíò_13-3" x1="1396.78" y1="256.98" x2="1256.89" y2="610.74" xlink:href="#Áåçûìÿííûé_ãðàäèåíò_13"/><linearGradient id="Áåçûìÿííûé_ãðàäèåíò_13-4" x1="1447.99" y1="342.93" x2="1328.84" y2="644.25" xlink:href="#Áåçûìÿííûé_ãðàäèåíò_13"/><linearGradient id="Áåçûìÿííûé_ãðàäèåíò_13-5" x1="1678.94" y1="462.64" x2="1678.91" y2="460.65" xlink:href="#Áåçûìÿííûé_ãðàäèåíò_13"/><linearGradient id="Áåçûìÿííûé_ãðàäèåíò_13-6" x1="1885.16" y1="-191.05" x2="1739.75" y2="1039.37" xlink:href="#Áåçûìÿííûé_ãðàäèåíò_13"/><linearGradient id="Áåçûìÿííûé_ãðàäèåíò_13-7" x1="178.45" y1="133.11" x2="233.82" y2="974.39" xlink:href="#Áåçûìÿííûé_ãðàäèåíò_13"/><linearGradient id="Áåçûìÿííûé_ãðàäèåíò_13-8" x1="523.36" y1="-85.84" x2="824.21" y2="1030.79" xlink:href="#Áåçûìÿííûé_ãðàäèåíò_13"/><linearGradient id="Áåçûìÿííûé_ãðàäèåíò_13-9" x1="1075.53" y1="95.69" x2="1072.72" y2="1026.25" xlink:href="#Áåçûìÿííûé_ãðàäèåíò_13"/><linearGradient id="Áåçûìÿííûé_ãðàäèåíò_13-10" x1="1315.29" y1="136.22" x2="1333.59" y2="724.71" xlink:href="#Áåçûìÿííûé_ãðàäèåíò_13"/><linearGradient id="Áåçûìÿííûé_ãðàäèåíò_13-11" x1="1613.26" y1="862.98" x2="1707.09" y2="496.83" xlink:href="#Áåçûìÿííûé_ãðàäèåíò_13"/><linearGradient id="Áåçûìÿííûé_ãðàäèåíò_13-12" x1="1099.44" y1="691.94" x2="1099.62" y2="686.67" xlink:href="#Áåçûìÿííûé_ãðàäèåíò_13"/><linearGradient id="Áåçûìÿííûé_ãðàäèåíò_13-13" x1="891.44" y1="663.17" x2="1098.83" y2="409.14" xlink:href="#Áåçûìÿííûé_ãðàäèåíò_13"/><linearGradient id="Áåçûìÿííûé_ãðàäèåíò_13-14" x1="1070.69" y1="873.03" x2="1563.27" y2="394.42" xlink:href="#Áåçûìÿííûé_ãðàäèåíò_13"/><linearGradient id="Áåçûìÿííûé_ãðàäèåíò_13-15" x1="660.09" y1="456.38" x2="850.19" y2="271.68" xlink:href="#Áåçûìÿííûé_ãðàäèåíò_13"/><linearGradient id="Áåçûìÿííûé_ãðàäèåíò_13-16" x1="531.34" y1="925.71" x2="671.5" y2="440.97" xlink:href="#Áåçûìÿííûé_ãðàäèåíò_13"/><linearGradient id="Áåçûìÿííûé_ãðàäèåíò_13-17" x1="591.85" y1="-94.15" x2="519.82" y2="526.38" xlink:href="#Áåçûìÿííûé_ãðàäèåíò_13"/><linearGradient id="Áåçûìÿííûé_ãðàäèåíò_13-18" x1="903.37" y1="381.78" x2="888.93" y2="594.68" xlink:href="#Áåçûìÿííûé_ãðàäèåíò_13"/><linearGradient id="Áåçûìÿííûé_ãðàäèåíò_13-19" x1="-179.94" y1="1649.33" x2="240.57" y2="195.06" xlink:href="#Áåçûìÿííûé_ãðàäèåíò_13"/><linearGradient id="Áåçûìÿííûé_ãðàäèåíò_13-20" x1="1779.46" y1="636.61" x2="589.17" y2="660.94" xlink:href="#Áåçûìÿííûé_ãðàäèåíò_13"/><linearGradient id="Áåçûìÿííûé_ãðàäèåíò_13-21" x1="200.03" y1="682.78" x2="537.88" y2="439.99" xlink:href="#Áåçûìÿííûé_ãðàäèåíò_13"/><linearGradient id="Áåçûìÿííûé_ãðàäèåíò_13-22" x1="1292.19" y1="724.9" x2="1654.4" y2="464.6" xlink:href="#Áåçûìÿííûé_ãðàäèåíò_13"/><linearGradient id="Áåçûìÿííûé_ãðàäèåíò_13-23" x1="1345.84" y1="574.37" x2="1376.61" y2="439.64" xlink:href="#Áåçûìÿííûé_ãðàäèåíò_13"/><linearGradient id="Áåçûìÿííûé_ãðàäèåíò_13-24" x1="1430.86" y1="603.06" x2="1464.93" y2="453.85" xlink:href="#Áåçûìÿííûé_ãðàäèåíò_13"/><linearGradient id="Áåçûìÿííûé_ãðàäèåíò_13-25" x1="319.64" y1="549.11" x2="791.49" y2="517.77" xlink:href="#Áåçûìÿííûé_ãðàäèåíò_13"/><linearGradient id="Áåçûìÿííûé_ãðàäèåíò_13-26" x1="1538.56" y1="427.06" x2="2072.68" y2="391.58" xlink:href="#Áåçûìÿííûé_ãðàäèåíò_13"/><linearGradient id="Áåçûìÿííûé_ãðàäèåíò_13-27" x1="1850.6" y1="87.32" x2="1752.41" y2="676.48" xlink:href="#Áåçûìÿííûé_ãðàäèåíò_13"/><linearGradient id="Áåçûìÿííûé_ãðàäèåíò_13-28" x1="204.55" y1="56.15" x2="-112.38" y2="636.76" xlink:href="#Áåçûìÿííûé_ãðàäèåíò_13"/><linearGradient id="Áåçûìÿííûé_ãðàäèåíò_13-29" x1="314.09" y1="57.79" x2="-24.41" y2="677.92" xlink:href="#Áåçûìÿííûé_ãðàäèåíò_13"/><linearGradient id="Áåçûìÿííûé_ãðàäèåíò_13-30" x1="1658.84" y1="999.9" x2="1778.18" y2="429.23" xlink:href="#Áåçûìÿííûé_ãðàäèåíò_13"/><linearGradient id="Áåçûìÿííûé_ãðàäèåíò_13-31" x1="1886.49" y1="1053.89" x2="2012.29" y2="452.29" xlink:href="#Áåçûìÿííûé_ãðàäèåíò_13"/><linearGradient id="Áåçûìÿííûé_ãðàäèåíò_13-32" x1="1758.22" y1="1016.28" x2="1878.62" y2="440.52" xlink:href="#Áåçûìÿííûé_ãðàäèåíò_13"/><linearGradient id="Áåçûìÿííûé_ãðàäèåíò_13-33" x1="1785.15" y1="142.47" x2="1740.47" y2="410.52" xlink:href="#Áåçûìÿííûé_ãðàäèåíò_13"/><linearGradient id="Áåçûìÿííûé_ãðàäèåíò_13-34" x1="1670.48" y1="1085.31" x2="1824.08" y2="440.46" xlink:href="#Áåçûìÿííûé_ãðàäèåíò_13"/><linearGradient id="Áåçûìÿííûé_ãðàäèåíò_13-35" x1="709.7" y1="1039.71" x2="1286.11" y2="433.48" xlink:href="#Áåçûìÿííûé_ãðàäèåíò_13"/><linearGradient id="Áåçûìÿííûé_ãðàäèåíò_13-36" x1="-54.42" y1="1075.4" x2="86.66" y2="489.1" xlink:href="#Áåçûìÿííûé_ãðàäèåíò_13"/><linearGradient id="Áåçûìÿííûé_ãðàäèåíò_13-37" x1="328.73" y1="1078.69" x2="543.79" y2="389.47" xlink:href="#Áåçûìÿííûé_ãðàäèåíò_13"/><linearGradient id="Áåçûìÿííûé_ãðàäèåíò_75" x1="793.92" y1="712.07" x2="785.38" y2="453.52" gradientUnits="userSpaceOnUse"><stop offset="0" stop-color="#9fc0fc"/><stop offset="0.11" stop-color="#90aeef"/><stop offset="0.53" stop-color="#5d6fc0"/><stop offset="0.74" stop-color="#303b81"/><stop offset="0.91" stop-color="#0d1351"/><stop offset="1" stop-color="#00043f"/></linearGradient><linearGradient id="Áåçûìÿííûé_ãðàäèåíò_318" x1="515.3" y1="554.8" x2="515.32" y2="554.49" gradientUnits="userSpaceOnUse"><stop offset="0" stop-color="#794993"/><stop offset="1" stop-color="#dbb719"/></linearGradient><linearGradient id="Áåçûìÿííûé_ãðàäèåíò_318-2" x1="823.14" y1="798.62" x2="841.72" y2="510.62" xlink:href="#Áåçûìÿííûé_ãðàäèåíò_318"/><linearGradient id="Áåçûìÿííûé_ãðàäèåíò_318-3" x1="1579.31" y1="776.32" x2="1650.18" y2="555.92" xlink:href="#Áåçûìÿííûé_ãðàäèåíò_318"/><linearGradient id="Áåçûìÿííûé_ãðàäèåíò_318-4" x1="1458.71" y1="734.04" x2="1524.49" y2="529.49" xlink:href="#Áåçûìÿííûé_ãðàäèåíò_318"/><linearGradient id="Áåçûìÿííûé_ãðàäèåíò_318-5" x1="1465.22" y1="697.13" x2="1518.64" y2="530.99" xlink:href="#Áåçûìÿííûé_ãðàäèåíò_318"/><linearGradient id="Áåçûìÿííûé_ãðàäèåíò_318-6" x1="780.38" y1="841.28" x2="914.04" y2="468.7" xlink:href="#Áåçûìÿííûé_ãðàäèåíò_318"/><linearGradient id="Áåçûìÿííûé_ãðàäèåíò_318-7" x1="568.84" y1="799.72" x2="720.62" y2="376.63" xlink:href="#Áåçûìÿííûé_ãðàäèåíò_318"/><linearGradient id="Áåçûìÿííûé_ãðàäèåíò_318-8" x1="750.41" y1="846.63" x2="894.47" y2="445.07" xlink:href="#Áåçûìÿííûé_ãðàäèåíò_318"/><linearGradient id="Áåçûìÿííûé_ãðàäèåíò_318-9" x1="27.69" y1="686.31" x2="49.43" y2="582.74" xlink:href="#Áåçûìÿííûé_ãðàäèåíò_318"/><linearGradient id="Áåçûìÿííûé_ãðàäèåíò_318-10" x1="480.74" y1="556.13" x2="499.18" y2="498.88" xlink:href="#Áåçûìÿííûé_ãðàäèåíò_318"/><linearGradient id="Áåçûìÿííûé_ãðàäèåíò_318-11" x1="527.63" y1="572.32" x2="546.21" y2="514.63" xlink:href="#Áåçûìÿííûé_ãðàäèåíò_318"/><linearGradient id="Áåçûìÿííûé_ãðàäèåíò_318-12" x1="-22.43" y1="603.44" x2="-21.3" y2="585.83" xlink:href="#Áåçûìÿííûé_ãðàäèåíò_318"/><linearGradient id="Áåçûìÿííûé_ãðàäèåíò_318-13" x1="1915.66" y1="766.58" x2="1987" y2="544.68" xlink:href="#Áåçûìÿííûé_ãðàäèåíò_318"/><linearGradient id="Áåçûìÿííûé_ãðàäèåíò_318-14" x1="1828.16" y1="830.13" x2="1941.3" y2="478.27" xlink:href="#Áåçûìÿííûé_ãðàäèåíò_318"/><linearGradient id="linear-gradient" x1="767.77" y1="1219.48" x2="767.77" y2="775.7" gradientUnits="userSpaceOnUse"><stop offset="0" stop-color="#c9bdf2"/><stop offset="0.08" stop-color="#cabff3"/><stop offset="0.99" stop-color="#cfcffc"/></linearGradient><linearGradient id="linear-gradient-2" x1="1088.74" y1="872.64" x2="1125.76" y2="1159.56" gradientUnits="userSpaceOnUse"><stop offset="0" stop-color="#897ccf"/><stop offset="1" stop-color="#6b345d"/></linearGradient><linearGradient id="Áåçûìÿííûé_ãðàäèåíò_69" x1="815" y1="119.64" x2="821.52" y2="1061.59" gradientTransform="translate(1636 1106) rotate(-180)" gradientUnits="userSpaceOnUse"><stop offset="0.39"/><stop offset="0.42" stop-color="#010420"/><stop offset="0.49" stop-color="#020d63"/><stop offset="0.55" stop-color="#02159b"/><stop offset="0.61" stop-color="#031ac6"/><stop offset="0.67" stop-color="#041fe5"/><stop offset="0.71" stop-color="#0421f8"/><stop offset="0.74" stop-color="#0422ff"/><stop offset="0.79" stop-color="#0422fc"/><stop offset="0.82" stop-color="#0420f2"/><stop offset="0.85" stop-color="#041ee2"/><stop offset="0.87" stop-color="#031bcb"/><stop offset="0.9" stop-color="#0317ad"/><stop offset="0.93" stop-color="#021288"/><stop offset="0.95" stop-color="#010c5d"/><stop offset="0.97" stop-color="#01062c"/><stop offset="0.99"/></linearGradient></defs><g style="isolation:isolate"><g id="Ñëîé_1" data-name="Ñëîé 1"><g style="clip-path:url(#clip-path)"><rect x="-564.5" width="2765" height="1106" style="fill:url(#Áåçûìÿííûé_ãðàäèåíò_85)"/><g style="opacity:0.6000000000000001"><path d="M-377,351.34s439.78-32,581-54.75c4.43-.71-106.46,14.94-103.3,8S-45.24,319.48-44.61,319.15C-29.76,311.49,139,288.37,188,277.05c257-59.35,843.41-127.44,843.41-127.44L752.84,173.14S894.73,163,768.69,179.2c-43.76,5.62-94.61-17-116-14.08S634.18,192,623.42,198.64,354.2,240.26,353.7,242.48s-3.87,6.79-19.09,7.75-67.25-13.1-92-9.35S227,279,144.55,281.71c-8.63-15.3-43.44,7.72-44.6,11s-69.2-13.57-69.2-13.57-100.6-91.67-163.25-10.75C-192.71,346.11-377,351.34-377,351.34Z" style="fill-rule:evenodd;opacity:0.4;mix-blend-mode:multiply;fill:url(#Áåçûìÿííûé_ãðàäèåíò_588)"/><path d="M-998.25,432.17c-134-72.92-142.56,136.64,328,162.76,883.21,49,3184.52,29.75,3039.06-350.39C2366,237.22,516,463,523.55,450.18S205.46,495.7,207.07,495C245,477.4,621.51,411,748,377.11,1411,199.59,2096.6,103.27,2096.6,103.27l156.49-.3s-457,39.93-555.21,64.39C1631,184,1599.05,81.55,1510.33,102.22,1407.63,126.14,1320.84,231,1288,237.8c-14.68,3-29.59-40.34-84.28-26.67-30.3,7.57-65,53.08-92.35,67.65s-53.55,3.6-58.5,6.2c-13.47,7.06-11.59,21.56-51.12,27.68s-15.85-10-79.8,3.72-72.31,52.69-286.58,81.49c-24-23.85-112.3,26-115,31.95s-83.28-11.2-83.28-11.2S125.54,228.24-28.76,386.37c-15.84,16.23-196,83.44-214.28,92.1C-421.09,503.57-691.15,481.71-998.25,432.17Z" style="fill-rule:evenodd;opacity:0.4;mix-blend-mode:multiply;fill:url(#Áåçûìÿííûé_ãðàäèåíò_588-2)"/></g><path d="M2280.28,588.66l-3.61,49-1.15,44.1s-168.61.06-184.95.11H2089c-6,0-12.89.06-20.69.06h-2.35a6.57,6.57,0,0,0-1,.05h-10.87c-.66,0-1.31.06-2,.06h-16a7.6,7.6,0,0,1-1.07.05h-13.66c-.51,0-1,.06-1.6.06h-14.87c-.55.05-1.14.05-1.72.05H1991c-.73.06-1.48.06-2.21.06H1978.5c-2.09,0-4.18,0-6.31,0h-13.48c-2.43,0-4.93,0-7.42,0h-9.16c-.92,0-1.82.06-2.76.06h-13.79c-.85.05-1.75.05-2.6.05h-10.49c-4.76.06-9.62.06-14.57.06h-3c-1.68,0-3.35,0-5.07,0h-14c-1.6.06-3.16.06-4.76.06h-12c-2.13,0-4.22,0-6.36,0h-9.93c-1.14.06-2.28.06-3.42.06h-12.6c-.34,0-.64,0-1,0h-14.42c-1.52.06-3,.06-4.49.06h-13.25c-1.09,0-2.19,0-3.26,0h-16.09c-.92,0-1.8.06-2.7.06h-10.17c-1.33,0-2.69,0-4,0H1741.3c-1.87,0-3.71.06-5.59.06H1722.8c-3.26.05-6.51.05-9.81.05h-8.6c-1,0-1.94,0-2.89.06h-17.62l-2.21,0-4.93,0h-4.92c-2,0-4,0-6,.06l-35.26.08q-26.35.06-53.56.12h-.06c-6.34.06-12.71.06-19.16.06-4.28,0-8.59,0-12.9.05l-13,.06-16.34,0H1499q-4.95,0-9.91,0H1489c-3.32,0-6.63,0-10,0l-6.67,0-6.71,0c-6.67,0-13.4.06-20.13.06h-10.15l-30.61.08h-13.69c-4.56,0-9.15,0-13.74.06l-13.77,0c-44.53.1-89.81.2-135.42.28h-.13l-45.06.1h-1.16q-26.4.06-52.86.09c-2,0-4,0-6,0l-13.43,0-22.39.06h-.34l-39.08.08h-14.77c-3.42,0-6.87,0-10.27.06h0q-15.12,0-30.2.05c-21.79,0-43.49.06-65.1.06-5.24,0-10.46,0-15.68,0-15,0-33.73.11-55.43.28-26.15.19-56.57.48-89.8.82l-.57,0c-98.25,1-220.9,2.57-330.11,3.85-59.82.72-115.59,1.34-161.16,1.75-37.39.34-67.88.54-88.08.52h-6.39c-71.33,0-136.39-.15-192.62-.37h-10c-1.23,0-2.48,0-3.72,0H-36c-1.16-.06-2.37-.06-3.54-.06h-4.76c-2,0-4,0-5.93-.05H-60.57c-.58,0-1.16,0-1.74,0-2.89,0-5.71,0-8.53,0h-1c-10.71,0-21-.15-30.65-.21h-5.26c-1.58,0-3.14,0-4.71,0s-3.35,0-5-.06h-5.65c-.9,0-1.78,0-2.65,0h-2.86c-.88,0-1.78,0-2.65-.06h-3.55c-2.69,0-5.33,0-7.88,0-.86-.06-1.7-.06-2.55-.06h-3.31c-.84,0-1.67,0-2.47,0h-2.46c-.77,0-1.57,0-2.33,0h-2.4c-1.29-.06-2.55-.06-3.81-.06h-2.35c-1.71,0-3.38,0-5-.11-4.06,0-146.77,16.92-241.5,28-1.17.14-2.33.28-3.49.4-44.49,5.23-77.6,9.05-79.25,9h-.61c-1.87,0-3.66,0-5.41-.09h-.53l-9.13-.17h-.42c-.56,0-1.09,0-1.6,0h-.37c-.5,0-1-.06-1.52-.06h-.32a14.84,14.84,0,0,1-1.51,0h-.31c-.76,0-1.55,0-2.31-.06h-.27a10.17,10.17,0,0,1-1.36-.06h-1c-.72,0-1.38,0-2.06,0a5.49,5.49,0,0,0-.9-.05c-.88,0-1.75-.06-2.52-.11-2.17-.06-4-.17-5.56-.22-.57-.06-1.1-.06-1.56-.11-.29,0-.53,0-.78,0s-.39-.06-.58-.06h-.31a1.94,1.94,0,0,0-.52,0,.34.34,0,0,0-.24-.06c-.12,0-.26,0-.38,0s-.22-.06-.3-.06a1.34,1.34,0,0,1-.24,0,.37.37,0,0,1-.15-.06c-.14,0-.14-.11,0-.15s0-.06,0-.06a2.65,2.65,0,0,0,.71-.38,1.6,1.6,0,0,0,.83-1.13,2,2,0,0,0,.09-.59c0-.15,0-.32,0-.48s-.06-.27-.09-.43c-.39-1.56-1.63-3.57-3.6-6-.89-1.07-1.93-2.24-3.1-3.48-.44-.48-.87-.91-1.29-1.39a304.72,304.72,0,0,0-24.35-21.33c-.63-.48-1.24-1-1.85-1.5q-4-3.13-8.22-6.44c-1.15-.92-2.33-1.83-3.5-2.74a2.18,2.18,0,0,1-.31-.27c-.84-.65-1.68-1.3-2.55-1.93-3.41-2.59-6.88-5.22-10.45-7.9-1.11-.86-2.25-1.67-3.39-2.52s-2.55-2-3.84-2.85-2.4-1.78-3.62-2.69l-2.21-1.61-4.18-3.07c-2.55-1.87-5.07-3.7-7.62-5.52-.87-.65-1.74-1.29-2.59-1.89-.46-.31-.93-.64-1.36-1l-3.92-2.85c-2-1.39-3.95-2.79-5.89-4.18-1.29-.93-2.6-1.89-3.89-2.74s-2.59-1.89-3.84-2.74-2.55-1.78-3.83-2.69-2.52-1.77-3.74-2.64-2.5-1.76-3.69-2.58c-.65-.42-1.22-.85-1.85-1.28-1.23-.86-2.42-1.72-3.59-2.53-.68-.48-1.36-.91-2-1.45-1.08-.7-2.15-1.46-3.23-2.2-2.31-1.61-4.59-3.17-6.73-4.68-.9-.59-1.75-1.17-2.58-1.76-1.26-.87-2.47-1.67-3.64-2.48-1-.7-2-1.39-3-2l-1.41-1-5.41-3.72c-.71-.48-1.39-.91-2-1.39h0c-2.59-1.78-4.9-3.33-6.89-4.67-.34-.22-.65-.44-1-.64l-1.72-1.19c-.27-.16-.52-.37-.8-.53-.49-.32-1-.65-1.44-1l-1.34-.92c1.53,0,3.06.05,4.6.05l637.91-132,35.7,30.29,225.32-86.4,89.4.83L636,277.51,718.12,210l57.35-22L966.25,404.79l1.38,1.57h0c4.27-1.07,8.4-2.2,12.4-3.22l11.49-1.56,6.39-.89,7.88-1.1,62.4,19.55,78.59,24.65h0l.14-.09,36.44-24.45,0-.06,56.72,17.9,3.39-1.12,132.81-43.79,134.07,40.23,11.5,3.44,354.64-126.66,264.27,166.57-6.8,44.06Z" style="fill:url(#Áåçûìÿííûé_ãðàäèåíò_180)"/><path d="M1577,683.5l-19.21.06-12.92,0c-4.32,0-8.66,0-13,0l-16.36.06h-8.22l-8.26,0-9.89,0H1489l-9.93,0c-2.23,0-4.46,0-6.69,0h-6.69q-10.05,0-20.17.05c-3.37,0-6.75,0-10.13,0l-30.61.08-13.69,0q-6.86,0-13.74,0l-13.79,0q-8.92-15.25-17.68-29.74t-17.45-28.17h0q-7.37-11.61-14.65-22.59v0c-24.15-36.37-47.78-67.57-71.66-92.84-27.41-29-55.1-50.27-84.25-62.6-3.69-1.57-7.38-3-11.1-4.26h0s0,0,0,0l.14-.09,36.44-24.45c-14.51,11.4,14.6,39.37,73.5,78.91,20.95,14.06,45.66,29.59,73.53,46.34,4.43,2.67,9,5.39,13.56,8.11.14.08.29.41.45,1a.77.77,0,0,1,.06.23,30.4,30.4,0,0,1,.62,3.08v0c1.54,9.29,3.35,30.36,3.35,30.36,63,37.34,224.6,94.84,228.4,96.19Z" style="opacity:0.7000000000000001;mix-blend-mode:multiply;fill:url(#Áåçûìÿííûé_ãðàäèåíò_13)"/><path d="M1682.06,461.32a49.81,49.81,0,0,0-6.27.48l2.56-1.18Z" style="opacity:0.7000000000000001;mix-blend-mode:multiply;fill:url(#Áåçûìÿííûé_ãðàäèåíò_13-2)"/><path d="M1330.44,544.5a209.27,209.27,0,0,1-16.62,59c-24.14-36.38-47.78-67.58-71.66-92.86a51.18,51.18,0,0,0,14.77-12.51C1277.87,512.22,1302.58,527.74,1330.44,544.5Z" style="opacity:0.7000000000000001;mix-blend-mode:multiply;fill:url(#Áåçûìÿííûé_ãðàäèåíò_13-3)"/><path d="M1345.92,654.32q-8.79-14.51-17.45-28.18A258.06,258.06,0,0,0,1344,552.61c1.58.94-.52.68,1.08,1.63C1345.6,585.65,1348.78,621.82,1345.92,654.32Z" style="opacity:0.7000000000000001;mix-blend-mode:multiply;fill:url(#Áåçûìÿííûé_ãðàäèåíò_13-4)"/><path d="M1682.06,461.32a49.81,49.81,0,0,0-6.27.48l2.56-1.18Z" style="opacity:0.7000000000000001;mix-blend-mode:multiply;fill:url(#Áåçûìÿííûé_ãðàäèåíò_13-5)"/><polygon points="2081.34 595.54 2019.65 678.78 2017.17 682.14 1979.32 733.22 1977.56 730.98 1939.37 682.4 1939 681.93 1907.9 642.35 1732.1 555.02 1708.01 543.04 1660.69 519.56 1647.49 513 1634.32 506.45 1630.74 504.67 1620.54 481.27 1585.46 465.12 1530.08 439.59 1521.94 435.85 1876.58 309.19 1853.49 332.58 1844.99 380.77 1868.61 406.84 1870.7 409.15 1957.21 504.67 1953.81 517.06 2055.83 584.52 2081.34 595.54" style="fill-rule:evenodd;opacity:0.7000000000000001;mix-blend-mode:multiply;fill:url(#Áåçûìÿííûé_ãðàäèåíò_13-6)"/><polygon points="439.87 696.5 277.11 697.63 274.58 691.65 273.7 689.59 264.89 668.82 239.71 609.51 237 608.55 105.36 561.78 73.07 550.31 59.47 535.17 41.48 526.07 33.08 521.81 6.11 508.17 -22.15 493.87 203.17 407.47 223.76 434.43 250.06 468.88 292.57 512.93 326.58 515.69 367.44 580.89 434.82 688.43 435.74 689.9 439.87 696.5" style="fill-rule:evenodd;opacity:0.7000000000000001;mix-blend-mode:multiply;fill:url(#Áåçûìÿííûé_ãðàäèåíò_13-7)"/><path d="M1087,684.63,918.3,558.37l.3-.15h0l64.29-28.77h-32.3L875.79,334l-102-23.41-6.8-23.4-8.5-11,17-88.11-57.35,22L636,277.51,292.57,408.3s3.4,1.39,9.32,3.84l0,0c1.11.45,2.32.93,3.61,1.48,46.94,19.39,205.13,85.58,197.88,93.79a34.13,34.13,0,0,0-8.5,20.65L568,620.32l288.19,64.89.76.18h0l35.35,8,204.49-1.43ZM814.58,522.57l27.2,9.64-134.32-4.13L602,510.18l37.41-2.75Z" style="fill-rule:evenodd;opacity:0.7000000000000001;mix-blend-mode:multiply;fill:url(#Áåçûìÿííûé_ãðàäèåíò_13-8)"/><path d="M1182.11,684.74l-51.27,3-1.85-3.25-62.35-109.37-7.21-12.66L971.35,438.7l-2-2.86-3.06-31,1.38,1.57h0c4.27-1.07,8.4-2.2,12.4-3.22l11.49-1.56,6.39-.89L994.81,440l.84,1.32h0l44.89,71.85,29.09,46.59,1.58,1.68,42.63,45.13,41.2,47.18,26.81,30.71Z" style="fill-rule:evenodd;opacity:0.7000000000000001;mix-blend-mode:multiply;fill:url(#Áåçûìÿííûé_ãðàäèåíò_13-9)"/><polygon points="1411.4 551.48 1243.56 435.97 1241.37 434.46 1376.37 392.18 1328.08 423.44 1338.29 437.21 1345.09 474.38 1411.4 551.48" style="fill-rule:evenodd;opacity:0.7000000000000001;mix-blend-mode:multiply;fill:url(#Áåçûìÿííûé_ãðàäèåíò_13-10)"/><polygon points="1938.81 682.4 1631 684.04 1630.51 683.35 1617.14 664.38 1413.1 554.24 1445.41 565.25 1472.61 547.35 1690.26 629.96 1907.9 642.35 1938.46 681.93 1938.81 682.4" style="opacity:0.7000000000000001;mix-blend-mode:multiply;fill:url(#Áåçûìÿííûé_ãðàäèåíò_13-11)"/><path d="M1112.14,687.78l-15.3,4.13-9.71-7.28,22.39-.06Z" style="opacity:0.7000000000000001;mix-blend-mode:multiply;fill:url(#Áåçûìÿííûé_ãðàäèåíò_13-12)"/><polygon points="1071.84 562.41 1066.64 575.16 1059.43 562.5 971.35 438.7 994.81 439.97 1071.21 561.42 1071.84 562.41" style="fill-rule:evenodd;opacity:0.7000000000000001;mix-blend-mode:multiply;fill:url(#Áåçûìÿííûé_ãðàäèåíò_13-13)"/><polygon points="1630.74 504.67 1526.6 493.63 1430.41 483.43 1384.6 478.57 1377.43 477.81 1345.09 474.38 1338.29 437.21 1359.52 440.53 1373.19 442.66 1395.93 446.22 1510.22 464.05 1620.54 481.27 1630.74 504.67" style="opacity:0.7000000000000001;mix-blend-mode:multiply;fill:url(#Áåçûìÿííûé_ãðàäèåíò_13-14)"/><polygon points="766.97 287.15 874.09 307.8 877.49 310.55 773.77 310.55 766.97 287.15" style="opacity:0.7000000000000001;mix-blend-mode:multiply;fill:url(#Áåçûìÿííûé_ãðàäèåíò_13-15)"/><polygon points="503.41 507.43 782.27 554.24 787.37 563.87 494.91 528.08 503.41 507.43" style="fill-rule:evenodd;opacity:0.7000000000000001;mix-blend-mode:multiply;fill:url(#Áåçûìÿííûé_ãðàäèåíò_13-16)"/><polygon points="636.04 277.51 683.65 321.56 681.95 339.46 763.57 473.01 726.16 424.82 488.11 459.24 496.61 445.47 695.55 423.44 661.55 355.98 598.63 367 304.47 413.81 295.97 408.3 636.04 277.51" style="fill-rule:evenodd;opacity:0.7000000000000001;mix-blend-mode:multiply;fill:url(#Áåçûìÿííûé_ãðàäèåíò_13-17)"/><polygon points="950.61 529.46 802.67 545.98 920 558.37 982.91 529.46 950.61 529.46" style="fill-rule:evenodd;opacity:0.7000000000000001;mix-blend-mode:multiply;fill:url(#Áåçûìÿííûé_ãðàäèåíò_13-18)"/><polygon points="292.57 512.93 239.86 609.31 237 608.55 105.36 561.78 265.37 489.53 238.74 455.19 187.15 474.38 233.53 447.81 224.4 438.33 129.34 490.91 63.02 523.95 41.48 526.07 6.11 508.17 112.33 475.76 125.94 485.4 223.76 434.43 224.4 434.1 292.57 512.93" style="fill-rule:evenodd;opacity:0.7000000000000001;mix-blend-mode:multiply;fill:url(#Áåçûìÿííûé_ãðàäèåíò_13-19)"/><polygon points="1096.84 691.91 892.35 693.34 857 685.39 856.98 685.39 856.22 685.21 568.03 620.32 972.71 638.22 955.71 620.32 823.08 614.81 992.83 616.55 1086.79 684.63 1096.84 691.91" style="fill-rule:evenodd;opacity:0.7000000000000001;mix-blend-mode:multiply;fill:url(#Áåçûìÿííûé_ãðàäèåíò_13-20)"/><polygon points="503.41 507.43 345.28 521.19 494.91 528.08 503.41 507.43" style="fill-rule:evenodd;opacity:0.7000000000000001;mix-blend-mode:multiply;fill:url(#Áåçûìÿííûé_ãðàäèåíò_13-21)"/><polygon points="1472.61 547.35 1635.85 562.5 1436.9 536.34 1472.61 547.35" style="fill-rule:evenodd;opacity:0.7000000000000001;mix-blend-mode:multiply;fill:url(#Áåçûìÿííûé_ãðàäèåíò_13-22)"/><polygon points="1384.6 478.57 1377.43 477.81 1359.52 440.53 1373.19 442.66 1384.6 478.57" style="fill-rule:evenodd;opacity:0.7000000000000001;mix-blend-mode:multiply;fill:url(#Áåçûìÿííûé_ãðàäèåíò_13-23)"/><polygon points="1526.6 493.63 1430.41 483.43 1395.93 446.22 1510.22 464.05 1526.6 493.63" style="fill-rule:evenodd;opacity:0.7000000000000001;mix-blend-mode:multiply;fill:url(#Áåçûìÿííûé_ãðàäèåíò_13-24)"/><polygon points="604.42 510.85 610.54 525.33 706.88 542.73 707.46 528.08 604.42 510.85" style="fill-rule:evenodd;opacity:0.7000000000000001;mix-blend-mode:multiply;fill:url(#Áåçûìÿííûé_ãðàäèåíò_13-25)"/><polygon points="1977.62 404.17 1861.96 399.31 1870.64 409.15 1977.62 404.17" style="fill-rule:evenodd;opacity:0.7000000000000001;mix-blend-mode:multiply;fill:url(#Áåçûìÿííûé_ãðàäèåíò_13-26)"/><path d="M2018.42,647.86l-5.17,34.26v0l-.18,1.19s-22.74,31.5-35.51,47.65l-38.19-48.58-.35-.47h0l-31.1-39.58L1732.1,555,1708,543l-47.32-23.48-13.2-6.56-13.18-6.55-3.57-1.78-10.2-23.4-35.08-16.15-55.38-25.53,54.76-3.75,83.31,38.54,10.2,2.76-1.7,27.53,4,2.65,94.59,62.06,11.87,2.91,61.25,15,66.31,24.78,6.8,8.26Z" style="fill-rule:evenodd;opacity:0.7000000000000001;mix-blend-mode:multiply;fill:url(#Áåçûìÿííûé_ãðàäèåíò_13-27)"/><polygon points="59.47 535.17 -185.23 556.99 -176.72 554.24 34.26 521.63 59.47 535.17" style="fill-rule:evenodd;opacity:0.7000000000000001;mix-blend-mode:multiply;fill:url(#Áåçûìÿííûé_ãðàäèåíò_13-28)"/><polygon points="73.07 550.31 -113.81 572.13 -88.31 580.39 -202.23 594.16 237 608.55 73.07 550.31" style="fill-rule:evenodd;opacity:0.7000000000000001;mix-blend-mode:multiply;fill:url(#Áåçûìÿííûé_ãðàäèåíò_13-29)"/><polygon points="1861.99 452.36 1678.35 477.14 1676.65 504.67 1861.99 457.86 1861.99 452.36" style="fill-rule:evenodd;opacity:0.7000000000000001;mix-blend-mode:multiply;fill:url(#Áåçûìÿííûé_ãðàäèåíò_13-30)"/><polygon points="1914.7 612.06 2043.93 607.93 1921.5 620.32 1914.7 612.06" style="fill-rule:evenodd;opacity:0.7000000000000001;mix-blend-mode:multiply;fill:url(#Áåçûìÿííûé_ãðàäèåíò_13-31)"/><polygon points="1773.57 572.13 2037.34 575.06 2030.4 569.44 1727.66 532.21 1722.56 528.08 1906.2 544.6 1901.1 541.85 1677.88 506.87 1773.57 572.13" style="fill-rule:evenodd;opacity:0.7000000000000001;mix-blend-mode:multiply;fill:url(#Áåçûìÿííûé_ãðàäèåíò_13-32)"/><polygon points="1853.49 332.58 1642.65 397.29 1647.75 402.79 1844.99 380.77 1853.49 332.58" style="fill-rule:evenodd;opacity:0.7000000000000001;mix-blend-mode:multiply;fill:url(#Áåçûìÿííûé_ãðàäèåíò_13-33)"/><polygon points="2081.34 595.54 2045.63 680.9 2019.78 682.14 2017.17 682.14 2013.26 682.12 1939.02 681.93 1938.46 681.93 1934.46 681.92 1687.71 683.16 1681.67 683.18 1676.74 683.21 1665.77 683.27 1690.26 629.96 1907.9 642.35 1732.1 555.02 1708.01 543.04 1660.69 519.56 1647.49 513 1634.32 506.45 1630.74 504.67 1620.54 481.27 1585.46 465.12 1530.08 439.59 1584.84 435.84 1670.65 475.71 1678.35 477.14 1676.65 504.67 1680.68 507.32 1775.27 569.38 1788.01 572.3 1847.2 585.85 1914.7 612.06 1921.5 620.32 1990.38 609.64 2081.34 595.54" style="fill-rule:evenodd;opacity:0.7000000000000001;mix-blend-mode:multiply;fill:url(#Áåçûìÿííûé_ãðàäèåíò_13-34)"/><polygon points="1362.09 682.27 1228.2 684.34 1228.07 684.34 1183.55 685.03 1183.01 684.44 1155.04 653.73 1071.84 562.41 1071.21 561.42 1040.54 513.15 995.43 442.2 995.65 441.3 995.65 441.29 1005.82 399.59 1146.98 443.7 1161.45 448.23 1157.91 448.07 1003.32 441.34 1052.63 501.92 1202.26 522.57 1062.83 518.44 1251.57 543.22 1362.09 682.27" style="fill-rule:evenodd;opacity:0.7000000000000001;mix-blend-mode:multiply;fill:url(#Áåçûìÿííûé_ãðàäèåíò_13-35)"/><polygon points="274.58 691.65 -11.23 691.64 -60.58 691.64 -185.13 635.05 237 608.55 264.33 668.99 273.65 689.59 274.58 691.65" style="fill-rule:evenodd;opacity:0.7000000000000001;mix-blend-mode:multiply;fill:url(#Áåçûìÿííûé_ãðàäèåíò_13-36)"/><polygon points="927.33 684.88 857 685.39 856.98 685.39 766.42 686.03 765.85 686.05 434.82 688.43 273.7 689.59 273.65 689.59 -11.23 691.64 -26.25 691.75 -24.85 691.64 263.48 669.26 264.33 668.99 264.89 668.82 396.33 627.08 370.28 591.23 261.96 636.84 366.37 580.68 367.44 580.89 568.03 620.32 927.33 684.88" style="fill-rule:evenodd;opacity:0.7000000000000001;mix-blend-mode:multiply;fill:url(#Áåçûìÿííûé_ãðàäèåíò_13-37)"/><path d="M2280.28,588.66l-4.76,93.09-255.74.39h-2.61l-37.85,51.07-1.76-2.23-38.19-48.58h-.56L1631,684l-.49-.69q-26.35.06-53.56.12h-.06l.07,0-19.21.06-12.92,0-13,.06-16.34,0h-8.22l-8.26,0-9.89,0H1489l-9.93,0c-2.23,0-4.46,0-6.69,0l-6.71,0c-6.67,0-13.4.06-20.13.06h-10.15l-30.61.08-13.69,0q-6.86,0-13.74,0l-13.77,0c-44.53.1-89.81.2-135.42.28h-.13l-44.52.69-.54-.59h-1.16l.26.3-51.27,3-1.85-3.25c-2,0-4,0-6,0l-13.43,0,2.62,3.21-15.3,4.13-204.49,1.43-35.35-8h0l-90.56.64-.57,0c-98.25,1-220.9,2.57-330.11,3.85l4.13,6.6-162.76,1.13-2.53-6c-37.39.34-67.88.54-88.08.52h-6.39c-71.33,0-136.39-.15-192.62-.37h-10c-1.23,0-2.48,0-3.72,0H-36c-1.16-.06-2.37-.06-3.54-.06h-4.76c-2,0-4,0-5.93-.05H-60.57l-1.47.11c-18.8,1.36-215.18,15.75-352.33,27.42-44.49,5.23-77.6,9.05-79.25,9h-.61c-1.87,0-3.66,0-5.41-.09h-.53l-9.13-.17c-22.37,2.33-36.43,4.19-38.1,5.31-5.31,3.58,1.33-5.85,8.93-15.75-.89-1.07-1.93-2.24-3.1-3.48-.44-.48-.87-.91-1.29-1.39a304.72,304.72,0,0,0-24.35-21.33c-.63-.48-1.24-1-1.85-1.5q-4-3.13-8.22-6.44c-1.15-.92-2.33-1.83-3.5-2.74a2.18,2.18,0,0,1-.31-.27c-.84-.65-1.68-1.3-2.55-1.93-3.41-2.59-6.88-5.22-10.45-7.9-1.11-.86-2.25-1.67-3.39-2.52s-2.55-2-3.84-2.85-2.4-1.78-3.62-2.69l-2.21-1.61-4.18-3.07c-2.55-1.87-5.07-3.7-7.62-5.52-.87-.65-1.74-1.29-2.59-1.89-.46-.31-.93-.64-1.36-1l-3.92-2.85c-2-1.39-3.95-2.79-5.89-4.18-1.29-.93-2.6-1.89-3.89-2.74s-2.59-1.89-3.84-2.74-2.55-1.78-3.83-2.69-2.52-1.77-3.74-2.64-2.5-1.76-3.69-2.58c-.65-.42-1.22-.85-1.85-1.28-1.23-.86-2.42-1.72-3.59-2.53-.68-.48-1.36-.91-2-1.45-1.08-.7-2.15-1.46-3.23-2.2-2.31-1.61-4.59-3.17-6.73-4.68-.9-.59-1.75-1.17-2.58-1.76-1.26-.87-2.47-1.67-3.64-2.48-1-.7-2-1.39-3-2l-1.41-1-5.41-3.72c-.71-.48-1.39-.91-2-1.39h0c-2.59-1.78-4.9-3.33-6.89-4.67-.34-.22-.65-.44-1-.64l-1.72-1.19c-.27-.16-.52-.37-.8-.53-.49-.32-1-.65-1.44-1l-1.34-.92c1.53,0,3.06.05,4.6.05l638.19-132,35.42,30.25,225.32-86.4,89.4.83L636,277.42,718.12,210l57.35-22L966.25,404.79l1.38,1.57h0c4.27-1.07,8.4-2.2,12.4-3.22l11.49-1.56,6.39-.89,7.88-1.1L1147,443.7l36.44-24.45,0-.06,56.72,17.9,3.39-1.12-2.2-1.51,135-42.28,134.07,40.23,11.5,3.44,356.49-125.28,262.42,165.19-6.8,44.06Z" style="fill-rule:evenodd;mix-blend-mode:screen;fill:url(#Áåçûìÿííûé_ãðàäèåíò_75)"/><path d="M515.6,554.84c-.37-.16-.57-.27-.57-.34S515.21,554.47,515.6,554.84Z" style="fill-rule:evenodd;opacity:0.76;mix-blend-mode:multiply;fill:url(#Áåçûìÿííûé_ãðàäèåíò_318)"/><path d="M2110.46,596.68l69.5-8-88.42-8.25L2215.66,579l-206.79-27.68,69,40.07-165.4,54.84-37.78-19L1606.43,600.9l-26.7,27.68-110-42.44,96.38,51.67-155-20-67.77,37L1170,665.17l-39.82-56.89,170.72,2.4L1124,592.78l-22.1-12.38,53.1,73.34-42.21-1.17-31.3-40.51,17,28.91-34,2.75-44.21-23.4-59.51-22,77.78,53.23-47.17-.91L806.08,613.44l-71.42-6.89L829.88,630l-40,2.57S529.45,560.88,515.6,554.84c5.42,5.35,48,60.83,48,60.83l88.56,20.38,109,36.71L418.07,660.43l-14.06-19L248.36,645.1,395.2,623.4l91.21-.32-99-10.23-31.9,7.47,30.17-12.39,167.06,12.39L375.24,591.76,273.87,628.58l93.57-47.69L272.17,603.8l-56.11-4.13-95.23-41.3,112.23-46.81-15,.76-107.67,46.4-10-3.11,62.91-28.91L73.07,550.32l77.29,28.08L237,608.55-64.5,614.81,66.14,622l-261.35,7-167,1.69,147.2,4.93-221.77,18.5-177.41,4.31,230.12,8-140.33,35.66s-32-.42-69.48-.86l27.82,27.82,2843-44.06,2.89-92.57ZM-288.33,686.2l120.2-21.58-245.55,35.14,146.56-38.22,118.92-8.63,126.63,10.48Z" style="fill-rule:evenodd;opacity:0.76;mix-blend-mode:multiply;fill:url(#Áåçûìÿííûé_ãðàäèåíò_318-2)"/><polygon points="1565.05 582.15 1748.07 607.93 1532.12 566.63 1565.05 582.15" style="fill-rule:evenodd;opacity:0.76;mix-blend-mode:multiply;fill:url(#Áåçûìÿííûé_ãðàäèåíò_318-3)"/><polygon points="1421.6 533.59 1465.81 547.35 1615.44 562.5 1421.6 533.59" style="fill-rule:evenodd;opacity:0.76;mix-blend-mode:multiply;fill:url(#Áåçûìÿííûé_ãðàäèåíò_318-4)"/><polygon points="1532.02 567.01 1469.54 583.06 1538.67 569.35 1532.02 567.01" style="fill-rule:evenodd;opacity:0.76;mix-blend-mode:multiply;fill:url(#Áåçûìÿííûé_ãðàäèåíò_318-5)"/><polygon points="802.67 545.98 920 558.37 974.41 533.59 802.67 545.98" style="fill-rule:evenodd;opacity:0.76;mix-blend-mode:multiply;fill:url(#Áåçûìÿííûé_ãðàäèåíò_318-6)"/><polygon points="506.34 529.89 829.88 568 834.98 570.76 502.87 536.92 482.9 526.38 506.34 529.89" style="fill-rule:evenodd;opacity:0.76;mix-blend-mode:multiply;fill:url(#Áåçûìÿííûé_ãðàäèåíò_318-7)"/><polygon points="729.56 566.63 746.56 572.13 960.81 598.29 937 579.02 729.56 566.63" style="fill-rule:evenodd;opacity:0.76;mix-blend-mode:multiply;fill:url(#Áåçûìÿííûé_ãðàäèåíò_318-8)"/><polygon points="24.17 517.94 105.53 500.54 65.84 522.63 38.64 524.5 24.17 517.94" style="fill-rule:evenodd;opacity:0.76;mix-blend-mode:multiply;fill:url(#Áåçûìÿííûé_ãðàäèåíò_318-9)"/><polygon points="411.41 397.02 666.65 353.23 612.24 349.1 411.41 397.02" style="fill-rule:evenodd;opacity:0.76;mix-blend-mode:multiply;fill:url(#Áåçûìÿííûé_ãðàäèåíò_318-10)"/><polygon points="503.41 390.4 644.54 375.26 672.47 379.68 503.41 390.4" style="fill-rule:evenodd;opacity:0.76;mix-blend-mode:multiply;fill:url(#Áåçûìÿííûé_ãðàäèåíò_318-11)"/><path d="M-124,596.68c3.4-1.14,264.82,9.14,264.82,9.14L-71.3,590H76.63L-86.61,585.9l23.81,2.76-122.43,5.5Z" style="fill-rule:evenodd;opacity:0.76;mix-blend-mode:multiply;fill:url(#Áåçûìÿííûé_ãðàäèåíò_318-12)"/><polygon points="1914.7 612.06 2034.49 602.31 1901.1 606.55 1914.7 612.06" style="fill-rule:evenodd;opacity:0.76;mix-blend-mode:multiply;fill:url(#Áåçûìÿííûé_ãðàäèåíò_318-13)"/><polygon points="1790.58 573.51 1843.47 585.43 2030.33 574.89 2028.63 573.51 1790.58 573.51" style="fill-rule:evenodd;opacity:0.76;mix-blend-mode:multiply;fill:url(#Áåçûìÿííûé_ãðàäèåíò_318-14)"/><path d="M596.41,614.85l4.09-39.22.12,32.85L604.86,578l-.33,29.79,5.69-48.58,3.12,16.53,2.39-7.45,2,28.87.59-26s2.81,38.38,2.8,36.35,4.63-41.6,4.63-41.6l6.82,41.78,1.58-7.87,3.11,14.49s2.63-14.85,2.71-13.48,6.78,13.9,6.78,13.9l3.64-10.67,2.12,10.48L656.3,559l4.21,33.9,1.16-16.08,6.65,23.6s1.27-21.54,1.35-19.38,9.42,22.39,9.42,22.39L676.7,589.8c.38,2.18,9.06,18.4,9.06,18.4l-1.71-8.82c.61,3.15,14,28.14,14,28.14L691,578s22,52.2,22,49.18-1.2-16.22-1.2-16.22l13.44,22.45,1-5.31,19.06,29.13-2.57-58,17.42,67.55Z" style="fill:#70632f;fill-rule:evenodd"/><path d="M798,621.39l3.55-55.15,2,46,4.25-42.92L809,611.1l5.29-68.36,5.28,23,2.94-10.56,4.44,40.34-.61-36.4s6.06,53.61,5.94,50.77,4.18-58.52,4.18-58.52l11.86,58.18,1.79-11.09,5.16,20.13s2.85-20.94,3-19,10.27,19.12,10.27,19.12l4.51-15.13,3.56,14.57,2.17-78.1,7.79,47.28.73-22.58,10.62,32.72s.58-30.24.82-27.22,14.44,30.88,14.44,30.88l-4.11-18.92c.66,3,13.72,25.32,13.72,25.32s-3.9-16.58-2.89-12.27S941.05,634,941.05,634l-12.53-69s33.68,72,33.52,67.78S959.46,610,959.46,610l20.08,30.76,1.05-7.49,25,42.41-7.27-33.87,31.9,44Z" style="fill:#70632f;fill-rule:evenodd"/><path d="M587.8,669.55c0-6.78-.64-41.92-.64-41.92l7.71,35.14,1.93-16L604.51,672l1.93-10.48,3.21,17.26L618,615.3l7.71,48.09V646.74l11.57,43.17-68.78-21Z" style="fill:#70632f;fill-rule:evenodd"/><path d="M758.78,661.54c0-6.79-.64-41.93-.64-41.93l7.71,35.14,1.93-16L775.49,664l1.93-10.48,3.22,17.27L789,607.28l7.72,48.09V638.72l11.57,43.18-68.78-21Z" style="fill:#70632f;fill-rule:evenodd"/><polygon points="1572.89 664.31 1580.31 602.47 1588.18 663.59 1596.78 636.12 1603.93 665.65 1617.54 624.45 1627.56 671.14 1633.29 660.84 1636.5 669.57 1729.23 674.58 1451.14 675.88 1572.89 664.31" style="fill:#70632f;fill-rule:evenodd"/><polygon points="584.4 657.64 585.12 619.87 600.87 654.9 601.58 637.04 624.5 670.46 716.55 675.26 433.58 674.21 540.73 666.57 580.11 668.4 575.81 637.04 584.4 657.64" style="fill:#70632f;fill-rule:evenodd"/><polygon points="-585.58 732.25 2271.16 732.25 2271.16 1180.99 -644.43 1163.89 -585.58 732.25" style="fill:#e3dcfd"/><path d="M2243,775.7l-12.21,443.78-2922.57-35.69L-707.5,819.41,830.48,863l1125.18-69.51h.09l263.86-16.3Z" style="fill:url(#linear-gradient)"/><polygon points="2282.3 777.27 969.41 1095.76 1301.17 1123.04 2308.47 797.23 2282.3 777.27" style="fill:#ffff81;opacity:0.55;mix-blend-mode:soft-light"/><path d="M1955.75,793.45l263.86-16.3C1936,807.71,1459.44,876.87,670.75,1029.09c-374.63,72.3-270.76-28-270.76-28s961.23-152.25,1555.67-207.61Z" style="fill:#ffff81;opacity:0.55;mix-blend-mode:soft-light"/><polygon points="2243.04 897.31 1702.45 1138.18 2155.58 1264.65 2243.04 897.31" style="fill:#ffff81;opacity:0.55;mix-blend-mode:soft-light"/><path d="M-772.88,1021.94c7.85-.16,1311.13,21.23,1311.13,21.23l-157.31-37.35L-863.12,963.73Z" style="fill:#ffff81;opacity:0.55;mix-blend-mode:soft-light"/><polygon points="-801.67 938.65 389.08 979.99 428.01 962.49 -801.67 897.31 -801.67 938.65" style="fill:#ffff81;opacity:0.55;mix-blend-mode:soft-light"/><polygon points="-762.41 869.76 507.29 930.57 600.68 903.5 -703.75 858.1 -762.41 869.76" style="fill:#ffff81;opacity:0.55;mix-blend-mode:soft-light"/><polygon points="-733.63 828.83 714.35 883.91 830.48 862.98 -707.49 819.41 -733.63 828.83" style="fill:#ffff81;opacity:0.55;mix-blend-mode:soft-light"/><path d="M2120.92,1216.11l.85.11-55.41,11.7-57.2,12.06-8.47,1.79h0l-81.81-11.11-27.29-3.7-30.08-4.09-7-.95-202.2-27.46-73.29-10-85.6-11.62-8-1.09L373.28,1011.24l-2.06-18.4c13.2,14.84,299.9,37.69,640.68,81.54l10.49,1.34,3.84.5c37.77,4.86,139.5,10.43,139.5,10.43l5.74,25,3.15-22.58s233.49,36.14,236.06,36.47c24.51,3.14,49.47,6.16,74.68,9l8.85,1q18.7,2.12,37.57,4.16c36.66,4,73.58,7.72,110.22,11.26l18.33,42.51,50.79,4.71-6-41.29c51.61,4.72,101.92,9,149.31,13l12.13,1c8.44.71,16.76,1.39,25,2.09q20.46,1.7,40,3.32c87.62,7.3,159.56,13.4,202.24,18.83C2171.61,1200,2116.29,1215.53,2120.92,1216.11Z" style="fill:#3a3371"/><path d="M901.22,839.54v5S326.52,964,242.31,1011.23q-3.63-1.18-6.83-2.33c-16.54-5.89-23.94-10.62-20.43-13.94,7-6.69,24.64-13.42,49.47-20.41,2-.57,2.46-9.16,4.56-9.73,40.61-11,93.72-21.06,155.78-34.25C623.81,888.28,891.23,848.32,901.22,839.54Z" style="fill:#5d4c90"/><path d="M1023.92,827.88c0,1.2-48.78,11.72-63.33,15.77l-39.38-5.74L840.27,834l-5.64-.28C537.05,819-652.71,788.21-652.71,788.21l-51-3.93S1023.92,817.18,1023.92,827.88Z" style="fill:#897ccf"/><path d="M2000.68,1241.76l-301,108.86S554.49,1082.8,392,1048.09c-67.62-14.45-119.82-27.07-149.67-36.86C326.52,964,901.22,844.56,901.22,844.56v-5c.29-.26.36-.48.22-.68-.92-1.26-23-2.9-61.17-4.86l80.94,3.91,39.38,5.74c-17,4.7-42.47,11.08-73.57,18.55h0l-.44.11c-12.1,2.91-25,6-38.61,9.18l-.31.07C660.36,915.65,348,984.45,369.24,989.79l5.88,31.22Z" style="fill:#d2581f"/><path d="M2000.68,1241.76l-301,108.86S554.49,1082.8,392,1048.09c-67.62-14.45-119.82-27.07-149.67-36.86C326.52,964,901.22,844.56,901.22,844.56v-5l-66.59-5.82,5.64.28,80.94,3.91,39.38,5.74L847.92,871.5l-.31.07L369.24,989.79l4,21.44Z" style="fill:url(#linear-gradient-2)"/><polygon points="1803.83 1324.52 901.22 1127.05 856.65 1117.3 848.37 1117.3 818.2 1112.11 690.03 1076.25 846.48 1106.41 1172.94 1188.81 1411.95 1209.48 1472.34 1222.86 1951.62 1311.69 1803.83 1324.52" style="fill:#91006f;opacity:0.26;mix-blend-mode:multiply"/><polygon points="481.21 1067.96 557.71 1067.96 577.5 1071.93 667.64 1076.25 686.84 1076.25 707.7 1065.84 741.19 1063.34 2048.52 1248.48 1680.25 1355.83 481.21 1067.96" style="fill:#91006f;opacity:0.26;mix-blend-mode:multiply"/><polygon points="242.31 1011.24 371.22 1043.67 385.59 1042.12 699.57 1108.55 699.57 1121.42 708.79 1109.62 1090.48 1190.88 1378.69 1231.51 1378.69 1261.44 1109.19 1229.37 297.92 1030.87 242.31 1011.24" style="fill:#5d4c90"/><polygon points="1705.16 1156.93 1711.12 1198.22 1660.33 1193.51 1642 1150.99 2060.94 978.44 1702.44 1138.18 1705.16 1156.93" style="fill:#91006f;opacity:0.2;mix-blend-mode:multiply"/><path d="M2057,1249.68l-117.28,55.11c-109.28-38.25-377.17-92.32-655.39-142.87l-98.3,23.44,68.77-27.09-61.8,7.84-41,5.7s-63.67,4.28-68.91,4.28h-48l149.17-22.81,16-6.29-37.84,3.21L1144,1137.79l-9.43-2.6C790.58,1074.85,471.63,1025.31,461,1023.66Z" style="fill:#91006f;opacity:0.43;mix-blend-mode:multiply"/><polygon points="1891.58 1160.1 2063.31 1073.62 1972.74 1135.8 1901.15 1175.78 1891.58 1219.48 1891.58 1160.1" style="fill:#5a00a5;opacity:0.2;mix-blend-mode:multiply"/><polygon points="-727.03 1067.71 -255.09 1089.04 -255.09 1098.16 -248.99 1082.94 400 1111.48 -712.69 1089.04 -727.03 1067.71" style="fill:#91006f;opacity:0.2;mix-blend-mode:multiply"/><polygon points="288 1013.07 421.17 1043.46 444.44 1048.25 472.35 1048.25 570.64 1070.59 463.63 1052.53 360.11 1023.92 288 1013.07" style="fill:#91006f;opacity:0.26;mix-blend-mode:multiply"/><path d="M2074.14,632.57l-49.27-100.18,11.67,70.9-18.19-67.52,11.35,64.68-27.21-107.38.6,34.44-6.79-17.13s-1.61,46.47-2.34,42S1978,501,1978,501l3.14,89.32-5.66-18-.25,31.11s-11.43-60.75-11.1-57.94-5.73,55.51-5.73,55.51l-14.24-62.43,1,43.34-24.21-109.72,4.48,74.23-8-36.71-3.8,50.66s-14.75-80.8-14.17-76.34-5,79-5,79-6.08-39.29-6-34.55-4.92,43-4.92,43-4.43-34-4.49-27.21-12.2,67.61-12.2,67.61l-4.45-112.32s-24.28,113.13-25.39,106-3.39-50.32-3.39-50.32l-19.14,60.65-5.75-41.3-21.39,97.33-.08-58-34,71.82Z" style="fill:#6b6d25;fill-rule:evenodd"/><path d="M1614.46,639c0-11.62,1.08-71.87,1.08-71.87l-13,60.25-3.25-27.48-13,43.33-3.25-18-5.42,29.6L1563.51,546l-13,82.44V599.88l-19.51,74,208.73-11Z" style="fill:#7d8030;fill-rule:evenodd"/><path d="M-7,682.91c1.48-10,8.35-61.84,8.35-61.84l2.17,53.2,6-23.23,4.33,38.68,4.76-15.06.33,26,24.59-91.9-.67,72.27,3.65-24.51,5.34,65.76-83.36-44Z" style="fill:#6b6d25;fill-rule:evenodd"/><path d="M2266.86,591.71c35.78-5.66-20.13,143.51-20.13,143.51l-777.66.7-12.07.61-24.38,1.23-10.75.56-60,3-112.71,5.71h0L1101,754.57h0L935.12,763,875,766l-35.85,1.81-53.8,2.72-60.67,3.07-5.48.28-5.73.3-.74,0-15.76.8-29.87,1.52-412-13.25H255L25.13,755.88l-614.31-19.76s-29.88-111.9-3-108.46C35.5,707.84,1445.66,721.67,2266.86,591.71Z" style="fill:#ede8fd"/><polygon points="216.57 763.29 -2.87 755.88 -406.45 674.92 -275.05 674.92 216.57 763.29" style="fill:#8e62bf;opacity:0.1;mix-blend-mode:multiply"/><polygon points="722.67 770.54 659.53 773.89 507.7 771.87 24.41 674.92 190.65 674.92 722.67 770.54" style="fill:#8e62bf;opacity:0.1;mix-blend-mode:multiply"/><polygon points="1023.91 754.57 865.66 762.96 426.88 674.92 528.73 674.92 1023.91 754.57" style="fill:#8e62bf;opacity:0.1;mix-blend-mode:multiply"/><polygon points="1375.28 735.92 1363.75 736.53 1340.49 737.76 1330.23 738.32 1273 741.34 1165.42 747.05 1165.39 747.05 702.38 674.92 922.07 674.92 1273.02 722.16 1297.64 725.46 1346.99 732.11 1361.67 734.08 1375.28 735.92" style="fill:#8e62bf;opacity:0.1;mix-blend-mode:multiply"/><polygon points="1870.34 734.38 1594.37 735.3 1565.3 725.84 1559.19 724.89 1443.16 706.81 1423.07 703.68 1398.11 699.79 1349.85 692.27 1278.37 681.14 1277.37 680.99 1277.12 680.94 1238.43 674.92 1408.36 674.92 1870.34 734.38" style="fill:#8e62bf;opacity:0.1;mix-blend-mode:multiply"/><polygon points="2452.11 734.84 2176.14 735.76 1902.29 706.81 1882.2 703.68 1857.24 699.79 1808.98 692.27 1737.5 681.14 1736.5 680.99 1736.26 680.94 1697.56 674.92 1867.49 674.92 2452.11 734.84" style="fill:#8e62bf;opacity:0.1;mix-blend-mode:multiply"/><rect x="-564.5" width="2765" height="1106" style="opacity:0.32;mix-blend-mode:color"/><rect x="-564.5" width="2765" height="1106" style="opacity:0;mix-blend-mode:screen"/><rect x="-564.5" width="2765" height="1106" transform="translate(1636 1106) rotate(180)" style="opacity:0.45;mix-blend-mode:screen;fill:url(#Áåçûìÿííûé_ãðàäèåíò_69)"/></g></g></g></svg>