<svg xmlns="http://www.w3.org/2000/svg" xmlns:xlink="http://www.w3.org/1999/xlink" viewBox="0 0 1920 1080"><defs><style>.cls-1{fill:none;}.cls-2{isolation:isolate;}.cls-3{clip-path:url(#clip-path);}.cls-4{fill:url(#radial-gradient);}.cls-5{fill:#222120;mix-blend-mode:screen;}.cls-6{fill:url(#linear-gradient);}.cls-7{fill:url(#linear-gradient-2);}.cls-8{fill:url(#linear-gradient-3);}.cls-9{fill:url(#linear-gradient-4);}.cls-10{fill:url(#linear-gradient-5);}.cls-11{fill:url(#linear-gradient-6);}.cls-12{fill:url(#linear-gradient-7);}.cls-13{fill:url(#linear-gradient-8);}.cls-14{fill:url(#linear-gradient-9);}.cls-15{fill:url(#linear-gradient-10);}.cls-16{fill:url(#linear-gradient-11);}.cls-17{fill:url(#linear-gradient-12);}.cls-18{fill:url(#linear-gradient-13);}.cls-19{fill:url(#linear-gradient-14);}.cls-20{fill:url(#linear-gradient-15);}.cls-21{fill:url(#linear-gradient-16);}.cls-22{fill:url(#linear-gradient-17);}.cls-23{fill:url(#linear-gradient-18);}.cls-24{fill:url(#linear-gradient-19);}.cls-25{fill:url(#linear-gradient-20);}.cls-26{fill:url(#linear-gradient-21);}.cls-27{fill:url(#linear-gradient-22);}.cls-28{fill:url(#linear-gradient-23);}.cls-29{fill:url(#linear-gradient-24);}.cls-30{fill:#69605e;}.cls-31,.cls-33,.cls-42{mix-blend-mode:multiply;}.cls-31{fill:url(#radial-gradient-2);}.cls-32{fill:url(#radial-gradient-3);}.cls-33{opacity:0.95;}.cls-34{fill:url(#linear-gradient-25);}.cls-35{fill:url(#linear-gradient-26);}.cls-36{fill:url(#linear-gradient-27);}.cls-37{fill:url(#linear-gradient-28);}.cls-38{fill:url(#linear-gradient-29);}.cls-39{fill:url(#linear-gradient-30);}.cls-40{fill:url(#linear-gradient-31);}.cls-41{fill:url(#linear-gradient-32);}.cls-42,.cls-54,.cls-57,.cls-58{opacity:0.5;}.cls-42{fill:url(#radial-gradient-4);}.cls-43{fill:#b46f3a;}.cls-44{fill:#ffc666;}.cls-45{fill:url(#linear-gradient-33);}.cls-46{fill:url(#linear-gradient-34);}.cls-47,.cls-54{fill:#0f2d13;}.cls-48{fill:#2f5b3b;}.cls-49{fill:#2e505c;}.cls-50{fill:#19471e;}.cls-51{fill:#0f262f;opacity:0.49;}.cls-52{fill:url(#linear-gradient-35);}.cls-53{fill:url(#linear-gradient-36);}.cls-55{fill:#81502b;}.cls-56{fill:#537a46;}.cls-57{fill:url(#linear-gradient-37);}.cls-58{fill:url(#linear-gradient-38);}</style><clipPath id="clip-path"><rect class="cls-1" x="-345.81" y="-6.13" width="2612.48" height="1088.53"/></clipPath><radialGradient id="radial-gradient" cx="3502.19" cy="488.43" r="853.83" gradientTransform="matrix(-1, 0, 0, 1, 3805.28, 0)" gradientUnits="userSpaceOnUse"><stop offset="0" stop-color="#7d7472"/><stop offset="0.46" stop-color="#7a716f"/><stop offset="0.76" stop-color="#716967"/><stop offset="1" stop-color="#645c5a"/></radialGradient><linearGradient id="linear-gradient" x1="3379.26" y1="-342.55" x2="3379.26" y2="1444.61" gradientTransform="matrix(-1, 0, 0, 1, 3805.28, 0)" gradientUnits="userSpaceOnUse"><stop offset="0" stop-color="#817977"/><stop offset="0.5" stop-color="#7e7674"/><stop offset="0.84" stop-color="#756d6b"/><stop offset="1" stop-color="#6e6664"/></linearGradient><linearGradient id="linear-gradient-2" x1="3058.64" y1="-342.55" x2="3058.64" y2="1444.61" xlink:href="#linear-gradient"/><linearGradient id="linear-gradient-3" x1="3201.67" y1="-342.55" x2="3201.67" y2="1444.61" xlink:href="#linear-gradient"/><linearGradient id="linear-gradient-4" x1="3385.04" y1="-342.55" x2="3385.04" y2="1444.6" xlink:href="#linear-gradient"/><linearGradient id="linear-gradient-5" x1="3135.71" y1="-342.55" x2="3135.71" y2="1444.61" xlink:href="#linear-gradient"/><linearGradient id="linear-gradient-6" x1="3344.42" y1="-342.55" x2="3344.42" y2="1444.61" xlink:href="#linear-gradient"/><linearGradient id="linear-gradient-7" x1="3375.92" y1="-342.55" x2="3375.92" y2="1444.61" xlink:href="#linear-gradient"/><linearGradient id="linear-gradient-8" x1="3314.02" y1="-342.55" x2="3314.02" y2="1444.61" xlink:href="#linear-gradient"/><linearGradient id="linear-gradient-9" x1="3522.73" y1="-342.55" x2="3522.73" y2="1444.6" xlink:href="#linear-gradient"/><linearGradient id="linear-gradient-10" x1="2638.15" y1="-342.54" x2="2638.15" y2="1444.61" xlink:href="#linear-gradient"/><linearGradient id="linear-gradient-11" x1="2567.42" y1="-342.55" x2="2567.42" y2="1444.61" xlink:href="#linear-gradient"/><linearGradient id="linear-gradient-12" x1="2120.64" y1="-342.55" x2="2120.64" y2="1444.61" xlink:href="#linear-gradient"/><linearGradient id="linear-gradient-13" x1="2190.47" y1="-342.55" x2="2190.47" y2="1444.61" xlink:href="#linear-gradient"/><linearGradient id="linear-gradient-14" x1="2414.74" y1="-342.55" x2="2414.74" y2="1444.61" xlink:href="#linear-gradient"/><linearGradient id="linear-gradient-15" x1="2367.01" y1="-342.55" x2="2367.01" y2="1444.61" xlink:href="#linear-gradient"/><linearGradient id="linear-gradient-16" x1="2323.03" y1="-342.55" x2="2323.03" y2="1444.61" xlink:href="#linear-gradient"/><linearGradient id="linear-gradient-17" x1="2274.98" y1="-342.54" x2="2274.98" y2="1444.61" xlink:href="#linear-gradient"/><linearGradient id="linear-gradient-18" x1="2407.23" y1="-342.55" x2="2407.23" y2="1444.61" xlink:href="#linear-gradient"/><linearGradient id="linear-gradient-19" x1="2455.96" y1="-342.55" x2="2455.96" y2="1444.61" xlink:href="#linear-gradient"/><linearGradient id="linear-gradient-20" x1="2326.63" y1="-342.55" x2="2326.63" y2="1444.61" xlink:href="#linear-gradient"/><linearGradient id="linear-gradient-21" x1="2732.56" y1="-342.55" x2="2732.56" y2="1444.61" xlink:href="#linear-gradient"/><linearGradient id="linear-gradient-22" x1="1868.16" y1="-342.55" x2="1868.16" y2="1444.61" xlink:href="#linear-gradient"/><linearGradient id="linear-gradient-23" x1="1833.84" y1="-342.55" x2="1833.84" y2="1444.61" xlink:href="#linear-gradient"/><linearGradient id="linear-gradient-24" x1="1888.93" y1="-342.55" x2="1888.93" y2="1444.61" xlink:href="#linear-gradient"/><radialGradient id="radial-gradient-2" cx="2205.95" cy="548.46" r="1906.01" gradientTransform="matrix(-1, 0, 0, 1, 3805.28, 0)" gradientUnits="userSpaceOnUse"><stop offset="0" stop-color="#d4d4d4"/><stop offset="0.09" stop-color="#cdcdcd"/><stop offset="0.23" stop-color="#bfbebe"/><stop offset="0.5" stop-color="#9b9796"/><stop offset="0.85" stop-color="#645c5a"/></radialGradient><radialGradient id="radial-gradient-3" cx="1769.19" cy="1043.37" r="1140.46" gradientUnits="userSpaceOnUse"><stop offset="0" stop-color="#b9978f"/><stop offset="0.3" stop-color="#b6948c"/><stop offset="0.51" stop-color="#ad8c83"/><stop offset="0.69" stop-color="#9e7d74"/><stop offset="0.85" stop-color="#89695f"/><stop offset="0.99" stop-color="#6e4e43"/><stop offset="1" stop-color="#6d4d42"/></radialGradient><linearGradient id="linear-gradient-25" x1="940.7" y1="1218.29" x2="963.77" y2="972.12" gradientTransform="translate(-2.39 4) rotate(-0.26)" gradientUnits="userSpaceOnUse"><stop offset="0" stop-color="#4d3945"/><stop offset="1" stop-color="#c8b9b4"/></linearGradient><linearGradient id="linear-gradient-26" x1="1973.07" y1="1291.16" x2="1989.94" y2="1111.25" xlink:href="#linear-gradient-25"/><linearGradient id="linear-gradient-27" x1="186.92" y1="1123.71" x2="203.78" y2="943.8" xlink:href="#linear-gradient-25"/><linearGradient id="linear-gradient-28" x1="1149.87" y1="1213.99" x2="1166.74" y2="1034.08" xlink:href="#linear-gradient-25"/><linearGradient id="linear-gradient-29" x1="735.5" y1="1132.12" x2="749.46" y2="983.3" xlink:href="#linear-gradient-25"/><linearGradient id="linear-gradient-30" x1="1176.53" y1="1158.02" x2="1190.3" y2="1011.06" xlink:href="#linear-gradient-25"/><linearGradient id="linear-gradient-31" x1="1522.17" y1="1175.87" x2="1535.51" y2="1033.54" xlink:href="#linear-gradient-25"/><linearGradient id="linear-gradient-32" x1="677.91" y1="1039.7" x2="680.26" y2="1014.61" gradientTransform="matrix(1, 0, 0, 1, 0, 0)" xlink:href="#linear-gradient-25"/><radialGradient id="radial-gradient-4" cx="1790.11" cy="1014.36" r="1092.95" xlink:href="#radial-gradient-3"/><linearGradient id="linear-gradient-33" x1="975.84" y1="1003.86" x2="975.84" y2="183.79" gradientUnits="userSpaceOnUse"><stop offset="0.41" stop-color="#ffc666"/><stop offset="1" stop-color="#b46f3a"/></linearGradient><linearGradient id="linear-gradient-34" x1="975.84" y1="1003.86" x2="975.84" y2="219.62" gradientUnits="userSpaceOnUse"><stop offset="0.53" stop-color="#ffc666"/><stop offset="1" stop-color="#c07d41"/></linearGradient><linearGradient id="linear-gradient-35" x1="915.2" y1="986.78" x2="915.2" y2="129.49" gradientUnits="userSpaceOnUse"><stop offset="0" stop-color="#ffc666"/><stop offset="0.57" stop-color="#ffda83"/><stop offset="1" stop-color="#ffe694"/></linearGradient><linearGradient id="linear-gradient-36" x1="1141.63" y1="445.52" x2="1141.63" y2="1003.86" gradientUnits="userSpaceOnUse"><stop offset="0" stop-color="#ffc666"/><stop offset="1" stop-color="#b46f3a"/></linearGradient><linearGradient id="linear-gradient-37" x1="914.71" y1="610.15" x2="1641.26" y2="610.15" gradientUnits="userSpaceOnUse"><stop offset="0" stop-color="#2f5b3b"/><stop offset="0.32" stop-color="#ffca80"/></linearGradient><linearGradient id="linear-gradient-38" x1="914.4" y1="702.32" x2="1665.8" y2="702.32" xlink:href="#linear-gradient-37"/></defs><g class="cls-2"><g id="layer_1" data-name="layer 1"><g class="cls-3"><rect class="cls-4" x="-361.05" y="-25.17" width="2641.38" height="1147.27"/><polygon class="cls-5" points="1395.76 358.57 1390.01 612.74 1286.07 619.59 1418.35 626.4 1413.32 677.96 1373.61 684.66 1418.17 690.31 1419.5 725.71 1232.79 728.39 1288.67 735.63 1284.44 915.87 1118.95 913.28 1112.22 856.09 1151.01 852.01 1071.4 845.09 1093.78 764.92 1153.44 760.78 1116.22 756.32 1118.97 714.9 1050.24 712.4 1049.36 624.73 1164.16 622.87 1081.86 618.67 1079.74 539.99 1036.84 539.99 1029.18 403.11 1193.28 396.85 1014.83 389.47 1011.48 390.06 1013.41 390.35 1013.95 318.35 1421.96 314.06 1411.33 342.3 1185.3 347.62 1395.76 358.57 1395.76 358.57"/><polygon class="cls-5" points="895.54 35.61 850.98 29.96 890.68 23.26 895.41 -25.17 526.77 -25.17 527.6 57.7 596.34 60.19 593.58 101.62 630.8 106.07 571.14 110.21 548.76 190.39 628.38 197.31 589.58 201.38 596.31 258.58 761.81 261.17 766.03 80.92 710.15 73.69 896.86 71 895.54 35.61"/><polygon class="cls-5" points="852.03 1113.24 731.63 1118.69 731.79 1122.1 999.77 1122.1 1000.58 1079.93 846.17 1070.4 1012.01 1065.77 1019.8 1041.19 720.45 1044.92 720.06 1107.04 721.1 1106.82 852.03 1113.24"/><polygon class="cls-5" points="1965.23 215.58 2175.68 203.01 2171.19 -25.17 1860.13 -25.17 1859.67 -5.19 1816.77 -5.19 1809.11 151.9 1973.21 159.08 1794.75 167.55 1793.34 167.27 1793.87 249.17 2201.88 254.1 2191.26 221.69 1965.23 215.58"/><polygon class="cls-5" points="1668.81 985.19 1674.56 693.49 1778.5 685.63 1646.21 677.81 1651.25 618.64 1690.95 610.95 1646.39 604.47 1645.07 563.84 1831.78 560.76 1775.9 552.46 1780.12 345.6 1945.62 348.57 1952.35 414.21 1913.55 418.89 1993.16 426.83 1970.79 518.84 1911.13 523.6 1948.35 528.71 1945.59 576.25 2014.33 579.11 2015.21 679.73 1900.41 681.86 1982.71 686.69 1984.82 776.99 2027.72 776.99 2035.39 934.08 1871.28 941.26 2049.74 949.73 2053.09 949.05 2051.16 948.72 2050.62 1031.35 1642.61 1036.28 1653.23 1003.86 1879.26 997.76 1668.81 985.19 1668.81 985.19"/><polygon class="cls-6" points="356.84 463.4 495.19 463.4 492.92 517.77 359.11 517.77 356.84 463.4"/><polygon class="cls-7" points="687.61 177.84 805.67 177.84 803.73 234.14 689.55 234.14 687.61 177.84"/><polygon class="cls-8" points="654.97 135.47 552.24 135.47 550.49 84.81 656.71 84.81 654.97 135.47"/><polygon class="cls-9" points="471.6 241.37 368.87 241.37 367.13 190.71 473.35 190.71 471.6 241.37"/><polygon class="cls-10" points="596.85 -25.17 597.13 -16.89 636.15 -16.89 637.5 22.25 740.65 22.25 742.28 -25.17 596.85 -25.17"/><polygon class="cls-11" points="389.43 993.15 532.28 993.15 529.94 1049.29 391.78 1049.29 389.43 993.15"/><polygon class="cls-12" points="489.82 898.15 368.89 898.15 366.84 849.01 491.87 849.01 489.82 898.15"/><polygon class="cls-13" points="422.41 824.41 420.08 768.47 562.43 768.47 560.09 824.41 422.41 824.41"/><polygon class="cls-14" points="277.83 521.6 151.4 521.6 149.18 468.52 284.24 468.52 282.4 512.6 415.91 512.6 413.63 567.01 279.73 567.01 277.83 521.6"/><polygon class="cls-15" points="1232.18 1110.44 1102.07 1110.44 1099.86 1057.57 1234.39 1057.57 1232.18 1110.44"/><polygon class="cls-16" points="1169.99 1004.23 1305.72 1004.23 1303.49 1057.57 1172.22 1057.57 1169.99 1004.23"/><polygon class="cls-17" points="1614.8 396.43 1754.47 396.43 1752.17 451.32 1617.1 451.32 1614.8 396.43"/><polygon class="cls-18" points="1565.91 442.09 1663.69 442.09 1662.09 496.98 1567.52 496.98 1565.91 442.09"/><polygon class="cls-19" points="1321.64 187.58 1459.43 187.58 1457.17 241.73 1323.91 241.73 1321.64 187.58"/><polygon class="cls-20" points="1502.6 192.87 1373.92 192.87 1371.74 140.58 1504.79 140.58 1502.6 192.87"/><polygon class="cls-21" points="1419.43 -25.17 1421.29 19.15 1543.22 19.15 1545.07 -25.17 1419.43 -25.17"/><polygon class="cls-22" points="1580.07 1060.86 1480.53 1060.86 1478.84 1006.83 1581.76 1006.83 1580.07 1060.86"/><polygon class="cls-23" points="1449.52 899.37 1346.58 899.37 1344.83 843.49 1451.27 843.49 1449.52 899.37"/><polygon class="cls-24" points="1402.87 850.9 1295.76 850.9 1293.94 800.33 1404.69 800.33 1402.87 850.9"/><polygon class="cls-25" points="1526.87 802.62 1430.43 802.62 1428.79 750.26 1528.51 750.26 1526.87 802.62"/><polygon class="cls-26" points="1137.13 563.45 1008.3 563.45 1006.11 511.09 1139.32 511.09 1137.13 563.45"/><polygon class="cls-27" points="1870.24 70.14 2003.99 70.14 2001.79 122.71 1872.44 122.71 1870.24 70.14"/><polygon class="cls-28" points="2037.11 288.71 1905.76 288.71 1903.53 235.34 2039.34 235.34 2037.11 288.71"/><polygon class="cls-29" points="1978.94 945.82 1853.75 945.82 1851.63 894.95 1981.07 894.95 1978.94 945.82"/><path class="cls-30" d="M424.47,418.94a7.14,7.14,0,0,1,1.41-2.12c.17-.27.32-.54.52-.81a8.48,8.48,0,0,1,4.75-3.27h.07a13.65,13.65,0,0,1,2.15-.2l.08-.1.12,0a8.8,8.8,0,0,1,7.89,4.53l.42,1c.39.85.75,1.72,1.1,2.59a7.09,7.09,0,0,1,.17,3.79,10.82,10.82,0,0,1-3.12,6.18c-2.62,2.8-7,3.07-10.24,1.32a10.64,10.64,0,0,1-4.19-4,10.32,10.32,0,0,1-1-2.85A7.33,7.33,0,0,1,424.47,418.94Z"/><path class="cls-30" d="M448.74,438.13a2.45,2.45,0,0,1,.64-1.1l.63-.8.73-.57.87-.36a3.43,3.43,0,0,1,2.36.18,3.51,3.51,0,0,1,1.45,1.11,3.43,3.43,0,0,1,.77,2.2,3.79,3.79,0,0,1-1.79,3.13,3.64,3.64,0,0,1-2.31.43,3.36,3.36,0,0,1-2.08-1l-.63-.8a2.63,2.63,0,0,1-.73-1.76Z"/><path class="cls-30" d="M411,449.61a3.87,3.87,0,0,1,6,.78,11.5,11.5,0,0,1,1.26,2.47,3.3,3.3,0,0,1-4,4,11.51,11.51,0,0,1-2.47-1.26A3.86,3.86,0,0,1,411,449.61Z"/><path class="cls-30" d="M1296.64,299.12a14.4,14.4,0,0,1,11-1.48l1.6.68c.29.11.58.23.86.36l.67.28c.09.05.16.13.25.18a14.75,14.75,0,0,1,1.72,1.1c0-8.55-.06-17.05-.4-25.45-.11-2.62,3.83-2.56,4,0,3.25,40.09,9.95,84.08,3.36,124-.31,1.92-3.59,1.94-3.89,0-3.77-24.36-3.65-49.68-3.34-74.92a14.61,14.61,0,0,1-22.63-8A15,15,0,0,1,1296.64,299.12Z"/><path class="cls-30" d="M1326.39,317.53a9.29,9.29,0,0,1,2.39-4.11l1.89-1.46a9.3,9.3,0,0,1,4.71-1.27,10.39,10.39,0,0,1,6.6,2.73,6.86,6.86,0,0,1,1.92,3,7,7,0,0,1,.81,3.59c-.11.83-.22,1.66-.34,2.48a9.32,9.32,0,0,1-2.39,4.12l-1.89,1.46a9.3,9.3,0,0,1-4.71,1.27,9,9,0,0,1-8.52-5.73,7,7,0,0,1-.81-3.6C1326.16,319.19,1326.27,318.36,1326.39,317.53Z"/><path class="cls-30" d="M1337.38,365.75a4.7,4.7,0,0,1,2.76-2.76,4.05,4.05,0,0,1,2-.45,5.29,5.29,0,0,1,3.69,1.53l.82,1.06a5.16,5.16,0,0,1,.71,2.63c-.06.52-.11,1-.16,1.56a3.88,3.88,0,0,1-.44,1.95,5.17,5.17,0,0,1-4.62,3.1,5.13,5.13,0,0,1-3.57-1.48l-.79-1a5,5,0,0,1-.69-2.55c0-.52-.11-1-.16-1.56A3.86,3.86,0,0,1,1337.38,365.75Z"/><path class="cls-30" d="M1367.72,311.77l1.23-2.91c.63-.83,1.27-1.65,1.9-2.47l2.47-1.91,2.92-1.23a9.27,9.27,0,0,1,4.87-.22,6.06,6.06,0,0,1,3.08.83,9.29,9.29,0,0,1,3.93,2.53l.14.12a9.1,9.1,0,0,1,2.49,3.87,9,9,0,0,1,.7,1.91c0-.12,0-.23,0-.34l.54-4a14.9,14.9,0,0,1,3.85-6.61l3-2.34a14.93,14.93,0,0,1,7.55-2,14.46,14.46,0,0,1,13.68,9.2,11.23,11.23,0,0,1,1.29,5.77l-.54,4a14.93,14.93,0,0,1-3.85,6.6l-3,2.34a14.9,14.9,0,0,1-7.56,2.05,11.45,11.45,0,0,1-5.77-1.29,11.26,11.26,0,0,1-4.81-3.1,11.14,11.14,0,0,1-3.1-4.82,10.92,10.92,0,0,1-1-2.57l-.42,3.08a12,12,0,0,1-3.09,5.31l-.14.12-2.48,1.91-2.91,1.23a9.17,9.17,0,0,1-4.87.21,12.08,12.08,0,0,1-9.53-7.28,9.25,9.25,0,0,1-1-4.7C1367.42,313.94,1367.57,312.85,1367.72,311.77Z"/><path class="cls-30" d="M1261.12,335.24a4.15,4.15,0,0,1,1.11-1.73,4,4,0,0,1,1.74-1.11,4.09,4.09,0,0,1,2.07-.47,5.47,5.47,0,0,1,3.81,1.58l.84,1.09a5.38,5.38,0,0,1,.73,2.72c-.05.52-.11,1-.16,1.56a4.07,4.07,0,0,1-.45,2,4,4,0,0,1-1.08,1.68,3.94,3.94,0,0,1-1.68,1.07,3.86,3.86,0,0,1-2,.45,5.28,5.28,0,0,1-3.69-1.52l-.81-1.06a5.17,5.17,0,0,1-.72-2.63c0-.52-.11-1-.16-1.56A4.1,4.1,0,0,1,1261.12,335.24Z"/><path class="cls-30" d="M1255,391.47a6.14,6.14,0,0,1,1.6-2.74,6.44,6.44,0,0,1,4.4-1.83,4.69,4.69,0,0,1,2.39.54,5.57,5.57,0,0,1,3.29,3.29,4.71,4.71,0,0,1,.54,2.4c-.07.55-.15,1.1-.22,1.65a6.33,6.33,0,0,1-1.6,2.75,6.52,6.52,0,0,1-4.4,1.82,6.42,6.42,0,0,1-6.23-6.22C1254.82,392.57,1254.89,392,1255,391.47Z"/><path class="cls-30" d="M1544.67,401c.34-2.13,3.8-2,4.21,0,3.94,19.46,2.2,39.78-2.66,58.85-.8,3.11-5.69,2.48-5.62-.76C1541,439.82,1541.59,420.07,1544.67,401Z"/><path class="cls-30" d="M1857.82,397.37c5.5,22.36,8.5,45.13,13,67.72.79,4-5.14,5.72-6.17,1.7-5.76-22.76-11.17-45.18-12.42-68.66C1852,394.9,1857.06,394.25,1857.82,397.37Z"/><path class="cls-30" d="M1810.33,470.07l.92-2.16a9.09,9.09,0,0,1,3.24-3.25l2.17-.91.06,0a7.21,7.21,0,0,1,4.36-.11l.39.13a6.79,6.79,0,0,1,3.08,1.62,9.36,9.36,0,0,1,3.25,9.52,8.76,8.76,0,0,1-7.53,6.49,6.92,6.92,0,0,1-3.61-.17l-2.17-.91a9,9,0,0,1-3.24-3.25l-.92-2.16A9.17,9.17,0,0,1,1810.33,470.07Z"/><path class="cls-30" d="M1832.17,494.17a5.62,5.62,0,0,1,3.81-1.57,5.55,5.55,0,0,1,3.8,1.57,3.94,3.94,0,0,1,1.11,1.74,4,4,0,0,1,.47,2.07,5.43,5.43,0,0,1-1.58,3.81,5.4,5.4,0,0,1-7.61,0,6.11,6.11,0,0,1-1.58-3.81A5.49,5.49,0,0,1,1832.17,494.17Z"/><path class="cls-30" d="M1866.15,478.21a7.3,7.3,0,0,1,7.3,0l1,.55a6.65,6.65,0,0,1,0,11.38l-1,.56a7.23,7.23,0,0,1-10.88-6.25A7.27,7.27,0,0,1,1866.15,478.21Z"/><path class="cls-30" d="M1428.31,948.56a8.05,8.05,0,0,1,3.63-4.73A8,8,0,0,1,1438,943a7.77,7.77,0,0,1,4.72,3.63l.6,1.21a8.5,8.5,0,0,1,.8,6.09,8.11,8.11,0,0,1-3.64,4.73,8,8,0,0,1-6.09.79,7.77,7.77,0,0,1-4.72-3.63l-.6-1.21A8.44,8.44,0,0,1,1428.31,948.56Z"/><path class="cls-30" d="M1424.66,998.58a25,25,0,0,1-.36,3.86c-.25,1.14-.59,2.26-.88,3.39a1.87,1.87,0,0,1-3.57,0c-.3-1.12-.65-2.25-.89-3.39a26.39,26.39,0,0,1-.36-3.86C1418.37,994.68,1424.89,994.67,1424.66,998.58Z"/><path class="cls-30" d="M1148.53,728.71c17.44-7.27,40.6-5,59.27-5,6.88,0,13.77.09,20.65.22.14-5.77.79-11.54,1.31-17.29.68-7.66.29-16,3.22-23.18.64-1.55,3.09-2,3.57,0,2,8,.22,16.88-.27,25.07-.31,5.19-.58,10.39-1.2,15.54q18.87.45,37.72,1.41c3.23.17,3.27,5,0,5q-19.52.33-39,1.22c-.14.65-.23,1.32-.4,2-.71,2.73-4.37,1.88-4.63-.63,0-.37,0-.74-.08-1.12-7,.35-13.92.73-20.87,1.2-18.77,1.26-40.9,6.2-59.27,1.69C1145.16,734.05,1145.87,729.82,1148.53,728.71Z"/><path class="cls-30" d="M1300,917.4v1.69a.17.17,0,0,1-.33,0V917.4A.17.17,0,0,1,1300,917.4Z"/><path class="cls-30" d="M1296.42,868.33c.14-2.16,3.44-2.87,4-.53,3.11,13.68,1.79,28.87,1.78,42.81,0,.37-.6.48-.66.09C1299.3,897.06,1295.54,882.2,1296.42,868.33Z"/><path class="cls-30" d="M1178.06,898c39.45-3.28,81,2.61,120.15,7.14a1.18,1.18,0,0,1,0,2.36c-39.72,1.43-81.73,3.9-121.09-2.56C1172.94,904.26,1174.36,898.31,1178.06,898Z"/><path class="cls-30" d="M517.43,471.33c24-4.6,49.57-2.68,73.9-3,9.45-.14,18.89-.08,28.33,0,2.9-22.8,9.37-45.13,14.81-67.42.61-2.51,5-2.05,4.63.63-2.93,22.27-4.87,45.05-10.18,66.92,14,.26,27.89.69,41.85,1.11a.84.84,0,0,1,0,1.68c-25.37,2.35-50.67,4.89-76.13,6.13-11.24.54-22.77,1.59-34.32,2.32.43,4.12,1,8.28,1.26,12.42s-.67,7.71-1.56,11.64c-.58,2.56-4.61,2.57-5.19,0-.89-3.94-1.81-7.58-1.56-11.64s.8-8.07,1.22-12.09c-12.13.61-24.24.7-36-.78C514.44,478.74,512.52,472.27,517.43,471.33Z"/><path class="cls-30" d="M347.72,126.77c48.5-3.38,97.39-2.44,146-.32,4.88-22.41,12.63-44.09,16.54-66.84.22-1.3,2.39-1,2.31.31-1.42,22.4-4.25,46.24-14.06,66.74q15.07.69,30.13,1.46a1.18,1.18,0,0,1,0,2.36q-16.47.86-33,1.58a1.54,1.54,0,0,1-2.11.09c-48.59,2.12-97.41,3-145.85-.33A2.53,2.53,0,0,1,347.72,126.77Z"/><path class="cls-30" d="M500.83,168.39c12.37-1.85,25.06-.14,37.56-.24,14.3-.11,28.54-1,42.75-2.52a2.3,2.3,0,0,1,2.23,1.15c.78-4.41,1.67-8.81,2.44-13.2.83-4.7,8.4-3.56,8.26,1.12-.19,6.92,0,14-.62,20.91s-2.51,12.28-4.78,18.69c-.82,2.34-5.09,3.06-5.51,0-.94-6.85-1.85-12.46-1-19.45.15-1.3.35-2.6.55-3.9a2.41,2.41,0,0,1-.79.3c-11.25,1.64-23.74,3.71-36.34,4.91.91,5.66.45,11.6.26,17.27-.21,6.42,1.1,14.1-2.43,19.68a1.87,1.87,0,0,1-3.19,0c-3.71-5.46-2.65-13.27-3.08-19.68-.37-5.46-1-11.11-.38-16.58-12.5.72-24.84.28-35.91-2.62C498.13,173.52,497.76,168.85,500.83,168.39Z"/><path class="cls-30" d="M621,1080.89a14.77,14.77,0,0,1,3.81-6.53l3-2.31a14.74,14.74,0,0,1,7.47-2,15.2,15.2,0,0,1,14.8,14.8c-.17,1.31-.35,2.62-.53,3.93a14.73,14.73,0,0,1-3.8,6.53l-3,2.32a14.74,14.74,0,0,1-7.47,2,11.06,11.06,0,0,1-5.7-1.28,13.32,13.32,0,0,1-7.82-7.82,11.06,11.06,0,0,1-1.28-5.7C620.6,1083.52,620.77,1082.21,621,1080.89Z"/><path class="cls-30" d="M496.56,721c47.26-6.15,96.09-4.85,143.68-6.16,2.4-.07,2.36,3.54,0,3.69-47.51,3.1-96,9-143.68,7.18C493.45,725.59,493.63,721.38,496.56,721Z"/><path class="cls-30" d="M1374.28,43.91c9.65-.89,19.57-1.62,29.61-2.16-2.58-12.42.45-27.08,2-39.29a2.19,2.19,0,0,1,4.37,0c1.56,12.1,4.54,26.59,2.1,38.91,26.06-1.06,52.69-.6,77.52,2.79,2.24.31,2.24,4.23,0,4.54-37.13,5.07-78.4,3.65-115.63.25A2.52,2.52,0,0,1,1374.28,43.91Z"/><path class="cls-30" d="M1266,490.05c29.58-3.41,59.92-1.26,89.63-.9,29.93.36,59.74,1.86,89.64,3.08a.68.68,0,0,1,0,1.35c-29.9,1.23-59.71,2.72-89.64,3.08-29.71.36-60.06,2.51-89.63-.89A2.86,2.86,0,0,1,1266,490.05Z"/><path class="cls-30" d="M1315.09,503.05a1.69,1.69,0,0,1,3.37,0c.84,7.55,3.19,17.06,1.24,24.49a3.05,3.05,0,0,1-5.84,0C1311.9,520.1,1314.26,510.58,1315.09,503.05Z"/><path class="cls-30" d="M1208.54,537.4c16.33-.79,32.6-1.06,48.86-1-.64-8.81-.21-17.73-.14-26.56a2,2,0,0,1,4,0c.07,8.84.5,17.77-.14,26.59,24.15.13,48.28.93,72.54,1.83a2,2,0,0,1,0,4c-41.84,1.55-83.31,2.86-125.15.84A2.86,2.86,0,0,1,1208.54,537.4Z"/><path class="cls-30" d="M587.77,675.06c.3-1.76,3.28-1.76,3.57,0,2.08,12.55,3.14,25.83,1,38.46-.47,2.73-5.05,2.73-5.52,0C584.64,700.89,585.7,687.61,587.77,675.06Z"/><path class="cls-30" d="M1302.58,808.42c41.18-5.53,84.41-1.59,125.82-.26a2.69,2.69,0,0,1,0,5.38c-41.42,1.34-84.64,5.28-125.82-.25C1300.17,813,1300.17,808.74,1302.58,808.42Z"/><path class="cls-30" d="M1387.81,984.72c31.67-2,63-.62,94.7.5a1.52,1.52,0,0,1,0,3c-31.68,1.13-63,2.46-94.7.51A2,2,0,0,1,1387.81,984.72Z"/><rect class="cls-31" x="-361.05" y="-25.17" width="2641.38" height="1147.27"/><polygon class="cls-32" points="-361.05 1002.72 -361.05 1091.4 -3.97 1090.21 3.24 1090.19 13.97 1090.17 17.17 1090.15 29.73 1090.1 34.7 1090.1 289.5 1089.26 718.36 1087.84 722.32 1087.82 723.26 1087.82 727.11 1087.8 1177.59 1086.32 1182.93 1086.29 1190.11 1086.27 1195.68 1086.25 1530.69 1085.14 1535.02 1085.12 1543.27 1085.1 1547.69 1085.08 2023.71 1083.51 2023.75 1083.51 2030.28 1083.46 2046.96 1083.42 2082.82 1083.29 2083.58 1083.29 2280.33 1082.65 2280.33 1002.72 -361.05 1002.72"/><g class="cls-33"><path class="cls-34" d="M-354.67,1031.76l-6.38-.17v2.66l6.39.17c251.14-1,2151.09,11.56,2635,14.81v-2.66C1796.31,1043.33-103.73,1030.75-354.67,1031.76Z"/><polygon class="cls-35" points="2280.33 1081.03 2052.82 1082.99 1982.65 1047.26 1982.63 1047.26 1982.61 1047.24 1977.38 1044.56 1940.43 1044.33 1929.18 1044.26 1915.88 1044.16 1907.58 1044.1 1883.16 1043.95 1859.58 1043.79 1823.53 1043.56 1799.06 1043.39 1791.96 1043.35 1722.23 1002.71 1716.02 1002.71 1785.69 1043.32 1785.73 1043.32 1790.33 1045.99 1894.8 1046.67 1913.79 1046.82 1975.9 1047.21 2046.96 1083.41 2051.38 1085.67 2280.33 1083.74 2280.33 1081.03"/><path class="cls-36" d="M313.49,1029.07l-175.34,4.33h-.45l-6.43,2.63h0L-4,1090.21l-19.52,7.84a4.74,4.74,0,0,0-3.86,4.54,4.47,4.47,0,0,0,1.92,3.62,5.57,5.57,0,0,0,4.7.84l37.9-16.91,121.29-54.06,169.72,2.34,5.64-1.43,8.05-2.6,97.91-31.68H404.3Z"/><polygon class="cls-37" points="1262.87 1002.71 1258.73 1002.71 1263.72 1039.97 1149.05 1039.24 1074.27 1038.77 1075.73 1002.71 1071.57 1002.71 1070.11 1038.75 1070 1041.4 1094.08 1041.56 1140.67 1041.84 1147.63 1041.89 1148.46 1041.89 1179.46 1042.08 1192.22 1042.17 1240.27 1042.48 1254.79 1042.57 1268.24 1042.64 1267.9 1040.02 1262.87 1002.71"/><path class="cls-38" d="M721,1090.3l-3.72-1.18c2.14-2.75,48.74-49.58,50.73-51.57l3.49,1.42C754.7,1055.8,722.58,1088.19,721,1090.3Z"/><polygon class="cls-39" points="1183.07 1087.9 1179.37 1040.85 1192.12 1040.76 1195.82 1087.82 1183.07 1087.9"/><polygon class="cls-40" points="1546.23 1090.22 1519.06 1043.39 1522.95 1042.45 1550.12 1089.29 1546.23 1090.22"/><polygon class="cls-41" points="706.15 1002.71 662.69 1036.31 660.56 1037.98 653.59 1036.26 653.46 1036.24 701.12 1002.71 706.15 1002.71"/></g><polygon class="cls-42" points="-361.05 1002.72 -361.05 1012.99 2280.33 1028.05 2280.33 1002.72 -361.05 1002.72"/></g><path class="cls-43" d="M993.92,120C883,120,800.17,295.6,800.17,445.52v558.34h387.51V445.52C1187.68,295.6,1117.42,120,993.92,120Z"/><path class="cls-44" d="M1169.6,1003.86H782.08V445.52C782.08,295.6,864.88,120,975.84,120c123.5,0,193.76,175.59,193.76,325.51Z"/><path class="cls-45" d="M1141.64,1003.86H810V485.8c0-139.09,70.85-302,165.8-302,105.67,0,165.8,162.92,165.8,302Z"/><path class="cls-44" d="M1127,995.53H824.69v-483c0-129.69,65.92-301.22,152.48-301.22,96.34,0,149.82,171.53,149.82,301.22Z"/><path class="cls-46" d="M1119.21,1003.86H832.47v-483c0-129.69,62.52-301.22,144.63-301.22,91.38,0,142.11,171.53,142.11,301.22Z"/><path class="cls-44" d="M1119.21,1003.86H832.47V661.59c0-161.43,51.6-316.21,143.37-430.05,91.77,113.84,143.37,268.62,143.37,430.05Z"/><path class="cls-47" d="M1111.52,1003.86H837.6V664c0-160.32,49.29-314,137-427.06,87.67,113,137,266.74,137,427.06Z"/><path class="cls-48" d="M978.23,253.55v750.31h39.71V312.44A574.2,574.2,0,0,0,978.23,253.55Z"/><path class="cls-48" d="M975.84,250.37a571.52,571.52,0,0,0-38.23,55.44v698.05H976V250.55Z"/><path class="cls-48" d="M840.16,669.94v333.92h52.63V395.22C858.55,479.21,840.16,573.34,840.16,669.94Z"/><path class="cls-48" d="M895.05,389.68v614.18h40.3V309.62A632.77,632.77,0,0,0,895.05,389.68Z"/><path class="cls-48" d="M1021.32,318.08c-.37-.63-.75-1.23-1.12-1.86v687.64h40.39V399.46A639.59,639.59,0,0,0,1021.32,318.08Z"/><path class="cls-49" d="M1060.59,399.46v604.4h2.26V405.35C1062.09,403.39,1061.37,401.41,1060.59,399.46Z"/><path class="cls-50" d="M1060.59,399.46v604.4h2.26V405.35C1062.09,403.39,1061.37,401.41,1060.59,399.46Z"/><path class="cls-50" d="M892.79,395.22v608.64h2.26V389.68C894.29,391.52,893.55,393.38,892.79,395.22Z"/><path class="cls-51" d="M892.79,395.22v608.64h2.26V389.68C894.29,391.52,893.55,393.38,892.79,395.22Z"/><path class="cls-49" d="M1017.94,312.44v691.42h2.26V316.22C1019.46,315,1018.69,313.71,1017.94,312.44Z"/><path class="cls-50" d="M1017.94,312.44v691.42h2.26V316.22C1019.46,315,1018.69,313.71,1017.94,312.44Z"/><path class="cls-49" d="M935.35,309.62v694.24h2.26v-698C936.85,307.07,936.11,308.35,935.35,309.62Z"/><path class="cls-50" d="M935.35,309.62v694.24h2.26v-698C936.85,307.07,936.11,308.35,935.35,309.62Z"/><path class="cls-49" d="M976,250.55v753.31h2.26V253.55C977.47,252.56,976.74,251.53,976,250.55Z"/><path class="cls-50" d="M976,250.55v753.31h2.26V253.55C977.47,252.56,976.74,251.53,976,250.55Z"/><path class="cls-52" d="M800.65,958.59V422.14c0-90.61,66.63-249.77,169.15-264.16,0,0,18.79-36.61,74.32-4.14,0,0-76.28-51.19-131.56-5.13S816,258.91,797.23,358.87s-7.69,627.91-7.69,627.91Z"/><path class="cls-53" d="M1169.6,445.52l2.14,558.34h-60.22V775.77l7.69-9.88s6.92-4.65,7.78-20.88c0,0,16.48-15.38,14.65-41.86Z"/><path class="cls-54" d="M960.49,505s10.52,8.53,9.43,21,20.93,12,22.54-1.63.29-17.72.29-17.72,10.17,1.09,8.89,8.85,6.05,36.86-20.52,39.14S961,528.27,961,528.27l-2.4-9.82.94-5.91Z"/><path class="cls-55" d="M996.67,515.33a3.17,3.17,0,0,1-1.94-1.61,5.55,5.55,0,0,1-.5-1.44,5.45,5.45,0,0,1-.12-.81c0-.25,0-.6,0-.75l-3.57-.19a9.07,9.07,0,0,0,0,1.31c0,.41.11.81.19,1.22a10.4,10.4,0,0,0,.33,1.18,4.72,4.72,0,0,1,3.16,2.09,7.68,7.68,0,0,1,.72,1.28,4.75,4.75,0,0,1,.37,1.13c.24,1.74-3.82,2.18-3,10.18,1,9.2-3.93,21.85-31.14,12.71a19.65,19.65,0,0,0,4.78,3.23,25.8,25.8,0,0,0,5.18,1.84,24.31,24.31,0,0,0,2.73.48c.46.06.93.09,1.41.12l.73,0h1.23l.72,0c.48,0,.95-.07,1.42-.12a23.75,23.75,0,0,0,2.72-.49,24.7,24.7,0,0,0,5.17-1.84,19.65,19.65,0,0,0,4.78-3.23,11.87,11.87,0,0,0,3.52-5.64,9.57,9.57,0,0,0,.22-3.69,10.87,10.87,0,0,0-.39-1.73c-.09-.27-.2-.54-.3-.8l-.2-.51a7.22,7.22,0,0,1-.69-3.45,9.65,9.65,0,0,1,.92-3.74,13.22,13.22,0,0,1,1-1.85,10.38,10.38,0,0,1,.59-.88c.2-.28.45-.59.61-.8l1-1.35a1,1,0,0,0-.59-1.63Z"/><path class="cls-44" d="M986.81,539.57c6.91-3,5.06-7.63,2-11.25a13.34,13.34,0,0,0,.57,3l.1.38c.08.27.16.63.16.63a3.18,3.18,0,0,1,.07.67,3,3,0,0,1-.21,1.16,5.8,5.8,0,0,1-1.82,2.3,14.06,14.06,0,0,1-3.26,1.94,21.5,21.5,0,0,1-3.84,1.24,19.68,19.68,0,0,1-2,.32l-1,.07h-1l-1,0c-.32,0-.64,0-1-.07a17,17,0,0,1-2-.32,20.26,20.26,0,0,1-3.84-1.24,14.2,14.2,0,0,1-3.26-1.94A19.84,19.84,0,0,0,986.81,539.57Z"/><path class="cls-43" d="M995.31,518.74a4.75,4.75,0,0,0-.37-1.13,7.68,7.68,0,0,0-.72-1.28,4.72,4.72,0,0,0-3.16-2.09,7.84,7.84,0,0,0,.53,1.24,6.9,6.9,0,0,0,1.49,1.93,17.68,17.68,0,0,0-1.86,2.27,14.09,14.09,0,0,0-2.24,5.43,12.73,12.73,0,0,0-.16,3.21c3,3.62,4.9,8.3-2,11.25a20.87,20.87,0,0,1-8.61,1.75s-17.5-.18-15.8-9.25S960,517.61,960,517.61l0-.46c-.21-2-1-2.74-1.74-2.91a2.94,2.94,0,0,1-1.6,1.09l-.48.09a3.52,3.52,0,0,0,1.69,2.19l.4-1.93-.66,3.2a9.27,9.27,0,0,0,1.1-.43c1.9,2.58,2.33,8.57-.81,12.1a11.92,11.92,0,0,0-.39,1.74,9.77,9.77,0,0,0,.22,3.69,12,12,0,0,0,3.53,5.65c27.21,9.14,33.33-2.48,32.37-11.68C992.71,522,995.55,520.48,995.31,518.74Z"/><path class="cls-55" d="M965.58,536.42a5.76,5.76,0,0,1-1.81-2.3,3.17,3.17,0,0,1-.21-1.15,5.3,5.3,0,0,1,.07-.66l.09-.36c.07-.27.18-.65.18-.65.12-.51.29-1,.37-1.51l.2-1.56c0-.53,0-1.05,0-1.57s-.11-1-.18-1.55a14.15,14.15,0,0,0-2.25-5.44,18.46,18.46,0,0,0-1.66-2.06c.41-.77.93-1.43,1.29-2.13a9.45,9.45,0,0,0,.85-2.42,10.29,10.29,0,0,0,.19-1.22,10.63,10.63,0,0,0,0-1.31l-3.58.19a5.17,5.17,0,0,1,0,.75,7.19,7.19,0,0,1-.13.81,5.55,5.55,0,0,1-.5,1.44,2.75,2.75,0,0,1-.34.52c.77.17,1.53.88,1.74,2.91l0,.46s4.14,5.39,2.44,14.46,15.77,9.25,15.8,9.25A19.83,19.83,0,0,1,965.58,536.42Z"/><path class="cls-44" d="M958.13,529.75l-.3.8c3.14-3.53,2.71-9.52.81-12.1a3.72,3.72,0,0,0-.84-.84,3.52,3.52,0,0,1-1.69-2.19l-.59.12a1,1,0,0,0-.6,1.62l1,1.37c.15.21.4.52.6.8a9.15,9.15,0,0,1,.59.89,13.12,13.12,0,0,1,1,1.84,9.65,9.65,0,0,1,.9,3.74,7.17,7.17,0,0,1-.68,3.44Z"/><path class="cls-55" d="M963.18,506a4.47,4.47,0,0,1,.61,2.24,4.28,4.28,0,0,1-4.21,4.34,4.11,4.11,0,0,1-2.7-1,4.2,4.2,0,0,0,3.61,2.11,4.28,4.28,0,0,0,4.21-4.34A4.39,4.39,0,0,0,963.18,506Z"/><path class="cls-43" d="M963.79,508.2a4.47,4.47,0,0,0-.61-2.24,4.1,4.1,0,0,0-2.69-1,4.27,4.27,0,0,0-4.21,4.34,4.4,4.4,0,0,0,.6,2.23,4.11,4.11,0,0,0,2.7,1A4.28,4.28,0,0,0,963.79,508.2Z"/><path class="cls-55" d="M995.47,506a4.42,4.42,0,0,1,.62,2.25,4.28,4.28,0,0,1-4.22,4.34,4.12,4.12,0,0,1-2.68-1,4.19,4.19,0,0,0,3.6,2.1A4.28,4.28,0,0,0,997,509.3,4.37,4.37,0,0,0,995.47,506Z"/><path class="cls-43" d="M996.09,508.2a4.42,4.42,0,0,0-.62-2.25,4.1,4.1,0,0,0-2.68-1,4.27,4.27,0,0,0-4.21,4.34,4.37,4.37,0,0,0,.61,2.24,4.12,4.12,0,0,0,2.68,1A4.28,4.28,0,0,0,996.09,508.2Z"/><path class="cls-44" d="M960.23,506.31c.36.53,0,1.44-.86,2.05s-1.81.68-2.17.15,0-1.44.86-2.05S959.87,505.78,960.23,506.31Z"/><path class="cls-44" d="M992.75,506.57c.37.53,0,1.45-.86,2.05s-1.8.68-2.16.15,0-1.44.86-2S992.39,506.05,992.75,506.57Z"/><path class="cls-48" d="M1062.85,1003.86h48.67V669.94c0-19.76-.82-39.41-2.34-58.9l-46.33,50.22Z"/><polygon class="cls-56" points="838.88 659.47 973.69 787.4 1111.52 654.4 973.69 774.26 838.88 659.47"/><polygon class="cls-47" points="973.69 792.24 838.88 659.47 973.69 779.11 1111.52 654.4 973.69 792.24"/><polygon class="cls-56" points="838.88 706.73 973.69 834.65 1111.52 701.66 973.69 821.51 838.88 706.73"/><polygon class="cls-47" points="973.69 839.5 838.88 706.73 973.69 826.36 1111.52 701.66 973.69 839.5"/><path class="cls-54" d="M1075.37,243.55s-40.06-61.51-99.53-59.76c-58.47,1.71-93.91,58.51-93.91,58.51s16,6.1,17.5,17.93l6.09,5.36s23.33,1.06,30.56,21.75l8.6,7.12C877.4,399.82,840.16,532.4,840.16,669.94v333.92h83.51V669c0-198.93,97.53-350.72,97.65-350.9l6.84-9.83s-5.15-30.86,27.41-37.87l4.71-7.8S1057.49,242.5,1075.37,243.55Z"/><path class="cls-48" d="M1103.05,557.45l-40.2,46.43v33.78l44.66-45Q1105.7,574.91,1103.05,557.45Z"/><path class="cls-48" d="M1062.85,405.35v78.49l17.35-28.08Q1072.43,430.07,1062.85,405.35Z"/><path class="cls-48" d="M1080.2,455.76l-17.35,28.08v120l40.2-46.43A725.57,725.57,0,0,0,1080.2,455.76Z"/><path class="cls-48" d="M1062.85,637.66v23.6L1109.18,611q-.72-9.24-1.67-18.43Z"/><path class="cls-57" d="M1103.05,557.45a725.57,725.57,0,0,0-22.85-101.69l-17.35,28.08L923.77,709v55.53l139.08-160.67Z"/><path class="cls-58" d="M1107.51,592.61l-44.66,45L923.77,778V812l139.08-150.78L1109.18,611Q1108.46,601.8,1107.51,592.61Z"/></g></g></svg>