<svg xmlns="http://www.w3.org/2000/svg" xmlns:xlink="http://www.w3.org/1999/xlink" viewBox="0 0 208.94 218.98"><defs><radialGradient id="radial-gradient" cx="102.24" cy="131.43" r="165.64" gradientUnits="userSpaceOnUse"><stop offset="0" stop-color="#3b946a"/><stop offset="1" stop-color="#255a39"/></radialGradient><linearGradient id="linear-gradient" x1="24.06" y1="64.12" x2="193.72" y2="64.12" gradientUnits="userSpaceOnUse"><stop offset="0" stop-color="#83a694"/><stop offset="1" stop-color="#406f54"/></linearGradient><linearGradient id="linear-gradient-2" x1="20.26" y1="52.51" x2="129.92" y2="52.51" xlink:href="#linear-gradient"/><linearGradient id="linear-gradient-3" x1="14.27" y1="39.54" x2="50.8" y2="39.54" xlink:href="#linear-gradient"/><linearGradient id="linear-gradient-4" x1="41.34" y1="58.73" x2="75.09" y2="58.73" xlink:href="#linear-gradient"/><linearGradient id="linear-gradient-5" x1="58.21" y1="70.83" x2="192.15" y2="70.83" xlink:href="#linear-gradient"/><linearGradient id="linear-gradient-6" x1="58.21" y1="99.69" x2="191.14" y2="99.69" xlink:href="#linear-gradient"/><linearGradient id="linear-gradient-7" x1="19.55" y1="139.87" x2="36.84" y2="139.87" xlink:href="#linear-gradient"/><linearGradient id="linear-gradient-8" x1="80.28" y1="111.59" x2="172.94" y2="111.59" xlink:href="#linear-gradient"/><linearGradient id="linear-gradient-9" x1="102.64" y1="114.23" x2="187.26" y2="114.23" xlink:href="#linear-gradient"/><linearGradient id="linear-gradient-10" x1="25.45" y1="168.2" x2="147.14" y2="168.2" xlink:href="#linear-gradient"/><linearGradient id="linear-gradient-11" x1="26.24" y1="172.84" x2="161.33" y2="172.84" xlink:href="#linear-gradient"/><linearGradient id="linear-gradient-12" x1="27.45" y1="195.85" x2="141.82" y2="195.85" xlink:href="#linear-gradient"/><linearGradient id="linear-gradient-13" x1="92.05" y1="187.41" x2="180.07" y2="187.41" xlink:href="#linear-gradient"/><linearGradient id="linear-gradient-14" x1="105.36" y1="194.56" x2="178.4" y2="194.56" xlink:href="#linear-gradient"/><linearGradient id="linear-gradient-15" x1="139.07" y1="131.71" x2="182.68" y2="131.71" xlink:href="#linear-gradient"/><linearGradient id="linear-gradient-16" x1="160.88" y1="140.24" x2="180.07" y2="140.24" xlink:href="#linear-gradient"/><linearGradient id="linear-gradient-17" x1="136.06" y1="201.4" x2="176.68" y2="201.4" xlink:href="#linear-gradient"/><linearGradient id="linear-gradient-18" x1="124.68" y1="84.63" x2="160.88" y2="84.63" xlink:href="#linear-gradient"/><linearGradient id="linear-gradient-19" x1="104.47" y1="218.98" x2="104.47" gradientUnits="userSpaceOnUse"><stop offset="0" stop-color="#255a39"/><stop offset="1" stop-color="#3b946a"/></linearGradient><linearGradient id="linear-gradient-20" x1="3.47" y1="18.66" x2="35.33" y2="18.66" xlink:href="#linear-gradient"/><linearGradient id="linear-gradient-21" x1="7.29" y1="42.25" x2="20.4" y2="42.25" xlink:href="#linear-gradient"/><linearGradient id="linear-gradient-22" x1="29.9" y1="9.57" x2="50.39" y2="9.57" xlink:href="#linear-gradient"/><linearGradient id="linear-gradient-23" x1="14.3" y1="171.99" x2="31.32" y2="171.99" xlink:href="#linear-gradient"/><linearGradient id="linear-gradient-24" x1="75.93" y1="9.9" x2="116.6" y2="9.9" xlink:href="#linear-gradient"/><linearGradient id="linear-gradient-25" x1="47.31" y1="214.27" x2="63.2" y2="214.27" xlink:href="#linear-gradient"/><linearGradient id="linear-gradient-26" x1="63.2" y1="207.96" x2="66.05" y2="207.96" xlink:href="#linear-gradient"/><linearGradient id="linear-gradient-27" x1="131.95" y1="9.36" x2="144.35" y2="9.36" xlink:href="#linear-gradient"/><linearGradient id="linear-gradient-28" x1="95.82" y1="213.4" x2="119.87" y2="213.4" xlink:href="#linear-gradient"/><linearGradient id="linear-gradient-29" x1="162.89" y1="8.53" x2="179.95" y2="8.53" xlink:href="#linear-gradient"/><linearGradient id="linear-gradient-30" x1="125.27" y1="212.82" x2="141.28" y2="212.82" xlink:href="#linear-gradient"/><linearGradient id="linear-gradient-31" x1="179.61" y1="37.17" x2="200.57" y2="37.17" xlink:href="#linear-gradient"/><linearGradient id="linear-gradient-32" x1="14.35" y1="13.6" x2="192.9" y2="13.6" xlink:href="#linear-gradient"/><linearGradient id="linear-gradient-33" x1="32.93" y1="13.28" x2="170.36" y2="13.28" xlink:href="#linear-gradient"/><radialGradient id="radial-gradient-2" cx="101.34" cy="2701.94" r="56.72" gradientTransform="translate(0 -2004.05) scale(1 0.75)" gradientUnits="userSpaceOnUse"><stop offset="0" stop-color="#b67847"/><stop offset="1" stop-color="#b66248"/></radialGradient><radialGradient id="radial-gradient-3" cx="103.56" cy="21.14" r="61.89" gradientTransform="translate(0.66 2.87) rotate(-1.27)" gradientUnits="userSpaceOnUse"><stop offset="0" stop-color="#c09264"/><stop offset="1" stop-color="#bc7959"/></radialGradient><linearGradient id="linear-gradient-34" x1="44.3" y1="64.26" x2="160.7" y2="64.26" gradientUnits="userSpaceOnUse"><stop offset="0" stop-color="#ae658e"/><stop offset="1" stop-color="#833856"/></linearGradient><linearGradient id="linear-gradient-35" x1="126.13" y1="65.24" x2="126.13" y2="21.09" gradientUnits="userSpaceOnUse"><stop offset="0"/><stop offset="1" stop-color="#af6a36"/></linearGradient><linearGradient id="linear-gradient-36" x1="51.69" y1="64.52" x2="51.69" y2="25.19" xlink:href="#linear-gradient-35"/><linearGradient id="linear-gradient-37" x1="43.54" y1="51.82" x2="43.54" y2="43.82" xlink:href="#linear-gradient-34"/><radialGradient id="radial-gradient-4" cx="43.2" cy="2722.4" r="5.59" xlink:href="#radial-gradient-2"/><linearGradient id="linear-gradient-38" x1="170.08" y1="48.64" x2="170.08" y2="40.63" gradientTransform="matrix(0.99, 0.12, -0.12, 0.99, -1.36, -21.46)" xlink:href="#linear-gradient-34"/><radialGradient id="radial-gradient-5" cx="169.5" cy="2717.63" r="5.59" gradientTransform="matrix(0.99, 0.12, -0.09, 0.75, 229.85, -2011.77)" xlink:href="#radial-gradient-2"/><radialGradient id="radial-gradient-6" cx="101.36" cy="109.93" r="93.05" gradientUnits="userSpaceOnUse"><stop offset="0" stop-color="#26a5ff"/><stop offset="0.21" stop-color="#3d9cdf"/><stop offset="0.57" stop-color="#618dac"/><stop offset="0.85" stop-color="#78838c"/><stop offset="1" stop-color="gray"/></radialGradient><linearGradient id="Áåçûìÿííûé_ãðàäèåíò_260" x1="31.54" y1="195.21" x2="31.54" y2="168.19" gradientTransform="translate(65.72) scale(1.17 1)" gradientUnits="userSpaceOnUse"><stop offset="0" stop-color="#9f8bcc"/><stop offset="1" stop-color="#dddbe3"/></linearGradient><radialGradient id="radial-gradient-7" cx="31.54" cy="181.07" r="19.95" gradientTransform="translate(65.72) scale(1.17 1)" gradientUnits="userSpaceOnUse"><stop offset="0" stop-color="#c700b8"/><stop offset="0.07" stop-color="#c300a8"/><stop offset="0.27" stop-color="#ba0082"/><stop offset="0.46" stop-color="#b20063"/><stop offset="0.65" stop-color="#ad004e"/><stop offset="0.83" stop-color="#aa0040"/><stop offset="1" stop-color="#a9003c"/></radialGradient><linearGradient id="linear-gradient-39" x1="102.74" y1="192.47" x2="102.74" y2="169.38" gradientUnits="userSpaceOnUse"><stop offset="0.01" stop-color="#ae0053"/><stop offset="1" stop-color="#d8009e"/></linearGradient><radialGradient id="radial-gradient-8" cx="6.41" cy="171.42" r="35.01" gradientTransform="translate(95.57) scale(1.25 1)" gradientUnits="userSpaceOnUse"><stop offset="0" stop-color="#d500ff"/><stop offset="1" stop-color="#ef0087"/></radialGradient><radialGradient id="radial-gradient-9" cx="27.47" cy="191.79" r="35.68" gradientTransform="translate(70.75) scale(1.19 1)" gradientUnits="userSpaceOnUse"><stop offset="0" stop-color="#c700b8"/><stop offset="0.12" stop-color="#b5009a"/><stop offset="0.31" stop-color="#9e0074"/><stop offset="0.49" stop-color="#8c0055"/><stop offset="0.67" stop-color="#7f0040"/><stop offset="0.84" stop-color="#770032"/><stop offset="1" stop-color="#74002e"/></radialGradient><radialGradient id="Áåçûìÿííûé_ãðàäèåíò_52" cx="137.07" cy="2911.47" r="5.04" gradientTransform="matrix(0.99, 0.12, -0.09, 0.75, 229.85, -2011.77)" gradientUnits="userSpaceOnUse"><stop offset="0" stop-color="#ffce1b"/><stop offset="1" stop-color="#ff901d"/></radialGradient></defs><g style="isolation:isolate"><g id="Calque_2" data-name="Calque 2"><g id="Front_light" data-name="Front light"><polygon points="176.87 153.89 180.91 154.67 173.78 213.69 28.68 212.84 19.55 114.57 24.06 112.16 10.69 15.86 75.92 15.86 194.59 8.38 176.87 153.89" style="fill-rule:evenodd;fill:url(#radial-gradient)"/><polygon points="10.69 15.86 25.87 10 67.49 10.83 183.91 4.2 194.59 8.38 75.92 15.86 10.69 15.86" style="fill:#55b591;fill-rule:evenodd"/><polygon points="19.55 114.57 24.69 111.82 82.67 115.78 19.55 114.57" style="fill:#55b591;fill-rule:evenodd"/><polygon points="180.91 154.67 129.91 158.05 176.87 153.89 180.91 154.67" style="fill:#5cb98d;fill-rule:evenodd"/><polygon points="24.33 165.16 129.91 158.05 72.55 163 24.33 165.16" style="fill:#194c2a;fill-rule:evenodd"/><g style="opacity:0.2;mix-blend-mode:multiply"><path d="M193.72,15.54s-93-6-131.86,21.14-37.8,75.48-37.8,75.48l10.21,1.09S26.05,66.7,64.11,40.45,193,21.68,193,21.68Z" style="fill-rule:evenodd;fill:url(#linear-gradient)"/><path d="M21.29,92.16S13.5,16,129.92,12.86H118.39s-91.18-.71-98.13,71.92Z" style="fill-rule:evenodd;fill:url(#linear-gradient-2)"/><path d="M17.27,63.22S23.06,29.09,50.8,15.86H29.62S16.16,20.05,14.27,41.6Z" style="fill-rule:evenodd;fill:url(#linear-gradient-3)"/><path d="M41.34,75.86S45.29,50.31,75.09,41.6C75.09,41.6,54.75,65.43,41.34,75.86Z" style="fill-rule:evenodd;fill:url(#linear-gradient-4)"/><path d="M58.21,114.57S65.54,63.24,111.36,42s80.79-13.55,80.79-13.55l-.49,4S150.44,22.61,113,44.59s-51.74,70-51.74,70Z" style="fill-rule:evenodd;fill:url(#linear-gradient-5)"/><path d="M191.14,36.68S70.5,24,58.21,163l3.94-.67S49.51,48.11,190.8,39.46Z" style="fill-rule:evenodd;fill:url(#linear-gradient-6)"/><polygon points="24.33 165.16 36.84 117.44 19.55 114.57 24.33 165.16" style="fill-rule:evenodd;fill:url(#linear-gradient-7)"/><path d="M80.28,162.33S81,115.12,113,88.4s59.9-27.56,59.9-27.56-7,30.1-23.9,42.64-37.4.23-37.4.23l9.84-15.31S85.75,110,80.28,162.33Z" style="fill-rule:evenodd;fill:url(#linear-gradient-8)"/><path d="M187.26,68.58s-35.69,58.1-84.62,91.31l18.29-1.23S168.35,130.8,184,95.31Z" style="fill-rule:evenodd;fill:url(#linear-gradient-9)"/><path d="M25.45,177.5s64.53,5,115.43-20l6.26-.59s-53,25.33-121.69,22.33Z" style="fill-rule:evenodd;fill:url(#linear-gradient-10)"/><path d="M26.24,186.09s84.18,7,129.17-29.18l5.92-.94s-61,43-134.93,31.91Z" style="fill-rule:evenodd;fill:url(#linear-gradient-11)"/><path d="M27.45,199.36s41.91,1.13,94-16.53-7.31,25.71-51,30.25l-41.81-.24Z" style="fill-rule:evenodd;fill:url(#linear-gradient-12)"/><path d="M92.05,213.21s61.31-25,88-51.6l-.8,6.59s-26.86,26.1-80.66,44.88Z" style="fill-rule:evenodd;fill:url(#linear-gradient-13)"/><path d="M105.36,213.29s46-17,73-37.85l-.25,2.06s-23.3,22-71.11,36.19Z" style="fill-rule:evenodd;fill:url(#linear-gradient-14)"/><path d="M182.68,106.18S170,132.3,139.07,157.24l4.36-.39s20-17.08,39.25-48.19Z" style="fill-rule:evenodd;fill:url(#linear-gradient-15)"/><polygon points="180.07 125.53 160.88 154.94 164.03 154.94 180.07 127.61 180.07 125.53" style="fill-rule:evenodd;fill:url(#linear-gradient-16)"/><path d="M136.06,213.08s24-11.08,40.62-23.37v1.76S155.56,203.93,136.06,213.08Z" style="fill-rule:evenodd;fill:url(#linear-gradient-17)"/></g><polygon points="173.78 213.69 139.07 211.65 105.36 213.29 28.43 210.14 28.68 212.84 173.78 213.69" style="fill:#154223;fill-rule:evenodd"/><polygon points="58.21 163 70.16 155.97 60.79 163 58.21 163" style="fill:#194c2a;fill-rule:evenodd"/><polygon points="37.31 15.86 47.8 22.31 41.34 15.86 41.34 13.55 37.31 15.86" style="fill:#1e5734;fill-rule:evenodd"/><polygon points="50.8 15.86 116 13.35 86.61 17.93 50.8 15.86" style="fill:#429b75;fill-rule:evenodd"/><polygon points="149.49 11.22 159.3 11.22 176.33 9.53 154.38 9.53 149.49 11.22" style="fill:#429b75;fill-rule:evenodd"/><polygon points="146.31 11.42 140.13 6.69 111.27 8.33 112.01 13.35 146.31 11.42" style="fill:#7ac5b9;fill-rule:evenodd;mix-blend-mode:soft-light"/><polygon points="44.9 15.86 52.21 10.53 66.27 10.8 61.49 15.45 50.8 15.86 44.9 15.86" style="fill:#7ac5b9;fill-rule:evenodd;mix-blend-mode:soft-light"/><polygon points="163.92 5.33 181.02 5.33 187.42 6.69 187.77 8.38 178.44 9.39 194.59 8.38 183.91 4.2 163.92 5.33" style="fill:#7ac5b9;fill-rule:evenodd;mix-blend-mode:soft-light"/><polygon points="43.3 10.35 27.28 10.53 24.06 12 18.56 14.09 22.5 14.98 30.93 15.86 10.69 15.86 25.87 10 43.3 10.35" style="fill:#7ac5b9;fill-rule:evenodd;mix-blend-mode:soft-light"/><polygon points="128.79 12.41 162.91 12.41 186.58 11.22 192.15 12.86 188.46 27.85 190.33 43.36 194.59 8.38 128.79 12.41" style="fill:#337e57;fill-rule:evenodd"/><polygon points="10.69 15.86 21.29 92.16 21.29 64.94 17.57 56.69 15.99 22.31 18 19.02 37.31 15.86 10.69 15.86" style="fill:#337e57;fill-rule:evenodd"/><polygon points="177.91 179.49 177.91 171.5 178.4 166.78 175.47 161.06 178.4 161.61 179.03 158.89 179.03 155.97 153.44 157.24 149.13 158.97 119.98 158.74 180.91 154.67 177.91 179.49" style="fill:#1e5535;fill-rule:evenodd"/><polygon points="24.33 165.16 27.45 199.36 29.39 189.71 27.45 186.18 26.24 178.62 26.24 176.73 26.86 175.97 25.45 171.91 25.45 166.28 37.75 165.16 45.06 164.23 24.33 165.16" style="fill:#1e5535;fill-rule:evenodd"/><polygon points="21.11 129.85 22.78 125.42 21.94 123.1 24.33 120.43 36.08 120.35 55.16 115.25 19.55 114.57 21.11 129.85" style="fill:#276643;fill-rule:evenodd"/><polygon points="45.06 164.23 54.41 165.16 68.03 163.2 45.06 164.23" style="fill:#5cb98d;fill-rule:evenodd"/><polygon points="97.11 115.78 108.89 117.44 134.6 114.57 97.11 115.78" style="fill:#194c2a;fill-rule:evenodd"/><polygon points="19.55 79.69 32.53 86.22 43.3 88.08 19.55 79.69" style="fill:#1e5734;fill-rule:evenodd"/><polygon points="187.91 63.22 173.78 66.05 187.57 66.05 187.91 63.22" style="fill:#1e5734;fill-rule:evenodd"/><polygon points="131.98 211.91 119.98 201.4 136.06 211.91 131.98 211.91" style="fill:#154223;fill-rule:evenodd"/><polygon points="97.11 115.78 108.89 117.73 134.6 114.57 108.89 116.59 97.11 115.78" style="fill:#5cb98d;fill-rule:evenodd"/><polygon points="19.55 79.69 19.75 81.11 32.53 86.22 19.55 79.69" style="fill:#55b591;fill-rule:evenodd"/><polygon points="187.57 66.05 173.78 66.05 187.26 67.18 187.57 66.05" style="fill:#55b591;fill-rule:evenodd"/><polygon points="37.31 15.86 43.88 18.4 47.8 22.31 37.31 15.86" style="fill:#55b591;fill-rule:evenodd"/><path d="M63.32,96.2s8.76-42.72,68-62C131.3,34.22,81.64,42.57,63.32,96.2Z" style="fill:#3b9575;fill-rule:evenodd;opacity:0.4"/><path d="M78.13,94.05S98.7,49.32,157.05,39.54C157.05,39.54,101.61,45,78.13,94.05Z" style="fill:#3b9575;fill-rule:evenodd;opacity:0.4"/><path d="M87.43,126.61S98.8,75.24,172.94,60.84C172.94,60.84,103.59,67.89,87.43,126.61Z" style="fill:#3b9575;fill-rule:evenodd;opacity:0.4"/><path d="M124.68,100.69s13.06-27.53,36.2-32.11C160.88,68.58,159.72,97.83,124.68,100.69Z" style="fill-rule:evenodd;opacity:0.2;mix-blend-mode:multiply;fill:url(#linear-gradient-18)"/><path d="M31.08,76.76s9.34-51.9,90.74-58.83C121.82,17.93,43.3,21.68,31.08,76.76Z" style="fill:#3b9575;fill-rule:evenodd;opacity:0.4"/><polygon points="182.68 108.66 134.6 114.57 163.19 112.69 182.68 108.66" style="fill:#194c2a;fill-rule:evenodd"/><polygon points="134.6 114.57 153.61 114.23 163.19 112.69 134.6 114.57" style="fill:#5cb98d;fill-rule:evenodd"/><polygon points="168.25 47.53 170.32 43.19 182.42 40.75 184.79 41.81 168.25 47.53" style="fill:#1e5734;fill-rule:evenodd"/><polygon points="168.25 47.53 168.78 46.43 172.3 45.85 181.82 42.58 183.69 41.32 184.79 41.81 168.25 47.53" style="fill:#55b591;fill-rule:evenodd"/><polygon points="158.44 54.77 156.16 52.95 156.16 51.65 159.47 53.48 158.44 54.77" style="fill:#1e5734;fill-rule:evenodd"/><polygon points="156.16 52.95 157.81 54.01 158.44 54.01 159.47 53.48 158.44 54.77 156.16 52.95" style="fill:#55b591;fill-rule:evenodd"/><polygon points="40.12 131.71 47.8 132.88 52.68 136.37 50.8 137.61 37.31 134.66 40.12 131.71" style="fill:#1e5734;fill-rule:evenodd"/><polygon points="37.31 134.66 37.85 134.09 38.45 134.66 49 137.01 51.04 136.83 52.51 136.25 52.68 136.37 50.8 137.61 48.46 137.61 37.31 134.66" style="fill:#5cb98d;fill-rule:evenodd"/><polygon points="141.82 203.08 143.84 201.4 154.75 195.85 141.82 203.08" style="fill:#154223;fill-rule:evenodd"/><polygon points="153.54 198.51 157.75 195.85 156.37 198.51 153.54 198.51" style="fill:#154223;fill-rule:evenodd"/><polygon points="32.06 181.46 41.2 181.8 35.85 182.83 32.06 181.46" style="fill:#154223;fill-rule:evenodd"/><polygon points="37.31 53.51 37.31 51.65 44.9 43.36 37.31 53.51" style="fill:#194c2a;fill-rule:evenodd"/><polygon points="56.92 100.47 56.42 97.69 59.51 93.59 56.92 100.47" style="fill:#194c2a;fill-rule:evenodd"/><polygon points="182.68 108.66 134.6 114.57 97.11 115.78 82.67 115.78 36.6 113.5 24.06 112.16 19.75 81.11 32.53 86.22 41.34 87.38 186.84 72 182.68 108.66" style="fill:#3b9575;fill-rule:evenodd;opacity:0.1"/><polygon points="43.3 88.08 66.27 94.05 114.12 115.23 108.89 115.23 69.67 96.2 61.99 94.05 43.3 88.08" style="fill:#174828;fill-rule:evenodd"/><polygon points="59.51 93.22 76.03 99.28 69.67 96.2 59.51 93.22" style="fill:#55b591;fill-rule:evenodd"/><path d="M126.8,154.94s36.65-20.59,48.67-44.79C175.47,110.15,160.88,131.32,126.8,154.94Z" style="fill:#3b9575;fill-rule:evenodd;opacity:0.4"/><path d="M108.89,209.28s46-17.3,70.38-41.08C179.27,168.2,154.75,194.44,108.89,209.28Z" style="fill:#3b9575;fill-rule:evenodd;opacity:0.4"/><path d="M30.35,188.43s60.82,9.49,117.94-24.61C148.29,163.82,99.32,197.57,30.35,188.43Z" style="fill:#3b9575;fill-rule:evenodd;opacity:0.4"/><path d="M195.28,74.4l-7.28.37.25,0h0l10.54.83L192.9,219H14.3L8.67,197.89l10.15-.45,8.47-.37,3.14-.14.89,3,1.19,4,31.95,2.52,1.59.12L98.18,209l.94,0,20.75-1.13,9-.5,12.37-.68,32-1.75,6.33-131.35v-.3l8.52-55.91.43-2.84-12.28.2-13.4.21-23.23.36-7.71.12-20.19.32-35.83.56-41.72.66L29.9,17l-8.19.12-2,2.32.54,10,.19,3.51,5.78,106.14,2.95,54.33-2.05.75v.08h-.24l-12.55-.07L0,0H.56l.5,0,.22,0h.28l.31,0,.35,0,3,.16.69,0,3.2.16,1.14.07,1.26.06.65,0h.14c.39,0,.8,0,1.21.06,1.65.09,3.45.17,5.37.26,4.73.21,10.25.44,16.42.67h.06c4.66.17,9.68.35,15,.51h0l5.9.17h.16C80,3,108.9,3.42,138.8,3h0l2.64,0h0c8.86-.15,17.81-.38,26.71-.69q9.41-.35,18.7-.83h0l3.44-.19h.2Q199.85.7,208.94,0l-5.66,30.84-7.77,42.32Z" style="fill-rule:evenodd;fill:url(#linear-gradient-19)"/><g style="opacity:0.2;mix-blend-mode:multiply"><polygon points="35.33 1.64 35.33 1.65 35.29 1.69 34.34 2.77 24.23 14.26 23.98 14.54 21.71 17.12 19.67 19.44 15.07 24.67 15.06 24.68 7.26 33.55 5.37 35.68 3.47 23.06 5.25 21.36 23.93 3.45 25.36 2.08 34.82 1.67 34.86 1.67 35.26 1.64 35.33 1.64" style="fill-rule:evenodd;fill:url(#linear-gradient-20)"/><path d="M20.4,32.94c-1.51,2.05-3,4.15-4.3,6.28l0,.05a68.3,68.3,0,0,0-6,11.57,44,44,0,0,0-1.44,4.23L7.29,48.4s.68-1.11,1.92-3h0c1.48-2.29,3.76-5.74,6.6-9.8a.08.08,0,0,0,0,0c1.35-1.91,2.82-4,4.38-6.1Z" style="fill-rule:evenodd;fill:url(#linear-gradient-21)"/><path d="M50.39,2.15h0l-.11.08-1.07.87c-2.06,1.7-6.62,5.56-12,10.82l0,0c-.19.19-.4.38-.59.58l-.69.68-1.7,1.72L29.9,17c.69-.83,1.38-1.65,2.08-2.46q.21-.25.42-.48A136.83,136.83,0,0,1,42.85,3.13l.39-.36,6.39-.55h0l.69-.06Z" style="fill-rule:evenodd;fill:url(#linear-gradient-22)"/><path d="M31.32,199.89l-2.19,5-10.31-7.46-4.52-3.27s3.23-18.92,9.41-45c.05-.19.1-.38.14-.58.73-3.08,1.51-6.26,2.33-9.52l2.95,54.33-2.05.75v.08l.2,2.83,2.61-1.92.53,1.78Z" style="fill-rule:evenodd;fill:url(#linear-gradient-23)"/><path d="M116.6,4.63l-.51,1.16L113.37,12l-.18.42-.44,1-.36.84-.63,1.42-35.83.56q.64-.79,1.32-1.56c.15-.19.31-.38.48-.56.29-.34.6-.68.91-1,.06-.08.14-.16.21-.24a57.87,57.87,0,0,1,8.8-7.95c.69-.5,1.38-1,2.08-1.41Z" style="fill-rule:evenodd;fill:url(#linear-gradient-24)"/><polygon points="47.31 218.98 63.2 209.56 59.49 218.98 47.31 218.98" style="fill-rule:evenodd;fill:url(#linear-gradient-25)"/><polygon points="66.06 206.48 65.45 208.22 64.95 208.52 63.2 209.56 63.66 208.39 63.79 208.07 64.46 206.36 66.06 206.48" style="fill-rule:evenodd;fill:url(#linear-gradient-26)"/><polygon points="144.35 3.35 144.35 3.36 144.31 3.45 141.21 11.33 140.98 11.9 140.72 12.59 140.18 13.95 139.66 15.27 131.95 15.39 132.41 14.04 132.82 12.86 133.1 12.05 133.28 11.53 135.85 4.09 136.06 3.46 136.11 3.32 142.02 3.34 144.35 3.35" style="fill-rule:evenodd;fill:url(#linear-gradient-27)"/><polygon points="119.86 207.83 118.91 211.1 118.85 211.28 118.78 211.54 118.76 211.6 116.6 218.98 95.82 218.98 97.4 214.18 98.16 211.88 98.37 211.24 98.54 210.71 99.12 208.96 119.86 207.83" style="fill-rule:evenodd;fill:url(#linear-gradient-28)"/><polygon points="179.95 2.15 179.94 2.19 177.53 10.42 177.38 10.95 176.29 14.7 162.89 14.91 163.29 13.67 163.97 11.62 164.03 11.44 164.25 10.76 166.88 2.77 179.95 2.15" style="fill-rule:evenodd;fill:url(#linear-gradient-29)"/><polygon points="141.28 206.66 140.19 210.38 140.15 210.56 137.72 218.98 125.27 218.98 127.72 211.13 127.79 210.91 128.91 207.33 141.28 206.66" style="fill-rule:evenodd;fill:url(#linear-gradient-30)"/><polygon points="200.57 0.79 200.04 2.63 191.09 33.68 188.6 42.35 188.24 43.59 187.28 46.91 179.61 73.55 179.62 73.25 188.14 17.34 189.24 13.82 190.37 10.2 190.4 10.1 192.9 2.08 200.54 0.8 200.57 0.79" style="fill-rule:evenodd;fill:url(#linear-gradient-31)"/></g><path d="M192.9,10l-1.81,23.64-.83,11h0v.07L188,74.81v.07L177.72,208.82l-37.57,1.73-12.43.58-8.41.39h0l-.52,0-11.28.52-2.35-.21-6.78-.62-7.22-.67H91.1l-25.65-2.35-1.66-.15L29.13,204.9l-1.84-7.83,2.61-1.92.53,1.78.89,3,1.19,4,31.95,2.52,1.59.12L98.18,209l.94,0,20.75-1.13,9-.5,12.37-.68,32-1.75,6.33-131.35v-.3l8.52-55.91.43-2.84-12.28.2-13.4.21-23.23.36-7.71.12-20.19.32-35.83.56-41.72.66L29.9,17l-8.19.12-2,2.32.54,10,.19,3.51,5.78,106.14,2.95,54.33-2.05.75L23.85,148.6l-7.16-101-.09-1.33-.5-7.07-.27-3.69-.76-10.86L14.35,14.5l5,0H36.6c10.81,0,25-.13,41.13-.38,10.9-.16,22.71-.39,35-.7,6.57-.17,13.28-.37,20.07-.59l7.9-.27c7.71-.28,15.49-.61,23.25-1l6.17-.3h.22l7-.37q6-.31,11.84-.68l1.15-.07Z" style="fill:#1d5431;fill-rule:evenodd"/><polygon points="8.67 197.89 14.02 192.26 14.3 194.17 26.85 194.24 26.85 194.24 27.29 197.07 8.67 197.89" style="fill:#55b591;fill-rule:evenodd"/><polygon points="177.72 208.82 140.19 210.38 127.79 210.91 121.85 211.16 121.81 211.16 118.85 211.28 105.15 211.85 100.02 212.07 98.16 211.88 83.86 210.43 64.95 208.52 63.66 208.39 29.13 204.9 32.51 203.84 64.46 206.36 66.06 206.48 98.18 209.01 99.12 208.96 119.86 207.83 128.91 207.33 141.28 206.66 173.28 204.9 177.72 208.82" style="fill:#429b75;fill-rule:evenodd"/><polygon points="192.9 10.04 188.09 41.63 187.83 43.35 187.28 46.91 183.09 74.46 182.78 76.5 177.72 208.82 173.28 204.9 179.61 73.55 179.62 73.25 188.14 17.34 188.57 14.51 189.22 10.27 190.37 10.2 192.9 10.04" style="fill:#133d1e;fill-rule:evenodd"/><polygon points="29.13 193.41 27.08 194.16 26.86 194.24 26.85 194.24 23.71 149.18 16.65 47.65 16.56 46.34 16.07 39.27 15.81 35.57 15.06 24.68 14.35 14.51 19.4 14.53 19.54 17.06 19.67 19.44 20.21 29.43 20.4 32.94 26.18 139.08 29.13 193.41" style="fill:#133d1e;fill-rule:evenodd"/><polygon points="32.51 203.84 29.13 204.9 27.29 197.07 29.9 195.15 30.43 196.93 31.32 199.89 32.51 203.84" style="fill:#133d1e;fill-rule:evenodd"/><polygon points="192.9 10.04 189.24 13.82 188.57 14.51 176.29 14.7 162.89 14.91 139.66 15.27 131.95 15.39 111.76 15.71 75.93 16.27 34.21 16.93 29.9 17 21.71 17.12 19.72 17.15 19.54 17.06 14.35 14.51 24.23 14.26 32.4 14.05 32.93 14.04 33.51 14.03 37.21 13.93 78.85 12.89 113.37 12.03 133.28 11.53 141.21 11.33 164.25 10.76 177.53 10.42 190.4 10.1 192.9 10.04" style="fill-rule:evenodd;opacity:0.6000000000000001;mix-blend-mode:multiply;fill:url(#linear-gradient-32)"/><polygon points="83.85 210.43 121.85 211.15 98.55 214.49 83.85 210.43" style="fill:#337f5a;fill-rule:evenodd"/><polygon points="198.81 75.62 195.51 73.16 195.28 74.4 187.42 74.84 198.81 75.62" style="fill:#55b591;fill-rule:evenodd"/><polygon points="192.9 2.08 201.89 2.77 207.31 2.08 206.33 5.24 203.63 22.34 203.28 30.84 208.94 0 190.35 1.22 192.9 2.08" style="fill:#337e57;fill-rule:evenodd"/><polygon points="56.45 2.33 0 0 8.49 56.4 10.32 52.13 4.55 17.16 3.47 11.4 3.47 5.23 7.29 3.26 31.54 3.53 34.34 2.77 47.3 3.32 56.45 2.33" style="fill:#337e57;fill-rule:evenodd"/><polygon points="187.42 40.7 190.35 44.82 186.81 42.76 187.42 40.7" style="fill:#133d1e;fill-rule:evenodd"/><polygon points="19.4 42.84 14.35 49.07 19.4 45.95 19.4 42.84" style="fill:#133d1e;fill-rule:evenodd"/><polygon points="33.28 15.24 169.23 13.6 170.36 11.31 32.93 14.04 33.28 15.24" style="fill-rule:evenodd;opacity:0.6000000000000001;mix-blend-mode:multiply;fill:url(#linear-gradient-33)"/><path d="M34.83,25.25a87.17,87.17,0,0,0,7.64,37.9s61.68,6.74,120.72-2.31c0,0,9.32-24.13,11.31-42.59C174.5,18.25,89.25,26.76,34.83,25.25Z" style="fill-rule:evenodd;fill:url(#radial-gradient-2)"/><path d="M174.5,18.25l-2.4-1A975.75,975.75,0,0,1,35.77,24.57l-.93.68S110.9,27.42,174.5,18.25Z" style="fill-rule:evenodd;fill:url(#radial-gradient-3)"/><polygon points="113.95 22.73 113.95 23.7 130.93 22.64 129.9 21.83 113.95 22.73" style="fill:#b68a48;fill-rule:evenodd"/><polygon points="150.83 20.99 149.32 19.86 160.85 18.65 162.51 19.76 150.83 20.99" style="fill:#b68a48;fill-rule:evenodd"/><path d="M44.3,63.33l.87,1.56s63.6,6.07,113.61-1l1.92-2.63S91.76,69.22,44.3,63.33Z" style="fill-rule:evenodd;opacity:0.6000000000000001;mix-blend-mode:multiply;fill:url(#linear-gradient-34)"/><path d="M110.78,23.86,102.5,65.23a302.7,302.7,0,0,0,35.92-2l11.34-42.19S123.55,24.1,110.78,23.86Z" style="fill-rule:evenodd;opacity:0.5;mix-blend-mode:screen;fill:url(#linear-gradient-35)"/><polygon points="44.54 25.19 51.9 63.98 58.84 64.52 53.44 25.19 44.54 25.19" style="fill-rule:evenodd;opacity:0.5;mix-blend-mode:screen;fill:url(#linear-gradient-36)"/><polygon points="101.24 48.38 111.25 44.48 104.64 47.95 101.24 48.38" style="fill:#b68a48;fill-rule:evenodd"/><polygon points="96.3 51.73 98.85 55.03 97.84 53.21 96.3 51.73" style="fill:#b68a48;fill-rule:evenodd"/><polygon points="50.69 58.76 54.18 59.63 52.66 58.66 50.69 58.76" style="fill:#b68a48;fill-rule:evenodd"/><polygon points="146.57 57.95 151.68 54.6 149.13 57.19 146.57 57.95" style="fill:#b68a48;fill-rule:evenodd"/><polygon points="90.14 30.49 96.3 32.72 91.93 31.6 90.14 30.49" style="fill:#b68a48;fill-rule:evenodd"/><polygon points="62.23 31.36 59.94 32.23 61.89 32.23 62.23 31.36" style="fill:#b68a48;fill-rule:evenodd"/><polygon points="146.57 57.95 148.63 56.03 151.68 54.6 146.57 57.95" style="fill:#bc605b;fill-rule:evenodd"/><polygon points="101.24 48.38 105.21 46.43 111.25 44.48 101.24 48.38" style="fill:#bc605b;fill-rule:evenodd"/><polygon points="96.3 51.73 97.84 53.21 98.85 55.03 98.03 52.95 96.3 51.73" style="fill:#bc605b;fill-rule:evenodd"/><polygon points="90.14 30.49 91.59 30.49 96.3 32.72 90.14 30.49" style="fill:#bc675b;fill-rule:evenodd"/><polygon points="59.94 32.23 60.39 30.91 62.23 31.36 59.94 32.23" style="fill:#bc675b;fill-rule:evenodd"/><polygon points="50.69 58.76 51.9 57.88 54.18 59.63 52.66 58.66 50.69 58.76" style="fill:#bc605b;fill-rule:evenodd"/><polygon points="38.77 45.28 38.77 49.74 41.37 51.82 46.14 51.82 48.32 49.57 48.32 43.82 38.77 45.28" style="fill-rule:evenodd;opacity:0.6000000000000001;mix-blend-mode:multiply;fill:url(#linear-gradient-37)"/><polygon points="39.2 48.14 38.54 43.83 41.09 41.83 46.14 41.83 48.32 43.82 48.02 48.2 45.46 49.74 41.48 49.74 39.2 48.14" style="fill-rule:evenodd;fill:url(#radial-gradient-4)"/><polygon points="46.14 41.83 45.47 40.59 41.37 40.86 41.09 41.83 46.14 41.83" style="fill:#b47e42;fill-rule:evenodd"/><polygon points="48.32 43.82 45.47 40.59 45.91 41.83 48.32 43.82" style="fill:#b46f42;fill-rule:evenodd"/><polygon points="41.37 40.86 41.09 41.83 38.54 43.83 39.19 42.77 41.37 40.86" style="fill:#b46f42;fill-rule:evenodd"/><polygon points="38.54 43.83 41.09 45.78 46.9 45.34 48.32 43.82 45.91 41.83 41.09 41.83 38.54 43.83" style="fill:#c88e7d;fill-rule:evenodd;mix-blend-mode:soft-light"/><polygon points="43.48 49.48 44.66 49.48 44.74 41.96 42.86 42.41 43.48 49.48" style="fill:#8c2f3f;fill-rule:evenodd"/><polygon points="44.74 41.96 44.1 42.64 44.26 49.12 44.66 49.48 44.74 41.96" style="fill:#8c2f3f;fill-rule:evenodd"/><polygon points="44.1 48.97 43.46 49.18 43.48 49.48 44.66 49.48 44.1 48.97" style="fill:#a85334;fill-rule:evenodd"/><polygon points="44.69 41.83 46.9 42.51 45.79 41.49 44.69 41.83" style="fill:#b58945;fill-rule:evenodd"/><polygon points="41.19 41.49 41.64 41.83 40.58 42.23 41.19 41.49" style="fill:#b58945;fill-rule:evenodd"/><polygon points="46.36 49.14 44.47 49.74 45.46 49.74 46.36 49.14" style="fill:#a85334;fill-rule:evenodd"/><polygon points="40.62 49.14 42.44 49.74 41.48 49.74 40.62 49.14" style="fill:#a85334;fill-rule:evenodd"/><polygon points="40.42 45.44 46.9 44.72 46.9 46.3 40.58 46.3 40.42 45.44" style="fill:#8c2f3f;fill-rule:evenodd"/><polygon points="44.1 42.64 42.91 42.99 43.46 49.18 44.26 49.12 44.1 42.64" style="fill:#9c4037;fill-rule:evenodd"/><polygon points="40.47 45.72 46.54 45.05 46.54 46.12 40.56 46.22 40.47 45.72" style="fill:#9c4037;fill-rule:evenodd"/><polygon points="46.9 46.3 46.54 46.12 44.19 46.16 44.66 46.42 46.9 46.3" style="fill:#a85334;fill-rule:evenodd"/><polygon points="43.21 46.32 43.19 46.12 40.56 46.22 40.58 46.3 43.21 46.32" style="fill:#a85334;fill-rule:evenodd"/><polygon points="157.98 39.41 157.46 43.84 159.81 46.2 164.55 46.75 166.98 44.77 167.64 39.06 157.98 39.41" style="fill-rule:evenodd;opacity:0.6000000000000001;mix-blend-mode:multiply;fill:url(#linear-gradient-38)"/><polygon points="158.08 42.29 157.92 37.93 160.69 36.24 165.71 36.82 167.64 39.06 166.83 43.37 164.11 44.61 160.16 44.15 158.08 42.29" style="fill-rule:evenodd;fill:url(#radial-gradient-5)"/><polygon points="165.71 36.82 165.18 35.51 161.07 35.31 160.69 36.24 165.71 36.82" style="fill:#b47e42;fill-rule:evenodd"/><polygon points="167.64 39.06 165.18 35.51 165.48 36.8 167.64 39.06" style="fill:#b46f42;fill-rule:evenodd"/><polygon points="161.07 35.31 160.69 36.24 157.92 37.93 158.69 36.96 161.07 35.31" style="fill:#b46f42;fill-rule:evenodd"/><polygon points="157.92 37.93 160.23 40.17 166.05 40.4 167.64 39.06 165.48 36.8 160.69 36.24 157.92 37.93" style="fill:#c88e7d;fill-rule:evenodd;mix-blend-mode:soft-light"/><polygon points="162.18 44.12 163.35 44.26 164.29 36.8 162.38 37.02 162.18 44.12" style="fill:#8c2f3f;fill-rule:evenodd"/><polygon points="164.29 36.8 163.59 37.4 162.99 43.85 163.35 44.26 164.29 36.8" style="fill:#8c2f3f;fill-rule:evenodd"/><polygon points="162.85 43.69 162.19 43.82 162.18 44.12 163.35 44.26 162.85 43.69" style="fill:#a85334;fill-rule:evenodd"/><polygon points="164.26 36.66 166.37 37.59 165.4 36.45 164.26 36.66" style="fill:#b58945;fill-rule:evenodd"/><polygon points="160.82 35.92 161.23 36.3 160.13 36.58 160.82 35.92" style="fill:#b58945;fill-rule:evenodd"/><polygon points="165.08 44.11 163.13 44.49 164.11 44.61 165.08 44.11" style="fill:#a85334;fill-rule:evenodd"/><polygon points="159.38 43.45 161.11 44.26 160.16 44.15 159.38 43.45" style="fill:#a85334;fill-rule:evenodd"/><polygon points="159.6 39.76 166.12 39.78 165.94 41.36 159.66 40.63 159.6 39.76" style="fill:#8c2f3f;fill-rule:evenodd"/><polygon points="163.59 37.4 162.36 37.6 162.19 43.82 162.99 43.85 163.59 37.4" style="fill:#9c4037;fill-rule:evenodd"/><polygon points="159.62 40.04 165.72 40.07 165.6 41.14 159.65 40.55 159.62 40.04" style="fill:#9c4037;fill-rule:evenodd"/><polygon points="165.94 41.36 165.6 41.14 163.26 40.91 163.7 41.22 165.94 41.36" style="fill:#a85334;fill-rule:evenodd"/><polygon points="162.27 40.95 162.27 40.75 159.65 40.55 159.66 40.63 162.27 40.95" style="fill:#a85334;fill-rule:evenodd"/><path d="M189.34,109.93a97.86,97.86,0,0,1-97.86,97.86c-54,0-73.2-43.43-77.64-96.2C9.33,57.84,37.44,12.07,91.48,12.07A97.86,97.86,0,0,1,189.34,109.93Z" style="fill-rule:evenodd;opacity:0.7000000000000001;mix-blend-mode:overlay;fill:url(#radial-gradient-6)"/><path d="M77.38,174.28c8.73-1.08,29.1-2.76,50.76,1.44a7.42,7.42,0,0,1,5.79,5.77,22.6,22.6,0,0,1-.79,13,6.9,6.9,0,0,1-6,4.32,259.33,259.33,0,0,1-48.92-1.55,7.37,7.37,0,0,1-6-5.17,26.5,26.5,0,0,1-.78-12.16A6.93,6.93,0,0,1,77.38,174.28Z" style="fill:#8368bd;fill-rule:evenodd;opacity:0.5;mix-blend-mode:multiply"/><path d="M76.5,171.44c9-1.38,30.08-3.72,52.46,0a7.4,7.4,0,0,1,6,5.8,23.43,23.43,0,0,1-.81,13.46,7.41,7.41,0,0,1-6.22,4.64c-8.37.77-29.19,2.19-50.57-.16A7.32,7.32,0,0,1,71.12,190a27.26,27.26,0,0,1-.8-12.55A7.4,7.4,0,0,1,76.5,171.44Z" style="fill:#72527f;fill-rule:evenodd"/><path d="M76.5,170.19c9-1.38,30.08-3.71,52.46,0a7.39,7.39,0,0,1,6,5.79,23.47,23.47,0,0,1-.81,13.47,7.42,7.42,0,0,1-6.22,4.63c-8.37.77-29.19,2.19-50.57-.15a7.33,7.33,0,0,1-6.23-5.17,27.25,27.25,0,0,1-.8-12.55A7.4,7.4,0,0,1,76.5,170.19Z" style="fill-rule:evenodd;fill:url(#Áåçûìÿííûé_ãðàäèåíò_260)"/><path d="M75.47,191.31l3.5,2.78a259.82,259.82,0,0,0,46.3.24l4.06-2.76Z" style="fill:#8368bd;fill-rule:evenodd;opacity:0.5;mix-blend-mode:multiply"/><path d="M74.47,171.69s27.62-5.52,56.36,0c0,0,5.32,11.05-1.5,19.88,0,0-27.15,3.18-53.86-.26C75.47,191.31,69.92,181.92,74.47,171.69Z" style="fill-rule:evenodd;fill:url(#radial-gradient-7)"/><path d="M74.86,171.78s27.24-5.39,55.58,0c0,0,5.25,10.77-1.47,19.38,0,0-26.78,3.11-53.12-.25C75.85,190.91,70.37,181.76,74.86,171.78Z" style="fill-rule:evenodd;fill:url(#linear-gradient-39)"/><path d="M77.15,172.42s25-4.69,51,0c0,0,4.82,9.37-1.35,16.86,0,0-24.58,2.7-48.75-.22C78.06,189.06,73,181.1,77.15,172.42Z" style="fill-rule:evenodd;fill:url(#radial-gradient-8)"/><path d="M129,191.31l-2.16-2a269.21,269.21,0,0,1-48.75-.22l-2.21,2S102,194.86,129,191.31Z" style="fill-rule:evenodd;fill:url(#radial-gradient-9)"/><path d="M74.86,171.93l2.29.49s22.2-4.52,51,0l2.28-.49A147.79,147.79,0,0,0,74.86,171.93Z" style="fill:#ffb8ec;fill-rule:evenodd"/><polygon points="76.43 174.19 79.64 171.99 77.15 172.42 76.43 174.19" style="fill:#ff9ae4;fill-rule:evenodd"/><polygon points="125.27 171.99 128.88 174.19 128.88 172.26 125.27 171.99" style="fill:#ff9ae4;fill-rule:evenodd"/><polygon points="77.11 187.17 79.93 189.28 78.06 189.06 77.11 187.17" style="fill:#ea00b7;fill-rule:evenodd"/><polygon points="124 189.52 127.85 187.84 126.81 189.28 124 189.52" style="fill:#ea00b7;fill-rule:evenodd"/><polygon points="109.51 182.96 109.37 179.03 111.86 177.5 116.38 178.03 118.13 180.04 117.4 183.93 114.94 185.05 111.38 184.63 109.51 182.96" style="fill-rule:evenodd;fill:url(#Áåçûìÿííûé_ãðàäèåíò_52)"/><polygon points="110.35 182.62 110.23 179.5 112.21 178.29 115.79 178.71 117.18 180.3 116.6 183.39 114.65 184.27 111.83 183.94 110.35 182.62" style="fill:#ffbd13;fill-rule:evenodd"/><polygon points="116.38 178.03 115.91 176.85 112.21 176.67 111.86 177.5 116.38 178.03" style="fill:#ffe313;fill-rule:evenodd"/><polygon points="118.13 180.04 115.91 176.85 116.18 178.01 118.13 180.04" style="fill:#ffbd13;fill-rule:evenodd"/><polygon points="112.21 176.67 111.86 177.5 109.37 179.03 110.06 178.15 112.21 176.67" style="fill:#ffbd13;fill-rule:evenodd"/><polygon points="113.81 184.22 113.21 184.34 113.2 184.61 114.26 184.73 113.81 184.22" style="fill:#f48600;fill-rule:evenodd"/><polygon points="115.08 177.88 116.98 178.72 116.1 177.69 115.08 177.88" style="fill:#ffff18;fill-rule:evenodd"/><polygon points="111.98 177.22 112.35 177.56 111.36 177.81 111.98 177.22" style="fill:#ffff18;fill-rule:evenodd"/><polygon points="115.82 184.6 114.06 184.94 114.94 185.05 115.82 184.6" style="fill:#f48600;fill-rule:evenodd"/><polygon points="110.68 184 112.24 184.73 111.38 184.63 110.68 184" style="fill:#f48600;fill-rule:evenodd"/><polygon points="111.83 183.94 112.21 183.27 110.79 182.19 110.35 182.62 111.83 183.94" style="fill:#ffe313;fill-rule:evenodd"/><polygon points="114.61 183.52 114.65 184.27 111.83 183.94 112.21 183.27 114.61 183.52" style="fill:#ffff18;fill-rule:evenodd"/><polygon points="116.03 183.06 114.61 183.52 114.65 184.27 116.6 183.39 116.03 183.06" style="fill:#ffe313;fill-rule:evenodd"/><polygon points="110.68 179.23 110.79 182.19 110.35 182.62 110.23 179.5 110.68 179.23" style="fill:#f48600;fill-rule:evenodd"/></g></g></g></svg>