<svg xmlns="http://www.w3.org/2000/svg" xmlns:xlink="http://www.w3.org/1999/xlink" viewBox="0 0 35.29 40.57"><defs><style>.cls-1{isolation:isolate;}.cls-10,.cls-11,.cls-12,.cls-13,.cls-14,.cls-15,.cls-16,.cls-17,.cls-18,.cls-19,.cls-2,.cls-20,.cls-21,.cls-22,.cls-23,.cls-24,.cls-25,.cls-26,.cls-27,.cls-28,.cls-29,.cls-3,.cls-30,.cls-31,.cls-32,.cls-33,.cls-34,.cls-35,.cls-36,.cls-37,.cls-38,.cls-39,.cls-4,.cls-40,.cls-41,.cls-42,.cls-43,.cls-44,.cls-45,.cls-46,.cls-48,.cls-49,.cls-5,.cls-51,.cls-52,.cls-53,.cls-54,.cls-56,.cls-57,.cls-58,.cls-59,.cls-6,.cls-60,.cls-61,.cls-62,.cls-63,.cls-7,.cls-8,.cls-9{fill-rule:evenodd;}.cls-2{fill:url(#radial-gradient);}.cls-11,.cls-15,.cls-16,.cls-18,.cls-21,.cls-22,.cls-23,.cls-26,.cls-27,.cls-3,.cls-35,.cls-38,.cls-40,.cls-42,.cls-45,.cls-46,.cls-47,.cls-49,.cls-5,.cls-52,.cls-59,.cls-63,.cls-8{mix-blend-mode:multiply;}.cls-11,.cls-15,.cls-22,.cls-23,.cls-24,.cls-26,.cls-27,.cls-3,.cls-34,.cls-35,.cls-36,.cls-37,.cls-38,.cls-44,.cls-46,.cls-56,.cls-59{opacity:0.5;}.cls-3{fill:url(#radial-gradient-2);}.cls-4{fill:url(#radial-gradient-3);}.cls-5{fill:url(#radial-gradient-4);}.cls-6{fill:url(#radial-gradient-5);}.cls-7{fill:url(#radial-gradient-6);}.cls-16,.cls-18,.cls-21,.cls-40,.cls-8{opacity:0.75;}.cls-8{fill:url(#radial-gradient-7);}.cls-9{fill:url(#radial-gradient-8);}.cls-10,.cls-24,.cls-25,.cls-28,.cls-30,.cls-32,.cls-33,.cls-34,.cls-36,.cls-37,.cls-44,.cls-51,.cls-53,.cls-56,.cls-60{mix-blend-mode:screen;}.cls-10{opacity:0.25;fill:url(#radial-gradient-9);}.cls-11{fill:url(#New_Gradient_Swatch_2);}.cls-12{fill:url(#radial-gradient-10);}.cls-13{fill:url(#radial-gradient-11);}.cls-14{fill:url(#radial-gradient-12);}.cls-15{fill:url(#New_Gradient_Swatch_2-2);}.cls-16{fill:url(#New_Gradient_Swatch_2-3);}.cls-17{fill:url(#radial-gradient-13);}.cls-18{fill:url(#New_Gradient_Swatch_2-4);}.cls-19{fill:url(#radial-gradient-14);}.cls-20{fill:url(#radial-gradient-15);}.cls-21{fill:url(#radial-gradient-16);}.cls-22{fill:url(#New_Gradient_Swatch_2-5);}.cls-23{fill:url(#radial-gradient-17);}.cls-24{fill:url(#radial-gradient-18);}.cls-25{fill:url(#radial-gradient-19);}.cls-26{fill:url(#New_Gradient_Swatch_2-6);}.cls-27{fill:url(#New_Gradient_Swatch_2-7);}.cls-28{fill:url(#radial-gradient-20);}.cls-29{fill:url(#radial-gradient-21);}.cls-30{fill:url(#radial-gradient-22);}.cls-31{fill:url(#radial-gradient-23);}.cls-32{fill:url(#radial-gradient-24);}.cls-33{fill:url(#radial-gradient-25);}.cls-34{fill:url(#radial-gradient-26);}.cls-35{fill:url(#New_Gradient_Swatch_2-8);}.cls-36{fill:url(#radial-gradient-27);}.cls-37{fill:url(#radial-gradient-28);}.cls-38{fill:url(#radial-gradient-29);}.cls-39{fill:url(#radial-gradient-30);}.cls-40{fill:url(#radial-gradient-31);}.cls-41{fill:url(#radial-gradient-32);}.cls-42{fill:url(#New_Gradient_Swatch_2-9);}.cls-43{fill:url(#radial-gradient-33);}.cls-44{fill:url(#radial-gradient-34);}.cls-45,.cls-51{opacity:0.35;}.cls-45{fill:url(#New_Gradient_Swatch_2-10);}.cls-46{fill:url(#radial-gradient-35);}.cls-47{fill:url(#New_Gradient_Swatch_2-11);}.cls-48{fill:url(#radial-gradient-36);}.cls-49{fill:#333;opacity:0.2;}.cls-50{fill:url(#radial-gradient-37);}.cls-51{fill:url(#radial-gradient-38);}.cls-52{fill:url(#radial-gradient-39);}.cls-53{fill:url(#radial-gradient-40);}.cls-54{fill:url(#radial-gradient-41);}.cls-55{fill:url(#radial-gradient-42);}.cls-56{fill:url(#radial-gradient-43);}.cls-57{fill:url(#radial-gradient-44);}.cls-58{fill:url(#linear-gradient);}.cls-59{fill:#4d4d4d;}.cls-60{fill:url(#radial-gradient-45);}.cls-61{fill:url(#radial-gradient-46);}.cls-62{fill:url(#linear-gradient-2);}.cls-63{fill:url(#New_Gradient_Swatch_2-12);}</style><radialGradient id="radial-gradient" cx="32.79" cy="21.42" r="20.59" gradientUnits="userSpaceOnUse"><stop offset="0" stop-color="#2b1509"/><stop offset="1" stop-color="#4a2713"/></radialGradient><radialGradient id="radial-gradient-2" cx="27.11" cy="24.2" r="12.44" gradientUnits="userSpaceOnUse"><stop offset="0" stop-color="#fff"/><stop offset="1" stop-color="#54392d"/></radialGradient><radialGradient id="radial-gradient-3" cx="14.25" cy="2.92" r="5.2" gradientUnits="userSpaceOnUse"><stop offset="0" stop-color="#3d1e0d"/><stop offset="1" stop-color="#522b15"/></radialGradient><radialGradient id="radial-gradient-4" cx="15.9" cy="2.52" r="5.53" xlink:href="#radial-gradient-2"/><radialGradient id="radial-gradient-5" cx="29.07" cy="35.7" r="15.92" xlink:href="#radial-gradient-3"/><radialGradient id="radial-gradient-6" cx="31.05" cy="2.41" r="30.53" xlink:href="#radial-gradient-3"/><radialGradient id="radial-gradient-7" cx="27.92" cy="13.72" r="21.79" xlink:href="#radial-gradient-2"/><radialGradient id="radial-gradient-8" cx="16.42" cy="23.67" r="26.84" xlink:href="#radial-gradient-3"/><radialGradient id="radial-gradient-9" cx="26.16" cy="13.13" r="20.06" gradientUnits="userSpaceOnUse"><stop offset="0"/><stop offset="1" stop-color="#54392d"/></radialGradient><radialGradient id="New_Gradient_Swatch_2" cx="20.52" cy="24.99" r="36.08" gradientUnits="userSpaceOnUse"><stop offset="0" stop-color="#54392d"/><stop offset="1" stop-color="#fff"/></radialGradient><radialGradient id="radial-gradient-10" cx="21.61" cy="0.11" r="28.98" gradientUnits="userSpaceOnUse"><stop offset="0" stop-color="#6b3e22"/><stop offset="1" stop-color="#572f19"/></radialGradient><radialGradient id="radial-gradient-11" cx="9.3" cy="43.97" r="42.29" gradientUnits="userSpaceOnUse"><stop offset="0" stop-color="#572b12"/><stop offset="1" stop-color="#69381d"/></radialGradient><radialGradient id="radial-gradient-12" cx="22.55" cy="9.21" r="58.81" xlink:href="#radial-gradient-3"/><radialGradient id="New_Gradient_Swatch_2-2" cx="32.24" cy="19.18" r="19.04" xlink:href="#New_Gradient_Swatch_2"/><radialGradient id="New_Gradient_Swatch_2-3" cx="19.71" cy="-18.28" r="46.91" xlink:href="#New_Gradient_Swatch_2"/><radialGradient id="radial-gradient-13" cx="24.54" cy="4.7" r="23.14" gradientUnits="userSpaceOnUse"><stop offset="0" stop-color="#30180a"/><stop offset="1" stop-color="#522b15"/></radialGradient><radialGradient id="New_Gradient_Swatch_2-4" cx="10.03" cy="21.73" r="36.47" xlink:href="#New_Gradient_Swatch_2"/><radialGradient id="radial-gradient-14" cx="27.98" cy="14.31" r="35.71" xlink:href="#radial-gradient-11"/><radialGradient id="radial-gradient-15" cx="18.86" cy="16.69" r="18.49" xlink:href="#radial-gradient-3"/><radialGradient id="radial-gradient-16" cx="15.84" cy="13.98" r="43.41" xlink:href="#radial-gradient-2"/><radialGradient id="New_Gradient_Swatch_2-5" cx="25.98" cy="29.32" r="15.32" xlink:href="#New_Gradient_Swatch_2"/><radialGradient id="radial-gradient-17" cx="40.74" cy="16.65" r="30.47" xlink:href="#radial-gradient-2"/><radialGradient id="radial-gradient-18" cx="10.78" cy="11.78" r="21.79" gradientUnits="userSpaceOnUse"><stop offset="0" stop-color="#54392d"/><stop offset="1"/></radialGradient><radialGradient id="radial-gradient-19" cx="7.52" cy="20.18" r="12.26" xlink:href="#radial-gradient-18"/><radialGradient id="New_Gradient_Swatch_2-6" cx="19.18" cy="13.03" r="14.09" xlink:href="#New_Gradient_Swatch_2"/><radialGradient id="New_Gradient_Swatch_2-7" cx="12.25" cy="16.84" r="20.23" xlink:href="#New_Gradient_Swatch_2"/><radialGradient id="radial-gradient-20" cx="6.27" cy="28.77" r="24.6" gradientUnits="userSpaceOnUse"><stop offset="0" stop-color="#3c2252"/><stop offset="1"/></radialGradient><radialGradient id="radial-gradient-21" cx="-0.72" cy="18.03" r="26.34" xlink:href="#radial-gradient-11"/><radialGradient id="radial-gradient-22" cx="29.38" cy="19.93" r="23.69" xlink:href="#radial-gradient-18"/><radialGradient id="radial-gradient-23" cx="23.91" cy="31.37" r="9.96" xlink:href="#radial-gradient"/><radialGradient id="radial-gradient-24" cx="18.41" cy="11.97" r="26.67" xlink:href="#radial-gradient-18"/><radialGradient id="radial-gradient-25" cx="0.08" cy="-0.19" r="24.67" xlink:href="#radial-gradient-20"/><radialGradient id="radial-gradient-26" cx="-0.1" cy="48.02" r="32.75" xlink:href="#radial-gradient-18"/><radialGradient id="New_Gradient_Swatch_2-8" cx="10.44" cy="12.24" r="14.58" xlink:href="#New_Gradient_Swatch_2"/><radialGradient id="radial-gradient-27" cx="24.94" cy="17.05" r="7.89" xlink:href="#radial-gradient-18"/><radialGradient id="radial-gradient-28" cx="9.25" cy="29.76" r="17.21" xlink:href="#radial-gradient-18"/><radialGradient id="radial-gradient-29" cx="34.84" cy="26.26" r="15.04" xlink:href="#radial-gradient-2"/><radialGradient id="radial-gradient-30" cx="37.13" cy="29.35" r="27.37" xlink:href="#radial-gradient-3"/><radialGradient id="radial-gradient-31" cx="27.02" cy="36.58" r="11.26" xlink:href="#radial-gradient-2"/><radialGradient id="radial-gradient-32" cx="21.87" cy="28.62" r="17.72" xlink:href="#radial-gradient-11"/><radialGradient id="New_Gradient_Swatch_2-9" cx="28.08" cy="27.63" r="12.67" xlink:href="#New_Gradient_Swatch_2"/><radialGradient id="radial-gradient-33" cx="24.94" cy="22.4" r="11.02" gradientUnits="userSpaceOnUse"><stop offset="0" stop-color="#69381d"/><stop offset="1" stop-color="#572b12"/></radialGradient><radialGradient id="radial-gradient-34" cx="23.47" cy="34.17" r="23.99" xlink:href="#radial-gradient-18"/><radialGradient id="New_Gradient_Swatch_2-10" cx="21.84" cy="38.36" r="6.63" xlink:href="#New_Gradient_Swatch_2"/><radialGradient id="radial-gradient-35" cx="19.03" cy="26.19" r="21.11" xlink:href="#radial-gradient-2"/><radialGradient id="New_Gradient_Swatch_2-11" cx="9.86" cy="22.5" r="5.63" xlink:href="#New_Gradient_Swatch_2"/><radialGradient id="radial-gradient-36" cx="21.59" cy="33.75" r="7.74" gradientUnits="userSpaceOnUse"><stop offset="0" stop-color="#85593f"/><stop offset="1" stop-color="#6e452e"/></radialGradient><radialGradient id="radial-gradient-37" cx="9.95" cy="21.4" r="13.18" xlink:href="#radial-gradient-3"/><radialGradient id="radial-gradient-38" cx="24.67" cy="39.55" r="16.13" xlink:href="#radial-gradient-20"/><radialGradient id="radial-gradient-39" cx="23.36" cy="28.11" r="16.43" xlink:href="#radial-gradient-2"/><radialGradient id="radial-gradient-40" cx="15.2" cy="-9.88" r="14.2" xlink:href="#radial-gradient-18"/><radialGradient id="radial-gradient-41" cx="13.43" cy="2.31" r="6.64" xlink:href="#radial-gradient-10"/><radialGradient id="radial-gradient-42" cx="7.78" cy="20.74" r="17.32" xlink:href="#radial-gradient-3"/><radialGradient id="radial-gradient-43" cx="8.51" cy="23.81" r="4.37" xlink:href="#radial-gradient-9"/><radialGradient id="radial-gradient-44" cx="12.17" cy="27.34" r="20.9" xlink:href="#radial-gradient-10"/><linearGradient id="linear-gradient" x1="7.76" y1="19.74" x2="10.97" y2="23.87" gradientUnits="userSpaceOnUse"><stop offset="0" stop-color="#4f4954"/><stop offset="1" stop-color="#211f24"/></linearGradient><radialGradient id="radial-gradient-45" cx="11.15" cy="25.64" r="8.19" gradientUnits="userSpaceOnUse"><stop offset="0.41"/><stop offset="1" stop-color="#363636"/></radialGradient><radialGradient id="radial-gradient-46" cx="26.28" cy="29.97" r="1.08" gradientUnits="userSpaceOnUse"><stop offset="0" stop-color="#f2b04d"/><stop offset="1" stop-color="#6e390a"/></radialGradient><linearGradient id="linear-gradient-2" x1="26.37" y1="30.33" x2="27.25" y2="30.33" gradientUnits="userSpaceOnUse"><stop offset="0" stop-color="#ba873b"/><stop offset="1" stop-color="#6e390a"/></linearGradient><radialGradient id="New_Gradient_Swatch_2-12" cx="7.29" cy="22.5" r="19.2" xlink:href="#New_Gradient_Swatch_2"/></defs><g class="cls-1"><g id="Calque_2" data-name="Calque 2"><g id="Layer_1" data-name="Layer 1"><path class="cls-2" d="M31.16,30.82c.91-.29,2.22-.71,2.45-1.78.17-.8-.32-3.86,0-5.68l-2.19-.1c-.57,1.67.24,6.29-.3,7.56Z"/><path class="cls-3" d="M33.44,27.16c-.27,1.31-1.06,1.71-2.09,2.23a4.31,4.31,0,0,1-.19,1.43c.91-.29,2.22-.71,2.45-1.78a18.76,18.76,0,0,0-.06-2.69,7.5,7.5,0,0,1-.11.81Z"/><path class="cls-4" d="M15.4,0C13.85.29,15,3.47,17.21,3.74c.15-1.31-.33-4-1.81-3.72Z"/><path class="cls-5" d="M15.23,2.47a1,1,0,0,1,.87-1.12.94.94,0,0,1,1,.68C16.9.91,16.36-.15,15.4,0s-.88,1.44-.17,2.45Z"/><path class="cls-6" d="M31.36,30.7a13,13,0,0,0-1.61,1,6.65,6.65,0,0,0-.84.84V37c.65-.86,1.22-2.07,1.9-3.07s1.7-1.91,2.24-2.85A4.07,4.07,0,0,0,33.62,29c-.22.91-1.53,1.34-2.26,1.72Z"/><path class="cls-7" d="M27.35,2.34c1.72.75,2.64,2.85,3,5.44a84.19,84.19,0,0,1,.5,12.82c0,.7,0,1.1,0,1.5.05,2.55,2.79,2.45,3.44.6a6.41,6.41,0,0,0,.23-.78c.94-4.16,1.27-18-2.59-20.44-1.16-.72-3.48-.13-4.57.86Z"/><path class="cls-8" d="M30.24,7.09a.75.75,0,0,1,.35-.44c1.12-.53,2.85.18,3.63,1a3.87,3.87,0,0,1,.56.86c-.44-3.3-1.31-6.11-2.86-7.07-1.16-.72-3.48-.13-4.57.86,1.56.68,2.46,2.48,2.89,4.75Z"/><path class="cls-9" d="M10.85,4.57l15.45.06A9.25,9.25,0,0,1,27.36,3a4.2,4.2,0,0,1,4.15-1.74,14,14,0,0,0-4-.86C25.8.36,24.24,1.26,22.75,2a14.89,14.89,0,0,1-3.86,1.48A3.35,3.35,0,0,1,15.2,1.82C15,1.43,14.76.24,15.4,0a8,8,0,0,0-2,.61c-.33.19-.65.41-1,.61a6.81,6.81,0,0,0-.63.41,3.7,3.7,0,0,0-.21.33c-.24.28-.33.3-.32.69a2.4,2.4,0,0,1-.44,1.9Z"/><path class="cls-10" d="M31.41,19a1.48,1.48,0,0,1-.52-.56c0,.72,0,1.43,0,2.12s0,1.1,0,1.5c.05,2.55,2.79,2.45,3.44.6a6.41,6.41,0,0,0,.23-.78,40.83,40.83,0,0,0,.61-8.18,9,9,0,0,1-1.61,4.51c-.61.74-1.41,1.3-2.1.79Z"/><path class="cls-11" d="M18.89,3.47A4,4,0,0,1,17.2,3.4c-.33,0-.69.06-1.07.07-1.85.08-3.67,0-4.84-.85a2.47,2.47,0,0,1-.44,2l15.45.06A9.25,9.25,0,0,1,27.36,3a6,6,0,0,1,.42-.46c-1.35-.81-2.89-.57-5-.19-.57.1-1.08.21-1.55.31a10.68,10.68,0,0,1-2.38.78Z"/><path class="cls-12" d="M26.07,4.5c2.68-4.55,6.52-5,8.2.49,1.51,4.95,1.1,11,.33,16.54.4-5,.78-9.41-.2-14.36C33.75,3.88,32.63,1.85,31,1.49c-1.23-.26-2.95.7-4.42,3.26a.27.27,0,0,1-.36.11.26.26,0,0,1-.11-.36Z"/><path class="cls-13" d="M25.42,4.22A6.44,6.44,0,0,0,22.52,4,8.17,8.17,0,0,0,19,5.73L3.76,17.1c-.14,5.69-.3,11.21-.67,16.9-.11,1.67.25,1.29.27,2.6.05,3.36,4.05,2.71,6.47,2.79,2.7.13,5.39.78,8.06,1.06a22,22,0,0,0,5.56-.12,8.62,8.62,0,0,0,3.38-1.59c.49-.37,1.07-.85,1.58-1.22,1-.73.87-1.94.79-3.34-.11-2.06-.41-4.1-.57-6.15s-.32-2.24-.34-4.17c0-.54.36-1.36.33-1.6-.08-.52-.39-1.76-.4-2,0-.47.2-.94.16-1.41-.17-2-.23-4.24-.36-6,.82-2.34,1.86-5.74-.47-7.6a6.45,6.45,0,0,0-2.13-1Z"/><path class="cls-14" d="M25.42,4.22l-.27-.08a6.17,6.17,0,0,0-1.65-.21c-3.05.28-2.8,4.94-3.08,7.69a67.94,67.94,0,0,0,.1,7.93c.09.59.54.77.49,1.36-.06.78-.56,4.27-.58,6.18A10.37,10.37,0,0,0,21,30.56a7.73,7.73,0,0,1,.32,1.2c.07.46-.22,1.1-.14,1.83.25,2.42,2.29,6.44.27,6.95a15.59,15.59,0,0,0,2.05-.21,8.62,8.62,0,0,0,3.38-1.59c.49-.37,1.07-.85,1.58-1.22,1-.73.87-1.94.79-3.34-.11-2.06-.41-4.1-.57-6.15s-.32-2.24-.34-4.17c0-.54.36-1.36.33-1.6-.08-.52-.39-1.76-.4-2,0-.47.2-.94.16-1.41-.17-2-.23-4.24-.36-6,.82-2.34,1.86-5.74-.47-7.6a6.45,6.45,0,0,0-2.13-1Z"/><path class="cls-15" d="M21.06,30.92c.34-1.5,3.11-2,4.36-2.13A4.46,4.46,0,0,1,28.81,30c-.07-.65-.13-1.29-.18-1.94-.15-1.92-.32-2.24-.34-4.17a3.77,3.77,0,0,1,.18-.95c-.85,1-6.91.12-7.51-1.49-.15,1.26-.51,4-.53,5.67A10.37,10.37,0,0,0,21,30.56c0,.12.08.24.11.36Z"/><path class="cls-16" d="M20.42,11.62c-.08.85-.1,4.19,0,6.33a.3.3,0,0,0,.1.15,24.66,24.66,0,0,0,6.6,1.38c.53,0,1,0,1.26-.23a2,2,0,0,0,0-.42c-.17-2-.23-4.24-.36-6,.82-2.34,1.86-5.74-.47-7.6a6.45,6.45,0,0,0-2.13-1l-.27-.08a6.17,6.17,0,0,0-1.65-.21c-3.05.28-2.8,4.94-3.08,7.69Z"/><path class="cls-17" d="M26.34,7.38a13.87,13.87,0,0,1,1.65,5l0,.49c.82-2.34,1.86-5.74-.47-7.6a6.45,6.45,0,0,0-2.13-1l-.27-.08a6.17,6.17,0,0,0-1.65-.21,2.44,2.44,0,0,0-.73.17,14.45,14.45,0,0,1,3.57,3.28Z"/><path class="cls-18" d="M7.93,35.18c3.27.15,6.67,1.59,10,2.09,2.18.33,1.91-2,1.74-3.33L3.1,33.86V34a3.74,3.74,0,0,0,.18,1.77,12.26,12.26,0,0,1,4.66-.59Z"/><path class="cls-19" d="M3.13,17.71,19.39,17a92.38,92.38,0,0,0-.19,12.12c.13,2.92.26,2.58.52,5.3.06.75-1.64,1.15-2.22,1.12-1.71-.09-3.38-.44-5.07-.66-1.34-.17-2.66-.44-4-.52-1.65-.06-3.11.12-4.74.18-1.25,0-1.29-.78-1.46-1.83a31.85,31.85,0,0,1-.18-4.89c0-1.19-.6-1.18-.1-2.42a9.37,9.37,0,0,0,.88-2.63c.19-1.56.2-3,.27-4.53l0-.55Z"/><path class="cls-20" d="M17.08,35.19a.83.83,0,0,0,.5.34.58.58,0,0,0,.19,0c.71-.07,2-.46,1.95-1.11-.26-2.72-.39-2.38-.52-5.3A92.38,92.38,0,0,1,19.39,17l-2.51.11a14,14,0,0,0-.53,3.67c0,1.8.25,4.68,0,5.49a23,23,0,0,0-1,3.34,21.68,21.68,0,0,0,1.74,5.56Z"/><path class="cls-21" d="M26.34,7.38a13.35,13.35,0,0,0-3-2.9,2.09,2.09,0,0,0-.53.5,6.55,6.55,0,0,0-.71,2.43c.87-.38,2-.1,3.19,1s2.4,4.16,2.61,5.82A19.13,19.13,0,0,1,28,18c-.09,1.52-1.32,2-.93,2.32.67.56,1.57,1.73,1.37,2.16s-.61,1-.77,1.42.7,4.42.82,5.31c.37,2.74.78,5.91-1.36,8.07-1.88,1.9-6.41,3.07-9,2.38-.63-.17-9.09-2.74-10.66-1.81-.21.12.45.32.44.56s-2.15.48-2.6.33-1.69-1-1.7-1.67c0-.28.18-.55.14-.83s-.31-.49-.41-.75a4.66,4.66,0,0,1-.23-1.36c-.08,1.52.26,1.2.28,2.47.05,3.36,4.05,2.71,6.47,2.79,2.7.13,5.39.78,8.06,1.06a22,22,0,0,0,5.56-.12,8.62,8.62,0,0,0,3.38-1.59c.49-.37,1.07-.85,1.58-1.22,1-.73.87-1.94.79-3.34-.11-2.06-.41-4.1-.57-6.15s-.32-2.24-.34-4.17c0-.54.36-1.36.33-1.6-.08-.52-.39-1.76-.4-2,0-.47.2-.94.16-1.41-.17-2-.23-4.24-.36-6l0-.49a13.87,13.87,0,0,0-1.65-5Z"/><path class="cls-22" d="M21.32,27.05l6.75-2.77a3.35,3.35,0,0,0-.63,0c-.93.21-1.73.62-2.79.8-.84.15-2.55.11-3.06.9a1.92,1.92,0,0,0-.27,1.09Z"/><path class="cls-23" d="M20.39,17.38a3.32,3.32,0,0,0,1.44-1.9c.63-1.87.83-4.74,1.27-6.82a5.86,5.86,0,0,1,1.43-3.21A19.38,19.38,0,0,0,22.77,4.1c-2.28.92-2.1,5-2.35,7.52-.07.78-.09,3.64,0,5.76Z"/><path class="cls-24" d="M7.37,26.26c-.59-.19-2.62-.68-3.84-1.15a2.21,2.21,0,0,1-.93-.53.86.86,0,0,1-.12-.42c-.16.41-.34.82-.53,1.26-.5,1.24.1,1.23.1,2.42a31.85,31.85,0,0,0,.18,4.89c.14.83.19,1.51.84,1.74a1.85,1.85,0,0,0,.62.09c1.63-.06,3.09-.24,4.74-.18,1.34.08,2.66.35,4,.52,1.69.22,3.36.57,5.07.66h.27a.58.58,0,0,1-.19,0,.83.83,0,0,1-.5-.34,21.68,21.68,0,0,1-1.74-5.56,23,23,0,0,1,1-3.34,1,1,0,0,0,0-.12,2.18,2.18,0,0,1-1.67.75,55.81,55.81,0,0,1-7.3-.66Z"/><path class="cls-25" d="M2,25.42c-.44,1.08,0,1.21.08,2a1.55,1.55,0,0,1,.43-.27,5.43,5.43,0,0,1,1-.13,18,18,0,0,1,4.22.19c.93.25,6.71,2.26,7.33,2.82a2.24,2.24,0,0,1,.5.65,4.24,4.24,0,0,1-.16-1.06,23,23,0,0,1,1-3.34,1,1,0,0,0,0-.12,2.18,2.18,0,0,1-1.67.75,55.81,55.81,0,0,1-7.3-.66c-.59-.19-2.62-.68-3.84-1.15a2.21,2.21,0,0,1-.93-.53.86.86,0,0,1-.12-.42c-.16.41-.34.82-.53,1.26Z"/><path class="cls-26" d="M16.4,19.75c1.09-.51,2.24-.69,2.81.07,0-.9.1-1.82.18-2.8l-2.51.11a16.45,16.45,0,0,0-.48,2.62Z"/><path class="cls-27" d="M3.05,19.53c2.16.2,4.93.59,6.39.64,2.27.09,4.58-.5,7-.42a16.45,16.45,0,0,1,.48-2.62l-13.75.58,0,.55c0,.43,0,.85-.05,1.27Z"/><path class="cls-28" d="M3.55,21.59c0-1.29-.16-2.59-.26-3.88H3.13l0,.55c-.07,1.55-.08,3-.27,4.53A9.37,9.37,0,0,1,2,25.42c-.5,1.24.1,1.23.1,2.42a31.85,31.85,0,0,0,.18,4.89c.14.87.19,1.57.94,1.77a.74.74,0,0,1-.33-.25c-.66-1-.9-6.9-.52-7.49.5-.79,3.31-.5,4.16-.46a36.45,36.45,0,0,0-3.84-.64c-.79-.05-.11-.58.22-1,.83-1.16.75-1.61.69-3Z"/><path class="cls-29" d="M25.42,4.22a9.25,9.25,0,0,0-4.07-.51,59,59,0,0,1-8.4.68c-1.2,0-2.41,0-3.61,0C5.25,4.23,4.81,4,3,7.32a31,31,0,0,0-2,4.53A23.47,23.47,0,0,0,.13,15c-.71,3.72,1.48,3.48,4.42,4.19,5.68,1.36,7.51.78,13.09-.36,1.61-.33,2.74-.72,3.28-2.39C21.63,14,21.7,6.4,22.77,5a2.35,2.35,0,0,1,2.65-.76Z"/><path class="cls-30" d="M12.11,12.78c-.75,2-.63,3.92-1.36,5.92-.35,1-2.67,1-4.1,1,4.14.75,6.16.17,11-.81,1.61-.33,2.74-.72,3.28-2.39C21.63,14,21.7,6.4,22.77,5a2.35,2.35,0,0,1,2.65-.76,9.25,9.25,0,0,0-4.07-.51,59,59,0,0,1-8.4.68c-1,0-2.06,0-3.1,0,1.67.22,3.85.73,3.9,2.53a17.08,17.08,0,0,1-.48,3c0,.33.08.69-.08,1-.25.49-.88,1.4-1.08,1.91Z"/><path class="cls-31" d="M21.39,28.35a5.53,5.53,0,0,1,0-1.86.82.82,0,0,1,1.3-.28c.84.63.53,1.81.39,2.69a1.58,1.58,0,0,1-1.54-.22.78.78,0,0,1-.16-.33Z"/><path class="cls-32" d="M20.92,16.46C21.63,14,21.7,6.4,22.77,5a2.35,2.35,0,0,1,2.65-.76c-1.82-.61-3.17,0-3.57,2.4s-.61,5-.9,7.5-.41,3.73-3.1,4.49A46.11,46.11,0,0,1,11.39,20a55,55,0,0,0,6.25-1.1c1.61-.33,2.74-.72,3.28-2.39Z"/><path class="cls-33" d="M4.1,6.49C5.25,4.6,7,4.74,8.67,5c2,.36,3.47.45,5.45.88.84.17,1.6.32.32-.31-.69-.34-1.58-.84-1.15-1a17.93,17.93,0,0,1,2.24-.27c-.77,0-1.63.06-2.58,0-1.2,0-2.41,0-3.61,0C5.25,4.23,4.81,4,3,7.32a31,31,0,0,0-2,4.53A23.47,23.47,0,0,0,.13,15c-.34,1.79,0,2.67.76,3.17C-.54,16.93,3,8.35,4.1,6.49Z"/><path class="cls-34" d="M7.94,37.24c-.25,0-.93.09-1.05.36,0,.12.18.3.08.37a2.29,2.29,0,0,1-2.76-.48C3.4,36.31,7,35.75,7.67,35.77a31.74,31.74,0,0,1,6.62,1.94c1.12.42,1.82.81,1.74.92a5.12,5.12,0,0,1-2-.36,25.68,25.68,0,0,0-6.13-1Z"/><path class="cls-35" d="M5.74,22.05c.49.66,2.46,3,3.47,3,1.5,0,4.78-2.43,5.37-3.43.05-.09-.35-.08-.76.07-1.3.47-3.63,1.4-4.47,1.36a16.93,16.93,0,0,1-3.12-1c-.16-.05-.59-.09-.49,0Z"/><path class="cls-36" d="M21.27,19.56c-.88-.19-1.39.86-1.26,1,1.71,1.76,6.61,2.36,7.75,1.61.36-.25-1.77-.62-3.63-1.32-1.42-.53-2.66-1.24-2.86-1.28Z"/><path class="cls-37" d="M4.09,34.39c1.52-.12,2.69-.29,4.15-.37.29,0,4,.67,5.67,1,1.23.22.25-.26-.19-.41a36.64,36.64,0,0,0-6.07-1.72.11.11,0,0,0-.13.08c0,.12.11.26,0,.36a23.61,23.61,0,0,1-3.51.88c-.33.09-.37.25,0,.21Z"/><path class="cls-38" d="M30.67,33.11a3.11,3.11,0,0,1,0-1.86,1.11,1.11,0,0,1,.17-.27,6.31,6.31,0,0,0-1.11.7,6.65,6.65,0,0,0-.84.84V37c.65-.86,1.22-2.07,1.9-3.07a4.85,4.85,0,0,1,.35-.48c-.19.06-.38,0-.49-.32Z"/><path class="cls-39" d="M21.39,28.35c.07.66.11,1.45.21,2.09a11.73,11.73,0,0,1,.54,2.64,6.79,6.79,0,0,0,.08,1.85,17.16,17.16,0,0,0,.85,3.41,1.7,1.7,0,0,0,1.53.17,16.8,16.8,0,0,1,1.51-.84,14.34,14.34,0,0,1,3.51-1.05l.08,0c.18-.15.49-.34.43-.57-.1-.39-.22-.79-.35-1.21a49.13,49.13,0,0,1-1.4-7.62c-1.68.29-3.32.59-5,.86-.1,1.17-1.92,1.24-2,.29Z"/><path class="cls-40" d="M23.74,33.58c.65-1.14,4.15-2.26,5.38-1.48-.32-1.62-.54-3.26-.74-4.9-1.68.29-3.32.59-5,.86a1.14,1.14,0,0,1-.08.33,28,28,0,0,0,.33,4.74c0,.15.06.3.1.45Z"/><path class="cls-41" d="M24.49,38.56a.75.75,0,0,0,.32-.76c-.23-1.37-.9-3.3-1.17-4.67a30.38,30.38,0,0,1-.33-5c0,.94-1.84,1.1-1.92.21.07.66.11,1.45.21,2.09a11.73,11.73,0,0,1,.54,2.64,6.79,6.79,0,0,0,.08,1.85,17.16,17.16,0,0,0,.85,3.41,1.83,1.83,0,0,0,1.42.22Z"/><path class="cls-42" d="M22.94,33.4a1.94,1.94,0,0,0,.8.18c0-.15-.07-.3-.1-.45a30.18,30.18,0,0,1-.33-5c0,.45-.43.71-.87.77a12.06,12.06,0,0,1-.21,1.45c-.15.9-.25,2.55.71,3Z"/><path class="cls-43" d="M21.4,26.49a.71.71,0,0,1,1-.36,1.43,1.43,0,0,1,.55.76,6.79,6.79,0,0,1-.26,3.54c-.12.48-.22,1.5.29,1.8a2.91,2.91,0,0,0,1.68,0c.86-.23,1.71-.52,2.56-.81a11.85,11.85,0,0,0,1.5-.57c.82-.41,1-1.89,1.11-2.71a8.07,8.07,0,0,0-.25-3.39,1,1,0,0,0-1.35-.65,28.54,28.54,0,0,1-3.27,1.29c-.89.26-1.9.33-2.78.5a.88.88,0,0,0-.76.61Z"/><path class="cls-44" d="M23.25,27.86a8.57,8.57,0,0,1,2-1,21.54,21.54,0,0,1,2.64-.85l.51-.12c.32-.07.63-.13.93-.17a.69.69,0,0,1,.47.07,6.05,6.05,0,0,0-.25-1.09,2,2,0,0,0-.17-.32c-.36-.3-.59-.31-1.09-.09l-.06,0-.57.26a13.77,13.77,0,0,1-1.75.79,15.36,15.36,0,0,1-3.51.6l-.1,0-.12,0,.19.07a1.43,1.43,0,0,1,.55.76A3.17,3.17,0,0,1,23.09,28l.16-.11Z"/><path class="cls-45" d="M22.63,33.75c-.3,0-.36.52-.34.72.16,1,.39,2.07.65,3.1a1,1,0,0,0,.76.8c.64.11.95-.12.81-.76-.21-1-1.29-3.85-1.88-3.86Z"/><path class="cls-46" d="M23.82,30.37c-.61-.1-.88-.33-1-.59-.06.22-.11.44-.16.65-.12.48-.22,1.5.29,1.8a2.91,2.91,0,0,0,1.68,0c.86-.23,1.71-.52,2.56-.81a11.85,11.85,0,0,0,1.5-.57c.82-.41,1-1.89,1.11-2.71,0-.11,0-.23.05-.35-.93,2-3.57,3-6,2.59Z"/><path class="cls-47" d="M8.27,25.58c0-.45.05-.92.07-1.39,0-.27,0-.54,0-.8h2c0,.35,0,.7,0,1.05s0,.95-.06,1.44a2.31,2.31,0,0,1-1.08.89,3.19,3.19,0,0,1-.93-1.19Z"/><path class="cls-48" d="M21.48,26.33c.26-.42,1.32-.77,1.58.67a7.58,7.58,0,0,1-.27,3.08,2.33,2.33,0,0,0,.16,2c.28.29.79.25,1.29.19-.59.12-1.09.16-1.38-.09-.49-.43-.45-1.42-.21-2.41A7.62,7.62,0,0,0,22.89,27a1.27,1.27,0,0,0-.37-.76.71.71,0,0,0-1,.07Z"/><path class="cls-49" d="M8.46,20.73c.95,0,1.9,0,2.86.07-.09.53-.22,2.23-.41,3.19-.86,0-2.64-.12-2.77-.16a26.6,26.6,0,0,1,.32-3.1Z"/><path class="cls-50" d="M8.13,25.2c.06-.41.12-.83.17-1.27.1-.86.22-1.72.26-2.59l2,.08c0,1-.16,1.87-.26,2.74,0,.44-.11.87-.18,1.31A2.43,2.43,0,0,1,9,26.28a2.46,2.46,0,0,1-.84-1.08Z"/><path class="cls-51" d="M24.18,35.25c.25.89.5,1.8.63,2.55a.75.75,0,0,1-.32.76l.11-.05a16.8,16.8,0,0,1,1.51-.84,14.34,14.34,0,0,1,3.51-1.05l.08,0c.18-.15.49-.34.43-.57-.1-.39-.22-.79-.35-1.21s-.2-.71-.29-1.07a.68.68,0,0,0-.6-.53,5.28,5.28,0,0,0-4.59,1.5.57.57,0,0,0-.12.53Z"/><path class="cls-52" d="M27.65,36.46a24.11,24.11,0,0,0-2.21,1.12.7.7,0,0,1-.52.09.34.34,0,0,1-.16-.13c0,.09,0,.18,0,.26a.75.75,0,0,1-.32.76l.11-.05a16.8,16.8,0,0,1,1.51-.84,14.34,14.34,0,0,1,3.51-1.05l.08,0c.18-.15.49-.34.43-.57l-.05-.17c0,.13,0,.28-.12.31-.75.21-1.54,0-2.31.29Z"/><path class="cls-53" d="M11.83,1.9A9.19,9.19,0,0,1,15,.75c0-.33.11-.63.4-.73a8,8,0,0,0-2,.61c-.33.19-.65.41-1,.61a6.81,6.81,0,0,0-.63.41,3.7,3.7,0,0,0-.21.33c-.1.12-.18.19-.23.26a2.66,2.66,0,0,1,.45-.34Z"/><path class="cls-54" d="M19.08,3.44a3.66,3.66,0,0,1-3.18-.58A2.16,2.16,0,0,1,15.11.28a2.32,2.32,0,0,0,1.06,2.47,4.31,4.31,0,0,0,2.91.69Z"/><path class="cls-55" d="M11.83,15.2c-.42,1.58-.77,3.07-1,4.58-.09.54-.18,1.09-.25,1.63l-2-.07c.08-.64.17-1.27.28-1.9.24-1.4.56-2.79.93-4.22a.07.07,0,0,1,.07-.06,15.88,15.88,0,0,0,1.92,0,.08.08,0,0,1,.08,0,.08.08,0,0,1,0,.07Z"/><path class="cls-56" d="M9,24.79a1,1,0,0,1-.65-.43s-.05-.08-.07-.13c0,.12,0,.24,0,.36l-.09.61a1.57,1.57,0,0,0,.15.32,3,3,0,0,0,.69.76,2.43,2.43,0,0,0,1.14-.81c0-.22.07-.43.09-.65s.06-.42.08-.62a1.17,1.17,0,0,1-1.3.59Z"/><path class="cls-57" d="M11.67,15.12c-.41,1.57-.78,3.16-1,4.66s-.38,3-.55,4.48c-.05.44-.11.87-.17,1.31a2,2,0,0,1-.83.66,2.27,2.27,0,0,0,1-.76c.07-.44.13-.87.18-1.31.17-1.48.26-2.91.51-4.38s.61-3,1-4.58a.08.08,0,0,0,0-.07.08.08,0,0,0-.08,0Z"/><path class="cls-58" d="M8.1,20.37c1,0,1.9,0,2.86.07l.36.17c-.08.92-.19,2-.33,2.9l-.44.12c-.86,0-2.64-.12-2.77-.16a29.35,29.35,0,0,1,.32-3.1Z"/><path class="cls-59" d="M11,20.44a31.06,31.06,0,0,0-.41,3.19l.44-.12c.14-.93.25-2,.33-2.9L11,20.44Z"/><path class="cls-60" d="M8.87,21.35a1.75,1.75,0,0,1,.5-.37,1.8,1.8,0,0,1,1.26-.12l.23.1c0-.19.06-.36.1-.52h-.27c-.67,0-1.34-.06-2-.07H8.1a20.41,20.41,0,0,0-.26,2.25c0,.31,0,.61-.06.85l.56.05.43,0a.82.82,0,0,1-.38-.5,1.55,1.55,0,0,1-.05-.23,1.64,1.64,0,0,1,0-.38A1.76,1.76,0,0,1,8.47,22a1.92,1.92,0,0,1,.4-.64Z"/><path class="cls-59" d="M26.2,30.75a.5.5,0,0,0,.24.37.28.28,0,0,0,.28,0A.88.88,0,0,0,26.91,30c-.19-.22-.43-.14-.59.07a.9.9,0,0,0-.12.72Z"/><path class="cls-61" d="M26.24,30.59a.48.48,0,0,0,.54.42c.48-.09.6-.9.33-1.21a.43.43,0,0,0-.48-.13.77.77,0,0,0-.39.92Z"/><path class="cls-62" d="M26.39,30.59a.56.56,0,0,0,.24.37.3.3,0,0,0,.29,0,.88.88,0,0,0,.19-1.16c-.19-.22-.43-.14-.59.07a.91.91,0,0,0-.13.72Z"/><path class="cls-63" d="M15.66,31.28c.24.85.57,1.84.88,2.64a10.13,10.13,0,0,0,.54,1.27.83.83,0,0,0,.5.34.58.58,0,0,0,.19,0,3.75,3.75,0,0,0,.59-.11,1.41,1.41,0,0,0,1.09-1.34,1,1,0,0,0,0-.16c-.09-1.44-.84-8.21-1.77-8.09-.6.08-1.73,3.23-2,4.41a2,2,0,0,0,0,1Z"/></g></g></g></svg>