<svg xmlns="http://www.w3.org/2000/svg" xmlns:xlink="http://www.w3.org/1999/xlink" viewBox="0 0 53.73 37.21"><defs><style>.cls-1{isolation:isolate;}.cls-2{fill:#95005b;}.cls-3{fill:url(#Áåçûìÿííûé_ãðàäèåíò_638);}.cls-4{fill:url(#Áåçûìÿííûé_ãðàäèåíò_638-2);}.cls-5,.cls-6{fill:#963b66;}.cls-11,.cls-5,.cls-6,.cls-8{mix-blend-mode:multiply;}.cls-5{opacity:0.3;}.cls-6{opacity:0.5;}.cls-10,.cls-7{fill:#fff;}.cls-12,.cls-7{mix-blend-mode:soft-light;}.cls-8{fill:#ca006d;}.cls-9{fill:#ff65b1;}.cls-11,.cls-12{fill:#d73f91;}.cls-13{fill:url(#Áåçûìÿííûé_ãðàäèåíò_638-3);}.cls-14{fill:url(#Áåçûìÿííûé_ãðàäèåíò_638-4);}.cls-15{fill:#d1524a;}</style><linearGradient id="Áåçûìÿííûé_ãðàäèåíò_638" x1="35.69" y1="18.09" x2="35.69" y2="18.07" gradientTransform="translate(-3.79 9.55) rotate(15.57)" gradientUnits="userSpaceOnUse"><stop offset="0" stop-color="#de0086"/><stop offset="1" stop-color="#ff003b"/></linearGradient><linearGradient id="Áåçûìÿííûé_ãðàäèåíò_638-2" x1="46.22" y1="18.46" x2="46.22" y2="-21.16" xlink:href="#Áåçûìÿííûé_ãðàäèåíò_638"/><linearGradient id="Áåçûìÿííûé_ãðàäèåíò_638-3" x1="14.22" y1="31.63" x2="14.22" y2="31.59" gradientTransform="translate(-0.34 -19.46) rotate(-13.36)" xlink:href="#Áåçûìÿííûé_ãðàäèåíò_638"/><linearGradient id="Áåçûìÿííûé_ãðàäèåíò_638-4" x1="4.66" y1="61.07" x2="4.66" y2="21.18" gradientTransform="translate(-0.34 -19.46) rotate(-13.36)" xlink:href="#Áåçûìÿííûé_ãðàäèåíò_638"/></defs><g class="cls-1"><g id="Calque_2" data-name="Calque 2"><g id="layer1"><path class="cls-2" d="M32.71,8.49s-1.55,4-2.19,4.59-4.18,2.55-5.23,4,.53,4.62.28,5.76-1.91,2.74-2.74,4.83,3.47,5.81,3.84,6.72a7.28,7.28,0,0,1,.09,2.8L37.41,29l-.39-17Z"/><path class="cls-3" d="M25.76,36.56l0,0h0Z"/><path class="cls-4" d="M52.21,23.44a26.21,26.21,0,0,1-1.75,3.8A15.48,15.48,0,0,1,49.31,29c-.22.3-.46.58-.71.86l-.38.41-.29.29a2.68,2.68,0,0,1-.3.28,2,2,0,0,1-.21.2l-.41.36-.41.34c-.44.35-.89.67-1.35,1l-.47.3c-.46.28-.94.55-1.42.8-.32.17-.64.31-1,.47h0c-.29.14-.6.27-.9.39l-.47.19-.63.24-.79.27c-.47.16-.95.3-1.42.43l-.81.22c-.67.17-1.32.32-2,.45h0l-1,.18h0l-.06,0-.63.09c-1.36.21-2.61.34-3.67.41h-.31c-.31,0-.62,0-.9,0h-2.2a9.88,9.88,0,0,0,1.05-1.29c.1-.17.21-.35.29-.52a2.29,2.29,0,0,0,.23-.73,1.47,1.47,0,0,0,0-.5c-.09-.68-.4-1.62-.53-2.61a4,4,0,0,1,.46-2.7c.84-1.34,3.08-2.62,4.36-4a2.69,2.69,0,0,0,.91-2.25,5.06,5.06,0,0,0-.75-1.95c-.59-.9-1.23-1.36-1.1-2a3.81,3.81,0,0,1,.55-1c.45-.67,1.07-1.49,1.52-2.19a5.58,5.58,0,0,0,.46-.83,1.09,1.09,0,0,0,.13-.52,11.78,11.78,0,0,0-.37-1.56c-.17-.65-.39-1.42-.6-2.11-.32-1.06-.59-2-.63-2.09s0,0,0,0a.18.18,0,0,0,0,.07l.07.08,0,0h0l.08.05h.28l.08,0a.05.05,0,0,1,0,0h0l0,0,.09-.06.08-.07a4,4,0,0,0,.3-.29.39.39,0,0,0,.08-.1,2.19,2.19,0,0,0,.2-.22l0,0c.24-.29.52-.65.82-1l.26-.34h0a.93.93,0,0,1,.13-.15l.07-.1c.4-.5.85-1,1.35-1.56l.1-.11.09-.1L37,4.16c.11-.11.21-.22.33-.32l.07-.06.17-.16.23-.21L38.31,3l.18-.14a.91.91,0,0,1,.16-.11l.2-.14L39,2.5c.2-.13.4-.26.61-.37a.81.81,0,0,1,.18-.1l.26-.14.24-.11a1.39,1.39,0,0,1,.28-.12,1.09,1.09,0,0,1,.25-.1L41,1.49l.1,0,.19-.05.15,0,.17,0,.19-.05a.09.09,0,0,1,.07,0l.06,0,.13,0a.42.42,0,0,1,.12,0h0l.32-.05.39,0a.33.33,0,0,1,.1,0h.88a.66.66,0,0,1,.24,0h.26c.19,0,.38,0,.57.09l.13,0a7.71,7.71,0,0,1,2.26.84h0a11.89,11.89,0,0,1,5.17,6.44.14.14,0,0,1,0,.06A21.47,21.47,0,0,1,52.21,23.44Z"/><path class="cls-5" d="M45.29,1.47s-.24,0-.63-.07h0a8.52,8.52,0,0,0-6.59,2.32,6.45,6.45,0,0,0-.53.61c-4.33,5.56-3.11,7.33-4.34,6.06l-.63-2.1s0,0,0,.05l0,.07.07.08,0,0h0l.08.05h.28l.08,0a.05.05,0,0,1,0,0h0l0,0,.09-.06.08-.07a4,4,0,0,0,.3-.29.39.39,0,0,0,.08-.1,2.19,2.19,0,0,0,.2-.22l0,0c.24-.29.52-.65.82-1l.26-.34.06-.06.14-.19c.4-.5.85-1,1.35-1.56a.46.46,0,0,1,.07-.07l.12-.14L37,4.16c.11-.11.21-.22.33-.32l.07-.06.17-.16.23-.21.42-.36.07,0,.18-.14a.91.91,0,0,1,.16-.11l.2-.14L39,2.5c.2-.13.4-.26.61-.37a.81.81,0,0,1,.18-.1l.26-.14.24-.11a1.39,1.39,0,0,1,.28-.12,1.09,1.09,0,0,1,.25-.1L41,1.49l.1,0,.19-.05.15,0,.17,0,.19-.05a.09.09,0,0,1,.07,0l.06,0,.13,0a.42.42,0,0,1,.12,0h0l.32-.05.39,0h.8a.55.55,0,0,1,.18,0,.66.66,0,0,1,.24,0h.26c.19,0,.38,0,.57.09Z"/><path class="cls-5" d="M46.57,8h0a14.68,14.68,0,0,1-1.89,3.27c-2.52,3.43-5.86,5.06-8.39,5.06a4,4,0,0,1-2.72-.91,5.58,5.58,0,0,0,.46-.83,1.09,1.09,0,0,0,.13-.52,11.78,11.78,0,0,0-.37-1.56c-.17-.65-.39-1.42-.6-2.11-.32-1.06-.59-2-.63-2.09s0,0,0,0a.18.18,0,0,0,0,.07l.07.08,0,0h0l.08.05h.28l.08,0a.05.05,0,0,1,0,0h0l0,0,.09-.06.08-.07a4,4,0,0,0,.3-.29.39.39,0,0,0,.08-.1,2.19,2.19,0,0,0,.2-.22l0,0c.24-.29.52-.65.82-1l.26-.34h0a.34.34,0,0,1,.06-.06l.07-.09.07-.1c.4-.5.85-1,1.35-1.56a.46.46,0,0,1,.07-.07s0,0,0,0l.09-.1L37,4.16c.11-.11.21-.22.33-.32l.07-.06.17-.16.23-.21.42-.36.07,0,.18-.14a.91.91,0,0,1,.16-.11l.2-.14L39,2.5c.2-.13.4-.26.61-.37a.81.81,0,0,1,.18-.1l.26-.14.24-.11a1.39,1.39,0,0,1,.28-.12,1.09,1.09,0,0,1,.25-.1L41,1.49l.1,0,.19-.05.15,0,.17,0,.19-.05a.09.09,0,0,1,.07,0l.06,0,.13,0a.42.42,0,0,1,.12,0h0l.32-.05.39,0a.33.33,0,0,1,.1,0h.7a4.57,4.57,0,0,1,.92.32h0C46.46,2.27,48,4.41,46.57,8Z"/><path class="cls-6" d="M26.57,37.17h0Z"/><path class="cls-6" d="M49.31,29c-.22.3-.46.58-.71.86l-.38.41-.29.29a2.68,2.68,0,0,1-.3.28,2,2,0,0,1-.21.2l-.41.36-.41.34c-.44.35-.89.67-1.35,1l-.47.3c-.46.28-.94.55-1.42.8-.32.17-.63.32-1,.47h0c-.29.14-.6.27-.9.39l-.47.19-.63.24-.79.27c-.47.16-.95.3-1.42.43l-.81.22c-.67.17-1.32.32-2,.45h0l-1,.18h0l-.09,0-.63.09c-1.36.21-2.61.34-3.67.41h-.31c-.31,0-.62,0-.9,0H26.6a7.84,7.84,0,0,0,1.06-1.29c.1-.17.21-.35.29-.52a2.29,2.29,0,0,0,.23-.73,1.47,1.47,0,0,0,0-.5c1.78.88,4.39.8,7.21.24.67-.13,1.37-.29,2.06-.47a50.28,50.28,0,0,0,6.28-2.16A35.88,35.88,0,0,0,49.31,29Z"/><path class="cls-7" d="M26.59,37.18h0l0,0h0Z"/><path class="cls-7" d="M32.45,24.81h0a2.69,2.69,0,0,0,.91-2.25,5.06,5.06,0,0,0-.75-1.95c-.59-.9-1.23-1.36-1.1-2a3.81,3.81,0,0,1,.55-1c.45-.67,1.07-1.49,1.52-2.19a5.58,5.58,0,0,0,.46-.83A3.33,3.33,0,0,0,35.47,16a5.68,5.68,0,0,0,.82.28c5.62,1.46,10.05-7.65,10.83-3.16C47.94,17.87,39.61,31.14,32.45,24.81Z"/><path class="cls-7" d="M34.38,36.6l-.06,0-.63.09c-1.36.21-2.61.34-3.67.41h-.31c-.31,0-.62,0-.9,0H26.6a7.84,7.84,0,0,0,1.06-1.29A22.24,22.24,0,0,0,34.38,36.6Z"/><path class="cls-7" d="M48.2,27.4a18.75,18.75,0,0,1-4.5,4.36,14.58,14.58,0,0,1-7.41,2.62h0c-.31,0-.62,0-.93,0a12.61,12.61,0,0,1-7.56-2.7l-.18-.15a4,4,0,0,1,.46-2.7c.84-1.34,3.08-2.62,4.36-4a2.69,2.69,0,0,0,.91-2.25,5.06,5.06,0,0,0-.75-1.95c-.59-.9-1.23-1.36-1.1-2a3.81,3.81,0,0,1,.55-1c.45-.67,1.07-1.49,1.52-2.19a5.58,5.58,0,0,0,.46-.83,1.09,1.09,0,0,0,.13-.52,3.7,3.7,0,0,0,.77.28C41.57,16.09,46.26,8.67,46.57,8h0c.17-.38,2.43-.38,4.14,1.16a6.37,6.37,0,0,1,1.89,5h0v.28A23.07,23.07,0,0,1,48.2,27.4Z"/><path class="cls-8" d="M38.31,3l-.25.72c-.79,2.16-3.15,8.42-4.27,8.78-.17-.65-.39-1.42-.6-2.11l-.63-2.1s0,0,0,.05a.18.18,0,0,0,0,.07l.07.08,0,0h0l.08.05h.28l.08,0a.05.05,0,0,1,0,0h0l0,0,.09-.06.08-.07a4,4,0,0,0,.3-.29.39.39,0,0,0,.08-.1,2.19,2.19,0,0,0,.2-.22l0,0c.24-.29.52-.65.82-1l.26-.34h0l.2-.25c.4-.5.85-1,1.35-1.56l.1-.11.09-.1L37,4.16c.11-.11.21-.22.33-.32l.07-.06.17-.16.23-.21Z"/><path class="cls-9" d="M47.38,2.07C46,2.41,48.64,5.51,50.7,9.14s2.2,7.38,2.42,7.5S54.66,5.46,47.38,2.07Z"/><path class="cls-10" d="M43.27,17.6c-1.25-.15.86-3.08,2.31-3.91S45.67,17.89,43.27,17.6Z"/><path class="cls-8" d="M25.76,36.56l0,0h0Z"/><path class="cls-8" d="M52.21,23.44a26.21,26.21,0,0,1-1.75,3.8A15.48,15.48,0,0,1,49.31,29c-.22.3-.46.58-.71.86l-.38.41-.29.29a2.68,2.68,0,0,1-.3.28,2,2,0,0,1-.21.2l-.41.36-.41.34c-.44.35-.89.67-1.35,1l-.47.3c-.46.28-.94.55-1.42.8-.32.17-.64.31-1,.47h0c-.29.14-.6.27-.9.39l-.47.19-.63.24-.79.27c-.47.16-.95.3-1.42.43l-.81.22c-.67.17-1.32.32-2,.45h0l-1,.18h0l-.06,0-.63.09c-1.36.21-2.61.34-3.67.41h-.31c-.31,0-.62,0-.9,0H26.6a7.84,7.84,0,0,0,1.06-1.29c.1-.17.21-.35.29-.52a10.82,10.82,0,0,0,2.33.27,17,17,0,0,0,6-1.27h0l1.13-.46c1.08-.47,2.11-1,3.06-1.47A45.47,45.47,0,0,0,48.2,27.4,24.18,24.18,0,0,0,52.21,23.44Z"/><path class="cls-9" d="M40.74,2.93c-1.81,1.91,3.28.67,4.71,0S43.21.33,40.74,2.93Z"/><path class="cls-11" d="M25,17.9c.06-.92,5.21.93,6.2,1.52s2.33,2.81,2,3.79-5.35.61-6.49.13S24.85,19.63,25,17.9Z"/><path class="cls-11" d="M22.79,28.78c.41-.93,4,1.27,4.54,2.6a11.77,11.77,0,0,1,.82,3.42C28.07,35.08,24.54,33,22.79,28.78Z"/><path class="cls-11" d="M30.61,13c-.2.27,3.12,1.28,3.33,1.19s-1.18-5.64-1.2-5.65S31.06,12.33,30.61,13Z"/><path class="cls-12" d="M25.59,16.73c-.34.3,5.74,2.06,6,1.69s1.2-2.34,1.27-2.5S29.29,13.44,25.59,16.73Z"/><path class="cls-12" d="M23.09,28.14c-.26-.46,1.77-3.7,2.7-4.25s5.66.63,6.05.88S28.18,28.6,27.66,29,23.09,28.14,23.09,28.14Z"/><path class="cls-9" d="M27.2,29.24c-.19.94,1.69-.94,2-1.57S27.45,27.91,27.2,29.24Z"/><path class="cls-9" d="M31.48,18.75c-.78-.09.78-1.88,1.15-2S32.67,18.89,31.48,18.75Z"/><path class="cls-10" d="M33.59,18.92c-.54,1.64,5,1.12,6.19.09s-2.68-.16-4.3-.83S33.59,18.92,33.59,18.92Z"/><path class="cls-13" d="M20.79,8h0l.06,0Z"/><path class="cls-14" d="M26.82,20a3.05,3.05,0,0,1,.06,2.54c-.59,2-2.07,4.53-2.29,6.23a3.89,3.89,0,0,0,.63,2.65c.49.79,1.11,1.41,1.45,1.95a1.42,1.42,0,0,1,.21.43,2.66,2.66,0,0,1,.07.77q0,.31-.06.63a11,11,0,0,1-.43,1.79h-.05a0,0,0,0,1,0,0h-.78l-.76,0H24.5l-.2,0-.23,0-.49,0-.24,0h-.09l-.5-.06-.63-.08-.19,0-.27,0-1-.16-.33-.06-.45-.08-.21,0-.41-.07-.22-.05-1-.23-.25-.06c-.31-.07-.63-.15-1-.25l-.74-.2-.06,0-.18,0a33.3,33.3,0,0,1-3.91-1.46l-.07,0-.3-.14a2.64,2.64,0,0,1-.38-.18l-.37-.18-.22-.12-.49-.26,0,0-.14-.08c-.44-.24-.86-.5-1.28-.78-.16-.1-.33-.21-.49-.33l-.47-.34c-.15-.11-.31-.22-.46-.35l-.46-.38h0l-.56-.49-.55-.53c-.17-.18-.35-.36-.52-.56s-.33-.37-.5-.57l-.47-.61,0,0c-.13-.18-.27-.37-.4-.57,0,0,0,0,0-.05-.13-.2-.27-.41-.39-.63s-.27-.46-.39-.69a28.27,28.27,0,0,1-1.64-3.88A22.76,22.76,0,0,1,.37,10.43h0C1.42,5,4.6,1,8.61.18A3.73,3.73,0,0,1,9.05.1,4.64,4.64,0,0,1,9.69,0,7.43,7.43,0,0,1,11.53.1l.25,0,.36.09a3.86,3.86,0,0,1,.58.17A1.84,1.84,0,0,1,13,.49l.3.12a8.54,8.54,0,0,1,1,.51l.26.16.35.23.31.23a.25.25,0,0,1,.1.08c.09.06.18.14.27.21a3.23,3.23,0,0,1,.27.23l.37.33c.27.26.53.53.78.8l.35.39c.89,1,1.62,2.08,2.2,2.88l.22.28A.18.18,0,0,0,19.8,7l0,0a.15.15,0,0,0,.05.06c.1.13.19.25.28.35l0,0v0a.3.3,0,0,1,.08.08l0,0a1.59,1.59,0,0,0,.13.13l.13.12.1.07.08,0s.63.65,1.35,1.44c.44.48.92,1,1.32,1.47A12.5,12.5,0,0,1,24.32,12a1.22,1.22,0,0,1,.09.54,8.19,8.19,0,0,1-.09,1c-.14.9-.37,2-.5,2.86a4.4,4.4,0,0,0-.09,1.26c.11.6.85.6,1.69,1A3.74,3.74,0,0,1,26.82,20Z"/><path class="cls-5" d="M20.73,8s.63.65,1.35,1.44l-.26-.06c-.47-.11-.57-.1-.83-.39l-.09-.1h0c-.3-.35-.81-1-2-2.4a11.24,11.24,0,0,0-3.81-2.28c-.64-.28-1.3-.54-2-.79l-2.55-.95C9,1.81,7.76,1.27,7.67.82c0-.24.22-.45.94-.64A3.73,3.73,0,0,1,9.05.1,4.64,4.64,0,0,1,9.69,0,7.43,7.43,0,0,1,11.53.1l.25,0,.36.09a3.86,3.86,0,0,1,.58.17A1.84,1.84,0,0,1,13,.49l.3.12a8.54,8.54,0,0,1,1,.51l.26.16.35.23.31.23a.25.25,0,0,1,.1.08c.09.06.18.14.27.21a3.23,3.23,0,0,1,.27.23l.37.33c.27.26.53.53.78.8l.35.39c.89,1,1.62,2.08,2.2,2.88.08.09.15.19.22.28A.18.18,0,0,0,19.8,7l.07.09c.1.13.19.25.28.35l0,0,.09.1,0,0a1.59,1.59,0,0,0,.13.13l.13.12.1.07Z"/><path class="cls-5" d="M20.79,8h0Z"/><path class="cls-5" d="M24.32,12a1.22,1.22,0,0,1,.09.54,8.19,8.19,0,0,1-.09,1,2.3,2.3,0,0,1-1.79-1.49l-.09-.2c-.27-.59-.52-1.11-.76-1.59s-.37-.74-.55-1A1.71,1.71,0,0,0,21,9c-.32-.59-.6-1.05-.83-1.4h0L19.82,7a.15.15,0,0,0,.05.06c.1.13.19.25.28.35l0,0a.3.3,0,0,1,.08.08l0,0a1.59,1.59,0,0,0,.13.13l.13.12.1.07.08,0s.63.65,1.35,1.44c.44.48.92,1,1.32,1.47A12.5,12.5,0,0,1,24.32,12Z"/><path class="cls-6" d="M26.67,33.32a1.42,1.42,0,0,1,.21.43,2.66,2.66,0,0,1,.07.77q0,.31-.06.63a11,11,0,0,1-.43,1.79h-.05a0,0,0,0,1,0,0h-.78l-.76,0H24.5l-.2,0-.23,0-.49,0-.24,0h-.09l-.5-.06-.6-.07-.22,0-.27,0-1-.16-.33-.06-.45-.08-.62-.12-.22-.05-1-.23-.25-.06c-.31-.07-.63-.15-1-.25l-.74-.2-.06,0-.18,0a33.3,33.3,0,0,1-3.91-1.46l-.07,0-.3-.14a2.64,2.64,0,0,1-.38-.18l-.37-.18-.22-.12-.49-.26,0,0-.14-.08c-.44-.24-.86-.5-1.28-.78-.16-.1-.33-.21-.49-.33l-.47-.34c-.15-.11-.31-.22-.46-.35-.35-.28-.7-.57-1-.88l-.55-.53c-.17-.18-.35-.36-.52-.56s-.33-.37-.5-.57l-.47-.61,0,0c-.13-.18-.27-.37-.4-.57,0,0,0,0,0-.05-.13-.2-.27-.41-.39-.63s-.27-.46-.39-.69a28.27,28.27,0,0,1-1.64-3.88,3.89,3.89,0,0,1,.41-1.1C4.9,15.37,19.57,33,25.79,33.38A4.44,4.44,0,0,0,26.67,33.32Z"/><path class="cls-7" d="M26.89,35.15a11,11,0,0,1-.43,1.79s0,0,0,0,0,0,0,0h0a0,0,0,0,1,0,0h-.78l-.76,0H24.5l-.2,0-.23,0-.49,0-.24,0h-.09l-.5-.06-.6-.07h0l-.19,0-.27,0-1-.16-.33-.06-.45-.08-.21,0a2.57,2.57,0,0,1-.38-.08h0l-.22-.05-1-.23-.25-.06c-.31-.07-.63-.15-1-.25l-.74-.2-.06,0-.18,0a33.3,33.3,0,0,1-3.91-1.46l-.07,0-.3-.14a2.64,2.64,0,0,1-.38-.18l-.37-.18-.22-.12-.49-.26,0,0-.14-.08c-.44-.24-.86-.5-1.28-.78l.22-.32c-2.21-10.38,8,2.88,12.79,4.09l.58.11A9.74,9.74,0,0,0,26.89,35.15Z"/><path class="cls-7" d="M26.82,20a3.05,3.05,0,0,1,.06,2.54c-.59,2-2.07,4.53-2.29,6.23a3.89,3.89,0,0,0,.63,2.65c-9.31-.6-21.94-14.44-18.29-23.2A8.49,8.49,0,0,1,9.84,4.55a.24.24,0,0,1,.08-.06,4.72,4.72,0,0,1,3.19-1.11,3.86,3.86,0,0,1,2,.79,19.79,19.79,0,0,1,3.7,4.29c1.12,1.5,2.27,2.88,3.67,3.41a3.36,3.36,0,0,0,1.27.21,2.63,2.63,0,0,0,.61-.06,1.22,1.22,0,0,1,.09.54,8.19,8.19,0,0,1-.09,1c-.14.9-.37,2-.5,2.86a4.4,4.4,0,0,0-.09,1.26c.11.6.85.6,1.69,1A3.74,3.74,0,0,1,26.82,20Z"/><path class="cls-8" d="M20.79,8h0l.06,0Z"/><path class="cls-7" d="M26.82,20a3.05,3.05,0,0,1,.06,2.54C18.22,21.38,12.5,14,16.16,9.68a2.72,2.72,0,0,1,2.61-1.22,6.33,6.33,0,0,1,2.91,1.82c.68.63,1.36,1.29,2,1.8a4.86,4.86,0,0,0,.7.48,8.19,8.19,0,0,1-.09,1c-.14.9-.37,2-.5,2.86a4.4,4.4,0,0,0-.09,1.26c.11.6.85.6,1.69,1A3.74,3.74,0,0,1,26.82,20Z"/><path class="cls-8" d="M22.08,9.41c.44.48.92,1,1.32,1.47a.24.24,0,0,1-.18.12c-.66.1-1.47-.85-2.09-1.77l-.23-.37h0c-.41-.65-.69-1.21-.73-1.29h0V7.45l0,0v0a.3.3,0,0,1,.08.08l0,0a1.59,1.59,0,0,0,.13.13l.13.12.1.07.08,0S21.36,8.62,22.08,9.41Z"/><path class="cls-9" d="M2.32,8.86c-.84,5.16,5.31-.72,7.81-4.7S4.15-2.41,2.32,8.86Z"/><path class="cls-10" d="M25.42,18.71a4.64,4.64,0,0,1-2,0c-3.85-.82-5.61-3.83-5.19-5,.57-1.58,2.67,2,5.59,2.72a4.4,4.4,0,0,0-.09,1.26C23.84,18.28,24.58,18.28,25.42,18.71Z"/><path class="cls-8" d="M27,34.52q0,.31-.06.63a11,11,0,0,1-.43,1.79h-.05a0,0,0,0,1,0,0h-.78l-.76,0H24.5l-.2,0-.23,0-.49,0-.24,0h-.09l-.5-.06-.63-.08-.19,0-.27,0-1-.16-.33-.06-.45-.08-.21,0-.41-.07h0a17.8,17.8,0,0,0,2.94-.23A18.18,18.18,0,0,0,27,34.52Z"/><path class="cls-8" d="M6.78,30.58a15.67,15.67,0,0,1-3.86-4.76,26.61,26.61,0,0,1-1.64-3.88,22.61,22.61,0,0,1-.91-11.5h0C1.89,7.07.07,15,1.65,20.7A29.09,29.09,0,0,0,6.78,30.58Z"/><path class="cls-15" d="M20.78,8l.06,0-.05,0Z"/></g></g></g></svg>