<svg xmlns="http://www.w3.org/2000/svg" xmlns:xlink="http://www.w3.org/1999/xlink" viewBox="0 0 152.43 86.97"><defs><style>.cls-1{isolation:isolate;}.cls-10,.cls-11,.cls-12,.cls-13,.cls-14,.cls-15,.cls-16,.cls-17,.cls-18,.cls-19,.cls-2,.cls-20,.cls-21,.cls-22,.cls-23,.cls-24,.cls-25,.cls-26,.cls-27,.cls-28,.cls-29,.cls-3,.cls-30,.cls-31,.cls-32,.cls-33,.cls-34,.cls-35,.cls-36,.cls-37,.cls-38,.cls-4,.cls-5,.cls-6,.cls-7,.cls-9{fill-rule:evenodd;}.cls-2{fill:url(#New_Gradient_Swatch_92);}.cls-3{fill:url(#New_Gradient_Swatch_91);}.cls-4{fill:url(#New_Gradient_Swatch_92-2);}.cls-5{fill:url(#New_Gradient_Swatch_91-2);}.cls-6{fill:url(#New_Gradient_Swatch_92-3);}.cls-7{fill:url(#New_Gradient_Swatch_91-3);}.cls-8{fill:#b7805c;}.cls-10,.cls-11,.cls-12,.cls-13,.cls-14,.cls-15,.cls-16,.cls-20,.cls-22,.cls-23,.cls-30,.cls-33,.cls-34,.cls-35,.cls-36,.cls-8,.cls-9{mix-blend-mode:multiply;}.cls-28,.cls-29,.cls-38,.cls-8{opacity:0.5;}.cls-9{fill:url(#New_Gradient_Swatch_88);}.cls-10{fill:url(#New_Gradient_Swatch_88-2);}.cls-11{fill:url(#New_Gradient_Swatch_88-3);}.cls-12{fill:url(#New_Gradient_Swatch_88-4);}.cls-13{fill:url(#New_Gradient_Swatch_88-5);}.cls-14{fill:url(#New_Gradient_Swatch_88-6);}.cls-15{fill:url(#New_Gradient_Swatch_88-7);}.cls-16{fill:url(#New_Gradient_Swatch_88-8);}.cls-17,.cls-18,.cls-19,.cls-26,.cls-27,.cls-28,.cls-29,.cls-37,.cls-38{mix-blend-mode:screen;}.cls-17{fill:url(#New_Gradient_Swatch_90);}.cls-18{fill:url(#New_Gradient_Swatch_90-2);}.cls-19{fill:url(#New_Gradient_Swatch_90-3);}.cls-20{fill:url(#radial-gradient);}.cls-21{fill:url(#linear-gradient);}.cls-22{fill:url(#radial-gradient-2);}.cls-23{fill:url(#radial-gradient-3);}.cls-24{fill:url(#linear-gradient-2);}.cls-25{fill:url(#linear-gradient-3);}.cls-26{fill:url(#radial-gradient-4);}.cls-27{fill:url(#radial-gradient-5);}.cls-28{fill:url(#radial-gradient-6);}.cls-29{fill:url(#radial-gradient-7);}.cls-30{fill:url(#radial-gradient-8);}.cls-31{fill:url(#New_Gradient_Swatch_92-4);}.cls-32{fill:url(#linear-gradient-4);}.cls-33,.cls-34,.cls-35,.cls-36{opacity:0.65;}.cls-33{fill:url(#New_Gradient_Swatch_88-9);}.cls-34{fill:url(#New_Gradient_Swatch_88-10);}.cls-35{fill:url(#New_Gradient_Swatch_88-11);}.cls-36{fill:url(#radial-gradient-9);}.cls-37{fill:url(#New_Gradient_Swatch_90-4);}.cls-38{fill:#ca9e67;}</style><linearGradient id="New_Gradient_Swatch_92" x1="76.74" y1="34.98" x2="76.74" y2="8.59" gradientUnits="userSpaceOnUse"><stop offset="0" stop-color="#692705"/><stop offset="1" stop-color="#823b00"/></linearGradient><radialGradient id="New_Gradient_Swatch_91" cx="29.55" cy="-13.13" r="124.48" gradientUnits="userSpaceOnUse"><stop offset="0" stop-color="#f59547"/><stop offset="1" stop-color="#a14c1f"/></radialGradient><linearGradient id="New_Gradient_Swatch_92-2" x1="76.74" y1="60.99" x2="76.74" y2="34.67" xlink:href="#New_Gradient_Swatch_92"/><radialGradient id="New_Gradient_Swatch_91-2" cx="11.9" cy="4.88" r="177.09" xlink:href="#New_Gradient_Swatch_91"/><linearGradient id="New_Gradient_Swatch_92-3" x1="76.3" y1="86.97" x2="76.3" y2="60.63" xlink:href="#New_Gradient_Swatch_92"/><radialGradient id="New_Gradient_Swatch_91-3" cx="10.08" cy="36" r="161.28" xlink:href="#New_Gradient_Swatch_91"/><radialGradient id="New_Gradient_Swatch_88" cx="14.59" cy="-11.95" r="88.68" gradientUnits="userSpaceOnUse"><stop offset="0" stop-color="#cfa04d"/><stop offset="1" stop-color="#fff"/></radialGradient><radialGradient id="New_Gradient_Swatch_88-2" cx="138.39" cy="-29.11" r="79.24" xlink:href="#New_Gradient_Swatch_88"/><radialGradient id="New_Gradient_Swatch_88-3" cx="116.43" cy="15.92" r="43.68" xlink:href="#New_Gradient_Swatch_88"/><radialGradient id="New_Gradient_Swatch_88-4" cx="48.67" cy="14.46" r="80.5" xlink:href="#New_Gradient_Swatch_88"/><radialGradient id="New_Gradient_Swatch_88-5" cx="-12.94" cy="68.03" r="99.02" xlink:href="#New_Gradient_Swatch_88"/><radialGradient id="New_Gradient_Swatch_88-6" cx="113.75" cy="46.98" r="27.74" xlink:href="#New_Gradient_Swatch_88"/><radialGradient id="New_Gradient_Swatch_88-7" cx="112.46" cy="113.31" r="120.41" xlink:href="#New_Gradient_Swatch_88"/><radialGradient id="New_Gradient_Swatch_88-8" cx="102.39" cy="26.64" r="140.54" xlink:href="#New_Gradient_Swatch_88"/><linearGradient id="New_Gradient_Swatch_90" x1="0.3" y1="18.56" x2="93.21" y2="18.56" gradientUnits="userSpaceOnUse"><stop offset="0" stop-color="#a48a7b"/><stop offset="1" stop-color="#945534"/></linearGradient><linearGradient id="New_Gradient_Swatch_90-2" x1="0" y1="43.81" x2="77.54" y2="43.81" xlink:href="#New_Gradient_Swatch_90"/><linearGradient id="New_Gradient_Swatch_90-3" x1="0.05" y1="70.7" x2="85.15" y2="70.7" xlink:href="#New_Gradient_Swatch_90"/><radialGradient id="radial-gradient" cx="73.48" cy="76.17" r="124.84" gradientTransform="translate(0 3.14) scale(1 0.73)" gradientUnits="userSpaceOnUse"><stop offset="0" stop-color="#a48a7b"/><stop offset="1" stop-color="#fff"/></radialGradient><linearGradient id="linear-gradient" x1="76.22" y1="81.44" x2="76.22" y2="12.39" gradientUnits="userSpaceOnUse"><stop offset="0" stop-color="#edd6b9"/><stop offset="1" stop-color="#d4b492"/></linearGradient><radialGradient id="radial-gradient-2" cx="12.27" cy="108.8" r="19.85" xlink:href="#radial-gradient"/><radialGradient id="radial-gradient-3" cx="142.61" cy="17.64" r="8.79" xlink:href="#radial-gradient"/><linearGradient id="linear-gradient-2" x1="14.6" y1="79.22" x2="16.44" y2="74.9" gradientUnits="userSpaceOnUse"><stop offset="0" stop-color="#bf9f7e"/><stop offset="1" stop-color="#edd6b9"/></linearGradient><linearGradient id="linear-gradient-3" x1="141.34" y1="15.97" x2="138.25" y2="19.06" xlink:href="#linear-gradient-2"/><radialGradient id="radial-gradient-4" cx="13.89" cy="107.3" r="16.23" gradientTransform="translate(0 3.14) scale(1 0.73)" gradientUnits="userSpaceOnUse"><stop offset="0"/><stop offset="1" stop-color="#a3805f"/></radialGradient><radialGradient id="radial-gradient-5" cx="143.57" cy="15.01" r="10.56" xlink:href="#radial-gradient-4"/><radialGradient id="radial-gradient-6" cx="75.96" cy="60.64" r="101.22" gradientTransform="translate(0 3.14) scale(1 0.73)" gradientUnits="userSpaceOnUse"><stop offset="0" stop-color="#ca9e67"/><stop offset="1"/></radialGradient><radialGradient id="radial-gradient-7" cx="75.16" cy="61.23" r="54.5" xlink:href="#radial-gradient-6"/><radialGradient id="radial-gradient-8" cx="76.13" cy="14.06" r="56.8" gradientTransform="matrix(1, 0, 0, 1, 0, 0)" xlink:href="#radial-gradient"/><linearGradient id="New_Gradient_Swatch_92-4" x1="76.13" y1="22.02" x2="76.13" y2="2" xlink:href="#New_Gradient_Swatch_92"/><linearGradient id="linear-gradient-4" x1="76.13" y1="20.49" x2="76.13" gradientUnits="userSpaceOnUse"><stop offset="0" stop-color="#a14c1f"/><stop offset="1" stop-color="#f59547"/></linearGradient><radialGradient id="New_Gradient_Swatch_88-9" cx="37.97" cy="-6.98" r="17.61" xlink:href="#New_Gradient_Swatch_88"/><radialGradient id="New_Gradient_Swatch_88-10" cx="46.9" cy="-7.21" r="31.95" xlink:href="#New_Gradient_Swatch_88"/><radialGradient id="New_Gradient_Swatch_88-11" cx="55.52" cy="-8.55" r="45.36" xlink:href="#New_Gradient_Swatch_88"/><radialGradient id="radial-gradient-9" cx="74.34" cy="-5.89" r="54.87" xlink:href="#New_Gradient_Swatch_88"/><linearGradient id="New_Gradient_Swatch_90-4" x1="38.38" y1="8.02" x2="105.73" y2="8.02" xlink:href="#New_Gradient_Swatch_90"/></defs><g class="cls-1"><g id="Calque_2" data-name="Calque 2"><g id="Layer_1" data-name="Layer 1"><path class="cls-2" d="M2,9.1c2.59-.68,125-.95,148.53.94L152,11.3c.31,1.82,0,20.2-.87,23.28-25.46.61-122.56.49-147.81-.15L1.84,33.17C1,27.69,1.44,10.94,2,9.1Z"/><path class="cls-3" d="M.5,7.85C3.18,7.14,128,8,150.52,10c.31,1.83,0,20.21-.87,23.29-25.46.61-122.56.49-147.81-.16C.82,31-.13,9.94.5,7.85Z"/><path class="cls-4" d="M1.62,35c24.6.2,124.92-.62,149.27-.29L152.42,36c.08,8-.36,16.23-.87,24.7-6.12.71-144.26,0-148.63-.65L1.39,58.79c-.73-5.93-.13-21,.23-23.75Z"/><path class="cls-5" d="M.1,33.78c25.27.21,125.87.63,150.79,1,.08,8-.36,16.23-.87,24.69-6.11.72-144.26,0-148.63-.65-.78-4.62-1.69-22-1.29-25Z"/><path class="cls-6" d="M2.28,61.17c5.49-.46,134.26-.91,148-.08l1.49,1.26c.52,2.95.84,18.88.47,24.62-25.46-.43-124.91-.62-150.48,0L.24,85.71C.07,80,1.89,63.42,2.28,61.17Z"/><path class="cls-7" d="M.79,59.92c5.88-.5,141.43.26,149.46,1.17.52,3,.84,18.89.47,24.62-25.46-.43-124.91-.62-150.48,0C-.25,84,.33,62.55.79,59.92Z"/><path class="cls-8" d="M39.51,23.91a20,20,0,0,1,2.39-.44,16.06,16.06,0,0,1,2.2-.09,14,14,0,0,1,2.17.26,5.7,5.7,0,0,1,1.38.5,9.41,9.41,0,0,1,1.2.77,7.92,7.92,0,0,1,1.15,1,5.92,5.92,0,0,1,.86,1.13,6.48,6.48,0,0,1,.61,1.27,4,4,0,0,1,.25,1.46,3.93,3.93,0,0,1-.3,1.42,3,3,0,0,1-.78,1.1,6.93,6.93,0,0,1-1.64,1,7.61,7.61,0,0,1-.79.31l-8.79,0-.71-.22a18.34,18.34,0,0,1-2.8-1.21,4.22,4.22,0,0,1-1.24-1,3.9,3.9,0,0,1-.74-1.41,2.68,2.68,0,0,1,0-1.32,4.25,4.25,0,0,1,.61-1.33,7.75,7.75,0,0,1,1.19-1.37,6.76,6.76,0,0,1,1.43-1,12,12,0,0,1,2.33-.83Zm-1.62,2.83c-2.39,2.16-.33,3.94,2.3,5a11.69,11.69,0,0,0,7.15.78,6.41,6.41,0,0,0,2.87-1.3,2.18,2.18,0,0,0,.64-1.54,3.74,3.74,0,0,0-.64-1.94,6.13,6.13,0,0,0-5.37-2.86c-2.06-.08-5.35.43-7,1.86ZM.73,23.67c8.78-.29,15.5-3.07,25.16-5.28,5.47-1.25,10.63-2.54,16.18-2.51a36.72,36.72,0,0,1,20.76,6.44c2.39,1.63,3.55,3.1,3.76,4.54a5.19,5.19,0,0,1-1.44,4.44c-.71.82-1.42,1.62-2.14,2.4h3c.46-.51.92-1,1.38-1.57,1.72-2,2.6-3.84,2.33-5.73-.5-3.41-7.65-7.1-11.5-8.63-13.08-5.18-19.52-4.08-32.57-.42C16.67,19.86,8.12,22,.63,22c0,.57.06,1.13.1,1.69ZM.4,16.89c10.29-.11,18.36-2,26.16-3.25,19.57-3.27,26-3.59,45.62,5.22a28.43,28.43,0,0,1,8.14,5.36,3.26,3.26,0,0,1,.21,4.72,59.44,59.44,0,0,1-5.62,4.78h2.72a44.12,44.12,0,0,0,5.11-4.18,4.51,4.51,0,0,0,.93-1.48A4.15,4.15,0,0,0,84,26.37a3.93,3.93,0,0,0-.41-1.56,5.5,5.5,0,0,0-1-1.45c-1.79-1.8-5.31-3.74-9.28-5.53A135.84,135.84,0,0,0,57.16,11.9c-7.35-2.14-10.79-1.75-18.24-1-4.3.45-8.39,1.13-12.56,1.83C18.61,14,10.57,15.39.35,15.32c0,.52,0,1,.05,1.57Zm-.1-6c9.6-.26,19-1.95,28.36-3.32H21.45A182.92,182.92,0,0,1,.35,9.25c0,.48,0,1.05,0,1.69ZM58,7.81c8.2,2.85,17.9,7.55,25,10.25a101.7,101.7,0,0,1,11,4.65c8.69,4.62,5.75,6.85-2.2,10.29l-1.68.72h5.54c1.36-.61,2.68-1.23,3.91-1.88,3.48-1.84,3.85-3.77,2.74-5.58-2.37-3.83-13.8-8-18.1-9.67C80.05,15,76,13.36,71.91,11.73c-3-1.19-6.27-2.62-9.63-3.88L58,7.81ZM73.07,8l.57.21c9.15,3.28,18.41,6.39,27.75,9.14,6,1.78,14.33,3,19.63,5.69,5,2.58,2.55,5-1.91,7.13-2.68,1.3-5.43,2.43-8.2,3.54l5.42,0c1.87-.78,3.73-1.59,5.56-2.48a12.87,12.87,0,0,0,3.55-2.37c2.86-2.93.15-5.36-2.68-6.82-5.64-2.9-14.22-4.12-20.61-6-8.23-2.42-16.4-5.12-24.49-8L73.07,8Zm57.56,1.12-.53.05c-10.44.92-18,1.23-26.81-.71l-7.12-.12c12.13,3.88,20.84,3.08,34,1.91,3.43-.31,6.82-.61,10.1-.78-2.87-.12-6.11-.24-9.66-.35ZM12.12,26.62a5.43,5.43,0,0,0-2.54,1.84,1.83,1.83,0,0,0-.31,1,1.35,1.35,0,0,0,.41.94,2.37,2.37,0,0,0,1.47.58c.7.05,2.74.41,5.62,1,1.92.4,4.2.9,6.68,1.48l6.06.05c-.73-.24-1.49-.46-2.28-.67-3-.78-5.72-1.43-7.92-1.92-1.49-.34-8.23-1.41-4.17-3.32a49.65,49.65,0,0,1,6.28-1.94c5-1.37,10.2-3.55,15.2-4.67a34.66,34.66,0,0,1,5.86-.85,17.35,17.35,0,0,1,5.47.53A19.67,19.67,0,0,1,54,24c3.23,2.45,5.19,4.74,2.18,8.47a12,12,0,0,1-1.1,1.19h1.82l.44-.48c1.47-1.7,2.17-3.47,1.85-4.94a2.69,2.69,0,0,0-.17-.55,12.15,12.15,0,0,0-4.22-4.6A21.48,21.48,0,0,0,48.14,20,21.26,21.26,0,0,0,42,19.4a39.46,39.46,0,0,0-6.45.88c-2.88.6-5.74,1.42-8.47,2.2l-.14,0C24,23.35,21.31,24,19,24.63a64.2,64.2,0,0,0-6.88,2Z"/><path class="cls-9" d="M19,24.63c2.31-.59,5-1.28,7.92-2.11l.14,0c2.73-.78,5.59-1.6,8.47-2.2A39.46,39.46,0,0,1,42,19.4a21.26,21.26,0,0,1,6.16.56,21.48,21.48,0,0,1,6.67,3.15A12.15,12.15,0,0,1,59,27.71a2.69,2.69,0,0,1,.17.55c.32,1.47-.38,3.24-1.85,4.94l-.44.48,6.1,0c.72-.78,1.43-1.58,2.14-2.4a5.19,5.19,0,0,0,1.44-4.44c-.21-1.44-1.37-2.91-3.76-4.54a36.72,36.72,0,0,0-20.76-6.44c-5.55,0-10.71,1.26-16.18,2.51-9.66,2.21-16.38,5-25.16,5.28.29,4.59.69,8.6,1.11,9.5,4.87.12,12.42.23,21.61.31C21,32.9,18.69,32.4,16.77,32c-2.88-.6-4.92-1-5.62-1a2.37,2.37,0,0,1-1.47-.58,1.35,1.35,0,0,1-.41-.94,1.83,1.83,0,0,1,.31-1,5.43,5.43,0,0,1,2.54-1.84,64.2,64.2,0,0,1,6.88-2Z"/><path class="cls-10" d="M122.76,22c2.83,1.46,5.54,3.89,2.68,6.82a12.87,12.87,0,0,1-3.55,2.37c-1.83.89-3.69,1.7-5.56,2.48,14.43-.06,26.47-.17,33.32-.33.87-3.08,1.18-21.46.87-23.29-3.93-.35-11-.67-19.89-.95,3.55.11,6.79.23,9.66.35-3.28.17-6.67.47-10.1.78-13.18,1.17-21.89,2-34-1.92C90.11,8.2,83.89,8.11,77.66,8c8.09,2.84,16.26,5.54,24.49,8,6.39,1.88,15,3.1,20.61,6Z"/><path class="cls-8" d="M116.26,50.39a19.79,19.79,0,0,1-2.45-.34,14.9,14.9,0,0,1-2.14-.62,14.17,14.17,0,0,1-2-.94,5.45,5.45,0,0,1-1.16-.93,8.31,8.31,0,0,1-.92-1.12,9.37,9.37,0,0,1-.78-1.34,7.55,7.55,0,0,1-.47-1.36,6.65,6.65,0,0,1-.17-1.42,4.18,4.18,0,0,1,.22-1.49,4.1,4.1,0,0,1,.75-1.27,3,3,0,0,1,1.1-.81,7.33,7.33,0,0,1,1.9-.46,9.38,9.38,0,0,1,2.12,0,17,17,0,0,1,2.7.55,13.54,13.54,0,0,1,2.4,1,19.37,19.37,0,0,1,2.7,1.69,19,19,0,0,1,2.31,2.06,4.44,4.44,0,0,1,.86,1.4,3.94,3.94,0,0,1,.26,1.59,2.69,2.69,0,0,1-.44,1.27,4.35,4.35,0,0,1-1,1.08,7.2,7.2,0,0,1-1.59.93,6.31,6.31,0,0,1-1.68.48,13.06,13.06,0,0,1-2.5,0Zm2.45-2.21c3-1.31,1.58-3.69-.61-5.55a11.73,11.73,0,0,0-6.63-3,6.36,6.36,0,0,0-3.17.33,2.19,2.19,0,0,0-1.12,1.28,3.79,3.79,0,0,0,0,2.06,6.26,6.26,0,0,0,4.26,4.48c2,.73,5.28,1.29,7.27.42Zm5.59,11.55a57.7,57.7,0,0,1-13.08-2.43A37.31,37.31,0,0,1,93.31,44.47c-1.78-2.33-2.43-4.12-2.17-5.57a5.28,5.28,0,0,1,2.8-3.82l1.3-.75L91,34.3a6.48,6.48,0,0,0-3,4.05c-.61,3.45,5.09,9.28,8.31,12C103,55.89,108,58.44,114,59.74Zm3.32-25.19c9.3,6.18,14.48,10.63,23,14.33,0-.63.06-1.25.08-1.88C143,44,137.94,40.4,129.9,34.55ZM104.71,59.73c-6.8-2.64-12.68-6.82-21.5-14.92a28.83,28.83,0,0,1-6.13-7.75,3.71,3.71,0,0,1-.26-2.84H74.19a4.36,4.36,0,0,0,0,1.25,5.56,5.56,0,0,0,.54,1.72c1.15,2.31,3.92,5.3,7.16,8.29A137.5,137.5,0,0,0,95.44,56.31a40.59,40.59,0,0,0,5.79,3.41Zm33.78-25.11,1,.59c3.86,2.17,7.56,4.17,11.33,5.89,0-.64,0-1.27,0-1.9-3.16-1.41-6.28-3-9.37-4.55l-3,0ZM93,59.7c-6.88-5.34-14.55-12.79-20.39-17.57a100,100,0,0,1-9.09-8l-2.72,0a116.5,116.5,0,0,0,10.18,9c3.46,2.82,6.84,5.71,10.25,8.59,2.89,2.44,6.1,5.33,9.44,7.93Zm-8.26,0c-2-1.56-4-3.22-6.31-5C70.63,48.54,62.71,42.6,54.6,37c-1.36-1-2.89-1.91-4.48-2.88l-2.85,0c2.18,1.34,4.31,2.64,6.18,3.94,8.41,5.84,16.63,12,24.68,18.33,1.52,1.19,2.94,2.3,4.29,3.33ZM15.94,33.89c2.76.56,5.59,1.1,8.42,1.77,13.84,3.27,22.41,6,33.78,15a68.68,68.68,0,0,0,10.6,7.16c1.12.61,2.2,1.22,3.26,1.84l3.41,0c-1.93-1.24-3.88-2.42-5.93-3.53A68.09,68.09,0,0,1,59,49C47.53,40,38.62,37.9,24.62,34.59l-2.84-.67-5.84,0ZM0,37.33C6,40.15,9.51,40.49,15.8,40.67c17.92.51,25.81,9.41,40.53,17l3.51,1.82,4.09,0c-2.3-1.25-4.58-2.48-6.84-3.65C44.63,49.46,30.25,39.8,16,39c-6.4-.35-9.76-.78-16-3.85,0,.61,0,1.34,0,2.17Zm.2,6.48c11.29,4.65,21.32,3.36,33.38,8,5.31,2,10.68,4.92,16.07,7.64l3.28,0c-2.84-1.39-5.58-2.77-7.87-3.7-1.76-.72-3.47-1.58-5.18-2.44C24.12,45.44,13.82,46.61.12,41.72c0,.68.06,1.38.09,2.09ZM.56,50a51,51,0,0,0,10.62,2.4c13,1.5,18.09,4,25.36,6.95l5.05,0L40.47,59C31,55.77,25.4,53.3,11.55,50.86a75.49,75.49,0,0,1-11.12-3c0,.72.08,1.42.13,2.12Zm.36,4.71c4.41,1.27,9,2.58,13.62,3.73l2.85.71,7.89.09C17.13,57.26,8.91,55.34.78,53c0,.6.09,1.18.14,1.73Zm.45,4,.67.17c1.06.06,3.25.12,6.34.18q-3.63-1-7.23-2c.08.65.15,1.21.22,1.67Zm142.11-2.14a5.56,5.56,0,0,0,3-1,1.93,1.93,0,0,0,.62-.87,1.37,1.37,0,0,0-.09-1.05,2.39,2.39,0,0,0-1.23-1c-.66-.27-2.51-1.27-5.09-2.77-2.13-1.23-4.73-2.79-7.54-4.55a67.21,67.21,0,0,1-7-5.2c-2.84-2.33-5.41-4.44-8.41-5.65l-4.79,0h.21c4.41.32,7.56,3,11.18,6.15a59.31,59.31,0,0,0,6.53,5.1c2.63,1.71,5,3.21,7,4.38,1.33.8,7.47,4,2.95,4.53a50.51,50.51,0,0,1-6.66-.15c-5.26-.27-10.95.16-16.12-.36a33.93,33.93,0,0,1-5.91-1.05,17.61,17.61,0,0,1-5.09-2.25,20,20,0,0,1-4.77-5.13c-2.33-3.4-3.49-6.23.6-8.85a16.16,16.16,0,0,1,6.44-2.25c.54-.07,1.08-.12,1.64-.15l-5.91,0a15.33,15.33,0,0,0-3,1.36c-2,1.16-3.21,2.65-3.37,4.16a3.77,3.77,0,0,0,0,.58,12.26,12.26,0,0,0,2.6,5.78,19.74,19.74,0,0,0,11.16,7.67,41.86,41.86,0,0,0,6.49,1.22c2.95.34,6,.46,8.85.58h.15c3.06.13,5.88.33,8.29.5a65.15,65.15,0,0,0,7.26.29Z"/><path class="cls-11" d="M111.44,47.76c2,.73,5.28,1.29,7.27.42,3-1.31,1.58-3.69-.61-5.55a11.73,11.73,0,0,0-6.63-3,6.36,6.36,0,0,0-3.17.33,2.19,2.19,0,0,0-1.12,1.28,3.79,3.79,0,0,0,0,2.06,6.26,6.26,0,0,0,4.26,4.48Z"/><path class="cls-12" d="M78.13,56.33C70.08,50,61.86,43.84,53.45,38c-1.87-1.3-4-2.6-6.18-3.94l-25.49-.14,2.84.67C38.62,37.9,47.53,40,59,49A68.09,68.09,0,0,0,69.48,56.1c2,1.11,4,2.29,5.93,3.53l7,0c-1.35-1-2.77-2.14-4.29-3.33Z"/><path class="cls-13" d="M56.33,57.72c-14.72-7.64-22.61-16.54-40.53-17C9.51,40.49,6,40.15,0,37.33c0,1.27,0,2.77.11,4.39,13.7,4.89,24,3.72,39.77,11.64,1.71.86,3.42,1.72,5.18,2.44,2.29.93,5,2.31,7.87,3.7l6.9,0-3.51-1.82Z"/><path class="cls-14" d="M129.9,34.55C137.94,40.4,143,44,150.67,47q.12-3,.18-5.89c-3.77-1.72-7.47-3.72-11.33-5.89l-1-.59-8.59-.07ZM96.32,50.33c-3.22-2.7-8.92-8.53-8.31-12a6.48,6.48,0,0,1,3-4.05l-14.15-.08a3.71,3.71,0,0,0,.26,2.84,28.83,28.83,0,0,0,6.13,7.75c8.82,8.1,14.7,12.28,21.5,14.92H114c-6-1.3-11-3.85-17.64-9.41Z"/><path class="cls-8" d="M37.41,85.36c5.38-.87,11.39-2,16.44-1.15a38.16,38.16,0,0,1,4.54,1.11h4.28a39.57,39.57,0,0,0-8.72-2c-6-.56-13.15.7-19.2,1.54l-4.12.57,6.78,0ZM.19,85.45c4.9-.06,9.75-.41,14.66-.71,14.57-.89,27.11-7.17,42.58-4.25,5.54,1.05,9.95,2.77,15.48,4.83H77.1l-1-.36c-7.63-2.73-13-4.57-18.51-5.43s-11.11-.75-19.16.42c-7.84,1.14-15.62,2.85-23.56,3.34-4.92.3-9.85.37-14.79.39,0,.8.06,1.41.11,1.77Zm99.45-.09c-1.18-.37-2.39-.77-3.65-1.23A66.42,66.42,0,0,0,84.2,80.82C73.12,78.87,64.85,75.35,52.91,75c-7.62-.22-16.13,1.24-23.76,2.31C19.78,78.62,10.47,79.92.05,80v1.6c10.49,0,19.83-1.35,29.23-2.66,7.57-1.06,16-3.07,23.61-2.85,6.78.2,13.25,2,19.76,3.77,3.83,1.06,7.48,2.06,11.39,2.75a61.33,61.33,0,0,1,10.27,2.78Zm51.24-6.89c-5.08-.4-8.29.37-13.44,1.92-16.43,4.94-26.28-.76-41.95-3.26-11.77-1.88-24.62-3.93-35.66-4.9-7.16-.63-14.8.24-21.91,1.16-3,.38-5.93.81-8.89,1.24C19.64,76,10.47,77.32.08,77.24c0,.53,0,1.05,0,1.56,10.47.09,19.68-1.25,29.11-2.62s21.51-3.7,30.58-2.91c11,1,23.84,3.85,35.59,5.72,13.26,2.12,29.24,6.56,42.43,3,5.09-1.39,8.16-2,13.1-1.62,0-.6,0-1.23,0-1.87Zm0-5.62c-11.74-.87-20.49,3.37-32.91,2.77-9.38-.46-19.68-3.05-29.11-3.39-3.78-.14-7.55-.39-11.33-.87-2.65-.33-4.92-.66-7-1-6.26-.89-11-1.56-17.09-1.37A190.54,190.54,0,0,0,34.15,71c-11.25,1.51-22.68,3.14-34,3.37,0,.58,0,1.16,0,1.72,11.43-.26,23.34-2.35,34.18-4.05a153.36,153.36,0,0,1,19.09-2.14c11.91-.38,21.8,3.59,35.37,3.78,5.61.08,12.72,1.53,17.56,1.85,1.81.12,3.63.39,5.44.65,16.5,2.41,25.49-1.63,39.12-1.43l0-1.85Zm-.15-5.45a47.62,47.62,0,0,0-12.59.93c-14,2.94-19,1.53-28.51,1.15-4.21-.17-8.4-.06-12.62,0a152.69,152.69,0,0,1-24.35-1.56A144.24,144.24,0,0,0,55.4,66.37c-8.94-.11-18.59,1.26-27.51,2.27-9.11,1-18,2-27.68,2.45,0,.65,0,1.3,0,2,18.14-.85,38.76-5.61,55.24-5.41A143.8,143.8,0,0,1,72.48,69c8.64,1.14,15.71,2.36,24.42,2.2,4.21-.08,8.39-.07,12.6,0,9.57.1,15.41.66,28.73-1.3a76.11,76.11,0,0,1,12.51-.66q0-.93-.06-1.8Zm-.23-4.4c-5.52.21-11.35.4-17.23.85-18.41,1.4-35.89,3.79-56.94.57a139.08,139.08,0,0,0-20.92-2c-10.93,0-22.65,1.19-33.6,2.35C14.67,65.54,7.7,66.28.37,66.49c0,.65,0,1.32-.08,2a119,119,0,0,0,21.57-1.79C32.7,65,44.47,63.5,55.36,63.5c11.31,0,22.47,2.58,33.71,3.55,20.14,1.73,40.67-2,61.48-2.49,0-.57-.06-1.09-.1-1.56ZM132.9,60.59c-2.53.17-5.05.34-7.56.48-9.7.55-18.61,1-27.47.94a173.09,173.09,0,0,1-25.95-2l-8.87-.06c2.24.27,4.65.65,7.37,1.17,28.44,5.45,53.42.53,79,0-2.42-.16-8.34-.31-16.5-.44ZM24.72,59.76c-8,.84-16,2-24.1,1.86,0,.22,0,.45-.05.7,9.59-.17,18.32-.7,27.57-1.54,3.27-.3,6.61-.61,10-.89l1.22-.1-14.64,0Z"/><path class="cls-15" d="M95.49,77.13c15.67,2.5,25.52,8.2,42,3.26,5.15-1.55,8.36-2.32,13.44-1.92,0-1.22,0-2.49,0-3.77-13.63-.2-22.62,3.84-39.12,1.43-1.81-.26-3.63-.53-5.44-.65-4.84-.32-12-1.77-17.56-1.85-13.57-.19-23.46-4.16-35.37-3.78A153.36,153.36,0,0,0,34.28,72C23.44,73.69,11.53,75.78.1,76c0,.41,0,.8,0,1.2,10.39.08,19.56-1.25,29-2.61,3-.43,5.93-.86,8.89-1.24,7.11-.92,14.75-1.79,21.91-1.16,11,1,23.89,3,35.66,4.9Z"/><path class="cls-16" d="M109.58,69.48c9.48.38,14.46,1.79,28.51-1.15a47.62,47.62,0,0,1,12.59-.93c0-1-.08-2-.13-2.84-20.81.53-41.34,4.22-61.48,2.49-11.24-1-22.4-3.55-33.71-3.55-10.89,0-22.66,1.47-33.5,3.21A119,119,0,0,1,.29,68.5c0,.84,0,1.71-.08,2.59,9.68-.41,18.57-1.42,27.68-2.45,8.92-1,18.57-2.38,27.51-2.27a144.24,144.24,0,0,1,17.21,1.57A152.69,152.69,0,0,0,97,69.5c4.22-.08,8.41-.19,12.62,0Z"/><path class="cls-17" d="M1.63,9.53h.28C18,9.09,34,8.79,49.92,8.59c14.4-.18,28.8-.28,43.29-.33C51.06,7.58,2.17,7.41.5,7.85c-.25.83-.25,4.62-.1,9h0v.29h0c0,.12,0,.24,0,.37h0c.15,4.16.44,8.75.77,11.89,0-4,0-7.91.14-11.84a55.39,55.39,0,0,0,11.75-.94c4.11-.71,8.17-1.63,12.25-2.47S33.08,12.74,37,12.08c-3.09.36-6.5.9-10.43,1.56-7.55,1.26-15.37,3-25.2,3.24.07-2.43.15-4.87.27-7.35Z"/><path class="cls-18" d="M2.58,33.8l-2.48,0c-.31,2.33.16,13.1.75,20.07.06-5.72.14-11.26.61-17,.05-.61.11-1.22.17-1.83v-.1c9.67,0,19.32.07,29,.09,7,0,14,0,21-.08l2.56,0c7.78-.11,15.55-.32,23.33-.69-30.16-.17-60.71-.32-75-.43Z"/><path class="cls-19" d="M.05,81.64c.25-2.43.55-5,.82-7.57.23-2.12.44-4.23.61-6.28.15-1.88.27-3.7.31-5.42a3.52,3.52,0,0,0-.39-1.72c3.57,0,7.14.08,10.71.08,10.87,0,21.78,0,32.7,0l5.13,0,3.27,0c10.66-.06,21.32-.24,31.94-.65-35.21-.27-73.27-.38-82.47-.2-1,0-1.59,0-1.89.07C.44,61.92,0,74.84.05,81.64Z"/><path class="cls-20" d="M23.35,83c28.2-.52,92.82-.84,118.32.08a3.2,3.2,0,0,0,1.77-.22c.43-.29.4-.84.41-1.26,0-1.4.14-3,.06-4.13l-5.64-.36,5.55-1q-.78-11.46-1.07-23.06l-3-.76,3-.73c-.23-11,.87-21.26,1.4-32.23a37.28,37.28,0,0,0-5.26-7.21,2.09,2.09,0,0,0-1.67-.68c-11.27.74-106,1.55-126.28.81a1.8,1.8,0,0,0-2,1.47c-.11,3.23.37,5.32.53,8.4l2.18,1-1,.94.18.72-1.23.63q.69,17.16-.15,34.2l1.65.63-.82,1.1,2.33.86-3.33.62C9,67.45,8,72,8,76.47,11.36,79,18.08,81.78,23.35,83Z"/><path class="cls-21" d="M23.44,81c4.19.74,106.33.37,122.47-.44q-.19-2.25-.36-4.5l-5.78-.35,5.69-.91c-.53-7.29-.9-14.64-1.09-22l-3.09-.73,3.05-.68c-.24-10.49-.11-21,.43-31.47l-7.34-7.48c-1-.31-113.77.28-130.3.73q.42,5.07.69,10.13l2.24,1-1,.9.18.69L8,26.49q.72,16.38-.15,32.62l1.69.6-.84,1,2.39.82-3.41.59q-.42,6.74-1.11,13.45h0L23.44,81Z"/><path class="cls-22" d="M23.43,81,6.52,75.63A33.48,33.48,0,0,1,13,72c.69,0,8.64,8,10.39,9.09Z"/><path class="cls-23" d="M144.76,20c-1.69-.59-8.9-1.44-9.23-2s1.5-4,1.89-5.5L144.76,20Z"/><path class="cls-24" d="M12,73.22A134.33,134.33,0,0,0,23.44,81c-1.25,0-16.92-4.52-16.92-5.41A35.61,35.61,0,0,1,12,73.22Z"/><path class="cls-25" d="M144.76,20c-2.89-.95-5.8-1.87-8.58-3a34.55,34.55,0,0,0,1.24-4.5c.71,0,7.34,6.92,7.34,7.48Z"/><path class="cls-26" d="M19.91,79.91c-1-2.56-8.55-5.69-11.11-5.41A31.48,31.48,0,0,1,12,73.22,132.2,132.2,0,0,0,23.41,81h0A26,26,0,0,1,20,80.25a2.46,2.46,0,0,0-.09-.34Z"/><path class="cls-27" d="M137.32,16.48c.85,1.42,4.56,2.44,6.82,2.84l.25,0a1.77,1.77,0,0,1,.37.6l-.23-.08c-2.82-.92-5.65-1.82-8.35-2.9a34.55,34.55,0,0,0,1.24-4.5.4.4,0,0,1,.19.07l0,.09c-.47,1-.84,2.86-.26,3.84Z"/><path class="cls-28" d="M25.45,79.66c-2-.58-2.74-1.81-3.82-3.7-3.08-5.39-7.1-4.43-10.33-5.9-2.15-1-2.83-4,1.15-7.94,3.68-3.68-3-7.75-2.76-15.46.15-4.94,3.79-12.74,4.38-15,.55-2.13,1.24-3.26-1.53-6.29-1.07-1.16.13-1.71-2.48-4.67-1.37-1.55-.94-2.65.41-3.45,7.92-4.71,28.15-1.7,37.09-1.09,4.08.28,7-1.61,13.73-1.14,12,.84,10.15-3.44,27.41,1.72,11.27,3.37,13.18-2.14,22.75-1.56,4.81.3,6.43-.47,9.49-.73a24.82,24.82,0,0,1,6.88,0c4.23.92,2.23,4,5.88,5.85,5.25,2.7,11-1.06,8.36,6.78-1.31,3.94-2.84,8.53-.38,13.41.71,1.41.7,5-.1,6.27-3.21,5.19-6.16,4.38-1.91,7.35,3.46,2.42-1.42,4.41,1.08,7.12s1.27,5.18-1.41,10.54c-.37.72,1.44,1.62-1.92,3-2.35,1,6,3.86-12.82,3.86-5.34,0-7,1.37-12.37,1.25-9.28-.2-14.67-2.11-26.16-1.37-7.5.49-11.24,1.28-19.25,1-4.76-.15-5.75,1-12.24-.43-9.84-2.1-20.2,3.18-29.13.58Z"/><path class="cls-29" d="M17.12,69.39c-2.58-1.69-3.82-3-2-7.7,2.64-7-2.54-8.79-3.11-13.15-.73-5.6-.12-2.86,2.65-6.82,1.71-2.44-2.87-3.2,2.45-7.78,3.95-3.41,3-6.19-.61-9.31-2.91-2.53-3.25-6-.12-7.67,4.88-2.62,10.46.34,14.29.51a16.34,16.34,0,0,0,5-.83c2.76-.78,9.71,2.09,15.15,2.09,6.66,0,13.74-2.75,23.37-2.75,10,0,12.84,6.19,21.5,3.59,1-.29,7.07,2.63,15.79-.69,6.93-2.64,16.42-1.49,18.38,1.15.53.72,4.19.11,4.84,4.22.28,1.79,6.4,2.94,2.78,7.78-.66.89-1.12,6,.06,7.54,1.36,1.76,1.36,5.69-.06,7.21-4,4.31,1.72,7.85-1.23,11s-.43,5.7-.43,8.12c0,5.1-2.49,2-1.09,7,1.21,4.33-3.71,4.93-8.89,4.06-1.52-.26-2.82-.51-6,1.2-4.87,2.58-12,.93-17.52-.29-7.74-1.7-12.84-1.62-20.92.12-5.48,1.17-14.48-2.95-23.58-.59-7.93,2.06-11.43-2.42-17.19.32-4.42,2.11-8.69,1.58-10.62.16-2.47-1.82.41.46-3.41-3.36s-8.11-4.24-9.43-5.1Z"/><path class="cls-30" d="M41.86,4.32l68.54.61c.12,5.67-.14,11.37.68,17.24a1.73,1.73,0,0,1-.18,1.35,1.66,1.66,0,0,1-1.32.26c-21.81-2-45.5-2.53-66.89-.18a1.61,1.61,0,0,1-1.3-.27A1.69,1.69,0,0,1,41.17,22a135.5,135.5,0,0,0,.69-17.68Z"/><path class="cls-31" d="M39.24,2.39C63.33,1.62,89.56,2.08,113,3c-.6,5.7-.14,11.79-.24,17.49A5.62,5.62,0,0,0,112,22a546.82,546.82,0,0,0-71.63-.15,7.83,7.83,0,0,0-.84-1.54c0-5.66.62-12.21-.24-17.94Z"/><path class="cls-32" d="M38.38.4C63-.39,89.87.08,113.89,1q-1,9.74-1.1,19.47c-23.71-.8-49.45-1.08-73.31-.16A128.2,128.2,0,0,0,38.38.4Z"/><path class="cls-8" d="M112.8,19.23c-4.55.15-9.1.05-13.65.2-2.33.07-4.65.18-7,.31l-2.54.16c7.84.13,15.59.33,23.14.59,0-.42,0-.84,0-1.26Zm0-2.39c-4.24.21-8.45.39-12.7.39s-10.29.35-14.45.77q-5,.51-10,1.28l-3,.47,5.43,0a194.46,194.46,0,0,1,22-1.42c4.24,0,8.45-.19,12.68-.4,0-.37,0-.74,0-1.11Zm.08-2.41c-3.33.16-6.46.22-9.86.12-9.4-.3-18,1.21-27.2,2.38a65.14,65.14,0,0,0-6.8,1.13c-1.93.47-3.8,1.08-5.67,1.73l1.65,0c1.34-.46,2.68-.88,4-1.2,7.37-1.79,26.78-3.14,34-2.91,3.39.1,6.52,0,9.84-.12,0-.37,0-.74,0-1.11Zm.31-5.88c-3.28.49-6,.68-9.06.88C92.9,10.19,86.69,12.24,76,14.54a117.33,117.33,0,0,0-11.73,3c-2.12.68-4.21,1.54-6.28,2.34l2.51,0A119.91,119.91,0,0,1,76.17,15.2c4.78-1,12.13-2.83,16.48-3.44,4.77-.66,8.31-.9,11.58-1.12,3-.2,5.7-.38,8.93-.86,0-.41,0-.82.08-1.23ZM113.62,1a77,77,0,0,1-7.49,3.08A66.79,66.79,0,0,1,95.07,6.86c-7.37,1.3-14.24,3.66-21.41,5.62s-13.88,5.37-20.47,7.45l1.55,0c1.43-.56,2.84-1.19,4.3-1.7C64,16.44,68.88,14.78,74,13.39c5.63-1.54,10.64-3.16,16.48-4.47,5.27-1.19,10.66-1.78,15.92-3.63a78.9,78.9,0,0,0,7.41-3c0-.41.08-.82.13-1.24ZM46.43.19a3.54,3.54,0,0,1,.36.73,2.46,2.46,0,0,1,.17.92,2.5,2.5,0,0,1-.2.89,1.88,1.88,0,0,1-.52.69,4.53,4.53,0,0,1-1.08.64,5.88,5.88,0,0,1-1.32.4,12,12,0,0,1-1.79.2,9.53,9.53,0,0,1-1.69-.09,15.19,15.19,0,0,1-1.49-.32c0-.49-.11-1-.17-1.45.2.1.41.18.62.27a8.1,8.1,0,0,0,4.73.48A4.31,4.31,0,0,0,46,2.74a1.33,1.33,0,0,0,.43-1A2.35,2.35,0,0,0,46,.55L45.71.2ZM56.81,0a3.16,3.16,0,0,1-1,2.76c-4.6,5-9.36,8.8-16.52,7.84,0,.36,0,.71.05,1.07C46.91,13,52.21,8.91,57.32,3.31A4.84,4.84,0,0,0,58.89,0Zm9.83,0A1.94,1.94,0,0,1,66,1.3a53.36,53.36,0,0,1-5.9,4.54C54.41,9.73,53,12.67,42.81,13.9a14.8,14.8,0,0,1-3.37-.05c0,.19,0,.38,0,.57a25.89,25.89,0,0,0,3.18.06c8.85-.38,12-3.7,18.24-7.94A65.15,65.15,0,0,0,67.5,1.68a2.86,2.86,0,0,0,.62-.93A2.76,2.76,0,0,0,68.3,0ZM78.37.09c.44,1.33-1.56,2.4-4.89,3.77-1.92.78-3.92,1.55-5.73,2.4-4.23,2-8,5.47-12.35,7.62a31.08,31.08,0,0,1-15.91,3.27V18A32.53,32.53,0,0,0,55.73,14.6c1.79-.89,3.46-1.91,5.14-2.94a82.28,82.28,0,0,1,8.07-4.37c3.11-1.47,6.77-2.7,9.68-4.16,2-1,2.44-2,2.07-3l-2.32,0Zm15.87.3a9,9,0,0,1-2.65,1.67c-3,1.4-6.22,2.48-9.32,3.73-11.42,4.6-27.49,13.46-38.86,13.9-1.27,0-2.58,0-3.92,0,0,.22,0,.43,0,.64,2.27-.09,4.56-.16,6.86-.23a57,57,0,0,0,15.72-4.35c3-1.28,6-2.75,9-4C75.24,10,79.48,8.31,83.7,6.61c3.24-1.31,6.57-2.43,9.73-3.9a8.74,8.74,0,0,0,2.35-1.49,2.92,2.92,0,0,0,.6-.78l-2.14,0ZM39.15,7.51A10.85,10.85,0,0,0,44,7.59a15.24,15.24,0,0,0,2.65-.87,11.83,11.83,0,0,0,4-2.74A3.63,3.63,0,0,0,51.91.88,1.23,1.23,0,0,0,51.8.54a3.28,3.28,0,0,0-.24-.45l-1.05,0c.61,1,.59,2-.59,3.42A10.48,10.48,0,0,1,46.39,6.1,12.39,12.39,0,0,1,44,6.92a9.35,9.35,0,0,1-5-.26c0,.28.05.56.07.85Z"/><path class="cls-33" d="M46,2.74a1.33,1.33,0,0,0,.43-1A2.35,2.35,0,0,0,46,.55L45.71.2c-2.46,0-4.91.12-7.33.2.12.79.23,1.59.32,2.4.2.1.41.18.62.27a8.1,8.1,0,0,0,4.73.48A4.31,4.31,0,0,0,46,2.74Z"/><path class="cls-34" d="M51.91.88A3.63,3.63,0,0,1,50.68,4a11.83,11.83,0,0,1-4,2.74A15.24,15.24,0,0,1,44,7.59a10.85,10.85,0,0,1-4.85-.08q.1,1.56.18,3.12c7.16,1,11.92-2.8,16.52-7.84a3.16,3.16,0,0,0,1-2.76L51.56.09a3.28,3.28,0,0,1,.24.45,1.23,1.23,0,0,1,.11.34Z"/><path class="cls-35" d="M67.5,1.68a65.15,65.15,0,0,1-6.62,4.86c-6.26,4.24-9.39,7.56-18.24,7.94a25.89,25.89,0,0,1-3.18-.06q0,1.38,0,2.73A31.08,31.08,0,0,0,55.4,13.88c4.3-2.15,8.12-5.63,12.35-7.62,1.81-.85,3.81-1.62,5.73-2.4,3.33-1.37,5.33-2.44,4.89-3.77C75,0,71.66,0,68.3,0a2.76,2.76,0,0,1-.18.74,2.86,2.86,0,0,1-.62.93Z"/><path class="cls-36" d="M83.7,6.61c-4.22,1.7-8.46,3.35-12.65,5.11-3,1.28-6,2.75-9,4A57,57,0,0,1,46.34,20.1c2.27-.07,4.55-.12,6.85-.17,6.59-2.08,13.35-5.5,20.47-7.45s14-4.32,21.41-5.62a66.79,66.79,0,0,0,11.06-2.77A77,77,0,0,0,113.62,1C108,.79,102.24.6,96.38.44a2.92,2.92,0,0,1-.6.78,8.74,8.74,0,0,1-2.35,1.49c-3.16,1.47-6.49,2.59-9.73,3.9Z"/><path class="cls-37" d="M39.48,16c.68-5.16.66-8.34-.13-14.9,21.7.32,44.5,0,66.38-.4C83.89,0,60.27-.3,38.38.4A115.22,115.22,0,0,1,39.48,16Z"/><path class="cls-38" d="M53,15.93a21.77,21.77,0,0,0,5.41-2.42l.67-.4.2-.13.48-.3a78.1,78.1,0,0,1,8.62-4.62c2.52-1.22,5.55-2.52,7.54-3.68l-.58.24c-2.11.87-4.34,1.72-6.35,2.67l-1.3.62-1.37.69-.88.47c-.56.29-1.11.6-1.66.91-.95.54-1.89,1.09-2.86,1.68l-1.5.92-.69.4-.22.13L58,13.4c-.73.42-1.47.82-2.24,1.2-1,.49-1.95.92-2.9,1.29L52,16.2l1-.27Z"/><path class="cls-38" d="M67.31,15.38,65.43,16l-1.35.45c-1.65.56-3.3,1.14-4.95,1.72l-.09,0c-.57.2-1.14.42-1.7.65l1.89-.64.8-.27,4.66-1.5.34-.1.7-.23,1.9-.61c1-.33,2.06-.66,3.09-1,.75-.22,1.5-.44,2.25-.64s1.73-.33,2.58-.57c1.91-.54,3.78-1.26,5.67-1.87l.91-.29,1.64-.56L82,11.11c-2,.57-4,1.16-6.09,1.74l-.42.12-.28.08L74,13.39l-1.29.36c-1.8.51-3.58,1.06-5.35,1.63Z"/><path class="cls-38" d="M90.33,12.32c6.82-.82,12.83-.94,17.87-1.45q1.15-.12,2.25-.27c.78-.11,1.54-.23,2.26-.38l.43-.08c0-.12,0-.24,0-.36l-.45.07c-.78.11-1.53.2-2.26.28-1.65.18-3.22.3-4.82.42l-1.4.09c-3.27.22-6.81.46-11.58,1.12-.8.11-1.71.27-2.68.45s-1.7.32-2.6.51c1-.15,2-.28,3-.4Z"/></g></g></g></svg>