<svg xmlns="http://www.w3.org/2000/svg" xmlns:xlink="http://www.w3.org/1999/xlink" viewBox="0 0 49.12 37.46"><defs><style>.cls-1{isolation:isolate;}.cls-2{fill:url(#Áåçûìÿííûé_ãðàäèåíò_158);}.cls-3{fill:url(#Áåçûìÿííûé_ãðàäèåíò_158-2);}.cls-4{fill:url(#Áåçûìÿííûé_ãðàäèåíò_157);}.cls-5{fill:url(#Áåçûìÿííûé_ãðàäèåíò_156);}.cls-6{fill:url(#Áåçûìÿííûé_ãðàäèåíò_155);}.cls-7{fill:#9a2e69;mix-blend-mode:multiply;}.cls-10,.cls-7{opacity:0.5;}.cls-8{fill:#ff6eff;}.cls-10,.cls-8{mix-blend-mode:soft-light;}.cls-9{fill:#ff5d99;}.cls-10,.cls-11{fill:#fff;}.cls-12{fill:url(#Áåçûìÿííûé_ãðàäèåíò_154);}.cls-13{fill:url(#Áåçûìÿííûé_ãðàäèåíò_154-2);}.cls-14{fill:url(#Áåçûìÿííûé_ãðàäèåíò_154-3);}</style><linearGradient id="Áåçûìÿííûé_ãðàäèåíò_158" x1="21.78" y1="37.46" x2="21.78" y2="0.68" gradientUnits="userSpaceOnUse"><stop offset="0" stop-color="#83003b"/><stop offset="1" stop-color="#c20040"/></linearGradient><linearGradient id="Áåçûìÿííûé_ãðàäèåíò_158-2" x1="23.19" y1="37.46" x2="23.19" y2="0" xlink:href="#Áåçûìÿííûé_ãðàäèåíò_158"/><linearGradient id="Áåçûìÿííûé_ãðàäèåíò_157" x1="27.08" y1="37.46" x2="27.08" y2="0.68" gradientUnits="userSpaceOnUse"><stop offset="0" stop-color="#de004c"/><stop offset="1" stop-color="#ff003b"/></linearGradient><linearGradient id="Áåçûìÿííûé_ãðàäèåíò_156" x1="27.08" y1="32.76" x2="27.08" y2="5.2" gradientUnits="userSpaceOnUse"><stop offset="0" stop-color="#ff2352"/><stop offset="0.07" stop-color="#f41f4f"/><stop offset="0.34" stop-color="#d01247"/><stop offset="0.59" stop-color="#b60840"/><stop offset="0.82" stop-color="#a7023c"/><stop offset="1" stop-color="#a1003b"/></linearGradient><linearGradient id="Áåçûìÿííûé_ãðàäèåíò_155" x1="25.83" y1="32.26" x2="25.83" y2="5.34" gradientUnits="userSpaceOnUse"><stop offset="0" stop-color="#b80057"/><stop offset="1" stop-color="#ce003b"/></linearGradient><linearGradient id="Áåçûìÿííûé_ãðàäèåíò_154" x1="81.32" y1="4.77" x2="81.32" y2="-0.44" gradientTransform="matrix(0.99, 0.12, -0.12, 0.99, -37.03, 5.97)" gradientUnits="userSpaceOnUse"><stop offset="0" stop-color="#de0057"/><stop offset="1" stop-color="#a1003b"/></linearGradient><linearGradient id="Áåçûìÿííûé_ãðàäèåíò_154-2" x1="5.72" y1="18.87" x2="5.72" y2="14.67" gradientTransform="matrix(1, 0, 0, 1, 0, 0)" xlink:href="#Áåçûìÿííûé_ãðàäèåíò_154"/><linearGradient id="Áåçûìÿííûé_ãðàäèåíò_154-3" x1="127.68" y1="-29.86" x2="127.68" y2="-32.44" gradientTransform="translate(-91.97 5.04) rotate(18.28)" xlink:href="#Áåçûìÿííûé_ãðàäèåíò_154"/></defs><g class="cls-1"><g id="Calque_2" data-name="Calque 2"><g id="layer1"><path class="cls-2" d="M35.08.69C25.75.94,22.24,12.58,22.24,12.58S18.14.94,8.79.69-2.88,12.91,4,24.1C10,34,22.86,37.46,22.86,37.46s14-3.61,18.24-13.36C45.41,14.09,44.45.43,35.08.69Z"/><path class="cls-3" d="M22.86,37.46h3.75L43.16,1s-6-1.89-11.57.37C26.24,3.57,23,10.61,23,10.61L16.28.92s-7-2.48-11.69.7c-4.47,3,3.37,24,3.37,24Z"/><path class="cls-4" d="M45.52,24.1C40,33,27.43,37.2,26.65,37.45h0s-13-4.14-18.24-13.36C2.09,13.09,5,.43,14.4.69S27.24,12.58,27.24,12.58,31.34.94,40.68.69c4.55-.13,7.25,3.07,8.12,7.52C49.73,12.93,48.62,19.05,45.52,24.1Z"/><path class="cls-5" d="M44.21,13.29a19.17,19.17,0,0,1-2.8,8.86c-3.77,6.15-12.06,9.62-14.74,10.61-.33-.13-.75-.29-1.24-.5-3.34-1.42-9.84-4.72-12.88-10A18.59,18.59,0,0,1,9.93,12.11,10.13,10.13,0,0,1,11.1,7.67a4.67,4.67,0,0,1,3-2.33,5.29,5.29,0,0,1,1.28-.14h.17C20,5.31,24,11.84,25.9,15.53,26.66,17,27.08,18,27.08,18S32.39,6.83,38.36,5.36a4.81,4.81,0,0,1,1.13-.16h.16a3.73,3.73,0,0,1,3.52,2.12A11.17,11.17,0,0,1,44.21,13.29Z"/><path class="cls-6" d="M38.91,22.15c-3.29,5.36-10,8.69-13.48,10.11-3.34-1.42-9.84-4.72-12.88-10C9.18,16.32,9.44,10.55,11.1,7.67a4.67,4.67,0,0,1,3-2.33C19.87,6.75,24.57,18,24.57,18h2.51S32.39,6.83,38.36,5.36a3.79,3.79,0,0,1,2.31,2C42.39,10.4,42.2,16.78,38.91,22.15Z"/><path class="cls-7" d="M44.21,13.29c-.31.85-.67,1.42-1.05,1.4-1.38-.08-1.48-9-6.14-7.21s-9.94,11.69-9.94,11.69-1.58.92-2,.6S13.83,4.19,9.94,12.12h0A10.13,10.13,0,0,1,11.1,7.67a4.67,4.67,0,0,1,3-2.33,5.29,5.29,0,0,1,1.28-.14h.17C20,5.31,24,11.84,25.9,15.53,26.66,17,27.08,18,27.08,18S32.39,6.83,38.36,5.36a4.81,4.81,0,0,1,1.13-.16h.16a3.73,3.73,0,0,1,3.52,2.12A11.17,11.17,0,0,1,44.21,13.29Z"/><path class="cls-8" d="M14,24.33s8.31,7.42,11.83,7.15S35,26.69,38,24.33s1.4.49,1.4.49S31.83,32,26.67,32.76A31.9,31.9,0,0,1,14,24.33Z"/><path class="cls-8" d="M1.26,5.19C.45,7.4,4.52,5,8.16,2.79A13.11,13.11,0,0,1,14.7.68S5.52-2.14,1.26,5.19Z"/><path class="cls-9" d="M5.05,13s.42-6,3.15-9A9.22,9.22,0,0,1,13.93.69S4.67.25,5.05,13Z"/><path class="cls-8" d="M28.75,3.11c-3.27,3,6.32-1.74,10.08-2.32S33-.81,28.75,3.11Z"/><path class="cls-7" d="M15.68,34.5a36,36,0,0,0,7.51,2S12.37,29.82,9.43,25.75s-5.58-7-5.9-2.36A29.58,29.58,0,0,0,15.68,34.5Z"/><path class="cls-7" d="M27.24,12.58s3-5.89,3.24-7.06-2.34-1.17-3.24-.74A9.74,9.74,0,0,0,25,7.3,47.69,47.69,0,0,1,27.24,12.58Z"/><path class="cls-7" d="M45.52,24.1C40,33,27.43,37.2,26.65,37.45c.74-.31,12.69-5.4,17.6-13.31A29.68,29.68,0,0,0,48.8,8.21C49.73,12.93,48.62,19.05,45.52,24.1Z"/><path class="cls-10" d="M.91,7.38c.42-1,3.76-1.12,4.47-1S4.1,12.61,4.3,13.48s-3,1.61-3.8.93S0,9.49.91,7.38Z"/><path class="cls-8" d="M11.63,1.22C9.27,2.17,5.05,7.09,5.93,14s3.21,8.32,4.38,8S7.42,11.31,11.63,6.07,22.22,8.64,25,12.75s2.9.49,8.93-5.76,10.18-.06,10.89,2,3.42-.83,3.51-2.72-6-7.58-11-5S27.24,12.58,27.24,12.58,20.88-1.19,11.63,1.22Z"/><path class="cls-11" d="M26.47,32.62c-.58-.3,1-1.26,1.82-1.35s1.32.1,1.47.23S28.12,32.6,26.47,32.62Z"/><path class="cls-11" d="M35.41,1.49c-2.09,1.87,5.14.82,6.33-.28S36.87.19,35.41,1.49Z"/><path class="cls-11" d="M8.51,2.79c-.22,1,3-.81,3.86-1.73C13,.47,8.86,1.17,8.51,2.79Z"/><path class="cls-12" d="M42,19.59c0-1.32,1.21-3.74,1.85-3.87S45,17,44.51,19,42,21.61,42,19.59Z"/><path class="cls-7" d="M43.61,15.83c-.39.08-1.1,2.27-.89,2.89s1.54.65,1.76-.49S44.53,15.63,43.61,15.83Z"/><path class="cls-8" d="M42.13,19.68c-.33-1.14,1.44-.17,1.91-.45s.24.27.24.27S42.09,22.43,42.13,19.68Z"/><path class="cls-13" d="M5,14.73c-.82.22-.33,3.85.86,4.13S7.46,14.07,5,14.73Z"/><path class="cls-7" d="M4.91,15a2.77,2.77,0,0,0,.29,2.7c.43.43,1.51-.47,1.33-1.78A1.06,1.06,0,0,0,4.91,15Z"/><path class="cls-8" d="M5,18c0-.57.55.35,1.08-.27s.7-.86.69-.91-.1,1.58-.61,2S5,18,5,18Z"/><path class="cls-14" d="M39,14.18c-.52,0-.94,2.18-.3,2.57S40.57,14.27,39,14.18Z"/><path class="cls-7" d="M38.9,14.31A1.7,1.7,0,0,0,38.55,16c.17.33,1,0,1.12-.79A.66.66,0,0,0,38.9,14.31Z"/><path class="cls-8" d="M38.41,16.06c.08-.34.25.32.68.05a3.4,3.4,0,0,0,.58-.39s-.37.9-.74,1S38.41,16.06,38.41,16.06Z"/></g></g></g></svg>