<svg xmlns="http://www.w3.org/2000/svg" xmlns:xlink="http://www.w3.org/1999/xlink" viewBox="0 0 50.86 37.09"><defs><style>.cls-1{isolation:isolate;}.cls-2{fill:url(#Áåçûìÿííûé_ãðàäèåíò_638);}.cls-3,.cls-4{fill:#963b66;}.cls-3,.cls-4,.cls-6{mix-blend-mode:multiply;}.cls-3{opacity:0.3;}.cls-4{opacity:0.5;}.cls-5,.cls-8{fill:#fff;}.cls-5{mix-blend-mode:soft-light;}.cls-6{fill:#ca006d;}.cls-7{fill:#ff65b1;}</style><linearGradient id="Áåçûìÿííûé_ãðàäèåíò_638" x1="25.43" y1="37.09" x2="25.43" gradientUnits="userSpaceOnUse"><stop offset="0" stop-color="#de0086"/><stop offset="1" stop-color="#ff003b"/></linearGradient></defs><g class="cls-1"><g id="Calque_2" data-name="Calque 2"><g id="layer1"><path class="cls-2" d="M50.58,17.19a22,22,0,0,1-1,3.84,12.39,12.39,0,0,1-.85,1.85c-2.92,5.28-9.34,9-14.7,11.27h0a59.38,59.38,0,0,1-8.54,2.94,60.15,60.15,0,0,1-7.88-2.66A41.64,41.64,0,0,1,6.48,28a19.94,19.94,0,0,1-1.82-1.73A15.56,15.56,0,0,1,1.32,21a21.19,21.19,0,0,1-1-3.84A16.28,16.28,0,0,1,1.66,6.84h0A12,12,0,0,1,13.06,0a4.38,4.38,0,0,1,.51,0c6.31.72,8.8,5.76,10.35,8.46v0c.09.17.19.33.27.47s0,0,0,0,.2.31.3.45c.32.47.62.75.92.75,1,0,2-3.59,4.74-6.53h0A11.16,11.16,0,0,1,35.72.36h0A11.77,11.77,0,0,1,37.14.1a.8.8,0,0,1,.15,0C45.13-.82,52.4,6.67,50.58,17.19Z"/><path class="cls-3" d="M37.55.22s-5.63.78-7.93,4.9C26,11.61,28.13,12.56,26,11.61c-1-.45-.41,0-2.7-3.34S7.89-.13,13.06,0a4.38,4.38,0,0,1,.51,0c8.69,1,10.14,10.18,11.86,10.18S28.59,1.17,37.14.1Z"/><path class="cls-3" d="M39.26,8.93c-3.65,6.94-11.82,9.39-13,5.27a27.23,27.23,0,0,0-2-5.15c.46.74.83,1.2,1.22,1.2,1.54,0,3-8.06,10.29-9.89h0C38.83.09,42.89,2,39.26,8.93Z"/><path class="cls-4" d="M48.69,22.88c-5.47,9.9-23.26,14.21-23.26,14.21S5.43,32.25,1.32,21a21.19,21.19,0,0,1-1-3.84c4-7,17.87,14.46,25.15,16.59C31.64,35.6,46.1,25.39,48.69,22.88Z"/><path class="cls-5" d="M34,34.15a59.38,59.38,0,0,1-8.54,2.94S13.82,34.28,6.48,28l.31-.23c-.31-9.7,8.39,4.68,13.51,7S33.6,34.28,34,34.15Z"/><path class="cls-5" d="M13.53,4.19C0,8.27,13.45,28.65,25.43,31.93c13,3.55,26.48-9,23.4-22.66-1.33-5.9-8.12-4.42-8.28-3.77S37,14.1,29.15,14.63,22.86,1.38,13.53,4.19Z"/><path class="cls-6" d="M30.17,3.72c-.05.34-1.52,9.89-3,9.72s-2.72-3.86-2.72-3.86l0-.08c.32.47.62.75.92.75C26.46,10.25,27.44,6.66,30.17,3.72Z"/><path class="cls-7" d="M40,.1c-1.42.71,2.23,2.6,5.4,5.12S49.67,11,49.94,11,48.94.8,40,.1Z"/><path class="cls-7" d="M4.19,6c-2,4.32,6.11.79,9.75-2S8.59-3.43,4.19,6Z"/><path class="cls-8" d="M21,14.48c-.72.93.63,4,4.78,5.79s8.38-1,10.57-3.22-1.84,1.56-6.85,1.85S22.26,12.91,21,14.48Z"/><path class="cls-5" d="M30.17,15.94c-3.86-.23-5.6-8.39-10.61-5.55s-.12,10.84,9.37,14.12S44.48,13.67,42.42,9.83,37.49,16.38,30.17,15.94Z"/><path class="cls-8" d="M39.21,14.88c-1.41.26.21-3,1.62-4.11S42,14.39,39.21,14.88Z"/><path class="cls-6" d="M50.58,17.19a22,22,0,0,1-1,3.84,12.39,12.39,0,0,1-.85,1.85c-2.92,5.28-9.34,9-14.7,11.27h0a59.38,59.38,0,0,1-8.54,2.94,60.15,60.15,0,0,1-7.88-2.66s6.37,1.63,11.6.17c4-1.11,7.7-3.71,10.56-5.94C48,22.18,50.58,17.19,50.58,17.19Z"/><path class="cls-6" d="M4.66,26.25A15.56,15.56,0,0,1,1.32,21a21.19,21.19,0,0,1-1-3.84A16.28,16.28,0,0,1,1.66,6.84h0c2.4-2.55-1.3,4-.71,9.36A25.32,25.32,0,0,0,4.66,26.25Z"/><path class="cls-7" d="M32.85,2.91c-1.55,2.22,3.81-.44,5.23-1.47S35-.13,32.85,2.91Z"/></g></g></g></svg>