<svg xmlns="http://www.w3.org/2000/svg" xmlns:xlink="http://www.w3.org/1999/xlink" viewBox="0 0 55.54 41.94"><defs><style>.cls-1{isolation:isolate;}.cls-2{fill:url(#Áåçûìÿííûé_ãðàäèåíò_870);}.cls-3,.cls-4,.cls-8{fill:#c60055;}.cls-11,.cls-13,.cls-14,.cls-16,.cls-3,.cls-4,.cls-6,.cls-8{mix-blend-mode:multiply;}.cls-3{opacity:0.4;}.cls-4,.cls-5{opacity:0.3;}.cls-5{fill:#ffb64a;mix-blend-mode:screen;}.cls-6{fill:#eb5694;}.cls-16,.cls-6,.cls-8{opacity:0.2;}.cls-7{fill:#ffd8a7;}.cls-9{fill:#ffc59f;}.cls-10{fill:url(#Áåçûìÿííûé_ãðàäèåíò_638);}.cls-11{fill:#d40055;}.cls-11,.cls-13{opacity:0.8;}.cls-12{fill:#f20041;}.cls-13{fill:#c90055;}.cls-14{fill:#a10055;opacity:0.5;}.cls-15{fill:#fff;}.cls-16{fill:#dc6a94;}</style><linearGradient id="Áåçûìÿííûé_ãðàäèåíò_870" x1="27.77" y1="41.94" x2="27.77" gradientUnits="userSpaceOnUse"><stop offset="0" stop-color="#ffa274"/><stop offset="1" stop-color="#ffc488"/></linearGradient><linearGradient id="Áåçûìÿííûé_ãðàäèåíò_638" x1="24.07" y1="30.91" x2="24.07" y2="13.03" gradientUnits="userSpaceOnUse"><stop offset="0" stop-color="#de0086"/><stop offset="1" stop-color="#ff003b"/></linearGradient></defs><g class="cls-1"><g id="Calque_2" data-name="Calque 2"><g id="layer1"><path class="cls-2" d="M51.05,37.87a7.8,7.8,0,0,1-.9,2.73c-1.46,1.11-42.28,2.79-44.79-1.05a14.7,14.7,0,0,1-2.46-4.3c-.09-.35-.18-.68-.26-1,0,0,0,0,0,0C-1.77,16.35.46,3.13,1.44,2.71c7-3,52.28-3.56,53.84-1.36h0C56.52,3.23,53,29.25,51.05,37.87Z"/><path class="cls-3" d="M55.28,1.36C55-1.46,51.62,11.62,50.56,21.81c-.77,7.38-.9,17.68-.65,18.23S56.5,13.46,55.28,1.36Z"/><path class="cls-3" d="M51.05,37.87a7.8,7.8,0,0,1-.9,2.73c-1.46,1.11-42.28,2.79-44.79-1.05C5,38.93,3,36.13,2.65,34.26c2.06,4.49,9.44,7.91,26.79,7.3S49.74,40.29,51.05,37.87Z"/><path class="cls-3" d="M1.44,2.71C1.16,4.29,13.56,20.57,21.89,24.65S50.56,4,55.28,1.36c0,0,.17.16.16,1.3S36.49,17.91,33,21.81s14.39,18,17.16,18.79c0,0-.66.4-1.06.27S34.62,30.38,31,23.17c0,0-3.91,3.42-6.23,3.54s-4.89-3-5.46-3.24C19.26,23.47,8,33.84,6.64,40c0,0,0,.5-.65-.56S18.36,23.55,18.36,23.31,5.36,10.66,1.44,2.71Z"/><path class="cls-3" d="M20.55,23.91S23.55,28,25,28c2.62,0,5.74-.65,14.1-8.09C54.07,6.59,54.63,1.78,54.63,1.78s-5,4.89-13,12.19-14.15,10.42-15.86,11S20.55,23.91,20.55,23.91Z"/><path class="cls-4" d="M55.28,1.35c-.23-.08-5.92-2.23-20,0C20.82,3.64,4.12.5,2.16,3.26S.94,9.09.7,15.4c-.23,6,1.75,17.72,1.93,18.79C-1.77,16.35.46,3.13,1.44,2.71,8.45-.34,53.72-.85,55.28,1.35Z"/><path class="cls-5" d="M3.56,3.39c-1,.51,4.89,7.32,10.29,13.7s14.79,5.79,20.9,1.72S52.55,3.07,52,1.78s-14.54.09-25.84.69S5.18,2.55,3.56,3.39Z"/><path class="cls-6" d="M6.64,40c-.56-1.36,6.68-9.95,19.39-9.69S47.71,40.9,47.71,40.9,21.31,43.37,6.64,40Z"/><path class="cls-3" d="M40.65,33.66a52.1,52.1,0,0,0,5.21,4.83c2.35,1.78,3.23,2.38,3.23,2.38s1,.41,1.36-.82S46.54,38.92,40.65,33.66Z"/><path class="cls-7" d="M31.77,24.58c-.81-.46,2.45,5.62,7.2,9.49a59.9,59.9,0,0,0,8.74,6S41.36,33.66,31.77,24.58Z"/><path class="cls-7" d="M7,38.85s7.48-10.56,12.26-15.38C19.26,23.47,9.85,29.57,7,38.85Z"/><path class="cls-3" d="M50.65,21c-.79,10.52,2.82.49,3.93-5.57a48.82,48.82,0,0,0,.05-13.62C54.57,1.13,51.31,12.11,50.65,21Z"/><path class="cls-8" d="M7.84,21.71a1,1,0,0,1,1.81-.55,1.65,1.65,0,0,1-1,1.87C7.86,23.21,7.82,22.29,7.84,21.71Z"/><path class="cls-8" d="M42.83,5.25a1,1,0,0,1,1.81-.55,1.62,1.62,0,0,1-1,1.86C42.85,6.75,42.81,5.83,42.83,5.25Z"/><path class="cls-8" d="M7.29,20.75c.9-1.08-.23-4.68-2.74-4.49s-1.26,3.82,0,4.68A1.92,1.92,0,0,0,7.29,20.75Z"/><path class="cls-9" d="M24.76,25.05c-1.22-.16,14.92-9.35,14.92-9.35S30.41,24,24.76,25.05Z"/><path class="cls-3" d="M1.44,2.71S2.73,7.16,7.38,13.15,20.55,23.91,20.55,23.91,6.63,12.8,1.44,2.71Z"/><path class="cls-10" d="M20.42,13.73c-3.87,1.52-5.36,4.18-5.92,9s10.11,11,15,6.85,4.68-10.51,3.26-14S22.47,12.93,20.42,13.73Z"/><path class="cls-11" d="M30.48,21.7a6.41,6.41,0,1,1-6.41-6.41A6.41,6.41,0,0,1,30.48,21.7Z"/><ellipse class="cls-12" cx="24.89" cy="21.7" rx="5.51" ry="5.71"/><path class="cls-13" d="M14.93,24.87a14.18,14.18,0,0,0,9.14,5c5.94.7,8.34-3.88,9-7.62A15.41,15.41,0,0,0,32,14.51,4.05,4.05,0,0,1,33.23,16c.2.68.74,8.33.93,10.43S31.07,31.63,25.43,32,16.06,27.07,14.93,24.87Z"/><path class="cls-14" d="M17.71,20.91C18,24.23,17.32,23.08,20,19s9.29-.55,9.88,0-2-4.58-6.7-3.73S17.71,20.91,17.71,20.91Z"/><path class="cls-5" d="M14.93,24.12a2.72,2.72,0,0,0,3.33,2c.52-.19-1.74-3.57-.28-7.43s5-5.14,9.26-3.44,4.29-.08,3.9-.78-8.19-2.81-12.32,0S14.66,22.88,14.93,24.12Z"/><path class="cls-5" d="M26.25,29.91c-1.17-1,3.34-3.6,4.84-6.66s1.25.79.37,3.33S26.25,29.91,26.25,29.91Z"/><path class="cls-15" d="M25.23,13.41c-1.24.29,1.22,2,3.1,1.75S27.87,12.79,25.23,13.41Z"/><path class="cls-15" d="M26.34,29.61c-.58-.13,1.22-1.65,1.73-1.48S27.72,29.93,26.34,29.61Z"/><path class="cls-6" d="M36.34,26.42c.21,2.14,9.38,11.48,11.88,12.09s.59-16.67.46-21.42S36.1,23.87,36.34,26.42Z"/><path class="cls-16" d="M39,34.07c-3-1.47,1.45,3.38,3.54,5.23a6.18,6.18,0,0,0,5.2,1.34C48.13,40.52,42.27,37.31,39,34.07Z"/><path class="cls-7" d="M3.1,4.32c2.08,3.23,7.13,0,13.48-1.06S7,1.56,4.77,2.25,3.1,4.32,3.1,4.32Z"/></g></g></g></svg>