<svg xmlns="http://www.w3.org/2000/svg" xmlns:xlink="http://www.w3.org/1999/xlink" viewBox="0 0 56.32 110.98"><defs><linearGradient id="linear-gradient" x1="24.25" y1="73.23" x2="32.08" y2="73.23" gradientUnits="userSpaceOnUse"><stop offset="0" stop-color="#2d2e83"/><stop offset="0.35" stop-color="#2372cc"/><stop offset="1" stop-color="#2d2e83"/></linearGradient><linearGradient id="linear-gradient-2" x1="25.81" y1="72.76" x2="28.91" y2="72.76" gradientUnits="userSpaceOnUse"><stop offset="0" stop-color="#6c8bd4"/><stop offset="0.01" stop-color="#6b8ad2"/><stop offset="0.7" stop-color="#1f273c"/><stop offset="1"/></linearGradient><linearGradient id="linear-gradient-3" x1="24.25" y1="44.28" x2="32.08" y2="44.28" gradientUnits="userSpaceOnUse"><stop offset="0" stop-color="#2b4499"/><stop offset="0.35" stop-color="#267bdb"/><stop offset="1" stop-color="#1f3983"/></linearGradient><linearGradient id="linear-gradient-4" x1="25.44" y1="105.52" x2="30.89" y2="105.52" gradientUnits="userSpaceOnUse"><stop offset="0" stop-color="#cf7500"/><stop offset="0.74" stop-color="#ffce38"/><stop offset="1" stop-color="#cf7500"/></linearGradient><radialGradient id="radial-gradient" cx="23.57" cy="100.56" r="12.67" gradientUnits="userSpaceOnUse"><stop offset="0" stop-color="#deba83"/><stop offset="1" stop-color="#fff"/></radialGradient><radialGradient id="New_Gradient_Swatch_132" cx="22.72" cy="99.66" r="16.39" gradientUnits="userSpaceOnUse"><stop offset="0" stop-color="#fffd9e"/><stop offset="1"/></radialGradient><radialGradient id="radial-gradient-2" cx="32.76" cy="98.65" r="19.8" xlink:href="#radial-gradient"/><linearGradient id="linear-gradient-5" x1="25.45" y1="43.99" x2="28.61" y2="44.56" xlink:href="#linear-gradient-2"/><linearGradient id="linear-gradient-6" x1="25.19" y1="42.46" x2="31.13" y2="42.46" xlink:href="#linear-gradient-4"/><radialGradient id="New_Gradient_Swatch_132-2" cx="26.29" cy="41.6" r="4.49" xlink:href="#New_Gradient_Swatch_132"/><linearGradient id="linear-gradient-7" x1="24.59" y1="33.53" x2="31.73" y2="33.53" xlink:href="#linear-gradient-4"/><radialGradient id="radial-gradient-3" cx="35.28" cy="34.56" r="17.41" gradientUnits="userSpaceOnUse"><stop offset="0" stop-color="#fff"/><stop offset="1" stop-color="#deba83"/></radialGradient><radialGradient id="New_Gradient_Swatch_132-3" cx="23.42" cy="35.44" r="18.01" xlink:href="#New_Gradient_Swatch_132"/><radialGradient id="radial-gradient-4" cx="18.71" cy="31.75" r="16.85" xlink:href="#radial-gradient-3"/><linearGradient id="linear-gradient-8" x1="25.27" y1="24.44" x2="31.05" y2="24.44" xlink:href="#linear-gradient-4"/><linearGradient id="linear-gradient-9" x1="25.27" y1="24.35" x2="25.8" y2="24.35" xlink:href="#radial-gradient"/><linearGradient id="linear-gradient-10" x1="26.43" y1="24.44" x2="27.58" y2="24.44" xlink:href="#New_Gradient_Swatch_132"/><linearGradient id="linear-gradient-11" x1="29.89" y1="24.4" x2="31.05" y2="24.4" xlink:href="#radial-gradient-3"/><linearGradient id="linear-gradient-12" x1="25.42" y1="21.13" x2="30.9" y2="21.13" xlink:href="#linear-gradient-4"/><linearGradient id="linear-gradient-13" x1="25.42" y1="21.04" x2="26.02" y2="21.04" xlink:href="#radial-gradient"/><linearGradient id="linear-gradient-14" x1="29.73" y1="21.09" x2="30.9" y2="21.09" xlink:href="#radial-gradient-3"/><linearGradient id="linear-gradient-15" x1="26.52" y1="21.13" x2="27.64" y2="21.13" xlink:href="#New_Gradient_Swatch_132"/><linearGradient id="linear-gradient-16" x1="28.16" y1="16" x2="56.32" y2="16" gradientUnits="userSpaceOnUse"><stop offset="0" stop-color="#657a9e"/><stop offset="1" stop-color="#afc2d9"/></linearGradient><radialGradient id="radial-gradient-5" cx="43.32" cy="-12.24" r="31.86" gradientUnits="userSpaceOnUse"><stop offset="0" stop-color="#a1bfe8"/><stop offset="0.6" stop-color="#3f4a5a"/><stop offset="1"/></radialGradient><radialGradient id="radial-gradient-6" cx="50.77" cy="4.16" r="41.77" gradientUnits="userSpaceOnUse"><stop offset="0" stop-color="#d9e4e8"/><stop offset="1" stop-color="#758d9e"/></radialGradient><linearGradient id="linear-gradient-17" x1="50.92" y1="32" x2="50.92" y2="1.72" gradientUnits="userSpaceOnUse"><stop offset="0" stop-color="#c1cccf"/><stop offset="1" stop-color="#f2f8fa"/></linearGradient><radialGradient id="radial-gradient-7" cx="34.7" cy="9.03" r="32.25" gradientUnits="userSpaceOnUse"><stop offset="0" stop-color="#e6e6e6"/><stop offset="0.15" stop-color="#dedfe0"/><stop offset="0.37" stop-color="#c9cbd1"/><stop offset="0.65" stop-color="#a5aab7"/><stop offset="0.97" stop-color="#757c93"/><stop offset="1" stop-color="#6f778f"/></radialGradient><linearGradient id="linear-gradient-18" y1="16" x2="28.16" y2="16" gradientUnits="userSpaceOnUse"><stop offset="0" stop-color="#afc2d9"/><stop offset="1" stop-color="#657a9e"/></linearGradient><radialGradient id="radial-gradient-8" cx="17.42" cy="-10.3" r="33.03" xlink:href="#radial-gradient-5"/><radialGradient id="radial-gradient-9" cx="0.97" cy="1.6" r="42.81" xlink:href="#radial-gradient-6"/><radialGradient id="radial-gradient-10" cx="28.16" cy="10.4" r="14.49" gradientUnits="userSpaceOnUse"><stop offset="0" stop-color="#6f778f"/><stop offset="0.03" stop-color="#757c93"/><stop offset="0.35" stop-color="#a5aab7"/><stop offset="0.63" stop-color="#c9cbd1"/><stop offset="0.85" stop-color="#dedfe0"/><stop offset="1" stop-color="#e6e6e6"/></radialGradient><linearGradient id="linear-gradient-19" x1="5.41" y1="32" x2="5.41" y2="1.72" xlink:href="#linear-gradient-17"/><radialGradient id="radial-gradient-11" cx="24.68" cy="11.11" r="35.81" xlink:href="#radial-gradient-7"/><radialGradient id="radial-gradient-12" cx="-1.11" cy="17.57" r="17.38" xlink:href="#radial-gradient-5"/><linearGradient id="linear-gradient-20" x1="18.25" y1="11.6" x2="38.07" y2="11.6" gradientUnits="userSpaceOnUse"><stop offset="0" stop-color="#d17e00"/><stop offset="1" stop-color="#ebbc5e"/></linearGradient><radialGradient id="radial-gradient-13" cx="24.26" cy="2.75" r="23.1" gradientUnits="userSpaceOnUse"><stop offset="0" stop-color="#2780e6"/><stop offset="1" stop-color="#2d2e83"/></radialGradient><radialGradient id="radial-gradient-14" cx="23.26" cy="0.42" r="21.31" gradientUnits="userSpaceOnUse"><stop offset="0" stop-color="#2680ed"/><stop offset="1"/></radialGradient><linearGradient id="linear-gradient-21" x1="18.25" y1="11.6" x2="28.16" y2="11.6" gradientUnits="userSpaceOnUse"><stop offset="0" stop-color="#f39200"/><stop offset="1" stop-color="#ffd582"/></linearGradient><linearGradient id="linear-gradient-22" x1="25.03" y1="1.64" x2="28.16" y2="1.64" gradientUnits="userSpaceOnUse"><stop offset="0"/><stop offset="1" stop-color="#ffd857"/></linearGradient><linearGradient id="linear-gradient-23" x1="26.02" y1="21.15" x2="28.16" y2="21.15" xlink:href="#linear-gradient-22"/><linearGradient id="linear-gradient-24" x1="28.16" y1="1.77" x2="30.62" y2="1.77" gradientUnits="userSpaceOnUse"><stop offset="0" stop-color="#ab6800"/><stop offset="0.06" stop-color="#b4781c"/><stop offset="0.21" stop-color="#c89c57"/><stop offset="0.36" stop-color="#d9ba8a"/><stop offset="0.5" stop-color="#e6d3b4"/><stop offset="0.64" stop-color="#f1e6d5"/><stop offset="0.77" stop-color="#f9f4ec"/><stop offset="0.89" stop-color="#fdfcfa"/><stop offset="1" stop-color="#fff"/></linearGradient><linearGradient id="linear-gradient-25" x1="28.16" y1="15.23" x2="28.16" y2="5.19" gradientUnits="userSpaceOnUse"><stop offset="0" stop-color="#663303"/><stop offset="1" stop-color="#fcb25d"/></linearGradient><linearGradient id="linear-gradient-26" x1="28.16" y1="14.81" x2="28.16" y2="5.61" gradientUnits="userSpaceOnUse"><stop offset="0" stop-color="#eda149"/><stop offset="1" stop-color="#663303"/></linearGradient><radialGradient id="radial-gradient-15" cx="21.98" cy="9.35" r="6.48" gradientUnits="userSpaceOnUse"><stop offset="0" stop-color="#ffe96e"/><stop offset="1" stop-color="#d17e00"/></radialGradient><linearGradient id="linear-gradient-27" x1="21.36" y1="10.77" x2="28.16" y2="10.77" gradientUnits="userSpaceOnUse"><stop offset="0" stop-color="#db9307"/><stop offset="1" stop-color="#945800"/></linearGradient><linearGradient id="linear-gradient-28" x1="27.05" y1="15.03" x2="28.16" y2="15.03" xlink:href="#linear-gradient-21"/><linearGradient id="linear-gradient-29" x1="28.16" y1="15.03" x2="29.28" y2="15.03" xlink:href="#linear-gradient-27"/><linearGradient id="linear-gradient-30" x1="28.16" y1="10.77" x2="34.96" y2="10.77" gradientUnits="userSpaceOnUse"><stop offset="0" stop-color="#945800"/><stop offset="1" stop-color="#db9307"/></linearGradient><radialGradient id="radial-gradient-16" cx="34.56" cy="6.04" r="7.83" xlink:href="#radial-gradient-15"/><linearGradient id="linear-gradient-31" x1="27.6" y1="10.21" x2="27.6" y2="3.2" xlink:href="#linear-gradient-21"/><radialGradient id="radial-gradient-17" cx="22.96" cy="2.04" r="9.53" xlink:href="#radial-gradient-14"/><radialGradient id="radial-gradient-18" cx="29.61" cy="13.33" r="11.67" xlink:href="#radial-gradient-14"/><linearGradient id="linear-gradient-32" x1="27.6" y1="10.21" x2="27.6" y2="3.52" gradientUnits="userSpaceOnUse"><stop offset="0" stop-color="#ffd857"/><stop offset="1"/></linearGradient><linearGradient id="linear-gradient-33" x1="28.72" y1="19.86" x2="28.72" y2="10.21" gradientUnits="userSpaceOnUse"><stop offset="0" stop-color="#fff"/><stop offset="0.11" stop-color="#fdfcfa"/><stop offset="0.23" stop-color="#f9f4ec"/><stop offset="0.36" stop-color="#f1e6d5"/><stop offset="0.5" stop-color="#e6d3b4"/><stop offset="0.64" stop-color="#d9ba8a"/><stop offset="0.79" stop-color="#c89c57"/><stop offset="0.94" stop-color="#b4781c"/><stop offset="1" stop-color="#ab6800"/></linearGradient><linearGradient id="linear-gradient-34" x1="21.36" y1="10.02" x2="28.16" y2="10.02" xlink:href="#linear-gradient-32"/></defs><g style="isolation:isolate"><g id="Calque_2" data-name="Calque 2"><g id="Layer_1" data-name="Layer 1"><path d="M24.25,45.12c.92,2.3,1.23,3.93,1.57,9.57s.24,43-.38,45.37a3.1,3.1,0,0,0,2.72,1.27,2.85,2.85,0,0,0,2.73-1.27c-.62-2.41-.72-39.73-.38-45.37s.64-7.27,1.57-9.57Z" style="fill-rule:evenodd;fill:url(#linear-gradient)"/><path d="M26.75,58.26c0,5.63.25,39.63-.27,42a4.88,4.88,0,0,0,1.12.08c.17-2.41.09-36.49.09-42.12s-.13-10.84-.31-13.14H25.81a70.28,70.28,0,0,1,.94,13.14Z" style="fill-rule:evenodd;mix-blend-mode:screen;fill:url(#linear-gradient-2)"/><path d="M25.5,42.84h5.33a6.94,6.94,0,0,0,1.22,2.21.13.13,0,0,1,0,.07c0,.34-1.76.61-3.92.61s-3.91-.27-3.91-.61a.13.13,0,0,1,0-.07,7.13,7.13,0,0,0,1.22-2.21Z" style="fill-rule:evenodd;fill:url(#linear-gradient-3)"/><path d="M25.44,100.06c.27.37.63,10,.81,10.63,0,.16.86.29,1.91.29s1.91-.13,1.91-.29c.18-.58.54-10.26.82-10.63a7.91,7.91,0,0,1-2.73.32,7.79,7.79,0,0,1-2.72-.32Z" style="fill-rule:evenodd;fill:url(#linear-gradient-4)"/><path d="M25.89,100.21a1.76,1.76,0,0,1-.45-.15c.27.37.63,10,.81,10.63v0a.89.89,0,0,0,.39.15c-.1-.38-.5-10.45-.76-10.66Z" style="fill-rule:evenodd;mix-blend-mode:multiply;fill:url(#radial-gradient)"/><path d="M26.48,100.3c.22.38.48,10.09.58,10.63l.74,0c0-.51-.11-10.17-.2-10.6-.38,0-.82,0-1.12-.08Z" style="fill-rule:evenodd;mix-blend-mode:screen;fill:url(#New_Gradient_Swatch_132)"/><path d="M29.26,110.93a1.65,1.65,0,0,0,.8-.21v0c.18-.58.54-10.26.82-10.63a3.35,3.35,0,0,1-1,.24c-.34.55-.54,10.27-.59,10.63Z" style="fill-rule:evenodd;mix-blend-mode:multiply;fill:url(#radial-gradient-2)"/><path d="M29.76,42.85a7.53,7.53,0,0,0,.64,2.77c1-.11,1.68-.29,1.68-.5a.13.13,0,0,0,0-.07,7,7,0,0,1-1.22-2.2Z" style="fill:#3085b5;fill-rule:evenodd;opacity:0.5;mix-blend-mode:multiply"/><path d="M27.63,42.85H26.56a7.73,7.73,0,0,1-.64,2.77c.37,0,.78.07,1.23.08h.27a17.05,17.05,0,0,0,.21-2.86Z" style="fill-rule:evenodd;mix-blend-mode:screen;fill:url(#linear-gradient-5)"/><path d="M26,42.85H25.5a4.14,4.14,0,0,1-.19.49,7.41,7.41,0,0,1-1,1.71.09.09,0,0,0,0,.06v0h0c0,.14.31.26.82.36A8,8,0,0,0,26,42.85Z" style="fill:#3085b5;fill-rule:evenodd;opacity:0.5;mix-blend-mode:multiply"/><path d="M28.16,42.44c1.47,0,2.67.18,2.67.4s-1.2.41-2.67.41-2.66-.18-2.66-.41,1.19-.4,2.66-.4Z" style="fill:#8a512b;fill-rule:evenodd"/><path d="M30.4,45.62c-.88,4.76-1.13,12.12-1,18.19,0,2.8,0,5.71.07,8.65.08,11.72.1,18.65.43,27.84a3.35,3.35,0,0,0,1-.24c-.39-1.51-.57-13.46-.57-27.6,0-8.41.06-15.67.19-17.77.33-5.58.63-7.23,1.54-9.49a3.51,3.51,0,0,1-1.65.42Z" style="fill:#3085b5;fill-rule:evenodd;opacity:0.5;mix-blend-mode:multiply"/><path d="M26.35,55.36a30.91,30.91,0,0,0-1.28-9.87,1.58,1.58,0,0,1-.79-.29c.9,2.26,1.21,3.91,1.54,9.49.12,2.1.19,9.36.19,17.77,0,14.14-.19,26.09-.57,27.6a1.76,1.76,0,0,0,.45.15c.3-1.84.36-7.67.37-11.56l0-16.19,0-17.1Z" style="fill:#3085b5;fill-rule:evenodd;opacity:0.5;mix-blend-mode:multiply"/><path d="M28.16,41.52a12.47,12.47,0,0,1,1.77.11c.74.11,1.2.4,1.2.83s-.46.71-1.2.82a12.47,12.47,0,0,1-1.77.11,12.21,12.21,0,0,1-1.76-.11c-.75-.11-1.21-.39-1.21-.82s.46-.72,1.21-.83a12.21,12.21,0,0,1,1.76-.11Z" style="fill:url(#linear-gradient-6)"/><path d="M29.93,41.63a12.47,12.47,0,0,0-1.77-.11,12.21,12.21,0,0,0-1.76.11,2.39,2.39,0,0,0-.83.26.23.23,0,0,0,0,.4,2.39,2.39,0,0,0,.83.26,12.21,12.21,0,0,0,1.76.11,12.47,12.47,0,0,0,1.77-.11,2.26,2.26,0,0,0,.82-.26.23.23,0,0,0,0-.4,2.26,2.26,0,0,0-.82-.26Z" style="fill:#8a512b;fill-rule:evenodd;opacity:0.30000000000000004;mix-blend-mode:multiply"/><path d="M25.62,42.52a.14.14,0,0,0-.09.16c.17.77,3.75.7,4.28,0a11,11,0,0,1-3.76-.13c-.16,0-.37-.11-.43-.07Z" style="fill-rule:evenodd;mix-blend-mode:screen;fill:url(#New_Gradient_Swatch_132-2)"/><path d="M31.05,24.64c-1.48,3.45.07,9.1.52,10.81a13.91,13.91,0,0,1-.69,6.62c0,.19-1.22.35-2.72.35s-2.72-.16-2.72-.35a13.89,13.89,0,0,1-.68-6.62c.45-1.71,2-7.36.51-10.81Z" style="fill-rule:evenodd;fill:url(#linear-gradient-7)"/><path d="M25.94,42.07c-.66-2.23-1-5.31-.56-6.62a33,33,0,0,0,.88-7.8,9.13,9.13,0,0,0-.46-2.77l-.53-.24c1.48,3.45-.06,9.1-.51,10.81a13.89,13.89,0,0,0,.68,6.62v0a1,1,0,0,0,.54.18l0-.21Z" style="fill-rule:evenodd;mix-blend-mode:multiply;fill:url(#radial-gradient-3)"/><path d="M25.88,35.47a16.41,16.41,0,0,0,.71,6.88q.46,0,1.05.06c0-.11,0-.22,0-.34a57.75,57.75,0,0,1-.14-6.62c0-1.41.28-4.51.21-8.41,0-.92-.05-1.32-.11-2L26.43,25c1.19,3.52.16,6.77-.55,10.49Z" style="fill-rule:evenodd;mix-blend-mode:screen;fill:url(#New_Gradient_Swatch_132-3)"/><path d="M30.2,35.45a19.42,19.42,0,0,1-.41,6.62l-.05.28a2.23,2.23,0,0,0,1.13-.25v0a13.91,13.91,0,0,0,.69-6.62c-.45-1.71-2-7.36-.52-10.81L29.89,25c-1.47,4.21,0,7,.31,10.47Z" style="fill-rule:evenodd;mix-blend-mode:multiply;fill:url(#radial-gradient-4)"/><path d="M31.05,24.64c0,.23-1.29.43-2.89.43s-2.89-.2-2.89-.43v-.82h5.78v.82Z" style="fill-rule:evenodd;fill:url(#linear-gradient-8)"/><path d="M25.8,24.88V23.82h-.53v.82c0,.09.2.17.53.24Z" style="fill-rule:evenodd;mix-blend-mode:multiply;fill:url(#linear-gradient-9)"/><path d="M26.43,23.82V25c.33,0,.73.06,1.15.08V23.82Z" style="fill-rule:evenodd;mix-blend-mode:screen;fill:url(#linear-gradient-10)"/><path d="M29.89,23.82V25c.71-.08,1.16-.2,1.16-.34v-.82Z" style="fill-rule:evenodd;mix-blend-mode:multiply;fill:url(#linear-gradient-11)"/><path d="M28.16,23.39c1.6,0,2.89.19,2.89.43s-1.29.43-2.89.43-2.89-.19-2.89-.43,1.3-.43,2.89-.43Z" style="fill:#8a512b;fill-rule:evenodd"/><path d="M30.9,18.17c0,.55,0,4.87-.1,5.43,0,.14-.17.21-.29.25A2.83,2.83,0,0,1,30,24c-.27,0-.54.06-.81.08s-.65,0-1,0-.65,0-1,0-.54,0-.8-.08a2.54,2.54,0,0,1-.56-.13c-.13,0-.29-.11-.3-.25,0-.56-.08-4.88-.1-5.43Z" style="fill-rule:evenodd;fill:url(#linear-gradient-12)"/><path d="M26,23.91c0-.66-.07-5.08-.1-5.74h-.5l.1,5.43c0,.14.17.21.3.25a.66.66,0,0,0,.2.06Z" style="fill-rule:evenodd;mix-blend-mode:multiply;fill:url(#linear-gradient-13)"/><path d="M29.81,18.17c0,.69,0,5.15-.08,5.84L30,24a2.83,2.83,0,0,0,.56-.13c.12,0,.28-.11.29-.25h0l.1-5.43Z" style="fill-rule:evenodd;mix-blend-mode:multiply;fill:url(#linear-gradient-14)"/><path d="M27.64,24.08c0-.71,0-5.2,0-5.91H26.52c0,.69.05,5.15.07,5.84l.59,0,.46,0Z" style="fill-rule:evenodd;mix-blend-mode:screen;fill:url(#linear-gradient-15)"/><path d="M39.47,29.09c2.58-8.79,1.39-15.8-11.26-17.72L28.16,5H34C42.81,5,45.58,3,47.35,0a47.47,47.47,0,0,1,9,2V4.86C56.32,15.08,53.21,25,46.55,32a20.66,20.66,0,0,1-7.08-2.91Z" style="fill-rule:evenodd;fill:url(#linear-gradient-16)"/><path d="M38.18,15.67,47.35,0c1.24.15,2.53.37,3.81.63l-11,18.74a8.75,8.75,0,0,0-2-3.7Z" style="fill-rule:evenodd;opacity:0.75;mix-blend-mode:screen;fill:url(#radial-gradient-5)"/><path d="M43.3,31c7.48-7.75,9.82-18.13,9.82-28.39V1.07c1.11.28,2.19.59,3.2.93V4.86C56.32,15.08,53.21,25,46.55,32a17,17,0,0,1-3.25-1Z" style="fill-rule:evenodd;fill:url(#radial-gradient-6)"/><path d="M45.51,31.77c6.7-7,9.87-16.62,9.94-27.13l0-2.92.85.28V4.86C56.32,15.08,53.21,25,46.55,32a10.53,10.53,0,0,1-1-.23Z" style="fill-rule:evenodd;fill:url(#linear-gradient-17)"/><path d="M52.1,7.19c0-3-.52-5.43-3-6.95,1.35.22,2.72.5,4,.83V2.65c0,10.26-2.34,20.64-9.82,28.39a21.6,21.6,0,0,1-3-1.43c2.9-.51,5.13-2.6,7.23-6.05A35.84,35.84,0,0,0,52.1,7.19Z" style="fill-rule:evenodd;opacity:0.5;mix-blend-mode:multiply;fill:url(#radial-gradient-7)"/><path d="M46.1,27.71c5.52-7.32,7.48-16.54,7-25.06-.36,9.38-1.57,16.3-7,25.06Z" style="fill:#fff;fill-rule:evenodd"/><path d="M16.85,29.09c-2.58-8.79-1.39-15.8,11.26-17.72L28.16,5H22.29C13.51,5,10.74,3,9,0A47.57,47.57,0,0,0,0,2V4.86C0,15.08,3.11,25,9.77,32a20.66,20.66,0,0,0,7.08-2.91Z" style="fill-rule:evenodd;fill:url(#linear-gradient-18)"/><path d="M17.05,4.72,5.33,26.06a37.63,37.63,0,0,1-3.47-8L10.61,2.08c1.33,1.24,3.26,2.17,6.44,2.64Z" style="fill-rule:evenodd;opacity:0.75;mix-blend-mode:screen;fill:url(#radial-gradient-8)"/><path d="M13,31C5.54,23.29,3.2,12.91,3.2,2.65V1.07C2.09,1.35,1,1.66,0,2V4.86C0,15.08,3.11,25,9.77,32A17.25,17.25,0,0,0,13,31Z" style="fill-rule:evenodd;fill:url(#radial-gradient-9)"/><g style="mix-blend-mode:multiply"><path d="M34,5H28.16l.05,6.33C33.67,12.2,37,14,38.8,16.43A28.39,28.39,0,0,0,41,4.86V4.38A30.39,30.39,0,0,1,34,5ZM15.28,4.38v.48a28.56,28.56,0,0,0,2.24,11.57c1.81-2.46,5.14-4.23,10.59-5.06L28.16,5H22.29A30.45,30.45,0,0,1,15.28,4.38Z" style="fill-rule:evenodd;fill:url(#radial-gradient-10)"/></g><path d="M10.82,31.77C4.11,24.8.94,15.15.87,4.64l0-2.92L0,2V4.86C0,15.08,3.11,25,9.77,32a10.68,10.68,0,0,0,1.05-.23Z" style="fill-rule:evenodd;fill:url(#linear-gradient-19)"/><path d="M4.22,7.19c0-3,.52-5.43,3-6.95-1.35.22-2.73.5-4.06.83V2.65C3.2,12.91,5.54,23.29,13,31a22.16,22.16,0,0,0,3-1.43c-2.91-.51-5.14-2.6-7.23-6.05A35.86,35.86,0,0,1,4.22,7.19Z" style="fill-rule:evenodd;opacity:0.5;mix-blend-mode:multiply;fill:url(#radial-gradient-11)"/><path d="M7.21,22.63C6,22.8,5.06,25.37,6.09,27.31a37.26,37.26,0,0,1-4.43-10c1.24.59,2.85-1.51,2.62-3.5a38.48,38.48,0,0,0,2.93,8.81Z" style="fill-rule:evenodd;mix-blend-mode:screen;fill:url(#radial-gradient-12)"/><path d="M10.23,27.71C4.7,20.39,2.74,11.17,3.2,2.65c.36,9.38,1.57,16.3,7,25.06Z" style="fill:#fff;fill-rule:evenodd"/><path d="M18.25,4.86A25.54,25.54,0,0,1,28.16.54a25.54,25.54,0,0,1,9.91,4.32c0,7-2.16,15.16-9.91,17.79C20.41,20,18.25,11.81,18.25,4.86Z" style="fill-rule:evenodd;fill:url(#linear-gradient-20)"/><path d="M20,5.78c.17,6,2.1,12.6,8.13,15,6-2.39,8-9,8.14-15a24,24,0,0,0-8.14-3.45A23.83,23.83,0,0,0,20,5.78Z" style="fill-rule:evenodd;fill:url(#radial-gradient-13)"/><path d="M28.16,3.16c-1.37,0-6.67,1.73-7.35,3.3a2.88,2.88,0,0,0-.1,1.2c.44,4.7,2.3,10,6.54,12.29a1.85,1.85,0,0,0,1.82,0c4.24-2.34,6.1-7.59,6.54-12.29a2.91,2.91,0,0,0-.09-1.2c-.68-1.57-6-3.3-7.36-3.3Z" style="fill-rule:evenodd;mix-blend-mode:screen;fill:url(#radial-gradient-14)"/><path d="M20,5.78a23.83,23.83,0,0,1,8.13-3.45V.54a25.54,25.54,0,0,0-9.91,4.32c0,7,2.16,15.16,9.91,17.79V20.77c-6-2.39-8-9-8.13-15Z" style="fill-rule:evenodd;fill:url(#linear-gradient-21)"/><path d="M26.21,1.14a.8.8,0,0,1,.65,1.4l-.31.19c.54-.16,1.08-.29,1.61-.4V.54A21.3,21.3,0,0,0,25,1.37a11.71,11.71,0,0,1,1.18-.23Z" style="fill-rule:evenodd;mix-blend-mode:screen;fill:url(#linear-gradient-22)"/><path d="M27.18,20.62c.43.41.57,1.53,0,1.5a3.55,3.55,0,0,1-.47-.06,12.71,12.71,0,0,0,1.46.59V20.77A11.14,11.14,0,0,1,26,19.64a13.65,13.65,0,0,1,1.16,1Z" style="fill-rule:evenodd;mix-blend-mode:screen;fill:url(#linear-gradient-23)"/><path d="M28.87,1.25c0-.24.24-.33.46-.34a3.25,3.25,0,0,1,.54,0Q29,.69,28.16.54V2.33A20.88,20.88,0,0,1,30.62,3a8.34,8.34,0,0,1-1.4-.64.66.66,0,0,1-.35-.45,2.83,2.83,0,0,1,0-.65Z" style="fill-rule:evenodd;opacity:0.5;mix-blend-mode:multiply;fill:url(#linear-gradient-24)"/><path d="M28.16,5.61a4.6,4.6,0,1,1-4.6,4.6,4.6,4.6,0,0,1,4.6-4.6Zm5,4.6a5,5,0,1,0-5,5,5,5,0,0,0,5-5Z" style="fill-rule:evenodd;fill:url(#linear-gradient-25)"/><path d="M32.76,10.21a4.6,4.6,0,1,0-4.6,4.6,4.6,4.6,0,0,0,4.6-4.6ZM28.16,6A4.18,4.18,0,1,1,24,10.21,4.18,4.18,0,0,1,28.16,6Z" style="fill-rule:evenodd;fill:url(#linear-gradient-26)"/><polygon points="28.16 3.2 29.27 9.1 34.96 10.21 29.27 11.32 28.16 19.86 27.05 11.32 21.36 10.21 27.05 9.1 28.16 3.2 28.16 3.2" style="fill:#bd8b2d;fill-rule:evenodd"/><polygon points="28.16 10.21 27.05 9.1 21.36 10.21 28.16 10.21 28.16 10.21" style="fill-rule:evenodd;fill:url(#radial-gradient-15)"/><polygon points="28.16 10.21 21.36 10.21 27.05 11.32 28.16 10.21 28.16 10.21" style="fill-rule:evenodd;fill:url(#linear-gradient-27)"/><polygon points="27.05 11.32 28.16 19.86 28.16 10.21 27.05 11.32 27.05 11.32" style="fill-rule:evenodd;fill:url(#linear-gradient-28)"/><polygon points="28.16 10.21 28.16 19.86 29.27 11.32 28.16 10.21 28.16 10.21" style="fill-rule:evenodd;fill:url(#linear-gradient-29)"/><polygon points="28.16 10.21 29.27 11.32 34.96 10.21 28.16 10.21 28.16 10.21" style="fill-rule:evenodd;fill:url(#linear-gradient-30)"/><polygon points="28.16 10.21 34.96 10.21 29.27 9.1 28.16 10.21 28.16 10.21" style="fill-rule:evenodd;fill:url(#radial-gradient-16)"/><polygon points="29.27 9.1 28.16 3.2 28.16 10.21 29.27 9.1 29.27 9.1" style="fill:#bd8b2d;fill-rule:evenodd"/><polygon points="28.16 10.21 28.16 3.2 27.05 9.1 28.16 10.21 28.16 10.21" style="fill-rule:evenodd;fill:url(#linear-gradient-31)"/><path d="M20.64,6.79c-.18.25-.25.48-.18.56s.27.07.5-.14a12.72,12.72,0,0,1,2-1.47A16.53,16.53,0,0,1,26.81,4c.44-.15.66-.3.65-.38s-.38-.15-.82-.07a9.78,9.78,0,0,0-6,3.28Z" style="fill-rule:evenodd;mix-blend-mode:screen;fill:url(#radial-gradient-17)"/><path d="M29.33,19.21a15.45,15.45,0,0,0,5-6.46c.05-.11.16-.24.27-.21s.08.2.06.3a10.62,10.62,0,0,1-5.05,6.68c-.22.13-.53.2-.58.11s.09-.22.33-.42Z" style="fill-rule:evenodd;mix-blend-mode:screen;fill:url(#radial-gradient-18)"/><path d="M28,8.23c0,.93-.34,1.32-.95.86l1.07,1.08,0,0V3.52L28.11,5v.57l0,.42L28,8.23Z" style="fill-rule:evenodd;mix-blend-mode:screen;fill:url(#linear-gradient-32)"/><path d="M28.65,11.44a8.56,8.56,0,0,1,.11,2.9c0,.15,0,.29,0,.43s0,.29,0,.44l0,.35-.34,3.1-.13,1.2.16-1.2.45-3.47.06-.43.05-.44.37-2.78,0-.22L28.2,10.25l0,0v.37l.05,0a1.79,1.79,0,0,1,.44.82Z" style="fill-rule:evenodd;opacity:0.5;mix-blend-mode:multiply;fill:url(#linear-gradient-33)"/><path d="M28.16,10.21A3.16,3.16,0,0,0,26,9.86l-4.62.35Z" style="fill-rule:evenodd;mix-blend-mode:screen;fill:url(#linear-gradient-34)"/></g></g></g></svg>