<svg xmlns="http://www.w3.org/2000/svg" xmlns:xlink="http://www.w3.org/1999/xlink" viewBox="0 0 54.51 110.98"><defs><linearGradient id="New_Gradient_Swatch_189" x1="24.22" y1="106.24" x2="30.3" y2="106.24" gradientUnits="userSpaceOnUse"><stop offset="0" stop-color="#94561c"/><stop offset="0.31" stop-color="#f0b665"/><stop offset="1" stop-color="#875810"/></linearGradient><linearGradient id="linear-gradient" x1="24.22" y1="106.23" x2="25.32" y2="106.23" gradientUnits="userSpaceOnUse"><stop offset="0" stop-color="#7b6a58"/><stop offset="0.62" stop-color="#cfc9c3"/><stop offset="1" stop-color="#fff"/></linearGradient><linearGradient id="linear-gradient-2" x1="26.27" y1="106.24" x2="30.83" y2="106.24" gradientUnits="userSpaceOnUse"><stop offset="0" stop-color="#fff"/><stop offset="0.38" stop-color="#cfc9c3"/><stop offset="1" stop-color="#7b6a58"/></linearGradient><radialGradient id="radial-gradient" cx="24.28" cy="110.35" r="9.64" gradientUnits="userSpaceOnUse"><stop offset="0" stop-color="#fccf9f"/><stop offset="0.11" stop-color="#e9c093"/><stop offset="0.32" stop-color="#b89774"/><stop offset="0.63" stop-color="#6a5743"/><stop offset="1"/></radialGradient><linearGradient id="New_Gradient_Swatch_187" x1="24.04" y1="84.1" x2="30.42" y2="84.1" gradientUnits="userSpaceOnUse"><stop offset="0" stop-color="#662323"/><stop offset="0.33" stop-color="#8c3737"/><stop offset="0.42" stop-color="#7f3131"/><stop offset="0.63" stop-color="#692727"/><stop offset="0.83" stop-color="#5c2020"/><stop offset="1" stop-color="#571e1e"/></linearGradient><linearGradient id="linear-gradient-3" x1="24.11" y1="85.29" x2="27.27" y2="85.29" gradientUnits="userSpaceOnUse"><stop offset="0" stop-color="#571e1e"/><stop offset="0.17" stop-color="#5c2020"/><stop offset="0.37" stop-color="#692727"/><stop offset="0.58" stop-color="#7f3131"/><stop offset="0.67" stop-color="#8c3737"/><stop offset="1" stop-color="#662323"/></linearGradient><linearGradient id="New_Gradient_Swatch_187-2" x1="24.22" y1="88.11" x2="30.32" y2="88.11" xlink:href="#New_Gradient_Swatch_187"/><linearGradient id="New_Gradient_Swatch_187-3" x1="27.23" y1="89.21" x2="30.28" y2="89.21" xlink:href="#New_Gradient_Swatch_187"/><linearGradient id="New_Gradient_Swatch_187-4" x1="27.23" y1="81.03" x2="30.57" y2="81.03" xlink:href="#New_Gradient_Swatch_187"/><linearGradient id="New_Gradient_Swatch_187-5" x1="23.94" y1="80.27" x2="30.56" y2="80.27" xlink:href="#New_Gradient_Swatch_187"/><linearGradient id="New_Gradient_Swatch_187-6" x1="24.31" y1="91.81" x2="30.17" y2="91.81" xlink:href="#New_Gradient_Swatch_187"/><linearGradient id="linear-gradient-4" x1="24.34" y1="92.82" x2="27.27" y2="92.82" xlink:href="#linear-gradient-3"/><linearGradient id="New_Gradient_Swatch_187-7" x1="24.44" y1="95.24" x2="30.09" y2="95.24" xlink:href="#New_Gradient_Swatch_187"/><linearGradient id="New_Gradient_Swatch_187-8" x1="27.23" y1="96.17" x2="30.06" y2="96.17" xlink:href="#New_Gradient_Swatch_187"/><linearGradient id="New_Gradient_Swatch_187-9" x1="24.53" y1="98.41" x2="29.97" y2="98.41" xlink:href="#New_Gradient_Swatch_187"/><linearGradient id="linear-gradient-5" x1="24.55" y1="99.28" x2="27.27" y2="99.28" xlink:href="#linear-gradient-3"/><linearGradient id="New_Gradient_Swatch_187-10" x1="24.62" y1="101.36" x2="29.89" y2="101.36" xlink:href="#New_Gradient_Swatch_187"/><linearGradient id="New_Gradient_Swatch_187-11" x1="27.23" y1="102.17" x2="29.86" y2="102.17" xlink:href="#New_Gradient_Swatch_187"/><linearGradient id="linear-gradient-6" x1="23.94" y1="80.27" x2="25.05" y2="80.27" gradientUnits="userSpaceOnUse"><stop offset="0" stop-color="#88889c"/><stop offset="1" stop-color="#fff"/></linearGradient><linearGradient id="linear-gradient-7" x1="24.04" y1="83.45" x2="25.12" y2="83.45" xlink:href="#linear-gradient-6"/><linearGradient id="linear-gradient-8" x1="24.31" y1="91.26" x2="25.35" y2="91.26" xlink:href="#linear-gradient-6"/><linearGradient id="linear-gradient-9" x1="24.34" y1="92.82" x2="25.41" y2="92.82" xlink:href="#linear-gradient-6"/><linearGradient id="linear-gradient-10" x1="24.44" y1="95.58" x2="25.51" y2="95.58" xlink:href="#linear-gradient-6"/><linearGradient id="linear-gradient-11" x1="24.53" y1="97.94" x2="25.56" y2="97.94" xlink:href="#linear-gradient-6"/><linearGradient id="linear-gradient-12" x1="24.55" y1="99.28" x2="25.6" y2="99.28" xlink:href="#linear-gradient-6"/><linearGradient id="linear-gradient-13" x1="24.62" y1="101.65" x2="25.69" y2="101.65" xlink:href="#linear-gradient-6"/><linearGradient id="linear-gradient-14" x1="24.11" y1="85.29" x2="25.18" y2="85.29" xlink:href="#linear-gradient-6"/><linearGradient id="linear-gradient-15" x1="24.22" y1="88.52" x2="25.3" y2="88.52" xlink:href="#linear-gradient-6"/><linearGradient id="New_Gradient_Swatch_186" x1="28.52" y1="79.37" x2="30.56" y2="79.37" gradientUnits="userSpaceOnUse"><stop offset="0" stop-color="#fff"/><stop offset="1" stop-color="#88889c"/></linearGradient><linearGradient id="New_Gradient_Swatch_186-2" x1="28.44" y1="81.03" x2="30.57" y2="81.03" xlink:href="#New_Gradient_Swatch_186"/><linearGradient id="New_Gradient_Swatch_186-3" x1="28.37" y1="84.38" x2="30.42" y2="84.38" xlink:href="#New_Gradient_Swatch_186"/><linearGradient id="New_Gradient_Swatch_186-4" x1="28.34" y1="87.6" x2="30.32" y2="87.6" xlink:href="#New_Gradient_Swatch_186"/><linearGradient id="New_Gradient_Swatch_186-5" x1="28.28" y1="89.21" x2="30.28" y2="89.21" xlink:href="#New_Gradient_Swatch_186"/><linearGradient id="New_Gradient_Swatch_186-6" x1="28.22" y1="92.04" x2="30.17" y2="92.04" xlink:href="#New_Gradient_Swatch_186"/><linearGradient id="New_Gradient_Swatch_186-7" x1="28.18" y1="94.81" x2="30.09" y2="94.81" xlink:href="#New_Gradient_Swatch_186"/><linearGradient id="New_Gradient_Swatch_186-8" x1="28.15" y1="96.17" x2="30.06" y2="96.17" xlink:href="#New_Gradient_Swatch_186"/><linearGradient id="New_Gradient_Swatch_186-9" x1="28.09" y1="98.6" x2="29.97" y2="98.6" xlink:href="#New_Gradient_Swatch_186"/><linearGradient id="New_Gradient_Swatch_186-10" x1="28.05" y1="101" x2="29.89" y2="101" xlink:href="#New_Gradient_Swatch_186"/><linearGradient id="New_Gradient_Swatch_186-11" x1="28.03" y1="102.17" x2="29.86" y2="102.17" xlink:href="#New_Gradient_Swatch_186"/><radialGradient id="radial-gradient-2" cx="23.45" cy="99.29" r="5.94" gradientUnits="userSpaceOnUse"><stop offset="0" stop-color="#e6332a"/><stop offset="1"/></radialGradient><radialGradient id="radial-gradient-3" cx="22.73" cy="96.28" r="6.52" xlink:href="#radial-gradient-2"/><radialGradient id="radial-gradient-4" cx="23.78" cy="93.37" r="5.61" xlink:href="#radial-gradient-2"/><radialGradient id="radial-gradient-5" cx="22.85" cy="90.22" r="7.01" xlink:href="#radial-gradient-2"/><radialGradient id="radial-gradient-6" cx="22.46" cy="87.53" r="7.03" xlink:href="#radial-gradient-2"/><radialGradient id="radial-gradient-7" cx="22.71" cy="84.13" r="6.03" xlink:href="#radial-gradient-2"/><linearGradient id="New_Gradient_Swatch_189-2" x1="23.76" y1="77.9" x2="30.75" y2="77.9" xlink:href="#New_Gradient_Swatch_189"/><linearGradient id="linear-gradient-16" x1="23.76" y1="77.78" x2="24.52" y2="77.78" xlink:href="#linear-gradient"/><linearGradient id="linear-gradient-17" x1="29.26" y1="77.85" x2="30.75" y2="77.85" gradientUnits="userSpaceOnUse"><stop offset="0.51" stop-color="#fff"/><stop offset="0.7" stop-color="#cfc9c3"/><stop offset="1" stop-color="#7b6a58"/></linearGradient><radialGradient id="radial-gradient-8" cx="24.41" cy="75.28" r="5.54" xlink:href="#radial-gradient"/><linearGradient id="New_Gradient_Swatch_198" x1="23.69" y1="55.3" x2="30.83" y2="55.3" gradientUnits="userSpaceOnUse"><stop offset="0" stop-color="#281f36"/><stop offset="0.27" stop-color="#37454a"/><stop offset="1" stop-color="#2c2f3b"/></linearGradient><linearGradient id="New_Gradient_Swatch_200" x1="25.45" y1="55.26" x2="30.83" y2="55.26" gradientUnits="userSpaceOnUse"><stop offset="0" stop-color="#fff"/><stop offset="1" stop-color="#83839c"/></linearGradient><linearGradient id="linear-gradient-18" x1="23.69" y1="55.23" x2="25.7" y2="55.23" gradientUnits="userSpaceOnUse"><stop offset="0" stop-color="#83839c"/><stop offset="1" stop-color="#fff"/></linearGradient><radialGradient id="New_Gradient_Swatch_199" cx="6.06" cy="61.92" r="40.53" gradientUnits="userSpaceOnUse"><stop offset="0" stop-color="#1d48b5"/><stop offset="1"/></radialGradient><radialGradient id="New_Gradient_Swatch_199-2" cx="12.4" cy="71.03" r="35.85" xlink:href="#New_Gradient_Swatch_199"/><radialGradient id="radial-gradient-9" cx="10.71" cy="12.81" r="23.33" gradientUnits="userSpaceOnUse"><stop offset="0" stop-color="#b37e42"/><stop offset="1" stop-color="#663303"/></radialGradient><radialGradient id="radial-gradient-10" cx="46.64" cy="15.12" r="22.03" xlink:href="#radial-gradient-9"/><radialGradient id="radial-gradient-11" cx="-0.56" cy="12.69" r="32.19" gradientUnits="userSpaceOnUse"><stop offset="0" stop-color="#cfe2e8"/><stop offset="1" stop-color="#5c839e"/></radialGradient><radialGradient id="radial-gradient-12" cx="17.11" cy="14.24" r="18.7" xlink:href="#linear-gradient-2"/><radialGradient id="radial-gradient-13" cx="29.37" cy="13.14" r="27.94" xlink:href="#linear-gradient-2"/><radialGradient id="radial-gradient-14" cx="57.28" cy="14.51" r="28.27" xlink:href="#radial-gradient-11"/><linearGradient id="linear-gradient-19" x1="4.85" y1="32.9" x2="4.85" gradientUnits="userSpaceOnUse"><stop offset="0" stop-color="#a9c5cf"/><stop offset="1" stop-color="#d9f2fa"/></linearGradient><radialGradient id="New_Gradient_Swatch_165" cx="14.51" cy="12.19" r="29.32" gradientUnits="userSpaceOnUse"><stop offset="0" stop-color="#fff"/><stop offset="0.46" stop-color="#c3c6cd"/><stop offset="1" stop-color="#787e8f"/></radialGradient><radialGradient id="New_Gradient_Swatch_165-2" cx="35.68" cy="13.16" r="35.37" xlink:href="#New_Gradient_Swatch_165"/><linearGradient id="linear-gradient-20" x1="49.66" y1="32.9" x2="49.66" xlink:href="#linear-gradient-19"/><radialGradient id="radial-gradient-15" cx="-1.46" cy="8.13" r="18.51" gradientUnits="userSpaceOnUse"><stop offset="0" stop-color="#fff"/><stop offset="0.25" stop-color="#c3c3c3"/><stop offset="0.83" stop-color="#2d2d2d"/><stop offset="1"/></radialGradient><radialGradient id="radial-gradient-16" cx="53.33" cy="-7.9" r="29" xlink:href="#radial-gradient-15"/><radialGradient id="radial-gradient-17" cx="27.26" cy="13.73" r="13.59" xlink:href="#linear-gradient"/><linearGradient id="linear-gradient-21" x1="27.26" y1="24.2" x2="27.26" y2="3.06" gradientUnits="userSpaceOnUse"><stop offset="0" stop-color="#663303"/><stop offset="1" stop-color="#d99950"/></linearGradient><linearGradient id="linear-gradient-22" x1="27.26" y1="21.48" x2="27.26" y2="5.78" gradientUnits="userSpaceOnUse"><stop offset="0" stop-color="#d99950"/><stop offset="1" stop-color="#663303"/></linearGradient><linearGradient id="linear-gradient-23" x1="27.26" y1="13.86" x2="27.26" y2="3.06" gradientUnits="userSpaceOnUse"><stop offset="0"/><stop offset="0.37" stop-color="#6a5743"/><stop offset="0.68" stop-color="#b89774"/><stop offset="0.89" stop-color="#e9c093"/><stop offset="1" stop-color="#fccf9f"/></linearGradient><linearGradient id="linear-gradient-24" x1="27.26" y1="21.48" x2="27.26" y2="13.86" xlink:href="#radial-gradient"/><linearGradient id="linear-gradient-25" x1="27.26" y1="21.82" x2="27.26" y2="15.66" xlink:href="#radial-gradient"/><linearGradient id="New_Gradient_Swatch_189-3" x1="22.67" y1="38.46" x2="31.84" y2="38.46" xlink:href="#New_Gradient_Swatch_189"/><linearGradient id="linear-gradient-26" x1="22.67" y1="38.61" x2="24.54" y2="38.61" xlink:href="#linear-gradient"/><linearGradient id="linear-gradient-27" x1="28.92" y1="38.69" x2="31.84" y2="38.69" xlink:href="#linear-gradient-2"/><radialGradient id="radial-gradient-18" cx="37.25" cy="39.36" r="19.76" xlink:href="#linear-gradient-23"/><radialGradient id="radial-gradient-19" cx="25.6" cy="33.72" r="5.84" xlink:href="#radial-gradient-9"/><radialGradient id="radial-gradient-20" cx="25.43" cy="25.69" r="6.74" xlink:href="#radial-gradient-9"/><radialGradient id="radial-gradient-21" cx="24.83" cy="24.89" r="6.08" gradientUnits="userSpaceOnUse"><stop offset="0" stop-color="#b17f4a"/><stop offset="0.14" stop-color="#9e7242"/><stop offset="0.43" stop-color="#6e4f2e"/><stop offset="0.84" stop-color="#20170d"/><stop offset="1"/></radialGradient><radialGradient id="radial-gradient-22" cx="24.38" cy="24.75" r="5.04" xlink:href="#radial-gradient-21"/><radialGradient id="radial-gradient-23" cx="25.17" cy="27.03" r="6.74" xlink:href="#radial-gradient-21"/><linearGradient id="linear-gradient-28" x1="27.26" y1="8.61" x2="27.26" y2="5.11" xlink:href="#linear-gradient-23"/></defs><g style="isolation:isolate"><g id="Calque_2" data-name="Calque 2"><g id="Layer_1" data-name="Layer 1"><path d="M30.3,110.51c-.1-.48-.19-1-.27-1.55-.14-.93-.25-1.94-.32-2.91s-.09-1.78-.08-2.48a13.58,13.58,0,0,1,.11-1.66v0c0-.21-1.12-.38-2.49-.38s-2.49.17-2.49.38v0a10.43,10.43,0,0,1,.11,1.65c0,.71,0,1.53-.08,2.49s-.18,2-.31,2.91c-.08.55-.17,1.07-.27,1.55h0c0,.26,1.36.47,3,.47s3-.21,3-.47Z" style="fill-rule:evenodd;fill:url(#New_Gradient_Swatch_189)"/><path d="M25.25,106.05c-.06,1-.15,2-.26,2.91-.08.65-.17,1.26-.26,1.81-.32-.07-.51-.16-.51-.26h0c.1-.48.19-1,.27-1.55.13-.92.24-1.94.31-2.91s.09-1.78.08-2.49a10.71,10.71,0,0,0-.11-1.67s0,0,0,0a.79.79,0,0,1,.4-.17l0,.21a14.22,14.22,0,0,1,.1,1.67c0,.71,0,1.55-.07,2.49Z" style="fill-rule:evenodd;mix-blend-mode:multiply;fill:url(#linear-gradient)"/><path d="M28.48,106.05c0-.93,0-1.78,0-2.48s0-1.25.06-1.68c0,0,0-.24,0-.33a2.35,2.35,0,0,1,1.19.29s0,0,0,0a11.93,11.93,0,0,0-.12,1.68c0,.7,0,1.52.08,2.48s.18,2,.32,2.91c.08.55.17,1.07.27,1.55,0,.17-.6.32-1.48.4-.07-.58-.13-1.24-.18-2-.07-.93-.12-1.92-.16-2.91Z" style="fill-rule:evenodd;mix-blend-mode:multiply;fill:url(#linear-gradient-2)"/><path d="M27.26,101.89V111a14.65,14.65,0,0,1-1.56-.07c.06-.58.12-1.24.17-2,.07-.92.13-1.92.16-2.91s0-1.78,0-2.49,0-1.24-.06-1.67c0,0,0-.22,0-.33.37,0,.81,0,1.28,0h0v.38Z" style="fill-rule:evenodd;mix-blend-mode:screen;fill:url(#radial-gradient)"/><path d="M27.26,101.51c1.36,0,2.47.17,2.47.38s-1.11.38-2.47.38-2.48-.17-2.48-.38,1.11-.38,2.48-.38Z" style="fill:#8a512b;fill-rule:evenodd"/><path d="M29.8,101.19a5.72,5.72,0,0,1-.06,2,12,12,0,0,1-1.22-.27,8.25,8.25,0,0,1-1.27-.44c-.44.17-.88.32-1.3.44a11.23,11.23,0,0,1-1.17.27,10.22,10.22,0,0,1-.1-2.82,6.08,6.08,0,0,1-.06-2.12,1.3,1.3,0,0,1,0-.91,15.4,15.4,0,0,1-.11-3.26,7.46,7.46,0,0,1-.08-2.44h0a1.64,1.64,0,0,1,0-1.07,19.21,19.21,0,0,1-.11-3.8,9.6,9.6,0,0,1-.11-2.87h0a2.06,2.06,0,0,1,0-1.25h0A26,26,0,0,1,24,77.94h6.56c0,.51,0,1,0,1.52a11.18,11.18,0,0,1-.16,3.14,21.84,21.84,0,0,1-.13,4.13,1.81,1.81,0,0,1,0,1.15h0a8.42,8.42,0,0,1-.1,2.64A16.51,16.51,0,0,1,30,94.05a1.44,1.44,0,0,1,0,1,6.77,6.77,0,0,1-.07,2.28,13.31,13.31,0,0,1-.11,3,1.14,1.14,0,0,1,0,.85Z" style="fill:#4d4d4d;fill-rule:evenodd"/><path d="M30.36,82.6a13.18,13.18,0,0,1-1.52-.42,9.6,9.6,0,0,1-1.6-.71,17.29,17.29,0,0,1-1.65.7,11,11,0,0,1-1.47.43,2.06,2.06,0,0,0,0,1.25,10.05,10.05,0,0,0,1.4,1,17.72,17.72,0,0,0,1.68.87,16.89,16.89,0,0,0,1.58.64,10,10,0,0,0,1.41.4,21.82,21.82,0,0,0,.13-4.13Z" style="fill-rule:evenodd;fill:url(#New_Gradient_Swatch_187)"/><path d="M27.27,85.69a16.58,16.58,0,0,1-1.68-.87,10.32,10.32,0,0,1-1.42-1,9.69,9.69,0,0,0,.11,2.88,11,11,0,0,0,1.45-.39,8.79,8.79,0,0,0,1.54-.65Z" style="fill-rule:evenodd;fill:url(#linear-gradient-3)"/><path d="M24.28,86.73a10.62,10.62,0,0,0,1.45-.39,8.79,8.79,0,0,0,1.54-.65,16.89,16.89,0,0,0,1.58.64,11.18,11.18,0,0,0,1.38.4,1.81,1.81,0,0,1,0,1.15,10.53,10.53,0,0,1-1.35.89,17.23,17.23,0,0,1-1.61.8c-.51.23-1,.43-1.52.6a9.9,9.9,0,0,1-1.36.36,19.21,19.21,0,0,1-.11-3.8Z" style="fill-rule:evenodd;fill:url(#New_Gradient_Swatch_187-2)"/><path d="M27.23,89.57a16.26,16.26,0,0,0,1.62-.8,10,10,0,0,0,1.36-.89,8.51,8.51,0,0,1-.1,2.65,12.29,12.29,0,0,1-1.39-.35,9.31,9.31,0,0,1-1.49-.61Z" style="fill-rule:evenodd;fill:url(#New_Gradient_Swatch_187-3)"/><path d="M27.23,81.47a16.41,16.41,0,0,0,1.76-1,11.07,11.07,0,0,0,1.53-1.06,11.18,11.18,0,0,1-.16,3.14,13.76,13.76,0,0,1-1.52-.42,10.09,10.09,0,0,1-1.61-.71Z" style="fill-rule:evenodd;fill:url(#New_Gradient_Swatch_187-4)"/><path d="M24.14,82.6a10.73,10.73,0,0,0,1.48-.43,16.41,16.41,0,0,0,1.66-.7,16.41,16.41,0,0,0,1.76-1,11,11,0,0,0,1.48-1.06c0-.49,0-1,0-1.52H24a26.08,26.08,0,0,0,.14,4.66Z" style="fill-rule:evenodd;fill:url(#New_Gradient_Swatch_187-5)"/><path d="M30.11,90.53a12.42,12.42,0,0,1-1.4-.35,9.09,9.09,0,0,1-1.47-.61c-.51.23-1,.43-1.52.6a9.58,9.58,0,0,1-1.33.36,1.64,1.64,0,0,0,0,1.07,10.69,10.69,0,0,0,1.29.82c.49.26,1,.52,1.55.74s1,.4,1.46.55a10.51,10.51,0,0,0,1.3.34,16.51,16.51,0,0,0,.11-3.52Z" style="fill-rule:evenodd;fill:url(#New_Gradient_Swatch_187-6)"/><path d="M27.27,93.16a17.07,17.07,0,0,1-1.55-.74,9.61,9.61,0,0,1-1.31-.82,7.53,7.53,0,0,0,.08,2.45,11.4,11.4,0,0,0,1.35-.33,9.44,9.44,0,0,0,1.43-.56Z" style="fill-rule:evenodd;fill:url(#linear-gradient-4)"/><path d="M24.49,94.05a11.52,11.52,0,0,0,1.36-.33,9.75,9.75,0,0,0,1.42-.56c.49.21,1,.4,1.46.55a10.16,10.16,0,0,0,1.27.34,1.44,1.44,0,0,1,0,1,10.49,10.49,0,0,1-1.23.77c-.47.24-1,.48-1.49.68s-1,.37-1.41.51a11.11,11.11,0,0,1-1.26.32,15.4,15.4,0,0,1-.11-3.26Z" style="fill-rule:evenodd;fill:url(#New_Gradient_Swatch_187-7)"/><path d="M27.23,96.48a15.85,15.85,0,0,0,1.5-.68A9.51,9.51,0,0,0,30,95a6.77,6.77,0,0,1-.07,2.28A12.71,12.71,0,0,1,28.61,97a9.12,9.12,0,0,1-1.38-.52Z" style="fill-rule:evenodd;fill:url(#New_Gradient_Swatch_187-8)"/><path d="M29.92,97.31A12.85,12.85,0,0,1,28.6,97a8.88,8.88,0,0,1-1.36-.52q-.72.3-1.41.51a10.73,10.73,0,0,1-1.23.32,1.3,1.3,0,0,0,0,.91,8.5,8.5,0,0,0,1.19.71,15.49,15.49,0,0,0,1.43.64c.46.18.92.34,1.36.47a10.12,10.12,0,0,0,1.21.3,13.31,13.31,0,0,0,.11-3Z" style="fill-rule:evenodd;fill:url(#New_Gradient_Swatch_187-9)"/><path d="M27.27,99.57a14.57,14.57,0,0,1-1.44-.64,8.8,8.8,0,0,1-1.21-.71,6.08,6.08,0,0,0,.06,2.12,11.06,11.06,0,0,0,1.26-.29,9.09,9.09,0,0,0,1.33-.48Z" style="fill-rule:evenodd;fill:url(#linear-gradient-5)"/><path d="M24.68,100.34a11.19,11.19,0,0,0,1.27-.29,9.4,9.4,0,0,0,1.32-.48c.45.18.92.34,1.35.47a10.36,10.36,0,0,0,1.19.3,1.14,1.14,0,0,1,0,.85,8.55,8.55,0,0,1-1.15.66c-.43.21-.91.42-1.38.6s-.89.31-1.32.44a11.23,11.23,0,0,1-1.17.27,10.22,10.22,0,0,1-.1-2.82Z" style="fill-rule:evenodd;fill:url(#New_Gradient_Swatch_187-10)"/><path d="M27.23,102.45c.48-.18,1-.39,1.4-.6a9.57,9.57,0,0,0,1.17-.66,5.72,5.72,0,0,1-.06,2,12,12,0,0,1-1.22-.27,10.29,10.29,0,0,1-1.29-.44Z" style="fill-rule:evenodd;fill:url(#New_Gradient_Swatch_187-11)"/><path d="M24.91,77.94H24a26,26,0,0,0,.14,4.65h0c.28-.06.59-.14.91-.24h0a11.16,11.16,0,0,1-.14-4.41Z" style="fill-rule:evenodd;mix-blend-mode:multiply;fill:url(#linear-gradient-6)"/><path d="M25.05,82.36c-.32.1-.63.18-.91.24h0a2.06,2.06,0,0,0,0,1.25h0a11.16,11.16,0,0,0,.95.69,3.67,3.67,0,0,1-.07-2.18Z" style="fill-rule:evenodd;mix-blend-mode:multiply;fill:url(#linear-gradient-7)"/><path d="M25.3,90.31c-.32.09-.63.17-.91.22a1.64,1.64,0,0,0,0,1.07h0c.27.2.59.41.94.62a3.66,3.66,0,0,1-.05-1.91Z" style="fill-rule:evenodd;mix-blend-mode:multiply;fill:url(#linear-gradient-8)"/><path d="M25.35,92.22c-.35-.21-.67-.42-.94-.62h0a7.46,7.46,0,0,0,.08,2.44l.26,0c.21,0,.43-.1.66-.16a3.41,3.41,0,0,1-.05-1.61Z" style="fill-rule:evenodd;mix-blend-mode:multiply;fill:url(#linear-gradient-9)"/><path d="M24.75,94l-.26,0a15.4,15.4,0,0,0,.11,3.26c.29,0,.58-.13.91-.22a9,9,0,0,1-.1-3.24l-.66.15Z" style="fill-rule:evenodd;mix-blend-mode:multiply;fill:url(#linear-gradient-10)"/><path d="M25.51,97.1c-.32.09-.63.16-.91.21a1.3,1.3,0,0,0,0,.91,8,8,0,0,0,.94.57,3.54,3.54,0,0,1,0-1.69Z" style="fill-rule:evenodd;mix-blend-mode:multiply;fill:url(#linear-gradient-11)"/><path d="M25.56,98.8a8,8,0,0,1-.94-.58,6.08,6.08,0,0,0,.06,2.12l.24,0,.68-.15a2.72,2.72,0,0,1,0-1.34Z" style="fill-rule:evenodd;mix-blend-mode:multiply;fill:url(#linear-gradient-12)"/><path d="M25.6,100.14l-.68.15-.24,0a10.22,10.22,0,0,0,.1,2.82c.28,0,.59-.11.91-.2a6.69,6.69,0,0,1-.09-2.82Zm-.66.15h0Z" style="fill-rule:evenodd;mix-blend-mode:multiply;fill:url(#linear-gradient-13)"/><path d="M25.1,86.54l.08,0-.08,0Zm-.82.19c.25,0,.53-.11.82-.19l.08,0a3.64,3.64,0,0,1-.07-2h0a11.16,11.16,0,0,1-.95-.69h0a9.6,9.6,0,0,0,.11,2.87Z" style="fill-rule:evenodd;mix-blend-mode:multiply;fill:url(#linear-gradient-14)"/><path d="M25.18,86.51l-.08,0h0c-.29.08-.56.14-.8.19a19.21,19.21,0,0,0,.11,3.8,7.14,7.14,0,0,0,.91-.23,12,12,0,0,1-.12-3.79Zm0,0-.08,0,.08,0Z" style="fill-rule:evenodd;mix-blend-mode:multiply;fill:url(#linear-gradient-15)"/><path d="M30.56,77.94h-2a2.61,2.61,0,0,1,0,2.86c.16-.09.32-.18.47-.28a11.07,11.07,0,0,0,1.53-1.06c0-.49,0-1,0-1.52Z" style="fill-rule:evenodd;mix-blend-mode:multiply;fill:url(#New_Gradient_Swatch_186)"/><path d="M30.52,79.46A11,11,0,0,1,29,80.52l-.58.34a.81.81,0,0,1,0,1.17l.4.15c.46.15.9.28,1.29.37l.23,0a11.18,11.18,0,0,0,.16-3.14Z" style="fill-rule:evenodd;mix-blend-mode:multiply;fill:url(#New_Gradient_Swatch_186-2)"/><path d="M30.11,82.55c-.39-.09-.83-.22-1.27-.37-.14-.05-.27-.09-.4-.15.73.57.69,3.69-.07,4.13l.48.17a11.18,11.18,0,0,0,1.38.4,21.84,21.84,0,0,0,.13-4.13l-.25,0Z" style="fill-rule:evenodd;mix-blend-mode:multiply;fill:url(#New_Gradient_Swatch_186-3)"/><path d="M30.23,86.73a10,10,0,0,1-1.41-.4l-.46-.17a2.64,2.64,0,0,1,0,2.89c.18-.09.35-.18.51-.28a10,10,0,0,0,1.36-.89h0a1.81,1.81,0,0,0,0-1.15Z" style="fill-rule:evenodd;mix-blend-mode:multiply;fill:url(#New_Gradient_Swatch_186-4)"/><path d="M30.21,87.89a9.59,9.59,0,0,1-1.33.88l-.58.31a.8.8,0,0,1,0,1l.44.15c.39.12.76.22,1.1.29l.29.06a8.42,8.42,0,0,0,.1-2.64Z" style="fill-rule:evenodd;mix-blend-mode:multiply;fill:url(#New_Gradient_Swatch_186-5)"/><path d="M29.81,90.47a11.3,11.3,0,0,1-1.1-.29L28.28,90c.54.53.62,3-.06,3.51l.51.17a10.16,10.16,0,0,0,1.27.34,16.51,16.51,0,0,0,.11-3.52l-.3-.06Z" style="fill-rule:evenodd;mix-blend-mode:multiply;fill:url(#New_Gradient_Swatch_186-6)"/><path d="M30,94.05a10.51,10.51,0,0,1-1.3-.34l-.49-.17a2.92,2.92,0,0,1,0,2.53l.55-.27A9.51,9.51,0,0,0,30,95a1.44,1.44,0,0,0,0-1Z" style="fill-rule:evenodd;mix-blend-mode:multiply;fill:url(#New_Gradient_Swatch_186-7)"/><path d="M30,95a10.49,10.49,0,0,1-1.23.77l-.6.29a.92.92,0,0,1,0,.76c.15.06.31.1.46.15l1,.26.27,0A6.77,6.77,0,0,0,30,95Z" style="fill-rule:evenodd;mix-blend-mode:multiply;fill:url(#New_Gradient_Swatch_186-8)"/><path d="M29.64,97.26l-1-.26c-.15,0-.3-.09-.45-.15a4.1,4.1,0,0,1-.06,3l.53.17a10.36,10.36,0,0,0,1.19.3,13.31,13.31,0,0,0,.11-3l-.28,0Z" style="fill-rule:evenodd;mix-blend-mode:multiply;fill:url(#New_Gradient_Swatch_186-9)"/><path d="M29.81,100.34a10.12,10.12,0,0,1-1.21-.3l-.51-.16a4,4,0,0,1,0,2.24l.58-.27a9.57,9.57,0,0,0,1.17-.66,1.14,1.14,0,0,0,0-.85Z" style="fill-rule:evenodd;mix-blend-mode:multiply;fill:url(#New_Gradient_Swatch_186-10)"/><path d="M29.8,101.19a8.55,8.55,0,0,1-1.15.66l-.61.28a1.62,1.62,0,0,1,0,.62l.49.14a12,12,0,0,0,1.22.27,5.72,5.72,0,0,0,.06-2Z" style="fill-rule:evenodd;mix-blend-mode:multiply;fill:url(#New_Gradient_Swatch_186-11)"/><path d="M24.17,83.85c.78,1.3,3.72,3.22,6,2.86a12.71,12.71,0,0,1-1.39-.4c-.51-.18-1-.39-1.59-.64a17.54,17.54,0,0,1-1.67-.87,11.41,11.41,0,0,1-1.38-1Z" style="fill:#9d9d9c;fill-rule:evenodd;opacity:0.5;mix-blend-mode:multiply"/><path d="M28.86,88.77a15.08,15.08,0,0,1-1.61.8c-.51.23-1,.43-1.51.6a9.9,9.9,0,0,1-1.36.36,6.64,6.64,0,0,0,5.83-2.65,9.87,9.87,0,0,1-1.35.89Z" style="fill:#9d9d9c;fill-rule:evenodd;opacity:0.5;mix-blend-mode:multiply"/><path d="M27.18,93.06c-.53-.22-1.06-.48-1.55-.74a12.79,12.79,0,0,1-1.27-.8A6.15,6.15,0,0,0,29.94,94a10.51,10.51,0,0,1-1.3-.34c-.47-.15-1-.34-1.46-.55Z" style="fill:#9d9d9c;fill-rule:evenodd;opacity:0.5;mix-blend-mode:multiply"/><path d="M28.76,95.8c-.47.24-1,.48-1.49.68s-1,.37-1.41.51a11.11,11.11,0,0,1-1.26.32A5.67,5.67,0,0,0,30,95a10.49,10.49,0,0,1-1.23.77Z" style="fill:#9d9d9c;fill-rule:evenodd;opacity:0.5;mix-blend-mode:multiply"/><path d="M28.6,100c-.44-.13-.9-.29-1.36-.47a15.49,15.49,0,0,1-1.43-.64,8.5,8.5,0,0,1-1.19-.71c.66,1.16,3,2.3,5.19,2.12a10.12,10.12,0,0,1-1.21-.3Z" style="fill:#9d9d9c;fill-rule:evenodd;opacity:0.5;mix-blend-mode:multiply"/><path d="M24.14,82.59c2.43.33,5.61-1.83,6.38-3.13A13.17,13.17,0,0,1,29,80.52a18.4,18.4,0,0,1-1.76,1c-.56.26-1.12.5-1.66.7a11,11,0,0,1-1.48.42Z" style="fill:#9d9d9c;fill-rule:evenodd;opacity:0.5;mix-blend-mode:multiply"/><path d="M28,102.72a6.88,6.88,0,0,0,1.84-1.53,8.55,8.55,0,0,1-1.15.66c-.43.21-.91.42-1.38.6h0a6.55,6.55,0,0,0,.71.27Z" style="fill:#9d9d9c;fill-rule:evenodd;opacity:0.5;mix-blend-mode:multiply"/><path d="M24.62,101a5.86,5.86,0,0,0,2.59-1.41l-.51.21q-.37.14-.75.24c-.35.1-.71.18-1,.24l-.24,0a5,5,0,0,0-.06.67Z" style="fill:#9d9d9c;fill-rule:evenodd;opacity:0.5;mix-blend-mode:multiply"/><path d="M27.3,96.52A6,6,0,0,0,30,97.91a4.36,4.36,0,0,0,0-.6l-.27,0c-.33-.07-.69-.16-1-.26-.18,0-.37-.11-.55-.18s-.51-.19-.75-.3Z" style="fill:#9d9d9c;fill-rule:evenodd;opacity:0.5;mix-blend-mode:multiply"/><path d="M24.44,94.67a6.13,6.13,0,0,0,2.82-1.5h0c-.19.09-.39.18-.6.26s-.54.2-.81.29a11.12,11.12,0,0,1-1.1.28l-.26,0a3.44,3.44,0,0,0,0,.62Z" style="fill:#9d9d9c;fill-rule:evenodd;opacity:0.5;mix-blend-mode:multiply"/><path d="M27.3,89.61a6.67,6.67,0,0,0,2.87,1.65,4.66,4.66,0,0,0-.06-.73l-.29-.06c-.34-.07-.72-.17-1.11-.29l-.6-.21q-.42-.16-.81-.36Z" style="fill:#9d9d9c;fill-rule:evenodd;opacity:0.5;mix-blend-mode:multiply"/><path d="M24.22,87.43a6.77,6.77,0,0,0,3-1.73h0a9.87,9.87,0,0,1-1.53.64h0l-.61.19c-.29.08-.57.14-.82.19a5.72,5.72,0,0,0-.06.7Z" style="fill:#9d9d9c;fill-rule:evenodd;opacity:0.5;mix-blend-mode:multiply"/><path d="M27.26,81.49a6.93,6.93,0,0,0,3.15,1.77c0-.26,0-.49-.05-.66l-.23,0c-.39-.09-.84-.22-1.29-.37a8.55,8.55,0,0,1-.95-.38,6.14,6.14,0,0,1-.63-.31Z" style="fill:#9d9d9c;fill-rule:evenodd;opacity:0.5;mix-blend-mode:multiply"/><path d="M27.68,102.27a6.45,6.45,0,0,0,0-.9.85.85,0,0,0-.19-.45.56.56,0,0,0-.22-.13.47.47,0,0,0-.17,0,1.05,1.05,0,0,0-.46.12,1.56,1.56,0,0,0-.53.46,2.91,2.91,0,0,0-.34,1.6l.19,0,.65-.21c.18-.05.35-.12.52-.18l.13,0h0l.07,0,.35-.14Z" style="fill-rule:evenodd;opacity:0.5;mix-blend-mode:screen;fill:url(#radial-gradient-2)"/><path d="M25.83,98.93c.44.22.93.44,1.42.63h0l.33.13a2.51,2.51,0,0,0-.38-1.5,1.91,1.91,0,0,0-.55-.51c-.48-.3-1-.25-1,.38a2.91,2.91,0,0,0,0,.78l.17.08Z" style="fill-rule:evenodd;opacity:0.5;mix-blend-mode:screen;fill:url(#radial-gradient-3)"/><path d="M25.83,97c.45-.14.93-.31,1.41-.5h0c.2-.07.4-.16.6-.25a8,8,0,0,0,0-1.39c-.09-.74-.67-.85-1.22-.57a1.67,1.67,0,0,0-.62.53,4.24,4.24,0,0,0-.4,2.27l.24-.08Z" style="fill-rule:evenodd;opacity:0.5;mix-blend-mode:screen;fill:url(#radial-gradient-4)"/><path d="M25.63,92.32c.49.26,1,.52,1.55.74l.57.23a2.92,2.92,0,0,0-.45-1.73,2,2,0,0,0-.63-.6c-.56-.34-1.13-.29-1.21.45a3.22,3.22,0,0,0,0,.82l.16.09Z" style="fill-rule:evenodd;opacity:0.5;mix-blend-mode:screen;fill:url(#radial-gradient-5)"/><path d="M25.72,90.17c.49-.16,1-.37,1.51-.59h0l.45-.2a8.08,8.08,0,0,0,0-1.47c-.1-.75-.67-.86-1.23-.57a1.76,1.76,0,0,0-.62.53,4.49,4.49,0,0,0-.4,2.39l.27-.08Z" style="fill-rule:evenodd;opacity:0.5;mix-blend-mode:screen;fill:url(#radial-gradient-6)"/><path d="M25.32,83.81a3.7,3.7,0,0,0,0,.88l.22.13a17.72,17.72,0,0,0,1.68.87l.37.17A3.12,3.12,0,0,0,27.17,84a2.15,2.15,0,0,0-.64-.6c-.56-.34-1.13-.29-1.21.44Z" style="fill-rule:evenodd;opacity:0.5;mix-blend-mode:screen;fill:url(#radial-gradient-7)"/><path d="M30.75,76.48c0,.73-.07,1.46-.12,2.18,0,.19-.22.29-.38.35a4.29,4.29,0,0,1-.71.16c-.34,0-.69.08-1,.11s-.84,0-1.25,0-.84,0-1.25,0-.69-.06-1-.11a4.65,4.65,0,0,1-.72-.16c-.15-.06-.36-.16-.37-.35-.06-.72-.1-1.45-.13-2.18Z" style="fill-rule:evenodd;fill:url(#New_Gradient_Swatch_189-2)"/><path d="M24.52,79.08l-.12-2.6h-.64l.13,2.18c0,.19.22.29.37.35l.26.07Z" style="fill-rule:evenodd;mix-blend-mode:multiply;fill:url(#linear-gradient-16)"/><path d="M29.36,76.48l-.1,2.73.28,0a4.29,4.29,0,0,0,.71-.16c.16-.06.36-.16.38-.34h0l.12-2.18Z" style="fill-rule:evenodd;mix-blend-mode:multiply;fill:url(#linear-gradient-17)"/><path d="M26.59,79.3l0-2.82h-1.4l.09,2.73.76.07.58,0Z" style="fill-rule:evenodd;mix-blend-mode:screen;fill:url(#radial-gradient-8)"/><path d="M27.26,76c1.93,0,3.49.24,3.49.53s-1.56.54-3.49.54-3.5-.24-3.5-.54,1.57-.53,3.5-.53Z" style="fill:#8a512b;fill-rule:evenodd"/><path d="M24.92,33.65h4.67c1.07,10.39,1.58,35.24,1,42.78,0,.28-1.49.51-3.32.51s-3.3-.23-3.32-.51c-.59-7.54-.09-32.39,1-42.78Z" style="fill-rule:evenodd;fill:url(#New_Gradient_Swatch_198)"/><path d="M25.45,33.65a4.49,4.49,0,0,1,3.43,4.43c.74,10.82.76,33.17.08,38.79,1-.09,1.6-.25,1.62-.44.59-7.54.08-32.39-1-42.78Z" style="fill-rule:evenodd;mix-blend-mode:multiply;fill:url(#New_Gradient_Swatch_200)"/><path d="M25,76.8c-.89-7.41-.44-32.76.71-43.15h-.78c-1.07,10.39-1.57,35.24-1,42.78,0,.15.41.28,1,.37Z" style="fill-rule:evenodd;mix-blend-mode:multiply;fill:url(#linear-gradient-18)"/><path d="M26.49,37.66c.66,0,.86,25.32.88,27.61.05,6.49,0,10.87-.95,10.87s-1.2-2.79-1.33-10.64c-.06-4.17.29-27.84,1.4-27.84Z" style="fill-rule:evenodd;mix-blend-mode:screen;fill:url(#New_Gradient_Swatch_199)"/><path d="M28.46,38.17c-.12.06.08,29.21.22,30.8.21,2.31.55-11.68.52-14.55-.08-8.07-.62-16.31-.74-16.25Z" style="fill-rule:evenodd;mix-blend-mode:screen;fill:url(#New_Gradient_Swatch_199-2)"/><path d="M12.16,4.91c-6.25,4.26-5,18.32,2.78,21-.94-3,.49-7.08,4-7.08V8.39c-3,.13-6.46-1.61-6.75-3.48Z" style="fill-rule:evenodd;fill:url(#radial-gradient-9)"/><path d="M42.35,4.91c6.26,4.26,5,18.32-2.77,21,.94-3-.5-7.08-4-7.08V8.39c3,.13,6.45-1.61,6.74-3.48Z" style="fill-rule:evenodd;fill:url(#radial-gradient-10)"/><path d="M14.94,26a24.38,24.38,0,0,1-7,7A27.26,27.26,0,0,1,3.65,0a27.78,27.78,0,0,1,8.51,4.91,17.44,17.44,0,0,0,2.78,21Z" style="fill-rule:evenodd;fill:url(#radial-gradient-11)"/><path d="M14.74,23c-6-2.59-5.8-16.94-1-16a3.37,3.37,0,0,1-1.63-2.06,17.44,17.44,0,0,0,2.78,21,6.46,6.46,0,0,1-.2-3Z" style="fill-rule:evenodd;opacity:0.5;mix-blend-mode:multiply;fill:url(#radial-gradient-12)"/><path d="M39.77,23c5.95-2.59,5.81-16.95.95-16a3.34,3.34,0,0,0,1.63-2.06,17.45,17.45,0,0,1-2.77,21,6.59,6.59,0,0,0,.19-3Z" style="fill-rule:evenodd;opacity:0.5;mix-blend-mode:multiply;fill:url(#radial-gradient-13)"/><path d="M39.58,26a24.21,24.21,0,0,0,7,7A27.26,27.26,0,0,0,50.86,0a28,28,0,0,0-8.51,4.91,17.45,17.45,0,0,1-2.77,21Z" style="fill-rule:evenodd;fill:url(#radial-gradient-14)"/><path d="M2.09,13.63A25.09,25.09,0,0,1,5.6.79C5,.5,4.3.23,3.65,0A27.26,27.26,0,0,0,8,32.9,19.58,19.58,0,0,0,9.7,31.66a25.1,25.1,0,0,1-7.61-18Z" style="fill-rule:evenodd;fill:url(#linear-gradient-19)"/><path d="M12.71,28.84c-2.83-.45-5.38-2.2-7.31-5.74A22.72,22.72,0,0,1,3.66,7.19c1.14-3.9,2.68-5,4.87-4.88A31.31,31.31,0,0,0,5.6.79,25.19,25.19,0,0,0,9.7,31.66a25.12,25.12,0,0,0,3-2.82Z" style="fill-rule:evenodd;opacity:0.5;mix-blend-mode:multiply;fill:url(#New_Gradient_Swatch_165)"/><path d="M8.4,30.29A24,24,0,0,1,4.65,2.54a27.92,27.92,0,0,0-2.28,9.62C2,19.42,4.21,24.57,8.4,30.29Z" style="fill:#fff;fill-rule:evenodd"/><path d="M41.8,28.84c2.84-.45,5.38-2.2,7.32-5.74A22.77,22.77,0,0,0,50.86,7.19c-1.14-3.9-2.69-5-4.87-4.88A31.15,31.15,0,0,1,48.91.79a25.16,25.16,0,0,1-4.1,30.87,25.9,25.9,0,0,1-3-2.82Z" style="fill-rule:evenodd;opacity:0.5;mix-blend-mode:multiply;fill:url(#New_Gradient_Swatch_165-2)"/><path d="M52.43,13.63a25.07,25.07,0,0,1-7.62,18,21.19,21.19,0,0,0,1.72,1.24A27.26,27.26,0,0,0,50.86,0c-.64.23-1.29.5-2,.79a25.1,25.1,0,0,1,3.52,12.84Z" style="fill-rule:evenodd;fill:url(#linear-gradient-20)"/><path d="M46.12,30.29A23.94,23.94,0,0,0,49.86,2.54a27.93,27.93,0,0,1,2.29,9.62c.33,7.26-1.85,12.41-6,18.13Z" style="fill:#fff;fill-rule:evenodd"/><path d="M10.18,17.12A17.49,17.49,0,0,1,10,11.43C8.09,11.74,1.9,11,.28,9.71A28.37,28.37,0,0,0,0,13.63a27.25,27.25,0,0,0,.5,5.19c2-1.25,7.22-2.1,9.68-1.7Z" style="fill-rule:evenodd;mix-blend-mode:screen;fill:url(#radial-gradient-15)"/><path d="M44.33,17.12a17.51,17.51,0,0,0,.35-3.49,17.69,17.69,0,0,0-.13-2.2c1.88.31,8.06-.42,9.68-1.72a26.9,26.9,0,0,1,.28,3.92A27.25,27.25,0,0,1,54,18.82c-2-1.25-7.22-2.1-9.69-1.7Z" style="fill-rule:evenodd;mix-blend-mode:screen;fill:url(#radial-gradient-16)"/><path d="M18.91,18.87V8.39a8.7,8.7,0,0,1-2.62-.31,9.48,9.48,0,0,0-1.57,5.19A9.66,9.66,0,0,0,17,19.39a3.73,3.73,0,0,1,1.95-.52ZM35.61,8.39V18.87a3.72,3.72,0,0,1,1.94.52,9.61,9.61,0,0,0,2.25-6.12,9.49,9.49,0,0,0-1.58-5.19,8.6,8.6,0,0,1-2.61.31Z" style="fill-rule:evenodd;mix-blend-mode:multiply;fill:url(#radial-gradient-17)"/><path d="M37.83,13.63A10.57,10.57,0,1,0,27.26,24.2,10.57,10.57,0,0,0,37.83,13.63Zm-5.45,0a5.13,5.13,0,1,0-5.12,5.12,5.12,5.12,0,0,0,5.12-5.12Z" style="fill:#b3b3b3;fill-rule:evenodd"/><path d="M37.83,13.63A10.57,10.57,0,1,0,27.26,24.2,10.57,10.57,0,0,0,37.83,13.63ZM27.26,5.78a7.85,7.85,0,1,1-7.85,7.85,7.85,7.85,0,0,1,7.85-7.85Z" style="fill-rule:evenodd;fill:url(#linear-gradient-21)"/><path d="M35.1,13.63a7.85,7.85,0,1,0-7.84,7.85,7.85,7.85,0,0,0,7.84-7.85ZM27.26,8.51a5.12,5.12,0,1,1-5.13,5.12,5.12,5.12,0,0,1,5.13-5.12Z" style="fill-rule:evenodd;fill:url(#linear-gradient-22)"/><path d="M27.26,24.2A10.36,10.36,0,0,0,29.35,24a3.39,3.39,0,0,0-4.18,0,10.22,10.22,0,0,0,2.09.21Z" style="fill:#8a512b;fill-rule:evenodd;opacity:0.5;mix-blend-mode:multiply"/><path d="M19.41,13.63a7.85,7.85,0,1,1,15.69,0v.23a4.17,4.17,0,0,1,2.73,0v-.23a10.57,10.57,0,1,0-21.14,0v.23a3.7,3.7,0,0,1,1.36-.23,3.66,3.66,0,0,1,1.36.23v-.23Z" style="fill-rule:evenodd;opacity:0.5;mix-blend-mode:screen;fill:url(#linear-gradient-23)"/><path d="M27.26,18.75a5.11,5.11,0,0,1-4.92-3.69l-.63-.15a6.57,6.57,0,0,1-2.3-1.05,7.85,7.85,0,0,0,15.69,0,6.52,6.52,0,0,1-2.29,1.05l-.63.15a5.13,5.13,0,0,1-4.92,3.69Z" style="fill-rule:evenodd;opacity:0.5;mix-blend-mode:screen;fill:url(#linear-gradient-24)"/><path d="M34.83,15.66a7.31,7.31,0,0,1-4.91,5.7,7.68,7.68,0,0,1-2.66.46,7.6,7.6,0,0,1-2.66-.46,7.32,7.32,0,0,1-4.92-5.7,8,8,0,0,0,15.15,0Z" style="fill-rule:evenodd;mix-blend-mode:screen;fill:url(#linear-gradient-25)"/><path d="M31.84,31.71a35,35,0,0,0-.7,3.6c-.19,1.3-.35,2.72-.44,4.07s-.13,2.5-.12,3.49a17.45,17.45,0,0,0,.16,2.33v0c0,.3-1.56.54-3.48.54s-3.49-.24-3.49-.54v0a17.45,17.45,0,0,0,.16-2.33c0-1,0-2.13-.11-3.49s-.26-2.78-.45-4.07a35,35,0,0,0-.7-3.6,11.62,11.62,0,0,1,2-.4,22,22,0,0,1,5.13,0,11.62,11.62,0,0,1,2,.4Z" style="fill-rule:evenodd;fill:url(#New_Gradient_Swatch_189-3)"/><path d="M24.44,39.38c-.08-1.39-.2-2.78-.36-4.07s-.33-2.43-.53-3.39a8.78,8.78,0,0,1-.88-.21,35,35,0,0,1,.7,3.6c.19,1.29.35,2.72.45,4.07s.12,2.5.11,3.49a17.53,17.53,0,0,1-.16,2.35.08.08,0,0,0,0,.05,1,1,0,0,0,.56.25c0-.12,0-.27,0-.3a20.32,20.32,0,0,0,.13-2.35c0-1,0-2.17-.09-3.49Z" style="fill-rule:evenodd;mix-blend-mode:multiply;fill:url(#linear-gradient-26)"/><path d="M29,39.38c-.05,1.32-.07,2.5-.06,3.49s0,1.75.08,2.35c0,.07,0,.33.05.46a3.3,3.3,0,0,0,1.67-.4.14.14,0,0,0,0-.06,17.53,17.53,0,0,1-.16-2.35c0-1,0-2.13.12-3.49s.25-2.77.44-4.07a35,35,0,0,1,.7-3.6,12.62,12.62,0,0,1-2.06.39l-.29,0c-.11.91-.21,2-.29,3.17S29,38,29,39.38Z" style="fill-rule:evenodd;mix-blend-mode:multiply;fill:url(#linear-gradient-27)"/><path d="M27.26,45.22v-13A22.4,22.4,0,0,1,25,32.14c.11.91.21,2,.29,3.17s.18,2.68.23,4.07.06,2.5.05,3.49,0,1.75-.08,2.35c0,.06,0,.31,0,.46.52,0,1.13.08,1.79.08h0v-.54Z" style="fill-rule:evenodd;opacity:0.8;mix-blend-mode:screen;fill:url(#radial-gradient-18)"/><path d="M27.15,31.08c2.4,0,4.35.35,4.35.79s-1.95.78-4.35.78-4.35-.35-4.35-.78,1.95-.79,4.35-.79Z" style="fill:#f7d4b2;fill-rule:evenodd;opacity:0.30000000000000004;mix-blend-mode:screen"/><path d="M27.26,31c2.53,0,4.58.32,4.58.7s-2.05.71-4.58.71-4.59-.32-4.59-.71,2.06-.7,4.59-.7Z" style="fill-rule:evenodd;fill:url(#radial-gradient-19)"/><path d="M27.26,23.65A4.25,4.25,0,1,1,23,27.9a4.25,4.25,0,0,1,4.26-4.25Z" style="fill-rule:evenodd;fill:url(#radial-gradient-20)"/><path d="M26.78,24.2a3.25,3.25,0,1,1-3.25,3.25,3.25,3.25,0,0,1,3.25-3.25Z" style="fill-rule:evenodd;mix-blend-mode:screen;fill:url(#radial-gradient-21)"/><path d="M24.82,25.36A2.21,2.21,0,0,1,27.87,25,2.22,2.22,0,0,1,27.46,28a2.22,2.22,0,0,1-3.05.4,2.22,2.22,0,0,1,.41-3Z" style="fill-rule:evenodd;mix-blend-mode:screen;fill:url(#radial-gradient-22)"/><path d="M29.18,24.46a3.92,3.92,0,0,1-3.73,6.87,4.1,4.1,0,0,0,.94.11,4,4,0,0,0,2.79-7Z" style="fill-rule:evenodd;mix-blend-mode:screen;fill:url(#radial-gradient-23)"/><path d="M21.23,8.61a7.84,7.84,0,0,1,12.06,0,6.78,6.78,0,0,0-6-3.5,6.62,6.62,0,0,0-6,3.5Z" style="fill-rule:evenodd;mix-blend-mode:screen;fill:url(#linear-gradient-28)"/></g></g></g></svg>