<svg xmlns="http://www.w3.org/2000/svg" xmlns:xlink="http://www.w3.org/1999/xlink" viewBox="0 0 23.43 122.85"><defs><linearGradient id="New_Gradient_Swatch_161" x1="22.32" y1="11.62" x2="1.48" y2="-35.4" gradientTransform="matrix(1, 0, 0, -1, 0, 84.96)" gradientUnits="userSpaceOnUse"><stop offset="0" stop-color="#542d11"/><stop offset="0.57" stop-color="#85482e"/></linearGradient><linearGradient id="New_Gradient_Swatch_192" x1="20.73" y1="11.63" x2="2.27" y2="-33.46" gradientTransform="matrix(1, 0, 0, -1, 0, 84.96)" gradientUnits="userSpaceOnUse"><stop offset="0" stop-color="#986fde"/><stop offset="1" stop-color="#fff"/></linearGradient><linearGradient id="New_Gradient_Swatch_192-2" x1="21.79" y1="8.01" x2="0.11" y2="-32.3" xlink:href="#New_Gradient_Swatch_192"/><linearGradient id="linear-gradient" x1="21.39" y1="8.31" x2="4.49" y2="-26.95" gradientTransform="matrix(1, 0, 0, -1, 0, 84.96)" gradientUnits="userSpaceOnUse"><stop offset="0" stop-color="#ad9985"/><stop offset="1" stop-color="#0d0d0d"/></linearGradient><linearGradient id="New_Gradient_Swatch_161-2" x1="22.32" y1="49.5" x2="1.48" y2="2.48" gradientTransform="matrix(1, 0, 0, 1, 0, 0)" xlink:href="#New_Gradient_Swatch_161"/><linearGradient id="New_Gradient_Swatch_192-3" x1="20.73" y1="49.52" x2="2.27" y2="4.43" gradientTransform="matrix(1, 0, 0, 1, 0, 0)" xlink:href="#New_Gradient_Swatch_192"/><linearGradient id="New_Gradient_Swatch_192-4" x1="21.79" y1="45.9" x2="0.11" y2="5.58" gradientTransform="matrix(1, 0, 0, 1, 0, 0)" xlink:href="#New_Gradient_Swatch_192"/><linearGradient id="linear-gradient-2" x1="21.39" y1="46.2" x2="4.49" y2="10.93" gradientTransform="matrix(1, 0, 0, 1, 0, 0)" xlink:href="#linear-gradient"/><radialGradient id="radial-gradient" cx="21.61" cy="44.07" r="9.39" gradientUnits="userSpaceOnUse"><stop offset="0" stop-color="#949fb0"/><stop offset="1" stop-color="#485e78"/></radialGradient><radialGradient id="New_Gradient_Swatch_165" cx="16.71" cy="43.67" r="11.53" gradientUnits="userSpaceOnUse"><stop offset="0" stop-color="#fff"/><stop offset="0.46" stop-color="#c3c6cd"/><stop offset="1" stop-color="#787e8f"/></radialGradient><radialGradient id="radial-gradient-2" cx="17.19" cy="44.07" r="6.79" gradientUnits="userSpaceOnUse"><stop offset="0.26"/><stop offset="0.39" stop-color="#2d2d2d"/><stop offset="0.81" stop-color="#c3c3c3"/><stop offset="1" stop-color="#fff"/></radialGradient><radialGradient id="radial-gradient-3" cx="22.29" cy="52.05" r="7.69" xlink:href="#radial-gradient-2"/><radialGradient id="radial-gradient-4" cx="4.21" cy="0.14" r="9.79" xlink:href="#radial-gradient"/><radialGradient id="radial-gradient-5" cx="5.75" cy="5.9" r="9.7" gradientUnits="userSpaceOnUse"><stop offset="0" stop-color="#787e8f"/><stop offset="0.54" stop-color="#c3c6cd"/><stop offset="1" stop-color="#fff"/></radialGradient><radialGradient id="New_Gradient_Swatch_165-2" cx="6.85" cy="5.38" r="9.41" xlink:href="#New_Gradient_Swatch_165"/><radialGradient id="radial-gradient-6" cx="6.59" cy="1.28" r="9.72" gradientUnits="userSpaceOnUse"><stop offset="0" stop-color="#fff"/><stop offset="0.19" stop-color="#c3c3c3"/><stop offset="0.61" stop-color="#2d2d2d"/><stop offset="0.74"/></radialGradient><radialGradient id="radial-gradient-7" cx="4.18" cy="144.81" r="9.79" gradientTransform="matrix(1, 0, 0, -1, 0, 267.52)" xlink:href="#radial-gradient"/><radialGradient id="radial-gradient-8" cx="5.72" cy="150.58" r="9.7" gradientTransform="matrix(1, 0, 0, -1, 0, 267.52)" xlink:href="#radial-gradient-5"/><radialGradient id="New_Gradient_Swatch_165-3" cx="6.82" cy="150.06" r="9.41" gradientTransform="matrix(1, 0, 0, -1, 0, 267.52)" xlink:href="#New_Gradient_Swatch_165"/><radialGradient id="radial-gradient-9" cx="6.56" cy="145.96" r="9.72" gradientTransform="matrix(1, 0, 0, -1, 0, 267.52)" xlink:href="#radial-gradient-6"/><linearGradient id="linear-gradient-3" x1="17.44" y1="52.12" x2="19.89" y2="52.12" gradientUnits="userSpaceOnUse"><stop offset="0" stop-color="#735730"/><stop offset="0.56" stop-color="#7d5d38"/><stop offset="1" stop-color="#886342"/></linearGradient><linearGradient id="linear-gradient-4" x1="19.94" y1="54.18" x2="22.18" y2="54.18" gradientUnits="userSpaceOnUse"><stop offset="0" stop-color="#886342"/><stop offset="0.36" stop-color="#6b4f2e"/><stop offset="0.76" stop-color="#513d1d"/><stop offset="1" stop-color="#473616"/></linearGradient><linearGradient id="New_Gradient_Swatch_205" x1="17.78" y1="55.67" x2="22.06" y2="55.67" gradientUnits="userSpaceOnUse"><stop offset="0" stop-color="#57421f"/><stop offset="0.34" stop-color="#886342"/><stop offset="0.58" stop-color="#6b4f2e"/><stop offset="0.84" stop-color="#513d1d"/><stop offset="1" stop-color="#473616"/></linearGradient><linearGradient id="linear-gradient-5" x1="17.82" y1="56.24" x2="19.95" y2="56.24" xlink:href="#linear-gradient-3"/><linearGradient id="New_Gradient_Swatch_205-2" x1="17.88" y1="57.73" x2="21.97" y2="57.73" xlink:href="#New_Gradient_Swatch_205"/><linearGradient id="linear-gradient-6" x1="19.92" y1="58.3" x2="21.97" y2="58.3" xlink:href="#linear-gradient-4"/><linearGradient id="New_Gradient_Swatch_205-3" x1="17.91" y1="59.79" x2="21.92" y2="59.79" xlink:href="#New_Gradient_Swatch_205"/><linearGradient id="New_Gradient_Swatch_205-4" x1="17.64" y1="53.18" x2="22.33" y2="53.18" xlink:href="#New_Gradient_Swatch_205"/><linearGradient id="linear-gradient-7" x1="17.9" y1="60.36" x2="19.92" y2="60.36" xlink:href="#linear-gradient-3"/><linearGradient id="New_Gradient_Swatch_205-5" x1="17.9" y1="61.85" x2="21.88" y2="61.85" xlink:href="#New_Gradient_Swatch_205"/><linearGradient id="linear-gradient-8" x1="19.91" y1="62.43" x2="21.93" y2="62.43" xlink:href="#linear-gradient-4"/><radialGradient id="radial-gradient-10" cx="21.58" cy="95.55" r="9.39" gradientTransform="matrix(1, 0, 0, -1, 0, 174.32)" xlink:href="#radial-gradient"/><radialGradient id="New_Gradient_Swatch_165-4" cx="16.68" cy="95.15" r="11.53" gradientTransform="matrix(1, 0, 0, -1, 0, 174.32)" xlink:href="#New_Gradient_Swatch_165"/><radialGradient id="radial-gradient-11" cx="17.16" cy="95.55" r="6.79" gradientTransform="matrix(1, 0, 0, -1, 0, 174.32)" xlink:href="#radial-gradient-2"/><radialGradient id="radial-gradient-12" cx="22.26" cy="103.53" r="7.69" gradientTransform="matrix(1, 0, 0, -1, 0, 174.32)" xlink:href="#radial-gradient-2"/><linearGradient id="New_Gradient_Swatch_205-6" x1="17.9" y1="63.92" x2="21.95" y2="63.92" xlink:href="#New_Gradient_Swatch_205"/><linearGradient id="linear-gradient-9" x1="17.87" y1="64.49" x2="19.93" y2="64.49" xlink:href="#linear-gradient-3"/><linearGradient id="New_Gradient_Swatch_205-7" x1="17.81" y1="65.98" x2="21.96" y2="65.98" xlink:href="#New_Gradient_Swatch_205"/><linearGradient id="linear-gradient-10" x1="19.92" y1="66.55" x2="22.04" y2="66.55" xlink:href="#linear-gradient-4"/><linearGradient id="New_Gradient_Swatch_205-8" x1="17.77" y1="68.04" x2="22.17" y2="68.04" xlink:href="#New_Gradient_Swatch_205"/><linearGradient id="linear-gradient-11" x1="17.67" y1="68.61" x2="19.94" y2="68.61" xlink:href="#linear-gradient-3"/><linearGradient id="New_Gradient_Swatch_205-9" x1="17.44" y1="70.1" x2="22.23" y2="70.1" xlink:href="#New_Gradient_Swatch_205"/><linearGradient id="linear-gradient-12" x1="19.91" y1="70.67" x2="22.39" y2="70.67" xlink:href="#linear-gradient-4"/><linearGradient id="linear-gradient-13" x1="17.44" y1="70.3" x2="18.5" y2="70.3" gradientUnits="userSpaceOnUse"><stop offset="0" stop-color="#87879c"/><stop offset="1" stop-color="#fff"/></linearGradient><linearGradient id="linear-gradient-14" x1="17.67" y1="68.61" x2="18.55" y2="68.61" xlink:href="#linear-gradient-13"/><linearGradient id="linear-gradient-15" x1="17.77" y1="67.7" x2="18.61" y2="67.7" xlink:href="#linear-gradient-13"/><linearGradient id="linear-gradient-16" x1="17.81" y1="66.17" x2="18.68" y2="66.17" xlink:href="#linear-gradient-13"/><linearGradient id="linear-gradient-17" x1="17.87" y1="64.49" x2="18.7" y2="64.49" xlink:href="#linear-gradient-13"/><linearGradient id="linear-gradient-18" x1="17.9" y1="63.58" x2="18.72" y2="63.58" xlink:href="#linear-gradient-13"/><linearGradient id="linear-gradient-19" x1="17.9" y1="62.04" x2="18.73" y2="62.04" xlink:href="#linear-gradient-13"/><linearGradient id="linear-gradient-20" x1="17.9" y1="60.36" x2="18.72" y2="60.36" xlink:href="#linear-gradient-13"/><linearGradient id="linear-gradient-21" x1="17.91" y1="59.46" x2="18.72" y2="59.46" xlink:href="#linear-gradient-13"/><linearGradient id="linear-gradient-22" x1="17.88" y1="57.93" x2="18.7" y2="57.93" xlink:href="#linear-gradient-13"/><linearGradient id="linear-gradient-23" x1="17.82" y1="56.24" x2="18.65" y2="56.24" xlink:href="#linear-gradient-13"/><linearGradient id="linear-gradient-24" x1="17.78" y1="55.33" x2="18.61" y2="55.33" xlink:href="#linear-gradient-13"/><linearGradient id="linear-gradient-25" x1="17.64" y1="53.79" x2="18.56" y2="53.79" xlink:href="#linear-gradient-13"/><linearGradient id="linear-gradient-26" x1="17.44" y1="52.11" x2="18.43" y2="52.11" xlink:href="#linear-gradient-13"/><linearGradient id="New_Gradient_Swatch_202" x1="20.92" y1="52.73" x2="22.33" y2="52.73" gradientUnits="userSpaceOnUse"><stop offset="0" stop-color="#fff"/><stop offset="1" stop-color="#87879c"/></linearGradient><linearGradient id="New_Gradient_Swatch_202-2" x1="20.88" y1="54.18" x2="22.18" y2="54.18" xlink:href="#New_Gradient_Swatch_202"/><linearGradient id="New_Gradient_Swatch_202-3" x1="20.79" y1="55.82" x2="22.06" y2="55.82" xlink:href="#New_Gradient_Swatch_202"/><linearGradient id="New_Gradient_Swatch_202-4" x1="20.75" y1="57.44" x2="21.97" y2="57.44" xlink:href="#New_Gradient_Swatch_202"/><linearGradient id="New_Gradient_Swatch_202-5" x1="20.73" y1="58.3" x2="21.97" y2="58.3" xlink:href="#New_Gradient_Swatch_202"/><linearGradient id="New_Gradient_Swatch_202-6" x1="20.71" y1="59.93" x2="21.92" y2="59.93" xlink:href="#New_Gradient_Swatch_202"/><linearGradient id="New_Gradient_Swatch_202-7" x1="20.71" y1="61.56" x2="21.88" y2="61.56" xlink:href="#New_Gradient_Swatch_202"/><linearGradient id="New_Gradient_Swatch_202-8" x1="20.71" y1="62.43" x2="21.93" y2="62.43" xlink:href="#New_Gradient_Swatch_202"/><linearGradient id="New_Gradient_Swatch_202-9" x1="20.71" y1="64.06" x2="21.95" y2="64.06" xlink:href="#New_Gradient_Swatch_202"/><linearGradient id="New_Gradient_Swatch_202-10" x1="20.75" y1="65.68" x2="21.96" y2="65.68" xlink:href="#New_Gradient_Swatch_202"/><linearGradient id="New_Gradient_Swatch_202-11" x1="20.8" y1="66.55" x2="22.04" y2="66.55" xlink:href="#New_Gradient_Swatch_202"/><linearGradient id="New_Gradient_Swatch_202-12" x1="20.82" y1="68.18" x2="22.17" y2="68.18" xlink:href="#New_Gradient_Swatch_202"/><linearGradient id="New_Gradient_Swatch_202-13" x1="20.93" y1="69.79" x2="22.23" y2="69.79" xlink:href="#New_Gradient_Swatch_202"/><linearGradient id="New_Gradient_Swatch_202-14" x1="21.02" y1="70.67" x2="22.39" y2="70.67" xlink:href="#New_Gradient_Swatch_202"/><linearGradient id="linear-gradient-27" x1="18.58" y1="69.58" x2="20.66" y2="69.58" gradientUnits="userSpaceOnUse"><stop offset="0" stop-color="#c48b7c"/><stop offset="1"/></linearGradient><linearGradient id="linear-gradient-28" x1="18.69" y1="67.47" x2="20.65" y2="67.47" xlink:href="#linear-gradient-27"/><linearGradient id="linear-gradient-29" x1="18.74" y1="65.45" x2="20.55" y2="65.45" xlink:href="#linear-gradient-27"/><linearGradient id="linear-gradient-30" x1="18.86" y1="63.38" x2="20.55" y2="63.38" xlink:href="#linear-gradient-27"/><linearGradient id="linear-gradient-31" x1="18.86" y1="61.34" x2="20.55" y2="61.34" xlink:href="#linear-gradient-27"/><linearGradient id="linear-gradient-32" x1="18.86" y1="59.27" x2="20.55" y2="59.27" xlink:href="#linear-gradient-27"/><linearGradient id="linear-gradient-33" x1="18.74" y1="57.23" x2="20.56" y2="57.23" xlink:href="#linear-gradient-27"/><linearGradient id="linear-gradient-34" x1="18.62" y1="55.12" x2="20.65" y2="55.12" xlink:href="#linear-gradient-27"/><linearGradient id="linear-gradient-35" x1="18.55" y1="52.95" x2="20.69" y2="52.95" xlink:href="#linear-gradient-27"/><radialGradient id="New_Gradient_Swatch_196" cx="1.65" cy="61.41" r="61.65" gradientUnits="userSpaceOnUse"><stop offset="0" stop-color="#8f8684"/><stop offset="0.6" stop-color="#78706e"/><stop offset="1" stop-color="#665f5d"/></radialGradient></defs><g style="isolation:isolate"><g id="Calque_2" data-name="Calque 2"><g id="Layer_1" data-name="Layer 1"><path d="M2.25,120.81c-1.25-.32-1.52-2.57-1.41-4,.17-2.19,1.55-4.26,2.38-5.64,2.77-4.58,6.83-8.79,10.61-14.41,5.83-8.66,4.78-18.44,3.76-25.3l2.33-2.29,2.27,2.23c.94,7.16.62,17.53-6.06,26.65C8.87,107.94-.26,115,2.25,120.81Z" style="fill-rule:evenodd;fill:url(#New_Gradient_Swatch_161)"/><path d="M19.92,69.17c-2,3.34-1,5.13-1,9.69.12,17.28-6.31,18.7-15.17,31.81a17.46,17.46,0,0,0-2.44,5c-.53,2-.24,4.29.91,5.19-1.25-.32-1.52-2.57-1.41-4,.17-2.19,1.55-4.26,2.38-5.64,2.77-4.58,6.83-8.79,10.61-14.41,5.83-8.66,4.78-18.44,3.76-25.3l2.33-2.29Z" style="fill-rule:evenodd;opacity:0.5;mix-blend-mode:multiply;fill:url(#New_Gradient_Swatch_192)"/><path d="M20.78,85.67c1.24-5.8,1.14-12.31-.86-16.5l2.27,2.23c.94,7.16.62,17.53-6.06,26.65C8.87,107.94-.26,115,2.25,120.81a5,5,0,0,1-.41-4.48C3.09,112.23,9,106,11.78,102.6c4.58-5.57,7.47-9.74,9-16.93Z" style="fill-rule:evenodd;opacity:0.5;mix-blend-mode:multiply;fill:url(#New_Gradient_Swatch_192-2)"/><path d="M19.1,72.38C20.89,87.89,18,93.22,8.26,105.32a38.87,38.87,0,0,0-5.32,8.08,48.39,48.39,0,0,1,4.32-5.84c3.73-4.36,7-7.92,9.18-11.61,4.19-7.18,5.52-14,4.23-23.73a.79.79,0,0,0-1.57.16Z" style="fill-rule:evenodd;opacity:0.30000000000000004;mix-blend-mode:screen;fill:url(#linear-gradient)"/><path d="M2.25,2C1,2.36.73,4.61.84,6,1,8.22,2.39,10.29,3.22,11.67,6,16.25,10.05,20.46,13.83,26.09c5.83,8.66,4.78,18.44,3.76,25.3l2.33,2.28,2.27-2.22c.94-7.17.62-17.54-6.06-26.65C8.87,14.9-.26,7.9,2.25,2Z" style="fill-rule:evenodd;fill:url(#New_Gradient_Swatch_161-2)"/><path d="M19.92,53.67c-2-3.33-1-5.12-1-9.68.12-17.29-6.31-18.71-15.17-31.81A17.72,17.72,0,0,1,1.34,7.23c-.53-2-.24-4.3.91-5.19C1,2.36.73,4.61.84,6,1,8.22,2.39,10.29,3.22,11.67,6,16.25,10.05,20.46,13.83,26.09c5.83,8.66,4.78,18.44,3.76,25.3l2.33,2.28Z" style="fill-rule:evenodd;opacity:0.5;mix-blend-mode:multiply;fill:url(#New_Gradient_Swatch_192-3)"/><path d="M20.78,37.18c1.24,5.8,1.14,12.3-.86,16.49l2.27-2.22c.94-7.17.62-17.54-6.06-26.65C8.87,14.9-.26,7.9,2.25,2a5,5,0,0,0-.41,4.48C3.09,10.61,9,16.89,11.78,20.25c4.58,5.56,7.47,9.73,9,16.93Z" style="fill-rule:evenodd;opacity:0.5;mix-blend-mode:multiply;fill:url(#New_Gradient_Swatch_192-4)"/><path d="M19.1,50.46C20.89,35,18,29.63,8.26,17.52A38.81,38.81,0,0,1,2.94,9.45a48.39,48.39,0,0,0,4.32,5.84c3.73,4.36,7,7.91,9.18,11.6,4.19,7.18,5.52,14,4.23,23.73a.79.79,0,1,1-1.57-.16Z" style="fill-rule:evenodd;opacity:0.30000000000000004;mix-blend-mode:screen;fill:url(#linear-gradient-2)"/><path d="M17.46,51.39,19.93,54l2.39-2.5a45.52,45.52,0,0,0,.46-5.92,17,17,0,0,0,.65-1.89,2.89,2.89,0,0,0-.22-.94,17.13,17.13,0,0,1-5.3,5.51c-.12,1.08-.28,2.11-.45,3.18Z" style="fill-rule:evenodd;fill:url(#radial-gradient)"/><path d="M22.07,46.32c-.17,2.17-.36,4.12-1.63,6-.68,1-1.92-1-2-1.68A6,6,0,0,1,19.52,47c-.51.42-1,.82-1.61,1.21-.12,1.08-.28,2.11-.45,3.18L19.93,54l2.39-2.5a45.52,45.52,0,0,0,.46-5.92,17,17,0,0,0,.65-1.89,2.89,2.89,0,0,0-.22-.94c-.17.27-.33.52-.5.77a6,6,0,0,1-2.29,4,5.71,5.71,0,0,0,1.65-1.17Z" style="fill-rule:evenodd;mix-blend-mode:multiply;fill:url(#New_Gradient_Swatch_165)"/><path d="M22.29,44.23A10.7,10.7,0,0,1,19.79,47c-.65.51-.22.76.38.31a4.44,4.44,0,0,0,2.12-3.08Z" style="fill-rule:evenodd;opacity:0.5;mix-blend-mode:screen;fill:url(#radial-gradient-2)"/><path d="M19.29,48.46a4.28,4.28,0,0,0,.1,3.17c.17.25.81.55.86.23s.23-3.41.19-3.93c0-.1-.13-.19-.23-.2a.92.92,0,0,0-.92.73Z" style="fill-rule:evenodd;mix-blend-mode:screen;fill:url(#radial-gradient-3)"/><path d="M2,9.66A13.57,13.57,0,0,1,0,4l.18.11c.47.3.73-.27.4-.6L.13,3A4.36,4.36,0,0,1,4.68,0c-1.76,1.42-2.91,4-2,7.4A2.9,2.9,0,0,0,2,9.66Z" style="fill-rule:evenodd;fill:url(#radial-gradient-4)"/><path d="M3.11.16c.81,0,.5.52.08,1.13A6.68,6.68,0,0,0,2.32,7.9a2.49,2.49,0,0,1,.33-.47c-.88-3.37.27-6,2-7.4A3.88,3.88,0,0,0,3.11.16Z" style="fill-rule:evenodd;mix-blend-mode:multiply;fill:url(#radial-gradient-5)"/><path d="M.61,3.48c.33.33.07.9-.4.6L0,4A13.57,13.57,0,0,0,2,9.66c0-.2,0-.4,0-.6A7.46,7.46,0,0,1,.77,5.23c0-.5.51-.94.3-1.45S.58,3.18.78,2.52A4.17,4.17,0,0,1,2.62.34,4.09,4.09,0,0,0,.13,3l.48.5Z" style="fill-rule:evenodd;mix-blend-mode:multiply;fill:url(#New_Gradient_Swatch_165-2)"/><path d="M2.48.61A3,3,0,0,0,1.1,3c0,.38.28.94.24,1.43,0,.14-.08.28-.09.43a3.08,3.08,0,0,0,.5,1.82s.07,0,.1,0,0-.06,0-.1a7.52,7.52,0,0,1,0-3.27A17.9,17.9,0,0,1,3,.85c.12-.23.23-.4.19-.45s-.5.07-.68.21Z" style="fill-rule:evenodd;mix-blend-mode:screen;fill:url(#radial-gradient-6)"/><path d="M2,113.19a13.53,13.53,0,0,0-2,5.68l.18-.11c.47-.3.73.27.4.6l-.48.5a4.34,4.34,0,0,0,4.55,3c-1.76-1.41-2.91-4-2-7.39A2.91,2.91,0,0,1,2,113.19Z" style="fill-rule:evenodd;fill:url(#radial-gradient-7)"/><path d="M3.08,122.68c.81.06.5-.52.08-1.12A6.68,6.68,0,0,1,2.29,115a2.86,2.86,0,0,0,.33.47c-.88,3.36.27,6,2,7.39a3.56,3.56,0,0,1-1.57-.13Z" style="fill-rule:evenodd;mix-blend-mode:multiply;fill:url(#radial-gradient-8)"/><path d="M.58,119.36c.33-.33.07-.9-.4-.6l-.18.11a13.53,13.53,0,0,1,2-5.68c0,.2,0,.4,0,.6a7.43,7.43,0,0,0-1.26,3.82c0,.51.51.94.3,1.45s-.49.6-.29,1.27a4.21,4.21,0,0,0,1.84,2.18A4.08,4.08,0,0,1,.1,119.86l.48-.5Z" style="fill-rule:evenodd;mix-blend-mode:multiply;fill:url(#New_Gradient_Swatch_165-3)"/><path d="M2.45,122.24a3.07,3.07,0,0,1-1.38-2.34c0-.38.28-1,.24-1.43,0-.15-.08-.29-.09-.43a3.08,3.08,0,0,1,.5-1.82s.07-.06.1,0,0,.06,0,.09a7.56,7.56,0,0,0,0,3.28A17.9,17.9,0,0,0,2.94,122c.12.23.23.39.19.45s-.5-.08-.68-.21Z" style="fill-rule:evenodd;mix-blend-mode:screen;fill:url(#radial-gradient-9)"/><path d="M19.89,52.29c-.45-.13-.89-.28-1.3-.43s-.8-.31-1.13-.47a3.42,3.42,0,0,0,.2,1.45,10.5,10.5,0,0,0,1.08-.2,10.26,10.26,0,0,0,1.15-.35Z" style="fill-rule:evenodd;fill:url(#linear-gradient-3)"/><path d="M19.94,54.37a8.83,8.83,0,0,0,1.1.33c.37.09.73.16,1,.21,0-.49.07-1,.11-1.46a11.3,11.3,0,0,1-1,.48c-.38.16-.8.31-1.21.44Z" style="fill-rule:evenodd;fill:url(#linear-gradient-4)"/><path d="M22,54.91c-.3,0-.66-.12-1-.21a8.52,8.52,0,0,1-1.08-.33c-.38.13-.76.24-1.12.33s-.69.16-1,.21a.7.7,0,0,0,0,.6,8.19,8.19,0,0,0,.94.48c.35.16.74.31,1.12.44s.72.24,1.06.33.66.16.94.21A8.41,8.41,0,0,0,22,54.91Z" style="fill-rule:evenodd;fill:url(#New_Gradient_Swatch_205)"/><path d="M20,56.43A11.55,11.55,0,0,1,18.82,56a7.61,7.61,0,0,1-.95-.48A3.82,3.82,0,0,0,17.93,57l1-.2a7.92,7.92,0,0,0,1-.34Z" style="fill-rule:evenodd;fill:url(#linear-gradient-5)"/><path d="M19.94,56.43a7.92,7.92,0,0,1-1,.34l-1,.2A10.16,10.16,0,0,0,18,59a8,8,0,0,0,.93-.21c.34-.09.7-.2,1.05-.33s.75-.28,1.1-.44a6.93,6.93,0,0,0,.91-.48l0-.6c-.29,0-.62-.12-1-.21s-.71-.2-1.07-.33Z" style="fill-rule:evenodd;fill:url(#New_Gradient_Swatch_205-2)"/><path d="M21.94,57.57a7.82,7.82,0,0,1-.92.48c-.35.16-.72.31-1.1.44a7.48,7.48,0,0,0,1,.34,8.71,8.71,0,0,0,1,.2,5.22,5.22,0,0,0,.05-1.46Z" style="fill-rule:evenodd;fill:url(#linear-gradient-6)"/><path d="M21.9,59a9.36,9.36,0,0,1-1-.2,8,8,0,0,1-1-.34c-.35.13-.71.24-1.05.33a8.64,8.64,0,0,1-.94.21,1.72,1.72,0,0,0,0,.6,6,6,0,0,0,.89.49c.34.15.71.3,1.08.43s.7.24,1,.33a8,8,0,0,0,.93.21,20.22,20.22,0,0,0,0-2.06Z" style="fill-rule:evenodd;fill:url(#New_Gradient_Swatch_205-3)"/><path d="M22.32,51.45a18.83,18.83,0,0,1-2.57.89,19.71,19.71,0,0,1-2.1.5,10.27,10.27,0,0,0,.17,2.07c.3,0,.64-.12,1-.21s.75-.2,1.13-.33.82-.28,1.2-.44a10.16,10.16,0,0,0,1-.48,8.1,8.1,0,0,0,.14-2Z" style="fill-rule:evenodd;fill:url(#New_Gradient_Swatch_205-4)"/><path d="M19.92,60.55c-.37-.13-.74-.28-1.07-.43a6.59,6.59,0,0,1-.89-.49,4,4,0,0,0,0,1.46,8.57,8.57,0,0,0,1-.2,5.87,5.87,0,0,0,1-.34Z" style="fill-rule:evenodd;fill:url(#linear-gradient-7)"/><path d="M19.92,60.55a6.3,6.3,0,0,1-1,.34,8.71,8.71,0,0,1-1,.2,10.13,10.13,0,0,0,0,2.06,8.3,8.3,0,0,0,.93-.2c.34-.09.69-.21,1-.33s.74-.29,1.07-.44a8,8,0,0,0,.89-.48v-.61a8,8,0,0,1-.93-.21,10.24,10.24,0,0,1-1-.33Z" style="fill-rule:evenodd;fill:url(#New_Gradient_Swatch_205-5)"/><path d="M21.87,61.7a7.75,7.75,0,0,1-.88.48c-.34.15-.71.3-1.08.44a7.81,7.81,0,0,0,1,.33,9.36,9.36,0,0,0,1,.2,5,5,0,0,0,0-1.45Z" style="fill-rule:evenodd;fill:url(#linear-gradient-8)"/><path d="M17.43,71.46,19.9,68.9l2.39,2.5a45.37,45.37,0,0,1,.46,5.91,17.09,17.09,0,0,1,.65,1.9,3,3,0,0,1-.22.94,17.07,17.07,0,0,0-5.3-5.52c-.12-1.07-.28-2.1-.45-3.17Z" style="fill-rule:evenodd;fill:url(#radial-gradient-10)"/><path d="M22,76.53c-.17-2.17-.36-4.12-1.63-6-.68-1-1.92,1-2,1.68a6,6,0,0,0,1.07,3.66c-.51-.42-1-.81-1.61-1.21-.12-1.07-.28-2.1-.45-3.17L19.9,68.9l2.39,2.5a45.37,45.37,0,0,1,.46,5.91,17.09,17.09,0,0,1,.65,1.9,3,3,0,0,1-.22.94c-.17-.27-.33-.53-.5-.77a6,6,0,0,0-2.29-4A5.56,5.56,0,0,1,22,76.53Z" style="fill-rule:evenodd;mix-blend-mode:multiply;fill:url(#New_Gradient_Swatch_165-4)"/><path d="M22.26,78.61a10.66,10.66,0,0,0-2.5-2.76c-.65-.52-.22-.77.38-.32a4.46,4.46,0,0,1,2.12,3.08Z" style="fill-rule:evenodd;opacity:0.5;mix-blend-mode:screen;fill:url(#radial-gradient-11)"/><path d="M19.26,74.39a4.28,4.28,0,0,1,.1-3.17c.17-.26.81-.56.86-.24s.23,3.42.19,3.94c0,.1-.13.18-.23.19a.91.91,0,0,1-.92-.72Z" style="fill-rule:evenodd;mix-blend-mode:screen;fill:url(#radial-gradient-12)"/><path d="M21.89,63.15a9.36,9.36,0,0,1-1-.2,7.47,7.47,0,0,1-1-.33c-.35.12-.7.24-1,.33a8.44,8.44,0,0,1-.94.2,1.78,1.78,0,0,0,0,.61,7.16,7.16,0,0,0,.89.48c.34.16.72.3,1.1.44s.71.24,1.06.33.67.16,1,.21a20.44,20.44,0,0,0-.05-2.07Z" style="fill-rule:evenodd;fill:url(#New_Gradient_Swatch_205-6)"/><path d="M19.93,64.68c-.38-.14-.75-.28-1.09-.44a8,8,0,0,1-.89-.48,4,4,0,0,0,0,1.46c.28,0,.63-.12,1-.21a6.41,6.41,0,0,0,1-.33Z" style="fill-rule:evenodd;fill:url(#linear-gradient-9)"/><path d="M19.92,64.68a7.61,7.61,0,0,1-1,.33c-.35.09-.7.16-1,.21a10.87,10.87,0,0,0-.08,2.06c.3,0,.64-.12,1-.21s.73-.2,1.1-.33a10.45,10.45,0,0,0,1.12-.44,6.34,6.34,0,0,0,.91-.48c0-.2,0-.4,0-.6-.29,0-.62-.12-1-.21s-.7-.21-1.06-.33Z" style="fill-rule:evenodd;fill:url(#New_Gradient_Swatch_205-7)"/><path d="M22,65.82a6.34,6.34,0,0,1-.91.48,10.45,10.45,0,0,1-1.12.44,6.9,6.9,0,0,0,1.06.33c.37.09.74.16,1,.21A5.3,5.3,0,0,0,22,65.82Z" style="fill-rule:evenodd;fill:url(#linear-gradient-10)"/><path d="M22,67.28c-.31,0-.67-.12-1-.21a7,7,0,0,1-1.07-.33c-.37.13-.74.24-1.1.33s-.7.16-1,.21a1.53,1.53,0,0,0,0,.6,6.28,6.28,0,0,0,.94.48c.37.16.78.31,1.19.44s.79.24,1.18.33.75.16,1.07.21A20.17,20.17,0,0,0,22,67.28Z" style="fill-rule:evenodd;fill:url(#New_Gradient_Swatch_205-8)"/><path d="M19.94,68.8a10.77,10.77,0,0,1-1.18-.44,6.43,6.43,0,0,1-1-.48,3.73,3.73,0,0,0-.11,1.46c.33,0,.71-.11,1.11-.2a9.32,9.32,0,0,0,1.13-.34Z" style="fill-rule:evenodd;fill:url(#linear-gradient-11)"/><path d="M19.93,68.8a9,9,0,0,1-1.14.34c-.39.09-.78.15-1.1.2a10.18,10.18,0,0,0-.25,2.06c.36-.05.77-.12,1.19-.21s.86-.2,1.29-.33a12.14,12.14,0,0,0,1.29-.44,6.51,6.51,0,0,0,1-.48l-.06-.6c-.32,0-.69-.12-1.07-.21s-.78-.2-1.17-.33Z" style="fill-rule:evenodd;fill:url(#New_Gradient_Swatch_205-9)"/><path d="M22.22,69.94a6.51,6.51,0,0,1-1,.48,13,13,0,0,1-1.29.44,9.12,9.12,0,0,0,1.25.34c.43.09.86.15,1.22.2a4.81,4.81,0,0,0-.16-1.46Z" style="fill-rule:evenodd;fill:url(#linear-gradient-12)"/><path d="M18.5,69.2l-.8.14h0a10.18,10.18,0,0,0-.25,2.06l.92-.15a7.3,7.3,0,0,1,.14-2Z" style="fill-rule:evenodd;mix-blend-mode:multiply;fill:url(#linear-gradient-13)"/><path d="M17.7,69.34l.8-.14a3.65,3.65,0,0,1,.05-.92h0a7.13,7.13,0,0,1-.74-.39h0a3.73,3.73,0,0,0-.11,1.45Z" style="fill-rule:evenodd;mix-blend-mode:multiply;fill:url(#linear-gradient-14)"/><path d="M17.81,67.88a7.13,7.13,0,0,0,.74.39,5.56,5.56,0,0,1,.06-1.14h0a6.62,6.62,0,0,1-.78.15h0a1.53,1.53,0,0,0,0,.6h0Z" style="fill-rule:evenodd;mix-blend-mode:multiply;fill:url(#linear-gradient-15)"/><path d="M17.83,67.27a6.62,6.62,0,0,0,.78-.15,11,11,0,0,1,.07-2.05h0c-.27.06-.53.11-.75.14h0a10.76,10.76,0,0,0-.08,2Z" style="fill-rule:evenodd;mix-blend-mode:multiply;fill:url(#linear-gradient-16)"/><path d="M17.93,65.21c.22,0,.48-.08.75-.14a3.83,3.83,0,0,1,0-.89h0a5.74,5.74,0,0,1-.75-.41h0a3.87,3.87,0,0,0,0,1.44Z" style="fill-rule:evenodd;mix-blend-mode:multiply;fill:url(#linear-gradient-17)"/><path d="M18,63.76a5.74,5.74,0,0,0,.75.41,3.62,3.62,0,0,1,0-1.18h0c-.28.07-.54.12-.77.16h0a1.78,1.78,0,0,0,0,.61h0Z" style="fill-rule:evenodd;mix-blend-mode:multiply;fill:url(#linear-gradient-18)"/><path d="M18,63.15c.23,0,.49-.09.77-.16a8.79,8.79,0,0,1,0-2.05h0l-.75.15h0a10.13,10.13,0,0,0,0,2.06Z" style="fill-rule:evenodd;mix-blend-mode:multiply;fill:url(#linear-gradient-19)"/><path d="M18,61.09l.75-.15a2.17,2.17,0,0,1,0-.88h0a6.65,6.65,0,0,1-.76-.42v0a3.88,3.88,0,0,0,0,1.44Z" style="fill-rule:evenodd;mix-blend-mode:multiply;fill:url(#linear-gradient-20)"/><path d="M18,59.63a6.65,6.65,0,0,0,.76.42,4.67,4.67,0,0,1,0-1.18h0c-.27.07-.52.12-.75.16h0a1.72,1.72,0,0,0,0,.6l0,0v0Z" style="fill-rule:evenodd;mix-blend-mode:multiply;fill:url(#linear-gradient-21)"/><path d="M18,59c.23,0,.48-.09.75-.16a5.85,5.85,0,0,1-.05-2h0l-.73.14h0A10.16,10.16,0,0,0,18,59Z" style="fill-rule:evenodd;mix-blend-mode:multiply;fill:url(#linear-gradient-22)"/><path d="M17.92,57l.73-.14a1.87,1.87,0,0,1,0-.92h0a8.32,8.32,0,0,1-.74-.39h0A4,4,0,0,0,17.92,57Z" style="fill-rule:evenodd;mix-blend-mode:multiply;fill:url(#linear-gradient-23)"/><path d="M17.87,55.51a8.32,8.32,0,0,0,.74.39,2.1,2.1,0,0,1-.05-1.14l-.62.13-.11,0a.7.7,0,0,0,0,.6h0Z" style="fill-rule:evenodd;mix-blend-mode:multiply;fill:url(#linear-gradient-24)"/><path d="M17.94,54.89l.62-.13a5,5,0,0,1-.14-2v0c-.34.08-.61.14-.77.16h0a10.27,10.27,0,0,0,.17,2.07h0l.11,0Z" style="fill-rule:evenodd;mix-blend-mode:multiply;fill:url(#linear-gradient-25)"/><path d="M17.66,52.84l.77-.16c-.17-.15-.27-.73-.07-.91a9.76,9.76,0,0,1-.9-.38,3.42,3.42,0,0,0,.2,1.45Z" style="fill-rule:evenodd;mix-blend-mode:multiply;fill:url(#linear-gradient-26)"/><path d="M21.06,51.94A11.86,11.86,0,0,1,20.92,54l.23-.09a11.3,11.3,0,0,0,1-.48,8.1,8.1,0,0,0,.14-2,11.57,11.57,0,0,1-1.26.49Z" style="fill-rule:evenodd;mix-blend-mode:multiply;fill:url(#New_Gradient_Swatch_202)"/><path d="M22.18,53.45a10.16,10.16,0,0,1-1,.48l-.23.09a2.84,2.84,0,0,1,0,.65l.16,0c.37.09.73.16,1,.21,0-.49.07-1,.11-1.46Z" style="fill-rule:evenodd;mix-blend-mode:multiply;fill:url(#New_Gradient_Swatch_202-2)"/><path d="M22,54.91c-.3,0-.66-.12-1-.21l-.13,0a6.9,6.9,0,0,1-.09,2l.22.06a8,8,0,0,0,.91.2A8.36,8.36,0,0,0,22,54.91Z" style="fill-rule:evenodd;mix-blend-mode:multiply;fill:url(#New_Gradient_Swatch_202-3)"/><path d="M21.92,57a8,8,0,0,1-.91-.2l-.22-.06h0a6.47,6.47,0,0,1,0,1.46l.27-.12a7.82,7.82,0,0,0,.92-.48h0l0-.6Z" style="fill-rule:evenodd;mix-blend-mode:multiply;fill:url(#New_Gradient_Swatch_202-4)"/><path d="M21.94,57.58a7.66,7.66,0,0,1-.91.47l-.28.13a2.91,2.91,0,0,1,0,.59l.2.06,1,.2a5.52,5.52,0,0,0,0-1.45Z" style="fill-rule:evenodd;mix-blend-mode:multiply;fill:url(#New_Gradient_Swatch_202-5)"/><path d="M20.73,58.77a20,20,0,0,1,0,2l.24.06a8,8,0,0,0,.93.21,20.22,20.22,0,0,0,0-2.06h0l-1-.2-.2-.06Z" style="fill-rule:evenodd;mix-blend-mode:multiply;fill:url(#New_Gradient_Swatch_202-6)"/><path d="M21.88,61.09a8,8,0,0,1-.93-.21l-.24-.06a6.1,6.1,0,0,1,0,1.48l.28-.12a7.75,7.75,0,0,0,.88-.48h0v-.61Z" style="fill-rule:evenodd;mix-blend-mode:multiply;fill:url(#New_Gradient_Swatch_202-7)"/><path d="M21.87,61.7a7,7,0,0,1-.88.48l-.28.12a2.41,2.41,0,0,1,0,.6l.21.05a8.71,8.71,0,0,0,1,.2,5,5,0,0,0,0-1.45Z" style="fill-rule:evenodd;mix-blend-mode:multiply;fill:url(#New_Gradient_Swatch_202-8)"/><path d="M20.72,62.9a7.84,7.84,0,0,1,0,2.05L21,65c.34.09.67.16,1,.21a20.44,20.44,0,0,0-.05-2.07h0a8.71,8.71,0,0,1-1-.2l-.21-.05Z" style="fill-rule:evenodd;mix-blend-mode:multiply;fill:url(#New_Gradient_Swatch_202-9)"/><path d="M21.94,65.22c-.29,0-.62-.12-1-.21L20.75,65a7.16,7.16,0,0,1,.05,1.46L21,66.3a6.34,6.34,0,0,0,.91-.48h0c0-.2,0-.4,0-.6Z" style="fill-rule:evenodd;mix-blend-mode:multiply;fill:url(#New_Gradient_Swatch_202-10)"/><path d="M22,65.82a6.19,6.19,0,0,1-.9.48l-.25.11a3.24,3.24,0,0,1,0,.62l.17,0c.37.09.73.16,1,.21A5.32,5.32,0,0,0,22,65.82Z" style="fill-rule:evenodd;mix-blend-mode:multiply;fill:url(#New_Gradient_Swatch_202-11)"/><path d="M20.82,67a9,9,0,0,1,.11,2.06l.17,0c.38.09.75.16,1.07.21A20.17,20.17,0,0,0,22,67.28h0c-.3,0-.66-.12-1-.21l-.17,0Z" style="fill-rule:evenodd;mix-blend-mode:multiply;fill:url(#New_Gradient_Swatch_202-12)"/><path d="M22.17,69.34c-.32,0-.69-.12-1.07-.21l-.17,0A4.59,4.59,0,0,1,21,70.5l.18-.08a6.51,6.51,0,0,0,1-.48h0l-.06-.6Z" style="fill-rule:evenodd;mix-blend-mode:multiply;fill:url(#New_Gradient_Swatch_202-13)"/><path d="M22.22,70a7.44,7.44,0,0,1-1,.47L21,70.5a1.22,1.22,0,0,1,.05.68l.09,0c.43.09.86.15,1.22.2A4.74,4.74,0,0,0,22.22,70Z" style="fill-rule:evenodd;mix-blend-mode:multiply;fill:url(#New_Gradient_Swatch_202-14)"/><path d="M18.58,69.18c0,.37,0,1.13.35,1.17a2.28,2.28,0,0,0,1.4-.36,1.6,1.6,0,0,0,.33-1l-.73-.22a9.16,9.16,0,0,1-1.12.34l-.23,0Z" style="fill-rule:evenodd;opacity:0.2;mix-blend-mode:screen;fill:url(#linear-gradient-27)"/><path d="M19,68.19a2.1,2.1,0,0,0,1.33-.36,1.51,1.51,0,0,0,.3-.84c-.25-.08-.5-.16-.73-.25a11.3,11.3,0,0,1-1.09.33l-.14,0c0,.39.06,1.06.33,1.09Z" style="fill-rule:evenodd;opacity:0.2;mix-blend-mode:screen;fill:url(#linear-gradient-28)"/><path d="M19,66.21a1.79,1.79,0,0,0,1.22-.35,1.77,1.77,0,0,0,.29-1l-.63-.21a6.29,6.29,0,0,1-1,.33l-.17,0c0,.37,0,1.13.3,1.16Z" style="fill-rule:evenodd;opacity:0.2;mix-blend-mode:screen;fill:url(#linear-gradient-29)"/><path d="M19.14,64.13a1.64,1.64,0,0,0,1.14-.36,1.76,1.76,0,0,0,.27-.92l-.64-.23c-.34.12-.7.24-1,.33h0c0,.36,0,1.14.28,1.18Z" style="fill-rule:evenodd;opacity:0.2;mix-blend-mode:screen;fill:url(#linear-gradient-30)"/><path d="M19.14,62.12a1.59,1.59,0,0,0,1.14-.36,1.83,1.83,0,0,0,.27-1l-.63-.21a7.81,7.81,0,0,1-1,.33h-.06c0,.35,0,1.18.28,1.22Z" style="fill-rule:evenodd;opacity:0.2;mix-blend-mode:screen;fill:url(#linear-gradient-31)"/><path d="M19.14,60a1.59,1.59,0,0,0,1.14-.36,1.69,1.69,0,0,0,.27-1,5.85,5.85,0,0,1-.63-.23c-.35.13-.7.24-1,.33h0c0,.34,0,1.17.28,1.21Z" style="fill-rule:evenodd;opacity:0.2;mix-blend-mode:screen;fill:url(#linear-gradient-32)"/><path d="M19,58a1.85,1.85,0,0,0,1.22-.36,1.8,1.8,0,0,0,.29-1h0l-.61-.2h0a8.26,8.26,0,0,1-1,.33l-.17,0c0,.34,0,1.18.3,1.22Z" style="fill-rule:evenodd;opacity:0.2;mix-blend-mode:screen;fill:url(#linear-gradient-33)"/><path d="M19,55.86a2.2,2.2,0,0,0,1.37-.36,1.43,1.43,0,0,0,.32-.89,6.56,6.56,0,0,1-.71-.24c-.38.13-.76.24-1.12.33l-.2,0c0,.38.05,1.08.34,1.11Z" style="fill-rule:evenodd;opacity:0.2;mix-blend-mode:screen;fill:url(#linear-gradient-34)"/><path d="M18.9,53.83a2.33,2.33,0,0,0,1.42-.36c.29-.24.35-1,.37-1.41l-.8.23h0l-.14,0c-.43.12-.85.23-1.2.31v0c0,.37,0,1.11.35,1.15Z" style="fill-rule:evenodd;opacity:0.2;mix-blend-mode:screen;fill:url(#linear-gradient-35)"/><path d="M18,54.88a36.6,36.6,0,0,0,4-1.34,7.17,7.17,0,0,1-4,1.34Z" style="fill:#3a3119;fill-rule:evenodd"/><path d="M21.85,57A32.18,32.18,0,0,1,18,55.59,6.56,6.56,0,0,0,21.85,57Z" style="fill:#3a3119;fill-rule:evenodd"/><path d="M18,59a23.06,23.06,0,0,0,3.82-1.39A6.55,6.55,0,0,1,18,59Z" style="fill:#3a3119;fill-rule:evenodd"/><path d="M21.67,61.05a24.08,24.08,0,0,1-3.61-1.35,5.84,5.84,0,0,0,3.61,1.35Z" style="fill:#3a3119;fill-rule:evenodd"/><path d="M18,63.14a23.56,23.56,0,0,0,3.77-1.39A6.22,6.22,0,0,1,18,63.14Z" style="fill:#3a3119;fill-rule:evenodd"/><path d="M21.85,65.2A31.5,31.5,0,0,1,18,63.8a6.51,6.51,0,0,0,3.83,1.4Z" style="fill:#3a3119;fill-rule:evenodd"/><path d="M18,67.26a24.66,24.66,0,0,0,3.93-1.39A6.89,6.89,0,0,1,18,67.26Z" style="fill:#3a3119;fill-rule:evenodd"/><path d="M21.89,69.29a22.12,22.12,0,0,1-4-1.35,6.44,6.44,0,0,0,4,1.35Z" style="fill:#3a3119;fill-rule:evenodd"/><path d="M.69,118.51a6.47,6.47,0,0,1,.94.11,5.12,5.12,0,0,1,1,.31.23.23,0,0,1,.1.28.21.21,0,0,1-.28.1,3.76,3.76,0,0,0-.78-.25l.25.16a4.46,4.46,0,0,1,1.07.91.22.22,0,0,1-.05.29.2.2,0,0,1-.29,0,4.22,4.22,0,0,0-1-.81,6.08,6.08,0,0,0-1.26-.65.2.2,0,0,1-.16-.2V4.12a.2.2,0,0,1,.16-.2,5.72,5.72,0,0,0,1.26-.66,3.77,3.77,0,0,0,1-.81.2.2,0,0,1,.29,0A.22.22,0,0,1,3,2.7a4.7,4.7,0,0,1-1.07.91l-.25.16a3.76,3.76,0,0,0,.78-.25.21.21,0,0,1,.28.1.21.21,0,0,1-.1.27,4,4,0,0,1-1,.31,5.38,5.38,0,0,1-.94.12V118.51Z" style="fill:url(#New_Gradient_Swatch_196)"/></g></g></g></svg>