<svg xmlns="http://www.w3.org/2000/svg" xmlns:xlink="http://www.w3.org/1999/xlink" viewBox="0 0 21.75 122.79"><defs><radialGradient id="radial-gradient" cx="-26.42" cy="45.2" r="47.73" gradientUnits="userSpaceOnUse"><stop offset="0.91" stop-color="#730a0a"/><stop offset="0.96" stop-color="#bd2a2a"/><stop offset="1" stop-color="#730a0a"/></radialGradient><radialGradient id="radial-gradient-2" cx="-31.19" cy="45.69" r="49.38" gradientUnits="userSpaceOnUse"><stop offset="0.98" stop-color="#8a1f1f"/><stop offset="1" stop-color="#fff"/></radialGradient><radialGradient id="radial-gradient-3" cx="-24.48" cy="45.21" r="45.85" gradientUnits="userSpaceOnUse"><stop offset="0.98" stop-color="#fff"/><stop offset="1" stop-color="#8a1f1f"/></radialGradient><radialGradient id="radial-gradient-4" cx="-26.42" cy="152.94" r="47.73" gradientTransform="matrix(1, 0, 0, -1, 0, 230.53)" xlink:href="#radial-gradient"/><radialGradient id="radial-gradient-5" cx="-31.19" cy="153.43" r="49.38" gradientTransform="matrix(1, 0, 0, -1, 0, 230.53)" xlink:href="#radial-gradient-2"/><radialGradient id="radial-gradient-6" cx="-24.48" cy="152.95" r="45.85" gradientTransform="matrix(1, 0, 0, -1, 0, 230.53)" xlink:href="#radial-gradient-3"/><radialGradient id="radial-gradient-7" cx="5.13" cy="5.03" r="6.56" gradientUnits="userSpaceOnUse"><stop offset="0" stop-color="#fccd10"/><stop offset="0.23" stop-color="#e9a708"/><stop offset="0.45" stop-color="#da8a02"/><stop offset="0.58" stop-color="#d47f00"/><stop offset="0.67" stop-color="#ce7b00"/><stop offset="0.78" stop-color="#bd7100"/><stop offset="0.92" stop-color="#a06000"/><stop offset="1" stop-color="#8c5400"/></radialGradient><radialGradient id="radial-gradient-8" cx="3.96" cy="1.56" r="9.01" gradientUnits="userSpaceOnUse"><stop offset="0" stop-color="#fff"/><stop offset="1" stop-color="#967e58"/></radialGradient><radialGradient id="radial-gradient-9" cx="4.87" cy="6.16" r="4.18" xlink:href="#radial-gradient-8"/><radialGradient id="radial-gradient-10" cx="2.29" cy="3.24" r="5.17" xlink:href="#radial-gradient-8"/><radialGradient id="radial-gradient-11" cx="7.22" cy="4.65" r="7.52" gradientUnits="userSpaceOnUse"><stop offset="0.23"/><stop offset="1" stop-color="#fffd9e"/></radialGradient><radialGradient id="radial-gradient-12" cx="3.75" cy="2.11" r="3" xlink:href="#radial-gradient-11"/><radialGradient id="radial-gradient-13" cx="5.13" cy="150.48" r="6.56" gradientTransform="matrix(1, 0, 0, -1, 0, 268.24)" xlink:href="#radial-gradient-7"/><radialGradient id="radial-gradient-14" cx="3.96" cy="147.01" r="9.01" gradientTransform="matrix(1, 0, 0, -1, 0, 268.24)" xlink:href="#radial-gradient-8"/><radialGradient id="radial-gradient-15" cx="4.87" cy="151.61" r="4.18" gradientTransform="matrix(1, 0, 0, -1, 0, 268.24)" xlink:href="#radial-gradient-8"/><radialGradient id="radial-gradient-16" cx="2.29" cy="148.69" r="5.17" gradientTransform="matrix(1, 0, 0, -1, 0, 268.24)" xlink:href="#radial-gradient-8"/><radialGradient id="radial-gradient-17" cx="7.22" cy="150.1" r="7.52" gradientTransform="matrix(1, 0, 0, -1, 0, 268.24)" xlink:href="#radial-gradient-11"/><radialGradient id="radial-gradient-18" cx="3.75" cy="147.56" r="3" gradientTransform="matrix(1, 0, 0, -1, 0, 268.24)" xlink:href="#radial-gradient-11"/><radialGradient id="New_Gradient_Swatch_93" cx="1.16" cy="61.39" r="57.29" gradientUnits="userSpaceOnUse"><stop offset="0" stop-color="#8f867a"/><stop offset="0.6" stop-color="#787064"/><stop offset="1" stop-color="#665f53"/></radialGradient><linearGradient id="New_Gradient_Swatch_198" x1="15.97" y1="70.77" x2="20.54" y2="70.77" gradientUnits="userSpaceOnUse"><stop offset="0" stop-color="#281f36"/><stop offset="0.27" stop-color="#37454a"/><stop offset="1" stop-color="#2c2f3b"/></linearGradient><linearGradient id="linear-gradient" x1="15.97" y1="71.63" x2="17.32" y2="71.63" gradientUnits="userSpaceOnUse"><stop offset="0" stop-color="#83839c"/><stop offset="1" stop-color="#fff"/></linearGradient><linearGradient id="New_Gradient_Swatch_200" x1="19.72" y1="70.24" x2="20.54" y2="70.24" gradientUnits="userSpaceOnUse"><stop offset="0" stop-color="#fff"/><stop offset="1" stop-color="#83839c"/></linearGradient><linearGradient id="linear-gradient-2" x1="16.6" y1="71.16" x2="19.34" y2="71.16" gradientUnits="userSpaceOnUse"><stop offset="0" stop-color="#1d48b5"/><stop offset="1"/></linearGradient><linearGradient id="New_Gradient_Swatch_198-2" x1="15.49" y1="69.97" x2="20.19" y2="69.97" xlink:href="#New_Gradient_Swatch_198"/><linearGradient id="linear-gradient-3" x1="15.49" y1="70.75" x2="16.75" y2="70.75" xlink:href="#linear-gradient"/><linearGradient id="New_Gradient_Swatch_200-2" x1="19.31" y1="69.45" x2="20.19" y2="69.45" xlink:href="#New_Gradient_Swatch_200"/><linearGradient id="linear-gradient-4" x1="16.08" y1="70.34" x2="18.94" y2="70.34" xlink:href="#linear-gradient-2"/><linearGradient id="New_Gradient_Swatch_198-3" x1="15.05" y1="69.08" x2="19.89" y2="69.08" xlink:href="#New_Gradient_Swatch_198"/><linearGradient id="linear-gradient-5" x1="15.05" y1="69.8" x2="16.26" y2="69.8" xlink:href="#linear-gradient"/><linearGradient id="New_Gradient_Swatch_200-3" x1="18.92" y1="68.61" x2="19.89" y2="68.61" xlink:href="#New_Gradient_Swatch_200"/><linearGradient id="linear-gradient-6" x1="15.62" y1="69.45" x2="18.6" y2="69.45" xlink:href="#linear-gradient-2"/><linearGradient id="New_Gradient_Swatch_198-4" x1="14.68" y1="68.15" x2="19.64" y2="68.15" xlink:href="#New_Gradient_Swatch_198"/><linearGradient id="linear-gradient-7" x1="14.68" y1="68.79" x2="15.82" y2="68.79" xlink:href="#linear-gradient"/><linearGradient id="New_Gradient_Swatch_200-4" x1="18.58" y1="67.73" x2="19.64" y2="67.73" xlink:href="#New_Gradient_Swatch_200"/><linearGradient id="linear-gradient-8" x1="15.25" y1="68.51" x2="18.31" y2="68.51" xlink:href="#linear-gradient-2"/><linearGradient id="New_Gradient_Swatch_198-5" x1="14.37" y1="67.18" x2="19.43" y2="67.18" xlink:href="#New_Gradient_Swatch_198"/><linearGradient id="linear-gradient-9" x1="14.37" y1="67.74" x2="15.45" y2="67.74" xlink:href="#linear-gradient"/><linearGradient id="New_Gradient_Swatch_200-5" x1="18.3" y1="66.81" x2="19.43" y2="66.81" xlink:href="#New_Gradient_Swatch_200"/><linearGradient id="linear-gradient-10" x1="14.93" y1="67.53" x2="18.06" y2="67.53" xlink:href="#linear-gradient-2"/><linearGradient id="New_Gradient_Swatch_198-6" x1="14.12" y1="66.18" x2="19.27" y2="66.18" xlink:href="#New_Gradient_Swatch_198"/><linearGradient id="linear-gradient-11" x1="14.12" y1="66.64" x2="15.15" y2="66.64" xlink:href="#linear-gradient"/><linearGradient id="New_Gradient_Swatch_200-6" x1="18.06" y1="65.86" x2="19.27" y2="65.86" xlink:href="#New_Gradient_Swatch_200"/><linearGradient id="linear-gradient-12" x1="14.66" y1="66.51" x2="17.86" y2="66.51" xlink:href="#linear-gradient-2"/><linearGradient id="New_Gradient_Swatch_198-7" x1="13.93" y1="65.16" x2="19.14" y2="65.16" xlink:href="#New_Gradient_Swatch_198"/><linearGradient id="linear-gradient-13" x1="13.93" y1="65.52" x2="14.9" y2="65.52" xlink:href="#linear-gradient"/><linearGradient id="New_Gradient_Swatch_200-7" x1="17.87" y1="64.89" x2="19.14" y2="64.89" xlink:href="#New_Gradient_Swatch_200"/><linearGradient id="linear-gradient-14" x1="14.46" y1="65.47" x2="17.7" y2="65.47" xlink:href="#linear-gradient-2"/><linearGradient id="New_Gradient_Swatch_198-8" x1="13.79" y1="64.12" x2="19.06" y2="64.12" xlink:href="#New_Gradient_Swatch_198"/><linearGradient id="linear-gradient-15" x1="13.79" y1="64.37" x2="14.71" y2="64.37" xlink:href="#linear-gradient"/><linearGradient id="New_Gradient_Swatch_200-8" x1="17.72" y1="63.9" x2="19.06" y2="63.9" xlink:href="#New_Gradient_Swatch_200"/><linearGradient id="linear-gradient-16" x1="14.32" y1="64.4" x2="17.59" y2="64.4" xlink:href="#linear-gradient-2"/><linearGradient id="New_Gradient_Swatch_198-9" x1="13.71" y1="63.08" x2="19.02" y2="63.08" xlink:href="#New_Gradient_Swatch_198"/><linearGradient id="linear-gradient-17" x1="13.71" y1="63.2" x2="14.58" y2="63.2" xlink:href="#linear-gradient"/><linearGradient id="New_Gradient_Swatch_200-9" x1="17.62" y1="62.9" x2="19.02" y2="62.9" xlink:href="#New_Gradient_Swatch_200"/><linearGradient id="linear-gradient-18" x1="14.22" y1="63.33" x2="17.53" y2="63.33" xlink:href="#linear-gradient-2"/><linearGradient id="New_Gradient_Swatch_198-10" x1="13.67" y1="62.03" x2="19.01" y2="62.03" xlink:href="#New_Gradient_Swatch_198"/><linearGradient id="linear-gradient-19" x1="13.67" y1="62.03" x2="14.5" y2="62.03" xlink:href="#linear-gradient"/><linearGradient id="New_Gradient_Swatch_200-10" x1="17.56" y1="61.9" x2="19.01" y2="61.9" xlink:href="#New_Gradient_Swatch_200"/><linearGradient id="linear-gradient-20" x1="14.18" y1="62.22" x2="17.5" y2="62.22" xlink:href="#linear-gradient-2"/><linearGradient id="New_Gradient_Swatch_198-11" x1="13.69" y1="60.95" x2="19.04" y2="60.95" xlink:href="#New_Gradient_Swatch_198"/><linearGradient id="linear-gradient-21" x1="13.69" y1="60.86" x2="14.46" y2="60.86" xlink:href="#linear-gradient"/><linearGradient id="New_Gradient_Swatch_200-11" x1="17.54" y1="60.89" x2="19.04" y2="60.89" xlink:href="#New_Gradient_Swatch_200"/><linearGradient id="linear-gradient-22" x1="14.2" y1="61.07" x2="17.52" y2="61.07" xlink:href="#linear-gradient-2"/><linearGradient id="New_Gradient_Swatch_198-12" x1="13.75" y1="59.82" x2="19.11" y2="59.82" xlink:href="#New_Gradient_Swatch_198"/><linearGradient id="linear-gradient-23" x1="13.75" y1="59.69" x2="14.48" y2="59.69" xlink:href="#linear-gradient"/><linearGradient id="New_Gradient_Swatch_200-12" x1="17.56" y1="59.89" x2="19.11" y2="59.89" xlink:href="#New_Gradient_Swatch_200"/><linearGradient id="linear-gradient-24" x1="14.25" y1="59.93" x2="17.57" y2="59.93" xlink:href="#linear-gradient-2"/><linearGradient id="New_Gradient_Swatch_198-13" x1="13.85" y1="58.7" x2="19.22" y2="58.7" xlink:href="#New_Gradient_Swatch_198"/><linearGradient id="linear-gradient-25" x1="13.85" y1="58.53" x2="14.55" y2="58.53" xlink:href="#linear-gradient"/><linearGradient id="New_Gradient_Swatch_200-13" x1="17.62" y1="58.9" x2="19.22" y2="58.9" xlink:href="#New_Gradient_Swatch_200"/><linearGradient id="linear-gradient-26" x1="14.35" y1="58.8" x2="17.67" y2="58.8" xlink:href="#linear-gradient-2"/><linearGradient id="New_Gradient_Swatch_198-14" x1="14.01" y1="57.6" x2="19.37" y2="57.6" xlink:href="#New_Gradient_Swatch_198"/><linearGradient id="linear-gradient-27" x1="14.01" y1="57.39" x2="14.66" y2="57.39" xlink:href="#linear-gradient"/><linearGradient id="New_Gradient_Swatch_200-14" x1="17.73" y1="57.92" x2="19.37" y2="57.92" xlink:href="#New_Gradient_Swatch_200"/><linearGradient id="linear-gradient-28" x1="14.5" y1="57.69" x2="17.81" y2="57.69" xlink:href="#linear-gradient-2"/><linearGradient id="New_Gradient_Swatch_198-15" x1="14.21" y1="56.53" x2="19.56" y2="56.53" xlink:href="#New_Gradient_Swatch_198"/><linearGradient id="linear-gradient-29" x1="14.21" y1="56.27" x2="14.82" y2="56.27" xlink:href="#linear-gradient"/><linearGradient id="New_Gradient_Swatch_200-15" x1="17.87" y1="56.96" x2="19.56" y2="56.96" xlink:href="#New_Gradient_Swatch_200"/><linearGradient id="linear-gradient-30" x1="14.7" y1="56.61" x2="17.98" y2="56.61" xlink:href="#linear-gradient-2"/><linearGradient id="New_Gradient_Swatch_198-16" x1="14.45" y1="55.5" x2="19.78" y2="55.5" xlink:href="#New_Gradient_Swatch_198"/><linearGradient id="linear-gradient-31" x1="14.45" y1="55.18" x2="15.08" y2="55.18" xlink:href="#linear-gradient"/><linearGradient id="New_Gradient_Swatch_200-16" x1="18.05" y1="56.03" x2="19.78" y2="56.03" xlink:href="#New_Gradient_Swatch_200"/><linearGradient id="linear-gradient-32" x1="14.94" y1="55.56" x2="18.2" y2="55.56" xlink:href="#linear-gradient-2"/><linearGradient id="New_Gradient_Swatch_198-17" x1="14.74" y1="54.51" x2="20.03" y2="54.51" xlink:href="#New_Gradient_Swatch_198"/><linearGradient id="linear-gradient-33" x1="14.74" y1="54.13" x2="15.4" y2="54.13" xlink:href="#linear-gradient"/><linearGradient id="New_Gradient_Swatch_200-17" x1="18.27" y1="55.12" x2="20.03" y2="55.12" xlink:href="#New_Gradient_Swatch_200"/><linearGradient id="linear-gradient-34" x1="15.23" y1="54.54" x2="18.45" y2="54.54" xlink:href="#linear-gradient-2"/><linearGradient id="New_Gradient_Swatch_198-18" x1="15.09" y1="53.57" x2="20.33" y2="53.57" xlink:href="#New_Gradient_Swatch_198"/><linearGradient id="linear-gradient-35" x1="15.09" y1="53.12" x2="15.77" y2="53.12" xlink:href="#linear-gradient"/><linearGradient id="New_Gradient_Swatch_200-18" x1="18.53" y1="54.26" x2="20.33" y2="54.26" xlink:href="#New_Gradient_Swatch_200"/><linearGradient id="linear-gradient-36" x1="15.58" y1="53.57" x2="18.75" y2="53.57" xlink:href="#linear-gradient-2"/><linearGradient id="New_Gradient_Swatch_198-19" x1="15.5" y1="52.69" x2="20.65" y2="52.69" xlink:href="#New_Gradient_Swatch_198"/><linearGradient id="linear-gradient-37" x1="15.5" y1="52.16" x2="16.25" y2="52.16" xlink:href="#linear-gradient"/><linearGradient id="New_Gradient_Swatch_200-19" x1="18.83" y1="53.44" x2="20.65" y2="53.44" xlink:href="#New_Gradient_Swatch_200"/><linearGradient id="linear-gradient-38" x1="16" y1="52.65" x2="19.09" y2="52.65" xlink:href="#linear-gradient-2"/><linearGradient id="New_Gradient_Swatch_198-20" x1="15.99" y1="51.89" x2="20.99" y2="51.89" xlink:href="#New_Gradient_Swatch_198"/><linearGradient id="linear-gradient-39" x1="15.99" y1="51.3" x2="16.86" y2="51.3" xlink:href="#linear-gradient"/><linearGradient id="New_Gradient_Swatch_200-20" x1="19.17" y1="52.68" x2="20.99" y2="52.68" xlink:href="#New_Gradient_Swatch_200"/><linearGradient id="linear-gradient-40" x1="16.5" y1="51.8" x2="19.48" y2="51.8" xlink:href="#linear-gradient-2"/><linearGradient id="linear-gradient-41" x1="16.8" y1="49.48" x2="21.51" y2="49.48" gradientUnits="userSpaceOnUse"><stop offset="0" stop-color="#cf7500"/><stop offset="0.74" stop-color="#ffce38"/><stop offset="1" stop-color="#cf7500"/></linearGradient><linearGradient id="New_Gradient_Swatch_195" x1="16.8" y1="49.48" x2="21.51" y2="49.48" gradientUnits="userSpaceOnUse"><stop offset="0" stop-color="#deba83"/><stop offset="0.46" stop-color="#fff"/><stop offset="1" stop-color="#deba83"/></linearGradient><linearGradient id="linear-gradient-42" x1="17.85" y1="49.76" x2="21.03" y2="49.76" gradientUnits="userSpaceOnUse"><stop offset="0"/><stop offset="1" stop-color="#fffd9e"/></linearGradient><linearGradient id="linear-gradient-43" x1="16.85" y1="45.09" x2="21.75" y2="45.09" xlink:href="#linear-gradient-41"/><linearGradient id="New_Gradient_Swatch_195-2" x1="16.85" y1="45.09" x2="21.75" y2="45.09" xlink:href="#New_Gradient_Swatch_195"/><linearGradient id="linear-gradient-44" x1="17.95" y1="45.42" x2="21.28" y2="45.42" xlink:href="#linear-gradient-42"/><linearGradient id="linear-gradient-45" x1="12.76" y1="23.86" x2="16.72" y2="23.86" xlink:href="#linear-gradient-41"/><linearGradient id="linear-gradient-46" x1="13.13" y1="23.92" x2="16.46" y2="23.92" xlink:href="#linear-gradient-42"/><linearGradient id="New_Gradient_Swatch_195-3" x1="12.79" y1="23.88" x2="16.72" y2="23.88" xlink:href="#New_Gradient_Swatch_195"/><linearGradient id="linear-gradient-47" x1="16.49" y1="40.7" x2="21.57" y2="40.7" xlink:href="#linear-gradient-41"/><linearGradient id="linear-gradient-48" x1="17.64" y1="41.08" x2="21.12" y2="41.08" xlink:href="#linear-gradient-42"/><linearGradient id="New_Gradient_Swatch_195-4" x1="16.49" y1="40.7" x2="21.57" y2="40.7" xlink:href="#New_Gradient_Swatch_195"/><linearGradient id="linear-gradient-49" x1="15.77" y1="36.31" x2="20.98" y2="36.31" xlink:href="#linear-gradient-41"/><linearGradient id="linear-gradient-50" x1="16.95" y1="36.75" x2="20.56" y2="36.75" xlink:href="#linear-gradient-42"/><linearGradient id="New_Gradient_Swatch_195-5" x1="15.77" y1="36.31" x2="20.98" y2="36.31" xlink:href="#New_Gradient_Swatch_195"/><linearGradient id="linear-gradient-51" x1="14.75" y1="31.94" x2="19.97" y2="31.94" xlink:href="#linear-gradient-41"/><linearGradient id="linear-gradient-52" x1="15.94" y1="32.42" x2="19.6" y2="32.42" xlink:href="#linear-gradient-42"/><linearGradient id="New_Gradient_Swatch_195-6" x1="14.75" y1="31.94" x2="19.97" y2="31.94" xlink:href="#New_Gradient_Swatch_195"/><linearGradient id="linear-gradient-53" x1="13.33" y1="27.59" x2="18.58" y2="27.59" xlink:href="#linear-gradient-41"/><linearGradient id="linear-gradient-54" x1="14.53" y1="28.14" x2="18.25" y2="28.14" xlink:href="#linear-gradient-42"/><linearGradient id="New_Gradient_Swatch_195-7" x1="13.33" y1="27.59" x2="18.58" y2="27.59" xlink:href="#New_Gradient_Swatch_195"/><linearGradient id="linear-gradient-55" x1="16.62" y1="73.33" x2="21.28" y2="73.33" xlink:href="#linear-gradient-41"/><linearGradient id="New_Gradient_Swatch_195-8" x1="16.62" y1="73.33" x2="21.28" y2="73.33" xlink:href="#New_Gradient_Swatch_195"/><linearGradient id="linear-gradient-56" x1="17.09" y1="73.61" x2="20.24" y2="73.61" xlink:href="#linear-gradient-42"/><linearGradient id="linear-gradient-57" x1="16.77" y1="77.71" x2="21.63" y2="77.71" xlink:href="#linear-gradient-41"/><linearGradient id="New_Gradient_Swatch_195-9" x1="16.77" y1="77.71" x2="21.63" y2="77.71" xlink:href="#New_Gradient_Swatch_195"/><linearGradient id="linear-gradient-58" x1="17.23" y1="78.04" x2="20.54" y2="78.04" xlink:href="#linear-gradient-42"/><linearGradient id="linear-gradient-59" x1="12.1" y1="99.57" x2="16.06" y2="99.57" xlink:href="#linear-gradient-41"/><linearGradient id="linear-gradient-60" x1="12.36" y1="99.62" x2="15.69" y2="99.62" xlink:href="#linear-gradient-42"/><linearGradient id="New_Gradient_Swatch_195-10" x1="12.1" y1="99.58" x2="16.03" y2="99.58" xlink:href="#New_Gradient_Swatch_195"/><linearGradient id="linear-gradient-61" x1="16.52" y1="82.1" x2="21.56" y2="82.1" xlink:href="#linear-gradient-41"/><linearGradient id="linear-gradient-62" x1="16.96" y1="82.48" x2="20.42" y2="82.48" xlink:href="#linear-gradient-42"/><linearGradient id="New_Gradient_Swatch_195-11" x1="16.52" y1="82.1" x2="21.56" y2="82.1" xlink:href="#New_Gradient_Swatch_195"/><linearGradient id="linear-gradient-63" x1="15.89" y1="86.48" x2="21.1" y2="86.48" xlink:href="#linear-gradient-41"/><linearGradient id="linear-gradient-64" x1="16.31" y1="86.92" x2="19.92" y2="86.92" xlink:href="#linear-gradient-42"/><linearGradient id="New_Gradient_Swatch_195-12" x1="15.89" y1="86.48" x2="21.1" y2="86.48" xlink:href="#New_Gradient_Swatch_195"/><linearGradient id="linear-gradient-65" x1="14.91" y1="90.85" x2="20.13" y2="90.85" xlink:href="#linear-gradient-41"/><linearGradient id="linear-gradient-66" x1="15.28" y1="91.33" x2="18.94" y2="91.33" xlink:href="#linear-gradient-42"/><linearGradient id="New_Gradient_Swatch_195-13" x1="14.91" y1="90.85" x2="20.13" y2="90.85" xlink:href="#New_Gradient_Swatch_195"/><linearGradient id="linear-gradient-67" x1="13.55" y1="95.19" x2="18.8" y2="95.19" xlink:href="#linear-gradient-41"/><linearGradient id="linear-gradient-68" x1="13.88" y1="95.74" x2="17.6" y2="95.74" xlink:href="#linear-gradient-42"/><linearGradient id="New_Gradient_Swatch_195-14" x1="13.55" y1="95.19" x2="18.8" y2="95.19" xlink:href="#New_Gradient_Swatch_195"/></defs><g style="isolation:isolate"><g id="Calque_2" data-name="Calque 2"><g id="Layer_1" data-name="Layer 1"><path d="M1.65,6.63c.29.38.65.73,1,1.1C13.3,19.54,18.52,36.36,16.86,50.61c-1.61,2-2.43,6.09-2.5,10.28h4.32c.06-3.45.77-6.83,2.15-8.72,2.66-17.33-5-33.49-16.8-45.75A18.89,18.89,0,0,1,2.53,4.7a2.15,2.15,0,0,1-.44-1.78c.23-1,1.3-1.46,1.82-.87s-.42,1.27-.45,1.6c0,.55.84,1,1.38.78A2.34,2.34,0,0,0,6.25,1.82C5.83.14,3.54-.38,2,.27-.17,1.21,0,3.81.81,5.36A8.2,8.2,0,0,0,1.65,6.63Z" style="fill-rule:evenodd;fill:url(#radial-gradient)"/><path d="M6.36,11.67c-.52-.81-.74-1.86.4-2.27-.88-1-1.79-2-2.73-3A18.89,18.89,0,0,1,2.53,4.7a2.15,2.15,0,0,1-.44-1.78c.23-1,1.31-1.46,1.82-.87s-.42,1.27-.45,1.6c0,.55.84,1,1.38.78A2.34,2.34,0,0,0,6.25,1.82C5.83.14,3.54-.38,2,.27-.17,1.21,0,3.81.81,5.36a8.2,8.2,0,0,0,.84,1.27c.29.38.65.73,1,1.1C13.3,19.54,18.52,36.36,16.86,50.61a8.44,8.44,0,0,0-1.35,2.6,6.12,6.12,0,0,1,3-.68,35.72,35.72,0,0,1-.22-6.26A55.49,55.49,0,0,0,8.77,15.15c-.95-1.47-1.91-2.69-2.41-3.48Z" style="fill-rule:evenodd;mix-blend-mode:multiply;fill:url(#radial-gradient-2)"/><path d="M20.19,47.73c-.16,2.19-.47,3.86.64,4.44C23.31,36,16.86,20.89,6.39,9a9.19,9.19,0,0,0,2.06,3.15C15.76,21,21.09,35.75,20.19,47.73Z" style="fill-rule:evenodd;mix-blend-mode:multiply;fill:url(#radial-gradient-3)"/><path d="M18.45,50.32C19.12,40.14,18,33,13.9,23.53A91.46,91.46,0,0,0,8,12.84a48.69,48.69,0,0,1,6.54,10.38,52.69,52.69,0,0,1,5.27,24.72c0,.89-.08,1.77-.12,2.7,0,.37,0,1.27-.32,1.19a1.31,1.31,0,0,1-1-1.51Z" style="fill:#9d2020;fill-rule:evenodd;opacity:0.5;mix-blend-mode:screen"/><path d="M1.65,116.16c.29-.38.65-.73,1-1.11C13.3,103.24,18.52,86.43,16.86,72.18c-1.61-2-2.43-6.09-2.5-10.29h4.32c.06,3.45.77,6.83,2.15,8.73C23.49,88,15.87,104.1,4,116.37a17.64,17.64,0,0,0-1.5,1.72,2.13,2.13,0,0,0-.44,1.77c.23,1,1.3,1.47,1.82.87s-.42-1.26-.45-1.59c0-.55.84-1,1.38-.79A2.35,2.35,0,0,1,6.25,121c-.42,1.68-2.71,2.19-4.23,1.54-2.19-.93-2-3.54-1.21-5.09A8.12,8.12,0,0,1,1.65,116.16Z" style="fill-rule:evenodd;fill:url(#radial-gradient-4)"/><path d="M6.36,111.11c-.52.81-.74,1.87.4,2.27-.88,1-1.79,2-2.73,3a17.64,17.64,0,0,0-1.5,1.72,2.13,2.13,0,0,0-.44,1.77c.23,1,1.31,1.47,1.82.87s-.42-1.26-.45-1.59c0-.55.84-1,1.38-.79A2.35,2.35,0,0,1,6.25,121c-.42,1.68-2.71,2.19-4.23,1.54-2.19-.93-2-3.54-1.21-5.09a8.12,8.12,0,0,1,.84-1.26c.29-.38.65-.73,1-1.11C13.3,103.24,18.52,86.43,16.86,72.18a8.68,8.68,0,0,1-1.35-2.6,6.13,6.13,0,0,0,3,.67,35.76,35.76,0,0,0-.22,6.26,55.44,55.44,0,0,1-9.47,31.12c-.95,1.47-1.91,2.7-2.41,3.48Z" style="fill-rule:evenodd;mix-blend-mode:multiply;fill:url(#radial-gradient-5)"/><path d="M20.19,75.05c-.16-2.18-.47-3.85.64-4.43,2.48,16.15-4,31.28-14.44,43.19a9.29,9.29,0,0,1,2.06-3.16c7.31-8.82,12.64-23.61,11.74-35.6Z" style="fill-rule:evenodd;mix-blend-mode:multiply;fill:url(#radial-gradient-6)"/><path d="M18.45,72.47c.67,10.18-.44,17.32-4.55,26.79A93.11,93.11,0,0,1,8,110a48.76,48.76,0,0,0,6.54-10.39,52.66,52.66,0,0,0,5.27-24.72c0-.88-.08-1.77-.12-2.7,0-.36,0-1.27-.32-1.18a1.31,1.31,0,0,0-1,1.51Z" style="fill:#9d2020;fill-rule:evenodd;opacity:0.5;mix-blend-mode:screen"/><path d="M4.68,10.14a11.19,11.19,0,0,0,3.48.93C6.85,9.47,5.47,7.91,4,6.42A18.89,18.89,0,0,1,2.53,4.7a2.15,2.15,0,0,1-.44-1.78c.23-1,1.31-1.46,1.82-.87s-.42,1.27-.45,1.6c0,.55.84,1,1.38.78A2.34,2.34,0,0,0,6.25,1.82C5.83.14,3.54-.38,2,.27-.17,1.21,0,3.81.81,5.36a8.2,8.2,0,0,0,.84,1.27c.29.38.65.73,1,1.1.7.79,1.38,1.59,2,2.41Z" style="fill-rule:evenodd;fill:url(#radial-gradient-7)"/><path d="M4.54,9.11A24.18,24.18,0,0,1,.9,4.5,3.79,3.79,0,0,1,1,1C-.08,2.14.17,4.1.81,5.36a8.2,8.2,0,0,0,.84,1.27c.29.38.65.73,1,1.1.7.79,1.38,1.59,2,2.41a10.84,10.84,0,0,0,2.15.72A5,5,0,0,1,4.54,9.11Z" style="fill-rule:evenodd;mix-blend-mode:multiply;fill:url(#radial-gradient-8)"/><path d="M2.09,2.92c.23-1,1.31-1.46,1.82-.87s-.42,1.27-.45,1.6a.78.78,0,0,0,.51.7c-.16-.16-.35-.34-.26-.6.16-.49.84-.69.88-1.3a1.23,1.23,0,0,0-1.3-1.2A1.64,1.64,0,0,0,1.64,2.67,2.69,2.69,0,0,0,2,4.54c.7,1.22,2.85,3.05,3.88,4.19A14.37,14.37,0,0,1,7.72,11l.44.05C6.85,9.47,5.47,7.91,4,6.42A18.89,18.89,0,0,1,2.53,4.7a2.15,2.15,0,0,1-.44-1.78Z" style="fill-rule:evenodd;mix-blend-mode:multiply;fill:url(#radial-gradient-9)"/><path d="M5.64,1.1a2.26,2.26,0,0,1-1,3.38.65.65,0,0,0,.2-.05A2.34,2.34,0,0,0,6.25,1.82C5.83.14,3.54-.38,2,.27l-.3.15a3.38,3.38,0,0,1,3.92.68Z" style="fill-rule:evenodd;mix-blend-mode:multiply;fill:url(#radial-gradient-10)"/><path d="M5.92,9.13c1.88,1.84.38,1.58-.48.71A36.89,36.89,0,0,1,2.17,6.05,4,4,0,0,1,1.28,3,4.5,4.5,0,0,0,2.81,6c1,1,2.08,2.17,3.11,3.16Z" style="fill-rule:evenodd;mix-blend-mode:screen;fill:url(#radial-gradient-11)"/><path d="M5,3.89A1.94,1.94,0,0,0,5.93,2C5.68.24,2.78-.51,1.55,1.19,2.63,0,5.31.42,5.06,2.05a1.59,1.59,0,0,1-.61,1.11c-.71.54.07,1,.56.73Z" style="fill-rule:evenodd;mix-blend-mode:screen;fill:url(#radial-gradient-12)"/><path d="M4.68,112.64a11.47,11.47,0,0,1,3.48-.93q-2,2.42-4.13,4.66a17.64,17.64,0,0,0-1.5,1.72,2.13,2.13,0,0,0-.44,1.77c.23,1,1.31,1.47,1.82.87s-.42-1.26-.45-1.59c0-.55.84-1,1.38-.79A2.35,2.35,0,0,1,6.25,121c-.42,1.68-2.71,2.19-4.23,1.54-2.19-.93-2-3.54-1.21-5.09a8.12,8.12,0,0,1,.84-1.26c.29-.38.65-.73,1-1.11.7-.78,1.38-1.58,2-2.41Z" style="fill-rule:evenodd;fill:url(#radial-gradient-13)"/><path d="M4.54,113.68A23.87,23.87,0,0,0,.9,118.29,3.77,3.77,0,0,0,1,121.83c-1.11-1.19-.86-3.15-.22-4.41a8.12,8.12,0,0,1,.84-1.26c.29-.38.65-.73,1-1.11.7-.78,1.38-1.58,2-2.41a10.23,10.23,0,0,1,2.15-.71,4.88,4.88,0,0,0-2.29,1.75Z" style="fill-rule:evenodd;mix-blend-mode:multiply;fill:url(#radial-gradient-14)"/><path d="M2.09,119.86c.23,1,1.31,1.47,1.82.87s-.42-1.26-.45-1.59a.78.78,0,0,1,.51-.7c-.16.15-.35.34-.26.59.16.49.84.69.88,1.3a1.22,1.22,0,0,1-1.3,1.2,1.63,1.63,0,0,1-1.65-1.42A2.66,2.66,0,0,1,2,118.25c.7-1.22,2.85-3,3.88-4.19a14.35,14.35,0,0,0,1.82-2.3l.44-.05q-2,2.42-4.13,4.66a17.64,17.64,0,0,0-1.5,1.72,2.13,2.13,0,0,0-.44,1.77Z" style="fill-rule:evenodd;mix-blend-mode:multiply;fill:url(#radial-gradient-15)"/><path d="M5.64,121.69a2.27,2.27,0,0,0-1-3.39l.2,0A2.35,2.35,0,0,1,6.25,121c-.42,1.68-2.71,2.19-4.23,1.54a2.09,2.09,0,0,1-.3-.14,3.4,3.4,0,0,0,3.92-.68Z" style="fill-rule:evenodd;mix-blend-mode:multiply;fill:url(#radial-gradient-16)"/><path d="M5.92,113.65c1.88-1.83.38-1.57-.48-.7a34.88,34.88,0,0,0-3.27,3.79,4,4,0,0,0-.89,3.09,4.48,4.48,0,0,1,1.53-3c1-1.06,2.08-2.17,3.11-3.17Z" style="fill-rule:evenodd;mix-blend-mode:screen;fill:url(#radial-gradient-17)"/><path d="M5,118.89a2,2,0,0,1,.92,1.89c-.25,1.76-3.15,2.52-4.38.81,1.08,1.18,3.76.77,3.51-.86a1.61,1.61,0,0,0-.61-1.11c-.71-.53.07-1,.56-.73Z" style="fill-rule:evenodd;mix-blend-mode:screen;fill:url(#radial-gradient-18)"/><path d="M0,61.39V4.12a.2.2,0,0,1,.16-.2,6,6,0,0,0,2-1.25c.14-.2.4.36-.52.94l-.25.16a4.33,4.33,0,0,0,.66-.2c.16,0,.28.27.1.41a2.6,2.6,0,0,1-.8.22,5.38,5.38,0,0,1-.94.12V118.46a8.34,8.34,0,0,1,.94.12,2.91,2.91,0,0,1,.8.22c.18.14.06.43-.1.41a5.86,5.86,0,0,0-.66-.2l.25.16c.92.59.66,1.15.52,1a5.73,5.73,0,0,0-2-1.25.23.23,0,0,1-.16-.21V61.39Z" style="fill:url(#New_Gradient_Swatch_93)"/><path d="M17.29,72.18a1.14,1.14,0,0,1-1.16-.49c-.29-.44-.13-.64,0-.66.07.16.3.33.79.29a4.28,4.28,0,0,0,.74-.16,5.45,5.45,0,0,0,.76-.3,5.9,5.9,0,0,0,.7-.38,3.9,3.9,0,0,0,.59-.43c.35-.31.35-.55.29-.68s.33,0,.5.35a.82.82,0,0,1-.26,1,6.51,6.51,0,0,1-.61.49,5.65,5.65,0,0,1-.72.42,5.94,5.94,0,0,1-.78.34,4.07,4.07,0,0,1-.8.2Z" style="fill:url(#New_Gradient_Swatch_198)"/><path d="M16.84,72c-.43-.26-.54-.58-.4-.72a.53.53,0,0,1-.34-.25c-.1,0-.26.2,0,.65a1.12,1.12,0,0,0,1.17.47,1,1,0,0,1-.48-.15Z" style="fill-rule:evenodd;opacity:0.5;mix-blend-mode:multiply;fill:url(#linear-gradient)"/><path d="M19.72,70c.15,0,.31,0,.39.29s-.16.61-.37.79c.49-.35,1-.7.73-1.37-.17-.4-.42-.4-.5-.35s.06.35-.25.64Z" style="fill-rule:evenodd;opacity:0.5;mix-blend-mode:multiply;fill:url(#New_Gradient_Swatch_200)"/><path d="M16.61,71.59c.13.31.69.25.84.22a3.62,3.62,0,0,0,1.17-.53,1.81,1.81,0,0,0,.72-.79,5.68,5.68,0,0,1-1,.57,6.13,6.13,0,0,1-1.21.4c-.29.05-.57,0-.51.13Z" style="fill-rule:evenodd;opacity:0.5;mix-blend-mode:screen;fill:url(#linear-gradient-2)"/><path d="M16.75,71.38a1.06,1.06,0,0,1-1.13-.57c-.25-.48-.08-.69,0-.7.07.16.28.36.77.34a4.32,4.32,0,0,0,.76-.13A5.71,5.71,0,0,0,18,70a6.18,6.18,0,0,0,.73-.36,4.46,4.46,0,0,0,.64-.43c.37-.3.39-.55.34-.68s.33,0,.48.38a.89.89,0,0,1-.34,1,5.47,5.47,0,0,1-.65.48c-.24.15-.5.29-.76.42a5.77,5.77,0,0,1-.82.31,4,4,0,0,1-.82.18Z" style="fill:url(#New_Gradient_Swatch_198-2)"/><path d="M16.27,71.18c-.41-.3-.46-.65-.31-.79a.5.5,0,0,1-.33-.28c-.09,0-.26.22,0,.7a1.06,1.06,0,0,0,1.13.57h0a1,1,0,0,1-.48-.2Z" style="fill-rule:evenodd;opacity:0.5;mix-blend-mode:multiply;fill:url(#linear-gradient-3)"/><path d="M19.36,69.21c.16,0,.31.07.37.32a.84.84,0,0,1-.42.83A3.7,3.7,0,0,0,19.8,70a.89.89,0,0,0,.34-1c-.15-.42-.4-.44-.48-.38s0,.35-.3.64Z" style="fill-rule:evenodd;opacity:0.5;mix-blend-mode:multiply;fill:url(#New_Gradient_Swatch_200-2)"/><path d="M16.09,70.7c.09.34.66.3.81.27a3.53,3.53,0,0,0,1.23-.49,2.06,2.06,0,0,0,.81-.8,6.29,6.29,0,0,1-1.07.55,5.21,5.21,0,0,1-1.26.35c-.29,0-.56,0-.52.12Z" style="fill-rule:evenodd;opacity:0.5;mix-blend-mode:screen;fill:url(#linear-gradient-4)"/><path d="M16.26,70.48a1.09,1.09,0,0,1-1.12-.64c-.19-.52,0-.72.08-.73.06.17.25.39.74.39a4.39,4.39,0,0,0,.78-.1,6.41,6.41,0,0,0,.82-.25,6,6,0,0,0,.77-.35,4.77,4.77,0,0,0,.67-.41c.4-.3.44-.55.39-.7s.34,0,.46.42a.93.93,0,0,1-.41,1.07,4.92,4.92,0,0,1-.69.47,6.63,6.63,0,0,1-.8.4c-.28.11-.57.21-.85.29a4.33,4.33,0,0,1-.84.14Z" style="fill:url(#New_Gradient_Swatch_198-3)"/><path d="M15.8,70.24c-.41-.32-.44-.68-.27-.82a.58.58,0,0,1-.31-.31c-.09,0-.27.21-.08.73a1.09,1.09,0,0,0,1.12.64h0a1.08,1.08,0,0,1-.46-.24Z" style="fill-rule:evenodd;opacity:0.5;mix-blend-mode:multiply;fill:url(#linear-gradient-5)"/><path d="M19.05,68.35c.16,0,.31.08.36.35a.91.91,0,0,1-.49.84,4,4,0,0,0,.52-.36.93.93,0,0,0,.41-1.07c-.12-.43-.37-.46-.46-.42s0,.38-.34.66Z" style="fill-rule:evenodd;opacity:0.5;mix-blend-mode:multiply;fill:url(#New_Gradient_Swatch_200-3)"/><path d="M15.62,69.74c.08.36.68.34.84.32a3.66,3.66,0,0,0,1.27-.45,2.34,2.34,0,0,0,.87-.79,6.92,6.92,0,0,1-1.13.52,5.57,5.57,0,0,1-1.31.31c-.3,0-.57-.06-.54.09Z" style="fill-rule:evenodd;opacity:0.5;mix-blend-mode:screen;fill:url(#linear-gradient-6)"/><path d="M15.82,69.53a1.05,1.05,0,0,1-1.07-.73c-.18-.54,0-.74.12-.74,0,.17.22.41.73.43a4.56,4.56,0,0,0,.8-.07,6.5,6.5,0,0,0,.84-.22,7,7,0,0,0,.8-.32,5.8,5.8,0,0,0,.7-.39c.41-.29.46-.55.43-.7s.35,0,.45.45a1,1,0,0,1-.49,1.08,5.32,5.32,0,0,1-.73.46,7.91,7.91,0,0,1-.84.37,7.39,7.39,0,0,1-.88.27,4.5,4.5,0,0,1-.86.11Z" style="fill:url(#New_Gradient_Swatch_198-4)"/><path d="M15.38,69.26c-.37-.36-.4-.73-.23-.87a.51.51,0,0,1-.28-.33c-.1,0-.3.2-.12.74a1.05,1.05,0,0,0,1.07.73h0a1.07,1.07,0,0,1-.44-.27Z" style="fill-rule:evenodd;opacity:0.5;mix-blend-mode:multiply;fill:url(#linear-gradient-7)"/><path d="M18.79,67.45c.16,0,.31.1.34.37a1,1,0,0,1-.55.86,5.81,5.81,0,0,0,.55-.36,1,1,0,0,0,.49-1.08c-.1-.45-.36-.49-.45-.45s0,.39-.38.66Z" style="fill-rule:evenodd;opacity:0.5;mix-blend-mode:multiply;fill:url(#New_Gradient_Swatch_200-4)"/><path d="M15.25,68.73c.06.37.65.38.81.37a3.65,3.65,0,0,0,1.31-.42,2.34,2.34,0,0,0,.94-.77,8.39,8.39,0,0,1-1.17.49,5.47,5.47,0,0,1-1.34.25c-.3,0-.57-.09-.55.08Z" style="fill-rule:evenodd;opacity:0.5;mix-blend-mode:screen;fill:url(#linear-gradient-8)"/><path d="M15.45,68.51a1,1,0,0,1-1-.8c-.15-.55.06-.75.15-.75.05.18.22.43.72.48a4.53,4.53,0,0,0,.81,0,6.94,6.94,0,0,0,.86-.18,6.34,6.34,0,0,0,.83-.3,4.42,4.42,0,0,0,.72-.37c.43-.27.49-.53.47-.68s.34,0,.43.47a1,1,0,0,1-.55,1.08,6.89,6.89,0,0,1-.76.44,8.31,8.31,0,0,1-.87.35,5.78,5.78,0,0,1-.91.23,4.47,4.47,0,0,1-.88.07Z" style="fill:url(#New_Gradient_Swatch_198-5)"/><path d="M15,68.22c-.34-.39-.33-.78-.15-.91a.57.57,0,0,1-.28-.35c-.09,0-.3.2-.15.75a1,1,0,0,0,1,.8h0a1,1,0,0,1-.44-.29Z" style="fill-rule:evenodd;opacity:0.5;mix-blend-mode:multiply;fill:url(#linear-gradient-9)"/><path d="M18.58,66.52c.16,0,.31.11.32.39a1,1,0,0,1-.6.85,6.13,6.13,0,0,0,.57-.34,1,1,0,0,0,.55-1.08c-.09-.46-.34-.52-.43-.47s0,.39-.41.65Z" style="fill-rule:evenodd;opacity:0.5;mix-blend-mode:multiply;fill:url(#New_Gradient_Swatch_200-5)"/><path d="M14.93,67.66c0,.39.62.43.77.43a3.84,3.84,0,0,0,1.36-.37,2.4,2.4,0,0,0,1-.76,6,6,0,0,1-1.21.45,5.2,5.2,0,0,1-1.36.2c-.31,0-.57-.11-.56,0Z" style="fill-rule:evenodd;opacity:0.5;mix-blend-mode:screen;fill:url(#linear-gradient-10)"/><path d="M15.15,67.45a1,1,0,0,1-1-.86c-.1-.57.12-.76.22-.76,0,.19.18.45.68.51a3.63,3.63,0,0,0,.81,0,6.74,6.74,0,0,0,.88-.15,7.63,7.63,0,0,0,.85-.26,4.85,4.85,0,0,0,.76-.35c.45-.26.52-.52.49-.67s.35,0,.42.49a1,1,0,0,1-.6,1.08,5.45,5.45,0,0,1-.8.41,5.22,5.22,0,0,1-.89.32,6.18,6.18,0,0,1-.93.2,4.49,4.49,0,0,1-.89,0Z" style="fill:url(#New_Gradient_Swatch_198-6)"/><path d="M14.73,67.13c-.35-.41-.31-.8-.11-.93a.53.53,0,0,1-.25-.37c-.1,0-.32.19-.22.76a1,1,0,0,0,1,.86h0a1,1,0,0,1-.42-.32Z" style="fill-rule:evenodd;opacity:0.5;mix-blend-mode:multiply;fill:url(#linear-gradient-11)"/><path d="M18.4,65.56c.17,0,.31.12.3.42a1,1,0,0,1-.64.83,4.23,4.23,0,0,0,.6-.32,1,1,0,0,0,.6-1.08c-.07-.47-.32-.53-.42-.49s0,.39-.44.64Z" style="fill-rule:evenodd;opacity:0.5;mix-blend-mode:multiply;fill:url(#New_Gradient_Swatch_200-6)"/><path d="M14.66,66.56c0,.4.61.47.78.47a3.69,3.69,0,0,0,1.38-.32,2.4,2.4,0,0,0,1-.72,7.62,7.62,0,0,1-1.25.4,5.84,5.84,0,0,1-1.38.15c-.31,0-.57-.15-.57,0Z" style="fill-rule:evenodd;opacity:0.5;mix-blend-mode:screen;fill:url(#linear-gradient-12)"/><path d="M14.9,66.36a1.06,1.06,0,0,1-1-.92c-.08-.59.16-.77.26-.76,0,.19.15.46.66.55a4.33,4.33,0,0,0,.82,0,7,7,0,0,0,.89-.12,6.52,6.52,0,0,0,.87-.22,5,5,0,0,0,.77-.32c.47-.24.55-.5.54-.66s.35,0,.39.52a1.07,1.07,0,0,1-.65,1.07,5.78,5.78,0,0,1-.83.38,7,7,0,0,1-.92.28,6.28,6.28,0,0,1-.95.16,4.41,4.41,0,0,1-.89,0Z" style="fill:url(#New_Gradient_Swatch_198-7)"/><path d="M14.5,66c-.32-.44-.28-.83-.07-.94a.51.51,0,0,1-.23-.39c-.1,0-.34.17-.26.76a1.06,1.06,0,0,0,1,.92h0a1.06,1.06,0,0,1-.4-.35Z" style="fill-rule:evenodd;opacity:0.5;mix-blend-mode:multiply;fill:url(#linear-gradient-13)"/><path d="M18.27,64.58c.16,0,.3.14.29.43a1.06,1.06,0,0,1-.69.83c.22-.09.43-.2.62-.3a1.07,1.07,0,0,0,.65-1.07c0-.48-.3-.55-.39-.52s-.06.39-.48.63Z" style="fill-rule:evenodd;opacity:0.5;mix-blend-mode:multiply;fill:url(#New_Gradient_Swatch_200-7)"/><path d="M14.46,65.43c0,.4.59.5.76.51a3.81,3.81,0,0,0,1.41-.26A2.4,2.4,0,0,0,17.7,65a6.53,6.53,0,0,1-1.27.35,5.88,5.88,0,0,1-1.39.09c-.32,0-.57-.17-.58,0Z" style="fill-rule:evenodd;opacity:0.5;mix-blend-mode:screen;fill:url(#linear-gradient-14)"/><path d="M14.7,65.23a1,1,0,0,1-.9-1c-.06-.59.19-.77.28-.75,0,.19.15.46.65.58a3.58,3.58,0,0,0,.82.07,5.46,5.46,0,0,0,.9-.07,8.06,8.06,0,0,0,.88-.19,5.63,5.63,0,0,0,.79-.29c.48-.22.57-.48.57-.64s.35.06.37.55a1.07,1.07,0,0,1-.7,1,6.56,6.56,0,0,1-.85.35,9.25,9.25,0,0,1-.94.25,8.12,8.12,0,0,1-1,.12,4.51,4.51,0,0,1-.91,0Z" style="fill:url(#New_Gradient_Swatch_198-8)"/><path d="M14.32,64.87c-.29-.46-.22-.85,0-1a.58.58,0,0,1-.23-.4c-.09,0-.34.16-.28.75a1,1,0,0,0,.9,1h0a.93.93,0,0,1-.39-.36Z" style="fill-rule:evenodd;opacity:0.5;mix-blend-mode:multiply;fill:url(#linear-gradient-15)"/><path d="M18.18,63.58c.16,0,.3.16.27.46s-.43.66-.73.8c.23-.09.44-.18.64-.28a1.07,1.07,0,0,0,.7-1c0-.49-.27-.58-.37-.55s-.08.4-.51.61Z" style="fill-rule:evenodd;opacity:0.5;mix-blend-mode:multiply;fill:url(#New_Gradient_Swatch_200-8)"/><path d="M14.32,64.28c0,.4.56.53.72.54a3.67,3.67,0,0,0,1.44-.2A2.51,2.51,0,0,0,17.59,64a7,7,0,0,1-1.29.29,5.05,5.05,0,0,1-1.4,0c-.32,0-.56-.2-.58,0Z" style="fill-rule:evenodd;opacity:0.5;mix-blend-mode:screen;fill:url(#linear-gradient-16)"/><path d="M14.58,64.09a1,1,0,0,1-.87-1c0-.6.23-.76.32-.75,0,.2.12.48.62.62a4.16,4.16,0,0,0,.82.11,6.85,6.85,0,0,0,.9,0,6.5,6.5,0,0,0,.9-.15,5.78,5.78,0,0,0,.8-.25c.48-.21.59-.46.59-.62s.35.07.36.56a1.07,1.07,0,0,1-.75,1,6.83,6.83,0,0,1-.87.31,6,6,0,0,1-.95.21,6.35,6.35,0,0,1-1,.08,5.11,5.11,0,0,1-.9-.08Z" style="fill:url(#New_Gradient_Swatch_198-9)"/><path d="M14.2,63.7c-.27-.47-.18-.86,0-1a.56.56,0,0,1-.21-.41c-.09,0-.34.15-.32.75a1,1,0,0,0,.87,1h0a1,1,0,0,1-.38-.39Z" style="fill-rule:evenodd;opacity:0.5;mix-blend-mode:multiply;fill:url(#linear-gradient-17)"/><path d="M18.13,62.58c.17,0,.3.17.26.46-.06.45-.47.65-.77.78a6.26,6.26,0,0,0,.65-.25,1.07,1.07,0,0,0,.75-1c0-.49-.26-.59-.36-.56s-.1.39-.53.59Z" style="fill-rule:evenodd;opacity:0.5;mix-blend-mode:multiply;fill:url(#New_Gradient_Swatch_200-9)"/><path d="M14.23,63.11c-.06.4.54.56.7.58a3.85,3.85,0,0,0,1.45-.14,2.6,2.6,0,0,0,1.15-.6,7.38,7.38,0,0,1-1.32.24,6.06,6.06,0,0,1-1.41,0c-.31,0-.55-.23-.57,0Z" style="fill-rule:evenodd;opacity:0.5;mix-blend-mode:screen;fill:url(#linear-gradient-18)"/><path d="M14.49,62.93a1,1,0,0,1-.82-1.06c0-.6.26-.75.36-.73,0,.19.09.48.58.64a4.92,4.92,0,0,0,.83.15,6.76,6.76,0,0,0,.9,0,6.5,6.5,0,0,0,.9-.12,6.13,6.13,0,0,0,.82-.21c.5-.19.61-.44.61-.6s.35.09.34.58a1.06,1.06,0,0,1-.79,1,7,7,0,0,1-.88.28,9.8,9.8,0,0,1-1,.17,6.46,6.46,0,0,1-1,0,4.34,4.34,0,0,1-.9-.12Z" style="fill:url(#New_Gradient_Swatch_198-10)"/><path d="M14.14,62.52c-.25-.48-.16-.87.07-1a.52.52,0,0,1-.18-.42c-.1,0-.36.13-.36.73a1,1,0,0,0,.82,1.06h0a1,1,0,0,1-.36-.41Z" style="fill-rule:evenodd;opacity:0.5;mix-blend-mode:multiply;fill:url(#linear-gradient-19)"/><path d="M18.12,61.57c.17,0,.29.18.24.48a1.07,1.07,0,0,1-.8.74,5.67,5.67,0,0,0,.66-.22,1.06,1.06,0,0,0,.79-1c0-.49-.24-.6-.34-.58s-.11.39-.55.57Z" style="fill-rule:evenodd;opacity:0.5;mix-blend-mode:multiply;fill:url(#New_Gradient_Swatch_200-10)"/><path d="M14.19,61.93c-.07.41.52.58.68.61a3.83,3.83,0,0,0,1.46-.07,2.61,2.61,0,0,0,1.17-.56,6.77,6.77,0,0,1-1.32.19A6.17,6.17,0,0,1,14.76,62c-.31-.07-.55-.25-.57-.08Z" style="fill-rule:evenodd;opacity:0.5;mix-blend-mode:screen;fill:url(#linear-gradient-20)"/><path d="M14.46,61.76a1,1,0,0,1-.77-1.09c0-.6.28-.74.37-.71,0,.19.09.48.58.66a3.32,3.32,0,0,0,.81.18,5.45,5.45,0,0,0,.91,0,6.69,6.69,0,0,0,.9-.07,4.82,4.82,0,0,0,.83-.19c.5-.15.63-.4.64-.56s.34.1.31.59a1.07,1.07,0,0,1-.82,1,6.92,6.92,0,0,1-1.88.36,8,8,0,0,1-1,0,4.11,4.11,0,0,1-.9-.17Z" style="fill:url(#New_Gradient_Swatch_198-11)"/><path d="M14.12,61.34c-.22-.49-.11-.88.12-1a.52.52,0,0,1-.18-.42c-.09,0-.36.11-.37.71a1,1,0,0,0,.77,1.09h0a.93.93,0,0,1-.34-.42Z" style="fill-rule:evenodd;opacity:0.5;mix-blend-mode:multiply;fill:url(#linear-gradient-21)"/><path d="M18.15,60.56c.17,0,.28.2.22.49a1.05,1.05,0,0,1-.83.71,6.75,6.75,0,0,0,.68-.19,1.07,1.07,0,0,0,.82-1c0-.49-.21-.61-.31-.59s-.13.38-.58.54Z" style="fill-rule:evenodd;opacity:0.5;mix-blend-mode:multiply;fill:url(#New_Gradient_Swatch_200-11)"/><path d="M14.2,60.76c-.08.39.49.6.66.63a3.59,3.59,0,0,0,1.46,0,2.51,2.51,0,0,0,1.2-.5,7.08,7.08,0,0,1-1.34.13,5.65,5.65,0,0,1-1.41-.16c-.3-.07-.53-.27-.57-.09Z" style="fill-rule:evenodd;opacity:0.5;mix-blend-mode:screen;fill:url(#linear-gradient-22)"/><path d="M14.48,60.6a1,1,0,0,1-.73-1.12c.05-.6.32-.72.41-.69,0,.19.06.48.54.68a4.56,4.56,0,0,0,.81.21,5.38,5.38,0,0,0,.9.08,6.81,6.81,0,0,0,.91,0,4.92,4.92,0,0,0,.83-.15c.52-.14.65-.37.67-.53.1,0,.34.12.28.6a1,1,0,0,1-.85.91,6.07,6.07,0,0,1-.91.21c-.32,0-.65.07-1,.08a6.31,6.31,0,0,1-1-.05,4.94,4.94,0,0,1-.9-.2Z" style="fill:url(#New_Gradient_Swatch_198-12)"/><path d="M14.16,60.16c-.21-.49-.07-.87.16-.94a.58.58,0,0,1-.16-.43c-.09,0-.36.09-.41.69a1,1,0,0,0,.73,1.12h0a1,1,0,0,1-.32-.44Z" style="fill-rule:evenodd;opacity:0.5;mix-blend-mode:multiply;fill:url(#linear-gradient-23)"/><path d="M18.22,59.56c.16,0,.27.21.2.49a1.06,1.06,0,0,1-.86.68,5,5,0,0,0,.69-.17,1,1,0,0,0,.85-.91c.06-.48-.18-.61-.28-.6s-.14.37-.6.51Z" style="fill-rule:evenodd;opacity:0.5;mix-blend-mode:multiply;fill:url(#New_Gradient_Swatch_200-12)"/><path d="M14.26,59.58c-.11.4.47.62.63.67a3.94,3.94,0,0,0,1.46,0,2.44,2.44,0,0,0,1.22-.45,7.18,7.18,0,0,1-1.33.07,6.08,6.08,0,0,1-1.41-.21c-.31-.09-.52-.3-.57-.13Z" style="fill-rule:evenodd;opacity:0.5;mix-blend-mode:screen;fill:url(#linear-gradient-24)"/><path d="M14.55,59.44a1,1,0,0,1-.7-1.14c.08-.59.36-.71.45-.67s0,.48.51.7a4.19,4.19,0,0,0,.8.24,6.5,6.5,0,0,0,.9.13c.31,0,.62,0,.91,0a6.6,6.6,0,0,0,.84-.11c.51-.12.66-.34.68-.5.11,0,.34.13.27.61a1,1,0,0,1-.9.87,6.15,6.15,0,0,1-.91.16,8.11,8.11,0,0,1-1,0,7.93,7.93,0,0,1-1-.09,5.65,5.65,0,0,1-.88-.24Z" style="fill:url(#New_Gradient_Swatch_198-13)"/><path d="M14.25,59c-.2-.51-.05-.87.18-.93a.56.56,0,0,1-.13-.43c-.09,0-.37.08-.45.66a1.05,1.05,0,0,0,.7,1.15h0a1,1,0,0,1-.3-.45Z" style="fill-rule:evenodd;opacity:0.5;mix-blend-mode:multiply;fill:url(#linear-gradient-25)"/><path d="M18.33,58.57c.16,0,.27.22.18.5a1,1,0,0,1-.89.63c.24,0,.47-.08.69-.13a1,1,0,0,0,.9-.87c.07-.48-.16-.61-.27-.61s-.15.37-.61.48Z" style="fill-rule:evenodd;opacity:0.5;mix-blend-mode:multiply;fill:url(#New_Gradient_Swatch_200-13)"/><path d="M14.36,58.42c-.12.39.46.64.61.69a4,4,0,0,0,1.47.11,2.55,2.55,0,0,0,1.23-.39,7.45,7.45,0,0,1-1.34,0,5.59,5.59,0,0,1-1.4-.27c-.31-.1-.52-.32-.57-.15Z" style="fill-rule:evenodd;opacity:0.5;mix-blend-mode:screen;fill:url(#linear-gradient-26)"/><path d="M14.66,58.29A1,1,0,0,1,14,57.13c.09-.58.38-.68.47-.64s0,.48.48.72a4.06,4.06,0,0,0,.79.27,5.29,5.29,0,0,0,.9.16,5.55,5.55,0,0,0,.91,0,4.46,4.46,0,0,0,.84-.07c.52-.09.67-.3.69-.46.11,0,.34.14.26.61a1,1,0,0,1-.94.82,6.4,6.4,0,0,1-.92.12,8.17,8.17,0,0,1-1,0,8,8,0,0,1-1-.13,4.43,4.43,0,0,1-.87-.28Z" style="fill:url(#New_Gradient_Swatch_198-14)"/><path d="M14.38,57.84c-.17-.51,0-.87.22-.92a.47.47,0,0,1-.11-.43c-.09,0-.38.06-.47.64a1,1,0,0,0,.64,1.16h0a.94.94,0,0,1-.28-.45Z" style="fill-rule:evenodd;opacity:0.5;mix-blend-mode:multiply;fill:url(#linear-gradient-27)"/><path d="M18.48,57.6c.16.06.26.23.16.5a1,1,0,0,1-.91.58,5,5,0,0,0,.69-.1,1,1,0,0,0,.94-.82c.08-.47-.15-.61-.26-.61s-.16.35-.62.45Z" style="fill-rule:evenodd;opacity:0.5;mix-blend-mode:multiply;fill:url(#New_Gradient_Swatch_200-14)"/><path d="M14.52,57.28c-.13.37.42.65.58.7a4.07,4.07,0,0,0,1.46.18,2.73,2.73,0,0,0,1.25-.33,7.65,7.65,0,0,1-1.34,0,6.11,6.11,0,0,1-1.39-.33c-.3-.12-.5-.34-.56-.17Z" style="fill-rule:evenodd;opacity:0.5;mix-blend-mode:screen;fill:url(#linear-gradient-28)"/><path d="M14.82,57.16A1,1,0,0,1,14.23,56c.11-.56.4-.65.48-.61s0,.47.47.73a4.57,4.57,0,0,0,.77.31,8.24,8.24,0,0,0,.89.19c.3,0,.61.07.91.08a5.74,5.74,0,0,0,.84,0c.53-.07.69-.27.72-.42s.33.15.22.6a1,1,0,0,1-1,.77,5.46,5.46,0,0,1-.93.08c-.32,0-.65,0-1,0a7.56,7.56,0,0,1-1-.18,3.72,3.72,0,0,1-.87-.31Z" style="fill:url(#New_Gradient_Swatch_198-15)"/><path d="M14.55,56.7c-.15-.5,0-.85.27-.89a.55.55,0,0,1-.11-.43c-.08,0-.37,0-.48.61a1,1,0,0,0,.59,1.17h0a.92.92,0,0,1-.27-.46Z" style="fill-rule:evenodd;opacity:0.5;mix-blend-mode:multiply;fill:url(#linear-gradient-29)"/><path d="M18.66,56.65c.16.06.25.23.14.5a1,1,0,0,1-.93.53,5.19,5.19,0,0,0,.7-.07,1,1,0,0,0,1-.77c.11-.45-.11-.6-.22-.6s-.18.34-.65.41Z" style="fill-rule:evenodd;opacity:0.5;mix-blend-mode:multiply;fill:url(#New_Gradient_Swatch_200-15)"/><path d="M14.72,56.16c-.15.36.39.65.55.71a3.78,3.78,0,0,0,1.45.24A2.53,2.53,0,0,0,18,56.84a8,8,0,0,1-1.34-.1,6.67,6.67,0,0,1-1.37-.39c-.29-.13-.48-.35-.55-.19Z" style="fill-rule:evenodd;opacity:0.5;mix-blend-mode:screen;fill:url(#linear-gradient-30)"/><path d="M15,56.06a1,1,0,0,1-.55-1.18c.15-.54.44-.61.52-.57s0,.46.43.73a4.45,4.45,0,0,0,.76.33,6.31,6.31,0,0,0,.88.23c.3.06.6.1.9.13a5.88,5.88,0,0,0,.84,0c.52,0,.7-.24.74-.38s.31.17.19.6-.3.64-1,.71a5.59,5.59,0,0,1-.93,0,8.3,8.3,0,0,1-1-.09,7.08,7.08,0,0,1-1-.21,4.71,4.71,0,0,1-.85-.34Z" style="fill:url(#New_Gradient_Swatch_198-16)"/><path d="M14.78,55.59c-.13-.5.07-.83.3-.85a.52.52,0,0,1-.08-.43c-.08,0-.37,0-.52.57A1,1,0,0,0,15,56.06h0a.91.91,0,0,1-.25-.47Z" style="fill-rule:evenodd;opacity:0.5;mix-blend-mode:multiply;fill:url(#linear-gradient-31)"/><path d="M18.88,55.72c.15.07.24.24.12.5a1,1,0,0,1-.95.48,5.27,5.27,0,0,0,.7,0c.69-.07.9-.4,1-.71s-.09-.59-.19-.6-.2.32-.67.37Z" style="fill-rule:evenodd;opacity:0.5;mix-blend-mode:multiply;fill:url(#New_Gradient_Swatch_200-16)"/><path d="M15,55.07c-.17.34.36.66.52.72a3.74,3.74,0,0,0,1.44.3,2.53,2.53,0,0,0,1.27-.21,8,8,0,0,1-1.33-.16,6.36,6.36,0,0,1-1.36-.44c-.29-.14-.47-.36-.54-.21Z" style="fill-rule:evenodd;opacity:0.5;mix-blend-mode:screen;fill:url(#linear-gradient-32)"/><path d="M15.28,55a1,1,0,0,1-.5-1.17c.19-.52.48-.57.57-.53-.06.16,0,.44.37.72a3.91,3.91,0,0,0,.74.36,6.41,6.41,0,0,0,.88.27,8.91,8.91,0,0,0,.9.16,6.12,6.12,0,0,0,.84,0c.52,0,.69-.2.73-.34s.31.18.18.6a1,1,0,0,1-1,.65,7.06,7.06,0,0,1-.92,0c-.33,0-.66-.07-1-.13a9.63,9.63,0,0,1-1-.25,4.87,4.87,0,0,1-.83-.38Z" style="fill:url(#New_Gradient_Swatch_198-17)"/><path d="M15.05,54.52c-.11-.5.11-.81.35-.83a.45.45,0,0,1-.05-.41c-.09,0-.38,0-.57.53a1,1,0,0,0,.5,1.17h0a1.09,1.09,0,0,1-.23-.47Z" style="fill-rule:evenodd;opacity:0.5;mix-blend-mode:multiply;fill:url(#linear-gradient-33)"/><path d="M19.14,54.83c.15.07.23.24.1.49a1,1,0,0,1-1,.43,5.4,5.4,0,0,0,.7,0,1,1,0,0,0,1-.65c.13-.42-.07-.59-.18-.6s-.2.31-.67.34Z" style="fill-rule:evenodd;opacity:0.5;mix-blend-mode:multiply;fill:url(#New_Gradient_Swatch_200-17)"/><path d="M15.26,54c-.18.33.34.66.49.74a4,4,0,0,0,1.42.35A2.62,2.62,0,0,0,18.45,55a7.42,7.42,0,0,1-1.32-.22,6,6,0,0,1-1.34-.49c-.28-.14-.45-.37-.53-.23Z" style="fill-rule:evenodd;opacity:0.5;mix-blend-mode:screen;fill:url(#linear-gradient-34)"/><path d="M15.58,53.94a.92.92,0,0,1-.43-1.16c.22-.49.52-.53.6-.48-.07.16-.08.42.32.71a5,5,0,0,0,.73.39c.27.11.56.21.85.3s.6.14.89.19.57.07.83.08c.53,0,.71-.16.76-.3.1,0,.3.18.14.59a1,1,0,0,1-1,.59,5.86,5.86,0,0,1-.92-.05,6.94,6.94,0,0,1-1-.17,6,6,0,0,1-.94-.29,4.37,4.37,0,0,1-.81-.4Z" style="fill:url(#New_Gradient_Swatch_198-18)"/><path d="M15.38,53.48c-.07-.49.15-.77.39-.78a.47.47,0,0,1,0-.4c-.08,0-.38,0-.6.48a.92.92,0,0,0,.43,1.16h0a1,1,0,0,1-.2-.46Z" style="fill-rule:evenodd;opacity:0.5;mix-blend-mode:multiply;fill:url(#linear-gradient-35)"/><path d="M19.44,54c.15.08.21.24.07.48s-.64.38-1,.38c.25,0,.48,0,.7,0a1,1,0,0,0,1-.59c.16-.41,0-.57-.14-.59s-.22.29-.69.3Z" style="fill-rule:evenodd;opacity:0.5;mix-blend-mode:multiply;fill:url(#New_Gradient_Swatch_200-18)"/><path d="M15.62,53c-.19.32.3.66.45.74a4.15,4.15,0,0,0,1.4.41,2.72,2.72,0,0,0,1.28-.09,8.49,8.49,0,0,1-1.31-.27,7,7,0,0,1-1.3-.54c-.27-.15-.43-.38-.52-.25Z" style="fill-rule:evenodd;opacity:0.5;mix-blend-mode:screen;fill:url(#linear-gradient-36)"/><path d="M15.93,53a.84.84,0,0,1-.33-1.13c.26-.45.57-.47.65-.42-.1.14-.14.38.25.68a4.61,4.61,0,0,0,.7.41,6.81,6.81,0,0,0,.83.32,6.38,6.38,0,0,0,.86.22,4.87,4.87,0,0,0,.82.11c.51,0,.7-.12.76-.25s.28.19.11.57a1,1,0,0,1-1,.54,7.72,7.72,0,0,1-.92-.09,8.2,8.2,0,0,1-1.88-.53,5.49,5.49,0,0,1-.8-.43Z" style="fill:url(#New_Gradient_Swatch_198-19)"/><path d="M15.77,52.5c0-.47.21-.74.45-.73a.36.36,0,0,1,0-.37c-.08,0-.39,0-.65.42A.84.84,0,0,0,15.93,53h0a.8.8,0,0,1-.17-.45Z" style="fill-rule:evenodd;opacity:0.5;mix-blend-mode:multiply;fill:url(#linear-gradient-37)"/><path d="M19.77,53.15c.14.08.21.24.06.47a1.07,1.07,0,0,1-1,.32l.7.06a1,1,0,0,0,1-.54c.17-.38,0-.55-.11-.57s-.23.27-.7.26Z" style="fill-rule:evenodd;opacity:0.5;mix-blend-mode:multiply;fill:url(#New_Gradient_Swatch_200-19)"/><path d="M16.05,52.05c-.22.29.25.64.39.72a4.32,4.32,0,0,0,1.38.47,2.63,2.63,0,0,0,1.27,0,8.46,8.46,0,0,1-1.28-.31,6.53,6.53,0,0,1-1.26-.58c-.26-.16-.4-.39-.5-.26Z" style="fill-rule:evenodd;opacity:0.5;mix-blend-mode:screen;fill:url(#linear-gradient-38)"/><path d="M16.36,52A.74.74,0,0,1,16.13,51c.35-.4.66-.4.73-.35-.12.12-.2.34.15.64a4.29,4.29,0,0,0,.65.41c.25.12.52.24.79.34s.56.18.84.25a6.42,6.42,0,0,0,.8.14c.5,0,.69-.1.74-.22s.26.19.09.56a1,1,0,0,1-1.07.46,6,6,0,0,1-.9-.12,7.47,7.47,0,0,1-.93-.24,8,8,0,0,1-.9-.35,5.43,5.43,0,0,1-.76-.44Z" style="fill:url(#New_Gradient_Swatch_198-20)"/><path d="M16.25,51.58c0-.44.28-.68.52-.65a.32.32,0,0,1,.09-.32c-.07,0-.37-.06-.71.33A.73.73,0,0,0,16.34,52a.74.74,0,0,1-.09-.44Z" style="fill-rule:evenodd;opacity:0.5;mix-blend-mode:multiply;fill:url(#linear-gradient-39)"/><path d="M20.16,52.4c.13.08.17.24,0,.44a1.12,1.12,0,0,1-1,.27,5.69,5.69,0,0,0,.68.08,1,1,0,0,0,1.07-.46c.17-.37,0-.54-.09-.56s-.23.25-.67.23Z" style="fill-rule:evenodd;opacity:0.5;mix-blend-mode:multiply;fill:url(#New_Gradient_Swatch_200-20)"/><path d="M16.57,51.17c-.25.27.18.62.31.7a4,4,0,0,0,1.33.5,2.75,2.75,0,0,0,1.27,0A8.46,8.46,0,0,1,18.24,52a5.85,5.85,0,0,1-1.2-.6c-.24-.16-.36-.38-.47-.27Z" style="fill-rule:evenodd;opacity:0.5;mix-blend-mode:screen;fill:url(#linear-gradient-40)"/><path d="M17.09,47.86c-.24.09-.59.79.16,1.38a9,9,0,0,0,1.63,1.11,8.75,8.75,0,0,0,1.8.71c1.05.23,1-.85.43-1-.05.54-1.41-.11-1.88-.36-.68-.37-2.09-1.21-2.14-1.84Z" style="fill:url(#linear-gradient-41)"/><path d="M17.35,48.36c-.15-.08-.32,0-.23.25a2.21,2.21,0,0,0,.74,1,7.14,7.14,0,0,0,1.22.8,7,7,0,0,0,1,.43,2.21,2.21,0,0,0,.66.11h0a.46.46,0,0,0,.32-.17.53.53,0,0,0,0-.67.53.53,0,0,1,0,1,1.14,1.14,0,0,1-.37,0l-.08,0a6,6,0,0,1-.58-.18,9,9,0,0,1-1-.43l-.2-.1a6.58,6.58,0,0,1-1-.63l-.61-.48-.19-.18a.77.77,0,0,1,0-1.2.9.9,0,0,0,.26.5Z" style="fill-rule:evenodd;mix-blend-mode:multiply;fill:url(#New_Gradient_Swatch_195)"/><path d="M21,50.33a.61.61,0,0,1-.25,0,7,7,0,0,1-2.93-1.44,4.69,4.69,0,0,0,2.79,1.68.35.35,0,0,0,.39-.27Z" style="fill-rule:evenodd;mix-blend-mode:screen;fill:url(#linear-gradient-42)"/><path d="M17.14,43.4c-.24.1-.56.78.14,1.36A8.22,8.22,0,0,0,19,46a9,9,0,0,0,1.9.75c1,.23,1-.83.44-1-.08.8-2.84-.9-3.2-1.16-.53-.38-1-.82-1-1.2Z" style="fill-rule:evenodd;fill:url(#linear-gradient-43)"/><path d="M17.28,44.76c-.7-.58-.38-1.26-.14-1.36,0,.33.37.71.82,1.05-.23-.09-.34,0-.36.08-.07.35.37.68.6.86a6.41,6.41,0,0,0,2.32,1.16c.71.18,1.05-.25.84-.79.55.15.59,1.21-.44,1A9,9,0,0,1,19,46a8.22,8.22,0,0,1-1.74-1.23Z" style="fill-rule:evenodd;mix-blend-mode:multiply;fill:url(#New_Gradient_Swatch_195-2)"/><path d="M21.28,46a.53.53,0,0,1-.26,0A7.16,7.16,0,0,1,18,44.54a5,5,0,0,0,2.91,1.75c.22,0,.38-.09.42-.27Z" style="fill-rule:evenodd;mix-blend-mode:screen;fill:url(#linear-gradient-44)"/><path d="M16.09,24.93c.71.16.74-.37.49-.54a.36.36,0,0,1-.33.16,5.76,5.76,0,0,1-2.12-.84,9.18,9.18,0,0,1-1.37-.94,5.83,5.83,0,0,0,3.33,2.16Z" style="fill:url(#linear-gradient-45)"/><path d="M16.46,24.55a.47.47,0,0,1-.3,0,7.49,7.49,0,0,1-3-1.47A6.51,6.51,0,0,0,16,24.7c.27,0,.43,0,.49-.15Z" style="fill-rule:evenodd;mix-blend-mode:screen;fill:url(#linear-gradient-46)"/><path d="M16.15,24.8c.23,0,.4-.08.43-.27a.33.33,0,0,0,0-.14.3.3,0,0,1,0,.51.65.65,0,0,1-.44,0h-.06a6,6,0,0,1-.7-.22,7.79,7.79,0,0,1-1.2-.59,4.5,4.5,0,0,1-1.4-1.31h0a5.42,5.42,0,0,0,1.4,1.27,5.72,5.72,0,0,0,1.2.55l.4.13a1.63,1.63,0,0,0,.36.05Z" style="fill-rule:evenodd;mix-blend-mode:multiply;fill:url(#New_Gradient_Swatch_195-3)"/><path d="M16.77,38.94c-.24.12-.53.76.12,1.31a7.17,7.17,0,0,0,1.87,1.38,9.83,9.83,0,0,0,2,.79c1,.23,1-.79.47-1-.09.75-2.87-.9-3.19-1.12-.65-.44-1.2-1-1.25-1.41Z" style="fill-rule:evenodd;fill:url(#linear-gradient-47)"/><path d="M21.12,41.73a.59.59,0,0,1-.28,0,7.5,7.5,0,0,1-3.2-1.6,5.34,5.34,0,0,0,3,1.82c.24,0,.41-.08.45-.26Z" style="fill-rule:evenodd;mix-blend-mode:screen;fill:url(#linear-gradient-48)"/><path d="M16.77,38.94A2,2,0,0,0,17.6,40c-.52-.08-.42.4-.05.71a6.67,6.67,0,0,0,2.9,1.38c.69.12,1-.13.76-.66.53.16.56,1.18-.47,1a9.83,9.83,0,0,1-2-.79,7.17,7.17,0,0,1-1.87-1.38c-.65-.55-.36-1.19-.12-1.31Z" style="fill-rule:evenodd;mix-blend-mode:multiply;fill:url(#New_Gradient_Swatch_195-4)"/><path d="M16,34.5c-.25.13-.49.71.07,1.24a6.81,6.81,0,0,0,2,1.51,9.14,9.14,0,0,0,2.07.83c1,.23,1-.72.48-.89-.09.69-2.84-.88-3.13-1.06C16.76,35.63,16,35,16,34.5Z" style="fill-rule:evenodd;fill:url(#linear-gradient-49)"/><path d="M20.56,37.44a.54.54,0,0,1-.29,0A7.68,7.68,0,0,1,17,35.81a5.71,5.71,0,0,0,3.14,1.87c.25,0,.42-.06.47-.24Z" style="fill-rule:evenodd;mix-blend-mode:screen;fill:url(#linear-gradient-50)"/><path d="M16,34.5c0,.37.39.81.89,1.21-.49,0-.23.54.07.77a7,7,0,0,0,.81.52,5.29,5.29,0,0,0,2.42.9c.54,0,.55-.41.42-.71.49.17.51,1.12-.48.89a9.14,9.14,0,0,1-2.07-.83,6.81,6.81,0,0,1-2-1.51c-.56-.53-.32-1.11-.07-1.24Z" style="fill-rule:evenodd;mix-blend-mode:multiply;fill:url(#New_Gradient_Swatch_195-5)"/><path d="M15,30.13A.74.74,0,0,0,15,31.21a6.39,6.39,0,0,0,2.08,1.65,10.13,10.13,0,0,0,2.1.85c.92.2.91-.63.49-.8-.12.62-2.74-.82-3-1s-1.52-.9-1.78-1.82Z" style="fill-rule:evenodd;fill:url(#linear-gradient-51)"/><path d="M19.6,33.13a.48.48,0,0,1-.3,0,7.76,7.76,0,0,1-3.36-1.69,6.09,6.09,0,0,0,3.17,1.87c.27,0,.43,0,.49-.22Z" style="fill-rule:evenodd;mix-blend-mode:screen;fill:url(#linear-gradient-52)"/><path d="M15,31.21A.74.74,0,0,1,15,30.13a1.68,1.68,0,0,0,.28.55,3.94,3.94,0,0,0,.67.7c-.3-.14-.45.13-.24.37a6.87,6.87,0,0,0,1.52,1,11.63,11.63,0,0,0,1.25.56,2.45,2.45,0,0,0,.66.16c.55,0,.72-.26.61-.61.42.17.43,1-.49.8a10.13,10.13,0,0,1-2.1-.85A6.39,6.39,0,0,1,15,31.21Z" style="fill-rule:evenodd;mix-blend-mode:multiply;fill:url(#New_Gradient_Swatch_195-6)"/><path d="M13.5,25.77a.68.68,0,0,0,0,.94,6.2,6.2,0,0,0,2.18,1.8,9.21,9.21,0,0,0,2.15.87c.84.2.86-.52.5-.69-.15.56-2.57-.72-2.79-.85s-1.87-1.07-2.07-2.07Z" style="fill-rule:evenodd;fill:url(#linear-gradient-53)"/><path d="M18.25,28.89a.5.5,0,0,1-.31,0,7.81,7.81,0,0,1-3.41-1.74,6.39,6.39,0,0,0,3.22,1.89c.27,0,.44,0,.5-.19Z" style="fill-rule:evenodd;mix-blend-mode:screen;fill:url(#linear-gradient-54)"/><path d="M14.47,27.09c-.44-.13-.31.21,0,.47a4.08,4.08,0,0,0,.39.31,6.8,6.8,0,0,0,3,1.34c.54,0,.64-.26.57-.52.36.17.34.89-.5.69a9.21,9.21,0,0,1-2.15-.87,6.2,6.2,0,0,1-2.18-1.8.68.68,0,0,1,0-.94,2.88,2.88,0,0,0,1,1.32Z" style="fill-rule:evenodd;mix-blend-mode:multiply;fill:url(#New_Gradient_Swatch_195-7)"/><path d="M21,71.72c.24.1.58.79-.16,1.37a8,8,0,0,1-1.61,1.1,9,9,0,0,1-1.78.71c-1,.22-1-.85-.42-1,.05.54,1.39-.1,1.86-.35.67-.37,2.07-1.2,2.11-1.83Z" style="fill:url(#linear-gradient-55)"/><path d="M20.73,72.23c.15-.09.32,0,.24.24a2.33,2.33,0,0,1-.74.94,6.69,6.69,0,0,1-1.2.78,5.73,5.73,0,0,1-1,.43,2.14,2.14,0,0,1-.64.12h-.06a.43.43,0,0,1-.31-.16.53.53,0,0,1,0-.67.52.52,0,0,0,0,1,1.14,1.14,0,0,0,.37,0h.08l.57-.18a9,9,0,0,0,1-.43l.19-.1a6,6,0,0,0,1-.63c.22-.16.41-.32.6-.47a1.08,1.08,0,0,0,.19-.17.77.77,0,0,0,0-1.2,1,1,0,0,1-.26.51Z" style="fill-rule:evenodd;mix-blend-mode:multiply;fill:url(#New_Gradient_Swatch_195-8)"/><path d="M17.09,74.17a.64.64,0,0,0,.25,0,6.93,6.93,0,0,0,2.9-1.43,4.65,4.65,0,0,1-2.76,1.67.38.38,0,0,1-.39-.27Z" style="fill-rule:evenodd;mix-blend-mode:screen;fill:url(#linear-gradient-56)"/><path d="M21.34,76c.24.11.56.77-.14,1.35a7.86,7.86,0,0,1-1.73,1.23,9.3,9.3,0,0,1-1.88.74c-1,.23-1-.82-.44-1,.09.79,2.82-.9,3.18-1.16.53-.38,1-.81,1-1.19Z" style="fill-rule:evenodd;fill:url(#linear-gradient-57)"/><path d="M21.2,77.38c.7-.58.38-1.24.14-1.35,0,.33-.37.7-.81,1,.23-.09.33,0,.36.09.07.34-.37.67-.6.85A6.47,6.47,0,0,1,18,79.16c-.7.17-1-.24-.84-.78-.55.15-.59,1.2.44,1a9.3,9.3,0,0,0,1.88-.74,7.86,7.86,0,0,0,1.73-1.23Z" style="fill-rule:evenodd;mix-blend-mode:multiply;fill:url(#New_Gradient_Swatch_195-9)"/><path d="M17.23,78.64a.53.53,0,0,0,.26,0,7.07,7.07,0,0,0,3.05-1.51,5,5,0,0,1-2.89,1.75c-.22,0-.38-.1-.42-.27Z" style="fill-rule:evenodd;mix-blend-mode:screen;fill:url(#linear-gradient-58)"/><path d="M12.73,100.63c-.71.17-.74-.37-.48-.54a.32.32,0,0,0,.32.17,5.76,5.76,0,0,0,2.12-.84,9.23,9.23,0,0,0,1.37-1,5.83,5.83,0,0,1-3.33,2.16Z" style="fill:url(#linear-gradient-59)"/><path d="M12.36,100.26a.48.48,0,0,0,.3,0,7.34,7.34,0,0,0,3-1.46,6.51,6.51,0,0,1-2.84,1.58c-.27,0-.43,0-.49-.15Z" style="fill-rule:evenodd;mix-blend-mode:screen;fill:url(#linear-gradient-60)"/><path d="M12.68,100.51c-.24,0-.41-.09-.44-.27a.4.4,0,0,1,0-.15.3.3,0,0,0,0,.51.65.65,0,0,0,.44.05l.06,0a4.64,4.64,0,0,0,.71-.22,6.82,6.82,0,0,0,1.19-.58A4.42,4.42,0,0,0,16,98.51h0a5.4,5.4,0,0,1-1.4,1.26,5.9,5.9,0,0,1-1.19.56l-.41.13a1.55,1.55,0,0,1-.35.05Z" style="fill-rule:evenodd;mix-blend-mode:multiply;fill:url(#New_Gradient_Swatch_195-10)"/><path d="M21.28,80.36c.24.11.53.74-.11,1.3A7.45,7.45,0,0,1,19.31,83a9.78,9.78,0,0,1-2,.79c-1,.22-1-.78-.46-.94.09.74,2.84-.9,3.16-1.12.64-.43,1.19-1,1.24-1.39Z" style="fill-rule:evenodd;fill:url(#linear-gradient-61)"/><path d="M17,83.12a.5.5,0,0,0,.28,0,7.47,7.47,0,0,0,3.18-1.59,5.31,5.31,0,0,1-3,1.81c-.24,0-.4-.08-.45-.26Z" style="fill-rule:evenodd;mix-blend-mode:screen;fill:url(#linear-gradient-62)"/><path d="M21.28,80.36a2,2,0,0,1-.82,1.09c.52-.08.42.4.05.7a6.63,6.63,0,0,1-2.88,1.37c-.69.12-1-.13-.75-.65-.53.16-.56,1.16.46.94a9.78,9.78,0,0,0,2-.79,7.45,7.45,0,0,0,1.86-1.36c.64-.56.35-1.19.11-1.3Z" style="fill-rule:evenodd;mix-blend-mode:multiply;fill:url(#New_Gradient_Swatch_195-11)"/><path d="M20.83,84.67c.24.12.49.71-.07,1.23a6.88,6.88,0,0,1-2,1.52,9.39,9.39,0,0,1-2.06.83c-1,.22-1-.72-.49-.89.1.68,2.85-.88,3.13-1.07.77-.49,1.48-1.11,1.49-1.62Z" style="fill-rule:evenodd;fill:url(#linear-gradient-63)"/><path d="M16.31,87.61a.53.53,0,0,0,.29,0A7.67,7.67,0,0,0,19.92,86a5.71,5.71,0,0,1-3.14,1.87c-.25,0-.42-.07-.47-.24Z" style="fill-rule:evenodd;mix-blend-mode:screen;fill:url(#linear-gradient-64)"/><path d="M20.83,84.67c0,.37-.39.81-.89,1.2.49,0,.23.55-.07.78a8.57,8.57,0,0,1-.81.52,5.41,5.41,0,0,1-2.42.9c-.54,0-.55-.42-.43-.71-.48.17-.5,1.11.49.89a9.39,9.39,0,0,0,2.06-.83,6.88,6.88,0,0,0,2-1.52c.56-.52.31-1.11.07-1.23Z" style="fill-rule:evenodd;mix-blend-mode:multiply;fill:url(#New_Gradient_Swatch_195-12)"/><path d="M19.93,89.05a.73.73,0,0,1-.08,1.08,6.52,6.52,0,0,1-2.08,1.64,10.13,10.13,0,0,1-2.1.85c-.92.21-.91-.63-.49-.8.12.62,2.74-.82,3-1s1.53-.9,1.78-1.81Z" style="fill-rule:evenodd;fill:url(#linear-gradient-65)"/><path d="M15.28,92.05a.58.58,0,0,0,.3,0,7.7,7.7,0,0,0,3.36-1.69,6.09,6.09,0,0,1-3.17,1.87c-.26,0-.43,0-.49-.21Z" style="fill-rule:evenodd;mix-blend-mode:screen;fill:url(#linear-gradient-66)"/><path d="M19.85,90.13a.73.73,0,0,0,.08-1.08,1.79,1.79,0,0,1-.28.55,3.89,3.89,0,0,1-.67.69c.3-.14.45.13.24.37a6.87,6.87,0,0,1-1.52,1,11.63,11.63,0,0,1-1.25.56,2.47,2.47,0,0,1-.65.16c-.56,0-.73-.26-.62-.61-.42.17-.43,1,.49.8a10.13,10.13,0,0,0,2.1-.85,6.52,6.52,0,0,0,2.08-1.64Z" style="fill-rule:evenodd;mix-blend-mode:multiply;fill:url(#New_Gradient_Swatch_195-13)"/><path d="M18.63,93.37a.68.68,0,0,1,0,.94,6.08,6.08,0,0,1-2.18,1.79,9.47,9.47,0,0,1-2.15.88c-.84.19-.86-.52-.5-.69.15.56,2.57-.72,2.78-.85s1.88-1.07,2.08-2.07Z" style="fill-rule:evenodd;fill:url(#linear-gradient-67)"/><path d="M13.88,96.49a.59.59,0,0,0,.31,0,7.81,7.81,0,0,0,3.41-1.74,6.55,6.55,0,0,1-3.22,1.89c-.27,0-.44,0-.5-.19Z" style="fill-rule:evenodd;mix-blend-mode:screen;fill:url(#linear-gradient-68)"/><path d="M17.66,94.68c.44-.13.31.22,0,.47a4.16,4.16,0,0,1-.39.32,7,7,0,0,1-3,1.34c-.54,0-.64-.26-.57-.52-.36.17-.34.88.5.69a9.47,9.47,0,0,0,2.15-.88,6.08,6.08,0,0,0,2.18-1.79.68.68,0,0,0,0-.94,2.78,2.78,0,0,1-1,1.31Z" style="fill-rule:evenodd;mix-blend-mode:multiply;fill:url(#New_Gradient_Swatch_195-14)"/></g></g></g></svg>