<svg xmlns="http://www.w3.org/2000/svg" xmlns:xlink="http://www.w3.org/1999/xlink" viewBox="0 0 19.41 137.24"><defs><linearGradient id="New_Gradient_Swatch_189" x1="4.75" y1="117.43" x2="12.48" y2="117.43" gradientUnits="userSpaceOnUse"><stop offset="0" stop-color="#281f36"/><stop offset="0.27" stop-color="#37454a"/><stop offset="1" stop-color="#2c2f3b"/></linearGradient><radialGradient id="radial-gradient" cx="-13.3" cy="100.16" r="43.25" gradientUnits="userSpaceOnUse"><stop offset="0" stop-color="#1d48b5"/><stop offset="1"/></radialGradient><radialGradient id="radial-gradient-2" cx="-33.18" cy="116.71" r="49.76" gradientUnits="userSpaceOnUse"><stop offset="0.7" stop-color="#fff"/><stop offset="1" stop-color="#83839c"/></radialGradient><linearGradient id="linear-gradient" x1="4.75" y1="120.22" x2="7.08" y2="120.22" gradientUnits="userSpaceOnUse"><stop offset="0" stop-color="#83839c"/><stop offset="1" stop-color="#fff"/></linearGradient><radialGradient id="radial-gradient-3" cx="11.83" cy="11.25" r="119.77" gradientUnits="userSpaceOnUse"><stop offset="0" stop-color="#afbfcf"/><stop offset="1" stop-color="#4a6391"/></radialGradient><radialGradient id="radial-gradient-4" cx="16.48" cy="16.86" r="117.76" gradientUnits="userSpaceOnUse"><stop offset="0" stop-color="#c3d4e6"/><stop offset="1" stop-color="#7f91b0"/></radialGradient><linearGradient id="linear-gradient-2" x1="12.57" y1="89.32" x2="12.57" gradientUnits="userSpaceOnUse"><stop offset="0" stop-color="#cfdefa"/><stop offset="1" stop-color="#e3f1ff"/></linearGradient><linearGradient id="linear-gradient-3" x1="4.85" y1="67.37" x2="9.99" y2="67.37" gradientUnits="userSpaceOnUse"><stop offset="0" stop-color="#6f778f"/><stop offset="0.19" stop-color="#7f85a6"/><stop offset="0.53" stop-color="#989bc9"/><stop offset="0.82" stop-color="#a7a8de"/><stop offset="1" stop-color="#adade6"/></linearGradient><radialGradient id="radial-gradient-5" cx="24.54" cy="73.38" r="18.82" gradientUnits="userSpaceOnUse"><stop offset="0" stop-color="#c5d4e8"/><stop offset="0.6" stop-color="#4d535a"/><stop offset="1"/></radialGradient><radialGradient id="radial-gradient-6" cx="16.11" cy="8.62" r="29.84" xlink:href="#radial-gradient-5"/><radialGradient id="radial-gradient-7" cx="16.65" cy="14.31" r="22.57" xlink:href="#radial-gradient-5"/><linearGradient id="linear-gradient-4" x1="12.12" y1="81.65" x2="12.12" y2="9.45" xlink:href="#linear-gradient-2"/><radialGradient id="radial-gradient-8" cx="34.27" cy="56.11" r="114.8" gradientUnits="userSpaceOnUse"><stop offset="0" stop-color="#a1bfe8"/><stop offset="0.6" stop-color="#3f4a5a"/><stop offset="1"/></radialGradient><linearGradient id="linear-gradient-5" x1="9.44" y1="86.74" x2="9.44" y2="38.12" xlink:href="#linear-gradient-2"/><radialGradient id="radial-gradient-9" cx="5.16" cy="108.2" r="8.73" gradientUnits="userSpaceOnUse"><stop offset="0.51" stop-color="#fff"/><stop offset="0.7" stop-color="#cfc9c3"/><stop offset="1" stop-color="#7b6a58"/></radialGradient><linearGradient id="linear-gradient-6" y1="100.04" x2="17" y2="100.04" gradientUnits="userSpaceOnUse"><stop offset="0" stop-color="#c7945a"/><stop offset="1" stop-color="#91551e"/></linearGradient><radialGradient id="radial-gradient-10" cx="7.87" cy="93.39" r="10.06" gradientUnits="userSpaceOnUse"><stop offset="0" stop-color="#fccf9f"/><stop offset="0.11" stop-color="#e9c093"/><stop offset="0.32" stop-color="#b89774"/><stop offset="0.63" stop-color="#6a5743"/><stop offset="1"/></radialGradient><linearGradient id="linear-gradient-7" x1="-3.99" y1="101.48" x2="18.82" y2="101.48" gradientUnits="userSpaceOnUse"><stop offset="0" stop-color="#fff"/><stop offset="0.38" stop-color="#cfc9c3"/><stop offset="1" stop-color="#7b6a58"/></linearGradient><linearGradient id="New_Gradient_Swatch_192" x1="5.13" y1="132.18" x2="12.46" y2="132.18" gradientUnits="userSpaceOnUse"><stop offset="0" stop-color="#94561c"/><stop offset="0.31" stop-color="#f0b665"/><stop offset="1" stop-color="#875810"/></linearGradient><linearGradient id="linear-gradient-8" x1="4.75" y1="121.45" x2="7.08" y2="121.45" gradientUnits="userSpaceOnUse"><stop offset="0" stop-color="#7b6a58"/><stop offset="0.62" stop-color="#cfc9c3"/><stop offset="1" stop-color="#fff"/></linearGradient><linearGradient id="linear-gradient-9" x1="9.66" y1="123.97" x2="12.46" y2="123.97" xlink:href="#linear-gradient-7"/><radialGradient id="radial-gradient-11" cx="-10.4" cy="122.47" r="46.54" gradientUnits="userSpaceOnUse"><stop offset="0" stop-color="#fca03f"/><stop offset="0.11" stop-color="#e9943a"/><stop offset="0.32" stop-color="#b8752e"/><stop offset="0.63" stop-color="#6a431a"/><stop offset="1"/></radialGradient></defs><g style="isolation:isolate"><g id="Calque_2" data-name="Calque 2"><g id="Layer_1" data-name="Layer 1"><path d="M4.86,97.63l6.49,3.85a13.93,13.93,0,0,0-.31,5.7c.4,3.46,1.44,5.38,1.44,8.91s-.61,9.43-1,12.89a14.17,14.17,0,0,0,1,7.51c-1.33,1.63-7.29.33-7.33-1.26a31,31,0,0,0,.33-7.56c-.74-9.59-.82-20.47-.6-30Z" style="fill-rule:evenodd;fill:url(#New_Gradient_Swatch_189)"/><path d="M7,102.81c-1.14-.71-1.06,1-1.06,1.65C6,113,6.76,121.65,7.07,130.2c0,1.41-.39,2.74-.36,3.94,0,2.2,3.05,2.29,2.94,1.35-.15-1.31-.91-2.58-1.07-4.57-.3-3.69.82-9.1.83-13.29a75.6,75.6,0,0,0-.55-9.39,37.42,37.42,0,0,0-.56-3.8A3.17,3.17,0,0,0,7,102.81Z" style="fill-rule:evenodd;mix-blend-mode:screen;fill:url(#radial-gradient)"/><path d="M11.32,109c-.48-.32-1-.67-1.48-1.06A70.72,70.72,0,0,1,11,118.86c.06,4.24-.57,7.23-1.14,11.24-.39,2.73,0,3.65,1,6,.26.62.16.91-.1,1.08a2.61,2.61,0,0,0,1.75-.72,14.17,14.17,0,0,1-1-7.51c.4-3.46,1-9.36,1-12.89,0-2.86-.68-4.66-1.16-7.09Z" style="fill-rule:evenodd;mix-blend-mode:multiply;fill:url(#radial-gradient-2)"/><path d="M6.16,124.35c-.34-6.7-.56-13.38-.76-20.09l-.64-.56c-.06,7.94.11,16.36.7,24a31,31,0,0,1-.33,7.56c0,.59.85,1.14,2,1.52-.61-.36-.91-.72-.88-1.81,0-1.39.39-3.09.36-4.34,0-2.09-.29-4.16-.4-6.25Z" style="fill-rule:evenodd;mix-blend-mode:multiply;fill:url(#linear-gradient)"/><path d="M5.72,0C9,19.19,5.24,45.67,4.85,87.28v12.86h6.56a17.18,17.18,0,0,1,.37-3.7,7.93,7.93,0,0,1,7.6-7.22h0c-4-17,0-40.18-1.36-59.3C17.13,17.28,13.77,6.31,5.72,0Z" style="fill-rule:evenodd;fill:url(#radial-gradient-3)"/><path d="M6.43,5.13c5.45,7.34,7.43,17.05,8.09,26A212.44,212.44,0,0,1,14.46,55C14.22,61,14,67,14.09,73A74,74,0,0,0,15.81,88.8l.3,1.26a7.83,7.83,0,0,1,3.26-.84h0c-4-17,0-40.18-1.36-59.3C17.13,17.28,13.77,6.31,5.72,0c.29,1.65.52,3.36.71,5.13Z" style="fill-rule:evenodd;fill:url(#radial-gradient-4)"/><path d="M17.08,30.67A217.17,217.17,0,0,1,17,54.74c-.23,6.08-.49,12.17-.37,18.25A77.92,77.92,0,0,0,18.4,89.32a7.77,7.77,0,0,1,1-.1h0c-4-17,0-40.18-1.36-59.3C17.13,17.28,13.77,6.31,5.72,0c.08.46.16.93.23,1.4,7.85,7.35,10.37,19,11.13,29.27Z" style="fill-rule:evenodd;fill:url(#linear-gradient-2)"/><path d="M10,49.72c.18-8.33-.32-10.62-3.26-15.11C6.12,49,5.05,66.17,4.85,87.28v12.86H8.67c0-16.93.94-33.53,1.29-50.42Z" style="fill-rule:evenodd;opacity:0.65;mix-blend-mode:multiply;fill:url(#linear-gradient-3)"/><path d="M17.6,72.18c-.37,1.11-2.6,2.32-3.49,2,.07,2.13.18,4.28.38,6.42.55-1.19,2.88-2.48,3.39-2-.16-2.11-.24-4.27-.28-6.47Z" style="fill-rule:evenodd;mix-blend-mode:screen;fill:url(#radial-gradient-5)"/><path d="M7.07,20.71c0,3.3-.11,6.77-.24,10.44a19.16,19.16,0,0,1,7.29-4.21,64.42,64.42,0,0,0-1.8-9.26,13.25,13.25,0,0,1-5.25,3Z" style="fill-rule:evenodd;opacity:0.2;mix-blend-mode:screen;fill:url(#radial-gradient-6)"/><path d="M14.11,26.88c.64-1.06,2.48-2.46,3.43-2a59.73,59.73,0,0,0-1.92-9.19,3.81,3.81,0,0,1-3.32,1.91,63.11,63.11,0,0,1,1.81,9.26Z" style="fill-rule:evenodd;mix-blend-mode:screen;fill:url(#radial-gradient-7)"/><path d="M9.12,9.45c10.21,19,4,48.8,5.48,72.2a87,87,0,0,1-.75-10.93c-.31-21,3.94-41.86-4.73-61.27Z" style="fill-rule:evenodd;opacity:0.5;mix-blend-mode:screen;fill:url(#linear-gradient-4)"/><path d="M6.7,34.61c2.68,6,1,18.12.62,28.12-.48,12.55-.82,24.86-.64,37.41h2c0-16.93.94-33.53,1.29-50.42.18-8.33-.32-10.62-3.26-15.11Z" style="fill-rule:evenodd;opacity:0.15;mix-blend-mode:screen;fill:url(#radial-gradient-8)"/><path d="M8.85,86.74c.07-12.11.77-24.87.85-37,0-5,.3-7.65-1-11.6,1.72,3.69,1.53,7.1,1.52,11.56,0,12.09-1,31.24-1.34,37.06Z" style="fill-rule:evenodd;opacity:0.30000000000000004;fill:url(#linear-gradient-5)"/><path d="M4.76,103.7a69.06,69.06,0,0,0,6.56,5.3c-.11-.57-.21-1.17-.28-1.82a13.93,13.93,0,0,1,.31-5.7L4.86,97.63c-.05,2-.08,4-.1,6.07Z" style="fill:#bd8b2d;fill-rule:evenodd"/><path d="M5.4,104.26c0-.75,0-1.49,0-2.24.09-1.51,1.07-1,1.93-.28A10.23,10.23,0,0,1,9.44,104a2.09,2.09,0,0,1,.14.79,29.7,29.7,0,0,0,.26,3.16c.51.39,1,.74,1.48,1.06-.11-.57-.21-1.17-.28-1.82a13.93,13.93,0,0,1,.31-5.7L4.86,97.63c-.05,2-.08,4-.1,6.07l.64.56Z" style="fill-rule:evenodd;mix-blend-mode:multiply;fill:url(#radial-gradient-9)"/><path d="M12,111.87a58.58,58.58,0,0,1-7.22-5.71v1.51a53.71,53.71,0,0,0,7.54,5.9c-.09-.59-.2-1.14-.32-1.7Z" style="fill:#bd8b2d;fill-rule:evenodd"/><path d="M11.8,96.19c-2.51,2.42-4.48.75-6.46-.52a10,10,0,0,0-2.62-1.34,7.33,7.33,0,0,0-2.72.9c2.76,1.55,10.65,10,14.23,10.53A13.8,13.8,0,0,0,17,104.61a7.94,7.94,0,0,1-5.26-7.47,7.46,7.46,0,0,1,.06-1Z" style="fill-rule:evenodd;fill:url(#linear-gradient-6)"/><path d="M0,95.23a5,5,0,0,1,4.15.47c1.63,1,3.85,3.32,5.17,3a5.05,5.05,0,0,0,2.48-2.47c-2.51,2.42-4.48.75-6.46-.52a10,10,0,0,0-2.62-1.34,7.33,7.33,0,0,0-2.72.9Z" style="fill-rule:evenodd;opacity:0.5;mix-blend-mode:screen;fill:url(#radial-gradient-10)"/><path d="M17,104.61a8,8,0,0,1-5.16-6.2,8.28,8.28,0,0,0,2.53,5.9c.26.29.54.55.49.74-.24.78-3-.69-3.93-1.29a28.52,28.52,0,0,1-3.66-3.13A12.74,12.74,0,0,0,2.59,97.2l2.24,1.94,0,0,1.12,1c1.65,1.43,3.39,2.89,4.94,4a9.46,9.46,0,0,0,3.32,1.65A13.8,13.8,0,0,0,17,104.61Z" style="fill-rule:evenodd;opacity:0.5;mix-blend-mode:multiply;fill:url(#linear-gradient-7)"/><path d="M11.36,131.88c-1.54-.63-4.75-2.54-5.95-4.76,0,.19,0,.37,0,.55a31,31,0,0,1-.33,7.56c0,1.59,6,2.89,7.33,1.26a14.81,14.81,0,0,1-1.1-4.61Z" style="fill-rule:evenodd;fill:url(#New_Gradient_Swatch_192)"/><path d="M5.53,108.35c0-.52,0-1,0-1.56l-.73-.63v1.51l.78.68Zm.93,20.18a7.17,7.17,0,0,1-1-1.41c0,.19,0,.37,0,.55a31,31,0,0,1-.33,7.56c0,.59.85,1.14,2,1.52-.61-.36-.91-.72-.88-1.81,0-1.39.39-3.09.36-4.34,0-.69-.06-1.38-.1-2.07Z" style="fill-rule:evenodd;mix-blend-mode:multiply;fill:url(#linear-gradient-8)"/><path d="M10.28,110.73c.07.53.15,1.09.22,1.68a19.07,19.07,0,0,0,1.79,1.16c-.09-.59-.2-1.14-.32-1.7a18,18,0,0,1-1.69-1.14ZM9.7,131c-.17,2,.23,3,1.11,5.09.26.62.16.91-.1,1.08a2.61,2.61,0,0,0,1.75-.72,14.81,14.81,0,0,1-1.1-4.61A14.41,14.41,0,0,1,9.7,131Z" style="fill-rule:evenodd;mix-blend-mode:multiply;fill:url(#linear-gradient-9)"/><path d="M8.54,130.3A15.81,15.81,0,0,1,7,129.09c0,.37,0,.74.05,1.11,0,1.41-.39,2.74-.36,3.94,0,2.2,3.05,2.29,2.94,1.35-.15-1.31-.91-2.58-1.07-4.57,0-.2,0-.41,0-.62ZM6,108.76c1,.91,2.12,1.83,3.16,2.65,0-.54-.09-1.09-.14-1.63C8,109,7,108.09,6,107.21c0,.52,0,1,0,1.55Zm-.09-4.05c.92.8,1.87,1.61,2.8,2.36a26.16,26.16,0,0,0-.42-2.63A3.17,3.17,0,0,0,7,102.81c-1.14-.71-1.06,1-1.06,1.65,0,.09,0,.17,0,.25Z" style="fill-rule:evenodd;mix-blend-mode:screen;fill:url(#radial-gradient-11)"/></g></g></g></svg>