<svg xmlns="http://www.w3.org/2000/svg" xmlns:xlink="http://www.w3.org/1999/xlink" viewBox="0 0 15.71 137.19"><defs><linearGradient id="linear-gradient" x1="4.1" y1="117.87" x2="11.67" y2="117.87" gradientUnits="userSpaceOnUse"><stop offset="0" stop-color="#0a3563"/><stop offset="0.07" stop-color="#0b3f81"/><stop offset="0.15" stop-color="#0c4799"/><stop offset="0.23" stop-color="#0d4daa"/><stop offset="0.32" stop-color="#0d51b5"/><stop offset="0.42" stop-color="#0d52b8"/><stop offset="0.46" stop-color="#0d4daa"/><stop offset="0.57" stop-color="#0e3e86"/><stop offset="0.68" stop-color="#0e3369"/><stop offset="0.78" stop-color="#0f2b55"/><stop offset="0.89" stop-color="#0f2749"/><stop offset="1" stop-color="#0f2545"/></linearGradient><radialGradient id="radial-gradient" cx="26.41" cy="114.94" r="40.55" gradientUnits="userSpaceOnUse"><stop offset="0" stop-color="#3e5170"/><stop offset="1" stop-color="#6f869e"/></radialGradient><linearGradient id="linear-gradient-2" x1="3.77" y1="101.85" x2="4.66" y2="101.85" gradientUnits="userSpaceOnUse"><stop offset="0" stop-color="#728da3"/><stop offset="0.19" stop-color="#889fb1"/><stop offset="0.6" stop-color="#c0ccd6"/><stop offset="1" stop-color="#fff"/></linearGradient><radialGradient id="radial-gradient-2" cx="20.62" cy="129.79" r="16.08" gradientUnits="userSpaceOnUse"><stop offset="0.93" stop-color="#fff"/><stop offset="0.96" stop-color="#c0ccd6"/><stop offset="0.99" stop-color="#889fb1"/><stop offset="1" stop-color="#728da3"/></radialGradient><linearGradient id="linear-gradient-3" x1="8.76" y1="101.94" x2="10.01" y2="101.94" gradientUnits="userSpaceOnUse"><stop offset="0" stop-color="#fff"/><stop offset="0.4" stop-color="#c0ccd6"/><stop offset="0.81" stop-color="#889fb1"/><stop offset="1" stop-color="#728da3"/></linearGradient><radialGradient id="radial-gradient-3" cx="35.86" cy="125.22" r="27.52" gradientUnits="userSpaceOnUse"><stop offset="0.87" stop-color="#728da3"/><stop offset="0.9" stop-color="#7590a5"/><stop offset="0.92" stop-color="#8098ac"/><stop offset="0.94" stop-color="#91a6b7"/><stop offset="0.96" stop-color="#aabac7"/><stop offset="0.98" stop-color="#cad4dc"/><stop offset="0.99" stop-color="#f0f3f5"/><stop offset="1" stop-color="#fff"/></radialGradient><linearGradient id="linear-gradient-4" x1="3.24" y1="117.75" x2="13.12" y2="117.75" gradientUnits="userSpaceOnUse"><stop offset="0" stop-color="#94bdeb"/><stop offset="0.09" stop-color="#8db4df"/><stop offset="0.26" stop-color="#799bc0"/><stop offset="0.48" stop-color="#5a728e"/><stop offset="0.74" stop-color="#2e3b4a"/><stop offset="1"/></linearGradient><linearGradient id="linear-gradient-5" x1="3.15" y1="100.54" x2="10.63" y2="100.54" gradientUnits="userSpaceOnUse"><stop offset="0" stop-color="#495d7a"/><stop offset="0.34" stop-color="#6f869e"/><stop offset="1" stop-color="#3e5170"/></linearGradient><linearGradient id="linear-gradient-6" x1="3.15" y1="100.41" x2="4.12" y2="100.41" gradientUnits="userSpaceOnUse"><stop offset="0" stop-color="#a2c8e8"/><stop offset="0.35" stop-color="#c3dcf0"/><stop offset="1" stop-color="#fff"/></linearGradient><linearGradient id="linear-gradient-7" x1="8.54" y1="100.5" x2="10.63" y2="100.5" gradientUnits="userSpaceOnUse"><stop offset="0" stop-color="#fff"/><stop offset="0.65" stop-color="#c3dcf0"/><stop offset="1" stop-color="#a2c8e8"/></linearGradient><radialGradient id="radial-gradient-4" cx="2.21" cy="101.75" r="7.38" gradientUnits="userSpaceOnUse"><stop offset="0" stop-color="#748dad"/><stop offset="0.22" stop-color="#53657c"/><stop offset="0.48" stop-color="#2f3a47"/><stop offset="0.71" stop-color="#161a20"/><stop offset="0.89" stop-color="#060709"/><stop offset="1"/></radialGradient><radialGradient id="radial-gradient-5" cx="3.98" cy="102.1" r="6.66" xlink:href="#radial-gradient-4"/><radialGradient id="radial-gradient-6" cx="-1.54" cy="3.14" r="69.8" gradientUnits="userSpaceOnUse"><stop offset="0" stop-color="#105396"/><stop offset="1" stop-color="#1c395e"/></radialGradient><radialGradient id="radial-gradient-7" cx="17.85" cy="39.49" r="20.23" gradientUnits="userSpaceOnUse"><stop offset="0" stop-color="#197aff"/><stop offset="0.63" stop-color="#092b5a"/><stop offset="1"/></radialGradient><radialGradient id="radial-gradient-8" cx="22.07" cy="56.6" r="17.74" xlink:href="#radial-gradient-7"/><radialGradient id="radial-gradient-9" cx="20.44" cy="74.03" r="21.17" xlink:href="#radial-gradient-7"/><linearGradient id="linear-gradient-8" x1="12.8" y1="38.52" x2="16.31" y2="38.52" gradientUnits="userSpaceOnUse"><stop offset="0.16" stop-color="#0989fd"/><stop offset="0.33" stop-color="#0893fd"/><stop offset="0.61" stop-color="#05adfe"/><stop offset="0.97" stop-color="#00d7ff"/><stop offset="1" stop-color="#00daff"/></linearGradient><radialGradient id="radial-gradient-10" cx="-14.92" cy="43.73" r="47.19" gradientUnits="userSpaceOnUse"><stop offset="0.85" stop-color="#095be1"/><stop offset="0.87" stop-color="#0c61e2"/><stop offset="0.89" stop-color="#1472e6"/><stop offset="0.93" stop-color="#228deb"/><stop offset="0.96" stop-color="#36b4f3"/><stop offset="0.99" stop-color="#4fe5fd"/><stop offset="1" stop-color="#53eeff"/></radialGradient><radialGradient id="radial-gradient-11" cx="-1.61" cy="30.12" r="53.61" gradientUnits="userSpaceOnUse"><stop offset="0" stop-color="#abc3db"/><stop offset="1" stop-color="#637a96"/></radialGradient><linearGradient id="linear-gradient-9" x1="7.21" y1="38.63" x2="7.21" y2="34.93" gradientUnits="userSpaceOnUse"><stop offset="0" stop-color="#b6d9fc"/><stop offset="1" stop-color="#323d4f"/></linearGradient><linearGradient id="linear-gradient-10" x1="7.21" y1="54.92" x2="7.21" y2="51.22" xlink:href="#linear-gradient-9"/><linearGradient id="linear-gradient-11" x1="7.21" y1="71.21" x2="7.21" y2="67.51" xlink:href="#linear-gradient-9"/><radialGradient id="radial-gradient-12" cx="8.21" cy="23.68" r="3.98" gradientUnits="userSpaceOnUse"><stop offset="0" stop-color="#00d0ff"/><stop offset="1" stop-color="#008be1"/></radialGradient><radialGradient id="radial-gradient-13" cx="6.56" cy="16.35" r="4.19" xlink:href="#radial-gradient-12"/><radialGradient id="radial-gradient-14" cx="6.41" cy="15.36" r="3.61" xlink:href="#radial-gradient-12"/><radialGradient id="radial-gradient-15" cx="4.72" cy="7.64" r="4.63" xlink:href="#radial-gradient-12"/><linearGradient id="linear-gradient-12" x1="1.52" y1="60.71" x2="4.03" y2="60.71" xlink:href="#radial-gradient-11"/><radialGradient id="radial-gradient-16" cx="6.75" cy="35.92" r="2.74" gradientUnits="userSpaceOnUse"><stop offset="0" stop-color="#0ef"/><stop offset="1" stop-color="#006ad4"/></radialGradient><radialGradient id="radial-gradient-17" cx="6.75" cy="35.68" r="3.38" xlink:href="#radial-gradient-7"/><radialGradient id="radial-gradient-18" cx="6.59" cy="35.56" r="2.47" gradientUnits="userSpaceOnUse"><stop offset="0" stop-color="#7dfff0"/><stop offset="0.63" stop-color="#2c5a55"/><stop offset="1"/></radialGradient><radialGradient id="radial-gradient-19" cx="7.23" cy="36.43" r="1.71" gradientUnits="userSpaceOnUse"><stop offset="0" stop-color="#4dd5ff"/><stop offset="0.63" stop-color="#1b4c5a"/><stop offset="1"/></radialGradient><radialGradient id="radial-gradient-20" cx="6.75" cy="52.21" r="2.74" xlink:href="#radial-gradient-16"/><radialGradient id="radial-gradient-21" cx="6.75" cy="51.97" r="3.38" xlink:href="#radial-gradient-7"/><radialGradient id="radial-gradient-22" cx="6.59" cy="51.85" r="2.47" xlink:href="#radial-gradient-18"/><radialGradient id="radial-gradient-23" cx="7.23" cy="52.71" r="1.71" xlink:href="#radial-gradient-19"/><radialGradient id="radial-gradient-24" cx="6.75" cy="68.5" r="2.74" xlink:href="#radial-gradient-16"/><radialGradient id="radial-gradient-25" cx="6.75" cy="68.26" r="3.38" xlink:href="#radial-gradient-7"/><radialGradient id="radial-gradient-26" cx="6.59" cy="68.14" r="2.47" xlink:href="#radial-gradient-18"/><radialGradient id="radial-gradient-27" cx="7.23" cy="69" r="1.71" xlink:href="#radial-gradient-19"/><radialGradient id="New_Gradient_Swatch_165" cx="-31.27" cy="57.28" r="51.52" gradientUnits="userSpaceOnUse"><stop offset="0" stop-color="#fff"/><stop offset="0.46" stop-color="#c3c6cd"/><stop offset="1" stop-color="#787e8f"/></radialGradient><linearGradient id="linear-gradient-13" x1="7.21" y1="92.61" x2="7.21" y2="72.58" gradientUnits="userSpaceOnUse"><stop offset="0"/><stop offset="0.09" stop-color="#111316"/><stop offset="0.72" stop-color="#8696ac"/><stop offset="1" stop-color="#b5cbe8"/></linearGradient><linearGradient id="linear-gradient-14" x1="3.01" y1="80.7" x2="3.01" y2="29.13" xlink:href="#linear-gradient-13"/><radialGradient id="radial-gradient-28" cx="7.1" cy="52.06" r="15.78" gradientUnits="userSpaceOnUse"><stop offset="0" stop-color="#3defff"/><stop offset="0.15" stop-color="#2fb7c3"/><stop offset="0.32" stop-color="#218089"/><stop offset="0.49" stop-color="#155258"/><stop offset="0.64" stop-color="#0c2f32"/><stop offset="0.78" stop-color="#051516"/><stop offset="0.91" stop-color="#010506"/><stop offset="1"/></radialGradient><radialGradient id="radial-gradient-29" cx="4.63" cy="21.7" r="19.8" xlink:href="#radial-gradient-28"/><radialGradient id="radial-gradient-30" cx="9.43" cy="40.34" r="13.06" xlink:href="#radial-gradient-28"/><radialGradient id="radial-gradient-31" cx="7.52" cy="28.9" r="15.62" gradientUnits="userSpaceOnUse"><stop offset="0" stop-color="#cfe2e8"/><stop offset="1" stop-color="#5c779e"/></radialGradient><linearGradient id="linear-gradient-15" x1="1.52" y1="27.18" x2="7.21" y2="27.18" gradientUnits="userSpaceOnUse"><stop offset="0" stop-color="#d9f2fa"/><stop offset="1" stop-color="#a9c5cf"/></linearGradient><radialGradient id="radial-gradient-32" cx="4.23" cy="85.36" r="14.18" gradientUnits="userSpaceOnUse"><stop offset="0" stop-color="#284c70"/><stop offset="1" stop-color="#1b2e47"/></radialGradient><radialGradient id="radial-gradient-33" cx="4.37" cy="86.69" r="12.41" gradientUnits="userSpaceOnUse"><stop offset="0" stop-color="#4c76a1"/><stop offset="1" stop-color="#1c395e"/></radialGradient><radialGradient id="radial-gradient-34" cx="4.35" cy="86.96" r="15.93" xlink:href="#radial-gradient-33"/><radialGradient id="radial-gradient-35" cx="2.13" cy="83.46" r="13.68" xlink:href="#radial-gradient-7"/><radialGradient id="radial-gradient-36" cx="4.65" cy="89.23" r="8.3" gradientUnits="userSpaceOnUse"><stop offset="0" stop-color="#75edff"/><stop offset="1" stop-color="#0091ff"/></radialGradient><radialGradient id="radial-gradient-37" cx="6.27" cy="112.3" r="3.08" xlink:href="#radial-gradient-11"/><linearGradient id="linear-gradient-16" x1="6.89" y1="114.74" x2="6.89" y2="112.79" xlink:href="#linear-gradient-9"/><linearGradient id="linear-gradient-17" x1="6.89" y1="114.59" x2="6.89" y2="112.94" gradientUnits="userSpaceOnUse"><stop offset="0" stop-color="#5b6778"/><stop offset="1" stop-color="#b6d9fc"/></linearGradient><radialGradient id="radial-gradient-38" cx="6.74" cy="113.03" r="1.81" xlink:href="#radial-gradient-11"/><radialGradient id="radial-gradient-39" cx="6.27" cy="121.1" r="3.08" xlink:href="#radial-gradient-11"/><linearGradient id="linear-gradient-18" x1="6.89" y1="123.54" x2="6.89" y2="121.59" xlink:href="#linear-gradient-9"/><linearGradient id="linear-gradient-19" x1="6.89" y1="123.39" x2="6.89" y2="121.75" xlink:href="#linear-gradient-17"/><radialGradient id="radial-gradient-40" cx="6.74" cy="121.83" r="1.81" xlink:href="#radial-gradient-11"/></defs><g style="isolation:isolate"><g id="Calque_2" data-name="Calque 2"><g id="Layer_1" data-name="Layer 1"><path d="M9.68,98.89v23a49.08,49.08,0,0,0,.34,7,28.4,28.4,0,0,0,1.65,6,12.71,12.71,0,0,1-5.21,1.94,33.08,33.08,0,0,1-1.95-7.14,52.51,52.51,0,0,1-.41-7.85v-23Z" style="fill:url(#linear-gradient)"/><path d="M10,98.56V105a2.32,2.32,0,0,0-2.32,2.32v14.58c0,.91,0,1.85,0,3.21,0,1.15.09,2.28.22,3.35a2.32,2.32,0,0,0,2.57,2l.12,0A32.54,32.54,0,0,0,12,134.79l.08.22-.18.15a13,13,0,0,1-5.4,2H6.24L6.15,137a42.23,42.23,0,0,1-1.5-4.76,2.32,2.32,0,0,0,1.85-2.63c-.19-1.28-.29-2.53-.35-3.77s-.05-2.54-.05-4V107.28A2.32,2.32,0,0,0,3.77,105v-6.4Z" style="fill-rule:evenodd;fill:url(#radial-gradient)"/><path d="M3.77,105a2.35,2.35,0,0,1,.89.17V98.56H3.77V105Z" style="fill-rule:evenodd;mix-blend-mode:multiply;fill:url(#linear-gradient-2)"/><path d="M5.49,131.87a2.4,2.4,0,0,1-.84.34A42.23,42.23,0,0,0,6.15,137l.09.22h.24a4.79,4.79,0,0,0,.67-.09L7,136.66a40.66,40.66,0,0,1-1.49-4.79Z" style="fill-rule:evenodd;mix-blend-mode:multiply;fill:url(#radial-gradient-2)"/><path d="M8.76,98.56v6.76A2.31,2.31,0,0,1,10,105v-6.4Z" style="fill-rule:evenodd;mix-blend-mode:multiply;fill:url(#linear-gradient-3)"/><path d="M12,134.79a32.54,32.54,0,0,1-1.34-4.35l-.12,0a2.37,2.37,0,0,1-1.19-.17,33.7,33.7,0,0,0,1.48,4.94c.07.17.13.33.19.5a4.79,4.79,0,0,0,.88-.57l.18-.15-.08-.22Z" style="fill-rule:evenodd;mix-blend-mode:multiply;fill:url(#radial-gradient-3)"/><path d="M6.89,121.86V98.56H5.33v7a2.31,2.31,0,0,1,.77,1.72v14.58c0,1.41,0,2.8.05,4s.16,2.49.35,3.77a2.3,2.3,0,0,1-.45,1.76,37.16,37.16,0,0,0,1.56,5.08c.06.18.13.35.19.52.47-.12,1-.28,1.49-.46l-.23-.6a31.9,31.9,0,0,1-1.8-6.58,52.75,52.75,0,0,1-.37-7.44Z" style="fill-rule:evenodd;opacity:0.5;mix-blend-mode:screen;fill:url(#linear-gradient-4)"/><path d="M3.15,98.28h7.48c0,.68-.09,1.34-.13,2s-.08,1.24-.12,1.85c0,.19-.41.36-1,.49a13.73,13.73,0,0,1-2.45.2,13.73,13.73,0,0,1-2.45-.2c-.63-.13-1-.3-1-.49,0-.61-.08-1.22-.12-1.85s-.08-1.31-.13-2Z" style="fill-rule:evenodd;fill:url(#linear-gradient-5)"/><path d="M4,102.34c0-.63-.07-1.29-.1-2S3.83,99,3.8,98.28H3.15c.05.68.09,1.34.13,2s.08,1.24.12,1.85c0,.15.27.3.72.41a.26.26,0,0,1-.11-.19Z" style="fill-rule:evenodd;mix-blend-mode:multiply;fill:url(#linear-gradient-6)"/><path d="M9.12,98.28c0,.72,0,1.42-.08,2.11s0,1.31-.07,2c0,.14-.17.28-.43.38a6.7,6.7,0,0,0,1.32-.24c.32-.11.52-.23.52-.36,0-.61.08-1.22.12-1.85s.09-1.31.13-2Z" style="fill-rule:evenodd;mix-blend-mode:multiply;fill:url(#linear-gradient-7)"/><path d="M4.37,98.28c0,.78.07,1.53.1,2.26s.06,1.41.09,2.09c.26.05.56.08.88.11s.67.05,1,.06c0-.7,0-1.42,0-2.17s0-1.54,0-2.35H4.37Z" style="fill-rule:evenodd;mix-blend-mode:screen;fill:url(#radial-gradient-4)"/><path d="M7,98.28c0,.81,0,1.59,0,2.36v2.17l1,0c0-.7,0-1.42,0-2.15s0-1.54,0-2.34Z" style="fill-rule:evenodd;mix-blend-mode:screen;fill:url(#radial-gradient-5)"/><path d="M2.15,0V92.61H12.26V82.88A7,7,0,0,1,15.71,77V7.82A45.35,45.35,0,0,0,2.15,0Z" style="fill-rule:evenodd;fill:url(#radial-gradient-6)"/><polygon points="2.15 34.7 15.71 26.87 15.71 17.37 2.15 25.2 2.15 34.7 2.15 34.7" style="fill-rule:evenodd;opacity:0.5;mix-blend-mode:screen;fill:url(#radial-gradient-7)"/><polygon points="15.71 41.6 2.15 49.43 2.15 53.72 15.71 45.89 15.71 41.6 15.71 41.6" style="fill-rule:evenodd;mix-blend-mode:screen;fill:url(#radial-gradient-8)"/><polygon points="15.71 51.86 2.15 59.69 2.15 66.08 15.71 58.26 15.71 51.86 15.71 51.86" style="fill-rule:evenodd;mix-blend-mode:screen;fill:url(#radial-gradient-9)"/><path d="M2.15,2.72A42.44,42.44,0,0,1,13.17,9V72.68A4.9,4.9,0,0,0,15.71,77V7.82A45.35,45.35,0,0,0,2.15,0V2.72Z" style="fill-rule:evenodd;fill:url(#linear-gradient-8)"/><path d="M13.17,9l2.54-1.21A45.35,45.35,0,0,0,2.15,0V2.72A42.44,42.44,0,0,1,13.17,9Z" style="fill-rule:evenodd;fill:url(#radial-gradient-10)"/><path d="M9.81,53.07a2.61,2.61,0,0,0-2.6-2.6V39.38a2.6,2.6,0,0,0,0-5.2V29.1A46.3,46.3,0,0,0,1.52,25V92.61H7.21V72a2.61,2.61,0,0,0,2.6-2.6h0a2.61,2.61,0,0,0-2.6-2.6V55.67A2.61,2.61,0,0,0,9.81,53.07Z" style="fill-rule:evenodd;fill:url(#radial-gradient-11)"/><path d="M7.21,38.63a1.85,1.85,0,1,0-1.85-1.85,1.85,1.85,0,0,0,1.85,1.85Z" style="fill-rule:evenodd;fill:url(#linear-gradient-9)"/><path d="M7.21,54.92a1.85,1.85,0,1,0-1.85-1.85,1.85,1.85,0,0,0,1.85,1.85Z" style="fill-rule:evenodd;fill:url(#linear-gradient-10)"/><path d="M7.21,71.21a1.85,1.85,0,1,0-1.85-1.85,1.85,1.85,0,0,0,1.85,1.85Z" style="fill-rule:evenodd;fill:url(#linear-gradient-11)"/><path d="M4,22.51a.9.9,0,1,1,1.09-1.42l1.81,1.39A.9.9,0,0,1,5.77,23.9L4,22.51Z" style="fill:url(#radial-gradient-12)"/><path d="M4.15,22.26,6,23.65a.58.58,0,0,0,.81-.11.58.58,0,0,0-.1-.81L4.86,21.34a.58.58,0,0,0-.71.92Z" style="fill:#17e4ff;fill-rule:evenodd;mix-blend-mode:screen"/><path d="M4.35,22,6.16,23.4a.27.27,0,0,0,.36,0,.26.26,0,0,0,0-.37L4.66,21.59a.27.27,0,0,0-.36.05.26.26,0,0,0,0,.37Z" style="fill:#fff;fill-rule:evenodd"/><path d="M4,18.09a.9.9,0,1,1,1.09-1.42l1.81,1.39a.9.9,0,0,1-1.09,1.42L4,18.09Z" style="fill:url(#radial-gradient-13)"/><path d="M4.15,17.84,6,19.23a.58.58,0,0,0,.81-.11.57.57,0,0,0-.1-.81L4.86,16.92a.58.58,0,0,0-.71.92Z" style="fill:#17e4ff;fill-rule:evenodd;mix-blend-mode:screen"/><path d="M4.35,17.58,6.16,19a.26.26,0,0,0,.36,0,.26.26,0,0,0,0-.37L4.66,17.17a.26.26,0,0,0-.36,0,.25.25,0,0,0,0,.36Z" style="fill:#fff;fill-rule:evenodd"/><path d="M4,13.67a.9.9,0,1,1,1.09-1.42l1.81,1.39A.88.88,0,0,1,7,14.89a.89.89,0,0,1-1.25.17L4,13.67Z" style="fill:url(#radial-gradient-14)"/><path d="M4.15,13.42,6,14.81a.58.58,0,0,0,.81-.11.57.57,0,0,0-.1-.81L4.86,12.5a.57.57,0,0,0-.81.1.59.59,0,0,0,.1.82Z" style="fill:#17e4ff;fill-rule:evenodd;mix-blend-mode:screen"/><path d="M4.35,13.16l1.81,1.39a.26.26,0,0,0,.36,0,.26.26,0,0,0,0-.37L4.66,12.75a.26.26,0,1,0-.31.41Z" style="fill:#fff;fill-rule:evenodd"/><path d="M4,9.25A.9.9,0,0,1,5.05,7.82L6.86,9.21a.9.9,0,0,1-1.09,1.43L4,9.25Z" style="fill:url(#radial-gradient-15)"/><path d="M4.15,9,6,10.38a.58.58,0,0,0,.71-.91L4.86,8.08A.58.58,0,0,0,4.15,9Z" style="fill:#17e4ff;fill-rule:evenodd;mix-blend-mode:screen"/><path d="M4.35,8.74l1.81,1.39a.26.26,0,0,0,.31-.41L4.66,8.33a.26.26,0,1,0-.31.41Z" style="fill:#fff;fill-rule:evenodd"/><path d="M1.52,28.81v63.8H4v-62c-.61-.48-1.24-.94-1.88-1.38l-.63-.43Z" style="fill-rule:evenodd;fill:url(#linear-gradient-12)"/><path d="M7.5,34.2a2.66,2.66,0,0,1,.91,4.89A2.6,2.6,0,0,0,7.5,34.2Z" style="fill:#ccccd6;fill-rule:evenodd;mix-blend-mode:screen"/><path d="M7.5,50.49a2.66,2.66,0,0,1,.91,4.89,2.6,2.6,0,0,0-.91-4.89Z" style="fill:#ccccd6;fill-rule:evenodd;mix-blend-mode:screen"/><path d="M7.5,66.78a2.65,2.65,0,0,1,.91,4.88,2.59,2.59,0,0,0-.91-4.88Z" style="fill:#ccccd6;fill-rule:evenodd;mix-blend-mode:screen"/><path d="M7.21,38.3a1.52,1.52,0,1,0-1.52-1.52A1.52,1.52,0,0,0,7.21,38.3Z" style="fill-rule:evenodd;fill:url(#radial-gradient-16)"/><path d="M7.21,38.07a1.29,1.29,0,1,0-1.29-1.29,1.29,1.29,0,0,0,1.29,1.29Z" style="fill-rule:evenodd;mix-blend-mode:screen;fill:url(#radial-gradient-17)"/><path d="M7.28,35.73c.2.2.11.62-.2.94s-.74.4-.94.2-.11-.62.2-.94.74-.4.94-.2Z" style="fill-rule:evenodd;mix-blend-mode:screen;fill:url(#radial-gradient-18)"/><path d="M8.27,37.1c.11.1,0,.35-.2.56s-.46.31-.56.2,0-.35.2-.56.46-.3.56-.2Z" style="fill-rule:evenodd;mix-blend-mode:screen;fill:url(#radial-gradient-19)"/><path d="M7.21,54.59a1.52,1.52,0,1,0-1.52-1.52,1.52,1.52,0,0,0,1.52,1.52Z" style="fill-rule:evenodd;fill:url(#radial-gradient-20)"/><path d="M7.21,54.36a1.29,1.29,0,1,0-1.29-1.29,1.29,1.29,0,0,0,1.29,1.29Z" style="fill-rule:evenodd;mix-blend-mode:screen;fill:url(#radial-gradient-21)"/><path d="M7.28,52c.2.21.11.63-.2.94s-.74.41-.94.21-.11-.62.2-.94.74-.41.94-.21Z" style="fill-rule:evenodd;mix-blend-mode:screen;fill:url(#radial-gradient-22)"/><path d="M8.27,53.39c.11.1,0,.35-.2.56s-.46.3-.56.2,0-.35.2-.56.46-.31.56-.2Z" style="fill-rule:evenodd;mix-blend-mode:screen;fill:url(#radial-gradient-23)"/><path d="M7.21,70.88a1.52,1.52,0,1,0-1.52-1.52,1.52,1.52,0,0,0,1.52,1.52Z" style="fill-rule:evenodd;fill:url(#radial-gradient-24)"/><path d="M7.21,70.65a1.29,1.29,0,1,0-1.29-1.29,1.29,1.29,0,0,0,1.29,1.29Z" style="fill-rule:evenodd;mix-blend-mode:screen;fill:url(#radial-gradient-25)"/><path d="M7.28,68.3c.2.2.11.62-.2.94s-.74.41-.94.21-.11-.63.2-.94.74-.41.94-.21Z" style="fill-rule:evenodd;mix-blend-mode:screen;fill:url(#radial-gradient-26)"/><path d="M8.27,69.67c.11.1,0,.36-.2.57s-.46.3-.56.2,0-.36.2-.57.46-.3.56-.2Z" style="fill-rule:evenodd;mix-blend-mode:screen;fill:url(#radial-gradient-27)"/><path d="M1.52,29.32l.31.33a4.63,4.63,0,0,1,1.76,3.77V92.61H4v-62c-.61-.48-1.24-.94-1.88-1.38l-.63-.43v.51Z" style="fill-rule:evenodd;opacity:0.5;mix-blend-mode:multiply;fill:url(#New_Gradient_Swatch_165)"/><polygon points="6.89 92.61 7.21 72.58 7.53 92.61 6.89 92.61 6.89 92.61" style="fill-rule:evenodd;mix-blend-mode:screen;fill:url(#linear-gradient-13)"/><path d="M4,80.7V30.62c-.61-.48-1.24-.94-1.88-1.38L2,29.13c.61.51,1.31,1.12,1.83,1.61l.2,50Z" style="fill-rule:evenodd;mix-blend-mode:screen;fill:url(#linear-gradient-14)"/><path d="M13.17,59.24c.59-.69,2.05-1.6,2.54-1.47V52.16a5.12,5.12,0,0,1-2.54,1.47v5.61Z" style="fill-rule:evenodd;mix-blend-mode:screen;fill:url(#radial-gradient-28)"/><path d="M13.17,27.67c.59-.69,2.05-1.6,2.54-1.47V17.9a5,5,0,0,1-2.54,1.47v8.3Z" style="fill-rule:evenodd;mix-blend-mode:screen;fill:url(#radial-gradient-29)"/><path d="M13.17,47.18c.59-.69,2.05-1.6,2.54-1.47V41.78a5,5,0,0,1-2.54,1.47v3.93Z" style="fill-rule:evenodd;mix-blend-mode:screen;fill:url(#radial-gradient-30)"/><path d="M4,30.64,7.21,29.1A46.3,46.3,0,0,0,1.52,25v3.77l.63.43c.64.44,1.27.9,1.88,1.38v0Z" style="fill-rule:evenodd;fill:url(#radial-gradient-31)"/><path d="M2.15,26a44.06,44.06,0,0,1,4.62,3.3l.44-.21a45.59,45.59,0,0,0-5.06-3.67L1.52,25v.58q.31.18.63.39Z" style="fill-rule:evenodd;opacity:0.5;mix-blend-mode:screen;fill:url(#linear-gradient-15)"/><path d="M6.89,85.72A6.9,6.9,0,1,1,0,92.61a6.89,6.89,0,0,1,6.89-6.89Z" style="fill-rule:evenodd;fill:url(#radial-gradient-32)"/><path d="M6.89,86.34A6.28,6.28,0,1,1,.61,92.61a6.28,6.28,0,0,1,6.28-6.27Z" style="fill-rule:evenodd;fill:url(#radial-gradient-33)"/><path d="M4.13,87.83a5.39,5.39,0,0,1,7.33,2.09A5.39,5.39,0,0,1,9.6,97.31a5.39,5.39,0,0,1-7.33-2.08,5.4,5.4,0,0,1,1.86-7.4Z" style="fill:#6cb9cb;fill-rule:evenodd;opacity:0.5;mix-blend-mode:screen"/><path d="M6.89,87.27a5.35,5.35,0,1,1-5.35,5.34,5.34,5.34,0,0,1,5.35-5.34Z" style="fill-rule:evenodd;fill:url(#radial-gradient-34)"/><path d="M6.89,87.44A5.15,5.15,0,0,1,11.37,90l-9,5.17a5.18,5.18,0,0,1,4.48-7.76Z" style="fill-rule:evenodd;mix-blend-mode:screen;fill:url(#radial-gradient-35)"/><path d="M3.71,91.38A.37.37,0,0,1,3.34,91a.38.38,0,0,1,.37-.37h6.36a.38.38,0,0,1,.37.37.37.37,0,0,1-.37.36ZM3.33,93a.37.37,0,0,1,0-.73h7.12a.37.37,0,1,1,0,.73Zm.38,1.6a.38.38,0,0,1-.37-.37.37.37,0,0,1,.37-.36h6.36a.37.37,0,0,1,.37.36.38.38,0,0,1-.37.37Zm1.61,1.59A.37.37,0,0,1,5,95.81a.38.38,0,0,1,.37-.37H8.46a.37.37,0,0,1,.37.37.36.36,0,0,1-.37.36Zm0-6.38A.38.38,0,0,1,5,89.42a.37.37,0,0,1,.37-.36H8.46a.36.36,0,0,1,.37.36.37.37,0,0,1-.37.37Z" style="fill:url(#radial-gradient-36)"/><path d="M6.72,113.43l.51.5a.14.14,0,0,1,0,.17h0a.12.12,0,0,1-.17,0l-.51-.5a.14.14,0,0,1,0-.17h0a.11.11,0,0,1,.17,0Z" style="fill:#4d4d57;fill-rule:evenodd"/><path d="M6.89,112.25a1.51,1.51,0,1,1-1.51,1.51,1.52,1.52,0,0,1,1.51-1.51Z" style="fill-rule:evenodd;fill:url(#radial-gradient-37)"/><path d="M6.89,112.79a1,1,0,1,1-1,1,1,1,0,0,1,1-1Z" style="fill-rule:evenodd;fill:url(#linear-gradient-16)"/><path d="M6.89,112.94a.83.83,0,0,1,0,1.65.83.83,0,0,1,0-1.65Z" style="fill-rule:evenodd;fill:url(#linear-gradient-17)"/><path d="M6.89,113.09a.67.67,0,0,1,.67.67.67.67,0,1,1-1.34,0,.67.67,0,0,1,.67-.67Z" style="fill-rule:evenodd;fill:url(#radial-gradient-38)"/><path d="M6.72,113.43l.51.5a.14.14,0,0,1,0,.17h0a.12.12,0,0,1-.17,0l-.51-.5a.14.14,0,0,1,0-.17h0a.11.11,0,0,1,.17,0Z" style="fill:#252b3b;fill-rule:evenodd"/><path d="M6.89,121.06a1.51,1.51,0,1,1-1.51,1.51,1.52,1.52,0,0,1,1.51-1.51Z" style="fill-rule:evenodd;fill:url(#radial-gradient-39)"/><path d="M6.89,121.59a1,1,0,1,1,0,2,1,1,0,0,1,0-2Z" style="fill-rule:evenodd;fill:url(#linear-gradient-18)"/><path d="M6.89,121.75a.82.82,0,1,1,0,1.64.82.82,0,1,1,0-1.64Z" style="fill-rule:evenodd;fill:url(#linear-gradient-19)"/><path d="M6.89,121.9a.67.67,0,1,1-.67.67.67.67,0,0,1,.67-.67Z" style="fill-rule:evenodd;fill:url(#radial-gradient-40)"/><path d="M6.53,122.67l.59-.4a.13.13,0,0,1,.17,0h0a.12.12,0,0,1,0,.16l-.59.39a.12.12,0,0,1-.17,0h0a.12.12,0,0,1,0-.16Z" style="fill:#252b3b;fill-rule:evenodd"/></g></g></g></svg>