<svg xmlns="http://www.w3.org/2000/svg" xmlns:xlink="http://www.w3.org/1999/xlink" viewBox="0 0 28.95 137.24"><defs><linearGradient id="linear-gradient" x1="10.17" y1="75.95" x2="10.17" gradientUnits="userSpaceOnUse"><stop offset="0" stop-color="#b8d0de"/><stop offset="1" stop-color="#606791"/></linearGradient><linearGradient id="linear-gradient-2" x1="18.68" y1="69.82" x2="18.68" gradientUnits="userSpaceOnUse"><stop offset="0.01" stop-color="#68738a"/><stop offset="1" stop-color="#4e5475"/></linearGradient><linearGradient id="linear-gradient-3" x1="19.83" y1="97.46" x2="19.83" y2="69.77" gradientUnits="userSpaceOnUse"><stop offset="0" stop-color="#53577a"/><stop offset="1" stop-color="#373c52"/></linearGradient><linearGradient id="linear-gradient-4" x1="9.04" y1="97.46" x2="9.04" y2="75.62" gradientUnits="userSpaceOnUse"><stop offset="0" stop-color="#a7b3d6"/><stop offset="1" stop-color="#505578"/></linearGradient><radialGradient id="radial-gradient" cx="1.8" cy="89.11" r="26.75" gradientUnits="userSpaceOnUse"><stop offset="0" stop-color="#979bb8"/><stop offset="1" stop-color="#424370"/></radialGradient><radialGradient id="radial-gradient-2" cx="14.64" cy="74.02" r="66.1" gradientUnits="userSpaceOnUse"><stop offset="0" stop-color="#979bb8"/><stop offset="1" stop-color="#4b5b80"/></radialGradient><radialGradient id="radial-gradient-3" cx="27.61" cy="72.21" r="39.13" gradientUnits="userSpaceOnUse"><stop offset="0" stop-color="#5e627d"/><stop offset="1" stop-color="#3a4061"/></radialGradient><radialGradient id="radial-gradient-4" cx="14.55" cy="88.39" r="26.16" gradientUnits="userSpaceOnUse"><stop offset="0" stop-color="#6d7291"/><stop offset="1" stop-color="#3a3a61"/></radialGradient><linearGradient id="linear-gradient-5" x1="13.36" y1="57.11" x2="15.59" y2="57.11" gradientUnits="userSpaceOnUse"><stop offset="0" stop-color="#313752"/><stop offset="1" stop-color="#4e5a7a"/></linearGradient><linearGradient id="linear-gradient-6" x1="14.47" y1="57.11" x2="15.59" y2="57.11" gradientUnits="userSpaceOnUse"><stop offset="0" stop-color="#424370"/><stop offset="1" stop-color="#979bb8"/></linearGradient><radialGradient id="radial-gradient-5" cx="-14.74" cy="44.52" r="45.57" gradientUnits="userSpaceOnUse"><stop offset="0.38"/><stop offset="0.44" stop-color="#030409"/><stop offset="0.55" stop-color="#0d1120"/><stop offset="0.69" stop-color="#1c2447"/><stop offset="0.85" stop-color="#303f7c"/><stop offset="1" stop-color="#475db5"/></radialGradient><linearGradient id="linear-gradient-7" x1="14.38" y1="97.46" x2="14.38" gradientUnits="userSpaceOnUse"><stop offset="0" stop-color="#fff"/><stop offset="1" stop-color="#36ff62"/></linearGradient><radialGradient id="radial-gradient-6" cx="16.82" cy="130.44" r="11.85" gradientUnits="userSpaceOnUse"><stop offset="0" stop-color="#31a31a"/><stop offset="1" stop-color="#1e7000"/></radialGradient><radialGradient id="New_Gradient_Swatch_3" cx="11.47" cy="131.06" r="9.53" gradientUnits="userSpaceOnUse"><stop offset="0" stop-color="#78e05b"/><stop offset="1" stop-color="#0d9c00"/></radialGradient><radialGradient id="radial-gradient-7" cx="10.17" cy="130.24" r="6.42" xlink:href="#radial-gradient-6"/><radialGradient id="New_Gradient_Swatch_3-2" cx="14.12" cy="133.96" r="8.31" xlink:href="#New_Gradient_Swatch_3"/><radialGradient id="New_Gradient_Swatch_3-3" cx="25.01" cy="139.33" r="12.75" xlink:href="#New_Gradient_Swatch_3"/><radialGradient id="radial-gradient-8" cx="13.37" cy="135.43" r="8.45" xlink:href="#radial-gradient-6"/><radialGradient id="radial-gradient-9" cx="14.51" cy="137.12" r="13.07" gradientUnits="userSpaceOnUse"><stop offset="0" stop-color="#89ff68"/><stop offset="1" stop-color="#0d9c00"/></radialGradient><radialGradient id="New_Gradient_Swatch_3-4" cx="11.46" cy="139.95" r="12.15" xlink:href="#New_Gradient_Swatch_3"/><radialGradient id="radial-gradient-10" cx="10.28" cy="134.5" r="5.57" xlink:href="#radial-gradient-6"/><radialGradient id="radial-gradient-11" cx="10.91" cy="137.16" r="9" xlink:href="#radial-gradient-6"/><radialGradient id="New_Gradient_Swatch_145" cx="15.76" cy="130.48" r="10.45" gradientUnits="userSpaceOnUse"><stop offset="0.31"/><stop offset="1" stop-color="#c9fc10"/></radialGradient><linearGradient id="linear-gradient-8" x1="11.08" y1="126.48" x2="17.79" y2="126.48" gradientUnits="userSpaceOnUse"><stop offset="0" stop-color="#53557f"/><stop offset="0.27" stop-color="#979bb8"/><stop offset="1" stop-color="#424370"/></linearGradient><linearGradient id="linear-gradient-9" x1="11.08" y1="126.36" x2="11.83" y2="126.36" gradientUnits="userSpaceOnUse"><stop offset="0" stop-color="#787e8f"/><stop offset="0.54" stop-color="#c3c6cd"/><stop offset="1" stop-color="#fff"/></linearGradient><linearGradient id="linear-gradient-10" x1="16.05" y1="126.44" x2="17.79" y2="126.44" gradientUnits="userSpaceOnUse"><stop offset="0" stop-color="#fff"/><stop offset="0.46" stop-color="#c3c6cd"/><stop offset="1" stop-color="#787e8f"/></linearGradient><radialGradient id="radial-gradient-12" cx="11.3" cy="126.86" r="5.59" gradientUnits="userSpaceOnUse"><stop offset="0" stop-color="#25c43c"/><stop offset="0.02" stop-color="#24c03b"/><stop offset="0.28" stop-color="#177c26"/><stop offset="0.52" stop-color="#0d4716"/><stop offset="0.73" stop-color="#06200a"/><stop offset="0.9" stop-color="#020903"/><stop offset="1"/></radialGradient><radialGradient id="radial-gradient-13" cx="13.25" cy="127.67" r="7.52" xlink:href="#radial-gradient-12"/><radialGradient id="radial-gradient-14" cx="12.68" cy="126.62" r="5.3" xlink:href="#radial-gradient"/><linearGradient id="linear-gradient-11" x1="11.45" y1="123.38" x2="17.42" y2="123.38" gradientUnits="userSpaceOnUse"><stop offset="0" stop-color="#443573"/><stop offset="0.05" stop-color="#504586"/><stop offset="0.12" stop-color="#5c5499"/><stop offset="0.2" stop-color="#645ea4"/><stop offset="0.27" stop-color="#6661a8"/><stop offset="0.41" stop-color="#585193"/><stop offset="0.66" stop-color="#433872"/><stop offset="0.86" stop-color="#36295e"/><stop offset="1" stop-color="#312457"/></linearGradient><linearGradient id="linear-gradient-12" x1="11.38" y1="120.6" x2="17.48" y2="120.6" xlink:href="#linear-gradient-11"/><linearGradient id="linear-gradient-13" x1="11.31" y1="117.98" x2="17.55" y2="117.98" xlink:href="#linear-gradient-11"/><linearGradient id="linear-gradient-14" x1="11.24" y1="116.08" x2="17.62" y2="116.08" xlink:href="#linear-gradient-11"/><linearGradient id="linear-gradient-15" x1="11.18" y1="112.93" x2="17.68" y2="112.93" xlink:href="#linear-gradient-11"/><linearGradient id="linear-gradient-16" x1="11.11" y1="110.37" x2="17.75" y2="110.37" xlink:href="#linear-gradient-11"/><linearGradient id="linear-gradient-17" x1="11.04" y1="106.89" x2="17.82" y2="106.89" xlink:href="#linear-gradient-11"/><linearGradient id="linear-gradient-18" x1="10.98" y1="104.32" x2="17.89" y2="104.32" xlink:href="#linear-gradient-11"/><linearGradient id="linear-gradient-19" x1="10.91" y1="101.59" x2="17.95" y2="101.59" xlink:href="#linear-gradient-11"/><linearGradient id="linear-gradient-20" x1="15.74" y1="101.56" x2="17.95" y2="101.56" gradientUnits="userSpaceOnUse"><stop offset="0" stop-color="#fff"/><stop offset="1" stop-color="#84edaf"/></linearGradient><linearGradient id="linear-gradient-21" x1="15.67" y1="105.05" x2="17.89" y2="105.05" xlink:href="#linear-gradient-20"/><linearGradient id="linear-gradient-22" x1="15.63" y1="107.85" x2="17.82" y2="107.85" xlink:href="#linear-gradient-20"/><linearGradient id="linear-gradient-23" x1="15.56" y1="110.34" x2="17.75" y2="110.34" xlink:href="#linear-gradient-20"/><linearGradient id="linear-gradient-24" x1="15.5" y1="113.49" x2="17.68" y2="113.49" xlink:href="#linear-gradient-20"/><linearGradient id="linear-gradient-25" x1="15.44" y1="116.49" x2="17.62" y2="116.49" xlink:href="#linear-gradient-20"/><linearGradient id="linear-gradient-26" x1="15.4" y1="118.71" x2="17.55" y2="118.71" xlink:href="#linear-gradient-20"/><linearGradient id="linear-gradient-27" x1="15.34" y1="120.95" x2="17.48" y2="120.95" xlink:href="#linear-gradient-20"/><linearGradient id="linear-gradient-28" x1="15.28" y1="123.47" x2="17.42" y2="123.47" xlink:href="#linear-gradient-20"/><linearGradient id="linear-gradient-29" x1="10.91" y1="101.48" x2="11.98" y2="101.48" gradientUnits="userSpaceOnUse"><stop offset="0" stop-color="#6d539c"/><stop offset="1" stop-color="#fff"/></linearGradient><linearGradient id="linear-gradient-30" x1="10.98" y1="104.6" x2="12.03" y2="104.6" xlink:href="#linear-gradient-29"/><linearGradient id="linear-gradient-31" x1="11.04" y1="107.29" x2="12.1" y2="107.29" xlink:href="#linear-gradient-29"/><linearGradient id="linear-gradient-32" x1="11.11" y1="110.65" x2="12.17" y2="110.65" xlink:href="#linear-gradient-29"/><linearGradient id="linear-gradient-33" x1="11.18" y1="113.4" x2="12.22" y2="113.4" xlink:href="#linear-gradient-29"/><linearGradient id="linear-gradient-34" x1="11.24" y1="116.03" x2="12.28" y2="116.03" xlink:href="#linear-gradient-29"/><linearGradient id="linear-gradient-35" x1="11.31" y1="118.63" x2="12.32" y2="118.63" xlink:href="#linear-gradient-29"/><linearGradient id="linear-gradient-36" x1="11.38" y1="121.09" x2="12.39" y2="121.09" xlink:href="#linear-gradient-29"/><linearGradient id="linear-gradient-37" x1="11.45" y1="123.82" x2="12.44" y2="123.82" xlink:href="#linear-gradient-29"/><linearGradient id="linear-gradient-38" x1="11.45" y1="122.41" x2="17.42" y2="122.41" gradientUnits="userSpaceOnUse"><stop offset="0" stop-color="#986fde"/><stop offset="1" stop-color="#fff"/></linearGradient><linearGradient id="linear-gradient-39" x1="11.38" y1="119.85" x2="17.48" y2="119.85" xlink:href="#linear-gradient-38"/><linearGradient id="linear-gradient-40" x1="11.31" y1="117.98" x2="17.55" y2="117.98" xlink:href="#linear-gradient-38"/><linearGradient id="linear-gradient-41" x1="11.24" y1="114.94" x2="17.62" y2="114.94" xlink:href="#linear-gradient-38"/><linearGradient id="linear-gradient-42" x1="11.18" y1="112.3" x2="17.68" y2="112.3" xlink:href="#linear-gradient-38"/><linearGradient id="linear-gradient-43" x1="11.11" y1="108.84" x2="17.75" y2="108.84" xlink:href="#linear-gradient-38"/><linearGradient id="linear-gradient-44" x1="11.04" y1="106.39" x2="17.82" y2="106.39" xlink:href="#linear-gradient-38"/><linearGradient id="linear-gradient-45" x1="10.98" y1="103.64" x2="17.89" y2="103.64" xlink:href="#linear-gradient-38"/><linearGradient id="linear-gradient-46" x1="10.03" y1="93.99" x2="18.95" y2="93.99" gradientUnits="userSpaceOnUse"><stop offset="0" stop-color="#292a45"/><stop offset="1" stop-color="#4c5070"/></linearGradient><linearGradient id="linear-gradient-47" x1="10.03" y1="93.99" x2="14.49" y2="93.99" gradientUnits="userSpaceOnUse"><stop offset="0" stop-color="#424370"/><stop offset="1" stop-color="#5e638a"/></linearGradient><linearGradient id="linear-gradient-48" x1="12.26" y1="97.08" x2="36.15" y2="97.08" xlink:href="#linear-gradient-46"/><radialGradient id="radial-gradient-15" cx="17.38" cy="93.38" r="14.9" xlink:href="#radial-gradient"/><linearGradient id="linear-gradient-49" x1="5.55" y1="97.94" x2="14.47" y2="97.94" gradientUnits="userSpaceOnUse"><stop offset="0"/><stop offset="0.11" stop-color="#030409"/><stop offset="0.28" stop-color="#0d1120"/><stop offset="0.5" stop-color="#1c2447"/><stop offset="0.76" stop-color="#303f7c"/><stop offset="1" stop-color="#475db5"/></linearGradient><linearGradient id="linear-gradient-50" x1="14.49" y1="98.84" x2="22.43" y2="98.84" xlink:href="#linear-gradient-9"/></defs><g style="isolation:isolate"><g id="Calque_2" data-name="Calque 2"><g id="Layer_1" data-name="Layer 1"><path d="M8,75.32a17.49,17.49,0,0,0,1.69-8.13l.24-11.62q.12-5.93.34-11.84c.32-8.63.8-17.35,1.82-25.93.41-3.42.9-6.88,1.64-10.26.21-1,.46-2,.75-3.09V0h0C10.19,8.66,8.79,33.88,8.35,55.54L8.11,67.16C8,72.08,7.17,73.76,5.86,76l2-.33c.06-.1.11-.2.16-.3Z" style="fill-rule:evenodd;fill:url(#linear-gradient)"/><path d="M19.21,61.75c.09,3.16-.06,5.54,1.7,8l2,0c-2.06-2.26-2-3.89-2.13-8.11l-.18-6.17C20,33.89,18.75,8.67,14.47,0V4.48c.29,1,.53,2.08.74,3.06.72,3.38,1.21,6.84,1.6,10.26,1,8.59,1.46,17.31,1.82,25.94q.24,5.91.4,11.84l.18,6.17Z" style="fill-rule:evenodd;fill:url(#linear-gradient-2)"/><path d="M20.91,69.77A12.64,12.64,0,0,0,17.52,76a30.26,30.26,0,0,0-.17,3.3l-.59,18.15h1.56l.59-18.1c.11-3.48-.3-4.84,4-9.54l-2,0Z" style="fill-rule:evenodd;fill:url(#linear-gradient-3)"/><path d="M11.75,82.86c-.08-2.38-1.93-5.39-3.93-7.24l-2,.33c1.86,1.31,4.25,4.54,4.33,7l.47,14.56h1.56l-.47-14.6Z" style="fill-rule:evenodd;fill:url(#linear-gradient-4)"/><path d="M7.82,75.62c2,1.85,3.85,4.86,3.93,7.24l.47,14.6h2.27l0-93v0c-.29,1-.54,2.1-.75,3.09-.74,3.38-1.23,6.84-1.64,10.26-1,8.58-1.5,17.3-1.82,25.93Q10,49.64,9.91,55.57L9.67,67.19A17.49,17.49,0,0,1,8,75.32c-.05.1-.1.2-.16.3Z" style="fill:#757575;fill-rule:evenodd"/><path d="M14.47,4.48l0,93h2.27l.59-18.15a30.26,30.26,0,0,1,.17-3.3,12.64,12.64,0,0,1,3.39-6.24c-1.76-2.48-1.61-4.86-1.7-8L19,55.58q-.16-5.92-.4-11.84c-.36-8.63-.82-17.35-1.82-25.94-.39-3.42-.88-6.88-1.6-10.26-.21-1-.45-2-.74-3.06Z" style="fill:#4d4d4d;fill-rule:evenodd"/><path d="M13.4,71.57c-1.16,2.33-3.83,3.49-5.58,4.05,2,1.85,3.85,4.86,3.93,7.24l.47,14.6h1.14l0-25.89Z" style="fill-rule:evenodd;fill:url(#radial-gradient)"/><path d="M7.82,75.62c1.75-.56,4.42-1.72,5.58-4.05l.08-40.29a120.57,120.57,0,0,1,1-14.52V4.45c-.29,1-.54,2.1-.75,3.09-.74,3.38-1.23,6.84-1.64,10.26-1,8.58-1.5,17.3-1.82,25.93Q10,49.64,9.91,55.57L9.67,67.19A17.49,17.49,0,0,1,8,75.32c-.05.1-.1.2-.16.3Z" style="fill-rule:evenodd;fill:url(#radial-gradient-2)"/><path d="M15.53,66.1a13,13,0,0,0,5.38,3.67c-1.76-2.48-1.61-4.86-1.7-8L19,55.58q-.16-5.92-.4-11.84c-.36-8.63-.82-17.35-1.82-25.94-.39-3.42-.88-6.88-1.6-10.26-.21-1-.45-2-.74-3.06V16.76a118.43,118.43,0,0,1,1,14.52l.06,34.82Z" style="fill-rule:evenodd;fill:url(#radial-gradient-3)"/><path d="M20.91,69.77a13,13,0,0,1-5.38-3.67l.06,31.36h1.17l.59-18.15a30.26,30.26,0,0,1,.17-3.3,12.64,12.64,0,0,1,3.39-6.24Z" style="fill-rule:evenodd;fill:url(#radial-gradient-4)"/><path d="M13.36,97.46h2.23l-.12-66.18a118.43,118.43,0,0,0-1-14.52,120.57,120.57,0,0,0-1,14.52l-.12,66.18Z" style="fill-rule:evenodd;fill:url(#linear-gradient-5)"/><path d="M14.47,16.76v80.7h1.12l-.12-66.18a118.43,118.43,0,0,0-1-14.52Z" style="fill-rule:evenodd;fill:url(#linear-gradient-6)"/><path d="M12.79,66.52c-.06,3.4-.83,7.15-4.32,8.88,1.7-.62,3.91-1.77,4.93-3.83l.08-40.29-.69,35.24Z" style="fill-rule:evenodd;mix-blend-mode:screen;fill:url(#radial-gradient-5)"/><path d="M20.77,61.71l-.18-6.17C20,33.89,18.75,8.67,14.47,0h0C10.19,8.66,8.79,33.88,8.35,55.54L8.11,67.16C8,72.08,7.17,73.76,5.86,76c1.86,1.31,4.25,4.54,4.33,7l.47,14.56h7.66l.59-18.1c.11-3.48-.3-4.84,4-9.54C20.84,67.56,20.89,65.93,20.77,61.71Z" style="fill-rule:evenodd;opacity:0.5;mix-blend-mode:multiply;fill:url(#linear-gradient-7)"/><path d="M14.69,128c.81-.17,1.72-.57,2.51-.75a5,5,0,0,1,.9.8,10.13,10.13,0,0,0-1.13,2l-1.1-.25A18.67,18.67,0,0,0,14.69,128Z" style="fill-rule:evenodd;fill:url(#radial-gradient-6)"/><path d="M10.44,130a16.66,16.66,0,0,0,1-2.38c1.09.12,2.26.18,3.26.33a18.67,18.67,0,0,1,1.18,1.81c-.45.48-.92.95-1.4,1.41l-3.74-.58-.29-.59Z" style="fill-rule:evenodd;fill:url(#New_Gradient_Swatch_3)"/><path d="M10.44,130a6.54,6.54,0,0,1-.35-.64,10.18,10.18,0,0,1,1.12-1.78l.22,0a16.66,16.66,0,0,1-1,2.38Z" style="fill-rule:evenodd;fill:url(#radial-gradient-7)"/><path d="M17,130.05a10.13,10.13,0,0,1,1.13-2c.26,1.08.49,2.2.76,3.28L18,134.23,16.9,132a16.53,16.53,0,0,1,.07-2Z" style="fill-rule:evenodd;fill:url(#New_Gradient_Swatch_3-2)"/><path d="M16.11,133.66A15.2,15.2,0,0,0,16.9,132l1.13,2.2-.58,1.58c-.52.29-1,.59-1.51.9a22.37,22.37,0,0,1,.17-3.05Z" style="fill-rule:evenodd;fill:url(#New_Gradient_Swatch_3-3)"/><path d="M14.47,131.21c.48-.46.95-.93,1.4-1.41l1.1.25a16.53,16.53,0,0,0-.07,2,15.2,15.2,0,0,1-.79,1.63l-.84.07-.8-2.52Z" style="fill-rule:evenodd;fill:url(#radial-gradient-8)"/><path d="M15.1,134a.9.9,0,0,1,.17-.26l.84-.07a22.37,22.37,0,0,0-.17,3.05c-.59.19-1.16.37-1.73.53l-.41-.42c-.08-.16-.05-.3.11-.59L15.1,134Z" style="fill-rule:evenodd;fill:url(#radial-gradient-9)"/><path d="M10.73,130.63l3.74.58.8,2.52a.9.9,0,0,0-.17.26l-1.19,2.24c-.16.29-.19.43-.11.59l-3.42-2.68.35-3.51Z" style="fill-rule:evenodd;fill:url(#New_Gradient_Swatch_3-4)"/><path d="M10.38,134.14l-.12,0L10,130.26c0-.28.05-.57.09-.86a6.54,6.54,0,0,0,.35.64l.29.59-.35,3.51Z" style="fill-rule:evenodd;fill:url(#radial-gradient-10)"/><path d="M10.26,134.09l.12,0,3.42,2.68.41.42c-1-.59-2-1.18-2.9-1.8l-1.05-1.35Z" style="fill-rule:evenodd;fill:url(#radial-gradient-11)"/><path d="M11.24,130.71a1.37,1.37,0,0,1,.69.65l2.46,4-.48.91c-.16.29-.19.43-.11.59l-3.42-2.68.35-3.51.51.08Z" style="fill-rule:evenodd;mix-blend-mode:screen;fill:url(#New_Gradient_Swatch_145)"/><path d="M13.1,131a11.92,11.92,0,0,0,1.35.14,11.88,11.88,0,0,0,1.08-1c-.14.16-.95,1-1,1.07a13.49,13.49,0,0,0,.34,1.31,10.72,10.72,0,0,0-.47-1.27A10,10,0,0,0,13.1,131Z" style="fill:#fff;fill-rule:evenodd"/><path d="M15.06,133.06c0,.11.18.57.18.65a.14.14,0,0,1-.05.09c-.2.28-.42.8-.59,1.11.19-.31.41-.79.63-1.08l.08-.08s.57-.07.64-.08a2.21,2.21,0,0,1-.63,0,2.44,2.44,0,0,1-.26-.61Z" style="fill:#fff;fill-rule:evenodd"/><path d="M11.1,128.58c-.19.45-.4.9-.64,1.34,0,0,0,0,0,0l0,0-.24-.36c.08.14.15.29.22.43a3.11,3.11,0,0,1,.31.64.08.08,0,0,1,0,0l-.18,2c.07-.65.14-1.3.22-1.95,0,0,0-.05,0-.06h.07l1.12.16-1.1-.2a.15.15,0,0,1-.09,0,2,2,0,0,1-.29-.56.24.24,0,0,1,0-.08,13.73,13.73,0,0,0,.6-1.38Z" style="fill:#fff;fill-rule:evenodd"/><path d="M12,135.44l1.7,1.29c-.06-.21.11-.43.27-.72l.48-.86L14,136a1.43,1.43,0,0,0-.25.62c0,.19.16.3.3.45L12,135.44Z" style="fill:#fff;fill-rule:evenodd"/><path d="M11.29,124.69h6.28c0,.47.07.94.1,1.43s.08,1,.12,1.52c0,.18-.36.33-1,.44a13.16,13.16,0,0,1-2.4.19,13,13,0,0,1-2.39-.19c-.61-.11-1-.26-1-.44,0-.52.07-1,.11-1.52s.07-1,.1-1.43Z" style="fill-rule:evenodd;fill:url(#linear-gradient-8)"/><path d="M11.64,127.84c0-.55.07-1.1.1-1.63l.09-1.52h-.54c0,.47-.07.94-.1,1.43s-.07,1-.11,1.52c0,.14.23.27.64.38a.29.29,0,0,1-.08-.18Z" style="fill-rule:evenodd;mix-blend-mode:multiply;fill:url(#linear-gradient-9)"/><path d="M16.3,124.69c0,.5.05,1,.07,1.52s.05,1.08.07,1.63c0,.13-.14.25-.39.35a6.94,6.94,0,0,0,1.27-.22c.3-.1.47-.21.47-.33,0-.52-.08-1-.12-1.52s-.07-1-.1-1.43Z" style="fill-rule:evenodd;mix-blend-mode:multiply;fill:url(#linear-gradient-10)"/><path d="M12.32,124.69c0,.54-.06,1.08-.08,1.64s-.06,1.17-.09,1.77c.25.05.54.08.86.11s.66,0,1,0c0-.63,0-1.25,0-1.85s0-1.16,0-1.72H12.32Z" style="fill-rule:evenodd;mix-blend-mode:screen;fill:url(#radial-gradient-12)"/><path d="M14.55,124.69c0,.56,0,1.13,0,1.72v1.86c.33,0,.65,0,.95,0,0-.63,0-1.25,0-1.84s0-1.15,0-1.71Z" style="fill-rule:evenodd;mix-blend-mode:screen;fill:url(#radial-gradient-13)"/><path d="M14.43,124.16a13.33,13.33,0,0,1,2.2.16c.57.09.93.23.94.37s-.33.29-.9.39a13.68,13.68,0,0,1-2.24.16,13.68,13.68,0,0,1-2.24-.16c-.56-.1-.91-.24-.9-.39s.37-.28.94-.37a13.42,13.42,0,0,1,2.2-.16Z" style="fill-rule:evenodd;fill:url(#radial-gradient-14)"/><path d="M17.42,124.58c0,.38-1.34.69-3,.69s-3-.31-3-.69V121.5h6v3.08Z" style="fill-rule:evenodd;fill:url(#linear-gradient-11)"/><path d="M17.48,121.54c0,.39-1.36.9-3.05,1.15s-3,.11-3-.28v-3.15l6.1-.87v3.15Z" style="fill-rule:evenodd;fill:url(#linear-gradient-12)"/><path d="M17.55,119.23c0,.4-1.4.73-3.12.73s-3.12-.33-3.12-.73V116h6.24v3.22Z" style="fill-rule:evenodd;fill:url(#linear-gradient-13)"/><path d="M17.62,117.35c0,.41-1.43.74-3.19.74s-3.19-.33-3.19-.74v-3.29h6.38v3.29Z" style="fill-rule:evenodd;fill:url(#linear-gradient-14)"/><path d="M17.68,114.77c0,.42-1.45.58-3.25.37s-3.25-.73-3.25-1.15v-3.36l6.5.78v3.36Z" style="fill-rule:evenodd;fill:url(#linear-gradient-15)"/><path d="M17.75,111.59c0,.43-1.48.86-3.32,1s-3.32-.15-3.32-.58v-3.42l6.64-.39v3.43Z" style="fill-rule:evenodd;fill:url(#linear-gradient-16)"/><path d="M17.82,108.06c0,.44-1.52.93-3.39,1.09S11,109.1,11,108.66v-3.49l6.78-.6v3.49Z" style="fill-rule:evenodd;fill:url(#linear-gradient-17)"/><path d="M17.89,106.55c0,.44-1.55.52-3.46.16s-3.45-1-3.45-1.44v-3.56L17.89,103v3.57Z" style="fill-rule:evenodd;fill:url(#linear-gradient-18)"/><path d="M18,103c0,.45-1.57.82-3.52.82s-3.52-.37-3.52-.82V99.36h7V103Z" style="fill-rule:evenodd;fill:url(#linear-gradient-19)"/><path d="M15.74,103.76a4,4,0,0,0,2.15-.6A.27.27,0,0,0,18,103V99.36H15.83c.32,1.09.37,3.78-.09,4.4Z" style="fill-rule:evenodd;opacity:0.35000000000000003;mix-blend-mode:multiply;fill:url(#linear-gradient-20)"/><path d="M17.89,103.16a4,4,0,0,1-2.15.6,4.78,4.78,0,0,1-.07,3.13,3.7,3.7,0,0,0,2.15-.19.26.26,0,0,0,.07-.15v-3.39Z" style="fill-rule:evenodd;opacity:0.35000000000000003;mix-blend-mode:multiply;fill:url(#linear-gradient-21)"/><path d="M17.82,106.7a3.7,3.7,0,0,1-2.15.19,2.6,2.6,0,0,1,0,2.1,4.33,4.33,0,0,0,2.12-.76.25.25,0,0,0,.07-.17V106.7Z" style="fill-rule:evenodd;opacity:0.35000000000000003;mix-blend-mode:multiply;fill:url(#linear-gradient-22)"/><path d="M17.75,108.23a4.33,4.33,0,0,1-2.12.76,5.58,5.58,0,0,1-.07,3.45,4.12,4.12,0,0,0,2.12-.69.21.21,0,0,0,.07-.16v-3.36Z" style="fill-rule:evenodd;opacity:0.35000000000000003;mix-blend-mode:multiply;fill:url(#linear-gradient-23)"/><path d="M17.68,111.75a4.12,4.12,0,0,1-2.12.69,4.15,4.15,0,0,1-.06,2.78,3.66,3.66,0,0,0,2.12-.3.2.2,0,0,0,.06-.15v-3Z" style="fill-rule:evenodd;opacity:0.35000000000000003;mix-blend-mode:multiply;fill:url(#linear-gradient-24)"/><path d="M17.62,114.92a3.66,3.66,0,0,1-2.12.3,3.45,3.45,0,0,1-.06,2.83,3.93,3.93,0,0,0,2.11-.55.23.23,0,0,0,.07-.15v-2.43Z" style="fill-rule:evenodd;opacity:0.35000000000000003;mix-blend-mode:multiply;fill:url(#linear-gradient-25)"/><path d="M17.55,117.5a3.93,3.93,0,0,1-2.11.55,2.21,2.21,0,0,1,0,1.87,3.85,3.85,0,0,0,2.08-.54.21.21,0,0,0,.07-.15V117.5Z" style="fill-rule:evenodd;opacity:0.35000000000000003;mix-blend-mode:multiply;fill:url(#linear-gradient-26)"/><path d="M17.48,119.38a3.85,3.85,0,0,1-2.08.54,4.89,4.89,0,0,1-.06,2.6,4.51,4.51,0,0,0,2.08-.82.29.29,0,0,0,.06-.16v-2.16Z" style="fill-rule:evenodd;opacity:0.35000000000000003;mix-blend-mode:multiply;fill:url(#linear-gradient-27)"/><path d="M17.42,121.7a4.51,4.51,0,0,1-2.08.82,4,4,0,0,1-.06,2.72c1.24-.08,2.14-.35,2.14-.66V121.7Z" style="fill-rule:evenodd;opacity:0.35000000000000003;mix-blend-mode:multiply;fill:url(#linear-gradient-28)"/><path d="M11,103.16a2,2,0,0,0,1,.43,12.07,12.07,0,0,1-.09-4.23h-1V103a.23.23,0,0,0,.07.16Z" style="fill-rule:evenodd;opacity:0.25;mix-blend-mode:multiply;fill:url(#linear-gradient-29)"/><path d="M12,103.59a2,2,0,0,1-1-.43v2.11a.27.27,0,0,0,.06.17,2.63,2.63,0,0,0,1,.61,4.56,4.56,0,0,1,0-2.46Z" style="fill-rule:evenodd;opacity:0.25;mix-blend-mode:multiply;fill:url(#linear-gradient-30)"/><path d="M12,106.05a2.63,2.63,0,0,1-1-.61v3.22a.26.26,0,0,0,.07.16,1.87,1.87,0,0,0,1,.32,7.24,7.24,0,0,1-.07-3.09Z" style="fill-rule:evenodd;opacity:0.25;mix-blend-mode:multiply;fill:url(#linear-gradient-31)"/><path d="M12.1,109.14a1.87,1.87,0,0,1-1-.32V112a.21.21,0,0,0,.07.16,1.91,1.91,0,0,0,1,.35,8.67,8.67,0,0,1-.07-3.34Z" style="fill-rule:evenodd;opacity:0.25;mix-blend-mode:multiply;fill:url(#linear-gradient-32)"/><path d="M12.17,112.48a1.91,1.91,0,0,1-1-.35V114a.27.27,0,0,0,.06.16,2.2,2.2,0,0,0,1,.52,3.8,3.8,0,0,1-.05-2.19Z" style="fill-rule:evenodd;opacity:0.25;mix-blend-mode:multiply;fill:url(#linear-gradient-33)"/><path d="M12.22,114.67a2.2,2.2,0,0,1-1-.52v3.2a.23.23,0,0,0,.07.15,1.93,1.93,0,0,0,1,.4,8.35,8.35,0,0,1-.06-3.23Z" style="fill-rule:evenodd;opacity:0.25;mix-blend-mode:multiply;fill:url(#linear-gradient-34)"/><path d="M12.28,117.9a1.93,1.93,0,0,1-1-.4v1.73a.26.26,0,0,0,.07.15,2,2,0,0,0,.94.39,3.47,3.47,0,0,1,0-1.87Z" style="fill-rule:evenodd;opacity:0.25;mix-blend-mode:multiply;fill:url(#linear-gradient-35)"/><path d="M12.32,119.77a2,2,0,0,1-.94-.39v3a.17.17,0,0,0,.07.14,1.74,1.74,0,0,0,.94.25,5.87,5.87,0,0,1-.07-3Z" style="fill-rule:evenodd;opacity:0.25;mix-blend-mode:multiply;fill:url(#linear-gradient-36)"/><path d="M12.39,122.8a1.74,1.74,0,0,1-.94-.25v2c0,.2.38.39,1,.51-.34-.27-.26-1.72,0-2.29Z" style="fill-rule:evenodd;opacity:0.25;mix-blend-mode:multiply;fill:url(#linear-gradient-37)"/><path d="M14.43,123.11a5.49,5.49,0,0,0,3-.57v-.84a6.17,6.17,0,0,1-3,1,5.2,5.2,0,0,1-3-.14h0a5.38,5.38,0,0,0,3,.55Z" style="fill-rule:evenodd;mix-blend-mode:multiply;fill:url(#linear-gradient-38)"/><path d="M14.43,120.26c1.5.15,2.76,0,3.05-.27v-.61a5.53,5.53,0,0,1-3.05.58,5.55,5.55,0,0,1-3-.58h0a5.9,5.9,0,0,0,3,.87Z" style="fill-rule:evenodd;mix-blend-mode:multiply;fill:url(#linear-gradient-39)"/><path d="M14.43,118.4a5.5,5.5,0,0,0,3.12-.28v-.62a5.63,5.63,0,0,1-3.12.59,5.66,5.66,0,0,1-3.12-.59h0a6.08,6.08,0,0,0,3.12.89Z" style="fill-rule:evenodd;mix-blend-mode:multiply;fill:url(#linear-gradient-40)"/><path d="M14.43,115.45c1.57.34,2.88.36,3.19.08v-.61c-.31.31-1.62.41-3.19.22a6.38,6.38,0,0,1-3.19-1h0a7,7,0,0,0,3.19,1.29Z" style="fill-rule:evenodd;mix-blend-mode:multiply;fill:url(#linear-gradient-41)"/><path d="M14.43,112.84c1.61,0,2.95-.18,3.25-.52v-.57a6,6,0,0,1-3.25.8c-1.6.1-2.94-.09-3.25-.42h0a6,6,0,0,0,3.25.71Z" style="fill-rule:evenodd;mix-blend-mode:multiply;fill:url(#linear-gradient-42)"/><path d="M14.43,109.45c1.64,0,3-.27,3.32-.63v-.59a6.4,6.4,0,0,1-3.32.92c-1.64.15-3,0-3.32-.33h0c.31.36,1.68.63,3.32.63Z" style="fill-rule:evenodd;mix-blend-mode:multiply;fill:url(#linear-gradient-43)"/><path d="M14.43,107c1.68.42,3.07.49,3.39.21v-.46c-.32.31-1.71.32-3.39,0A7.1,7.1,0,0,1,11,105.44h0a7.73,7.73,0,0,0,3.39,1.5Z" style="fill-rule:evenodd;mix-blend-mode:multiply;fill:url(#linear-gradient-44)"/><path d="M14.43,104.08c1.71.13,3.14,0,3.46-.4v-.52c-.32.37-1.75.66-3.46.66s-3.13-.29-3.45-.66h0c.32.4,1.74.79,3.45.92Z" style="fill-rule:evenodd;mix-blend-mode:multiply;fill:url(#linear-gradient-45)"/><path d="M18.47,98.89H10.52L10,92.73l.38-.33c2.89-1.23,4.08-1.36,4.08-3.3,0,2,1.19,2.08,4.08,3.31l.38.32-.48,6.16Z" style="fill-rule:evenodd;fill:url(#linear-gradient-46)"/><path d="M10.52,98.89h4V89.1c0,1.94-1.19,2.07-4.08,3.3l-.38.33.49,6.16Z" style="fill-rule:evenodd;fill:url(#linear-gradient-47)"/><path d="M12.09,95.26a3.91,3.91,0,0,1-2-1.66l.42,5.29h4V95.41c-.4.42-1.64.17-2.4-.15Z" style="fill:#c6c6c6;fill-rule:evenodd;mix-blend-mode:multiply"/><path d="M16.89,95.26a3.94,3.94,0,0,0,2-1.66l-.42,5.29h-4V95.41c.4.42,1.64.17,2.4-.15Z" style="fill:#c6c6c6;fill-rule:evenodd;mix-blend-mode:multiply"/><path d="M14.47,102.3c.63-1.32,3.79-3,6-4.12l6.83-3.37a3.17,3.17,0,0,0,1.65-3L14.47,96.35,0,91.86a3.17,3.17,0,0,0,1.65,3l6.83,3.37c2.21,1.09,5.37,2.8,6,4.12Z" style="fill-rule:evenodd;fill:url(#linear-gradient-48)"/><path d="M14.47,102.3c-.62-1.32-3.78-3-6-4.12L1.65,94.81a3.17,3.17,0,0,1-1.65-3l14.47,4.49v6Z" style="fill-rule:evenodd;fill:url(#radial-gradient-15)"/><path d="M11.17,95.87a4.26,4.26,0,0,1,2.66,3.76c.1.87-.42,1.14-.89,1.12a4.8,4.8,0,0,1,1.53,1.55v-6L5.55,93.58c1.86.72,3.91,1.46,5.62,2.29Z" style="fill-rule:evenodd;opacity:0.5;mix-blend-mode:screen;fill:url(#linear-gradient-49)"/><path d="M15,98c.3-1.52,1.34-1.93,2.6-2.61l-3.08,1v6c.63-1.32,3.79-3,6-4.12l1.95-1c-2.13.83-4.53,2-6.1,2.49-1.08.37-1.52-.92-1.36-1.71Z" style="fill-rule:evenodd;opacity:0.25;mix-blend-mode:multiply;fill:url(#linear-gradient-50)"/></g></g></g></svg>