<svg xmlns="http://www.w3.org/2000/svg" xmlns:xlink="http://www.w3.org/1999/xlink" viewBox="0 0 56.44 106.62"><defs><radialGradient id="radial-gradient" cx="21.79" cy="99.97" r="9.21" gradientUnits="userSpaceOnUse"><stop offset="0" stop-color="#cfe2e8"/><stop offset="1" stop-color="#5c839e"/></radialGradient><radialGradient id="radial-gradient-2" cx="18.43" cy="104.88" r="14.22" xlink:href="#radial-gradient"/><radialGradient id="radial-gradient-3" cx="21.34" cy="104.55" r="11.89" gradientUnits="userSpaceOnUse"><stop offset="0" stop-color="#949fb0"/><stop offset="1" stop-color="#485e78"/></radialGradient><linearGradient id="linear-gradient" x1="23.47" y1="72.74" x2="27.07" y2="72.74" gradientUnits="userSpaceOnUse"><stop offset="0" stop-color="#2c2f3b"/><stop offset="1" stop-color="#454e5e"/></linearGradient><linearGradient id="linear-gradient-2" x1="23.47" y1="38.72" x2="27.07" y2="38.72" xlink:href="#linear-gradient"/><linearGradient id="linear-gradient-3" x1="27.07" y1="72.74" x2="30.67" y2="72.74" gradientUnits="userSpaceOnUse"><stop offset="0" stop-color="#363b4d"/><stop offset="1" stop-color="#283236"/></linearGradient><linearGradient id="linear-gradient-4" x1="27.07" y1="38.72" x2="30.67" y2="38.72" gradientUnits="userSpaceOnUse"><stop offset="0" stop-color="#363b4d"/><stop offset="1" stop-color="#20282b"/></linearGradient><radialGradient id="radial-gradient-4" cx="28.66" cy="-0.8" r="35.87" gradientUnits="userSpaceOnUse"><stop offset="0" stop-color="#db6666"/><stop offset="1" stop-color="#731a1a"/></radialGradient><radialGradient id="radial-gradient-5" cx="21.76" cy="0.6" r="37.16" gradientUnits="userSpaceOnUse"><stop offset="0" stop-color="#c4353c"/><stop offset="1"/></radialGradient><linearGradient id="linear-gradient-5" x1="45.25" y1="16.73" x2="56.44" y2="16.73" gradientUnits="userSpaceOnUse"><stop offset="0"/><stop offset="1" stop-color="#fffd9e"/></linearGradient><radialGradient id="radial-gradient-6" cx="43.81" cy="7.36" r="12.81" gradientUnits="userSpaceOnUse"><stop offset="0" stop-color="#d9e4e8"/><stop offset="1" stop-color="#758d9e"/></radialGradient><radialGradient id="radial-gradient-7" cx="39.07" cy="24.01" r="12.21" gradientUnits="userSpaceOnUse"><stop offset="0" stop-color="#a4b1ba"/><stop offset="1" stop-color="#6a7485"/></radialGradient><radialGradient id="radial-gradient-8" cx="35.04" cy="9.38" r="10.71" gradientUnits="userSpaceOnUse"><stop offset="0"/><stop offset="0.17" stop-color="#2d2d2d"/><stop offset="0.75" stop-color="#c3c3c3"/><stop offset="1" stop-color="#fff"/></radialGradient><radialGradient id="radial-gradient-9" cx="59.21" cy="12.23" r="16.53" xlink:href="#radial-gradient-6"/><linearGradient id="linear-gradient-6" x1="53.93" y1="11.15" x2="53.93" gradientUnits="userSpaceOnUse"><stop offset="0.61" stop-color="#f2f8fa"/><stop offset="1" stop-color="#c1cccf"/></linearGradient><linearGradient id="linear-gradient-7" x1="49.73" y1="33.45" x2="49.73" y2="11.15" xlink:href="#radial-gradient-7"/><linearGradient id="linear-gradient-8" x1="50.84" y1="33.45" x2="50.84" y2="11.15" gradientUnits="userSpaceOnUse"><stop offset="0" stop-color="#afc0c7"/><stop offset="1" stop-color="#768087"/></linearGradient><radialGradient id="radial-gradient-10" cx="50.85" cy="5.31" r="9.92" xlink:href="#radial-gradient-8"/><radialGradient id="New_Gradient_Swatch_165" cx="55.39" cy="22.52" r="16.49" gradientUnits="userSpaceOnUse"><stop offset="0" stop-color="#fff"/><stop offset="0.46" stop-color="#c3c6cd"/><stop offset="1" stop-color="#787e8f"/></radialGradient><linearGradient id="linear-gradient-9" x1="49.72" y1="28.32" x2="49.72" y2="3.71" gradientUnits="userSpaceOnUse"><stop offset="0" stop-color="#93a0a8"/><stop offset="1" stop-color="#e1edf2"/></linearGradient><radialGradient id="New_Gradient_Swatch_165-2" cx="33.66" cy="10.46" r="13.57" xlink:href="#New_Gradient_Swatch_165"/><linearGradient id="linear-gradient-10" y1="9.26" x2="15.79" y2="9.26" gradientUnits="userSpaceOnUse"><stop offset="0" stop-color="#c1cccf"/><stop offset="0.39" stop-color="#f2f8fa"/></linearGradient><linearGradient id="linear-gradient-11" y1="12.88" x2="15.79" y2="12.88" gradientUnits="userSpaceOnUse"><stop offset="0" stop-color="#768087"/><stop offset="1" stop-color="#afc0c7"/></linearGradient><radialGradient id="radial-gradient-11" cx="16.12" cy="13.44" r="14.84" gradientUnits="userSpaceOnUse"><stop offset="0" stop-color="#677b82"/><stop offset="1" stop-color="#353d5c"/></radialGradient><radialGradient id="radial-gradient-12" cx="20.79" cy="8.25" r="10.36" xlink:href="#radial-gradient"/><radialGradient id="radial-gradient-13" cx="33.82" cy="25.19" r="19.87" xlink:href="#radial-gradient-11"/><radialGradient id="radial-gradient-14" cx="26.29" cy="2.81" r="16.69" xlink:href="#radial-gradient-11"/><radialGradient id="radial-gradient-15" cx="28.92" cy="13.13" r="10.13" xlink:href="#radial-gradient-11"/><radialGradient id="radial-gradient-16" cx="34.77" cy="11.94" r="12.65" xlink:href="#radial-gradient-3"/><radialGradient id="radial-gradient-17" cx="32.48" cy="18.06" r="9.85" xlink:href="#radial-gradient"/><radialGradient id="radial-gradient-18" cx="16.6" cy="23.72" r="15.11" xlink:href="#radial-gradient-11"/><linearGradient id="linear-gradient-12" x1="6.68" y1="15.46" x2="15.79" y2="15.46" xlink:href="#linear-gradient-5"/><radialGradient id="radial-gradient-19" cx="19.24" cy="4.53" r="13.44" gradientUnits="userSpaceOnUse"><stop offset="0.26"/><stop offset="0.39" stop-color="#2d2d2d"/><stop offset="0.81" stop-color="#c3c3c3"/><stop offset="1" stop-color="#fff"/></radialGradient><radialGradient id="radial-gradient-20" cx="9.82" cy="23.55" r="18.02" gradientUnits="userSpaceOnUse"><stop offset="0" stop-color="#787e8f"/><stop offset="0.54" stop-color="#c3c6cd"/><stop offset="1" stop-color="#fff"/></radialGradient><radialGradient id="radial-gradient-21" cx="9.36" cy="4.47" r="13.2" gradientUnits="userSpaceOnUse"><stop offset="0" stop-color="#fff"/><stop offset="0.25" stop-color="#c3c3c3"/><stop offset="0.83" stop-color="#2d2d2d"/><stop offset="1"/></radialGradient><radialGradient id="radial-gradient-22" cx="23.29" cy="11.39" r="9.26" xlink:href="#radial-gradient-3"/><radialGradient id="radial-gradient-23" cx="22.05" cy="17.27" r="9.05" xlink:href="#radial-gradient-11"/><radialGradient id="radial-gradient-24" cx="18.14" cy="8.36" r="7.97" xlink:href="#radial-gradient-19"/><radialGradient id="New_Gradient_Swatch_165-3" cx="39.79" cy="20.73" r="10.87" xlink:href="#New_Gradient_Swatch_165"/><radialGradient id="radial-gradient-25" cx="35.52" cy="-0.39" r="21.58" xlink:href="#radial-gradient-20"/><radialGradient id="radial-gradient-26" cx="29.26" cy="14.84" r="11.63" gradientUnits="userSpaceOnUse"><stop offset="0" stop-color="#fff"/><stop offset="0.19" stop-color="#c3c3c3"/><stop offset="0.61" stop-color="#2d2d2d"/><stop offset="0.74"/></radialGradient><radialGradient id="radial-gradient-27" cx="19.39" cy="28.8" r="18.9" gradientUnits="userSpaceOnUse"><stop offset="0" stop-color="#9da9ad"/><stop offset="1" stop-color="#353d5c"/></radialGradient><radialGradient id="New_Gradient_Swatch_165-4" cx="20.82" cy="18.68" r="18.82" xlink:href="#New_Gradient_Swatch_165"/><linearGradient id="New_Gradient_Swatch_187" x1="23.87" y1="76.71" x2="30.27" y2="76.71" gradientUnits="userSpaceOnUse"><stop offset="0" stop-color="#662323"/><stop offset="0.33" stop-color="#8c3737"/><stop offset="0.42" stop-color="#7f3131"/><stop offset="0.63" stop-color="#692727"/><stop offset="0.83" stop-color="#5c2020"/><stop offset="1" stop-color="#571e1e"/></linearGradient><linearGradient id="New_Gradient_Swatch_187-2" x1="23.96" y1="80.43" x2="30.18" y2="80.43" xlink:href="#New_Gradient_Swatch_187"/><linearGradient id="New_Gradient_Swatch_187-3" x1="24.05" y1="84.16" x2="30.09" y2="84.16" xlink:href="#New_Gradient_Swatch_187"/><linearGradient id="New_Gradient_Swatch_187-4" x1="24.14" y1="87.88" x2="30.01" y2="87.88" xlink:href="#New_Gradient_Swatch_187"/><linearGradient id="New_Gradient_Swatch_187-5" x1="24.22" y1="91.6" x2="29.92" y2="91.6" xlink:href="#New_Gradient_Swatch_187"/><linearGradient id="New_Gradient_Swatch_187-6" x1="24.31" y1="95.33" x2="29.83" y2="95.33" xlink:href="#New_Gradient_Swatch_187"/><linearGradient id="New_Gradient_Swatch_183" x1="23.87" y1="76.71" x2="27.07" y2="76.71" gradientUnits="userSpaceOnUse"><stop offset="0"/><stop offset="1" stop-color="#c4353c"/></linearGradient><linearGradient id="New_Gradient_Swatch_183-2" x1="23.96" y1="80.43" x2="27.07" y2="80.43" xlink:href="#New_Gradient_Swatch_183"/><linearGradient id="New_Gradient_Swatch_183-3" x1="24.05" y1="84.16" x2="27.07" y2="84.16" xlink:href="#New_Gradient_Swatch_183"/><linearGradient id="New_Gradient_Swatch_183-4" x1="24.14" y1="87.88" x2="27.07" y2="87.88" xlink:href="#New_Gradient_Swatch_183"/><linearGradient id="New_Gradient_Swatch_183-5" x1="24.22" y1="91.6" x2="27.07" y2="91.6" xlink:href="#New_Gradient_Swatch_183"/><linearGradient id="New_Gradient_Swatch_183-6" x1="24.31" y1="95.33" x2="27.07" y2="95.33" xlink:href="#New_Gradient_Swatch_183"/><linearGradient id="New_Gradient_Swatch_188" x1="23.87" y1="76.6" x2="24.97" y2="76.6" gradientUnits="userSpaceOnUse"><stop offset="0" stop-color="#c4353c"/><stop offset="1" stop-color="#f6f6f6"/></linearGradient><linearGradient id="New_Gradient_Swatch_188-2" x1="23.96" y1="80.32" x2="25.04" y2="80.32" xlink:href="#New_Gradient_Swatch_188"/><linearGradient id="New_Gradient_Swatch_188-3" x1="24.05" y1="84.05" x2="25.1" y2="84.05" xlink:href="#New_Gradient_Swatch_188"/><linearGradient id="New_Gradient_Swatch_188-4" x1="24.14" y1="87.78" x2="25.17" y2="87.78" xlink:href="#New_Gradient_Swatch_188"/><linearGradient id="New_Gradient_Swatch_188-5" x1="24.22" y1="91.5" x2="25.23" y2="91.5" xlink:href="#New_Gradient_Swatch_188"/><linearGradient id="New_Gradient_Swatch_188-6" x1="24.31" y1="95.23" x2="25.3" y2="95.23" xlink:href="#New_Gradient_Swatch_188"/><linearGradient id="linear-gradient-13" x1="28.89" y1="76.61" x2="30.27" y2="76.61" gradientUnits="userSpaceOnUse"><stop offset="0" stop-color="#f6f6f6"/><stop offset="1" stop-color="#c4353c"/></linearGradient><linearGradient id="linear-gradient-14" x1="28.82" y1="80.34" x2="30.18" y2="80.34" xlink:href="#linear-gradient-13"/><linearGradient id="linear-gradient-15" x1="28.69" y1="87.79" x2="30.01" y2="87.79" xlink:href="#linear-gradient-13"/><linearGradient id="linear-gradient-16" x1="28.62" y1="91.52" x2="29.92" y2="91.52" xlink:href="#linear-gradient-13"/><linearGradient id="linear-gradient-17" x1="28.56" y1="95.25" x2="29.83" y2="95.25" xlink:href="#linear-gradient-13"/><linearGradient id="linear-gradient-18" x1="28.76" y1="84.07" x2="30.09" y2="84.07" xlink:href="#linear-gradient-13"/><linearGradient id="linear-gradient-19" x1="24.01" y1="78.73" x2="30.14" y2="78.73" gradientUnits="userSpaceOnUse"><stop offset="0" stop-color="#c29b9d"/><stop offset="1" stop-color="#99393e"/></linearGradient><linearGradient id="linear-gradient-20" x1="24.09" y1="82.46" x2="30.05" y2="82.46" xlink:href="#linear-gradient-19"/><linearGradient id="linear-gradient-21" x1="24.05" y1="86.17" x2="29.96" y2="86.17" xlink:href="#linear-gradient-19"/><linearGradient id="linear-gradient-22" x1="24.27" y1="89.9" x2="29.88" y2="89.9" xlink:href="#linear-gradient-19"/><linearGradient id="linear-gradient-23" x1="24.22" y1="93.62" x2="29.79" y2="93.62" xlink:href="#linear-gradient-19"/><radialGradient id="radial-gradient-28" cx="19.65" cy="104.26" r="9.42" gradientUnits="userSpaceOnUse"><stop offset="0" stop-color="#cfe2e8"/><stop offset="1" stop-color="#53768f"/></radialGradient><radialGradient id="radial-gradient-29" cx="24.46" cy="100.4" r="18.06" xlink:href="#radial-gradient-11"/><radialGradient id="radial-gradient-30" cx="20.98" cy="97.77" r="11.76" xlink:href="#radial-gradient-11"/><radialGradient id="radial-gradient-31" cx="8.83" cy="51.44" r="21.05" xlink:href="#radial-gradient-21"/><radialGradient id="radial-gradient-32" cx="7.26" cy="45.04" r="22.7" xlink:href="#radial-gradient-21"/><linearGradient id="New_Gradient_Swatch_187-7" x1="23.87" y1="72.99" x2="30.27" y2="72.99" xlink:href="#New_Gradient_Swatch_187"/><linearGradient id="New_Gradient_Swatch_183-7" x1="23.87" y1="72.99" x2="27.07" y2="72.99" xlink:href="#New_Gradient_Swatch_183"/><linearGradient id="New_Gradient_Swatch_188-7" x1="23.87" y1="72.88" x2="24.97" y2="72.88" xlink:href="#New_Gradient_Swatch_188"/><linearGradient id="linear-gradient-24" x1="28.89" y1="72.89" x2="30.27" y2="72.89" xlink:href="#linear-gradient-13"/><linearGradient id="linear-gradient-25" x1="24.01" y1="75.01" x2="30.22" y2="75.01" xlink:href="#linear-gradient-19"/><linearGradient id="New_Gradient_Swatch_187-8" x1="23.78" y1="69.21" x2="30.36" y2="69.21" xlink:href="#New_Gradient_Swatch_187"/><linearGradient id="New_Gradient_Swatch_183-8" x1="23.78" y1="69.21" x2="27.07" y2="69.21" xlink:href="#New_Gradient_Swatch_183"/><linearGradient id="New_Gradient_Swatch_188-8" x1="23.78" y1="69.1" x2="24.91" y2="69.1" xlink:href="#New_Gradient_Swatch_188"/><linearGradient id="linear-gradient-26" x1="28.94" y1="69.11" x2="30.36" y2="69.11" xlink:href="#linear-gradient-13"/><linearGradient id="linear-gradient-27" x1="23.92" y1="71.3" x2="30.22" y2="71.3" xlink:href="#linear-gradient-19"/><radialGradient id="radial-gradient-33" cx="39.37" cy="48.49" r="18.49" xlink:href="#radial-gradient-21"/></defs><g style="isolation:isolate"><g id="Calque_2" data-name="Calque 2"><g id="Layer_1" data-name="Layer 1"><polygon points="24.49 96.61 22.55 99.58 24.81 100.55 25.78 97.16 24.49 96.61 24.49 96.61" style="fill-rule:evenodd;fill:url(#radial-gradient)"/><polygon points="25.78 97.16 24.81 100.55 29.33 100.55 28.36 97.16 25.78 97.16 25.78 97.16" style="fill-rule:evenodd;fill:url(#radial-gradient-2)"/><polygon points="29.65 96.61 31.59 99.58 29.33 100.55 28.36 97.16 29.65 96.61 29.65 96.61" style="fill-rule:evenodd;fill:url(#radial-gradient-3)"/><polygon points="24.03 28.91 30.11 28.91 30.67 48.14 29.63 97.06 27.07 97.33 24.51 97.06 23.47 48.14 24.03 28.91 24.03 28.91" style="fill:#333;fill-rule:evenodd"/><polygon points="27.07 97.33 27.07 48.53 23.47 48.14 24.51 97.06 27.07 97.33 27.07 97.33" style="fill-rule:evenodd;fill:url(#linear-gradient)"/><polygon points="23.47 48.14 27.07 48.53 27.07 28.91 24.03 28.91 23.47 48.14 23.47 48.14" style="fill-rule:evenodd;fill:url(#linear-gradient-2)"/><polygon points="27.07 48.53 27.07 97.33 29.63 97.06 30.67 48.14 27.07 48.53 27.07 48.53" style="fill-rule:evenodd;fill:url(#linear-gradient-3)"/><polygon points="27.07 48.53 30.67 48.14 30.11 28.91 27.07 28.91 27.07 48.53 27.07 48.53" style="fill-rule:evenodd;fill:url(#linear-gradient-4)"/><path d="M31,7.58V18.26h3.37c6.6,0,8.69,5.2,8.55,12.18a11.39,11.39,0,0,0,3.35,3c3.93-6.36,8.65-15.67,10.2-22.3A44.4,44.4,0,0,0,52.43,0C46.39,2.84,39,6.14,32,7.4l-1,.18Z" style="fill-rule:evenodd;fill:url(#radial-gradient-4)"/><path d="M35.21,6.69c4.44,7.62,8.83,15.7,12.86,23.69,1.47-2.57,3-5.4,4.29-8.25-3.07-6-6.42-12.1-9.72-17.86a67.74,67.74,0,0,1-7.43,2.42Z" style="fill-rule:evenodd;mix-blend-mode:screen;fill:url(#radial-gradient-5)"/><path d="M47.3,4.29c6.83,3.08-.2,19-3.78,21.89-.23,0-1-2.06-1.86-3.47a18.16,18.16,0,0,1,1.23,7.73,11.39,11.39,0,0,0,3.35,3c3.93-6.36,8.65-15.67,10.2-22.3A44.4,44.4,0,0,0,52.43,0c-3,1.43-6.43,3-9.94,4.32a8.09,8.09,0,0,1,4.81,0Z" style="fill:#730e0e;fill-rule:evenodd;opacity:0.2;mix-blend-mode:multiply"/><path d="M52,11.15c-1.4,5.71-5.27,13.41-8.95,19.51a12.52,12.52,0,0,0,3.21,2.79c3.93-6.36,8.65-15.67,10.2-22.3A44.4,44.4,0,0,0,52.43,0C51.23.57,50,1.15,48.66,1.74A41.39,41.39,0,0,1,52,11.15Z" style="fill:#ccc;fill-rule:evenodd"/><path d="M51.42.48a43.79,43.79,0,0,1,3.86,10.67c-1.54,6.4-6.09,15.29-10,21.63.35.26.69.49,1,.67,3.93-6.36,8.65-15.67,10.2-22.3A44.4,44.4,0,0,0,52.43,0l-1,.48Z" style="fill-rule:evenodd;mix-blend-mode:screen;fill:url(#linear-gradient-5)"/><path d="M30.75,7.26V18.65H34.5a9.37,9.37,0,0,1,2.44.29L43,12.88l-6.81-6.8c-1.36.37-2.74.7-4.13.94l-1.31.24Z" style="fill-rule:evenodd;fill:url(#radial-gradient-6)"/><path d="M43,12.88H30.75v5.77H34.5a9.37,9.37,0,0,1,2.44.29L43,12.88Z" style="fill-rule:evenodd;fill:url(#radial-gradient-7)"/><path d="M32.68,6.91a6.66,6.66,0,0,1,1.86,0,6,6,0,0,1,2.67.92,16.54,16.54,0,0,1,3.48,3.31c.58.77.53,1.48-.41,1.75H43L36.5,6.39l-.31-.31c-1.16.32-2.33.6-3.51.83Z" style="fill-rule:evenodd;mix-blend-mode:screen;fill:url(#radial-gradient-8)"/><path d="M56.44,11.15A44.4,44.4,0,0,0,52.43,0C51.23.57,50,1.15,48.66,1.74A41.39,41.39,0,0,1,52,11.15h4.46Z" style="fill-rule:evenodd;fill:url(#radial-gradient-9)"/><path d="M51.42.48a43.79,43.79,0,0,1,3.86,10.67h1.16A44.4,44.4,0,0,0,52.43,0l-1,.48Z" style="fill-rule:evenodd;fill:url(#linear-gradient-6)"/><path d="M46.24,33.45c3.93-6.36,8.65-15.67,10.2-22.3H52c-1.4,5.71-5.27,13.41-8.95,19.51a12.52,12.52,0,0,0,3.21,2.79Z" style="fill-rule:evenodd;fill:url(#linear-gradient-7)"/><path d="M55.28,11.15c-1.54,6.4-6.09,15.29-10,21.63.35.26.69.49,1,.67,3.93-6.36,8.65-15.67,10.2-22.3Z" style="fill-rule:evenodd;fill:url(#linear-gradient-8)"/><path d="M54.85,7.28c0,2.15-1.64,3.46-2.84,1.85a13.17,13.17,0,0,1-1.12-2,28.39,28.39,0,0,1,1.09,4h4.46a37,37,0,0,0-2-6.81,13.9,13.9,0,0,1,.46,2.94Z" style="fill-rule:evenodd;opacity:0.5;mix-blend-mode:screen;fill:url(#radial-gradient-10)"/><path d="M52.6,13.89a5.34,5.34,0,0,1,2.33-1c.64-.11.88-.06,1,.25.21-.68.38-1.34.53-2H52a66.48,66.48,0,0,1-5.89,14.11c2.18-3.39,3.59-6.12,5.49-9.72a8.73,8.73,0,0,1,1-1.65Z" style="fill-rule:evenodd;opacity:0.5;mix-blend-mode:multiply;fill:url(#New_Gradient_Swatch_165)"/><path d="M49.56,3.71a44.84,44.84,0,0,1,2.66,6.85.56.56,0,0,0,.35.38,13.7,13.7,0,0,0,2.48.21,14.27,14.27,0,0,0-2.52.32.53.53,0,0,0-.32.35C50.94,16.36,46.6,25,44.4,28.32c2.79-5.87,6-11.1,7.35-17.18a63.44,63.44,0,0,0-2.19-7.43Z" style="fill-rule:evenodd;fill:url(#linear-gradient-9)"/><path d="M40.28,12.88a1.25,1.25,0,0,1,.18.82c-.2,1.32-2.65,3.34-3.81,3.78-1,.39-3.93.37-5.9.24v.93H34.5a9.37,9.37,0,0,1,2.44.29L43,12.88Z" style="fill-rule:evenodd;mix-blend-mode:multiply;fill:url(#New_Gradient_Swatch_165-2)"/><polygon points="15.79 9.26 0 12.88 15.06 5.64 15.79 9.26 15.79 9.26" style="fill-rule:evenodd;fill:url(#linear-gradient-10)"/><polygon points="0 12.88 15.79 16.5 15.79 9.26 0 12.88 0 12.88" style="fill-rule:evenodd;fill:url(#linear-gradient-11)"/><polygon points="15.79 16.5 0 12.88 15.06 20.13 15.79 16.5 15.79 16.5" style="fill-rule:evenodd;fill:url(#radial-gradient-11)"/><path d="M15.79,9.26l-.73-3.62c2.08,3,4.94,4.67,7.85,1.75l4.16-4.16V6.3l-4,4c-2.58,2.58-7,.1-7.28-1Z" style="fill-rule:evenodd;fill:url(#radial-gradient-12)"/><path d="M15.79,16.5c.23-1.13,4.7-3.62,7.28-1l-2.58-2.58,2.58-2.58c-2.58,2.58-7,.1-7.28-1V16.5Z" style="fill:#b3b3b3;fill-rule:evenodd"/><path d="M33.66,12.88l-6.59,6.59V30.14l3.32-.35V22.5c0-1.94-.07-3.21.84-4.13l5.49-5.49Z" style="fill-rule:evenodd;fill:url(#radial-gradient-13)"/><polygon points="27.07 6.3 33.66 12.88 36.72 12.88 27.07 3.23 27.07 6.3 27.07 6.3" style="fill-rule:evenodd;fill:url(#radial-gradient-14)"/><polygon points="23.55 12.88 27.07 9.36 27.07 6.3 23.07 10.3 20.49 12.88 23.55 12.88 23.55 12.88" style="fill-rule:evenodd;fill:url(#radial-gradient-15)"/><polygon points="27.07 9.36 30.59 12.88 33.66 12.88 27.07 6.3 27.07 9.36 27.07 9.36" style="fill-rule:evenodd;fill:url(#radial-gradient-16)"/><polygon points="30.59 12.88 27.07 16.4 27.07 19.47 33.66 12.88 30.59 12.88 30.59 12.88" style="fill-rule:evenodd;fill:url(#radial-gradient-17)"/><polygon points="27.07 16.4 23.55 12.88 20.49 12.88 23.07 15.46 27.07 19.47 27.07 16.4 27.07 16.4" style="fill-rule:evenodd;fill:url(#radial-gradient-18)"/><path d="M1.42,12.56,13,9.58c2.55-.66,2.12-1.51,2.07-3.94l.73,3.62v1.83c-.21-1.31-.66-1.41-2.13-1.1L1.42,12.56Z" style="fill:#fff;fill-rule:evenodd"/><path d="M12.63,15.54l-6-1.13,9.11,2.09V14.43c0,1.7-1.36,1.45-3.16,1.11Z" style="fill-rule:evenodd;mix-blend-mode:screen;fill:url(#linear-gradient-12)"/><path d="M15.27,6.71l.52,2.55c.23,1.14,4.7,3.62,7.28,1l4-4V3.23L25.92,4.38c1.51,4.18-8.41,9.56-10.65,2.33Z" style="fill-rule:evenodd;mix-blend-mode:screen;fill:url(#radial-gradient-19)"/><path d="M15.06,20.13c-2.69-4.34-8.16-5.31-13-6.25l13,6.25Z" style="fill-rule:evenodd;mix-blend-mode:multiply;fill:url(#radial-gradient-20)"/><path d="M14.5,7.24c-.12-.41-.7-.68-1.9-.42L4,11C7.21,10.46,15,8.9,14.5,7.24Z" style="fill-rule:evenodd;mix-blend-mode:screen;fill:url(#radial-gradient-21)"/><path d="M15.79,12.88h4.7l2.58-2.58c-2.58,2.58-7,.1-7.28-1v3.62Z" style="fill-rule:evenodd;fill:url(#radial-gradient-22)"/><path d="M15.79,12.88h4.7l2.58,2.58c-2.58-2.58-7-.09-7.28,1V12.88Z" style="fill-rule:evenodd;fill:url(#radial-gradient-23)"/><path d="M15.79,9.26v3.62h4.7c-2.34,0-4.7-1.36-4.7-3.62Z" style="fill-rule:evenodd;opacity:0.5;mix-blend-mode:screen;fill:url(#radial-gradient-24)"/><path d="M36.72,12.88l-5.38,5.38-.38.39h1.5c.1-.95,2.89-4.16,4.26-5.77Z" style="fill-rule:evenodd;mix-blend-mode:multiply;fill:url(#New_Gradient_Swatch_165-3)"/><path d="M27.07,3.23a4.73,4.73,0,0,0,1,3.07c.49.52,1,1,1.53,1.49l1.12,1L31,9a33.19,33.19,0,0,0,5.75,3.92L31.35,7.51,31,7.21l-4-4Z" style="fill-rule:evenodd;mix-blend-mode:multiply;fill:url(#radial-gradient-25)"/><path d="M31.88,12.88a1.58,1.58,0,0,1-.08,1.25,12,12,0,0,1-3.22,3.62c-.9.67-1.33.41-1.51-.09v1.81l6.59-6.59Z" style="fill-rule:evenodd;mix-blend-mode:screen;fill:url(#radial-gradient-26)"/><path d="M27.07,30.14l-3.32-.35V22.5c0-1.94.08-3.21-.84-4.13-2.91-2.91-5.77-1.28-7.85,1.76l.73-3.63c.23-1.13,4.7-3.62,7.28-1l4,4V30.14Z" style="fill-rule:evenodd;fill:url(#radial-gradient-27)"/><path d="M25.47,17.87c.92,1.27,1.29,2.78,1.41,5.57l.19,4.28V19.47l-1.6-1.6Z" style="fill:#ccc;fill-rule:evenodd;opacity:0.5;mix-blend-mode:screen"/><path d="M30.39,29.79V22.5c0-1.94-.07-3.21.84-4.13l2.28-2.28c-1.78,1.17-3.46,2.22-3.91,3.19a5.12,5.12,0,0,0-.34,2.19v8.44l1.13-.12Z" style="fill-rule:evenodd;mix-blend-mode:multiply;fill:url(#New_Gradient_Swatch_165-4)"/><path d="M23.87,78.4l3.2.34,3.2-.34c-.07-1.29-.08-2.43-.05-3.72L27.07,75l-3.15-.34c0,1.29,0,2.43-.05,3.72Z" style="fill-rule:evenodd;fill:url(#New_Gradient_Swatch_187)"/><path d="M24,82.12l3.11.34,3.11-.34c-.06-1.25-.08-2.46,0-3.71l-3.07.33L24,78.41c0,1.25,0,2.46-.05,3.71Z" style="fill-rule:evenodd;fill:url(#New_Gradient_Swatch_187-2)"/><path d="M24.05,85.85l3,.33,3-.33c-.06-1.21-.07-2.49,0-3.71l-3,.32-3-.32c0,1.22,0,2.5,0,3.71Z" style="fill-rule:evenodd;fill:url(#New_Gradient_Swatch_187-3)"/><path d="M24.14,89.58l2.93.31L30,89.58c-.06-1.18-.08-2.53-.05-3.71l-2.89.31-2.89-.31c0,1.18,0,2.53,0,3.71Z" style="fill-rule:evenodd;fill:url(#New_Gradient_Swatch_187-4)"/><path d="M24.22,93.31l2.85.3,2.85-.3c-.06-1.15-.07-2.57,0-3.72l-2.81.3-2.8-.3c0,1.15,0,2.57-.05,3.72Z" style="fill-rule:evenodd;fill:url(#New_Gradient_Swatch_187-5)"/><path d="M24.31,97l2.76.29L29.83,97c0-1.11-.07-2.61,0-3.72l-2.72.29-2.72-.29c0,1.11,0,2.61,0,3.72Z" style="fill-rule:evenodd;fill:url(#New_Gradient_Swatch_187-6)"/><path d="M24,78.41l3.06.33V75l-3.15-.34c0,1.29,0,2.43-.05,3.72Z" style="fill-rule:evenodd;opacity:0.5;mix-blend-mode:screen;fill:url(#New_Gradient_Swatch_183)"/><path d="M27.07,78.74,24,78.41c0,1.25,0,2.46-.05,3.71l.13,0,3,.32V78.74Z" style="fill-rule:evenodd;opacity:0.5;mix-blend-mode:screen;fill:url(#New_Gradient_Swatch_183-2)"/><path d="M27.07,82.46l-3-.32c0,1.22,0,2.5,0,3.71l.13,0,2.89.31V82.46Z" style="fill-rule:evenodd;opacity:0.5;mix-blend-mode:screen;fill:url(#New_Gradient_Swatch_183-3)"/><path d="M27.07,86.18l-2.89-.31c0,1.18,0,2.53,0,3.71h.13l2.8.3V86.18Z" style="fill-rule:evenodd;opacity:0.5;mix-blend-mode:screen;fill:url(#New_Gradient_Swatch_183-4)"/><path d="M27.07,89.89l-2.8-.3c0,1.15,0,2.57-.05,3.72h.13l2.72.29V89.89Z" style="fill-rule:evenodd;opacity:0.5;mix-blend-mode:screen;fill:url(#New_Gradient_Swatch_183-5)"/><path d="M27.07,93.61l-2.72-.29c0,1.11,0,2.61,0,3.72l2.76.29V93.61Z" style="fill-rule:evenodd;opacity:0.5;mix-blend-mode:screen;fill:url(#New_Gradient_Swatch_183-6)"/><path d="M24,78.41l1,.1-.06-3.72-1-.11c0,1.29,0,2.43-.05,3.72Z" style="fill-rule:evenodd;mix-blend-mode:multiply;fill:url(#New_Gradient_Swatch_188)"/><path d="M25,78.51l-1-.1c0,1.25,0,2.46-.05,3.71l.13,0,.95.1L25,78.51Z" style="fill-rule:evenodd;mix-blend-mode:multiply;fill:url(#New_Gradient_Swatch_188-2)"/><path d="M25,82.24l-.95-.1c0,1.22,0,2.5,0,3.71l.13,0,.92.09L25,82.24Z" style="fill-rule:evenodd;mix-blend-mode:multiply;fill:url(#New_Gradient_Swatch_188-3)"/><path d="M25.1,86l-.92-.09c0,1.18,0,2.53,0,3.71h.13l.9.1L25.1,86Z" style="fill-rule:evenodd;mix-blend-mode:multiply;fill:url(#New_Gradient_Swatch_188-4)"/><path d="M25.17,89.69l-.9-.1c0,1.15,0,2.57-.05,3.72h.13l.88.1-.06-3.73Z" style="fill-rule:evenodd;mix-blend-mode:multiply;fill:url(#New_Gradient_Swatch_188-5)"/><path d="M25.23,93.42l-.88-.1c0,1.11,0,2.61,0,3.72l1,.1-.07-3.72Z" style="fill-rule:evenodd;mix-blend-mode:multiply;fill:url(#New_Gradient_Swatch_188-6)"/><path d="M28.89,78.54l1.25-.13h.13c-.07-1.29-.08-2.43-.05-3.72L29,74.82l-.06,3.72Z" style="fill-rule:evenodd;mix-blend-mode:multiply;fill:url(#linear-gradient-13)"/><path d="M30.18,82.12c-.06-1.25-.08-2.46,0-3.71l-1.25.13-.07,3.73,1.23-.13.13,0Z" style="fill-rule:evenodd;mix-blend-mode:multiply;fill:url(#linear-gradient-14)"/><path d="M30,85.87l-1.2.13-.07,3.72,1.19-.13H30c-.06-1.18-.08-2.53-.05-3.71Z" style="fill-rule:evenodd;mix-blend-mode:multiply;fill:url(#linear-gradient-15)"/><path d="M29.88,89.59l-1.19.13-.07,3.73,1.17-.13h.13c-.06-1.15-.07-2.57,0-3.72Z" style="fill-rule:evenodd;mix-blend-mode:multiply;fill:url(#linear-gradient-16)"/><path d="M29.79,93.32l-1.17.13-.06,3.72L29.83,97c0-1.11-.07-2.61,0-3.72Z" style="fill-rule:evenodd;mix-blend-mode:multiply;fill:url(#linear-gradient-17)"/><path d="M28.76,86l1.2-.13.13,0c-.06-1.21-.07-2.49,0-3.71l-1.23.13L28.76,86Z" style="fill-rule:evenodd;mix-blend-mode:multiply;fill:url(#linear-gradient-18)"/><path d="M27.07,79.06l3.05,0c0-.21,0-.42,0-.63l-3.07.33L24,78.41h0l3.06.64Z" style="fill-rule:evenodd;mix-blend-mode:multiply;fill:url(#linear-gradient-19)"/><path d="M30.05,82.14l-3,.32-3-.32v0l3,.62,3,0c0-.21,0-.42,0-.62Z" style="fill-rule:evenodd;mix-blend-mode:multiply;fill:url(#linear-gradient-20)"/><path d="M30,85.87l-2.89.31-2.89-.31-.13,0v0l.13,0,2.89.6,2.88,0c0-.21,0-.42,0-.61Z" style="fill-rule:evenodd;mix-blend-mode:multiply;fill:url(#linear-gradient-21)"/><path d="M29.88,89.59l-2.81.3-2.8-.3v0l2.8.58,2.8,0c0-.2,0-.4,0-.6Z" style="fill-rule:evenodd;mix-blend-mode:multiply;fill:url(#linear-gradient-22)"/><path d="M29.79,93.32l-2.72.29-2.72-.29h-.13v0l.13,0,2.72.56,2.71,0c0-.2,0-.4,0-.59Z" style="fill-rule:evenodd;mix-blend-mode:multiply;fill:url(#linear-gradient-23)"/><polygon points="22.55 99.58 27.07 106.62 24.81 100.55 22.55 99.58 22.55 99.58" style="fill-rule:evenodd;fill:url(#radial-gradient-28)"/><polygon points="24.81 100.55 29.33 100.55 27.07 106.62 24.81 100.55 24.81 100.55" style="fill-rule:evenodd;fill:url(#radial-gradient-29)"/><polygon points="31.59 99.58 27.07 106.62 29.33 100.55 31.59 99.58 31.59 99.58" style="fill-rule:evenodd;fill:url(#radial-gradient-30)"/><path d="M25.78,48.39l-2.31-.25.38,17.62C25.62,61.27,25.7,53,25.78,48.39Z" style="fill-rule:evenodd;opacity:0.35000000000000003;mix-blend-mode:screen;fill:url(#radial-gradient-31)"/><path d="M23.47,48.14l2.31.25c-.17-5.33-.82-12-1.86-15.66l-.45,15.41Z" style="fill-rule:evenodd;opacity:0.5;mix-blend-mode:screen;fill:url(#radial-gradient-32)"/><path d="M23.87,74.68l3.2.34,3.2-.34c-.07-1.29-.08-2.43-.05-3.72l-3.15.34L23.92,71c0,1.29,0,2.43-.05,3.72Z" style="fill-rule:evenodd;fill:url(#New_Gradient_Swatch_187-7)"/><path d="M24,74.69l3.06.33V71.3L23.92,71c0,1.29,0,2.43-.05,3.72Z" style="fill-rule:evenodd;opacity:0.5;mix-blend-mode:screen;fill:url(#New_Gradient_Swatch_183-7)"/><path d="M24,74.69l1,.1-.06-3.72-1-.11c0,1.29,0,2.43-.05,3.72Z" style="fill-rule:evenodd;mix-blend-mode:multiply;fill:url(#New_Gradient_Swatch_188-7)"/><path d="M28.89,74.83l1.25-.14h.13c-.07-1.29-.08-2.43-.05-3.72L29,71.1l-.06,3.73Z" style="fill-rule:evenodd;mix-blend-mode:multiply;fill:url(#linear-gradient-24)"/><path d="M27.07,75.34l3.14,0c0-.21,0-.43,0-.64L27.07,75,24,74.69h0l3.06.64Z" style="fill-rule:evenodd;mix-blend-mode:multiply;fill:url(#linear-gradient-25)"/><path d="M23.78,71l3.29.35L30.36,71c-.07-1.33-.08-2.5-.05-3.82l-3.24.35-3.24-.35c0,1.32,0,2.49,0,3.82Z" style="fill-rule:evenodd;fill:url(#New_Gradient_Swatch_187-8)"/><path d="M23.92,71l3.15.34V67.48l-3.24-.35c0,1.32,0,2.49,0,3.82Z" style="fill-rule:evenodd;opacity:0.5;mix-blend-mode:screen;fill:url(#New_Gradient_Swatch_183-8)"/><path d="M23.92,71l1,.11-.07-3.83-1-.11c0,1.32,0,2.49,0,3.82Z" style="fill-rule:evenodd;mix-blend-mode:multiply;fill:url(#New_Gradient_Swatch_188-8)"/><path d="M28.94,71.1,30.22,71h.14c-.07-1.33-.08-2.5-.05-3.82L29,67.27l-.06,3.83Z" style="fill-rule:evenodd;mix-blend-mode:multiply;fill:url(#linear-gradient-26)"/><path d="M27.07,71.63l3.14,0c0-.22,0-.43,0-.65l-3.15.34L23.92,71v0l3.15.65Z" style="fill-rule:evenodd;mix-blend-mode:multiply;fill:url(#linear-gradient-27)"/><path d="M24.62,48.27a2,2,0,0,0,2-2.22l.43-12.2V48.53l-2.45-.26Z" style="fill-rule:evenodd;opacity:0.5;mix-blend-mode:screen;fill:url(#radial-gradient-33)"/></g></g></g></svg>