<svg xmlns="http://www.w3.org/2000/svg" xmlns:xlink="http://www.w3.org/1999/xlink" viewBox="0 0 20.6 122.79"><defs><radialGradient id="radial-gradient" cx="0.41" cy="14.7" r="46.88" gradientUnits="userSpaceOnUse"><stop offset="0" stop-color="#033869"/><stop offset="1" stop-color="#18a166"/></radialGradient><radialGradient id="radial-gradient-2" cx="0.41" cy="-32.72" r="46.88" gradientTransform="matrix(1, 0, 0, -1, 0, 75.37)" xlink:href="#radial-gradient"/><radialGradient id="radial-gradient-3" cx="34.51" cy="30.13" r="42.09" gradientUnits="userSpaceOnUse"><stop offset="0" stop-color="#88f7ae"/><stop offset="1" stop-color="#098899"/></radialGradient><radialGradient id="radial-gradient-4" cx="34.51" cy="-17.58" r="42.09" gradientTransform="matrix(1, 0, 0, -1, 0, 75.07)" xlink:href="#radial-gradient-3"/><linearGradient id="linear-gradient" x1="0.11" y1="1.39" x2="3.33" y2="1.39" gradientUnits="userSpaceOnUse"><stop offset="0" stop-color="#3e6b65"/><stop offset="1" stop-color="#fff"/></linearGradient><linearGradient id="linear-gradient-2" x1="0.11" y1="121.4" x2="3.33" y2="121.4" xlink:href="#linear-gradient"/><radialGradient id="radial-gradient-5" cx="1.38" cy="61.41" r="58.04" gradientUnits="userSpaceOnUse"><stop offset="0" stop-color="#7a838f"/><stop offset="0.56" stop-color="#666c7a"/><stop offset="1" stop-color="#535766"/></radialGradient><radialGradient id="radial-gradient-6" cx="17.07" cy="61.39" r="23.85" gradientUnits="userSpaceOnUse"><stop offset="0" stop-color="#033869"/><stop offset="1" stop-color="#148756"/></radialGradient><linearGradient id="linear-gradient-3" x1="14.31" y1="46.66" x2="14.31" y2="22.62" gradientUnits="userSpaceOnUse"><stop offset="0" stop-color="#6dde91"/><stop offset="1" stop-color="#5cecff"/></linearGradient><linearGradient id="linear-gradient-4" x1="14.31" y1="100.17" x2="14.31" y2="76.12" gradientUnits="userSpaceOnUse"><stop offset="0" stop-color="#5cecff"/><stop offset="1" stop-color="#6dde91"/></linearGradient><linearGradient id="linear-gradient-5" x1="14.26" y1="72.72" x2="19.03" y2="71.85" gradientUnits="userSpaceOnUse"><stop offset="0" stop-color="#443573"/><stop offset="0.05" stop-color="#504586"/><stop offset="0.12" stop-color="#5c5499"/><stop offset="0.2" stop-color="#645ea4"/><stop offset="0.27" stop-color="#6661a8"/><stop offset="0.54" stop-color="#53498e"/><stop offset="0.81" stop-color="#44377a"/><stop offset="1" stop-color="#3f3073"/></linearGradient><linearGradient id="linear-gradient-6" x1="13.8" y1="69.77" x2="18.36" y2="68.91" xlink:href="#linear-gradient-5"/><linearGradient id="linear-gradient-7" x1="13.39" y1="66.35" x2="18.09" y2="65.9" xlink:href="#linear-gradient-5"/><linearGradient id="linear-gradient-8" x1="13.16" y1="64.22" x2="17.95" y2="63.94" xlink:href="#linear-gradient-5"/><linearGradient id="linear-gradient-9" x1="13.12" y1="60.79" x2="17.89" y2="60.95" xlink:href="#linear-gradient-5"/><linearGradient id="linear-gradient-10" x1="13.24" y1="58.12" x2="17.98" y2="58.33" xlink:href="#linear-gradient-5"/><linearGradient id="linear-gradient-11" x1="13.75" y1="54.54" x2="18.26" y2="55.1" xlink:href="#linear-gradient-5"/><linearGradient id="linear-gradient-12" x1="14.07" y1="52.2" x2="18.71" y2="53.1" xlink:href="#linear-gradient-5"/><linearGradient id="linear-gradient-13" x1="14.41" y1="49.61" x2="19.42" y2="50.26" xlink:href="#linear-gradient-5"/><linearGradient id="New_Gradient_Swatch_193" x1="17.43" y1="50.06" x2="20.07" y2="50.06" gradientUnits="userSpaceOnUse"><stop offset="0" stop-color="#fff"/><stop offset="1" stop-color="#84edaf"/></linearGradient><linearGradient id="New_Gradient_Swatch_193-2" x1="16.94" y1="53.17" x2="19.04" y2="53.17" xlink:href="#New_Gradient_Swatch_193"/><linearGradient id="New_Gradient_Swatch_193-3" x1="16.69" y1="55.79" x2="18.46" y2="55.79" xlink:href="#New_Gradient_Swatch_193"/><linearGradient id="New_Gradient_Swatch_193-4" x1="16.45" y1="58.23" x2="18.27" y2="58.23" xlink:href="#New_Gradient_Swatch_193"/><linearGradient id="New_Gradient_Swatch_193-5" x1="16.44" y1="61.41" x2="18.09" y2="61.41" xlink:href="#New_Gradient_Swatch_193"/><linearGradient id="New_Gradient_Swatch_193-6" x1="16.44" y1="64.57" x2="18.22" y2="64.57" xlink:href="#New_Gradient_Swatch_193"/><linearGradient id="New_Gradient_Swatch_193-7" x1="16.6" y1="67" x2="18.4" y2="67" xlink:href="#New_Gradient_Swatch_193"/><linearGradient id="New_Gradient_Swatch_193-8" x1="16.82" y1="69.54" x2="18.79" y2="69.54" xlink:href="#New_Gradient_Swatch_193"/><linearGradient id="New_Gradient_Swatch_193-9" x1="17.32" y1="72.49" x2="19.76" y2="72.49" xlink:href="#New_Gradient_Swatch_193"/><linearGradient id="linear-gradient-14" x1="14.15" y1="49.98" x2="15.17" y2="49.98" gradientUnits="userSpaceOnUse"><stop offset="0" stop-color="#9e99c7"/><stop offset="1" stop-color="#fff"/></linearGradient><linearGradient id="linear-gradient-15" x1="13.88" y1="52.75" x2="14.82" y2="52.75" xlink:href="#linear-gradient-14"/><linearGradient id="linear-gradient-16" x1="13.45" y1="55.27" x2="14.51" y2="55.27" xlink:href="#linear-gradient-14"/><linearGradient id="linear-gradient-17" x1="13.15" y1="58.53" x2="14.15" y2="58.53" xlink:href="#linear-gradient-14"/><linearGradient id="linear-gradient-18" x1="13.12" y1="61.3" x2="13.91" y2="61.3" xlink:href="#linear-gradient-14"/><linearGradient id="linear-gradient-19" x1="13.17" y1="64.08" x2="14.12" y2="64.08" xlink:href="#linear-gradient-14"/><linearGradient id="linear-gradient-20" x1="13.33" y1="66.91" x2="14.39" y2="66.91" xlink:href="#linear-gradient-14"/><linearGradient id="linear-gradient-21" x1="13.59" y1="69.7" x2="15" y2="69.7" xlink:href="#linear-gradient-14"/><linearGradient id="linear-gradient-22" x1="14.2" y1="72.91" x2="15.33" y2="72.91" xlink:href="#linear-gradient-14"/><linearGradient id="New_Gradient_Swatch_192" x1="14.2" y1="71.21" x2="18.99" y2="71.21" gradientUnits="userSpaceOnUse"><stop offset="0" stop-color="#986fde"/><stop offset="1" stop-color="#fff"/></linearGradient><linearGradient id="New_Gradient_Swatch_192-2" x1="13.59" y1="68.27" x2="18.47" y2="68.27" xlink:href="#New_Gradient_Swatch_192"/><linearGradient id="New_Gradient_Swatch_192-3" x1="13.33" y1="66.18" x2="18.25" y2="66.18" xlink:href="#New_Gradient_Swatch_192"/><linearGradient id="New_Gradient_Swatch_192-4" x1="13.17" y1="62.9" x2="18.08" y2="62.9" xlink:href="#New_Gradient_Swatch_192"/><linearGradient id="New_Gradient_Swatch_192-5" x1="13.19" y1="60.17" x2="18.05" y2="60.17" xlink:href="#New_Gradient_Swatch_192"/><linearGradient id="New_Gradient_Swatch_192-6" x1="13.48" y1="56.74" x2="18.27" y2="56.74" xlink:href="#New_Gradient_Swatch_192"/><linearGradient id="New_Gradient_Swatch_192-7" x1="13.9" y1="54.4" x2="18.46" y2="54.4" xlink:href="#New_Gradient_Swatch_192"/><linearGradient id="New_Gradient_Swatch_192-8" x1="14.18" y1="51.87" x2="19.04" y2="51.87" xlink:href="#New_Gradient_Swatch_192"/></defs><g style="isolation:isolate"><g id="Calque_2" data-name="Calque 2"><g id="Layer_1" data-name="Layer 1"><path d="M17.3,47.11c1.55,0,2.81.41,2.81.92S18.85,49,17.3,49s-2.81-.41-2.81-.92,1.26-.92,2.81-.92Z" style="fill:#4d4d4d;fill-rule:evenodd"/><path d="M17.79,61.39c0-5.33.13-10.18,2.81-14.35-.82-12.84-7.07-17.55-14.14-29.7A37.35,37.35,0,0,1,2.73,9.05a14,14,0,0,1,.6-9A4.75,4.75,0,0,0,.11,2.78c0,.1,0,.2,0,.3l.47.28c.46.26.27,1.16-.41.92h0a33.59,33.59,0,0,0,4,13.06c4.24,8.2,8.13,13,10.45,19.22,1.34,3.6,1.44,6.56-.53,9.54a4.13,4.13,0,0,1,.64,2.81c-.29,4.39-1.22,6.64-1.22,12.48s.93,8.1,1.22,12.48a4.13,4.13,0,0,1-.64,2.81c2,3,1.87,5.95.53,9.55-2.32,6.21-6.21,11-10.45,19.22a33.49,33.49,0,0,0-4,13.06h0c.68-.24.87.66.41.93l-.47.27c0,.11,0,.21,0,.31a4.75,4.75,0,0,0,3.22,2.78,14,14,0,0,1-.6-9.06,37.09,37.09,0,0,1,3.73-8.28C13.53,93.3,19.78,88.59,20.6,75.74c-2.68-4.16-2.81-9-2.81-14.35Z" style="fill:gray;fill-rule:evenodd"/><path d="M14.11,46.1c2.84,0,4.4-2.54,3.24-7.06C16,33.74,12,28.26,9.14,23.63,3.58,14.49,2.55,12.75,1.33,6.45,1,4.86.8,4.7.17,4.28h0a33.59,33.59,0,0,0,4,13.06c4.24,8.2,8.13,13,10.45,19.22,1.34,3.6,1.44,6.56-.53,9.54Z" style="fill-rule:evenodd;fill:url(#radial-gradient)"/><path d="M14.11,76.68c2.84,0,4.4,2.55,3.24,7.06C16,89.05,12,94.53,9.14,99.16,3.58,108.3,2.55,110,1.33,116.33,1,117.93.8,118.08.17,118.5h0a33.49,33.49,0,0,1,4-13.06c4.24-8.2,8.13-13,10.45-19.22,1.34-3.6,1.44-6.57-.53-9.55Z" style="fill-rule:evenodd;fill:url(#radial-gradient-2)"/><path d="M17.73,41.44A7,7,0,0,0,20.6,47c-.82-12.84-7.07-17.55-14.14-29.7A37.35,37.35,0,0,1,2.73,9.05a14,14,0,0,1,.6-9A4.75,4.75,0,0,0,.11,2.78c0,.1,0,.2,0,.3l.47.28c.46.26.27,1.16-.41.92.63.42.85.58,1.16,2.17,1.22,6.3,2.25,8,7.81,17.18C12,28.26,16,33.74,17.35,39a12.54,12.54,0,0,1,.33,1.74c0,.23,0,.45.05.66Z" style="fill-rule:evenodd;fill:url(#radial-gradient-3)"/><path d="M17.73,81.35a7.08,7.08,0,0,1,2.87-5.61c-.82,12.85-7.07,17.56-14.14,29.71a37.09,37.09,0,0,0-3.73,8.28,14,14,0,0,0,.6,9.06A4.75,4.75,0,0,1,.11,120c0-.1,0-.2,0-.31l.47-.27c.46-.27.27-1.17-.41-.93.63-.42.85-.57,1.16-2.17,1.22-6.3,2.25-8,7.81-17.17C12,94.53,16,89.05,17.35,83.74A12,12,0,0,0,17.68,82c0-.22,0-.44.05-.65Z" style="fill-rule:evenodd;fill:url(#radial-gradient-4)"/><path d="M.11,2.78A7.08,7.08,0,0,0,3.33,0,4.75,4.75,0,0,0,.11,2.78Z" style="fill-rule:evenodd;mix-blend-mode:multiply;fill:url(#linear-gradient)"/><path d="M.11,120a7,7,0,0,1,3.22,2.78A4.75,4.75,0,0,1,.11,120Z" style="fill-rule:evenodd;mix-blend-mode:multiply;fill:url(#linear-gradient-2)"/><path d="M.42,118.51a6.47,6.47,0,0,1,.94.11,5.12,5.12,0,0,1,1,.31.22.22,0,0,1,.1.28.21.21,0,0,1-.28.1,3.76,3.76,0,0,0-.78-.25l.25.16a4.46,4.46,0,0,1,1.07.91.22.22,0,0,1-.05.29.2.2,0,0,1-.29,0,4.22,4.22,0,0,0-1-.81,6.08,6.08,0,0,0-1.26-.65.2.2,0,0,1-.16-.2V4.12a.2.2,0,0,1,.16-.2,5.72,5.72,0,0,0,1.26-.66,3.77,3.77,0,0,0,1-.81.21.21,0,0,1,.29,0,.22.22,0,0,1,.05.29,4.7,4.7,0,0,1-1.07.91l-.25.16a3.76,3.76,0,0,0,.78-.25.21.21,0,0,1,.28.1.2.2,0,0,1-.1.27,4,4,0,0,1-1,.31,5.38,5.38,0,0,1-.94.12V118.51Z" style="fill:url(#radial-gradient-5)"/><path d="M13.53,61.39c0,5.85.93,8.1,1.22,12.48a4.13,4.13,0,0,1-.64,2.81c2.29,0,3.74,1.67,3.62,4.67a7.08,7.08,0,0,1,2.87-5.61c-2.68-4.16-2.81-9-2.81-14.35S17.92,51.21,20.6,47a7,7,0,0,1-2.87-5.6c.12,3-1.33,4.64-3.62,4.66a4.13,4.13,0,0,1,.64,2.81c-.29,4.39-1.22,6.64-1.22,12.48Z" style="fill-rule:evenodd;fill:url(#radial-gradient-6)"/><path d="M20.1,46.66c-1.76-2.38-1.32-4.51-2.35-7.93a35.26,35.26,0,0,0-3.74-8c-1.6-2.68-3.6-5.43-5.49-8.09l.62,1C12,28.26,16,33.74,17.35,39a11.4,11.4,0,0,1,.38,2.4,7.25,7.25,0,0,0,2.37,5.22Z" style="fill-rule:evenodd;fill:url(#linear-gradient-3)"/><path d="M20.1,76.12c-1.76,2.39-1.32,4.52-2.35,7.93a35.26,35.26,0,0,1-3.74,8c-1.6,2.68-3.6,5.44-5.49,8.1.2-.33.4-.67.62-1C12,94.53,16,89.05,17.35,83.74a11.22,11.22,0,0,0,.38-2.39,7.27,7.27,0,0,1,2.37-5.23Z" style="fill-rule:evenodd;fill:url(#linear-gradient-4)"/><path d="M19.74,73.81c.1.23-.12.44-.56.59a4.08,4.08,0,0,1-.84.18,9.06,9.06,0,0,1-1.09.06,10,10,0,0,1-1.12-.06,5.23,5.23,0,0,1-.91-.18c-.51-.15-.82-.36-.82-.59-.07-1.24-.21-2.46-.38-3.66h4.7a31.47,31.47,0,0,0,1,3.66Z" style="fill-rule:evenodd;fill:url(#linear-gradient-5)"/><path d="M18.78,70.2c0,.23-.17.49-.56.73a3.81,3.81,0,0,1-.7.34,5.3,5.3,0,0,1-.9.27,6.48,6.48,0,0,1-.93.13,4.1,4.1,0,0,1-.79,0c-.45-.06-.75-.21-.78-.44-.18-1.23-.38-2.43-.55-3.62l1.17-.24,1.16-.25,1.17-.24,1.16-.24c.14,1.17.33,2.36.55,3.57Z" style="fill-rule:evenodd;fill:url(#linear-gradient-6)"/><path d="M18.4,67.56c0,.24-.22.44-.64.59a4.19,4.19,0,0,1-.75.17,6.67,6.67,0,0,1-.94.07,7.22,7.22,0,0,1-1-.07,5.07,5.07,0,0,1-.8-.17c-.47-.15-.77-.35-.79-.58-.13-1.2-.22-2.37-.27-3.53h4.8c.1,1.16.21,2.33.35,3.52Z" style="fill-rule:evenodd;fill:url(#linear-gradient-7)"/><path d="M18.22,65.49c0,.22-.24.43-.67.57a4.61,4.61,0,0,1-.77.18,7.27,7.27,0,0,1-1,.06,7.47,7.47,0,0,1-1-.06,5,5,0,0,1-.8-.18c-.46-.14-.76-.35-.77-.57-.07-1.19-.1-2.36-.1-3.51H18c0,1.15.11,2.32.21,3.51Z" style="fill-rule:evenodd;fill:url(#linear-gradient-8)"/><path d="M18.09,62.73c0,.22-.26.37-.71.44a3.85,3.85,0,0,1-.79,0,7,7,0,0,1-1-.1c-.35-.06-.68-.14-1-.22a7.15,7.15,0,0,1-.8-.3c-.45-.22-.73-.46-.72-.69,0-1.15.09-2.29.2-3.41l1.17.2,1.18.19,1.19.2,1.2.2c0,1.12,0,2.28,0,3.45Z" style="fill-rule:evenodd;fill:url(#linear-gradient-9)"/><path d="M18.11,59.46c0,.21-.29.42-.74.6a4.79,4.79,0,0,1-.8.23,8.69,8.69,0,0,1-1,.14c-.34,0-.67,0-1,0a4.18,4.18,0,0,1-.78-.11c-.45-.1-.71-.28-.7-.49.1-1.15.23-2.28.37-3.39l1.19-.09,1.19-.1,1.19-.09,1.18-.09c-.08,1.11-.14,2.23-.16,3.38Z" style="fill-rule:evenodd;fill:url(#linear-gradient-10)"/><path d="M18.33,56c0,.21-.31.43-.76.62a6.15,6.15,0,0,1-.79.25,6.82,6.82,0,0,1-1,.18,8.08,8.08,0,0,1-1,.05A4.31,4.31,0,0,1,14.1,57c-.42-.09-.67-.25-.65-.46.16-1.12.33-2.22.49-3.3l1.2-.14,1.2-.14,1.2-.13,1.2-.14c-.16,1.07-.3,2.17-.41,3.28Z" style="fill-rule:evenodd;fill:url(#linear-gradient-11)"/><path d="M18.51,54.55c0,.2-.3.33-.74.36a5.3,5.3,0,0,1-.77,0,5.61,5.61,0,0,1-.91-.18,6.35,6.35,0,0,1-.9-.29,5.22,5.22,0,0,1-.71-.35c-.4-.24-.63-.5-.6-.7.17-1.09.33-2.17.48-3.22l1.2.28,1.19.28,1.16.29,1.16.28c-.22,1.08-.4,2.17-.56,3.28Z" style="fill-rule:evenodd;fill:url(#linear-gradient-12)"/><path d="M19.12,51.29c0,.2-.36.38-.83.52a7,7,0,0,1-.82.16,9.61,9.61,0,0,1-1,.05,9.45,9.45,0,0,1-1-.05,4.4,4.4,0,0,1-.75-.17c-.43-.13-.68-.31-.65-.51.15-1,.28-2.1.37-3.15.07.19.34.36.74.48a4.19,4.19,0,0,0,.84.19c.31,0,.66.06,1,.06s.73,0,1.06-.06a5.51,5.51,0,0,0,.92-.19,1.94,1.94,0,0,0,.95-.48,31.43,31.43,0,0,0-.95,3.15Z" style="fill-rule:evenodd;fill:url(#linear-gradient-13)"/><path d="M17.43,52a5.07,5.07,0,0,0,1-.21,1.45,1.45,0,0,0,.59-.33.34.34,0,0,0,.08-.14,31.43,31.43,0,0,1,.95-3.15,1.94,1.94,0,0,1-.95.48,5.65,5.65,0,0,1-.78.16A10.82,10.82,0,0,1,17.43,52Z" style="fill-rule:evenodd;opacity:0.5;mix-blend-mode:multiply;fill:url(#New_Gradient_Swatch_193)"/><path d="M19,51.43a1.45,1.45,0,0,1-.59.33,5.07,5.07,0,0,1-1,.21,6.73,6.73,0,0,1-.49,2.9,4,4,0,0,0,1,0,.83.83,0,0,0,.54-.2.31.31,0,0,0,.07-.14c.15-1.06.31-2.09.52-3.12Z" style="fill-rule:evenodd;opacity:0.5;mix-blend-mode:multiply;fill:url(#New_Gradient_Swatch_193-2)"/><path d="M18.46,54.69a.88.88,0,0,1-.55.2,4,4,0,0,1-1,0,3.44,3.44,0,0,1-.25,2,5,5,0,0,0,1-.33,1.52,1.52,0,0,0,.57-.41.47.47,0,0,0,.06-.15c0-.44.08-.87.13-1.3Z" style="fill-rule:evenodd;opacity:0.5;mix-blend-mode:multiply;fill:url(#New_Gradient_Swatch_193-3)"/><path d="M18.27,56.14a1.52,1.52,0,0,1-.57.41,5,5,0,0,1-1,.33,7.85,7.85,0,0,1-.24,3.43,5.43,5.43,0,0,0,1-.3,1.3,1.3,0,0,0,.56-.4.32.32,0,0,0,.06-.15c0-1.13.08-2.23.16-3.32Z" style="fill-rule:evenodd;opacity:0.5;mix-blend-mode:multiply;fill:url(#New_Gradient_Swatch_193-4)"/><path d="M18.05,59.61a1.3,1.3,0,0,1-.56.4,5.43,5.43,0,0,1-1,.3,6.14,6.14,0,0,1,0,2.89,3.82,3.82,0,0,0,1-.05.86.86,0,0,0,.56-.27.21.21,0,0,0,0-.15c0-1.06,0-2.09,0-3.12Z" style="fill-rule:evenodd;opacity:0.5;mix-blend-mode:multiply;fill:url(#New_Gradient_Swatch_193-5)"/><path d="M18.05,62.88a.86.86,0,0,1-.56.27,3.82,3.82,0,0,1-1,.05,5.49,5.49,0,0,1,.16,3.06,4.35,4.35,0,0,0,1-.23,1,1,0,0,0,.54-.38.23.23,0,0,0,0-.16c-.07-.88-.13-1.75-.17-2.61Z" style="fill-rule:evenodd;opacity:0.5;mix-blend-mode:multiply;fill:url(#New_Gradient_Swatch_193-6)"/><path d="M18.18,65.65a1,1,0,0,1-.54.38,4.35,4.35,0,0,1-1,.23,3.65,3.65,0,0,1,.22,2.08,4.19,4.19,0,0,0,1-.22,1,1,0,0,0,.51-.38.37.37,0,0,0,0-.18c-.08-.64-.15-1.27-.22-1.91Z" style="fill-rule:evenodd;opacity:0.5;mix-blend-mode:multiply;fill:url(#New_Gradient_Swatch_193-7)"/><path d="M18.36,67.74a1,1,0,0,1-.51.38,4.19,4.19,0,0,1-1,.22,9.41,9.41,0,0,1,.5,3,4,4,0,0,0,1-.46,1.13,1.13,0,0,0,.48-.51.37.37,0,0,0,0-.18c-.16-.83-.29-1.65-.42-2.46Z" style="fill-rule:evenodd;opacity:0.5;mix-blend-mode:multiply;fill:url(#New_Gradient_Swatch_193-8)"/><path d="M18.77,70.38a1.13,1.13,0,0,1-.48.51,4,4,0,0,1-1,.46,8.15,8.15,0,0,1,.74,3.26,7.36,7.36,0,0,0,.77-.12,2.39,2.39,0,0,0,.57-.18c.29-.13.42-.31.34-.5a29.07,29.07,0,0,1-1-3.43Z" style="fill-rule:evenodd;opacity:0.5;mix-blend-mode:multiply;fill:url(#New_Gradient_Swatch_193-9)"/><path d="M14.18,51.43a1,1,0,0,0,.64.38,14.77,14.77,0,0,1,.35-3.22,1,1,0,0,1-.65-.44c-.09,1-.22,2.09-.37,3.14a.18.18,0,0,0,0,.14Z" style="fill-rule:evenodd;mix-blend-mode:multiply;fill:url(#linear-gradient-14)"/><path d="M14.82,51.81a1,1,0,0,1-.64-.38l-.3,1.93a.26.26,0,0,0,0,.15,1.41,1.41,0,0,0,.61.57,5.36,5.36,0,0,1,.31-2.27Z" style="fill-rule:evenodd;mix-blend-mode:multiply;fill:url(#linear-gradient-15)"/><path d="M14.51,54.08a1.41,1.41,0,0,1-.61-.57c-.15,1-.3,2-.45,3.05a.4.4,0,0,0,0,.15,1,1,0,0,0,.67.32,9,9,0,0,1,.36-3Z" style="fill-rule:evenodd;mix-blend-mode:multiply;fill:url(#linear-gradient-16)"/><path d="M14.15,57a1,1,0,0,1-.67-.32c-.13,1-.24,2.07-.33,3.13a.28.28,0,0,0,0,.15,1.14,1.14,0,0,0,.72.36A10.57,10.57,0,0,1,14.15,57Z" style="fill-rule:evenodd;mix-blend-mode:multiply;fill:url(#linear-gradient-17)"/><path d="M13.91,60.35a1.14,1.14,0,0,1-.72-.36c0,.63-.06,1.27-.07,1.91a.31.31,0,0,0,.05.18,1.65,1.65,0,0,0,.74.53,4.93,4.93,0,0,1,0-2.26Z" style="fill-rule:evenodd;mix-blend-mode:multiply;fill:url(#linear-gradient-18)"/><path d="M13.91,62.61a1.65,1.65,0,0,1-.74-.53c0,1.11,0,2.25.1,3.41a.25.25,0,0,0,.06.16,1.54,1.54,0,0,0,.79.44,11.29,11.29,0,0,1-.21-3.48Z" style="fill-rule:evenodd;mix-blend-mode:multiply;fill:url(#linear-gradient-19)"/><path d="M14.12,66.09a1.54,1.54,0,0,1-.79-.44c.05.64.11,1.28.19,1.92a.31.31,0,0,0,.07.17,1.63,1.63,0,0,0,.8.43,5.12,5.12,0,0,1-.27-2.08Z" style="fill-rule:evenodd;mix-blend-mode:multiply;fill:url(#linear-gradient-20)"/><path d="M14.39,68.17a1.63,1.63,0,0,1-.8-.43c.16,1.14.36,2.3.53,3.48a.35.35,0,0,0,.08.16,1.25,1.25,0,0,0,.8.29,9.82,9.82,0,0,1-.61-3.5Z" style="fill-rule:evenodd;mix-blend-mode:multiply;fill:url(#linear-gradient-21)"/><path d="M15,71.67a1.25,1.25,0,0,1-.8-.29c.09.8.16,1.61.2,2.43,0,.24.36.47.93.62A5.67,5.67,0,0,1,15,71.67Z" style="fill-rule:evenodd;mix-blend-mode:multiply;fill:url(#linear-gradient-22)"/><path d="M16.72,72.05a7.3,7.3,0,0,0,.84,0,5.14,5.14,0,0,0,.69-.15c.4-.12.67-.29.74-.48-.09-.33-.16-.66-.22-1a1.47,1.47,0,0,1-.71.65,3.84,3.84,0,0,1-.64.28,5.79,5.79,0,0,1-.8.23,6.24,6.24,0,0,1-.82.12,3.41,3.41,0,0,1-.71,0,1.26,1.26,0,0,1-.89-.29h0a1.67,1.67,0,0,0,.91.47,5,5,0,0,0,.75.14,7.81,7.81,0,0,0,.86,0Z" style="fill-rule:evenodd;mix-blend-mode:multiply;fill:url(#New_Gradient_Swatch_192)"/><path d="M16.13,68.73a5.09,5.09,0,0,0,.84.07,4,4,0,0,0,.71,0c.41-.06.7-.17.79-.34s-.07-.47-.11-.69a1.17,1.17,0,0,1-.77.46,4,4,0,0,1-.69.14,7.26,7.26,0,0,1-.83,0,7.44,7.44,0,0,1-.84,0,4.87,4.87,0,0,1-.74-.14,1.74,1.74,0,0,1-.9-.46h0a2,2,0,0,0,.92.59c.23.08.48.17.75.24s.56.12.87.16Z" style="fill-rule:evenodd;mix-blend-mode:multiply;fill:url(#New_Gradient_Swatch_192-2)"/><path d="M15.85,66.64a5.42,5.42,0,0,0,.86.07,4.23,4.23,0,0,0,.73,0,1.13,1.13,0,0,0,.81-.35c0-.23-.05-.45-.07-.68a1.27,1.27,0,0,1-.81.46,4.46,4.46,0,0,1-.71.14,7.44,7.44,0,0,1-.84,0,7.81,7.81,0,0,1-.86,0,4.87,4.87,0,0,1-.74-.14,1.56,1.56,0,0,1-.89-.46h0a2,2,0,0,0,.9.58,6.62,6.62,0,0,0,.75.24,5.83,5.83,0,0,0,.87.16Z" style="fill-rule:evenodd;mix-blend-mode:multiply;fill:url(#New_Gradient_Swatch_192-3)"/><path d="M15.63,63.44a8.38,8.38,0,0,0,.87.21,5.07,5.07,0,0,0,.73.08c.43,0,.74,0,.85-.2l0-.65a1.19,1.19,0,0,1-.84.31,5.66,5.66,0,0,1-.73,0c-.27,0-.56-.05-.86-.1a7,7,0,0,1-.87-.19,6.23,6.23,0,0,1-.73-.25,1.92,1.92,0,0,1-.85-.59h0a2.12,2.12,0,0,0,.85.7,7.31,7.31,0,0,0,.74.36c.27.1.56.21.87.3Z" style="fill-rule:evenodd;mix-blend-mode:multiply;fill:url(#New_Gradient_Swatch_192-4)"/><path d="M15.6,60.72a6.11,6.11,0,0,0,.86,0,7.16,7.16,0,0,0,.73-.1,1.48,1.48,0,0,0,.85-.42c0-.19,0-.38,0-.58a1.64,1.64,0,0,1-.86.51,5.93,5.93,0,0,1-.73.19c-.27,0-.56.09-.86.12s-.59,0-.86,0a5,5,0,0,1-.72-.08,1.25,1.25,0,0,1-.83-.38h0a1.45,1.45,0,0,0,.82.48,6.15,6.15,0,0,0,.73.16,7.2,7.2,0,0,0,.86.08Z" style="fill-rule:evenodd;mix-blend-mode:multiply;fill:url(#New_Gradient_Swatch_192-5)"/><path d="M15.8,57.33a7.58,7.58,0,0,0,.84,0,4.64,4.64,0,0,0,.72-.13,1.58,1.58,0,0,0,.86-.43c0-.2,0-.39.05-.58a1.92,1.92,0,0,1-.88.54,5.64,5.64,0,0,1-.72.21c-.27.06-.55.11-.85.15s-.58.05-.84.05a5.14,5.14,0,0,1-.71,0,1.12,1.12,0,0,1-.79-.34h0a1.26,1.26,0,0,0,.78.43,4.17,4.17,0,0,0,.7.13,7.3,7.3,0,0,0,.84,0Z" style="fill-rule:evenodd;mix-blend-mode:multiply;fill:url(#New_Gradient_Swatch_192-6)"/><path d="M16.06,54.92a7.28,7.28,0,0,0,.81.24,5.14,5.14,0,0,0,.7.12,1.09,1.09,0,0,0,.84-.16c0-.14,0-.29.05-.43a1.25,1.25,0,0,1-.86.22,6,6,0,0,1-.7,0,6.92,6.92,0,0,1-.81-.17,7.55,7.55,0,0,1-.8-.25,5.88,5.88,0,0,1-.66-.3,1.64,1.64,0,0,1-.73-.64h0a1.85,1.85,0,0,0,.72.71,5.58,5.58,0,0,0,.65.36,7.21,7.21,0,0,0,.79.33Z" style="fill-rule:evenodd;mix-blend-mode:multiply;fill:url(#New_Gradient_Swatch_192-7)"/><path d="M16.46,52.27a8.39,8.39,0,0,0,.84,0,7.18,7.18,0,0,0,.73-.06A1.63,1.63,0,0,0,19,51.9l.09-.47a1.83,1.83,0,0,1-.93.42,6.83,6.83,0,0,1-.75.13,7.88,7.88,0,0,1-.86,0,7.39,7.39,0,0,1-.84,0,4.17,4.17,0,0,1-.7-.13,1.19,1.19,0,0,1-.78-.42h0a1.36,1.36,0,0,0,.76.51c.21.07.44.14.69.2s.54.1.83.13Z" style="fill-rule:evenodd;mix-blend-mode:multiply;fill:url(#New_Gradient_Swatch_192-8)"/></g></g></g></svg>