<svg xmlns="http://www.w3.org/2000/svg" xmlns:xlink="http://www.w3.org/1999/xlink" viewBox="0 0 38.96 137.24"><defs><radialGradient id="radial-gradient" cx="-1.81" cy="18.82" r="84.48" gradientUnits="userSpaceOnUse"><stop offset="0" stop-color="#cfe2e8"/><stop offset="1" stop-color="#5c839e"/></radialGradient><radialGradient id="radial-gradient-2" cx="51.79" cy="26.35" r="79.11" gradientUnits="userSpaceOnUse"><stop offset="0" stop-color="#a1c3e6"/><stop offset="1" stop-color="#4e729e"/></radialGradient><radialGradient id="radial-gradient-3" cx="13.3" cy="98.27" r="17.33" xlink:href="#radial-gradient"/><radialGradient id="radial-gradient-4" cx="31.28" cy="99.43" r="22.27" xlink:href="#radial-gradient-2"/><linearGradient id="linear-gradient" x1="15.3" y1="94.83" x2="15.3" y2="83.09" gradientUnits="userSpaceOnUse"><stop offset="0" stop-color="#94b3cc"/><stop offset="1" stop-color="#406178"/></linearGradient><linearGradient id="linear-gradient-2" x1="16.01" y1="83.55" x2="16.01" gradientUnits="userSpaceOnUse"><stop offset="0" stop-color="#a9c5cf"/><stop offset="1" stop-color="#d9f2fa"/></linearGradient><linearGradient id="linear-gradient-3" x1="23.67" y1="94.83" x2="23.67" y2="83.09" gradientUnits="userSpaceOnUse"><stop offset="0" stop-color="#677b82"/><stop offset="1" stop-color="#353d5c"/></linearGradient><linearGradient id="linear-gradient-4" x1="22.95" y1="83.55" x2="22.95" gradientUnits="userSpaceOnUse"><stop offset="0" stop-color="#89a7cc"/><stop offset="1" stop-color="#a1b9c9"/></linearGradient><linearGradient id="linear-gradient-5" x1="17.41" y1="56.11" x2="21.55" y2="56.11" gradientUnits="userSpaceOnUse"><stop offset="0" stop-color="#4e577a"/><stop offset="1" stop-color="#627da6"/></linearGradient><linearGradient id="linear-gradient-6" x1="19.48" y1="56.11" x2="21.55" y2="56.11" gradientUnits="userSpaceOnUse"><stop offset="0" stop-color="#5c839e"/><stop offset="1" stop-color="#94b3d4"/></linearGradient><radialGradient id="New_Gradient_Swatch_107" cx="19.85" cy="136.46" r="9.16" gradientUnits="userSpaceOnUse"><stop offset="0" stop-color="#4ebaff"/><stop offset="1" stop-color="#3b46ff"/></radialGradient><radialGradient id="radial-gradient-5" cx="18.1" cy="133.06" r="6.08" gradientUnits="userSpaceOnUse"><stop offset="0" stop-color="#8ad1ff"/><stop offset="1" stop-color="#1256ff"/></radialGradient><radialGradient id="New_Gradient_Swatch_107-2" cx="16.73" cy="132.31" r="7.81" xlink:href="#New_Gradient_Swatch_107"/><radialGradient id="New_Gradient_Swatch_107-3" cx="18.95" cy="125.29" r="12.34" xlink:href="#New_Gradient_Swatch_107"/><linearGradient id="linear-gradient-7" x1="16.73" y1="130.13" x2="22.23" y2="130.13" gradientUnits="userSpaceOnUse"><stop offset="0" stop-color="#424e66"/><stop offset="0.34" stop-color="#677b82"/><stop offset="1" stop-color="#353d5c"/></linearGradient><linearGradient id="linear-gradient-8" x1="17.04" y1="130.53" x2="21.01" y2="130.53" gradientUnits="userSpaceOnUse"><stop offset="0" stop-color="#fff"/><stop offset="0.25" stop-color="#c3c3c3"/><stop offset="0.83" stop-color="#2d2d2d"/><stop offset="1"/></linearGradient><linearGradient id="New_Gradient_Swatch_184" x1="17.06" y1="126.71" x2="21.9" y2="126.71" gradientUnits="userSpaceOnUse"><stop offset="0" stop-color="#342b4a"/><stop offset="0.33" stop-color="#4e4670"/><stop offset="0.54" stop-color="#41385e"/><stop offset="0.78" stop-color="#372e51"/><stop offset="1" stop-color="#342b4d"/></linearGradient><radialGradient id="radial-gradient-6" cx="12.71" cy="126.3" r="6.75" gradientUnits="userSpaceOnUse"><stop offset="0" stop-color="#fff"/><stop offset="1" stop-color="#cbc1e3"/></radialGradient><radialGradient id="New_Gradient_Swatch_185" cx="18.11" cy="126.7" r="8.18" gradientUnits="userSpaceOnUse"><stop offset="0" stop-color="#cbc1e3"/><stop offset="1" stop-color="#fff"/></radialGradient><radialGradient id="New_Gradient_Swatch_186" cx="18.13" cy="126.74" r="6.07" gradientUnits="userSpaceOnUse"><stop offset="0"/><stop offset="1" stop-color="#382b54"/></radialGradient><linearGradient id="New_Gradient_Swatch_184-2" x1="17.06" y1="120.24" x2="21.9" y2="120.24" xlink:href="#New_Gradient_Swatch_184"/><radialGradient id="radial-gradient-7" cx="14.04" cy="119.76" r="5.56" xlink:href="#radial-gradient-6"/><radialGradient id="New_Gradient_Swatch_185-2" cx="19.3" cy="120.03" r="7.07" xlink:href="#New_Gradient_Swatch_185"/><radialGradient id="New_Gradient_Swatch_186-2" cx="18.13" cy="120.48" r="5.04" xlink:href="#New_Gradient_Swatch_186"/><linearGradient id="New_Gradient_Swatch_184-3" x1="16.9" y1="113.44" x2="22.06" y2="113.44" xlink:href="#New_Gradient_Swatch_184"/><radialGradient id="radial-gradient-8" cx="12.01" cy="113.11" r="7.88" xlink:href="#radial-gradient-6"/><radialGradient id="New_Gradient_Swatch_185-3" cx="23.76" cy="113.35" r="6.97" xlink:href="#New_Gradient_Swatch_185"/><radialGradient id="New_Gradient_Swatch_186-3" cx="17.59" cy="113.44" r="4.66" xlink:href="#New_Gradient_Swatch_186"/><linearGradient id="linear-gradient-9" x1="16.72" y1="107.74" x2="22.24" y2="107.74" xlink:href="#linear-gradient-7"/><linearGradient id="linear-gradient-10" x1="16.72" y1="107.64" x2="17.43" y2="107.64" gradientUnits="userSpaceOnUse"><stop offset="0" stop-color="#5a5e6b"/><stop offset="0.62" stop-color="#c3c4c9"/><stop offset="1" stop-color="#fff"/></linearGradient><linearGradient id="linear-gradient-11" x1="20.7" y1="107.71" x2="22.24" y2="107.71" gradientUnits="userSpaceOnUse"><stop offset="0" stop-color="#fff"/><stop offset="0.38" stop-color="#c3c4c9"/><stop offset="1" stop-color="#5a5e6b"/></linearGradient><radialGradient id="radial-gradient-9" cx="13.44" cy="108.2" r="8.13" xlink:href="#linear-gradient-8"/><radialGradient id="radial-gradient-10" cx="15.6" cy="109.35" r="6.45" xlink:href="#linear-gradient-8"/><radialGradient id="radial-gradient-11" cx="12.22" cy="89.29" r="9.71" xlink:href="#linear-gradient-3"/><radialGradient id="radial-gradient-12" cx="25.32" cy="96.2" r="8.42" xlink:href="#linear-gradient-3"/><radialGradient id="radial-gradient-13" cx="14.39" cy="102.71" r="7.85" xlink:href="#linear-gradient-3"/><radialGradient id="radial-gradient-14" cx="18" cy="98.76" r="18.68" xlink:href="#linear-gradient-3"/><radialGradient id="radial-gradient-15" cx="26.53" cy="105.4" r="9.4" xlink:href="#radial-gradient"/><radialGradient id="radial-gradient-16" cx="18.71" cy="96.58" r="8.43" gradientUnits="userSpaceOnUse"><stop offset="0.26"/><stop offset="0.39" stop-color="#2d2d2d"/><stop offset="0.81" stop-color="#c3c3c3"/><stop offset="1" stop-color="#fff"/></radialGradient><radialGradient id="radial-gradient-17" cx="16.97" cy="89.42" r="20.36" xlink:href="#radial-gradient"/><radialGradient id="radial-gradient-18" cx="31.73" cy="113.73" r="21.8" gradientUnits="userSpaceOnUse"><stop offset="0" stop-color="#cfe2e8"/><stop offset="1" stop-color="#3f536b"/></radialGradient><radialGradient id="radial-gradient-19" cx="37.78" cy="90.6" r="22.36" xlink:href="#linear-gradient-3"/><radialGradient id="radial-gradient-20" cx="8.18" cy="85.32" r="16.05" xlink:href="#radial-gradient-16"/><radialGradient id="radial-gradient-21" cx="30.05" cy="85.69" r="16.66" xlink:href="#linear-gradient-11"/><radialGradient id="radial-gradient-22" cx="7.45" cy="89.24" r="18.7" xlink:href="#linear-gradient-11"/><radialGradient id="radial-gradient-23" cx="30.98" cy="110.2" r="17.96" xlink:href="#linear-gradient-11"/><radialGradient id="radial-gradient-24" cx="14.22" cy="131.08" r="7.62" gradientUnits="userSpaceOnUse"><stop offset="0"/><stop offset="1" stop-color="#9ff"/></radialGradient></defs><g style="isolation:isolate"><g id="Calque_2" data-name="Calque 2"><g id="Layer_1" data-name="Layer 1"><path d="M12.54,83.55a43.6,43.6,0,0,1,6.94-1.32V0a116.45,116.45,0,0,0-4.12,20.66c-.95,13.55-2.47,48.3-2.82,62.89Z" style="fill-rule:evenodd;fill:url(#radial-gradient)"/><path d="M19.48,0V82.23a43.6,43.6,0,0,1,6.94,1.32C26.07,69,24.55,34.21,23.6,20.66A116.45,116.45,0,0,0,19.48,0Z" style="fill-rule:evenodd;fill:url(#radial-gradient-2)"/><path d="M19.48,82.23a43.6,43.6,0,0,0-6.94,1.32c2,2.62,3.69,4.63,3.69,11.28h3.25V82.23Z" style="fill-rule:evenodd;fill:url(#radial-gradient-3)"/><path d="M19.48,82.23v12.6h3.25c0-6.65,1.65-8.66,3.69-11.28a43.6,43.6,0,0,0-6.94-1.32Z" style="fill-rule:evenodd;fill:url(#radial-gradient-4)"/><path d="M18.05,93.21a15.53,15.53,0,0,0-2.88-9.13q-.36-.51-.75-1c-.63.14-1.26.3-1.88.46,2,2.62,3.69,4.63,3.69,11.28h1.82V93.21Z" style="fill-rule:evenodd;fill:url(#linear-gradient)"/><path d="M14.41,83.06c.25-10.12.67-20.26,1.11-30.39q.39-9,.85-18.05c.25-4.62.5-9.24.84-13.86a80.06,80.06,0,0,1,1.42-9.59c.26-1.3.55-2.59.85-3.88V0a116.45,116.45,0,0,0-4.12,20.66c-.95,13.55-2.47,48.3-2.82,62.89.62-.16,1.25-.32,1.88-.46v0Z" style="fill-rule:evenodd;fill:url(#linear-gradient-2)"/><path d="M20.91,93.21a15.53,15.53,0,0,1,2.88-9.13q.36-.51.75-1c.63.14,1.26.3,1.88.46-2,2.62-3.69,4.63-3.69,11.28H20.91V93.21Z" style="fill-rule:evenodd;fill:url(#linear-gradient-3)"/><path d="M24.55,83.06c-.25-10.12-.67-20.26-1.1-30.39q-.4-9-.86-18.05c-.24-4.62-.5-9.24-.84-13.86a80.06,80.06,0,0,0-1.42-9.59c-.26-1.3-.55-2.59-.85-3.88V0A116.45,116.45,0,0,1,23.6,20.66c.95,13.55,2.47,48.3,2.82,62.89-.62-.16-1.25-.32-1.88-.46v0Z" style="fill-rule:evenodd;fill:url(#linear-gradient-4)"/><polygon points="19.48 84.58 17.41 82.49 18.41 28.8 19.48 27.64 20.55 28.8 21.55 82.49 19.48 84.58 19.48 84.58" style="fill-rule:evenodd;fill:url(#linear-gradient-5)"/><polygon points="19.48 84.58 21.55 82.49 20.55 28.8 19.48 27.64 19.48 84.58 19.48 84.58" style="fill-rule:evenodd;fill:url(#linear-gradient-6)"/><path d="M22.7,130.56h0a19.51,19.51,0,0,1,.23,3.23A19.46,19.46,0,0,1,22.7,137a20.43,20.43,0,0,1-3.22.23,20.52,20.52,0,0,1-3.22-.23,22.73,22.73,0,0,1,0-6.45,20.52,20.52,0,0,1,3.22-.23,20.43,20.43,0,0,1,3.22.23Z" style="fill:#999;fill-rule:evenodd"/><path d="M19.48,133.79l-3.22-3.23a22.73,22.73,0,0,0,0,6.45l3.22-3.22Z" style="fill-rule:evenodd;fill:url(#New_Gradient_Swatch_107)"/><path d="M16.26,130.56l3.22,3.23,3.22-3.23a20.43,20.43,0,0,0-3.22-.23,20.52,20.52,0,0,0-3.22.23Z" style="fill-rule:evenodd;fill:url(#radial-gradient-5)"/><path d="M22.7,130.56l-3.22,3.23L22.7,137a19.46,19.46,0,0,0,.23-3.22,19.51,19.51,0,0,0-.23-3.23Z" style="fill-rule:evenodd;fill:url(#New_Gradient_Swatch_107-2)"/><path d="M22.7,137l-3.22-3.22L16.26,137a20.52,20.52,0,0,0,3.22.23A20.43,20.43,0,0,0,22.7,137Z" style="fill-rule:evenodd;fill:url(#New_Gradient_Swatch_107-3)"/><path d="M19.48,129.24a10.75,10.75,0,0,1,1.64.11c.69.1,1.11.37,1.11.78s-.42.68-1.11.79a10.75,10.75,0,0,1-1.64.11,10.75,10.75,0,0,1-1.64-.11c-.69-.11-1.11-.38-1.11-.79s.42-.68,1.11-.78a10.75,10.75,0,0,1,1.64-.11Z" style="fill:url(#linear-gradient-7)"/><path d="M21.12,129.35a10.75,10.75,0,0,0-1.64-.11,10.75,10.75,0,0,0-1.64.11,2.07,2.07,0,0,0-.7.21.24.24,0,0,0-.14.22.25.25,0,0,0,.14.23,2.07,2.07,0,0,0,.7.21,10.75,10.75,0,0,0,1.64.11,10.75,10.75,0,0,0,1.64-.11,2.07,2.07,0,0,0,.7-.21.25.25,0,0,0,.14-.23.24.24,0,0,0-.14-.22,2.07,2.07,0,0,0-.7-.21Z" style="fill:#9d9d9c;fill-rule:evenodd;mix-blend-mode:multiply"/><path d="M17.12,130.19a.15.15,0,0,0-.08.16c.15.74,3.48.66,4,0a9.73,9.73,0,0,1-3.49-.13,1,1,0,0,0-.4-.07Z" style="fill-rule:evenodd;opacity:0.5;mix-blend-mode:screen;fill:url(#linear-gradient-8)"/><path d="M17.06,123.27H21.9a13,13,0,0,0,0,6.47c0,.23-1.08.41-2.42.41s-2.42-.18-2.42-.41a13,13,0,0,0,0-6.47Z" style="fill-rule:evenodd;fill:url(#New_Gradient_Swatch_184)"/><path d="M17.7,130a19.77,19.77,0,0,0-.06-6.75h-.58a13,13,0,0,1,0,6.47c0,.1.28.21.64.28Z" style="fill-rule:evenodd;mix-blend-mode:multiply;fill:url(#radial-gradient-6)"/><path d="M21.17,123.27a19.44,19.44,0,0,0-.07,6.78c.45-.08.8-.19.8-.31a13,13,0,0,1,0-6.47Z" style="fill-rule:evenodd;mix-blend-mode:multiply;fill:url(#New_Gradient_Swatch_185)"/><path d="M18.09,123.27a20.4,20.4,0,0,1,0,6.81,11.84,11.84,0,0,0,1.27.07,47.78,47.78,0,0,0,.08-6.88Z" style="fill-rule:evenodd;mix-blend-mode:screen;fill:url(#New_Gradient_Swatch_186)"/><path d="M17.06,116.8H21.9a13,13,0,0,0,0,6.47c0,.23-1.08.41-2.42.41s-2.42-.18-2.42-.41a13,13,0,0,0,0-6.47Z" style="fill-rule:evenodd;fill:url(#New_Gradient_Swatch_184-2)"/><path d="M17.7,123.55a19.77,19.77,0,0,0-.06-6.75h-.58a13,13,0,0,1,0,6.47c0,.1.28.21.64.28Z" style="fill-rule:evenodd;mix-blend-mode:multiply;fill:url(#radial-gradient-7)"/><path d="M21.17,116.8a19.44,19.44,0,0,0-.07,6.78c.45-.08.8-.2.8-.31a13,13,0,0,1,0-6.47Z" style="fill-rule:evenodd;mix-blend-mode:multiply;fill:url(#New_Gradient_Swatch_185-2)"/><path d="M18.1,117.14a18.4,18.4,0,0,1,0,6.48,13,13,0,0,0,1.32.06,42.5,42.5,0,0,0-.1-6.47l-1.27-.07Z" style="fill-rule:evenodd;mix-blend-mode:screen;fill:url(#New_Gradient_Swatch_186-2)"/><path d="M16.9,109.67h5.16a15.6,15.6,0,0,0-.16,7.13c0,.23-1.08.41-2.42.41s-2.42-.18-2.42-.41a15.6,15.6,0,0,0-.16-7.13Z" style="fill-rule:evenodd;fill:url(#New_Gradient_Swatch_184-3)"/><path d="M17.6,109.67h-.7a15.6,15.6,0,0,1,.16,7.13l0,0c.1.13.47.2.62.23a22.74,22.74,0,0,0-.1-7.41Z" style="fill-rule:evenodd;mix-blend-mode:multiply;fill:url(#radial-gradient-8)"/><path d="M21.2,109.67a23.49,23.49,0,0,0-.1,7.44c.17,0,.67-.11.78-.26l0,0a15.6,15.6,0,0,1,.16-7.13Z" style="fill-rule:evenodd;mix-blend-mode:multiply;fill:url(#New_Gradient_Swatch_185-3)"/><path d="M18.09,109.67a24.53,24.53,0,0,1,0,7.47,11.84,11.84,0,0,0,1.27.07,57.37,57.37,0,0,0,.08-7.54Z" style="fill-rule:evenodd;mix-blend-mode:screen;fill:url(#New_Gradient_Swatch_186-3)"/><path d="M16.72,105.3h5.52c-.06.94-.12,3.43-.18,4.37,0,.15-.31.27-.77.37a10.16,10.16,0,0,1-1.81.14,10.16,10.16,0,0,1-1.81-.14c-.46-.1-.76-.22-.77-.37-.06-.94-.12-3.43-.18-4.37Z" style="fill-rule:evenodd;fill:url(#linear-gradient-9)"/><path d="M17.35,109.84c-.05-1-.1-3.55-.15-4.54h-.48c.06.94.12,3.43.18,4.37,0,.12.21.23.53.31a.23.23,0,0,1-.08-.14Z" style="fill-rule:evenodd;opacity:0.5;mix-blend-mode:multiply;fill:url(#linear-gradient-10)"/><path d="M21.13,105.3c0,1-.08,3.54-.12,4.54,0,.11-.12.2-.31.28a4.69,4.69,0,0,0,1-.18c.24-.08.38-.17.39-.27.06-.94.12-3.43.18-4.37Z" style="fill-rule:evenodd;opacity:0.5;mix-blend-mode:multiply;fill:url(#linear-gradient-11)"/><path d="M17.62,105.3c.05,1.06.09,3.68.14,4.75a5.37,5.37,0,0,0,.65.09l.77,0c0-1.11,0-3.77,0-4.88H17.62Z" style="fill-rule:evenodd;opacity:0.5;mix-blend-mode:screen;fill:url(#radial-gradient-9)"/><path d="M19.59,105.3c0,1.11,0,3.77,0,4.88l.71,0c0-1.11,0-3.76.06-4.86Z" style="fill-rule:evenodd;opacity:0.5;mix-blend-mode:screen;fill:url(#radial-gradient-10)"/><polygon points="19.48 92.25 14.13 97.6 16.73 97.6 19.48 94.85 19.48 92.25 19.48 92.25" style="fill-rule:evenodd;fill:url(#radial-gradient-11)"/><polygon points="24.83 97.6 19.48 92.25 19.48 94.85 22.23 97.6 24.83 97.6 24.83 97.6" style="fill-rule:evenodd;fill:url(#radial-gradient-12)"/><polygon points="19.48 100.35 16.73 97.6 14.13 97.6 19.48 102.94 19.48 100.35 19.48 100.35" style="fill-rule:evenodd;fill:url(#radial-gradient-13)"/><path d="M19.48,102.94,14.13,97.6H0a5.64,5.64,0,0,0,1.19,2.8,13.85,13.85,0,0,1,5.29-1.08h5.1a3.92,3.92,0,0,1,2.87,1.19l.76.76a3.87,3.87,0,0,1,1.36,3.27l.05.93,2.86.5v-3Z" style="fill-rule:evenodd;fill:url(#radial-gradient-14)"/><path d="M24.83,97.6l-5.35,5.34v3l2.87-.5,0-.93a3.87,3.87,0,0,1,1.36-3.27l3.67-3.67Z" style="fill:#5a5a5a;fill-rule:evenodd"/><polygon points="19.48 102.94 24.83 97.6 22.23 97.6 19.48 100.35 19.48 102.94 19.48 102.94" style="fill-rule:evenodd;fill:url(#radial-gradient-15)"/><path d="M22.88,97.6c.73.47.18,1.6-.6,2.39a8.21,8.21,0,0,1-1.35,1.15c-.81.5-1.28.22-1.45-.25v2l5.35-5.34Z" style="fill-rule:evenodd;opacity:0.5;mix-blend-mode:screen;fill:url(#radial-gradient-16)"/><path d="M6.48,95.88A13.85,13.85,0,0,1,1.19,94.8,5.6,5.6,0,0,0,0,97.6H14.13l5.35-5.35V89.66l-5,5a3.92,3.92,0,0,1-2.87,1.19Z" style="fill-rule:evenodd;fill:url(#radial-gradient-17)"/><path d="M19.48,102.94l5.35-5.34H39a5.64,5.64,0,0,1-1.19,2.8,13.81,13.81,0,0,0-5.29-1.08h-5.1a3.93,3.93,0,0,0-2.87,1.19l-.76.76a3.87,3.87,0,0,0-1.36,3.27l0,.93-2.87.5v-3Z" style="fill-rule:evenodd;fill:url(#radial-gradient-18)"/><path d="M32.48,95.88a13.81,13.81,0,0,0,5.29-1.08A5.6,5.6,0,0,1,39,97.6H24.83l-5.35-5.35V89.66l5,5a3.93,3.93,0,0,0,2.87,1.19Z" style="fill-rule:evenodd;fill:url(#radial-gradient-19)"/><path d="M13.84,95.83c2.11-.52,4.08-3.19,4.8-5.34l-4.19,4.2a3.92,3.92,0,0,1-2.87,1.19H6.48a15.11,15.11,0,0,1-2.76-.3,7.4,7.4,0,0,0,2.74.49h4.38a13.55,13.55,0,0,0,3-.24Z" style="fill-rule:evenodd;mix-blend-mode:screen;fill:url(#radial-gradient-20)"/><path d="M25.12,95.83c-2.11-.52-4.08-3.19-4.8-5.34l4.19,4.2a3.93,3.93,0,0,0,2.87,1.19h5.1a15.11,15.11,0,0,0,2.76-.3,7.35,7.35,0,0,1-2.73.49H28.12a13.61,13.61,0,0,1-3-.24Z" style="fill-rule:evenodd;opacity:0.5;mix-blend-mode:multiply;fill:url(#radial-gradient-21)"/><path d="M2.4,98.93A2.85,2.85,0,0,1,.09,98.2a6.1,6.1,0,0,0,1.1,2.2,13.85,13.85,0,0,1,5.29-1.08h5.1a3.92,3.92,0,0,1,2.87,1.19l.36.36a8.24,8.24,0,0,0-1.32-1.32,2.82,2.82,0,0,0-1.55-.63c-3.43-.12-6.15-.12-9.54,0Z" style="fill-rule:evenodd;opacity:0.75;mix-blend-mode:multiply;fill:url(#radial-gradient-22)"/><path d="M21.07,104.25c-.05.49-.11,1-.16,1.47l1.44-.25,0-.93a3.87,3.87,0,0,1,1.36-3.27l.76-.76a3.93,3.93,0,0,1,2.87-1.19h5.1a13.84,13.84,0,0,1,5.27,1.07,12.68,12.68,0,0,0-5.88-1.53l-2.37-.07-2.38,0a3.35,3.35,0,0,0-3.2,1.31l-1.4,1.39c-1.12,1.12-1.28,1.14-1.45,2.79Z" style="fill-rule:evenodd;mix-blend-mode:multiply;fill:url(#radial-gradient-23)"/><path d="M16.06,135.11a17.67,17.67,0,0,0,.2,1.9l3.22-3.22-2.4-2.41c.55.64,1.14,1.23,1.64,1.9s-.35,1.32-.84,1.59a4.28,4.28,0,0,1-1.14.44.58.58,0,0,1-.68-.2Z" style="fill-rule:evenodd;opacity:0.5;mix-blend-mode:screen;fill:url(#radial-gradient-24)"/></g></g></g></svg>