<svg xmlns="http://www.w3.org/2000/svg" xmlns:xlink="http://www.w3.org/1999/xlink" viewBox="0 0 17.52 136.86"><defs><linearGradient id="linear-gradient" x1="0.65" y1="48.38" x2="17.08" y2="48.38" gradientUnits="userSpaceOnUse"><stop offset="0" stop-color="#37454a"/><stop offset="1" stop-color="#2c2f3b"/></linearGradient><linearGradient id="linear-gradient-2" x1="0.65" y1="50.56" x2="7.01" y2="50.56" gradientUnits="userSpaceOnUse"><stop offset="0" stop-color="#373b4a"/><stop offset="1" stop-color="#4c585c"/></linearGradient><radialGradient id="radial-gradient" cx="-5.64" cy="43.38" r="21.65" gradientUnits="userSpaceOnUse"><stop offset="0" stop-color="#579eff"/><stop offset="0.63" stop-color="#1f385a"/><stop offset="1"/></radialGradient><radialGradient id="radial-gradient-2" cx="-9.75" cy="51.59" r="24.93" xlink:href="#radial-gradient"/><radialGradient id="radial-gradient-3" cx="-7.91" cy="63.3" r="27.34" xlink:href="#radial-gradient"/><linearGradient id="linear-gradient-3" x1="0.65" y1="30.12" x2="3.98" y2="30.12" gradientUnits="userSpaceOnUse"><stop offset="0" stop-color="#475561"/><stop offset="1" stop-color="#373b4a"/></linearGradient><radialGradient id="radial-gradient-4" cx="15.93" cy="50.61" r="42.68" gradientUnits="userSpaceOnUse"><stop offset="0" stop-color="#5581bd"/><stop offset="0.51" stop-color="#293e5a"/><stop offset="1"/></radialGradient><linearGradient id="linear-gradient-4" x1="9.86" y1="43.08" x2="12.86" y2="42.83" gradientUnits="userSpaceOnUse"><stop offset="0" stop-color="#fb0"/><stop offset="1" stop-color="#fd0"/></linearGradient><linearGradient id="linear-gradient-5" x1="5.08" y1="13.87" x2="5.08" gradientUnits="userSpaceOnUse"><stop offset="0" stop-color="#fff047"/><stop offset="1" stop-color="#ffd900"/></linearGradient><radialGradient id="radial-gradient-5" cx="11.47" cy="13.08" r="7.56" gradientUnits="userSpaceOnUse"><stop offset="0" stop-color="#fffbb3"/><stop offset="1"/></radialGradient><radialGradient id="radial-gradient-6" cx="-12.46" cy="53.86" r="44.75" xlink:href="#radial-gradient-4"/><linearGradient id="linear-gradient-6" x1="0.65" y1="34.84" x2="3.98" y2="34.84" gradientUnits="userSpaceOnUse"><stop offset="0" stop-color="#fff"/><stop offset="1" stop-color="#4c585c"/></linearGradient><radialGradient id="radial-gradient-7" cx="-5.41" cy="47.98" r="84.97" xlink:href="#radial-gradient-4"/><linearGradient id="New_Gradient_Swatch_189" x1="2.93" y1="134.11" x2="11.09" y2="134.11" gradientUnits="userSpaceOnUse"><stop offset="0" stop-color="#281f36"/><stop offset="0.27" stop-color="#37454a"/><stop offset="1" stop-color="#2c2f3b"/></linearGradient><linearGradient id="linear-gradient-7" x1="2.93" y1="133.92" x2="3.88" y2="133.92" gradientUnits="userSpaceOnUse"><stop offset="0" stop-color="#83839c"/><stop offset="1" stop-color="#fff"/></linearGradient><linearGradient id="New_Gradient_Swatch_191" x1="8.98" y1="134.05" x2="11.09" y2="134.05" gradientUnits="userSpaceOnUse"><stop offset="0" stop-color="#fff"/><stop offset="1" stop-color="#83839c"/></linearGradient><linearGradient id="New_Gradient_Swatch_190" x1="7.48" y1="135.19" x2="3.56" y2="132.92" gradientUnits="userSpaceOnUse"><stop offset="0" stop-color="#1e4161"/><stop offset="1"/></linearGradient><linearGradient id="linear-gradient-8" x1="9.33" y1="135.06" x2="6.1" y2="133.19" gradientUnits="userSpaceOnUse"><stop offset="0" stop-color="#1a3854"/><stop offset="1"/></linearGradient><linearGradient id="linear-gradient-9" x1="8.03" y1="133.13" x2="6" y2="129.62" gradientUnits="userSpaceOnUse"><stop offset="0"/><stop offset="1" stop-color="#433c4f"/></linearGradient><linearGradient id="linear-gradient-10" x1="3.59" y1="129.47" x2="10.44" y2="129.47" gradientUnits="userSpaceOnUse"><stop offset="0" stop-color="#c28100"/><stop offset="0.31" stop-color="#ffe540"/><stop offset="1" stop-color="#995d00"/></linearGradient><linearGradient id="linear-gradient-11" x1="7.93" y1="128.54" x2="6.1" y2="125.37" xlink:href="#linear-gradient-9"/><linearGradient id="linear-gradient-12" x1="3.59" y1="129.31" x2="4.18" y2="129.31" gradientUnits="userSpaceOnUse"><stop offset="0" stop-color="#c2b063"/><stop offset="1" stop-color="#fff"/></linearGradient><linearGradient id="linear-gradient-13" x1="4.7" y1="129.74" x2="6.6" y2="129.74" gradientUnits="userSpaceOnUse"><stop offset="0" stop-color="#fff5a4"/><stop offset="1" stop-color="#0d0d0d"/></linearGradient><linearGradient id="linear-gradient-14" x1="7.15" y1="129.82" x2="8.1" y2="129.82" xlink:href="#linear-gradient-13"/><linearGradient id="linear-gradient-15" x1="9.06" y1="129.4" x2="10.44" y2="129.4" gradientUnits="userSpaceOnUse"><stop offset="0" stop-color="#fff"/><stop offset="1" stop-color="#c2b063"/></linearGradient><linearGradient id="New_Gradient_Swatch_189-2" x1="3.22" y1="128.27" x2="10.8" y2="128.27" xlink:href="#New_Gradient_Swatch_189"/><linearGradient id="linear-gradient-16" x1="8.03" y1="127.26" x2="6" y2="123.75" xlink:href="#linear-gradient-9"/><linearGradient id="linear-gradient-17" x1="3.22" y1="128.11" x2="3.88" y2="128.11" xlink:href="#linear-gradient-7"/><linearGradient id="New_Gradient_Swatch_190-2" x1="7.37" y1="129.65" x2="3.65" y2="127.51" xlink:href="#New_Gradient_Swatch_190"/><linearGradient id="linear-gradient-18" x1="9.09" y1="129.48" x2="6.27" y2="127.86" xlink:href="#linear-gradient-8"/><linearGradient id="New_Gradient_Swatch_191-2" x1="9.27" y1="128.21" x2="10.8" y2="128.21" xlink:href="#New_Gradient_Swatch_191"/><linearGradient id="linear-gradient-19" x1="3.59" y1="123.59" x2="10.44" y2="123.59" xlink:href="#linear-gradient-10"/><linearGradient id="linear-gradient-20" x1="7.93" y1="122.67" x2="6.1" y2="119.5" xlink:href="#linear-gradient-9"/><linearGradient id="linear-gradient-21" x1="3.59" y1="123.44" x2="4.18" y2="123.44" xlink:href="#linear-gradient-12"/><linearGradient id="linear-gradient-22" x1="4.7" y1="123.87" x2="6.6" y2="123.87" xlink:href="#linear-gradient-13"/><linearGradient id="linear-gradient-23" x1="7.15" y1="123.95" x2="8.1" y2="123.95" xlink:href="#linear-gradient-13"/><linearGradient id="linear-gradient-24" x1="9.06" y1="123.53" x2="10.44" y2="123.53" xlink:href="#linear-gradient-15"/><linearGradient id="New_Gradient_Swatch_189-3" x1="3.22" y1="122.4" x2="10.8" y2="122.4" xlink:href="#New_Gradient_Swatch_189"/><linearGradient id="linear-gradient-25" x1="8.03" y1="121.38" x2="6" y2="117.88" xlink:href="#linear-gradient-9"/><linearGradient id="linear-gradient-26" x1="3.22" y1="122.24" x2="3.88" y2="122.24" xlink:href="#linear-gradient-7"/><linearGradient id="New_Gradient_Swatch_190-3" x1="7.37" y1="123.78" x2="3.65" y2="121.64" xlink:href="#New_Gradient_Swatch_190"/><linearGradient id="linear-gradient-27" x1="9.09" y1="123.61" x2="6.27" y2="121.99" xlink:href="#linear-gradient-8"/><linearGradient id="New_Gradient_Swatch_191-3" x1="9.27" y1="122.34" x2="10.8" y2="122.34" xlink:href="#New_Gradient_Swatch_191"/><linearGradient id="linear-gradient-28" x1="3.59" y1="117.72" x2="10.44" y2="117.72" xlink:href="#linear-gradient-10"/><linearGradient id="linear-gradient-29" x1="7.93" y1="116.8" x2="6.1" y2="113.63" xlink:href="#linear-gradient-9"/><linearGradient id="linear-gradient-30" x1="3.59" y1="117.57" x2="4.18" y2="117.57" xlink:href="#linear-gradient-12"/><linearGradient id="linear-gradient-31" x1="4.7" y1="118" x2="6.6" y2="118" xlink:href="#linear-gradient-13"/><linearGradient id="linear-gradient-32" x1="7.15" y1="118.08" x2="8.1" y2="118.08" xlink:href="#linear-gradient-13"/><linearGradient id="linear-gradient-33" x1="9.06" y1="117.66" x2="10.44" y2="117.66" xlink:href="#linear-gradient-15"/><linearGradient id="New_Gradient_Swatch_189-4" x1="3.22" y1="116.53" x2="10.8" y2="116.53" xlink:href="#New_Gradient_Swatch_189"/><linearGradient id="linear-gradient-34" x1="8.03" y1="115.51" x2="6" y2="112.01" xlink:href="#linear-gradient-9"/><linearGradient id="linear-gradient-35" x1="3.22" y1="116.37" x2="3.88" y2="116.37" xlink:href="#linear-gradient-7"/><linearGradient id="New_Gradient_Swatch_190-4" x1="7.37" y1="117.91" x2="3.65" y2="115.77" xlink:href="#New_Gradient_Swatch_190"/><linearGradient id="linear-gradient-36" x1="9.09" y1="117.74" x2="6.27" y2="116.12" xlink:href="#linear-gradient-8"/><linearGradient id="New_Gradient_Swatch_191-4" x1="9.27" y1="116.47" x2="10.8" y2="116.47" xlink:href="#New_Gradient_Swatch_191"/><linearGradient id="linear-gradient-37" x1="3.59" y1="111.85" x2="10.44" y2="111.85" xlink:href="#linear-gradient-10"/><linearGradient id="linear-gradient-38" x1="7.93" y1="110.93" x2="6.1" y2="107.76" xlink:href="#linear-gradient-9"/><linearGradient id="linear-gradient-39" x1="3.59" y1="111.7" x2="4.18" y2="111.7" xlink:href="#linear-gradient-12"/><linearGradient id="linear-gradient-40" x1="4.7" y1="112.13" x2="6.6" y2="112.13" xlink:href="#linear-gradient-13"/><linearGradient id="linear-gradient-41" x1="7.15" y1="112.21" x2="8.1" y2="112.21" xlink:href="#linear-gradient-13"/><linearGradient id="linear-gradient-42" x1="9.06" y1="111.79" x2="10.44" y2="111.79" xlink:href="#linear-gradient-15"/><linearGradient id="New_Gradient_Swatch_189-5" x1="3.22" y1="110.66" x2="10.8" y2="110.66" xlink:href="#New_Gradient_Swatch_189"/><linearGradient id="linear-gradient-43" x1="8.03" y1="109.64" x2="6" y2="106.14" xlink:href="#linear-gradient-9"/><linearGradient id="linear-gradient-44" x1="3.22" y1="110.5" x2="3.88" y2="110.5" xlink:href="#linear-gradient-7"/><linearGradient id="New_Gradient_Swatch_190-5" x1="7.37" y1="112.04" x2="3.65" y2="109.9" xlink:href="#New_Gradient_Swatch_190"/><linearGradient id="linear-gradient-45" x1="9.09" y1="111.87" x2="6.27" y2="110.25" xlink:href="#linear-gradient-8"/><linearGradient id="New_Gradient_Swatch_191-5" x1="9.27" y1="110.6" x2="10.8" y2="110.6" xlink:href="#New_Gradient_Swatch_191"/><linearGradient id="linear-gradient-46" x1="3.59" y1="105.98" x2="10.44" y2="105.98" xlink:href="#linear-gradient-10"/><linearGradient id="linear-gradient-47" x1="7.93" y1="105.06" x2="6.1" y2="101.89" xlink:href="#linear-gradient-9"/><linearGradient id="linear-gradient-48" x1="3.59" y1="105.83" x2="4.18" y2="105.83" xlink:href="#linear-gradient-12"/><linearGradient id="linear-gradient-49" x1="4.7" y1="106.26" x2="6.6" y2="106.26" xlink:href="#linear-gradient-13"/><linearGradient id="linear-gradient-50" x1="7.15" y1="106.34" x2="8.1" y2="106.34" xlink:href="#linear-gradient-13"/><linearGradient id="linear-gradient-51" x1="9.06" y1="105.92" x2="10.44" y2="105.92" xlink:href="#linear-gradient-15"/><linearGradient id="New_Gradient_Swatch_189-6" x1="3.22" y1="104.79" x2="10.8" y2="104.79" xlink:href="#New_Gradient_Swatch_189"/><linearGradient id="linear-gradient-52" x1="8.03" y1="103.77" x2="6" y2="100.27" xlink:href="#linear-gradient-9"/><linearGradient id="linear-gradient-53" x1="3.22" y1="104.63" x2="3.88" y2="104.63" xlink:href="#linear-gradient-7"/><linearGradient id="New_Gradient_Swatch_190-6" x1="7.37" y1="106.17" x2="3.65" y2="104.03" xlink:href="#New_Gradient_Swatch_190"/><linearGradient id="linear-gradient-54" x1="9.09" y1="106" x2="6.27" y2="104.38" xlink:href="#linear-gradient-8"/><linearGradient id="New_Gradient_Swatch_191-6" x1="9.27" y1="104.72" x2="10.8" y2="104.72" xlink:href="#New_Gradient_Swatch_191"/><linearGradient id="linear-gradient-55" x1="3.59" y1="100.11" x2="10.44" y2="100.11" xlink:href="#linear-gradient-10"/><linearGradient id="linear-gradient-56" x1="7.93" y1="99.19" x2="6.1" y2="96.02" xlink:href="#linear-gradient-9"/><linearGradient id="linear-gradient-57" x1="3.59" y1="99.96" x2="4.18" y2="99.96" xlink:href="#linear-gradient-12"/><linearGradient id="linear-gradient-58" x1="4.7" y1="100.39" x2="6.6" y2="100.39" xlink:href="#linear-gradient-13"/><linearGradient id="linear-gradient-59" x1="7.15" y1="100.47" x2="8.1" y2="100.47" xlink:href="#linear-gradient-13"/><linearGradient id="linear-gradient-60" x1="9.06" y1="100.05" x2="10.44" y2="100.05" xlink:href="#linear-gradient-15"/><linearGradient id="New_Gradient_Swatch_189-7" x1="3.22" y1="98.92" x2="10.8" y2="98.92" xlink:href="#New_Gradient_Swatch_189"/><linearGradient id="linear-gradient-61" x1="8.03" y1="97.9" x2="6" y2="94.4" xlink:href="#linear-gradient-9"/><linearGradient id="linear-gradient-62" x1="3.22" y1="98.76" x2="3.88" y2="98.76" xlink:href="#linear-gradient-7"/><linearGradient id="New_Gradient_Swatch_190-7" x1="7.37" y1="100.3" x2="3.65" y2="98.16" xlink:href="#New_Gradient_Swatch_190"/><linearGradient id="linear-gradient-63" x1="9.09" y1="100.13" x2="6.27" y2="98.51" xlink:href="#linear-gradient-8"/><linearGradient id="New_Gradient_Swatch_191-7" x1="9.27" y1="98.85" x2="10.8" y2="98.85" xlink:href="#New_Gradient_Swatch_191"/><linearGradient id="New_Gradient_Swatch_189-8" x1="2.14" y1="92.55" x2="15.8" y2="92.55" xlink:href="#New_Gradient_Swatch_189"/><linearGradient id="linear-gradient-64" x1="2.14" y1="94.28" x2="3.06" y2="94.28" xlink:href="#linear-gradient-7"/><linearGradient id="New_Gradient_Swatch_190-8" x1="7.65" y1="95.59" x2="3.32" y2="93.08" xlink:href="#New_Gradient_Swatch_190"/><linearGradient id="New_Gradient_Swatch_190-9" x1="7.7" y1="93.37" x2="9.94" y2="93.37" xlink:href="#New_Gradient_Swatch_190"/><radialGradient id="radial-gradient-8" cx="18.71" cy="94.69" r="8.44" gradientUnits="userSpaceOnUse"><stop offset="0.58" stop-color="#83839c"/><stop offset="0.65" stop-color="#87879f"/><stop offset="0.73" stop-color="#9494aa"/><stop offset="0.81" stop-color="#a9a9bb"/><stop offset="0.89" stop-color="#c7c7d2"/><stop offset="0.97" stop-color="#ededf1"/><stop offset="1" stop-color="#fff"/></radialGradient><radialGradient id="radial-gradient-9" cx="-109.49" cy="55.27" r="6.78" gradientTransform="matrix(0.08, 0, 0.09, 3.06, 10.24, -106.32)" gradientUnits="userSpaceOnUse"><stop offset="0" stop-color="#5581bd"/><stop offset="0.06" stop-color="#4c73a9"/><stop offset="0.21" stop-color="#355176"/><stop offset="0.37" stop-color="#22344c"/><stop offset="0.52" stop-color="#131d2b"/><stop offset="0.66" stop-color="#090d13"/><stop offset="0.79" stop-color="#020305"/><stop offset="0.9"/></radialGradient><radialGradient id="radial-gradient-10" cx="10.6" cy="69.16" r="9.48" gradientTransform="translate(2.48 -30.82) scale(0.04 1.5)" xlink:href="#radial-gradient-9"/><radialGradient id="radial-gradient-11" cx="206.92" cy="54.43" r="9.48" gradientTransform="matrix(0.17, 0, 0, 2.62, -24.67, -100.03)" gradientUnits="userSpaceOnUse"><stop offset="0" stop-color="#fd0"/><stop offset="0.05" stop-color="#e6c800"/><stop offset="0.19" stop-color="#aa9400"/><stop offset="0.32" stop-color="#766700"/><stop offset="0.45" stop-color="#4c4200"/><stop offset="0.58" stop-color="#2b2500"/><stop offset="0.7" stop-color="#131100"/><stop offset="0.81" stop-color="#050400"/><stop offset="0.9"/></radialGradient><radialGradient id="radial-gradient-12" cx="225.92" cy="54.7" r="9.48" gradientTransform="matrix(0.17, -0.01, 0.17, 1.84, -31.38, -30.3)" xlink:href="#radial-gradient-11"/><radialGradient id="radial-gradient-13" cx="44.56" cy="46.18" r="9.48" gradientTransform="translate(2.48 -27.91) scale(0.04 1.44)" xlink:href="#radial-gradient-9"/></defs><g style="isolation:isolate"><g id="Calque_2" data-name="Calque 2"><g id="Layer_1" data-name="Layer 1"><path d="M.65,1V54.22a5.9,5.9,0,0,1,1.67,4.19V95.8h9.39v-.64a7.58,7.58,0,0,1,2.1-5.34l3.27-3.49a34.86,34.86,0,0,1-1.29-7.77L9.54,12.9.65,1Z" style="fill-rule:evenodd;fill:url(#linear-gradient)"/><path d="M4,9.8,1.43,6.37l-.78-1v48.9a5.9,5.9,0,0,1,1.67,4.19V95.8H7L5.6,19.5C5.52,14.88,5.1,11.29,4,9.8Z" style="fill-rule:evenodd;fill:url(#linear-gradient-2)"/><polygon points="0.65 52.08 6.13 48.21 12.61 45.18 11.57 34.29 5.92 36.85 5.9 35.61 5.64 37.05 0.65 40.59 0.65 52.08 0.65 52.08" style="fill-rule:evenodd;opacity:0.25;mix-blend-mode:screen;fill:url(#radial-gradient)"/><path d="M13.14,50.8l-6.9,3.28,0-1.42-.32,1.68-3.7,2.78a6.72,6.72,0,0,1,.13,1.29v4.38l4-3,7.31-3.52-.52-5.44Z" style="fill-rule:evenodd;opacity:0.25;mix-blend-mode:screen;fill:url(#radial-gradient-2)"/><polygon points="14.43 64.28 6.5 68.15 6.46 66.17 5.91 68.59 2.32 71.27 2.32 80.38 6.67 77.17 15.25 72.92 14.43 64.28 14.43 64.28" style="fill-rule:evenodd;opacity:0.15;mix-blend-mode:screen;fill:url(#radial-gradient-3)"/><path d="M4,51.47v-46L1.29,1.83l-.64.86V54.22a5.9,5.9,0,0,1,1.67,4.19V55.67A5.9,5.9,0,0,1,4,51.47Z" style="fill-rule:evenodd;fill:url(#linear-gradient-3)"/><path d="M4,11.91V51.47a6,6,0,0,0-1.57,3.06,5.34,5.34,0,0,1,1.81-3L4,11.91Z" style="fill-rule:evenodd;opacity:0.5;mix-blend-mode:screen;fill:url(#radial-gradient-4)"/><path d="M6.43,16.59l5.91,62.18c.21,2.15.4,4.26.63,6.54a8.36,8.36,0,0,1-.17,4.15c-.71,2-1.69,3.4-1.09,6.34v-.64a7.58,7.58,0,0,1,2.1-5.34l3.27-3.49a34.86,34.86,0,0,1-1.29-7.77L9.54,12.9.65,1V7.4c2.58,1.09,5.44,5.67,5.78,9.19Z" style="fill:#7d816f;fill-rule:evenodd;opacity:0.65;mix-blend-mode:multiply"/><path d="M13.19,78.81c.58,6,1.64,6.63,3.89,7.52l.44-.47a24.86,24.86,0,0,1-.67-3.22c-.19-1.37-.29-2.76-.42-4.14L10.17,12.66.75,0,0,4.45l7,9.42,6.18,64.94Z" style="fill-rule:evenodd;fill:url(#linear-gradient-4)"/><polygon points="7.01 13.87 9.54 12.9 10.17 12.66 0.75 0 0 4.45 0.65 5.32 7.01 13.87 7.01 13.87" style="fill-rule:evenodd;fill:url(#linear-gradient-5)"/><path d="M7.15,9.69c.57,2.12.22,3.77-1.53,2.31L7,13.87l2.53-1,.63-.24-4-5.37.07.13a10.77,10.77,0,0,1,.91,2.27Z" style="fill-rule:evenodd;mix-blend-mode:screen;fill:url(#radial-gradient-5)"/><path d="M7.17,15.47c1.51-2,2.47,3.19,3.08,7.76.09.69.17,1.36.23,2l4.31,43.69c.39,3.95.55,6.95.7,9.38.23,3.56.29,6,1.59,8l.44-.47a24.86,24.86,0,0,1-.67-3.22c-.19-1.37-.29-2.76-.42-4.14L10.17,12.66l-.63.24L7,13.87l.16,1.6Z" style="fill:#fff32a;fill-rule:evenodd;opacity:0.35000000000000003;mix-blend-mode:screen"/><polygon points="1.43 6.37 7.01 13.87 11.7 63.13 7.34 13.94 9.91 12.76 7.22 13.61 1.43 6.37 1.43 6.37" style="fill:#ffc;fill-rule:evenodd"/><path d="M2.89,59.19c0-1.59-.57-3.24-.48-4.66a6.93,6.93,0,0,0-.09,1.14V95.8h.57V59.19Z" style="fill-rule:evenodd;mix-blend-mode:screen;fill:url(#radial-gradient-6)"/><path d="M2,51.33a13.3,13.3,0,0,1-1.3,2.89,5.87,5.87,0,0,1,1.54,2.9,6.72,6.72,0,0,1,.13,1.29V55.67a6.93,6.93,0,0,1,.09-1.14A6,6,0,0,1,4,51.47V11.27C2.8,14.16,2.6,17.69,2.6,21.47V45.81A18.56,18.56,0,0,1,2,51.33Z" style="fill-rule:evenodd;opacity:0.35000000000000003;mix-blend-mode:multiply;fill:url(#linear-gradient-6)"/><path d="M7.59,85.87l-2-67.32c0,.31,0,.63,0,.95L6.94,91.61a17,17,0,0,0,.65-5.74Z" style="fill-rule:evenodd;opacity:0.5;mix-blend-mode:screen;fill:url(#radial-gradient-7)"/><path d="M3.22,131.36H10.8c0,.71.09,1.44.14,2.19s.1,1.54.15,2.35c0,.26-.43.5-1.16.68a13.67,13.67,0,0,1-2.92.28,13.64,13.64,0,0,1-2.91-.28c-.74-.18-1.18-.42-1.17-.68,0-.81.11-1.59.15-2.35s.1-1.48.14-2.19Z" style="fill-rule:evenodd;fill:url(#New_Gradient_Swatch_189)"/><path d="M3.62,136.21c0-.87.09-1.7.13-2.52s.09-1.57.13-2.33H3.22c0,.71-.09,1.44-.14,2.19s-.1,1.54-.15,2.35c0,.21.28.41.79.57a.34.34,0,0,1-.1-.26Z" style="fill-rule:evenodd;mix-blend-mode:multiply;fill:url(#linear-gradient-7)"/><path d="M9.27,131.36c0,.76.06,1.53.09,2.33s.07,1.65.1,2.52c0,.2-.17.38-.48.54a7,7,0,0,0,1.55-.36c.37-.14.57-.31.56-.49-.05-.81-.1-1.59-.15-2.35s-.09-1.48-.14-2.19Z" style="fill-rule:evenodd;mix-blend-mode:multiply;fill:url(#New_Gradient_Swatch_191)"/><path d="M4.46,131.36c0,.82-.07,1.65-.11,2.51s-.08,1.8-.12,2.74a9,9,0,0,0,1,.16,11.64,11.64,0,0,0,1.24.09c0-1,0-1.94,0-2.87s0-1.78,0-2.63H4.46Z" style="fill-rule:evenodd;opacity:0.5;mix-blend-mode:screen;fill:url(#New_Gradient_Swatch_190)"/><path d="M7.16,131.36c0,.85,0,1.73,0,2.63v2.87c.4,0,.79,0,1.15-.05,0-1,0-1.92-.06-2.84s0-1.77,0-2.61Z" style="fill-rule:evenodd;opacity:0.35000000000000003;mix-blend-mode:screen;fill:url(#linear-gradient-8)"/><path d="M7,130.55a13.8,13.8,0,0,1,2.65.23c.69.15,1.13.35,1.14.58s-.4.44-1.08.59a13.46,13.46,0,0,1-2.71.24,13.28,13.28,0,0,1-2.7-.24c-.69-.15-1.1-.36-1.09-.59s.45-.43,1.14-.58A13.8,13.8,0,0,1,7,130.55Z" style="fill-rule:evenodd;fill:url(#linear-gradient-9)"/><path d="M3.59,127h6.85v4.28h0c0,.21-.36.39-1,.53A11.79,11.79,0,0,1,7,132a11.86,11.86,0,0,1-2.45-.22c-.61-.14-1-.32-1-.53V127Z" style="fill-rule:evenodd;fill:url(#linear-gradient-10)"/><path d="M7,126.21a11.41,11.41,0,0,1,2.4.22c.62.13,1,.31,1,.52s-.36.39-1,.53A11.79,11.79,0,0,1,7,127.7a11.86,11.86,0,0,1-2.45-.22c-.61-.14-1-.33-1-.53s.4-.39,1-.52a11.48,11.48,0,0,1,2.4-.22Z" style="fill-rule:evenodd;fill:url(#linear-gradient-11)"/><path d="M4.18,131.66v-4.28c-.37-.12-.58-.26-.59-.41v4.28c0,.15.22.29.59.41Z" style="fill-rule:evenodd;mix-blend-mode:multiply;fill:url(#linear-gradient-12)"/><path d="M4.7,127.51v4.28a11.85,11.85,0,0,0,1.9.19V127.7a12.16,12.16,0,0,1-1.9-.19Z" style="fill-rule:evenodd;mix-blend-mode:screen;fill:url(#linear-gradient-13)"/><path d="M7.15,127.7V132c.32,0,.64,0,.95,0v-4.29c-.3,0-.62,0-.95,0Z" style="fill-rule:evenodd;mix-blend-mode:screen;fill:url(#linear-gradient-14)"/><path d="M9.06,127.55v4.29l.4-.08c.58-.13,1-.31,1-.5V127c0,.2-.38.38-1,.51l-.4.07Z" style="fill-rule:evenodd;mix-blend-mode:multiply;fill:url(#linear-gradient-15)"/><path d="M3.22,125.49H10.8v4.73h0c0,.23-.4.44-1.08.59a12.69,12.69,0,0,1-2.71.25,12.52,12.52,0,0,1-2.7-.25c-.69-.15-1.1-.36-1.09-.59v-4.73Z" style="fill-rule:evenodd;fill:url(#New_Gradient_Swatch_189-2)"/><path d="M7,124.68a13.8,13.8,0,0,1,2.65.23c.69.15,1.13.35,1.14.58s-.4.44-1.08.59a13.46,13.46,0,0,1-2.71.24,13.28,13.28,0,0,1-2.7-.24c-.69-.15-1.1-.36-1.09-.59s.45-.43,1.14-.58A13.8,13.8,0,0,1,7,124.68Z" style="fill-rule:evenodd;fill:url(#linear-gradient-16)"/><path d="M3.88,130.7V126c-.41-.13-.65-.28-.66-.45v4.74c0,.16.25.32.66.45Z" style="fill-rule:evenodd;mix-blend-mode:multiply;fill:url(#linear-gradient-17)"/><path d="M4.46,126.11v4.74a14.14,14.14,0,0,0,2.1.2v-4.73a13.15,13.15,0,0,1-2.1-.21Z" style="fill-rule:evenodd;opacity:0.5;mix-blend-mode:screen;fill:url(#New_Gradient_Swatch_190-2)"/><path d="M7.16,126.32v4.74c.36,0,.71,0,1.05,0v-4.74c-.33,0-.68,0-1.05,0Z" style="fill-rule:evenodd;opacity:0.35000000000000003;mix-blend-mode:screen;fill:url(#linear-gradient-18)"/><path d="M9.27,126.16v4.74l.45-.09c.64-.14,1.06-.34,1.08-.55v-4.75c0,.22-.42.42-1.08.57l-.45.08Z" style="fill-rule:evenodd;mix-blend-mode:multiply;fill:url(#New_Gradient_Swatch_191-2)"/><path d="M3.59,121.08h6.85v4.28h0c0,.21-.36.39-1,.53a11.79,11.79,0,0,1-2.45.22,11.86,11.86,0,0,1-2.45-.22c-.61-.14-1-.32-1-.53v-4.28Z" style="fill-rule:evenodd;fill:url(#linear-gradient-19)"/><path d="M7,120.34a11.41,11.41,0,0,1,2.4.22c.62.13,1,.31,1,.52s-.36.39-1,.53a11.79,11.79,0,0,1-2.45.22,11.86,11.86,0,0,1-2.45-.22c-.61-.14-1-.33-1-.53s.4-.39,1-.52a11.48,11.48,0,0,1,2.4-.22Z" style="fill-rule:evenodd;fill:url(#linear-gradient-20)"/><path d="M4.18,125.79v-4.28c-.37-.12-.58-.26-.59-.41v4.28c0,.15.22.29.59.41Z" style="fill-rule:evenodd;mix-blend-mode:multiply;fill:url(#linear-gradient-21)"/><path d="M4.7,121.64v4.28a11.85,11.85,0,0,0,1.9.19v-4.28a12.16,12.16,0,0,1-1.9-.19Z" style="fill-rule:evenodd;mix-blend-mode:screen;fill:url(#linear-gradient-22)"/><path d="M7.15,121.83v4.28c.32,0,.64,0,.95,0v-4.29c-.3,0-.62,0-.95,0Z" style="fill-rule:evenodd;mix-blend-mode:screen;fill:url(#linear-gradient-23)"/><path d="M9.06,121.68V126l.4-.08c.58-.13,1-.31,1-.5V121.1c0,.2-.38.38-1,.51l-.4.07Z" style="fill-rule:evenodd;mix-blend-mode:multiply;fill:url(#linear-gradient-24)"/><path d="M3.22,119.62H10.8v4.73h0c0,.23-.4.44-1.08.59a12.69,12.69,0,0,1-2.71.25,12.52,12.52,0,0,1-2.7-.25c-.69-.15-1.1-.36-1.09-.59v-4.73Z" style="fill-rule:evenodd;fill:url(#New_Gradient_Swatch_189-3)"/><path d="M7,118.81a13.8,13.8,0,0,1,2.65.23c.69.15,1.13.35,1.14.58s-.4.44-1.08.59a13.46,13.46,0,0,1-2.71.24,13.28,13.28,0,0,1-2.7-.24c-.69-.15-1.1-.36-1.09-.59s.45-.43,1.14-.58A13.8,13.8,0,0,1,7,118.81Z" style="fill-rule:evenodd;fill:url(#linear-gradient-25)"/><path d="M3.88,124.83v-4.74c-.41-.13-.65-.28-.66-.45v4.74c0,.16.25.32.66.45Z" style="fill-rule:evenodd;mix-blend-mode:multiply;fill:url(#linear-gradient-26)"/><path d="M4.46,120.24V125a12.85,12.85,0,0,0,2.1.21v-4.73a13.15,13.15,0,0,1-2.1-.21Z" style="fill-rule:evenodd;opacity:0.5;mix-blend-mode:screen;fill:url(#New_Gradient_Swatch_190-3)"/><path d="M7.16,120.45v4.74c.36,0,.71,0,1.05,0v-4.74c-.33,0-.68,0-1.05,0Z" style="fill-rule:evenodd;opacity:0.35000000000000003;mix-blend-mode:screen;fill:url(#linear-gradient-27)"/><path d="M9.27,120.29V125l.45-.09c.64-.14,1.06-.34,1.08-.55v-4.75c0,.22-.42.42-1.08.57l-.45.08Z" style="fill-rule:evenodd;mix-blend-mode:multiply;fill:url(#New_Gradient_Swatch_191-3)"/><path d="M3.59,115.21h6.85v4.28h0c0,.2-.36.39-1,.53a11.79,11.79,0,0,1-2.45.22A11.86,11.86,0,0,1,4.56,120c-.61-.14-1-.33-1-.53v-4.28Z" style="fill-rule:evenodd;fill:url(#linear-gradient-28)"/><path d="M7,114.47a11.41,11.41,0,0,1,2.4.22c.62.13,1,.31,1,.52s-.36.39-1,.53A11.79,11.79,0,0,1,7,116a11.86,11.86,0,0,1-2.45-.22c-.61-.14-1-.33-1-.53s.4-.39,1-.52a11.48,11.48,0,0,1,2.4-.22Z" style="fill-rule:evenodd;fill:url(#linear-gradient-29)"/><path d="M4.18,119.92v-4.28c-.37-.12-.58-.26-.59-.41v4.28c0,.15.22.29.59.41Z" style="fill-rule:evenodd;mix-blend-mode:multiply;fill:url(#linear-gradient-30)"/><path d="M4.7,115.77v4.28a11.85,11.85,0,0,0,1.9.19V116a12.16,12.16,0,0,1-1.9-.19Z" style="fill-rule:evenodd;mix-blend-mode:screen;fill:url(#linear-gradient-31)"/><path d="M7.15,116v4.28c.32,0,.64,0,.95,0v-4.29c-.3,0-.62,0-.95,0Z" style="fill-rule:evenodd;mix-blend-mode:screen;fill:url(#linear-gradient-32)"/><path d="M9.06,115.81v4.29l.4-.08c.58-.13,1-.31,1-.5v-4.29c0,.2-.38.38-1,.51l-.4.07Z" style="fill-rule:evenodd;mix-blend-mode:multiply;fill:url(#linear-gradient-33)"/><path d="M3.22,113.75H10.8v4.73h0c0,.23-.4.44-1.08.59a13.37,13.37,0,0,1-2.71.25,13.19,13.19,0,0,1-2.7-.25c-.69-.15-1.1-.36-1.09-.59v-4.73Z" style="fill-rule:evenodd;fill:url(#New_Gradient_Swatch_189-4)"/><path d="M7,112.94a13.8,13.8,0,0,1,2.65.23c.69.15,1.13.35,1.14.58s-.4.44-1.08.59a13.46,13.46,0,0,1-2.71.24,13.28,13.28,0,0,1-2.7-.24c-.69-.15-1.1-.36-1.09-.59s.45-.43,1.14-.58A13.8,13.8,0,0,1,7,112.94Z" style="fill-rule:evenodd;fill:url(#linear-gradient-34)"/><path d="M3.88,119v-4.74c-.41-.13-.65-.28-.66-.45v4.74c0,.16.25.32.66.45Z" style="fill-rule:evenodd;mix-blend-mode:multiply;fill:url(#linear-gradient-35)"/><path d="M4.46,114.37v4.73a12.85,12.85,0,0,0,2.1.21v-4.73a13.15,13.15,0,0,1-2.1-.21Z" style="fill-rule:evenodd;opacity:0.5;mix-blend-mode:screen;fill:url(#New_Gradient_Swatch_190-4)"/><path d="M7.16,114.58v4.74c.36,0,.71,0,1.05,0v-4.74c-.33,0-.68,0-1.05,0Z" style="fill-rule:evenodd;opacity:0.35000000000000003;mix-blend-mode:screen;fill:url(#linear-gradient-36)"/><path d="M9.27,114.42v4.74l.45-.09c.64-.14,1.06-.34,1.08-.55v-4.75c0,.22-.42.42-1.08.57l-.45.08Z" style="fill-rule:evenodd;mix-blend-mode:multiply;fill:url(#New_Gradient_Swatch_191-4)"/><path d="M3.59,109.34h6.85v4.28h0c0,.21-.36.39-1,.53a11.79,11.79,0,0,1-2.45.22,11.86,11.86,0,0,1-2.45-.22c-.61-.14-1-.32-1-.53v-4.28Z" style="fill-rule:evenodd;fill:url(#linear-gradient-37)"/><path d="M7,108.6a11.41,11.41,0,0,1,2.4.22c.62.13,1,.31,1,.52s-.36.39-1,.53a11.79,11.79,0,0,1-2.45.22,11.86,11.86,0,0,1-2.45-.22c-.61-.14-1-.33-1-.53s.4-.39,1-.52A11.48,11.48,0,0,1,7,108.6Z" style="fill-rule:evenodd;fill:url(#linear-gradient-38)"/><path d="M4.18,114.05v-4.28c-.37-.12-.58-.26-.59-.41v4.28c0,.15.22.29.59.41Z" style="fill-rule:evenodd;mix-blend-mode:multiply;fill:url(#linear-gradient-39)"/><path d="M4.7,109.9v4.28a11.85,11.85,0,0,0,1.9.19v-4.28a12.16,12.16,0,0,1-1.9-.19Z" style="fill-rule:evenodd;mix-blend-mode:screen;fill:url(#linear-gradient-40)"/><path d="M7.15,110.09v4.28c.32,0,.64,0,.95,0v-4.29c-.3,0-.62,0-.95,0Z" style="fill-rule:evenodd;mix-blend-mode:screen;fill:url(#linear-gradient-41)"/><path d="M9.06,109.94v4.29l.4-.08c.58-.13,1-.31,1-.5v-4.29c0,.2-.38.38-1,.51l-.4.07Z" style="fill-rule:evenodd;mix-blend-mode:multiply;fill:url(#linear-gradient-42)"/><path d="M3.22,107.88H10.8v4.73h0c0,.23-.4.44-1.08.59a13.37,13.37,0,0,1-2.71.25,13.19,13.19,0,0,1-2.7-.25c-.69-.15-1.1-.36-1.09-.59v-4.73Z" style="fill-rule:evenodd;fill:url(#New_Gradient_Swatch_189-5)"/><path d="M7,107.07a13.8,13.8,0,0,1,2.65.23c.69.15,1.13.35,1.14.58s-.4.44-1.08.59a13.46,13.46,0,0,1-2.71.24,13.28,13.28,0,0,1-2.7-.24c-.69-.15-1.1-.36-1.09-.59s.45-.43,1.14-.58A13.8,13.8,0,0,1,7,107.07Z" style="fill-rule:evenodd;fill:url(#linear-gradient-43)"/><path d="M3.88,113.09v-4.74c-.41-.13-.65-.28-.66-.45v4.74c0,.16.25.32.66.45Z" style="fill-rule:evenodd;mix-blend-mode:multiply;fill:url(#linear-gradient-44)"/><path d="M4.46,108.5v4.73a12.85,12.85,0,0,0,2.1.21v-4.73a13.15,13.15,0,0,1-2.1-.21Z" style="fill-rule:evenodd;opacity:0.5;mix-blend-mode:screen;fill:url(#New_Gradient_Swatch_190-5)"/><path d="M7.16,108.71v4.74c.36,0,.71,0,1.05,0v-4.74c-.33,0-.68,0-1.05,0Z" style="fill-rule:evenodd;opacity:0.35000000000000003;mix-blend-mode:screen;fill:url(#linear-gradient-45)"/><path d="M9.27,108.55v4.74l.45-.09c.64-.14,1.06-.34,1.08-.55V107.9c0,.22-.42.42-1.08.57l-.45.08Z" style="fill-rule:evenodd;mix-blend-mode:multiply;fill:url(#New_Gradient_Swatch_191-5)"/><path d="M3.59,103.47h6.85v4.28h0c0,.2-.36.39-1,.53A11.79,11.79,0,0,1,7,108.5a11.86,11.86,0,0,1-2.45-.22c-.61-.14-1-.33-1-.53v-4.28Z" style="fill-rule:evenodd;fill:url(#linear-gradient-46)"/><path d="M7,102.73a11.41,11.41,0,0,1,2.4.22c.62.13,1,.31,1,.52s-.36.39-1,.53a11.79,11.79,0,0,1-2.45.22A11.86,11.86,0,0,1,4.56,104c-.61-.14-1-.33-1-.53s.4-.39,1-.52a11.48,11.48,0,0,1,2.4-.22Z" style="fill-rule:evenodd;fill:url(#linear-gradient-47)"/><path d="M4.18,108.18V103.9c-.37-.12-.58-.26-.59-.41v4.28c0,.15.22.29.59.41Z" style="fill-rule:evenodd;mix-blend-mode:multiply;fill:url(#linear-gradient-48)"/><path d="M4.7,104v4.28a11.85,11.85,0,0,0,1.9.19v-4.28A12.16,12.16,0,0,1,4.7,104Z" style="fill-rule:evenodd;mix-blend-mode:screen;fill:url(#linear-gradient-49)"/><path d="M7.15,104.22v4.28c.32,0,.64,0,.95,0v-4.29c-.3,0-.62,0-.95,0Z" style="fill-rule:evenodd;mix-blend-mode:screen;fill:url(#linear-gradient-50)"/><path d="M9.06,104.07v4.29l.4-.08c.58-.13,1-.31,1-.5v-4.29c0,.2-.38.38-1,.51l-.4.07Z" style="fill-rule:evenodd;mix-blend-mode:multiply;fill:url(#linear-gradient-51)"/><path d="M3.22,102H10.8v4.73h0c0,.23-.4.44-1.08.59a13.37,13.37,0,0,1-2.71.25,13.19,13.19,0,0,1-2.7-.25c-.69-.15-1.1-.36-1.09-.59V102Z" style="fill-rule:evenodd;fill:url(#New_Gradient_Swatch_189-6)"/><path d="M7,101.2a13.8,13.8,0,0,1,2.65.23c.69.15,1.13.35,1.14.58s-.4.44-1.08.59a13.46,13.46,0,0,1-2.71.24,13.28,13.28,0,0,1-2.7-.24c-.69-.15-1.1-.36-1.09-.59s.45-.43,1.14-.58A13.8,13.8,0,0,1,7,101.2Z" style="fill-rule:evenodd;fill:url(#linear-gradient-52)"/><path d="M3.88,107.22v-4.74c-.41-.13-.65-.28-.66-.45v4.74c0,.16.25.32.66.45Z" style="fill-rule:evenodd;mix-blend-mode:multiply;fill:url(#linear-gradient-53)"/><path d="M4.46,102.63v4.73a12.85,12.85,0,0,0,2.1.21v-4.73a13.15,13.15,0,0,1-2.1-.21Z" style="fill-rule:evenodd;opacity:0.5;mix-blend-mode:screen;fill:url(#New_Gradient_Swatch_190-6)"/><path d="M7.16,102.84v4.74c.36,0,.71,0,1.05,0V102.8c-.33,0-.68,0-1.05,0Z" style="fill-rule:evenodd;opacity:0.35000000000000003;mix-blend-mode:screen;fill:url(#linear-gradient-54)"/><path d="M9.27,102.68v4.74l.45-.09c.64-.14,1.06-.34,1.08-.55V102c0,.22-.42.42-1.08.57l-.45.08Z" style="fill-rule:evenodd;mix-blend-mode:multiply;fill:url(#New_Gradient_Swatch_191-6)"/><path d="M3.59,97.6h6.85v4.28h0c0,.2-.36.39-1,.53a11.79,11.79,0,0,1-2.45.22,11.86,11.86,0,0,1-2.45-.22c-.61-.14-1-.33-1-.53V97.6Z" style="fill-rule:evenodd;fill:url(#linear-gradient-55)"/><path d="M7,96.86a12.21,12.21,0,0,1,2.4.21c.62.14,1,.32,1,.53s-.36.39-1,.53A11.79,11.79,0,0,1,7,98.35a11.86,11.86,0,0,1-2.45-.22c-.61-.14-1-.33-1-.53s.4-.39,1-.53A12.28,12.28,0,0,1,7,96.86Z" style="fill-rule:evenodd;fill:url(#linear-gradient-56)"/><path d="M4.18,102.31V98c-.37-.12-.58-.26-.59-.41v4.28c0,.15.22.29.59.41Z" style="fill-rule:evenodd;mix-blend-mode:multiply;fill:url(#linear-gradient-57)"/><path d="M4.7,98.16v4.28a11.85,11.85,0,0,0,1.9.19V98.35a12.16,12.16,0,0,1-1.9-.19Z" style="fill-rule:evenodd;mix-blend-mode:screen;fill:url(#linear-gradient-58)"/><path d="M7.15,98.35v4.28c.32,0,.64,0,.95,0V98.31c-.3,0-.62,0-.95,0Z" style="fill-rule:evenodd;mix-blend-mode:screen;fill:url(#linear-gradient-59)"/><path d="M9.06,98.2v4.29l.4-.08c.58-.13,1-.31,1-.5V97.62c0,.2-.38.38-1,.51l-.4.07Z" style="fill-rule:evenodd;mix-blend-mode:multiply;fill:url(#linear-gradient-60)"/><path d="M3.22,96.14H10.8v4.73h0c0,.23-.4.44-1.08.59a13.37,13.37,0,0,1-2.71.25,13.19,13.19,0,0,1-2.7-.25c-.69-.15-1.1-.36-1.09-.59V96.14Z" style="fill-rule:evenodd;fill:url(#New_Gradient_Swatch_189-7)"/><path d="M7,95.33a13.8,13.8,0,0,1,2.65.23c.69.15,1.13.35,1.14.58s-.4.44-1.08.59A13.46,13.46,0,0,1,7,97a13.28,13.28,0,0,1-2.7-.24c-.69-.15-1.1-.36-1.09-.59s.45-.43,1.14-.58A13.8,13.8,0,0,1,7,95.33Z" style="fill-rule:evenodd;fill:url(#linear-gradient-61)"/><path d="M3.88,101.35V96.61c-.41-.13-.65-.28-.66-.45v4.74c0,.16.25.32.66.45Z" style="fill-rule:evenodd;mix-blend-mode:multiply;fill:url(#linear-gradient-62)"/><path d="M4.46,96.76v4.73a12.85,12.85,0,0,0,2.1.21V97a13.15,13.15,0,0,1-2.1-.21Z" style="fill-rule:evenodd;opacity:0.5;mix-blend-mode:screen;fill:url(#New_Gradient_Swatch_190-7)"/><path d="M7.16,97v4.74c.36,0,.71,0,1.05,0V96.93c-.33,0-.68,0-1.05,0Z" style="fill-rule:evenodd;opacity:0.35000000000000003;mix-blend-mode:screen;fill:url(#linear-gradient-63)"/><path d="M9.27,96.81v4.74l.45-.09c.64-.14,1.06-.34,1.08-.55V96.16c0,.22-.42.42-1.08.57l-.45.08Z" style="fill-rule:evenodd;mix-blend-mode:multiply;fill:url(#New_Gradient_Swatch_191-7)"/><path d="M12.83,95.8h0v-.64a6.88,6.88,0,0,1,1.93-4.89l1-1.11c-1.39-1.7-4-1.23-6,.74a5.87,5.87,0,0,1-5.13,2.2H2.14v3.7c0,.32.56.61,1.53.83A19,19,0,0,0,7.49,97a19,19,0,0,0,3.81-.34c1-.22,1.55-.51,1.53-.83Z" style="fill-rule:evenodd;fill:url(#New_Gradient_Swatch_189-8)"/><path d="M3.06,96.47V92.1H2.14v3.73c0,.23.35.45.92.64Z" style="fill-rule:evenodd;mix-blend-mode:multiply;fill:url(#linear-gradient-64)"/><path d="M3.89,92.1v4.57a17.94,17.94,0,0,0,3,.3v-5.1a8.74,8.74,0,0,1-2.19.23Z" style="fill-rule:evenodd;opacity:0.5;mix-blend-mode:screen;fill:url(#New_Gradient_Swatch_190-8)"/><path d="M7.7,91.56V97c.51,0,1,0,1.48,0V93.79a9.56,9.56,0,0,1,.76-4l-.15.14A7.79,7.79,0,0,1,7.7,91.56Z" style="fill-rule:evenodd;opacity:0.35000000000000003;mix-blend-mode:screen;fill:url(#New_Gradient_Swatch_190-9)"/><path d="M14,88.15a8.12,8.12,0,0,0-3.16,8.56l.43-.08c1-.22,1.55-.51,1.53-.83v-.64a6.88,6.88,0,0,1,1.93-4.89l1-1.11a2.73,2.73,0,0,0-1.77-1Z" style="fill-rule:evenodd;opacity:0.5;mix-blend-mode:multiply;fill:url(#radial-gradient-8)"/><path d="M7.47,63.16c.35,11.46.4,20.75.11,20.76S6.76,74.65,6.41,63.2,6,42.44,6.3,42.44,7.11,51.71,7.47,63.16Z" style="fill-rule:evenodd;mix-blend-mode:screen;fill:url(#radial-gradient-9)"/><path d="M3.26,73c0,7.86-.16,14.23-.37,14.23S2.53,80.9,2.53,73s.16-14.23.36-14.23S3.26,65.18,3.26,73Z" style="fill-rule:evenodd;mix-blend-mode:screen;fill:url(#radial-gradient-10)"/><ellipse cx="9.87" cy="42.37" rx="1.58" ry="24.79" transform="translate(-3.75 1.05) rotate(-5.13)" style="mix-blend-mode:screen;fill:url(#radial-gradient-11)"/><path d="M16.81,66.88c.87,9.63.86,17.51,0,17.59s-2.28-7.67-3.14-17.31-.86-17.51,0-17.59S16,57.24,16.81,66.88Z" style="fill-rule:evenodd;opacity:0.75;mix-blend-mode:screen;fill:url(#radial-gradient-12)"/><ellipse cx="4.22" cy="38.46" rx="0.37" ry="13.62" style="mix-blend-mode:screen;fill:url(#radial-gradient-13)"/></g></g></g></svg>