<svg xmlns="http://www.w3.org/2000/svg" xmlns:xlink="http://www.w3.org/1999/xlink" viewBox="0 0 150.32 169.58"><defs><linearGradient id="linear-gradient" x1="111.03" y1="120.17" x2="111.03" y2="12.34" gradientUnits="userSpaceOnUse"><stop offset="0" stop-color="#838da9"/><stop offset="0.2" stop-color="#8790ac"/><stop offset="0.4" stop-color="#929ab4"/><stop offset="0.59" stop-color="#a6abc1"/><stop offset="0.78" stop-color="#c1c2d3"/><stop offset="0.97" stop-color="#e4e0eb"/><stop offset="1" stop-color="#eae5ef"/></linearGradient><linearGradient id="linear-gradient-2" x1="109.04" y1="120.17" x2="109.04" y2="12.34" gradientUnits="userSpaceOnUse"><stop offset="0" stop-color="#6a72bb"/><stop offset="0.34" stop-color="#464b7b"/><stop offset="1"/></linearGradient><linearGradient id="linear-gradient-3" x1="-5.81" y1="35.48" x2="138.07" y2="179.36" gradientUnits="userSpaceOnUse"><stop offset="0" stop-color="#243d5b"/><stop offset="0.26" stop-color="#1c324c"/><stop offset="0.5" stop-color="#13243b"/></linearGradient><clipPath id="clip-path"><path d="M31,6.4c3.06-.48,7.33,7.47,28.67,14.78s24.68,35.06,14.17,48S41.47,82.13,39.14,97.52c0,0-.2-7.62-11.45-9.6S14.76,84.29,12.17,74.14s-3.66-8.22,0-14.67,2.13-8.31,2.13-8.31,7.44-16.72,5.78-21.9,11.08-7.62,13.16-11.13S28.13,6.86,31,6.4Z" style="fill:none"/></clipPath><linearGradient id="linear-gradient-4" x1="75.81" y1="24.61" x2="21.75" y2="78.67" gradientUnits="userSpaceOnUse"><stop offset="0" stop-color="#a1b9ce"/><stop offset="0.14" stop-color="#acc0d3"/><stop offset="1" stop-color="#eae5ef"/></linearGradient><linearGradient id="linear-gradient-5" x1="52.73" y1="45.56" x2="38.2" y2="60.09" gradientUnits="userSpaceOnUse"><stop offset="0" stop-color="#243d5b"/><stop offset="0.83" stop-color="#162941"/><stop offset="1" stop-color="#13243b"/></linearGradient><linearGradient id="linear-gradient-6" x1="20.48" y1="46.65" x2="31.74" y2="57.91" gradientUnits="userSpaceOnUse"><stop offset="0" stop-color="#243d5b"/><stop offset="1" stop-color="#13243b"/></linearGradient><linearGradient id="linear-gradient-7" x1="26.34" y1="61.25" x2="33.72" y2="68.63" xlink:href="#linear-gradient-6"/><linearGradient id="linear-gradient-8" x1="48.55" y1="32.14" x2="88" y2="74.8" gradientUnits="userSpaceOnUse"><stop offset="0" stop-color="#fff"/><stop offset="0.55" stop-color="#9984a6"/><stop offset="0.84" stop-color="#634277"/></linearGradient><linearGradient id="linear-gradient-9" x1="22" y1="28.89" x2="59.33" y2="28.89" xlink:href="#linear-gradient-2"/><radialGradient id="radial-gradient" cx="73.1" cy="54.82" r="17.52" gradientTransform="translate(-2.87) scale(0.7 1)" gradientUnits="userSpaceOnUse"><stop offset="0" stop-color="#c73dff"/><stop offset="0.04" stop-color="#b638e9"/><stop offset="0.14" stop-color="#8c2bb3"/><stop offset="0.25" stop-color="#661f83"/><stop offset="0.36" stop-color="#47165b"/><stop offset="0.47" stop-color="#2d0e3a"/><stop offset="0.58" stop-color="#190820"/><stop offset="0.7" stop-color="#0b030e"/><stop offset="0.82" stop-color="#030104"/><stop offset="0.96"/></radialGradient><radialGradient id="radial-gradient-2" cx="38.93" cy="28" r="17.52" gradientTransform="matrix(0, 0.7, -0.83, 0, 53.32, 25.56)" xlink:href="#radial-gradient"/><linearGradient id="linear-gradient-10" x1="53.44" y1="154.81" x2="53.44" y2="93.44" gradientUnits="userSpaceOnUse"><stop offset="0.19" stop-color="#243d5b"/><stop offset="0.76" stop-color="#13243b"/></linearGradient><linearGradient id="linear-gradient-11" x1="40.3" y1="107.81" x2="109.58" y2="107.81" gradientUnits="userSpaceOnUse"><stop offset="0" stop-color="#83330d"/><stop offset="0.15" stop-color="#752d0d"/><stop offset="0.48" stop-color="#5a210d"/><stop offset="0.77" stop-color="#4a1a0d"/><stop offset="1" stop-color="#44170d"/></linearGradient><linearGradient id="linear-gradient-12" x1="35.61" y1="108.04" x2="48.08" y2="120.51" gradientUnits="userSpaceOnUse"><stop offset="0" stop-color="#eae5ef"/><stop offset="0.02" stop-color="#e7e3ee"/><stop offset="0.28" stop-color="#c9d1e0"/><stop offset="0.53" stop-color="#b3c4d6"/><stop offset="0.78" stop-color="#a6bcd0"/><stop offset="1" stop-color="#a1b9ce"/></linearGradient><linearGradient id="linear-gradient-13" x1="41.61" y1="120.34" x2="71.25" y2="149.97" gradientUnits="userSpaceOnUse"><stop offset="0.17" stop-color="#243d5b"/><stop offset="0.25" stop-color="#213956"/><stop offset="0.6" stop-color="#172a42"/><stop offset="0.84" stop-color="#13243b"/></linearGradient></defs><g style="isolation:isolate"><g id="Calque_2" data-name="Calque 2"><g id="Layer_2" data-name="Layer 2"><path d="M138.13,168.24s-32.3-.3-8.43-.43l-46.53-.31s3.46-1.35-6.7-.62c0,0,4.06-2.7-.71-1,0,0,4.16-2.49-4.57-3.45-6-.64-11.69-2.71-14-4.53a18,18,0,0,1,1.08-1.77,129.28,129.28,0,0,1,17.91-.92c15.34.46,17.78,4,21.74,4.5s11.68-.47,11.68-.47l-1-.42c52.21-10.78,15.59-21.93,15.59-21.93,6.18,4.23,4.27,7.54-1.14,10.08a18.19,18.19,0,0,1,6.17-.47c3.05.6-13.4,5.16-17.14,3.91A209.15,209.15,0,0,1,87.19,154c-2-.26-3.31-.4-3.31-.4l-.52,0a25,25,0,0,1,6.11-1.61c3.86-.4,16-1.48,14.22-3.87s-3.15-3.13-1.93-4.84-6.6-5.28-26.41-6.06S61.94,135.8,52.7,135.4L51,135.33l-.49,0-1.23,0h-.45l-1.33,0h-.24c-6.55-.16-12.8-.17-16-.68a10.11,10.11,0,0,1-1.18-.24,6.26,6.26,0,0,1-2.14.4c-1.32,0-1.62.67-1.62.67s6.6,1.53,4.67,2.29S12.78,139,13.79,139.39s2.13,4.5-9.85,7.23c0,0,10.36,4.37,11,6.44,0,0,13.92-.4,18.18,1.1,0,0-5-.7,0,.87,0,0-2-.54-1.84.29-2.55.61-9.68,2.49-14.11,5.45C8.64,162.46.79,164.14.79,164.14c-3.66.55,6.5,3.32,8,2.74s3.37-1.1,5.09-1.61a4.39,4.39,0,0,0,.57.18,6.18,6.18,0,0,0-.44,1.16c0,.07,0,.12,0,.17s0,.12,0,.17,0,.13,0,.17v.33s0,.05,0,.07,0,.06,0,.1,0,0,0,.06,0,.06,0,.09l0,.07,0,.08,0,.07s0,0,0,.08l0,.06a.18.18,0,0,0,.05.07l.06.07,0,0,.08.07.06.05.1.06.07,0,.12.05.07,0,.21.07c2.52.68,1.83-1.23,1.83-1.23a16.85,16.85,0,0,0,6.18,1.22l-5.93.87s71.82.06,79.14,0,11.27-.62,54-.49C150.32,169.06,94.55,168.74,138.13,168.24Zm-113.3.18a16.05,16.05,0,0,0-2.23-.57s1.45.23,2.43.28l.34.21Zm58.53-14.76c-.58.23-1.06.43-1.39.58C82.3,154.09,82.78,153.89,83.36,153.66Zm-29.95.48a133.24,133.24,0,0,1,24.15,0l-1.24-.1c-10.93.44-15.7.24-15.7.24-.57,0-1.19.05-1.83.1C58,153.89,55.85,154,53.41,154.14Z" style="fill:#838bc5;opacity:0.36;mix-blend-mode:multiply"/><path d="M13.54,147.73s.35,5.36,10.82,5-.59-9.57-1.36-9.36S13.54,147.73,13.54,147.73Z" style="fill:#0b1723"/><path d="M15.06,144.91s-2.51,17.14,0,20.42,1.83-6,1.83-6,2.36,5.49,6.48,6-.77-4-.77-4,2.29,1.75,3,1.29S22.78,152.83,23,152.3s0-7.93,0-7.93Z" style="fill:#a1b9ce"/><path d="M32.2,100S15,117.33,13.54,147.73c0,0,6-6.43,15.59,4.34S32.2,100,32.2,100Z" style="fill:#0d1b28"/><path d="M124.16,12.34c6.18,20.32,4.27,36.22-1.14,48.43,2-2,4.57-3.78,6.17-2.26,3.05,2.9-13.4,24.81-17.14,18.81A74.78,74.78,0,0,1,85.41,95.59l12,17.88,7.52,6.7,3.66-2.44C160.78,65.91,124.16,12.34,124.16,12.34Z" style="fill:url(#linear-gradient)"/><path d="M124.16,12.34c6.18,20.32,4.27,36.22-1.14,48.43,2-2,4.57-3.78,6.17-2.26,3.05,2.9-13.4,24.81-17.14,18.81A74.78,74.78,0,0,1,85.41,95.59l6.64,9.9c1.12-.53,2.27-1.11,3.52-1.77C156.31,71.21,124.16,12.34,124.16,12.34Z" style="opacity:0.30000000000000004;mix-blend-mode:color-dodge;fill:url(#linear-gradient-2)"/><path d="M30.15,0S29.33,1.73,28,1.93s-1.62,3.25-1.62,3.25,6.6,7.31,4.67,11-18.28,6.6-17.27,8.33,2.13,21.64-9.85,34.74c0,0,10.36,21,11,31,0,0,13.92-1.93,18.18,5.28,0,0-5-3.35,0,4.16,0,0-2.44-3.15-1.72,2.85,0,0-15.65,34.43-6,61.15l-8.23,5.79s71.82.31,79.14,0,11.27-2.95,54-2.34c0,0-55.77-1.52-12.19-4,0,0-32.3-1.42-8.43-2l-46.53-1.52s3.46-6.5-6.7-3c0,0,4.06-13-.71-5,0,0,4.16-12-4.57-16.55s-17-23.78-14.73-32.41-3.05-7.31-3.05-7.31,12.49-7,28,1.62c0,0,4.16-9.75,8-11.68s16-7.11,14.22-18.59-3.15-15-1.93-23.26-6.6-25.4-26.41-29.16-13.41-7.11-22.65-9S33.3,4.47,30.15,0Z" style="fill:url(#linear-gradient-3)"/><path d="M96.28,169.44c7.31-.3,11.27-2.95,54-2.34,0,0-55.77-1.52-12.19-4,0,0-32.3-1.42-8.43-2l-46.53-1.52s3.46-6.5-6.7-3c0,0,4.06-13-.71-5,0,0,4.16-12-4.57-16.55s-17-23.78-14.73-32.41-3.05-7.31-3.05-7.31,12.49-7,28,1.62c0,0,4.16-9.75,8-11.68s16-7.11,14.22-18.59-3.15-15-1.93-23.26-6.6-25.4-26.41-29.16-13.41-7.11-22.65-9c-8.31-1.73-17.34-1-21.37-4.1,3.13,3,12.19,11.09,23.3,14.77,13.81,4.57,32.61,16.56,26.31,42.46S42.34,82.89,41.22,96.3c0,0-.2,7.52-2.08,1.22l0-5.28-.71-73L31,6.4s-2.84-1.19.83,6.09S17.25,25.6,17.25,25.6s2.23,13.31-4.68,25.29c0,0,1.83,4.37-4.16,11.89l7.31,24.58s19.81.2,20.52,8.33-3.15-.2-3.15-.2,1.46,11.58,12.21,3.76c0,0-6.55,11.17-12.21.4,0,0,3.25,16.76,14,1.93s-5,11.18,2.85,27,22.44,41.35-22.45,35c0,0,10.36,4.27,29.56,1.83,0,0-17.88,6.7-31.7-1.73l-8.23,5.79S89,169.75,96.28,169.44Z" style="fill:#634277;opacity:0.28;mix-blend-mode:multiply"/><g style="clip-path:url(#clip-path)"><path d="M31,6.4c3.06-.48,7.33,7.47,28.67,14.78s24.68,35.06,14.17,48S41.47,82.13,39.14,97.52c0,0-.2-7.62-11.45-9.6S14.76,84.29,12.17,74.14s-3.66-8.22,0-14.67,2.13-8.31,2.13-8.31,7.44-16.72,5.78-21.9,11.08-7.62,13.16-11.13S28.13,6.86,31,6.4Z" style="fill:#0b1723"/><polygon points="25.47 82.38 27.4 85.38 30.05 82.38 25.47 82.38" style="fill:#928ba8"/><path d="M25.27,71.51S19.58,75,15,68.47c0,0,2.13-7.32,0-10.47,0,0,9.24-12.49,5.13-17.27a4.18,4.18,0,0,0,2.08-3.55c-.1-2.34,1-22.35,29.87-20S91.6,39.41,87.85,56.58,54.73,85.33,57.27,77.2c0,0-8.94,1.83-7.31-4.77,0,0-6.4-.2-5.49,2.84a8.3,8.3,0,0,1-.71,5.89l-1.93,6.1s-3.56-1.93-4.17-4.77a19.19,19.19,0,0,1-11.68.3A9.48,9.48,0,0,1,22.73,78Z" style="fill:url(#linear-gradient-4)"/><path d="M46.58,64.87a10.4,10.4,0,0,1-9.58-9c-.71-4.92-1.06-11.67,1.78-14C43.45,38,56.46,45.1,57,53.53,57.33,59.59,53.08,65.18,46.58,64.87Z" style="fill:url(#linear-gradient-5)"/><path d="M22.73,78a9.26,9.26,0,0,0,1.52,3C27.79,68,22.73,78,22.73,78Z" style="fill:#f1eff4"/><path d="M26,82.79a17.45,17.45,0,0,0,6.21.76C32,66.68,26,82.79,26,82.79Z" style="fill:#f1eff4"/><path d="M32.19,83.55a19.37,19.37,0,0,0,5.47-1.06C35.13,69.75,32.19,83.51,32.19,83.55Z" style="fill:#f1eff4"/><path d="M24.25,81A8.82,8.82,0,0,0,26,82.79C30.64,65.84,24.29,80.9,24.25,81Z" style="fill:#f1eff4"/><path d="M37.66,82.49c.61,2.84,4.17,4.77,4.17,4.77l1.93-6.1C38.22,69.13,37.66,82.49,37.66,82.49Z" style="fill:#f1eff4"/><path d="M32.79,54.14c.93-3.56-.92-12.62-5.28-13.37S18.06,58.41,20.9,61a7.74,7.74,0,0,0,5.57,2.23l-.6-2a1.55,1.55,0,0,1,1.45-2C29.17,59.17,31.69,58.35,32.79,54.14Z" style="fill:url(#linear-gradient-6)"/><path d="M27,60.61s9.15,4.26,8,6.6-4.88-1.76-4.88-1.76,1.39,3.16-.14,3.16S27,60.61,27,60.61Z" style="fill:url(#linear-gradient-7)"/><path d="M48,48.76c2.9-.53,4.19,11.05.54,11.2S43.78,49.53,48,48.76Z" style="fill:#fff"/><path d="M31.37,49.29c-1.86-.43-5.9,6.3-3.28,7.47S33.65,49.83,31.37,49.29Z" style="fill:#fff"/><path d="M57.78,33.22s.4,6.09,4.57,8.63c0,0-3.25,9.68.1,18.76S55,76.84,50.74,71.11c-5.47-7.32-12.47,2.54-9,7.92,1.07,1.68.49,4.52-.81,7.65.53.37.91.58.91.58l1.93-6.1a8.3,8.3,0,0,0,.71-5.89c-.91-3,5.49-2.84,5.49-2.84-1.63,6.6,7.31,4.77,7.31,4.77-2.54,8.13,26.82-3.45,30.58-20.62a30.28,30.28,0,0,0-5.11-24.52C81.74,31,67.19,16,57.78,33.22Z" style="fill:#634277;opacity:0.28;mix-blend-mode:multiply"/><path d="M25.27,71.51s3.45-4.57-1.22-5.58-1.12,7.9-8.23,2.68l-.71-.53-.1.39C19.58,75,25.27,71.51,25.27,71.51Z" style="fill:#634277;opacity:0.28;mix-blend-mode:multiply"/><path d="M22.73,78s5.06-10,1.51,3c0,0,6.41-15.25,1.74,1.77,0,0,6-16.11,6.21.76,0,0,2.93-13.81,5.47-1.06,0,0,.56-13.36,6.1-1.33,0,0-4.67-12.13-6.35-1.57,0,0-2.13-8.84-4.93.46,0,0-.56-10.39-5.15-1.35,0,0,2.92-10.46-1.88-1.5C25.45,77.2,27.76,67.81,22.73,78Z" style="fill:#634277;opacity:0.28;mix-blend-mode:multiply"/><path d="M25.27,71.51s1.07-2.74-1.07-3c-1.24-.15-2,2.34-3.74,3.8A7.58,7.58,0,0,0,25.27,71.51Z" style="fill:#634277;opacity:0.28;mix-blend-mode:multiply"/><path d="M44.47,75.27c-.91-3,5.49-2.84,5.49-2.84S41.12,68.11,44.47,75.27Z" style="fill:#634277;opacity:0.28;mix-blend-mode:multiply"/><path d="M62.1,27.64C79.67,41.75,72.81,75.37,57.27,77.2c-2.54,8.13,26.82-3.45,30.58-20.62S80.94,19.5,52.09,17.17c-10.41-.85-17.19,1.23-21.63,4.32C30.57,21.43,44.6,13.59,62.1,27.64Z" style="opacity:0.28;mix-blend-mode:multiply;fill:url(#linear-gradient-8)"/><path d="M48.28,37.94c22-2.86,7.72-15.31.81-17.41l-.65-.19-.06,0c-10.57-2.93-17.84,1.12-17.92,1.17A19.09,19.09,0,0,0,23.1,31.63l0,.42S26,40.84,48.28,37.94Z" style="opacity:0.30000000000000004;mix-blend-mode:color-dodge;fill:url(#linear-gradient-9)"/></g><path d="M37.42,30.82c-.49,3.89,4.54,4.87,5.49,4.61S38.18,24.76,37.42,30.82Z" style="fill:#634277;opacity:0.28;mix-blend-mode:multiply"/><path d="M33.16,30.47c.1,2-4.61,5.41-5.34,4.5S32.89,25.64,33.16,30.47Z" style="fill:#634277;opacity:0.28;mix-blend-mode:multiply"/><ellipse cx="47.98" cy="54.82" rx="12.19" ry="17.52" style="mix-blend-mode:screen;fill:url(#radial-gradient)"/><ellipse cx="30.15" cy="52.64" rx="14.49" ry="12.19" transform="translate(-29.73 62.33) rotate(-69.39)" style="mix-blend-mode:screen;fill:url(#radial-gradient-2)"/><path d="M49.65,103.77s.2-7.62,3.76-8.38,6.6-1.83,5.38,5.79-3.36,24.48-2.51,32.5-8.3-4.47-8.3-4.47S47.06,107.27,49.65,103.77Z" style="fill:url(#linear-gradient-10)"/><path d="M48.89,113.06s-16.09,5-13.1,16l11.42,3.4S50.16,117.13,48.89,113.06Z" style="fill:#0b1723"/><path d="M.79,143.44s29.76-30.58,36.06-32.71a3.16,3.16,0,0,0,2.64,1.93s1.83,3.75,0,6.5A186,186,0,0,0,8.81,156.64Z" style="fill:#83330d"/><path d="M108.57,117.73s-4.88,3.15-7.92-7.41S83.88,93,83.88,93l-.52.13C82.2,95.25,81.45,97,81.45,97a37.17,37.17,0,0,0-5.13-2.35c-10.93,2.1-15.7,1.13-15.7,1.13a17.5,17.5,0,0,0-3.9,1.33,51.68,51.68,0,0,0-6.36,3.6c-2.43,1.59-4.73,3.27-6.52,4.65a12.27,12.27,0,0,1-1.77,1.38c-1.1.88-1.77,1.44-1.77,1.44l1.63,8.73a78.22,78.22,0,0,1,6.17-5.34,76,76,0,0,1,8-5.54c6.15-3.68,13.44-6.64,20.07-5.68C91.5,102.6,93.94,119.66,97.9,122s11.68-2.23,11.68-2.23Z" style="fill:url(#linear-gradient-11)"/><path d="M39.49,119.16c1.83-2.75,0-6.5,0-6.5a3.16,3.16,0,0,1-2.64-1.93,10.87,10.87,0,0,0-2.38,1.32c2.53.47,3.87,2.59-.51,9.09-9,13.37-22.3,18.44-25.55,24.83-1.26,2.48-2.13,4.27-2.72,5.53l3.12,5.14A186,186,0,0,1,39.49,119.16Z" style="fill:#634277;opacity:0.28;mix-blend-mode:multiply"/><path d="M50.36,100.72c-2.43,1.59-4.73,3.27-6.52,4.65a12.27,12.27,0,0,1-1.77,1.38c-1.1.88-1.77,1.44-1.77,1.44l1.63,8.73a78.22,78.22,0,0,1,6.17-5.34,76,76,0,0,1,8-5.54c6.15-3.68,13.44-6.64,20.07-5.68C91.5,102.6,93.94,119.66,97.9,122s11.68-2.23,11.68-2.23l-1-2s-4.88,3.15-7.92-7.41S83.88,93,83.88,93l-.52.13C82.2,95.25,81.45,97,81.45,97a37.17,37.17,0,0,0-5.13-2.35s-.65,3.94-9.3,2.86-15.21,11.17-17.83,8,8.92-8.92,9.17-9c-.54.2-1.08.42-1.64.67A51.68,51.68,0,0,0,50.36,100.72Z" style="fill:#634277;opacity:0.28;mix-blend-mode:multiply"/><path d="M.79,143.44c1.92-1.39,9.55,10.46,8,13.2S-2.87,146.08.79,143.44Z" style="fill:#44170d"/><path d="M34.47,112.05l2.38-1.32a2.12,2.12,0,0,0,2.64,1.93s1.2,4.36,0,6.5l-4.18,4s-.45,3.62,5.12,3.49,6.86-12.62,8.46-13.61,3.85-6.15-.06-8.41-6.65-2.94-8.86.49c0,0-3.18.77-2.58,2.1C37.39,107.24,33.31,108.14,34.47,112.05Z" style="fill:url(#linear-gradient-12)"/><path d="M39.49,112.66s1.2,4.36,0,6.5l-4.18,4s-.45,3.62,5.12,3.49,6.86-12.62,8.46-13.61c1.32-.82,3.08-4.48,1.44-7,.11.29,1,2.83-2.51.4a10.25,10.25,0,0,0-7.8-1.39s0,0-.05.07c10,.15,8.16,5,3.89,3.25s-6.47-1.15-6.47-1.15,4.64.39,6.22,1.91-1.17,9.45-2.34,8.58-.71-6.4-.71-6.4c-2.74.11-3-1.82-4.42-1.42a2.61,2.61,0,0,0-1.67,2.14l2.38-1.32A2.12,2.12,0,0,0,39.49,112.66Z" style="fill:#634277;opacity:0.28;mix-blend-mode:multiply"/><path d="M15.06,165.33c2.52,3.27,1.83-6,1.83-6s2.36,5.49,6.48,6-.77-4-.77-4,2.29,1.75,3,1.29S22.78,152.83,23,152.3a15.58,15.58,0,0,0,.09-2.38.43.43,0,0,0-.09.25c-.41,2.51-3.21,7.73-4.89,8.3s-1.72-2.4-1-5.16a42.19,42.19,0,0,0,1-6.19c-1.94.37-3.21,3.7-4,7.41C13.81,159,13.86,163.76,15.06,165.33Z" style="fill:#634277;opacity:0.28;mix-blend-mode:multiply"/><path d="M16.75,157.33a10.32,10.32,0,0,1,.37-4,42.19,42.19,0,0,0,1-6.19,16.48,16.48,0,0,0-1.22,12.26A9.9,9.9,0,0,1,16.75,157.33Z" style="fill:#634277;opacity:0.28;mix-blend-mode:multiply"/><path d="M19.54,157.26a32.11,32.11,0,0,1,3.06,4A21.8,21.8,0,0,1,20.46,156,12.45,12.45,0,0,1,19.54,157.26Z" style="fill:#634277;opacity:0.28;mix-blend-mode:multiply"/><path d="M36.47,20.92c-1.28-.61,3.18-3.67,7.43-1.82S40.69,22.92,36.47,20.92Z" style="fill:#fdffff;opacity:0.6000000000000001;mix-blend-mode:color-dodge"/><path d="M31.62,23.05c-.79-.52,2.5-2.47,5.13-.85S34.2,24.77,31.62,23.05Z" style="fill:#fdffff;opacity:0.6000000000000001;mix-blend-mode:color-dodge"/><path d="M35.79,129.06s13.91-5.2,13.1-16c0,0,2.74,14.93,4.87,16s4.42,8.08.92,11.89S35.79,129.06,35.79,129.06Z" style="fill:url(#linear-gradient-13)"/></g></g></g></svg>