<svg xmlns="http://www.w3.org/2000/svg" xmlns:xlink="http://www.w3.org/1999/xlink" viewBox="0 0 56.67 48.93"><defs><style>.cls-1{fill:none;}.cls-2{isolation:isolate;}.cls-3{fill:url(#Áåçûìÿííûé_ãðàäèåíò_213);}.cls-4,.cls-6{fill:#e37478;}.cls-17,.cls-18,.cls-4,.cls-40,.cls-5,.cls-6,.cls-8{mix-blend-mode:multiply;}.cls-4{opacity:0.7;}.cls-5,.cls-8{fill:#be2f55;}.cls-5,.cls-7{opacity:0.3;}.cls-17,.cls-40,.cls-41,.cls-6,.cls-8,.cls-9{opacity:0.5;}.cls-15,.cls-7,.cls-9{fill:#fff;}.cls-41,.cls-7,.cls-9{mix-blend-mode:soft-light;}.cls-10{fill:url(#Áåçûìÿííûé_ãðàäèåíò_470);}.cls-11{fill:url(#Áåçûìÿííûé_ãðàäèåíò_470-2);}.cls-12{fill:url(#Áåçûìÿííûé_ãðàäèåíò_473);}.cls-13{fill:url(#Áåçûìÿííûé_ãðàäèåíò_170);}.cls-14{fill:#ff9304;}.cls-16{fill:#ffe016;}.cls-17,.cls-18{fill:#d42f55;}.cls-18{opacity:0.8;}.cls-19{clip-path:url(#clip-path);}.cls-20{fill:url(#Áåçûìÿííûé_ãðàäèåíò_470-3);}.cls-21{fill:url(#Áåçûìÿííûé_ãðàäèåíò_470-4);}.cls-22{fill:url(#Áåçûìÿííûé_ãðàäèåíò_178);}.cls-23{fill:url(#Áåçûìÿííûé_ãðàäèåíò_170-2);}.cls-24{fill:url(#Áåçûìÿííûé_ãðàäèåíò_470-5);}.cls-25{fill:url(#Áåçûìÿííûé_ãðàäèåíò_470-6);}.cls-26{fill:url(#Áåçûìÿííûé_ãðàäèåíò_178-2);}.cls-27{fill:url(#Áåçûìÿííûé_ãðàäèåíò_170-3);}.cls-28{fill:url(#Áåçûìÿííûé_ãðàäèåíò_470-7);}.cls-29{fill:url(#Áåçûìÿííûé_ãðàäèåíò_470-8);}.cls-30{fill:url(#Áåçûìÿííûé_ãðàäèåíò_178-3);}.cls-31{fill:url(#Áåçûìÿííûé_ãðàäèåíò_170-4);}.cls-32{fill:url(#Áåçûìÿííûé_ãðàäèåíò_470-9);}.cls-33{fill:url(#Áåçûìÿííûé_ãðàäèåíò_470-10);}.cls-34{fill:url(#Áåçûìÿííûé_ãðàäèåíò_178-4);}.cls-35{fill:url(#Áåçûìÿííûé_ãðàäèåíò_170-5);}.cls-36{fill:url(#Áåçûìÿííûé_ãðàäèåíò_470-11);}.cls-37{fill:url(#Áåçûìÿííûé_ãðàäèåíò_470-12);}.cls-38{fill:url(#Áåçûìÿííûé_ãðàäèåíò_473-2);}.cls-39{fill:url(#Áåçûìÿííûé_ãðàäèåíò_170-6);}.cls-40{fill:#d40c55;}.cls-41{fill:#ffe0b3;}</style><radialGradient id="Áåçûìÿííûé_ãðàäèåíò_213" cx="25.28" cy="41.41" r="23.67" gradientUnits="userSpaceOnUse"><stop offset="0" stop-color="#ce5411"/><stop offset="1" stop-color="#b42b00"/></radialGradient><linearGradient id="Áåçûìÿííûé_ãðàäèåíò_470" x1="-294.87" y1="93.19" x2="-294.87" y2="75.82" gradientTransform="translate(39.18 355.33) rotate(107.52)" gradientUnits="userSpaceOnUse"><stop offset="0.05" stop-color="#ff3f00"/><stop offset="1" stop-color="#ff6a03"/></linearGradient><linearGradient id="Áåçûìÿííûé_ãðàäèåíò_470-2" x1="-295.79" y1="93.39" x2="-295.79" y2="75.63" gradientTransform="translate(39.18 348.96) rotate(107.52)" xlink:href="#Áåçûìÿííûé_ãðàäèåíò_470"/><linearGradient id="Áåçûìÿííûé_ãðàäèåíò_473" x1="-296.97" y1="93.39" x2="-296.97" y2="75.63" gradientTransform="translate(39.18 355.33) rotate(107.52)" gradientUnits="userSpaceOnUse"><stop offset="0" stop-color="#ffa900"/><stop offset="1" stop-color="#ffc600"/></linearGradient><linearGradient id="Áåçûìÿííûé_ãðàäèåíò_170" x1="-297.03" y1="90.35" x2="-297.03" y2="78.67" gradientTransform="translate(39.18 355.33) rotate(107.52)" gradientUnits="userSpaceOnUse"><stop offset="0" stop-color="#ff7c04"/><stop offset="1" stop-color="#d92000"/></linearGradient><clipPath id="clip-path" transform="translate(0 -6.37)"><path class="cls-1" d="M7.08,15.77S18.85,28.55,32.59,26.06,47.16,6.37,47.16,6.37L35.27,0l-34,2.61Z"/></clipPath><linearGradient id="Áåçûìÿííûé_ãðàäèåíò_470-3" x1="-197.12" y1="39.48" x2="-197.12" y2="22.12" gradientTransform="translate(108.79 204.56) rotate(75.99)" xlink:href="#Áåçûìÿííûé_ãðàäèåíò_470"/><linearGradient id="Áåçûìÿííûé_ãðàäèåíò_470-4" x1="-198.05" y1="39.68" x2="-198.05" y2="21.92" gradientTransform="translate(108.79 198.19) rotate(75.99)" xlink:href="#Áåçûìÿííûé_ãðàäèåíò_470"/><linearGradient id="Áåçûìÿííûé_ãðàäèåíò_178" x1="-199.23" y1="39.68" x2="-199.23" y2="21.92" gradientTransform="translate(108.79 204.56) rotate(75.99)" gradientUnits="userSpaceOnUse"><stop offset="0" stop-color="#ffa900"/><stop offset="1" stop-color="#ff9600"/></linearGradient><linearGradient id="Áåçûìÿííûé_ãðàäèåíò_170-2" x1="-199.29" y1="36.64" x2="-199.29" y2="24.96" gradientTransform="translate(108.79 204.56) rotate(75.99)" xlink:href="#Áåçûìÿííûé_ãðàäèåíò_170"/><linearGradient id="Áåçûìÿííûé_ãðàäèåíò_470-5" x1="-318.19" y1="123.45" x2="-318.19" y2="106.08" gradientTransform="translate(55.59 351.44) rotate(103.14)" xlink:href="#Áåçûìÿííûé_ãðàäèåíò_470"/><linearGradient id="Áåçûìÿííûé_ãðàäèåíò_470-6" x1="-319.12" y1="123.65" x2="-319.12" y2="105.89" gradientTransform="translate(55.59 345.07) rotate(103.14)" xlink:href="#Áåçûìÿííûé_ãðàäèåíò_470"/><linearGradient id="Áåçûìÿííûé_ãðàäèåíò_178-2" x1="-320.29" y1="123.65" x2="-320.29" y2="105.89" gradientTransform="translate(55.59 351.44) rotate(103.14)" xlink:href="#Áåçûìÿííûé_ãðàäèåíò_178"/><linearGradient id="Áåçûìÿííûé_ãðàäèåíò_170-3" x1="-320.35" y1="120.61" x2="-320.35" y2="108.93" gradientTransform="translate(55.59 351.44) rotate(103.14)" xlink:href="#Áåçûìÿííûé_ãðàäèåíò_170"/><linearGradient id="Áåçûìÿííûé_ãðàäèåíò_470-7" x1="-313.58" y1="118.94" x2="-313.58" y2="101.57" gradientTransform="translate(55.59 351.44) rotate(103.14)" xlink:href="#Áåçûìÿííûé_ãðàäèåíò_470"/><linearGradient id="Áåçûìÿííûé_ãðàäèåíò_470-8" x1="-314.5" y1="119.14" x2="-314.5" y2="101.37" gradientTransform="translate(55.59 345.07) rotate(103.14)" xlink:href="#Áåçûìÿííûé_ãðàäèåíò_470"/><linearGradient id="Áåçûìÿííûé_ãðàäèåíò_178-3" x1="-315.68" y1="119.14" x2="-315.68" y2="101.37" gradientTransform="translate(55.59 351.44) rotate(103.14)" xlink:href="#Áåçûìÿííûé_ãðàäèåíò_178"/><linearGradient id="Áåçûìÿííûé_ãðàäèåíò_170-4" x1="-315.74" y1="116.1" x2="-315.74" y2="104.41" gradientTransform="translate(55.59 351.44) rotate(103.14)" xlink:href="#Áåçûìÿííûé_ãðàäèåíò_170"/><linearGradient id="Áåçûìÿííûé_ãðàäèåíò_470-9" x1="-200.44" y1="38.66" x2="-200.44" y2="21.29" gradientTransform="translate(108.79 204.56) rotate(75.99)" xlink:href="#Áåçûìÿííûé_ãðàäèåíò_470"/><linearGradient id="Áåçûìÿííûé_ãðàäèåíò_470-10" x1="-201.37" y1="38.86" x2="-201.37" y2="21.1" gradientTransform="translate(108.79 198.19) rotate(75.99)" xlink:href="#Áåçûìÿííûé_ãðàäèåíò_470"/><linearGradient id="Áåçûìÿííûé_ãðàäèåíò_178-4" x1="-202.55" y1="38.86" x2="-202.55" y2="21.1" xlink:href="#Áåçûìÿííûé_ãðàäèåíò_178"/><linearGradient id="Áåçûìÿííûé_ãðàäèåíò_170-5" x1="-202.61" y1="35.82" x2="-202.61" y2="24.14" gradientTransform="translate(108.79 204.56) rotate(75.99)" xlink:href="#Áåçûìÿííûé_ãðàäèåíò_170"/><linearGradient id="Áåçûìÿííûé_ãðàäèåíò_470-11" x1="-322.57" y1="117.35" x2="-322.57" y2="99.98" xlink:href="#Áåçûìÿííûé_ãðàäèåíò_470"/><linearGradient id="Áåçûìÿííûé_ãðàäèåíò_470-12" x1="-323.49" y1="117.54" x2="-323.49" y2="99.78" gradientTransform="translate(39.18 348.96) rotate(107.52)" xlink:href="#Áåçûìÿííûé_ãðàäèåíò_470"/><linearGradient id="Áåçûìÿííûé_ãðàäèåíò_473-2" x1="-324.67" y1="117.54" x2="-324.67" y2="99.78" xlink:href="#Áåçûìÿííûé_ãðàäèåíò_473"/><linearGradient id="Áåçûìÿííûé_ãðàäèåíò_170-6" x1="-324.73" y1="114.51" x2="-324.73" y2="102.82" xlink:href="#Áåçûìÿííûé_ãðàäèåíò_170"/></defs><g class="cls-2"><g id="Calque_2" data-name="Calque 2"><g id="layer1"><path class="cls-3" d="M50.31,53.66c0,.64-1.13,1.05-3,1.29-.65.09-1.37.15-2.17.2h0c-5.35.34-13.73,0-18.73,0-3.9,0-10,.2-15.4.14-4.13,0-7.82-.25-9.69-.82h0c-.82-.25-1.28-.57-1.26-1a4.63,4.63,0,0,1,1.13-2.95h0A6.2,6.2,0,0,0,1.55,50a1.14,1.14,0,0,0,.2-.66c0-.3-.23-1.18-.51-2.46-.73-3.36-1.82-9.48-.15-14.78a18.27,18.27,0,0,1,3.08-5.92h0c.42-.53.83-1,1.2-1.39l.84-.87c1-1,1.48-1.63.75-2.39l-.15-.14a23.34,23.34,0,0,1-3.77-3.84H3c-1.11-1.61-1.49-3.32.37-4.64,7.75-5.49,34.52-3,42.59,3.62a2.78,2.78,0,0,1,1.16,2.64h0a4.62,4.62,0,0,1-.6,1.67h0a15.37,15.37,0,0,1-3.39,3.75c-.56.47-.48.85,0,1.4h0a10.55,10.55,0,0,0,.77.81A16.83,16.83,0,0,1,48.08,33a12.76,12.76,0,0,1,.44,1.28c1.87,6,.41,12.84.07,15a3.57,3.57,0,0,0-.07.58h0C48.53,50.84,50.13,51.22,50.31,53.66Z" transform="translate(0 -6.37)"/><path class="cls-4" d="M43.92,26.76c-1.39-1.15-2.12-.12-3.47,1.51a21.67,21.67,0,0,1-17.69,7.08c-7.2-.7-11-8.77-17.38-10.59C6.89,23.16,7.89,22.45,7,21.5c1.19,1.08,9,7.93,19,9.92,10.18,2,20.31-10.27,20.61-10.62a15.37,15.37,0,0,1-3.39,3.75C42.36,25.22,42.88,25.73,43.92,26.76Z" transform="translate(0 -6.37)"/><path class="cls-5" d="M48.92,46.36l-.33,2.92-.07.58h0s-7.17,2.08-9,3.75S47.29,55,47.29,55c-5,.65-15.17.2-20.91.2-6.86,0-20.75.64-25.09-.68.46.06,6.53.88,9.67-.27,2.84-1-5.67-2.48-9.41-4.23a1.14,1.14,0,0,0,.2-.66c0-.3-.23-1.18-.51-2.46,0,0,6.42,7.44,25.92,6.72C45.19,52.91,48.92,46.36,48.92,46.36Z" transform="translate(0 -6.37)"/><path class="cls-5" d="M31.22,32c-1.45-.34,5.19-2.56,7.79-4.34,3-2.06,3.85-2.6,3.52-2.09S37.5,33.52,31.22,32Z" transform="translate(0 -6.37)"/><path class="cls-5" d="M7.45,21.93c-.25-.12,1.17,3,1.81,4.12s5.62,6.57,9.12,7.88,3.44-1.3,2.19-3.31S16,28.66,7.45,21.93Z" transform="translate(0 -6.37)"/><path class="cls-6" d="M48.59,49.28a3.57,3.57,0,0,0-.07.58h0S41,51.63,40.05,53.19c-.69,1.11,2.91,1.71,5.06,2-5.35.34-13.73,0-18.73,0-3.9,0-10,.2-15.4.14a2.87,2.87,0,0,0,.39-1.09c.28-2-7.18-3.26-10.24-3.68A6.2,6.2,0,0,0,1.55,50a1.14,1.14,0,0,0,.2-.66c0-.3-.23-1.18-.51-2.46-.73-3.36-1.82-9.48-.15-14.78a18.27,18.27,0,0,1,3.08-5.92h0C-.27,31.67,7,51.74,27.15,53.07,45.73,54.3,48.54,39,48.08,33a12.76,12.76,0,0,1,.44,1.28C50.39,40.27,48.93,47.11,48.59,49.28Z" transform="translate(0 -6.37)"/><path class="cls-7" d="M10.6,27.73c-5.25-4-4.71,13.47,2.2,20.21,6.65,6.5,23.87,6.94,29.17.56S47.1,34.29,44.83,30s-8.3,5.11-18.27,5.13C16.17,35.13,12,28.78,10.6,27.73Z" transform="translate(0 -6.37)"/><path class="cls-8" d="M11.54,55.29s-.3-1.12,11.31-1.73c11.09-.58,17.68,1.73,17.68,1.73s-6.21-.1-13.62-.14C19.27,55.11,11.54,55.29,11.54,55.29Z" transform="translate(0 -6.37)"/><path class="cls-8" d="M6.52,14.25c-1.21.89,4.12,4,9.24,8.77s15.73,3.87,21.77,1.44,5.13-8.67.82-10.4-6.48.25-16-1.57C12.32,10.58,9,12.45,6.52,14.25Z" transform="translate(0 -6.37)"/><path class="cls-5" d="M6.54,15.07C5.25,13,14.29,11.43,19.1,13.56s1.39,12,.6,11.73a43.74,43.74,0,0,1-6.86-4.81C9.41,17.72,7.37,16.41,6.54,15.07Z" transform="translate(0 -6.37)"/><path class="cls-5" d="M33.26,13.61c-3.5.36-5.16,9.8-4.54,11.72s9-.24,11.76-2.9S42.76,12.66,33.26,13.61Z" transform="translate(0 -6.37)"/><path class="cls-9" d="M2.32,14.11C2.66,16.89,11.94,26.31,25,28.9,37.26,31.36,47,21.66,46.55,18.26c-.78-5.53-14-6.76-24.3-8C11.47,9.07,4,12.09,4.34,13.3s.75,1.06,2.15.18,7.16-2.57,12.58-1.42,19.74.63,22.86,3.82S39,26.61,27.84,26.37c-11.67-.26-18.73-6.69-20.73-9.43A6.57,6.57,0,0,0,2.32,14.11Z" transform="translate(0 -6.37)"/><path class="cls-8" d="M47.16,19.12a4.62,4.62,0,0,1-.6,1.67h0a15.37,15.37,0,0,1-3.39,3.75c-.56.47-.48.85,0,1.4-.61-.35-8.22,11-18.7,9.07-10-1.81-16.09-7.79-18.22-11.13,1-1,1.48-1.63.75-2.39l-.15-.14a23.34,23.34,0,0,1-3.77-3.84h0c.34.36,11.38,11.69,24.39,11.74C39.78,29.29,46.94,19.43,47.16,19.12Z" transform="translate(0 -6.37)"/><path class="cls-5" d="M39.48,53.12c-2.51-.77,4.42-5.38,7.15-12.63s2.72,3.22,2.72,3.22S48.55,49,48,49.64,39.48,53.12,39.48,53.12Z" transform="translate(0 -6.37)"/><path class="cls-5" d="M11.9,53.52C9,53.19,2,49.29,1.42,47.17s-1-11.23.21-12S9.14,48.4,20.2,52.37C30.72,56.15,11.9,53.52,11.9,53.52Z" transform="translate(0 -6.37)"/><path class="cls-8" d="M39.33,44.91c-.36,1.59-3,8.31-2.21,9.47s7.52,1,9.72.63,2.88-7.36,2.88-7.36Z" transform="translate(0 -6.37)"/><path class="cls-10" d="M45.47,54.66a11.66,11.66,0,0,1-3-1.47,8.62,8.62,0,0,1-.83-.63h0a9.08,9.08,0,0,1-1.4-1.45v0a6.89,6.89,0,0,1-.46-.69l0,0a7.21,7.21,0,0,1-.49-1s0,0,0,0h0A4.91,4.91,0,0,1,39,46.25v0a.65.65,0,0,1,0-.13,1.72,1.72,0,0,1,.07-.21l0-.11,0-.1a1.17,1.17,0,0,0,.05-.11l0-.06a4.54,4.54,0,0,1,.55-.89,5.57,5.57,0,0,1,.46-.51c1.91-1.83,5.41-2.46,8.92-1.35a12.59,12.59,0,0,1,1.72.69c2.67,1.33,4.48,3.5,4.83,5.71a4.83,4.83,0,0,1,0,1.47v.08a4.07,4.07,0,0,1-.14.58v0l0,.1a5.58,5.58,0,0,1-3.74,3.34l-.08,0h0A10.65,10.65,0,0,1,45.47,54.66Z" transform="translate(0 -6.37)"/><polygon class="cls-11" points="38.97 40.13 39.02 39.88 39.03 39.86 39.33 38.54 39.34 38.51 39.47 37.92 39.47 37.91 39.56 37.52 39.56 37.5 39.6 37.51 39.74 37.56 39.99 37.64 40.31 37.74 49.96 40.89 55.78 42.79 56.16 42.91 56.44 43 56.45 43.01 56.14 43.76 56.14 43.76 55.6 45.06 55.59 45.06 55.48 45.02 55.44 45.02 55.28 44.97 55.21 44.95 55.19 44.94 51.05 43.71 40.02 40.44 39.44 40.27 39.38 40.25 39.36 40.25 39.14 40.18 39.03 40.15 38.97 40.13"/><path class="cls-12" d="M46.06,52.79a11.74,11.74,0,0,1-3.14-1.52h0l-.27-.2-.21-.15a9.27,9.27,0,0,1-1.69-1.68l-.2-.25a6.8,6.8,0,0,1-1.09-2.34,4.86,4.86,0,0,1-.14-1.13V45.2h0a2.3,2.3,0,0,1,0-.26v0a4.44,4.44,0,0,1,.18-.88l.05-.14v0a4.57,4.57,0,0,1,.91-1.53l.15-.18,0,0a5.94,5.94,0,0,1,1.76-1.24,0,0,0,0,0,0,0,8.38,8.38,0,0,1,1.73-.59h0a11.17,11.17,0,0,1,5.74.34,11.64,11.64,0,0,1,3.81,2l.11.09a7.25,7.25,0,0,1,2.83,4.88h0c0,.1,0,.21,0,.31v.16c0,.1,0,.2,0,.29a.88.88,0,0,1,0,.16,4.2,4.2,0,0,1-.18.84,4.93,4.93,0,0,1-.31.75h0a5.65,5.65,0,0,1-.36.58l0,0a1.16,1.16,0,0,1-.16.21v0a3.92,3.92,0,0,1-.34.37C53.32,53.27,49.7,53.94,46.06,52.79Z" transform="translate(0 -6.37)"/><path class="cls-9" d="M46.51,40.15c-.61.09.31,4.89.37,7S45.31,52,45.49,52.32s4,1.24,6.19.72.23-1.08-.31-2.46-.72-6.39-.29-7.31,1-1.07,1.08-1.45S49.46,39.73,46.51,40.15Z" transform="translate(0 -6.37)"/><path class="cls-13" d="M46.75,50.6c-2.93-.92-4.83-3.29-4.4-5.41,0-.1,0-.2.08-.3.69-2.19,3.74-3.17,6.82-2.2s5,3.53,4.32,5.72a2.49,2.49,0,0,1-.11.29C52.6,50.68,49.69,51.53,46.75,50.6Z" transform="translate(0 -6.37)"/><path class="cls-14" d="M46.75,50.6c-2.93-.92-4.83-3.29-4.4-5.41.86-2,3.77-2.83,6.71-1.9s4.84,3.3,4.4,5.41C52.6,50.68,49.69,51.53,46.75,50.6Z" transform="translate(0 -6.37)"/><path class="cls-15" d="M48.5,40.35c1.87.3-1.43,2.87-2.85-.13A12.65,12.65,0,0,1,48.5,40.35Z" transform="translate(0 -6.37)"/><path class="cls-9" d="M42.9,51.26l-.27-.2a11.15,11.15,0,0,1-1.9-1.83,6.5,6.5,0,0,1-1.35-2.61,5.12,5.12,0,0,1-.11-1,1.93,1.93,0,0,1,0-.24h0a2.65,2.65,0,0,1,0-.38.13.13,0,0,1,0-.06v-.05c0-.19.08-.37.13-.54h0c0-.14.08-.27.13-.4a5.34,5.34,0,0,1,1-1.72l0,0a4.76,4.76,0,0,1,1.76-1.24,0,0,0,0,0,0,0h0a9,9,0,0,0-1.65,1.59A5,5,0,0,0,40,44a4.15,4.15,0,0,0-.14.61c0,.06,0,.12,0,.17a5.63,5.63,0,0,0,.18,2A10.36,10.36,0,0,0,42.9,51.26Z" transform="translate(0 -6.37)"/><path class="cls-16" d="M44.79,42.66S41.05,44.72,43,47.9C43,47.9,40.47,44.29,44.79,42.66Z" transform="translate(0 -6.37)"/><path class="cls-17" d="M51,43.43c-1-.17,1.79,1.48,1.92,4.23s-4.49,3.28-4.49,3.28,4.14.78,5.21-2.62C54.46,45.66,51,43.43,51,43.43Z" transform="translate(0 -6.37)"/><path class="cls-18" d="M51.78,54.8l.08,0Z" transform="translate(0 -6.37)"/><path class="cls-18" d="M51.86,54.77A5.83,5.83,0,0,0,53.23,54h0a6.89,6.89,0,0,0,2.24-2.64.14.14,0,0,0,0-.06,4.86,4.86,0,0,0,.26-.61.08.08,0,0,0,0,0l0-.08a7.77,7.77,0,0,0,.3-1.06,2.38,2.38,0,0,0,0-.26,6.73,6.73,0,0,0-.88-4.77,7.51,7.51,0,0,0-1.45-1.78,7.25,7.25,0,0,1,2.83,4.88h0c0,.1,0,.21,0,.31v.16c0,.1,0,.2,0,.29a.88.88,0,0,1,0,.16,4.2,4.2,0,0,1-.18.84,4.93,4.93,0,0,1-.31.75h0l-.54,1.3h0A5.55,5.55,0,0,1,51.86,54.77Z" transform="translate(0 -6.37)"/><path class="cls-18" d="M40.18,51.09a6.89,6.89,0,0,1-.46-.69l0,0a4.22,4.22,0,0,1-.49-1s0,0,0,0h0A4.91,4.91,0,0,1,39,46.25v0l.3-1.32a4.44,4.44,0,0,1,.18-.88l.05-.14v0h0a4.57,4.57,0,0,1,.91-1.53l.15-.18,0,0a4.76,4.76,0,0,1,1.76-1.24,0,0,0,0,0,0,0,8.38,8.38,0,0,1,1.73-.59,9.67,9.67,0,0,0-3.37,2.18,5.88,5.88,0,0,0-1.06,1.47,5.6,5.6,0,0,0-.44,1.27h0a.5.5,0,0,1,0,.12h0l-.06.35v.06a7.82,7.82,0,0,0-.07.81,8.39,8.39,0,0,0,1,4.38h0Z" transform="translate(0 -6.37)"/><path class="cls-15" d="M48.41,53.12c-2-.63,3.1-2.42,4.45-2.39s1,1.45,0,2A8.09,8.09,0,0,1,48.41,53.12Z" transform="translate(0 -6.37)"/><g class="cls-19"><path class="cls-20" d="M32.7,26.81a12.06,12.06,0,0,1-3.38.34c-.35,0-.69,0-1-.1h0a9.77,9.77,0,0,1-1.95-.51h0c-.26-.11-.52-.22-.76-.35h0a7,7,0,0,1-.95-.61l0,0h0A4.94,4.94,0,0,1,22.8,23v0a.57.57,0,0,1,0-.14c0-.07,0-.14-.05-.21l0-.12s0-.06,0-.1a.5.5,0,0,1,0-.12s0,0,0-.07a4.52,4.52,0,0,1,0-1,5.39,5.39,0,0,1,.12-.68c.67-2.56,3.32-4.92,6.9-5.81a10.77,10.77,0,0,1,1.83-.31c3-.27,5.64.63,7.09,2.33A4.67,4.67,0,0,1,39.38,18l0,.05,0,0a5.22,5.22,0,0,1,.18.56v0l0,.11a5.56,5.56,0,0,1-1.44,4.8l-.05.06,0,0A10.65,10.65,0,0,1,32.7,26.81Z" transform="translate(0 -6.37)"/><polygon class="cls-21" points="22.89 16.88 22.8 16.64 22.8 16.62 22.36 15.33 22.35 15.3 22.16 14.73 22.16 14.72 22.03 14.35 22.02 14.33 22.06 14.32 22.2 14.28 22.45 14.22 22.78 14.14 32.65 11.78 38.6 10.35 39 10.26 39.28 10.19 39.29 10.19 39.42 10.99 39.42 10.99 39.64 12.39 39.63 12.39 39.52 12.42 39.48 12.43 39.33 12.47 39.25 12.49 39.23 12.5 35.06 13.62 23.94 16.6 23.36 16.75 23.3 16.77 23.28 16.78 23.06 16.84 22.95 16.86 22.89 16.88"/><path class="cls-22" d="M32.22,24.9a11.7,11.7,0,0,1-3.48.35h0l-.34,0-.26,0a9.4,9.4,0,0,1-2.31-.54,2.68,2.68,0,0,1-.3-.12,6.55,6.55,0,0,1-2.16-1.42,5,5,0,0,1-.71-.89L22.49,22h0a1.63,1.63,0,0,1-.11-.23l0,0a4.21,4.21,0,0,1-.3-.84l0-.14v0a4.9,4.9,0,0,1,0-1.79,1.57,1.57,0,0,1,0-.23v-.05a6.28,6.28,0,0,1,.86-2h0a8.11,8.11,0,0,1,1.17-1.41h0a11.26,11.26,0,0,1,5.06-2.71,11.64,11.64,0,0,1,4.31-.28l.14,0a7.26,7.26,0,0,1,5,2.68s0,0,0,0l.17.25.09.14.13.26a1,1,0,0,1,.07.15,4.2,4.2,0,0,1,.28.8,4.45,4.45,0,0,1,.13.8h0a4,4,0,0,1,0,.69v0l0,.26v0c0,.16-.06.33-.1.49C38.66,21.51,35.92,24,32.22,24.9Z" transform="translate(0 -6.37)"/><path class="cls-9" d="M26,13.9c-.48.39,2.82,4,4,5.76s1.19,4.94,1.53,5.14,4.1-1.06,5.65-2.62-.36-1.05-1.55-1.94-4-5.07-4.07-6.07.32-1.46.16-1.81S28.29,12,26,13.9Z" transform="translate(0 -6.37)"/><path class="cls-23" d="M31.67,22.68c-3,.74-5.85-.29-6.58-2.31,0-.1-.07-.2-.1-.3-.55-2.23,1.54-4.66,4.67-5.44s6.12.39,6.67,2.61a1.55,1.55,0,0,1,.06.31C36.69,19.68,34.65,21.93,31.67,22.68Z" transform="translate(0 -6.37)"/><path class="cls-14" d="M31.67,22.68c-3,.74-5.85-.29-6.58-2.31-.31-2.14,1.73-4.39,4.72-5.14s5.85.29,6.58,2.32C36.69,19.68,34.65,21.93,31.67,22.68Z" transform="translate(0 -6.37)"/><path class="cls-15" d="M27.79,13c1.76-.72.28,3.2-2.49,1.39A12.66,12.66,0,0,1,27.79,13Z" transform="translate(0 -6.37)"/><path class="cls-9" d="M28.73,25.25l-.34,0a10.44,10.44,0,0,1-2.57-.56,6.5,6.5,0,0,1-2.51-1.52,4.1,4.1,0,0,1-.65-.84l-.12-.21h0a1.87,1.87,0,0,1-.16-.35l0-.05,0-.05a4,4,0,0,1-.17-.53h0a3.48,3.48,0,0,1-.1-.41,5,5,0,0,1,0-2v-.05a4.85,4.85,0,0,1,.86-2h0a9.08,9.08,0,0,0-.58,2.22,5.24,5.24,0,0,0,.12,1.74,3.57,3.57,0,0,0,.21.6l.07.16A5.63,5.63,0,0,0,23.94,23,10.3,10.3,0,0,0,28.73,25.25Z" transform="translate(0 -6.37)"/><path class="cls-16" d="M25.84,16.93S23.73,20.65,27,22.35C27,22.35,23,20.58,25.84,16.93Z" transform="translate(0 -6.37)"/><path class="cls-17" d="M31.52,14.35c-.93.37,2.29.33,3.85,2.6s-2.12,5.15-2.12,5.15,3.94-1.5,3.08-5C35.65,14.44,31.52,14.35,31.52,14.35Z" transform="translate(0 -6.37)"/><path class="cls-18" d="M38.15,23.62l.05-.06Z" transform="translate(0 -6.37)"/><path class="cls-18" d="M38.2,23.56A5.63,5.63,0,0,0,39,22.22h0a6.9,6.9,0,0,0,.53-3.43s0,0,0-.06c0-.21,0-.43-.09-.65,0,0,0,0,0-.06s0-.06,0-.08a7.86,7.86,0,0,0-.3-1.07L39,16.63A6.77,6.77,0,0,0,35.75,13a7.81,7.81,0,0,0-2.17-.76,7.26,7.26,0,0,1,5,2.68s0,0,0,0l.17.25.06.1,0,0,.13.26a1,1,0,0,1,.07.15,4.2,4.2,0,0,1,.28.8,4.45,4.45,0,0,1,.13.8h0l.22,1.4h0A5.56,5.56,0,0,1,38.2,23.56Z" transform="translate(0 -6.37)"/><path class="cls-18" d="M26.32,26.53c-.26-.11-.52-.22-.76-.35h0a4.45,4.45,0,0,1-.95-.61l0,0h0A4.94,4.94,0,0,1,22.8,23v0l-.44-1.29a4.21,4.21,0,0,1-.3-.84l0-.14v0h0a4.9,4.9,0,0,1,0-1.79,1.57,1.57,0,0,1,0-.23v-.05a4.85,4.85,0,0,1,.86-2h0a8.11,8.11,0,0,1,1.17-1.41,9.64,9.64,0,0,0-1.74,3.62,6.3,6.3,0,0,0-.13,1.8A5.05,5.05,0,0,0,22.49,22h0l.05.11h0c0,.11.09.22.14.33l0,.06c.11.25.23.5.36.73a8.41,8.41,0,0,0,3.1,3.23h0Z" transform="translate(0 -6.37)"/><path class="cls-24" d="M14.74,21.58a11.5,11.5,0,0,1-3.16-1.23,9.28,9.28,0,0,1-.87-.56h0a8.84,8.84,0,0,1-1.5-1.34v0a7.79,7.79,0,0,1-.52-.65l0,0a7.45,7.45,0,0,1-.56-1,0,0,0,0,1,0,0h0a5,5,0,0,1-.41-3v0a.35.35,0,0,1,0-.14,1.6,1.6,0,0,1,0-.21l0-.11a1,1,0,0,1,0-.1.56.56,0,0,1,0-.12.14.14,0,0,1,0-.06A5.11,5.11,0,0,1,8.36,12a5.56,5.56,0,0,1,.42-.54c1.76-2,5.21-2.87,8.79-2a11.19,11.19,0,0,1,1.78.56c2.75,1.11,4.72,3.14,5.24,5.31a4.89,4.89,0,0,1,.13,1.47v.08a5.58,5.58,0,0,1-.09.59v0l0,.11a5.53,5.53,0,0,1-3.47,3.61l-.07,0,0,0A10.64,10.64,0,0,1,14.74,21.58Z" transform="translate(0 -6.37)"/><polygon class="cls-25" points="7.63 7.57 7.66 7.32 7.67 7.3 7.87 5.96 7.87 5.92 7.96 5.33 7.96 5.32 8.02 4.93 8.02 4.9 8.06 4.91 8.21 4.95 8.45 5.01 8.79 5.09 18.64 7.49 24.59 8.93 24.99 9.03 25.27 9.1 25.28 9.1 25.03 9.87 25.03 9.88 24.59 11.22 24.58 11.21 24.46 11.19 24.43 11.18 24.27 11.15 24.19 11.13 24.17 11.13 19.95 10.22 8.7 7.8 8.11 7.68 8.05 7.66 8.03 7.66 7.8 7.61 7.69 7.59 7.63 7.57"/><path class="cls-26" d="M15.18,19.67a11.85,11.85,0,0,1-3.25-1.28h0l-.28-.17a1.64,1.64,0,0,1-.22-.14,8.88,8.88,0,0,1-1.82-1.54l-.21-.24a6.65,6.65,0,0,1-1.27-2.24,5,5,0,0,1-.23-1.12c0-.11,0-.21,0-.31h0v-.3A4.61,4.61,0,0,1,8,11.43a.65.65,0,0,1,0-.13v0a4.91,4.91,0,0,1,.8-1.6L9,9.48l0,0a6.08,6.08,0,0,1,1.66-1.38h0a7.93,7.93,0,0,1,1.68-.71h0a11.08,11.08,0,0,1,5.74-.11A11.58,11.58,0,0,1,22,9l.12.09a7.24,7.24,0,0,1,3.19,4.64v0a2.91,2.91,0,0,1,0,.31.92.92,0,0,0,0,.16v.45a4.86,4.86,0,0,1-.12.84,4.63,4.63,0,0,1-.25.77h0a4.3,4.3,0,0,1-.32.6v0l-.15.22h0c-.09.14-.2.27-.3.4C22.46,19.59,18.9,20.54,15.18,19.67Z" transform="translate(0 -6.37)"/><path class="cls-9" d="M14.67,7c-.61.13.68,4.85.89,6.94s-1.19,4.94-1,5.26,4.14.93,6.23.25.15-1.1-.5-2.43-1.2-6.31-.85-7.26.95-1.15,1-1.53S17.57,6.39,14.67,7Z" transform="translate(0 -6.37)"/><path class="cls-27" d="M15.7,17.44c-3-.7-5.07-2.92-4.8-5.06,0-.1,0-.21,0-.31.53-2.23,3.49-3.44,6.64-2.71s5.27,3.13,4.74,5.37c0,.1,0,.2-.08.3C21.54,17.07,18.7,18.14,15.7,17.44Z" transform="translate(0 -6.37)"/><path class="cls-14" d="M15.7,17.44c-3-.7-5.07-2.92-4.8-5.06.7-2,3.55-3.11,6.55-2.41s5.07,2.92,4.8,5.06C21.54,17.07,18.7,18.14,15.7,17.44Z" transform="translate(0 -6.37)"/><path class="cls-15" d="M16.66,7.08c1.89.16-1.21,3-2.85.09A12.86,12.86,0,0,1,16.66,7.08Z" transform="translate(0 -6.37)"/><path class="cls-9" d="M11.91,18.38l-.28-.17a11,11,0,0,1-2-1.68A6.51,6.51,0,0,1,8.05,14a4.45,4.45,0,0,1-.19-1,1.93,1.93,0,0,1,0-.24h0c0-.12,0-.25,0-.38s0,0,0-.06v-.06A4.68,4.68,0,0,1,8,11.7H8c0-.14.06-.28.1-.41A5.32,5.32,0,0,1,9,9.48l0,0a4.85,4.85,0,0,1,1.66-1.38h0A8.87,8.87,0,0,0,9.14,9.77a5.12,5.12,0,0,0-.69,1.61,6.17,6.17,0,0,0-.09.62v.17a5.49,5.49,0,0,0,.33,2A10.33,10.33,0,0,0,11.91,18.38Z" transform="translate(0 -6.37)"/><path class="cls-16" d="M13.14,9.67S9.56,12,11.72,15C11.72,15,9,11.62,13.14,9.67Z" transform="translate(0 -6.37)"/><path class="cls-17" d="M19.37,10c-1-.1,1.89,1.34,2.24,4.07s-4.23,3.62-4.23,3.62,4.18.45,5-3C23,11.92,19.37,10,19.37,10Z" transform="translate(0 -6.37)"/><path class="cls-18" d="M21,21.23l.07,0Z" transform="translate(0 -6.37)"/><path class="cls-18" d="M21.11,21.2a5.53,5.53,0,0,0,1.31-.83h0a6.9,6.9,0,0,0,2-2.81.14.14,0,0,0,0-.06c.08-.19.15-.4.22-.62,0,0,0,0,0-.06a.24.24,0,0,0,0-.08A8.57,8.57,0,0,0,25,15.66l0-.26a6.84,6.84,0,0,0-1.25-4.7,7.57,7.57,0,0,0-1.58-1.65,7.24,7.24,0,0,1,3.19,4.64v0a2.91,2.91,0,0,1,0,.31.45.45,0,0,0,0,.11v.5a4.86,4.86,0,0,1-.12.84,4.63,4.63,0,0,1-.25.77h0l-.44,1.34h0A5.53,5.53,0,0,1,21.11,21.2Z" transform="translate(0 -6.37)"/><path class="cls-18" d="M9.19,18.42a7.79,7.79,0,0,1-.52-.65l0,0a4.76,4.76,0,0,1-.56-1,0,0,0,0,1,0,0h0a5,5,0,0,1-.41-3v0l.2-1.35A4.61,4.61,0,0,1,8,11.43a.65.65,0,0,1,0-.13v0H8a4.91,4.91,0,0,1,.8-1.6L9,9.48l0,0a4.85,4.85,0,0,1,1.66-1.38h0a7.93,7.93,0,0,1,1.68-.71,9.64,9.64,0,0,0-3.2,2.42,6.17,6.17,0,0,0-.94,1.55,5.28,5.28,0,0,0-.34,1.3h0v.12h0a2.19,2.19,0,0,0,0,.36v.05a7.56,7.56,0,0,0,0,.82,8.5,8.5,0,0,0,1.29,4.3h0Z" transform="translate(0 -6.37)"/><path class="cls-28" d="M18.08,27.1a12,12,0,0,1-3.16-1.23c-.3-.18-.59-.36-.87-.56h0A8.84,8.84,0,0,1,12.55,24l0,0a7.65,7.65,0,0,1-.51-.65l0,0a6.47,6.47,0,0,1-.56-1l0,0h0A5,5,0,0,1,11,19.21v0l0-.14.06-.21,0-.11,0-.1a.56.56,0,0,0,0-.12l0-.06a4.55,4.55,0,0,1,.48-.93,5.56,5.56,0,0,1,.42-.54c1.76-2,5.2-2.87,8.79-2a11.07,11.07,0,0,1,1.77.56c2.76,1.11,4.73,3.14,5.25,5.31a4.58,4.58,0,0,1,.12,1.47v.08c0,.2,0,.39-.09.59v0l0,.11a5.53,5.53,0,0,1-3.47,3.61l-.08,0,0,0A10.68,10.68,0,0,1,18.08,27.1Z" transform="translate(0 -6.37)"/><polygon class="cls-29" points="10.97 13.09 11.01 12.84 11.01 12.82 11.21 11.47 11.22 11.44 11.3 10.85 11.31 10.84 11.37 10.45 11.37 10.42 11.4 10.43 11.55 10.47 11.8 10.53 12.13 10.61 21.99 13.01 27.94 14.45 28.33 14.55 28.61 14.62 28.63 14.62 28.37 15.39 28.37 15.39 27.93 16.74 27.93 16.73 27.81 16.71 27.77 16.7 27.61 16.67 27.54 16.65 27.52 16.65 23.3 15.74 12.04 13.32 11.46 13.2 11.4 13.18 11.38 13.18 11.15 13.13 11.04 13.11 10.97 13.09"/><path class="cls-30" d="M18.53,25.19a11.73,11.73,0,0,1-3.25-1.28h0s-.14-.07-.29-.17l-.22-.14a9.8,9.8,0,0,1-1.81-1.54,2.25,2.25,0,0,1-.21-.24,6.65,6.65,0,0,1-1.27-2.24,5,5,0,0,1-.23-1.12c0-.11,0-.21,0-.31h0v-.29a4.63,4.63,0,0,1,.12-.89l0-.13v0a4.88,4.88,0,0,1,.79-1.6L12.3,15l0,0A6.29,6.29,0,0,1,14,13.59h0a8.5,8.5,0,0,1,1.68-.72h0a11.19,11.19,0,0,1,5.74-.1,11.58,11.58,0,0,1,4,1.72l.12.08a7.29,7.29,0,0,1,3.19,4.65s0,0,0,0,0,.2,0,.3a1,1,0,0,1,0,.17,2.62,2.62,0,0,1,0,.28c0,.06,0,.11,0,.17a4.83,4.83,0,0,1-.11.84,4.64,4.64,0,0,1-.26.77h0a4.25,4.25,0,0,1-.31.6l0,0-.14.22h0c-.1.14-.2.27-.31.4C25.81,25.11,22.24,26.05,18.53,25.19Z" transform="translate(0 -6.37)"/><path class="cls-9" d="M18,12.56c-.61.13.68,4.85.9,6.94s-1.2,4.94-1,5.26,4.13.93,6.23.25.15-1.1-.5-2.43-1.2-6.31-.85-7.27.95-1.14,1-1.52S20.92,11.91,18,12.56Z" transform="translate(0 -6.37)"/><path class="cls-31" d="M19.05,23c-3-.7-5.07-2.92-4.8-5.06,0-.1,0-.21.05-.31.52-2.23,3.49-3.45,6.64-2.71S26.2,18,25.68,20.25a1.71,1.71,0,0,1-.09.3C24.89,22.58,22.05,23.66,19.05,23Z" transform="translate(0 -6.37)"/><path class="cls-14" d="M19.05,23c-3-.7-5.07-2.92-4.8-5.06.7-2,3.54-3.11,6.54-2.41s5.07,2.92,4.8,5.06C24.89,22.58,22.05,23.66,19.05,23Z" transform="translate(0 -6.37)"/><path class="cls-15" d="M20,12.6c1.89.16-1.21,3-2.85.09A12.81,12.81,0,0,1,20,12.6Z" transform="translate(0 -6.37)"/><path class="cls-9" d="M15.26,23.9s-.14-.07-.29-.17a11.31,11.31,0,0,1-2-1.68,6.51,6.51,0,0,1-1.54-2.5,5,5,0,0,1-.2-1v-.24s0,0,0,0a2.44,2.44,0,0,1,0-.38.2.2,0,0,1,0-.07v0c0-.19,0-.37.08-.54h0c0-.14.06-.28.09-.41a5.23,5.23,0,0,1,.9-1.8l0,0A4.89,4.89,0,0,1,14,13.59h0a8.87,8.87,0,0,0-1.53,1.71,5,5,0,0,0-.69,1.61,6.17,6.17,0,0,0-.09.62c0,.06,0,.12,0,.17a5.72,5.72,0,0,0,.34,2A10.42,10.42,0,0,0,15.26,23.9Z" transform="translate(0 -6.37)"/><path class="cls-16" d="M16.49,15.19s-3.58,2.34-1.42,5.36C15.07,20.55,12.3,17.14,16.49,15.19Z" transform="translate(0 -6.37)"/><path class="cls-17" d="M22.71,15.48c-1-.1,1.9,1.34,2.25,4.07s-4.24,3.62-4.24,3.62,4.19.45,5-3C26.36,17.44,22.71,15.48,22.71,15.48Z" transform="translate(0 -6.37)"/><path class="cls-18" d="M24.38,26.75l.08,0Z" transform="translate(0 -6.37)"/><path class="cls-18" d="M24.46,26.72a5.53,5.53,0,0,0,1.31-.83h0a7,7,0,0,0,2-2.81s0,0,0-.06A5.64,5.64,0,0,0,28,22.4a.14.14,0,0,0,0-.06.24.24,0,0,0,0-.08,7.11,7.11,0,0,0,.22-1.08,1.15,1.15,0,0,0,0-.26,6.83,6.83,0,0,0-1.24-4.7,7.7,7.7,0,0,0-1.58-1.66,7.29,7.29,0,0,1,3.19,4.65s0,0,0,0,0,.2,0,.3a.49.49,0,0,1,0,.12v.05a2.62,2.62,0,0,1,0,.28c0,.06,0,.11,0,.17a4.83,4.83,0,0,1-.11.84,4.64,4.64,0,0,1-.26.77h0l-.44,1.34h0A5.53,5.53,0,0,1,24.46,26.72Z" transform="translate(0 -6.37)"/><path class="cls-18" d="M12.53,23.94a7.65,7.65,0,0,1-.51-.65l0,0a4,4,0,0,1-.56-1l0,0h0A5,5,0,0,1,11,19.21v0l.2-1.35a4.63,4.63,0,0,1,.12-.89l0-.13v0h0a4.88,4.88,0,0,1,.79-1.6L12.3,15l0,0A4.89,4.89,0,0,1,14,13.59h0a8.5,8.5,0,0,1,1.68-.72,9.64,9.64,0,0,0-3.2,2.43,6.17,6.17,0,0,0-.94,1.55,5.32,5.32,0,0,0-.34,1.29h0v.12s0,0,0,0,0,.24,0,.36v.05a7.54,7.54,0,0,0,0,.82,8.52,8.52,0,0,0,1.28,4.3h0Z" transform="translate(0 -6.37)"/><path class="cls-32" d="M32.69,23.39a12,12,0,0,1-3.37.34c-.35,0-.7-.05-1-.1h0a10,10,0,0,1-2-.51h0c-.26-.11-.51-.22-.75-.35h0a7,7,0,0,1-1-.61l0,0h0a5,5,0,0,1-1.76-2.53v0a.65.65,0,0,0,0-.13c0-.08,0-.15,0-.22l0-.11s0-.07,0-.11,0-.08,0-.12a.2.2,0,0,0,0-.07,5.17,5.17,0,0,1,0-1,5.43,5.43,0,0,1,.13-.68c.66-2.56,3.32-4.92,6.89-5.81A10.94,10.94,0,0,1,31.5,11c3-.27,5.64.63,7.1,2.33a4.94,4.94,0,0,1,.78,1.25l0,0s0,0,0,0a5.27,5.27,0,0,1,.19.56v0s0,.07,0,.11a5.53,5.53,0,0,1-1.44,4.8l0,.06s0,0,0,0A10.72,10.72,0,0,1,32.69,23.39Z" transform="translate(0 -6.37)"/><polygon class="cls-33" points="22.88 13.46 22.8 13.22 22.79 13.2 22.35 11.91 22.34 11.89 22.15 11.31 22.15 11.31 22.02 10.93 22.01 10.91 22.05 10.9 22.2 10.86 22.45 10.8 22.78 10.72 32.65 8.36 38.6 6.93 38.99 6.84 39.27 6.77 39.29 6.77 39.41 7.57 39.41 7.57 39.63 8.97 39.63 8.97 39.51 9 39.48 9.01 39.32 9.05 39.24 9.07 39.22 9.08 35.05 10.2 23.93 13.18 23.36 13.34 23.3 13.35 23.28 13.36 23.05 13.42 22.95 13.44 22.88 13.46"/><path class="cls-34" d="M32.22,21.48a11.73,11.73,0,0,1-3.48.35h0l-.33,0-.26,0a9.37,9.37,0,0,1-2.32-.54c-.1,0-.2-.07-.3-.12a6.5,6.5,0,0,1-2.15-1.42,4.68,4.68,0,0,1-.72-.89l-.15-.26h0a1,1,0,0,1-.12-.23l0,0a6,6,0,0,1-.3-.84l0-.14v0a4.69,4.69,0,0,1,0-1.79,1.57,1.57,0,0,1,0-.23.09.09,0,0,1,0,0,6,6,0,0,1,.85-2h0a8,8,0,0,1,1.16-1.41h0A11.16,11.16,0,0,1,29.13,9.1a11.83,11.83,0,0,1,4.31-.28l.14,0a7.25,7.25,0,0,1,5,2.69h0c.07.08.12.17.18.25s.05.1.08.14.09.17.13.26a1,1,0,0,1,.07.15,4.23,4.23,0,0,1,.29.8,5.52,5.52,0,0,1,.12.8h0a4,4,0,0,1,0,.69v0l0,.26v0a4.21,4.21,0,0,1-.09.49C38.66,18.09,35.92,20.56,32.22,21.48Z" transform="translate(0 -6.37)"/><path class="cls-9" d="M26,10.48c-.48.39,2.82,4,4,5.76s1.19,4.94,1.52,5.14,4.1-1.06,5.66-2.62-.37-1.05-1.56-1.94-3.95-5.07-4.07-6.07.32-1.45.17-1.81S28.29,8.57,26,10.48Z" transform="translate(0 -6.37)"/><path class="cls-35" d="M31.66,19.26c-3,.74-5.84-.29-6.58-2.31a1.71,1.71,0,0,1-.09-.3c-.56-2.23,1.53-4.66,4.66-5.44s6.12.39,6.68,2.61a2.87,2.87,0,0,1,.05.31C36.69,16.26,34.65,18.51,31.66,19.26Z" transform="translate(0 -6.37)"/><path class="cls-14" d="M31.66,19.26c-3,.74-5.84-.29-6.58-2.31-.3-2.14,1.73-4.39,4.72-5.13s5.85.28,6.58,2.31C36.69,16.26,34.65,18.51,31.66,19.26Z" transform="translate(0 -6.37)"/><path class="cls-15" d="M27.79,9.6c1.75-.72.28,3.2-2.5,1.39A12.57,12.57,0,0,1,27.79,9.6Z" transform="translate(0 -6.37)"/><path class="cls-9" d="M28.72,21.83l-.33,0a11,11,0,0,1-2.58-.57,6.5,6.5,0,0,1-2.51-1.52,4.94,4.94,0,0,1-.65-.84,2.12,2.12,0,0,1-.11-.21h0a2.84,2.84,0,0,1-.16-.35l0,0,0-.05c-.06-.18-.12-.36-.17-.53h0c0-.14-.07-.28-.1-.41a5.24,5.24,0,0,1,0-2,.09.09,0,0,1,0,0,4.9,4.9,0,0,1,.85-2h0a8.52,8.52,0,0,0-.58,2.22,4.76,4.76,0,0,0,.12,1.74,4.69,4.69,0,0,0,.2.6l.07.16a5.63,5.63,0,0,0,1.21,1.62A10.38,10.38,0,0,0,28.72,21.83Z" transform="translate(0 -6.37)"/><path class="cls-16" d="M25.84,13.51S23.72,17.23,27,18.93C27,18.93,23,17.16,25.84,13.51Z" transform="translate(0 -6.37)"/><path class="cls-17" d="M31.51,10.93c-.93.37,2.3.33,3.85,2.6s-2.11,5.15-2.11,5.15,3.93-1.5,3.07-5C35.65,11,31.51,10.93,31.51,10.93Z" transform="translate(0 -6.37)"/><path class="cls-18" d="M38.14,20.2l0-.06Z" transform="translate(0 -6.37)"/><path class="cls-18" d="M38.19,20.14A5.63,5.63,0,0,0,39,18.8h0a6.77,6.77,0,0,0,.53-3.43v-.06c0-.21-.06-.43-.1-.65,0,0,0,0,0-.06s0-.06,0-.08a7.86,7.86,0,0,0-.3-1.07,2.34,2.34,0,0,0-.09-.24A6.73,6.73,0,0,0,35.74,9.6a7.78,7.78,0,0,0-2.16-.76,7.25,7.25,0,0,1,5,2.69h0c.07.08.12.17.18.25l.06.1a.05.05,0,0,0,0,0c.05.09.09.17.13.26a1,1,0,0,1,.07.15,4.23,4.23,0,0,1,.29.8,5.52,5.52,0,0,1,.12.8h0l.22,1.4h0A5.53,5.53,0,0,1,38.19,20.14Z" transform="translate(0 -6.37)"/><path class="cls-18" d="M26.31,23.11c-.26-.11-.51-.22-.75-.35h0a4.72,4.72,0,0,1-1-.61l0,0h0a5,5,0,0,1-1.76-2.53v0l-.44-1.29a6,6,0,0,1-.3-.84l0-.14v0h0a4.69,4.69,0,0,1,0-1.79,1.57,1.57,0,0,1,0-.23.09.09,0,0,1,0,0,4.9,4.9,0,0,1,.85-2h0a8,8,0,0,1,1.16-1.41,9.69,9.69,0,0,0-1.73,3.62,5.66,5.66,0,0,0-.13,1.8,4.35,4.35,0,0,0,.29,1.31h0l0,.11h0c0,.11.08.22.13.33l0,.06c.11.25.24.5.36.73A8.41,8.41,0,0,0,26.16,23h0Z" transform="translate(0 -6.37)"/><path class="cls-36" d="M30.78,21a11.89,11.89,0,0,1-3.06-1.47c-.29-.2-.57-.41-.83-.63h0a8.66,8.66,0,0,1-1.39-1.46l0,0a6.36,6.36,0,0,1-.46-.69l0,0a6.76,6.76,0,0,1-.48-1l0,0h0a5.06,5.06,0,0,1-.18-3.07v0c0-.05,0-.09,0-.14s.05-.14.07-.21l0-.1,0-.1a.54.54,0,0,0,.05-.11l0-.07a5,5,0,0,1,.55-.88,5.57,5.57,0,0,1,.46-.51C27.52,8.59,31,8,34.53,9.08a11.55,11.55,0,0,1,1.73.69c2.66,1.32,4.47,3.49,4.82,5.7a4.84,4.84,0,0,1,0,1.47v0s0,0,0,0c0,.19-.08.38-.13.57l0,0,0,.11a5.58,5.58,0,0,1-3.74,3.34l-.08,0h0A10.61,10.61,0,0,1,30.78,21Z" transform="translate(0 -6.37)"/><polygon class="cls-37" points="24.27 6.45 24.32 6.2 24.33 6.18 24.63 4.85 24.64 4.82 24.77 4.24 24.77 4.23 24.86 3.84 24.87 3.81 24.9 3.83 25.05 3.87 25.29 3.95 25.61 4.06 35.26 7.2 41.08 9.1 41.47 9.23 41.74 9.32 41.76 9.32 41.44 10.07 41.44 10.07 40.9 11.38 40.89 11.38 40.78 11.34 40.75 11.33 40.59 11.29 40.51 11.26 40.49 11.26 36.36 10.03 25.32 6.76 24.74 6.59 24.69 6.57 24.66 6.57 24.44 6.5 24.34 6.47 24.27 6.45"/><path class="cls-38" d="M31.37,19.1a12,12,0,0,1-3.15-1.52h0l-.28-.19-.21-.16A9.55,9.55,0,0,1,26,15.55a2.48,2.48,0,0,1-.19-.26A6.7,6.7,0,0,1,24.74,13a5.55,5.55,0,0,1-.14-1.14c0-.1,0-.2,0-.31h0a2.11,2.11,0,0,1,0-.25v0a5.54,5.54,0,0,1,.19-.88l0-.13v0a4.9,4.9,0,0,1,.91-1.54l.16-.18,0,0a6.29,6.29,0,0,1,1.76-1.25h0a8.5,8.5,0,0,1,1.72-.59h0a11.24,11.24,0,0,1,5.73.33A11.88,11.88,0,0,1,39,9l.1.1A7.21,7.21,0,0,1,42,13.92v0c0,.1,0,.2,0,.31v.16a2.83,2.83,0,0,1,0,.29.88.88,0,0,1,0,.16,4.7,4.7,0,0,1-.17.83,5,5,0,0,1-.32.75h0a3.58,3.58,0,0,1-.36.59s0,0,0,0l-.17.21h0a3.9,3.9,0,0,1-.33.38C38.63,19.58,35,20.25,31.37,19.1Z" transform="translate(0 -6.37)"/><path class="cls-9" d="M31.82,6.47c-.62.09.3,4.89.36,7s-1.57,4.83-1.39,5.17,4.05,1.25,6.19.73.24-1.08-.31-2.47-.71-6.38-.29-7.3,1-1.07,1.08-1.45S34.77,6.05,31.82,6.47Z" transform="translate(0 -6.37)"/><path class="cls-39" d="M32.06,16.92c-2.94-.93-4.84-3.3-4.41-5.41,0-.1.05-.2.08-.3C28.42,9,31.47,8,34.55,9s5,3.53,4.33,5.71c0,.1-.07.2-.12.3C37.9,17,35,17.85,32.06,16.92Z" transform="translate(0 -6.37)"/><path class="cls-14" d="M32.06,16.92c-2.94-.93-4.84-3.3-4.41-5.41.86-2,3.78-2.83,6.72-1.91S39.2,12.9,38.76,15C37.9,17,35,17.85,32.06,16.92Z" transform="translate(0 -6.37)"/><path class="cls-15" d="M33.8,6.66C35.68,7,32.37,9.53,31,6.54A12.89,12.89,0,0,1,33.8,6.66Z" transform="translate(0 -6.37)"/><path class="cls-9" d="M28.21,17.57l-.28-.19A11.15,11.15,0,0,1,26,15.55a6.49,6.49,0,0,1-1.34-2.61,4.57,4.57,0,0,1-.12-1c0-.08,0-.16,0-.24h0c0-.13,0-.26.05-.38a.17.17,0,0,1,0-.07v0a5.23,5.23,0,0,1,.12-.54h0c0-.14.09-.27.13-.4a5.23,5.23,0,0,1,1-1.73l0,0a5,5,0,0,1,1.76-1.25h0a9.28,9.28,0,0,0-1.66,1.6,4.89,4.89,0,0,0-.81,1.54,4.29,4.29,0,0,0-.14.62,1,1,0,0,1,0,.17,5.44,5.44,0,0,0,.19,2A10.3,10.3,0,0,0,28.21,17.57Z" transform="translate(0 -6.37)"/><path class="cls-16" d="M30.1,9S26.35,11,28.27,14.22C28.27,14.22,25.77,10.6,30.1,9Z" transform="translate(0 -6.37)"/><path class="cls-17" d="M36.28,9.75c-1-.18,1.79,1.47,1.93,4.22s-4.5,3.29-4.5,3.29,4.14.77,5.21-2.63C39.76,12,36.28,9.75,36.28,9.75Z" transform="translate(0 -6.37)"/><path class="cls-18" d="M37.08,21.11l.08,0Z" transform="translate(0 -6.37)"/><path class="cls-18" d="M37.16,21.09a6.26,6.26,0,0,0,1.37-.73h0a6.93,6.93,0,0,0,2.24-2.65l0-.05c.09-.2.18-.4.26-.61a.14.14,0,0,1,0-.06.19.19,0,0,0,0-.08,7.76,7.76,0,0,0,.31-1.06c0-.08,0-.17,0-.25a6.88,6.88,0,0,0-.88-4.78,7.57,7.57,0,0,0-1.46-1.77A7.21,7.21,0,0,1,42,13.92v0c0,.1,0,.2,0,.31v.16a2.83,2.83,0,0,1,0,.29.88.88,0,0,1,0,.16,4.7,4.7,0,0,1-.17.83,5,5,0,0,1-.32.75h0l-.54,1.31h0A5.58,5.58,0,0,1,37.16,21.09Z" transform="translate(0 -6.37)"/><path class="cls-18" d="M25.48,17.4a6.36,6.36,0,0,1-.46-.69l0,0a4,4,0,0,1-.48-1l0,0h0a5.06,5.06,0,0,1-.18-3.07v0l.3-1.33a5.54,5.54,0,0,1,.19-.88l0-.13v0h0a4.9,4.9,0,0,1,.91-1.54l.16-.18,0,0a5,5,0,0,1,1.76-1.25h0a8.5,8.5,0,0,1,1.72-.59A9.68,9.68,0,0,0,26.1,8.78a6,6,0,0,0-1.05,1.46,4.9,4.9,0,0,0-.44,1.27h0l0,.13h0l-.06.35v.06c0,.27-.06.55-.07.81a8.4,8.4,0,0,0,1,4.38h0Z" transform="translate(0 -6.37)"/><path class="cls-15" d="M34.82,19.45c-1.61-.2,2-2.68,3.49-2.76s1.21,1.09.92,1.58S36.51,19.67,34.82,19.45Z" transform="translate(0 -6.37)"/><path class="cls-40" d="M24.22,14.56A21.68,21.68,0,0,0,31,19,23.86,23.86,0,0,0,37.43,21s-2,3.71-5.86,4.06-4-1.48-4-1.48-7.22,1.42-10.39-3,7.45-9,7.45-9A7.23,7.23,0,0,0,24.22,14.56Z" transform="translate(0 -6.37)"/></g><path class="cls-41" d="M15.1,37.54c-1.56-1.15-2.87,2.59-1.3,3.67S16.66,38.69,15.1,37.54Z" transform="translate(0 -6.37)"/><path class="cls-41" d="M27.44,29.25c-1.9-3.08,5.07-2.32,10.06-4.5S37.53,29.31,27.44,29.25Z" transform="translate(0 -6.37)"/><path class="cls-41" d="M43.15,15.4c-.68.15-.08,2.46-.84,4.66S46,20.7,46,18.59,43.15,15.4,43.15,15.4Z" transform="translate(0 -6.37)"/></g></g></g></svg>