<svg xmlns="http://www.w3.org/2000/svg" xmlns:xlink="http://www.w3.org/1999/xlink" viewBox="0 0 1920 1080"><defs><clipPath id="clip-path"><rect x="-120" width="2160" height="1080" style="fill:none"/></clipPath><linearGradient id="Áåçûìÿííûé_ãðàäèåíò_167" x1="960" y1="674.91" x2="960" gradientUnits="userSpaceOnUse"><stop offset="0" stop-color="#1f1d37"/><stop offset="1" stop-color="#12071b"/></linearGradient><linearGradient id="Áåçûìÿííûé_ãðàäèåíò_161" x1="1521.35" y1="631.18" x2="1521.35" gradientUnits="userSpaceOnUse"><stop offset="0" stop-color="#c1acb9"/><stop offset="1" stop-color="#775477"/></linearGradient><linearGradient id="Áåçûìÿííûé_ãðàäèåíò_175" x1="1087.07" y1="647.8" x2="1087.07" gradientUnits="userSpaceOnUse"><stop offset="0" stop-color="#1e2130"/><stop offset="1" stop-color="#1b1226"/></linearGradient><linearGradient id="Áåçûìÿííûé_ãðàäèåíò_150" x1="1215.78" y1="647.8" x2="1215.78" gradientUnits="userSpaceOnUse"><stop offset="0" stop-color="#9d7c90"/><stop offset="1" stop-color="#775477"/></linearGradient><linearGradient id="Áåçûìÿííûé_ãðàäèåíò_150-2" x1="1054.57" y1="606.36" x2="1054.57" y2="359.44" xlink:href="#Áåçûìÿííûé_ãðàäèåíò_150"/><linearGradient id="Áåçûìÿííûé_ãðàäèåíò_150-3" x1="1151.02" y1="368.66" x2="1151.02" y2="0" xlink:href="#Áåçûìÿííûé_ãðàäèåíò_150"/><linearGradient id="Áåçûìÿííûé_ãðàäèåíò_150-4" x1="1340.27" y1="223.7" x2="1340.27" y2="121.96" xlink:href="#Áåçûìÿííûé_ãðàäèåíò_150"/><linearGradient id="Áåçûìÿííûé_ãðàäèåíò_150-5" x1="991.66" y1="647.8" x2="991.66" y2="591.53" xlink:href="#Áåçûìÿííûé_ãðàäèåíò_150"/><linearGradient id="Áåçûìÿííûé_ãðàäèåíò_150-6" x1="881.42" y1="647.8" x2="881.42" y2="540" xlink:href="#Áåçûìÿííûé_ãðàäèåíò_150"/><linearGradient id="Áåçûìÿííûé_ãðàäèåíò_150-7" x1="630.06" y1="647.8" x2="630.06" y2="-6.51" xlink:href="#Áåçûìÿííûé_ãðàäèåíò_150"/><linearGradient id="Áåçûìÿííûé_ãðàäèåíò_150-8" x1="935.47" y1="520.93" x2="935.47" y2="0" xlink:href="#Áåçûìÿííûé_ãðàäèåíò_150"/><linearGradient id="Áåçûìÿííûé_ãðàäèåíò_150-9" x1="1049.38" y1="245.19" x2="1049.38" y2="-6.51" xlink:href="#Áåçûìÿííûé_ãðàäèåíò_150"/><linearGradient id="Áåçûìÿííûé_ãðàäèåíò_150-10" x1="853.19" y1="647.8" x2="853.19" y2="68.18" xlink:href="#Áåçûìÿííûé_ãðàäèåíò_150"/><linearGradient id="Áåçûìÿííûé_ãðàäèåíò_229" x1="1375.6" y1="570.39" x2="1375.6" gradientUnits="userSpaceOnUse"><stop offset="0" stop-color="#458ec7"/><stop offset="1" stop-color="#253481"/></linearGradient><linearGradient id="Áåçûìÿííûé_ãðàäèåíò_226" x1="1377.99" y1="570.39" x2="1377.99" gradientUnits="userSpaceOnUse"><stop offset="0" stop-color="#c7e0ff"/><stop offset="1" stop-color="#7968a4"/></linearGradient><linearGradient id="Áåçûìÿííûé_ãðàäèåíò_183" x1="715.31" y1="821.23" x2="715.31" gradientUnits="userSpaceOnUse"><stop offset="0" stop-color="#40394f"/><stop offset="1" stop-color="#241e30"/></linearGradient><linearGradient id="Áåçûìÿííûé_ãðàäèåíò_150-11" x1="790.93" y1="821.23" x2="790.93" y2="0" xlink:href="#Áåçûìÿííûé_ãðàäèåíò_150"/><linearGradient id="Áåçûìÿííûé_ãðàäèåíò_150-12" x1="338.78" y1="821.23" x2="338.78" y2="0" xlink:href="#Áåçûìÿííûé_ãðàäèåíò_150"/><linearGradient id="Áåçûìÿííûé_ãðàäèåíò_150-13" x1="426.97" y1="821.23" x2="426.97" y2="0" xlink:href="#Áåçûìÿííûé_ãðàäèåíò_150"/><linearGradient id="Áåçûìÿííûé_ãðàäèåíò_150-14" x1="619.8" y1="821.23" x2="619.8" y2="482.9" xlink:href="#Áåçûìÿííûé_ãðàäèåíò_150"/><linearGradient id="Áåçûìÿííûé_ãðàäèåíò_150-15" x1="702.09" y1="821.23" x2="702.09" y2="528.69" xlink:href="#Áåçûìÿííûé_ãðàäèåíò_150"/><linearGradient id="Áåçûìÿííûé_ãðàäèåíò_150-16" x1="507.52" y1="821.23" x2="507.52" y2="495.18" xlink:href="#Áåçûìÿííûé_ãðàäèåíò_150"/><linearGradient id="Áåçûìÿííûé_ãðàäèåíò_150-17" x1="420.66" y1="633.47" x2="420.66" y2="409.91" xlink:href="#Áåçûìÿííûé_ãðàäèåíò_150"/><linearGradient id="Áåçûìÿííûé_ãðàäèåíò_194" x1="220.11" y1="1001.98" x2="220.11" gradientUnits="userSpaceOnUse"><stop offset="0" stop-color="#4a4d58"/><stop offset="1" stop-color="#2c1b2d"/></linearGradient><linearGradient id="Áåçûìÿííûé_ãðàäèåíò_150-18" x1="365.4" y1="1001.98" x2="365.4" y2="-6.51" xlink:href="#Áåçûìÿííûé_ãðàäèåíò_150"/><linearGradient id="Áåçûìÿííûé_ãðàäèåíò_150-19" x1="314.75" y1="409.91" x2="314.75" y2="0" xlink:href="#Áåçûìÿííûé_ãðàäèåíò_150"/><linearGradient id="Áåçûìÿííûé_ãðàäèåíò_150-20" x1="43.34" y1="983.07" x2="43.34" y2="0" xlink:href="#Áåçûìÿííûé_ãðàäèåíò_150"/><linearGradient id="Áåçûìÿííûé_ãðàäèåíò_150-21" x1="238.05" y1="626.78" x2="238.05" y2="-6.51" xlink:href="#Áåçûìÿííûé_ãðàäèåíò_150"/><linearGradient id="Áåçûìÿííûé_ãðàäèåíò_150-22" x1="423.65" y1="1001.98" x2="423.65" y2="409.91" xlink:href="#Áåçûìÿííûé_ãðàäèåíò_150"/><linearGradient id="Áåçûìÿííûé_ãðàäèåíò_150-23" x1="104.3" y1="980.15" x2="104.3" y2="232.91" xlink:href="#Áåçûìÿííûé_ãðàäèåíò_150"/><linearGradient id="Áåçûìÿííûé_ãðàäèåíò_150-24" x1="162.69" y1="983.07" x2="162.69" y2="449.79" xlink:href="#Áåçûìÿííûé_ãðàäèåíò_150"/><linearGradient id="Áåçûìÿííûé_ãðàäèåíò_150-25" x1="260.01" y1="987.1" x2="260.01" y2="671.85" xlink:href="#Áåçûìÿííûé_ãðàäèåíò_150"/><linearGradient id="Áåçûìÿííûé_ãðàäèåíò_199" x1="1222.36" y1="1080" x2="1222.36" y2="606.36" gradientUnits="userSpaceOnUse"><stop offset="0" stop-color="#38b3ba"/><stop offset="0.65" stop-color="#006796"/><stop offset="1" stop-color="#403e83"/></linearGradient><linearGradient id="Áåçûìÿííûé_ãðàäèåíò_240" x1="896.72" y1="858.06" x2="896.72" y2="800.29" gradientUnits="userSpaceOnUse"><stop offset="0.2"/><stop offset="1" stop-color="#3b5972"/></linearGradient><linearGradient id="Áåçûìÿííûé_ãðàäèåíò_240-2" x1="662.3" y1="826.49" x2="662.3" y2="737.71" xlink:href="#Áåçûìÿííûé_ãðàäèåíò_240"/><linearGradient id="Áåçûìÿííûé_ãðàäèåíò_240-3" x1="791.61" y1="770.62" x2="791.61" y2="726.7" xlink:href="#Áåçûìÿííûé_ãðàäèåíò_240"/><linearGradient id="Áåçûìÿííûé_ãðàäèåíò_240-4" x1="1018.57" y1="805.03" x2="1018.57" y2="788.23" xlink:href="#Áåçûìÿííûé_ãðàäèåíò_240"/><linearGradient id="Áåçûìÿííûé_ãðàäèåíò_240-5" x1="599.84" y1="903.84" x2="599.84" y2="864.2" xlink:href="#Áåçûìÿííûé_ãðàäèåíò_240"/><linearGradient id="Áåçûìÿííûé_ãðàäèåíò_240-6" x1="834.74" y1="980.97" x2="834.74" y2="891.84" xlink:href="#Áåçûìÿííûé_ãðàäèåíò_240"/><linearGradient id="Áåçûìÿííûé_ãðàäèåíò_240-7" x1="1134.22" y1="1080" x2="1134.22" y2="913.27" xlink:href="#Áåçûìÿííûé_ãðàäèåíò_240"/><linearGradient id="Áåçûìÿííûé_ãðàäèåíò_240-8" x1="1142.71" y1="921.13" x2="1142.71" y2="890.12" xlink:href="#Áåçûìÿííûé_ãðàäèåíò_240"/><linearGradient id="Áåçûìÿííûé_ãðàäèåíò_240-9" x1="1368.29" y1="898.72" x2="1368.29" y2="886.95" xlink:href="#Áåçûìÿííûé_ãðàäèåíò_240"/><linearGradient id="Áåçûìÿííûé_ãðàäèåíò_240-10" x1="1471.85" y1="984.25" x2="1471.85" y2="923.5" xlink:href="#Áåçûìÿííûé_ãðàäèåíò_240"/><linearGradient id="Áåçûìÿííûé_ãðàäèåíò_251" x1="1384.74" y1="927.17" x2="1400.23" y2="847.5" gradientUnits="userSpaceOnUse"><stop offset="0" stop-color="#fff"/><stop offset="1" stop-color="#775477"/></linearGradient><linearGradient id="Áåçûìÿííûé_ãðàäèåíò_249" x1="813.05" y1="1080" x2="813.05" y2="647.8" gradientUnits="userSpaceOnUse"><stop offset="0" stop-color="#fff"/><stop offset="1" stop-color="#ab96ab"/></linearGradient><linearGradient id="Áåçûìÿííûé_ãðàäèåíò_249-2" x1="632.81" x2="632.81" y2="718.4" xlink:href="#Áåçûìÿííûé_ãðàäèåíò_249"/><linearGradient id="Áåçûìÿííûé_ãðàäèåíò_150-26" x1="1500.28" y1="711.82" x2="1531" y2="553.8" xlink:href="#Áåçûìÿííûé_ãðàäèåíò_150"/><linearGradient id="Áåçûìÿííûé_ãðàäèåíò_251-2" x1="1436.24" y1="714.88" x2="1440.25" y2="694.26" xlink:href="#Áåçûìÿííûé_ãðàäèåíò_251"/><linearGradient id="Áåçûìÿííûé_ãðàäèåíò_12" x1="710.47" y1="540" x2="710.47" y2="18.39" gradientUnits="userSpaceOnUse"><stop offset="0" stop-color="#4f525d"/><stop offset="1" stop-color="#402738"/></linearGradient><linearGradient id="Áåçûìÿííûé_ãðàäèåíò_81" x1="1540.43" y1="1080" x2="1540.43" y2="647.81" gradientUnits="userSpaceOnUse"><stop offset="0" stop-color="#a1f4ff"/><stop offset="1" stop-color="#596abd"/></linearGradient><linearGradient id="Áåçûìÿííûé_ãðàäèåíò_216" x1="1548.17" y1="701.51" x2="1548.17" y2="668.76" gradientUnits="userSpaceOnUse"><stop offset="0" stop-color="#4557ac"/><stop offset="1" stop-color="#4a3b81"/></linearGradient><linearGradient id="Áåçûìÿííûé_ãðàäèåíò_218" x1="1336.84" y1="852.07" x2="1336.84" y2="755.74" gradientUnits="userSpaceOnUse"><stop offset="0" stop-color="#4568c7"/><stop offset="1" stop-color="#2c3e81"/></linearGradient><linearGradient id="Áåçûìÿííûé_ãðàäèåíò_218-2" x1="1588.9" y1="919.6" x2="1588.9" y2="821.23" xlink:href="#Áåçûìÿííûé_ãðàäèåíò_218"/><linearGradient id="Áåçûìÿííûé_ãðàäèåíò_268" x1="1445.87" y1="689.76" x2="1692.43" y2="689.76" gradientUnits="userSpaceOnUse"><stop offset="0" stop-color="#977c9d"/><stop offset="1" stop-color="#593191"/></linearGradient><linearGradient id="Áåçûìÿííûé_ãðàäèåíò_268-2" x1="1302.62" y1="825.84" x2="1456.66" y2="825.84" xlink:href="#Áåçûìÿííûé_ãðàäèåíò_268"/><linearGradient id="Áåçûìÿííûé_ãðàäèåíò_272" x1="1710.17" y1="770.47" x2="1744.02" y2="596.35" gradientUnits="userSpaceOnUse"><stop offset="0" stop-color="#9d7c90"/><stop offset="1" stop-color="#7754b6"/></linearGradient><linearGradient id="Áåçûìÿííûé_ãðàäèåíò_280" x1="1096.45" y1="781.07" x2="1670.74" y2="781.07" gradientUnits="userSpaceOnUse"><stop offset="0" stop-color="#729eee"/><stop offset="1" stop-color="#596abd"/></linearGradient><linearGradient id="Áåçûìÿííûé_ãðàäèåíò_291" x1="960" y1="1081.21" x2="960" y2="-1.21" gradientUnits="userSpaceOnUse"><stop offset="0" stop-color="#729cb3"/><stop offset="1" stop-color="#553688"/></linearGradient><linearGradient id="Áåçûìÿííûé_ãðàäèåíò_98" x1="925.17" y1="750.97" x2="925.17" gradientUnits="userSpaceOnUse"><stop offset="0" stop-color="#a1defe"/><stop offset="1" stop-color="#3f70ca"/></linearGradient><linearGradient id="Áåçûìÿííûé_ãðàäèåíò_98-2" x1="1475.02" y1="606.36" x2="1475.02" y2="57.95" xlink:href="#Áåçûìÿííûé_ãðàäèåíò_98"/><linearGradient id="Áåçûìÿííûé_ãðàäèåíò_98-3" x1="1665.08" y1="775.53" x2="1665.08" y2="365.25" xlink:href="#Áåçûìÿííûé_ãðàäèåíò_98"/><linearGradient id="Áåçûìÿííûé_ãðàäèåíò_98-4" x1="1726.08" y1="706.21" x2="1726.08" y2="445.01" xlink:href="#Áåçûìÿííûé_ãðàäèåíò_98"/><linearGradient id="Áåçûìÿííûé_ãðàäèåíò_98-5" x1="1812.64" y1="797.35" x2="1812.64" y2="484.34" xlink:href="#Áåçûìÿííûé_ãðàäèåíò_98"/><linearGradient id="Áåçûìÿííûé_ãðàäèåíò_98-6" x1="1209.51" y1="580.78" x2="1209.51" y2="148.67" xlink:href="#Áåçûìÿííûé_ãðàäèåíò_98"/><linearGradient id="Áåçûìÿííûé_ãðàäèåíò_98-7" x1="697.93" y1="417.62" x2="697.93" y2="0" xlink:href="#Áåçûìÿííûé_ãðàäèåíò_98"/><linearGradient id="Áåçûìÿííûé_ãðàäèåíò_98-8" x1="634.66" y1="606.36" x2="634.66" y2="0" xlink:href="#Áåçûìÿííûé_ãðàäèåíò_98"/><linearGradient id="Áåçûìÿííûé_ãðàäèåíò_226-2" x1="925.17" y1="750.97" x2="925.17" y2="0" xlink:href="#Áåçûìÿííûé_ãðàäèåíò_226"/><linearGradient id="Áåçûìÿííûé_ãðàäèåíò_226-3" x1="634.66" y1="606.36" x2="634.66" y2="0" xlink:href="#Áåçûìÿííûé_ãðàäèåíò_226"/><linearGradient id="Áåçûìÿííûé_ãðàäèåíò_226-4" x1="693.84" y1="417.62" x2="693.84" y2="0" xlink:href="#Áåçûìÿííûé_ãðàäèåíò_226"/><linearGradient id="Áåçûìÿííûé_ãðàäèåíò_226-5" x1="1212.07" y1="575.5" x2="1212.07" y2="148.67" xlink:href="#Áåçûìÿííûé_ãðàäèåíò_226"/><linearGradient id="Áåçûìÿííûé_ãðàäèåíò_226-6" x1="1475.02" y1="541.19" x2="1475.02" y2="57.95" xlink:href="#Áåçûìÿííûé_ãðàäèåíò_226"/><linearGradient id="Áåçûìÿííûé_ãðàäèåíò_226-7" x1="1665.58" y1="775.53" x2="1665.58" y2="365.25" xlink:href="#Áåçûìÿííûé_ãðàäèåíò_226"/><linearGradient id="Áåçûìÿííûé_ãðàäèåíò_226-8" x1="1725.87" y1="706.21" x2="1725.87" y2="445.01" xlink:href="#Áåçûìÿííûé_ãðàäèåíò_226"/><linearGradient id="Áåçûìÿííûé_ãðàäèåíò_226-9" x1="1812.64" y1="797.35" x2="1812.64" y2="484.34" xlink:href="#Áåçûìÿííûé_ãðàäèåíò_226"/><linearGradient id="Áåçûìÿííûé_ãðàäèåíò_226-10" x1="881.17" y1="357.99" x2="881.17" y2="0" xlink:href="#Áåçûìÿííûé_ãðàäèåíò_226"/><linearGradient id="Áåçûìÿííûé_ãðàäèåíò_226-11" x1="983.65" y1="196.08" x2="983.65" y2="-2.42" xlink:href="#Áåçûìÿííûé_ãðàäèåíò_226"/><linearGradient id="Áåçûìÿííûé_ãðàäèåíò_47" x1="1719.91" y1="730.51" x2="1719.91" gradientUnits="userSpaceOnUse"><stop offset="0" stop-color="#4a4d62"/><stop offset="1" stop-color="#402738"/></linearGradient><linearGradient id="Áåçûìÿííûé_ãðàäèåíò_150-27" x1="1428.29" y1="365.25" x2="2040" y2="365.25" xlink:href="#Áåçûìÿííûé_ãðàäèåíò_150"/><linearGradient id="Áåçûìÿííûé_ãðàäèåíò_150-28" x1="1520.55" y1="64.27" x2="1880.7" y2="64.27" xlink:href="#Áåçûìÿííûé_ãðàäèåíò_150"/><linearGradient id="Áåçûìÿííûé_ãðàäèåíò_150-29" x1="1399.82" y1="133.66" x2="1665.08" y2="133.66" xlink:href="#Áåçûìÿííûé_ãðàäèåíò_150"/><linearGradient id="Áåçûìÿííûé_ãðàäèåíò_150-30" x1="1428.29" y1="121.96" x2="1929.43" y2="121.96" xlink:href="#Áåçûìÿííûé_ãðàäèåíò_150"/><linearGradient id="Áåçûìÿííûé_ãðàäèåíò_150-31" x1="1762.28" y1="522.63" x2="2043.23" y2="522.63" xlink:href="#Áåçûìÿííûé_ãðàäèåíò_150"/><linearGradient id="Áåçûìÿííûé_ãðàäèåíò_150-32" x1="1639.58" y1="268.64" x2="2040" y2="268.64" xlink:href="#Áåçûìÿííûé_ãðàäèåíò_150"/><linearGradient id="Áåçûìÿííûé_ãðàäèåíò_150-33" x1="1547.49" y1="286.2" x2="1724.63" y2="286.2" xlink:href="#Áåçûìÿííûé_ãðàäèåíò_150"/><linearGradient id="Áåçûìÿííûé_ãðàäèåíò_191" x1="424.53" y1="1080" x2="424.53" gradientUnits="userSpaceOnUse"><stop offset="0" stop-color="#595c66"/><stop offset="1" stop-color="#443444"/></linearGradient><linearGradient id="Áåçûìÿííûé_ãðàäèåíò_150-34" x1="-29.75" y1="936.84" x2="-29.75" y2="0" xlink:href="#Áåçûìÿííûé_ãðàäèåíò_150"/><linearGradient id="Áåçûìÿííûé_ãðàäèåíò_150-35" x1="324.39" y1="401.05" x2="324.39" y2="0" xlink:href="#Áåçûìÿííûé_ãðàäèåíò_150"/><linearGradient id="Áåçûìÿííûé_ãðàäèåíò_150-36" x1="528.43" y1="275.32" x2="528.43" y2="-2.42" xlink:href="#Áåçûìÿííûé_ãðàäèåíò_150"/><linearGradient id="Áåçûìÿííûé_ãðàäèåíò_150-37" x1="794.43" y1="38.2" x2="794.43" y2="-2.42" xlink:href="#Áåçûìÿííûé_ãðàäèåíò_150"/><linearGradient id="Áåçûìÿííûé_ãðàäèåíò_150-38" x1="439.75" y1="401.05" x2="439.75" y2="258.49" xlink:href="#Áåçûìÿííûé_ãðàäèåíò_150"/><linearGradient id="Áåçûìÿííûé_ãðàäèåíò_150-39" x1="313.14" y1="255.97" x2="313.14" y2="34.72" xlink:href="#Áåçûìÿííûé_ãðàäèåíò_150"/><linearGradient id="Áåçûìÿííûé_ãðàäèåíò_150-40" x1="113.37" y1="232.91" x2="113.37" y2="0" xlink:href="#Áåçûìÿííûé_ãðàäèåíò_150"/><linearGradient id="Áåçûìÿííûé_ãðàäèåíò_150-41" x1="461.61" y1="275.32" x2="461.61" y2="223.02" xlink:href="#Áåçûìÿííûé_ãðàäèåíò_150"/><linearGradient id="Áåçûìÿííûé_ãðàäèåíò_12-2" x1="1213.94" y1="383.31" x2="1213.94" y2="0" xlink:href="#Áåçûìÿííûé_ãðàäèåíò_12"/><linearGradient id="Áåçûìÿííûé_ãðàäèåíò_150-42" x1="1189.9" y1="383.31" x2="1189.9" y2="0" xlink:href="#Áåçûìÿííûé_ãðàäèåíò_150"/><linearGradient id="Áåçûìÿííûé_ãðàäèåíò_79" x1="254.28" y1="1008.41" x2="254.28" y2="215.43" gradientTransform="matrix(1, 0.06, -0.07, 1.16, 35.59, -103.41)" gradientUnits="userSpaceOnUse"><stop offset="0" stop-color="#70737c"/><stop offset="1" stop-color="#5f4a58"/></linearGradient><linearGradient id="Áåçûìÿííûé_ãðàäèåíò_150-43" x1="219.91" y1="965.23" x2="219.91" y2="228.74" gradientTransform="matrix(1, 0.06, -0.07, 1.16, 35.59, -103.41)" xlink:href="#Áåçûìÿííûé_ãðàäèåíò_150"/><linearGradient id="Áåçûìÿííûé_ãðàäèåíò_150-44" x1="180.34" y1="1023.3" x2="180.34" y2="198.01" xlink:href="#Áåçûìÿííûé_ãðàäèåíò_150"/><linearGradient id="Áåçûìÿííûé_ãðàäèåíò_23" x1="960" y1="1080" x2="960" y2="755.74" gradientUnits="userSpaceOnUse"><stop offset="0" stop-color="#5f4a58"/><stop offset="1" stop-color="#70737c"/></linearGradient><linearGradient id="Áåçûìÿííûé_ãðàäèåíò_218-3" x1="1825.7" y1="892.91" x2="1825.7" y2="881.17" xlink:href="#Áåçûìÿííûé_ãðàäèåíò_218"/><linearGradient id="Áåçûìÿííûé_ãðàäèåíò_150-45" x1="204.7" y1="1080" x2="204.7" y2="755.74" xlink:href="#Áåçûìÿííûé_ãðàäèåíò_150"/><linearGradient id="Áåçûìÿííûé_ãðàäèåíò_150-46" x1="912.45" y1="1049.39" x2="912.45" y2="890.12" xlink:href="#Áåçûìÿííûé_ãðàäèåíò_150"/><linearGradient id="Áåçûìÿííûé_ãðàäèåíò_150-47" x1="1452.34" y1="1042.23" x2="1452.34" y2="1008.46" xlink:href="#Áåçûìÿííûé_ãðàäèåíò_150"/><linearGradient id="Áåçûìÿííûé_ãðàäèåíò_150-48" x1="1588.08" y1="1080" x2="1588.08" y2="969.58" xlink:href="#Áåçûìÿííûé_ãðàäèåíò_150"/><linearGradient id="Áåçûìÿííûé_ãðàäèåíò_150-49" x1="1841.83" y1="1080" x2="1841.83" y2="806.9" xlink:href="#Áåçûìÿííûé_ãðàäèåíò_150"/><linearGradient id="Áåçûìÿííûé_ãðàäèåíò_150-50" x1="1820.72" y1="1080" x2="1820.72" y2="990.05" xlink:href="#Áåçûìÿííûé_ãðàäèåíò_150"/><linearGradient id="Áåçûìÿííûé_ãðàäèåíò_150-51" x1="1677.95" y1="1080" x2="1677.95" y2="911.26" xlink:href="#Áåçûìÿííûé_ãðàäèåíò_150"/><linearGradient id="Áåçûìÿííûé_ãðàäèåíò_150-52" x1="1620.64" y1="1080" x2="1620.64" y2="976.17" xlink:href="#Áåçûìÿííûé_ãðàäèåíò_150"/><linearGradient id="Áåçûìÿííûé_ãðàäèåíò_150-53" x1="1405.61" y1="1042.23" x2="1405.61" y2="1016.99" xlink:href="#Áåçûìÿííûé_ãðàäèåíò_150"/><linearGradient id="Áåçûìÿííûé_ãðàäèåíò_150-54" x1="1260.41" y1="1042.23" x2="1260.41" y2="948.78" xlink:href="#Áåçûìÿííûé_ãðàäèåíò_150"/><linearGradient id="Áåçûìÿííûé_ãðàäèåíò_150-55" x1="1241.99" y1="1012.67" x2="1241.99" y2="890.12" xlink:href="#Áåçûìÿííûé_ãðàäèåíò_150"/><linearGradient id="Áåçûìÿííûé_ãðàäèåíò_150-56" x1="1020.74" y1="966.17" x2="1020.74" y2="912.63" xlink:href="#Áåçûìÿííûé_ãðàäèåíò_150"/><linearGradient id="Áåçûìÿííûé_ãðàäèåíò_150-57" x1="48.74" y1="1080" x2="48.74" y2="767" xlink:href="#Áåçûìÿííûé_ãðàäèåíò_150"/><linearGradient id="Áåçûìÿííûé_ãðàäèåíò_150-58" x1="229.83" y1="1080" x2="229.83" y2="843.18" xlink:href="#Áåçûìÿííûé_ãðàäèåíò_150"/><linearGradient id="Áåçûìÿííûé_ãðàäèåíò_150-59" x1="417.88" y1="1080" x2="417.88" y2="914.85" xlink:href="#Áåçûìÿííûé_ãðàäèåíò_150"/><linearGradient id="Áåçûìÿííûé_ãðàäèåíò_150-60" x1="674.34" y1="1049.39" x2="674.34" y2="1014.6" xlink:href="#Áåçûìÿííûé_ãðàäèåíò_150"/><linearGradient id="Áåçûìÿííûé_ãðàäèåíò_150-61" x1="1005.81" y1="1014.49" x2="1005.81" y2="978.11" xlink:href="#Áåçûìÿííûé_ãðàäèåíò_150"/><linearGradient id="Áåçûìÿííûé_ãðàäèåíò_150-62" x1="948.7" y1="1042.23" x2="948.7" y2="1023.83" xlink:href="#Áåçûìÿííûé_ãðàäèåíò_150"/><linearGradient id="Áåçûìÿííûé_ãðàäèåíò_295" x1="1114.78" y1="562.3" x2="1114.78" y2="-1.21" gradientUnits="userSpaceOnUse"><stop offset="0" stop-color="#a1defe"/><stop offset="1" stop-color="#678edd"/></linearGradient><linearGradient id="Áåçûìÿííûé_ãðàäèåíò_295-2" x1="570.65" y1="484.31" x2="570.65" y2="-2.42" xlink:href="#Áåçûìÿííûé_ãðàäèåíò_295"/><linearGradient id="Áåçûìÿííûé_ãðàäèåíò_226-12" x1="562.38" y1="484.31" x2="562.38" y2="-1.73" xlink:href="#Áåçûìÿííûé_ãðàäèåíò_226"/><linearGradient id="Áåçûìÿííûé_ãðàäèåíò_226-13" x1="1114.78" y1="562.3" x2="1114.78" y2="-1.21" xlink:href="#Áåçûìÿííûé_ãðàäèåíò_226"/></defs><g style="isolation:isolate"><g id="cave"><g style="clip-path:url(#clip-path)"><rect x="-120" width="2160" height="674.91" style="fill:url(#Áåçûìÿííûé_ãðàäèåíò_167)"/><polygon points="1072.4 594.09 1190.07 422.88 1276.7 334.34 1243.27 431.06 1174.55 540 1174.55 527.92 1143.68 580.78 1174.55 551.11 1148.62 608.86 1173.02 608.86 1198.77 540 1290.34 415.37 1358.55 266.33 1358.55 319.2 1267.15 513.6 1256.23 529.28 1261.69 504.53 1222.36 611.27 1325.13 410.61 1354.46 365.25 1296.48 508.82 1322.57 464.4 1267.15 612.73 1388.56 311.01 1443.13 242.8 1419.26 364.73 1345.59 616.28 1408.34 616.28 1435.63 522.63 1428.29 534.06 1467 301.46 1520.55 208.87 1540.43 223.7 1484.74 493.82 1498.38 463.8 1496.67 454.25 1523.96 332.16 1532.45 315.59 1499.57 575.16 1492.41 585.9 1484.74 619.85 1507.25 619.85 1540.43 455.82 1531.8 484.34 1512.36 574.13 1508.78 559.81 1586.03 194.03 1647.42 217.56 1561.45 622.36 1578.86 622.93 1592.68 536.79 1572.73 591.53 1608.54 421.17 1670.95 217.56 1711.28 348.73 1682.03 626.31 1711.28 626.31 1762.28 410.61 1777.36 395.86 1726.08 627.75 1735.9 627.75 1793.05 364.73 1784.18 379.05 1849.34 141.85 1824.43 301.97 1837.53 261.9 1769.21 629.16 1831.08 631.18 1888.88 455.82 1970.29 0 1157.33 0 1072.4 594.09" style="fill-rule:evenodd;opacity:0.6000000000000001;mix-blend-mode:multiply;fill:url(#Áåçûìÿííûé_ãðàäèåíò_161)"/><polygon points="1121.51 522.63 1102.76 565.44 1091.85 586.58 1110.94 600.22 1143.68 600.22 1172.51 555.66 1212.06 480.55 1244.91 426.32 1217.81 486.2 1198.77 540 1189.02 566.06 1185.37 596.87 1232.53 516.33 1261.69 469.26 1222.36 540 1200.3 600.22 1213.94 600.22 1233.59 580.78 1232.47 591.53 1241.23 606.36 1345.59 616.28 1058.14 611.09 1121.51 522.63" style="fill:#384e89;fill-rule:evenodd"/><polygon points="1267.15 462.44 1271.58 447.43 1297.5 410.61 1267.15 462.44" style="fill:#384e89;fill-rule:evenodd"/><polygon points="1261.69 608.31 1278.83 570.39 1329.06 447.01 1288.29 570.39 1289.32 574.64 1290.59 578.99 1299.55 575.16 1300.83 563.65 1303.32 562.11 1314.38 533.98 1299.55 577.12 1294.69 579.68 1286.93 603.63 1287.27 608.31 1304.7 612.4 1261.69 608.31" style="fill:#384e89;fill-rule:evenodd"/><polygon points="1345.59 616.28 1354.19 586.92 1374.98 515.91 1369.12 586.92 1370.14 600.22 1364.35 606.36 1360.6 601.25 1358.38 600.91 1351.73 613.52 1358.89 615.74 1367.93 614.72 1378.16 590.22 1404.93 503.02 1430.85 419.13 1432.56 419.13 1411.33 489.98 1416.53 492.79 1442.11 399.34 1446.54 387.07 1455.82 368.66 1428.29 534.06 1423.01 544.63 1424.03 525.53 1438.36 458.69 1437.33 446.41 1431.19 454.25 1411.41 528.94 1414.21 540 1416.44 534.61 1420.66 527.2 1396.06 616.28 1345.59 616.28" style="fill:#384e89;fill-rule:evenodd"/><polygon points="1475.02 591.53 1495.65 492.47 1520.08 413.27 1511.08 484.34 1509.2 499.18 1497.55 510.87 1504.52 484.34 1499.45 489.21 1485.51 544.21 1484.06 570.39 1485.93 572.26 1490.54 547.19 1495.65 525.7 1488.32 579.59 1482.18 598.86 1475.02 613.01 1475.02 591.53" style="fill:#384e89;fill-rule:evenodd"/><polygon points="1470.24 561.51 1470.24 545.83 1475.02 520.93 1471.52 548.04 1470.24 561.51" style="fill:#384e89;fill-rule:evenodd"/><polygon points="1678.86 518.27 1686.3 462.44 1703.65 323.9 1693.45 290.72 1711.28 311.01 1752.81 158.22 1708.81 361.83 1711.28 395.86 1689.7 553.52 1682.03 626.31 1688.6 522.63 1693.72 459.54 1690.39 461.59 1678.86 518.27" style="fill:#384e89;fill-rule:evenodd"/><polygon points="1712.56 0 1413.8 128.89 1419.94 135.03 1224.86 346.48 1072.4 594.09 1072.4 606.36 1141.98 642.17 1142.49 647.8 461.58 647.8 484.77 0 1712.56 0" style="fill-rule:evenodd;fill:url(#Áåçûìÿííûé_ãðàäèåíò_175)"/><polygon points="1652.79 0 1446.88 85.58 1413.03 121.97 1444.32 78.41 1550.22 0 1454.04 0 1190.34 232.91 1143.53 311.01 1175.99 303.18 1267.15 217.56 1182.91 304.53 1153.75 354.84 1165.51 318.34 1152.21 323.9 945.19 540 907 631.18 925.17 631.18 1058.14 591.53 1222.36 342.39 1072.4 594.09 1072.4 598.18 988.25 621.46 1012.29 633.99 1141.98 642.17 1142.49 647.8 935.16 647.8 938.37 636.38 861.98 631.18 817.64 647.8 925.17 541.22 1087.07 334.34 1179.84 177.66 1267.15 18.39 1209.51 156.07 1197.49 191.66 1235.21 171.52 1345.59 0 1222.36 0 986.62 379.05 802.29 647.8 778.76 647.8 822.75 591.53 953.57 342.39 1031.48 223.7 982.88 311.69 969.07 337.46 925.17 426.32 969.07 380.25 1113.05 57.95 1129.7 0 1652.79 0" style="fill-rule:evenodd;opacity:0.6000000000000001;mix-blend-mode:multiply;fill:url(#Áåçûìÿííûé_ãðàäèåíò_150)"/><polygon points="1149.14 359.44 1096.39 426.32 1072.4 455.82 1072.4 443.68 960 606.36 1082.98 452.89 1121.52 403.78 1149.14 359.44" style="fill-rule:evenodd;opacity:0.6000000000000001;mix-blend-mode:multiply;fill:url(#Áåçûìÿííûé_ãðàäèåíò_150-2)"/><polygon points="1267.15 0 1149.14 159.93 1025 368.66 1213.94 99.34 1277.04 0 1267.15 0" style="fill-rule:evenodd;opacity:0.6000000000000001;mix-blend-mode:multiply;fill:url(#Áåçûìÿííûé_ãðàäèåíò_150-3)"/><polygon points="1419.94 135.03 1375.6 164.36 1282.32 208.81 1260.61 223.7 1337.2 167.09 1413.03 121.97 1419.94 135.03" style="fill-rule:evenodd;opacity:0.6000000000000001;mix-blend-mode:multiply;fill:url(#Áåçûìÿííûé_ãðàäèåíò_150-4)"/><polygon points="1011.02 647.8 1012.29 633.99 988.25 621.46 1058.14 591.53 925.17 631.18 938.37 636.38 935.16 647.8 1011.02 647.8" style="fill-rule:evenodd;opacity:0.6000000000000001;mix-blend-mode:multiply;fill:url(#Áåçûìÿííûé_ãðàäèåíò_150-5)"/><polygon points="945.19 540 925.17 541.22 817.64 647.8 861.98 631.18 907 631.18 945.19 540" style="fill-rule:evenodd;opacity:0.6000000000000001;mix-blend-mode:multiply;fill:url(#Áåçûìÿííûé_ãðàäèåíò_150-6)"/><polygon points="484.77 0 461.58 647.8 484.77 647.8 495.69 334.34 540.7 148.67 521.61 368.66 507.36 529.71 505.06 454.94 501.14 616.28 510.18 540 515.3 534.74 536.78 393.04 625.28 298.39 634.66 298.9 576.17 556.4 548.12 647.8 574.09 647.8 574.17 616.28 564.92 627.85 557.25 636.55 591.52 513.26 664.16 314.25 664.16 337.46 672.35 460.01 638.08 606.36 625.28 637.57 616.08 647.8 631.42 543.44 647.28 459.03 608.23 647.8 661.1 647.8 798.54 -6.51 765.46 -1.39 715.31 323.9 687.7 417.63 672.35 315.59 710.48 -6.51 484.77 0" style="fill-rule:evenodd;opacity:0.6000000000000001;mix-blend-mode:multiply;fill:url(#Áåçûìÿííûé_ãðàäèåíò_150-7)"/><polygon points="1072.4 0 925.17 268.64 798.54 520.93 925.17 232.91 1037.62 0 1072.4 0" style="fill-rule:evenodd;opacity:0.6000000000000001;mix-blend-mode:multiply;fill:url(#Áåçûìÿííûé_ãðàäèåíò_150-8)"/><polygon points="1102.76 0 1054.57 99.34 1045.8 89.67 976.23 245.19 1122.54 -6.51 1102.76 0" style="fill-rule:evenodd;opacity:0.6000000000000001;mix-blend-mode:multiply;fill:url(#Áåçûìÿííûé_ãðàäèåíò_150-9)"/><polygon points="761.71 647.8 761.71 631.18 798.54 520.93 756.25 612.4 762.73 606.36 741.24 647.8 715.32 647.8 798.54 474.38 935.47 148.67 925.17 184.82 917.4 217.56 887.73 294.3 991.06 68.18 761.71 647.8" style="fill-rule:evenodd;fill:url(#Áåçûìÿííûé_ãðàäèåíò_150-10)"/><polygon points="1310.43 41.21 1325.13 51.13 1337.4 122.07 1349.68 135.71 1357.87 124.11 1363.32 69.55 1369.46 299.57 1377.65 376.49 1384.18 480.17 1388.56 375.81 1388.56 232.57 1394.02 226.43 1399.82 439.25 1404.93 450.84 1411.75 570.39 1417.89 494.5 1432.22 177.32 1454.98 19.21 1484.06 0 1267.15 0 1310.43 41.21" style="fill-rule:evenodd;fill:url(#Áåçûìÿííûé_ãðàäèåíò_229)"/><polygon points="1337.4 122.07 1332.29 12.42 1340.27 0 1354.29 14.98 1362.98 72.94 1369.46 299.57 1378.08 383.31 1384.18 480.17 1375.6 266.33 1380.89 12.93 1384.18 43.63 1388.56 232.57 1394.02 226.43 1399.82 439.25 1404.93 450.84 1411.75 570.39 1400.7 99.34 1411.75 54.06 1451.81 48.13 1454.04 0 1301.93 0 1301.93 38.2 1325.13 51.13 1337.4 122.07" style="fill-rule:evenodd;opacity:0.5;mix-blend-mode:multiply;fill:url(#Áåçûìÿííûé_ãðàäèåíò_226)"/><path d="M862.66,504.52,770.84,628.45l11,70L895.39,821.23H273.31L289.7,0h22.49S333.68,182.76,348,260.52c14.09,76.55,55,190.76,56.24,194.32l0,.08,9.55,4.35L437,409.91l8.18-110.51L424.75,0h77.76L478.24,279.15v.06l-9.83,113L482.56,540,590.5,495.18,892.66,120.72l36.15-86.65L883.13,0h274.19L1131.4,25.22Z" style="fill-rule:evenodd;fill:url(#Áåçûìÿííûé_ãðàäèåíò_183)"/><polygon points="883.12 0 928.82 34.08 892.67 120.7 590.5 495.18 482.56 540 459.51 640.85 424.53 821.23 442.14 821.23 495.34 686.17 476.59 710.04 454.08 755.74 440.44 767.34 516.15 593.9 620.51 471.99 853.19 206.44 903.58 184.33 817.64 314.92 722.72 413.27 728.65 383.31 621.19 529.71 756.76 382.12 773.3 370.01 804.85 343.07 681.22 541.22 583.68 639.79 542.07 674.57 612.33 547.02 517.51 681.39 530.47 675.26 537.29 678.67 505.51 821.23 597.66 821.23 551.62 812.02 558.78 755.74 967.68 119.34 991.65 95.2 1058.14 26.02 1025 86.49 935.47 232.91 764.43 482.9 861.98 359.44 991.65 158.22 976.23 200.17 853.19 436.53 697.93 631.18 732.72 549.07 754.2 504.53 641.66 710.73 608.23 786.44 620.17 821.23 672.35 821.23 661.1 797.35 691.79 750.97 741.34 730.51 817.64 797.35 825.82 821.23 841.17 821.23 802.29 774.16 753.18 698.96 762.39 654.96 781.83 698.45 770.83 628.45 755.23 651.89 741.34 715.84 710.48 735.28 661.1 735.96 824.8 484.34 974.63 266.33 1102.76 76.31 1131.41 25.21 1157.33 0 883.12 0" style="fill-rule:evenodd;opacity:0.6000000000000001;mix-blend-mode:multiply;fill:url(#Áåçûìÿííûé_ãðàäèåíò_150-11)"/><path d="M325.5,447,348,591.52,315.27,445.2,304,410.62l-10.24,7L289.7,654.45l20.46,166.78H273.31L289.7,0h22.49S333.68,182.76,348,260.52c14.09,76.55,55,190.76,56.24,194.32L347,315.6,310.16,206.44,299.93,223.7v91.9Z" style="fill-rule:evenodd;opacity:0.6000000000000001;mix-blend-mode:multiply;fill:url(#Áåçûìÿííûé_ãðàäèåíò_150-12)"/><polygon points="479.32 75.68 479.32 152.41 478.24 279.15 478.24 279.21 468.41 392.18 444.19 580.8 424.54 766.99 442.11 730.51 424.54 821.23 374.61 821.23 399.16 741.42 414.52 764.96 438.55 520.94 428.32 540 404.8 633.47 400.18 710.21 401.21 602.26 404.29 454.92 413.84 459.27 437.04 409.91 445.22 299.4 424.75 0 468.41 0 451.35 134.35 453.4 191.65 454.07 328.08 472.49 229.15 479.32 75.68" style="fill-rule:evenodd;opacity:0.6000000000000001;mix-blend-mode:multiply;fill:url(#Áåçûìÿííûé_ãðàäèåíò_150-13)"/><polygon points="537.29 678.67 542.07 674.57 583.68 639.79 681.22 541.22 734.09 482.9 683.05 562.34 558.78 755.74 551.62 812.02 523.48 821.23 505.51 821.23 537.29 678.67" style="fill-rule:evenodd;opacity:0.6000000000000001;mix-blend-mode:multiply;fill:url(#Áåçûìÿííûé_ãðàäèåíò_150-14)"/><polygon points="661.1 735.96 710.48 735.28 691.79 750.97 661.1 797.35 672.35 821.23 620.17 821.23 608.23 786.44 644.94 704.71 697.93 631.18 795.95 528.69 661.1 735.96" style="fill-rule:evenodd;opacity:0.6000000000000001;mix-blend-mode:multiply;fill:url(#Áåçûìÿííûé_ãðàäèåíò_150-15)"/><polygon points="482.56 540 442.11 730.51 424.54 766.99 424.54 821.23 440.44 767.34 516.15 593.9 590.5 495.18 482.56 540" style="fill-rule:evenodd;opacity:0.6000000000000001;mix-blend-mode:multiply;fill:url(#Áåçûìÿííûé_ãðàäèåíò_150-16)"/><polygon points="437.04 409.91 428.32 540 404.8 633.47 404.29 454.92 413.84 459.27 437.04 409.91" style="fill-rule:evenodd;opacity:0.6000000000000001;mix-blend-mode:multiply;fill:url(#Áåçûìÿííûé_ãðàäèåíò_150-17)"/><polygon points="551.62 1001.98 426.27 510.52 409.74 491.77 340.17 0 -111.39 0 -111.39 966.51 551.62 1001.98" style="fill-rule:evenodd;fill:url(#Áåçûìÿííûé_ãðàäèåíò_194)"/><polygon points="551.62 1001.98 426.27 510.52 426.97 580.78 437.04 684.03 347.02 323.9 365.4 580.78 356.19 591.53 356.19 529.71 296.91 116.45 324.39 626.78 338.78 606.53 345.45 633.47 338.78 668.26 338.78 739.88 327.55 647.8 338.78 854.99 332.57 917.87 275.22 449.79 289.69 854.65 273.31 987.1 551.62 1001.98" style="fill:#7a92d7;fill-rule:evenodd"/><polygon points="426.27 510.52 483.61 799.74 483.61 909.22 479.32 945.03 420.66 702.59 393.03 570.39 437.04 684.03 402.24 552.8 356.19 409.91 374.61 540 447.9 897.12 455.24 952.87 444.19 946.05 426.97 886.71 374.61 786.43 404.29 935.34 413.49 968.56 338.78 968.56 220.12 0 179.19 -6.51 244.69 342.39 261.04 436.53 244.67 409.91 207.84 245.19 235.46 436.53 244.67 647.8 246.72 459.27 262.06 513.14 313.22 854.99 289.69 968.56 273.31 968.56 262.06 857.04 246.72 671.85 254.84 986.11 551.62 1001.98 426.27 510.52" style="fill-rule:evenodd;opacity:0.6000000000000001;mix-blend-mode:multiply;fill:url(#Áåçûìÿííûé_ãðàäèåíò_150-18)"/><polygon points="273.31 0 319.09 232.91 356.19 409.91 314.75 21.39 340.17 0 273.31 0" style="fill-rule:evenodd;opacity:0.6000000000000001;mix-blend-mode:multiply;fill:url(#Áåçûìÿííûé_ãðàäèåíò_150-19)"/><polygon points="198.06 983.07 129.05 342.39 103.47 0 78.92 0 121.89 383.31 149.52 720.96 129.05 821.23 88.13 245.19 41.06 0 23.67 0 85.06 580.78 78.92 976.7 44.23 974.84 -78.65 436.53 -111.39 245.19 -111.39 966.51 198.06 983.07" style="fill-rule:evenodd;opacity:0.6000000000000001;mix-blend-mode:multiply;fill:url(#Áåçûìÿííûé_ãðàäèåíò_150-20)"/><polygon points="179.19 -6.51 261.04 436.53 296.91 626.78 220.12 0 179.19 -6.51" style="fill-rule:evenodd;opacity:0.6000000000000001;mix-blend-mode:multiply;fill:url(#Áåçûìÿííûé_ãðàäèåíò_150-21)"/><polygon points="461.58 1001.98 448.28 898.99 374.61 540 356.19 409.91 393.92 574.67 491.11 998.75 461.58 1001.98" style="fill-rule:evenodd;opacity:0.6000000000000001;mix-blend-mode:multiply;fill:url(#Áåçûìÿííûé_ãðàäèåíò_150-22)"/><polygon points="143.41 980.15 130.3 815.13 85.77 232.91 65.18 392.7 85.06 580.78 104.3 619.66 129.05 979.38 143.41 980.15" style="fill-rule:evenodd;opacity:0.6000000000000001;mix-blend-mode:multiply;fill:url(#Áåçûìÿííûé_ãðàäèåíò_150-23)"/><polygon points="198.06 983.07 156.82 600.21 127.33 449.79 149.52 720.96 172.04 981.68 198.06 983.07" style="fill-rule:evenodd;opacity:0.6000000000000001;mix-blend-mode:multiply;fill:url(#Áåçûìÿííûé_ãðàäèåíò_150-24)"/><polygon points="273.31 987.1 273.31 968.56 246.72 671.85 254.84 986.11 273.31 987.1" style="fill-rule:evenodd;opacity:0.6000000000000001;mix-blend-mode:multiply;fill:url(#Áåçûìÿííûé_ãðàäèåíò_150-25)"/><path d="M1948.93,635l-876.52-28.68L1142,642.17l.51,5.63H771.74l10.09,50.65,8.64,9.34L782,718.4,483.61,730.51,568,1080h678l103.68-95.75,345.16-55.93,50.46-10.45s-285.12-30.48-395.62-56.4l-6.14-18.29-46.38-4.9S1155.28,811,1047.85,782.35l-10.23-26.61,8.18-12.27,430.75-42-72.64-14.33,10.23-18.41,547-21Z" style="fill-rule:evenodd;fill:url(#Áåçûìÿííûé_ãðàäèåíò_199)"/><polygon points="1202.61 818.88 920.94 800.29 515.47 834.87 511.12 843.18 514.41 858.06 925.17 814.26 1282.32 835.37 1202.61 818.88" style="fill-rule:evenodd;opacity:0.5;mix-blend-mode:screen;fill:url(#Áåçûìÿííûé_ãðàäèåíò_240)"/><polygon points="596.48 826.49 623.21 824.22 728.12 744.41 726.45 737.71 596.48 826.49" style="fill-rule:evenodd;opacity:0.5;mix-blend-mode:screen;fill:url(#Áåçûìÿííûé_ãðàäèåíò_240-2)"/><polygon points="1040.07 762.12 1043.34 770.62 539.88 728.22 577.44 726.7 1040.07 762.12" style="fill-rule:evenodd;opacity:0.5;mix-blend-mode:screen;fill:url(#Áåçûìÿííûé_ãðàäèåíò_240-3)"/><polygon points="1070.42 788.23 1100.37 795.65 1023.75 795.65 1016.87 805.03 1015.62 803.45 1019.41 795.49 945.06 800.55 937.01 800.29 936.78 798.94 1070.42 788.23" style="fill-rule:evenodd;opacity:0.5;mix-blend-mode:screen;fill:url(#Áåçûìÿííûé_ãðàäèåíò_240-4)"/><polygon points="517.09 869.17 521.04 882.1 656.18 903.84 674 897.96 682.58 894.38 519.22 864.2 517.09 869.17" style="fill-rule:evenodd;opacity:0.5;mix-blend-mode:screen;fill:url(#Áåçûìÿííûé_ãðàäèåíò_240-5)"/><polygon points="536.94 951.39 696.91 903.84 999.76 906.15 1127.51 980.97 1136.35 975.83 997.03 891.84 682.58 894.38 533.12 935.58 536.94 951.39" style="fill-rule:evenodd;opacity:0.5;mix-blend-mode:screen;fill:url(#Áåçûìÿííûé_ãðàäèåíò_240-6)"/><polygon points="948.7 1080 1296.8 923.5 1381.29 935.21 1387.03 923.5 1291.4 913.27 881.42 1080 948.7 1080" style="fill-rule:evenodd;opacity:0.5;mix-blend-mode:screen;fill:url(#Áåçûìÿííûé_ãðàäèåíò_240-7)"/><polygon points="1016.87 902 1160.74 899.33 1272.32 921.13 1288.38 912.29 1159.54 890.12 997.03 891.84 1016.87 902" style="fill-rule:evenodd;opacity:0.5;mix-blend-mode:screen;fill:url(#Áåçûìÿííûé_ãðàäèåíò_240-8)"/><polygon points="1209.51 898.72 1569.02 896.82 1496.72 886.95 1475.02 890.12 1167.56 891.48 1209.51 898.72" style="fill-rule:evenodd;opacity:0.5;mix-blend-mode:screen;fill:url(#Áåçûìÿííûé_ãðàäèåíò_240-9)"/><polygon points="1387.03 923.5 1354.8 984.25 1366.05 980.97 1397.09 935.21 1554.99 951.39 1588.9 945.48 1387.03 923.5" style="fill-rule:evenodd;opacity:0.5;mix-blend-mode:screen;fill:url(#Áåçûìÿííûé_ãðàäèåíò_240-10)"/><polygon points="511.12 843.18 515.47 834.87 1062.43 788.23 1070.42 788.23 1059.24 785.35 1061.75 786.95 512.48 833.63 508.52 832.87 511.12 843.18" style="fill:#2d9fbd;fill-rule:evenodd"/><polygon points="920.94 800.29 1172.4 816.09 1202.61 818.88 1162.44 810.23 1164.95 814.26 940.93 800.29 941.48 798.54 920.94 800.29" style="fill:#2d9fbd;fill-rule:evenodd"/><polygon points="1013.45 792.41 1019.88 793.43 1015.28 803.32 1009.98 804.6 1017.5 806.36 1015.62 803.45 1020.7 792.77 1023.75 791.53 1013.45 792.41" style="fill:#2d9fbd;fill-rule:evenodd"/><polygon points="577.44 726.7 598.68 726.7 1040.07 762.12 1039.01 759.36 598.68 727.74 577.44 726.7" style="fill:#2d9fbd;fill-rule:evenodd"/><polygon points="584.25 827.53 592.67 825.7 726.45 737.71 724.02 736.76 728.12 737.09 726.26 738.1 596.48 826.49 599.67 826.22 584.25 827.53" style="fill:#2d9fbd;fill-rule:evenodd"/><polygon points="1433.24 877.09 1452.34 887.04 672.35 892.9 519.22 864.2 514.41 858.06 517.09 869.17 521.18 866.76 672.1 894.89 674 897.96 534.99 931.47 532.13 931.47 533.12 935.58 690.38 895.02 1465.81 890.12 1496.72 886.95 1433.24 877.09" style="fill:#2d9fbd;fill-rule:evenodd"/><polygon points="1595.63 944.39 1288.38 912.29 1191.43 896.82 1193.81 891.84 1154.6 891.84 1285.73 912.63 1558.4 943.45 1558.45 950.42 1595.63 944.39" style="fill:#2d9fbd;fill-rule:evenodd"/><polygon points="1381.9 923.5 1384.47 926.61 1349.68 984.25 1354.8 984.25 1386 926.48 1390.21 924.44 1381.9 923.5" style="fill:#2d9fbd;fill-rule:evenodd"/><polygon points="881.42 1080 1284.97 915.1 1285.73 912.63 1296.8 913.17 1287.52 914.85 896.72 1076.33 898.81 1080 881.42 1080" style="fill:#2d9fbd;fill-rule:evenodd"/><polygon points="986.97 893.15 1002.58 895.15 1132.52 972.65 1132.52 977.39 1145.01 972.29 1135.84 972.31 1004.11 894.47 1005.57 893.03 986.97 893.15" style="fill:#2d9fbd;fill-rule:evenodd"/><polygon points="1251.12 723.34 790.47 707.79 789.47 706.71 1256.7 722.93 1251.12 723.34" style="fill:#2d9fbd;fill-rule:evenodd;mix-blend-mode:soft-light"/><polygon points="1072.4 647.8 1354.8 713.37 1358.91 712.97 1075.35 647.8 1072.4 647.8" style="fill:#2d9fbd;fill-rule:evenodd;mix-blend-mode:soft-light"/><polygon points="1120.63 631.18 1652.79 659.62 1659.73 659.36 1116.55 629.09 1120.63 631.18" style="fill:#2d9fbd;fill-rule:evenodd;mix-blend-mode:soft-light"/><polygon points="1037.62 780.05 1046.33 826.49 1729.27 994.14 1762.28 917.87 1037.62 780.05" style="fill-rule:evenodd;opacity:0.6000000000000001;mix-blend-mode:multiply;fill:url(#Áåçûìÿííûé_ãðàäèåíò_251)"/><polygon points="1142.49 647.8 1070.42 674.96 1065.99 741.5 1045.8 743.47 1037.62 755.74 1047.85 782.35 1037.62 1080 567.99 1080 483.61 730.51 782 718.4 790.47 707.79 781.83 698.45 771.75 647.8 1142.49 647.8" style="fill-rule:evenodd;opacity:0.6000000000000001;mix-blend-mode:multiply;fill:url(#Áåçûìÿííûé_ãðàäèåíò_249)"/><polygon points="782 718.4 782 1080 567.99 1080 483.61 730.51 782 718.4" style="fill-rule:evenodd;opacity:0.6000000000000001;mix-blend-mode:multiply;fill:url(#Áåçûìÿííûé_ãðàäèåíò_249-2)"/><polygon points="1142.49 647.8 1195.53 652.06 1135.57 650.41 1127.91 652.06 1116.55 652.79 1123.05 653.81 1129.19 654.71 1079.57 654.71 1081.1 653.43 1090.37 651.25 1076.75 651.25 1063.71 652.92 1043.88 654.71 1053.09 652.53 1054.57 651.25 1019.54 652.92 853.19 649.59 867.52 651.25 927.12 652.06 849.1 654.71 853.19 652.06 847.05 651.25 795.95 651.25 772.43 651.25 771.75 647.8 1142.49 647.8" style="fill:#556fcc;fill-rule:evenodd"/><polygon points="1010.85 656.5 1024.32 654.71 1042.22 656.5 1010.85 656.5" style="fill:#7a92d7;fill-rule:evenodd"/><polygon points="790.47 707.79 805.02 711.07 881.42 718.4 795.95 718.4 804.86 723.34 747.72 723.34 675.42 726.7 705.77 728.8 728.12 732.89 634.66 732.89 664.16 730.93 666.98 729.53 668.51 727.86 661.48 726.7 645.11 727.61 617.23 727.99 606.49 731.57 630.66 732.89 538.06 737.71 493.55 736.76 529.36 735.02 534.99 731.7 484.16 732.77 483.61 730.51 785.75 713.7 790.47 707.79" style="fill:#7a92d7;fill-rule:evenodd"/><polygon points="1141.98 642.17 1526.69 664.46 1961.1 647.8 1948.93 635.04 1072.4 606.36 1141.98 642.17" style="fill-rule:evenodd;opacity:0.6000000000000001;mix-blend-mode:multiply;fill:url(#Áåçûìÿííûé_ãðàäèåíò_150-26)"/><polygon points="1403.91 687.19 1403.91 708.59 1476.55 701.52 1403.91 687.19" style="fill-rule:evenodd;opacity:0.6000000000000001;mix-blend-mode:multiply;fill:url(#Áåçûìÿííûé_ãðàäèåíò_251-2)"/><polygon points="624.49 129.12 630.74 135.71 645.07 323.9 640.97 348.53 655.98 481.54 663.48 489.72 688.72 540 697.59 540 755.57 247.58 770.57 218.93 812.72 22.12 608.23 18.39 624.49 129.12" style="fill-rule:evenodd;fill:url(#Áåçûìÿííûé_ãðàäèåíò_12)"/><path d="M2043.24,654.45,2040,1080H1340.48l18.74-101.9,386.08-60.23c-221-17.26-395.61-56.41-395.61-56.41l-4.67-13.9c-113.13-9.13-297.16-65.21-297.16-65.21l-10.24-26.59,8.19-12.29,350-34.1,80.73-7.86-20.73-4.07-51.92-10.24,10.23-18.44,547-21,81.7,6.62Z" style="fill-rule:evenodd;fill:url(#Áåçûìÿííûé_ãðàäèåíò_81)"/><polygon points="1692.43 690.25 1476.56 701.51 1455.83 697.44 1403.91 687.2 1414.14 668.76 1445.87 678 1692.43 690.25" style="fill-rule:evenodd;fill:url(#Áåçûìÿííûé_ãðàäèåíò_216)"/><path d="M1345.59,852.07l-5.32-30.84h115.55l180.24,21.95-290.47-39.35-59.86-6.48-248.11-41.61v24.31s189,56.86,257.76,66.76Z" style="fill-rule:evenodd;fill:url(#Áåçûìÿííûé_ãðàäèåíò_218)"/><path d="M1837.53,888.75l-39.71,19.44L1735.9,919.6s-227.29-22.28-386.22-55.7a105.31,105.31,0,0,1-9.41-42.67S1680.8,880.57,1837.53,888.75Z" style="fill-rule:evenodd;fill:url(#Áåçûìÿííûé_ãðàäèåíò_218-2)"/><polygon points="1692.43 690.25 1476.56 701.51 1455.83 697.44 1445.87 678 1692.43 690.25" style="fill-rule:evenodd;opacity:0.6000000000000001;mix-blend-mode:multiply;fill:url(#Áåçûìÿííûé_ãðàäèåíò_268)"/><path d="M1306.68,799.62l-4.06,47.94,43,4.51a100.49,100.49,0,0,1-5.32-30.84h115.55l.84-2.35Z" style="fill-rule:evenodd;opacity:0.6000000000000001;mix-blend-mode:multiply;fill:url(#Áåçûìÿííûé_ãðàäèåíò_268-2)"/><polygon points="2042.81 654.43 2041.04 746.54 1395.83 709.37 1476.56 701.51 1455.83 697.44 1403.91 687.2 1414.14 668.76 1961.11 647.81 2042.81 654.43" style="fill-rule:evenodd;opacity:0.6000000000000001;mix-blend-mode:multiply;fill:url(#Áåçûìÿííûé_ãðàäèåíò_272)"/><polygon points="1145.01 770.62 1116.55 775.52 1096.45 785.35 1251 791.53 1507.76 791.53 1670.74 791.53 1145.01 770.62" style="fill-rule:evenodd;fill:url(#Áåçûìÿííûé_ãðàäèåíò_280)"/><rect x="-115.69" y="-1.21" width="2151.39" height="1082.41" style="opacity:0.4;mix-blend-mode:multiply;fill:url(#Áåçûìÿííûé_ãðàäèåíò_291)"/><polygon points="812.72 42.6 824.8 42.6 838.1 337.46 849.36 365.25 858.57 365.25 858.57 265.65 869.48 565.44 874.25 576.35 899.49 606.36 905.63 659.57 920.64 750.97 926.09 679.35 933.6 677.3 939.74 561.34 960 540 960 519.07 969.07 510.87 976.23 196.08 985.44 178.68 986.96 435.98 991.58 528.6 997.2 443.17 1037.62 0 812.72 0 812.72 42.6" style="fill-rule:evenodd;fill:url(#Áåçûìÿííûé_ãðàäèåíò_98)"/><polygon points="1411.62 69.85 1417.42 283.86 1426.63 292.56 1426.63 416.72 1432.26 451.66 1437.38 451.66 1451.7 256.75 1460.4 243.12 1449.65 482.35 1456.82 541.19 1460.69 606.36 1485.98 335.53 1504.9 324.28 1512.07 287.95 1517.18 282.33 1528.68 183.6 1550.22 191.66 1509.34 139.43 1510.02 127.83 1461.59 69.85 1455.45 73.94 1439.08 69.85 1399.82 57.95 1411.62 69.85" style="fill-rule:evenodd;fill:url(#Áåçûìÿííûé_ãðàäèåíò_98-2)"/><polygon points="1625.8 365.25 1634.12 540 1640.94 549.75 1649.81 775.52 1651.77 755.74 1666.86 684.12 1666.86 647.8 1669.93 678.33 1676.41 673.55 1704.36 438.46 1672.32 420.83 1625.8 365.25" style="fill-rule:evenodd;fill:url(#Áåçûìÿííûé_ãðàäèåíò_98-3)"/><polygon points="1716.26 445.01 1716.26 591.53 1719.91 706.21 1733.37 550.09 1735.9 455.82 1716.26 445.01" style="fill-rule:evenodd;fill:url(#Áåçûìÿííûé_ãðàäèåíò_98-4)"/><polygon points="1787.74 484.34 1787.74 797.35 1793.73 730.51 1800.52 653.96 1810.78 639.79 1821.7 525.88 1837.53 518.27 1824.43 504.53 1787.74 484.34" style="fill-rule:evenodd;fill:url(#Áåçûìÿííûé_ãðàäèåíò_98-5)"/><polygon points="1261.69 148.67 1235.09 289.18 1209.51 580.78 1206.44 473.86 1207.46 397.64 1202.35 394.06 1198.25 248.1 1194.67 255.42 1189.05 328.06 1181.88 365.25 1177.79 365.25 1179.15 297.37 1177.79 205.8 1162.44 180.73 1157.33 180.22 1185.46 171.01 1202.35 163.68 1201.58 157.2 1261.69 148.67" style="fill-rule:evenodd;fill:url(#Áåçûìÿííûé_ãðàäèåíò_98-6)"/><polygon points="672.35 0 672.35 231.89 672.35 254.4 692.76 417.63 694.86 342.06 710.48 98.88 715.32 90.69 723.51 0 672.35 0" style="fill-rule:evenodd;fill:url(#Áåçûìÿííûé_ãðàäèåíò_98-7)"/><polygon points="661.1 0 661.1 371.58 657 401.21 646.67 487.68 645.82 606.36 608.23 0 661.1 0" style="fill-rule:evenodd;fill:url(#Áåçûìÿííûé_ãðàäèåíò_98-8)"/><polygon points="838.1 337.46 830.43 41.58 834.26 31.86 841.68 25.21 858.57 265.65 853.19 54.88 858.57 33.91 869.31 25.21 869.31 364.73 858.57 275.32 869.48 565.44 876.23 540 876.23 357.99 887.39 303.18 895.91 540 879.2 540 874.25 576.35 899.49 606.36 905.63 659.57 920.64 750.97 905.63 619.66 901.54 57.95 916.93 25.21 926.09 679.35 933.6 677.3 925.17 64.27 945.19 10.88 960 10.88 960 519.07 969.07 17.89 976.23 10.88 976.23 196.08 985.44 178.68 986.96 435.98 998.74 57.95 1035.99 17.89 1037.62 0 969.07 0 812.72 22.12 812.72 42.6 824.8 42.6 838.1 337.46" style="fill-rule:evenodd;opacity:0.5;mix-blend-mode:multiply;fill:url(#Áåçûìÿííûé_ãðàäèåíò_226-2)"/><polygon points="608.23 0 638.55 489.21 645.82 606.36 630.06 270.26 634.66 136.45 646.67 487.68 642.17 130.59 661.1 0 608.23 0" style="fill-rule:evenodd;opacity:0.5;mix-blend-mode:multiply;fill:url(#Áåçûìÿííûé_ãðàäèåíò_226-3)"/><polygon points="672.35 0 672.35 254.4 692.76 417.63 678.88 260.46 688.21 22.14 692.76 13.44 710.48 95.81 715.32 90.69 705.6 25.21 709.71 0 672.35 0" style="fill-rule:evenodd;opacity:0.5;mix-blend-mode:multiply;fill:url(#Áåçûìÿííûé_ãðàäèåíò_226-4)"/><polygon points="1162.44 180.73 1177.79 205.8 1177.79 365.25 1184.95 232.91 1193.14 199.66 1194.67 255.42 1196.58 251.52 1202.35 394.06 1205.42 191.66 1213.94 180.73 1207.46 397.64 1206.44 473.86 1209.36 575.5 1213.94 356.51 1226.83 153.62 1253.5 153.62 1235.84 285.19 1261.69 148.67 1201.58 157.2 1202.35 163.68 1162.44 180.73" style="fill-rule:evenodd;opacity:0.5;mix-blend-mode:multiply;fill:url(#Áåçûìÿííûé_ãðàäèåíò_226-5)"/><polygon points="1411.62 69.85 1417.42 283.86 1426.63 292.56 1426.63 416.72 1435.12 128.55 1443.81 100.92 1440.39 410.61 1451.43 260.46 1460.4 243.12 1449.65 482.35 1456.82 541.19 1465.81 217.56 1475.02 102.48 1497.55 135.2 1485.98 335.53 1491.65 332.16 1500.6 148.67 1507.76 161.29 1512.07 287.95 1517.18 282.33 1514.07 279.63 1514.41 164.02 1520.55 160.95 1550.22 191.66 1509.34 139.43 1510.02 127.83 1461.59 69.85 1455.45 73.94 1399.82 57.95 1411.62 69.85" style="fill-rule:evenodd;opacity:0.5;mix-blend-mode:multiply;fill:url(#Áåçûìÿííûé_ãðàäèåíò_226-6)"/><polygon points="1625.8 365.25 1634.12 540 1640.94 549.75 1649.81 775.52 1652.79 598.86 1658.67 438.2 1658.67 606.36 1666.86 654.45 1666.86 504.53 1678.86 438.2 1692.44 445.01 1676.41 673.55 1705.37 439.02 1672.32 420.83 1625.8 365.25" style="fill-rule:evenodd;opacity:0.5;mix-blend-mode:multiply;fill:url(#Áåçûìÿííûé_ãðàäèåíò_226-7)"/><polygon points="1716.26 445.01 1715.83 607.05 1719.91 706.21 1719.91 540 1726.08 459.03 1734.15 466.45 1733.37 550.09 1735.9 455.82 1716.26 445.01" style="fill-rule:evenodd;opacity:0.5;mix-blend-mode:multiply;fill:url(#Áåçûìÿííûé_ãðàäèåíò_226-8)"/><polygon points="1787.74 484.34 1787.74 797.35 1792.37 594.77 1798.85 515.3 1802.26 506.78 1800.52 653.96 1804.98 647.8 1802.6 649 1801.32 641.66 1809.85 510.44 1821.7 525.88 1837.53 518.27 1824.43 504.53 1787.74 484.34" style="fill-rule:evenodd;opacity:0.5;mix-blend-mode:multiply;fill:url(#Áåçûìÿííûé_ãðàäèåíò_226-9)"/><polygon points="868.8 0 867.62 350.69 876.23 357.99 887.39 303.18 894.72 0 868.8 0" style="fill-rule:evenodd;opacity:0.5;mix-blend-mode:multiply;fill:url(#Áåçûìÿííûé_ãðàäèåíò_226-10)"/><polygon points="985.44 178.68 991.06 0 976.23 -2.42 976.23 196.08 985.44 178.68" style="fill-rule:evenodd;opacity:0.5;mix-blend-mode:multiply;fill:url(#Áåçûìÿííûé_ãðàäèåíò_226-11)"/><polygon points="2040 0 2040 730.51 1824.43 504.53 1672.32 420.83 1483.1 194.78 1484.74 190.28 1547.49 217.56 1596.04 256.72 1595.24 247.58 1419.26 78.41 1399.82 57.95 1399.82 43.63 1428.29 37.49 1665.08 107.06 1409.02 0 2040 0" style="fill-rule:evenodd;fill:url(#Áåçûìÿííûé_ãðàäèåíò_47)"/><polygon points="1428.29 37.49 1585.02 108.4 1625.8 126.84 1597.29 121.97 1559.09 107.06 1636.06 148.67 1628.66 133.66 1636.06 133.66 1753.49 179.37 1785.55 186.87 1870.81 206.44 1932.88 217.56 1963.58 229.84 1994.27 232.91 1934.24 214.84 1781.8 175.61 1755.53 168.11 1773.27 176.64 1776.25 175.27 1778.98 176.21 1803.11 184.65 1810.1 190.11 1770.45 180.3 1625.93 109.11 1605.98 96.32 1619.28 94.27 1428.29 37.49" style="fill:#7997cc;fill-rule:evenodd"/><path d="M2040,330.8l-97.2-44.6-62.07-38.64,22.06,24.57,26.67,6.83,17.1,20.6,10.28,12.29-54-20.44-60.59-20.65-29.54-16.39,18.44,14.25-12.42,3.46-6,4.32-37.07-7.78-10.47-8.34-12.29-13,2.57-3.32-1.27-7.18-27.65-13-67.78-38.88,42,27.29,11.93,5.46,3.27,2.86,55.38,48.19L1795.08,279l24.57,7.24L1878,306l51.46,31.43,43.69,30.86,32.08,6.13,13.63,16.39L2040,445Zm-44.3,35.37L1982,367.71l-9.72-1.4-19.71-15-7.66-8.69v-8.32l42.06,8.05,8.7,12.52Z" style="fill:#97aed7;fill-rule:evenodd"/><polygon points="1784.18 194.03 1808.74 197.44 1851.71 212.11 1877.97 223.7 1844.72 212.96 1839.79 212.28 1845.57 215.69 1852.56 222.17 1813.51 214.32 1788.96 197.78 1791.52 197.44 1784.18 194.03" style="fill:#7997cc;fill-rule:evenodd"/><polygon points="1672.32 420.83 1859.9 518.27 1967.43 585.46 1945.6 555.16 1694.83 342.06 1712.56 365.25 1719.91 396.27 1547.49 217.56 1596.04 256.72 1595.24 247.58 1625.8 276.22 1769.86 390.82 1939.02 504.53 1985.4 518.27 1973.13 368.32 1940.38 341.71 1774.63 246.89 1762.36 235.3 1639.58 158.22 1842.16 270.77 1926.74 299.57 1625.8 126.84 1428.29 37.49 1660.64 105.21 1726.08 123.43 1994.27 232.91 2020.87 229.84 1961.1 179.71 1951.3 181.75 1882.75 140.31 1890.93 139.29 2013.2 205.28 2032.13 205.8 2021.9 85.58 1997.34 64.09 1719.91 0 2040 0 2040 730.51 1824.43 504.53 1672.32 420.83" style="fill-rule:evenodd;opacity:0.6000000000000001;mix-blend-mode:multiply;fill:url(#Áåçûìÿííûé_ãðàäèåíò_150-27)"/><polygon points="1550.22 0 1615.7 25.21 1734.15 65.11 1745.64 57.95 1880.7 128.55 1520.55 0 1550.22 0" style="fill-rule:evenodd;opacity:0.6000000000000001;mix-blend-mode:multiply;fill:url(#Áåçûìÿííûé_ãðàäèåíò_150-28)"/><polygon points="1399.82 43.63 1484.06 117.29 1510.02 127.83 1665.08 223.7 1399.82 43.63" style="fill-rule:evenodd;opacity:0.6000000000000001;mix-blend-mode:multiply;fill:url(#Áåçûìÿííûé_ãðàäèåíò_150-29)"/><polygon points="1660.64 105.21 1428.29 37.49 1625.8 126.84 1734.15 143.21 1929.43 206.44 1726.08 123.43 1660.64 105.21" style="fill-rule:evenodd;opacity:0.6000000000000001;mix-blend-mode:multiply;fill:url(#Áåçûìÿííûé_ãðàäèåíò_150-30)"/><polygon points="2040 554.18 1985.4 518.27 1939.02 504.53 1769.86 390.82 1762.28 399.38 1945.6 555.16 1967.43 585.46 2043.23 654.45 2040 554.18" style="fill-rule:evenodd;opacity:0.6000000000000001;mix-blend-mode:multiply;fill:url(#Áåçûìÿííûé_ãðàäèåíò_150-31)"/><polygon points="1926.74 299.57 1845.23 271.81 1639.58 158.22 1762.36 235.3 2040 379.05 2040 345.8 1926.74 299.57" style="fill-rule:evenodd;opacity:0.6000000000000001;mix-blend-mode:multiply;fill:url(#Áåçûìÿííûé_ãðàäèåíò_150-32)"/><polygon points="1547.49 217.56 1644.51 318.12 1724.63 354.84 1595.24 247.58 1596.04 256.72 1547.49 217.56" style="fill-rule:evenodd;opacity:0.6000000000000001;mix-blend-mode:multiply;fill:url(#Áåçûìÿííûé_ãðàäèåíò_150-33)"/><polygon points="1484.74 190.28 1520.55 226.52 1526.18 235.21 1541.11 264.08 1559.63 286.2 1541.01 259.51 1531.8 238.24 1533.47 234.32 1541.39 232.01 1551.5 244.29 1551.24 261.56 1550.22 268.64 1551.41 271.28 1551.24 267.44 1552.69 257.38 1555.59 245.87 1569.66 265.91 1581.43 293.53 1604.45 318.6 1652.79 342.39 1652.79 339.57 1634.12 327.81 1627.72 308.11 1627.85 300.85 1652.79 326.71 1582.45 251 1547.49 217.56 1484.74 190.28" style="fill:#97aed7;fill-rule:evenodd"/><polygon points="1914.12 334.34 1889.23 318.51 1872.86 311.01 1863.65 311.01 1894.68 334.34 1914.12 334.34" style="fill:#97aed7;fill-rule:evenodd"/><polygon points="1859.96 395.86 1880.77 408.23 1926.07 445.46 1956.65 462.68 1948.51 458.18 1935.45 440.43 1964.28 464.36 1961.67 466.67 1959.57 471.5 1968.29 480.55 1903.05 433.05 1859.96 395.86" style="fill:#97aed7;fill-rule:evenodd"/><polygon points="1735.9 455.82 1773.61 470.28 1824.43 504.53 1735.9 455.82" style="fill:#97aed7;fill-rule:evenodd"/><polygon points="1550.22 0 1734.15 65.11 1745.64 57.95 1824.83 99.34 1794.76 75.6 1787.59 74.58 1776.08 68.18 1774.8 60.25 1824.83 64.27 1944.91 90.01 1985.4 99.34 1911.05 77.73 1886.84 75 1877.97 64.27 1880.7 52.15 1891.95 49.67 1822.72 33.4 1796.12 28.96 1774.29 27.6 1803.96 33.27 1808.18 32.24 1839.26 39.02 1854.99 55.01 1844.76 58.21 1806.01 59.36 1678.86 22.14 1625.93 0 1550.22 0" style="fill:#97aed7;fill-rule:evenodd"/><polygon points="-120 1038.14 -90.91 1080 -60.23 870.34 -39.77 827.37 60.5 169.82 183.28 108.43 235.12 108.43 379.73 255.76 389.96 258.49 439.4 377.83 481.36 401.05 489.55 393.55 518.2 345.8 518.2 317.83 546.84 232.57 536.61 223.02 546.84 223.7 699.13 38.2 969.07 0 -120 0 -120 1038.14" style="fill-rule:evenodd;fill:url(#Áåçûìÿííûé_ãðàäèåíò_191)"/><polygon points="-39.77 827.37 25.24 401.05 10.37 445.22 15.74 439.59 14.46 451.87 4.74 507.12 -21.86 566.97 -33.12 586.41 -8.39 487.68 3.72 455.96 -16.23 497.74 -27.83 532.7 3.38 333.87 25.24 289.18 48.29 232.91 48.29 249.92 55.82 200.53 43.34 231.72 45.16 232.91 19.92 293.28 5.88 320.02 6.86 314.61 -20.07 403.08 -23.4 414.01 -15.21 401.05 -12.65 398.41 -29.75 459.27 -80.69 581.13 -107.98 619.66 -101.16 534.06 -116.16 633.47 -120 683.44 -104.57 626.78 -58.18 581.13 -48.38 591.53 -57.95 639.69 -107.98 872.38 -73.92 762.57 -62.28 727.1 -73.19 807.58 -73.19 863.9 -39.77 827.37" style="fill:#97aed7;fill-rule:evenodd"/><polygon points="481.36 401.05 439.4 377.83 389.96 258.49 376.38 255.97 265.79 140.46 309.81 180.39 329.59 189.94 338.78 214.04 349.03 217.22 374.61 223.02 343.58 180.73 308.45 145.34 351.45 173.64 349.37 169.07 348.35 159.24 382.46 190.62 371.2 188.91 404.26 213.51 404.26 208.35 394.05 169.07 387.02 90.39 412.46 188.4 426.97 198.01 436.51 223.7 421.17 0 452.88 163.34 457.49 249.17 465.16 249.17 487.16 232.57 489.55 226.77 536.61 223.02 546.84 232.57 518.2 317.83 518.2 345.8 489.55 393.55 481.36 401.05" style="fill:#97aed7;fill-rule:evenodd"/><polygon points="-26.6 741.03 -39.77 827.37 -73.19 863.9 -73.19 802.47 -49.9 637.74 -49.9 674.96 -13.85 417.63 -73.19 716.43 -107.98 872.38 -116.16 877.84 -116.16 633.47 -101.16 534.06 -32.95 303.18 -7.03 279.19 10.03 258.49 -8.39 399 21.62 232.91 30.49 220.29 60.5 169.82 -8.39 232.91 -52.05 310.13 -85.81 449.79 -105.25 482.9 -98.09 232.91 -27.83 0 -68.93 0 -88.88 89.16 -93.48 130.08 -78.14 77.39 -61.25 49.77 -120 232.91 -119.57 936.84 -68.63 927.76 -60.23 870.34 -34.31 825.32 -26.6 741.03" style="fill-rule:evenodd;opacity:0.6000000000000001;mix-blend-mode:multiply;fill:url(#Áåçûìÿííûé_ãðàäèåíò_150-34)"/><polygon points="235.12 108.43 230.86 92.23 204.77 66.65 159.24 0 168.44 0 291.74 128.55 424.53 228.82 426.97 219.1 424.53 194.03 436.51 223.7 442.14 147.99 421.17 0 449.81 0 457.49 260.46 479.32 373.6 466.18 348.02 465.16 362.85 489.55 393.55 481.36 401.05 439.4 377.83 389.96 258.49 376.38 255.97 235.12 108.43" style="fill-rule:evenodd;opacity:0.6000000000000001;mix-blend-mode:multiply;fill:url(#Áåçûìÿííûé_ãðàäèåíò_150-35)"/><polygon points="546.84 232.57 491.11 236.66 484.43 240.07 460.35 275.32 457.49 260.46 487.16 232.57 502.17 130.25 489.55 149.11 516.83 -2.08 546.84 -1.79 514.44 108.43 489.55 226.77 494.32 227.11 568.68 -2.42 599.37 -2.42 510.69 225.75 536.61 223.02 546.84 232.57" style="fill-rule:evenodd;opacity:0.6000000000000001;mix-blend-mode:multiply;fill:url(#Áåçûìÿííûé_ãðàäèåíò_150-36)"/><polygon points="619.8 -2.42 673.37 24.19 699.13 38.2 969.07 0 619.8 -2.42" style="fill-rule:evenodd;opacity:0.6000000000000001;mix-blend-mode:multiply;fill:url(#Áåçûìÿííûé_ãðàäèåíò_150-37)"/><polygon points="389.96 258.49 420.66 258.49 433.16 260.46 465.16 362.85 489.55 393.55 481.36 401.05 439.4 377.83 389.96 258.49" style="fill-rule:evenodd;opacity:0.6000000000000001;mix-blend-mode:multiply;fill:url(#Áåçûìÿííûé_ãðàäèåíò_150-38)"/><polygon points="-120 249.17 -78.06 166.52 -29.75 53.86 -32.09 78.41 -17.26 53.86 23.67 0 43.34 0 10.03 62.04 -73.92 176.64 -53.41 136.45 -32.09 90.01 -112.75 246.89 -121.62 269.4 -98.55 249.17 -8.39 145.34 43.34 73.64 33.9 78.75 -8.39 123.09 89.15 0 100.75 0 60.5 48.06 47.2 72.28 104.3 41.24 145.42 0 151.22 0 -12.48 159.93 -119.59 275.32 -120 249.17" style="fill:#97aed7;fill-rule:evenodd"/><polygon points="235.12 108.43 230.86 92.23 204.77 66.65 201.74 34.72 291.74 128.55 424.53 228.82 376.38 255.97 235.12 108.43" style="fill-rule:evenodd;opacity:0.6000000000000001;mix-blend-mode:multiply;fill:url(#Áåçûìÿííûé_ãðàäèåíò_150-39)"/><polygon points="159.24 0 171.69 38.2 129.05 83.87 43.34 169.82 -8.39 232.91 21.62 232.91 60.5 169.82 183.28 108.43 235.12 108.43 230.86 92.23 159.24 0" style="fill-rule:evenodd;opacity:0.8;mix-blend-mode:multiply;fill:url(#Áåçûìÿííûé_ãðàäèåíò_150-40)"/><polygon points="424.53 228.82 457.49 260.46 487.16 232.57 489.55 226.77 536.61 223.02 546.84 232.57 491.11 236.66 484.43 240.07 460.35 275.32 433.16 260.46 420.66 258.49 389.96 258.49 376.38 255.97 424.53 228.82" style="fill-rule:evenodd;opacity:0.8;mix-blend-mode:multiply;fill:url(#Áåçûìÿííûé_ãðàäèåíò_150-41)"/><polygon points="387.02 90.39 400.87 54.88 409.74 45.67 423.79 38.2 425.58 64.29 420.65 53.18 404.26 57.27 387.02 90.39" style="fill:#97aed7;fill-rule:evenodd"/><polygon points="374.61 95.47 374.61 68.18 342.7 17.89 358.65 56.68 374.61 95.47" style="fill:#97aed7;fill-rule:evenodd"/><polygon points="1102.76 0 1124.59 207.33 1138.91 216.54 1145.05 342.06 1149.82 383.31 1157.33 383.31 1157.33 337.46 1179.15 297.37 1202.35 163.68 1261.69 148.67 1276.01 137.76 1325.13 0 1102.76 0" style="fill-rule:evenodd;fill:url(#Áåçûìÿííûé_ãðàäèåíò_12-2)"/><polygon points="1122.54 187.89 1122.54 17.89 1137.89 6.79 1149.14 135.2 1135.84 203.92 1124.59 207.33 1138.91 216.54 1144.03 186.53 1175.06 85.23 1188.7 72.96 1166.19 285.19 1155.62 302.49 1139.71 232.91 1144.57 332.16 1149.82 383.31 1157.33 383.31 1157.33 337.46 1155.62 320.65 1170.63 285.19 1196.21 85.58 1202.35 0 1215.55 0 1201.87 148.67 1179.15 297.37 1202.35 163.68 1209.51 161.87 1226.39 38.2 1237.64 17.89 1235.21 77.29 1242.18 43.63 1245.83 18.39 1261.69 6.03 1240.71 143.38 1209.51 161.87 1261.69 148.67 1276.01 137.76 1249.92 135.2 1249.41 111.16 1277.04 0 1102.76 0 1122.54 187.89" style="fill-rule:evenodd;opacity:0.6000000000000001;mix-blend-mode:multiply;fill:url(#Áåçûìÿííûé_ãðàäèåíò_150-42)"/><polygon points="376.68 1058.74 279.46 1082.41 210.55 1010.6 121.89 1023.3 119.39 821.22 119.88 812.53 130.36 803.62 116.76 270.88 120.52 265.16 126.53 261.14 118.39 242.04 145.5 198.01 152.6 169.07 177.14 154.99 213.39 277.96 209.63 283.67 256.8 518.25 259.09 519.29 265.79 522.31 323.41 855.79 318.93 862.82 311.03 875.3 322.37 874.16 376.68 1058.74" style="fill-rule:evenodd;fill:url(#Áåçûìÿííûé_ãðàäèåíò_79)"/><polygon points="177.14 154.99 152.6 169.07 145.5 198.01 118.39 242.04 125.98 236.49 138.01 220.38 136.73 217.56 143.41 204.96 147.77 207.08 140.56 226 140.84 237.75 143.66 248.62 137.75 254.4 126.53 261.14 120.52 265.16 116.76 270.88 117.56 302.24 119.45 376.17 120.87 344.69 120.36 334.71 123.43 314.51 131.61 304.79 134.94 311.69 135.45 329.77 135.53 343.75 140.65 405.82 141.33 373.08 139.63 374.45 137.41 347.16 137.75 334.88 139.8 323.97 145.08 325.51 150.16 343.74 152.55 417.75 154.94 491.54 156.68 401.05 153.95 397.47 153.95 390.82 162.69 344.78 165.89 340.34 169.3 356.03 177.14 366.6 180.34 394.23 190.78 439.93 186.01 374.79 180.34 375.47 180.34 344.78 182.6 295.66 190.78 290.89 201.74 298.39 208.18 355.35 211.25 384.68 211.25 468.42 207.16 491.54 206.47 528.94 192.49 461.42 201.36 533.72 207.5 559.22 207.07 530.14 208.86 530.39 207.16 491.54 214.66 495.18 214.66 443 214.66 417.42 224.21 407.53 236.92 419.38 209.63 283.67 213.39 277.96 177.14 154.99" style="fill:#aabdf9;fill-rule:evenodd"/><polygon points="318.93 862.82 311.03 875.3 262.74 859.48 204 849.02 193.5 842.87 210.55 1010.6 121.89 1023.3 119.39 821.22 119.88 812.53 130.36 803.62 116.76 270.88 120.52 265.16 126.53 261.14 118.39 242.04 145.5 198.01 152.6 169.07 162.98 169.66 155.69 206.12 140.84 237.75 143.66 248.62 157.38 268.44 167.25 266.05 203.69 282.96 213.39 277.96 209.63 283.67 207.03 287.61 172.06 271.94 155.3 273.66 148.15 281.88 158.18 591.55 171.07 596.39 184.57 593.05 216.31 569.87 256.8 518.25 259.88 518.24 259.09 519.29 220.66 571.31 180.44 599.53 161.75 604.02 184.23 605.3 202.73 833.26 243.93 853.55 263.53 857.33 301.22 867.59 318.93 862.82" style="fill-rule:evenodd;opacity:0.6000000000000001;mix-blend-mode:multiply;fill:url(#Áåçûìÿííûé_ãðàäèåíò_150-43)"/><polygon points="243.93 853.55 204 849.02 193.5 842.87 210.55 1010.6 121.89 1023.3 119.88 812.53 136.22 812.53 157.58 814.26 130.36 803.62 116.76 270.88 136.9 270.88 151.22 270.88 126.53 261.14 118.39 242.04 145.5 198.01 155.69 206.12 140.84 237.75 143.66 248.62 157.38 268.44 167.25 266.05 172.06 271.94 155.3 273.66 148.15 281.88 158.18 591.55 171.07 596.39 184.57 593.05 180.44 599.53 161.75 604.02 184.23 605.3 202.73 833.26 243.93 853.55" style="fill-rule:evenodd;opacity:0.6000000000000001;mix-blend-mode:multiply;fill:url(#Áåçûìÿííûé_ãðàäèåíò_150-44)"/><polygon points="161.75 604.02 184.23 605.3 198.06 604.02 222.93 576.44 240.07 548.04 265.79 522.31 259.09 519.29 238.05 547.77 217.84 573.28 180.44 599.53 161.75 604.02" style="fill:#857276;fill-rule:evenodd"/><polygon points="193.5 842.87 201.36 858.06 236.83 861.13 293.01 874.43 324.2 880.35 321.41 871.36 310.65 872.38 293.01 869.4 241.64 853.29 193.5 842.87" style="fill:#857276;fill-rule:evenodd"/><polygon points="283.84 626.78 276.29 671.85 273.31 658.21 258.85 596.18 242.42 596.18 263.13 829.47 285.6 829.47 285.6 770.62 296.91 847.83 318.93 862.82 324.39 851.09 283.84 626.78" style="fill:#a29396;fill-rule:evenodd;mix-blend-mode:soft-light"/><polygon points="241.64 853.29 229.84 755.74 204.7 658.21 198.06 658.21 229.84 846.61 241.64 853.29" style="fill:#a29396;fill-rule:evenodd;mix-blend-mode:soft-light"/><polygon points="376.68 1058.74 324.2 880.35 293.01 874.43 308.11 923.5 334.85 1046.32 341.1 1049.39 316.8 942.64 318.93 936.84 350.57 1065.1 376.68 1058.74" style="fill:#a29396;fill-rule:evenodd;mix-blend-mode:soft-light"/><polygon points="180.44 599.53 158.18 591.55 156.29 421.17 161.75 401.05 180.44 583.34 180.44 599.53" style="fill:#a29396;fill-rule:evenodd;mix-blend-mode:soft-light"/><polygon points="-120 890.8 -104.23 890.8 -81.72 916.38 -60.23 870.34 -39.26 772.63 -29.59 760.65 -17.77 755.74 32.37 770.58 131.1 858.57 151.56 861.64 182.77 828.9 205.28 827.88 325.84 898.99 336.07 894.21 390.64 858.06 406.33 862.84 440.44 945.37 732.72 1008.46 840.15 1008.46 872.21 996.53 898.13 990.39 931.55 1001.3 960 976.75 969.07 954.24 1053.65 902.4 1067.97 901.03 1100.03 911.95 1128 896.94 1143 893.53 1295.11 882.1 1302.62 890.12 1284.88 960.38 1361.96 948.78 1371.51 953.55 1384.47 1008.46 1403.91 998.23 1429.49 1008.46 1437.67 1016.65 1526.69 1016.65 1637.19 969.58 1649.47 969.58 1694.48 912.29 1712.23 911.26 1704.72 990.05 1739.5 977.77 1775.32 990.05 1814.19 1029.95 1912.42 892.85 1999.39 808.95 2009.62 806.9 2032.13 885.68 2016.78 969.58 2040 964.47 2040 1080 -120 1080 -120 890.8" style="fill-rule:evenodd;fill:url(#Áåçûìÿííûé_ãðàäèåíò_23)"/><polygon points="1837.53 888.75 1858.19 891.14 1902.76 888.75 1748.65 881.17 1829.06 892.9 1837.53 888.75" style="fill-rule:evenodd;fill:url(#Áåçûìÿííûé_ãðàäèåíò_218-3)"/><polygon points="1988.64 1008.46 1979.95 1016.99 1941.07 1049.39 1967.44 1033.03 1976.37 1028.08 2003.99 1024.79 1990.69 1035.02 1954.88 1056.04 1895.02 1071.39 1908.84 1064.69 1929.3 1052.97 1883.77 1071.39 1841.83 1080 1889.91 1080 1961.1 1080 1952.32 1070.37 1967.44 1060.13 2023.43 1024.79 2032.13 1019.72 2020.87 1018.7 1988.64 1008.46" style="fill:#aabdf9;fill-rule:evenodd"/><polygon points="32.37 770.58 76.2 809.64 87.62 826.34 104.3 848.34 121.89 864.46 99.64 849.88 98.1 843.18 79.43 825.58 60.5 827.37 60.5 849.62 84.55 852.43 94.27 852.69 72.52 853.97 46.95 850.39 46.43 868.29 50.78 883.38 78.92 910.5 85.82 919.55 89.15 945.37 93.75 941.96 93.19 959.57 121.89 1023.3 162.69 1080 143.41 1080 87.62 1080 70.73 1046.32 28.78 948.61 -2.42 906.15 18.04 945.37 20.6 969.75 6.79 936.84 -29.75 914.85 -53.07 914.85 -38.23 945.37 31.85 1014.6 55.82 1064.69 -67.19 917.87 -81.72 916.38 -60.23 870.34 -39.26 772.63 -29.59 760.65 -17.77 755.74 32.37 770.58" style="fill:#aabdf9;fill-rule:evenodd"/><polygon points="491.11 1080 440.44 1019.15 385.23 952.87 385.23 961.59 395.76 987.1 362.33 936.84 344.64 927.76 325.84 898.99 336.07 894.21 390.64 858.06 406.33 862.84 440.44 945.37 498.22 1011.77 483.61 998.35 433.16 961.59 440.44 961.59 457.32 969.03 423.65 930.26 397.12 911.26 424.54 952.87 430.37 961.59 420.14 952.87 409.4 948.35 423.65 966.26 465.67 1042.23 491.11 1080" style="fill:#aabdf9;fill-rule:evenodd"/><polygon points="205.28 827.88 241.94 854.31 249.44 863.18 265.13 874.77 241.6 866.48 246.72 864.97 233.42 858.06 195.81 851.32 198.06 866.48 211.42 877.76 221.91 901.66 227.55 914.85 193 872.38 174.33 863.69 151.56 861.64 182.77 828.9 205.28 827.88" style="fill:#aabdf9;fill-rule:evenodd"/><polygon points="1906.81 1008.46 1932.88 984.25 1956.76 941.75 1952.66 929.68 1945.16 939.4 1902.76 969.75 1924.7 948.78 1961.1 901.03 1970.74 872.04 1966.3 863.9 1958.46 867.27 1941.07 865.21 1999.39 808.95 2009.62 806.9 2032.13 885.68 2016.78 969.58 2016.78 954.58 2022.24 907.68 2023.94 887.04 2013.03 883.3 2000.75 915.7 1992.22 947.08 2006.21 959.01 2012.01 959.01 2004.5 963.79 1989.84 964.47 1964.26 983.23 1954.88 992.09 1906.81 1008.46" style="fill:#aabdf9;fill-rule:evenodd"/><polygon points="440.44 945.37 507.52 1022.45 551.62 1043.59 579.24 1044.15 655.45 1045.67 707.65 1046.32 702.09 1037.47 590.5 1028.88 546.84 1010 533.3 1001.39 527.06 997.42 582.31 1010 728.06 1029.54 666.89 1014.6 604.82 1008.72 636.54 1014.6 635.49 1017.13 586.66 1009.36 551.62 1000.28 538.45 989.92 595.74 1005.91 601.24 1007.06 516.58 976.75 481.79 963.45 498.22 962.68 535.18 965.82 440.44 945.37" style="fill:#aabdf9;fill-rule:evenodd"/><polygon points="1143 893.53 1128 896.94 1025.2 945.37 1095.26 919.45 1106.85 919.45 1143 924.91 1130.04 939.4 1122.54 934.46 1093.89 948.78 1136.35 943.45 1222.36 912.63 1260.41 912.63 1254.87 921.15 1267.15 945.37 1219.98 979.82 1215.78 1012.39 1191.43 1014.49 1118.45 1028.08 1072.4 1029.61 1065.92 1042.23 1095.26 1042.23 1136.35 1030.68 1241.99 1014.49 1267.15 1011.98 1267.15 1003.4 1319.6 955.15 1284.88 960.38 1302.62 890.12 1295.11 882.1 1143 893.53" style="fill:#aabdf9;fill-rule:evenodd"/><polygon points="392.52 962.42 356.19 914.85 360.29 897.45 389.84 862.84 406.33 862.84 390.64 858.06 336.07 894.21 325.84 898.99 350.57 936.84 354.1 940.77 351.59 949.12 346.48 958.33 266.67 962.93 260.01 952.87 193 872.38 179.19 843.18 182.77 828.9 151.56 861.64 131.1 858.57 188.4 906.66 183.79 917.87 165.38 922.52 55.82 917.87 43.34 917.87 34.41 917.87 24.18 889.78 -10.1 829.47 -17.77 768.53 -17.77 796.67 -17.77 817.13 -22.8 807.41 -27.83 767 -17.77 755.74 -29.59 760.65 -39.26 772.63 -60.23 870.34 -81.72 916.38 60.5 1080 143.41 1080 78.92 976.7 65.18 952.87 179.19 980.15 198.06 972.65 217.04 952.87 295.32 1080 308.11 1080 276.9 1012.04 273.31 975.21 288.15 975.21 351.59 962.93 355.91 942.78 479.32 1080 491.11 1080 439.58 1012.56 392.52 962.42" style="fill-rule:evenodd;opacity:0.6000000000000001;mix-blend-mode:multiply;fill:url(#Áåçûìÿííûé_ãðàäèåíò_150-45)"/><polygon points="1371.51 953.55 1361.96 948.78 1322.4 1001.98 1295.38 1006.08 1252.14 1001.98 1284.88 960.38 1302.62 890.12 1267.15 945.37 1215.78 982.88 1185.29 991.07 1029.09 1001.98 991.06 997.38 969.07 978.11 978.62 966.17 1100.03 911.95 1067.97 901.03 1072.4 912.63 1004.54 945.37 969.07 954.24 960 976.75 931.55 1001.3 898.13 990.39 905.29 1001.98 869.82 1008.12 840.15 1008.46 896.76 1014.94 1301.93 1011.7 1354.8 1032 900.51 1029.27 732.72 1008.46 893.35 1032 841.17 1046.32 551.62 1027.9 516.83 1014.6 440.44 945.37 507.52 1022.45 551.62 1043.59 839.64 1049.39 911.26 1042.23 1370.14 1042.23 1384.47 1008.46 1371.51 953.55" style="fill-rule:evenodd;opacity:0.6000000000000001;mix-blend-mode:multiply;fill:url(#Áåçûìÿííûé_ãðàäèåíò_150-46)"/><polygon points="1429.49 1008.46 1419.26 1016.99 1377.99 1042.23 1403.74 1038.14 1433.24 1028.24 1526.69 1016.65 1437.67 1016.65 1429.49 1008.46" style="fill-rule:evenodd;opacity:0.6000000000000001;mix-blend-mode:multiply;fill:url(#Áåçûìÿííûé_ãðàäèåíò_150-47)"/><polygon points="1637.19 969.58 1641.79 978.28 1620.31 1028.93 1526.69 1016.65 1553.29 1021.94 1601.72 1027.73 1612.46 1034.04 1593.88 1080 1615.02 1080 1649.47 969.58 1637.19 969.58" style="fill-rule:evenodd;opacity:0.6000000000000001;mix-blend-mode:multiply;fill:url(#Áåçûìÿííûé_ãðàäèåíò_150-48)"/><path d="M2016.78,969.58l15.35-83.89-22.51-78.79L1999.39,809l17.39,54.95-8.7,23.14-53.2,105.05L1856.66,1030s-27.64,6.14-31,6.14-11.51-6.14-11.51-6.14l-38.88-39.9,17.91,31.2-22.51,9.21-70.6,5.63-27.88-8.95,17.14-28.4,15.35-8.69,7.51-78.79-17.74,1,9.87,5.58-12.6,67.06-8.53,12.45L1643.67,1080H1834.4l3.13-29.59,103.54-42h47.57l32.23,10.24L1940,1072.92l-50.13,7.08H2040V964.47Z" style="fill-rule:evenodd;opacity:0.6000000000000001;mix-blend-mode:multiply;fill:url(#Áåçûìÿííûé_ãðàäèåíò_150-49)"/><polygon points="1770.71 1030.46 1770.71 1080 1834.4 1080 1837.53 1050.41 1870.74 1036.96 1856.66 1029.95 1825.7 1036.09 1814.19 1029.95 1775.32 990.05 1793.22 1021.25 1770.71 1030.46" style="fill-rule:evenodd;opacity:0.5;mix-blend-mode:multiply;fill:url(#Áåçûìÿííûé_ãðàäèåíò_150-50)"/><polygon points="1654.58 963.1 1665.58 952.19 1677.95 939.03 1682.89 933.77 1677.95 943.45 1665.08 963.1 1659.69 976.17 1659.69 965.49 1654.58 976.17 1647.41 993.46 1656.29 982.88 1659.69 980.5 1651.85 999.26 1629.26 1054.25 1668.22 969.58 1682.89 951.17 1688.01 948.78 1690.73 957.31 1691.76 984.93 1700.62 961.74 1707.1 964.81 1712.23 911.26 1694.48 912.29 1654.58 963.1" style="fill:#aabdf9;fill-rule:evenodd"/><polygon points="1691.76 984.93 1683.23 997.38 1643.67 1080 1667.71 1080 1672.23 1027.14 1689.37 998.74 1704.72 990.05 1712.23 911.26 1704.36 917.87 1691.76 984.93" style="fill-rule:evenodd;opacity:0.5;mix-blend-mode:multiply;fill:url(#Áåçûìÿííûé_ãðàäèåíò_150-51)"/><polygon points="1620.31 1028.93 1601.72 1027.73 1612.46 1034.04 1593.88 1080 1615.02 1080 1647.41 976.17 1641.79 978.28 1620.31 1028.93 1620.31 1028.93" style="fill-rule:evenodd;opacity:0.5;mix-blend-mode:multiply;fill:url(#Áåçûìÿííûé_ãðàäèåíò_150-52)"/><polygon points="1419.26 1016.99 1433.24 1028.24 1403.74 1038.14 1377.99 1042.23 1419.26 1016.99" style="fill-rule:evenodd;opacity:0.5;mix-blend-mode:multiply;fill:url(#Áåçûìÿííûé_ãðàäèåíò_150-53)"/><polygon points="1361.96 948.78 1322.4 1001.98 1295.38 1006.08 1301.93 1011.7 1354.8 1032 1136.35 1030.68 1146.07 1042.23 1370.14 1042.23 1384.47 1008.46 1371.51 953.55 1361.96 948.78" style="fill-rule:evenodd;opacity:0.5;mix-blend-mode:multiply;fill:url(#Áåçûìÿííûé_ãðàäèåíò_150-54)"/><polygon points="1267.15 945.37 1215.78 982.88 1185.29 991.07 1181.37 1012.67 1246.35 1012.15 1252.14 1001.98 1284.88 960.38 1302.62 890.12 1267.15 945.37" style="fill-rule:evenodd;opacity:0.5;mix-blend-mode:multiply;fill:url(#Áåçûìÿííûé_ãðàäèåíò_150-55)"/><polygon points="978.62 966.17 969.07 954.24 1004.54 945.37 1072.4 912.63 1067.59 926.44 978.62 966.17" style="fill-rule:evenodd;opacity:0.5;mix-blend-mode:multiply;fill:url(#Áåçûìÿííûé_ãðàäèåíò_150-56)"/><polygon points="-39.26 772.63 -27.83 767 -22.8 807.41 -17.77 817.13 -10.1 829.47 24.18 889.78 34.41 917.87 127.33 920.9 179.19 980.15 65.18 952.87 143.41 1080 60.5 1080 -81.72 916.38 -60.23 870.34 -39.26 772.63" style="fill-rule:evenodd;opacity:0.6000000000000001;mix-blend-mode:multiply;fill:url(#Áåçûìÿííûé_ãðàäèåíò_150-57)"/><polygon points="151.56 861.64 188.4 906.66 217.04 952.87 295.32 1080 308.11 1080 276.9 1012.04 273.31 975.21 266.67 962.93 193 872.38 179.19 843.18 151.56 861.64" style="fill-rule:evenodd;opacity:0.6000000000000001;mix-blend-mode:multiply;fill:url(#Áåçûìÿííûé_ãðàäèåíò_150-58)"/><polygon points="356.19 914.85 344.64 927.76 355.91 942.78 479.32 1080 491.11 1080 439.58 1012.56 356.19 914.85" style="fill-rule:evenodd;opacity:0.6000000000000001;mix-blend-mode:multiply;fill:url(#Áåçûìÿííûé_ãðàäèåíò_150-59)"/><polygon points="516.83 1014.6 507.52 1022.45 551.62 1043.59 841 1049.39 841.17 1046.32 551.62 1027.9 516.83 1014.6" style="fill-rule:evenodd;opacity:0.6000000000000001;mix-blend-mode:multiply;fill:url(#Áåçûìÿííûé_ãðàäèåíò_150-60)"/><polygon points="931.55 1001.3 953.73 1014.49 1080.08 1013.48 1029.09 1001.98 991.06 997.38 969.07 978.11 931.55 1001.3" style="fill-rule:evenodd;opacity:0.5;mix-blend-mode:multiply;fill:url(#Áåçûìÿííûé_ãðàäèåíò_150-61)"/><polygon points="893.35 1032 855.17 1026.4 856.64 1023.83 900.51 1029.27 1042.22 1030.12 1037.62 1042.23 911.26 1042.23 893.35 1032" style="fill-rule:evenodd;opacity:0.5;mix-blend-mode:multiply;fill:url(#Áåçûìÿííûé_ãðàäèåíò_150-62)"/><polygon points="143.41 1080 110.38 1006.42 110.38 987.1 118.31 977.77 198.06 991.58 295.32 1080 143.41 1080" style="fill:#aa8b92;fill-rule:evenodd;mix-blend-mode:soft-light"/><polygon points="338.78 936.84 304.01 897.96 270.73 866.48 325.84 898.99 350.57 936.84 338.78 936.84" style="fill:#aa8b92;fill-rule:evenodd;mix-blend-mode:soft-light"/><polygon points="454.65 948.44 516.83 1014.6 551.62 1027.9 841.17 1046.32 893.35 1032 732.72 1008.46 454.65 948.44" style="fill:#aa8b92;fill-rule:evenodd;mix-blend-mode:soft-light"/><polygon points="969.07 978.11 978.62 966.17 1100.03 911.95 1128 896.94 1143 893.53 1295.11 882.1 1302.62 890.12 1267.15 945.37 1215.78 982.88 1185.29 991.07 1037.62 1001.39 991.06 997.38 969.07 978.11" style="fill:#aa8b92;fill-rule:evenodd;mix-blend-mode:soft-light"/><polygon points="1814.19 1029.95 1825.7 1036.09 1954.88 992.09 2016.78 863.9 1999.39 808.95 1912.42 892.85 1814.19 1029.95" style="fill:#aa8b92;fill-rule:evenodd;mix-blend-mode:soft-light"/><polygon points="1649.47 969.58 1694.48 912.29 1704.36 917.87 1691.76 984.93 1683.23 997.38 1643.67 1080 1615.02 1080 1649.47 969.58" style="fill:#aa8b92;fill-rule:evenodd;mix-blend-mode:soft-light"/><polygon points="546.84 1080 590.5 1049.39 866.07 1056.55 1297.5 1049.39 1540.43 1080 546.84 1080" style="fill:#b99fa5;fill-rule:evenodd;mix-blend-mode:soft-light"/><polygon points="1902.76 969.75 1885.13 978.11 1885.13 969.58 1876.95 978.11 1854.1 1011.88 1878.43 987.32 1902.76 969.75" style="fill:#aabdf9;fill-rule:evenodd"/><polygon points="1663.11 1008.46 1667.88 996.14 1677.95 979.82 1670.53 1001.3 1663.11 1008.46" style="fill:#aabdf9;fill-rule:evenodd"/><polygon points="267.95 877.5 276.39 881.34 293.01 901.66 267.95 877.5" style="fill:#aabdf9;fill-rule:evenodd"/><polygon points="265.13 932.41 278.47 945.37 285.6 952.87 267.95 945.37 265.13 932.41" style="fill:#aabdf9;fill-rule:evenodd"/><polygon points="1080.08 951.39 1037.62 966.17 1020.74 976.17 1043.63 969.58 1072.4 963.78 1080.08 951.39" style="fill:#aabdf9;fill-rule:evenodd"/><polygon points="1087.07 -1.21 1087.07 357.11 1087.07 562.29 1099.21 198.01 1102.76 266.33 1109.75 383.31 1142.49 0 1087.07 -1.21" style="fill-rule:evenodd;fill:url(#Áåçûìÿííûé_ãðàäèåíò_295)"/><polygon points="541.94 -1.73 541.94 145.34 546.84 116.45 548.55 336.25 551.62 484.31 578.22 82.51 578.22 107.06 578.22 298.05 599.37 -2.42 541.94 -1.73" style="fill-rule:evenodd;fill:url(#Áåçûìÿííûé_ãðàäèåíò_295-2)"/><polygon points="541.94 -1.73 541.94 145.34 546.84 116.45 551.62 484.31 555.2 90.39 570.65 27.77 578.22 82.51 578.22 298.05 582.82 -1.73 541.94 -1.73" style="fill-rule:evenodd;opacity:0.5;mix-blend-mode:multiply;fill:url(#Áåçûìÿííûé_ãðàäèåíò_226-12)"/><polygon points="1087.07 -1.21 1087.07 562.29 1090.82 231.89 1095.94 21.63 1099.21 198.01 1109.75 383.31 1102.76 88.13 1109.75 7.3 1142.49 0 1087.07 -1.21" style="fill-rule:evenodd;opacity:0.5;mix-blend-mode:multiply;fill:url(#Áåçûìÿííûé_ãðàäèåíò_226-13)"/></g></g></g></svg>