<svg xmlns="http://www.w3.org/2000/svg" xmlns:xlink="http://www.w3.org/1999/xlink" viewBox="0 0 1920 1080"><defs><linearGradient id="Áåçûìÿííûé_ãðàäèåíò_929" x1="2233.6" y1="757.09" x2="977.43" y2="754.03" gradientUnits="userSpaceOnUse"><stop offset="0" stop-color="#3f1d5c"/><stop offset="1" stop-color="#6c152d"/></linearGradient><linearGradient id="Áåçûìÿííûé_ãðàäèåíò_929-2" x1="1011.92" y1="1202.34" x2="995.67" y2="-170.53" xlink:href="#Áåçûìÿííûé_ãðàäèåíò_929"/><linearGradient id="Áåçûìÿííûé_ãðàäèåíò_929-3" x1="2234.46" y1="406.76" x2="978.29" y2="403.7" xlink:href="#Áåçûìÿííûé_ãðàäèåíò_929"/><linearGradient id="Áåçûìÿííûé_ãðàäèåíò_24" x1="2017.43" y1="-168.57" x2="1993.85" y2="404.77" gradientUnits="userSpaceOnUse"><stop offset="0" stop-color="#3e0f0f"/><stop offset="1" stop-color="#7c6043"/></linearGradient><linearGradient id="Áåçûìÿííûé_ãðàäèåíò_24-2" x1="1859.69" y1="-523.52" x2="1806.16" y2="778.26" gradientTransform="matrix(0, 1, -1, 0, 1963.94, -1694.04)" xlink:href="#Áåçûìÿííûé_ãðàäèåíò_24"/><linearGradient id="Áåçûìÿííûé_ãðàäèåíò_24-3" x1="2007.47" y1="100.52" x2="1996.2" y2="374.53" xlink:href="#Áåçûìÿííûé_ãðàäèåíò_24"/><radialGradient id="Áåçûìÿííûé_ãðàäèåíò_75" cx="1002.34" cy="680.88" r="1195.36" gradientUnits="userSpaceOnUse"><stop offset="0" stop-color="#33164f"/><stop offset="1" stop-color="#8c3c58"/></radialGradient><linearGradient id="Áåçûìÿííûé_ãðàäèåíò_22" x1="990.96" y1="881.35" x2="1001.28" y2="881.35" gradientUnits="userSpaceOnUse"><stop offset="0" stop-color="#44222b"/><stop offset="1" stop-color="#493650"/></linearGradient><linearGradient id="Áåçûìÿííûé_ãðàäèåíò_733" x1="463.43" y1="501.99" x2="525.73" y2="576.55" gradientUnits="userSpaceOnUse"><stop offset="0" stop-color="#873c56"/><stop offset="1" stop-color="#572977"/></linearGradient><radialGradient id="Áåçûìÿííûé_ãðàäèåíò_629" cx="516.34" cy="143.16" r="88.46" gradientUnits="userSpaceOnUse"><stop offset="0" stop-color="#ff7a00"/><stop offset="0.03" stop-color="#f47500"/><stop offset="0.24" stop-color="#ab5200"/><stop offset="0.44" stop-color="#6e3500"/><stop offset="0.62" stop-color="#3f1e00"/><stop offset="0.78" stop-color="#1c0e00"/><stop offset="0.91" stop-color="#080400"/><stop offset="1"/></radialGradient><radialGradient id="Áåçûìÿííûé_ãðàäèåíò_65" cx="1571.62" cy="389.63" r="91.3" gradientUnits="userSpaceOnUse"><stop offset="0" stop-color="#ffa345"/><stop offset="1" stop-color="#442351"/></radialGradient><radialGradient id="Áåçûìÿííûé_ãðàäèåíò_629-2" cx="427.96" cy="274.69" r="66.6" xlink:href="#Áåçûìÿííûé_ãðàäèåíò_629"/><radialGradient id="Áåçûìÿííûé_ãðàäèåíò_20" cx="963.16" cy="1004.88" r="850.13" xlink:href="#Áåçûìÿííûé_ãðàäèåíò_929"/><linearGradient id="Áåçûìÿííûé_ãðàäèåíò_828" x1="437.03" y1="831.95" x2="527.44" y2="1122.65" gradientUnits="userSpaceOnUse"><stop offset="0.01" stop-color="#ff5e45"/><stop offset="0.37" stop-color="#983829"/><stop offset="0.68" stop-color="#461a13"/><stop offset="0.89" stop-color="#140705"/><stop offset="1"/></linearGradient><linearGradient id="Áåçûìÿííûé_ãðàäèåíò_929-4" x1="846.65" y1="1132.29" x2="798.95" y2="874.75" xlink:href="#Áåçûìÿííûé_ãðàäèåíò_929"/><linearGradient id="Áåçûìÿííûé_ãðàäèåíò_828-2" x1="1285.93" y1="1148.86" x2="1181.76" y2="1004.86" xlink:href="#Áåçûìÿííûé_ãðàäèåíò_828"/><linearGradient id="Áåçûìÿííûé_ãðàäèåíò_52" x1="450.5" y1="505.76" x2="445.8" y2="367.49" gradientUnits="userSpaceOnUse"><stop offset="0" stop-color="#ffab00"/><stop offset="0.99" stop-color="#ff0c00"/></linearGradient><linearGradient id="Áåçûìÿííûé_ãðàäèåíò_52-2" x1="404.31" y1="388.24" x2="464.06" y2="307.16" xlink:href="#Áåçûìÿííûé_ãðàäèåíò_52"/><linearGradient id="Áåçûìÿííûé_ãðàäèåíò_52-3" x1="430.1" y1="506.46" x2="425.4" y2="368.19" xlink:href="#Áåçûìÿííûé_ãðàäèåíò_52"/><linearGradient id="Áåçûìÿííûé_ãðàäèåíò_52-4" x1="393.47" y1="440.76" x2="448.6" y2="365.94" xlink:href="#Áåçûìÿííûé_ãðàäèåíò_52"/><linearGradient id="Áåçûìÿííûé_ãðàäèåíò_52-5" x1="424.06" y1="387.59" x2="438.39" y2="368.14" xlink:href="#Áåçûìÿííûé_ãðàäèåíò_52"/><linearGradient id="Áåçûìÿííûé_ãðàäèåíò_52-6" x1="1199.48" y1="405.33" x2="1209.06" y2="392.32" gradientTransform="translate(100.87 1661.21) rotate(-94.74)" xlink:href="#Áåçûìÿííûé_ãðàäèåíò_52"/><linearGradient id="Áåçûìÿííûé_ãðàäèåíò_50" x1="419.6" y1="564.71" x2="419.02" y2="495.33" gradientUnits="userSpaceOnUse"><stop offset="0" stop-color="#5c7582"/><stop offset="1" stop-color="#48427a"/></linearGradient><linearGradient id="Áåçûìÿííûé_ãðàäèåíò_842" x1="386.43" y1="557.88" x2="385.97" y2="502.58" gradientUnits="userSpaceOnUse"><stop offset="0" stop-color="#3e0f33"/><stop offset="1" stop-color="#ad53bf"/></linearGradient><linearGradient id="Áåçûìÿííûé_ãðàäèåíò_50-2" x1="492.85" y1="624.62" x2="403.8" y2="578.24" xlink:href="#Áåçûìÿííûé_ãðàäèåíò_50"/><linearGradient id="Áåçûìÿííûé_ãðàäèåíò_50-3" x1="438.25" y1="588.08" x2="387.89" y2="554.22" xlink:href="#Áåçûìÿííûé_ãðàäèåíò_50"/><linearGradient id="Áåçûìÿííûé_ãðàäèåíò_842-2" x1="425.96" y1="574.1" x2="415.69" y2="554.07" xlink:href="#Áåçûìÿííûé_ãðàäèåíò_842"/><linearGradient id="Áåçûìÿííûé_ãðàäèåíò_50-4" x1="445.8" y1="552.98" x2="405.1" y2="548.77" xlink:href="#Áåçûìÿííûé_ãðàäèåíò_50"/><linearGradient id="Áåçûìÿííûé_ãðàäèåíò_842-3" x1="1423.22" y1="549.69" x2="1436.29" y2="549.69" gradientTransform="matrix(-1, 0, 0, 1, 1842.18, 0)" xlink:href="#Áåçûìÿííûé_ãðàäèåíò_842"/><linearGradient id="Áåçûìÿííûé_ãðàäèåíò_842-4" x1="447.94" y1="614.78" x2="400.5" y2="590.08" xlink:href="#Áåçûìÿííûé_ãðàäèåíò_842"/><radialGradient id="Áåçûìÿííûé_ãðàäèåíò_629-3" cx="559.81" cy="405.23" r="147.05" gradientTransform="matrix(1.3, 0, 0, 1.12, -298.45, -46.63)" xlink:href="#Áåçûìÿííûé_ãðàäèåíò_629"/><radialGradient id="Áåçûìÿííûé_ãðàäèåíò_628" cx="565.71" cy="451.22" r="38.52" gradientTransform="matrix(1.3, -0.02, 0.01, 1.12, -304.23, -37.25)" gradientUnits="userSpaceOnUse"><stop offset="0" stop-color="red"/><stop offset="1"/></radialGradient><linearGradient id="Áåçûìÿííûé_ãðàäèåíò_52-7" x1="1630.09" y1="380.16" x2="1552.77" y2="304.77" xlink:href="#Áåçûìÿííûé_ãðàäèåíò_52"/><linearGradient id="Áåçûìÿííûé_ãðàäèåíò_52-8" x1="1585.78" y1="490.79" x2="1575.48" y2="356.12" xlink:href="#Áåçûìÿííûé_ãðàäèåíò_52"/><linearGradient id="Áåçûìÿííûé_ãðàäèåíò_52-9" x1="1582.45" y1="350.75" x2="1608.3" y2="388.21" xlink:href="#Áåçûìÿííûé_ãðàäèåíò_52"/><linearGradient id="Áåçûìÿííûé_ãðàäèåíò_52-10" x1="1571.36" y1="491.89" x2="1561.05" y2="357.23" xlink:href="#Áåçûìÿííûé_ãðàäèåíò_52"/><linearGradient id="Áåçûìÿííûé_ãðàäèåíò_52-11" x1="1588.95" y1="497.41" x2="1578.7" y2="363.43" xlink:href="#Áåçûìÿííûé_ãðàäèåíò_52"/><linearGradient id="Áåçûìÿííûé_ãðàäèåíò_50-5" x1="-84.09" y1="563.33" x2="-84.68" y2="491.9" gradientTransform="matrix(-1, 0, 0, 1, 1500.27, 0)" xlink:href="#Áåçûìÿííûé_ãðàäèåíò_50"/><linearGradient id="Áåçûìÿííûé_ãðàäèåíò_842-5" x1="-118.23" y1="556.29" x2="-118.7" y2="499.36" gradientTransform="matrix(-1, 0, 0, 1, 1500.27, 0)" xlink:href="#Áåçûìÿííûé_ãðàäèåíò_842"/><linearGradient id="Áåçûìÿííûé_ãðàäèåíò_50-6" x1="-8.68" y1="624.99" x2="-100.35" y2="577.25" gradientTransform="matrix(-1, 0, 0, 1, 1500.27, 0)" xlink:href="#Áåçûìÿííûé_ãðàäèåíò_50"/><linearGradient id="Áåçûìÿííûé_ãðàäèåíò_50-7" x1="-64.89" y1="587.38" x2="-116.73" y2="552.53" gradientTransform="matrix(-1, 0, 0, 1, 1500.27, 0)" xlink:href="#Áåçûìÿííûé_ãðàäèåíò_50"/><linearGradient id="Áåçûìÿííûé_ãðàäèåíò_842-6" x1="-77.54" y1="572.99" x2="-88.11" y2="552.37" gradientTransform="matrix(-1, 0, 0, 1, 1500.27, 0)" xlink:href="#Áåçûìÿííûé_ãðàäèåíò_842"/><linearGradient id="Áåçûìÿííûé_ãðàäèåíò_50-8" x1="-57.11" y1="551.25" x2="-99.01" y2="546.92" gradientTransform="matrix(-1, 0, 0, 1, 1500.27, 0)" xlink:href="#Áåçûìÿííûé_ãðàäèåíò_50"/><linearGradient id="Áåçûìÿííûé_ãðàäèåíò_842-7" x1="1926.92" y1="547.86" x2="1940.38" y2="547.86" gradientTransform="translate(-341.91)" xlink:href="#Áåçûìÿííûé_ãðàäèåíò_842"/><linearGradient id="Áåçûìÿííûé_ãðàäèåíò_842-8" x1="-54.91" y1="614.87" x2="-103.75" y2="589.44" gradientTransform="matrix(-1, 0, 0, 1, 1500.27, 0)" xlink:href="#Áåçûìÿííûé_ãðàäèåíò_842"/><radialGradient id="Áåçûìÿííûé_ãðàäèåíò_629-4" cx="1443.21" cy="397.68" r="130.7" gradientTransform="matrix(1.3, 0, 0, 1.12, -298.66, -61.35)" xlink:href="#Áåçûìÿííûé_ãðàäèåíò_629"/><radialGradient id="Áåçûìÿííûé_ãðàäèåíò_628-2" cx="1446.47" cy="450.24" r="39.65" gradientTransform="matrix(1.3, 0, 0, 1.12, -297.9, -61.4)" xlink:href="#Áåçûìÿííûé_ãðàäèåíò_628"/><linearGradient id="Áåçûìÿííûé_ãðàäèåíò_842-9" x1="974.16" y1="1090.77" x2="1003.03" y2="565.25" xlink:href="#Áåçûìÿííûé_ãðàäèåíò_842"/><linearGradient id="Áåçûìÿííûé_ãðàäèåíò_62" x1="991.94" y1="943.53" x2="985.22" y2="186.76" gradientUnits="userSpaceOnUse"><stop offset="0" stop-color="#4e0021"/><stop offset="0.02" stop-color="#4a0122"/><stop offset="0.12" stop-color="#35032a"/><stop offset="0.24" stop-color="#26052f"/><stop offset="0.38" stop-color="#1d0732"/><stop offset="0.58" stop-color="#1a0733"/></linearGradient><linearGradient id="Áåçûìÿííûé_ãðàäèåíò_62-2" x1="975.88" y1="889.88" x2="998.34" y2="234.22" xlink:href="#Áåçûìÿííûé_ãðàäèåíò_62"/><linearGradient id="Áåçûìÿííûé_ãðàäèåíò_84" x1="992.44" y1="63.3" x2="996.52" y2="880.32" gradientUnits="userSpaceOnUse"><stop offset="0" stop-color="#382041"/><stop offset="0.53" stop-color="#6f3054"/><stop offset="1" stop-color="#432050"/></linearGradient><linearGradient id="Áåçûìÿííûé_ãðàäèåíò_916" x1="993.2" y1="816.18" x2="993.2" y2="174.82" gradientUnits="userSpaceOnUse"><stop offset="0" stop-color="#873c56"/><stop offset="1" stop-color="#442351"/></linearGradient><linearGradient id="Áåçûìÿííûé_ãðàäèåíò_745" x1="994.22" y1="927.33" x2="988.77" y2="13.63" gradientUnits="userSpaceOnUse"><stop offset="0" stop-color="#41314f"/><stop offset="0.56" stop-color="#49325e"/><stop offset="1" stop-color="#521d37"/></linearGradient><linearGradient id="Áåçûìÿííûé_ãðàäèåíò_62-3" x1="1002.58" y1="910.41" x2="990.32" y2="165.57" xlink:href="#Áåçûìÿííûé_ãðàäèåíò_62"/><linearGradient id="Áåçûìÿííûé_ãðàäèåíò_733-2" x1="683.66" y1="510.38" x2="722.21" y2="527.48" xlink:href="#Áåçûìÿííûé_ãðàäèåíò_733"/><linearGradient id="Áåçûìÿííûé_ãðàäèåíò_733-3" x1="819.37" y1="180.72" x2="849.48" y2="180.72" xlink:href="#Áåçûìÿííûé_ãðàäèåíò_733"/><linearGradient id="Áåçûìÿííûé_ãðàäèåíò_828-3" x1="515.66" y1="645.05" x2="765.87" y2="549.05" xlink:href="#Áåçûìÿííûé_ãðàäèåíò_828"/><linearGradient id="Áåçûìÿííûé_ãðàäèåíò_828-4" x1="1448.63" y1="526.03" x2="1191.95" y2="413.01" xlink:href="#Áåçûìÿííûé_ãðàäèåíò_828"/><linearGradient id="Áåçûìÿííûé_ãðàäèåíò_681" x1="832" y1="173.15" x2="777.87" y2="783.87" gradientUnits="userSpaceOnUse"><stop offset="0" stop-color="#3e0f33"/><stop offset="1" stop-color="#ae6043"/></linearGradient><linearGradient id="Áåçûìÿííûé_ãðàäèåíò_681-2" x1="844.81" y1="174.28" x2="790.68" y2="785" xlink:href="#Áåçûìÿííûé_ãðàäèåíò_681"/><linearGradient id="Áåçûìÿííûé_ãðàäèåíò_828-5" x1="1097.21" y1="698.75" x2="1223.85" y2="674.24" xlink:href="#Áåçûìÿííûé_ãðàäèåíò_828"/><linearGradient id="Áåçûìÿííûé_ãðàäèåíò_828-6" x1="1117.02" y1="801.1" x2="1243.65" y2="776.59" xlink:href="#Áåçûìÿííûé_ãðàäèåíò_828"/><linearGradient id="Áåçûìÿííûé_ãðàäèåíò_681-3" x1="822.68" y1="172.32" x2="768.55" y2="783.05" xlink:href="#Áåçûìÿííûé_ãðàäèåíò_681"/><linearGradient id="Áåçûìÿííûé_ãðàäèåíò_828-7" x1="948.34" y1="490.73" x2="745.11" y2="385.53" xlink:href="#Áåçûìÿííûé_ãðàäèåíò_828"/><linearGradient id="Áåçûìÿííûé_ãðàäèåíò_681-4" x1="852.72" y1="174.98" x2="798.59" y2="785.71" xlink:href="#Áåçûìÿííûé_ãðàäèåíò_681"/><linearGradient id="Áåçûìÿííûé_ãðàäèåíò_681-5" x1="1191.96" y1="205.05" x2="1137.84" y2="815.77" xlink:href="#Áåçûìÿííûé_ãðàäèåíò_681"/><linearGradient id="Áåçûìÿííûé_ãðàäèåíò_681-6" x1="1213.55" y1="206.96" x2="1159.43" y2="817.69" xlink:href="#Áåçûìÿííûé_ãðàäèåíò_681"/><linearGradient id="Áåçûìÿííûé_ãðàäèåíò_681-7" x1="1154.57" y1="201.74" x2="1100.44" y2="812.46" xlink:href="#Áåçûìÿííûé_ãðàäèåíò_681"/><linearGradient id="Áåçûìÿííûé_ãðàäèåíò_681-8" x1="995.3" y1="187.62" x2="941.17" y2="798.34" xlink:href="#Áåçûìÿííûé_ãðàäèåíò_681"/><linearGradient id="Áåçûìÿííûé_ãðàäèåíò_681-9" x1="1076.38" y1="194.81" x2="1022.25" y2="805.53" xlink:href="#Áåçûìÿííûé_ãðàäèåíò_681"/><linearGradient id="Áåçûìÿííûé_ãðàäèåíò_928" x1="926.27" y1="165.29" x2="910.61" y2="518.65" gradientUnits="userSpaceOnUse"><stop offset="0" stop-color="#560527"/><stop offset="0.02" stop-color="#500629"/><stop offset="0.13" stop-color="#3b0831"/><stop offset="0.24" stop-color="#2c0a37"/><stop offset="0.38" stop-color="#230b3a"/><stop offset="0.58" stop-color="#200b3b"/></linearGradient><linearGradient id="Áåçûìÿííûé_ãðàäèåíò_928-2" x1="815.45" y1="160.38" x2="799.79" y2="513.74" xlink:href="#Áåçûìÿííûé_ãðàäèåíò_928"/><linearGradient id="Áåçûìÿííûé_ãðàäèåíò_928-3" x1="1200.48" y1="177.45" x2="1184.82" y2="530.81" xlink:href="#Áåçûìÿííûé_ãðàäèåíò_928"/><linearGradient id="Áåçûìÿííûé_ãðàäèåíò_928-4" x1="1119.66" y1="173.86" x2="1104" y2="527.22" xlink:href="#Áåçûìÿííûé_ãðàäèåíò_928"/><linearGradient id="Áåçûìÿííûé_ãðàäèåíò_24-4" x1="1232.54" y1="706.4" x2="1250.9" y2="709.02" gradientTransform="translate(1.85 -3.31) rotate(0.21)" xlink:href="#Áåçûìÿííûé_ãðàäèåíò_24"/><linearGradient id="Áåçûìÿííûé_ãðàäèåíò_681-10" x1="862.87" y1="504.05" x2="1130.34" y2="542.26" gradientTransform="translate(1.85 -3.31) rotate(0.21)" xlink:href="#Áåçûìÿííûé_ãðàäèåíò_681"/><linearGradient id="Áåçûìÿííûé_ãðàäèåíò_14" x1="1249.68" y1="510.34" x2="1250.46" y2="509.73" gradientTransform="translate(1.85 -3.31) rotate(0.21)" gradientUnits="userSpaceOnUse"><stop offset="0" stop-color="#a17700"/><stop offset="1"/></linearGradient><linearGradient id="Áåçûìÿííûé_ãðàäèåíò_681-11" x1="1111.92" y1="732.44" x2="1111.92" y2="820.27" xlink:href="#Áåçûìÿííûé_ãðàäèåíò_681"/><linearGradient id="Áåçûìÿííûé_ãðàäèåíò_828-8" x1="1058.73" y1="815.63" x2="1166.76" y2="1007.19" xlink:href="#Áåçûìÿííûé_ãðàäèåíò_828"/><radialGradient id="Áåçûìÿííûé_ãðàäèåíò_59" cx="991.8" cy="922.08" r="442.79" gradientUnits="userSpaceOnUse"><stop offset="0.02" stop-color="#b12222"/><stop offset="0.36" stop-color="#6d1726"/><stop offset="0.99" stop-color="#45012d"/></radialGradient><linearGradient id="Áåçûìÿííûé_ãðàäèåíò_37" x1="968.36" y1="693.91" x2="1471.09" y2="408.35" gradientUnits="userSpaceOnUse"><stop offset="0" stop-color="#420300"/><stop offset="1" stop-color="#a36320"/></linearGradient><linearGradient id="Áåçûìÿííûé_ãðàäèåíò_37-2" x1="936.15" y1="643.34" x2="1424" y2="366.24" xlink:href="#Áåçûìÿííûé_ãðàäèåíò_37"/><linearGradient id="Áåçûìÿííûé_ãðàäèåíò_37-3" x1="839.41" y1="463.08" x2="1337.32" y2="180.26" xlink:href="#Áåçûìÿííûé_ãðàäèåíò_37"/><linearGradient id="Áåçûìÿííûé_ãðàäèåíò_681-12" x1="873.4" y1="732.44" x2="873.4" y2="820.27" xlink:href="#Áåçûìÿííûé_ãðàäèåíò_681"/><linearGradient id="Áåçûìÿííûé_ãðàäèåíò_35" x1="990.68" y1="892.44" x2="979.61" y2="844.04" gradientUnits="userSpaceOnUse"><stop offset="0" stop-color="#3e0f0f"/><stop offset="1" stop-color="#2e0d14"/></linearGradient><linearGradient id="Áåçûìÿííûé_ãðàäèåíò_50-9" x1="880.24" y1="596.08" x2="847.05" y2="561.86" xlink:href="#Áåçûìÿííûé_ãðàäèåíò_50"/><linearGradient id="Áåçûìÿííûé_ãðàäèåíò_53" x1="808.96" y1="513.41" x2="927.18" y2="596.22" gradientTransform="translate(1.85 -3.31) rotate(0.21)" gradientUnits="userSpaceOnUse"><stop offset="0" stop-color="#3a2475"/><stop offset="1" stop-color="#a25e8f"/></linearGradient><linearGradient id="Áåçûìÿííûé_ãðàäèåíò_53-2" x1="789.11" y1="541.75" x2="907.33" y2="624.56" xlink:href="#Áåçûìÿííûé_ãðàäèåíò_53"/><linearGradient id="Áåçûìÿííûé_ãðàäèåíò_53-3" x1="879.61" y1="600.58" x2="893.29" y2="616.51" gradientTransform="matrix(1, 0, 0, 1, 0, 0)" xlink:href="#Áåçûìÿííûé_ãðàäèåíò_53"/><linearGradient id="Áåçûìÿííûé_ãðàäèåíò_50-10" x1="850.31" y1="720.32" x2="851.92" y2="757.41" xlink:href="#Áåçûìÿííûé_ãðàäèåíò_50"/><linearGradient id="Áåçûìÿííûé_ãðàäèåíò_53-4" x1="806.36" y1="706.53" x2="924.59" y2="789.34" xlink:href="#Áåçûìÿííûé_ãðàäèåíò_53"/><linearGradient id="Áåçûìÿííûé_ãðàäèåíò_53-5" x1="786.51" y1="734.87" x2="904.74" y2="817.68" xlink:href="#Áåçûìÿííûé_ãðàäèåíò_53"/><linearGradient id="Áåçûìÿííûé_ãðàäèåíò_53-6" x1="878.07" y1="792.14" x2="891.73" y2="808.06" gradientTransform="matrix(1, 0, 0, 1, 0, 0)" xlink:href="#Áåçûìÿííûé_ãðàäèåíò_53"/><linearGradient id="Áåçûìÿííûé_ãðàäèåíò_50-11" x1="1104.51" y1="602.08" x2="1144.33" y2="564.3" xlink:href="#Áåçûìÿííûé_ãðàäèåíò_50"/><linearGradient id="Áåçûìÿííûé_ãðàäèåíò_53-7" x1="-8753.24" y1="445.82" x2="-8635.01" y2="528.63" gradientTransform="matrix(-1, -0.02, -0.02, 1, -7560.91, -83.73)" xlink:href="#Áåçûìÿííûé_ãðàäèåíò_53"/><linearGradient id="Áåçûìÿííûé_ãðàäèåíò_53-8" x1="-8773.09" y1="474.16" x2="-8654.87" y2="556.97" gradientTransform="matrix(-1, -0.02, -0.02, 1, -7560.91, -83.73)" xlink:href="#Áåçûìÿííûé_ãðàäèåíò_53"/><linearGradient id="Áåçûìÿííûé_ãðàäèåíò_53-9" x1="1156.1" y1="609.11" x2="1173.08" y2="628.88" gradientTransform="matrix(1, 0, 0, 1, 0, 0)" xlink:href="#Áåçûìÿííûé_ãðàäèåíò_53"/><linearGradient id="Áåçûìÿííûé_ãðàäèåíò_50-12" x1="1131.91" y1="722.07" x2="1133.54" y2="759.86" xlink:href="#Áåçûìÿííûé_ãðàäèåíò_50"/><linearGradient id="Áåçûìÿííûé_ãðàäèåíò_53-10" x1="-8755.06" y1="639.27" x2="-8637.99" y2="721.27" gradientTransform="matrix(-1, -0.02, -0.02, 1, -7560.91, -83.73)" xlink:href="#Áåçûìÿííûé_ãðàäèåíò_53"/><linearGradient id="Áåçûìÿííûé_ãðàäèåíò_53-11" x1="-8774.62" y1="667.87" x2="-8657.82" y2="749.68" gradientTransform="matrix(-1, -0.02, -0.02, 1, -7560.91, -83.73)" xlink:href="#Áåçûìÿííûé_ãðàäèåíò_53"/><linearGradient id="Áåçûìÿííûé_ãðàäèåíò_53-12" x1="1151.26" y1="797.65" x2="1166.92" y2="815.89" gradientTransform="matrix(1, 0, 0, 1, 0, 0)" xlink:href="#Áåçûìÿííûé_ãðàäèåíò_53"/><linearGradient id="Áåçûìÿííûé_ãðàäèåíò_53-13" x1="973" y1="627.02" x2="966.11" y2="696.47" gradientTransform="matrix(1, 0, 0, 1, 0, 0)" xlink:href="#Áåçûìÿííûé_ãðàäèåíò_53"/><linearGradient id="Áåçûìÿííûé_ãðàäèåíò_935" x1="939.38" y1="645.44" x2="964.91" y2="649.87" gradientUnits="userSpaceOnUse"><stop offset="0" stop-color="#89bfa7"/><stop offset="1" stop-color="#617889"/></linearGradient><linearGradient id="Áåçûìÿííûé_ãðàäèåíò_935-2" x1="936.85" y1="693.85" x2="980.41" y2="693.85" gradientTransform="translate(1.85 -3.31) rotate(0.21)" xlink:href="#Áåçûìÿííûé_ãðàäèåíò_935"/><linearGradient id="Áåçûìÿííûé_ãðàäèåíò_53-14" x1="956.81" y1="677.59" x2="959.19" y2="712.65" gradientTransform="matrix(1, 0, 0, 1, 0, 0)" xlink:href="#Áåçûìÿííûé_ãðàäèåíò_53"/><linearGradient id="Áåçûìÿííûé_ãðàäèåíò_55" x1="966.08" y1="651.56" x2="959.16" y2="672.92" gradientTransform="translate(1.85 -3.31) rotate(0.21)" gradientUnits="userSpaceOnUse"><stop offset="0" stop-color="#48427a"/><stop offset="1" stop-color="#5c7582"/></linearGradient><linearGradient id="Áåçûìÿííûé_ãðàäèåíò_36" x1="962.86" y1="659.03" x2="957.51" y2="675.54" gradientTransform="translate(1.85 -3.31) rotate(0.21)" gradientUnits="userSpaceOnUse"><stop offset="0"/><stop offset="1" stop-color="#fff"/></linearGradient><linearGradient id="Áåçûìÿííûé_ãðàäèåíò_36-2" x1="927.03" y1="552.68" x2="958.16" y2="665.99" xlink:href="#Áåçûìÿííûé_ãðàäèåíò_36"/><linearGradient id="Áåçûìÿííûé_ãðàäèåíò_36-3" x1="954.99" y1="697.7" x2="955.88" y2="701.66" gradientTransform="matrix(1, 0, 0, 1, 0, 0)" xlink:href="#Áåçûìÿííûé_ãðàäèåíò_36"/><linearGradient id="Áåçûìÿííûé_ãðàäèåíò_36-4" x1="961.31" y1="696.28" x2="962.21" y2="700.23" gradientTransform="matrix(1, 0, 0, 1, 0, 0)" xlink:href="#Áåçûìÿííûé_ãðàäèåíò_36"/><linearGradient id="Áåçûìÿííûé_ãðàäèåíò_53-15" x1="1030.18" y1="632.69" x2="1023.28" y2="702.14" gradientTransform="matrix(1, 0, 0, 1, 0, 0)" xlink:href="#Áåçûìÿííûé_ãðàäèåíò_53"/><linearGradient id="Áåçûìÿííûé_ãðàäèåíò_935-3" x1="1071.06" y1="648.79" x2="1028.85" y2="647.43" xlink:href="#Áåçûìÿííûé_ãðàäèåíò_935"/><linearGradient id="Áåçûìÿííûé_ãðàäèåíò_935-4" x1="1069.39" y1="694.59" x2="1022.16" y2="693.06" xlink:href="#Áåçûìÿííûé_ãðàäèåíò_935"/><linearGradient id="Áåçûìÿííûé_ãðàäèåíò_53-16" x1="1031.64" y1="672.5" x2="1034.02" y2="707.57" gradientTransform="matrix(1, 0, 0, 1, 0, 0)" xlink:href="#Áåçûìÿííûé_ãðàäèåíò_53"/><linearGradient id="Áåçûìÿííûé_ãðàäèåíò_55-2" x1="-8990.17" y1="650.75" x2="-8997.09" y2="672.11" gradientTransform="matrix(-1, 0, 0, 1, -7962.04, -32.92)" xlink:href="#Áåçûìÿííûé_ãðàäèåíò_55"/><linearGradient id="Áåçûìÿííûé_ãðàäèåíò_36-5" x1="-8993.39" y1="658.22" x2="-8998.74" y2="674.73" gradientTransform="matrix(-1, 0, 0, 1, -7962.04, -32.92)" xlink:href="#Áåçûìÿííûé_ãðàäèåíò_36"/><linearGradient id="Áåçûìÿííûé_ãðàäèåíò_36-6" x1="-9043.35" y1="521.44" x2="-9012.25" y2="634.65" gradientTransform="matrix(-1, -0.01, -0.01, 1, -7970.32, -56.18)" xlink:href="#Áåçûìÿííûé_ãðàäèåíò_36"/><linearGradient id="Áåçûìÿííûé_ãðàäèåíò_36-7" x1="-9003.13" y1="702.82" x2="-8995.15" y2="716.71" gradientTransform="matrix(-1, 0, 0, 1, -7962.04, -32.92)" xlink:href="#Áåçûìÿííûé_ãðàäèåíò_36"/><linearGradient id="Áåçûìÿííûé_ãðàäèåíò_36-8" x1="-8998.07" y1="699.91" x2="-8990.08" y2="713.8" gradientTransform="matrix(-1, 0, 0, 1, -7962.04, -32.92)" xlink:href="#Áåçûìÿííûé_ãðàäèåíò_36"/><linearGradient id="Áåçûìÿííûé_ãðàäèåíò_832" x1="980.24" y1="631.81" x2="997.6" y2="1048.49" gradientUnits="userSpaceOnUse"><stop offset="0" stop-color="#382041"/><stop offset="0.56" stop-color="#432050"/><stop offset="1" stop-color="#742436"/></linearGradient><linearGradient id="Áåçûìÿííûé_ãðàäèåíò_832-2" x1="1079.1" y1="1204.46" x2="494.9" y2="841.89" xlink:href="#Áåçûìÿííûé_ãðàäèåíò_832"/><linearGradient id="Áåçûìÿííûé_ãðàäèåíò_928-5" x1="398.48" y1="972.5" x2="1538.22" y2="976.59" xlink:href="#Áåçûìÿííûé_ãðàäèåíò_928"/><linearGradient id="Áåçûìÿííûé_ãðàäèåíò_828-9" x1="1102.38" y1="1010.07" x2="794.64" y2="852.11" xlink:href="#Áåçûìÿííûé_ãðàäèåíò_828"/><linearGradient id="Áåçûìÿííûé_ãðàäèåíò_928-6" x1="605.68" y1="897.38" x2="651.13" y2="958.66" xlink:href="#Áåçûìÿííûé_ãðàäèåíò_928"/><linearGradient id="Áåçûìÿííûé_ãðàäèåíò_842-10" x1="994.54" y1="925.72" x2="998.53" y2="1026.92" xlink:href="#Áåçûìÿííûé_ãðàäèåíò_842"/></defs><g style="isolation:isolate"><g id="wall_1"><polygon points="2110.03 697.64 2101.59 810.88 1838.47 817.36 1847.71 694.92 2110.03 697.64" style="fill:url(#Áåçûìÿííûé_ãðàäèåíò_929)"/><path d="M1968.83,76.56,1974-.16H-195.57V1059.52h2400V79.28Zm157.52,373.08-261.84,26.2V353.12L1986,345.44l3.52-.24,136.88-8.68ZM1838.47,817.36l9.24-122.44L2110,697.64l-8.44,113.24Z" style="fill:url(#Áåçûìÿííûé_ãðàäèåíò_929-2)"/><polygon points="2126.35 336.52 2126.35 449.64 1864.51 475.84 1864.51 353.12 2126.35 336.52" style="fill:url(#Áåçûìÿííûé_ãðàäèåíò_929-3)"/><g style="opacity:0.30000000000000004;mix-blend-mode:multiply"><polygon points="1989.43 341.72 2204.43 328.08 2204.43 331.56 2129.87 336.28 2126.35 336.52 1989.47 345.2 1985.95 345.44 1864.51 353.12 1856.87 353.6 1794.91 357.52 1795.03 354.04 1985.91 341.96 1989.43 341.72" style="fill:#470073"/><polygon points="1937.15 579.88 2204.43 554 2204.43 557.52 1942.39 582.88 1942.35 582.88 1936.51 583.44 1778.87 598.68 1772.43 599.32 1772.43 595.8 1779.11 595.16 1936.71 579.92 1937.07 579.88 1937.15 579.88" style="fill:#470073"/><rect x="1856.87" y="351.84" width="7.64" height="126.16" style="fill:#470073"/><polygon points="2129.87 449.28 2204.43 441.84 2204.43 455.84 2052.59 467.4 2049.11 467.68 1785.39 487.76 1785.35 487.76 1784.43 487.84 1784.43 483.84 1785.59 483.72 1856.87 476.6 1864.51 475.84 2126.35 449.64 2129.87 449.28" style="fill:#470073"/><polygon points="1778.31 690.72 2204.43 695.16 2204.43 698.64 2113.59 697.68 2110.03 697.64 1847.71 694.92 1840.03 694.84 1777.95 694.2 1778.31 690.72" style="fill:#470073"/><polygon points="1847.79 693.72 1847.71 694.92 1838.47 817.36 1838.31 819.52 1830.71 818.96 1830.83 817.56 1840.03 694.84 1840.15 693.16 1847.79 693.72" style="fill:#470073"/><polygon points="2105.07 810.76 2204.43 808.32 2204.43 822.6 2178.95 822.88 1944.63 823.12 1941.11 823.12 1796.63 823.28 1765.79 823.32 1757.75 823.32 1757.87 821.52 1758.03 819.36 1766.03 819.16 1830.83 817.56 1838.47 817.36 2101.59 810.88 2105.07 810.76" style="fill:#470073"/></g><g style="opacity:0.30000000000000004;mix-blend-mode:multiply"><polygon points="1968.83 76.56 2204.43 79.28 2204.43 82.8 2145.55 82.12 2142.03 82.08 1879.71 79 1872.03 78.92 1809.95 78.2 1810.31 74.72 1962.91 76.48 1968.83 76.56" style="fill:url(#Áåçûìÿííûé_ãðàäèåíò_24)"/><rect x="1808.16" y="136.52" width="126.16" height="7.64" transform="matrix(0.07, -1, 1, 0.07, 1591.11, 1995.8)" style="fill:url(#Áåçûìÿííûé_ãðàäèåíò_24-2)"/><polygon points="2137.07 195.08 2204.43 193.4 2204.43 206.88 1801.75 207.32 1802.03 203.36 1862.79 201.84 1870.43 201.68 2133.55 195.16 2137.07 195.08" style="fill:url(#Áåçûìÿííûé_ãðàäèåíò_24-3)"/></g><g style="opacity:0.30000000000000004;mix-blend-mode:multiply"><polygon points="211.27 329.52 149.31 325.6 141.67 325.12 20.23 317.4 16.71 317.2 -120.17 308.52 -123.69 308.28 -195.57 303.72 -195.57 300.28 16.75 313.72 20.27 313.96 211.15 326.04 211.27 329.52" style="fill:#470073"/><polygon points="233.75 567.8 233.75 571.32 230.51 571 69.63 554.96 63.75 554.4 -195.57 528.56 -195.57 525.04 -46.45 539.88 -45.85 539.96 230.39 567.48 233.75 567.8" style="fill:#470073"/><rect x="141.67" y="323.84" width="7.64" height="126.16" style="fill:#470073"/><polygon points="69.59 663.84 75.41 663.46 69.47 551.84 63.65 552.23 69.59 663.84" style="fill:#470073"/><polygon points="221.75 455.84 221.75 459.84 -42.93 439.68 -46.45 439.4 -195.57 428.04 -195.57 414.12 -123.69 421.28 -120.17 421.64 141.67 447.84 149.31 448.6 221.75 455.84" style="fill:#470073"/><polygon points="228.23 666.2 166.15 666.92 158.47 667 -103.89 670.08 -107.37 670.12 -195.57 671.12 -195.57 667.64 227.87 662.72 228.23 666.2" style="fill:#470073"/><rect x="163.11" y="665.26" width="7.64" height="126.16" transform="translate(-54.09 14.55) rotate(-4.3)" style="fill:#470073"/><polygon points="60.71 955.84 64.22 955.86 65.1 791.84 61.59 791.81 60.71 955.84" style="fill:#470073"/><polygon points="248.43 795.32 238.87 795.32 65.11 795.12 61.59 795.12 -172.77 794.88 -195.57 794.64 -195.57 780.4 -98.89 782.76 -95.41 782.88 167.67 789.36 175.35 789.56 233.51 791 238.71 791.12 248.15 791.36 248.23 792.52 248.43 795.32" style="fill:#470073"/></g><g style="opacity:0.30000000000000004;mix-blend-mode:multiply"><polygon points="43.43 47.44 37.59 47.84 35.03 -0.16 40.87 -0.16 43.43 47.44" style="fill:#470073"/><polygon points="196.23 50.2 134.15 50.92 126.47 51 -135.89 54.08 -139.37 54.12 -195.57 54.76 -195.57 51.28 195.87 46.72 196.23 50.2" style="fill:#470073"/><rect x="131.11" y="49.26" width="7.64" height="126.16" transform="translate(-8.03 10.42) rotate(-4.29)" style="fill:#470073"/><rect x="-50.13" y="247.1" width="138.06" height="3.51" transform="translate(-230.07 266.19) rotate(-89.64)" style="fill:#470073"/><polygon points="204.43 179.32 -195.57 178.92 -195.57 165.48 -130.89 167.08 -127.37 167.16 135.71 173.68 143.39 173.84 204.15 175.36 204.43 179.32" style="fill:#470073"/></g></g><g id="wall_2"><polygon points="1813.83 -0.16 1812.95 15.36 1812.75 18.76 1802.95 186.64 1802.91 187.4 1802.87 188.08 1801.75 207.32 1796.35 299.12 1796.31 300.24 1796.23 301.4 1790.19 405.2 1789.99 408.6 1785.59 483.72 1785.39 487.32 1785.35 487.76 1785.27 489.12 1779.11 595.16 1778.87 598.68 1778.47 605.92 1778.43 606.36 1778.35 607.76 1770.63 740.4 1770.59 740.76 1770.51 742.4 1766.03 819.16 1765.87 821.52 1765.79 823.32 1765.67 824.92 1759.55 929.92 243.91 929.92 238.87 795.32 238.79 792.52 238.71 791.12 238.67 789.12 236.11 720.92 235.99 717.52 231.15 587.84 231.07 586 230.51 571 230.39 567.48 227.27 484.28 227.19 482.08 224.39 407.56 224.39 407.24 224.35 405.64 218.83 258.52 218.79 257 218.79 256.84 215.43 166.84 215.31 163.44 209.19 -0.16 1813.83 -0.16" style="fill:url(#Áåçûìÿííûé_ãðàäèåíò_75)"/><polygon points="1001.28 881.43 990.96 881.35 1001.27 881.27 1001.28 881.43" style="fill:url(#Áåçûìÿííûé_ãðàäèåíò_22)"/><g style="opacity:0.6000000000000001;mix-blend-mode:multiply"><rect x="1005.86" y="-510.8" width="3.4" height="1578.14" transform="translate(702.03 1277.9) rotate(-88.44)" style="fill:#470073"/><rect x="1004" y="-621.6" width="3.4" height="1594.64" transform="translate(816.57 1178.98) rotate(-89.23)" style="fill:#470073"/><polygon points="224.51 409.02 224.28 405.62 1015.36 347.16 1015.47 353.1 1796.45 405.62 1796.22 409.01 1015.36 356.5 224.51 409.02" style="fill:#470073"/><rect x="227.21" y="481.02" width="455.22" height="3.4" style="fill:#470073"/><rect x="1302.52" y="485.73" width="482.87" height="3.4" style="fill:#470073"/><rect x="1625.17" y="395.92" width="3.4" height="89.98" style="fill:#470073"/><rect x="1434.86" y="289.93" width="7.41" height="93.2" style="fill:#470073"/><rect x="1700.09" y="298.14" width="3.4" height="102.83" style="fill:#470073"/><rect x="1509.1" y="234.85" width="106.92" height="3.4" transform="translate(1235.56 1782.72) rotate(-86.67)" style="fill:#470073"/><rect x="1357.75" y="180.42" width="3.4" height="105.73" style="fill:#470073"/><rect x="875.54" y="40.3" width="3.4" height="105.73" style="fill:#470073"/><rect x="1053.99" y="34.78" width="3.4" height="105.73" style="fill:#470073"/><rect x="520.12" y="263.91" width="3.4" height="119.33" transform="translate(-18.9 32.69) rotate(-3.52)" style="fill:#470073"/><rect x="350.68" y="166.71" width="3.4" height="90.28" transform="translate(-16.08 29.39) rotate(-4.67)" style="fill:#470073"/><rect x="502.11" y="215.1" width="94.55" height="3.4" transform="translate(305.36 754.65) rotate(-87.13)" style="fill:#470073"/><rect x="652.97" y="170.97" width="3.4" height="95.47" style="fill:#470073"/><rect x="212.74" y="33.13" width="1603.94" height="3.4" transform="translate(-0.52 22.62) rotate(-1.28)" style="fill:#470073"/><polygon points="451.59 43.88 448.19 44.08 445.79 -0.16 449.23 -0.16 451.59 43.88" style="fill:#470073"/><polygon points="380.99 168.82 384.38 168.61 378.69 47.24 375.29 47.45 380.99 168.82" style="fill:#470073"/><polygon points="648.39 -0.16 651.79 -0.16 651.59 41.08 648.19 41.08 648.39 -0.16" style="fill:#470073"/><rect x="543.33" y="103.14" width="126.63" height="9.03" transform="translate(496.3 713.82) rotate(-89.75)" style="fill:#470073"/><polygon points="1653.43 -0.16 1656.83 -0.16 1655.19 18.88 1655.07 20.4 1651.71 20.08 1651.79 18.96 1653.43 -0.16" style="fill:#470073"/><polygon points="1510.26 183.08 1518.32 23.91 1514.93 23.41 1506.88 182.58 1510.26 183.08" style="fill:#470073"/><polygon points="1464.11 22.48 1460.71 22.64 1459.67 -0.16 1463.07 -0.16 1464.11 22.48" style="fill:#470073"/><polygon points="1356.55 -0.16 1356.43 24.52 1353.03 24.52 1353.15 -0.16 1356.55 -0.16" style="fill:#470073"/><rect x="1172.27" y="103.16" width="151.09" height="3.4" transform="translate(1137.41 1352.21) rotate(-89.75)" style="fill:#470073"/><rect x="319.96" y="400.95" width="3.4" height="81.77" transform="translate(-33.09 26.1) rotate(-4.42)" style="fill:#470073"/><rect x="579.69" y="383.02" width="3.4" height="99.67" transform="matrix(1, -0.06, 0.06, 1, -26, 37.31)" style="fill:#470073"/><polygon points="1778.39 607.75 1315.06 589.99 670.88 586.65 231.07 587.83 231.07 584.43 670.89 583.25 1315.13 586.59 1778.53 604.35 1778.39 607.75" style="fill:#470073"/><polygon points="1770.59 742.41 1293.48 738.85 1293.44 738.85 678.24 705.31 236.1 720.91 235.98 717.51 678.27 701.91 678.35 701.91 1293.59 735.45 1770.62 739.01 1770.59 742.41" style="fill:#470073;mix-blend-mode:overlay"/><rect x="325.89" y="586.08" width="3.4" height="130.48" transform="translate(-27.43 14.54) rotate(-2.44)" style="fill:#470073"/><polygon points="468.77 585.05 457.09 480.73 463.43 480.53 475.11 584.85 468.77 585.05" style="fill:#470073"/><rect x="629.68" y="482.84" width="3.4" height="102.11" style="fill:#470073"/><rect x="233.52" y="789.25" width="477.74" height="3.4" style="fill:#470073"/><polygon points="427.74 933.64 415.48 791.35 422.13 791.08 434.39 933.36 427.74 933.64" style="fill:#470073"/><rect x="655.91" y="791.08" width="3.57" height="132.38" style="fill:#470073"/><rect x="518.15" y="709.55" width="3.57" height="81.4" style="fill:#470073"/><rect x="605.94" y="706.57" width="3.57" height="84.38" style="fill:#470073"/><rect x="1266.06" y="821.41" width="530.55" height="3.4" style="fill:#470073"/><polygon points="1513.09 929.93 1500.84 823.44 1507.49 823.23 1519.75 929.73 1513.09 929.93" style="fill:#470073"/><rect x="1644.33" y="821.84" width="3.57" height="109.49" style="fill:#470073"/><rect x="1603.51" y="741.71" width="3.57" height="81.4" style="fill:#470073"/><rect x="1361.62" y="737.59" width="3.57" height="84.03" style="fill:#470073"/><rect x="1691.3" y="738.73" width="3.57" height="84.38" style="fill:#470073"/><polygon points="1469.49 594.48 1463.85 594.23 1477.37 485.78 1483.02 486.03 1469.49 594.48" style="fill:#470073"/><rect x="1350.57" y="485.81" width="3.4" height="100.41" transform="translate(-29.79 82.31) rotate(-3.45)" style="fill:#470073"/><rect x="1568.78" y="667.24" width="136.52" height="3.4" transform="translate(906.18 2279.29) rotate(-87.82)" style="fill:#470073"/><rect x="1437.45" y="592.9" width="3.4" height="144.3" transform="translate(-22.97 52.15) rotate(-2.06)" style="fill:#470073"/></g><polygon points="469.88 533.84 468.43 483.84 464.43 483.84 469.88 533.84" style="fill:url(#Áåçûìÿííûé_ãðàäèåíò_733)"/><polygon points="500.43 167.84 602.39 161.54 602.39 167.84 500.43 167.84" style="opacity:0.5;mix-blend-mode:screen;fill:url(#Áåçûìÿííûé_ãðàäèåíò_629)"/><polygon points="1442.81 380.78 1700.43 387.84 1700.43 398.48 1442.81 380.78" style="opacity:0.5;mix-blend-mode:color-dodge;fill:url(#Áåçûìÿííûé_ãðàäèåíò_65)"/><polygon points="1296.43 587.84 1424.43 599.84 1434.22 595.33 1296.43 587.84" style="fill:#892c52"/><polygon points="356.43 255.84 420.43 251.84 544.43 263.84 356.43 255.84" style="opacity:0.5;mix-blend-mode:screen;fill:url(#Áåçûìÿííûé_ãðàäèåíò_629-2)"/></g><g id="floor"><polygon points="2204.43 985.8 2204.43 1079.84 -195.57 1079.84 -195.57 1000.32 150.71 944.84 150.75 944.84 158.99 943.52 243.91 929.92 1759.55 929.92 1941.91 952.84 1945.43 953.28 2148.95 978.84 2148.99 978.84 2190.35 984.04 2190.39 984.04 2204.43 985.8" style="fill:url(#Áåçûìÿííûé_ãðàäèåíò_20)"/><polygon points="577.11 1034.72 567.27 1059.52 559.19 1079.84 437.11 1079.84 463.35 1059.52 495.39 1034.72 577.11 1034.72" style="fill-rule:evenodd;opacity:0.47000000000000003;mix-blend-mode:screen;fill:url(#Áåçûìÿííûé_ãðàäèåíò_828)"/><polygon points="1048.43 1039.84 1048.43 1079.84 618.03 1079.84 630.23 1059.52 638.75 1045.28 639.07 1044.8 639.35 1044.36 644.43 1035.84 644.83 1035.84 686.51 1036.24 691.31 1036.32 939.11 1038.76 1048.43 1039.84" style="fill-rule:evenodd;fill:url(#Áåçûìÿííûé_ãðàäèåíò_929-4)"/><g style="opacity:0.7000000000000001;mix-blend-mode:multiply"><path d="M2204.43,1056.88V1061c-20.4-.32-49.48-.8-86-1.44-14.48-.24-30.12-.48-46.88-.8h-.08c-3.76,0-7.6-.12-11.48-.16l-5.4-.08c-5.16-.12-10.44-.2-15.8-.28l-16.84-.28c-5.72-.08-11.52-.2-17.44-.28l-8.92-.16L1968,1057l-17.44-.28h-.12c-35.52-.6-73.72-1.24-114.24-2h-.08c-2.2,0-4.4,0-6.6-.08l-182.4-3-261.84-4.32c-1.44,0-2.88,0-4.32,0-80.08-1.32-162.88-2.64-247-4-2.08,0-4.2,0-6.32-.08l-5.44-.08-2.72,0-60.2-1c-3.6-.08-7.2-.12-10.8-.2h-1.8l-91.32-1.48-14.92-.24c-.44,0-.88,0-1.32,0-82.68-1.32-165.68-2.64-247.76-3.88l-4.8-.08c-13.84-.24-27.72-.44-41.52-.64-1.6,0-3.2-.08-4.8-.08-155.12-2.44-306-4.72-444.4-6.76-59.48-.88-116.64-1.72-170.8-2.48h-.16l-1.44,0h-.12c-3.84,0-7.64-.12-11.44-.16-75.8-1.08-145.56-2-207.4-2.8v-4.08c64.76.84,138.24,1.84,218.28,3h.4L205,1024.8H205c102.56,1.52,211.88,3.16,324.6,4.92,3,0,6,.08,9.08.16h0c130.8,2,266,4.12,400.44,6.28,1.36,0,2.72,0,4.08,0l186.2,3c1.36,0,2.72,0,4.08,0,180.36,2.92,354.44,5.76,509,8.32,2,0,4.08.08,6.12.08,3.16.08,6.32.12,9.48.2l98,1.6,3.4,0,19.2.32,11.48.2,12.28.2,21.56.36,6.84.12c39.68.64,77.16,1.28,112.12,1.88h.08c2.84,0,5.68.08,8.48.12l17.6.28,26.4.44,8.92.16,17.44.28,16.84.28,16.28.28,6.32.12C2125.35,1055.56,2174.31,1056.36,2204.43,1056.88Z" style="fill:#470073"/><path d="M2149,978.84h0l-347-6.92-335.6-4.08-54-37.92-2.32-1.64-1.16,1.64-1.2,1.68,56.84,39.92.52.36,11.88.2h-353l5.56,67.12-186.2-3,2.36-82.12-599,6.12h-.6l-8.68,3.24L195.47,1016.6l-172.36,5.56h-.4l-10.88,3.92L-81,1059.52l-56.4,20.32H-106L-57,1059.52l80.24-33.28h.12l1.44,0H25l165.24,4.64,5.56-2.16,9.16-4H205L347,964.24l245.12-2.48,3.56,0,345.8-3.52-2.24,78-.08,2.6,0,1.44v0h1.32l14.92.24,91.32,1.48,1.8,0,10.8.16,60.2,1,2.72,0,5.44.08,6.32.12v0l-.36-4.08-5.2-63.08h436.52l77.68,71.4,4.56,4.16,182.4,3,6,4.8,25.28,20.32h6.48L1842,1059.52l-5.76-4.72h-.08l-5.16-4.12-6.84-.12-21.56-.36-12.28-.2-11.48-.2-19.2-.32-3.4,0-98-1.6-9.44-.16,0,0-80.52-74,243.92,4.12,131,74.84h.08l7.28,4.2h.12l17.44.28,27.6.44,8.92.16,17.44.28,16.84.28,15.8.28,5.4.08,2.48,1,52.12,20.32h7.24l-48.48-20.32-1.8-.8h-.08l-10-4.2-6.32-.12-16.28-.28-16.84-.28-17.44-.28-8.92-.16-26.4-.44-17.6-.28-131.08-74.84,369.8,6.2h0l14,.24V980Z" style="fill:#470073"/><path d="M645.59,1034.64l-.6,1c0,.08-.12.16-.16.24-1.6,2.48-3.36,5.2-5.2,8.08l-.28.44-.28.44-.32.48c-2.88,4.48-6,9.32-9.12,14.24-4.36,6.76-8.84,13.76-13,20.32h-4.76c4.28-6.76,8.8-13.8,13-20.32,6.64-10.32,12.44-19.4,15.4-24,1.08-1.68,1.76-2.76,2-3.08Z" style="fill:#470073"/><polygon points="1060.99 1079.84 1048.43 1079.84 1047.47 1059.52 1046.63 1041.96 1046.55 1040.04 1048.43 1040.04 1059.11 1040 1059.23 1042.16 1060.03 1059.52 1060.99 1079.84" style="fill:#470073"/><polygon points="1397.19 1079.84 1392.87 1079.84 1385.43 1059.52 1380.95 1047.36 1380.47 1046.04 1384.27 1044.64 1385.27 1047.4 1389.75 1059.52 1397.19 1079.84" style="fill:#470073"/><rect x="246.58" y="855.26" width="4.08" height="196.55" transform="translate(-723.16 1116.91) rotate(-84.93)" style="fill:#470073"/><polygon points="529.64 1029.73 592.06 961.76 595.63 961.72 536.6 1032.42 529.64 1029.73" style="fill:#470073"/></g><polygon points="1068.43 1079.84 1068.43 1042.3 1380.43 1047.84 1392.43 1079.84 1068.43 1079.84" style="opacity:0.47000000000000003;mix-blend-mode:screen;fill:url(#Áåçûìÿííûé_ãðàäèåíò_828-2)"/></g><g id="fire_2"><path d="M448.84,426c-15.41,4.11-6.77,12.87,1.3,14.14-2.05-6-12.87-21.74-13.5-29-1.08-12.27-.33-37.8.87-46.21C440.12,394.6,474.43,419.16,448.84,426Z" style="fill:url(#Áåçûìÿííûé_ãðàäèåíò_52)"/><path d="M429.94,339.84c-3.2,10,.58-6-1.73,29.63,0-13.07-6.2-12.88-7-13.07C417.79,355.53,429.62,340.26,429.94,339.84Z" style="fill:url(#Áåçûìÿííûé_ãðàäèåíò_52-2)"/><path d="M430,505.85l10.16,21.2-20.06-6.69A220.08,220.08,0,0,1,390,490.28a16.05,16.05,0,0,1-3.41-9.87A45.62,45.62,0,0,0,400,460.19c3-9,3.31-13.24,2.74-15.25,2.3-3,3.94-4.81,3.94-4.81s3.35,13.37,13.37,6.69,0-36.78,0-36.78,13.31,10,26.51,22.3c-3.77,3.18-7.68,9.9,3.58,21.16,10,10,15.18,6.86,17.79,2.71.87,1.37,1.63,2.71,2.27,4C480.23,480.25,419.79,484.66,430,505.85Z" style="fill:url(#Áåçûìÿííûé_ãðàäèåíò_52-3)"/><path d="M420.05,426.76l-3.34-13.37s-10-6.69-6.68-13.38l3.34-6.68s-10,6.68-6.69,16.71S420.05,426.76,420.05,426.76Z" style="fill:url(#Áåçûìÿííûé_ãðàäèåíò_52-4)"/><path d="M430.08,376.61c4.73,0,0,6.69,0,6.69S426.74,376.61,430.08,376.61Z" style="fill:url(#Áåçûìÿííûé_ãðàäèåíò_52-5)"/><path d="M401.36,429.17c.37,4.48-4.66-1.86-2.43-2.05A2.21,2.21,0,0,1,401.36,429.17Z" style="fill:url(#Áåçûìÿííûé_ãðàäèåíò_52-6)"/></g><g id="lamp_1"><path d="M498.87,509.42S427,545.35,419.16,545.35s-80.84-33.69-80.84-33.69,41.5-10.32,77.62-10.32C451.89,501.34,498.87,509.42,498.87,509.42Z" style="fill:#65928e"/><path d="M497.75,510.54s-15.57,8.16-32.7,16.7h0c-18.81,9.4-39.51,19.24-43.63,19.24-7,0-65.64-26.72-78.39-32.56l0,0,0,0-2.36-1.09s3.82-.91,10.13-2.14a401.31,401.31,0,0,1,42.18-6,231.35,231.35,0,0,1,26.27-.82C455.08,504.93,497.75,510.54,497.75,510.54Z" style="fill:url(#Áåçûìÿííûé_ãðàäèåíò_50)"/><path d="M416.91,543.1c-2.72,0-44.16-18.94-61.73-28a393.19,393.19,0,0,1,42.2-6C408.38,525.05,419.09,543.1,416.91,543.1Z" style="opacity:0.4;mix-blend-mode:multiply;fill:url(#Áåçûìÿííûé_ãðàäèåíò_842)"/><polygon points="448.64 578.41 431.92 611.84 408.52 611.84 391.81 578.41 407.19 565.61 414.07 559.89 428.48 559.96 437.24 567.98 448.64 578.41" style="fill:url(#Áåçûìÿííûé_ãðàäèåíò_50-2)"/><path d="M448.64,578.41H391.81l15.38-12.8,6.88-5.72,14.41.07,8.76,8Z" style="fill:url(#Áåçûìÿííûé_ãðàäèåíò_50-3)"/><path d="M428.48,560l8.76,8a72,72,0,0,0-12-2.94,42.9,42.9,0,0,0-18.05.57l6.88-5.72Z" style="opacity:0.4;mix-blend-mode:multiply;fill:url(#Áåçûìÿííûé_ãðàäèåíò_842-2)"/><path d="M438.24,550.4c0,5.89-7.79,10.67-17.4,10.67s-17.4-4.78-17.4-10.67,7.79-10.67,17.4-10.67S438.24,544.51,438.24,550.4Z" style="fill:url(#Áåçûìÿííûé_ãðàäèåíò_50-4)"/><path d="M405.89,549.79c0,4.23,4.78,7.79,11.23,8.74a10.36,10.36,0,0,1-4.61-8.27c0-3.92,2.56-7.37,6.45-9.4C411.61,541.34,405.89,545.15,405.89,549.79Z" style="opacity:0.4;mix-blend-mode:multiply;fill:url(#Áåçûìÿííûé_ãðàäèåíò_842-3)"/><polygon points="398.49 581.75 408.52 608.5 415.21 608.5 411.87 581.75 398.49 581.75" style="opacity:0.4;mix-blend-mode:multiply;fill:url(#Áåçûìÿííûé_ãðàäèåíò_842-4)"/><path d="M420.84,578.41a46.93,46.93,0,0,0,10,1.56c4.25,0,4.61-1.56,4.61-1.56h2.81l1.08,1.56,2.12-2.13Z" style="fill:#65928e"/><path d="M448.64,505.49s6.61,3.29,17.24,3.29,12.75-2.13,12.75-2.13Z" style="fill:#65928e"/></g><g id="light_1"><ellipse cx="430.37" cy="408.96" rx="191.45" ry="165.32" transform="translate(-5.2 5.55) rotate(-0.73)" style="opacity:0.5;mix-blend-mode:screen;fill:url(#Áåçûìÿííûé_ãðàäèåíò_629-3)"/><path d="M488.85,459.92c.31,23.91-21.89,43.59-49.59,43.94s-50.39-18.74-50.7-42.66,21.9-43.59,49.59-43.95S488.55,436,488.85,459.92Z" style="opacity:0.5;mix-blend-mode:screen;fill:url(#Áåçûìÿííûé_ãðàäèåíò_628)"/></g><g id="fire_2-2" data-name="fire_2"><path d="M1597.06,331.84c-3.29,10.32.59-6.22-1.78,30.5,0-13.46-6.38-13.26-7.18-13.46C1584.56,348,1596.73,332.27,1597.06,331.84Z" style="fill:url(#Áåçûìÿííûé_ãðàäèåíò_52-7)"/><path d="M1621.4,513a16.38,16.38,0,0,1-7.63,7.55c-20,9.35-41.47,14.11-41.47,14.11l-21.58-3,19-14.93c19-14.95-34.77-46.52-16.39-60.49,1.18-.87,2.5-1.76,3.92-2.63.51,5,3.92,10.26,17.66,5.58,15.52-5.26,6.55-18.74,4.5-23.39.89-11.66,7.31-21.18,13.84-28a27,27,0,0,0,3.2,16.64A33.85,33.85,0,0,0,1604,434c-.89,14.26-.93,28.13,1.76,32.78,6.23,10.74,15.39-.09,15.39-.09s.7,2.42,1.46,6.25c-1.44,1.59-3.09,5.69-4.41,15.33A46.94,46.94,0,0,0,1621.4,513Z" style="fill:url(#Áåçûìÿííûé_ãðàäèåíò_52-8)"/><path d="M1597.21,369.7c4.87,0,0,6.88,0,6.88S1593.77,369.7,1597.21,369.7Z" style="fill:url(#Áåçûìÿííûé_ãðàäèåíò_52-9)"/><path d="M1567.64,423.8c.38,4.61-4.8-1.92-2.5-2.11A2.27,2.27,0,0,1,1567.64,423.8Z" style="fill:url(#Áåçûìÿííûé_ãðàäèåíò_52-10)"/><path d="M1591.25,397c-6.16,3.76-15.58,11-15.58,19.87,0,0-9.46-13.25,1.89-22.71,10.58-8.82-1.83-25.86-3.59-28.15C1576,368.4,1591.08,386.93,1591.25,397Z" style="fill:url(#Áåçûìÿííûé_ãðàäèåíò_52-11)"/></g><g id="lamp_2"><path d="M1502.75,506.41s74,37,82.06,37S1668,508.72,1668,508.72s-42.71-10.63-79.9-10.63C1551.11,498.09,1502.75,506.41,1502.75,506.41Z" style="fill:#65928e"/><path d="M1503.9,507.56s16,8.4,33.66,17.2h0c19.36,9.66,40.66,19.79,44.91,19.79,7.21,0,67.57-27.49,80.69-33.51l0,0,0,0,2.43-1.12s-3.94-.94-10.44-2.21a411,411,0,0,0-43.42-6.19,237.89,237.89,0,0,0-27-.85C1547.82,501.79,1503.9,507.56,1503.9,507.56Z" style="fill:url(#Áåçûìÿííûé_ãðàäèåíò_50-5)"/><path d="M1587.12,541.08c2.79,0,45.45-19.5,63.54-28.78a403.52,403.52,0,0,0-43.43-6.19C1595.9,522.49,1584.88,541.08,1587.12,541.08Z" style="opacity:0.4;mix-blend-mode:multiply;fill:url(#Áåçûìÿííûé_ãðàäèåíò_842-5)"/><polygon points="1554.46 577.43 1571.66 611.84 1595.75 611.84 1612.96 577.43 1597.13 564.25 1590.04 558.36 1575.21 558.43 1566.19 566.69 1554.46 577.43" style="fill:url(#Áåçûìÿííûé_ãðàäèåíò_50-6)"/><path d="M1554.46,577.43H1613l-15.83-13.18-7.09-5.89-14.83.07-9,8.26Z" style="fill:url(#Áåçûìÿííûé_ãðàäèåíò_50-7)"/><path d="M1575.21,558.43l-9,8.26a74.85,74.85,0,0,1,12.36-3,44.35,44.35,0,0,1,18.58.59l-7.09-5.89Z" style="opacity:0.4;mix-blend-mode:multiply;fill:url(#Áåçûìÿííûé_ãðàäèåíò_842-6)"/><path d="M1565.16,548.59c0,6.07,8,11,17.91,11s17.92-4.91,17.92-11-8-11-17.92-11S1565.16,542.53,1565.16,548.59Z" style="fill:url(#Áåçûìÿííûé_ãðàäèåíò_50-8)"/><path d="M1598.47,548c0,4.36-4.93,8-11.56,9a10.66,10.66,0,0,0,4.74-8.51c0-4-2.64-7.59-6.64-9.68C1592.58,539.26,1598.47,543.19,1598.47,548Z" style="opacity:0.4;mix-blend-mode:multiply;fill:url(#Áåçûìÿííûé_ãðàäèåíò_842-7)"/><polygon points="1606.08 580.87 1595.75 608.4 1588.87 608.4 1592.31 580.87 1606.08 580.87" style="opacity:0.4;mix-blend-mode:multiply;fill:url(#Áåçûìÿííûé_ãðàäèåíò_842-8)"/><path d="M1583.07,577.43a48.35,48.35,0,0,1-10.27,1.6c-4.37,0-4.74-1.6-4.74-1.6h-2.9l-1.1,1.6-2.19-2.19Z" style="fill:#65928e"/><path d="M1554.46,502.36s-6.81,3.39-17.75,3.39-13.12-2.19-13.12-2.19Z" style="fill:#65928e"/></g><g id="light_2"><ellipse cx="1580.27" cy="385.72" rx="170.17" ry="146.95" transform="translate(-4.81 20.27) rotate(-0.73)" style="opacity:0.5;mix-blend-mode:screen;fill:url(#Áåçûìÿííûé_ãðàäèåíò_629-4)"/><ellipse cx="1585.27" cy="444.75" rx="51.63" ry="44.58" transform="translate(-5.56 20.33) rotate(-0.73)" style="opacity:0.5;mix-blend-mode:screen;fill:url(#Áåçûìÿííûé_ãðàäèåíò_628-2)"/></g><g id="shadow"><path d="M-195.57-.16v1080h2400V-.16Zm2259.36,964L1984,957.6,1668.43,511.84s-40-12-76-12-88,8-88,8l-120,420,179.92,10.72L549.71,931.8l66.72-4-120-416s-36-8-72-8-88,8-88,8l-328,460,44.8-10.44-86.6,12.92L-85,10.24c140.24,17.64,297.44,37.6,297.44,37.6H1811l312-37.68Z" style="opacity:0.6000000000000001;mix-blend-mode:multiply;fill:url(#Áåçûìÿííûé_ãðàäèåíò_842-9)"/></g><g id="doorway"><polygon points="699.62 894.26 697.56 789.98 700 789.99 693.54 703.15 658.78 703.03 691.88 697.24 687.38 582.12 680.37 481.44 690.13 479.77 686 370.4 700.31 270.51 790.14 170.21 877.01 113.93 988.75 46.98 1057.28 85.43 1196.43 179.84 1255.73 239.02 1280.79 287.19 1303.36 373.56 1304.35 488.57 1318.93 489.51 1302.59 497.07 1296.58 589.05 1290.45 587.64 1279.33 896.39 1249.73 896.28 699.62 894.26" style="fill:url(#Áåçûìÿííûé_ãðàäèåíò_62)"/><path d="M1255.1,389.49c-5.75,163.08-22.34,460.85-25.47,514.7l-475.7-1.75c-3.72-70.11-18.36-355.15-22.73-511.68-2.45-87.83,69.69-160,130.64-205.15,58.6-43.38,118.42-70.75,132.39-76.88,13.93,6.07,73.32,33.08,131.55,76.11C1186.49,229.7,1258.2,301.62,1255.1,389.49Z" style="fill:url(#Áåçûìÿííûé_ãðàäèåíò_62-2)"/><path d="M1297.39,368.69l-3.73,115-4.73,4.82-21.78,415.82-37.53-.14c3.14-53.85,19.73-351.62,25.48-514.7,3.1-87.87-68.61-159.79-129.32-204.65-58.24-43-117.62-70-131.55-76.11-14,6.14-73.78,33.51-132.4,76.88C800.89,230.73,728.75,302.93,731.2,390.76c4.36,156.53,19,441.57,22.73,511.68l-40.76-.15s-3.8-74.17-8.4-173.08c-.23-5-4.15-8.64-4.39-13.75-2.77-60.35-5.77-128.59-8.36-194.27-.19-4.76,2.58-22.76,2.39-27.49-1.83-47.33-2.7-81.07-3.81-120.91C685.7,197.06,957.48,77,990.07,63.18c.33-.14.63-.26.91-.39l2.28-.93s199.1,81.9,273.15,211.42a215.55,215.55,0,0,1,20.79,49,175.72,175.72,0,0,1,6.31,38.6c.07,1.5.16,4.5.16,4.5Z" style="fill:url(#Áåçûìÿííûé_ãðàäèåíò_84)"/><path d="M1268,371.67c-.15-2-.42-4.17-.79-6.41-.09-.59-.2-1.18-.31-1.78-6.74-36.15-38.62-94.69-38.62-94.69l-8.3-3.17-1.72-.65h0l-73.94-80.3L1143,183.5s-15.87,2.3-18.52.34c-35.3-26.08-84-65.25-84-65.25l-44-10.75-1.37-10.79-.87-.36-.9.37-2.14.89-2.47,1.4C970.12,110,853.08,177.6,853.08,177.6l-9.29,10.71L841,191.59l-.55.65,0,0,4.07,7.56c-6.8,5.52-66.83,43.68-85.54,69.94l-1.72,2.45c-.34.49-.68,1-1,1.46l0,.05c-20.23,29.44-32.49,59.43-36.66,89.5-.16,1.15-.3,2.44-.43,3.83l-.15,1.77c-.78,9.6-.95,22.14-.95,22.14l12.7,101.08-.24,1.77-3.58,26.77-.37,2.75,0,.32c.32,3.36,3.11,33.68,6.22,75.9.31,4.17.63,8.47.94,12.87l.2,2.87c2.47,34.88,5,75.85,6.5,115.79a1.45,1.45,0,0,1-.05.48,6.64,6.64,0,0,1-.35,1.26.56.56,0,0,1,0,.12,69.71,69.71,0,0,1-2.95,6.64c-1.1,2.22-2,4-2,4s.63,16.5,1.47,38.42l8.06-2.17c1.66,43.2-3.92,109.68-3.88,110.42l-.14,12.13,13.52.05c-1.19-22.4-3.5-66.74-6.22-121.82-.76-15.24-1.54-31.29-2.34-47.94,0-.47,0-.95-.07-1.42-3.61-74.65-7.56-160.88-10.55-237.41,0-.59,0-1.19-.07-1.78-1.44-36.86-2.64-71.43-3.48-101.31q-.09-3.7,0-7.36c0-1.19.05-2.38.11-3.56,0-.62.05-1.25.08-1.87.08-1.48.18-3,.31-4.43,0-.54.09-1.07.14-1.6,0,0,0,0,0,0,0-.46.08-.91.13-1.36l.12-1.15.06-.52c.06-.59.13-1.19.21-1.77,0-.35.08-.71.13-1.07q.24-1.91.54-3.81t.66-3.93c.11-.64.23-1.27.35-1.89.07-.43.16-.85.25-1.27.11-.59.23-1.17.36-1.76l.27-1.3c.08-.33.15-.67.22-1,.18-.78.36-1.56.55-2.33q.18-.79.39-1.59c.41-1.68.86-3.35,1.33-5,.24-.89.51-1.78.77-2.66q.93-3.12,2-6.21c.15-.44.3-.89.46-1.33q1.27-3.69,2.7-7.3c.23-.61.47-1.21.72-1.81s.49-1.2.74-1.8a218.49,218.49,0,0,1,13.37-26.67c.24-.41.48-.83.73-1.23.51-.87,1-1.74,1.56-2.6l.94-1.52c1-1.56,2-3.12,3-4.66l.81-1.22.16-.27.93-1.38c.73-1.09,1.47-2.17,2.22-3.26.63-.91,1.26-1.81,1.9-2.71.75-1.06,1.51-2.12,2.28-3.17.52-.72,1-1.43,1.57-2.14q1.34-1.79,2.69-3.55c1.47-1.93,3-3.83,4.49-5.73.95-1.16,1.89-2.32,2.85-3.47.75-.91,1.51-1.82,2.28-2.72s1.32-1.56,2-2.34c.49-.58,1-1.15,1.49-1.72s.83-.95,1.25-1.42.69-.78,1-1.18c.63-.71,1.26-1.41,1.9-2.11l.22-.24c.73-.81,1.46-1.62,2.21-2.41,5.53-6,11.25-11.8,17.08-17.37q1.27-1.23,2.55-2.43,1.83-1.72,3.69-3.42c.61-.58,1.23-1.14,1.85-1.7l.35-.32c.76-.69,1.52-1.38,2.28-2.05s1.44-1.3,2.17-1.95l1.71-1.5q2.6-2.28,5.21-4.5l2-1.73q4.4-3.71,8.8-7.24l.47-.38a.71.71,0,0,1,.14-.1c.25-.22.51-.43.77-.63l1.07-.85c2.2-1.75,4.4-3.47,6.58-5.15.95-.74,1.9-1.46,2.84-2.17,1.88-1.43,3.76-2.85,5.63-4.23,2.18-1.61,4.35-3.19,6.53-4.75,7.9-5.69,15.8-11.08,23.56-16.17a755.38,755.38,0,0,1,98.63-54.32l2.44-1.09.68-.3.56-.25.54.23c14.86,6.51,73.49,33.38,131,75.88q5.1,3.78,10.3,7.8l1.41,1.1c26.85,21,54.76,47,76.66,77l1.09,1.52c19.63,27.29,34.24,57.92,38.61,91.18.07.59.15,1.18.22,1.77a156.32,156.32,0,0,1,1,24.28c-1,28.65-2.35,61.45-3.9,96.36,0,.83-.08,1.68-.11,2.52,0,.16,0,.31,0,.46l-.06,1.32c-1.57,35.22-3.34,72.47-5.17,109.68,0,.72-.08,1.43-.11,2.14l-.39,7.84c-1,19.29-1.93,38.53-2.89,57.42,0,.46,0,.91-.08,1.38-1.34,26.26-2.68,51.83-4,75.91l-.09,1.78c-4,75.55-7.42,136.31-8.69,157.89l11.66,0,1.44-10.84c.08-1.17-1.93-107.51-.89-138.35.17-5.24,5.87-8.25,5.87-8.25l0-.35.11-1.77s4.6,19.17.6-68.83S1262.94,501,1262.94,501l-2-10.81-.18-1-.15-.8.28-3,.1-1c.71-7.8,2.33-25.73,3.88-44.45.76-9.25,1.51-18.7,2.12-27.19v-.22c.66-9.12,1.15-17.14,1.35-22.65A166.36,166.36,0,0,0,1268,371.67Z" style="fill:url(#Áåçûìÿííûé_ãðàäèåíò_916)"/><path d="M1220.53,386.4c-.35,9.8-.73,20.56-1.16,32.11h0c-.13,3.52-.26,7.12-.4,10.77-2.45,65.91-5.93,154-9.26,236.47-.37,9.41-.74,18.75-1.13,28-.14,3.79-.3,7.57-.44,11.32-2.81,69.31-5.34,131-6.82,166.9-.86,20.78-1.36,32.93-1.36,32.93l-184.25-.21-237.59-1.34s-12.6-369.74-16.76-518.62c0-1.31-.05-2.62-.05-3.93a137.47,137.47,0,0,1,11.42-53.66q2.57-6,5.61-11.89c15.62-30.12,40.42-57,67.68-79.83,31.69-26.62,66.71-47.89,94.49-62.8,29.84-16,51.31-24.65,51.31-24.65s26,10.68,60.44,30.21c8.5,4.81,17.51,10.17,26.79,16,7.89,5,16,10.36,24.07,16.08a462.26,462.26,0,0,1,36.94,28.84c25.18,21.89,48,47.2,62.81,75.35,1.69,3.21,3.28,6.47,4.76,9.75A141.32,141.32,0,0,1,1220.48,376Q1220.71,381.14,1220.53,386.4Z" style="fill:url(#Áåçûìÿííûé_ãðàäèåíò_745)"/><polygon points="993.83 147.56 992.05 147.52 993.3 96.72 990.73 62.6 992.5 62.47 995.08 96.67 995.07 96.71 993.83 147.56" style="fill:#2e0d14"/><rect x="1103.36" y="188.33" width="72.82" height="1.78" transform="translate(304.08 987.02) rotate(-53.1)" style="fill:#1a0733"/><path d="M1172.32,472.27l-20,417.28-326.67-1.27L818.21,476.9a130.42,130.42,0,0,1,.9-13.37c-.19-3.29-.27-6.61-.26-9.94.35-94.41,79.75-170.65,177.34-170.29s176.43,77.18,176.09,171.59q0,6.06-.48,12C1172.21,470.34,1172.32,472.27,1172.32,472.27Z" style="fill:url(#Áåçûìÿííûé_ãðàäèåíò_62-3)"/><rect x="839.47" y="155.9" width="1.78" height="72.77" transform="translate(51.12 539.09) rotate(-36.61)" style="fill:#1a0733"/><rect x="1256.36" y="327.85" width="1.78" height="72.97" transform="translate(888.29 1620.23) rotate(-89.79)" style="fill:#1a0733"/><rect x="1253.73" y="454.96" width="1.78" height="68.62" transform="translate(760.73 1742.08) rotate(-89.79)" style="fill:#290d24"/><rect x="1240.97" y="711.31" width="1.78" height="68.31" transform="translate(476.65 1975.25) rotate(-89.08)" style="fill:#1a0733"/><rect x="726.13" y="331.5" width="1.78" height="72.96" transform="matrix(0, -1, 1, 0, 356.36, 1093.65)" style="fill:#1a0733"/><rect x="729.75" y="456.73" width="1.78" height="72.43" transform="translate(235 1221.76) rotate(-89.79)" style="fill:#1a0733"/><polygon points="706.36 734.68 704.99 733.83 773.45 729.45 773.59 731.22 706.36 734.68" style="fill:#1a0733"/><polygon points="788.85 297.34 763.21 283.79 756.03 273.6 729.1 254.58 730.12 253.13 757.3 272.32 764.42 282.42 789.68 295.77 788.85 297.34" style="fill:#1a0733"/><polygon points="1188.62 286.85 1187.8 285.28 1213.16 272.11 1220.35 262.06 1220.48 261.98 1247.67 243.07 1248.69 244.53 1221.62 263.35 1214.36 273.49 1188.62 286.85" style="fill:#1a0733"/><polygon points="704.43 735.84 745.36 732.68 736.74 739.76 704.43 735.84" style="fill:#892c52"/><polygon points="692.55 513.42 726.82 520.6 726.45 523.35 692.51 523.23 692.55 513.42" style="fill:url(#Áåçûìÿííûé_ãðàäèåíò_733-2)"/><polygon points="819.37 162.54 849.49 194.32 845.12 198.9 819.37 162.54" style="fill:url(#Áåçûìÿííûé_ãðàäèåíò_733-3)"/><polygon points="692.51 523.23 726.45 523.35 732.7 599.57 695.23 599.43 695.67 609.61 733.63 612.45 733.83 615.31 696.05 618.4 692.51 523.23" style="opacity:0.4;mix-blend-mode:screen;fill:url(#Áåçûìÿííûé_ãðàäèåíò_828-3)"/><polygon points="1291.84 483.69 1260.9 485.36 1261.07 483.57 1291.87 476.61 1293.82 439.98 1264.87 439.87 1267.01 412.45 1295.83 416.76 1291.84 483.69" style="opacity:0.4;mix-blend-mode:screen;fill:url(#Áåçûìÿííûé_ãðàäèåíò_828-4)"/><polygon points="990.73 62.6 983.07 66.21 990.55 110.37 992.05 147.52 994.19 96.69 990.73 62.6" style="fill:#1a0733"/><polygon points="770.05 599.52 816.33 602.42 816.25 623.39 769.94 631.12 770.05 599.52" style="opacity:0.2;mix-blend-mode:multiply;fill:url(#Áåçûìÿííûé_ãðàäèåíò_681)"/><polygon points="769.9 641.26 819.43 645.53 822.3 806.42 777.77 810.93 769.9 641.26" style="opacity:0.2;mix-blend-mode:multiply;fill:url(#Áåçûìÿííûé_ãðàäèåíò_681-2)"/><path d="M1209.71,665.76c-.37,9.41-.74,18.75-1.13,28l-38.7-4.54-.32-21Z" style="opacity:0.4;mix-blend-mode:screen;fill:url(#Áåçûìÿííûé_ãðàäèåíò_828-5)"/><path d="M1208.14,705.05c-2.81,69.31-5.34,131-6.82,166.9l-41.73-6.17,4.06-160.88Z" style="opacity:0.4;mix-blend-mode:screen;fill:url(#Áåçûìÿííûé_ãðàäèåíò_828-6)"/><path d="M851.39,337.64,828.2,370.57l-66.89,10.21a137.47,137.47,0,0,1,11.42-53.66Z" style="opacity:0.2;mix-blend-mode:multiply;fill:url(#Áåçûìÿííûé_ãðàäèåíò_681-3)"/><polygon points="777.33 390.91 771.23 433.19 810.64 433.34 821.77 391.07 777.33 390.91" style="opacity:0.4;mix-blend-mode:screen;fill:url(#Áåçûìÿííûé_ãðàäèåíò_828-7)"/><path d="M904.32,291.76,861.11,330.1s-59.35-10.78-82.77-14.87c15.62-30.12,40.42-57,67.68-79.83Z" style="opacity:0.2;mix-blend-mode:multiply;fill:url(#Áåçûìÿííûé_ãðàäèåíò_681-4)"/><path d="M1220.48,376l-60.56-9.71-23-33.1,70.68-8.92A141.32,141.32,0,0,1,1220.48,376Z" style="opacity:0.2;mix-blend-mode:multiply;fill:url(#Áåçûìÿííûé_ãðàäèåíò_681-5)"/><polygon points="1215.06 386.97 1220.84 429.3 1181.43 429.15 1170.62 386.81 1215.06 386.97" style="opacity:0.2;mix-blend-mode:multiply;fill:url(#Áåçûìÿííûé_ãðàäèåíò_681-6)"/><path d="M1202.87,314.47c-27.22,4.62-71.31,12.3-71.31,12.3l-42.93-38.66,51.43-49C1165.24,261,1188,286.32,1202.87,314.47Z" style="opacity:0.2;mix-blend-mode:multiply;fill:url(#Áåçûìÿííûé_ãðàäèåíò_681-7)"/><path d="M1052.26,178.16c-6.18,33.72-18.79,98.64-24.19,98.07-7.29-.79-59-2.83-59-2.83L940.51,172.6c29.84-16,51.31-24.65,51.31-24.65S1017.81,158.63,1052.26,178.16Z" style="opacity:0.2;mix-blend-mode:multiply;fill:url(#Áåçûìÿííûé_ãðàäèåíò_681-8)"/><path d="M1103.12,210.28l-45,72.19-17.07-6.2s26.39-58.93,38-82.07C1086.94,199.19,1095,204.56,1103.12,210.28Z" style="opacity:0.2;mix-blend-mode:multiply;fill:url(#Áåçûìÿííûé_ãðàäèåíò_681-9)"/><polygon points="1113.82 889.4 1113.79 890.08 855.34 889.08 855.33 888.39 1113.82 889.4" style="fill:#3e1d26"/><path d="M871.13,259.68s41.54,46.55,43.72,46,56.93-17.61,56.93-17.61l-21.39-80.62s16,69.17,15.52,71.29-48.67,17.65-53.76,17.42S871.13,259.68,871.13,259.68Z" style="fill:url(#Áåçûìÿííûé_ãðàäèåíò_928)"/><path d="M774.32,390.9c1.61.07,50.57-1.27,50.56.18s-11.61,42.27-11.61,42.27l-39.11-.15,56.12.21L836.37,386Z" style="fill:url(#Áåçûìÿííûé_ãðàäèåíò_928-2)"/><polygon points="822.51 626.2 773.43 632.5 822.5 631.32 822.51 626.2" style="fill:#330b2b"/><path d="M1214.63,433.52l-36.21,1.87-.11,29.9,36.9.13S1168,469.6,1168,468.91s-6.1-41-6.1-41Z" style="fill:url(#Áåçûìÿííûé_ãðàäèåíò_928-3)"/><polygon points="1102.92 264.54 1078.72 288.5 1122.63 327.61 1178.85 318.58 1114.85 335.69 1048.47 299.89 1102.92 264.54" style="fill:url(#Áåçûìÿííûé_ãðàäèåíò_928-4)"/><path d="M1227.13,902.45l22.79-389c-7.26,159-17.84,348.81-20.32,390.72Z" style="opacity:0.4;mix-blend-mode:multiply;fill:url(#Áåçûìÿííûé_ãðàäèåíò_24-4)"/><path d="M1255.1,389.47c-1.25,35.4-3,77.15-5,121.35l-34.55,9.43-3.45,87.55-1.32,1c2.86-102.95,4.22-202.42.06-232.88-17.92-131.27-219.11-189.57-219.11-189.57s-194.54,48.89-217.29,188c-15.18,92.78,13.14,506.21,13.14,506.21l-33.6,21.91c-3.71-70.09-18.38-355.15-22.72-511.68-2.44-87.81,69.67-160,130.63-205.12,58.6-43.39,118.43-70.77,132.41-76.92,13.89,6.09,73.28,33.11,131.52,76.13C1186.48,229.7,1258.22,301.61,1255.1,389.47Z" style="opacity:0.6000000000000001;mix-blend-mode:multiply;fill:url(#Áåçûìÿííûé_ãðàäèåíò_681-10)"/><path d="M1250.09,510.82l-.08,1.08a9.75,9.75,0,0,0,0-1.08Z" style="opacity:0.6000000000000001;mix-blend-mode:screen;fill:url(#Áåçûìÿííûé_ãðàäèåíò_14)"/><polygon points="1110.18 719.63 1109.6 879.38 1114.25 880.28 1110.18 719.63" style="opacity:0.6000000000000001;mix-blend-mode:multiply;fill:url(#Áåçûìÿííûé_ãðàäèåíò_681-11)"/><polygon points="1217.81 487.55 1293.65 483.69 1288.92 490.29 1217.81 487.55" style="fill:#1a0733"/><polygon points="1212.43 939.84 1024.65 954.47 1028.43 959.84 1252.43 959.84 1212.43 939.84" style="opacity:0.47000000000000003;mix-blend-mode:screen;fill:url(#Áåçûìÿííûé_ãðàäèåíò_828-8)"/><path d="M577.79,928.4l-22.2-.08c-16.56,8.4-32.68,11.24-46.4,13s-31.72,6.84-31.72,6.84L476,952.72,472.87,962c2,9.64,6.36,23.28,8.08,28.52l-.52,1.28-12-28,8-20s40-4,52-8l24-8Z" style="fill:#c94977"/><polygon points="552.43 927.84 651.28 929.93 544.43 931.84 552.43 927.84" style="fill:#c94977"/></g><g id="door"><path d="M1154,535.4,1151.35,604h0l-.24,6.28-1.16.08-5.44,117.32-3.2,69.32-.16,3.12L1141,804l-3.52,75.72,3.24.08,0,10.76v11l-101.2-.36-1.88,0L992.51,901,871,900.56h-5.32l-26.12-.08-.12-2.28-.92-17.48,4.72-.12-1.4-79.88,0-3.6-.08-3.16-1.2-69.24-2-117.64,0-3-.08-3.32-2.28-131.72s1-46.28,34.16-84.24c.44-.52.88-1,1.36-1.52a122.26,122.26,0,0,1,12.2-11.8c3-2.6,6.28-5.08,9.72-7.48a138.82,138.82,0,0,1,31-16.12,7.21,7.21,0,0,1,.84-.32,177.12,177.12,0,0,1,37.72-9.24c3-.44,6.16-.8,9.36-1.12,7.16-.68,14.72-1.08,22.68-1.12h2.64c20.48.08,38.36,3,54,8a9,9,0,0,1,1.76.56,140.33,140.33,0,0,1,43.8,23.36,124.78,124.78,0,0,1,11.12,9.72c1.52,1.44,3,2.92,4.36,4.4a7.17,7.17,0,0,1,.92,1c36,38.64,42.8,87,42.8,87l-3,65.16Z" style="fill:url(#Áåçûìÿííûé_ãðàäèåíò_59)"/><path d="M870.23,384.84c.44-.52.88-1,1.36-1.52v5.56l-.56,491v15.4l0,1.92v3.32h-5.32v-1.32l.2-19.2,4.32-489.6Z" style="fill:#2c0502"/><path d="M1113.71,383.16v2.72L1108.51,879l-.16,15-.08,6.16v0l-3.76,0,.32-21.2,7.92-494,0-2.76A7.17,7.17,0,0,1,1113.71,383.16Z" style="fill:#2c0502"/><path d="M932.19,900.72v-1.24l-.32-21.08-7.24-526.24-.08-4.24a7.21,7.21,0,0,1,.84-.32l0,4.2,8.4,526.56.36,21.16v.24l7.8,1Z" style="fill:#2c0502"/><path d="M1051.75,344.12a9,9,0,0,1,1.76.56l0,2.6L1047,603.6l-.12,4.68-1,38.32v.52l-.12,4-.52,22v0l-.16,5.52v0l-.08,2.48s0,0,0,0l-.2,8.12,0,2.56,0,.48v.16l-.24,10.68-.08,2.36,0,1.8-.16,7.12v0l-4.12,163-.56,22.36,0,1.28-1.88,0v-1.24l.08-6.4.4-16,4.16-161.76.12-5.2,0-1.4.08-3.56.36-13.12v-.28l.08-2.88,0-2.52.2-8.12.08-1.84.12-5.12.52-21.32,1.16-44,0-2.84v0l6.6-256.88Z" style="fill:#2c0502"/><path d="M1108.43,377.76c0,.8-.12,1.72-.16,2.72-2,28.8-10.2,139.6-20.08,161.48-9.56,21.28-29.88,261-36,335.84-1.16,14-1.8,22.16-1.8,22.16l-5.32.6.08-.64,2.16-22.2L1097,370.84l.28-2.8A124.78,124.78,0,0,1,1108.43,377.76Z" style="opacity:0.2;mix-blend-mode:multiply;fill:url(#Áåçûìÿííûé_ãðàäèåíò_37)"/><path d="M992.51,901l-23.16-.12,0-1.24-.44-22.16-.24-10.4s2.76-75.84,4.64-145.56c.08-3.24.16-6.48.24-9.68a1.09,1.09,0,0,0,0-.36c.12-3.28.2-6.52.28-9.72v0c0-1.64.08-3.24.08-4.88.08-1.4.08-2.8.12-4.16,0-.52,0-1,0-1.56v-.72c0-1.12.08-2.2.12-3.32v0c0-2.84.08-5.6.16-8.36v0c.6-29.28.88-53.56.4-64.68-.08-1.48-.12-3.2-.24-5.2v0c0-1.36-.08-2.84-.16-4.44-2-48.84-8.56-203.52-11.08-263,0-1-.08-2-.12-2.92,3-.44,6.16-.8,9.36-1.12l.12,2.72,2,51.84s-5.08,29.76-3.72,81.16c.48,16.92,3,69,6.08,131.28,1.76,34.88,3.72,73,5.64,109.88,3.48,66.84,6.84,129.8,8.6,162.8.64,11.84,1,19.84,1.2,22.8C992.47,900.56,992.51,901,992.51,901Z" style="opacity:0.2;mix-blend-mode:multiply;fill:url(#Áåçûìÿííûé_ãðàäèåíò_37-2)"/><path d="M893.51,364c0,1.36-.12,3.2-.2,5.48-1.24,29.64-5.48,131.32-7,135.16s-2.28-99-2.48-127.72c0-2.32,0-4.16,0-5.44C886.83,368.92,890.07,366.44,893.51,364Z" style="opacity:0.2;mix-blend-mode:multiply;fill:url(#Áåçûìÿííûé_ãðàäèåíò_37-3)"/><polygon points="870.98 900.09 871.9 621.7 875.82 826.97 874.62 900.41 870.98 900.09" style="opacity:0.6000000000000001;mix-blend-mode:multiply;fill:url(#Áåçûìÿííûé_ãðàäèåíò_681-12)"/><polygon points="1003.71 899.76 1003.71 900.96 1000.03 900.64 1000.03 899.76 999.83 876.72 995.19 338.48 995.15 336.12 996.63 336.12 996.67 338.44 1003.39 876.76 1003.71 899.76" style="fill:#2c0502"/><polygon points="1140.75 879.76 1140.71 890.52 1140.71 901.56 1039.51 901.2 1037.63 901.16 992.51 901 870.99 900.56 865.67 900.56 839.55 900.48 839.43 898.2 838.51 880.72 843.23 880.6 847.55 880.48 865.87 880.04 871.03 879.92 871.07 879.92 874.95 879.8 931.87 878.4 933.83 878.36 968.87 877.48 991.23 876.92 999.83 876.72 1000.63 876.68 1003.39 876.76 1038.11 877.52 1040.11 877.56 1047.27 877.72 1052.15 877.8 1104.83 878.96 1108.51 879.04 1135.15 879.64 1137.51 879.68 1140.75 879.76" style="fill:url(#Áåçûìÿííûé_ãðàäèåíò_35)"/><path d="M1153.47,535.36l.52,0L1151.35,604h0l-.24,6.28-1.16.08-5.44,117.32-3.2,69.32-.16,3.12L1141,804l-3.52,75.72,3.24.08,0,10.76-3.76.72-2.44.48s.24-4.32.64-12.08c.84-14.76,2.28-41.92,4.08-75.56.08-1.36.16-2.72.2-4.08.08-1,.12-2,.16-3.08,1.16-21.32,2.4-44.92,3.64-69.44,2-38.64,4-79.48,5.84-117.12,0-1,.08-2.08.12-3.12s.12-2.24.16-3.32c1.16-25,2.2-48.52,3-68.68,1.36-33.68,2.08-58.28,1.72-66.12-1-21.44-13.72-55.36-40.4-83.24l-1-1c-1.44-1.52-3-3-4.48-4.44a151.47,151.47,0,0,0-54.8-33.2l-1.76-.6a170.07,170.07,0,0,0-55-8.24h-.16c-.44,0-.88,0-1.32,0a204.25,204.25,0,0,0-22.6,1.48q-4.8.54-9.36,1.32a177.6,177.6,0,0,0-37.8,10.52l-.8.36a152.67,152.67,0,0,0-31.32,17.36c-3.32,2.36-6.48,4.88-9.48,7.44a144.1,144.1,0,0,0-12.24,11.92c-.48.52-.92,1-1.4,1.56-22,25-32.08,55-30.48,80.76.4,6.56,1,29.08,1.68,60.6v0c.44,20,.88,43.56,1.36,69,0,1.08,0,2.16.08,3.24s0,2.24,0,3.4c.72,37.32,1.44,78.12,2.08,116.92.44,24.44.84,48.12,1.16,69.6,0,1,0,2,.08,3.08,0,1.36,0,2.72.08,4,.56,35.24,1,63.88,1.28,79.4.12,8.08.2,12.6.2,12.6l-4.28,2.6-4,2.52-.92-17.48,4.72-.12-1.4-79.88,0-3.6-.08-3.16-1.2-69.24-2-117.64,0-3-.08-3.32-2.28-131.72s1-46.28,34.16-84.24c.44-.52.88-1,1.36-1.52a122.26,122.26,0,0,1,12.2-11.8c3-2.6,6.28-5.08,9.72-7.48a138.82,138.82,0,0,1,31-16.12,7.21,7.21,0,0,1,.84-.32,177.12,177.12,0,0,1,37.72-9.24c3-.44,6.16-.8,9.36-1.12,7.16-.68,14.72-1.08,22.68-1.12h2.64c20.48.08,38.36,3,54,8a9,9,0,0,1,1.76.56,140.33,140.33,0,0,1,43.8,23.36,124.78,124.78,0,0,1,11.12,9.72c1.52,1.44,3,2.92,4.36,4.4a7.17,7.17,0,0,1,.92,1c36,38.64,42.8,87,42.8,87Z" style="fill:#260319"/><polygon points="837.21 532.16 865.59 529.83 865.42 603.66 838.42 604.12 837.21 532.16" style="fill:url(#Áåçûìÿííûé_ãðàäèåíò_50-9)"/><path d="M857.38,545.09c0,3.19-1.44,5.77-3.18,5.76s-3.16-2.6-3.15-5.79,1.44-5.77,3.19-5.76S857.4,541.9,857.38,545.09Z" style="opacity:0.6000000000000001;mix-blend-mode:multiply;fill:url(#Áåçûìÿííûé_ãðàäèåíò_53)"/><path d="M860.61,589c0,3.48-1.89,6.29-4.19,6.28s-4.15-2.83-4.14-6.31,1.89-6.29,4.19-6.28S860.62,585.54,860.61,589Z" style="opacity:0.6000000000000001;mix-blend-mode:multiply;fill:url(#Áåçûìÿííûé_ãðàäèåíò_53-2)"/><polygon points="866.47 609.36 842.87 607.44 838.47 607.08 838.43 604.12 838.35 600.8 842.75 600.8 858.47 600.88 863.35 598.44 863.79 531.92 865.59 529.84 866.47 609.36" style="opacity:0.6000000000000001;mix-blend-mode:multiply;fill:url(#Áåçûìÿííûé_ãðàäèåíò_53-3)"/><polygon points="862.27 722.96 862.11 796.76 846.19 797.04 841.79 797.12 841.71 793.96 840.51 724.72 844.95 724.36 862.27 722.96" style="fill:url(#Áåçûìÿííûé_ãðàäèåíò_50-10)"/><path d="M854.08,738.2c0,3.19-1.44,5.78-3.19,5.77s-3.16-2.6-3.15-5.79,1.44-5.77,3.19-5.77S854.09,735,854.08,738.2Z" style="opacity:0.6000000000000001;mix-blend-mode:multiply;fill:url(#Áåçûìÿííûé_ãðàäèåíò_53-4)"/><path d="M857.3,782.14c0,3.47-1.88,6.29-4.18,6.28S849,785.58,849,782.1s1.89-6.29,4.19-6.28S857.32,778.66,857.3,782.14Z" style="opacity:0.6000000000000001;mix-blend-mode:multiply;fill:url(#Áåçûìÿííûé_ãðàäèåíò_53-5)"/><polygon points="863.15 802.44 846.27 801.08 841.83 800.72 841.79 797.12 841.71 793.96 846.11 793.96 855.19 794 860.03 791.52 860.47 725.04 862.27 722.96 863.15 802.44" style="opacity:0.6000000000000001;mix-blend-mode:multiply;fill:url(#Áåçûìÿííûé_ãðàäèåíò_53-6)"/><polygon points="1153.99 535.4 1151.35 603.96 1151.23 607.32 1150.15 607.28 1149.19 607.24 1124.27 606.28 1125.67 532.44 1152.39 535.24 1153.47 535.36 1153.99 535.4" style="fill:url(#Áåçûìÿííûé_ãðàäèåíò_50-11)"/><path d="M1133.55,547.88c-.06,3.19,1.31,5.8,3.06,5.83s3.21-2.53,3.27-5.72-1.32-5.8-3.07-5.83S1133.6,544.69,1133.55,547.88Z" style="opacity:0.6000000000000001;mix-blend-mode:multiply;fill:url(#Áåçûìÿííûé_ãðàäèåíò_53-7)"/><path d="M1129.38,591.73c-.06,3.48,1.75,6.33,4,6.37s4.22-2.74,4.28-6.22-1.75-6.33-4-6.37S1129.44,588.25,1129.38,591.73Z" style="opacity:0.6000000000000001;mix-blend-mode:multiply;fill:url(#Áåçûìÿííûé_ãðàäèåíò_53-8)"/><polygon points="1151.39 603.96 1151.15 610.24 1149.99 610.32 1149.07 610.36 1123.11 611.92 1125.67 532.44 1127.43 534.56 1126.43 601.08 1131.27 603.64 1149.35 603.92 1150.31 603.96 1151.39 603.96" style="opacity:0.6000000000000001;mix-blend-mode:multiply;fill:url(#Áåçûìÿííûé_ãðàäèåíò_53-9)"/><polygon points="1142.71 727.48 1144 727.64 1140.88 796.96 1140.72 800.08 1139.01 800 1123.4 799.4 1124.77 725.6 1142.71 727.48" style="fill:url(#Áåçûìÿííûé_ãðàäèåíò_50-12)"/><path d="M1132.47,741c-.06,3.19,1.28,5.8,3,5.83s3.13-2.53,3.19-5.72-1.29-5.8-3-5.83S1132.52,737.83,1132.47,741Z" style="opacity:0.6000000000000001;mix-blend-mode:multiply;fill:url(#Áåçûìÿííûé_ãðàäèåíò_53-10)"/><path d="M1128.41,784.88c-.06,3.47,1.71,6.33,3.95,6.37s4.11-2.75,4.17-6.23-1.71-6.33-4-6.37S1128.47,781.4,1128.41,784.88Z" style="opacity:0.6000000000000001;mix-blend-mode:multiply;fill:url(#Áåçûìÿííûé_ãðàäèåíò_53-11)"/><polygon points="1139.16 796.92 1140.88 796.96 1140.72 800.08 1140.57 803.96 1138.81 804.08 1122.27 805.08 1124.77 725.6 1126.52 727.72 1125.55 794.2 1130.23 796.76 1139.16 796.92" style="opacity:0.6000000000000001;mix-blend-mode:multiply;fill:url(#Áåçûìÿííûé_ãðàäèåíò_53-12)"/></g><g id="shadow_latch_1"><path d="M984.24,685.8l.29-77.48-8.42-4.55-25.25,76.75v0a26.53,26.53,0,0,0-6.74,17.49c0,13.48,10.43,25,21.67,25s21.84-10.48,21.89-24A28,28,0,0,0,984.24,685.8Zm-18.42,28.57c-8.24,0-14.89-8-14.85-17.93a20.16,20.16,0,0,1,.37-3.84l.18,4.56,3.72-.07v.08l1.16-.07h.2l24.2-.39C980.73,706.51,974,714.4,965.82,714.37Z" style="opacity:0.7000000000000001;mix-blend-mode:multiply;fill:url(#Áåçûìÿííûé_ãðàäèåíò_53-13)"/></g><g id="latch_1"><polygon points="976.54 604.29 976.23 690.97 975.11 691.05 972.78 691.24 948.62 693.07 948.42 693.07 947.26 693.14 947.26 692.86 947.11 689.9 946.74 680.62 946.63 678.46 946.45 673.18 945.57 652.14 943.84 610.29 943.58 604.17 976.54 604.29" style="fill:#34306e"/><polygon points="972.87 604.28 972.54 690.96 947.26 692.86 943.54 693.13 943.35 688.57 943.35 688.53 943.13 683.17 942.88 676.53 942.88 676.49 939.9 604.16 972.87 604.28" style="fill:url(#Áåçûìÿííûé_ãðàäèåíò_935)"/><polygon points="976.23 690.97 975.5 692.65 975.26 692.65 972.82 692.68 948.62 693.07 947.26 693.06 943.54 693.13 945.87 689.9 972.55 690 972.71 690.04 975.03 690.65 976.23 690.97" style="fill:#34306e"/><path d="M976.26,681.77a27.63,27.63,0,0,0-3.66-5.29,21.71,21.71,0,0,0-9.9-6.64,9.16,9.16,0,0,0-1.12-.28,15.15,15.15,0,0,0-3.59-.46,17.37,17.37,0,0,0-3.77.43c-.56.12-1.12.28-1.68.43a22.73,22.73,0,0,0-6.09,3.22h0a24.94,24.94,0,0,0-3.53,3.31v0A26.54,26.54,0,0,0,936.13,694c0,13.48,10.43,25,21.67,25s21.84-10.48,21.89-24A28,28,0,0,0,976.26,681.77Zm-18.43,28.57c-8.24,0-14.89-8.05-14.85-17.93a21,21,0,0,1,.37-3.84v0a19.85,19.85,0,0,1,3.39-7.91,14.81,14.81,0,0,1,4.74-4.3,11.31,11.31,0,0,1,2-1,12.88,12.88,0,0,1,4.45-.79,11.81,11.81,0,0,1,4.43.86c.36.12.72.28,1.08.44,4.63,2.22,8.09,7.11,9.07,13.12,0,.36.12.72.16,1.08a9.66,9.66,0,0,1,.07,1.2c0,.44,0,.84,0,1.28v.16C972.74,702.48,966,710.37,957.83,710.34Z" style="fill:url(#Áåçûìÿííûé_ãðàäèåíò_935-2)"/><path d="M975.26,692.65c0-.52-.08-1-.15-1.56v0c0-.16,0-.24-.08-.4a22.1,22.1,0,0,0-2.46-7.17,20.06,20.06,0,0,0-9.28-9c-.32-.12-.68-.28-1-.4a12.84,12.84,0,0,0-4.28-.74,14.27,14.27,0,0,0-4.28.67,15.87,15.87,0,0,0-2,.79,18.67,18.67,0,0,0-5.09,3.62,21.37,21.37,0,0,0-6.13,14.82c0,10.76,8.36,20,17.32,20s17.43-8.37,17.47-19.13A14.38,14.38,0,0,0,975.26,692.65Zm-17.43,17.69c-8.24,0-14.89-8.05-14.85-17.93a21,21,0,0,1,.37-3.84v0a19.85,19.85,0,0,1,3.39-7.91,14.81,14.81,0,0,1,4.74-4.3,11.31,11.31,0,0,1,2-1,12.88,12.88,0,0,1,4.45-.79,11.81,11.81,0,0,1,4.43.86c.36.12.72.28,1.08.44,4.63,2.22,8.09,7.11,9.07,13.12,0,.36.12.72.16,1.08a9.66,9.66,0,0,1,.07,1.2c0,.44,0,.84,0,1.28v.16C972.74,702.48,966,710.37,957.83,710.34Z" style="opacity:0.7000000000000001;mix-blend-mode:multiply;fill:url(#Áåçûìÿííûé_ãðàäèåíò_53-14)"/><polygon points="954.37 659.06 950.48 682.22 964.31 682.27 961.29 659.09 954.37 659.06" style="fill:url(#Áåçûìÿííûé_ãðàäèåíò_55)"/><path d="M954.91,663.91l-1.5,12.52s9.12.35,9.12-.11-1.72-12.23-1.72-12.23Z" style="opacity:0.4;mix-blend-mode:screen;fill:url(#Áåçûìÿííûé_ãðàäèåíò_36)"/><polygon points="950.48 682.22 953.4 677.53 962.52 677.92 964.31 682.27 950.48 682.22" style="fill:#34306e"/><polygon points="943.18 610.59 950.76 606.85 953.53 650.75 944.5 652.32 943.18 610.59" style="opacity:0.4;mix-blend-mode:screen;fill:url(#Áåçûìÿííûé_ãðàäèåíò_36-2)"/><polygon points="955.28 714.15 955.27 717.51 963.01 717.18 962.75 713.49 955.28 714.15" style="opacity:0.4;mix-blend-mode:screen;fill:url(#Áåçûìÿííûé_ãðàäèåíò_36-3)"/><polygon points="963.92 713.17 965 716.39 966.78 715.15 964.92 712.48 963.92 713.17" style="opacity:0.4;mix-blend-mode:screen;fill:url(#Áåçûìÿííûé_ãðàäèåíò_36-4)"/></g><g id="shadow_latch_2"><path d="M1002,698c-.77,13.49,9.16,24.64,20.38,25.29s22.39-10.21,23.16-23.67a26.57,26.57,0,0,0-5.66-17.88v0l-20.51-78.14-8.69,4-4.44,77.35A27.86,27.86,0,0,0,1002,698Zm7-2,24.13,1.86h.2l1.15.15V698l3.71.29.46-4.54a20.59,20.59,0,0,1,.14,3.86c-.57,9.86-7.7,17.46-15.93,17S1008.46,705.8,1009,696Z" style="opacity:0.7000000000000001;mix-blend-mode:multiply;fill:url(#Áåçûìÿííûé_ãðàäèåíò_53-15)"/></g><g id="latch_2"><polygon points="1014.72 690.18 1043.7 692.56 1047.99 603.61 1015.04 603.48 1014.72 690.18" style="fill:#34306e"/><polygon points="1018.41 690.19 1047.39 692.58 1051.68 603.62 1018.73 603.5 1018.41 690.19" style="fill:url(#Áåçûìÿííûé_ãðàäèåíò_935-3)"/><polygon points="1047.39 692.58 1045.09 689.3 1018.42 689.21 1014.72 690.18 1015.45 691.83 1047.39 692.58" style="fill:#34306e"/><path d="M1048.19,675.91a23.83,23.83,0,0,0-3.53-3.3,20.72,20.72,0,0,0-6.08-3.26,14.85,14.85,0,0,0-1.7-.48,16.51,16.51,0,0,0-3.76-.44,15.15,15.15,0,0,0-3.61.41,10.8,10.8,0,0,0-1.08.29,21.9,21.9,0,0,0-10,6.57,28.47,28.47,0,0,0-7.22,18.53c0,13.49,10.44,24.12,21.69,24.16s21.82-11.4,21.87-24.9A26.59,26.59,0,0,0,1048.19,675.91ZM1033,709.69c-8.2,0-14.82-8-14.85-17.8v-.17c0-.42,0-.84,0-1.25s.06-.82.11-1.22.09-.7.15-1c1-6,4.53-10.89,9.17-13.08a9.91,9.91,0,0,1,1.06-.45,12.53,12.53,0,0,1,4.45-.79,12.7,12.7,0,0,1,4.43.81,14.49,14.49,0,0,1,2.06,1,15.57,15.57,0,0,1,4.71,4.35,19.17,19.17,0,0,1,3.31,7.94,20.28,20.28,0,0,1,.34,3.85C1047.91,701.73,1041.21,709.72,1033,709.69Z" style="fill:url(#Áåçûìÿííûé_ãðàäèåíò_935-4)"/><path d="M1047.87,682.61a20.52,20.52,0,0,0-3.46-4.72,17.92,17.92,0,0,0-5.06-3.68,12.75,12.75,0,0,0-2-.79,13.37,13.37,0,0,0-4.29-.72,13,13,0,0,0-4.27.72c-.35.12-.71.25-1,.4a20,20,0,0,0-9.34,8.87,22.65,22.65,0,0,0-2.51,7.17c0,.13,0,.27-.07.41a13.74,13.74,0,0,0-.16,1.56,14.46,14.46,0,0,0-.07,1.47c0,10.78,8.35,19.27,17.32,19.3s17.44-9.11,17.48-19.89A21.12,21.12,0,0,0,1047.87,682.61ZM1033,709.69c-8.2,0-14.82-8-14.85-17.8v-.17c0-.42,0-.84,0-1.25s.06-.82.11-1.22.09-.7.15-1c1-6,4.53-10.89,9.17-13.08a9.91,9.91,0,0,1,1.06-.45,12.53,12.53,0,0,1,4.45-.79,12.7,12.7,0,0,1,4.43.81,14.49,14.49,0,0,1,2.06,1,15.57,15.57,0,0,1,4.71,4.35,19.17,19.17,0,0,1,3.31,7.94,20.28,20.28,0,0,1,.34,3.85C1047.91,701.73,1041.21,709.72,1033,709.69Z" style="opacity:0.7000000000000001;mix-blend-mode:multiply;fill:url(#Áåçûìÿííûé_ãðàäèåíò_53-16)"/><polygon points="1036.82 658.41 1040.54 681.59 1026.71 681.54 1029.9 658.39 1036.82 658.41" style="fill:url(#Áåçûìÿííûé_ãðàäèåíò_55-2)"/><path d="M1036.24,663.25l1.42,12.53s-9.13.29-9.13-.17,1.82-12.21,1.82-12.21Z" style="opacity:0.4;mix-blend-mode:screen;fill:url(#Áåçûìÿííûé_ãðàäèåíò_36-5)"/><polygon points="1040.54 681.59 1037.65 676.89 1028.53 677.21 1026.71 681.54 1040.54 681.59" style="fill:#34306e"/><polygon points="1048.56 609.97 1044.81 606.16 1042.93 650.03 1047.42 651.68 1048.56 609.97" style="opacity:0.4;mix-blend-mode:screen;fill:url(#Áåçûìÿííûé_ãðàäèåíò_36-6)"/><polygon points="1035.5 713.5 1035.49 716.85 1027.75 716.46 1028.04 712.77 1035.5 713.5" style="opacity:0.4;mix-blend-mode:screen;fill:url(#Áåçûìÿííûé_ãðàäèåíò_36-7)"/><polygon points="1026.87 712.45 1025.77 715.66 1024 714.41 1025.88 711.75 1026.87 712.45" style="opacity:0.4;mix-blend-mode:screen;fill:url(#Áåçûìÿííûé_ãðàäèåíò_36-8)"/></g><g id="doorstep"><path d="M1267.1,896.22l89.33-.38,72,32s20,16,36,20,56,4,56,4l-12,44-39.75.54-112.25-48.54Z" style="fill:#c94977"/><polygon points="576.43 927.84 576.43 915.84 620.43 891.84 693.54 894.31 580.43 931.84 576.43 927.84" style="fill:#c94977"/><path d="M1504.71,996.52l-1023-3.77s-6.21-18.5-8.81-30.71l3.12-9.31,1.5-4.51s18-5.06,31.7-6.85,29.86-4.65,46.41-13.06l22.2.08,0-11.32c.2-.08.36-.2.56-.28,3.13-1.59,6.17-3.1,9.1-4.57s5.49-2.74,8-4.05a1.42,1.42,0,0,1,.36-.16c2.57-1.31,5-2.5,7.3-3.65l9.62-4.8,2-1c5-2.5,7.93-3.93,7.93-3.93l59.37-.3,30-.13,1,8.08,40.76.15,23.51-19.31,1.16-1,6.32,0,10.56,0,20.44-.09,9.64,0h0l29.6-.13,124.08-.47,10.33,0,10.31.12,114.2,1.3,38.52.42h0l36.16.41,11.8.13.2.16,17.46,14.58,6.82,5.71,40.76.15,1.11-8.08h.6l15.8.18,73,.91s46.31,23.29,88.23,45.29c34.22,17.92,69.52,11,70.23,13.81,0,.08,0,.16,0,.24C1516.07,963.44,1504.71,996.52,1504.71,996.52Z" style="fill:url(#Áåçûìÿííûé_ãðàäèåíò_832)"/><path d="M758.67,961.92l7.24,31.88-284.24-1s-.28-.8-.72-2.2c-1.72-5.24-6-18.88-8.08-28.52l3.12-9.32,1.48-4.52s18-5,31.72-6.84,29.84-4.64,46.4-13l22.2.08v-2.72l0-8.6c.2-.08.36-.2.56-.28,3.12-1.6,6.16-3.12,9.08-4.56s5.52-2.76,8.08-4.08a1.42,1.42,0,0,1,.36-.16c2.56-1.24,5-2.48,7.28-3.64,3.6-1.8,6.88-3.4,9.64-4.8l2-1,7.92-3.92,59.36-.32,30-.12,1,8.08,40.76.16,23.52-19.32,1.16-1h6.32l10.56,0,20.44-.08Z" style="fill:url(#Áåçûìÿííûé_ãðàäèåíò_832-2)"/><path d="M1399.3,959.56s114.15,7.71,114.38,6.64,1.17-9.54,1.17-9.54Z" style="fill:#5e3e55"/><path d="M1504.71,996.52l-1023-3.77s-6.21-18.5-8.81-30.71l3.12-9.31,74.75,2.44h0l247.09,8s13,7.68,14,4.17a19,19,0,0,0,.69-4l240-1.36h1.4s42.66,3.88,43.27,2.8l.08-.12,75.44.28s.73,6.68,4.53,6.69,2.83-6.67,2.83-6.67l79.53-2,7.84-.22,247.42-6.17C1516.07,963.44,1504.71,996.52,1504.71,996.52Z" style="fill:url(#Áåçûìÿííûé_ãðàäèåíò_928-5)"/><polygon points="550.75 955.16 472.87 962.04 472.86 962.04 472.86 962.04 475.97 952.73 477.48 948.23 477.48 948.23 477.49 948.23 550.75 955.16" style="fill:#892c52"/><polygon points="703.37 960.12 760.43 967.84 758.67 961.92 703.37 960.12" style="fill:#892c52"/><polygon points="1013 926.88 792.73 929.19 815.92 882.02 1003.97 881.49 1013 926.88" style="opacity:0.47000000000000003;mix-blend-mode:screen;fill:url(#Áåçûìÿííûé_ãðàäèåíò_828-9)"/><path d="M680.9,930.17,577.78,928.4l.05-11.34.55-.27C610,920.68,680.9,930.17,680.9,930.17Z" style="fill:url(#Áåçûìÿííûé_ãðàäèåíò_928-6)"/><polygon points="765.91 993.79 758.67 961.92 809.25 892.95 767.41 963.43 770.42 993.81 765.91 993.79" style="fill:#3e0f33;opacity:0.6000000000000001;mix-blend-mode:multiply"/><path d="M1014.14,994.71l3.58-32.46-10-32.48-203.27-1.93,208-8L1009,893.68l6.12,34.42,12.73,35.07s1.44,31.59.92,31.59Z" style="fill:#3e0f63;opacity:0.8;mix-blend-mode:multiply"/><path d="M1267.43,962.84l2.8,32.81-10.76,0,.12-33.59-45.44-21.37-37-53.42,37.75,48.7,23.45-2.91,205.56,9.63c-12.76,1.08-202.17-7-203.49-7S1267.35,962,1267.35,962Z" style="fill:#3e0f63;opacity:0.8;mix-blend-mode:multiply"/><polygon points="1448.43 943.84 1415.58 942.48 1449.1 941.48 1448.43 943.84" style="fill:#c94977"/></g><g id="shadow_doorstep"><path d="M472.43,963.84l80-8,138.72,2,69.28,10,8-4h284s72.91,1.86,138.45.93,328.46-8.93,328.46-8.93l-10.91,40-140,84h-820l-68-88Z" style="opacity:0.6000000000000001;mix-blend-mode:multiply;fill:url(#Áåçûìÿííûé_ãðàäèåíò_842-10)"/></g></g></svg>