<svg xmlns="http://www.w3.org/2000/svg" xmlns:xlink="http://www.w3.org/1999/xlink" viewBox="0 0 1920 1080"><defs><clipPath id="clip-path"><rect x="-1274.82" width="3780" height="1080" style="fill:none"/></clipPath><linearGradient id="Áåçûìÿííûé_ãðàäèåíò_14" x1="1467.48" y1="1112.88" x2="1467.48" y2="-623.54" gradientTransform="translate(2934.97 744.6) rotate(-180)" gradientUnits="userSpaceOnUse"><stop offset="0" stop-color="#2f95c9"/><stop offset="0.23" stop-color="#267eb7"/><stop offset="0.7" stop-color="#104388"/><stop offset="1" stop-color="#001a68"/></linearGradient><linearGradient id="Áåçûìÿííûé_ãðàäèåíò_68" x1="2684.25" y1="1080.42" x2="2684.25" y2="189.91" gradientTransform="matrix(-1, 0, 0, 1, 2616.44, 0)" gradientUnits="userSpaceOnUse"><stop offset="0" stop-color="#92c2ff"/><stop offset="1" stop-color="#5e7cff"/></linearGradient><linearGradient id="Áåçûìÿííûé_ãðàäèåíò_107" x1="2119.83" y1="1089.47" x2="2119.83" y2="81.57" gradientTransform="matrix(-1, 0, 0, 1, 2616.44, 0)" gradientUnits="userSpaceOnUse"><stop offset="0" stop-color="#92c2ff"/><stop offset="0.12" stop-color="#84aff1"/><stop offset="0.53" stop-color="#5470c5"/><stop offset="0.79" stop-color="#5459a9"/><stop offset="1" stop-color="#544a97"/></linearGradient><linearGradient id="linear-gradient" x1="3257.51" y1="1082.21" x2="3257.51" y2="-6.12" gradientTransform="matrix(-1, 0, 0, 1, 2616.44, 0)" gradientUnits="userSpaceOnUse"><stop offset="0" stop-color="#92b6ff"/><stop offset="0.21" stop-color="#88a5ee"/><stop offset="1" stop-color="#6466b0"/></linearGradient><linearGradient id="Áåçûìÿííûé_ãðàäèåíò_169" x1="-1781.73" y1="656.35" x2="307.18" y2="656.35" gradientTransform="translate(580.71)" gradientUnits="userSpaceOnUse"><stop offset="0" stop-color="#c6ccf3"/><stop offset="0.26" stop-color="#cfd4f5"/><stop offset="0.67" stop-color="#e7eafa"/><stop offset="1" stop-color="#fff"/></linearGradient><linearGradient id="Áåçûìÿííûé_ãðàäèåíò_169-2" x1="-1189.54" y1="655.84" x2="-192.64" y2="655.84" gradientTransform="matrix(1, 0.02, -0.02, 1, 594.21, -23.38)" xlink:href="#Áåçûìÿííûé_ãðàäèåíò_169"/><linearGradient id="Áåçûìÿííûé_ãðàäèåíò_11" x1="609.63" y1="1080" x2="609.63" y2="723" gradientUnits="userSpaceOnUse"><stop offset="0" stop-color="#6a625e"/><stop offset="1" stop-color="#695c69"/></linearGradient><linearGradient id="Áåçûìÿííûé_ãðàäèåíò_150" x1="-1285.92" y1="922.99" x2="1392.5" y2="922.99" gradientUnits="userSpaceOnUse"><stop offset="0" stop-color="#9d7c90"/><stop offset="1" stop-color="#775477"/></linearGradient><linearGradient id="Áåçûìÿííûé_ãðàäèåíò_50" x1="1223.32" y1="1108.4" x2="1191.31" y2="794.46" gradientUnits="userSpaceOnUse"><stop offset="0" stop-color="#382c44"/><stop offset="1" stop-color="#594c4c"/></linearGradient><linearGradient id="Áåçûìÿííûé_ãðàäèåíò_50-2" x1="1148.84" y1="1083.19" x2="1119.34" y2="793.77" xlink:href="#Áåçûìÿííûé_ãðàäèåíò_50"/><linearGradient id="Áåçûìÿííûé_ãðàäèåíò_50-3" x1="947.83" y1="1112" x2="915.33" y2="793.17" xlink:href="#Áåçûìÿííûé_ãðàäèåíò_50"/><linearGradient id="Áåçûìÿííûé_ãðàäèåíò_150-2" x1="-136.86" y1="852.05" x2="-145.14" y2="770.88" xlink:href="#Áåçûìÿííûé_ãðàäèåíò_150"/><linearGradient id="Áåçûìÿííûé_ãðàäèåíò_150-3" x1="493.8" y1="957.91" x2="479.17" y2="814.4" xlink:href="#Áåçûìÿííûé_ãðàäèåíò_150"/><linearGradient id="Áåçûìÿííûé_ãðàäèåíò_150-4" x1="166.94" y1="1071.36" x2="163.39" y2="1036.56" xlink:href="#Áåçûìÿííûé_ãðàäèåíò_150"/><linearGradient id="Áåçûìÿííûé_ãðàäèåíò_150-5" x1="420.83" y1="866.29" x2="417.48" y2="833.43" xlink:href="#Áåçûìÿííûé_ãðàäèåíò_150"/><linearGradient id="Áåçûìÿííûé_ãðàäèåíò_150-6" x1="324.7" y1="848.86" x2="323.08" y2="833" xlink:href="#Áåçûìÿííûé_ãðàäèåíò_150"/><linearGradient id="Áåçûìÿííûé_ãðàäèåíò_150-7" x1="502.96" y1="904.13" x2="1771.25" y2="904.13" xlink:href="#Áåçûìÿííûé_ãðàäèåíò_150"/><linearGradient id="Áåçûìÿííûé_ãðàäèåíò_50-4" x1="1618.84" y1="1047.75" x2="1590.26" y2="767.41" xlink:href="#Áåçûìÿííûé_ãðàäèåíò_50"/><linearGradient id="Áåçûìÿííûé_ãðàäèåíò_150-8" x1="995.6" y1="979.62" x2="2266.79" y2="979.62" xlink:href="#Áåçûìÿííûé_ãðàäèåíò_150"/><linearGradient id="Áåçûìÿííûé_ãðàäèåíò_150-9" x1="843.81" y1="810.99" x2="1542.19" y2="810.99" xlink:href="#Áåçûìÿííûé_ãðàäèåíò_150"/><linearGradient id="Áåçûìÿííûé_ãðàäèåíò_150-10" x1="1602.95" y1="721.03" x2="1602.95" y2="709.45" xlink:href="#Áåçûìÿííûé_ãðàäèåíò_150"/><linearGradient id="Áåçûìÿííûé_ãðàäèåíò_150-11" x1="2154.4" y1="808.44" x2="2154.4" y2="790.53" xlink:href="#Áåçûìÿííûé_ãðàäèåíò_150"/><linearGradient id="Áåçûìÿííûé_ãðàäèåíò_150-12" x1="804.1" y1="1067.47" x2="804.1" y2="1014.28" xlink:href="#Áåçûìÿííûé_ãðàäèåíò_150"/><linearGradient id="Áåçûìÿííûé_ãðàäèåíò_150-13" x1="934.25" y1="1067.47" x2="934.25" y2="1040.87" xlink:href="#Áåçûìÿííûé_ãðàäèåíò_150"/><linearGradient id="Áåçûìÿííûé_ãðàäèåíò_150-14" x1="-122.96" y1="931.73" x2="-122.96" y2="895.92" xlink:href="#Áåçûìÿííûé_ãðàäèåíò_150"/><linearGradient id="Áåçûìÿííûé_ãðàäèåíò_150-15" x1="-379.56" y1="946.48" x2="-379.56" y2="878.57" xlink:href="#Áåçûìÿííûé_ãðàäèåíò_150"/><linearGradient id="Áåçûìÿííûé_ãðàäèåíò_50-5" x1="1859.57" y1="888.68" x2="1852.62" y2="820.47" xlink:href="#Áåçûìÿííûé_ãðàäèåíò_50"/><linearGradient id="Áåçûìÿííûé_ãðàäèåíò_50-6" x1="843.81" y1="999.76" x2="957.51" y2="999.76" xlink:href="#Áåçûìÿííûé_ãðàäèåíò_50"/><linearGradient id="Áåçûìÿííûé_ãðàäèåíò_150-16" x1="286.5" y1="958.29" x2="286.5" y2="921.53" xlink:href="#Áåçûìÿííûé_ãðàäèåíò_150"/><linearGradient id="Áåçûìÿííûé_ãðàäèåíò_150-17" x1="-39.53" y1="817.41" x2="20.53" y2="817.41" xlink:href="#Áåçûìÿííûé_ãðàäèåíò_150"/><linearGradient id="Áåçûìÿííûé_ãðàäèåíò_150-18" x1="569.7" y1="872.83" x2="601.17" y2="872.83" xlink:href="#Áåçûìÿííûé_ãðàäèåíò_150"/><linearGradient id="Áåçûìÿííûé_ãðàäèåíò_150-19" x1="-112.48" y1="812.27" x2="78.93" y2="812.27" xlink:href="#Áåçûìÿííûé_ãðàäèåíò_150"/><linearGradient id="Áåçûìÿííûé_ãðàäèåíò_50-7" x1="1470.53" y1="793.26" x2="1470.53" y2="-0.11" xlink:href="#Áåçûìÿííûé_ãðàäèåíò_50"/><linearGradient id="Áåçûìÿííûé_ãðàäèåíò_55" x1="1546.09" y1="714.23" x2="1546.09" y2="467.2" gradientUnits="userSpaceOnUse"><stop offset="0" stop-color="#22161f"/><stop offset="1" stop-color="#0b0015"/></linearGradient><linearGradient id="Áåçûìÿííûé_ãðàäèåíò_150-20" x1="1085.77" y1="125.91" x2="1293.26" y2="125.91" xlink:href="#Áåçûìÿííûé_ãðàäèåíò_150"/><linearGradient id="Áåçûìÿííûé_ãðàäèåíò_150-21" x1="1059.33" y1="396.63" x2="2158.33" y2="396.63" xlink:href="#Áåçûìÿííûé_ãðàäèåíò_150"/><linearGradient id="Áåçûìÿííûé_ãðàäèåíò_150-22" x1="1058.78" y1="431.1" x2="2156.82" y2="431.1" xlink:href="#Áåçûìÿííûé_ãðàäèåíò_150"/><linearGradient id="Áåçûìÿííûé_ãðàäèåíò_150-23" x1="1785.65" y1="361.5" x2="2505.18" y2="361.5" xlink:href="#Áåçûìÿííûé_ãðàäèåíò_150"/><linearGradient id="Áåçûìÿííûé_ãðàäèåíò_150-24" x1="1288.35" y1="561.34" x2="1487.03" y2="561.34" xlink:href="#Áåçûìÿííûé_ãðàäèåíò_150"/><linearGradient id="Áåçûìÿííûé_ãðàäèåíò_150-25" x1="1343.78" y1="685.53" x2="1556.04" y2="685.53" xlink:href="#Áåçûìÿííûé_ãðàäèåíò_150"/><linearGradient id="Áåçûìÿííûé_ãðàäèåíò_150-26" x1="895.23" y1="613.01" x2="1088.87" y2="613.01" xlink:href="#Áåçûìÿííûé_ãðàäèåíò_150"/><linearGradient id="Áåçûìÿííûé_ãðàäèåíò_150-27" x1="1360.32" y1="154.6" x2="1855.99" y2="154.6" xlink:href="#Áåçûìÿííûé_ãðàäèåíò_150"/><linearGradient id="Áåçûìÿííûé_ãðàäèåíò_150-28" x1="1544.49" y1="267.02" x2="1768.99" y2="267.02" xlink:href="#Áåçûìÿííûé_ãðàäèåíò_150"/><linearGradient id="Áåçûìÿííûé_ãðàäèåíò_150-29" x1="1612.75" y1="431.4" x2="1855.99" y2="431.4" xlink:href="#Áåçûìÿííûé_ãðàäèåíò_150"/><linearGradient id="Áåçûìÿííûé_ãðàäèåíò_150-30" x1="1944.54" y1="82.76" x2="2049.76" y2="82.76" xlink:href="#Áåçûìÿííûé_ãðàäèåíò_150"/><linearGradient id="Áåçûìÿííûé_ãðàäèåíò_150-31" x1="1851.82" y1="302.14" x2="1896.99" y2="302.14" xlink:href="#Áåçûìÿííûé_ãðàäèåíò_150"/><linearGradient id="Áåçûìÿííûé_ãðàäèåíò_150-32" x1="1285.11" y1="238.79" x2="1353.42" y2="238.79" xlink:href="#Áåçûìÿííûé_ãðàäèåíò_150"/><linearGradient id="Áåçûìÿííûé_ãðàäèåíò_150-33" x1="1384.2" y1="168.27" x2="1393.83" y2="168.27" xlink:href="#Áåçûìÿííûé_ãðàäèåíò_150"/><linearGradient id="Áåçûìÿííûé_ãðàäèåíò_150-34" x1="1135.56" y1="416.38" x2="1183.54" y2="416.38" xlink:href="#Áåçûìÿííûé_ãðàäèåíò_150"/><linearGradient id="Áåçûìÿííûé_ãðàäèåíò_150-35" x1="1373.77" y1="449.36" x2="1409.63" y2="449.36" xlink:href="#Áåçûìÿííûé_ãðàäèåíò_150"/><linearGradient id="Áåçûìÿííûé_ãðàäèåíò_150-36" x1="1435.34" y1="446.48" x2="1449.88" y2="446.48" xlink:href="#Áåçûìÿííûé_ãðàäèåíò_150"/><linearGradient id="Áåçûìÿííûé_ãðàäèåíò_150-37" x1="1773.01" y1="365.47" x2="1855.99" y2="365.47" xlink:href="#Áåçûìÿííûé_ãðàäèåíò_150"/><linearGradient id="Áåçûìÿííûé_ãðàäèåíò_150-38" x1="1588.97" y1="262.07" x2="1711.75" y2="262.07" xlink:href="#Áåçûìÿííûé_ãðàäèåíò_150"/><linearGradient id="Áåçûìÿííûé_ãðàäèåíò_150-39" x1="1403.32" y1="80.19" x2="1519.77" y2="80.19" xlink:href="#Áåçûìÿííûé_ãðàäèåíò_150"/><linearGradient id="Áåçûìÿííûé_ãðàäèåíò_150-40" x1="1190.96" y1="153.45" x2="1190.96" y2="103.99" xlink:href="#Áåçûìÿííûé_ãðàäèåíò_150"/><linearGradient id="Áåçûìÿííûé_ãðàäèåíò_150-41" x1="1256.24" y1="120.88" x2="1256.24" y2="61.36" xlink:href="#Áåçûìÿííûé_ãðàäèåíò_150"/><linearGradient id="Áåçûìÿííûé_ãðàäèåíò_150-42" x1="1584.83" y1="714.23" x2="1584.83" y2="469.94" xlink:href="#Áåçûìÿííûé_ãðàäèåíò_150"/><linearGradient id="Áåçûìÿííûé_ãðàäèåíò_150-43" x1="1626.39" y1="100.37" x2="1843.08" y2="100.37" xlink:href="#Áåçûìÿííûé_ãðàäèåíò_150"/><linearGradient id="Áåçûìÿííûé_ãðàäèåíò_150-44" x1="695.42" y1="677.98" x2="800.42" y2="677.98" xlink:href="#Áåçûìÿííûé_ãðàäèåíò_150"/><linearGradient id="Áåçûìÿííûé_ãðàäèåíò_150-45" x1="1577.18" y1="104.63" x2="1680.8" y2="104.63" xlink:href="#Áåçûìÿííûé_ãðàäèåíò_150"/><linearGradient id="Áåçûìÿííûé_ãðàäèåíò_150-46" x1="1418.56" y1="74.03" x2="1499.12" y2="74.03" xlink:href="#Áåçûìÿííûé_ãðàäèåíò_150"/><linearGradient id="Áåçûìÿííûé_ãðàäèåíò_150-47" x1="1314.94" y1="527.32" x2="1487.03" y2="527.32" xlink:href="#Áåçûìÿííûé_ãðàäèåíò_150"/><linearGradient id="Áåçûìÿííûé_ãðàäèåíò_150-48" x1="1698.2" y1="513.43" x2="1770.17" y2="513.43" xlink:href="#Áåçûìÿííûé_ãðàäèåíò_150"/><linearGradient id="Áåçûìÿííûé_ãðàäèåíò_150-49" x1="1797.53" y1="573.36" x2="1938.6" y2="573.36" xlink:href="#Áåçûìÿííûé_ãðàäèåíò_150"/><linearGradient id="Áåçûìÿííûé_ãðàäèåíò_150-50" x1="1259.71" y1="444.07" x2="1342.33" y2="444.07" xlink:href="#Áåçûìÿííûé_ãðàäèåíò_150"/><linearGradient id="Áåçûìÿííûé_ãðàäèåíò_150-51" x1="1075.76" y1="782.35" x2="1075.76" y2="374.29" xlink:href="#Áåçûìÿííûé_ãðàäèåíò_150"/><linearGradient id="Áåçûìÿííûé_ãðàäèåíò_150-52" x1="1559.42" y1="294.3" x2="1559.42" y2="193.01" xlink:href="#Áåçûìÿííûé_ãðàäèåíò_150"/><linearGradient id="Áåçûìÿííûé_ãðàäèåíò_150-53" x1="1356.64" y1="350.57" x2="1356.64" y2="302.14" xlink:href="#Áåçûìÿííûé_ãðàäèåíò_150"/><linearGradient id="Áåçûìÿííûé_ãðàäèåíò_150-54" x1="1525.66" y1="331.74" x2="1525.66" y2="0" xlink:href="#Áåçûìÿííûé_ãðàäèåíò_150"/><linearGradient id="Áåçûìÿííûé_ãðàäèåíò_150-55" x1="1441.29" y1="214.2" x2="1441.29" y2="125.91" xlink:href="#Áåçûìÿííûé_ãðàäèåíò_150"/><linearGradient id="Áåçûìÿííûé_ãðàäèåíò_150-56" x1="1335.51" y1="281.51" x2="1335.51" y2="246.67" xlink:href="#Áåçûìÿííûé_ãðàäèåíò_150"/><linearGradient id="Áåçûìÿííûé_ãðàäèåíò_150-57" x1="1430.17" y1="270.08" x2="1430.17" y2="183.28" xlink:href="#Áåçûìÿííûé_ãðàäèåíò_150"/><linearGradient id="Áåçûìÿííûé_ãðàäèåíò_150-58" x1="1007.91" y1="410.61" x2="1007.91" y2="340.34" xlink:href="#Áåçûìÿííûé_ãðàäèåíò_150"/><linearGradient id="Áåçûìÿííûé_ãðàäèåíò_150-59" x1="835.81" y1="471.82" x2="835.81" y2="424.24" xlink:href="#Áåçûìÿííûé_ãðàäèåíò_150"/><linearGradient id="Áåçûìÿííûé_ãðàäèåíò_150-60" x1="746.5" y1="495.35" x2="746.5" y2="475.4" xlink:href="#Áåçûìÿííûé_ãðàäèåíò_150"/><linearGradient id="Áåçûìÿííûé_ãðàäèåíò_150-61" x1="714.38" y1="785.74" x2="714.38" y2="695.72" xlink:href="#Áåçûìÿííûé_ãðàäèåíò_150"/><linearGradient id="Áåçûìÿííûé_ãðàäèåíò_150-62" x1="658.29" y1="758.35" x2="658.29" y2="731.35" xlink:href="#Áåçûìÿííûé_ãðàäèåíò_150"/><linearGradient id="Áåçûìÿííûé_ãðàäèåíò_150-63" x1="1891" y1="214.2" x2="1891" y2="178.68" xlink:href="#Áåçûìÿííûé_ãðàäèåíò_150"/><linearGradient id="Áåçûìÿííûé_ãðàäèåíò_150-64" x1="1978.6" y1="165.87" x2="1978.6" y2="135.08" xlink:href="#Áåçûìÿííûé_ãðàäèåíò_150"/><linearGradient id="Áåçûìÿííûé_ãðàäèåíò_150-65" x1="1887.92" y1="166.3" x2="1887.92" y2="145.94" xlink:href="#Áåçûìÿííûé_ãðàäèåíò_150"/><linearGradient id="Áåçûìÿííûé_ãðàäèåíò_150-66" x1="1956.12" y1="365.47" x2="1956.12" y2="334.47" xlink:href="#Áåçûìÿííûé_ãðàäèåíò_150"/><linearGradient id="Áåçûìÿííûé_ãðàäèåíò_150-67" x1="1868.48" y1="431.1" x2="1868.48" y2="392.86" xlink:href="#Áåçûìÿííûé_ãðàäèåíò_150"/><linearGradient id="Áåçûìÿííûé_ãðàäèåíò_150-68" x1="1703.81" y1="189.94" x2="1703.81" y2="141.17" xlink:href="#Áåçûìÿííûé_ãðàäèåíò_150"/><linearGradient id="Áåçûìÿííûé_ãðàäèåíò_150-69" x1="1661.93" y1="262.07" x2="1661.93" y2="205.8" xlink:href="#Áåçûìÿííûé_ãðàäèåíò_150"/><linearGradient id="Áåçûìÿííûé_ãðàäèåíò_150-70" x1="1743.78" y1="200.47" x2="1743.78" y2="136.73" xlink:href="#Áåçûìÿííûé_ãðàäèåíò_150"/><linearGradient id="Áåçûìÿííûé_ãðàäèåíò_150-71" x1="1343.03" y1="154.65" x2="1343.03" y2="87.11" xlink:href="#Áåçûìÿííûé_ãðàäèåíò_150"/><linearGradient id="Áåçûìÿííûé_ãðàäèåíò_150-72" x1="1310.05" y1="170.17" x2="1310.05" y2="136.73" xlink:href="#Áåçûìÿííûé_ãðàäèåíò_150"/><linearGradient id="Áåçûìÿííûé_ãðàäèåíò_150-73" x1="1224.27" y1="183.28" x2="1224.27" y2="173.91" xlink:href="#Áåçûìÿííûé_ãðàäèåíò_150"/><linearGradient id="Áåçûìÿííûé_ãðàäèåíò_150-74" x1="1278.32" y1="200.47" x2="1278.32" y2="190.45" xlink:href="#Áåçûìÿííûé_ãðàäèåíò_150"/><linearGradient id="Áåçûìÿííûé_ãðàäèåíò_150-75" x1="1992.21" y1="723" x2="1992.21" y2="676.85" xlink:href="#Áåçûìÿííûé_ãðàäèåíò_150"/><radialGradient id="Áåçûìÿííûé_ãðàäèåíò_75" cx="872.02" cy="446.42" r="25.05" gradientTransform="matrix(1.93, -0.82, 0.47, 1.1, -1249.34, 820.61)" gradientUnits="userSpaceOnUse"><stop offset="0" stop-color="#a9d1ff"/><stop offset="0.37" stop-color="#a8cffd"/><stop offset="0.5" stop-color="#a3caf6"/><stop offset="0.6" stop-color="#9bc0eb"/><stop offset="0.68" stop-color="#90b2da"/><stop offset="0.74" stop-color="#82a0c4"/><stop offset="0.8" stop-color="#708aa8"/><stop offset="0.85" stop-color="#5a6f88"/><stop offset="0.9" stop-color="#415062"/><stop offset="0.95" stop-color="#242d37"/><stop offset="0.99" stop-color="#060809"/><stop offset="0.99"/></radialGradient><radialGradient id="Áåçûìÿííûé_ãðàäèåíò_75-2" cx="1013.43" cy="900.81" r="14.09" gradientTransform="matrix(2.43, -0.91, 0.43, 1.15, -1864.06, 902.79)" xlink:href="#Áåçûìÿííûé_ãðàäèåíò_75"/><radialGradient id="Áåçûìÿííûé_ãðàäèåíò_80" cx="940.22" cy="493.95" r="59.16" gradientTransform="matrix(1.65, 0, 0, 1, -646.82, 31.65)" gradientUnits="userSpaceOnUse"><stop offset="0" stop-color="#97ccff"/><stop offset="0.37" stop-color="#96cbfd"/><stop offset="0.5" stop-color="#92c5f6"/><stop offset="0.6" stop-color="#8bbceb"/><stop offset="0.68" stop-color="#81aeda"/><stop offset="0.74" stop-color="#749cc4"/><stop offset="0.8" stop-color="#6487a8"/><stop offset="0.85" stop-color="#516d88"/><stop offset="0.9" stop-color="#3a4f62"/><stop offset="0.95" stop-color="#212c37"/><stop offset="0.99" stop-color="#050709"/><stop offset="0.99"/></radialGradient><linearGradient id="Áåçûìÿííûé_ãðàäèåíò_84" x1="-1286.52" y1="968.52" x2="2509.97" y2="968.52" gradientUnits="userSpaceOnUse"><stop offset="0" stop-color="#776d90"/><stop offset="1" stop-color="#775477"/></linearGradient></defs><g style="isolation:isolate"><g id="cave"><g style="clip-path:url(#clip-path)"><rect x="-1505.96" y="-417.39" width="5946.89" height="1579.39" transform="translate(2934.97 744.6) rotate(180)" style="fill:url(#Áåçûìÿííûé_ãðàäèåíò_14)"/><polygon points="701.9 1080.42 129.46 545.12 120.38 547.19 117.94 542.8 -202.19 189.91 -221.51 193.06 -290.36 300.47 -837.53 1080.42 701.9 1080.42" style="fill-rule:evenodd;fill:url(#Áåçûìÿííûé_ãðàäèåíò_68)"/><path d="M205.73,1080.42H-837.52L-320.71,343.7l-65.72,125.08,164.9-275.72,19.35-3.16L120.37,547.19,34.69,477.8l-57.08-52.29,437,654.91H247.34L-118.24,425.51l9.78,52.29L25.27,741.28,7.45,666.94Zm-489.92-745.3,35.65-36,20.62,44.22,1.19-88.58ZM-220,359.58l-52.85,85.9L-211.5,377Zm62.92,109.2-39.7-66.64-189.65,306L-187.7,425.51,11,770.11Z" style="fill:#fff;fill-rule:evenodd;opacity:0.6900000000000001;mix-blend-mode:soft-light"/><polygon points="-440.98 1089.47 272.68 463.7 289.48 454.27 592.4 81.57 606.55 81.57 626.89 95.28 703.82 208.61 919.13 486.83 1087.58 572.94 1100.84 575.51 1434.19 1089.47 -440.98 1089.47" style="fill-rule:evenodd;fill:url(#Áåçûìÿííûé_ãðàäèåíò_107)"/><path d="M272.67,463.68l-21,35.14-312.1,257ZM-60.43,755.79,229.62,535.68l-11.55,68.24L112.12,674.09l102.66-50.81-11.87,70.1L-187.24,867ZM-368,1025.47,97.49,866.85,699.37,564.58,795.79,706,697.72,549.42v0L160.14,817.1-270.48,940l57.58-50.49L-92,847.69,202.91,693.38,222.23,640l0-.1L251,560.61l65.28-34.36L255.55,548l33.92-93.7L592.4,81.57h14.14l20.34,13.7-28.81-1.63-87.46,141.9L606.75,112l20.13-16.75L660.48,148,777.21,331.31,648.55,157.81l-16.7,7.49-.53.24,1.58,2L901.39,507.3l17.75-20.45,181.69,88.65,333.38,514L1100.83,596.08l-11.94,7.84,159,326.29V875l111.55,214.51h-79.11L1038.67,777.29,713.16,817.1,633,693.38l70.81,136.3,321.42,35,139.26,224.79h-43.75l-38-59.32,18.06,59.32H867.41l-70.32-79.56,49.11,79.56H510.61l10.95-14.72,12.25-16.52L289.12,866.85,316.25,902l205.31,172.79L335.08,940l-443.89,149.5H-441Zm436-237.33,82.22-23.23,26.53-23.23Zm279.42-103.4,341.36-218h0l31.32,32.09-32.65-44.3-224,130-116.1,67.36ZM594.19,477.82l-46.52,9L501.16,540.8l-39.62,16.28-73,60.27L501.16,540.8ZM496.61,333.89l44.06-28.69L647.36,199Zm168.32-98.35-36.27,28.28L375.4,460.43l-.07.06-4.1,3.19,271.44-180.8,23.13,8.62,83.55,114.36Zm390.19,434.61,121.31,147-96.22-177.23-66.92,4.34Zm-320.4,118,51.76-9-41.33-5-41.34-33.71Zm386,261.58-92.85-158L991.45,902ZM347.47,970.8l12.88,9.36,150.26,109.31h-571ZM1268,1089.47h-20L1077,859.53ZM-282.87,950.83,97.49,847.69-315.07,979.08Z" style="fill:#fff;fill-rule:evenodd;opacity:0.91;mix-blend-mode:soft-light"/><path d="M360.35,980.16l68.7,109.31H-441l73-64,52.92-46.39,32.2-28.25L-270.48,940l57.58-50.49L-187.24,867l126.81-111.2,333.1-292.11,16.8-9.39L592.4,81.57l38.92,84,16,33.41,17.57,36.59-36.27,28.28,14,19.06L673.61,325l13.93,129.51,1.29,12.21,8.89,82.65v0l1.65,15.16L388.66,755.79l23,23.36-122.57,87.7,46,73.12ZM-24.94,770.64l72.66-20.31,112.42-57Z" style="fill:#fff;fill-rule:evenodd;opacity:0.91;mix-blend-mode:soft-light"/><polygon points="1100.83 575.5 1088.89 603.92 1080.21 639.87 1013.29 644.21 1055.12 670.15 1025.24 864.67 763.95 950.78 797.1 1009.89 813.02 1089.47 510.61 1089.47 795.78 706.03 842.2 575.5 919.14 486.85 1100.83 575.5" style="fill:#fff;fill-rule:evenodd;opacity:0.91;mix-blend-mode:soft-light"/><path d="M411.69,674.09,191.85,770.64,222.23,640l0-.1L251,560.61l65.28-34.36L255.55,548l33.92-93.7L592.4,81.57l39.45,83.73,1,2.21,32,68L375.4,460.43,642.67,282.88,673.61,325l-51,38,53-20.18,9.84,91.61,2.17,20.07L454.92,589l8.65-4.52,225.3-117.75,8.85,82.65L160.14,817.1ZM501.16,540.8l93-63-46.52,9L501.16,540.8l-39.62,16.28-73,60.27Z" style="fill:#fff;fill-rule:evenodd;opacity:0.91;mix-blend-mode:soft-light"/><polygon points="429.04 802.59 545.54 950.83 523.88 866.99 429.04 802.59" style="fill:#fff;fill-rule:evenodd;opacity:0.91;mix-blend-mode:soft-light"/><polygon points="1055.12 670.15 795.78 706.03 745.15 774.1 805.72 779.15 1038.67 777.29 1055.12 670.15" style="fill:#fff;fill-rule:evenodd;opacity:0.91;mix-blend-mode:soft-light"/><polygon points="1013.29 644.21 832.09 603.92 842.2 575.5 919.14 486.85 1100.83 575.5 1080.21 639.87 1013.29 644.21" style="fill:#fff;fill-rule:evenodd;opacity:0.91;mix-blend-mode:soft-light"/><polygon points="632.19 623.3 496.62 706.03 577.37 675.99 632.19 623.3" style="fill:#fff;fill-rule:evenodd;opacity:0.8"/><polygon points="251.67 498.82 272.68 463.7 -24.93 724.65 251.67 498.82" style="fill:#fff;fill-rule:evenodd;opacity:0.8"/><polygon points="699.37 564.58 388.66 755.79 106.12 862.52 699.37 564.58" style="fill:#fff;fill-rule:evenodd;opacity:0.91;mix-blend-mode:soft-light"/><polygon points="281.34 1082.21 -87.29 748.97 -108.38 748.97 -298.72 569.87 -366.52 538.05 -425.92 594.61 -533.26 464.7 -575.44 442.02 -873.52 -6.12 -1291.39 -6.12 -1563.47 -6.12 -1563.47 1082.21 281.34 1082.21" style="fill-rule:evenodd;fill:url(#linear-gradient)"/><path d="M-1564.07,507.46l.6-3.56,206.1-145.59,216-152.56,1.22-.87-1.28,1.5-24.95,29.44-397.1,302.83-6.64,5.06Zm-6,36.25,6.64-4.79,420-303.1,155.23,132-151.91-179.41-139.58,98.33-283.75,199.87v-303L-1069.83,50l5.58-11-126.06,29.76L-1059,28.6l17.66-34.72h19.48L-910,171.12-734,494.84l50,73,14.09.68-84.81-171.16L-598.5,592.54l145.62,160.83-208.8-272.16L-896.81,159l-58.77-71.12-66.26-94h148.32l157.23,236.39L-821.12,99.69l7.32-3.07,6.42,4.62-8.49-16.73-42-43.59-24.52-12.35,166.08,234.05-83-100,190.76,283.54-58.8-142.3L-575.43,442-597.79,474l130.92,175.28L-547.38,511l2-28.52,88.83,101.79L-539,482.57l5.77-17.88,107.34,129.92,59.4-56.56,67.8,31.8,105.19,99-90.14-77.66,3.26-.19-6.37-7.72-22.85-9.8,24.05,16.84-26.8-15.64,65.46,62.55-42.6-35.4L-244.17,651l63.26,52.92-58.77-60.49,94.17,88L-108.37,749h21.08l368.62,333.24H227L-83.61,792.58l-13.63,17.55,91.93,81.71-117.54-81.71-.65,46.5L89.38,1082.21h-256.2L-299.13,942.44l-167.74,19.87L-696.78,708l-187-197.67,165.37,183.9,0,0L-469.62,998l186-18.29,98.19,102.55H-1563.47V916.62l543.59-289-15.78-36.49-330.23,144.4,319.27-169.76-1.74-14.44-3.71,1.9-36.51,18.72,31.13-31.18-21.44-49.57,6.58-22.26-491.16,236.36Zm267.7-347.7-46.69,22.61,36.43-7.18Zm-52.7,123,36.92-32.27L-1411,342.53ZM-1080,70l0,0-123.36,89.49,107-57.22,55.09,57.22,47.24,45.38Zm284.22,181.81,6.17,21.82L-771,268Zm630.06,556.3,24.41-25.17-150.3-136.75,24.76,31.75-67-40-20.46-29.58-1.82,12,22.28,17.58Zm-11.21,11.54h-26.15l12.95,13.63Zm-159-25,36.78,7.51-40.19-27.56-53.3,57.16Zm-7.7-45.74,135.27,103.15,14.72-15.18L-350.88,688.43l-9.55-39.51-77.92,69.49,77-57.3.92,12.38-80.67,72.32L-445.86,793Zm-180,43.67-4.3-7.24-18.91-10.74Zm12.81-61.46-5.6-22.07-54.44-54.82Zm-114.9-59.18,18.53,6L-643.86,642l-14.26-4.11ZM-884.49,257.83l-57.73-46.39,70.36,75.26Zm23.78,195.52,59.4,30.93L-834.94,442l-85.14-86.63Zm163.93,491.71-63.94-99.56-17.87-35.37,170,152.18-249.28-257L-994.08,642ZM-1041.32-6.12l-522.15,108.4V-6.12Z" style="fill:#e6eaff;fill-rule:evenodd;opacity:0.8;mix-blend-mode:overlay"/><path d="M885.51,587.4S-192.32,661.11-525,679.93c-304.38,17.22-676,40.61-676,40.61s989.17-48,1260-42.62,76,59.94-114.47,40.42c-234.8-24.06-558.7-13.07-558.7-13.07s561.81,23,854.11,19.73,648-27.66,648-27.66Z" style="fill-rule:evenodd;opacity:0.7000000000000001;fill:url(#Áåçûìÿííûé_ãðàäèåíò_169)"/><path d="M-611.09,640.12S-300,628.63-105.62,628.55s492.24-12.94,492.24-12.94S194,617.35,83.68,617.67s-312.19-44.23-421.53-42S-611.09,640.12-611.09,640.12Z" style="fill-rule:evenodd;opacity:0.5;fill:url(#Áåçûìÿííûé_ãðàäèåíò_169-2)"/><polygon points="2505.18 723 2505.18 1080 -1285.92 1080 -1285.92 888.28 -364.65 793.26 937.08 768.3 2505.18 723" style="fill-rule:evenodd;fill:url(#Áåçûìÿííûé_ãðàäèåíò_11)"/><polygon points="1334.34 765.98 1183.7 776.21 830.01 812.02 686.5 793.26 335.88 781.92 712.24 799.4 835.11 818.84 830.01 823.27 601.16 857.38 569.7 857.38 403.33 834.87 210.26 832.48 -18.56 821.23 -39.53 811.68 85.48 792.24 -129.51 821.23 -1036.7 863.84 -513.98 864.2 -117.71 831.46 70.11 830.95 552.54 864.2 581.74 864.2 400.95 916.72 160.21 931.73 -228.79 970.61 -364.65 977.77 -1285.92 992.6 -1285.92 1017.49 377.68 954.24 476.27 959.69 361.6 1045.52 -1021.57 1080 -756.05 1080 352.32 1052.46 476.27 959.69 403.33 931.04 883.75 821.23 1392.5 768.63 1334.34 765.98" style="fill-rule:evenodd;opacity:0.6000000000000001;mix-blend-mode:multiply;fill:url(#Áåçûìÿííûé_ãðàäèåíò_150)"/><polygon points="908.18 728.63 1350.79 758.35 1606.07 765.98 1297.2 762.17 1216.12 765.98 1895.91 776.21 2368.17 739.54 2505.18 736.3 2505.18 723 2388.11 714.23 2252.3 714.23 2239.67 706.76 2198.52 690.2 2037.96 707.32 2034.39 709.45 2010.8 708.93 1838.7 712.77 1675.67 713.82 1477.36 714.23 908.18 728.63" style="fill:#aabdf9;fill-rule:evenodd"/><polygon points="2505.18 734.26 2505.18 1080 254.95 1078.91 786.61 1067.47 612.61 1064.06 476.27 1048.37 352.32 1052.46 403.33 1014.28 476.27 959.69 392.37 954.24 403.33 931.04 883.75 821.23 1392.5 768.63 2505.18 734.26" style="fill:#aabdf9;fill-rule:evenodd"/><polygon points="843.81 845.78 875.75 829.41 1274.31 785.74 1523.12 771.09 1542.19 776.21 1542.19 790.53 1477.36 821.23 843.81 845.78" style="fill-rule:evenodd;fill:url(#Áåçûìÿííûé_ãðàäèåíò_50)"/><path d="M503,937.87l12.87-11.94,526.87-80.15,337.37-14.32s276-8.19,310.38-8.19a322.3,322.3,0,0,1,63.64,6.65l-308.2,62.93s-302.23,38.2-347,38.2-486.24,13.64-486.24,13.64Z" style="fill-rule:evenodd;fill:url(#Áåçûìÿííûé_ãðàäèåíò_50-2)"/><path d="M780.89,969.93s12.62,7.5,73.76,7.5,177.46-7.5,177.46-7.5l20.3-6.83,30.28-23.87-12.42-4.43L865.66,946.17S793.88,960.63,780.89,969.93Z" style="fill-rule:evenodd;fill:url(#Áåçûìÿííûé_ãðàäèåíò_50-3)"/><polygon points="-364.65 793.26 -39.53 800.08 -18.69 808.44 -129.51 821.23 -184.22 836.95 -201.58 825.64 -281.7 830.54 -291.08 845.78 -117.71 831.46 70.11 830.95 81 826.12 -18.56 821.23 -39.53 811.68 78.93 793.26 -364.65 793.26" style="fill-rule:evenodd;opacity:0.5;mix-blend-mode:multiply;fill:url(#Áåçûìÿííûé_ãðàäèåíò_150-2)"/><polygon points="686.5 793.26 712.24 799.4 835.11 818.84 830.01 823.27 601.16 857.38 569.7 857.38 569.7 864.2 581.74 864.2 400.95 916.72 377.68 954.24 -18.86 966.73 -25.68 950.31 -217.76 969.5 -217.76 977.1 383.24 954.54 476.27 959.69 403.33 931.04 883.75 821.23 1190.15 789.55 1058.81 785.74 1034.02 790.53 859.54 808.44 830.01 812.02 686.5 793.26" style="fill-rule:evenodd;opacity:0.5;mix-blend-mode:multiply;fill:url(#Áåçûìÿííûé_ãðàäèåíò_150-3)"/><polygon points="-31.3 1061.99 -17.16 1054.96 361.6 1045.52 352.32 1052.46 -31.3 1061.99" style="fill-rule:evenodd;opacity:0.5;mix-blend-mode:multiply;fill:url(#Áåçûìÿííûé_ãðàäèåíò_150-4)"/><polygon points="601.16 857.38 569.7 857.38 403.33 834.87 210.26 832.48 -18.56 821.23 -39.53 811.68 78.93 793.26 300.9 780.37 703.66 798.72 835.11 818.84 830.01 823.27 601.16 857.38" style="fill:#907f82;fill-rule:evenodd;mix-blend-mode:soft-light"/><polygon points="351.78 850.36 403.33 834.87 486.19 846.08 486.19 859.63 351.78 850.36" style="fill-rule:evenodd;opacity:0.5;mix-blend-mode:multiply;fill:url(#Áåçûìÿííûé_ãðàäèåíò_150-5)"/><polygon points="326.82 848.64 341.12 834.1 315.37 833.78 306.6 847.25 326.82 848.64" style="fill-rule:evenodd;opacity:0.5;mix-blend-mode:multiply;fill:url(#Áåçûìÿííûé_ãðàäèåíò_150-6)"/><polygon points="830.01 812.02 686.5 793.26 351.78 781.48 707.92 781.48 1052.41 786.97 1034.02 790.53 830.01 812.02" style="fill:#725c60;fill-rule:evenodd;mix-blend-mode:soft-light"/><polygon points="476.27 959.69 377.68 954.24 -722.67 995.21 -507.56 1067.19 361.6 1045.52 476.27 959.69" style="fill:#907f82;fill-rule:evenodd;mix-blend-mode:soft-light"/><polygon points="-1036.7 863.84 -178.73 824.24 -79.58 815.46 78.93 793.26 -364.65 793.26 -810.16 837.77 -1036.7 863.84" style="fill:#725c60;fill-rule:evenodd;mix-blend-mode:soft-light"/><path d="M1706.68,823.27l-340.87,71.62L722.25,934.8l-206.42-8.87L503,937.87l107.26,16.37,153,1.87L756.57,972l127.19,13,168.65-12.15s194.15-50.92,247.61-58.16S1771.25,857,1771.25,857l-5.64-26.2Z" style="fill-rule:evenodd;opacity:0.5;mix-blend-mode:multiply;fill:url(#Áåçûìÿííûé_ãðàäèåíò_150-7)"/><path d="M1009.71,1006.42,995.6,989s184.29-53.54,246.74-64.8S1709.75,857,1771.25,857,2066.57,866.93,2119,884s107.74,72.13,107.74,72.13l-38.14,21.32s-368,81.85-473.85,90S1009.71,1006.42,1009.71,1006.42Z" style="fill-rule:evenodd;fill:url(#Áåçûìÿííûé_ãðàäèåíò_50-4)"/><path d="M2145.1,895.21s57.81,42,57.81,49.48-388,95.49-527.24,107.77S995.6,989,995.6,989l14.11,17.4s473.37,74,720.3,68.55,536.78-112.38,536.78-112.38l-6.68-17.9L2119,884Z" style="fill-rule:evenodd;opacity:0.5;mix-blend-mode:multiply;fill:url(#Áåçûìÿííûé_ãðàäèåíò_150-8)"/><polygon points="875.75 829.41 1320.76 823.27 1486.65 812.02 1542.19 776.21 1542.19 790.53 1477.36 821.23 843.81 845.78 875.75 829.41" style="fill-rule:evenodd;opacity:0.5;mix-blend-mode:multiply;fill:url(#Áåçûìÿííûé_ãðàäèåíò_150-9)"/><path d="M1242.34,924.22,1257.12,985s201.53,83.79,449.56,64c306.76-24.41,407.8-155.67,407.8-155.67s-327.88-37.94-353.74-36S1242.34,924.22,1242.34,924.22Z" style="fill:#a29396;fill-rule:evenodd;mix-blend-mode:soft-light"/><path d="M1257.12,985l-90,26.49L995.6,989s176.9-51.32,246.74-64.8Z" style="fill:#755559;fill-rule:evenodd"/><polygon points="1042.7 845.78 760.86 916.72 628.58 930.77 515.83 925.93 1042.7 845.78" style="fill:#755559;fill-rule:evenodd"/><polygon points="2034.39 709.45 1991.25 717.71 1171.5 721.03 1477.36 714.23 2034.39 709.45" style="fill-rule:evenodd;opacity:0.6000000000000001;mix-blend-mode:multiply;fill:url(#Áåçûìÿííûé_ãðàäèåíò_150-10)"/><polygon points="1803.62 808.44 2198.52 790.53 2505.18 808.44 1803.62 808.44" style="fill-rule:evenodd;opacity:0.30000000000000004;mix-blend-mode:multiply;fill:url(#Áåçûìÿííûé_ãðàäèåíò_150-11)"/><polygon points="403.33 1014.28 397.79 1032 508.45 1032 722.25 1045.52 1255.88 1067.47 786.61 1067.47 612.61 1064.06 476.27 1048.37 352.32 1052.46 403.33 1014.28" style="fill-rule:evenodd;opacity:0.30000000000000004;mix-blend-mode:multiply;fill:url(#Áåçûìÿííûé_ãðàäèåíò_150-12)"/><polygon points="612.61 1064.06 655.03 1040.88 748.9 1046.62 1255.88 1067.47 771.81 1067.18 612.61 1064.06" style="fill-rule:evenodd;opacity:0.5;mix-blend-mode:multiply;fill:url(#Áåçûìÿííûé_ãðàäèåíò_150-13)"/><polygon points="-398.97 854.7 187.38 930.03 160.21 931.73 -178.73 916.72 30.54 944.69 12.59 946.48 -455.91 905.58 -484.78 903.05 -427.57 916.72 -217.52 944.69 -830.52 892.04 -683.4 859.28 -398.97 854.7" style="fill:#aabdf9;fill-rule:evenodd"/><polygon points="160.21 931.73 -186.6 911.26 -406.12 895.92 -178.73 916.72 160.21 931.73" style="fill-rule:evenodd;opacity:0.30000000000000004;mix-blend-mode:multiply;fill:url(#Áåçûìÿííûé_ãðàäèåíò_150-14)"/><polygon points="12.59 946.48 -277.71 916.72 -771.71 878.57 -513.98 903.05 -484.78 903.05 12.59 946.48" style="fill-rule:evenodd;opacity:0.30000000000000004;mix-blend-mode:multiply;fill:url(#Áåçûìÿííûé_ãðàäèåíò_150-15)"/><polygon points="1445.89 892.85 1846.51 1028.32 1846.51 1047.59 1879.98 1041.37 1887.14 1020.4 1458.02 890.37 1445.89 892.85" style="fill:#b59aa0;fill-rule:evenodd;mix-blend-mode:soft-light"/><polygon points="1548.36 881.04 2048.46 944.69 2115.23 968.98 2119.01 992.6 2188.61 977.43 2202.91 944.69 2103.75 907.13 1598.34 874.71 1548.36 881.04" style="fill:#92959b;fill-rule:evenodd;mix-blend-mode:soft-light"/><polygon points="1042.7 845.78 1542.19 857.04 1548.36 871.93 1718.33 836.06 1706.68 823.27 1242.34 837.31 1042.7 845.78" style="fill:#92959b;fill-rule:evenodd;mix-blend-mode:soft-light"/><polygon points="216.54 960.24 224.74 927.71 -175.4 836.22 -145.83 833.78 243.9 927.01 243.56 958.46 327.06 955.83 335.17 920.82 85.48 832.01 111.23 833.78 352.32 919.75 341.57 955.37 216.54 960.24" style="fill:#92959b;fill-rule:evenodd;mix-blend-mode:soft-light"/><polygon points="-382.88 983.45 146.7 1047.56 260.13 1045.52 -322.08 981.11 -382.88 983.45" style="fill:#92959b;fill-rule:evenodd;mix-blend-mode:soft-light"/><polygon points="281.29 782.35 357.57 833.78 403.33 834.87 291.07 782.86 281.29 782.35" style="fill:#b59aa0;fill-rule:evenodd;mix-blend-mode:soft-light"/><polygon points="246.02 782.35 341.12 834.1 326.82 834.1 208.51 785.74 246.02 782.35" style="fill:#b59aa0;fill-rule:evenodd;mix-blend-mode:soft-light"/><polygon points="1791.03 845.78 1811.05 835.55 1887.14 827.37 1917.84 830.78 1896.86 848.17 1813.08 847.6 1791.03 845.78" style="fill-rule:evenodd;fill:url(#Áåçûìÿííûé_ãðàäèåíò_50-5)"/><polygon points="843.81 1002.84 896.01 992.6 934.25 992.6 957.51 997.72 908.18 1006.93 849.07 1006.93 843.81 1002.84" style="fill-rule:evenodd;fill:url(#Áåçûìÿííûé_ãðàäèåíò_50-6)"/><polygon points="249.13 958.29 274.81 924.58 323.86 921.53 323.86 956.3 249.13 958.29" style="fill-rule:evenodd;opacity:0.5;mix-blend-mode:multiply;fill:url(#Áåçûìÿííûé_ãðàäèåíò_150-16)"/><polygon points="218.37 928.1 249.13 918.09 320.37 918.09 400.95 916.72 218.37 928.1" style="fill:#8d7c7f;fill-rule:evenodd"/><polygon points="-39.53 811.68 20.53 823.15 -18.56 821.23 -39.53 811.68" style="fill-rule:evenodd;opacity:0.5;mix-blend-mode:multiply;fill:url(#Áåçûìÿííûé_ãðàäèåíò_150-17)"/><polygon points="1253.89 971.72 1291.34 997.38 1242.34 989.33 1253.89 971.72" style="fill:#8d7c7f;fill-rule:evenodd"/><path d="M760.86,916.72,804.1,928.1s-64.76,8-88.54,6.7-83.42-3.41-83.42-3.41Z" style="fill:#8d7c7f;fill-rule:evenodd"/><polygon points="290.26 1045.52 379.8 1031.89 361.6 1045.52 290.26 1045.52" style="fill:#8d7c7f;fill-rule:evenodd"/><polygon points="351.78 850.36 403.33 834.87 373.9 821.23 284.88 781.3 290.26 780.99 300.8 787.37 388.72 826.34 424.47 837.6 422.86 839.51 390.86 841.21 369.05 847.25 367.46 851.44 351.78 850.36" style="fill:#271624;fill-rule:evenodd"/><polygon points="768.38 847.6 768.38 832.46 687.05 797.96 692.44 797.96 772 831.92 772 846.77 768.38 847.6" style="fill:#271624;fill-rule:evenodd"/><polygon points="692.44 797.96 712.24 799.4 835.11 818.84 830.01 823.27 772 831.92 692.44 797.96" style="fill:#725c60;fill-rule:evenodd;mix-blend-mode:soft-light"/><polygon points="759.89 826.75 787.43 829.62 772 837.85 772 831.92 759.89 826.75" style="fill:#8d7c7f;fill-rule:evenodd"/><polygon points="581.74 864.2 595.91 888.28 601.16 857.38 569.7 857.38 569.7 864.2 581.74 864.2" style="fill-rule:evenodd;opacity:0.8;mix-blend-mode:multiply;fill:url(#Áåçûìÿííûé_ãðàäèåíò_150-18)"/><polygon points="-49.55 831.27 -39.53 811.68 78.93 793.26 -55.28 793.26 -68.63 799.06 -39.53 800.08 -27.89 808.22 -107.7 817.95 -112.48 831.27 -49.55 831.27" style="fill-rule:evenodd;opacity:0.8;mix-blend-mode:multiply;fill:url(#Áåçûìÿííûé_ãðàäèåíò_150-19)"/><polygon points="120.12 828.05 171.4 828.05 224.55 828.05 284.88 833.4 218.37 833.4 120.12 828.05" style="fill:#8d7c7f;fill-rule:evenodd"/><polygon points="1042.84 914.92 1089.3 907.13 1266.84 901.03 1128.53 909.61 1042.84 914.92" style="fill:#766165;fill-rule:evenodd"/><path d="M1439.69-.11,1407.4,23.16l-25.66,21.49L1293.26,86.6l-15.81-5.46-51.73-19.78s-56.56,10.66-59,13.47-42.91,50.39-42.91,50.39l-38,65.23s-61,59.6-61,63.69v26.35L1038,297.88l-27,40.42-93.79,64.8L775.06,456.3s-70.75,33.81-73.62,35.21-64,90.64-65.59,95.58-47.19,121.59-47.19,121.59l-91.14,6.14L487.2,723l-51.32,70.26H788l-2.66-10.91,152.19-13.3,115.91-24.56,5.3-8.19,548.58-25.57L2505.18,723l-.46-723Z" style="fill-rule:evenodd;fill:url(#Áåçûìÿííûé_ãðàäèåíò_50-7)"/><path d="M1779.6,714.23l6.49-96.61-15.92-49.11s-69.31-95.5-72-98.57-24.18-2.73-24.18-2.73-218,50.14-241.85,62.93-66.8,43.48-71.67,49.11-54.41,73.67-54.41,73.67l117.23,16.88,40.7-4.61,6.64,2L1556,713.12Z" style="fill-rule:evenodd;fill:url(#Áåçûìÿííûé_ãðàäèåíò_55)"/><path d="M1225.72,61.36l-6.49,31.38-79,49.11-29.79,6.37-24.63,42.23L1142,173.91s110.3-47.41,123.87-55.93,27.43-31.38,27.43-31.38Z" style="fill-rule:evenodd;opacity:0.5;mix-blend-mode:multiply;fill:url(#Áåçûìÿííûé_ãðàäèåíò_150-20)"/><path d="M1039,642.17l46.31-117.66,59.28-57.31,38.93-56.59,93.91-36.32s121.1,22.33,139.68,18.57S1543.36,340,1543.36,340s48.08-23.87,64.3-27.28,84.64-11.26,84.64-11.26l8.85-15.09,24.4-41.64L1848,172.54l40.26-26.09,11.94-.51L2038,87.28,2158.33,0H1993.14l-6.2,16-59.72,73.67s-56.63,34.79-81,47.06-89.39,40.84-89.39,40.84l12.12-36.4-24.78,39.56s-125.64,107.09-186.4,136.42-184.63,39.56-203.5,39.56-68.13-6.14-68.13-6.14l289.33-160.63,78.75-24.56-77.87,13.3-107.06,39.91,157.06-93.11,34.06-50.65,46-16.88,93.79-43,31-4.09L1856,0l-92,.63S1617.1,104,1577.28,104,1441.9,81.48,1446.77,75.86s73-74.88,73-74.88l-80.52.11-3.54,73.23s-69.6,120.05-105,133-249.36,72.13-249.36,72.13l-50-14.83-6.64-10.49v26.35L1038,297.88l-27,40.42-93.79,64.8,171.65-62.76,19.46,6.14v21s-33.62,68-40.7,76.22-69,23.52-69,23.52-158.38,185.55-163.1,191-35.1,48.09-35.1,48.09l-13,73-10-10.92-83.76,4.44s-164-11.6-171.66-14.33-25.36-33.08-25.36-33.08L487.2,723l-51.32,70.26H788l-2.66-10.91,152.19-13.3,115.91-24.56,5.3-8.19-27.42-65.48Z" style="opacity:0.5;mix-blend-mode:multiply;fill:url(#Áåçûìÿííûé_ãðàäèåíò_150-21)"/><path d="M1897,243.48l-82,15-113.85,27.88s98.81-16.88,126.23-19.14,40.11,0,40.11,0L1856,294.3l-75.21,80s-45.12,12.12-100,22.34-345.07,20.45-345.07,20.45l-50.44,23.53-30.08,53.21L1441,480.51l46-5.11L1306.09,540l-79.19,15.21-56.63,26.6-14.16,64.46-52.2,35.81L1151.69,657l121.66-25.07,12.39,8.7L1260.52,679l-19,12.28-46,11.76H1086.21l3.54-12.79,5.75-4.09-17.25,10.74-19.47,39.39L1556,713.12l-85.38-45.88-47.34,2.56L1405,682.08h-59.58L1316,660.93l11.74-4.9-21.62-3.11,54.41-73.67,94.68-57.47L1674,467.21l24.18,2.73,72,98.57,15.92,49.11-6.49,96.61,68.47,1.39-34.84-33.54,20-58-1.18-13-8.85-20.43s-31.85-40.07-41.29-88.94l.59-34.57h21.83l23.59,9.56-41.88-27.28V442s43.36-63.78,88.48-80.15l15.93-5.12,72.55-54.22,75.21-112,15-49.28V125.91s-36.72,43.05-45.12,52.77S1897,243.48,1897,243.48Z" style="opacity:0.5;mix-blend-mode:multiply;fill:url(#Áåçûìÿííûé_ãðàäèåíò_150-22)"/><path d="M2504.72,0h-293.3l-5.35,264.63-20.92,154-77,168.48-33.64-7.81-2.65-26.13,46.9-285.93,15.93-175.5-39.83,112.53-15.63,163.38v29l-11.2,104.68s-37.59,62.26-41.29,66.55-54.27,0-54.27,0L1960.69,540,1941.2,421.52,1841,476.77l7.07,85.59-62.37,151.87H1856L2505.18,723ZM2382.38,692l-134.05-24.49-22.66-20.19L2187,458.35l9.56-42,21.12-162,25.24-22.84,25.38,6.59,121.29,357.7,6.12,89.69Zm18.47-113.75L2251.92,190l-4.27-24.09,9.56-125.5,12.26-4.23,112.91,190.56,48.06,243.25Z" style="fill-rule:evenodd;opacity:0.5;mix-blend-mode:multiply;fill:url(#Áåçûìÿííûé_ãðàäèåíò_150-23)"/><path d="M635.85,587.09l78.45-13.47h6.49s-19.35-63.95-19.35-82.11Z" style="fill:#a26e71;fill-rule:evenodd"/><polygon points="752.25 467.2 916.04 421.51 972.66 410.61 979.15 404.46 1000.39 379.9 1088.87 340.34 917.22 403.1 775.06 456.3 752.25 467.2" style="fill:#a26e71;fill-rule:evenodd"/><path d="M998.62,467.2l-26-56.59,27.73-30.71,88.48-39.56,19.46,6.14v21l-40.7,76.22S1041.68,457.64,998.62,467.2Z" style="fill:#a29396;fill-rule:evenodd;mix-blend-mode:soft-light"/><path d="M835.52,658.2l-43.36,12.28H780.37l-59.58-96.86s-14.53-44.85-19.35-82.11l50.81-24.31L916,421.51l56.62-10.9,26,56.59Z" style="fill:#907f82;fill-rule:evenodd;mix-blend-mode:soft-light"/><polygon points="780.37 670.48 788.03 687.19 800.42 706.29 835.52 658.2 792.16 670.48 780.37 670.48" style="fill:#a29396;fill-rule:evenodd;mix-blend-mode:soft-light"/><polygon points="632.9 706.29 632.9 620.69 635.85 587.09 588.66 708.68 632.9 706.29" style="fill:#a29396;fill-rule:evenodd;mix-blend-mode:soft-light"/><path d="M777.42,768.36l-66.66-13.3-74.91-48.77h-3l-44.24,2.39-91.14,6.14-.88,10.57S513.75,754,522,758.47,693.66,772.8,693.66,772.8Z" style="fill:#644e52;fill-rule:evenodd"/><polygon points="497.52 714.82 496.64 725.39 487.2 723 497.52 714.82" style="fill:#755559;fill-rule:evenodd"/><polygon points="1166.73 74.83 1219.23 92.74 1225.72 61.36 1166.73 74.83" style="fill:#755559;fill-rule:evenodd"/><path d="M1085.77,190.45,1039,260.19l-7.66,4.44-6.64-10.49S1061.14,210.06,1085.77,190.45Z" style="fill:#a26e71;fill-rule:evenodd"/><polygon points="1183.54 410.61 1262.73 410.61 1277.45 410.61 1329.09 396.63 1277.45 374.29 1183.54 410.61" style="fill:#755559;fill-rule:evenodd"/><polygon points="1170.27 581.81 1148.15 562.37 1176.17 555.89 1232.35 554.16 1170.27 581.81" style="fill:#755559;fill-rule:evenodd"/><path d="M1769,141.17l-7.23-4.44L1650.7,166.49l-75.19,23.45L1286.18,350.57s49.62,9.07,89.29,5,108.84-9.66,185.7-40,183-134.75,183-134.75Z" style="fill:#a29396;fill-rule:evenodd;mix-blend-mode:soft-light"/><polygon points="1277.45 410.61 1285.29 440.61 1335.73 417.08 1329.09 396.63 1277.45 410.61" style="fill:#907f82;fill-rule:evenodd;mix-blend-mode:soft-light"/><path d="M1255.21,493.82h-48.66l-65-7.68,3.1-18.94-59.28,57.31s30.52,29.16,62.82,37.86l28-6.48,56.18-1.73L1306.09,540,1487,475.4Z" style="fill:#a29396;fill-rule:evenodd;mix-blend-mode:soft-light"/><polygon points="1089.75 690.26 1086.21 703.05 1195.49 703.05 1241.5 691.28 1260.52 679.01 1285.74 640.64 1273.35 631.94 1151.69 657.01 1089.75 690.26" style="fill:#a29396;fill-rule:evenodd;mix-blend-mode:soft-light"/><path d="M1867.49,267.23h-40.11l-126.23,19.14-8.85,15.09-84.64,11.26-190.53,80.14,32.75,19.58s171.74-10.06,215.88-15.81,115-22.34,115-22.34l75.21-80Z" style="fill:#a29396;fill-rule:evenodd;mix-blend-mode:soft-light"/><path d="M1828,476.76h13l79.63-45.66,15.93-12.48V407.36l9.44,3.25,46-18.16,17.69-18.16,27.73-98.07,29.49-97.54,4.72-36.83-33.33,48.6-75.21,112-72.55,54.22-23,4.1s-53.67,37.51-81.4,81.17v7.5Z" style="fill:#bba7a9;fill-rule:evenodd;mix-blend-mode:soft-light"/><polygon points="1840.95 476.76 1840.95 493.13 1827.97 476.76 1840.95 476.76" style="fill:#271624;fill-rule:evenodd"/><path d="M1833.28,624.1l7.67-33.39,7.08-28.34L1841,493.13l-13-16.37-23.59-9.56h-21.83l-.59,34.57s12.7,55.88,41.29,88.94Z" style="fill:#644e52;fill-rule:evenodd"/><polygon points="1660.45 74.83 1708.23 77.05 1884.31 61.36 1933.86 38.51 1953.76 23.16 1800.25 14.98 1660.45 74.83" style="fill:#a29396;fill-rule:evenodd;mix-blend-mode:soft-light"/><polygon points="2037.97 87.28 2058.61 87.28 2053.3 125.91 2008.18 178.68 1896.99 243.48 1730.11 279.27 1725.93 257.81 1743.44 234.19 1888.29 146.45 1900.23 145.94 2037.97 87.28" style="fill:#907f82;fill-rule:evenodd;mix-blend-mode:soft-light"/><polygon points="1480.5 514.78 1487.03 502 1487.03 475.4 1371.56 484.57 1487.03 470.28 1506.05 467.2 1623.88 458.35 1698.2 469.94 1669.89 469.94 1480.5 514.78" style="fill:#24161e;fill-rule:evenodd"/><polygon points="1312.6 644.1 1296.35 647.29 1285.74 640.64 1272.69 630.15 1165.85 647.29 1156.11 646.27 1103.91 682.08 1151.69 657.01 1273.35 631.94 1284.56 642.43 1289.5 654.96 1291.71 676.45 1293.7 661.61 1306.09 652.92 1312.6 644.1" style="fill:#271624;fill-rule:evenodd"/><polygon points="956.15 765.98 986.23 694.36 1083.05 517.6 1144.61 467.2 1085.33 524.51 1031.36 670.82 1058.79 736.3 1086.21 736.3 1053.48 744.49 956.15 765.98" style="fill:#271624;fill-rule:evenodd"/><polygon points="1786.09 617.62 1815 627.34 1831.34 617.62 1837.85 617.62 1880.77 632.45 1892.27 632.45 1928.84 609.71 1958.92 624.1 1928.1 612.5 1892.71 634.76 1880.99 634.76 1840.95 624.1 1824.8 624.1 1811.53 630.15 1788.31 622.23 1785.66 624.1 1786.09 617.62" style="fill:#271624;fill-rule:evenodd"/><polygon points="1972.49 567.87 1958.92 643.2 1935.92 686.85 1901.71 716.86 1855.99 714.23 1919.4 632.97 1941.19 579.27 1941.19 421.51 1960.69 540 1972.49 567.87" style="fill:#a29396;fill-rule:evenodd;mix-blend-mode:soft-light"/><polygon points="1936.51 418.62 1936.51 407.36 1890.5 356.71 1937.49 401.72 1954.19 407.36 1941.19 426.63 1941.19 516.58 1937.62 423.99 1936.51 418.62" style="fill:#2c1b29;fill-rule:evenodd"/><polygon points="1175.64 645.72 1218.93 609.71 1306.09 540 1487.03 475.4 1487.03 502 1480.5 514.78 1432.17 530.14 1360.5 579.25 1312.6 644.1 1296.35 647.29 1273.35 631.94 1175.64 645.72" style="opacity:0.5;mix-blend-mode:multiply;fill:url(#Áåçûìÿííûé_ãðàäèåíò_150-24)"/><polygon points="1241.5 691.28 1223.36 728.63 1245.18 727.78 1266.42 691.28 1291.71 676.45 1410.11 719.92 1556.04 713.12 1548.97 710.73 1417.13 711.75 1387.05 706.12 1302.4 667.5 1306.09 652.92 1293.7 661.61 1291.49 672.87 1289.5 654.96 1284.56 642.43 1260.52 679.01 1241.5 691.28" style="opacity:0.5;mix-blend-mode:multiply;fill:url(#Áåçûìÿííûé_ãðàäèåíò_150-25)"/><polygon points="1067.63 443.68 1088.87 493.13 1083.05 517.6 986.23 694.36 956.15 765.98 937.57 769.04 785.38 782.35 800.42 706.29 998.62 467.2 1067.63 443.68" style="opacity:0.5;mix-blend-mode:multiply;fill:url(#Áåçûìÿííûé_ãðàäèåíò_150-26)"/><path d="M1079.14,309.31l2.21-29.85,249.36-72.13,22.63-16.88,82.37-116.13,4-74.43L1519.77,1l-73,74.88S1540.12,104,1577.28,104,1764,.63,1764,.63L1856,0l-24.77,10.89-31,4.09-139.8,59.85-34.06,50.65-49.21,29.17-42.3-17.92-102.71-10.82-38.34,46-40.41,74.81-76,40.47Z" style="opacity:0.5;mix-blend-mode:multiply;fill:url(#Áåçûìÿííûé_ãðàäèåíò_150-27)"/><path d="M1427.53,349.61l-10.4,43.25,34.07-12.61,156.46-67.53,84.64-11.26,8.85-15.09,24.78-44.76,33.69-65.25,9.37-35.19-24.78,39.56S1610.9,291.74,1553,318.86,1427.53,349.61,1427.53,349.61Z" style="opacity:0.5;mix-blend-mode:multiply;fill:url(#Áåçûìÿííûé_ãðàäèåíò_150-28)"/><polygon points="1474.76 476.76 1556.04 443.68 1718.85 392.86 1763.09 407.36 1781.96 403.77 1785.66 369.11 1855.99 294.3 1848.03 340.34 1786.09 421.51 1754.24 458.35 1763.09 475.4 1751.59 514.78 1770.17 568.51 1698.2 469.94 1674.02 467.21 1474.76 476.76" style="opacity:0.5;mix-blend-mode:multiply;fill:url(#Áåçûìÿííûé_ãðàäèåíò_150-29)"/><polygon points="1720.04 281.74 1711.74 267.23 1711.74 239.39 1720.04 200.47 1684.05 190.45 1575.51 189.94 1556.04 200.75 1575.51 192.5 1683.68 193.52 1705.58 205.8 1708.23 211.42 1709.36 271.53 1701.15 286.37 1720.04 281.74" style="fill:#271624;fill-rule:evenodd"/><polygon points="2043.79 83.06 2049.76 68.86 1993.14 19.07 1981.34 19.07 1831.22 10.88 1842.83 5.78 1840.51 9.1 1984.58 14.98 1990.26 7.43 2004.34 14.98 2014.67 32.37 2053.3 67.84 2065.67 67.19 2043.79 83.06" style="fill:#271624;fill-rule:evenodd"/><polygon points="1265.83 117.98 1357.26 105.02 1426.27 61.36 1439.69 -0.11 1407.4 23.16 1381.74 44.65 1293.26 86.6 1265.83 117.98" style="fill:#a29396;fill-rule:evenodd;mix-blend-mode:soft-light"/><path d="M1519.77,1l-73,74.88S1534.22,104,1577.28,104,1764,.63,1764,.63Z" style="fill:#a29396;fill-rule:evenodd;mix-blend-mode:soft-light"/><polygon points="1884.84 115.11 1888.29 146.45 1900.23 145.94 1906.43 117.98 1927.22 89.67 1921.85 136.73 2037.97 87.28 2043.79 83.06 2049.76 68.86 1993.14 19.07 1981.34 19.07 1937.45 77.05 1884.84 115.11" style="opacity:0.5;mix-blend-mode:multiply;fill:url(#Áåçûìÿííûé_ãðàäèåíò_150-30)"/><polygon points="1896.99 243.48 1890.5 294.3 1890.5 356.71 1867.49 360.81 1848.03 340.34 1855.99 294.3 1867.49 267.23 1827.38 267.23 1826.19 258.67 1896.99 243.48" style="opacity:0.8;mix-blend-mode:multiply;fill:url(#Áåçûìÿííûé_ãðàäèåíò_150-31)"/><polygon points="1246.36 233.93 1277.45 287.14 1353.42 246.67 1353.34 190.45 1330.71 207.33 1246.36 233.93" style="opacity:0.5;mix-blend-mode:multiply;fill:url(#Áåçûìÿííûé_ãðàäèåíò_150-32)"/><polygon points="1378.73 154.65 1378.73 199.82 1393.83 171.86 1391.44 136.73 1378.73 154.65" style="opacity:0.5;mix-blend-mode:multiply;fill:url(#Áåçûìÿííûé_ãðàäèåíò_150-33)"/><polygon points="1108.33 346.48 1121.31 380.11 1121.31 486.28 1144.61 467.2 1183.54 410.61 1166.73 412.44 1108.33 346.48" style="opacity:0.5;mix-blend-mode:multiply;fill:url(#Áåçûìÿííûé_ãðàäèåíò_150-34)"/><polygon points="1367.3 415.9 1353.42 486.28 1389.11 482.9 1409.63 412.44 1367.3 415.9" style="opacity:0.5;mix-blend-mode:multiply;fill:url(#Áåçûìÿííûé_ãðàäèåíò_150-35)"/><polygon points="1439.25 412.92 1427.09 480.16 1441.02 480.51 1449.88 412.44 1439.25 412.92" style="opacity:0.5;mix-blend-mode:multiply;fill:url(#Áåçûìÿííûé_ãðàäèåíò_150-36)"/><polygon points="1018.88 634.76 972.66 630.15 911.53 569.19 731.3 590.71 711.06 630.15 692.48 739.54 686.93 739.54 698.65 747.18 695.72 739.54 713.12 632.97 729.34 598.01 734.36 595.62 838.8 579.38 848.42 577.97 909.55 574.64 912.79 577.37 921.93 583.51 969.42 631.94 1003.34 647.89 1006.04 658.18 1018.88 634.76" style="fill:#271624;fill-rule:evenodd"/><polygon points="1823.26 590.71 1848.03 562.37 1833.28 624.1 1823.26 630.15 1785.66 714.23 1816.84 622.23 1823.26 590.71" style="fill:#271624;fill-rule:evenodd"/><polygon points="1786.09 449.48 1765.3 467.2 1763.09 475.4 1782.55 467.2 1804.38 467.2 1824.61 475.4 1786.09 449.48" style="fill:#271624;fill-rule:evenodd"/><polygon points="1781.96 403.77 1773.01 436.65 1786.09 421.51 1848.03 340.34 1855.99 294.3 1785.66 369.11 1781.96 403.77" style="fill-rule:evenodd;opacity:0.5;mix-blend-mode:multiply;fill:url(#Áåçûìÿííûé_ãðàäèåíò_150-37)"/><polygon points="1588.97 302.14 1607.66 312.72 1692.3 301.46 1711.74 267.23 1708.23 211.42 1635.21 267.23 1588.97 302.14" style="fill-rule:evenodd;opacity:0.5;mix-blend-mode:multiply;fill:url(#Áåçûìÿííûé_ãðàäèåíò_150-38)"/><polygon points="1432.17 125.91 1446.77 75.86 1519.77 0.98 1439.69 -0.11 1435.71 74.32 1403.32 125.91 1403.32 160.49 1432.17 125.91" style="fill-rule:evenodd;opacity:0.5;mix-blend-mode:multiply;fill:url(#Áåçûìÿííûé_ãðàäèåíò_150-39)"/><polygon points="1178.61 117.98 1187.26 153.45 1203.3 146.21 1203.3 103.99 1178.61 117.98" style="fill-rule:evenodd;opacity:0.5;mix-blend-mode:multiply;fill:url(#Áåçûìÿííûé_ãðàäèåíò_150-40)"/><polygon points="1219.23 92.74 1260.51 120.88 1293.26 86.6 1225.72 61.36 1219.23 92.74" style="fill-rule:evenodd;opacity:0.5;mix-blend-mode:multiply;fill:url(#Áåçûìÿííûé_ãðàäèåíò_150-41)"/><polygon points="1383.57 561.34 1497.2 523.83 1540.12 514.78 1615.62 516.58 1529.72 695.98 1537.3 703.05 1569.32 630.15 1632.14 523.83 1630.81 540 1605.37 602.62 1575.51 714.23 1680.36 712.21 1779.6 714.23 1786.09 617.62 1770.17 568.51 1698.2 469.94 1669.89 469.94 1432.17 530.14 1383.57 561.34" style="fill-rule:evenodd;opacity:0.8;mix-blend-mode:multiply;fill:url(#Áåçûìÿííûé_ãðàäèåíò_150-42)"/><polygon points="1655.14 306.4 1503.84 408.12 1623.6 402.7 1692.3 301.46 1655.14 306.4" style="fill:#aa8b92;fill-rule:evenodd;mix-blend-mode:soft-light"/><polygon points="1725.93 282.21 1680.8 396.63 1703.81 392.13 1720.04 319.88 1732.91 281.55 1725.93 282.21" style="fill:#b59aa0;fill-rule:evenodd;mix-blend-mode:soft-light"/><polygon points="1480.09 243.48 1575.51 307.56 1546.09 322.28 1503.84 331.74 1418.56 277.08 1480.09 243.48" style="fill:#aa8b92;fill-rule:evenodd;mix-blend-mode:soft-light"/><polygon points="1489.35 238.15 1655.14 251.16 1666.66 243.48 1499.12 231.55 1489.35 238.15" style="fill:#aa8b92;fill-rule:evenodd;mix-blend-mode:soft-light"/><polygon points="1503.84 408.12 1506.05 467.2 1546.09 462.44 1565.1 493.13 1584.83 489.45 1578.01 462.44 1553.98 462.44 1552.8 446.48 1551.33 405.97 1503.84 408.12" style="fill:#92959b;fill-rule:evenodd;mix-blend-mode:soft-light"/><polygon points="1848.03 172.54 1834.76 254.4 1848.03 252.44 1851.4 170.17 1848.03 172.54" style="fill:#aa8b92;fill-rule:evenodd;mix-blend-mode:soft-light"/><polygon points="1867.49 159.93 1877.22 247.72 1896.99 243.48 1908.27 236.91 1888.29 146.45 1867.49 159.93" style="fill:#aa8b92;fill-rule:evenodd;mix-blend-mode:soft-light"/><polygon points="1843.08 173.84 1826.19 256.44 1815 258.49 1831.22 181.02 1843.08 173.84" style="fill:#aa8b92;fill-rule:evenodd;mix-blend-mode:soft-light"/><polygon points="1660.45 74.83 1708.23 77.05 1711.74 117.98 1843.08 120.88 1703.81 125.91 1626.39 125.48 1660.45 74.83" style="fill-rule:evenodd;opacity:0.5;mix-blend-mode:multiply;fill:url(#Áåçûìÿííûé_ãðàäèåíò_150-43)"/><polygon points="1085.77 190.45 1310.05 211.42 1330.71 207.33 1122.27 179.71 1110.4 148.22 1085.77 190.45" style="fill:#aa8b92;fill-rule:evenodd;mix-blend-mode:soft-light"/><polygon points="1123.82 125.22 1165.85 125.91 1169.05 162.18 1358.43 179.82 1361.83 231.1 1480.09 243.48 1499.12 231.55 1370.96 214.19 1368.15 173.91 1172.48 160.01 1170.16 123.23 1129.98 117.98 1123.82 125.22" style="fill:#aa8b92;fill-rule:evenodd;mix-blend-mode:soft-light"/><polygon points="775.06 456.3 959.17 514.78 935.99 540.55 752.25 467.2 775.06 456.3" style="fill:#b59aa0;fill-rule:evenodd;mix-blend-mode:soft-light"/><polygon points="739.81 471.82 920.3 558.91 911.53 569.19 716.81 484.15 739.81 471.82" style="fill:#aa8b92;fill-rule:evenodd;mix-blend-mode:soft-light"/><polygon points="959.17 514.78 1024.72 624.09 1018.88 634.76 935.99 540.55 959.17 514.78" style="fill:#92959b;fill-rule:evenodd;mix-blend-mode:soft-light"/><polygon points="720.79 573.62 783.05 676.34 800.42 706.29 785.38 782.35 777.42 768.36 710.76 755.06 698.65 747.18 695.72 739.54 712.83 630.62 711.06 630.15 668.22 727.37 651.18 713.28 635.85 587.09 720.79 573.62" style="opacity:0.30000000000000004;mix-blend-mode:multiply;fill:url(#Áåçûìÿííûé_ãðàäèåíò_150-44)"/><polygon points="739.51 603.29 741.05 605.34 759.98 593.23 787.09 587.09 734.4 594.43 734.4 594.43 739.51 603.29" style="fill:#754d50;fill-rule:evenodd"/><polygon points="882.42 576.12 902.37 578.32 909.55 574.64 882.42 576.12" style="fill:#754d50;fill-rule:evenodd"/><polygon points="990 448.4 1007.91 465.01 994.79 471.82 990 448.4" style="fill:#754d50;fill-rule:evenodd"/><polygon points="1683.68 193.52 1696.51 216.16 1708.23 211.42 1705.58 205.8 1683.68 193.52" style="fill:#4e3235;fill-rule:evenodd"/><polygon points="1584.3 192.58 1548.67 204.84 1575.51 192.5 1584.3 192.58" style="fill:#a26e71;fill-rule:evenodd"/><polygon points="1919.83 389 1928.84 418.37 1937.62 423.99 1936.51 407.36 1919.83 389" style="fill:#4e3244;fill-rule:evenodd"/><polygon points="1720.04 387.33 1718.85 392.86 1763.09 407.36 1781.96 403.77 1785.66 369.11 1720.04 387.33" style="fill:#46374d;fill-rule:evenodd"/><polygon points="1259.7 410.61 1289.45 407.37 1278.5 414.62 1259.7 410.61" style="fill:#a26e71;fill-rule:evenodd"/><polygon points="1530.59 97.48 1626.39 85.67 1626.39 97.48 1579.66 132.13 1559.42 128.72 1530.59 97.48" style="fill:#463743;fill-rule:evenodd"/><polygon points="1579.66 132.13 1577.17 154.65 1626.39 125.48 1660.45 74.83 1680.36 66.31 1680.8 54.61 1626.39 85.67 1626.39 97.48 1579.66 132.13" style="fill-rule:evenodd;opacity:0.5;mix-blend-mode:multiply;fill:url(#Áåçûìÿííûé_ãðàäèåíò_150-45)"/><polygon points="1432.17 125.91 1418.56 102.45 1435.71 74.32 1437.83 34.76 1499.12 22.16 1446.77 75.86 1432.17 125.91" style="fill-rule:evenodd;opacity:0.5;mix-blend-mode:multiply;fill:url(#Áåçûìÿííûé_ãðàäèåíò_150-46)"/><polygon points="1314.93 540 1360.5 579.25 1432.17 530.14 1480.5 514.78 1487.03 475.4 1314.93 540" style="fill-rule:evenodd;opacity:0.5;mix-blend-mode:multiply;fill:url(#Áåçûìÿííûé_ãðàäèåíò_150-47)"/><polygon points="1698.2 469.94 1754.24 458.35 1763.09 475.4 1751.59 514.78 1770.17 568.51 1698.2 469.94" style="fill-rule:evenodd;opacity:0.5;mix-blend-mode:multiply;fill:url(#Áåçûìÿííûé_ãðàäèåíò_150-48)"/><polygon points="1928.1 612.5 1919.4 632.97 1944.47 650.87 1958.92 643.2 1962.36 624.1 1928.1 612.5" style="fill:#b7acae;fill-rule:evenodd;mix-blend-mode:soft-light"/><polygon points="1840.95 624.1 1833.28 624.1 1830.66 631.69 1880.99 634.76 1840.95 624.1" style="fill:#755559;fill-rule:evenodd"/><polygon points="1848.07 715.62 1915.33 638.18 1937.62 583.81 1938.6 449.55 1936.51 431.11 1840.95 476.76 1848.03 562.37 1797.53 713.33 1848.07 715.62" style="fill-rule:evenodd;opacity:0.5;mix-blend-mode:multiply;fill:url(#Áåçûìÿííûé_ãðàäèåíò_150-49)"/><polygon points="1141.51 486.14 1206.55 493.82 1255.21 493.82 1487.03 475.4 1491.54 477.1 1508.71 469.94 1256.32 489.38 1141.51 486.14" style="fill:#271624;fill-rule:evenodd"/><polygon points="1267.55 492.84 1286.18 543.82 1306.09 540 1329.09 531.79 1320.09 489.17 1267.55 492.84" style="fill:#aa8b92;fill-rule:evenodd;mix-blend-mode:soft-light"/><polygon points="1335.73 487.42 1381.53 513.07 1409.63 503.03 1350.11 486.28 1335.73 487.42" style="fill:#aa8b92;fill-rule:evenodd;mix-blend-mode:soft-light"/><polygon points="1366.78 484.95 1417.13 500.36 1441.06 492.65 1378.52 484.29 1366.78 484.95" style="fill:#755559;fill-rule:evenodd"/><polygon points="1281.76 544.13 1320.11 534.99 1304.21 546.91 1298.32 546.21 1281.76 544.13" style="fill:#755559;fill-rule:evenodd"/><polygon points="1810.71 573.36 1830.66 582.24 1821.42 599.73 1810.71 573.36" style="fill:#806266;fill-rule:evenodd"/><polygon points="1335.73 417.08 1342.33 484.29 1259.7 491.51 1285.29 440.61 1278.5 414.62 1289.45 407.37 1329.09 396.63 1335.73 417.08" style="fill-rule:evenodd;opacity:0.5;mix-blend-mode:multiply;fill:url(#Áåçûìÿííûé_ãðàäèåíò_150-50)"/><polygon points="1346.79 272.3 1403.32 264.63 1331.33 320.04 1311.84 340.34 1507.78 227.54 1515.06 201.54 1577.17 154.65 1583.18 100.24 1731.23 0 1546.09 0 1446.77 75.86 1432.17 125.91 1409.63 160.49 1378.73 214.19 1397.22 211.42 1427.09 189.94 1467.56 168.28 1427.09 199.82 1353.42 262.07 1356.08 246.67 1286.18 282.49 1314.93 281.51 1346.79 272.3" style="fill:#7a92d7;fill-rule:evenodd"/><polygon points="1083.3 480.16 972.66 581.81 972.66 590.71 959.06 616.59 874.75 739.54 807.94 780.37 1058.79 780.37 1378.52 771.09 1310.07 761.88 1329.09 754.72 1225.72 747.18 1058.79 728.63 1055.25 700.61 1074.39 554.16 1085.33 524.51 1144.61 467.2 1183.54 410.61 1204.01 402.7 1277.45 374.29 1236.11 386.8 1196.22 392.45 1166.73 396.63 1132.95 374.29 1159.05 403.77 1088.87 486.57 1083.3 480.16" style="fill:#7a92d7;fill-rule:evenodd"/><polygon points="2071.59 141.85 2045.03 168.28 1987.45 235.56 1914.24 309.31 1908.2 328.39 1890.5 346.48 1855.99 348.71 1848.03 340.34 1773.01 436.65 1754.24 458.35 1759.99 462.44 1786.09 449.48 1788.31 446.48 1814.5 406.87 1867.49 360.81 1890.5 356.71 1963.05 302.49 1973.36 287.14 2070.31 151.83 2076.31 154.65 2096.56 183.28 2094.89 204.26 2084.84 309.31 2105.51 225.75 2111.7 218.07 2125.37 194.6 2134.7 91.72 2126.64 108.08 2090.02 130.08 2071.59 136.73 2071.59 141.85" style="fill:#7a92d7;fill-rule:evenodd"/><polygon points="536.77 712.17 597.7 685.53 619.92 676.96 678.32 698.4 678.32 703.05 757.07 747.18 760.16 752.67 789.17 763.21 863.69 781.84 785.38 785.74 787.45 779.28 769.45 767 710.76 755.06 626.12 708.68 584.97 709.19 598.25 714.82 627.44 731.35 536.77 712.17" style="fill:#aabdf9;fill-rule:evenodd"/><polygon points="701.43 491.51 752.25 458.35 1024.72 356.6 1088.87 340.34 991.98 377.69 956.15 410.61 975.61 410.61 911.02 424.24 789.8 467.2 807.94 463.63 791.57 475.4 705.31 495.35 701.43 491.51" style="fill:#aabdf9;fill-rule:evenodd"/><polygon points="1570.9 192.5 1286.18 350.57 1360.8 330.11 1417.13 309.31 1393.83 325.34 1422.14 317.83 1519.77 275.96 1487.03 279.27 1464.62 286.37 1605.37 203.92 1683.68 193.52 1642.31 227.54 1615.62 262.07 1708.23 211.42 1705.58 205.8 1686.77 192.5 1570.9 192.5" style="fill:#aabdf9;fill-rule:evenodd"/><polygon points="1575.51 189.94 1677.7 154.65 1763.97 132.13 1773.01 136.73 1756.89 160.49 1744.21 180.73 1720.04 200.47 1684.05 190.45 1711.74 168.28 1731.23 151.57 1685.67 174.08 1655.14 189.94 1575.51 189.94" style="fill:#aabdf9;fill-rule:evenodd"/><polygon points="1159.05 403.77 1175.64 403.77 1126.03 458.35 1073.53 514.78 1133.4 458.35 1157.59 440.61 1135.47 473.01 1077.37 530.65 1060.56 581.81 1042.27 616.59 1050.38 569.19 1066.75 523.83 1045.81 572.6 1024.72 608.41 976.06 651.38 1021.62 583.77 1006.14 590.71 972.66 581.81 972.66 590.71 949.76 630.15 972.66 607.9 998.62 602.27 949.76 685.53 906.16 720.96 920.56 696.4 872.53 757.79 886.69 727.1 874.75 739.54 822.43 771.52 863.69 781.84 1232.35 782.35 1223.36 782.35 1085.33 765.98 1310.07 761.88 1329.09 754.72 1197.26 759.33 920.56 751.1 1050.38 731.35 1058.79 728.63 1055.25 700.61 1074.39 554.16 1083.56 527.58 1144.61 467.2 1183.54 410.61 1277.45 374.29 1232.35 387.33 1238.18 386.9 1201.02 396.63 1164.74 398.66 1166.73 396.63 1132.95 374.29 1159.05 403.77" style="fill-rule:evenodd;opacity:0.30000000000000004;mix-blend-mode:multiply;fill:url(#Áåçûìÿííûé_ãðàäèåíò_150-51)"/><polygon points="1058.79 728.63 920.56 751.1 1164.37 758.35 1329.09 754.72 1058.79 728.63" style="fill:#aabdf9;fill-rule:evenodd"/><polygon points="995.08 772.8 1232.35 782.35 1378.52 771.09 1310.07 761.88 1088.87 765.91 995.08 772.8" style="fill:#aabdf9;fill-rule:evenodd"/><polygon points="972.66 581.81 1006.14 590.71 1021.62 583.77 1079.13 491.51 1083.3 480.16 972.66 581.81" style="fill:#aabdf9;fill-rule:evenodd"/><polygon points="976.06 651.38 1018.88 601.59 1066.75 523.83 1045.81 572.6 1024.72 608.41 976.06 651.38" style="fill:#aabdf9;fill-rule:evenodd"/><polygon points="1680.36 193.01 1605.37 199.41 1438.49 294.3 1464.62 286.37 1605.37 203.92 1680.36 193.01" style="fill-rule:evenodd;opacity:0.30000000000000004;mix-blend-mode:multiply;fill:url(#Áåçûìÿííûé_ãðàäèåíò_150-52)"/><polygon points="1417.13 309.31 1427.09 302.14 1335.73 331.64 1286.18 350.57 1360.8 330.11 1417.13 309.31" style="fill-rule:evenodd;opacity:0.30000000000000004;mix-blend-mode:multiply;fill:url(#Áåçûìÿííûé_ãðàäèåíò_150-53)"/><polygon points="1632.72 0 1614.41 0 1531.27 52.31 1512.98 68.86 1527.14 77.05 1508.71 83.06 1446.77 75.86 1432.17 125.91 1461.54 117.98 1556.04 122.75 1563.12 148.67 1513.34 192.5 1485.85 231.89 1422.14 267.02 1331.33 320.04 1320.09 331.74 1507.78 227.54 1515.06 201.54 1577.17 154.65 1583.18 100.24 1731.23 0 1711.74 1.09 1627.42 43.86 1559.42 77.05 1548.38 77.05 1632.72 0" style="fill-rule:evenodd;opacity:0.30000000000000004;mix-blend-mode:multiply;fill:url(#Áåçûìÿííûé_ãðàäèåíò_150-54)"/><polygon points="1378.73 214.19 1403.32 199.82 1474.76 141.17 1503.84 125.91 1467.56 168.28 1427.09 189.94 1397.22 211.42 1378.73 214.19" style="fill-rule:evenodd;opacity:0.30000000000000004;mix-blend-mode:multiply;fill:url(#Áåçûìÿííûé_ãðàäèåíò_150-55)"/><polygon points="1356.08 246.67 1343.25 262.07 1314.93 281.51 1346.79 272.3 1353.42 262.07 1356.08 246.67" style="fill-rule:evenodd;opacity:0.30000000000000004;mix-blend-mode:multiply;fill:url(#Áåçûìÿííûé_ãðàäèåíò_150-56)"/><polygon points="1363.14 270.08 1395.89 262.07 1456.06 211.42 1497.2 183.28 1403.32 264.63 1363.14 270.08" style="fill-rule:evenodd;opacity:0.30000000000000004;mix-blend-mode:multiply;fill:url(#Áåçûìÿííûé_ãðàäèåíò_150-57)"/><polygon points="1446.77 75.86 1481.28 80.73 1512.98 68.86 1531.27 52.31 1614.41 0 1546.09 0 1446.77 75.86" style="fill:#aabdf9;fill-rule:evenodd"/><polygon points="2045.03 168.28 2058.61 160.77 1963.05 286.37 1928.84 306.07 1914.24 309.31 1963.05 258.67 2045.03 168.28" style="fill:#aabdf9;fill-rule:evenodd"/><polygon points="1088.87 340.34 987.41 374.29 926.95 410.61 956.15 410.61 991.98 377.69 1088.87 340.34" style="fill-rule:evenodd;opacity:0.30000000000000004;mix-blend-mode:multiply;fill:url(#Áåçûìÿííûé_ãðàäèåíò_150-58)"/><polygon points="789.8 467.2 760.61 471.82 816.21 449.36 911.02 424.24 789.8 467.2" style="fill-rule:evenodd;opacity:0.30000000000000004;mix-blend-mode:multiply;fill:url(#Áåçûìÿííûé_ãðàäèåíò_150-59)"/><polygon points="791.57 475.4 715.92 488.96 701.43 491.51 705.31 495.35 791.57 475.4" style="fill-rule:evenodd;opacity:0.30000000000000004;mix-blend-mode:multiply;fill:url(#Áåçûìÿííûé_ãðàäèåíò_150-60)"/><polygon points="678.32 698.4 653.77 703.31 597.51 695.72 622.87 701.18 629.36 706.29 591.9 706.29 565.07 706.29 584.97 709.19 626.12 708.68 710.76 755.06 769.45 767 787.45 779.28 785.38 785.74 863.69 781.84 801.9 776.21 746.15 755.4 760.16 752.67 757.07 747.18 714.38 747.18 637.91 708.34 678.32 703.05 678.32 698.4" style="fill-rule:evenodd;opacity:0.30000000000000004;mix-blend-mode:multiply;fill:url(#Áåçûìÿííûé_ãðàäèåíò_150-61)"/><polygon points="629.66 732.89 640.72 731.35 678.32 748.58 686.93 758.35 640.72 743.49 629.66 732.89" style="fill:#aabdf9;fill-rule:evenodd"/><polygon points="640.72 731.35 635.85 734.43 638.28 739.54 674.49 750.8 678.32 748.58 686.93 758.35 640.72 743.49 629.66 732.89 640.72 731.35" style="fill-rule:evenodd;opacity:0.30000000000000004;mix-blend-mode:multiply;fill:url(#Áåçûìÿííûé_ãðàäèåíò_150-62)"/><polygon points="1980.31 294.3 1933.41 331.74 1896.99 354.84 1948.01 331.74 1911.29 354.84 1898.46 365.47 1987.45 358.02 1982.96 361.5 1954.19 374.29 1919.6 384.58 1937.49 401.72 1987.45 394.23 2009.65 374.29 2034.51 286.37 2040.1 267.23 2021.68 279.27 2000.61 294.3 1952.88 328.39 1976.1 305.04 2012.16 274.6 2017.47 267.23 2009.65 267.23 1949.36 312.72 1980.31 294.3" style="fill:#aabdf9;fill-rule:evenodd"/><polygon points="1916.32 385.14 1876.74 402.7 1810.2 431.11 1898.9 408.12 1895.14 412.44 1878.11 421.51 1936.51 407.36 1916.32 385.14" style="fill:#aabdf9;fill-rule:evenodd"/><polygon points="1936.51 418.62 1872.29 431.4 1844.49 431.4 1878.11 421.51 1836.53 431.11 1808.43 438.31 1786.09 449.48 1812.43 467.2 1867.49 451.61 1861.59 451.61 1827.97 456.21 1831.22 452.38 1881.87 434.73 1924.63 427.93 1936.51 418.62" style="fill:#aabdf9;fill-rule:evenodd"/><polygon points="1777.36 214.19 1954.19 190.45 2004.63 180.75 2033.7 146.45 2017.91 150.29 1948.44 160.77 2044.05 136.73 2053.3 125.91 1915.33 154.65 1884.84 160.77 1914.24 146.45 1900.23 145.94 1884.84 150.29 1777.36 214.19" style="fill:#aabdf9;fill-rule:evenodd"/><polygon points="1983.6 193.01 1861.3 214.19 1958.24 207.79 1983.6 193.01" style="fill:#aabdf9;fill-rule:evenodd"/><polygon points="1976.62 178.68 1864.55 193.01 1938.28 186.19 1777.36 214.19 1954.19 190.45 2004.63 180.75 1976.62 178.68" style="fill-rule:evenodd;opacity:0.30000000000000004;mix-blend-mode:multiply;fill:url(#Áåçûìÿííûé_ãðàäèåíò_150-63)"/><polygon points="2044.05 136.73 2045.46 135.08 2022.82 136.67 1911.73 165.87 1950.84 160.17 2044.05 136.73" style="fill-rule:evenodd;opacity:0.30000000000000004;mix-blend-mode:multiply;fill:url(#Áåçûìÿííûé_ãðàäèåíò_150-64)"/><polygon points="1914.24 146.45 1900.23 145.94 1861.59 166.3 1884.84 160.77 1914.24 146.45" style="fill-rule:evenodd;opacity:0.30000000000000004;mix-blend-mode:multiply;fill:url(#Áåçûìÿííûé_ãðàäèåíò_150-65)"/><polygon points="1898.46 365.47 1944.47 350.57 2013.78 334.48 1987.45 358.02 1898.46 365.47" style="fill-rule:evenodd;opacity:0.30000000000000004;mix-blend-mode:multiply;fill:url(#Áåçûìÿííûé_ãðàäèåíò_150-66)"/><polygon points="1898.9 408.12 1926.76 396.63 1923.34 392.86 1810.2 431.11 1898.9 408.12" style="fill-rule:evenodd;opacity:0.30000000000000004;mix-blend-mode:multiply;fill:url(#Áåçûìÿííûé_ãðàäèåíò_150-67)"/><polygon points="1655.14 189.94 1668.12 174.93 1752.47 141.17 1727.64 154.65 1655.14 189.94" style="fill-rule:evenodd;opacity:0.30000000000000004;mix-blend-mode:multiply;fill:url(#Áåçûìÿííûé_ãðàäèåíò_150-68)"/><polygon points="1705.58 205.8 1615.62 262.07 1708.23 211.42 1705.58 205.8" style="fill-rule:evenodd;opacity:0.30000000000000004;mix-blend-mode:multiply;fill:url(#Áåçûìÿííûé_ãðàäèåíò_150-69)"/><polygon points="1714.55 198.94 1741.85 175.96 1773.01 136.73 1744.21 180.73 1720.04 200.47 1714.55 198.94" style="fill-rule:evenodd;opacity:0.30000000000000004;mix-blend-mode:multiply;fill:url(#Áåçûìÿííûé_ãðàäèåíò_150-70)"/><polygon points="1265.83 117.98 1141.96 173.91 1189.52 183.28 1306.59 178.68 1277.45 174.08 1248.58 170.17 1353.42 154.65 1386.28 144.01 1391.44 136.73 1344.58 141.17 1399.12 125.91 1424.21 87.11 1341.04 103.99 1265.83 129.06 1246.36 132.13 1270.69 117.98 1265.83 117.98" style="fill:#aabdf9;fill-rule:evenodd"/><polygon points="1358.43 183.28 1265.83 189.94 1203.3 200.47 1339.91 200.47 1353.34 190.45 1358.43 183.28" style="fill:#aabdf9;fill-rule:evenodd"/><polygon points="1424.21 87.11 1393.83 117.98 1367.14 125.91 1261.85 154.65 1344.58 141.17 1399.12 125.91 1424.21 87.11" style="fill-rule:evenodd;opacity:0.30000000000000004;mix-blend-mode:multiply;fill:url(#Áåçûìÿííûé_ãðàäèåíò_150-71)"/><polygon points="1386.28 136.73 1356.08 145.94 1228.67 166.3 1248.58 170.17 1353.42 154.65 1386.28 144.01 1391.44 136.73 1386.28 136.73" style="fill-rule:evenodd;opacity:0.30000000000000004;mix-blend-mode:multiply;fill:url(#Áåçûìÿííûé_ãðàäèåíò_150-72)"/><polygon points="1306.59 178.68 1206.55 178.68 1141.96 173.91 1189.52 183.28 1306.59 178.68" style="fill-rule:evenodd;opacity:0.30000000000000004;mix-blend-mode:multiply;fill:url(#Áåçûìÿííûé_ãðàäèåíò_150-73)"/><polygon points="1353.34 190.45 1203.3 200.47 1339.91 200.47 1353.34 190.45" style="fill-rule:evenodd;opacity:0.30000000000000004;mix-blend-mode:multiply;fill:url(#Áåçûìÿííûé_ãðàäèåíò_150-74)"/><polygon points="1773.01 715.24 1814.5 701.56 1881.08 682.08 1873.36 690.2 1941.19 676.85 2021.68 696.04 2048.69 701.56 2131.99 714.23 2211.41 696.04 2211.41 723 1773.01 715.24" style="fill:#aabdf9;fill-rule:evenodd"/><polygon points="1881.08 87.46 1859.3 87.46 1855.89 94.78 1870.19 94.78 1881.08 87.46" style="fill:#aabdf9;fill-rule:evenodd"/><polygon points="1627.28 385.14 1635.36 380.93 1675.02 378.2 1683.21 381.67 1655.24 388.01 1627.28 385.14" style="fill:#aabdf9;fill-rule:evenodd"/><polygon points="1619.77 388.01 1611.59 385.14 1593.06 392.45 1615.62 392.86 1619.77 388.01" style="fill:#aabdf9;fill-rule:evenodd"/><polygon points="1767.18 305.92 1790.19 294.27 1802.92 295.69 1819.09 302.51 1810.42 310.02 1789.75 310.02 1764.38 310.02 1767.18 305.92" style="fill:#aabdf9;fill-rule:evenodd"/><polygon points="1750.39 316.81 1745.96 312.72 1732.91 316.81 1731.23 319.88 1750.39 316.81" style="fill:#aabdf9;fill-rule:evenodd"/><polygon points="1816.69 108.94 1812.25 104.84 1799.2 108.94 1797.53 112.01 1816.69 108.94" style="fill:#aabdf9;fill-rule:evenodd"/><polygon points="1434.24 -0.69 1381.74 44.65 1293.26 86.6 1389.22 46.01 1446.77 0.63 1434.24 -0.69" style="fill:#e09c6f;fill-rule:evenodd"/><polygon points="1225.72 61.36 1177.43 69.89 1166.11 74.21 1123.82 125.22 1110.4 148.22 1127.46 125.91 1174.89 77.62 1189.52 72.26 1225.72 61.36" style="fill:#e09c6f;fill-rule:evenodd"/><path d="M1085.77,190.45l-30.52,37.09-29.86,27.66-.67-1.06,2.07-4.69S1061.3,209.21,1085.77,190.45Z" style="fill:#e09c6f;fill-rule:evenodd"/><polygon points="1037.99 297.88 1037.99 315.31 1011.6 346.48 935.99 390.13 1011.01 338.3 1037.99 297.88" style="fill:#e09c6f;fill-rule:evenodd"/><polygon points="701.43 491.51 760.61 460.11 1024.72 356.6 953 380.31 752.25 458.35 701.43 491.51" style="fill:#e1e8fd;fill-rule:evenodd"/><polygon points="701.43 491.51 643.51 587.09 597.7 685.53 629.66 587.09 701.43 491.51" style="fill:#e09c6f;fill-rule:evenodd"/><polygon points="536.77 712.17 496.64 725.39 487.2 723 497.52 714.82 536.77 712.17" style="fill:#e09c6f;fill-rule:evenodd"/><polygon points="597.7 685.53 553.37 712.17 536.77 712.17 597.7 685.53" style="fill:#e1e8fd;fill-rule:evenodd"/><polygon points="435.88 793.26 76.13 847.22 115.64 843.76 457.79 793.43 435.88 793.26" style="fill:#e09c6f;fill-rule:evenodd"/><polygon points="215.28 835.04 195.54 844.76 -16.26 860.79 9.9 861.34 -79.85 881.3 -95.72 881.04 -181.66 886.28 -69.91 869.87 -12.4 854.7 215.28 835.04" style="fill:#e1e8fd;fill-rule:evenodd"/><polygon points="223.97 859.28 411.12 883.92 649.57 900.59 665.17 895.92 427.46 854.7 223.97 859.28" style="fill:#c7d4fb;fill-rule:evenodd"/><polygon points="1851.4 771.09 2116.68 765.98 2211.41 760.78 2168.36 771.09 2203.68 771.09 2168.36 793.26 1890.5 799.48 1910.18 797.3 1810.2 797.3 1958.92 773.89 1851.4 771.09" style="fill:#c1cffb;fill-rule:evenodd"/><polygon points="1606.41 743.49 1734.18 754.21 2157.28 754.21 1606.41 743.49" style="fill:#c1cffb;fill-rule:evenodd"/><polygon points="2211.41 723 1773.01 715.24 1840.95 708.76 1881.08 682.08 1873.36 690.2 1859.72 709.45 1987.45 705.25 1941.19 676.85 2131.99 714.23 2148.06 718.86 2203.68 712.67 2211.41 696.04 2211.41 723" style="fill-rule:evenodd;opacity:0.5;mix-blend-mode:multiply;fill:url(#Áåçûìÿííûé_ãðàäèåíò_150-75)"/><polygon points="1747.33 988.48 1797.53 992.6 1830.66 999.76 1834.46 1010.71 1810.2 1010.71 1747.33 988.48" style="fill:#aabdf9;fill-rule:evenodd"/><polygon points="1731.23 968.98 1750.39 962.59 1773.01 967.85 1731.23 968.98" style="fill:#aabdf9;fill-rule:evenodd"/><polygon points="1479.16 859.63 1389.7 870.12 1381.29 878.57 1479.16 859.63" style="fill:#aabdf9;fill-rule:evenodd"/><polygon points="997.11 876.65 1020.85 874.09 1032.38 883.04 983.44 880.95 997.11 876.65" style="fill:#aabdf9;fill-rule:evenodd"/><polygon points="1346.32 788.74 1361.33 775.96 1380.53 775.96 1410.71 782.35 1346.32 788.74" style="fill:#aabdf9;fill-rule:evenodd"/><polygon points="1450.95 773.01 1443.56 769.18 1429.46 771.09 1426.03 773.01 1450.95 773.01" style="fill:#aabdf9;fill-rule:evenodd"/><path d="M565.52,449.06c-3.83-3.83,12-16.69,16.11-12.54S569.85,453.4,565.52,449.06Z" style="fill:#aabdf9;fill-rule:evenodd"/><path d="M649,729.46c-3.83-3.83,12-16.7,16.11-12.54S653.38,733.8,649,729.46Z" style="fill:#aabdf9;fill-rule:evenodd"/><path d="M491.09,640.5c-8.67-5.42,12-16.7,16.11-12.55S504.21,648.68,491.09,640.5Z" style="fill:#aabdf9;fill-rule:evenodd"/><path d="M959.83,280.22c-3.72-2.32,5.12-7.15,6.9-5.37S965.45,283.73,959.83,280.22Z" style="fill:#aabdf9;fill-rule:evenodd"/><path d="M946,610.33c-3.71-2.32,5.13-7.15,6.91-5.37S951.61,613.84,946,610.33Z" style="fill:#4f63cc;fill-rule:evenodd"/><path d="M687.73,589.07c-1.83-1.14,2.53-3.53,3.41-2.65S690.51,590.8,687.73,589.07Z" style="fill:#4f63cc;fill-rule:evenodd"/><path d="M1139.5,182.69c-3.72-2.32,5.12-7.15,6.9-5.37S1145.12,186.2,1139.5,182.69Z" style="fill:#aabdf9;fill-rule:evenodd"/><path d="M610.52,429.14c0-2.71,6.54-6.55,10.83-6.55s6.73,7.81,4.83,9.71S610.52,433.92,610.52,429.14Z" style="fill:#aabdf9;fill-rule:evenodd"/><path d="M827.62,533.57c0-2.71,6.55-6.55,10.84-6.55s6.72,7.81,4.82,9.71S827.62,538.34,827.62,533.57Z" style="fill:#aabdf9;fill-rule:evenodd"/><path d="M625.82,394.58c-1.1-.49-1.47-3.83-.69-5.56s4.37-1.31,4.8-.2S627.75,395.45,625.82,394.58Z" style="fill:#aabdf9;fill-rule:evenodd"/><path d="M740.47,713.37c-1.1-.49-1.47-3.83-.69-5.57s4.37-1.31,4.8-.19S742.4,714.23,740.47,713.37Z" style="fill:#aabdf9;fill-rule:evenodd"/><path d="M1008.07,587.79c-1.09-.49-1.46-3.83-.69-5.56s4.38-1.31,4.8-.2S1010,588.66,1008.07,587.79Z" style="fill:#4f63cc;fill-rule:evenodd"/><path d="M690.44,355.31c-1.1-.49-1.47-3.83-.69-5.56s4.37-1.31,4.8-.2S692.37,356.18,690.44,355.31Z" style="fill:#aabdf9;fill-rule:evenodd"/><path d="M657,384c2.27-3.44,8.54-2.26,8.54,0s-7.39,4.53-8.54,3.38S655.9,385.69,657,384Z" style="fill:#7997f6;fill-rule:evenodd"/><path d="M352.53,398.11c2.27-3.44,8.53-2.26,8.53,0s-7.38,4.53-8.53,3.38S351.41,399.8,352.53,398.11Z" style="fill:#7997f6;fill-rule:evenodd"/><path d="M106.46,58.42c-3.83-3.83,12-16.7,16.11-12.54S110.8,62.76,106.46,58.42Z" style="fill:#fff;fill-rule:evenodd"/><path d="M1604.31,570.86c-3.83-3.83,12-16.7,16.11-12.55S1608.65,575.19,1604.31,570.86Z" style="fill:#fff;fill-rule:evenodd"/><path d="M75.7,48.94c0-2.71,6.54-6.54,10.83-6.54s6.72,7.8,4.82,9.7S75.7,53.72,75.7,48.94Z" style="fill:#fff;fill-rule:evenodd"/><path d="M376,233.09c0-2.71,6.54-6.55,10.83-6.55s6.73,7.81,4.83,9.71S376,237.87,376,233.09Z" style="fill:#fff;fill-rule:evenodd"/><path d="M282.86,83.15c-1.1-.49-1.47-3.83-.69-5.56s4.37-1.31,4.8-.2S284.79,84,282.86,83.15Z" style="fill:#fff;fill-rule:evenodd"/><path d="M195,337c2.26-3.44,8.53-2.26,8.53,0s-7.38,4.53-8.53,3.38S193.89,338.7,195,337Z" style="fill:#fff;fill-rule:evenodd"/><path d="M688,578.45c6.48,15.25-9.88,36.79-36.52,48.11s-53.51,8.14-60-7.11,9.88-36.78,36.53-48.1S681.53,563.21,688,578.45Z" style="opacity:0.5;mix-blend-mode:screen;fill:url(#Áåçûìÿííûé_ãðàäèåíò_75)"/><path d="M1019.17,1004.13c3.35,9-9.26,21.94-28.15,29s-36.94,5.56-40.29-3.39,9.26-21.94,28.15-29S1015.82,995.19,1019.17,1004.13Z" style="opacity:0.30000000000000004;mix-blend-mode:screen;fill:url(#Áåçûìÿííûé_ãðàäèåíò_75-2)"/><ellipse cx="904.67" cy="525.57" rx="97.62" ry="59.16" transform="translate(-116.24 296.68) rotate(-17.52)" style="opacity:0.2;mix-blend-mode:screen;fill:url(#Áåçûìÿííûé_ãðàäèåíò_80)"/><polygon points="2509.97 857.04 2168.27 909.71 2118.14 893.36 1246.07 934.8 1072.28 967.85 891.41 956.11 780.71 969.92 475.22 959.69 444.38 977.43 -88.92 972.6 -92.53 956.72 -1275.48 954.24 -1286.52 1080 2509.97 1080 2509.97 857.04" style="fill-rule:evenodd;mix-blend-mode:multiply;fill:url(#Áåçûìÿííûé_ãðàäèåíò_84)"/></g></g></g></svg>