<svg xmlns="http://www.w3.org/2000/svg" xmlns:xlink="http://www.w3.org/1999/xlink" viewBox="0 0 1920 1080"><defs><clipPath id="clip-path"><rect x="-497.84" width="2430" height="1080" style="fill:none"/></clipPath><linearGradient id="Áåçûìÿííûé_ãðàäèåíò_447" x1="711.75" y1="-7.7" x2="724.44" y2="695.47" gradientTransform="translate(1434.32 584.4) rotate(-180)" gradientUnits="userSpaceOnUse"><stop offset="0" stop-color="#6da7ff"/><stop offset="0.68" stop-color="#e0ffff"/></linearGradient><linearGradient id="Áåçûìÿííûé_ãðàäèåíò_412" x1="244.05" y1="487.51" x2="252.37" y2="185.97" gradientTransform="matrix(1, 0.06, -0.06, 1, -9.24, 27.72)" gradientUnits="userSpaceOnUse"><stop offset="0" stop-color="#a198ff"/><stop offset="0.28" stop-color="#c4befd"/><stop offset="0.59" stop-color="#e4e1fb"/><stop offset="0.84" stop-color="#f8f6fa"/><stop offset="1" stop-color="#fffefa"/></linearGradient><linearGradient id="Áåçûìÿííûé_ãðàäèåíò_412-2" x1="61.65" y1="516.93" x2="65.81" y2="277.78" xlink:href="#Áåçûìÿííûé_ãðàäèåíò_412"/><linearGradient id="Áåçûìÿííûé_ãðàäèåíò_412-3" x1="267.63" y1="520.51" x2="271.79" y2="281.36" xlink:href="#Áåçûìÿííûé_ãðàäèåíò_412"/><linearGradient id="Áåçûìÿííûé_ãðàäèåíò_412-4" x1="378.67" y1="522.44" x2="382.83" y2="283.29" xlink:href="#Áåçûìÿííûé_ãðàäèåíò_412"/><linearGradient id="Áåçûìÿííûé_ãðàäèåíò_412-5" x1="316.22" y1="521.35" x2="320.38" y2="282.2" xlink:href="#Áåçûìÿííûé_ãðàäèåíò_412"/><linearGradient id="Áåçûìÿííûé_ãðàäèåíò_412-6" x1="493.07" y1="524.43" x2="497.23" y2="285.28" xlink:href="#Áåçûìÿííûé_ãðàäèåíò_412"/><linearGradient id="Áåçûìÿííûé_ãðàäèåíò_412-7" x1="587.78" y1="526.07" x2="591.94" y2="286.92" xlink:href="#Áåçûìÿííûé_ãðàäèåíò_412"/><linearGradient id="Áåçûìÿííûé_ãðàäèåíò_412-8" x1="563.03" y1="525.64" x2="567.19" y2="286.49" xlink:href="#Áåçûìÿííûé_ãðàäèåíò_412"/><linearGradient id="Áåçûìÿííûé_ãðàäèåíò_412-9" x1="709.17" y1="528.18" x2="713.33" y2="289.03" xlink:href="#Áåçûìÿííûé_ãðàäèåíò_412"/><linearGradient id="Áåçûìÿííûé_ãðàäèåíò_412-10" x1="0.83" y1="515.88" x2="4.99" y2="276.72" xlink:href="#Áåçûìÿííûé_ãðàäèåíò_412"/><linearGradient id="Áåçûìÿííûé_ãðàäèåíò_412-11" x1="156.08" y1="518.58" x2="160.24" y2="279.42" xlink:href="#Áåçûìÿííûé_ãðàäèåíò_412"/><linearGradient id="Áåçûìÿííûé_ãðàäèåíò_412-12" x1="400.41" y1="522.83" x2="404.57" y2="283.66" xlink:href="#Áåçûìÿííûé_ãðàäèåíò_412"/><linearGradient id="Áåçûìÿííûé_ãðàäèåíò_412-13" x1="765.33" y1="529.18" x2="769.49" y2="290" xlink:href="#Áåçûìÿííûé_ãðàäèåíò_412"/><radialGradient id="Áåçûìÿííûé_ãðàäèåíò_403" cx="632.92" cy="777.36" r="161.5" gradientTransform="matrix(0, 1.05, -0.62, 0, 573.38, -427.28)" gradientUnits="userSpaceOnUse"><stop offset="0" stop-color="#d6fbf3"/><stop offset="0.31" stop-color="#8ca5a0"/><stop offset="0.65" stop-color="#424d4a"/><stop offset="0.89" stop-color="#121515"/><stop offset="1"/></radialGradient><radialGradient id="Áåçûìÿííûé_ãðàäèåíò_403-2" cx="968.69" cy="970.13" r="84.49" gradientTransform="matrix(0.63, 0.84, -0.5, 0.37, 248.32, -906.2)" xlink:href="#Áåçûìÿííûé_ãðàäèåíò_403"/><linearGradient id="Áåçûìÿííûé_ãðàäèåíò_412-14" x1="1403.75" y1="495.79" x2="1435.17" y2="114.22" gradientTransform="matrix(1, 0, 0, 1, 0, 0)" xlink:href="#Áåçûìÿííûé_ãðàäèåíò_412"/><linearGradient id="Áåçûìÿííûé_ãðàäèåíò_412-15" x1="967.73" y1="461.14" x2="1023.25" y2="343.16" gradientTransform="matrix(1, 0, 0, 1, 0, 0)" xlink:href="#Áåçûìÿííûé_ãðàäèåíò_412"/><linearGradient id="Áåçûìÿííûé_ãðàäèåíò_167" x1="1200.45" y1="110.4" x2="965.54" y2="438.63" gradientTransform="translate(34.51 -76.55) rotate(4.09)" gradientUnits="userSpaceOnUse"><stop offset="0" stop-color="#a4a7e3"/><stop offset="1" stop-color="#849bc7"/></linearGradient><linearGradient id="Áåçûìÿííûé_ãðàäèåíò_412-16" x1="983.97" y1="471.61" x2="1015.9" y2="364.99" gradientTransform="matrix(1, 0, 0, 1, 0, 0)" xlink:href="#Áåçûìÿííûé_ãðàäèåíò_412"/><linearGradient id="Áåçûìÿííûé_ãðàäèåíò_412-17" x1="1448.94" y1="453.31" x2="1434.5" y2="247.57" gradientTransform="matrix(1, 0, 0, 1, 0, 0)" xlink:href="#Áåçûìÿííûé_ãðàäèåíò_412"/><linearGradient id="Áåçûìÿííûé_ãðàäèåíò_412-18" x1="1215.42" y1="469.93" x2="1252.11" y2="167.84" gradientTransform="matrix(1, 0, 0, 1, 0, 0)" xlink:href="#Áåçûìÿííûé_ãðàäèåíò_412"/><linearGradient id="Áåçûìÿííûé_ãðàäèåíò_412-19" x1="1261.5" y1="463.2" x2="1247.17" y2="258.99" gradientTransform="matrix(1, 0, 0, 1, 0, 0)" xlink:href="#Áåçûìÿííûé_ãðàäèåíò_412"/><linearGradient id="Áåçûìÿííûé_ãðàäèåíò_412-20" x1="1085.03" y1="472.9" x2="1070.76" y2="269.55" gradientTransform="matrix(1, 0, 0, 1, 0, 0)" xlink:href="#Áåçûìÿííûé_ãðàäèåíò_412"/><linearGradient id="Áåçûìÿííûé_ãðàäèåíò_412-21" x1="1065.48" y1="471.74" x2="1051.4" y2="271.08" gradientTransform="matrix(1, 0, 0, 1, 0, 0)" xlink:href="#Áåçûìÿííûé_ãðàäèåíò_412"/><linearGradient id="Áåçûìÿííûé_ãðàäèåíò_412-22" x1="1528.24" y1="447.01" x2="1513.89" y2="242.58" gradientTransform="matrix(1, 0, 0, 1, 0, 0)" xlink:href="#Áåçûìÿííûé_ãðàäèåíò_412"/><linearGradient id="Áåçûìÿííûé_ãðàäèåíò_412-23" x1="1420.05" y1="453.02" x2="1405.74" y2="249.14" gradientTransform="matrix(1, 0, 0, 1, 0, 0)" xlink:href="#Áåçûìÿííûé_ãðàäèåíò_412"/><linearGradient id="Áåçûìÿííûé_ãðàäèåíò_412-24" x1="1002.32" y1="479.25" x2="987.97" y2="274.76" gradientTransform="matrix(1, 0, 0, 1, 0, 0)" xlink:href="#Áåçûìÿííûé_ãðàäèåíò_412"/><linearGradient id="Áåçûìÿííûé_ãðàäèåíò_412-25" x1="919.57" y1="483.61" x2="905.25" y2="279.56" gradientTransform="matrix(1, 0, 0, 1, 0, 0)" xlink:href="#Áåçûìÿííûé_ãðàäèåíò_412"/><linearGradient id="Áåçûìÿííûé_ãðàäèåíò_412-26" x1="816.59" y1="487.57" x2="802.5" y2="286.78" gradientTransform="matrix(1, 0, 0, 1, 0, 0)" xlink:href="#Áåçûìÿííûé_ãðàäèåíò_412"/><linearGradient id="Áåçûìÿííûé_ãðàäèåíò_412-27" x1="988.5" y1="482.33" x2="973.91" y2="274.37" gradientTransform="matrix(1, 0, 0, 1, 0, 0)" xlink:href="#Áåçûìÿííûé_ãðàäèåíò_412"/><linearGradient id="Áåçûìÿííûé_ãðàäèåíò_167-2" x1="1285.12" y1="150.51" x2="1152.8" y2="523.76" gradientTransform="matrix(1, 0, 0, 1, 0, 0)" xlink:href="#Áåçûìÿííûé_ãðàäèåíò_167"/><linearGradient id="Áåçûìÿííûé_ãðàäèåíò_412-28" x1="1602.16" y1="673.45" x2="1610.31" y2="523.35" gradientTransform="translate(20.65 19.62) rotate(-9.99)" xlink:href="#Áåçûìÿííûé_ãðàäèåíò_412"/><linearGradient id="Áåçûìÿííûé_ãðàäèåíò_412-29" x1="1474.02" y1="913.84" x2="1490.32" y2="763.76" gradientTransform="translate(21.18 -31.94) rotate(-15.47)" xlink:href="#Áåçûìÿííûé_ãðàäèåíò_412"/><linearGradient id="Áåçûìÿííûé_ãðàäèåíò_412-30" x1="1566.33" y1="923.86" x2="1582.62" y2="773.78" gradientTransform="translate(21.18 -31.94) rotate(-15.47)" xlink:href="#Áåçûìÿííûé_ãðàäèåíò_412"/><linearGradient id="Áåçûìÿííûé_ãðàäèåíò_412-31" x1="1608.84" y1="928.48" x2="1625.14" y2="778.4" gradientTransform="translate(21.18 -31.94) rotate(-15.47)" xlink:href="#Áåçûìÿííûé_ãðàäèåíò_412"/><linearGradient id="Áåçûìÿííûé_ãðàäèåíò_412-32" x1="1669.39" y1="886.73" x2="1686.37" y2="820.85" gradientTransform="translate(21.18 -31.94) rotate(-15.47)" xlink:href="#Áåçûìÿííûé_ãðàäèåíò_412"/><linearGradient id="Áåçûìÿííûé_ãðàäèåíò_412-33" x1="1356.17" y1="901.04" x2="1372.47" y2="750.96" gradientTransform="translate(21.18 -31.94) rotate(-15.47)" xlink:href="#Áåçûìÿííûé_ãðàäèåíò_412"/><linearGradient id="Áåçûìÿííûé_ãðàäèåíò_447-2" x1="-202.46" y1="360.35" x2="-161.61" y2="686.57" gradientTransform="matrix(1, 0, 0, 1, 0, 0)" xlink:href="#Áåçûìÿííûé_ãðàäèåíò_447"/><linearGradient id="Áåçûìÿííûé_ãðàäèåíò_447-3" x1="1122.03" y1="391.45" x2="1162.89" y2="717.68" gradientTransform="matrix(-1, 0, 0, 1, 2279.81, 0)" xlink:href="#Áåçûìÿííûé_ãðàäèåíò_447"/><linearGradient id="Áåçûìÿííûé_ãðàäèåíò_447-4" x1="1131.82" y1="409.24" x2="1163.44" y2="661.79" gradientTransform="matrix(-1, 0, 0, 1, 2279.81, 0)" xlink:href="#Áåçûìÿííûé_ãðàäèåíò_447"/><linearGradient id="Áåçûìÿííûé_ãðàäèåíò_447-5" x1="513.39" y1="379.89" x2="554.25" y2="706.11" gradientTransform="matrix(1, 0, 0, 1, 0, 0)" xlink:href="#Áåçûìÿííûé_ãðàäèåíò_447"/><linearGradient id="Áåçûìÿííûé_ãðàäèåíò_447-6" x1="523.18" y1="397.68" x2="554.8" y2="650.23" gradientTransform="matrix(1, 0, 0, 1, 0, 0)" xlink:href="#Áåçûìÿííûé_ãðàäèåíò_447"/><linearGradient id="Áåçûìÿííûé_ãðàäèåíò_447-7" x1="1830.88" y1="521.28" x2="1872.72" y2="855.3" gradientTransform="matrix(-0.99, -0.16, -0.16, 0.99, 2196.5, 175.25)" xlink:href="#Áåçûìÿííûé_ãðàäèåíò_447"/><linearGradient id="Áåçûìÿííûé_ãðàäèåíò_447-8" x1="1856.14" y1="503.91" x2="1898.67" y2="843.48" gradientTransform="matrix(-0.99, -0.16, -0.16, 0.99, 2196.5, 175.25)" xlink:href="#Áåçûìÿííûé_ãðàäèåíò_447"/><linearGradient id="Áåçûìÿííûé_ãðàäèåíò_447-9" x1="1102.76" y1="363.51" x2="1144.6" y2="697.53" gradientTransform="translate(554.86 175.25) rotate(-9.11)" xlink:href="#Áåçûìÿííûé_ãðàäèåíò_447"/><linearGradient id="Áåçûìÿííûé_ãðàäèåíò_447-10" x1="1128.02" y1="346.14" x2="1170.55" y2="685.71" gradientTransform="translate(554.86 175.25) rotate(-9.11)" xlink:href="#Áåçûìÿííûé_ãðàäèåíò_447"/><linearGradient id="linear-gradient" x1="711.25" y1="661.75" x2="706.02" y2="496.73" gradientUnits="userSpaceOnUse"><stop offset="0" stop-color="#7b8c00"/><stop offset="1" stop-color="#c4c01c"/></linearGradient><linearGradient id="Áåçûìÿííûé_ãðàäèåíò_276" x1="638" y1="-368.03" x2="2041.31" y2="1035.28" gradientUnits="userSpaceOnUse"><stop offset="0" stop-color="#fff"/><stop offset="1" stop-color="#837700"/></linearGradient><linearGradient id="Áåçûìÿííûé_ãðàäèåíò_276-2" x1="1078.95" y1="-211.08" x2="1912.09" y2="622.07" xlink:href="#Áåçûìÿííûé_ãðàäèåíò_276"/><linearGradient id="Áåçûìÿííûé_ãðàäèåíò_276-3" x1="667.45" y1="302.97" x2="1337.16" y2="972.68" xlink:href="#Áåçûìÿííûé_ãðàäèåíò_276"/><linearGradient id="Áåçûìÿííûé_ãðàäèåíò_276-4" x1="821.13" y1="-55.04" x2="1985.76" y2="1109.6" xlink:href="#Áåçûìÿííûé_ãðàäèåíò_276"/><linearGradient id="linear-gradient-2" x1="1008.01" y1="652" x2="1002.82" y2="488.25" gradientUnits="userSpaceOnUse"><stop offset="0" stop-color="#be1010"/><stop offset="0.22" stop-color="#c62917"/><stop offset="0.67" stop-color="#da6827"/><stop offset="1" stop-color="#ea9834"/></linearGradient><linearGradient id="linear-gradient-3" x1="722.68" y1="661.56" x2="745.63" y2="497.67" gradientUnits="userSpaceOnUse"><stop offset="0" stop-color="#be4a10"/><stop offset="0.19" stop-color="#c56316"/><stop offset="0.6" stop-color="#d7a224"/><stop offset="1" stop-color="#eae734"/></linearGradient><linearGradient id="Áåçûìÿííûé_ãðàäèåíò_335" x1="88.71" y1="622.24" x2="88.71" y2="313.62" gradientUnits="userSpaceOnUse"><stop offset="0" stop-color="#837700"/><stop offset="1" stop-color="#fff"/></linearGradient><linearGradient id="Áåçûìÿííûé_ãðàäèåíò_335-2" x1="564.86" y1="735.16" x2="564.86" y2="444.47" xlink:href="#Áåçûìÿííûé_ãðàäèåíò_335"/><linearGradient id="Áåçûìÿííûé_ãðàäèåíò_335-3" x1="244.7" y1="684.05" x2="244.7" y2="335.48" xlink:href="#Áåçûìÿííûé_ãðàäèåíò_335"/><linearGradient id="Áåçûìÿííûé_ãðàäèåíò_313" x1="592.21" y1="645.08" x2="2277.03" y2="645.08" gradientUnits="userSpaceOnUse"><stop offset="0.59" stop-color="#d8743d"/><stop offset="1" stop-color="#ab3d23"/></linearGradient><linearGradient id="linear-gradient-4" x1="-1835.26" y1="1266.99" x2="930.53" y2="958.41" gradientUnits="userSpaceOnUse"><stop offset="0.34" stop-color="#442127"/><stop offset="1" stop-color="#d65836"/></linearGradient><linearGradient id="linear-gradient-5" x1="593.01" y1="1051.06" x2="772.22" y2="360.3" gradientUnits="userSpaceOnUse"><stop offset="0" stop-color="#6f7000"/><stop offset="1" stop-color="#a6b701"/></linearGradient><linearGradient id="linear-gradient-6" x1="193.93" y1="636.19" x2="1641.6" y2="636.19" gradientUnits="userSpaceOnUse"><stop offset="0" stop-color="#e43d0f"/><stop offset="1"/></linearGradient><linearGradient id="Áåçûìÿííûé_ãðàäèåíò_276-5" x1="-603.8" y1="687.49" x2="866.56" y2="687.49" xlink:href="#Áåçûìÿííûé_ãðàäèåíò_276"/><linearGradient id="Áåçûìÿííûé_ãðàäèåíò_305" x1="376.96" y1="882.13" x2="2061.76" y2="882.13" gradientUnits="userSpaceOnUse"><stop offset="0.35" stop-color="#837700"/><stop offset="1" stop-color="#fff"/></linearGradient><linearGradient id="Áåçûìÿííûé_ãðàäèåíò_306" x1="1380.67" y1="1084.43" x2="1618.27" y2="1084.43" gradientUnits="userSpaceOnUse"><stop offset="0" stop-color="#fff"/><stop offset="0.65" stop-color="#837700"/></linearGradient><linearGradient id="Áåçûìÿííûé_ãðàäèåíò_305-2" x1="1575.93" y1="967.11" x2="1994.66" y2="967.11" xlink:href="#Áåçûìÿííûé_ãðàäèåíò_305"/><linearGradient id="Áåçûìÿííûé_ãðàäèåíò_305-3" x1="1613.07" y1="990.09" x2="2026.83" y2="990.09" xlink:href="#Áåçûìÿííûé_ãðàäèåíò_305"/><linearGradient id="Áåçûìÿííûé_ãðàäèåíò_132" x1="1678.01" y1="828.31" x2="1678.01" y2="650.3" gradientUnits="userSpaceOnUse"><stop offset="0" stop-color="#6d5731"/><stop offset="1" stop-color="#b08d4e"/></linearGradient><linearGradient id="Áåçûìÿííûé_ãðàäèåíò_132-2" x1="1297.48" y1="831.98" x2="1297.48" y2="705.9" xlink:href="#Áåçûìÿííûé_ãðàäèåíò_132"/></defs><g style="isolation:isolate"><g id="Ñëîé_1" data-name="Ñëîé 1"><g style="clip-path:url(#clip-path)"><rect x="-507.66" y="-5.58" width="2449.63" height="595.56" transform="translate(1434.32 584.4) rotate(180)" style="fill:url(#Áåçûìÿííûé_ãðàäèåíò_447)"/><path d="M900.8,436.5,572.08,418.14,218.29,398.41,95.82,391.57l-21.55-1.22L-129.63,379l-16.54-.91-.15,8.27-320.22-50.56s80.9-.32,99.73,2.72S-316,357.92-316,357.92s31.89-23.45,60.17-37c10.65-5.12,20.83-8.87,28.56-9.37,17.94-1.21,28.34,20.69,33.49,36.78a134.58,134.58,0,0,1,4.19,16.49s5.92-19.74,14.44-26.55a9.16,9.16,0,0,1,6.18-2.3c8,.6,12.88,15,15.21,24.12,1.11,4.3,1.6,7.44,1.6,7.44s17.36-123.67,94.26-174.61l.08-.06a127.1,127.1,0,0,1,49-19.5c76-13.07,138.38,60.27,173.51,114.94v0a471.33,471.33,0,0,1,31,55.83s24.33-56.79,42.69-65.41a10.08,10.08,0,0,1,4.22-1.12c13.18-.23,16.92,12.94,18,20.6v0a38.59,38.59,0,0,1,.4,5.27s4.64-42.92,26.62-68.1c10.27-11.8,24.39-19.72,43.6-17.49,42.43,4.9,76.81,71.74,96.82,121.93,12.31,30.8,19.18,55.34,19.18,55.34s-.23-11.47,7.18-16.69A13.91,13.91,0,0,1,461.3,376c5.35-.53,9.84,2.31,13.4,6.11a37,37,0,0,1,4.25,5.54c-5.08-20.32.88-42.89,18.3-63.22,4.79-5.67,12.36-9.4,23.58-10.19,50.59-3.64,84.28,45.69,108.62,76.52,6.64,8.4,10.47,13.77,10.47,13.77a54.65,54.65,0,0,1,26.56-37.27,59.23,59.23,0,0,1,8.42-4c33.78-13.06,29.39,24.66,25.24,43.82-1.12,5.29-2.22,9.12-2.54,10.19-.05.18-.09.28-.09.28s43.94-13.67,54.22-16.29S900.8,436.5,900.8,436.5Z" style="fill-rule:evenodd;fill:url(#Áåçûìÿííûé_ãðàäèåíò_412)"/><path d="M167.26,336.18c-25.44,37.34-236.94,9.38-249.77-5.45-9-10.44-23.52-92.78,24.63-137.8,0,0,.05,0,.07-.06a127,127,0,0,1,49-19.51c76-13.05,138.38,60.28,173.52,115v0C172.56,306.46,175.56,324,167.26,336.18Z" style="fill-rule:evenodd;fill:url(#Áåçûìÿííûé_ãðàäèåíò_412-2)"/><path d="M260.63,298.21v.07c-1.65,18.21-8.39,37.23-16.92,31.09-11.87-8.53-14-38.56-5.29-50.63a10.42,10.42,0,0,1,4.25-1.11C255.84,277.38,259.58,290.57,260.63,298.21Z" style="fill-rule:evenodd;fill:url(#Áåçûìÿííûé_ãðàäèåíò_412-3)"/><path d="M428.07,339.87c8.2,18.38,13.52,30,4.19,33.52-23.65,9-115.61-12.35-139-38.75-17.27-19.53-26.32-68-5.64-99.21,10.27-11.81,24.38-19.71,43.59-17.5C373.67,222.84,408.05,289.69,428.07,339.87Z" style="fill-rule:evenodd;fill:url(#Áåçûìÿííûé_ãðàäèåíò_412-4)"/><path d="M231.34,364.41c1.86-2.39,17.45-31.58,36.66-29.35s80,46.23,80,46.23Z" style="fill-rule:evenodd;fill:url(#Áåçûìÿííûé_ãðàäèåíò_412-5)"/><path d="M477.49,396.56s-24.06,6.41-23.08-18.05a14,14,0,0,1,6.87-2.49c5.35-.55,9.85,2.3,13.42,6.09v0C478.07,388.67,477.49,396.56,477.49,396.56Z" style="fill-rule:evenodd;fill:url(#Áåçûìÿííûé_ãðàäèåíò_412-6)"/><path d="M629.45,390.76c-64.12,32.21-124.93-26.4-132.21-66.32,4.81-5.66,12.37-9.4,23.6-10.2C571.41,310.61,605.1,359.93,629.45,390.76Z" style="fill-rule:evenodd;fill:url(#Áåçûìÿííûé_ãðàäèåíò_412-7)"/><path d="M505,412s-24.86-46.44-7.08-47.68,81.53,54.76,81.53,54.76Z" style="fill-rule:evenodd;fill:url(#Áåçûìÿííûé_ãðàäèåíò_412-8)"/><path d="M700.16,407.1a22.45,22.45,0,0,1-9,4.94c-16.17,3.68-35.81-23.59-24.67-44.77a60.56,60.56,0,0,1,8.4-4C708.67,350.21,704.3,387.94,700.16,407.1Z" style="fill-rule:evenodd;fill:url(#Áåçûìÿííûé_ãðàäèåíò_412-9)"/><path d="M74.27,390.37-129.62,379c5.54-4.52,46.94-37,83.31-30.47,35.46,6.39,78.36,25.12,86,28.51a2.11,2.11,0,0,1,.34.16l.83.37v0A256.22,256.22,0,0,0,74.27,390.37Z" style="fill-rule:evenodd;fill:url(#Áåçûìÿííûé_ãðàäèåíò_412-10)"/><path d="M218.29,398.41,95.83,391.56c-18.48-8.33-44.88-21.06-57.14-31,0,0,0,0,0,0,6.06-2.08,102.37-6.06,127.61,5.88C183.91,374.75,206.31,390,218.29,398.41Z" style="fill-rule:evenodd;fill:url(#Áåçûìÿííûé_ãðàäèåíò_412-11)"/><path d="M362.77,375.62c38.19-4,65.14,30.69,65.14,30.69h0L511.53,415,231.36,399l160.5,9C383.67,382.49,362.77,375.62,362.77,375.62Z" style="fill-rule:evenodd;fill:url(#Áåçûìÿííûé_ãðàäèåíò_412-12)"/><path d="M900.8,436.5,572.08,418.14c-1.44-.6-1.23-1.13.9-1.61,30.57-6.72,113.5,5.77,113.5,5.77s2-1.28,11.12-5c-.05.18-.09.28-.09.28s43.94-13.67,54.22-16.29S900.8,436.5,900.8,436.5Z" style="fill-rule:evenodd;fill:url(#Áåçûìÿííûé_ãðàäèåíò_412-13)"/><ellipse cx="88.1" cy="237.78" rx="100.83" ry="169.71" transform="translate(-158.77 179.88) rotate(-56.47)" style="opacity:0.45;mix-blend-mode:screen;fill:url(#Áåçûìÿííûé_ãðàäèåíò_403)"/><path d="M424.68,343.05c-23.35,17.42-66.05-.32-95.37-39.62s-34.16-85.29-10.82-102.71,66.05.32,95.38,39.62S448,325.63,424.68,343.05Z" style="fill-rule:evenodd;opacity:0.45;mix-blend-mode:screen;fill:url(#Áåçûìÿííûé_ãðàäèåíò_403-2)"/><path d="M1512.83,309.6l-188.21,8.66s18.22-55.05,38.75-87.18c8.11-12.72,16.59-21.85,24.45-22.55,30.64-2.76,78.56,46.47,105.3,77.21C1505.1,299.52,1512.83,309.6,1512.83,309.6Z" style="fill-rule:evenodd;fill:url(#Áåçûìÿííûé_ãðàäèåíò_412-14)"/><path d="M1094.71,387.13l-185.63,3s9.75-23.84,28.93-43.77c11.72-12.18,27-22.89,45.67-25.82,36-5.63,99,54.69,109.51,65.09C1094.18,386.59,1094.71,387.13,1094.71,387.13Z" style="fill-rule:evenodd;fill:url(#Áåçûìÿííûé_ãðàäèåíò_412-15)"/><path d="M906.86,389.32c49.66,7.71,187.85-2.19,187.85-2.19L981.8,383.32Z" style="fill-rule:evenodd;fill:url(#Áåçûìÿííûé_ãðàäèåíò_167)"/><path d="M1093.19,385.62C1005.93,385.22,951,371.1,938,346.35c11.72-12.18,27-22.89,45.67-25.82C1019.67,314.9,1082.64,375.22,1093.19,385.62Z" style="fill-rule:evenodd;fill:url(#Áåçûìÿííûé_ãðàäèåíò_412-16)"/><path d="M1499.88,282.1c-.83,0-1.69,0-2.57,0-59-.38-117-24.28-127.18-54.69,8.12-12.72,16.6-21.85,24.45-22.55C1425.23,202.14,1473.15,251.36,1499.88,282.1Z" style="fill-rule:evenodd;fill:url(#Áåçûìÿííûé_ãðàäèåíò_412-17)"/><path d="M1746.84,217.15c-20.7,6.44-191.72,58-472.35,94.78C1148,328.51,999.17,342.08,831.82,347.14q-10.22.3-20.5.57-40.29,1-81.94,1.39c61.75-16.75,77.63-26.52,105.55-31.8,23-4.34,37.53-2.79,46.77,1.08,14.55,6.07,15.88,17.86,15.95,21.37.12-5.05.82-26.34,4.53-33.27.84-1.59,1.86-2.43,3.06-2.11a15.21,15.21,0,0,1,7,3.57,5.6,5.6,0,0,1,1.39,1.86s8.59-37,26.08-62.66v0c9.23-13.55,21-23.93,35.21-24,28.53-.17,51.77,29.32,63.39,47.52h0a156.62,156.62,0,0,1,8,14s-2.24-31.71,11.61-42.78c.33-.26.65-.51,1-.73l0,0c9.74-7,20.07-3.09,25.12-.34a25,25,0,0,1,3.17,2s1.64.81,11.23-30.58c5.87-19.31,15.41-40.14,30.88-57l0,0c16.7-18.29,40.36-32,73.79-34.22,64-4.25,115.34,47,148.22,93a440.68,440.68,0,0,1,28.39,45.51c7.88,14.49,12,24.06,12,24.06s-.88-13.07.87-23.9c1-6.22,2.87-11.71,6.26-13.54,4.8-2.6,11.7,6,17.25,14.85a178.85,178.85,0,0,1,9.22,17s-2.82-36.13,12.73-63.36c6.91-12.11,17.47-22.46,33.52-27.08a47.42,47.42,0,0,1,5.32-1.2c24.6-4.05,50.48,11.69,70.65,29a273,273,0,0,1,33.72,35.18c1.83,2.3,2.81,3.64,2.81,3.64s75-26.92,81.57-28.6C1671.36,223.91,1728.86,218.75,1746.84,217.15Z" style="fill-rule:evenodd;fill:url(#Áåçûìÿííûé_ãðàäèåíò_412-18)"/><path d="M1379.84,259.33c-22.72,54-134.56,51.75-176.22,36.44-31.68-11.65-135.34-70.61-74.2-140.68l0,0c16.7-18.29,40.36-32,73.79-34.22,64-4.25,115.34,47,148.22,93A440.68,440.68,0,0,1,1379.84,259.33Z" style="fill-rule:evenodd;fill:url(#Áåçûìÿííûé_ãðàäèåíò_412-19)"/><path d="M1067.49,290.35c-7.24-5.1-20.13-38.24-8.49-49.26l0,0c9.74-7,20.07-3.09,25.12-.34C1087,259.3,1073.29,294.45,1067.49,290.35Z" style="fill-rule:evenodd;fill:url(#Áåçûìÿííûé_ãðàäèåíò_412-20)"/><path d="M1279.13,311.22l-4.64.71C1148,328.51,999.17,342.08,831.82,347.14l202.34-15.36s-57-22.48-55.58-29.41c55-14,119.46,19.34,119.46,19.34l-29-1.8s10.27,6.18,33.27,6.06a217.52,217.52,0,0,0,39.08-3.5s-10.39-.34-31-11.29S1081.25,290,1081.25,290s-3-37.91,29.75-34,107.48,60,107.48,60Z" style="fill-rule:evenodd;fill:url(#Áåçûìÿííûé_ãðàäèåíò_412-21)"/><path d="M1581.42,250.31c-30.93,17.67-107.35,13.72-116.23,9.8-9.39-4.14-44.89-51.75,11.86-74,24.6-4.05,50.48,11.69,70.65,29A273,273,0,0,1,1581.42,250.31Z" style="fill-rule:evenodd;fill:url(#Áåçûìÿííûé_ãðàäèåíò_412-22)"/><path d="M1418.46,263.51c-5.25,3-15,6.55-23.51-1.31,1-6.22,2.87-11.71,6.26-13.54C1406,246.06,1412.91,254.62,1418.46,263.51Z" style="fill-rule:evenodd;fill:url(#Áåçûìÿííûé_ãðàäèåíò_412-23)"/><path d="M1017.84,296.7c-38,2.28-96.09-10.26-78.09-49.56v0c9.23-13.55,21-23.93,35.21-24,28.53-.17,51.77,29.32,63.39,47.52h0C1038.26,282,1040.73,295.34,1017.84,296.7Z" style="fill-rule:evenodd;fill:url(#Áåçûìÿííûé_ãðàäèåíò_412-24)"/><path d="M912.28,307.94l-1.88,8.9s-8.27,2.55-8.22-10.36c.84-1.59,1.86-2.43,3.06-2.11A15.21,15.21,0,0,1,912.28,307.94Z" style="fill-rule:evenodd;fill:url(#Áåçûìÿííûé_ãðàäèåíò_412-25)"/><path d="M829,343.12c-19.18,2.92-42.17-4.22-43.22-4.55l25.52,9.14q-40.29,1-81.94,1.39c61.75-16.75,77.63-26.52,105.55-31.8,23-4.34,37.53-2.79,46.77,1.08C888.6,335.63,845.7,340.58,829,343.12Z" style="fill-rule:evenodd;fill:url(#Áåçûìÿííûé_ãðàäèåíò_412-26)"/><path d="M962.83,323.53c6.66-6.76,32,7.91,32,7.91s-27.34.49-32.14-2.31S962.83,323.53,962.83,323.53Z" style="fill-rule:evenodd;fill:url(#Áåçûìÿííûé_ãðàäèåíò_412-27)"/><path d="M729.38,349.1c122.27,20.21,456.62,3.57,456.62,3.57l-10.49,9.64,337.32-52.7-79.64-1.21,313.65-91.25s-205.53,54.24-531.35,101.34C1008.37,348.44,729.38,349.1,729.38,349.1Z" style="fill-rule:evenodd;fill:url(#Áåçûìÿííûé_ãðàäèåíò_167-2)"/><path d="M1919.64,304.81q-35,8.74-67.16,16h0c-180.37,40.58-295.5,47.48-358.26,46.61q5.61-1.11,10.84-2.32c40.55-9.33,64.13-22.14,77.47-21.22,11.53.8,12.3,5.37,10.51,9.47a23.67,23.67,0,0,1-5.06,6.76s14.29-5.53,32.8-12.16c29.88-10.68,70.77-24.16,80.36-21.65a41,41,0,0,1,16,8.4,38.78,38.78,0,0,1,7.21,7.86s-9.2-46.93,7.6-58.36h0a14.22,14.22,0,0,1,6.47-2.37c19.67-2.3,40.82,27.45,49.37,41,2.5,3.95,3.92,6.52,3.92,6.52a42.58,42.58,0,0,1-1.28-11.11v0c.22-3.89,1.52-7.25,5.45-7,8,.53,14.38,11,15.73,13.39l.27.49s1.91-.67,4.93-1.69c9.93-3.35,31.74-10.46,36.46-9.85C1858.23,314.17,1902.21,307.51,1919.64,304.81Z" style="fill-rule:evenodd;fill:url(#Áåçûìÿííûé_ãðàäèåíò_412-28)"/><path d="M1716.77,342.56c-6.38,4.35-87.72,19.82-98.45,13.34-2.11-1.27-.89-4.16,2.45-8,29.88-10.68,70.77-24.16,80.36-21.65a41,41,0,0,1,16,8.4C1718.48,338.2,1718.74,341.22,1716.77,342.56Z" style="fill-rule:evenodd;fill:url(#Áåçûìÿííûé_ãðàäèåíò_412-29)"/><path d="M1787.83,322.8c-1.3,8.19-35.2,17-48.14,8.81-12.34-7.82-21.33-33.33-7.71-47.45h0a14.22,14.22,0,0,1,6.47-2.37C1758.13,279.49,1779.28,309.24,1787.83,322.8Z" style="fill-rule:evenodd;fill:url(#Áåçûìÿííûé_ãðàäèåíò_412-30)"/><path d="M1811.65,324.59c-3.33,2.48-7.72,4.81-11.88,4.14-5.18-.81-8.33-5.42-9.3-10.52v0c.22-3.89,1.52-7.25,5.45-7C1803.93,311.73,1810.3,322.21,1811.65,324.59Z" style="fill-rule:evenodd;fill:url(#Áåçûìÿííûé_ãðàäèåíò_412-31)"/><path d="M1919.64,304.81q-35,8.74-67.16,16h0c-21.37,3.84-41.31,7.23-41,6.35.23-.71,2.58-2.18,5.41-3.73,9.93-3.35,31.74-10.46,36.46-9.85C1858.23,314.17,1902.21,307.51,1919.64,304.81Z" style="fill-rule:evenodd;fill:url(#Áåçûìÿííûé_ãðàäèåíò_412-32)"/><path d="M1593,353.31c-20.2,11.88-61.57,14.08-88,11.75,40.55-9.33,64.13-22.14,77.47-21.22C1594.05,344.64,1594.82,349.21,1593,353.31Z" style="fill-rule:evenodd;fill:url(#Áåçûìÿííûé_ãðàäèåíò_412-33)"/><path d="M-394.13,489.32l28.27-48.49-1.38,44.62,34.05-52-16.27,39.17,37.63-67.12L-314.69,433l9.4-17.56-.25,11.58,4.16-8.79s-1.13,17.47,0,14.8,25.74-45.19,25.74-45.19l1.5,76.25,7.92-11.25.87,12.82,22.81-39.77-9.94,37.21,44.29-81.23-12.43,47.4,13.32-23.84.07,31s17.44-75.53,16.15-72.38,20.62,75.73,20.62,75.73,3.06-34.24,2.36-30,14.33,52.62,14.33,52.62l18.64-70.57s17.62,68,19.93,63.51,16.49-59.29,16.49-59.29l11.11,63.12,4.52,36.42,76.69-3.08,22.58-41L22.59,498Z" style="fill-rule:evenodd;fill:url(#Áåçûìÿííûé_ãðàäèåíò_447-2)"/><path d="M1349.45,520.42l-28.27-48.48,1.38,44.62-34-52,16.27,39.17-37.63-67.12,2.86,27.52-9.4-17.56.25,11.59-4.16-8.79s1.13,17.46,0,14.79S1231,419,1231,419l-1.5,76.25L1221.57,484l-.87,12.83L1197.89,457l9.94,37.22L1163.54,413,1176,460.39l-13.32-23.84-.08,31s-17.43-75.54-16.14-72.38-20.62,75.73-20.62,75.73-3.07-34.25-2.36-30-14.33,52.62-14.33,52.62L1090.48,423s-17.62,68-19.93,63.51-16.49-59.28-16.49-59.28L1043,490.36l-4.52,36.42-76.69-3.08-22.58-41-6.43,46.33Z" style="fill-rule:evenodd;fill:url(#Áåçûìÿííûé_ãðàäèåíò_447-3)"/><path d="M1067.12,478.72c-.13-14.28,18.24-82,18.24-82l21.24,64.82,2-28.65,22.36,51,1.92-19.89,11.83,35.93.94-106.63L1175.05,475l-5.73-29.66,41.75,87.42-154.6-19.87Z" style="fill-rule:evenodd;fill:url(#Áåçûìÿííûé_ãðàäèåíò_447-4)"/><path d="M321.73,508.86,350,460.38,348.61,505l34.05-52L366.4,492.15,404,425l-2.86,27.52,9.4-17.56-.25,11.59,4.17-8.79s-1.13,17.46,0,14.79,25.74-45.19,25.74-45.19l1.5,76.25,7.92-11.25.87,12.83,22.81-39.78-9.94,37.21,44.29-81.23-12.43,47.4L508.53,425l.07,31s17.43-75.54,16.14-72.38,20.62,75.73,20.62,75.73,3.07-34.25,2.36-30S562.06,482,562.06,482l18.63-70.57s17.63,68,19.94,63.51,16.49-59.29,16.49-59.29l11.11,63.12,4.51,36.42,76.7-3.08,22.57-41,6.43,46.34Z" style="fill-rule:evenodd;fill:url(#Áåçûìÿííûé_ãðàäèåíò_447-5)"/><path d="M604.05,467.16c.13-14.28-18.24-82-18.24-82L564.57,450l-2-28.65-22.35,51-1.93-19.88-11.83,35.93-.93-106.63-29.42,81.75,5.72-29.66L460.1,521.22l154.6-19.87Z" style="fill-rule:evenodd;fill:url(#Áåçûìÿííûé_ãðàäèåíò_447-6)"/><path d="M455.48,542.2l-15.57-50.66-10,44.19L409.53,481l6.1,40.29-20.08-70-4.18,27.45-4.81-18.27L383.86,472,382,462.88s-3.32,17.35-3.73,14.61-13.92-47.16-13.92-47.16l-20.87,75.14-5-11.88-4.13,12.58L322,464.65l.35,37.72-23.07-84.58.22,48L292.37,441l-8,30.65S279.55,394.74,280,398s-32.77,73.31-32.77,73.31,5.69-34.11,5.3-29.82S225,492,225,492l-.45-71.51s-34.69,65.38-35.84,60.74-3.17-24.43-3.17-24.43L160.5,482.31l-4.6-9L125.81,510l.55-35.36-43.11,36Z" style="fill-rule:evenodd;fill:url(#Áåçûìÿííûé_ãðàäèåíò_447-7)"/><path d="M187.32,473.2c3.51-14.11,42-63.41,42-63.41l1.34,50.32,9.24-28.1,9.1,52.55,7-19.44,2.54,36.63L301,362.16l20.69,120.78-7.93-.64,1.91,58.47-147.6-34.86Z" style="fill-rule:evenodd;fill:url(#Áåçûìÿííûé_ãðàäèåíò_447-8)"/><path d="M1552,501.68,1567.53,451l10,44.2,20.39-54.72-6.1,40.28,20.08-70,4.18,27.45,4.81-18.26,2.7,11.46,1.88-9.09s3.32,17.36,3.73,14.61,13.91-47.16,13.91-47.16L1664,465l5-11.89,4.13,12.58,12.4-41.52-.35,37.72,23.07-84.57-.22,48,7.1-24.85,8,30.64s4.86-76.87,4.39-73.63,32.77,73.31,32.77,73.31-5.69-34.11-5.3-29.82,27.54,50.55,27.54,50.55l.45-71.52s34.69,65.39,35.84,60.74,3.17-24.42,3.17-24.42l25,25.48,4.6-9,30.09,36.73-.55-35.36,43.11,36Z" style="fill-rule:evenodd;fill:url(#Áåçûìÿííûé_ãðàäèåíò_447-9)"/><path d="M1820.12,432.68c-3.51-14.11-42-63.41-42-63.41l-1.34,50.32-9.24-28.09-9.1,52.54-7-19.44-2.54,36.64L1706.4,321.65l-20.69,120.77,7.93-.64-1.91,58.47,147.6-34.86Z" style="fill-rule:evenodd;fill:url(#Áåçûìÿííûé_ãðàäèåíò_447-10)"/><path d="M-515.21,457.11S792.24,503.05,969.26,515.3s964.17-73.38,964.17-73.38l-1.37,658.93H-500.65Z" style="fill:#f4ff90"/><path d="M-518.65,466S788.81,511.89,965.83,524.14s968.26-73.38,968.26-73.38l-5.47,658.93H-504.09Z" style="fill:url(#linear-gradient)"/><path d="M1209.53,516.69c-33.81,2.24-65.92,4.13-95.51,5.57,168.43,9.2,604,30.8,819.3,21l.25-30C1798.09,516.49,1385.63,525.17,1209.53,516.69Z" style="opacity:0.14;mix-blend-mode:multiply;fill:url(#Áåçûìÿííûé_ãðàäèåíò_276)"/><path d="M1933.67,501.55l.08-10.36c-63-2.58-167.26-7.52-251.7-14.73-20.06,2-40.83,4-62.13,6C1719.49,489.81,1846.72,498.45,1933.67,501.55Z" style="opacity:0.14;mix-blend-mode:multiply;fill:url(#Áåçûìÿííûé_ãðàäèåíò_276-2)"/><path d="M1152.09,601.38c261.27,42.55,73.59,0,73.59,0L754.26,544.81q-76,4.31-144.36,7.63C700.66,555.81,944.16,567.51,1152.09,601.38Z" style="opacity:0.14;mix-blend-mode:multiply;fill:url(#Áåçûìÿííûé_ãðàäèåíò_276-3)"/><g style="opacity:0.33;mix-blend-mode:multiply"><polygon points="581.17 618.3 1977.54 537.89 1975.2 588.05 593.49 634.84 581.17 618.3" style="fill:#837700"/></g><path d="M998.77,529.57q-44.55,3-87.09,5.74c238.13,14.66,820,48.31,1021.37,40.2l.15-18.27C1783.76,559.62,1180.58,566.71,998.77,529.57Z" style="opacity:0.14;mix-blend-mode:multiply;fill:url(#Áåçûìÿííûé_ãðàäèåíò_276-4)"/><path d="M1085.35,523.54c-535.58,38.3-870.71,44.53-1012.44,45.1L168,630.17l183.75-28.79s18.11-11,288.3-37.08c228.72-22,1047.73-66.57,1293.74-79.72l.28-33.82S1366.67,512.17,1085.35,523.54Z" style="opacity:0.21;mix-blend-mode:screen;fill:url(#linear-gradient-2)"/><path d="M37.42,633.52-5.38,568.3S352.24,576,1085.35,523.54c-50.87,2.06-92.41,2.48-119.52.6C788.81,511.89-518.65,466-518.65,466l14.56,643.74H1928.62l3.16-380.52Z" style="opacity:0.5;mix-blend-mode:screen;fill:url(#linear-gradient-3)"/><path d="M279.11,565.21-8.34,484.33l-93.36-3.42c86.33,17.86,217.67,47.15,352.16,85Q264.4,565.61,279.11,565.21Z" style="opacity:0.14;mix-blend-mode:multiply;fill:url(#Áåçûìÿííûé_ãðàäèåíò_335)"/><path d="M679.42,548.91q26-1.38,53-2.87c-42.79-13.1-94.41-26.7-154.6-39.44-57.37-2.29-118.15-4.67-180.51-7.06C493.78,512.35,595.9,528.93,679.42,548.91Z" style="opacity:0.14;mix-blend-mode:multiply;fill:url(#Áåçûìÿííûé_ãðàäèåíò_335-2)"/><path d="M48.27,486.41c104.11,19.41,248.8,47.31,370.86,74.29l22-.84C346.37,535,244.35,508.74,171.22,491,129.81,489.43,88.66,487.9,48.27,486.41Z" style="opacity:0.14;mix-blend-mode:multiply;fill:url(#Áåçûìÿííûé_ãðàäèåíò_335-3)"/><polygon points="592.21 629.36 1953.01 551.26 1953.01 728.13 592.21 629.36" style="fill:#9c5433"/><polygon points="592.21 634.75 1953.01 556.65 1953.01 733.52 592.21 634.75" style="fill:url(#Áåçûìÿííûé_ãðàäèåíò_313)"/><g style="opacity:0.22;mix-blend-mode:multiply"><path d="M1724.48,613.59c-.57-6.84,106.16-11.71,127.53-3.51S1725.17,621.89,1724.48,613.59Z" style="fill:#ba4122"/></g><g style="opacity:0.22;mix-blend-mode:multiply"><path d="M1860.28,607.45c-7.61-6,63.42-5.42,79.28,0S1866.48,612.32,1860.28,607.45Z" style="fill:#ba4122"/></g><g style="opacity:0.22;mix-blend-mode:multiply"><path d="M1861.26,614.33c-5-2,33.09-.74,35.16,0S1867.47,616.84,1861.26,614.33Z" style="fill:#ba4122"/></g><g style="opacity:0.22;mix-blend-mode:multiply"><path d="M1457.82,601c5.27-1.23,142.23-3.18,155.33.84S1436.22,606,1457.82,601Z" style="fill:#ba4122"/></g><g style="opacity:0.22;mix-blend-mode:multiply"><path d="M1607,593.25c-4.78-1,66.71-7.37,77-4.44S1629,597.7,1607,593.25Z" style="fill:#ba4122"/></g><g style="opacity:0.44;mix-blend-mode:multiply"><polygon points="1953.01 628.62 770.49 624.18 868.85 645.08 1932.33 645.08 1953.01 628.62" style="fill:#ba4122"/></g><polygon points="-533.41 1025.24 57.38 990.78 173.19 898.9 506.14 891.6 1114.17 823.1 944.59 1100.85 -520.48 1100.85 -533.41 1025.24" style="fill:url(#linear-gradient-4)"/><path d="M765.35,956.33c86,90.6,353-97.06,353-97.06L236.41,893.84S687.22,874,765.35,956.33Z" style="fill:#d8743d"/><g style="opacity:0.44;mix-blend-mode:multiply"><polygon points="1052.74 908.3 -217.68 1135.49 485.47 1088.02 1052.74 908.3" style="fill:#ba4122"/></g><g style="opacity:0.6000000000000001;mix-blend-mode:multiply"><polygon points="166.22 925.25 267.01 896.84 173.19 898.9 57.38 990.78 -533.41 1025.24 -520.48 1100.85 35.61 1100.85 112.69 1063.04 166.22 925.25" style="fill:#ba4122"/></g><g style="opacity:0.22;mix-blend-mode:multiply"><path d="M622.58,932.72c-.57-19.32,106.16-33.12,127.53-9.93S623.27,956.2,622.58,932.72Z" style="fill:#ba4122"/></g><g style="opacity:0.22;mix-blend-mode:multiply"><path d="M758.38,915.36c-7.61-16.9,63.42-15.31,79.28,0S764.58,929.14,758.38,915.36Z" style="fill:#ba4122"/></g><g style="opacity:0.22;mix-blend-mode:multiply"><path d="M338.64,977.92c3.47-15.55,70.31-11.33,82,0S334.5,996.45,338.64,977.92Z" style="fill:#ba4122"/></g><g style="opacity:0.22;mix-blend-mode:multiply"><path d="M404.81,924.37c-5-5.74,33.09-2.1,35.16,0S411,931.46,404.81,924.37Z" style="fill:#ba4122"/></g><g style="opacity:0.22;mix-blend-mode:multiply"><path d="M415.75,967.48c-5-5.73,33.09-2.09,35.15,0S422,974.57,415.75,967.48Z" style="fill:#ba4122"/></g><g style="opacity:0.22;mix-blend-mode:multiply"><path d="M759.36,934.82c-5-5.74,33.09-2.1,35.16,0S765.57,941.91,759.36,934.82Z" style="fill:#ba4122"/></g><polygon points="-520.48 1048.21 -280.41 1033.49 -267.31 1023.05 57.38 990.78 173.19 898.9 1639.18 866.74 1961.94 636.69 272.46 616.37 211.6 572.17 -116.34 538.27 -157.71 501.07 -520.48 480.85 -520.48 1048.21" style="fill:url(#linear-gradient-5)"/><path d="M272.46,616.37l-18,13.8s464.53.12,619.82,3c191,3.56,765.22,22.82,765.22,22.82l62.64-17.22Z" style="opacity:0.53;mix-blend-mode:color-dodge;fill:url(#linear-gradient-6)"/><g style="opacity:0.33;mix-blend-mode:multiply"><polygon points="49.14 787.58 272.46 616.37 211.6 572.17 -39.82 725.1 -63.95 740.92 -538.92 645.08 -520.48 1048.21 -280.41 1033.49 -267.31 1023.05 57.38 990.78 173.19 898.9 748.4 886.28 49.14 787.58" style="fill:#837700"/></g><path d="M1649.8,683.75S858.65,706,235,645.08L157.63,605S-54,608.67-173.32,557.86l-75.92-33.38s-136,6.77-283.16-23.41-21.23,37.2-21.23,37.2,98.81-16.49,233.93,5.54L-198.38,569S26,608.54,104.74,636.19l81.07,46.61s1255.12,24.46,1530.86,81.62l-1535.44-56,1629.19,92.75-13.78,45.49S783.09,860.37,131.3,724.59l-83.67-48.5-323-82.07-73.89-29.56-199.32-12.41,16.17,16.25,146.75,11.32-16.78,9.19-136.49-9.19v9.19l179.23,12.57h72.3l99.29,31.81S-53.61,659.1,19.46,689L110,740.92S1062.47,920.37,1755.27,874,1649.8,683.75,1649.8,683.75Z" style="opacity:0.14;mix-blend-mode:multiply;fill:url(#Áåçûìÿííûé_ãðàäèåíò_276-5)"/><g style="opacity:0.65;mix-blend-mode:multiply"><polygon points="-538.92 645.08 -63.95 740.92 147.68 856.79 748.4 886.28 173.19 898.9 57.38 990.78 -267.31 1023.05 -280.41 1033.49 -520.48 1048.21 -538.92 645.08" style="fill:#835300"/></g><path d="M294.23,1082.32s304.24-52.64,703.15-158.81c0,0,86.4-85.75,114-121.48,0,0-9.19-3.07-46.88,5.1,0,0,29.41-15.31,55.15-14.29,0,0-13.79-10.21-39.52-12.25,0,0,34.92-5.11,52.39,8.16,0,0,2.75-20.41,15.62-31.64,0,0-4.59,14.29-4.59,23.48l799.71-133.74v435.47Z" style="fill:#5e5102"/><path d="M377,1082.32s347.51-24.5,664.58-138.87l116.2-117.05s614.49-109.16,816.47-163.5-8.76,16.48-8.76,16.48-633,132.3-768.15,167.8L1076.93,959.4s-349.78,90.65-482.82,131.77l73.57-8.85s253-75.38,446.22-106.19l99.25-120.62L1864.6,712.16,1230.43,864.59,1126.37,981.76S858.13,1025.09,696.82,1094,377,1082.32,377,1082.32Z" style="opacity:0.14;mix-blend-mode:multiply;fill:url(#Áåçûìÿííûé_ãðàäèåíò_305)"/><path d="M1139.05,773.57l2.65,11.61,55.6-8.58,266.78-34.81,88.61-29.63-409.16,68.43c0-9.19,4.59-23.48,4.59-23.48-12.87,11.23-15.62,31.64-15.62,31.64-17.47-13.27-52.39-8.16-52.39-8.16,25.73,2,39.52,12.25,39.52,12.25-25.74-1-55.15,14.29-55.15,14.29,37.69-8.17,46.88-5.1,46.88-5.1l19.29,10.13-20.9-16.39,22.53.39Z" style="fill:#e4c30f"/><g style="opacity:0.76"><path d="M303.43,1080.69l-2.3,1.63,714.68-150.48-18.43-8.33C638.86,1018.93,356.87,1071.11,303.43,1080.69Z" style="fill:#e4c30f"/></g><polygon points="1235.9 1031.22 1264.86 882.68 1942.73 722.4 1943.24 1082.33 713.37 1082.33 1235.9 1031.22" style="fill:#857e2d;opacity:0.31;mix-blend-mode:multiply"/><polygon points="1235.9 1031.22 713.37 1082.33 1943.24 1082.33 1942.73 722.4 1428.46 782.63 1397.67 764.18 1263.48 764.18 1197.3 776.6 1290.32 876.65 1264.86 882.68 1235.9 1031.22" style="fill:#857e2d;opacity:0.63;mix-blend-mode:multiply"/><path d="M1264.85,882.68,1111.36,802s-36.63,41.81-49,55c-16.12,17.18-65,66.48-65,66.48l238.52,107.71Z" style="fill:#857e2d;opacity:0.29;mix-blend-mode:multiply"/><path d="M1197.3,1091.17,1479,986.58l-179.66-43.13,190.23,31.11-160.78-42.88,169,35.22,31.71-72,424-117.67,11.92,5.37S1612.29,872,1572.31,894.93s393.14-49,393.14-49L2019,902.36l-642.53,205.42Z" style="fill:#857e2d;opacity:0.63;mix-blend-mode:multiply"/><polygon points="1323.31 1091.16 1497.86 988.63 1530.95 931.68 1965.45 881.99 1953.53 1091.16 1323.31 1091.16" style="fill:#574801"/><polygon points="1530.95 931.68 1884.36 1012.84 1983.63 988.63 1981.55 1116.97 1323.31 1091.16 1497.86 988.63 1530.95 931.68" style="fill:#857e2d;opacity:0.29;mix-blend-mode:multiply"/><polygon points="1983.63 988.63 1884.36 1012.84 1665.86 1045 1517.82 1012.84 1653.47 1059.55 1535.74 1099.49 1998.53 1137.64 1983.63 988.63" style="fill:#857e2d;opacity:0.29;mix-blend-mode:multiply"/><polygon points="1618.27 1047.43 1602.45 1041.98 1490.97 1091.96 1439.49 1102.17 1582.91 1035.25 1571.19 1031.22 1380.67 1091.96 1385.26 1137.64 1535.74 1099.49 1618.27 1047.43 1618.27 1047.43" style="opacity:0.14;mix-blend-mode:multiply;fill:url(#Áåçûìÿííûé_ãðàäèåíò_306)"/><polygon points="1653.47 959.82 1994.66 923.51 1983.63 905.85 1633.76 955.29 1575.93 1025.46 1589.34 1028.38 1653.47 959.82" style="opacity:0.14;mix-blend-mode:multiply;fill:url(#Áåçûìÿííûé_ãðàäèåíò_305-2)"/><polygon points="2026.83 951.08 2026.83 943.45 1675.58 964.89 1615.98 1031.22 1613.07 1033.53 1627.77 1036.72 1688.81 967.93 2026.83 951.08" style="opacity:0.14;mix-blend-mode:multiply;fill:url(#Áåçûìÿííûé_ãðàäèåíò_305-3)"/><polygon points="1428.46 782.63 1489.13 804.58 1641.71 782.63 1687.66 798.96 1826.26 749.94 1857.71 752.86 1927.56 734.65 1908.85 652.6 1894.49 645.1 1884.36 626.56 1788.72 641.31 1777.74 660.12 1738.22 639.5 1601.26 657.06 1539.68 642.77 1486.37 706.06 1473.5 705.04 1428.46 782.63" style="fill:url(#Áåçûìÿííûé_ãðàäèåíò_132)"/><polygon points="1489.13 804.58 1536.92 722.4 1479.02 715 1542.44 714.23 1575.53 666.25 1612.29 666.25 1633.43 722.4 1673.88 727.5 1698.69 678.5 1783.26 666.25 1851.27 696.87 1789.69 654 1862.3 666.25 1884.36 626.56 1894.49 645.1 1908.85 652.6 1927.56 734.65 1857.71 752.86 1826.26 749.94 1687.66 798.96 1641.71 782.63 1489.13 804.58" style="fill:#856b3b;opacity:0.36;mix-blend-mode:multiply"/><polygon points="1428.46 782.63 1469.83 724.95 1536.92 722.4 1479.02 715 1488.21 709.13 1567.26 661.65 1607.7 661.65 1612.29 666.25 1673.88 727.5 1698.69 678.5 1642.63 661.65 1732.7 646.85 1783.26 666.25 1825.43 678.88 1789.69 654 1794.74 646.85 1869.62 653.07 1884.36 626.56 1788.72 641.31 1777.74 660.12 1738.22 639.5 1601.26 657.06 1539.68 642.77 1486.37 706.06 1473.5 705.04 1428.46 782.63" style="fill:#b08d4e;opacity:0.39;mix-blend-mode:color-dodge"/><polygon points="1552.68 787.13 1597.95 704.6 1597.95 744.24 1633.43 722.4 1673.88 727.5 1688.81 787.13 1797.04 689.82 1821.86 718.82 1851.27 696.87 1857.71 752.86 1826.26 749.94 1793.77 704.6 1687.66 798.96 1641.71 782.63 1596.52 776.6 1552.68 787.13" style="fill:#856b3b;opacity:0.15;mix-blend-mode:multiply"/><polygon points="1197.3 776.6 1249.69 815.9 1302.08 796.25 1302.08 776.6 1397.67 764.18 1372.86 726.32 1368.26 689.82 1276.34 689.82 1213.84 721.47 1197.3 776.6" style="fill:url(#Áåçûìÿííûé_ãðàäèåíò_132-2)"/><polygon points="1249.69 815.9 1263.48 764.18 1226.71 726.89 1268.07 752.86 1284.62 721.47 1316.79 721.47 1311.27 744.95 1356.31 726.89 1368.26 689.82 1372.86 726.32 1397.67 764.18 1302.08 776.6 1302.08 796.25 1249.69 815.9" style="fill:#856b3b;opacity:0.36;mix-blend-mode:multiply"/><polygon points="1197.3 776.6 1218.9 730.56 1263.48 764.18 1226.71 726.89 1274.05 699.43 1283.24 715.57 1318.17 712.16 1312.19 694.83 1356.31 726.89 1368.26 689.82 1276.34 689.82 1213.84 721.47 1197.3 776.6" style="fill:#b08d4e;opacity:0.39;mix-blend-mode:color-dodge"/><polygon points="1302.08 776.6 1311.27 744.95 1390.14 760.77 1302.08 776.6" style="fill:#856b3b;opacity:0.15;mix-blend-mode:multiply"/></g></g></g></svg>