<svg xmlns="http://www.w3.org/2000/svg" xmlns:xlink="http://www.w3.org/1999/xlink" viewBox="0 0 1920 1080"><defs><clipPath id="clip-path"><rect x="-1953.45" y="-823.17" width="5058.31" height="2529.15" style="fill:none"/></clipPath><radialGradient id="Áåçûìÿííûé_ãðàäèåíò_69" cx="1647.38" cy="418.79" r="49.68" gradientUnits="userSpaceOnUse"><stop offset="0" stop-color="#ffffc7"/><stop offset="0.97" stop-color="#ecafae"/></radialGradient><radialGradient id="Áåçûìÿííûé_ãðàäèåíò_58" cx="1669.31" cy="310.4" r="15.94" gradientUnits="userSpaceOnUse"><stop offset="0" stop-color="#ffddc7"/><stop offset="0.97" stop-color="#ecafae"/></radialGradient><linearGradient id="Áåçûìÿííûé_ãðàäèåíò_66" x1="1646.03" y1="462.43" x2="1646.03" y2="397.76" gradientUnits="userSpaceOnUse"><stop offset="0.03" stop-color="#ffdbc7"/><stop offset="1" stop-color="#ffe3ca"/></linearGradient><radialGradient id="Áåçûìÿííûé_ãðàäèåíò_69-2" cx="1396.63" cy="422.4" r="53.23" xlink:href="#Áåçûìÿííûé_ãðàäèåíò_69"/><radialGradient id="Áåçûìÿííûé_ãðàäèåíò_58-2" cx="1420.12" cy="306.27" r="17.08" xlink:href="#Áåçûìÿííûé_ãðàäèåíò_58"/><radialGradient id="Áåçûìÿííûé_ãðàäèåíò_42" cx="1507.2" cy="272.34" r="13.47" gradientUnits="userSpaceOnUse"><stop offset="0.02" stop-color="#371b32"/><stop offset="0.99" stop-color="#2a1032"/></radialGradient><linearGradient id="Áåçûìÿííûé_ãðàäèåíò_70" x1="1509.22" y1="482.69" x2="1509.22" y2="271.07" gradientUnits="userSpaceOnUse"><stop offset="0.02" stop-color="#5a4153"/><stop offset="0.95" stop-color="#3e2645"/></linearGradient><linearGradient id="Áåçûìÿííûé_ãðàäèåíò_71" x1="1508.68" y1="273.69" x2="1508.68" y2="256.54" gradientUnits="userSpaceOnUse"><stop offset="0.05" stop-color="#3e2645"/><stop offset="0.98" stop-color="#5a4153"/></linearGradient><radialGradient id="Áåçûìÿííûé_ãðàäèåíò_42-2" cx="1568.52" cy="306" r="13.47" xlink:href="#Áåçûìÿííûé_ãðàäèåíò_42"/><linearGradient id="Áåçûìÿííûé_ãðàäèåíò_83" x1="1553.49" y1="480.62" x2="1553.49" y2="304.73" gradientUnits="userSpaceOnUse"><stop offset="0.02" stop-color="#5a959c"/><stop offset="0.95" stop-color="#3e5e6b"/></linearGradient><linearGradient id="Áåçûìÿííûé_ãðàäèåíò_83-2" x1="-854.85" y1="480.62" x2="-854.85" y2="304.73" gradientTransform="matrix(-1, 0, 0, 1, 732.75, 0)" xlink:href="#Áåçûìÿííûé_ãðàäèåíò_83"/><radialGradient id="Áåçûìÿííûé_ãðàäèåíò_84" cx="1570" cy="298.77" r="13.23" xlink:href="#Áåçûìÿííûé_ãðàäèåíò_83"/><linearGradient id="Áåçûìÿííûé_ãðàäèåíò_76" x1="-345.13" y1="1173.51" x2="159.13" y2="1173.51" gradientUnits="userSpaceOnUse"><stop offset="0.02" stop-color="#c0633b"/><stop offset="0.95" stop-color="#9f3437"/></linearGradient><radialGradient id="Áåçûìÿííûé_ãðàäèåíò_37" cx="-91.83" cy="1027.62" r="178.04" xlink:href="#Áåçûìÿííûé_ãðàäèåíò_70"/><linearGradient id="Áåçûìÿííûé_ãðàäèåíò_2" x1="254.57" y1="749.73" x2="2375.86" y2="749.73" gradientUnits="userSpaceOnUse"><stop offset="0.02" stop-color="#d25922"/><stop offset="0.95" stop-color="#d44836"/></linearGradient><linearGradient id="Áåçûìÿííûé_ãðàäèåíò_2-2" x1="271.54" y1="1013.5" x2="2335.77" y2="1013.5" xlink:href="#Áåçûìÿííûé_ãðàäèåíò_2"/><radialGradient id="Áåçûìÿííûé_ãðàäèåíò_99" cx="293.23" cy="482.19" r="719.58" gradientTransform="translate(-570.95) scale(2.3 1)" gradientUnits="userSpaceOnUse"><stop offset="0.02" stop-color="#fc7040"/><stop offset="0.95"/></radialGradient><linearGradient id="Áåçûìÿííûé_ãðàäèåíò_32" x1="1865.28" y1="1094.61" x2="1865.28" y2="984.77" gradientUnits="userSpaceOnUse"><stop offset="0.03" stop-color="#ffc4a4"/><stop offset="1" stop-color="#ffd8bb"/></linearGradient><linearGradient id="Áåçûìÿííûé_ãðàäèåíò_76-2" x1="1376.23" y1="662.22" x2="1480.89" y2="662.22" xlink:href="#Áåçûìÿííûé_ãðàäèåíò_76"/><radialGradient id="Áåçûìÿííûé_ãðàäèåíò_37-2" cx="1341.29" cy="692.01" r="19.39" gradientTransform="translate(-1037.17 -557.16) scale(1.84 1.77)" xlink:href="#Áåçûìÿííûé_ãðàäèåíò_70"/><radialGradient id="Áåçûìÿííûé_ãðàäèåíò_39" cx="-203.99" cy="-4545.92" r="21.14" gradientTransform="matrix(-1.84, 0, 0, 4.42, 889.67, 20711.04)" gradientUnits="userSpaceOnUse"><stop offset="0.01" stop-color="#a8adc5"/><stop offset="1" stop-color="#7e798c"/></radialGradient><radialGradient id="Áåçûìÿííûé_ãðàäèåíò_101" cx="-217.11" cy="620.04" r="17.35" gradientTransform="matrix(-1.84, 0, 0, 1.77, 889.67, -557.16)" gradientUnits="userSpaceOnUse"><stop offset="0" stop-color="#b1c0d4"/><stop offset="0.97" stop-color="#9e9ab3"/></radialGradient><linearGradient id="Áåçûìÿííûé_ãðàäèåíò_32-2" x1="636.78" y1="1082.46" x2="636.78" y2="970.42" xlink:href="#Áåçûìÿííûé_ãðàäèåíò_32"/><radialGradient id="Áåçûìÿííûé_ãðàäèåíò_39-2" cx="659.39" cy="1193.36" r="45.45" gradientTransform="translate(0 -79.47) scale(1 0.99)" xlink:href="#Áåçûìÿííûé_ãðàäèåíò_39"/><linearGradient id="Áåçûìÿííûé_ãðàäèåíò_133" x1="809.5" y1="732.32" x2="809.5" y2="677.33" gradientUnits="userSpaceOnUse"><stop offset="0" stop-color="#ffeadb"/><stop offset="0.99" stop-color="#c245ba"/></linearGradient><linearGradient id="Áåçûìÿííûé_ãðàäèåíò_133-2" x1="1055.57" y1="729.07" x2="1055.57" y2="678.69" xlink:href="#Áåçûìÿííûé_ãðàäèåíò_133"/><linearGradient id="Áåçûìÿííûé_ãðàäèåíò_133-3" x1="924.61" y1="428.95" x2="924.61" y2="379.25" xlink:href="#Áåçûìÿííûé_ãðàäèåíò_133"/><linearGradient id="Áåçûìÿííûé_ãðàäèåíò_133-4" x1="932.53" y1="383.76" x2="932.53" y2="335.97" xlink:href="#Áåçûìÿííûé_ãðàäèåíò_133"/><linearGradient id="Áåçûìÿííûé_ãðàäèåíò_290" x1="936.62" y1="437.27" x2="936.62" y2="322.99" gradientUnits="userSpaceOnUse"><stop offset="0.01" stop-color="#792c27"/><stop offset="0.99" stop-color="#70132f"/></linearGradient><linearGradient id="Áåçûìÿííûé_ãðàäèåíò_133-5" x1="985.81" y1="493.72" x2="985.81" y2="382.54" xlink:href="#Áåçûìÿííûé_ãðàäèåíò_133"/><linearGradient id="Áåçûìÿííûé_ãðàäèåíò_290-2" x1="922.27" y1="382.72" x2="961.84" y2="382.72" xlink:href="#Áåçûìÿííûé_ãðàäèåíò_290"/><linearGradient id="Áåçûìÿííûé_ãðàäèåíò_290-3" x1="894" y1="404.77" x2="894" y2="388.87" xlink:href="#Áåçûìÿííûé_ãðàäèåíò_290"/><linearGradient id="Áåçûìÿííûé_ãðàäèåíò_14" x1="947.58" y1="508.41" x2="947.58" y2="404.11" gradientUnits="userSpaceOnUse"><stop offset="0.01" stop-color="#83637c"/><stop offset="1" stop-color="#ffeadb"/></linearGradient><linearGradient id="Áåçûìÿííûé_ãðàäèåíò_4" x1="919.26" y1="446.36" x2="919.26" y2="422.44" gradientUnits="userSpaceOnUse"><stop offset="0.01" stop-color="#c245ba"/><stop offset="1" stop-color="#ffeadb"/></linearGradient><linearGradient id="Áåçûìÿííûé_ãðàäèåíò_290-4" x1="929.09" y1="473.38" x2="929.09" y2="431.41" xlink:href="#Áåçûìÿííûé_ãðàäèåíò_290"/><linearGradient id="Áåçûìÿííûé_ãðàäèåíò_133-6" x1="1014.45" y1="442.46" x2="1014.45" y2="406.68" xlink:href="#Áåçûìÿííûé_ãðàäèåíò_133"/><linearGradient id="Áåçûìÿííûé_ãðàäèåíò_133-7" x1="1008.93" y1="440.48" x2="1008.93" y2="418.94" xlink:href="#Áåçûìÿííûé_ãðàäèåíò_133"/></defs><g style="isolation:isolate"><g id="layer1"><g style="clip-path:url(#clip-path)"><polygon points="3104.51 1497.79 -212.61 1429.5 -232.48 -342.44 3104.51 -601.21 3104.51 1497.79" style="fill:#dd8c83;fill-rule:evenodd"/><path d="M-3218.38-823.17v703.11l441,37.47,6.73,518.67-65.83,9.07-18.25,16.55v38l-27.07,7.11-22-13.8,3.45-80.11h46.35l2.58-22.19-15.09-1.45,15.09-117.07-15.34-6.63V244l-66.29-28.17-22.33,7.47-11.95,4-21.2,7.1V253l11.79-2.93,17.62-4.37,24-6-79.53,19.75,15.47,125.14-13,.52,6.78,27.57,61.47.15,2.83,21.82,1.4.7,12.6,68.35.58.21-.55.09,45.93,15.74h26.44v39.09l13.84,22.89,72.25,9,4.19,323.48-453.9-4.14v52.14l454.54,1.16,5.07,391,72.89-5.3V963.65L-988,968l-2.1,381.18h72.62l6.25-381L-450,969.36-429.35,1351l-2789,150.88v15.48l2894.92-68.9,3428,63.41V-825.78ZM-2685.88,915V-74.81L-983,69.87l-2.77,503.93-61.26,8.44-15.85,14.37v33l-23.5,6.17-19.13-12,3-69.55h40.25L-1060,535l-13.1-1.26L-1060,432.1l-13.32-5.76v-18.7l-57.55-24.45-19.39,6.49-10.37,3.47-18.41,6.16v16.12l10.24-2.54,11.42-2.84,24.7-6.13-20.82,5.17-3.88,1-44.35,11,13.43,108.63-11.26.46,5.88,23.94,53.37.12,2.45,18.95,1.22.61,10.93,59.34.51.17-.47.08,39.87,13.68h22.95V681l12,19.87,64.34,8-1.22,221.61ZM-910.6,931.22l14-854,400.23,34,44.55,824.2Z" style="fill:#690123;fill-rule:evenodd;opacity:0.35000000000000003"/><polygon points="-136.15 90 -111.11 865.21 521.29 845 521.58 51.65 -136.15 90" style="fill:#9f443c;fill-rule:evenodd"/><polygon points="521.58 51.65 546.36 70.81 533.97 844.56 521.29 845 521.58 51.65" style="fill:#691e35;fill-rule:evenodd"/><polygon points="-64.46 174.64 -53.79 788.75 448.93 771.69 448.93 145.81 -64.46 174.64" style="fill:#ff863c;fill-rule:evenodd"/><polygon points="-7.74 788.75 -19.37 207.15 448.93 181.03 448.93 771.69 -7.74 788.75" style="fill:#fff;fill-rule:evenodd"/><polygon points="-19.37 207.15 -64.46 174.64 448.93 145.81 448.93 181.03 -19.37 207.15" style="fill:#831e35;fill-rule:evenodd;opacity:0.56"/><polygon points="156.1 169.09 202.03 169.09 194.28 782.14 169.24 782.14 156.1 169.09" style="fill:#9f443c;fill-rule:evenodd"/><polygon points="202.03 169.09 214.78 194.09 209.97 783.03 194.28 782.14 202.03 169.09" style="fill:#ff863c;fill-rule:evenodd"/><polygon points="-55.19 357.79 -55.19 378.56 448.93 368.18 448.93 355 -55.19 357.79" style="fill:#9f443c;fill-rule:evenodd"/><polygon points="-45.91 643.47 448.93 633.88 448.93 618.31 -45.91 630.89 -45.91 643.47" style="fill:#9f443c;fill-rule:evenodd"/><rect x="425.78" y="97.15" width="118.93" height="3.17" transform="translate(110.82 422.79) rotate(-52.38)" style="fill:#7c1338"/><rect x="483.53" y="756.84" width="3.16" height="103.01" transform="translate(-427.98 573.78) rotate(-44.62)" style="fill:#7c1338"/><polygon points="-220.36 865.23 3104.51 801.5 3104.51 910.94 -219.52 939.71 -220.36 865.23" style="fill:#9f3c3c;fill-rule:evenodd"/><polygon points="1347.73 617.82 1988.14 609.57 2010.44 194 1349.48 224.65 1347.73 617.82" style="fill:#772247;fill-rule:evenodd"/><polygon points="1349.48 563.04 1884.29 587.57 1878.25 519.36 1349.48 524.74 1349.48 563.04" style="fill:#691e35;fill-rule:evenodd;opacity:0.5700000000000001"/><path d="M1349.48,345.83s246.52-73.28,466.25,0l.85-110.55-463.72-14.59Z" style="fill:#691e35;fill-rule:evenodd;opacity:0.5700000000000001"/><polygon points="2089.2 227.24 1383.27 241.85 1090.78 241.85 1904.7 206.37 2089.2 227.24" style="fill:#691e35;fill-rule:evenodd"/><path d="M1856.28,518.55l-50.31.55,7.76,40.14S1882.4,568,1902,609.57h18.87l-9.16-91.85Z" style="fill:#a43938;fill-rule:evenodd"/><path d="M1860.66,518.49l-3,38.47s50.71,15.17,63.19,52.61h67.32l11.64-93.06Z" style="fill:#691e35;fill-rule:evenodd"/><path d="M1813.73,559.24l43.9-2.28s47.93,13.78,63.19,52.61H1902S1891.41,573.64,1813.73,559.24Z" style="fill:#691e35;fill-rule:evenodd;opacity:0.76"/><path d="M1219.63,526.78l-34.75.55,6.41,40.14s56.71,8.73,72.86,50.33h15.58L1272.17,526Z" style="fill:#a43938;fill-rule:evenodd"/><path d="M1223.25,526.73l4.29,38.46s41.88,15.17,52.19,52.61h69.75V524.74Z" style="fill:#691e35;fill-rule:evenodd"/><path d="M1191.29,567.47l36.25-2.28s39.59,13.78,52.19,52.61h-15.58S1255.68,574.47,1191.29,567.47Z" style="fill:#691e35;fill-rule:evenodd;opacity:0.76"/><polygon points="1807.41 526.55 1860.29 523.15 1860.59 519.37 1805.97 519.1 1807.41 526.55" style="fill:#691e35;fill-rule:evenodd"/><polygon points="1185.38 530.44 1223.89 532.42 1223.25 526.73 1184.88 527.33 1185.38 530.44" style="fill:#691e35;fill-rule:evenodd"/><polygon points="1891.41 470.73 2078.96 476.92 2072.03 523.91 1878.25 519.37 1891.41 470.73" style="fill:#772438;fill-rule:evenodd"/><polygon points="1195 217.37 1349.48 224.65 1348.91 490.99 1211.48 492.34 1195 217.37" style="fill:#691e35;fill-rule:evenodd"/><polygon points="1873.74 476.55 1887.69 484.47 1917.08 475.22 1873.74 476.55" style="fill:#9f3d36;fill-rule:evenodd"/><polygon points="1107 493.44 1891.41 470.73 2078.96 476.92 1889.4 476.67 1107 493.44" style="fill:#fb8b36;fill-rule:evenodd"/><polygon points="1183.13 492.07 1156.7 217.37 1195 217.37 1211.48 492.34 1183.13 492.07" style="fill:#a43938;fill-rule:evenodd"/><polygon points="1813.59 474.85 1817.81 220.3 1863.39 216.81 1853.36 474.85 1813.59 474.85" style="fill:#a43938;fill-rule:evenodd"/><polygon points="1863.39 216.81 2021.94 225.18 1999.46 474.3 1853.36 474.85 1863.39 216.81" style="fill:#691e35;fill-rule:evenodd"/><polygon points="1904.7 206.37 2089.2 227.24 2096.88 188.85 1907.8 170.88 1904.7 206.37" style="fill:#772438;fill-rule:evenodd"/><polygon points="1160.15 249.01 1196.9 249.01 1196.3 237.85 1158.93 237.85 1160.15 249.01" style="fill:#691e35;fill-rule:evenodd"/><polygon points="1086.68 214.41 1090.78 241.85 1904.7 206.37 1907.8 170.88 1086.68 214.41" style="fill:#b14438;fill-rule:evenodd"/><polygon points="1889.39 476.66 1878.25 519.36 1571.21 522.75 1560.82 522.86 1560.79 522.86 1505.56 523.47 1499.68 523.53 1116.65 527.61 1107.01 493.45 1242.03 490.79 1325.42 488.97 1481.33 485.55 1509.12 484.94 1589.25 483.21 1604.67 482.86 1697.1 480.86 1716.99 480.43 1889.39 476.66" style="fill:#b14438;fill-rule:evenodd"/><polygon points="1509.12 484.94 1505.56 523.47 1505.56 523.53 1481.33 523.53 1481.33 485.55 1509.12 484.94" style="fill:#ab3a40;fill-rule:evenodd;opacity:0.47000000000000003"/><polygon points="1604.67 482.86 1571.21 522.75 1570.78 523.27 1560.33 523.53 1560.79 522.86 1560.82 522.86 1589.25 483.21 1604.67 482.86" style="fill:#ab3a40;fill-rule:evenodd;opacity:0.47000000000000003"/><polygon points="1716.99 480.43 1703.53 519.36 1674.41 519.36 1697.1 480.86 1716.99 480.43" style="fill:#ab3a40;fill-rule:evenodd;opacity:0.47000000000000003"/><polygon points="1357.93 524.75 1279.57 524.75 1242.03 490.79 1325.42 488.97 1357.93 524.75" style="fill:#ab3a40;fill-rule:evenodd;opacity:0.47000000000000003"/><polygon points="1409.34 197.75 1424.15 227.24 1447.78 226.67 1436.65 196.27 1409.34 197.75" style="fill:#ab3a40;fill-rule:evenodd;opacity:0.47000000000000003"/><polygon points="1473.87 225.51 1473.87 194.25 1478.54 194 1476.2 225.51 1473.87 225.51" style="fill:#ab3a40;fill-rule:evenodd;opacity:0.47000000000000003"/><polygon points="1708.52 215.09 1735.22 180.08 1805.97 176.24 1783.46 211.75 1708.52 215.09" style="fill:#ab3a40;fill-rule:evenodd;opacity:0.47000000000000003"/><polygon points="1284.63 233.92 1255.35 206.1 1223.35 207.84 1253.99 235.28 1284.63 233.92" style="fill:#ab3a40;fill-rule:evenodd;opacity:0.47000000000000003"/><path d="M1203.84,249l4.3,59.36h26.95s42.16-51.4,260.14-66.52,286.38,50.51,286.38,50.51l35,1.55,1.22-73.61Z" style="fill:#a43938;fill-rule:evenodd"/><path d="M1235.09,308.37h21.22s106.12-67,296-66.52,229.34,50.51,229.34,50.51-53.3-54.51-239.49-53.52C1320.93,240,1235.09,308.37,1235.09,308.37Z" style="fill:#691e35;fill-rule:evenodd"/><polygon points="1781.61 292.36 1816.52 298.42 1816.65 290.06 1781.61 292.36" style="fill:#691e35;fill-rule:evenodd"/><polygon points="1817.81 220.3 1816.65 290.06 1815.34 220.41 1817.81 220.3" style="fill:#691e35;fill-rule:evenodd"/><path d="M1656.64,314.38l-1.87-27.93s17.76-10.52,27.79-2.14l-2.37,30.07Z" style="fill:#a42f38;fill-rule:evenodd"/><polygon points="1616.71 478.33 1610.07 392.27 1655.16 359.26 1672.54 359.26 1684.7 388.65 1684.7 476.54 1616.71 478.33" style="fill-rule:evenodd;fill:url(#Áåçûìÿííûé_ãðàäèåíò_69)"/><polygon points="1672.54 359.26 1682.25 364.45 1720.08 396.6 1711.58 476.39 1680.87 476.56 1684.7 388.65 1672.54 359.26" style="fill:#d36977;fill-rule:evenodd"/><polygon points="1655.16 359.26 1653.14 315.33 1685.64 314.38 1682.25 364.45 1672.54 359.26 1655.16 359.26" style="fill:#d36977;fill-rule:evenodd"/><path d="M1648.32,307.76l2.06,10.87s13.7-5.2,37.56,0l2.36-11.82S1668.81,295.79,1648.32,307.76Z" style="fill-rule:evenodd;fill:url(#Áåçûìÿííûé_ãðàäèåíò_58)"/><path d="M1622.64,469.93c3.45,5,76.75,5.93,83.51,0s8-70.28,5.19-75-33.52-32.85-33.52-32.85L1680,317.2s-13.16-2.25-23.66,0l2.6,42.41s-33.78,23.91-39.45,32.66S1620.69,467.1,1622.64,469.93Z" style="fill:#cb3d5c;fill-rule:evenodd;opacity:0.67;mix-blend-mode:multiply"/><polygon points="1614.49 400.36 1677.56 397.76 1674.34 462.44 1617.26 461.07 1614.49 400.36" style="fill-rule:evenodd;fill:url(#Áåçûìÿííûé_ãðàäèåíò_66)"/><polygon points="1620.87 410.24 1672.54 407.61 1672.54 412.88 1620.87 414.54 1620.87 410.24" style="fill:#cb899a;fill-rule:evenodd;opacity:0.67;mix-blend-mode:multiply"/><polygon points="1629.02 422.09 1631.14 447.78 1658.25 447.78 1659.67 420.68 1629.02 422.09" style="fill:#cb899a;fill-rule:evenodd;opacity:0.67;mix-blend-mode:multiply"/><polygon points="1690.85 454.52 1712.76 454.52 1716.54 404.55 1693.68 402.25 1690.85 454.52" style="fill:#d67790;fill-rule:evenodd"/><path d="M1650.38,318.63l2.95.88v-.44s19.24-3.05,32,.44l2.65-.88S1668.3,311.8,1650.38,318.63Z" style="fill:#a42f38;fill-rule:evenodd"/><path d="M1610.07,392.27s45.3-6.42,74.63-3.62l-12.16-29.39h-17.38Z" style="fill:#ffffe5;fill-rule:evenodd;opacity:0.5;mix-blend-mode:soft-light"/><polygon points="1617.26 389.26 1650.38 364.45 1660.37 364.45 1636.59 386.35 1617.26 389.26" style="fill:#ffffe5;fill-rule:evenodd"/><polygon points="1662.09 364.45 1653.14 374.02 1665.01 374.02 1668.67 364.45 1662.09 364.45" style="fill:#ffffe5;fill-rule:evenodd"/><polygon points="1702.21 468.59 1706.18 424.96 1714.99 424.96 1710.61 468.59 1702.21 468.59" style="fill:#ffffe5;fill-rule:evenodd;mix-blend-mode:soft-light"/><path d="M1720.08,396.6l-37.83-32.15,3-44.94h0l2.65-.88,2.36-11.82a46.82,46.82,0,0,0-9.26-3.19l1.52-19.31c-10-8.38-27.79,2.14-27.79,2.14l1.2,17.85a40,40,0,0,0-7.65,3.46l2.06,10.87s.23-.09.67-.23c-.23.08-.45.14-.67.23l2.95.88h0l1.83,39.75-45.09,33,6.64,86.06,68-1.79,26.88-.15Z" style="fill:#691e35;fill-rule:evenodd;opacity:0.65"/><path d="M1406.55,310.54l-2-29.92s19-11.28,29.77-2.3l-2.54,32.22Z" style="fill:#a42f38;fill-rule:evenodd"/><polygon points="1363.77 486.18 1356.65 393.98 1404.96 358.62 1423.58 358.62 1436.61 390.11 1436.61 484.27 1363.77 486.18" style="fill-rule:evenodd;fill:url(#Áåçûìÿííûé_ãðàäèåíò_69-2)"/><polygon points="1423.58 358.62 1433.98 364.18 1474.52 398.62 1465.4 484.11 1432.5 484.29 1436.61 390.11 1423.58 358.62" style="fill:#d36977;fill-rule:evenodd"/><polygon points="1404.96 358.62 1402.8 311.56 1437.62 310.54 1433.98 364.18 1423.58 358.62 1404.96 358.62" style="fill:#d36977;fill-rule:evenodd"/><path d="M1397.63,303.44l2.2,11.64s14.68-5.56,40.25,0l2.53-12.65S1419.59,290.61,1397.63,303.44Z" style="fill-rule:evenodd;fill:url(#Áåçûìÿííûé_ãðàäèåíò_58-2)"/><path d="M1370.12,477.18c3.7,5.39,82.23,6.36,89.46,0s8.61-75.29,5.57-80.35-35.91-35.19-35.91-35.19l2.29-48.08s-14.1-2.41-25.35,0L1409,359s-36.19,25.62-42.27,35S1368,474.15,1370.12,477.18Z" style="fill:#cb3d5c;fill-rule:evenodd;opacity:0.67;mix-blend-mode:multiply"/><polygon points="1361.39 402.65 1428.96 399.87 1425.51 469.15 1364.36 467.69 1361.39 402.65" style="fill:#ffada4;fill-rule:evenodd"/><polygon points="1368.22 413.24 1423.58 410.41 1423.58 416.06 1368.22 417.83 1368.22 413.24" style="fill:#cb899a;fill-rule:evenodd;opacity:0.67;mix-blend-mode:multiply"/><polygon points="1376.95 425.93 1379.23 453.46 1408.27 453.46 1409.79 424.42 1376.95 425.93" style="fill:#cb899a;fill-rule:evenodd;opacity:0.67;mix-blend-mode:multiply"/><polygon points="1443.2 460.67 1466.67 460.67 1470.72 407.14 1446.23 404.68 1443.2 460.67" style="fill:#d67790;fill-rule:evenodd"/><path d="M1399.83,315.08l3.17.95v-.47s20.61-3.27,34.24.47l2.84-.95S1419,307.77,1399.83,315.08Z" style="fill:#a42f38;fill-rule:evenodd"/><path d="M1356.65,394s48.54-6.87,80-3.87l-13-31.49H1405Z" style="fill:#ffffe5;fill-rule:evenodd;opacity:0.5;mix-blend-mode:soft-light"/><polygon points="1364.36 390.76 1399.84 364.18 1410.55 364.18 1385.06 387.64 1364.36 390.76" style="fill:#ffffe5;fill-rule:evenodd"/><polygon points="1412.38 364.18 1402.8 374.43 1415.51 374.43 1419.43 364.18 1412.38 364.18" style="fill:#ffffe5;fill-rule:evenodd"/><polygon points="1455.37 475.75 1459.62 429 1469.06 429 1464.37 475.75 1455.37 475.75" style="fill:#ffffe5;fill-rule:evenodd;mix-blend-mode:soft-light"/><path d="M1493.85,258.8l-.46-6.9s17.68-4.9,30,.73v6.17S1511.35,255,1493.85,258.8Z" style="fill:#a42f38;fill-rule:evenodd"/><path d="M1493.39,273.69s17.61,2.61,30.62,0A49.76,49.76,0,0,0,1493.39,273.69Z" style="fill-rule:evenodd;fill:url(#Áåçûìÿííûé_ãðàäèåíò_42)"/><polygon points="1519.85 334.12 1520.91 271.07 1509.22 271.07 1496.36 271.07 1498.6 334.12 1478.47 366.07 1484.5 482.69 1534.98 481.23 1539.97 366.07 1519.85 334.12" style="fill-rule:evenodd;fill:url(#Áåçûìÿííûé_ãðàäèåíò_70)"/><path d="M1493.39,273.69a79,79,0,0,1,30.62,0l1.31-14.24s-16.64-6.54-33.28,0Z" style="fill-rule:evenodd;fill:url(#Áåçûìÿííûé_ãðàäèåíò_71)"/><path d="M1484.62,478.14h36.7V368.6s-17.63-15.08-40.1,0Z" style="fill:#ffada4;fill-rule:evenodd"/><polygon points="1519.85 334.12 1511.99 334.12 1525.32 366.07 1525.32 480.62 1535.01 480.62 1539.97 366.07 1519.85 334.12" style="fill:#8b3d5c;fill-rule:evenodd;opacity:0.67;mix-blend-mode:multiply"/><path d="M1478.92,365.35a47.88,47.88,0,0,1,21.11-5.52l6.54-25.71h-8Z" style="fill:#ffffe5;fill-rule:evenodd;opacity:0.5;mix-blend-mode:soft-light"/><polygon points="1502.74 359.83 1507.44 334.12 1510.31 334.12 1509.67 360.47 1502.74 359.83" style="fill:#ffffe5;fill-rule:evenodd;opacity:0.5;mix-blend-mode:soft-light"/><path d="M1496.46,273.69a73.4,73.4,0,0,1,24.26-.61l-.07,13.9s-5.29-6.59-24.19-6.17Z" style="fill:#8b3d5c;fill-rule:evenodd;opacity:0.67;mix-blend-mode:multiply"/><path d="M1494.93,258.87l1.81,13.12,9-.9V257.55A37.79,37.79,0,0,0,1494.93,258.87Z" style="fill:#ffffe5;fill-rule:evenodd;opacity:0.5;mix-blend-mode:soft-light"/><path d="M1492,259.45a65.31,65.31,0,0,1,33.28,0S1508.36,252,1492,259.45Z" style="fill:#cebdac;fill-rule:evenodd"/><polygon points="1488.07 384.23 1511.99 381.67 1510.31 414.6 1489.45 414.6 1488.07 384.23" style="fill:#ce8aac;fill-rule:evenodd"/><polygon points="1490.94 420.02 1490.94 433.43 1510.05 433.43 1510.05 418.44 1490.94 420.02" style="fill:#ce4f98;fill-rule:evenodd"/><path d="M1555.17,292.46l-.46-6.9s17.69-4.9,30,.73v6.17S1572.67,288.64,1555.17,292.46Z" style="fill:#a42f38;fill-rule:evenodd"/><path d="M1554.71,307.35s17.62,2.6,30.62,0A49.76,49.76,0,0,0,1554.71,307.35Z" style="fill-rule:evenodd;fill:url(#Áåçûìÿííûé_ãðàäèåíò_42-2)"/><polygon points="1541.4 480.62 1536.43 366.07 1559.92 334.12 1557.69 304.73 1570.55 304.73 1570.55 480.51 1541.4 480.62" style="fill-rule:evenodd;fill:url(#Áåçûìÿííûé_ãðàäèåíò_83)"/><polygon points="1599.69 480.62 1604.66 366.07 1581.17 334.12 1582.24 304.73 1570.55 304.73 1570.55 480.51 1599.69 480.62" style="fill-rule:evenodd;fill:url(#Áåçûìÿííûé_ãðàäèåíò_83-2)"/><path d="M1554.71,307.35a79,79,0,0,1,30.62,0l1.31-14.24s-16.64-6.54-33.28,0Z" style="fill-rule:evenodd;fill:url(#Áåçûìÿííûé_ãðàäèåíò_84)"/><path d="M1542.58,478.14h40.06V368.6s-21-15.08-43.46,0Z" style="fill:#ffada4;fill-rule:evenodd"/><polygon points="1581.17 334.12 1573.31 334.12 1590.01 366.07 1587.61 480.62 1599.69 480.62 1604.66 366.07 1581.17 334.12" style="fill:#8b3d5c;fill-rule:evenodd;opacity:0.67;mix-blend-mode:multiply"/><path d="M1536.88,365.35s12.2-5.2,24.47-5.52l6.54-25.71h-8Z" style="fill:#ffffe5;fill-rule:evenodd;opacity:0.5;mix-blend-mode:soft-light"/><polygon points="1564.06 359.83 1568.77 334.12 1571.64 334.12 1571 360.47 1564.06 359.83" style="fill:#ffffe5;fill-rule:evenodd;opacity:0.5;mix-blend-mode:soft-light"/><path d="M1557.78,307.35a73.56,73.56,0,0,1,24.26-.62l-.07,13.9s-4.63-6.42-23.53-6Z" style="fill:#8b3d5c;fill-rule:evenodd;opacity:0.67;mix-blend-mode:multiply"/><path d="M1556.25,292.53l1.81,13.11,9-.9V291.21A37.82,37.82,0,0,0,1556.25,292.53Z" style="fill:#ffffe5;fill-rule:evenodd;opacity:0.5;mix-blend-mode:soft-light"/><path d="M1553.36,293.11a65.31,65.31,0,0,1,33.28,0S1569.69,285.67,1553.36,293.11Z" style="fill:#cebdac;fill-rule:evenodd"/><polygon points="1549.4 384.23 1573.31 381.67 1571.64 414.6 1550.78 414.6 1549.4 384.23" style="fill:#ce8aac;fill-rule:evenodd"/><polygon points="1552.27 420.02 1552.27 433.43 1571.37 433.43 1571.37 418.44 1552.27 420.02" style="fill:#ce4f98;fill-rule:evenodd"/><g style="opacity:0.76"><path d="M1437.25,316,1434,364.17l5.63,4.79-41.93-5,7.3-5.35L1403,316l-3.16-.92-2.19-11.66a43,43,0,0,1,8.19-3.71l-1.29-19.11s19-11.29,29.77-2.29L1432.68,299a50.15,50.15,0,0,1,9.92,3.41l-2.53,12.68Z" style="fill:#691e35;fill-rule:evenodd"/><path d="M1604.67,366.06l-1,22.42-124.84-14.85-.41-7.57,20.14-31.95-1.89-53.31h-.28v-6.74c-1.92-.19-3.06-.37-3.06-.37l-1.33-14.23c.59-.28,1.21-.49,1.79-.74l-.46-6.8s17.69-4.92,30,.71v6.09c1.23.43,1.94.74,1.94.74L1524,273.69c-1.06.21-2.11.37-3.16.52l-1,59.9,18.46,29.32,21.62-29.32-1.49-19.48-.62-6.89c-1.94-.22-3.12-.41-3.12-.41l-1.33-14.22a19.18,19.18,0,0,1,1.8-.71l-.47-6.84s17.69-4.91,30,.71v6.13c1.23.4,2,.71,2,.71l-1.3,14.22c-1,.22-2.14.41-3.22.53l-.12,2.81,0,10s-.1-.12-.31-.34l-.5,13.82Z" style="fill:#691e35;fill-rule:evenodd"/></g><polygon points="1815.34 369.39 1858.38 345.83 1860.21 298.77 1815.87 337.36 1815.34 369.39" style="fill:#932637;fill-rule:evenodd;opacity:0.47000000000000003"/><polygon points="1814.71 407.37 1856.22 401.37 1855.84 411.11 1814.59 414.6 1814.71 407.37" style="fill:#932637;fill-rule:evenodd;opacity:0.47000000000000003"/><polygon points="1735.08 266.17 1759.78 223.01 1747.43 224.11 1728.6 264.33 1735.08 266.17" style="fill:#932637;fill-rule:evenodd;opacity:0.47000000000000003"/><polygon points="1759.78 276.87 1797.27 221.26 1815.34 220.41 1764.82 279.65 1759.78 276.87" style="fill:#932637;fill-rule:evenodd;opacity:0.47000000000000003"/><path d="M-279.34,1443.12s-129.36-328.87-25.31-508.74c0,0,262.66-79.57,449.51,18.42,0,0,58.42,236.77-61.19,490.32Z" style="fill-rule:evenodd;fill:url(#Áåçûìÿííûé_ãðàäèåíò_76)"/><path d="M72.51,1442.46l-2.3-.69c93.33-309.93,34.82-504.35,34.22-506.28l2.28-.71C107.32,936.71,166.06,1131.77,72.51,1442.46Z" style="fill:#7c1338"/><path d="M9.35,1442.38,7,1441.86c65.53-292.14,14.57-526.73,14-529.07l2.34-.52C23.92,914.61,75,1149.73,9.35,1442.38Z" style="fill:#7c1338"/><path d="M28.47,947.7s-48.18,228.9-117.83,362.16l3.3,103.85S15.91,1266,39.45,1055Z" style="fill:#9b2c3a;fill-rule:evenodd;opacity:0.47000000000000003"/><path d="M-341.75,1054.68s260.28-55.59,405.3-6c0,0,7.06,229.16-88.5,315.1l-280.32-6.46S-134,1385-16.17,1393.43c0,0-37.5,32.44-144.5,33.72-91,1.09-129.2-13.44-129.2-13.44l10.53,29.41h363s110.71-199.71,61.19-490.32c0,0-48.4,52.58-73.5,60S-193.18,1005.42-341.75,1054.68Z" style="fill:#691e35;fill-rule:evenodd;opacity:0.5700000000000001"/><path d="M-337.59,1027.18s256.21-67.86,493.5,0l2.17,31s-161.61-77.34-499.83-3.54Z" style="fill-rule:evenodd;fill:url(#Áåçûìÿííûé_ãðàäèåíò_37)"/><path d="M37.38,1017.1a4.26,4.26,0,1,1-4.26-4.27A4.26,4.26,0,0,1,37.38,1017.1Z" style="fill:#2f1b3a;fill-rule:evenodd"/><path d="M-341.75,1054.68s280.18-66.75,499.83,3.54C158.08,1058.22-28.45,974.93-341.75,1054.68Z" style="fill:#2f1b3a;fill-rule:evenodd"/><polygon points="31.76 971.94 37.38 977.89 33.97 989.79 31.76 971.94" style="fill:#691e35;fill-rule:evenodd"/><path d="M39.45,1055s2.36,186.7-10.92,274.44C28.53,1329.43,56.68,1197.45,39.45,1055Z" style="fill:#691e35;fill-rule:evenodd"/><path d="M132.24,1309.22c-21.37,84.79-48.56,133.92-48.56,133.92h-363s-4.24-10.75-10.5-29.28l-.06-.12c-3.42-10.06-7.4-22.39-11.64-36.61s-8.85-30.23-13.34-47.68q-2.55-10.25-5.12-21l-19.92,4a.06.06,0,0,0-.06-.06c-11.82-15.3-15.74-28.71-15.74-39.84,0-21.87,15.24-34.71,15.3-34.77l6.32,1c-6.57-39.65-11.06-81.88-11.06-123.8a513.86,513.86,0,0,1,3.41-60.26c1.08-9.23,2.4-18.46,4.11-27.51,6.26-33.32,16.82-64.81,32.94-92.75a.43.43,0,0,0,.19-.07c7.46-1.26,218-36.67,449.37,18.47,0,0,1.71,7,3.92,19.72s5,31.37,7.08,54.63v.13c.89,9.36,1.58,19.54,2.15,30.41l.07.51H158A827.57,827.57,0,0,1,132.24,1309.22Z" style="fill:#ba5750;fill-rule:evenodd;opacity:0.58;mix-blend-mode:color"/><path d="M132.24,1309.22c-21.37,84.79-48.56,133.92-48.56,133.92h-363s-4.24-10.75-10.5-29.28l-.06-.12c-3.42-10.06-7.4-22.39-11.64-36.61s-8.85-30.23-13.34-47.68q-2.55-10.25-5.12-21l-19.92,4a.06.06,0,0,0-.06-.06c-11.82-15.3-15.74-28.71-15.74-39.84,0-21.87,15.24-34.71,15.3-34.77l6.32,1c-6.57-39.65-11.06-81.88-11.06-123.8a513.86,513.86,0,0,1,3.41-60.26c1.08-9.23,2.4-18.46,4.11-27.51,6.26-33.32,16.82-64.81,32.94-92.75a.43.43,0,0,0,.19-.07c7.46-1.26,218-36.67,449.37,18.47,0,0,1.71,7,3.92,19.72s5,31.37,7.08,54.63v.13c.89,9.36,1.58,19.54,2.15,30.41l.07.51H158A827.57,827.57,0,0,1,132.24,1309.22Z" style="fill:#690123;fill-rule:evenodd;opacity:0.35000000000000003"/><polygon points="319.19 783.9 389.3 1500.26 2395.55 1505.84 2421.84 776.95 319.19 783.9" style="fill:#b13938;fill-rule:evenodd"/><polygon points="472.73 1370.92 405.58 787.76 408.72 787.41 475.87 1370.56 472.73 1370.92" style="fill:#7c2a38"/><polygon points="577.22 1370.84 539.9 787.68 543.05 787.49 580.37 1370.64 577.22 1370.84" style="fill:#7c2a38"/><rect x="663.03" y="787.59" width="3.16" height="583.15" style="fill:#7c2a38"/><rect x="879.44" y="784.48" width="3.16" height="580.11" style="fill:#7c2a38"/><rect x="1066.45" y="781.98" width="3.16" height="576.18" transform="translate(-29.02 29.77) rotate(-1.58)" style="fill:#7c2a38"/><polygon points="1255.05 1360.42 1225.19 784.56 1228.35 784.4 1258.21 1360.26 1255.05 1360.42" style="fill:#7c2a38"/><rect x="1391.84" y="782.09" width="3.16" height="569.42" style="fill:#7c2a38"/><rect x="1874.64" y="782.09" width="3.16" height="569.42" style="fill:#7c2a38"/><rect x="1483.88" y="779.65" width="3.16" height="577.66" style="fill:#7c2a38"/><polygon points="1697.8 1354.51 1682.88 779.69 1686.04 779.6 1700.96 1354.42 1697.8 1354.51" style="fill:#7c2a38"/><rect x="1585.07" y="804.65" width="3.16" height="202.53" transform="translate(619.8 2456.18) rotate(-87.77)" style="fill:#7c2a38"/><rect x="1876.22" y="886.05" width="246.96" height="3.16" style="fill:#7c2a38"/><polygon points="269.89 787.59 254.57 738.77 2374.43 711.87 2375.86 779.31 269.89 787.59" style="fill-rule:evenodd;fill:url(#Áåçûìÿííûé_ãðàäèåíò_2)"/><polygon points="1699.38 1354.47 1485.46 1357.31 1485.46 904.38 1687.84 909.85 1699.38 1354.47" style="fill:#932637;fill-rule:evenodd;opacity:0.47000000000000003"/><polygon points="664.61 856.49 881.02 1041.19 881.02 1068.48 664.61 873.82 664.61 856.49" style="fill:#932637;fill-rule:evenodd;opacity:0.47000000000000003"/><polygon points="558.53 1054.11 664.61 1035.82 664.61 800.74 541.48 820.23 558.53 1054.11" style="fill:#932637;fill-rule:evenodd;opacity:0.47000000000000003"/><polygon points="664.61 1068.48 717.15 1035.82 664.61 1074.54 656.52 1079.16 664.61 1068.48" style="fill:#852438;fill-rule:evenodd"/><polygon points="424.39 937.25 456.9 962.48 424.39 949.86 424.39 937.25" style="fill:#852438;fill-rule:evenodd"/><polygon points="1277.76 1066.79 1305.74 1025.43 1287.71 1062.01 1268.43 1088.19 1277.76 1066.79" style="fill:#852438;fill-rule:evenodd"/><polygon points="998.88 731.95 998.88 780.99 1009.12 780.8 1010.38 731.95 998.88 731.95" style="fill:#ab3a40;fill-rule:evenodd;opacity:0.47000000000000003"/><polygon points="1710.58 776.65 1716.91 730.5 2346.73 712.32 2335.77 776.65 1710.58 776.65" style="fill:#ab3a40;fill-rule:evenodd;opacity:0.47000000000000003"/><polygon points="1605.17 776.65 1494.26 726.38 1493.11 730.5 1603.07 776.95 1605.17 776.65" style="fill:#ab3a40;fill-rule:evenodd;opacity:0.47000000000000003"/><path d="M1142.19,1361.87l88.31-505.38,1.82,35-86.08,470.38Z" style="fill:#932637;fill-rule:evenodd;opacity:0.47000000000000003"/><polygon points="1131.26 1362.01 1187.25 817.5 1177.02 817.5 1110.05 1360.35 1131.26 1362.01" style="fill:#932637;fill-rule:evenodd;opacity:0.47000000000000003"/><polygon points="254.57 738.77 2375.86 726.38 2906.39 711.87 2374.43 711.87 254.57 738.77" style="fill:#fb8b36;fill-rule:evenodd"/><polygon points="455.35 782.1 447.89 739.04 451 738.5 458.46 781.56 455.35 782.1" style="fill:#931a38"/><rect x="668" y="735.2" width="3.16" height="46.83" style="fill:#931a38"/><rect x="820.98" y="734.48" width="3.16" height="47.99" style="fill:#931a38"/><rect x="1322.46" y="754.16" width="50.98" height="3.17" transform="translate(415.18 1987.84) rotate(-82.15)" style="fill:#931a38"/><polygon points="871.63 782.38 881.02 1124.69 884.07 782.08 871.63 782.38" style="fill:#691e35;fill-rule:evenodd"/><polygon points="321.8 820.95 2409.78 814.53 2410.5 779.65 319.19 783.9 321.8 820.95" style="fill:#691e35;fill-rule:evenodd;opacity:0.76"/><polygon points="1485.46 909.85 1624.71 907.19 1485.46 896.84 1485.46 909.85" style="fill:#691e35;fill-rule:evenodd"/><polygon points="271.54 991.17 283.98 1035.82 2335.77 1035.82 2335.77 991.17 271.54 991.17" style="fill-rule:evenodd;fill:url(#Áåçûìÿííûé_ãðàäèåíò_2-2)"/><polygon points="343.85 1035.82 346.42 1062.11 2404.47 1072.41 2405.22 1035.82 343.85 1035.82" style="fill:#691e35;fill-rule:evenodd;opacity:0.76"/><polygon points="766.64 1035.82 766.64 991.17 1045.13 991.17 1036.74 1035.82 766.64 1035.82" style="fill:#ab3a40;fill-rule:evenodd;opacity:0.47000000000000003"/><polygon points="1086.88 1035.82 1102.03 991.17 1140.51 991.17 1119.76 1035.82 1086.88 1035.82" style="fill:#ab3a40;fill-rule:evenodd;opacity:0.47000000000000003"/><polygon points="1546.98 1035.82 1535.21 991.17 1555.09 991.17 1561.9 1035.82 1546.98 1035.82" style="fill:#ab3a40;fill-rule:evenodd;opacity:0.47000000000000003"/><polygon points="1744.73 1035.82 1727.94 991.17 1744.73 991.17 1777.79 1035.82 1744.73 1035.82" style="fill:#ab3a40;fill-rule:evenodd;opacity:0.47000000000000003"/><polygon points="424.39 738.77 384.02 -412.98 474.3 -396.55 474.3 738.77 424.39 738.77" style="fill:#6d1d2f;fill-rule:evenodd"/><polygon points="384.02 -412.98 306.27 -404.63 356.72 738.77 424.39 738.77 384.02 -412.98" style="fill:#b4493c;fill-rule:evenodd"/><polygon points="415.6 -11.99 424.39 111.21 2312.17 57.91 2314.37 -125.2 415.6 -11.99" style="fill:#b4493c;fill-rule:evenodd"/><polygon points="424.39 111.21 474.3 116.01 2312.17 57.91 2314.37 45.74 424.39 111.21" style="fill:#6d1d2f;fill-rule:evenodd"/><polygon points="429.16 320.07 429.16 403.93 766.64 101.55 652.49 104.43 429.16 320.07" style="fill:#b4493c;fill-rule:evenodd"/><polygon points="766.64 101.55 830.97 104.73 474.3 403.93 429.16 403.93 766.64 101.55" style="fill:#6d1d2f;fill-rule:evenodd"/><polygon points="1958.37 58.07 2309 322.52 2307.74 427.49 1821.74 62.81 1958.37 58.07" style="fill:#b4493c;fill-rule:evenodd"/><polygon points="443.92 -13.68 460.02 109.98 424.39 111.21 415.6 -11.99 443.92 -13.68" style="fill:#701e35;fill-rule:evenodd;opacity:0.76"/><polygon points="1294.68 -64.4 1331.15 79.8 1451.58 75.63 1412.05 -71.4 1294.68 -64.4" style="fill:#933a37;fill-rule:evenodd;opacity:0.47000000000000003"/><polygon points="1245.99 -61.5 1230.71 83.28 1214.17 83.86 1238.51 -61.5 1245.99 -61.5" style="fill:#933a37;fill-rule:evenodd;opacity:0.47000000000000003"/><polygon points="325.22 24.82 398.4 -2.79 400.76 64.59 328.31 94.87 325.22 24.82" style="fill:#933a37;fill-rule:evenodd;opacity:0.47000000000000003"/><polygon points="480.62 270.38 534.82 309.26 542.81 302.1 487.57 263.67 480.62 270.38" style="fill:#933a37;fill-rule:evenodd;opacity:0.47000000000000003"/><polygon points="517.18 235.08 566.59 280.79 606.35 245.17 542.81 210.33 517.18 235.08" style="fill:#933a37;fill-rule:evenodd;opacity:0.47000000000000003"/><polygon points="416.19 505.01 373.35 738.18 376.55 738.18 416.78 521.74 416.19 505.01" style="fill:#933a37;fill-rule:evenodd;opacity:0.47000000000000003"/><polygon points="418.5 570.86 384.02 738.5 390.92 737.78 420.61 630.89 418.5 570.86" style="fill:#933a37;fill-rule:evenodd;opacity:0.47000000000000003"/><polygon points="1860.54 -18.59 1763.28 24.16 1838.93 -3.4 1860.54 -18.59" style="fill:#6d1d2f;fill-rule:evenodd"/><polygon points="1629.46 -6.99 1655.81 4.2 1642.63 -6.99 1629.46 -6.99" style="fill:#6d1d2f;fill-rule:evenodd"/><polygon points="647.53 73.68 712.39 83.86 667.17 78.77 647.53 73.68" style="fill:#6d1d2f;fill-rule:evenodd"/><polygon points="404.42 169.09 393.21 176.48 406.07 216.04 404.42 169.09" style="fill:#6d1d2f;fill-rule:evenodd"/><polygon points="709.79 152.48 665.27 166.76 704.07 157.61 709.79 152.48" style="fill:#6d1d2f;fill-rule:evenodd"/><polygon points="373.35 561.7 358.98 575.18 369.16 568.44 373.35 561.7" style="fill:#6d1d2f;fill-rule:evenodd"/><polygon points="895.7 -40.62 824.14 11.18 914.33 -41.73 895.7 -40.62" style="fill:#6d1d2f;fill-rule:evenodd"/><ellipse cx="102.93" cy="482.19" rx="1653.69" ry="719.58" style="mix-blend-mode:screen;fill:url(#Áåçûìÿííûé_ãðàäèåíò_99)"/><g style="opacity:0.6000000000000001;mix-blend-mode:multiply"><path d="M96.56-8.16C99.63-35.5,117.64,6.4,100.29,3.11a35,35,0,0,0-1.38-5.47Z" style="fill:#e3d9d2;fill-rule:evenodd"/></g><path d="M46.51,679.31a1.83,1.83,0,1,1-1.82-1.82A1.82,1.82,0,0,1,46.51,679.31Z" style="fill:#ffffa4"/><circle cx="320.66" cy="720.25" r="2.8" style="fill:#ffffa4"/><path d="M1823.78,1090.7l-5-87.1s50.57-28.05,92.94-15.67l-9.35,106.68Z" style="fill-rule:evenodd;fill:url(#Áåçûìÿííûé_ãðàäèåíò_32)"/><path d="M1854.47,989.67s8.55-35,23.49-38.68l2.06,1.88s-17.92,13.39-22.68,36.8Z" style="fill:#bf5d6b;fill-rule:evenodd"/><path d="M1818.81,1003.6s7.27,66.22,14.73,74.58,51.52,5.47,60.85,3.43S1911,997,1911,997l-8.56,97.62-78.62,1.09Z" style="fill:#691e35;fill-rule:evenodd;opacity:0.2"/><path d="M1888,1003.6c-3.79-2.48-6.66,17-4.45,22.48s4.2,11.94,6.06,12S1896.72,1009.31,1888,1003.6Z" style="fill:#fff;fill-rule:evenodd"/><path d="M1880,985.1s4.52,8.67,7.77,9,5.07-9,5.07-9A61.08,61.08,0,0,0,1880,985.1Z" style="fill:#fff;fill-rule:evenodd"/><path d="M1877.68,1143.8c12.86-.51,25.37-1.71,35.33-4l5.37-45.6s-6.21-1.62-15.66-3.14l9-103.09a82.55,82.55,0,0,0-22-3.08,63.16,63.16,0,0,0-9.7.25v0a136.66,136.66,0,0,0-22.5,3.77c5-22.92,22.49-36,22.49-36L1878,951c-14.94,3.69-23.49,38.68-23.49,38.68h.08a178.23,178.23,0,0,0-35.74,13.93l4.7,87.13c-13.17,1.61-18.1,3.43-18.1,3.43l4.22,47.84s17.48,1.55,39.33,2l2.87,33.39c-12.13.22-25.26.82-38.68,2.07v17.38h100.64v-17.38s-15.68-1.58-38.84-2Z" style="fill:#690123;fill-rule:evenodd;opacity:0.25"/><path d="M1386.3,722.49l-10.07-109.22s58.8-20,104.66-6.83l-4.23,116Z" style="fill-rule:evenodd;fill:url(#Áåçûìÿííûé_ãðàäèåíò_76-2)"/><polygon points="1404.43 722.51 1395.52 607.97 1396.25 607.91 1405.17 722.46 1404.43 722.51" style="fill:#7c1338"/><polygon points="1454.69 602.21 1449.61 615.22 1445.37 602.21 1454.69 602.21" style="fill:#691e35;fill-rule:evenodd"/><polygon points="1407 722.49 1399.64 656.23 1403.32 722.49 1407 722.49" style="fill:#691e35;fill-rule:evenodd"/><path d="M1399.64,607.12,1450,706.23l-.42-70.05-18.26-33.68S1409.19,604.92,1399.64,607.12Z" style="fill:#9f3d36;fill-rule:evenodd"/><polygon points="1398.08 636.18 1449.61 709.16 1450.03 713.71 1398.69 642.52 1398.08 636.18" style="fill:#9f3d36;fill-rule:evenodd"/><polygon points="1477.05 712 1450.03 694.45 1449.35 680.07 1478.26 685.67 1477.05 712" style="fill:#9f3d36;fill-rule:evenodd"/><polygon points="1479.75 625.2 1497.37 604.53 1542.75 622.57 1516.31 710.88 1477.49 707.35 1478 688.97 1504.12 689.93 1515.53 641.27 1497.78 629.67 1479.17 646.41 1479.75 625.2" style="fill:#852438;fill-rule:evenodd"/><polygon points="1470.64 625.2 1486.44 601.95 1527.11 618.71 1503.41 710.88 1468.61 707.35 1469.07 688.97 1492.49 689.93 1502.72 641.27 1486.8 629.67 1470.12 646.41 1470.64 625.2" style="fill:#c25c43;fill-rule:evenodd"/><polygon points="1486.44 601.95 1497.37 604.53 1542.75 622.57 1527.11 618.71 1486.44 601.95" style="fill:#fb8b57;fill-rule:evenodd"/><polygon points="1516.31 710.88 1503.41 710.88 1527.11 618.71 1542.75 622.57 1516.31 710.88" style="fill:#691e35;fill-rule:evenodd"/><polygon points="1518.94 615.35 1524.93 627.2 1532.27 619.98 1518.94 615.35" style="fill:#9f3d36;fill-rule:evenodd"/><rect x="1449.24" y="602" width="0.74" height="120.48" style="fill:#7c1338"/><path d="M1380.46,659.1s60.62-3.75,98.61-2.68l-.74,20.23s-37.35-6.82-96.26,0Z" style="fill-rule:evenodd;fill:url(#Áåçûìÿííûé_ãðàäèåíò_37-2)"/><polygon points="1492.87 634.09 1479.17 648.85 1470.12 646.41 1486.8 629.67 1492.87 634.09" style="fill:#691e35;fill-rule:evenodd"/><polygon points="1470.12 646.41 1478.26 682.02 1479.17 648.85 1470.12 646.41" style="fill:#590029;fill-rule:evenodd;opacity:0.76"/><polygon points="1468.61 707.35 1476.66 722.49 1477.49 707.35 1468.61 707.35" style="fill:#590029;fill-rule:evenodd;opacity:0.76"/><path d="M1333.8,544.31s-58.24,2.48-89.64-1.79C1244.16,542.52,1285.26,534.36,1333.8,544.31Z" style="fill:#4a3f6d;fill-rule:evenodd"/><path d="M1329.52,544.31s-41.59-5.13-81.88-1.81v9.26l-11.48,18.33,2,154.1h101.22L1340.93,576l-10.49-18.06Z" style="fill-rule:evenodd;fill:url(#Áåçûìÿííûé_ãðàäèåíò_39)"/><path d="M1333.8,542.52v1.79s-48.57-8.72-89.64-1.79v-6.14S1284.05,528.19,1333.8,542.52Z" style="fill-rule:evenodd;fill:url(#Áåçûìÿííûé_ãðàäèåíò_101)"/><path d="M1247.64,551.76s37-3.07,60.89,3l-2.37,11.68,15.37,151.49-83.39,6.25h101.22l1.06-150.32-10-16-.92-13.6s-48.78-6.58-81.88-1.81Z" style="fill:#5d537c;fill-rule:evenodd;opacity:0.48"/><path d="M1317.93,572.18l8.51-14.89,43.86,1.89s6.55,41.71,0,71.71-37,51.39-37,51.39h-3.93s33.14-28.31,38.45-53.36-4.09-64.7-4.09-64.7l-36.32-1.85-5.9,11.92,3.77,15.43-5.41,1.26Z" style="fill:#b1c0d4;fill-rule:evenodd"/><polygon points="1319.89 590.98 1340.61 591.53 1341.67 590.04 1325.3 589.72 1319.89 590.98" style="fill:#5d537c;fill-rule:evenodd"/><path d="M1370.3,559.18l12.6.89s2.51,47.54-1.12,70.82-37.6,51.39-37.6,51.39h-10.86s32.83-26.81,37-51.39S1370.3,559.18,1370.3,559.18Z" style="fill:#564c77;fill-rule:evenodd"/><polygon points="1344.18 563.08 1340.42 573.87 1341.67 590.04 1325.3 589.72 1321.53 574.29 1327.43 562.37 1344.18 563.08" style="fill:#7a7294;fill-rule:evenodd"/><polygon points="1329.39 682.28 1329.39 695.77 1332.86 695.77 1333.32 682.28 1329.39 682.28" style="fill:#b1c0d4;fill-rule:evenodd"/><polygon points="1344.18 682.28 1345.57 696.78 1332.86 695.77 1333.32 682.28 1344.18 682.28" style="fill:#7a7294;fill-rule:evenodd"/><polygon points="1345.57 696.78 1342.36 697.72 1329.39 695.77 1332.86 695.77 1345.57 696.78" style="fill:#5d537c;fill-rule:evenodd"/><polygon points="1284.01 565.08 1250.94 566.45 1259.03 551.16 1287.01 551.16 1284.01 565.08" style="fill:#fff;fill-rule:evenodd"/><polygon points="1247.91 566.45 1253.84 551.16 1249.97 551.6 1241.07 567.49 1247.91 566.45" style="fill:#fff;fill-rule:evenodd;opacity:0.5;mix-blend-mode:soft-light"/><path d="M1247.64,551.76s44.4-3.29,82.65,3.94l-.77-11.39s-50.56-6.1-81.88-1.81Z" style="fill:#4a3f6d;fill-rule:evenodd;opacity:0.5"/><polygon points="1259.03 576.2 1259.03 623.24 1243.6 622.39 1241.07 576.2 1259.03 576.2" style="fill:#fff;fill-rule:evenodd;opacity:0.5"/><polygon points="1338.29 593.17 1332.86 593.17 1334.26 677.83 1336.54 675.63 1338.29 593.17" style="fill:#fff;fill-rule:evenodd;opacity:0.5;mix-blend-mode:soft-light"/><polygon points="1268.97 534.36 1268.97 539.78 1256.71 540.77 1255.92 534.83 1268.97 534.36" style="fill:#fff;fill-rule:evenodd"/><polygon points="1284.01 657.54 1247.45 627.27 1268.97 642.41 1284.01 657.54" style="fill:#aabad0;fill-rule:evenodd"/><polygon points="1289.28 593.17 1250.94 590.04 1268.97 589.48 1289.28 593.17" style="fill:#aabad0;fill-rule:evenodd"/><polygon points="1284.01 642.41 1280.56 650.58 1282.28 643.91 1284.01 642.41" style="fill:#aabad0;fill-rule:evenodd"/><polygon points="1301.95 669.83 1301.95 680.23 1300.22 671.34 1301.95 669.83" style="fill:#aabad0;fill-rule:evenodd"/><polygon points="1281.21 602.79 1259.03 612.41 1273.38 604.97 1281.21 602.79" style="fill:#aabad0;fill-rule:evenodd"/><polygon points="1296.88 698.83 1312.2 673.92 1302.47 692.06 1296.88 698.83" style="fill:#aabad0;fill-rule:evenodd"/><path d="M1497.37,604.53,1486.44,602l-5.69,8.37.14-3.88a120.61,120.61,0,0,0-26.2-4.23h0c-1.57-.09-3.13-.15-4.69-.19v0h-.44c-6.16-.15-12.27.06-18.19.51h0l-.13,0a239.5,239.5,0,0,0-27.72,3.81c-1.42.27-2.73.53-3.86.79h0c-1.29.27-2.53.55-3.74.82l-.39,0V608c-4.81,1.1-8.91,2.17-12.08,3.06.91-23.44-.54-51-.54-51l-12.6-.89-39.89-1.72-.12-1.76h0l-.76-11.23,4.27-.16v-1.79a215.75,215.75,0,0,0-77.7-7.7h-.18c-7.45.67-11.76,1.54-11.76,1.54v6.14c1.13.15,2.29.3,3.48.43v8.81l-11.48,18.33,2,154.1h101.22l.29-26.88,2.71.41,3.21-.94-1.39-14.5s25.33-21,34.57-41.71l2.41,26.17.91,9.91h0l4.23,45.84h18.13v0l.36,0h71.87l.78-14.24,26,2.63h12.9l26.44-88.31ZM1478.1,689l.16-3.3-.25,0,.14-4,.11.45.36-13.28.73-20.09,13.52-14.56,9.85,7.18-10.14,48.24Zm-110.26-60.05c-3.35,15.79-17.74,32.86-27.93,43.33l.86-80.94.9-1.27-.78-10.14,0-3.93-.4-.69-.11-1.41,3.71-10.65,19.62,1S1373.15,603.87,1367.84,628.92Zm-.85,12.35a61.54,61.54,0,0,0,3.31-10.38A43.56,43.56,0,0,1,1367,641.27Z" style="fill:#690123;fill-rule:evenodd;opacity:0.35000000000000003"/><path d="M594.45,1078.48l-5.08-88.85s51.6-28.62,94.82-16l-9.54,108.82Z" style="fill-rule:evenodd;fill:url(#Áåçûìÿííûé_ãðàäèåíò_32-2)"/><path d="M625.75,975.42s8.72-35.69,24-39.46l2.11,1.92s-18.28,13.65-23.14,37.54Z" style="fill:#bf5d6b;fill-rule:evenodd"/><path d="M589.37,989.63s7.42,67.55,15,76.07,52.55,5.59,62.07,3.5,16.9-86.32,16.9-86.32l-8.73,99.58-80.2,1.11Z" style="fill:#691e35;fill-rule:evenodd;opacity:0.2"/><path d="M575.7,1082l4.32,48.81,105.45-2.28L691,1082a213.83,213.83,0,0,0-47.83-5.92C591.71,1076.08,575.7,1082,575.7,1082Z" style="fill-rule:evenodd;fill:url(#Áåçûìÿííûé_ãðàäèåíò_39-2)"/><path d="M648.31,1077.13l-.78,44.7,24.09,1.14,3-40.51S670.73,1076.71,648.31,1077.13Z" style="fill:#fff;fill-rule:evenodd;opacity:0.5"/><path d="M659.94,989.63c-3.87-2.53-6.79,17.31-4.54,22.93s4.28,12.18,6.18,12.25S668.85,995.45,659.94,989.63Z" style="fill:#fff;fill-rule:evenodd"/><path d="M651.82,970.76s4.61,8.84,7.92,9.22,5.18-9.22,5.18-9.22A61.15,61.15,0,0,0,651.82,970.76Z" style="fill:#fff;fill-rule:evenodd"/></g><path d="M1089.16,727.62s63.1-10,71-16.46,9.72-18.44,9.72-18.44S1116.53,689.55,1089.16,727.62Z" style="fill:#67363f;fill-rule:evenodd"/><polygon points="844.41 719.69 870.81 727.62 837.09 680.03 844.41 719.69" style="fill:#67363f;fill-rule:evenodd"/><path d="M943.23,507.69s-.13,13.78-2.22,23c0,0-10.8,73.27,4.37,73.87s70.6-65.84,77.74-81c0,0-12.79-33.62-16.36-65.3l-7.14-11.45Z" style="fill:#e15558"/><path d="M942.68,521.34s7.86,14.5,33.53,1.61,31.07-63.43,31.07-63.43l-1-7.12h-3.33l-60.25,53.89Z" style="fill:#862043;fill-rule:evenodd"/><path d="M865,730.76l-14.77-7.7,1.1-1.73,12.4,1.79c-22.61-35.3-68.48-45.79-68.48-45.79l-3,5.41-4.9-5.41s3.11-3.14,7.41-7.81c8.73-9.58,22.39-25.66,24.53-35.11,3.17-14.07,5-33.13,5.93-35.7s21-12.5,39.28-22.39c9.46-5.15,26.57-16.77,40.92-26.82a5.41,5.41,0,0,0,.5-.35c7.88-5.52,14.89-10.52,19.22-13.62l4.62-3.36s2.07-8,2.51-9.36,10.45-7.44,10.45-7.44c-5.49,15.57,6.66,30.2,6.66,30.2s.6,36.27,6.85,36.59,18.93-34.42,18.93-34.42,42.46-17.46,44-24.4-1.16-14.91-1.16-14.91h5.15s2.32,2.67,6.09,6.78c8.1,8.82,22.92,24.3,35.92,34.32,19.06,14.67,55.55,32.12,59.13,38.88s5.93,21.41,13.06,44c4.59,14.51,17.9,34.86,26.85,47.61,4.15,5.9,7.35,10.17,8.35,11.49l.32.41c-1.2,11.9-11.84,21.32-11.84,21.32l-1.48-3.8,8.76-13.72c-36.89-2.92-79.13,31.87-79.13,31.87l-5.59.69-5.43-8.95-5.81-9.58" style="fill:#cdb6b2;fill-rule:evenodd"/><path d="M1172.86,691.94c-1.2,11.9-11.84,21.32-11.84,21.32l-1.48-3.8,8.76-13.72c-36.89-2.92-79.13,31.87-79.13,31.87l-5.59.69-5.43-8.95s52.16-47.67,86-39.31l8.35,11.49Z" style="fill:#ab9096;fill-rule:evenodd"/><path d="M1034.62,612.15l47.6-30s-29.35,35.19-47.6,44.71Z" style="fill:#7c2c77;fill-rule:evenodd;opacity:0.4;mix-blend-mode:multiply"/><path d="M1068.35,692.66l4,17.11c-1.51,2.54-4,9.53-6.84,18.71l-41.51.59c-6.11-20.61-10.92-41.11-10.78-54.22.38-34.47,27.2-61.48,28.45-62.7-.31,1.44-5.78,26.34-5,48.76.82,23.11,13.82,45,13.82,45,2.76-14.16,21.85-42.74,21.85-42.74C1069.45,670.52,1068.35,692.66,1068.35,692.66Z" style="fill:#7c0477;fill-rule:evenodd;opacity:0.4;mix-blend-mode:multiply"/><path d="M851.34,721.33l12.4,1.79c-22.61-35.3-68.48-45.79-68.48-45.79l-3,5.41-4.9-5.41s9.76-10.16,14.07-14.84c0,0,33.91,4.26,66.73,52l2.7,16.5-6.53-.21-14-7.68Z" style="fill:#ab9096;fill-rule:evenodd"/><path d="M870.81,731l-5.8-.19-14.77-7.7,1.1-1.73,12.4,1.79c-22.61-35.3-68.48-45.79-68.48-45.79l-3,5.41-4.9-5.41c32.22-7.75,72.51,34.77,72.51,34.77-3.05-17.05-21.54-58.54-22.68-61.11,15.83,26.85,31,63.46,31,63.46s-.29-35-2.45-48.42-6.16-34.79-6.16-34.79l20.63,19.34,5.25-70.21,20-30.87,1.41-2.17c-.31.6-.62,1.2-.91,1.82-13.06,26.44-13.12,76.15-13.12,76.15,45,.88,118.23-43.23,120.78-44.71-39.32,31.56-110.3,60.82-110.3,60.82h78.19l47.83-36.83,26.91-36.8c-.6,2.19-21.6,77.15-19.37,94.7,2.29,17.84,13.69,43.43,13.69,43.43a336.08,336.08,0,0,1,27.66-56.84c-6.56,10.71-8.45,46.15-8.45,46.15l12.52,23.86c23-32.32,40.42-40,40.42-40-11.68,5.56-26.15,36.09-26.15,36.09,41.86-25,76.37-23.2,76.37-23.2-1.2,11.9-11.84,21.32-11.84,21.32l-1.48-3.8,8.76-13.72c-36.89-2.92-79.13,31.87-79.13,31.87l-5.59.69-5.43-8.95-5.81-9.58c-6.37,10.71-5.76,18.11-5.76,18.11" style="fill:#7c2c77;fill-rule:evenodd;opacity:0.4;mix-blend-mode:multiply"/><path d="M870.81,731s-4.17-9.47-5.06-70.57C864.86,599.1,881.23,561,881.23,561s17.18-9.17,23.46-15.41l0,0,2.07,1.76s-19.31,33.13-19.72,84.32c0,0,26.66,8.73,50.21,7.53,23.18-1.16,80.8-28.48,82.62-29.33l0,0s12.69-26.85,29.55-73.92l4-1.85s8.92,9.92,14.88,13.28v4.56l-3.2-2.36s-22.14,33.7-34.45,118.38c0,0-10.92,5.63,6.41,60.93" style="fill:#8b4638;fill-rule:evenodd"/><path d="M913.86,646.5l10.83-5.09-44.56-6c3.33-39.82,23.93-88.34,24.56-89.84l0,0,2.07,1.76s-19.31,33.13-19.72,84.32c0,0,26.66,8.73,50.21,7.53,23.18-1.16,80.8-28.48,82.62-29.33C989.38,636.83,913.86,646.5,913.86,646.5Z" style="fill:#66044f;fill-rule:evenodd;opacity:0.4;mix-blend-mode:multiply"/><path d="M1037.11,728.84l-18.29.23s4.93-42.83,7.08-65.89c3.37-36.31,32.78-111.67,35.61-113.9a11.11,11.11,0,0,1,6.84-1.95v4.56l-3.2-2.36s-22.14,33.7-34.45,118.38c0,0,2.34,38.35,6.41,60.93" style="fill:#66044f;fill-rule:evenodd;opacity:0.4;mix-blend-mode:multiply"/><g style="opacity:0.31"><path d="M958.68,644.85c-1.95.26-4.11.16-5.48,1.78s-1.62,4-1.58,5.8c.08,3,1.37,8.59,3.29,10.88,5.2,6.19,16,2.75,21-1.92,3.14-3,5.83-8.78,2.9-12.82-2-2.74-5.11-3.31-8.15-4-2.1-.45-4.41-1.29-6.58-1.24a19.83,19.83,0,0,0-8.45,2.54Z" style="fill:#29354d;fill-rule:evenodd"/><path d="M950.11,667.14a2.07,2.07,0,0,1-1.16-1,10.3,10.3,0,0,1,2.69.86c.84.39,1.91.76,1.77,1.87a4.4,4.4,0,0,1-1.28,2.43,3.06,3.06,0,0,1-2.37.5,2.59,2.59,0,0,1-2.6-2c-.41-1.67.4-3.29,2.3-3Z" style="fill:#29354d;fill-rule:evenodd"/><path d="M934.5,661c-.75.1-1.07.07-1.48.65s-.34.92.07,1.5c1.06,1.53,2.91,2.62,4.76,1.92a1.92,1.92,0,0,0,1-3.14,3.72,3.72,0,0,0-1.46-1,8.47,8.47,0,0,0-2.41.07Z" style="fill:#29354d;fill-rule:evenodd"/><path d="M1000.24,640.49c-.55-.3-1.1-.58-1.66-.84-.59,0-1.18,0-1.77,0a39.55,39.55,0,0,0-8.65,1.41,21,21,0,0,0-5.8,2.42c-.76.5-2,1.41-2,2.43-.1,1.2,1.41,2,2.26,2.5a20.38,20.38,0,0,0,5.28,1.82c1,.2,2,.22,2.92.49.64.24,1.28.44,1.94.62s1.57.24,2.36.33a31.15,31.15,0,0,0,10.91-1,13.73,13.73,0,0,0,5.29-2.57c.78-.62,2-1.62,2.22-2.68.46-2.41-2.76-4.91-4.55-5.73a9.58,9.58,0,0,0-4.63-.53C1001.78,639.39,999.36,640,1000.24,640.49Z" style="fill:#29354d;fill-rule:evenodd"/><path d="M984.12,652.55a2.35,2.35,0,0,1,3.3.42c.59,1.28-1.07,2.42-2.18,2.59-1,.14-1.68.18-2.19-.7s.49-1.48,1.11-1.88Z" style="fill:#29354d;fill-rule:evenodd"/></g><path d="M961.71,729.8,870.81,731c-2.36-11.87,0-30.69,0-30.69a472.7,472.7,0,0,1,65.53-8.17c24.81-1.25,38.12.57,38.12.57,13.66,48.33,10.38,36.84,10.38,36.84" style="fill:#aa5036;fill-rule:evenodd"/><path d="M885.41,730.76a228.18,228.18,0,0,1,0-33.18l.8,0a229.91,229.91,0,0,0,0,33.14Z" style="fill:#7c1338"/><polygon points="919.69 730.44 915.43 693.67 916.22 693.58 920.46 730.44 919.69 730.44" style="fill:#7c1338"/><path d="M961.71,729.8l-.47,0c0-17.77-5.27-39.75-5.44-40.7l.78-.14C956.75,689.89,961.71,712,961.71,729.8Z" style="fill:#7c1338"/><path d="M974.46,692.66s-13.31-1.82-38.12-.57c2.71,3.51,15,12.49,25.37,37.71l17.53-.73C978.65,711,978.75,707.81,974.46,692.66Z" style="fill:#66044f;fill-rule:evenodd;opacity:0.4;mix-blend-mode:multiply"/><path d="M1027.69,534.05c-2,4.36-37.31,19.66-40.67,23.8s-24.84,45-34.7,46.71-14.57-53.46-14.57-53.46-9.54-10-12.65-15.57l4.62-3.36s2.07-8,2.51-9.36,10.45-7.44,10.45-7.44c-5.5,15.57,6.66,30.2,6.66,30.2s.6,36.27,6.85,36.59,18.93-34.42,18.93-34.42,42.46-17.46,44-24.4-1.16-14.91-1.16-14.91h5.15s2.32,2.67,6.09,6.78C1029.23,515.21,1029.67,529.69,1027.69,534.05Z" style="fill:#ab9096;fill-rule:evenodd"/><path d="M949.34,545.56s-10.11-12.39-14.57-20.82l7.91-9.37S941.31,532.67,949.34,545.56Z" style="fill:#7c525a;fill-rule:evenodd"/><path d="M762.67,732.32c3-10.39,4.92-12.44,15.31-27.32a299.23,299.23,0,0,0,17.28-27.67c44.81,12,61.07,36.21,61.07,36.21s-6.5,10.19-11.15,17.7Z" style="fill:#ff8e65"/><path d="M762.67,732.32c3.49-10.58,4.92-12.44,15.31-27.32a299.23,299.23,0,0,0,17.28-27.67c44.81,12,61.07,36.21,61.07,36.21s-6.09,9.32-11.15,17.7l-14.59,0a35.83,35.83,0,0,0-11.94-9.61c-12.16-5.61-37.88,2.28-45.93,10.5Z" style="fill-rule:evenodd;opacity:0.58;mix-blend-mode:multiply;fill:url(#Áåçûìÿííûé_ãðàäèåíò_133)"/><path d="M830.56,731.43c-5.27-6.3-13.14-12.52-23.71-11.65a29.1,29.1,0,0,1,30.09,11.5Z" style="fill:#c34854;fill-rule:evenodd"/><path d="M793.74,680s39.79,13.91,55.55,44.53l7-11s-17-27.59-61.07-36.21Z" style="fill:#862043;fill-rule:evenodd"/><path d="M974.19,729.63c-4.3-15.17-8.86-31.76-10.12-33.11-2.23-2.35-18.68-2.23-18.68-2.23.09-.81.22-1.63.37-2.38l.07-.38.4-1.82,0-.13a31,31,0,0,1,2.49-6.59l-3.36-1.76c9.32-2.8,37.58-3.42,39.06-2.54l.56.59,0,.06c2.29,3,8.6,15.67,13.81,26.13a211.17,211.17,0,0,0,14.35,23.6c4.52.85,76-1.46,76-1.46,49.37-35.39,64.91-31,64.91-31a277.27,277.27,0,0,1,11.68,30.29Z" style="fill:#ff8e65"/><path d="M1089.17,727.61c49.37-35.39,64.91-31,64.91-31s7.52,16.13,11.68,30.29l-191.47,2.2c-5.8-20.84-9.66-32-10.22-32.55-2.23-2.35-18.68-2.23-18.68-2.23.09-.81.22-1.63.37-2.38l.07-.38.4-1.82,0-.13s16.62-.81,20.38-1.54,7.16-4,7.16-4c3.87-.47,4.4-2.82,4.4-2.82,2.54.28,6.25-2.54,6.25-2.54l.56.59,0,.06c2.29,3,8.6,15.67,13.81,26.13,5.81,11.59,16.16,23.6,16.16,23.6" style="fill-rule:evenodd;opacity:0.58;mix-blend-mode:multiply;fill:url(#Áåçûìÿííûé_ãðàäèåíò_133-2)"/><path d="M1096.6,727.62s32-25.11,59.51-26.46l-2.12-4.94s-26.88-1.05-64.82,31.39Z" style="fill:#862043;fill-rule:evenodd"/><path d="M948.75,683s22.86.87,24.11,1.89,3.41,12.18,3.41,12.18-1.21-11.13-2.47-13S948.75,683,948.75,683Z" style="fill:#c34854;fill-rule:evenodd"/><path d="M945,540s2.2,39.13,11.22,42.2c0,0-6.85-5.46-6.85-36.6Z" style="fill:#7c525a;fill-rule:evenodd"/><path d="M1166.16,682.82s-41.5-41.27-50.62-58.72l26.63,20S1155.3,669,1166.16,682.82Z" style="fill:#7c2c77;fill-rule:evenodd;opacity:0.4;mix-blend-mode:multiply"/><path d="M1069.89,701c-3.72-36.44,11.21-65.2,24.38-82.91a144.71,144.71,0,0,1,29.79-30l.44.65a144.26,144.26,0,0,0-29.61,29.84c-13.08,17.59-27.9,46.16-24.21,82.34Z" style="fill:#937078"/><path d="M865.38,660.53C849.84,617.33,825.2,599.21,825,599l.46-.65c.25.18,25.09,18.43,40.71,61.88Z" style="fill:#937078"/><path d="M1078.15,676.06s-.67-24.39,11-37.09,21.61,11.7,20.22,26.38-23.4,26-27.17,24.59S1078.15,676.06,1078.15,676.06Z" style="fill:#e15558;fill-rule:evenodd"/><path d="M1113.3,671.64c-5.15-5.15-.69-16.31,2.24-17.35s8.6,7.89,7.1,11.16S1115.43,673.76,1113.3,671.64Z" style="fill:#e15558;fill-rule:evenodd"/><path d="M1078.15,676.06s.68-25.64,11-32.53,17.31,3.15,17.31,3.15-3.81-14.39-12.65-11.25S1078.64,655,1078.15,676.06Z" style="fill:#862043;fill-rule:evenodd"/><path d="M1122.64,663.18s-7.88-8.62-11.56,0C1111.08,663.18,1115.7,641.05,1122.64,663.18Z" style="fill:#862043;fill-rule:evenodd"/><path d="M1017.85,579.34c-2.57,6-8.64,15.23-12.52,17.07-5.31,2.53-25.05,9.14-27,9.82,2.67-.68,35.59-9.17,21.09,1.21-15.12,10.82-50.33,15.23-48.8,12.34,4.92-9.3,66.08-47.41,68.19-45.57C1019.45,574.77,1019,576.78,1017.85,579.34Z" style="fill:#e15558;fill-rule:evenodd"/><path d="M1022.43,594.41c-.45,2.41-4.3,6.69-7.67,8.1-2.56,1-5.82.28-7.94-.64-1.53-.73-2.5-1.53-2.15-1.85,1.91-1.76,14.46-8.33,17.1-7.21A1.29,1.29,0,0,1,1022.43,594.41Z" style="fill:#e15558;fill-rule:evenodd"/><path d="M1017.85,579.34c-27.78,6.85-67.22,40.44-67.22,40.44,4.92-9.3,66.08-47.41,68.19-45.57C1019.45,574.77,1019,576.78,1017.85,579.34Z" style="fill:#862043;fill-rule:evenodd"/><path d="M1022.43,594.41c-9.44-2.12-15.58,7.42-15.58,7.42l0,0c-1.53-.73-2.5-1.53-2.15-1.85,1.91-1.76,14.46-8.33,17.1-7.21A1.29,1.29,0,0,1,1022.43,594.41Z" style="fill:#862043;fill-rule:evenodd"/><path d="M880.14,698.55l17.64-16.94,5.75,1.59s7.34-13.49,9.12-13.69S932.29,680,932.29,680l5-2.68L948.75,683a39.86,39.86,0,0,0-3,8.73l15.46-3.08a10.74,10.74,0,0,1,8,3.52s-.91,10.32-2.61,15.08-25.2,19.63-28.17,20.37-28.71-31.68-28.71-31.68S897.81,695.21,880.14,698.55Z" style="fill:#e4d7d5;fill-rule:evenodd"/><path d="M969.27,692.17s-4,15.06-9.71,18-46.63-16.21-46.63-16.21l-24.31-.3,9.16-12-17.64,16.94,29.65-1,14.21,27,5,5.65,27.85-.35,12-19.72Z" style="fill:#66044f;fill-rule:evenodd;opacity:0.4;mix-blend-mode:multiply"/><path d="M945.78,691.73l-8.19,1.9-15.73-3.69s15.88-8.33,18.56-8.33a51,51,0,0,1,8.33,1.39Z" style="fill:#66044f;fill-rule:evenodd;opacity:0.4;mix-blend-mode:multiply"/><path d="M932.29,680a95.75,95.75,0,0,0-16,9s1.16-15.38-3.65-19.5C912.65,669.51,921,672.49,932.29,680Z" style="fill:#66044f;fill-rule:evenodd;opacity:0.4;mix-blend-mode:multiply"/><path d="M913.3,543.93s21.31,49.94,47.91,44.48,69-34.51,85.37-55.29l-23.44-24.69H1018s-9.76-28.41-11.25-52.7l-34,9.61-29.52,42.35-.55,7.68-10.45,7.44-2.51,9.36Z" style="fill:#6d0475;fill-rule:evenodd;opacity:0.61;mix-blend-mode:multiply"/><path d="M1002.41,455.2c-.06.5-.09,1-.16,1.45a37.33,37.33,0,0,1-2.92,11.77c-4.33,8.95-7.88,10.8-15.67,18.25-8.57,8.16-18.9,14.63-25.24,16.8s-22.77,5.36-25.44,4.89-16-12.15-21.92-24.05c-1.57-3.14-7.82-18.18-10.64-23.83-1.45-2.89-4.77-9.24-7.66-15.36l0,0c-2.77-5.81-5.15-11.43-5.15-13.63,0-3,1.41-4.36,2.54-6a6.37,6.37,0,0,0,1.22-2.64c.6-3.3,0-16.24,0-16.24s-2.7-2.95-4.33-5.05-3.86-5.5-3.42-8.76a5.8,5.8,0,0,1,2.23-3.55c1.16-1.07,2.38-1.82,2.7-2.7a13.47,13.47,0,0,0,.22-2.8c.19-5.84.06-18.62,1.69-21.66,10.18-18.88,31.34-25,50.4-26.13,18.75-1.07,35.39,2.73,37.46,4.11,4.18,2.8,14.29,20.26,18.25,42.05C999.71,399.53,1004.51,433.91,1002.41,455.2Z" style="fill:#ff8e65"/><path d="M961.84,387.91s7.56,9,1.5,17.68c-15.76,6-24.8,12.93-30.36,9.61s-16.67-18.37-16.67-18.37c-4-.19-11.12,6.62-11.12,6.62s.63,15.67-.75,19.22-3.68,6.28-7,6.28-7.28-3.45-7.28-3.45a6.37,6.37,0,0,0,1.22-2.64c.6-3.3,0-16.24,0-16.24s-2.7-2.95-4.33-5.05-3.86-5.5-3.42-8.76a5.8,5.8,0,0,1,2.23-3.55L896,390.58s10.14.69,14.22-1.7,11.31-7.82,11.31-7.82a80.66,80.66,0,0,1,19-1.79C951.26,379.52,961.84,387.91,961.84,387.91Z" style="fill-rule:evenodd;opacity:0.58;mix-blend-mode:multiply;fill:url(#Áåçûìÿííûé_ãðàäèåíò_133-3)"/><path d="M968.09,364.48s.53-10.64-13.19-11.9-29.17,3.68-47.42,18.65c-9.07,7.45-15,10.9-18.74,12.53.19-5.84.06-18.62,1.69-21.66,10.18-18.88,31.34-25,50.4-26.13l35.49,16.42Z" style="fill-rule:evenodd;opacity:0.58;mix-blend-mode:multiply;fill:url(#Áåçûìÿííûé_ãðàäèåíò_133-4)"/><path d="M995.72,437.27s-7.09-1.76-10.08-8.32c0,0,.38-7.94,2.42-20.91,4-25.31-7.57-27.89-20.47-35,0,0,3.58-16.83-6.94-24a1.41,1.41,0,0,0-.41-.28,16.34,16.34,0,0,0-5.25-2.23c-17.3-4.33-22.1,4.65-44.33,12.78-11.47,4.21-18.41,20.48-21.33,22.89l0,0-.53.28c-2.48.41-20.13-9.33-20.73-26.38,0,0,8.8,3.36,15.52.79s10.64-24.4,26.72-33.51c0,0,13.69-1,19.81,0s14.89,4.65,22,7.95c9.73,4.45,26.84,1.63,33.09,6.09s18.34,54.26,20,66.63C1005.21,404.11,993.49,422.51,995.72,437.27Z" style="fill:url(#Áåçûìÿííûé_ãðàäèåíò_290)"/><path d="M984.19,383.76s.06,16.53-2.32,21.83-12.51,16.51-12.51,16.51,2.2,29.06,4.38,44.73-2,26.89-2,26.89,20.91-14.73,30.47-37.07l-5.9-55.48L994,382.54Z" style="fill-rule:evenodd;opacity:0.58;mix-blend-mode:multiply;fill:url(#Áåçûìÿííûé_ãðàäèåíò_133-5)"/><path d="M922.27,380.14s2.28,7.75,8.23,9.14c0,0,18.65-4,31.34-1.39,0,0-.3-7-5.8-10.26,0,0-12.81-4.61-29,2.51l1.64,4a15,15,0,0,1-3.72-4Z" style="fill:url(#Áåçûìÿííûé_ãðàäèåíò_290-2)"/><path d="M901.3,391.56s3.49,3.25,3.87,7.44a19.86,19.86,0,0,1-.35,5.77s-1.51-2.3-7.76-2.9c-3.58-.34-8.45,1.59-8.45,1.59a11.59,11.59,0,0,1-5.07-14.23,21.51,21.51,0,0,1,14.24,2.28l3.47,6.05-2-6.25Z" style="fill:url(#Áåçûìÿííûé_ãðàäèåíò_290-3)"/><path d="M933.24,412.74c1.55.91,6.07,1.56,11.67-.56s9.21-8.24,9-9.86-11.24-7.84-19.06-5.22C928.33,399.28,933.24,412.74,933.24,412.74Z" style="fill:#e4dbff"/><g id="close"><path d="M952.66,401a27.23,27.23,0,0,0-19.88-6.05,27.47,27.47,0,0,0-1.3,7.82S931.48,394.63,952.66,401Z" style="fill:#b83b4c;fill-rule:evenodd"/><path d="M935.26,413.39a10.2,10.2,0,0,0,7.42.68c4.21-1.19,8.66-5.8,10.42-9.3C953.1,404.77,945.36,415.68,935.26,413.39Z" style="fill:#c75967;fill-rule:evenodd"/><path d="M931.47,404.11s-2.65-1.09-3.05-1.79,6.87-7.94,24.24-1.34c0,0-12-4.6-21.1.86Z" style="fill:#6b2430"/><path d="M937.24,399.66s-.3,9.6,6.94,10.39,8.48-9.07,8.48-9.07S942.92,397.49,937.24,399.66Z" style="fill:#6b2430"/><path d="M939.06,404.52a1.08,1.08,0,1,1-1.07-1.07A1.07,1.07,0,0,1,939.06,404.52Z" style="fill:#fff"/></g><path d="M935.26,413.39a10.2,10.2,0,0,0,7.42.68c4.21-1.19,8.66-5.8,10.42-9.3C953.1,404.77,945.36,415.68,935.26,413.39Z" style="fill:#c75967;fill-rule:evenodd"/><path d="M905.24,413.09s0,.39,0,1.05c0,2.21-.19,7.25-.78,8.54-1.32,2.79-8.81,4.69-10.48,1.66-1.16-2.13-1.9-10-1.2-14.9.31-2.06.85-3.53,1.75-3.77C897.44,404.86,904.89,410.45,905.24,413.09Z" style="fill:#e4dbff"/><path d="M1002.41,455.2c-.53,5.43-1.51,10-3.08,13.22-4.33,8.95-7.88,10.8-15.67,18.25-8.57,8.16-18.9,14.63-25.24,16.8s-22.77,5.36-25.44,4.89-16-12.15-21.92-24.05c-1.57-3.14-7.82-18.18-10.64-23.83-1.45-2.89-4.77-9.24-7.66-15.36a231.94,231.94,0,0,1,19.56,21.61c9.08,11.61,26.91-4.46,37-22.77S994,404.11,994,404.11,995.69,433.72,1002.41,455.2Z" style="opacity:0.31;mix-blend-mode:multiply;fill:url(#Áåçûìÿííûé_ãðàäèåíò_14)"/><path d="M905.24,413.09s0,.39,0,1.05c-3.14-5.09-12.42-4.66-12.42-4.66l0,0c.31-2.06.85-3.53,1.75-3.77C897.44,404.86,904.89,410.45,905.24,413.09Z" style="fill:#b83b4c;fill-rule:evenodd"/><path d="M894.42,424.94a4.52,4.52,0,0,0,4.05,2.57c2.89-.05,5.38-4,5.38-4S898.8,427.87,894.42,424.94Z" style="fill:#c75967;fill-rule:evenodd"/><path d="M905.2,414.14s-1.67-3.39-8.11-5.27-7.62,0-7.5.37,3,1.45,3,1.45l.14-.83S899,408.66,905.2,414.14Z" style="fill:#6b2430"/><path d="M936.62,440.62s-2.68-11.77-8.21-13.86-7.92-2.31-10.1-3.29-10.76-2.42-14.46,2-1,20.21-1,20.21.09,2.09,10.46-1.19S936.62,440.62,936.62,440.62Z" style="fill-rule:evenodd;opacity:0.31;mix-blend-mode:multiply;fill:url(#Áåçûìÿííûé_ãðàäèåíò_4)"/><path d="M897.39,410.1s.46,12.65,4.88,12.75c3.14.07,2.93-8.71,2.93-8.71S901.07,409.54,897.39,410.1Z" style="fill:#6b2430"/><path d="M898.46,415.21a1.07,1.07,0,1,1-1.07-1.07A1.07,1.07,0,0,1,898.46,415.21Z" style="fill:#fff"/><path d="M902.84,445.7s3.86-.09,9.91-3.07,10.91-5.95,21.42-6.94c0,0,.1-4.44-3.37-6.73a12.48,12.48,0,0,1,5.82,11.66s-6.57,2.57-9.84,3.66-5.44,3.68-7.19,4.45C914.91,450.81,904.45,447.51,902.84,445.7Z" style="fill:#bd4751;fill-rule:evenodd"/><path d="M922.72,444.51a9,9,0,0,1,3.27-4.64c2.58-1.85,6.2-.76,6.2-.76S925,441.09,922.72,444.51Z" style="fill:#9c254c;fill-rule:evenodd"/><path d="M904.34,445.52a30.6,30.6,0,0,0,8.21-1.45c3.77-1.34,6.51-4.11,9.7-5.83,0,0-5.18,2.06-10.64,4.89S904.34,445.52,904.34,445.52Z" style="fill:#9c254c;fill-rule:evenodd"/><path d="M917.21,436.09c-.67-.28.1-3.13,1.54-3.77s4.56,1.29,4.71,2.08S919.25,436.93,917.21,436.09Z" style="fill:#fff;fill-rule:evenodd;mix-blend-mode:soft-light"/><path d="M917,420.47s-.45-13.66,1.34-17.72C918.31,402.75,918.21,416.75,917,420.47Z" style="fill:#fff;fill-rule:evenodd;mix-blend-mode:soft-light"/><path d="M912.31,462.54s3.74,7.53,4.66,8.2,5.3-.41,5.3-.41,15.08-3.67,16.4-5.41,8.14-11,9.48-16.84C948.15,448.08,931.82,464.14,912.31,462.54Z" style="fill:#e7754c;fill-rule:evenodd"/><path d="M910.37,461.37c5.65,3.65,3.92-1.47,6.6-1.83.64-.09,4.71.44,8.48-.84s3.94-1.7,6.74-3.57,6.87-2.09,16-7.05c0,0-9.22,9.43-25.43,14.33C914,465.06,910.37,461.37,910.37,461.37Z" style="fill:#b1484c;fill-rule:evenodd"/><path d="M922.27,470.33a81.26,81.26,0,0,1,14.52-5.16,32.94,32.94,0,0,0,7-8.28s-3.14,6.5-7,10.07C936.79,467,931.2,467.16,922.27,470.33Z" style="fill:#9f344c;fill-rule:evenodd"/><path d="M970.38,435.89c-3.74,13.69-19.75,17.84-19.75,17.84s-3.17-4.06-5.68-2.86c-25.82,12.46-32.63,11.68-32.63,11.68-7,2.48-7.16,10.83-7.16,10.83-11.78-1.22-17-13.22-17.36-14,4.45,5.62,12.87,6,12.87,6,.79-8.14,7.16-17.62,7.16-17.62l7.5.85c4.28-.82,17.37-7.13,17.37-7.13,10.61-12.43,17.33-9.92,17.33-9.92l-3.45,1.88,0,0c2.76.63,9.39,9.49,9.39,9.49,3.36-.66,13.69-6.72,14.35-7.1A0,0,0,0,0,970.38,435.89Z" style="fill:url(#Áåçûìÿííûé_ãðàäèåíò_290-4)"/><path d="M992.58,421.33s2.79-18.28,13.75-21.7c10.21-3.19,19.11,1.74,20.67,3.66s7.79,17.41,1,33.42c-5.39,12.64-17.05,19.56-24.32,19.55-5.29,0-7.75-5.6-7.75-5.6S990.23,430.26,992.58,421.33Z" style="fill:#ff8e65"/><path d="M1001.9,433.21s3-23.13,9-25.49,11-.5,13.53,3.46,4.19,19.06,0,25.74c0,0,2.46-19.2-1.12-23.82s-11.52-1.81-13.75,0,3.35,5.44,6.82,13.88-.45,15-3.8,15.43-4.59-1.34-3.69-5.56S1005.63,429.18,1001.9,433.21Z" style="fill-rule:evenodd;opacity:0.58;mix-blend-mode:multiply;fill:url(#Áåçûìÿííûé_ãðàäèåíò_133-6)"/><path d="M1002.44,429.68s1.43-9.89,3.45-10.66,8.74,3.88,10,11.3-6.21,11.25-6.7,9.9-1.61-13.34-7.24-7Z" style="fill-rule:evenodd;opacity:0.58;mix-blend-mode:multiply;fill:url(#Áåçûìÿííûé_ãðàäèåíò_133-7)"/><path d="M1002.25,456.65a37.33,37.33,0,0,1-2.92,11.77c-4.33,8.95-7.88,10.8-15.67,18.25-8.57,8.16-18.9,14.63-25.24,16.8s-22.77,5.36-25.44,4.89c0,0,16.86-1.88,37.4-13.78C989.44,483.53,1000.75,459.91,1002.25,456.65Z" style="fill:#c34854;fill-rule:evenodd"/><path d="M960,348.59c-10.59-6.34-32.47-28.32-45.16-20.78s-26.06,54.73-26.06,54.73l.53-.28,0,0c2.92-2.41,9.86-18.68,21.33-22.89,22.23-8.13,27-17.11,44.33-12.78a17.23,17.23,0,0,1,5.12,2.14A.42.42,0,0,0,960,348.59Zm-53.79,9.17c9.54-18.65,25.18-12.81,25.18-12.81C922.27,354.28,906.2,357.76,906.2,357.76Z" style="fill:#680463;fill-rule:evenodd;opacity:0.4;mix-blend-mode:multiply"/><path d="M966.91,357.76s9,12.88,31.59,16l2.26,9A59.84,59.84,0,0,1,968.1,364.5Z" style="fill:#fff;fill-rule:evenodd;opacity:0.5;mix-blend-mode:soft-light"/><path d="M964.22,352.49S983.71,359,994,357.76l-1.69-5.27s-8.84,4.6-29.42-1.57Z" style="fill:#fff;fill-rule:evenodd;opacity:0.5;mix-blend-mode:soft-light"/><path d="M970.38,435.89c-3.74,13.69-19.75,17.84-19.75,17.84s-3.17-4.06-5.68-2.86c-25.82,12.46-32.63,11.68-32.63,11.68-7,2.48-7.16,10.83-7.16,10.83a18.38,18.38,0,0,1,5.21-13l2.92-10.3-1,10.3s17.4-2.57,25.65-7.69l-5-10.24,6.91,9.39s3.08-1.16,6.85-5.49c3.61-4.12.12-12.12-.16-12.82l0,0,8.95,1.89L956,443l-3.33,7.85c.25,0,10.46-.1,17.68-14.95A0,0,0,0,0,970.38,435.89Z" style="fill:#680463;fill-rule:evenodd;opacity:0.4;mix-blend-mode:multiply"/><path d="M962.54,422.47s-.87-5.05,0-5.71,5.47-2.09,6.53-.94S965.69,422.87,962.54,422.47Z" style="fill:#fff;fill-rule:evenodd;mix-blend-mode:soft-light"/><g style="mix-blend-mode:screen"><path d="M905.67,470.34l-.24,1.33c2.42,5.44,4.77,10.88,5.62,12.63,5.92,11.9,19.28,23.63,21.94,24.05a9,9,0,0,0,1.45.06l.84-.42C931.48,506.84,905.67,470.34,905.67,470.34Zm7.86,73.42c-2.42,1.69-5,3.51-7.68,5.38.31-.6.61-1.21,1-1.81l-2.11-1.75v.06c-6.29,6.22-23.45,15.41-23.45,15.41s-.85,2.17-2.06,6.22c-5.68,3.75-10.87,7-14.74,9.06-18.19,9.85-38.25,19.76-39.28,22.36l-.24.37.12.06c-1,3.62-2.78,21.75-5.8,35.29-2.18,9.42-15.83,25.5-24.54,35.11l-2.47,2.66c-2.72,2.9-5,5.13-5,5.13l11.12-.78,18-11.24,16-60.67,57.23-34.09L931.48,534l.72-11.24c-.42,1.33-2.48,9.37-2.48,9.37ZM888.75,382.54v1.2a16.45,16.45,0,0,1-.24,2.84c-.24.73-1.27,1.45-2.3,2.3a18.78,18.78,0,0,0-2.65.36,11.47,11.47,0,0,0,5,14.14c1.39,1.7,2.84,3.27,2.84,3.27s0,.6.06,1.45c-1.51.24-1.87.9-1.81,1.15s1,.66,1.87,1c.12,4.05.24,10.4-.12,12.57a7,7,0,0,1-1.21,2.66c-1.15,1.57-2.6,3-2.54,6,0,2.18,2.36,7.8,5.14,13.6v.06c2.9,6.1,6.22,12.45,7.68,15.35l.84,1.69a20.84,20.84,0,0,0-.6,3.27s-8.4-.43-12.87-6.05c.3.79,5.62,12.75,17.4,14l-2.06-16.74c-7.31-10.75-10.39-30.76-10.39-30.76V409.43l-2-6.65c-2.3-4.35-.06-12.87-.06-12.87l-1.09-9.07-3.45-9c8.59-8.7,9.43-32.21,22.3-42.66,8.34-6.77,27.5-3,40,.54-6.29-2.78-13.24-5.5-18.37-6.29-6.11-1-19.83,0-19.83,0-16.07,9.13-20,30.95-26.7,33.54s-15.54-.78-15.54-.78C868.63,373.23,886.27,383,888.75,382.54ZM792.19,682.75c-3,5.08-7.92,13.3-14.21,22.24-10.39,14.87-12.75,18.64-15.31,27.33l10.05-.15a21.34,21.34,0,0,1,2.3-2L793.76,680l-2.06,2.24Z" style="fill:#ffb864;fill-rule:evenodd;opacity:0.45;mix-blend-mode:color"/><path d="M948.46,329.72c-12.51-3.51-31.67-7.31-40-.54-12.87,10.45-13.71,34-22.3,42.66l3.45,9,1.09,9.07s-2.24,8.52.06,12.87l2,6.65v16.43s3.08,20,10.39,30.76l2.06,16.74c-11.78-1.21-17.1-13.17-17.4-14,4.47,5.62,12.87,6.05,12.87,6.05a20.84,20.84,0,0,1,.6-3.27l-.84-1.69c-1.46-2.9-4.78-9.25-7.68-15.35v-.06c-2.78-5.8-5.14-11.42-5.14-13.6-.06-3,1.39-4.41,2.54-6a7,7,0,0,0,1.21-2.66c.36-2.17.24-8.52.12-12.57-.84-.36-1.81-.78-1.87-1s.3-.91,1.81-1.15c-.06-.85-.06-1.45-.06-1.45s-1.45-1.57-2.84-3.27a11.47,11.47,0,0,1-5-14.14,18.78,18.78,0,0,1,2.65-.36c1-.85,2.06-1.57,2.3-2.3a16.45,16.45,0,0,0,.24-2.84v-1.2c-2.48.42-20.12-9.31-20.73-26.35,0,0,8.83,3.32,15.54.78s10.63-24.41,26.7-33.54c0,0,13.72-1,19.83,0C935.22,324.22,942.17,326.94,948.46,329.72Z" style="fill:#ffb864;fill-rule:evenodd"/><path d="M935.28,508l-.84.42a9,9,0,0,1-1.45-.06c-2.66-.42-16-12.15-21.94-24.05-.85-1.75-3.2-7.19-5.62-12.63l.24-1.33S931.48,506.84,935.28,508Z" style="fill:#ffb864;fill-rule:evenodd"/><path d="M932.2,522.79,931.48,534l-41.88,36.5-57.23,34.09-16,60.67-18,11.24-11.12.78s2.24-2.23,5-5.13l2.47-2.66c8.71-9.61,22.36-25.69,24.54-35.11,3-13.54,4.83-31.67,5.8-35.29l-.12-.06.24-.37c1-2.6,21.09-12.51,39.28-22.36,3.87-2.11,9.06-5.31,14.74-9.06,1.21-4,2.06-6.22,2.06-6.22s17.16-9.19,23.45-15.41v-.06l2.11,1.75c-.36.6-.66,1.21-1,1.81,2.72-1.87,5.26-3.69,7.68-5.38l16.19-11.6S931.78,524.12,932.2,522.79Z" style="fill:#ffb864;fill-rule:evenodd"/></g></g></g></svg>