<svg xmlns="http://www.w3.org/2000/svg" xmlns:xlink="http://www.w3.org/1999/xlink" viewBox="0 0 513.53 543.6"><defs><style>.cls-1{isolation:isolate;}.cls-10,.cls-11,.cls-12,.cls-13,.cls-14,.cls-15,.cls-19,.cls-2,.cls-20,.cls-21,.cls-22,.cls-23,.cls-24,.cls-25,.cls-26,.cls-27,.cls-28,.cls-29,.cls-3,.cls-30,.cls-32,.cls-34,.cls-35,.cls-4,.cls-5,.cls-6,.cls-7,.cls-8,.cls-9{fill-rule:evenodd;}.cls-2{fill:url(#Áåçûìÿííûé_ãðàäèåíò_377);}.cls-3{fill:#721332;}.cls-4{fill:#8b2032;}.cls-5{fill:#a75c73;}.cls-6{fill:#3a2f66;}.cls-7{fill:#812248;}.cls-8{fill:url(#Áåçûìÿííûé_ãðàäèåíò_368);}.cls-9{fill:#c4434a;}.cls-10{fill:url(#Áåçûìÿííûé_ãðàäèåíò_368-2);}.cls-11{fill:url(#Áåçûìÿííûé_ãðàäèåíò_405);}.cls-12{fill:#bd2a4a;}.cls-13{fill:url(#Áåçûìÿííûé_ãðàäèåíò_368-3);}.cls-14{fill:url(#Áåçûìÿííûé_ãðàäèåíò_368-4);}.cls-15{fill:#ff5f4a;}.cls-16{fill:url(#Áåçûìÿííûé_ãðàäèåíò_389);}.cls-17,.cls-21,.cls-22,.cls-26,.cls-27,.cls-29,.cls-34,.cls-35{mix-blend-mode:multiply;}.cls-17,.cls-21,.cls-22,.cls-34,.cls-35{opacity:0.8;}.cls-17{fill:url(#Áåçûìÿííûé_ãðàäèåíò_149);}.cls-18{fill:url(#Áåçûìÿííûé_ãðàäèåíò_254);}.cls-19,.cls-20{fill:#fff;}.cls-19{mix-blend-mode:soft-light;}.cls-21{fill:url(#Áåçûìÿííûé_ãðàäèåíò_149-2);}.cls-22{fill:url(#Áåçûìÿííûé_ãðàäèåíò_149-3);}.cls-23{fill:#ffc71f;}.cls-24{fill:#b84525;}.cls-25{fill:#a63931;}.cls-26,.cls-27{fill:#8275a0;}.cls-26{opacity:0.2;}.cls-27{opacity:0.4;}.cls-28{fill:#781d3b;}.cls-29{opacity:0.6;fill:url(#Áåçûìÿííûé_ãðàäèåíò_149-4);}.cls-30{fill:url(#Áåçûìÿííûé_ãðàäèåíò_419);}.cls-31{fill:url(#Áåçûìÿííûé_ãðàäèåíò_405-2);}.cls-32{fill:url(#Áåçûìÿííûé_ãðàäèåíò_419-2);}.cls-33{fill:url(#Áåçûìÿííûé_ãðàäèåíò_405-3);}.cls-34{fill:url(#Áåçûìÿííûé_ãðàäèåíò_149-5);}.cls-35{fill:url(#Áåçûìÿííûé_ãðàäèåíò_149-6);}</style><radialGradient id="Áåçûìÿííûé_ãðàäèåíò_377" cx="396.74" cy="-376.44" r="217.58" gradientTransform="translate(-8.69 673.96) rotate(-22.65)" gradientUnits="userSpaceOnUse"><stop offset="0" stop-color="#e3522f"/><stop offset="0.96" stop-color="#a72a2e"/></radialGradient><radialGradient id="Áåçûìÿííûé_ãðàäèåíò_368" cx="220.08" cy="-239.35" r="33.77" gradientTransform="translate(-8.69 673.96) rotate(-22.65)" gradientUnits="userSpaceOnUse"><stop offset="0" stop-color="#ffc827"/><stop offset="1" stop-color="#ff741f"/></radialGradient><radialGradient id="Áåçûìÿííûé_ãðàäèåíò_368-2" cx="235.62" cy="-435.78" r="28.44" xlink:href="#Áåçûìÿííûé_ãðàäèåíò_368"/><radialGradient id="Áåçûìÿííûé_ãðàäèåíò_405" cx="596.38" cy="-208.97" r="56.86" gradientTransform="translate(-8.69 673.96) rotate(-22.65)" gradientUnits="userSpaceOnUse"><stop offset="0" stop-color="#ffc827"/><stop offset="0.97" stop-color="#ff741f"/></radialGradient><radialGradient id="Áåçûìÿííûé_ãðàäèåíò_368-3" cx="551.85" cy="-493.74" r="36.1" xlink:href="#Áåçûìÿííûé_ãðàäèåíò_368"/><radialGradient id="Áåçûìÿííûé_ãðàäèåíò_368-4" cx="401.03" cy="-286.48" r="98.05" xlink:href="#Áåçûìÿííûé_ãðàäèåíò_368"/><radialGradient id="Áåçûìÿííûé_ãðàäèåíò_389" cx="400.75" cy="-312.48" r="71.74" gradientTransform="matrix(1, 0, 0, 1, -176.59, 547.37)" gradientUnits="userSpaceOnUse"><stop offset="0" stop-color="#7effbc"/><stop offset="0.57" stop-color="#5ba3d1"/><stop offset="1" stop-color="#7a5e89"/></radialGradient><linearGradient id="Áåçûìÿííûé_ãðàäèåíò_149" x1="329.78" y1="-346.57" x2="470.23" y2="-346.57" gradientTransform="matrix(1, 0, 0, 1, -173, 546.65)" gradientUnits="userSpaceOnUse"><stop offset="0" stop-color="#c77cbd"/><stop offset="1" stop-color="#974577"/></linearGradient><radialGradient id="Áåçûìÿííûé_ãðàäèåíò_254" cx="409.04" cy="1397.09" r="78.97" gradientTransform="matrix(1, 0, 0, 0.8, -180.27, -964.37)" gradientUnits="userSpaceOnUse"><stop offset="0" stop-color="#00ff91"/><stop offset="1" stop-color="#00c7ef"/></radialGradient><linearGradient id="Áåçûìÿííûé_ãðàäèåíò_149-2" x1="191.73" y1="-391.13" x2="250.37" y2="-391.13" gradientTransform="translate(-8.69 673.96) rotate(-22.65)" xlink:href="#Áåçûìÿííûé_ãðàäèåíò_149"/><linearGradient id="Áåçûìÿííûé_ãðàäèåíò_149-3" x1="172.71" y1="-183.58" x2="236.14" y2="-183.58" gradientTransform="translate(-8.69 673.96) rotate(-22.65)" xlink:href="#Áåçûìÿííûé_ãðàäèåíò_149"/><linearGradient id="Áåçûìÿííûé_ãðàäèåíò_149-4" x1="463.62" y1="-439.89" x2="566.24" y2="-439.89" gradientTransform="translate(-8.69 673.96) rotate(-22.65)" xlink:href="#Áåçûìÿííûé_ãðàäèåíò_149"/><linearGradient id="Áåçûìÿííûé_ãðàäèåíò_419" x1="303.44" y1="-18.74" x2="303.44" y2="-119.06" gradientTransform="translate(-8.69 673.96) rotate(-22.65)" gradientUnits="userSpaceOnUse"><stop offset="0" stop-color="#c2132d"/><stop offset="0.96" stop-color="#8e0a2e"/></linearGradient><radialGradient id="Áåçûìÿííûé_ãðàäèåíò_405-2" cx="302.65" cy="-73.83" r="40.48" xlink:href="#Áåçûìÿííûé_ãðàäèåíò_405"/><linearGradient id="Áåçûìÿííûé_ãðàäèåíò_419-2" x1="-933.55" y1="-30.51" x2="-933.55" y2="-130.83" gradientTransform="matrix(-0.92, 0.39, 0.39, 0.92, -369.5, 824.8)" xlink:href="#Áåçûìÿííûé_ãðàäèåíò_419"/><radialGradient id="Áåçûìÿííûé_ãðàäèåíò_405-3" cx="-934.35" cy="-85.6" r="40.48" gradientTransform="matrix(-0.92, 0.39, 0.39, 0.92, -369.5, 824.8)" xlink:href="#Áåçûìÿííûé_ãðàäèåíò_405"/><linearGradient id="Áåçûìÿííûé_ãðàäèåíò_149-5" x1="272.47" y1="-93" x2="347.67" y2="-93" gradientTransform="translate(-8.69 673.96) rotate(-22.65)" xlink:href="#Áåçûìÿííûé_ãðàäèåíò_149"/><linearGradient id="Áåçûìÿííûé_ãðàäèåíò_149-6" x1="494.59" y1="-97.21" x2="565.42" y2="-97.21" gradientTransform="translate(-8.69 673.96) rotate(-22.65)" xlink:href="#Áåçûìÿííûé_ãðàäèåíò_149"/></defs><g class="cls-1"><g id="Calque_2" data-name="Calque 2"><g id="game"><path class="cls-2" d="M96.08,459.52,0,154.19s73.61-43.81,151.8-76.43C253,35.54,324.92,8.89,324.92,8.89L497.5,292Z"/><path class="cls-3" d="M96.08,459.52S117.22,517,174,525.2l335.4-140-.58-17.92-44.29-61.52Z"/><polygon class="cls-3" points="497.5 292.03 500.49 310.02 104.08 475.42 96.08 459.52 497.5 292.03"/><polygon class="cls-4" points="508.77 367.33 173.02 511 175.78 504.32 487.56 337.88 508.77 367.33"/><path class="cls-5" d="M487.17,315.57s-3.25,23.05,7.83,52.91L175.78,504.32s-36.38-7.86-49.68-38.09Z"/><path class="cls-6" d="M126.1,466.23l8-3.34s13,27.86,43.62,40.62L174.19,505S136.29,497.17,126.1,466.23Z"/><polygon class="cls-7" points="134.55 443.47 32.06 135.99 34.71 134.51 140.69 440.91 134.55 443.47"/><path class="cls-8" d="M128.52,389.56l-8.07-21L64,382.68s3.15,22.46,6.39,31.13c5.39,14.46,12.48,30,25.67,45.71L83,419.15,127,400.3Z"/><path class="cls-9" d="M128.52,389.56,70.41,413.81s10.15,27.92,25.67,45.71l-11.14-40L127,400.3Z"/><path class="cls-10" d="M62.52,194.43l-7.43-19.32L4.57,194.89A56.23,56.23,0,0,0,8.33,215c5.17,13.13,13.44,30.88,24.32,43.83L20.56,221.68l40.58-17.36Z"/><path class="cls-9" d="M62.52,194.43,9,216.76s9.36,25.72,23.66,42.11L22.38,222l38.76-17.66Z"/><path class="cls-11" d="M377.35,331.26l10.82,30.89L510.94,296l-54.33-80.62-18.5,7.72s20.09,31.62,12,56S377.35,331.26,377.35,331.26Z"/><path class="cls-12" d="M510.94,296,506.2,312.9l-118,49.25-10.82-30.89,7.29,17.48S455.08,327.45,510.94,296Z"/><path class="cls-9" d="M438.11,223.14,442,238.77s12.64,27.24,7.07,43C449.05,281.73,463.23,260.48,438.11,223.14Z"/><path class="cls-13" d="M225.34,39.68l10.81,16S286.84,30,310,33.47s46,43.36,46,43.36L372.47,70,327.41,0Z"/><path class="cls-12" d="M372.47,70l1.31,19.08L369,81.23l-12,5s-25.41-41.82-48.15-46S238,61.12,238,61.12l-9.78-14.61-4.3,1.8,1.45-8.63,10.81,16s47.71-27.75,75.65-21.84c24.85,5.26,44.22,43,44.22,43Z"/><path class="cls-12" d="M405.65,411.46l7.25,17.39,100.15-41.79.48-23.67-26.22-27.87s2.63,22.41,7.69,33l-91.11,38.77Z"/><path class="cls-14" d="M196.27,126.41c-57.52,24-90.26,76.74-73.13,117.8s77.65,54.89,135.18,30.89,90.26-76.74,73.13-117.81S253.8,102.4,196.27,126.41Zm59.35,142.22c-53.73,22.42-110.26,9.5-126.27-28.85s14.59-87.62,68.32-110,110.25-9.5,126.26,28.85S309.35,246.21,255.62,268.63Z"/><path class="cls-15" d="M405.65,411.46l107.88-48.07-26.22-27.87s4.5,29.1,7.69,33l-91.11,38.77Z"/><ellipse class="cls-16" cx="223.41" cy="191.45" rx="82.58" ry="58.94" transform="translate(-56.49 100.79) rotate(-22.65)"/><ellipse class="cls-17" cx="227.01" cy="200.06" rx="70.23" ry="66.78" transform="translate(-59.53 102.84) rotate(-22.65)"/><ellipse class="cls-18" cx="222.44" cy="182.31" rx="70.23" ry="50.13" transform="translate(-53.05 99.71) rotate(-22.65)"/><path class="cls-19" d="M170.76,213.42S174,198,202,196.85,243.44,225,243.44,225,185.85,240.32,170.76,213.42Z"/><path class="cls-20" d="M255.67,138c-.32,2.46-6,3.75-12.64,2.89s-11.81-3.55-11.5-6,6-3.76,12.65-2.9S256,135.57,255.67,138Z"/><path class="cls-21" d="M62.52,194.43l-1.38,9.89-34,34.62,5.55,19.93S13.31,235,9,216.76Z"/><path class="cls-22" d="M128.52,389.56,127,400.3l-36.3,39.94,5.36,19.28s-16.41-16.93-25.67-45.71Z"/><path class="cls-23" d="M320.57,37.05,339,18,358,47.43,343.82,58.06S331.14,40.62,320.57,37.05Z"/><path class="cls-23" d="M449.05,281.73l51.1-1.71L480,250.16l-27.51,7.31S454.89,273.39,449.05,281.73Z"/><polygon class="cls-24" points="153.3 435.65 169.87 425.76 232.71 396.09 284.59 380.87 259.11 398.3 153.3 435.65"/><polygon class="cls-24" points="299.8 374.52 305.81 365.59 347.22 354.92 319.53 367.89 299.8 374.52"/><polygon class="cls-25" points="289.09 461.34 301.37 454.97 340.65 438.58 346.46 437.4 332.36 446.59 290.63 461.73 289.09 461.34"/><path class="cls-26" d="M155.29,379.77c1.25-6.16,24.67-32,37-35.43s21.12,21.59,22.38,27-35.38,23.49-45.2,21.53S154.64,383,155.29,379.77Z"/><path class="cls-26" d="M228.8,351.06c-3.14,4.65,13.78,12.11,18.49,11.26s5.5-17.18,4-20.67S233.67,343.84,228.8,351.06Z"/><path class="cls-26" d="M105.74,146.39c-3,2.82,5.68,6.61,9.24,5.14,6.65-2.75,9.85-11.17,9.16-12.82S110.34,142,105.74,146.39Z"/><path class="cls-27" d="M128.86,140.41c-1-12,34.58-37.51,44.08-38.71s25,2,26.07,4.62-12.59,17.48-31.61,25.35S128.86,140.41,128.86,140.41Z"/><polygon class="cls-28" points="372.58 87.1 389.82 131.1 399.66 135.12 404.53 146.8 448.67 218.74 451.98 217.35 372.58 87.1"/><path class="cls-29" d="M354.71,74.42,357,86.25s-25.71-31-47.78-35.72S238,61.12,238,61.12l-1.82-5.46s50-30.07,77.89-21.28C336.63,41.5,354.71,74.42,354.71,74.42Z"/><path class="cls-30" d="M210.47,453.5s-5.16,33.69,9.39,82.79l35.19,7.31,29.67-34.37S264.83,465.72,262,432Z"/><path class="cls-31" d="M251.33,534.71l-.22,0-29-3.22-.07-.28c-12.13-47.88-6.08-79.93-6-80.25l.82.16c-.06.32-6,32.07,5.94,79.6L251,533.82,272.3,509c-1.4-3.68-18.4-49.2-16.19-74.71l.84.07c-2.28,26.28,16,74.1,16.22,74.57l.1.24-.17.19Z"/><path class="cls-32" d="M456.73,338.27s27.58,20,52.24,64.92l-19.56,30.15-45.3-3.09s-16.93-44.74-38.88-70.49Z"/><path class="cls-33" d="M485.71,424.45l-.23,0L452.09,422l-.1-.23c-.21-.47-21.31-47.13-41.59-64l.54-.65c19.69,16.37,40.07,60.47,41.71,64.06l32.67,2.35L503,401.32c-25.36-41.95-52.14-60-52.4-60.21l.46-.7c.27.18,27.3,18.43,52.81,60.72l.15.25-.18.23Z"/><path class="cls-34" d="M210.92,492.71l62.86-11.28.64,1.85,8.15-3.4L277,466.51l1.95-6.09L262,432l-51.5,21.49S207.64,476,210.92,492.71Z"/><path class="cls-35" d="M468.09,348.27l-53,24.73S431.16,397.55,439,418l-13.68,5.71-6.21-18.2-5-2.57-8.91-43.13,51.5-21.49S464.65,344.81,468.09,348.27Z"/></g></g></g></svg>