<svg xmlns="http://www.w3.org/2000/svg" xmlns:xlink="http://www.w3.org/1999/xlink" viewBox="0 0 45.51 46.11"><defs><style>.cls-1{isolation:isolate;}.cls-2{opacity:0.65;fill:url(#Áåçûìÿííûé_ãðàäèåíò_75);}.cls-3{fill:#79ff8e;}.cls-4,.cls-5{fill:#fff;fill-rule:evenodd;}.cls-5{mix-blend-mode:soft-light;}</style><radialGradient id="Áåçûìÿííûé_ãðàäèåíò_75" cx="3185" cy="730.32" r="25.42" gradientTransform="matrix(-0.67, -0.74, 0.74, -0.67, 1629.01, 2873.09)" gradientUnits="userSpaceOnUse"><stop offset="0.03" stop-color="#06ffff"/><stop offset="0.15" stop-color="#05f1ef"/><stop offset="0.4" stop-color="#04ccc5"/><stop offset="0.74" stop-color="#019081"/><stop offset="0.85" stop-color="#007c6a"/><stop offset="0.97" stop-color="#00ec45"/></radialGradient></defs><g class="cls-1"><g id="Calque_2" data-name="Calque 2"><g id="game"><circle class="cls-2" cx="22.92" cy="22.91" r="22.23" transform="translate(-1.3 1.38) rotate(-3.34)"/><path class="cls-3" d="M6.94,7.31A24,24,0,0,1,22.64,0a21.06,21.06,0,0,1,8.87,1.4,22.09,22.09,0,0,1,7.53,5,23.36,23.36,0,0,1,6.47,16.24,24.13,24.13,0,0,1-6.27,16.2,22.47,22.47,0,0,1-16,7.28,22.91,22.91,0,0,1-16.58-6.5A22.1,22.1,0,0,1,0,23.19,24,24,0,0,1,6.94,7.31Zm.15.15A20.68,20.68,0,0,0,1.37,23.17,22.57,22.57,0,0,0,8.16,38a21.73,21.73,0,0,0,15,6.14A22.16,22.16,0,0,0,38.43,38a20.64,20.64,0,0,0,6.36-15.4,21.21,21.21,0,0,0-6.94-15A23.52,23.52,0,0,0,22.66,1.33,20.69,20.69,0,0,0,7.09,7.46Z"/><path class="cls-4" d="M30.55,39.07l-2.13-3.6a119.65,119.65,0,0,1-13,.48l.7,4.49S22.57,45.39,30.55,39.07Z"/><path class="cls-5" d="M31.72,7.67l0-3.57S23.83.7,16.73,3.43L16.26,5S21.77,4.38,31.72,7.67Z"/></g></g></g></svg>