<svg xmlns="http://www.w3.org/2000/svg" xmlns:xlink="http://www.w3.org/1999/xlink" viewBox="0 0 271.26 269.04"><defs><style>.cls-1{isolation:isolate;}.cls-2{fill:#4f3d70;}.cls-10,.cls-11,.cls-12,.cls-13,.cls-14,.cls-15,.cls-16,.cls-17,.cls-18,.cls-19,.cls-2,.cls-21,.cls-22,.cls-23,.cls-24,.cls-25,.cls-26,.cls-27,.cls-28,.cls-3,.cls-33,.cls-34,.cls-35,.cls-36,.cls-4,.cls-5,.cls-6,.cls-7,.cls-8,.cls-9{fill-rule:evenodd;}.cls-3{fill:#3a2a5d;}.cls-4{fill:url(#Áåçûìÿííûé_ãðàäèåíò_31);}.cls-29,.cls-5{fill:#3a2f66;}.cls-6{fill:url(#Áåçûìÿííûé_ãðàäèåíò_7);}.cls-7{fill:#9e98bb;}.cls-8{fill:url(#Áåçûìÿííûé_ãðàäèåíò_7-2);}.cls-9{fill:#009f91;}.cls-10{fill:url(#Áåçûìÿííûé_ãðàäèåíò_254);}.cls-11{fill:#9e9889;}.cls-11,.cls-20,.cls-28{mix-blend-mode:soft-light;}.cls-12{fill:#bebad3;}.cls-13{fill:url(#Áåçûìÿííûé_ãðàäèåíò_27);}.cls-14{fill:url(#Áåçûìÿííûé_ãðàäèåíò_27-2);}.cls-15{fill:url(#Áåçûìÿííûé_ãðàäèåíò_27-3);}.cls-16{fill:url(#Áåçûìÿííûé_ãðàäèåíò_27-4);}.cls-17{fill:url(#Áåçûìÿííûé_ãðàäèåíò_27-5);}.cls-18{fill:url(#Áåçûìÿííûé_ãðàäèåíò_27-6);}.cls-19{fill:url(#Áåçûìÿííûé_ãðàäèåíò_27-7);}.cls-21{fill:#858d95;}.cls-22,.cls-28{fill:#9aa1b4;}.cls-23{fill:#81659a;}.cls-24{fill:#6746b3;}.cls-24,.cls-35{mix-blend-mode:multiply;}.cls-24,.cls-27,.cls-35{opacity:0.5;}.cls-25{fill:url(#Áåçûìÿííûé_ãðàäèåíò_60);}.cls-26{fill:url(#Áåçûìÿííûé_ãðàäèåíò_7-3);}.cls-27{fill:#360a59;}.cls-30{fill:url(#Áåçûìÿííûé_ãðàäèåíò_254-2);}.cls-31{fill:url(#Áåçûìÿííûé_ãðàäèåíò_254-3);}.cls-32{fill:url(#Áåçûìÿííûé_ãðàäèåíò_254-4);}.cls-33{fill:url(#Áåçûìÿííûé_ãðàäèåíò_109);}.cls-34{fill:#55134c;}.cls-35{fill:#9583b5;}.cls-36{fill:#8579a3;}</style><radialGradient id="Áåçûìÿííûé_ãðàäèåíò_31" cx="48.98" cy="7499.48" r="193.03" gradientTransform="matrix(0.94, -0.35, 0.17, 0.47, -1169.18, -3405.31)" gradientUnits="userSpaceOnUse"><stop offset="0" stop-color="#938ea6"/><stop offset="0.19" stop-color="#6f6387"/><stop offset="0.84" stop-color="#4f2f64"/><stop offset="0.98" stop-color="#694a7a"/></radialGradient><radialGradient id="Áåçûìÿííûé_ãðàäèåíò_7" cx="28.8" cy="16419.46" r="67.43" gradientTransform="matrix(0.94, -0.35, 0.11, 0.3, -1700.92, -4847.9)" gradientUnits="userSpaceOnUse"><stop offset="0" stop-color="#787291"/><stop offset="1" stop-color="#694a7a"/></radialGradient><radialGradient id="Áåçûìÿííûé_ãðàäèåíò_7-2" cx="683.22" cy="-335.7" r="29.63" gradientTransform="matrix(-0.94, 0.35, 0.35, 0.94, 994.81, 245.75)" xlink:href="#Áåçûìÿííûé_ãðàäèåíò_7"/><radialGradient id="Áåçûìÿííûé_ãðàäèåíò_254" cx="3.3" cy="-485.26" r="51.15" gradientTransform="translate(273.4 512.3) rotate(-20.22)" gradientUnits="userSpaceOnUse"><stop offset="0" stop-color="#00ff91"/><stop offset="1" stop-color="#00c7ef"/></radialGradient><radialGradient id="Áåçûìÿííûé_ãðàäèåíò_27" cx="-69.15" cy="-418.44" r="8.47" gradientTransform="translate(273.4 512.3) rotate(-20.22)" gradientUnits="userSpaceOnUse"><stop offset="0" stop-color="#4f3469"/><stop offset="1" stop-color="#462c64"/></radialGradient><radialGradient id="Áåçûìÿííûé_ãðàäèåíò_27-2" cx="-60.51" cy="-414.5" r="3.63" xlink:href="#Áåçûìÿííûé_ãðàäèåíò_27"/><radialGradient id="Áåçûìÿííûé_ãðàäèåíò_27-3" cx="-81.9" cy="-357.77" r="5.16" xlink:href="#Áåçûìÿííûé_ãðàäèåíò_27"/><radialGradient id="Áåçûìÿííûé_ãðàäèåíò_27-4" cx="-75.98" cy="-358.84" r="1.18" xlink:href="#Áåçûìÿííûé_ãðàäèåíò_27"/><radialGradient id="Áåçûìÿííûé_ãðàäèåíò_27-5" cx="86.73" cy="-358.78" r="7.57" xlink:href="#Áåçûìÿííûé_ãðàäèåíò_27"/><radialGradient id="Áåçûìÿííûé_ãðàäèåíò_27-6" cx="77.28" cy="-354.53" r="2.16" xlink:href="#Áåçûìÿííûé_ãðàäèåíò_27"/><radialGradient id="Áåçûìÿííûé_ãðàäèåíò_27-7" cx="-84.45" cy="-349.12" r="10.17" xlink:href="#Áåçûìÿííûé_ãðàäèåíò_27"/><linearGradient id="Áåçûìÿííûé_ãðàäèåíò_60" x1="123.5" y1="-405.85" x2="123.5" y2="-481.57" gradientTransform="translate(273.4 512.3) rotate(-20.22)" gradientUnits="userSpaceOnUse"><stop offset="0" stop-color="#361b5a"/><stop offset="1" stop-color="#654d7c"/></linearGradient><radialGradient id="Áåçûìÿííûé_ãðàäèåíò_7-3" cx="123.74" cy="-476.16" r="29.14" gradientTransform="translate(273.4 512.3) rotate(-20.22)" xlink:href="#Áåçûìÿííûé_ãðàäèåíò_7"/><radialGradient id="Áåçûìÿííûé_ãðàäèåíò_254-2" cx="-35.18" cy="-375.49" r="34" xlink:href="#Áåçûìÿííûé_ãðàäèåíò_254"/><radialGradient id="Áåçûìÿííûé_ãðàäèåíò_254-3" cx="-38.37" cy="-373.92" r="25.37" xlink:href="#Áåçûìÿííûé_ãðàäèåíò_254"/><radialGradient id="Áåçûìÿííûé_ãðàäèåíò_254-4" cx="-37.27" cy="-378.95" r="10.98" xlink:href="#Áåçûìÿííûé_ãðàäèåíò_254"/><linearGradient id="Áåçûìÿííûé_ãðàäèåíò_109" x1="-55.71" y1="-485.6" x2="-55.71" y2="-568.94" gradientTransform="translate(273.4 512.3) rotate(-20.22)" gradientUnits="userSpaceOnUse"><stop offset="0" stop-color="#27caa4"/><stop offset="0.59" stop-color="#7c415b"/><stop offset="1" stop-color="#8c3832"/></linearGradient></defs><g class="cls-1"><g id="Calque_2" data-name="Calque 2"><g id="game"><path class="cls-2" d="M44.21,145.61s-6.31-15.89-15.83-14.36c-4.2.67-12.31,6.31-11.48,12.35.93,6.8,25.77,11.85,25.77,11.85s4.73,1.55,3,8.21c0,0-36.94,7-45.24-11.6a52,52,0,0,1,23.29-51c14.41,1,30.81,25.86,30.81,25.86C61.17,139.36,44.21,145.61,44.21,145.61Z"/><path class="cls-3" d="M44.21,145.61s-6.31-15.89-15.83-14.36c-4.2.67-12.31,6.31-11.48,12.35.93,6.8,25.77,11.85,25.77,11.85s4.73,1.55,3,8.21c0,0-36.94,7-45.24-11.6,0,0,14.59-14.61,20.71-30s2.58-21,2.58-21c14.41,1,30.81,25.86,30.81,25.86C61.17,139.36,44.21,145.61,44.21,145.61Z"/><path class="cls-2" d="M121.75,232.76c-25.27,8.43-44.61,32.64-45.2,33.38h0L68.69,269c-12.39-17.42-8.24-32.77-5.15-39.71a26.42,26.42,0,0,1,2.11-3.94c7.47-3.33,15.57-4,23.24-3.22,14.19,1.37,26.91,7.45,31.27,9.72.9.48,1.45.8,1.57.87S121.73,232.77,121.75,232.76Z"/><path class="cls-4" d="M252.74,110.78c19.55,53.06-32.15,83.32-32.15,83.32s-18.18,16.32-51.85,28.72c-1.94.71-3.88,1.38-5.8,2a177.91,177.91,0,0,1-29.59,6.68h-.06c-4.54.65-8.49,1-11.54,1.26,0,0,0,0,0,0-4.43.34-7,.35-7,.35s-25.89,4.61-49-7.72c-11.8-6.26-22.88-16.93-29.48-34.84-15.51-42.11,5.69-74.07,6.35-75.06,0,0,0,0,0,0L120.16,92l79-34.28S237,68,252.74,110.78Z"/><path class="cls-3" d="M42.09,106.54l.45,8.92s73.08-3.7,156.65-57.7L191,45.45Z"/><polygon class="cls-5" points="153.74 227.49 165.03 233.56 173.8 230.33 179.47 218.76 153.74 227.49"/><path class="cls-6" d="M30,79.77s26.61-3,78-21.92,80-37,80-37S205.31,29,204.28,46.8c0,0-28.1,21.14-84.89,42.06s-88.46,19.82-88.46,19.82C22.36,92.24,30,79.77,30,79.77Z"/><path class="cls-7" d="M30,79.77s58.48-37.19,158-58.92C187.94,20.85,116.58,68.52,30,79.77Z"/><path class="cls-8" d="M237.44,162.13s23.44,6.14,26,35.18l-7.85,2.9a79.12,79.12,0,0,0-47.88,3.33S200.86,172.21,237.44,162.13Z"/><path class="cls-9" d="M39.22,76.29S98.88,43.73,174.84,26.34C174.84,26.34,111,63.69,39.22,76.29Z"/><path class="cls-10" d="M59,72.19s56.68-26,97.53-36.14C156.51,36.05,107.09,61.68,59,72.19Z"/><path class="cls-11" d="M93.71,65s10.57,11.77,16.07,13.77,39.33-3,48.54-8.46,20.8-24.88,21.53-30.38-3.08-12.23-3.08-12.23S138.48,51,93.71,65Z"/><path class="cls-12" d="M52.4,76,65.13,74.2l1.75,1,38-12.75,13.32-6.16S72,72.65,52.4,76Z"/><path class="cls-12" d="M155,39.61l14-6.52,11.36-5.18,5.75-5.84S166.52,33.93,155,39.61Z"/><path class="cls-2" d="M51.87,106.91l4.06-2,27.38-4.53A175.42,175.42,0,0,1,51.87,106.91Z"/><path class="cls-2" d="M100,95.5l.05-4.09,7.15-.6,26.58-7.24S116.36,92.17,100,95.5Z"/><path class="cls-3" d="M100,91.41l7.33,2.28a104.17,104.17,0,0,0,26.4-10.12l-26.58,7.24Z"/><path class="cls-13" d="M55.81,134.57c-.69.51-.78,4,.49,6.2s7.76,4.43,8.89,3.62,3.38-4.23,2.2-7.43S57.28,133.48,55.81,134.57Z"/><path class="cls-14" d="M70.39,142.94c-.76,3.71,6.37,2.13,4.31-1.89-1.35-2.65-4.93-.47-4.48,1.95Z"/><path class="cls-15" d="M67.48,201c1-5.22,9.09-1.95,7.86,2.59C74.14,208,67.88,203.62,67.48,201Z"/><path class="cls-16" d="M77,201.51a1.76,1.76,0,0,1,.38-1.16c2.08,0,1.23,2.76-.2,1.09Z"/><path class="cls-17" d="M228.17,135.66c-4.59,1.66-5.56,4.66-3.64,9.08,1.38,3.17,4.92,3.45,7.54,1.27C236.07,142.69,234,135.36,228.17,135.66Z"/><path class="cls-18" d="M223.57,149.73c-2.66-1.37-3,3.71-.65,3.64s1.51-2.63.48-3.58Z"/><path class="cls-19" d="M64.1,209.09c3.48-2.06,9-4.06,13-2,3.47,1.82,1.63,4.74-.9,6.39-3,1.94-6.51,2.58-9.58.55A5.39,5.39,0,0,1,64.1,209.09Z"/><g class="cls-20"><path class="cls-21" d="M95.32,194.43c-2.71,7.85,12.7,9.95,11.28.21C105.52,187.15,95.66,186.34,95.32,194.43Z"/><path class="cls-22" d="M101.47,181.12c-.11-3.73,5-1.57,3.86.61-.87,1.65-3.52.49-4-.87Z"/><path class="cls-21" d="M119.46,195.3c-3.83,3.63-3.24,12.28,3,12.58,5.59.27,10-7.32,9.9-12.26-.08-5.7-4.44-10-9.67-6.39A7.31,7.31,0,0,0,119.46,195.3Z"/><path class="cls-22" d="M115.68,187.39c-5.58,2.79,4.67,5.55,3.89-.12-.44-3.22-3.88-.9-4.91.5Z"/><path class="cls-22" d="M228.85,106.29c-6,3.89,6.9,9.27,4.76,1.87a3.31,3.31,0,0,0-5.28-1.68Z"/><path class="cls-22" d="M226.25,103.18c-3-2.35,3.65-5,3.5-1.57-.08,2.06-2.85,1.4-3.88.55Z"/><path class="cls-22" d="M238.53,153.89c-2.77,4.53,3.61,6.9,6.56,3.4,1.68-2,4.83-7.56,3.39-10.23C245.57,141.7,236.48,150,238.53,153.89Z"/><path class="cls-22" d="M129.12,207.88c-1.52-4.46,8.62-2.61,5,1.65-1.67,2-6.57.83-5.42-2.07Z"/><path class="cls-22" d="M89.9,215.06c-3.23,5.44,7.15,5.81,7,0-.08-4.5-6.47-3.49-7,.29Z"/><path class="cls-22" d="M40.2,152.9c-1,2.59.8,7.45,4,6.32,2.72-.94,3.69-5.71,2.62-8-1.51-3.19-6.65-2.42-6.85,1.13Z"/><path class="cls-22" d="M60.92,120c-.46-2.75,3.34-1.86,3,.35-.42,2.46-2.69.85-3.31-.51Z"/><path class="cls-21" d="M39.37,93c-2,6.84,16.37,12.82,15.78.73C54.7,84.45,39.12,82.53,39.37,93Z"/><path class="cls-22" d="M60.93,95.55C58.44,94,62,90.93,63.55,93.13c1.22,1.74-.64,3.28-2.36,2.32Z"/><path class="cls-21" d="M190.06,75.83c-2.18,3-.08,8,3.88,7.9,3.6-.14,6.2-5.41,6.68-8.52C202,66.35,189.54,67.79,190.06,75.83Z"/><path class="cls-21" d="M129.88,117.67c-10.44,13.66-6.43,36.4,14.16,36,8.79-.16,22.14-9.66,26.37-17.16C181.57,116.71,137.34,98.58,129.88,117.67Z"/><path class="cls-21" d="M144.12,103.44a3,3,0,0,0-1,1.64c2.41,1.5,8.55.41,5.34-2.81-1.48-1.49-4.37-1.07-4.89,1.11Z"/><path class="cls-22" d="M193.37,134.94c-1.37-1.73-1.28-5.48-.8-7.52.78-3.35,4.92-6.15,8.12-7,6.43-1.67,10.36,3.63,8.42,9.48-1.31,4-4.94,11.72-10.28,10.25C196.61,139.56,192.72,137.07,193.37,134.94Z"/></g><path class="cls-2" d="M215.91,121.41s-2.41,18.18-21.84,31.23C194.07,152.64,211.59,137.54,215.91,121.41Z"/><path class="cls-2" d="M146.45,154.76s11,14.69,27,12.24C173.41,167,156.67,166.1,146.45,154.76Z"/><path class="cls-2" d="M167.79,176.24s7.35,1,13.69-7.8C181.48,168.44,172.51,175.63,167.79,176.24Z"/><path class="cls-23" d="M167.79,176.24s6.55.83,13.69-7.8C181.48,168.44,177.52,177.2,167.79,176.24Z"/><path class="cls-23" d="M146.45,154.76s7.31,16.73,27,12.24A30.57,30.57,0,0,1,146.45,154.76Z"/><path class="cls-23" d="M194.07,152.64s23.62-14.06,21.84-31.23C215.91,121.41,215.21,137.67,194.07,152.64Z"/><path class="cls-24" d="M205.13,61.61S184.27,86,191.78,101.16s33.7,15.76,43.95,11.21,7-21.28,7-21.28l-6.39-8.3S235.65,95.62,231,99.4s-21.1,1.82-22.09-4.53S227.67,75.4,227.67,75.4Z"/><path class="cls-25" d="M251.59,84h0a103.28,103.28,0,0,1-11.8,8.19c-6.42-4.52-3.45-9.37-3.45-9.37S254.15,60,249.92,53.41c-3.74-5.85-15-4.74-19.12-2.21-9.4,5.72-3.13,24.2-3.13,24.2s-18,6.63-22.38-7l-.42-1.57s1.23-36.07,7.62-45.29a100.46,100.46,0,0,1,15.92,2.32c9.18,2,20.76,5.84,30.44,12.9h0a48.37,48.37,0,0,1,11.61,11.83C274.54,62.37,261.87,75.75,251.59,84Z"/><path class="cls-26" d="M212.49,21.53s.18,14.42,10.52,20S258.25,56,267,52.79a5.3,5.3,0,0,0,3.49-4.2S244.36,9.79,212.49,21.53Z"/><path class="cls-24" d="M88.78,222.08l.11.09c8.23,6.5,19.45,9.29,31.27,9.72a103,103,0,0,0,13.13-.39c-4.54.65-8.49,1-11.54,1.26-25.27,8.43-44.61,32.64-45.2,33.38.14-.73,4.47-20.28,12.14-25.39,0,0-10.73-1.1-25.15-11.42a26.42,26.42,0,0,1,2.11-3.94c-11.8-6.26-22.88-16.93-29.48-34.84-15.51-42.11,5.69-74.07,6.35-75.06,0,0,0,0,0,0l-.38-7.36s41.55-6.21,82-21.1a429.73,429.73,0,0,0,71.92-34.69l3.11,5.45s-46,36.95-92.17,67.38C57.24,157.93,68.35,205.77,88.78,222.08Z"/><path class="cls-27" d="M168.74,222.82c-2.3,1-4.86,2-7.61,2.86l1.81-.86,3.17-1.52S189,214.14,168.74,222.82Z"/><path class="cls-24" d="M76.55,266.14s2.19-23.08,21.4-32.48l23.8-.9S98.68,239,76.55,266.14Z"/><path class="cls-28" d="M215.26,177.05s27,15.85,44.77,11.85c0,0,.14-17.57-22.59-26.77C237.44,162.13,224.24,166.69,215.26,177.05Z"/><path class="cls-29" d="M121.85,206.23l-40.07-28,19.45-41,41.89,22.5ZM85.43,177.28l35.24,24.61L139.37,161l-36.84-19.79Z"/><path class="cls-29" d="M141.7,191.93l-45,9.35L84.78,154.22l37.72-14.43Zm-42.86,6,39-8.11-17-46.27L88.2,156Z"/><path class="cls-29" d="M112.76,179.41l-13.56-8.8,8.1-12.78,12.8,6.48Zm-9.6-9.67,8.44,5.48,4.67-9.62-7.94-4Z"/><path class="cls-30" d="M119.24,207.19l-40.07-28,19.45-41,41.88,22.49ZM82.81,178.24l35.25,24.62L136.76,162,99.92,142.21Z"/><path class="cls-31" d="M139.08,192.89l-45,9.35-12-47.06,37.72-14.42Zm-42.86,6,39-8.11-17-46.26L85.58,157Z"/><path class="cls-32" d="M110.15,180.37l-13.57-8.8,8.11-12.78,12.79,6.48Zm-9.61-9.66,8.44,5.48,4.68-9.63-7.94-4Z"/><path class="cls-33" d="M71.79,69.06l-11,2.72S59.55,70,57.35,67v0c-.78-1-1.69-2.22-2.69-3.51-1.21-1.57-2.56-3.3-4.06-5.14l-.08-.11c-9.77-12.11-24.88-29.1-38.23-36.73L9.16,3.31l9-3.31,0,0,.07.08.33.35.23.26c1.15,1.23,3.66,4,7,7.78h0C37.82,22,60.66,48.78,71.79,69.06Z"/><polygon class="cls-34" points="18.12 0 24.67 9.93 19.59 18.83 12.28 21.52 9.16 3.3 18.12 0"/><path class="cls-35" d="M50.51,58.25c-9.77-12.11-24.88-29.1-38.23-36.73l7.31-2.69L34.92,37.76Z"/><polygon class="cls-35" points="24.67 9.93 30.55 22.98 54 58.67 54.65 63.5 58.27 70.25 54.73 57.82 31.27 18.64 25.84 8.51 18.12 0 24.67 9.93"/><path class="cls-36" d="M214.36,30.86,223,41.52l-4.69.09S213.3,38.39,214.36,30.86Z"/><path class="cls-36" d="M252.5,52.21s13.12,2.13,17-1.31c0,0-1.77,4-5.3,5.48S252.5,52.21,252.5,52.21Z"/><path class="cls-36" d="M219.36,179.27a14.15,14.15,0,0,1,3.77,1c2.68,1.11,8.25,4.38,8.25,4.38a9.69,9.69,0,0,1-4.73.81C223.37,185.39,219,181.49,219.36,179.27Z"/><path class="cls-36" d="M249.83,189.34A21.07,21.07,0,0,1,253.5,188c.76,0,2.3,1.49,2.3,1.49S251.68,190.93,249.83,189.34Z"/></g></g></g></svg>