<svg xmlns="http://www.w3.org/2000/svg" xmlns:xlink="http://www.w3.org/1999/xlink" viewBox="0 0 135.45 135.45"><defs><style>.cls-1{isolation:isolate;}.cls-2{fill:url(#Áåçûìÿííûé_ãðàäèåíò_114);}.cls-10,.cls-3,.cls-4,.cls-7,.cls-8{mix-blend-mode:screen;}.cls-3,.cls-4{opacity:0.93;}.cls-3{fill:url(#Áåçûìÿííûé_ãðàäèåíò_560);}.cls-5{fill:url(#Áåçûìÿííûé_ãðàäèåíò_283);}.cls-6{fill:#4d1154;mix-blend-mode:multiply;opacity:0.2;}.cls-10,.cls-6,.cls-7,.cls-8,.cls-9{fill-rule:evenodd;}.cls-7{fill:url(#Áåçûìÿííûé_ãðàäèåíò_568);}.cls-8{fill:url(#Áåçûìÿííûé_ãðàäèåíò_568-2);}.cls-9{fill:#fff;mix-blend-mode:soft-light;}.cls-10{fill:url(#Áåçûìÿííûé_ãðàäèåíò_568-3);}</style><radialGradient id="Áåçûìÿííûé_ãðàäèåíò_114" cx="-341.6" cy="3272.24" r="94.55" gradientTransform="matrix(0.19, 0.98, -0.79, 0.15, 2749.41, -88.01)" gradientUnits="userSpaceOnUse"><stop offset="0" stop-color="#002cac"/><stop offset="1" stop-color="#00c7ef"/></radialGradient><radialGradient id="Áåçûìÿííûé_ãðàäèåíò_560" cx="-348.09" cy="1048.89" r="67.72" gradientTransform="matrix(0.19, 0.98, -0.98, 0.19, 1163.14, 213.81)" gradientUnits="userSpaceOnUse"><stop offset="0.72"/><stop offset="0.96" stop-color="#6863ff"/></radialGradient><radialGradient id="Áåçûìÿííûé_ãðàäèåíò_283" cx="-348.09" cy="1048.89" r="67.72" gradientTransform="translate(945.6 -603.56) rotate(34.24)" gradientUnits="userSpaceOnUse"><stop offset="0.53"/><stop offset="0.96" stop-color="#6863ff"/></radialGradient><linearGradient id="Áåçûìÿííûé_ãðàäèåíò_568" x1="-325.12" y1="1058.21" x2="-325.12" y2="1006.83" gradientTransform="translate(945.6 -603.56) rotate(34.24)" gradientUnits="userSpaceOnUse"><stop offset="0" stop-color="#001b3e"/><stop offset="1" stop-color="#ffff95"/></linearGradient><linearGradient id="Áåçûìÿííûé_ãðàäèåíò_568-2" x1="-305.41" y1="1058.21" x2="-305.41" y2="1004.51" xlink:href="#Áåçûìÿííûé_ãðàäèåíò_568"/><linearGradient id="Áåçûìÿííûé_ãðàäèåíò_568-3" x1="-396.89" y1="1029.69" x2="-396.89" y2="999.68" xlink:href="#Áåçûìÿííûé_ãðàäèåíò_568"/></defs><g class="cls-1"><g id="Calque_2" data-name="Calque 2"><g id="game"><circle class="cls-2" cx="67.72" cy="67.72" r="67.72" transform="translate(-28.05 67.72) rotate(-45)"/><circle class="cls-3" cx="67.72" cy="67.72" r="67.72" transform="translate(-28.05 67.72) rotate(-45)"/><g class="cls-4"><path class="cls-5" d="M104.87,13.13A66,66,0,1,1,13.13,30.57a66.1,66.1,0,0,1,91.74-17.44Zm.95-1.39a67.72,67.72,0,1,0,17.89,94.08,67.72,67.72,0,0,0-17.89-94.08Z"/></g><path class="cls-6" d="M94.62,11.09c.11.13.22.25.31.37a13.61,13.61,0,0,1,1.45,2.24c.32.68.39,1.41.64,2a15.79,15.79,0,0,0,1.76,3.12c.82,1.19,1.29,2.49,2.08,3.69,2.09,3.14,5.76,4.9,8.83,6.92a18.4,18.4,0,0,0,2,1.21,4.88,4.88,0,0,1,1.3,1.05A6.22,6.22,0,0,1,115,35a4.27,4.27,0,0,1-.59,2.21c-.38,1-.53,1.39-1.46.84-1.62-1-3.33-2.45-5.14-.86a31.53,31.53,0,0,0-3.36,3.07c-1.1,1.29-2.81,2.46-3.18,4.25-.27,1.33.74,2.57,1.24,3.77a13.22,13.22,0,0,1,1.19,3.27,10.59,10.59,0,0,1-.29,2.56c-.16,1.36.14,2.86,1.46,3.46.49.23.63.07,1,.56a5.4,5.4,0,0,1,.65,1.77c.41,1.61.32,3.35.75,4.94A27.51,27.51,0,0,0,108.54,68a14.35,14.35,0,0,0,.68,2.07c.21.33.6.66.84,1a4.39,4.39,0,0,1,1,3,20.32,20.32,0,0,1-1.73,8.1c-.72,1.49-1.54,1.51-2.94,1.07-1.19-.37-2.72-1.36-4-1-1.07.27-1.9,1.15-2.9,1.54a3.79,3.79,0,0,1-3,.36c-1.73-.7-3.1-2.24-4.73-3.13-1.84-1-4.91-1.46-6.2.51a8.62,8.62,0,0,1-2.47,2.22c-.63.45-1.62.92-1.37,1.87.17.63,1,1.13,1.23,1.73a2.2,2.2,0,0,1-.36,1.93,13.58,13.58,0,0,1-1.84,2.92c-1.42,1.38-4.49,1.38-6.19.62-2-.91-4.15-1.7-5.24-3.78-.7-1.32-.76-3-2.26-3.73a9.8,9.8,0,0,0-2.77-.46,20.8,20.8,0,0,0-2.78-.62,15.68,15.68,0,0,1-2.72-.41,33.49,33.49,0,0,1-3.84-1,20,20,0,0,1-3.73-2.48,30.83,30.83,0,0,1-2.67-2.57c-1.09-.95-2-2.18-3.32-2.79-1-.46-2.06-.8-3.05-1.31-2.74-1.45-1-4.26.18-6.21a17,17,0,0,1,2.75-3.7,19.12,19.12,0,0,0,2.58-2.74,26.27,26.27,0,0,0,2-3.15,3.75,3.75,0,0,1,.71-1.28,3.42,3.42,0,0,1,2.24-.84c1.81-.1,4.14-.51,5.91-.14,1.93.39,1.81,2.54,1.89,4.06,0,.86.22,1.95,1,2.35s1.61.2,2.42.69a2.08,2.08,0,0,1,1,2.34,11.81,11.81,0,0,0-.34,1.2c0,.43.19.8-.17,1.17-.72.77-1.79-.44-2.41-.89-1.09-.8-1.33-.87-2.53-.24-.69.38-1.76,1-1.36,1.94.29.64,1.73,1.07,2.25,1.47C62.71,71.25,65,73,67.65,70.93c.84-.64.75-1.21,1.27-2s1.63-1.21,2.16-2.1c.68-1.17.26-2.93.23-4.25a24,24,0,0,0-.63-4.84,7.39,7.39,0,0,0-1.28-2.59c-.55-.88-.2-1.9-.45-2.88-.47-1.78-1.81-2.52-3.11-3.65A8,8,0,0,0,61.77,47a43.06,43.06,0,0,0-10.3-1.17c-3,.11-6,.43-8.94-.12a24.33,24.33,0,0,1-4-1.16c-.43-.17-.29-.33-.85-.21a7.31,7.31,0,0,0-1.59.83,19.48,19.48,0,0,0-2,2.46,17.07,17.07,0,0,0-1.49,2.33c-.73,1.13-1.34,2.26-2,3.41-1.1,1.85-3.53,1.89-5,3.53-2.05,2.32-2.36,5-3.32,7.8a59.32,59.32,0,0,1-2.35,6.72c-.63,1.35-1.5,2.4-2,3.83a44.43,44.43,0,0,0-1.27,5.57,12.28,12.28,0,0,0-.28,4.48A18.2,18.2,0,0,1,16.86,88c.06,1.84.08,3.7.17,5.55A8.48,8.48,0,0,0,18,96.28c.37.93.84,1.84,1.22,2.78,1,2.43,1.57,5.92,3.86,7.52.66.47,1.45.79,2.09,1.3a12.1,12.1,0,0,1,1.26,1.52,11.35,11.35,0,0,1,1,1.22,7.74,7.74,0,0,0,1.68,1.7,7.57,7.57,0,0,1,1.37,1.7c.19.31.37.94.65,1.17s.54.12,1,.18.9.28,1.4.38A5.67,5.67,0,0,1,37.19,118a8.89,8.89,0,0,0,1.12,1.78,5.81,5.81,0,0,0,3.22,2l-.11.06a61.81,61.81,0,0,1-32.24-28c.18-.44.35-.87.54-1.28a7.77,7.77,0,0,0,.46-3.79,29.89,29.89,0,0,1,.34-5.34,25.51,25.51,0,0,0,.16-4.71c-.09-2,.3-3.94.22-6a27.17,27.17,0,0,0-1.17-5.48c-.67-2.63,0-5.47.45-8.11.21-1.19.83-2.31,1-3.51.08-.73,0-1.44.15-2.18a19.19,19.19,0,0,0,.06-5.86c-.21-1.21-1.17-1.67-1.81-2.56s-.19-2.23-.34-3.28a3.69,3.69,0,0,0-2.39-2.64,61.88,61.88,0,0,1,35-32.87c0,1.72-1.28,4.33-1.17,5.32a17.89,17.89,0,0,1,.45,1.75,7.36,7.36,0,0,1-.27,1.69c-.15.89-.31,2,.54,2.46s2.43-.44,2.68.86c.11.65-.37,1.27-.21,2a7.79,7.79,0,0,1,.27,1.74,19.81,19.81,0,0,1-.33,3,3.38,3.38,0,0,0,.26,1.4,8.62,8.62,0,0,0,.27,1.51c.66,1.16,1.83.09,2.52-.4A10.45,10.45,0,0,1,48,26.81c.46-.25.7-.15,1.17-.26A5.27,5.27,0,0,0,52,24.46a19.31,19.31,0,0,1,3.81-3.85,4.62,4.62,0,0,1,1.81-1c.57-.12,1.14-.26,1.72-.4a12.17,12.17,0,0,0,1.93-.65c.88-.35,1.83-.39,2.72-.7a6.51,6.51,0,0,0,2.72-1.91c.19-.35.13-.77.38-1.12s.6-.41.75-.84c.36-1-.52-2.7-.85-3.55a11.34,11.34,0,0,0-2.47-3.64,23.54,23.54,0,0,0-3.44-2.5,5.25,5.25,0,0,1-1.6-1.67c.61,0,1.24-.07,1.86-.08A61.33,61.33,0,0,1,94.62,11.09ZM67,43.74c-.41.16-.61,1-.54,1.39.14.79,1.07,1.37,1.58,1.95a3.09,3.09,0,0,0,2.06,1.11l-.41-.57c.82.55,1.61,1.45,2.65.72a1.16,1.16,0,0,0,.3-1.59,7.18,7.18,0,0,0-1.84-2.69,2.88,2.88,0,0,0-2-.35A7.06,7.06,0,0,0,67,43.74Zm34.52-14a3.48,3.48,0,0,0-1.38,1.8,6.57,6.57,0,0,0-.33,2c0,1.33,1.11,2.52,1.91,3.46.45.55,1.78,1.72,1.17,0a3.08,3.08,0,0,0,1.42.36,6.94,6.94,0,0,0,1.09-.27c.79-.22,1.43-.71,2.19-1a9.74,9.74,0,0,1,1.91-.49c.56-.06,1.06.09,1.44-.43a.67.67,0,0,0,0-.89c-.2-.33-.76-.59-1.07-.86s-.71-.57-1.08-.84c-1.05-.81-2.39-1.17-3.5-1.89a7,7,0,0,0-1.8-1A2.52,2.52,0,0,0,101.51,29.69ZM70.27,7.07c-1.07.66-1.35,2.32-1.47,3.47a15.12,15.12,0,0,0,.87,5.39,4.3,4.3,0,0,0,.89,1.74c.48.58.76,1.36.6.34a25.78,25.78,0,0,0,2.87.63c1.21.2,2.39.69,3.59,1,2,.52,4.36,1.18,6.4.57a4.54,4.54,0,0,0,3.11-2.85A5.59,5.59,0,0,0,87,14.28a9.48,9.48,0,0,0-2.07-3,6.42,6.42,0,0,0-3-2C81.11,9,80.22,9,79.4,8.69c-.42-.15-.8-.29-1.23-.4a5.27,5.27,0,0,1-1.41-.78,3.71,3.71,0,0,0-2-.86c-.78,0-1.56.06-2.34.08A3.92,3.92,0,0,0,70.27,7.07Z"/><path class="cls-6" d="M73.72,122.52a1.82,1.82,0,0,1-.31-.7c0-.23-.07-.49-.1-.73a7.76,7.76,0,0,0-.22-1.35c-.14-.4-.43-.46-.73-.69s-.34-.31-.51-.46a2.2,2.2,0,0,0-.27-.26,1.92,1.92,0,0,1-.38-.25c-.22-.22-.31-.53-.54-.75a1.72,1.72,0,0,1-.49-.55,1.77,1.77,0,0,1,0-.56,2.27,2.27,0,0,0-.21-.67c-.32-.76-1-1.22-1.36-1.93s.33-1.43.54-2c0-.1,0-.21.07-.3s.21-.14.29-.21a1,1,0,0,0,.35-.47c0-.11-.07-.1,0-.23a.74.74,0,0,1,.41-.1,1,1,0,0,1,.74.39l.66.69a6.19,6.19,0,0,0,.58.67c.23.19.5.29.73.48a2.64,2.64,0,0,1,.78,1.66c.15.62.1,1.43.75,1.77.26.14.33,0,.58,0a2.77,2.77,0,0,0,.86,0,2,2,0,0,0,.42-.32,6.61,6.61,0,0,1,.58-.47c.24-.15.4,0,.65-.09s.09-.07.22-.14a.88.88,0,0,1,.4-.15,2.6,2.6,0,0,1,.88-.06,1.85,1.85,0,0,0,.74,0,6.13,6.13,0,0,0,.92-.29,2.1,2.1,0,0,0,.81-.57,3.58,3.58,0,0,0,.25-.42,3.5,3.5,0,0,1,1.07-.91c.55-.4,1.68-.83,1.41-1.7-.09-.26-.34-.42-.37-.7-.08-.6.48-1,.9-1.27a7.39,7.39,0,0,1,2.38-1.06,1.85,1.85,0,0,1,1.51,0c1,.54,1.2,1.74,2.05,2.43a11.28,11.28,0,0,0,3,1.23A2.42,2.42,0,0,1,95,112.52a2.18,2.18,0,0,1,.16.62c0,.44-.21.59-.36,1a1.08,1.08,0,0,0,0,.64c.11.63-.56,1.31-.85,1.81a5.41,5.41,0,0,0-.85,2.47,25.88,25.88,0,0,0,.07,3,15.69,15.69,0,0,1,.11,2.27,3.88,3.88,0,0,1-.51,1.5,2.19,2.19,0,0,1-1.6,1.23c-.7.11-.84-.26-1.26-.74-.14-.15-.39-.5-.63-.51s-.59.55-.75.81-.32.77-.67.73-.67-.38-.88-.51-.5-.22-.58-.46,0-.37,0-.56a1.63,1.63,0,0,0-.32-.81,2.49,2.49,0,0,1-.13-.67,3.19,3.19,0,0,1-.2-.85c0-.49.35-.79.22-1.31a2.59,2.59,0,0,1-.13-.55,2.05,2.05,0,0,1,.09-.43c.07-.35.14-.89-.2-1.14s-.86.08-1.1.32-.47.59-.81.5-.43-.38-.76-.36c-1,.07-1.06,1.43-1.5,2.12-.66,1-1.88,1.07-3,1.15-.11,0-.21.06-.31.06s-.23-.07-.39-.1a.92.92,0,0,0-.61.22,1.61,1.61,0,0,0-.57.5,7.61,7.61,0,0,1-.5.83,1,1,0,0,1-1.5-.11c-.26-.27-.27-.78-.47-1.11a5.29,5.29,0,0,1-.44-.77c-.06-.16-.06-.35-.11-.52S73.53,122.36,73.72,122.52Z"/><path class="cls-7" d="M93.39,41.17l19.26,6.25s4,21.19-16.91,49.48l-13-7.71S92.09,58.83,93.39,41.17Z"/><path class="cls-8" d="M117.3,49.9l11.82,5.92s1.49,22.93-22.46,49.67l-7.89-5.37S114.72,75.29,117.3,49.9Z"/><path class="cls-9" d="M3.69,67.33,18.2,66.25S17,93.55,41.25,117.79L36.33,125S.91,105.29,3.69,67.33Z"/><path class="cls-10" d="M32.72,13.51l2.69,9s17.75-9,24.76-11.48L59.5,2.61S40.78,5.83,32.72,13.51Z"/></g></g></g></svg>