<svg xmlns="http://www.w3.org/2000/svg" xmlns:xlink="http://www.w3.org/1999/xlink" viewBox="0 0 106.22 150.34"><defs><style>.cls-1{isolation:isolate;}.cls-10,.cls-11,.cls-12,.cls-13,.cls-14,.cls-15,.cls-16,.cls-17,.cls-18,.cls-2,.cls-3,.cls-4,.cls-5,.cls-6,.cls-7,.cls-8,.cls-9{fill-rule:evenodd;}.cls-2{fill:url(#Áåçûìÿííûé_ãðàäèåíò_84);}.cls-3{fill:url(#Áåçûìÿííûé_ãðàäèåíò_186);}.cls-4{fill:#ffc548;opacity:0.96;}.cls-4,.cls-7,.cls-8,.cls-9{mix-blend-mode:screen;}.cls-5{fill:#ac46b3;opacity:0.5;}.cls-14,.cls-5{mix-blend-mode:multiply;}.cls-6{fill:#ffeb72;}.cls-7{fill:url(#Áåçûìÿííûé_ãðàäèåíò_180);}.cls-8{fill:url(#Áåçûìÿííûé_ãðàäèåíò_187);}.cls-9{fill:url(#Áåçûìÿííûé_ãðàäèåíò_187-2);}.cls-10{fill:#ffff39;}.cls-11{fill:#fff;}.cls-12{fill:url(#Áåçûìÿííûé_ãðàäèåíò_60);}.cls-13{fill:url(#Áåçûìÿííûé_ãðàäèåíò_60-2);}.cls-14{fill:#672777;opacity:0.7;}.cls-15{fill:url(#Áåçûìÿííûé_ãðàäèåíò_60-3);}.cls-16{fill:url(#Áåçûìÿííûé_ãðàäèåíò_60-4);}.cls-17{fill:url(#Áåçûìÿííûé_ãðàäèåíò_60-5);}.cls-18{fill:url(#Áåçûìÿííûé_ãðàäèåíò_60-6);}</style><radialGradient id="Áåçûìÿííûé_ãðàäèåíò_84" cx="-243.99" cy="1376.53" r="18.59" gradientTransform="matrix(0.85, 0.53, -0.53, 0.85, 1022.56, -1016.01)" gradientUnits="userSpaceOnUse"><stop offset="0" stop-color="#dddbe3"/><stop offset="1" stop-color="#866da9"/></radialGradient><radialGradient id="Áåçûìÿííûé_ãðàäèåíò_186" cx="-243.62" cy="1494.4" r="70.63" gradientTransform="matrix(0.85, 0.53, -0.53, 0.85, 1022.56, -1016.01)" gradientUnits="userSpaceOnUse"><stop offset="0.01" stop-color="#fff251"/><stop offset="0.58" stop-color="#ff9800"/><stop offset="0.99" stop-color="#f80"/></radialGradient><linearGradient id="Áåçûìÿííûé_ãðàäèåíò_180" x1="-271.27" y1="1457.19" x2="-221.13" y2="1457.19" gradientTransform="matrix(0.85, 0.53, -0.53, 0.85, 1022.56, -1016.01)" gradientUnits="userSpaceOnUse"><stop offset="0" stop-color="#ff9207"/><stop offset="0.62" stop-color="#cf5002"/><stop offset="0.98" stop-color="#b62e00"/></linearGradient><linearGradient id="Áåçûìÿííûé_ãðàäèåíò_187" x1="-262.1" y1="1377" x2="-244.69" y2="1377" gradientTransform="matrix(0.85, 0.53, -0.53, 0.85, 1022.56, -1016.01)" gradientUnits="userSpaceOnUse"><stop offset="0" stop-color="#310045"/><stop offset="0.96" stop-color="#81ffe7"/></linearGradient><linearGradient id="Áåçûìÿííûé_ãðàäèåíò_187-2" x1="-233.06" y1="1393.5" x2="-233.06" y2="1375.47" xlink:href="#Áåçûìÿííûé_ãðàäèåíò_187"/><linearGradient id="Áåçûìÿííûé_ãðàäèåíò_60" x1="-243.34" y1="1430.62" x2="-243.34" y2="1392.91" gradientTransform="matrix(0.85, 0.53, -0.53, 0.85, 1022.56, -1016.01)" gradientUnits="userSpaceOnUse"><stop offset="0" stop-color="#361b5a"/><stop offset="1" stop-color="#654d7c"/></linearGradient><linearGradient id="Áåçûìÿííûé_ãðàäèåíò_60-2" x1="-244.06" y1="1506.85" x2="-244.06" y2="1485.73" xlink:href="#Áåçûìÿííûé_ãðàäèåíò_60"/><linearGradient id="Áåçûìÿííûé_ãðàäèåíò_60-3" x1="-244.8" y1="1394.42" x2="-244.8" y2="1384.71" xlink:href="#Áåçûìÿííûé_ãðàäèåíò_60"/><linearGradient id="Áåçûìÿííûé_ãðàäèåíò_60-4" x1="-243.49" y1="1386.42" x2="-243.49" y2="1372.51" xlink:href="#Áåçûìÿííûé_ãðàäèåíò_60"/><linearGradient id="Áåçûìÿííûé_ãðàäèåíò_60-5" x1="-244.32" y1="1368.47" x2="-244.32" y2="1353.48" xlink:href="#Áåçûìÿííûé_ãðàäèåíò_60"/><linearGradient id="Áåçûìÿííûé_ãðàäèåíò_60-6" x1="-244.81" y1="1425.09" x2="-244.81" y2="1405.51" xlink:href="#Áåçûìÿííûé_ãðàäèåíò_60"/></defs><g class="cls-1"><g id="Calque_2" data-name="Calque 2"><g id="game"><path class="cls-2" d="M56.07,35.14l16-27.93s16.47,1.12,32.15,14.27L81.46,53Z"/><polygon class="cls-3" points="47.95 22.69 73.67 29.05 99.17 53.4 41.57 128.57 7.98 150.34 0 148.22 15.93 79.25 47.95 22.69"/><polygon class="cls-4" points="15.93 79.25 49.53 75.98 73.67 29.05 47.95 22.69 15.93 79.25"/><polygon class="cls-5" points="49.53 75.98 41.57 128.57 99.17 53.4 73.67 29.05 49.53 75.98"/><polygon class="cls-5" points="0 148.22 28.29 137.18 7.98 150.34 0 148.22"/><polygon class="cls-6" points="42.12 76.7 47.76 87.67 52.62 69.93 42.12 76.7"/><path class="cls-7" d="M25.62,138.22s7.06-6.26,5-18.5S17.88,108.37,16.38,96.1s2.26-22.75,9.84-32.32c18.55-23.43,24.08.27,29.66,0S80.71,47,83.81,57.94,60.63,99.35,51,100.4,41.89,103.11,34.63,96,29,78,35.55,77.34s9.9,4.69,14,4,5.88-.09,6.14.9-5.35,11-5.35,11-5.56.7-9.2-3.36-2.85-9.63-6-10.15S30.53,84.89,34.23,92s12.49,8.7,18.63,6.68S69.2,83.56,64.45,75.05s-14.05-5.68-25-7.63S21.26,76.25,18.77,85.74s8,15.32,17.49,23.7a17.74,17.74,0,0,1,5.31,19.13Z"/><path class="cls-8" d="M72.07,7.21s-5.39,13.47-2.84,16.56S89.49,12.2,89.49,12.2A34.77,34.77,0,0,0,72.07,7.21Z"/><path class="cls-9" d="M99.09,28.57s-10,1.77-17.38,8.16l6.8,6.49Z"/><path class="cls-4" d="M99.17,53.4s-45.74,59.48-49.7,59.17,3.15-42.64,3.15-42.64L47.76,87.67l-6.19,40.9Z"/><polygon class="cls-10" points="41.57 128.57 7.98 150.34 0 148.22 15.93 79.25 2.61 144.06 8.51 147.54 41.57 128.57"/><polygon class="cls-11" points="16.35 141.04 17.75 136.95 39.84 123.15 41.18 127.35 16.35 141.04"/><polygon class="cls-11" points="15.93 79.25 40.76 35.39 42.8 36.36 21.66 75.3 15.93 79.25"/><path class="cls-12" d="M58,25.17s-2.91-5-5.9-4.78-6.74,24,6.43,41.26S79.64,81.57,81.74,81.23,83.89,73,83.89,73l-2.74,4S67.1,67.46,60,54c-9.37-17.71-4.31-29.43-4.31-29.43Z"/><path class="cls-13" d="M10.42,103.13a4.11,4.11,0,0,0-4.49,3.11C5,109.8,7.2,120.48,15.06,129.88s21.06,7.05,23.1,5.92,1.55-6.1,1.55-6.1l-3,2a26,26,0,0,1-19.5-7c-9.29-8.4-8-16.43-8-16.43Z"/><path class="cls-14" d="M96.62,32.52l-4,4.94L63.22,21.34,64.76,20S79.58,20.63,96.62,32.52Z"/><path class="cls-15" d="M58,25.17s-.08-3.38,5.24-3.83c0,0,19.81,3.56,31,18.17a7.3,7.3,0,0,1-2.91,6.41S79.67,34,72.85,30.36A62.1,62.1,0,0,0,58,25.17Z"/><path class="cls-16" d="M64.76,20s-1.23-1.43.09-3.7,28.63,3.54,35.86,10.06-5.42,7.46-5.42,7.46l1.33-1.27S82.48,23,64.76,20Z"/><path class="cls-17" d="M81.17,9.08,83.92.58S93.11-3,106.22,7.41L98,16.85S88,10.27,81.17,9.08Z"/><path class="cls-18" d="M40.76,35.39a6,6,0,0,0-4.51,1.45c-1.78,1.77,2.07,14.1,21.88,24.3s33,6.54,35,4.92.46-5.48.46-5.48l-2.38,3.06s-18.7.8-34.14-8.1S39,38.56,39,38.56Z"/></g></g></g></svg>