<svg xmlns="http://www.w3.org/2000/svg" xmlns:xlink="http://www.w3.org/1999/xlink" viewBox="0 0 105.26 40.26"><defs><style>.cls-1,.cls-2,.cls-3,.cls-4,.cls-5,.cls-6{fill-rule:evenodd;}.cls-1{fill:url(#Áåçûìÿííûé_ãðàäèåíò_546);}.cls-2{fill:#68134c;}.cls-3{fill:#ffd62f;opacity:0.2;}.cls-4{fill:#590a43;opacity:0.5;}.cls-5{fill:#d37b4f;}.cls-6{fill:#569dff;}</style><radialGradient id="Áåçûìÿííûé_ãðàäèåíò_546" cx="-274.49" cy="773.02" r="38.83" gradientTransform="translate(508.31 -664.61) rotate(14.02)" gradientUnits="userSpaceOnUse"><stop offset="0" stop-color="#ac4a31"/><stop offset="1" stop-color="#8c3832"/></radialGradient></defs><g id="Calque_2" data-name="Calque 2"><g id="game"><polygon class="cls-1" points="0 13.96 15.92 0.41 99.44 21.27 105.26 40.26 0 13.96"/><polygon class="cls-2" points="28.3 0 23.86 2.39 92.95 19.65 90.09 15.54 28.3 0"/><polygon class="cls-3" points="15.96 17.95 26.53 3.06 50.44 9.03 40.81 24.16 15.96 17.95"/><polygon class="cls-3" points="43.95 24.95 53.27 9.74 58.41 11.02 50.25 26.52 43.95 24.95"/><polygon class="cls-4" points="85.98 17.91 84.38 35.04 102.64 39.6 96.84 20.62 85.98 17.91"/><path class="cls-5" d="M15.92.41s43.7,15.4,83.52,20.86Z"/><path class="cls-6" d="M28.3,0S52.09,9.15,90.09,15.54Z"/></g></g></svg>