<svg xmlns="http://www.w3.org/2000/svg" xmlns:xlink="http://www.w3.org/1999/xlink" viewBox="0 0 205.21 182.32"><defs><style>.cls-1{isolation:isolate;}.cls-10,.cls-11,.cls-12,.cls-13,.cls-14,.cls-15,.cls-16,.cls-17,.cls-18,.cls-19,.cls-2,.cls-20,.cls-21,.cls-22,.cls-3,.cls-4,.cls-5,.cls-6,.cls-7,.cls-8,.cls-9{fill-rule:evenodd;}.cls-2{fill:url(#Áåçûìÿííûé_ãðàäèåíò_225);}.cls-18,.cls-3{mix-blend-mode:screen;opacity:0.96;}.cls-3{fill:url(#Áåçûìÿííûé_ãðàäèåíò_232);}.cls-4,.cls-6,.cls-7{fill:#6746b3;mix-blend-mode:multiply;}.cls-13,.cls-14,.cls-4{opacity:0.5;}.cls-5{fill:#fff;}.cls-6{opacity:0.8;}.cls-7{opacity:0.2;}.cls-8{fill:#b5caf1;}.cls-10,.cls-13,.cls-20,.cls-21,.cls-22,.cls-8,.cls-9{mix-blend-mode:soft-light;}.cls-9{fill:#c7d7f4;}.cls-10{fill:#f9f9f4;}.cls-11{fill:#ff83bf;}.cls-12,.cls-13,.cls-14{fill:#ff1fc7;}.cls-15,.cls-22{fill:#ff6bff;}.cls-16{fill:url(#Áåçûìÿííûé_ãðàäèåíò_238);}.cls-17{fill:url(#Áåçûìÿííûé_ãðàäèåíò_225-2);}.cls-18{fill:url(#Áåçûìÿííûé_ãðàäèåíò_232-2);}.cls-19{fill:url(#Áåçûìÿííûé_ãðàäèåíò_238-2);}.cls-20{fill:#a4ffff;}.cls-21{fill:#ff9fca;}</style><radialGradient id="Áåçûìÿííûé_ãðàäèåíò_225" cx="9.21" cy="490.96" r="107.12" gradientTransform="translate(198.05 -326.22) rotate(11.03)" gradientUnits="userSpaceOnUse"><stop offset="0" stop-color="#f06"/><stop offset="1" stop-color="#590048"/></radialGradient><linearGradient id="Áåçûìÿííûé_ãðàäèåíò_232" x1="-32.18" y1="359.56" x2="60.85" y2="359.56" gradientTransform="translate(198.05 -326.22) rotate(11.03)" gradientUnits="userSpaceOnUse"><stop offset="0.04" stop-color="#ae4b98"/><stop offset="1" stop-color="#8b0048"/></linearGradient><linearGradient id="Áåçûìÿííûé_ãðàäèåíò_238" x1="9.21" y1="518.02" x2="9.21" y2="356.24" gradientTransform="translate(198.05 -326.22) rotate(11.03)" gradientUnits="userSpaceOnUse"><stop offset="0" stop-color="#00ff91"/><stop offset="1" stop-color="#b63bef"/></linearGradient><radialGradient id="Áåçûìÿííûé_ãðàäèåíò_225-2" cx="-72.41" cy="501.17" r="78.22" xlink:href="#Áåçûìÿííûé_ãðàäèåíò_225"/><linearGradient id="Áåçûìÿííûé_ãðàäèåíò_232-2" x1="-113.38" y1="472.6" x2="-31.44" y2="472.6" xlink:href="#Áåçûìÿííûé_ãðàäèåíò_232"/><linearGradient id="Áåçûìÿííûé_ãðàäèåíò_238-2" x1="-72.41" y1="510.17" x2="-72.41" y2="453.57" xlink:href="#Áåçûìÿííûé_ãðàäèåíò_238"/></defs><g class="cls-1"><g id="Calque_2" data-name="Calque 2"><g id="game"><polygon class="cls-2" points="94.23 173.51 78.15 146.62 77.94 68.24 116.99 6.26 179.07 0 189.63 35.08 130.07 170.47 100.19 179.44 94.23 173.51"/><polygon class="cls-3" points="116.99 6.26 90.85 55.6 125.89 60.97 189.63 35.08 179.07 0 116.99 6.26"/><polygon class="cls-4" points="130.07 170.47 134.31 120.39 125.89 60.97 189.63 35.08 130.07 170.47"/><polygon class="cls-5" points="90.85 55.6 77.94 68.24 116.99 6.26 90.85 55.6"/><polygon class="cls-6" points="130.07 170.47 94.23 173.51 100.19 179.44 130.07 170.47"/><polygon class="cls-7" points="78.15 146.62 134.31 120.39 125.89 60.97 90.85 55.6 77.94 68.24 78.15 146.62"/><path class="cls-8" d="M78.15,146.62s.24-72.89,2.32-77.89S92.61,60,99.33,60.08s20.19,8.5,24.16,13.19,10.82,47.12,10.82,47.12l-7-51.27-9.64-9.42-26.8-4.1L77.93,68.24Z"/><path class="cls-9" d="M78.15,146.62s11.2,18.46,17.09,21.73,26.37-.08,30-1.49,8.46-39.37,8.46-39.37l-3.64,43-35.84,3Z"/><path class="cls-10" d="M81.92,152.93s-2.61-2.94,8.44-10.06,44-22.48,44-22.48L78.15,146.62Z"/><path class="cls-10" d="M134.31,120.39s-1.55,25.61.44,26.08S189.63,35.08,189.63,35.08L130.07,170.47Z"/><path class="cls-8" d="M179.07,0s-50.79,3-59.36,9.27S94.34,49.7,96.17,52.83s20,6.46,43.65.79,46.82-22.18,46.82-22.18L181.38,7.66l8.25,27.42L138.17,56,117.65,59.7l-26.8-4.1L117,6.26Z"/><polygon class="cls-10" points="129.85 87.81 130.27 69.69 139 57.54 189.63 35.08 138.16 55.98 127.29 69.11 129.85 87.81"/><polygon class="cls-11" points="117.65 59.7 138.16 55.98 127.29 69.11 117.65 59.7"/><path class="cls-12" d="M96.15,149.45c-2.1,1.9,1.43,4.15,2,1.49.21-1.06-.92-3.07-1.93-1.64Z"/><path class="cls-12" d="M81.43,127.12c-.25-2.65-.54-11.31,3.3-11.23,2.62.06,3.65,2.83,3.81,4.41.26,2.57.31,7.77-1.68,9.28C85.45,130.65,82,129.2,81.43,127.12Z"/><path class="cls-12" d="M89.79,114.3c-.47-1.82.92-3.63,1.5-1.16.23,1,0,1.86-1.22,1.38Z"/><path class="cls-13" d="M112.81,91.56c-.27,2.58-.06,11.54,3.86,11.61,2.94.06,5.24-6.78,5.82-9,.83-3.21-.31-8.1-3.95-9.4S112.4,89.5,112.81,91.56Z"/><path class="cls-12" d="M120.19,104.74c-1.65-2,1.83-3.43,2.41-.48.41,2-2.2,2.21-2.26.51Z"/><path class="cls-12" d="M124.32,135.38c-.46,2.12-.51,5.34,2.36,4.05,2.36-1.06,2.9-4.38,3.21-6.65s-.88-5.36-3.36-3C125.13,131.17,124.06,135,124.32,135.38Z"/><path class="cls-14" d="M137.42,125.05c.05-3.37,4.08-4.22,4.06-.74,0,2.12-2.7,2.15-3.5.36Z"/><path class="cls-12" d="M131.69,141.89a9.7,9.7,0,0,1-2.91,5.8c-1.31,1.2-2.58,1.49-4,2.33-1.25.72-2.14,2.4-3.69,2.36-2.57,0-4.68-3.64-6.29-5.16-2.36-2.25-2.58.91-3.12,3.16-.72,3-1.18,6.21-2.68,8.93-1.32,2.39-3.3,1.28-5.45,2.11-1,.4-1.76,1.83-2.82,1.64-3.86-.69,2.68-4.52,3-4.88,2.55-2.67-3-2.92-4.6-3.55-3.61-1.38-5.54-5.16-10-4.39-2.7.47-3.7,2.11-4,4.6a8.21,8.21,0,0,0,1.06,4.95,65.89,65.89,0,0,0,5.08,7.65c2.4,3.17,5.24,4.91,9.39,4.53,7.23-.67,14.55-2.48,21.69-3.76,3.37-.61,4.54-2.08,5.23-5.49C128.84,156.78,130.23,150.88,131.69,141.89Z"/><path class="cls-13" d="M136.45,99.1c-.48,1.88-.55,7.79,1.92,8.74,3,1.14,5-5.23,5.49-7.06.59-2.09,1.95-11.54-2.77-9.46C138.7,92.37,136.28,97.55,136.45,99.1Z"/><path class="cls-14" d="M141.27,110.32a1.23,1.23,0,0,1,2.2-1c.63.86.11,2.3-.24,3.13s-1.44,3.15-2.48,2.24c-.71-.62.17-3.37.33-4.2Z"/><path class="cls-14" d="M174,50.82a1.22,1.22,0,0,1,2.2-1c.64.86.11,2.29-.23,3.12s-1.45,3.15-2.49,2.24c-.71-.62.17-3.37.34-4.2Z"/><path class="cls-14" d="M150.84,116.42c-2.79-4.64-2.06-12.35.51-16.89,2.06-3.61,6.76-5.17,10.33-6.94,1,1.06.29,2.31-.2,3.53-1.35,3.41-2.71,6.84-4.11,10.24C156.17,109.27,154.83,114.15,150.84,116.42Z"/><path class="cls-15" d="M119.87,156c-1.66-3.21,2.2-7,3.7-2.77.86,2.45-1,4.48-3.28,2.85Z"/><path class="cls-15" d="M95.2,145.62c-4.21.4-2.49,7.22-.92,9.28,1.29,1.68,4.2,3.55,6,1.5C104.25,151.94,97.49,140.33,95.2,145.62Z"/><path class="cls-15" d="M104.22,165.47c-1.72-2.06,2.14-3.68,2.87-.58.51,2.19-2.14,2.54-2.84.43Z"/><path class="cls-15" d="M107,145.31c-2.31,5.08,5.1,11.72,7,5.42.93-3.1-.18-9-3.76-10.17S106.21,144.44,107,145.31Z"/><path class="cls-15" d="M116.94,150.35c-2.3-1.49,1-6.53,1.78-1.82.22,1.28-.44,4.27-2.18,2.23Z"/><path class="cls-15" d="M112.57,135.15c-2.91,3.55,2.49,10.57,4.91,4.18.64-1.7.62-4.83-1.24-5.89S112.65,134.66,112.57,135.15Z"/><path class="cls-15" d="M126,111.7c-2,2.42,1.69,7.2,3.34,2.85.43-1.16.42-3.29-.85-4S126,111.37,126,111.7Z"/><polygon class="cls-16" points="77.94 68.24 78.15 146.62 94.23 173.51 100.19 179.44 130.07 170.47 189.63 35.08 132.48 170.72 99.48 182.32 92.32 175.22 76.15 146.62 77.94 68.24"/><polygon class="cls-17" points="72.57 153.22 71.65 126.73 37.85 101.63 0 97.28 21.24 151.16 64.06 165.68 72.57 153.22"/><polygon class="cls-18" points="0 97.28 19.39 123.27 72.57 153.22 71.65 126.73 37.85 101.63 0 97.28"/><polygon class="cls-4" points="19.39 123.27 21.24 151.16 0 97.28 19.39 123.27"/><path class="cls-8" d="M72.57,153.22,19.39,123.27,0,97.28l37.85,4.35,33.8,25.1.69,19.85s-1-15.94-4.46-20.58-25-21.75-30.92-22.64-29.37-4.3-31.49-2.94,10.25,17.08,16.1,22.23,45.75,26.75,47.79,26.74a4.8,4.8,0,0,0,3-.91Z"/><polygon class="cls-11" points="15.99 118.72 19.92 131.32 25.95 126.97 15.99 118.72"/><path class="cls-10" d="M72.57,153.22s-7.17,10.89-9.6,9.92-36-10.85-39.06-14.53-4-17.29-4-17.29l1.32,19.84,42.82,14.52Z"/><path class="cls-12" d="M23.28,150.73c-1.18-3.93,1.94-10,6.6-8.5,3.39,1.09,4.58,5.31,8.06,6,2.4.43,4.71-1,7.17-.16,1.53.55,2.18,1.68,3.41,2.58,4.29,3.16,9.74,1.66,14.54,2.66,5,1,4.87,11.07.25,11.8-1.84.29-3.8-1.92-5.37-2.58a77.93,77.93,0,0,0-9.23-2.88c-5.31-1.46-10.46-3.4-15.64-5.27C30.12,153.26,25,152.33,23.28,150.73Z"/><path class="cls-12" d="M25.4,132c-1.41,2.8,1.13,7.33,3.17,3.32,1.59-3.12-2.62-7.79-4-3.49Z"/><path class="cls-13" d="M41.94,125.24c-5.37,1.48-7.3,9.33-4.15,13.51,2.39,3.18,8.36,6.92,12.33,4.84,5.94-3.11,5.44-13,1.43-17.44C48.71,123,43.35,121.12,41.94,125.24Z"/><path class="cls-15" d="M48.91,146.38c-3,0-6.38,4.42-4.69,7.33,1.18,2,4.9,1.88,6.77,1C56.91,152,53,142.81,48.91,146.38Z"/><path class="cls-15" d="M54.89,155.81c.16-2.33,4-.86,3,1.11-.8,1.5-3.4.6-3-1.11Z"/><path class="cls-15" d="M39.23,146c-3.18.94-.8,7.67,2.26,3.92a3,3,0,0,0,.24-3.78c-.54-.72-1.39-1.4-2.25-.75Z"/><polygon class="cls-19" points="0 97.28 21.24 151.16 64.06 165.68 72.57 153.22 63.94 167.4 20.34 153.53 0 97.28"/><polygon class="cls-15" points="171.67 102.01 191.7 62.66 202.21 61.31 176.38 103.03 171.67 102.01"/><polygon class="cls-20" points="155.02 124.89 173.91 82.27 185.73 83.31 160.47 126.08 155.02 124.89"/><polygon class="cls-21" points="163.09 135.51 186.64 92.57 205.21 94.2 179.46 138.91 163.09 135.51"/><polygon class="cls-22" points="63.96 73.55 62.45 50.07 69.98 42.69 65.61 73.87 63.96 73.55"/><polygon class="cls-20" points="27.8 162.32 10.62 158.97 2.91 163.8 26.77 167.66 27.8 162.32"/></g></g></g></svg>