<svg xmlns="http://www.w3.org/2000/svg" xmlns:xlink="http://www.w3.org/1999/xlink" viewBox="0 0 157.47 231.99"><defs><style>.cls-1{isolation:isolate;}.cls-10,.cls-11,.cls-12,.cls-13,.cls-14,.cls-15,.cls-16,.cls-17,.cls-18,.cls-19,.cls-2,.cls-20,.cls-21,.cls-22,.cls-23,.cls-24,.cls-25,.cls-26,.cls-3,.cls-4{fill-rule:evenodd;}.cls-2{fill:url(#Áåçûìÿííûé_ãðàäèåíò_423);}.cls-3{fill:url(#Áåçûìÿííûé_ãðàäèåíò_423-2);}.cls-4{fill:url(#Áåçûìÿííûé_ãðàäèåíò_423-3);}.cls-5{fill:#6746b3;opacity:0.5;}.cls-17,.cls-24,.cls-5{mix-blend-mode:multiply;}.cls-6{fill:url(#Áåçûìÿííûé_ãðàäèåíò_423-4);}.cls-7{fill:url(#Áåçûìÿííûé_ãðàäèåíò_151);}.cls-8{fill:url(#Áåçûìÿííûé_ãðàäèåíò_575);}.cls-9{mix-blend-mode:screen;opacity:0.93;fill:url(#Áåçûìÿííûé_ãðàäèåíò_154);}.cls-10{fill:url(#Áåçûìÿííûé_ãðàäèåíò_137);}.cls-11{fill:url(#Áåçûìÿííûé_ãðàäèåíò_137-2);}.cls-12{fill:url(#Áåçûìÿííûé_ãðàäèåíò_139);}.cls-13{fill:url(#Áåçûìÿííûé_ãðàäèåíò_139-2);}.cls-14{fill:url(#Áåçûìÿííûé_ãðàäèåíò_139-3);}.cls-15{fill:url(#Áåçûìÿííûé_ãðàäèåíò_139-4);}.cls-16{fill:url(#Áåçûìÿííûé_ãðàäèåíò_139-5);}.cls-17,.cls-24{opacity:0.8;}.cls-17{fill:url(#Áåçûìÿííûé_ãðàäèåíò_149);}.cls-18{fill:url(#Áåçûìÿííûé_ãðàäèåíò_145);}.cls-19{fill:#ff9a45;}.cls-20{fill:#68134c;}.cls-21{fill:#d37b4f;}.cls-22{fill:#590a43;}.cls-23,.cls-25{fill:#fff;}.cls-24{fill:#572b3f;}.cls-25,.cls-26{mix-blend-mode:soft-light;}.cls-26{fill:#ffffc8;}</style><linearGradient id="Áåçûìÿííûé_ãðàäèåíò_423" x1="4312.06" y1="855.82" x2="4312.06" y2="782.12" gradientTransform="translate(3496.76 2935.06) rotate(-151.26)" gradientUnits="userSpaceOnUse"><stop offset="0" stop-color="#8c3832"/><stop offset="1" stop-color="#ac4a31"/></linearGradient><linearGradient id="Áåçûìÿííûé_ãðàäèåíò_423-2" x1="4350.16" y1="735.4" x2="4350.16" y2="697.29" xlink:href="#Áåçûìÿííûé_ãðàäèåíò_423"/><linearGradient id="Áåçûìÿííûé_ãðàäèåíò_423-3" x1="-4168.65" y1="855.36" x2="-4168.65" y2="781.65" gradientTransform="matrix(0.88, 0.48, 0.48, -0.88, 3307.03, 2830.47)" xlink:href="#Áåçûìÿííûé_ãðàäèåíò_423"/><linearGradient id="Áåçûìÿííûé_ãðàäèåíò_423-4" x1="4350.55" y1="844.05" x2="4350.55" y2="732.29" gradientTransform="translate(522.46 4549.16) rotate(-106.26)" xlink:href="#Áåçûìÿííûé_ãðàäèåíò_423"/><linearGradient id="Áåçûìÿííûé_ãðàäèåíò_151" x1="4350.55" y1="837.47" x2="4350.55" y2="738.87" gradientTransform="translate(522.46 4549.16) rotate(-106.26)" gradientUnits="userSpaceOnUse"><stop offset="0" stop-color="#00d8d8"/><stop offset="0.99" stop-color="#005798"/></linearGradient><radialGradient id="Áåçûìÿííûé_ãðàäèåíò_575" cx="4396.04" cy="7942.68" r="163.17" gradientTransform="matrix(-0.17, -0.99, 0.54, -0.09, -3523.03, 5182.14)" gradientUnits="userSpaceOnUse"><stop offset="0.01" stop-color="#0081ae"/><stop offset="0.95" stop-color="#00ffb6"/></radialGradient><radialGradient id="Áåçûìÿííûé_ãðàäèåíò_154" cx="4351.43" cy="7996.04" r="95.14" gradientTransform="matrix(-0.17, -0.99, 0.54, -0.09, -3523.03, 5182.14)" gradientUnits="userSpaceOnUse"><stop offset="0.53"/><stop offset="0.91" stop-color="#68ffff"/></radialGradient><linearGradient id="Áåçûìÿííûé_ãðàäèåíò_137" x1="4337.31" y1="958.42" x2="4337.31" y2="850.97" gradientTransform="translate(3496.76 2935.06) rotate(-151.26)" gradientUnits="userSpaceOnUse"><stop offset="0" stop-color="#ac4a31"/><stop offset="1" stop-color="#8c3832"/></linearGradient><linearGradient id="Áåçûìÿííûé_ãðàäèåíò_137-2" x1="4360.03" y1="958.42" x2="4360.03" y2="850.97" xlink:href="#Áåçûìÿííûé_ãðàäèåíò_137"/><radialGradient id="Áåçûìÿííûé_ãðàäèåíò_139" cx="4346.89" cy="927.46" r="16.92" gradientTransform="translate(3496.76 2935.06) rotate(-151.26)" gradientUnits="userSpaceOnUse"><stop offset="0" stop-color="#dddbe3"/><stop offset="1" stop-color="#9f8bcc"/></radialGradient><radialGradient id="Áåçûìÿííûé_ãðàäèåíò_139-2" cx="4347.62" cy="903.46" r="12.42" xlink:href="#Áåçûìÿííûé_ãðàäèåíò_139"/><radialGradient id="Áåçûìÿííûé_ãðàäèåíò_139-3" cx="4348.51" cy="879.85" r="9.01" xlink:href="#Áåçûìÿííûé_ãðàäèåíò_139"/><radialGradient id="Áåçûìÿííûé_ãðàäèåíò_139-4" cx="4350.81" cy="859.18" r="10.8" xlink:href="#Áåçûìÿííûé_ãðàäèåíò_139"/><radialGradient id="Áåçûìÿííûé_ãðàäèåíò_139-5" cx="4350.16" cy="717.9" r="12.16" xlink:href="#Áåçûìÿííûé_ãðàäèåíò_139"/><linearGradient id="Áåçûìÿííûé_ãðàäèåíò_149" x1="4350.16" y1="732.69" x2="4350.16" y2="711.04" gradientTransform="translate(3496.76 2935.06) rotate(-151.26)" gradientUnits="userSpaceOnUse"><stop offset="0" stop-color="#c77cbd"/><stop offset="1" stop-color="#974577"/></linearGradient><linearGradient id="Áåçûìÿííûé_ãðàäèåíò_145" x1="4350.16" y1="726.07" x2="4350.16" y2="709.73" gradientTransform="translate(3496.76 2935.06) rotate(-151.26)" gradientUnits="userSpaceOnUse"><stop offset="0" stop-color="#ff132d"/><stop offset="0.96" stop-color="#8e0074"/></linearGradient></defs><g class="cls-1"><g id="Calque_2" data-name="Calque 2"><g id="game"><path class="cls-2" d="M107,183.84s8.74,5.39,21.4,1.65c0,0,18.33-63.92-33-92.09L60,158Z"/><path class="cls-3" d="M17.87,231.68c14.86,1.77,32.65-9,32.65-9l1.18-15.88-15.5-8.5-15.51-8.51L7.94,199.3S8.4,220.11,17.87,231.68Z"/><path class="cls-4" d="M12.89,132.2S3.65,127.73,0,115.05c0,0,44.05-49.82,95.41-21.65L60,158Z"/><circle class="cls-5" cx="64.71" cy="145.46" r="55.89" transform="translate(-83.9 88.36) rotate(-45)"/><circle class="cls-6" cx="61.23" cy="151.81" r="55.89" transform="translate(-89.42 87.76) rotate(-45)"/><circle class="cls-7" cx="61.23" cy="151.81" r="49.3" transform="translate(-89.42 87.76) rotate(-45)"/><circle class="cls-8" cx="61.23" cy="151.81" r="46.48" transform="translate(-95.71 105.25) rotate(-51.51)"/><circle class="cls-9" cx="61.23" cy="151.81" r="46.48" transform="translate(-95.71 105.25) rotate(-51.51)"/><path class="cls-10" d="M94.12,95.75,144.75,3.44c14.75,12.13,12.14,24.62,12,25.39a.06.06,0,0,1,0,0s-1.38,1.32-3.7,3.57c-2,1.91-4.67,4.52-7.74,7.56s-6.54,6.54-10.1,10.2c-2.44,2.52-4.92,5.12-7.35,7.72-2.09,2.24-4.14,4.48-6.08,6.65-1.3,1.47-2.55,2.91-3.74,4.3-2.16,2.54-4.08,4.94-5.69,7.11a39.21,39.21,0,0,0-4.1,6.55,34.2,34.2,0,0,0-2.29,6.85,28.2,28.2,0,0,0-.3,10.76,1.36,1.36,0,0,1,0,.2h0a18.91,18.91,0,0,0,1.58,5.08Z"/><path class="cls-11" d="M116.87,7l0,0c.56-.56,9.7-9.46,27.85-3.55L94.12,95.75,78.91,89.89A18.8,18.8,0,0,0,84,88.49a.11.11,0,0,0,.07,0,26.32,26.32,0,0,0,5.48-3.08,32.19,32.19,0,0,0,8.1-8.62,44.32,44.32,0,0,0,3.84-8.38c.94-2.54,1.88-5.42,2.83-8.54.43-1.44.86-3,1.3-4.5.85-3,1.67-6.13,2.49-9.3h0c1.24-4.9,2.43-9.86,3.5-14.54.73-3.14,1.38-6.15,2-8.9C115.61,13.5,116.87,7,116.87,7Z"/><path class="cls-12" d="M153,32.43s2.2,11.47-7.73,7.58c0,0-16.91-10.08-33.62-8.52,0,0-7.59-3.75,2-8.91C113.65,22.58,128.66,18.38,153,32.43Z"/><path class="cls-13" d="M135.18,50.2s2,7.84-7.36,7.73c0,0-5.71-12.88-22.17-2.58,0,0-7.73-3.21,2.5-9.31C108.15,46,118.85,41,135.18,50.2Z"/><path class="cls-14" d="M101.53,68.38a24.92,24.92,0,0,1,8.17-1,27.46,27.46,0,0,1,8.3,1.51h0s1.64,7.16-5.7,7.1a20.09,20.09,0,0,0-7-.67,29,29,0,0,0-7.65,1.45S91.87,72.13,101.53,68.38Z"/><path class="cls-15" d="M80.06,87.11a24.41,24.41,0,0,1,9.53-1.73A35.64,35.64,0,0,1,99,86.79a38,38,0,0,1,6.88,2.59h0c4.22,3.62-.32,10.75-.32,10.75a63.4,63.4,0,0,0-10.28-6.61l-1.56-.8-.31-.16c-3.62-1.79-7-3.15-9.43-4.08-1-.38-1.86-.67-2.51-.9a.12.12,0,0,1-.07,0C80.57,87.26,80.06,87.11,80.06,87.11Z"/><path class="cls-16" d="M34.67,202.17s7.2,9.24,3.19,15.59-17,7.31-17,7.31-6-10.91-1.69-18.37S34.67,202.17,34.67,202.17Z"/><path class="cls-17" d="M35.18,200.81s4,6.46.8,11.66-11.78,7-11.78,7-3-7.85.43-13.91S35.18,200.81,35.18,200.81Z"/><path class="cls-18" d="M32,206.61s4.4,5.66,2,9.55-10.38,4.47-10.38,4.47-3.65-6.68-1-11.25S32,206.61,32,206.61Z"/><path class="cls-19" d="M107,183.84a26.42,26.42,0,0,1,21.4,1.65S119.55,191,107,183.84Z"/><path class="cls-19" d="M9.74,130.08s1.84-5.57-9.74-15A19.39,19.39,0,0,0,9.74,130.08Z"/><path class="cls-20" d="M156.71,28.88S145.71,12.32,116.87,7c0,0,10.64-13,27.88-3.58S156.71,28.88,156.71,28.88Z"/><path class="cls-21" d="M50.52,222.66l-6-2.78a39.16,39.16,0,0,1-24.87,8.53,50.44,50.44,0,0,1-7.39-27.83L7.94,199.3s-2.26,19.48,9.93,32.38C17.87,231.68,34.27,234.56,50.52,222.66Z"/><polygon class="cls-22" points="44.54 219.88 47.83 206.08 51.7 206.78 50.52 222.66 44.54 219.88"/><polygon class="cls-22" points="12.28 200.58 22.76 192.37 20.69 189.77 7.94 199.3 12.28 200.58"/><path class="cls-23" d="M22.64,216.57c-.08-1,.4-1.87,1.08-1.92s1.3.72,1.38,1.72-.4,1.87-1.08,1.92S22.72,217.58,22.64,216.57Z"/><path class="cls-23" d="M19,217.68c0-.55.22-1,.59-1.05s.7.39.75.94-.22,1-.59,1S19,218.22,19,217.68Z"/><path class="cls-24" d="M89.59,85.38a32.19,32.19,0,0,0,8.1-8.62s-5.82-4.63,3.84-8.38c.94-2.54,1.88-5.42,2.83-8.54a55.57,55.57,0,0,1,8.55,1.66,67.46,67.46,0,0,1,8.83,3.07c-1.3,1.47-2.55,2.91-3.74,4.3h0s1.64,7.16-5.7,7.1a39.21,39.21,0,0,0-4.1,6.55,34.2,34.2,0,0,0-2.29,6.85h0c4.22,3.62-.32,10.75-.32,10.75a1.36,1.36,0,0,1,0,.2,85,85,0,0,0-10.31-6.78c-.52-.29-1-.57-1.55-.83l-.31-.16a73.75,73.75,0,0,0-9.36-4.11c-.87-.31-1.74-.6-2.58-.87a.12.12,0,0,1-.07,0c-.89-.31-1.4-.46-1.4-.46A24.41,24.41,0,0,1,89.59,85.38Z"/><path class="cls-21" d="M139.57,15.08S125.91,15,118.15,7.27C118.15,7.27,128,3.4,139.57,15.08Z"/><path class="cls-25" d="M104.71,163s-15.22,4.46-27.61-12.56,0-40.53,0-40.53S110.62,120.67,104.71,163Z"/><path class="cls-23" d="M23.73,167.54c4.65,2.17,3.7-10.94-.4-11.65S19.84,165.73,23.73,167.54Z"/><path class="cls-26" d="M15.91,179.36c4.09.35-.21-9.22-3.48-8.63S12.51,179.06,15.91,179.36Z"/><path class="cls-21" d="M122.78,183.29a15.24,15.24,0,0,1-9.15-.87S118.42,175.94,122.78,183.29Z"/><path class="cls-21" d="M8.63,124.83s2.43-4.69-6.17-7.64Z"/></g></g></g></svg>