<svg xmlns="http://www.w3.org/2000/svg" xmlns:xlink="http://www.w3.org/1999/xlink" viewBox="0 0 175.49 200.82"><defs><style>.cls-1{fill:none;clip-rule:evenodd;}.cls-2{isolation:isolate;}.cls-10,.cls-11,.cls-12,.cls-13,.cls-14,.cls-15,.cls-16,.cls-274,.cls-275,.cls-276,.cls-277,.cls-278,.cls-279,.cls-280,.cls-281,.cls-282,.cls-283,.cls-284,.cls-285,.cls-286,.cls-287,.cls-3,.cls-4,.cls-8,.cls-9{fill-rule:evenodd;}.cls-3{fill:url(#Áåçûìÿííûé_ãðàäèåíò_84);}.cls-4{fill:url(#Áåçûìÿííûé_ãðàäèåíò_84-2);}.cls-11,.cls-5{fill:#9a3120;}.cls-6{fill:url(#Áåçûìÿííûé_ãðàäèåíò_405);}.cls-7{fill:url(#Áåçûìÿííûé_ãðàäèåíò_82);}.cls-8{fill:#6746b3;}.cls-283,.cls-8{mix-blend-mode:multiply;}.cls-286,.cls-8{opacity:0.5;}.cls-9{fill:url(#Áåçûìÿííûé_ãðàäèåíò_89);}.cls-10{fill:#ffbb3b;}.cls-12{fill:#c54a3b;}.cls-13{fill:#ffe03b;}.cls-14{fill:#ffa23b;}.cls-15{fill:#ffff1f;}.cls-16{fill:#ffffc2;mix-blend-mode:soft-light;}.cls-17,.cls-275,.cls-276,.cls-277,.cls-279,.cls-280,.cls-282,.cls-286,.cls-287{mix-blend-mode:screen;}.cls-18{clip-path:url(#clip-path);}.cls-19{fill:#81ffe7;}.cls-20{fill:#81fee6;}.cls-21{fill:#80fde6;}.cls-22{fill:#80fce5;}.cls-23{fill:#80fbe4;}.cls-24{fill:#7ffae4;}.cls-25{fill:#7ff9e3;}.cls-26{fill:#7ff8e3;}.cls-27{fill:#7ef7e2;}.cls-28{fill:#7ef6e1;}.cls-29{fill:#7ef5e1;}.cls-30{fill:#7ef4e0;}.cls-31{fill:#7df3df;}.cls-32{fill:#7df2df;}.cls-33{fill:#7df1de;}.cls-34{fill:#7cf0dd;}.cls-35{fill:#7cefdd;}.cls-36{fill:#7ceedc;}.cls-37{fill:#7beddc;}.cls-38{fill:#7becdb;}.cls-39{fill:#7bebda;}.cls-40{fill:#7aeada;}.cls-41{fill:#7ae9d9;}.cls-42{fill:#7ae8d8;}.cls-43{fill:#79e7d8;}.cls-44{fill:#79e6d7;}.cls-45{fill:#79e5d6;}.cls-46{fill:#78e4d6;}.cls-47{fill:#78e3d5;}.cls-48{fill:#78e2d5;}.cls-49{fill:#78e1d4;}.cls-50{fill:#77e0d3;}.cls-51{fill:#77dfd3;}.cls-52{fill:#77ded2;}.cls-53{fill:#76ddd1;}.cls-54{fill:#76dcd1;}.cls-55{fill:#76dbd0;}.cls-56{fill:#75dacf;}.cls-57{fill:#75d9cf;}.cls-58{fill:#75d8ce;}.cls-59{fill:#74d7cd;}.cls-60{fill:#74d6cd;}.cls-61{fill:#74d5cc;}.cls-62{fill:#73d4cc;}.cls-63{fill:#73d3cb;}.cls-64{fill:#73d2ca;}.cls-65{fill:#73d1ca;}.cls-66{fill:#72d0c9;}.cls-67{fill:#72cfc8;}.cls-68{fill:#72cec8;}.cls-69{fill:#71cdc7;}.cls-70{fill:#71ccc6;}.cls-71{fill:#71cbc6;}.cls-72{fill:#70cac5;}.cls-73{fill:#70c9c5;}.cls-74{fill:#70c8c4;}.cls-75{fill:#6fc7c3;}.cls-76{fill:#6fc6c3;}.cls-77{fill:#6fc5c2;}.cls-78{fill:#6ec4c1;}.cls-79{fill:#6ec3c1;}.cls-80{fill:#6ec2c0;}.cls-81{fill:#6dc1bf;}.cls-82{fill:#6dc0bf;}.cls-83{fill:#6dbfbe;}.cls-84{fill:#6dbebe;}.cls-85{fill:#6cbdbd;}.cls-86{fill:#6cbcbc;}.cls-87{fill:#6cbbbc;}.cls-88{fill:#6bbabb;}.cls-89{fill:#6bb9ba;}.cls-90{fill:#6bb8ba;}.cls-91{fill:#6ab7b9;}.cls-92{fill:#6ab6b8;}.cls-93{fill:#6ab5b8;}.cls-94{fill:#69b4b7;}.cls-95{fill:#69b3b7;}.cls-96{fill:#69b2b6;}.cls-97{fill:#68b1b5;}.cls-98{fill:#68b0b5;}.cls-99{fill:#68afb4;}.cls-100{fill:#67aeb3;}.cls-101{fill:#67adb3;}.cls-102{fill:#67acb2;}.cls-103{fill:#67abb1;}.cls-104{fill:#66aab1;}.cls-105{fill:#66a9b0;}.cls-106{fill:#66a8b0;}.cls-107{fill:#65a7af;}.cls-108{fill:#65a6ae;}.cls-109{fill:#65a5ae;}.cls-110{fill:#64a4ad;}.cls-111{fill:#64a3ac;}.cls-112{fill:#64a2ac;}.cls-113{fill:#63a1ab;}.cls-114{fill:#63a0aa;}.cls-115{fill:#639faa;}.cls-116{fill:#629ea9;}.cls-117{fill:#629da8;}.cls-118{fill:#629ca8;}.cls-119{fill:#629ba7;}.cls-120{fill:#619aa7;}.cls-121{fill:#6199a6;}.cls-122{fill:#6198a5;}.cls-123{fill:#6097a5;}.cls-124{fill:#6096a4;}.cls-125{fill:#6095a3;}.cls-126{fill:#5f94a3;}.cls-127{fill:#5f93a2;}.cls-128{fill:#5f92a1;}.cls-129{fill:#5e91a1;}.cls-130{fill:#5e90a0;}.cls-131{fill:#5e8fa0;}.cls-132{fill:#5d8e9f;}.cls-133{fill:#5d8d9e;}.cls-134{fill:#5d8c9e;}.cls-135{fill:#5c8b9d;}.cls-136{fill:#5c8a9c;}.cls-137{fill:#5c899c;}.cls-138{fill:#5c889b;}.cls-139{fill:#5b879a;}.cls-140{fill:#5b869a;}.cls-141{fill:#5b8599;}.cls-142{fill:#5a8499;}.cls-143{fill:#5a8398;}.cls-144{fill:#5a8297;}.cls-145{fill:#598197;}.cls-146{fill:#598096;}.cls-147{fill:#597e95;}.cls-148{fill:#587d95;}.cls-149{fill:#587c94;}.cls-150{fill:#587b93;}.cls-151{fill:#577a93;}.cls-152{fill:#577992;}.cls-153{fill:#577892;}.cls-154{fill:#567791;}.cls-155{fill:#567690;}.cls-156{fill:#567590;}.cls-157{fill:#56748f;}.cls-158{fill:#55738e;}.cls-159{fill:#55728e;}.cls-160{fill:#55718d;}.cls-161{fill:#54708c;}.cls-162{fill:#546f8c;}.cls-163{fill:#546e8b;}.cls-164{fill:#536d8b;}.cls-165{fill:#536c8a;}.cls-166{fill:#536b89;}.cls-167{fill:#526a89;}.cls-168{fill:#526988;}.cls-169{fill:#526887;}.cls-170{fill:#516787;}.cls-171{fill:#516686;}.cls-172{fill:#516585;}.cls-173{fill:#506485;}.cls-174{fill:#506384;}.cls-175{fill:#506284;}.cls-176{fill:#506183;}.cls-177{fill:#4f6082;}.cls-178{fill:#4f5f82;}.cls-179{fill:#4f5e81;}.cls-180{fill:#4e5d80;}.cls-181{fill:#4e5c80;}.cls-182{fill:#4e5b7f;}.cls-183{fill:#4d5a7e;}.cls-184{fill:#4d597e;}.cls-185{fill:#4d587d;}.cls-186{fill:#4c577c;}.cls-187{fill:#4c567c;}.cls-188{fill:#4c557b;}.cls-189{fill:#4b547b;}.cls-190{fill:#4b537a;}.cls-191{fill:#4b5279;}.cls-192{fill:#4b5179;}.cls-193{fill:#4a5078;}.cls-194{fill:#4a4f77;}.cls-195{fill:#4a4e77;}.cls-196{fill:#494d76;}.cls-197{fill:#494c75;}.cls-198{fill:#494b75;}.cls-199{fill:#484a74;}.cls-200{fill:#484974;}.cls-201{fill:#484873;}.cls-202{fill:#474772;}.cls-203{fill:#474672;}.cls-204{fill:#474571;}.cls-205{fill:#464470;}.cls-206{fill:#464370;}.cls-207{fill:#46426f;}.cls-208{fill:#45416e;}.cls-209{fill:#45406e;}.cls-210{fill:#453f6d;}.cls-211{fill:#453e6d;}.cls-212{fill:#443d6c;}.cls-213{fill:#443c6b;}.cls-214{fill:#443b6b;}.cls-215{fill:#433a6a;}.cls-216{fill:#433969;}.cls-217{fill:#433869;}.cls-218{fill:#423768;}.cls-219{fill:#423667;}.cls-220{fill:#423567;}.cls-221{fill:#413466;}.cls-222{fill:#413366;}.cls-223{fill:#413265;}.cls-224{fill:#403164;}.cls-225{fill:#403064;}.cls-226{fill:#402f63;}.cls-227{fill:#3f2e62;}.cls-228{fill:#3f2d62;}.cls-229{fill:#3f2c61;}.cls-230{fill:#3f2b60;}.cls-231{fill:#3e2a60;}.cls-232{fill:#3e295f;}.cls-233{fill:#3e285f;}.cls-234{fill:#3d275e;}.cls-235{fill:#3d265d;}.cls-236{fill:#3d255d;}.cls-237{fill:#3c245c;}.cls-238{fill:#3c235b;}.cls-239{fill:#3c225b;}.cls-240{fill:#3b215a;}.cls-241{fill:#3b2059;}.cls-242{fill:#3b1f59;}.cls-243{fill:#3a1e58;}.cls-244{fill:#3a1d57;}.cls-245{fill:#3a1c57;}.cls-246{fill:#3a1b56;}.cls-247{fill:#391a56;}.cls-248{fill:#391955;}.cls-249{fill:#391854;}.cls-250{fill:#381754;}.cls-251{fill:#381653;}.cls-252{fill:#381552;}.cls-253{fill:#371452;}.cls-254{fill:#371351;}.cls-255{fill:#371250;}.cls-256{fill:#361150;}.cls-257{fill:#36104f;}.cls-258{fill:#360f4f;}.cls-259{fill:#350e4e;}.cls-260{fill:#350d4d;}.cls-261{fill:#350c4d;}.cls-262{fill:#340b4c;}.cls-263{fill:#340a4b;}.cls-264{fill:#34094b;}.cls-265{fill:#34084a;}.cls-266{fill:#330749;}.cls-267{fill:#330649;}.cls-268{fill:#330548;}.cls-269{fill:#320448;}.cls-270{fill:#320347;}.cls-271{fill:#320246;}.cls-272{fill:#310146;}.cls-273{fill:#310045;}.cls-274{fill:#fff;}.cls-275,.cls-276,.cls-277{opacity:0.96;}.cls-275{fill:url(#Áåçûìÿííûé_ãðàäèåíò_14);}.cls-276{fill:url(#Áåçûìÿííûé_ãðàäèåíò_14-2);}.cls-277{fill:url(#Áåçûìÿííûé_ãðàäèåíò_190);}.cls-278{fill:aqua;}.cls-279{fill:url(#Áåçûìÿííûé_ãðàäèåíò_187);}.cls-280{fill:url(#Áåçûìÿííûé_ãðàäèåíò_187-2);}.cls-281{fill:url(#Áåçûìÿííûé_ãðàäèåíò_84-3);}.cls-282{fill:url(#Áåçûìÿííûé_ãðàäèåíò_16);}.cls-283{fill:#672777;opacity:0.7;}.cls-284{fill:url(#Áåçûìÿííûé_ãðàäèåíò_60);}.cls-285{fill:url(#Áåçûìÿííûé_ãðàäèåíò_60-2);}.cls-286{fill:url(#Áåçûìÿííûé_ãðàäèåíò_129);}.cls-287{opacity:0.3;fill:url(#Áåçûìÿííûé_ãðàäèåíò_129-2);}</style><radialGradient id="Áåçûìÿííûé_ãðàäèåíò_84" cx="-1563.8" cy="618.21" r="43.45" gradientTransform="translate(1758.65 616.82) rotate(37.47)" gradientUnits="userSpaceOnUse"><stop offset="0" stop-color="#dddbe3"/><stop offset="1" stop-color="#866da9"/></radialGradient><radialGradient id="Áåçûìÿííûé_ãðàäèåíò_84-2" cx="589.93" cy="618.17" r="43.45" gradientTransform="matrix(-0.79, -0.61, -0.61, 0.79, 869.61, -64.49)" xlink:href="#Áåçûìÿííûé_ãðàäèåíò_84"/><radialGradient id="Áåçûìÿííûé_ãðàäèåíò_405" cx="-1597.04" cy="337.63" r="69.69" gradientTransform="matrix(0, 1, -1.42, 0, 600.96, 1743.18)" gradientUnits="userSpaceOnUse"><stop offset="0" stop-color="#ffc827"/><stop offset="0.97" stop-color="#ff741f"/></radialGradient><radialGradient id="Áåçûìÿííûé_ãðàäèåíò_82" cx="-1615.89" cy="326.35" r="86.94" gradientTransform="matrix(0, 1, -1.42, 0, 600.96, 1743.18)" gradientUnits="userSpaceOnUse"><stop offset="0" stop-color="#ffec45"/><stop offset="0.59" stop-color="#ffbd2e"/><stop offset="0.97" stop-color="#cc5538"/></radialGradient><radialGradient id="Áåçûìÿííûé_ãðàäèåíò_89" cx="-1627.23" cy="350.9" r="57.65" gradientTransform="matrix(0.79, 0.61, -0.86, 1.13, 1699.28, 694.25)" gradientUnits="userSpaceOnUse"><stop offset="0" stop-color="#fff"/><stop offset="0.32" stop-color="#c7bdde"/><stop offset="0.88" stop-color="#7c6dbf"/><stop offset="0.98" stop-color="#9fabff"/></radialGradient><clipPath id="clip-path"><path class="cls-1" d="M86.12,50.21s26.42-12.68,45.62,5.57C155.64,78.5,133.5,119,133.5,119s-8.46.24-23.09-17.7C100.28,88.86,109.16,72,99.13,58.47A22.42,22.42,0,0,0,86.12,50.21Z"/></clipPath><linearGradient id="Áåçûìÿííûé_ãðàäèåíò_14" x1="-1665.2" y1="671.63" x2="-1665.2" y2="631.49" gradientTransform="translate(1758.65 616.82) rotate(37.47)" gradientUnits="userSpaceOnUse"><stop offset="0.04" stop-color="#0086fb"/><stop offset="1"/></linearGradient><linearGradient id="Áåçûìÿííûé_ãðàäèåíò_14-2" x1="-1644.64" y1="682" x2="-1644.64" y2="661.7" xlink:href="#Áåçûìÿííûé_ãðàäèåíò_14"/><linearGradient id="Áåçûìÿííûé_ãðàäèåíò_190" x1="-1606.49" y1="627.44" x2="-1590.15" y2="627.44" gradientTransform="translate(1758.65 616.82) rotate(37.47)" gradientUnits="userSpaceOnUse"><stop offset="0"/><stop offset="0.96" stop-color="#0086fb"/></linearGradient><linearGradient id="Áåçûìÿííûé_ãðàäèåíò_187" x1="-1731.62" y1="585.34" x2="-1701.34" y2="585.34" gradientTransform="translate(1758.65 616.82) rotate(37.47)" gradientUnits="userSpaceOnUse"><stop offset="0" stop-color="#310045"/><stop offset="0.96" stop-color="#81ffe7"/></linearGradient><linearGradient id="Áåçûìÿííûé_ãðàäèåíò_187-2" x1="-1576.2" y1="583.59" x2="-1542.35" y2="583.59" xlink:href="#Áåçûìÿííûé_ãðàäèåíò_187"/><radialGradient id="Áåçûìÿííûé_ãðàäèåíò_84-3" cx="-1636.98" cy="497.57" r="13.15" xlink:href="#Áåçûìÿííûé_ãðàäèåíò_84"/><radialGradient id="Áåçûìÿííûé_ãðàäèåíò_16" cx="-1728.2" cy="17500078.3" r="7.26" gradientTransform="matrix(0.79, 0.61, 0, 0, 6786.18, -5942.94)" xlink:href="#Áåçûìÿííûé_ãðàäèåíò_187"/><linearGradient id="Áåçûìÿííûé_ãðàäèåíò_60" x1="-1643.88" y1="693.38" x2="-1643.88" y2="516.96" gradientTransform="translate(1758.65 616.82) rotate(37.47)" gradientUnits="userSpaceOnUse"><stop offset="0" stop-color="#361b5a"/><stop offset="1" stop-color="#654d7c"/></linearGradient><linearGradient id="Áåçûìÿííûé_ãðàäèåíò_60-2" x1="-1638.65" y1="700.06" x2="-1638.65" y2="525.01" xlink:href="#Áåçûìÿííûé_ãðàäèåíò_60"/><radialGradient id="Áåçûìÿííûé_ãðàäèåíò_129" cx="-1636.65" cy="549.29" r="35.16" gradientTransform="translate(1758.65 616.82) rotate(37.47)" gradientUnits="userSpaceOnUse"><stop offset="0.04" stop-color="#81ffe7"/><stop offset="1" stop-color="#310045"/></radialGradient><radialGradient id="Áåçûìÿííûé_ãðàäèåíò_129-2" cx="-1667.57" cy="536.12" r="13.49" xlink:href="#Áåçûìÿííûé_ãðàäèåíò_129"/></defs><g class="cls-2"><g id="Calque_2" data-name="Calque 2"><g id="game"><path class="cls-3" d="M163.71,101s19.58,33.7.58,61.34c-23.25,33.83-75.23,26-75.23,26l18.25-9.53s27.88-2.47,43-21.64c17-21.53,8.41-41.28,8.41-41.28Z"/><path class="cls-4" d="M72.86,31.4S35.23,21.25,13.48,46.78C-13.14,78,7.88,126.2,7.88,126.2l4.05-18.28s-4.46-29.38,10.12-49c16.38-22,37.68-18.85,37.68-18.85Z"/><ellipse class="cls-5" cx="86.84" cy="106.64" rx="99.19" ry="68.57" transform="translate(-50.62 110.69) rotate(-52.53)"/><ellipse class="cls-6" cx="87.38" cy="105.93" rx="97.22" ry="68.57" transform="translate(-49.85 110.85) rotate(-52.53)"/><ellipse class="cls-7" cx="87.38" cy="105.93" rx="79.13" ry="55.8" transform="translate(-49.85 110.85) rotate(-52.53)"/><path class="cls-8" d="M117.87,145.42C93.18,177.63,57.68,191.88,35,174.47s-21.12-57.64,3.57-89.85,61.35-41,84.07-23.6S142.55,113.21,117.87,145.42Z"/><path class="cls-9" d="M125.65,135.26c-24.69,32.22-60.19,46.47-82.9,29.05s-21.13-57.64,3.56-89.85,61.36-41,84.07-23.6S150.34,103.05,125.65,135.26Z"/><path class="cls-10" d="M122.1,18.79l14,6.25,2.66.52,9.9,7.58L159.9,44.38s-5.4-9.5-17.85-19C133.14,18.51,122.1,18.79,122.1,18.79Z"/><path class="cls-11" d="M15.51,94.3l2.59,5L7.23,128.45S7.72,110.15,15.51,94.3Z"/><path class="cls-11" d="M49,192.46l9.72-1.89,13.92,2.14S60.43,196.2,49,192.46Z"/><path class="cls-12" d="M157,122.64l-5.73,2.16-7,19.58S152.85,132.73,157,122.64Z"/><polygon class="cls-13" points="151.29 124.8 151.97 132.58 144.3 144.38 151.29 124.8"/><path class="cls-14" d="M87,23.12l-3.59,3.79L70.21,31S81.11,25,87,23.12Z"/><path class="cls-14" d="M91.12,21.75l17.45,6.75-8-9.08A49.42,49.42,0,0,0,91.12,21.75Z"/><polygon class="cls-12" points="100.59 19.42 97.34 19.89 108.57 28.5 100.59 19.42"/><path class="cls-15" d="M149,61.3l-7.36,3.15s7.17,13.68,3.71,27.66l6.65,1.5S155.34,79.57,149,61.3Z"/><path class="cls-16" d="M9.09,152.55l-1.89.64s1.1,7,6.32,17.12l2.65-.59A67.77,67.77,0,0,1,9.09,152.55Z"/><g class="cls-17"><g class="cls-18"><rect class="cls-19" x="87.53" y="36.62" width="57.22" height="79.43" transform="translate(-15.09 122.08) rotate(-52.53)"/><path class="cls-19" d="M135.85,50.62s-8.76,11.46-19.59,25.58-19.6,25.57-19.61,25.56,8.76-11.46,19.59-25.58S135.84,50.61,135.85,50.62Z"/><path class="cls-20" d="M135.77,50.72s-8.72,11.41-19.51,25.48-19.52,25.47-19.53,25.46,8.73-11.41,19.51-25.48S135.77,50.71,135.77,50.72Z"/><path class="cls-21" d="M135.7,50.82S127,62.19,116.26,76.2L96.81,101.56s8.69-11.37,19.43-25.38S135.69,50.81,135.7,50.82Z"/><path class="cls-22" d="M135.62,50.92S127,62.24,116.26,76.2s-19.37,25.26-19.38,25.26,8.66-11.32,19.36-25.28S135.61,50.91,135.62,50.92Z"/><path class="cls-23" d="M135.54,51S126.92,62.3,116.26,76.2,97,101.36,97,101.36s8.62-11.28,19.28-25.18S135.53,51,135.54,51Z"/><path class="cls-24" d="M135.47,51.12s-8.59,11.23-19.21,25.08L97,101.26s8.59-11.24,19.2-25.08S135.46,51.11,135.47,51.12Z"/><path class="cls-25" d="M135.39,51.22s-8.56,11.19-19.13,25-19.14,25-19.15,25,8.56-11.19,19.13-25S135.38,51.21,135.39,51.22Z"/><path class="cls-26" d="M135.31,51.32s-8.52,11.14-19,24.88S97.2,101.06,97.19,101.06s8.52-11.15,19-24.88S135.3,51.31,135.31,51.32Z"/><path class="cls-27" d="M135.23,51.42s-8.48,11.1-19,24.78-19,24.76-19,24.76,8.48-11.1,19-24.78S135.23,51.41,135.23,51.42Z"/><path class="cls-28" d="M135.16,51.52s-8.45,11-18.9,24.68-18.91,24.66-18.92,24.66,8.46-11.06,18.9-24.68S135.15,51.51,135.16,51.52Z"/><path class="cls-29" d="M135.08,51.62s-8.42,11-18.82,24.58-18.83,24.56-18.84,24.56,8.42-11,18.82-24.58S135.07,51.61,135.08,51.62Z"/><path class="cls-30" d="M135,51.72s-8.38,11-18.74,24.48S97.5,100.66,97.5,100.66s8.38-11,18.74-24.48Z"/><path class="cls-31" d="M134.93,51.82s-8.35,10.92-18.67,24.38-18.68,24.36-18.69,24.36,8.35-10.92,18.67-24.38S134.92,51.82,134.93,51.82Z"/><path class="cls-32" d="M134.85,51.92S126.54,62.8,116.26,76.2s-18.6,24.26-18.61,24.26S106,89.58,116.24,76.18,134.84,51.92,134.85,51.92Z"/><path class="cls-33" d="M134.77,52s-8.28,10.83-18.51,24.18-18.52,24.16-18.53,24.16S106,89.53,116.24,76.18,134.77,52,134.77,52Z"/><path class="cls-34" d="M134.7,52.12s-8.25,10.79-18.44,24.08-18.45,24.06-18.45,24.06,8.24-10.79,18.43-24.08S134.69,52.12,134.7,52.12Z"/><path class="cls-35" d="M134.62,52.22s-8.21,10.74-18.36,24-18.37,24-18.38,24,8.21-10.74,18.36-24S134.61,52.22,134.62,52.22Z"/><path class="cls-36" d="M134.54,52.32S126.37,63,116.26,76.2,98,100.06,98,100.06s8.18-10.7,18.28-23.88S134.54,52.32,134.54,52.32Z"/><path class="cls-37" d="M134.47,52.42,116.26,76.2,98,100s8.14-10.65,18.2-23.78S134.46,52.42,134.47,52.42Z"/><path class="cls-38" d="M134.39,52.52s-8.11,10.61-18.13,23.68S98.12,99.86,98.11,99.85s8.11-10.6,18.13-23.67S134.38,52.52,134.39,52.52Z"/><path class="cls-39" d="M134.31,52.62s-8.07,10.56-18,23.58S98.2,99.76,98.19,99.75s8.07-10.56,18-23.57S134.31,52.62,134.31,52.62Z"/><path class="cls-40" d="M134.24,52.72s-8,10.52-18,23.48-18,23.46-18,23.45,8-10.51,18-23.47S134.23,52.72,134.24,52.72Z"/><path class="cls-41" d="M134.16,52.82,116.26,76.2c-9.89,12.9-17.91,23.36-17.92,23.35s8-10.47,17.9-23.37S134.15,52.82,134.16,52.82Z"/><path class="cls-42" d="M134.08,52.92s-8,10.43-17.82,23.28S98.43,99.46,98.42,99.45s8-10.42,17.82-23.27Z"/><path class="cls-43" d="M134,53S126.07,63.4,116.26,76.2,98.5,99.36,98.5,99.35,106.43,89,116.24,76.18,134,53,134,53Z"/><path class="cls-44" d="M133.93,53.12S126,63.46,116.26,76.2s-17.68,23.06-17.69,23l17.67-23.07C126,63.44,133.92,53.12,133.93,53.12Z"/><path class="cls-45" d="M133.85,53.22s-7.87,10.29-17.59,23-17.6,23-17.61,23,7.87-10.29,17.59-23S133.84,53.22,133.85,53.22Z"/><path class="cls-46" d="M133.77,53.32s-7.83,10.25-17.51,22.88S98.73,99.06,98.73,99.05s7.83-10.24,17.51-22.87Z"/><path class="cls-47" d="M133.7,53.43s-7.8,10.2-17.44,22.77S98.81,99,98.8,99s7.8-10.2,17.44-22.77S133.69,53.42,133.7,53.43Z"/><path class="cls-48" d="M133.62,53.53s-7.76,10.15-17.36,22.67S98.89,98.86,98.88,98.85l17.36-22.67C125.83,63.66,133.61,53.52,133.62,53.53Z"/><path class="cls-49" d="M133.54,53.63s-7.73,10.11-17.28,22.57S99,98.76,99,98.75s7.73-10.11,17.28-22.57S133.54,53.62,133.54,53.63Z"/><path class="cls-50" d="M133.47,53.73,116.26,76.2,99,98.65s7.69-10.06,17.2-22.47S133.46,53.72,133.47,53.73Z"/><path class="cls-51" d="M133.39,53.83s-7.66,10-17.13,22.37S99.12,98.56,99.11,98.55s7.66-10,17.13-22.37S133.38,53.82,133.39,53.83Z"/><path class="cls-52" d="M133.31,53.93s-7.62,10-17,22.27S99.19,98.46,99.19,98.45s7.63-10,17-22.27S133.31,53.92,133.31,53.93Z"/><path class="cls-53" d="M133.24,54l-17,22.17c-9.38,12.24-17,22.16-17,22.15s7.59-9.93,17-22.17S133.23,54,133.24,54Z"/><path class="cls-54" d="M133.16,54.13S125.6,64,116.26,76.2s-16.91,22.06-16.92,22,7.56-9.89,16.9-22.07S133.15,54.12,133.16,54.13Z"/><path class="cls-55" d="M133.08,54.23s-7.52,9.84-16.82,22-16.83,22-16.84,22,7.52-9.84,16.82-22Z"/><path class="cls-56" d="M133,54.33s-7.49,9.79-16.75,21.87S99.5,98.05,99.5,98.05s7.49-9.8,16.74-21.87S133,54.32,133,54.33Z"/><path class="cls-57" d="M132.93,54.43,116.26,76.2C107.05,88.22,99.58,98,99.57,98S107,88.2,116.24,76.18,132.92,54.42,132.93,54.43Z"/><path class="cls-58" d="M132.85,54.53s-7.42,9.7-16.59,21.67S99.66,97.85,99.65,97.85s7.42-9.71,16.59-21.67Z"/><path class="cls-59" d="M132.78,54.63s-7.39,9.66-16.52,21.57S99.73,97.75,99.73,97.75s7.38-9.66,16.51-21.57S132.77,54.62,132.78,54.63Z"/><path class="cls-60" d="M132.7,54.73s-7.35,9.61-16.44,21.47S99.81,97.65,99.8,97.65s7.36-9.62,16.44-21.47S132.69,54.72,132.7,54.73Z"/><path class="cls-61" d="M132.62,54.83S125.3,64.4,116.26,76.2,99.89,97.55,99.88,97.55,107.2,88,116.24,76.18,132.62,54.82,132.62,54.83Z"/><path class="cls-62" d="M132.54,54.93s-7.28,9.53-16.28,21.27L100,97.45s7.28-9.53,16.28-21.27Z"/><path class="cls-63" d="M132.47,55s-7.25,9.48-16.21,21.17S100,97.35,100,97.35s7.25-9.48,16.21-21.17S132.46,55,132.47,55Z"/><path class="cls-64" d="M132.39,55.13s-7.21,9.44-16.13,21.07-16.14,21-16.15,21,7.22-9.44,16.13-21.07S132.38,55.13,132.39,55.13Z"/><path class="cls-65" d="M132.31,55.23s-7.18,9.39-16,21l-16.07,21s7.18-9.39,16-21Z"/><path class="cls-66" d="M132.24,55.33s-7.15,9.35-16,20.87-16,20.85-16,20.85,7.15-9.35,16-20.87S132.23,55.33,132.24,55.33Z"/><path class="cls-67" d="M132.16,55.43s-7.11,9.3-15.9,20.77S100.35,97,100.34,97s7.11-9.3,15.9-20.77S132.15,55.43,132.16,55.43Z"/><path class="cls-68" d="M132.08,55.53S125,64.79,116.26,76.2s-15.84,20.65-15.84,20.65,7.08-9.26,15.82-20.67S132.08,55.53,132.08,55.53Z"/><path class="cls-69" d="M132,55.63,116.26,76.2,100.5,96.75s7-9.22,15.74-20.57S132,55.63,132,55.63Z"/><path class="cls-70" d="M131.93,55.73s-7,9.17-15.67,20.47-15.68,20.45-15.69,20.45,7-9.17,15.67-20.47S131.92,55.73,131.93,55.73Z"/><path class="cls-71" d="M131.85,55.83s-7,9.12-15.59,20.37L100.65,96.55s7-9.13,15.59-20.37Z"/><path class="cls-72" d="M131.78,55.93S124.84,65,116.26,76.2L100.73,96.45s6.94-9.08,15.51-20.27S131.77,55.93,131.78,55.93Z"/><path class="cls-73" d="M131.7,56,116.26,76.2c-8.53,11.13-15.45,20.15-15.46,20.14l15.44-20.16C124.77,65.05,131.69,56,131.7,56Z"/><path class="cls-74" d="M131.62,56.13s-6.87,9-15.36,20.07-15.37,20-15.38,20,6.87-9,15.36-20.06S131.62,56.13,131.62,56.13Z"/><path class="cls-75" d="M131.55,56.23s-6.84,9-15.29,20S101,96.15,101,96.14s6.83-8.94,15.28-20S131.54,56.23,131.55,56.23Z"/><path class="cls-76" d="M131.47,56.33s-6.8,8.9-15.21,19.87S101,96.05,101,96l15.21-19.86C124.65,65.22,131.46,56.33,131.47,56.33Z"/><path class="cls-77" d="M131.39,56.43s-6.77,8.86-15.13,19.77S101.12,96,101.11,95.94s6.77-8.85,15.13-19.76S131.39,56.43,131.39,56.43Z"/><path class="cls-78" d="M131.31,56.53s-6.73,8.81-15,19.67L101.19,95.84s6.73-8.8,15-19.66Z"/><path class="cls-79" d="M131.24,56.63s-6.7,8.77-15,19.57-15,19.55-15,19.54,6.7-8.76,15-19.56S131.23,56.63,131.24,56.63Z"/><path class="cls-80" d="M131.16,56.73s-6.66,8.72-14.9,19.47-14.91,19.45-14.92,19.44l14.9-19.46Z"/><path class="cls-81" d="M131.08,56.83s-6.63,8.68-14.82,19.37-14.84,19.35-14.84,19.34,6.63-8.67,14.82-19.36S131.08,56.83,131.08,56.83Z"/><path class="cls-82" d="M131,56.93,116.26,76.2c-8.15,10.63-14.76,19.25-14.77,19.24s6.6-8.63,14.75-19.26S131,56.93,131,56.93Z"/><path class="cls-83" d="M130.93,57s-6.56,8.58-14.67,19.16-14.68,19.15-14.69,19.14,6.56-8.58,14.67-19.16S130.93,57,130.93,57Z"/><path class="cls-84" d="M130.85,57.14s-6.52,8.53-14.59,19.06-14.61,19-14.61,19,6.53-8.54,14.59-19.06Z"/><path class="cls-85" d="M130.78,57.24l-14.52,19c-8,10.46-14.53,19-14.53,18.94s6.49-8.49,14.51-19S130.77,57.23,130.78,57.24Z"/><path class="cls-86" d="M130.7,57.34s-6.46,8.44-14.44,18.86S101.81,95.05,101.8,95s6.46-8.45,14.44-18.86S130.69,57.33,130.7,57.34Z"/><path class="cls-87" d="M130.62,57.44s-6.42,8.4-14.36,18.76S101.88,95,101.88,94.94s6.42-8.4,14.36-18.76S130.62,57.43,130.62,57.44Z"/><path class="cls-88" d="M130.55,57.54,116.26,76.2C108.37,86.5,102,94.84,102,94.84s6.39-8.36,14.28-18.66S130.54,57.53,130.55,57.54Z"/><path class="cls-89" d="M130.47,57.64,116.26,76.2C108.41,86.44,102,94.74,102,94.74l14.21-18.56C124.09,65.94,130.46,57.63,130.47,57.64Z"/><path class="cls-90" d="M130.39,57.74S124.07,66,116.26,76.2s-14.15,18.44-14.15,18.44,6.32-8.27,14.13-18.46S130.39,57.73,130.39,57.74Z"/><path class="cls-91" d="M130.32,57.84,116.26,76.2,102.19,94.54s6.28-8.22,14-18.36S130.31,57.83,130.32,57.84Z"/><path class="cls-92" d="M130.24,57.94s-6.25,8.18-14,18.26-14,18.24-14,18.24l14-18.26C124,66.1,130.23,57.93,130.24,57.94Z"/><path class="cls-93" d="M130.16,58s-6.22,8.13-13.9,18.16-13.92,18.14-13.92,18.14,6.22-8.13,13.9-18.16S130.16,58,130.16,58Z"/><path class="cls-94" d="M130.09,58.14,116.26,76.2l-13.84,18s6.18-8.09,13.82-18.06S130.08,58.13,130.09,58.14Z"/><path class="cls-95" d="M130,58.24l-13.75,18c-7.6,9.91-13.76,17.94-13.77,17.94l13.75-18C123.84,66.27,130,58.23,130,58.24Z"/><path class="cls-96" d="M129.93,58.34s-6.11,8-13.67,17.86S102.58,94,102.57,94s6.12-8,13.67-17.86Z"/><path class="cls-97" d="M129.85,58.44s-6.08,8-13.59,17.76-13.61,17.74-13.61,17.74,6.08-8,13.59-17.76Z"/><path class="cls-98" d="M129.78,58.54,116.26,76.2c-7.47,9.74-13.53,17.64-13.54,17.64s6-7.91,13.52-17.66S129.77,58.54,129.78,58.54Z"/><path class="cls-99" d="M129.7,58.64s-6,7.86-13.44,17.56S102.81,93.74,102.8,93.74s6-7.87,13.44-17.56Z"/><path class="cls-100" d="M129.62,58.74s-6,7.82-13.36,17.46L102.88,93.64s6-7.82,13.36-17.46Z"/><path class="cls-101" d="M129.55,58.84,116.26,76.2C108.92,85.78,103,93.54,103,93.54s6-7.78,13.29-17.36S129.54,58.84,129.55,58.84Z"/><path class="cls-102" d="M129.47,58.94,116.26,76.2C109,85.72,103,93.44,103,93.44l13.21-17.26Z"/><path class="cls-103" d="M129.39,59s-5.87,7.68-13.13,17.16L103.11,93.34s5.87-7.69,13.13-17.16Z"/><path class="cls-104" d="M129.32,59.14s-5.84,7.64-13.06,17.06l-13.07,17s5.84-7.64,13-17.06S129.31,59.14,129.32,59.14Z"/><path class="cls-105" d="M129.24,59.24l-13,17c-7.17,9.35-13,16.94-13,16.94s5.81-7.6,13-17S129.23,59.24,129.24,59.24Z"/><path class="cls-106" d="M129.16,59.34s-5.77,7.55-12.9,16.86L103.34,93s5.77-7.55,12.9-16.86Z"/><path class="cls-107" d="M129.09,59.44S123.35,67,116.26,76.2L103.42,92.94s5.73-7.51,12.82-16.76S129.08,59.44,129.09,59.44Z"/><path class="cls-108" d="M129,59.54S123.31,67,116.26,76.2,103.5,92.84,103.49,92.84s5.71-7.46,12.75-16.66S129,59.54,129,59.54Z"/><path class="cls-109" d="M128.93,59.64s-5.67,7.42-12.67,16.56-12.69,16.54-12.69,16.53,5.67-7.41,12.67-16.55Z"/><path class="cls-110" d="M128.86,59.74,116.26,76.2c-7,9.08-12.61,16.44-12.61,16.43s5.63-7.36,12.59-16.45S128.85,59.74,128.86,59.74Z"/><path class="cls-111" d="M128.78,59.84s-5.6,7.33-12.52,16.35-12.53,16.35-12.54,16.34l12.52-16.35C123.16,67.15,128.77,59.84,128.78,59.84Z"/><path class="cls-112" d="M128.7,59.94s-5.56,7.28-12.44,16.25S103.8,92.44,103.8,92.43l12.44-16.25Z"/><path class="cls-113" d="M128.62,60s-5.53,7.24-12.36,16.15-12.38,16.15-12.38,16.14,5.53-7.23,12.36-16.15Z"/><path class="cls-114" d="M128.55,60.14l-12.29,16c-6.79,8.87-12.3,16-12.31,16l12.29-16C123,67.32,128.54,60.14,128.55,60.14Z"/><path class="cls-115" d="M128.47,60.24S123,67.39,116.26,76.19,104,92.14,104,92.13l12.21-15.95Z"/><path class="cls-116" d="M128.39,60.34s-5.42,7.1-12.13,15.85S104.11,92,104.11,92s5.43-7.1,12.13-15.85Z"/><path class="cls-117" d="M128.32,60.44s-5.4,7.06-12.06,15.75-12.07,15.75-12.08,15.74l12.06-15.75C122.91,67.49,128.31,60.44,128.32,60.44Z"/><path class="cls-118" d="M128.24,60.54l-12,15.65c-6.62,8.64-12,15.65-12,15.64l12-15.65C122.86,67.54,128.24,60.54,128.24,60.54Z"/><path class="cls-119" d="M128.16,60.65s-5.32,7-11.9,15.54-11.92,15.55-11.92,15.54,5.32-7,11.9-15.55Z"/><path class="cls-120" d="M128.09,60.75s-5.29,6.92-11.83,15.44-11.84,15.45-11.84,15.44,5.29-6.92,11.82-15.45S128.08,60.74,128.09,60.75Z"/><path class="cls-121" d="M128,60.85,116.26,76.19c-6.5,8.48-11.76,15.34-11.77,15.34l11.75-15.35Z"/><path class="cls-122" d="M127.93,61s-5.22,6.83-11.67,15.24-11.69,15.24-11.69,15.24,5.22-6.83,11.67-15.25S127.93,60.94,127.93,61Z"/><path class="cls-123" d="M127.86,61.05l-11.6,15.14c-6.41,8.37-11.61,15.14-11.61,15.14s5.18-6.78,11.59-15.15S127.85,61,127.86,61.05Z"/><path class="cls-124" d="M127.78,61.15s-5.15,6.74-11.52,15-11.53,15-11.54,15l11.52-15Z"/><path class="cls-125" d="M127.7,61.25s-5.12,6.69-11.44,14.94L104.8,91.13l11.44-14.95Z"/><path class="cls-126" d="M127.63,61.35,116.26,76.19C110,84.39,104.88,91,104.88,91s5.08-6.65,11.36-14.85S127.62,61.34,127.63,61.35Z"/><path class="cls-127" d="M127.55,61.45,116.26,76.19C110,84.34,105,90.93,105,90.93s5-6.61,11.29-14.75S127.54,61.44,127.55,61.45Z"/><path class="cls-128" d="M127.47,61.55s-5,6.56-11.21,14.64L105,90.83l11.21-14.65Z"/><path class="cls-129" d="M127.4,61.65,116.26,76.19,105.11,90.73s5-6.52,11.13-14.55S127.39,61.64,127.4,61.65Z"/><path class="cls-130" d="M127.32,61.75,116.26,76.19c-6.11,8-11.07,14.44-11.08,14.44l11.06-14.45C122.36,68.21,127.31,61.75,127.32,61.75Z"/><path class="cls-131" d="M127.24,61.85s-4.91,6.42-11,14.34l-11,14.34s4.91-6.43,11-14.35S127.24,61.85,127.24,61.85Z"/><path class="cls-132" d="M127.16,62s-4.87,6.38-10.9,14.24L105.34,90.43s4.88-6.38,10.9-14.25Z"/><path class="cls-133" d="M127.09,62.05,116.26,76.19c-6,7.81-10.84,14.14-10.85,14.14l10.83-14.15C122.23,68.37,127.08,62.05,127.09,62.05Z"/><path class="cls-134" d="M127,62.15l-10.75,14c-5.94,7.76-10.77,14-10.77,14l10.75-14Z"/><path class="cls-135" d="M126.93,62.25s-4.77,6.25-10.67,13.94L105.57,90.13s4.77-6.25,10.67-13.95S126.93,62.25,126.93,62.25Z"/><path class="cls-136" d="M126.86,62.35s-4.74,6.2-10.6,13.84S105.65,90,105.64,90s4.75-6.2,10.6-13.85S126.85,62.35,126.86,62.35Z"/><path class="cls-137" d="M126.78,62.45,116.26,76.19c-5.82,7.59-10.53,13.74-10.54,13.74s4.71-6.16,10.52-13.75Z"/><path class="cls-138" d="M126.7,62.55S122,68.66,116.26,76.19L105.8,89.83s4.67-6.11,10.44-13.65Z"/><path class="cls-139" d="M126.63,62.65S122,68.72,116.26,76.19L105.88,89.73s4.63-6.07,10.36-13.55S126.62,62.65,126.63,62.65Z"/><path class="cls-140" d="M126.55,62.75s-4.6,6-10.29,13.44S106,89.63,106,89.63l10.29-13.45Z"/><path class="cls-141" d="M126.47,62.85s-4.57,6-10.21,13.34L106,89.53s4.57-6,10.21-13.35Z"/><path class="cls-142" d="M126.4,63,116.26,76.19,106.11,89.43s4.53-5.94,10.13-13.25S126.39,63,126.4,63Z"/><path class="cls-143" d="M126.32,63.05s-4.5,5.89-10.06,13.14-10.07,13.14-10.08,13.14,4.5-5.89,10.06-13.15Z"/><path class="cls-144" d="M126.24,63.15s-4.46,5.84-10,13l-10,13s4.47-5.85,10-13Z"/><path class="cls-145" d="M126.17,63.25l-9.91,12.94-9.92,12.93s4.43-5.79,9.9-12.94S126.16,63.25,126.17,63.25Z"/><path class="cls-146" d="M126.09,63.35l-9.83,12.84C110.82,83.28,106.42,89,106.41,89l9.83-12.84Z"/><path class="cls-147" d="M126,63.45s-4.36,5.71-9.75,12.74-9.77,12.74-9.77,12.73l9.75-12.74Z"/><path class="cls-148" d="M125.93,63.55s-4.32,5.67-9.67,12.64-9.69,12.64-9.69,12.63,4.33-5.66,9.67-12.64Z"/><path class="cls-149" d="M125.86,63.65l-9.6,12.54c-5.31,6.93-9.61,12.54-9.62,12.53l9.6-12.54C121.55,69.26,125.85,63.65,125.86,63.65Z"/><path class="cls-150" d="M125.78,63.75s-4.26,5.58-9.52,12.44l-9.54,12.43,9.52-12.44Z"/><path class="cls-151" d="M125.7,63.85s-4.22,5.53-9.44,12.34-9.46,12.34-9.46,12.33S111,83,116.24,76.18Z"/><path class="cls-152" d="M125.63,64s-4.19,5.49-9.37,12.24-9.38,12.24-9.39,12.23l9.37-12.24C121.42,69.43,125.62,64,125.63,64Z"/><path class="cls-153" d="M125.55,64.05s-4.16,5.44-9.29,12.14S107,88.33,107,88.32l9.29-12.14Z"/><path class="cls-154" d="M125.47,64.15s-4.12,5.4-9.21,12l-9.23,12s4.12-5.39,9.21-12Z"/><path class="cls-155" d="M125.4,64.26l-9.14,11.93-9.15,11.93s4.08-5.35,9.13-11.94S125.39,64.25,125.4,64.26Z"/><path class="cls-156" d="M125.32,64.36s-4,5.3-9.06,11.83S107.19,88,107.18,88l9.06-11.84C121.25,69.65,125.32,64.35,125.32,64.36Z"/><path class="cls-157" d="M125.24,64.46s-4,5.25-9,11.73l-9,11.73s4-5.26,9-11.74S125.24,64.45,125.24,64.46Z"/><path class="cls-158" d="M125.17,64.56l-8.91,11.63-8.92,11.63s4-5.21,8.91-11.64S125.16,64.55,125.17,64.56Z"/><path class="cls-159" d="M125.09,64.66l-8.83,11.53c-4.88,6.37-8.84,11.53-8.85,11.53s4-5.17,8.84-11.54Z"/><path class="cls-160" d="M125,64.76s-3.91,5.12-8.75,11.43-8.77,11.43-8.77,11.43l8.76-11.44C121.08,69.87,125,64.75,125,64.76Z"/><path class="cls-161" d="M124.94,64.86l-8.68,11.33-8.69,11.33s3.88-5.08,8.68-11.34S124.93,64.85,124.94,64.86Z"/><path class="cls-162" d="M124.86,65l-8.6,11.23c-4.76,6.21-8.61,11.23-8.62,11.23l8.61-11.24C121,70,124.86,65,124.86,65Z"/><path class="cls-163" d="M124.78,65.06s-3.81,5-8.52,11.13l-8.54,11.13s3.81-5,8.53-11.14Z"/><path class="cls-164" d="M124.71,65.16l-8.45,11c-4.67,6.1-8.46,11-8.46,11s3.78-4.94,8.45-11S124.7,65.16,124.71,65.16Z"/><path class="cls-165" d="M124.63,65.26l-8.37,10.93c-4.63,6-8.38,10.93-8.39,10.93l8.38-10.94Z"/><path class="cls-166" d="M124.55,65.36l-8.29,10.83L108,87l8.3-10.84Z"/><path class="cls-167" d="M124.47,65.46s-3.67,4.81-8.21,10.73L108,86.92s3.67-4.81,8.22-10.74Z"/><path class="cls-168" d="M124.4,65.56l-8.14,10.63c-4.5,5.87-8.15,10.63-8.16,10.63l8.15-10.64C120.74,70.31,124.39,65.56,124.4,65.56Z"/><path class="cls-169" d="M124.32,65.66l-8.06,10.53-8.08,10.53,8.07-10.54Z"/><path class="cls-170" d="M124.24,65.76s-3.57,4.67-8,10.43l-8,10.43s3.57-4.68,8-10.44Z"/><path class="cls-171" d="M124.17,65.86l-7.91,10.33c-4.38,5.71-7.92,10.33-7.93,10.33l7.92-10.34C120.62,70.48,124.16,65.86,124.17,65.86Z"/><path class="cls-172" d="M124.09,66l-7.83,10.23-7.85,10.23,7.84-10.24Z"/><path class="cls-173" d="M124,66.06s-3.47,4.54-7.75,10.13l-7.77,10.13,7.76-10.14Z"/><path class="cls-174" d="M123.94,66.16l-7.68,10-7.69,10s3.43-4.5,7.68-10S123.93,66.16,123.94,66.16Z"/><path class="cls-175" d="M123.86,66.26l-7.6,9.93-7.62,9.93s3.4-4.45,7.61-9.94Z"/><path class="cls-176" d="M123.78,66.36s-3.36,4.4-7.52,9.83L108.72,86l7.53-9.84Z"/><path class="cls-177" d="M123.71,66.46l-7.45,9.73-7.46,9.73s3.33-4.36,7.45-9.74S123.7,66.46,123.71,66.46Z"/><path class="cls-178" d="M123.63,66.56l-7.37,9.63c-4.08,5.32-7.38,9.63-7.39,9.63l7.38-9.64Z"/><path class="cls-179" d="M123.55,66.66l-7.29,9.53L109,85.72s3.26-4.27,7.3-9.53Z"/><path class="cls-180" d="M123.48,66.76s-3.23,4.23-7.22,9.43S109,85.62,109,85.61s3.23-4.22,7.22-9.42S123.47,66.76,123.48,66.76Z"/><path class="cls-181" d="M123.4,66.86l-7.14,9.33c-4,5.15-7.15,9.33-7.16,9.32l7.15-9.32C120.19,71,123.4,66.86,123.4,66.86Z"/><path class="cls-182" d="M123.32,67l-7.06,9.23c-3.91,5.1-7.08,9.23-7.08,9.22l7.07-9.22Z"/><path class="cls-183" d="M123.24,67.06s-3.12,4.09-7,9.13l-7,9.12s3.12-4.08,7-9.12Z"/><path class="cls-184" d="M123.17,67.16s-3.09,4-6.91,9-6.92,9-6.93,9l6.92-9Z"/><path class="cls-185" d="M123.09,67.26l-6.83,8.93c-3.78,4.93-6.85,8.93-6.85,8.92l6.84-8.92Z"/><path class="cls-186" d="M123,67.36s-3,4-6.75,8.83L109.49,85l6.76-8.82Z"/><path class="cls-187" d="M122.94,67.46s-3,3.91-6.68,8.73-6.69,8.72-6.7,8.72,3-3.91,6.69-8.72S122.93,67.46,122.94,67.46Z"/><path class="cls-188" d="M122.86,67.56s-3,3.87-6.6,8.63l-6.62,8.62,6.61-8.62Z"/><path class="cls-189" d="M122.78,67.66s-2.92,3.82-6.52,8.53l-6.54,8.52s2.92-3.82,6.53-8.52Z"/><path class="cls-190" d="M122.71,67.77l-6.45,8.42c-3.57,4.65-6.46,8.42-6.47,8.42l6.46-8.42C119.81,71.53,122.7,67.76,122.71,67.77Z"/><path class="cls-191" d="M122.63,67.87l-6.37,8.32-6.39,8.32s2.85-3.73,6.38-8.32S122.63,67.86,122.63,67.87Z"/><path class="cls-192" d="M122.55,68s-2.81,3.68-6.29,8.22L110,84.41l6.3-8.22C119.73,71.64,122.55,68,122.55,68Z"/><path class="cls-193" d="M122.48,68.07l-6.23,8.12c-3.43,4.49-6.22,8.12-6.22,8.12s2.78-3.64,6.22-8.12S122.47,68.06,122.48,68.07Z"/><path class="cls-194" d="M122.4,68.17l-6.15,8-6.15,8,6.15-8C119.64,71.75,122.4,68.16,122.4,68.17Z"/><path class="cls-195" d="M122.32,68.27s-2.71,3.55-6.07,7.92l-6.07,7.92s2.71-3.55,6.07-7.92Z"/><path class="cls-196" d="M122.25,68.37l-6,7.82-6,7.82s2.68-3.5,6-7.82S122.24,68.37,122.25,68.37Z"/><path class="cls-197" d="M122.17,68.47l-5.92,7.72c-3.26,4.27-5.91,7.72-5.92,7.72l5.92-7.72Z"/><path class="cls-198" d="M122.09,68.57l-5.84,7.62-5.84,7.62s2.61-3.42,5.84-7.62Z"/><path class="cls-199" d="M122,68.67l-5.77,7.52-5.76,7.52s2.57-3.37,5.76-7.52S122,68.67,122,68.67Z"/><path class="cls-200" d="M121.94,68.77l-5.69,7.42c-3.14,4.1-5.68,7.42-5.69,7.42l5.69-7.42Z"/><path class="cls-201" d="M121.86,68.87l-5.61,7.32-5.61,7.32,5.61-7.32Z"/><path class="cls-202" d="M121.78,69s-2.47,3.23-5.53,7.22l-5.53,7.22s2.47-3.24,5.53-7.22Z"/><path class="cls-203" d="M121.71,69.07l-5.46,7.12c-3,3.93-5.45,7.12-5.46,7.12l5.46-7.12C119.26,72.25,121.71,69.07,121.71,69.07Z"/><path class="cls-204" d="M121.63,69.17l-5.38,7-5.38,7,5.38-7Z"/><path class="cls-205" d="M121.55,69.27s-2.37,3.1-5.3,6.92L111,83.11l5.3-6.92Z"/><path class="cls-206" d="M121.48,69.37l-5.23,6.82C113.37,80,111,83,111,83l5.23-6.82C119.13,72.42,121.48,69.37,121.48,69.37Z"/><path class="cls-207" d="M121.4,69.47l-5.15,6.72-5.15,6.72,5.15-6.72Z"/><path class="cls-208" d="M121.32,69.57s-2.26,3-5.07,6.62l-5.07,6.62,5.07-6.62Z"/><path class="cls-209" d="M121.25,69.67l-5,6.52-5,6.52s2.23-2.92,5-6.52S121.24,69.67,121.25,69.67Z"/><path class="cls-210" d="M121.17,69.77l-4.92,6.42c-2.71,3.55-4.92,6.42-4.92,6.42l4.92-6.42C119,72.64,121.17,69.77,121.17,69.77Z"/><path class="cls-211" d="M121.09,69.87l-4.84,6.32-4.84,6.32s2.16-2.83,4.84-6.32Z"/><path class="cls-212" d="M121,70s-2.13,2.79-4.77,6.22l-4.76,6.22s2.13-2.79,4.76-6.22S121,70,121,70Z"/><path class="cls-213" d="M120.94,70.07l-4.69,6.12-4.69,6.12s2.1-2.75,4.69-6.12Z"/><path class="cls-214" d="M120.86,70.17l-4.61,6-4.61,6,4.61-6C118.79,72.86,120.86,70.17,120.86,70.17Z"/><path class="cls-215" d="M120.79,70.27l-4.54,5.92-4.53,5.92s2-2.66,4.53-5.92S120.78,70.27,120.79,70.27Z"/><path class="cls-216" d="M120.71,70.37s-2,2.61-4.46,5.82S111.79,82,111.79,82l4.46-5.81Z"/><path class="cls-217" d="M120.63,70.47l-4.38,5.72-4.38,5.71,4.38-5.71Z"/><path class="cls-218" d="M120.55,70.57s-1.92,2.52-4.3,5.62S112,81.81,112,81.8l4.3-5.61C118.63,73.09,120.55,70.57,120.55,70.57Z"/><path class="cls-219" d="M120.48,70.67l-4.23,5.52c-2.33,3-4.22,5.52-4.23,5.51l4.23-5.51Z"/><path class="cls-220" d="M120.4,70.77s-1.85,2.43-4.15,5.42L112.1,81.6l4.15-5.41Z"/><path class="cls-221" d="M120.32,70.87s-1.82,2.39-4.07,5.32l-4.07,5.31,4.07-5.31Z"/><path class="cls-222" d="M120.25,71s-1.79,2.34-4,5.22-4,5.21-4,5.21l4-5.21Z"/><path class="cls-223" d="M120.17,71.07s-1.75,2.3-3.92,5.12-3.92,5.11-3.92,5.11l3.92-5.11Z"/><path class="cls-224" d="M120.09,71.17s-1.71,2.25-3.84,5l-3.84,5,3.84-5Z"/><path class="cls-225" d="M120,71.27s-1.69,2.21-3.77,4.92-3.76,4.91-3.77,4.91l3.77-4.91Z"/><path class="cls-226" d="M119.94,71.38l-3.69,4.81c-2,2.66-3.69,4.81-3.69,4.81l3.69-4.81Z"/><path class="cls-227" d="M119.86,71.48l-3.61,4.71-3.61,4.71,3.61-4.71C118.24,73.58,119.86,71.47,119.86,71.48Z"/><path class="cls-228" d="M119.79,71.58l-3.54,4.61-3.53,4.61s1.58-2.07,3.53-4.61S119.79,71.57,119.79,71.58Z"/><path class="cls-229" d="M119.71,71.68l-3.46,4.51-3.46,4.51,3.46-4.51C118.16,73.69,119.71,71.68,119.71,71.68Z"/><path class="cls-230" d="M119.63,71.78l-3.38,4.41c-1.86,2.44-3.38,4.41-3.38,4.41l3.38-4.41Z"/><path class="cls-231" d="M119.56,71.88l-3.31,4.31L113,80.5s1.47-1.93,3.3-4.31S119.55,71.88,119.56,71.88Z"/><path class="cls-232" d="M119.48,72l-3.23,4.21L113,80.4l3.23-4.21Z"/><path class="cls-233" d="M119.4,72.08l-3.15,4.11L113.1,80.3l3.15-4.11Z"/><path class="cls-234" d="M119.33,72.18l-3.08,4c-1.69,2.22-3.07,4-3.07,4s1.37-1.8,3.07-4S119.32,72.18,119.33,72.18Z"/><path class="cls-235" d="M119.25,72.28l-3,3.91-3,3.91,3-3.91Z"/><path class="cls-236" d="M119.17,72.38s-1.3,1.71-2.92,3.81L113.33,80l2.92-3.81Z"/><path class="cls-237" d="M119.09,72.48s-1.27,1.66-2.84,3.71l-2.84,3.71,2.84-3.71Z"/><path class="cls-238" d="M119,72.58l-2.77,3.61c-1.53,2-2.76,3.61-2.77,3.61l2.77-3.61Z"/><path class="cls-239" d="M118.94,72.68l-2.69,3.51-2.69,3.51,2.69-3.51Z"/><path class="cls-240" d="M118.86,72.78s-1.16,1.53-2.61,3.41l-2.61,3.41,2.61-3.41Z"/><path class="cls-241" d="M118.79,72.88l-2.54,3.31c-1.4,1.83-2.53,3.31-2.54,3.31l2.54-3.31Z"/><path class="cls-242" d="M118.71,73l-2.46,3.21-2.46,3.21,2.46-3.21Z"/><path class="cls-243" d="M118.63,73.08l-2.38,3.11-2.38,3.11s1.06-1.4,2.38-3.11Z"/><path class="cls-244" d="M118.56,73.18l-2.31,3-2.3,3s1-1.35,2.3-3Z"/><path class="cls-245" d="M118.48,73.28l-2.23,2.91L114,79.1l2.23-2.91Z"/><path class="cls-246" d="M118.4,73.38l-2.15,2.81L114.1,79l2.15-2.81Z"/><path class="cls-247" d="M118.33,73.48l-2.08,2.71-2.07,2.71s.92-1.22,2.07-2.71Z"/><path class="cls-248" d="M118.25,73.58l-2,2.61-2,2.61,2-2.61Z"/><path class="cls-249" d="M118.17,73.68l-1.92,2.51-1.92,2.51,1.92-2.51Z"/><path class="cls-250" d="M118.1,73.78l-1.85,2.41-1.84,2.41,1.84-2.41C117.27,74.86,118.09,73.78,118.1,73.78Z"/><path class="cls-251" d="M118,73.88l-1.77,2.31-1.77,2.31s.79-1,1.77-2.31Z"/><path class="cls-252" d="M117.94,74l-1.69,2.21c-.93,1.22-1.69,2.21-1.69,2.2l1.69-2.2Z"/><path class="cls-253" d="M117.86,74.08s-.72,1-1.61,2.11l-1.61,2.1,1.61-2.1Z"/><path class="cls-254" d="M117.79,74.18l-1.54,2-1.54,2,1.54-2Z"/><path class="cls-255" d="M117.71,74.28l-1.46,1.91-1.46,1.9,1.46-1.9Z"/><path class="cls-256" d="M117.63,74.38l-1.38,1.81L114.87,78l1.38-1.8Z"/><path class="cls-257" d="M117.56,74.48l-1.31,1.71-1.31,1.7,1.31-1.7Z"/><path class="cls-258" d="M117.48,74.58l-1.23,1.61L115,77.79l1.23-1.6Z"/><path class="cls-259" d="M117.4,74.68s-.51.68-1.15,1.51l-1.15,1.5,1.15-1.5C116.89,75.36,117.4,74.68,117.4,74.68Z"/><path class="cls-260" d="M117.33,74.78s-.48.63-1.08,1.41-1.07,1.4-1.08,1.4l1.08-1.4Z"/><path class="cls-261" d="M117.25,74.88s-.45.59-1,1.31l-1,1.3,1-1.3Z"/><path class="cls-262" d="M117.17,75l-.92,1.2-.92,1.2.92-1.2Z"/><path class="cls-263" d="M117.1,75.09l-.85,1.1-.84,1.1.84-1.1Z"/><path class="cls-264" d="M117,75.19l-.77,1-.77,1,.77-1C116.67,75.63,117,75.19,117,75.19Z"/><path class="cls-265" d="M116.94,75.29l-.69.9-.69.9.69-.9Z"/><path class="cls-266" d="M116.87,75.39l-.62.8-.61.8.61-.8Z"/><path class="cls-267" d="M116.79,75.49l-.54.7-.54.7.54-.7Z"/><path class="cls-268" d="M116.71,75.59l-.46.6-.46.6.46-.6Z"/><path class="cls-269" d="M116.64,75.69s-.18.22-.39.5l-.38.5.38-.5C116.46,75.91,116.64,75.69,116.64,75.69Z"/><path class="cls-270" d="M116.56,75.79l-.31.4-.31.4.31-.4Z"/><path class="cls-271" d="M116.48,75.89l-.23.3-.23.3.23-.3Z"/><path class="cls-272" d="M116.4,76s-.06.09-.15.2l-.15.2.15-.2C116.34,76.08,116.4,76,116.4,76Z"/><path class="cls-273" d="M116.33,76.09l-.08.1-.08.1.08-.1Z"/></g></g><path class="cls-274" d="M114.64,104.51a5.33,5.33,0,1,1-1-7.47A5.34,5.34,0,0,1,114.64,104.51Z"/><path class="cls-275" d="M36.05,99.86l11.26,1A143.07,143.07,0,0,0,49,137.32l-18.57,1.13S27.94,122.79,36.05,99.86Z"/><path class="cls-276" d="M32.66,145.19l17.52-4.07L60.45,149,43.31,160.54S35.28,159,32.66,145.19Z"/><path class="cls-277" d="M95,161l-4.2-9s14.85-7.59,29.17-26.27l8.43,3.52S118.28,147,95,161Z"/><path class="cls-278" d="M95,161l-4.2-9,11.84-8.22,5.23,8.12S100.17,159.81,95,161Z"/><path class="cls-278" d="M32.19,113.4l4.2-.12,0,17.3-6.37.36S30.82,119,32.19,113.4Z"/><path class="cls-279" d="M15.78,44.27s1.56,1,24.18-3.71S64.6,30.25,64.6,30.25,39,24.32,15.78,44.27Z"/><path class="cls-280" d="M165.46,104.47s-1.22,7.85-1.67,27.52,2.86,26.57,2.86,26.57S179.89,136.86,165.46,104.47Z"/><path class="cls-281" d="M141.21,24,156.57,0S166.83-1.27,172.13,12L152.5,32.65Z"/><path class="cls-282" d="M156.57,0S161.12,11.6,172.13,12C172.13,12,168.85.13,156.57,0Z"/><path class="cls-274" d="M30.31,125.89s14.39,12.61,5,27.3C35.32,153.19,28.84,143.24,30.31,125.89Z"/><path class="cls-283" d="M95.35,20.2,102,42.12s14.46,32-.52,74.65-32.34,54.87-32.34,54.87l-4.09,23.81s41-37.51,47.1-96.49-11.59-79.54-11.59-79.54Z"/><path class="cls-283" d="M5.6,135.85l22-19.58S44.56,85.73,84.88,67.35s55.47-5.24,55.47-5.24,10.45-4.26,25.92-.7c0,0-18.35-18-71.59-2.59S5.6,135.85,5.6,135.85Z"/><path class="cls-284" d="M6.21,147.3S1.28,144.48.67,135.78s34.7-64.87,92.19-82.9,76.24-4.52,81.34,1.47-6.52,13.43-6.52,13.43l-1.41-6.37s-27.9-19.51-80.74,3.7S5.6,135.85,5.6,135.85L7.22,148.1Z"/><path class="cls-285" d="M95.35,20.2s1.49-8.54,7.68-10,22.13,42,11.61,94.33S75,197.43,71.26,200.19s-12.87-4.46-12.87-4.46l6.69-.28S90,163.69,104,113.51s-3.42-94.09-3.42-94.09Z"/><path class="cls-286" d="M75.85,59.56s6.77,2.65,18.83-.74,47-13.06,75.17.43c0,0,6.27-3,4.35-4.9S149.71,29.72,75.85,59.56Z"/><path class="cls-287" d="M105.15,10.59s-4.27,1.52-4.35,3.41,6.27,13,9.12,29.11l5.93,1S112.92,21.09,105.15,10.59Z"/><path class="cls-274" d="M133.19,73.38c-3.1-1.75-9,13.32-6.38,25.24s5,10.8,6.58,10.07S148.28,81.92,133.19,73.38Z"/></g></g></g></svg>