<svg xmlns="http://www.w3.org/2000/svg" xmlns:xlink="http://www.w3.org/1999/xlink" viewBox="0 0 116.59 34.58"><defs><linearGradient id="Áåçûìÿííûé_ãðàäèåíò_7" x1="59.52" y1="-0.87" x2="59.52" y2="13.38" gradientUnits="userSpaceOnUse"><stop offset="0" stop-color="#ffca2b"/><stop offset="1" stop-color="#d15b24"/></linearGradient><linearGradient id="Áåçûìÿííûé_ãðàäèåíò_12" x1="59.51" y1="37.74" x2="59.51" y2="16.14" gradientUnits="userSpaceOnUse"><stop offset="0" stop-color="#ffce3b"/><stop offset="1" stop-color="#cc6923"/></linearGradient><linearGradient id="Áåçûìÿííûé_ãðàäèåíò_12-2" x1="59.51" y1="35.09" x2="59.51" y2="6.07" xlink:href="#Áåçûìÿííûé_ãðàäèåíò_12"/><linearGradient id="Áåçûìÿííûé_ãðàäèåíò_11" x1="100.46" y1="-30.9" x2="66.45" y2="39.12" gradientUnits="userSpaceOnUse"><stop offset="0" stop-color="#f2de6d"/><stop offset="1"/></linearGradient></defs><g style="isolation:isolate"><g id="Calque_2" data-name="Calque 2"><g id="layer_1" data-name="layer 1"><path d="M115.72,3.19a2,2,0,0,0-1.85-1.66C79.75-.33,43.32-.36,4.63.74a2.45,2.45,0,0,0-1.71.86A14.07,14.07,0,0,0,1.61,3.82,7.69,7.69,0,0,0,.27,6.56C.17,7.65.11,8.76.07,9.88A176.21,176.21,0,0,0,1,31.19,2,2,0,0,0,2.81,33a838.56,838.56,0,0,0,108.91-.34c1.83-.12,2.66-2.89,3.49-4.22a4,4,0,0,0,.8-1.58,104.23,104.23,0,0,0,.58-10.55A92.74,92.74,0,0,0,115.72,3.19Z" style="fill:#9c3708"/><path d="M116.59,16.28A104.23,104.23,0,0,1,116,26.83a2,2,0,0,1-1.85,1.74,838.56,838.56,0,0,1-108.91.34,2,2,0,0,1-1.84-1.78,176.21,176.21,0,0,1-.9-21.31c0-1.12.1-2.23.2-3.32A2,2,0,0,1,4.63.74c38.69-1.1,75.12-1.07,109.24.79a2,2,0,0,1,1.85,1.66A92.74,92.74,0,0,1,116.59,16.28Z" style="fill:url(#Áåçûìÿííûé_ãðàäèåíò_7)"/><path d="M115.92,16.06q-.21.59-.39,1.2a26.51,26.51,0,0,0-.82,3.84,15.55,15.55,0,0,0-.2,1.94c0,.2.06.39.07.59a1.24,1.24,0,0,1,0,.33,2.07,2.07,0,0,1-.1.33c0,.13-.35.77-.29.88-1.18-2.09-1.05-4.63-1.16-7s-.65-5.05-2.65-6.44a9.29,9.29,0,0,0-4.67-1.21C73.05,8,40.1,6.85,7.38,7.07c-.23.62-.44,1.24-.63,1.87-.3,1-.57,1.91-.8,2.87-.11.49-.22,1-.32,1.46a5.93,5.93,0,0,0-.22,1.38,2.81,2.81,0,0,1,0,.41,5.15,5.15,0,0,1-.15.68c-.12.49-.21,1-.28,1.47s-.13,1-.16,1.49a10.19,10.19,0,0,0,0,1.46l-.24-2.28c-.22-2.06-.43-4.12-.65-6.18L3.59,8.61a3.17,3.17,0,0,0-.22-1.18c-.07-.12-.15-.22-.22-.33a8,8,0,0,1-.64-1.28c0-1.12.1-2.23.2-3.32A2,2,0,0,1,4.63.74c38.69-1.1,75.12-1.07,109.24.79a2,2,0,0,1,1.85,1.66c.25,1.78.45,3.57.59,5.37,0,.67.09,1.35.13,2a11.82,11.82,0,0,1,.06,1.88c0,.53.11,1,0,1.56A9.09,9.09,0,0,1,116,15.8Z" style="fill:#ffdf80"/><path d="M114,26.63c-10.64.69-21.2,1.2-31.59,1.52q-11.2.34-22.11.41a5.23,5.23,0,0,1-.56,0c-1.36,0-2.72,0-4.07,0-17.1,0-34-.55-50.32-1.62C4.78,19.7,4.11,11.54,4.58,4.1c0-.48.06-1,.1-1.44,17.44-.47,33.34-.72,48.6-.72q11,0,21.27.17h.33l1.86,0q9.57.16,18.66.5c6.25.22,12.35.49,18.36.82.32,2.2.54,4.47.68,6.79A100.07,100.07,0,0,1,114,26.63Z" style="fill:url(#Áåçûìÿííûé_ãðàäèåíò_12)"/><path d="M114.44,10.26a21,21,0,0,1-.19,2.74c-.38,4.55-10.79,4-13.78,4.17-26.82,1.68-54.1.38-80.92-.85-3.91-.18-7.81-.42-11.71-.62C5,15.56,5.18,13.12,5,10.91S4.68,6.37,4.58,4.1c0-.48.06-1,.1-1.44,17.44-.47,33.34-.72,48.6-.72,21.91,0,41.68.51,60.48,1.53C114.08,5.67,114.3,7.94,114.44,10.26Z" style="fill:url(#Áåçûìÿííûé_ãðàäèåíò_12-2)"/><path d="M95.4,2.65c-1.91.39-3.57.86-4.73,2.51a97.67,97.67,0,0,0-8.71,15,10.53,10.53,0,0,0-1.27,4.3,4.63,4.63,0,0,0,1.76,3.72q-11.2.34-22.11.41A9.77,9.77,0,0,0,66.59,26a27,27,0,0,0,4.73-6.06l5.47-8.55a14.9,14.9,0,0,0,2-3.9,4.94,4.94,0,0,0-.55-4.18,3.34,3.34,0,0,0-1.47-1.12Q86.31,2.31,95.4,2.65Z" style="mix-blend-mode:screen;fill:url(#Áåçûìÿííûé_ãðàäèåíò_11)"/></g></g></g></svg>