<svg xmlns="http://www.w3.org/2000/svg" xmlns:xlink="http://www.w3.org/1999/xlink" viewBox="0 0 135.58 49.36"><defs><linearGradient id="Áåçûìÿííûé_ãðàäèåíò_3" x1="103.98" y1="-73.03" x2="80.4" y2="-9.57" gradientUnits="userSpaceOnUse"><stop offset="0" stop-color="#cf5c2b"/><stop offset="1" stop-color="#59173e"/></linearGradient><linearGradient id="Áåçûìÿííûé_ãðàäèåíò_3-2" x1="77.17" y1="-21.82" x2="55.66" y2="91.59" xlink:href="#Áåçûìÿííûé_ãðàäèåíò_3"/><linearGradient id="Áåçûìÿííûé_ãðàäèåíò_3-3" x1="76.82" y1="-18.29" x2="49.25" y2="122.51" xlink:href="#Áåçûìÿííûé_ãðàäèåíò_3"/><linearGradient id="Áåçûìÿííûé_ãðàäèåíò_3-4" x1="71.32" y1="62.14" x2="69.49" y2="31.16" xlink:href="#Áåçûìÿííûé_ãðàäèåíò_3"/><linearGradient id="Áåçûìÿííûé_ãðàäèåíò_3-5" x1="114.86" y1="11.68" x2="107.33" y2="31.82" xlink:href="#Áåçûìÿííûé_ãðàäèåíò_3"/><linearGradient id="Áåçûìÿííûé_ãðàäèåíò_3-6" x1="140.13" y1="-45.81" x2="75.13" y2="105.01" xlink:href="#Áåçûìÿííûé_ãðàäèåíò_3"/><linearGradient id="Áåçûìÿííûé_ãðàäèåíò_3-7" x1="102.99" y1="10.1" x2="98.24" y2="22.8" xlink:href="#Áåçûìÿííûé_ãðàäèåíò_3"/><linearGradient id="Áåçûìÿííûé_ãðàäèåíò_3-8" x1="118.93" y1="-26.16" x2="77.93" y2="68.96" xlink:href="#Áåçûìÿííûé_ãðàäèåíò_3"/><linearGradient id="Áåçûìÿííûé_ãðàäèåíò_3-9" x1="26.03" y1="20.23" x2="21.28" y2="32.93" xlink:href="#Áåçûìÿííûé_ãðàäèåíò_3"/><linearGradient id="Áåçûìÿííûé_ãðàäèåíò_3-10" x1="41.97" y1="-16.03" x2="0.97" y2="79.1" xlink:href="#Áåçûìÿííûé_ãðàäèåíò_3"/><linearGradient id="Áåçûìÿííûé_ãðàäèåíò_7" x1="68.84" y1="7.13" x2="68.84" y2="21.13" gradientUnits="userSpaceOnUse"><stop offset="0" stop-color="#ffca2b"/><stop offset="1" stop-color="#d15b24"/></linearGradient><linearGradient id="Áåçûìÿííûé_ãðàäèåíò_12" x1="68.84" y1="45.06" x2="68.84" y2="23.83" gradientUnits="userSpaceOnUse"><stop offset="0" stop-color="#ffce3b"/><stop offset="1" stop-color="#cc6923"/></linearGradient><linearGradient id="Áåçûìÿííûé_ãðàäèåíò_12-2" x1="68.84" y1="42.45" x2="68.84" y2="13.94" xlink:href="#Áåçûìÿííûé_ãðàäèåíò_12"/><linearGradient id="Áåçûìÿííûé_ãðàäèåíò_11" x1="109.52" y1="-22.69" x2="75.89" y2="46.57" gradientUnits="userSpaceOnUse"><stop offset="0" stop-color="#f2de6d"/><stop offset="1"/></linearGradient></defs><g style="isolation:isolate"><g id="Calque_2" data-name="Calque 2"><g id="layer_1" data-name="layer 1"><path d="M135.51,39.33c-.07-1-.14-2-.2-3.06s-.13-2.15-.2-3.22c0-.74-.1-1.52-.11-2.27s.24-1.67-.1-2.24a1.38,1.38,0,0,0-1-.5l-1.54-.27a15.67,15.67,0,0,0,2-.61,1,1,0,0,0,.4-.24.8.8,0,0,0,.14-.4,26.71,26.71,0,0,0,.08-4.29c0-1.45,0-2.89,0-4.33l0-4.12a5.15,5.15,0,0,0,0-1.84c-.18-.33-.61-.31-.94-.35a7,7,0,0,0-1,0,15.17,15.17,0,0,0-1.51.18c.65-.18,1.33-.27,2-.43a5,5,0,0,0,1.25-.45,1.35,1.35,0,0,0,.64-.49,1.33,1.33,0,0,0,.1-.34,4,4,0,0,0,.09-.77c0-.71.07-1.42.09-2.14,0-.36,0-.72,0-1.08s-.09-.45-.11-.69A4.78,4.78,0,0,0,132,1.2a4.67,4.67,0,0,0-1.06-.15Q67.52-1,6.66,1a2.69,2.69,0,0,0-.49,0l-.49.17a9.16,9.16,0,0,0-1,.4A4,4,0,0,0,3.1,2.89c-.23.33-.39.7-.6,1a5.22,5.22,0,0,0-.34.48A14.12,14.12,0,0,1,.7,6.89,4.4,4.4,0,0,0,0,9.72C.1,11,.13,12.21.24,13.44c.18,2,0,4,.23,5.93a1.2,1.2,0,0,0,.29.79,1.27,1.27,0,0,0,.54.21l1.87.41c-.77.5-1.92.54-2.33,1.36A2.32,2.32,0,0,0,.67,23c-.08,1-.17,2.11-.25,3.16,0,.48,0,.95-.07,1.43s0,.88-.1,1.34a9.65,9.65,0,0,0,0,3.43c.31,1,1.54,1,2.4,1.28a1.65,1.65,0,0,0-1.06.78c-.13.19-.22.39-.35.58a5.24,5.24,0,0,0-.3.51,5.67,5.67,0,0,0-.44,1.12,3,3,0,0,0-.12.73l0,.72c0,.48,0,.95,0,1.43,0,1,0,1.92,0,2.88a6.57,6.57,0,0,0,.19,2.75,4.89,4.89,0,0,0,1.9,2.2A4.81,4.81,0,0,0,4.58,48q61.16,2.69,124.31,0a4.74,4.74,0,0,0,3-1.25,5.77,5.77,0,0,0,1-1.13c.36-.55.69-1.12,1-1.7C134.68,42.53,135.63,41,135.51,39.33Z" style="fill:url(#Áåçûìÿííûé_ãðàäèåíò_3)"/><path d="M130.89,44.44q-63.15,2.66-124.31,0A4.73,4.73,0,0,1,2.4,41.51a5.23,5.23,0,0,1-.32-2.29,2,2,0,0,1,.06-.41,3.31,3.31,0,0,0,.19-.61c0-.11,0-.22,0-.34.07-.62.09-1.25.14-1.87a7.27,7.27,0,0,1,.17-1,1.77,1.77,0,0,1,.61-1c1.34-1,4-1,5.92-1l1,0c.85-.06,1.7-.08,2.55-.07a35.61,35.61,0,0,1-6-.53c-1-.16-1.88-.36-2.81-.6a3.32,3.32,0,0,1-.67-.23,1.27,1.27,0,0,1-.67-.6,1.89,1.89,0,0,1-.1-.78c0-.25,0-.51,0-.76,0-.53.09-1.06.14-1.59s.1-.86.13-1.29C2.88,25.29,3,24.14,3,23a1.57,1.57,0,0,1,.31-1,1.38,1.38,0,0,1,.53-.29,8.88,8.88,0,0,1,1.59-.42c.25,0,.53,0,.77-.11A4.45,4.45,0,0,1,7.06,21L16,20l1.07-.12L3.6,18.21,3,18.13A.81.81,0,0,1,2.52,18l0,0a.76.76,0,0,1-.11-.42c-.21-2.42,0-4.92-.11-7.36,0-.14,0-.83-.09-1.6C2.12,7.43,2,6.14,2,6.14A4.75,4.75,0,0,1,6.58,1Q67.38-1.08,130.8,1a4.77,4.77,0,0,1,4.59,5.13,18,18,0,0,1-.12,2.74,1.12,1.12,0,0,1-.28.59,1.16,1.16,0,0,1-.55.22l-1.53.38a15.91,15.91,0,0,1-2,.38L118.66,11.8l-.33,0-.39,0h1l15.31-.26a.67.67,0,0,1,.42.09.59.59,0,0,1,.18.43,3.4,3.4,0,0,1,0,.63c0,.65-.12,1.27-.12,1.93s.14,1.16.13,1.75c0,.85,0,1.72-.07,2.59-.08,2-.22,3.95-.44,5.92a1,1,0,0,1-.84,1.12,1.82,1.82,0,0,1-.4.11c-3,.86-6.28.18-9.36.71a5.79,5.79,0,0,0-.6.12l-.21,0,.76.06q5.05.38,10.08,1a1.43,1.43,0,0,1,1.06.44,1.51,1.51,0,0,1,.18.87v1c0,1,0,2,0,3,.06,1.33.14,2.64.23,4,0,.64.08,1.29.13,1.94A4.77,4.77,0,0,1,130.89,44.44Z" style="fill:url(#Áåçûìÿííûé_ãðàäèåíò_3-2)"/><path d="M134.86,16.43c0,.85,0,1.72-.07,2.59-1.73.16-3.42.29-5.08.48l-1.16.12c-1.43.15-2.85.29-4.28.41l-2.15.18c-.45,0-.87.22-1.31.27a11.38,11.38,0,0,1-1.93-.13c-.7,0-1.4-.06-2.1-.05-1.4,0-2.8.13-4.2.28-2.79.32-5.56.85-8.34,1.32-4.44.74-8.92,1.3-13.41,1.68a57.69,57.69,0,0,1,7.27,1.2c-.9.07-1.8.14-2.7.19-2.85.18-5.71.27-8.57.32s-5.73,0-8.59,0-5.73,0-8.6,0-5.72.09-8.58.23c-1.43.07-2.85.15-4.28.26l-1.07.09c-.43,0-.85.16-1.29.21-3.41.4-6.81.9-10.19,1.57A128.42,128.42,0,0,1,28.4,30.1l-2.9.18c-4.59.93-9.55,1.12-14,1.67-1.53.19-3.09.29-4.65.35-1-.16-1.88-.36-2.81-.6a3.32,3.32,0,0,1-.67-.23,1.27,1.27,0,0,1-.67-.6,1.89,1.89,0,0,1-.1-.78c0-.25,0-.51,0-.76,0-.53.09-1.06.14-1.59C6.8,27.4,11,26.21,15,25.64c5.1-.73,10.28-1.16,15.42-1.45,5.81-.32,11.6.37,17.4.37,5.36,0,10.72-.47,16.06-.9q15.6-1.26,31.19-2.61-3.39-.06-6.78-.18-4.32-.15-8.64-.38a12.54,12.54,0,0,0-2,0,15.86,15.86,0,0,1-2.07.09A18,18,0,0,1,71.46,20c-.78-.19-1.55-.43-2.35-.57A25.19,25.19,0,0,0,65,19.26c-5.08-.07-10.1-1.41-15.19-1.36-1.33,0-2.67.12-4,.24s-2.83.26-4.25.3a8,8,0,0,1-1.89-.08,6.74,6.74,0,0,0-1.49-.07q-1.29,0-2.58-.06c-1.72,0-3.45-.06-5.17-.07-6.53,0-13,.33-19.57.28A61.64,61.64,0,0,1,2.52,18l0,0a.76.76,0,0,1-.11-.42c-.21-2.42,0-4.92-.11-7.36,0-.14,0-.83-.09-1.6,3.33-.29,6.68-.36,10-.61,6.52-.48,13-.68,19.59-.65,13,.06,25.91.89,38.84,1.87s25.85,2.19,38.79,3.11c6.54.46,13.09.75,19.64.75,1.92,0,3.86-.12,5.8-.27,0,.65-.12,1.27-.12,1.93S134.87,15.84,134.86,16.43Zm.21,17c0-1,0-2,0-3-4.13-.45-8.27-.91-12.42-1.2a198.59,198.59,0,0,0-21.41-.12c-1.48.06-2.94.1-4.41.29l-2.14.26c-2.84.34-5.7.61-8.55.83-1.12.09-2.23.16-3.35.23l8.67-.06,8.67-.07,4.33,0,2.17,0a4.73,4.73,0,0,0,.92,0c.18,0,.35-.12.54-.15a11.41,11.41,0,0,1,2,.07l2.15.13c1.43.08,2.86.18,4.3.29,2.25.17,4.51.36,6.76.56,2.46.22,4.9.51,7.35.81-5.56.53-11.11,1.08-16.68,1.38-12.82.71-25.64,1.6-38.48,1.35-12.66-.25-25.29-1-38-.93q-10,0-20,.32c-4.91.15-9.9.12-14.81.63a7.27,7.27,0,0,0-.17,1c0,.62-.07,1.25-.14,1.87,5.47.23,11-.15,16.46-.16q10,0,20,.21c12.64.3,25.27,1,37.91,1.22,12.86.23,25.69-.69,38.52-1.34,6.62-.33,13.28-.33,19.9-.4h.14C135.21,36.06,135.13,34.75,135.07,33.42Z" style="fill:url(#Áåçûìÿííûé_ãðàäèåíò_3-3)"/><path d="M3.17,30a4.32,4.32,0,0,0,.15,1.48,1.27,1.27,0,0,1-.67-.6,1.89,1.89,0,0,1-.1-.78c0-.25,0-.51,0-.76,0-1,.22-1.92.27-2.88C2.88,25.29,3,24.14,3,23a1.57,1.57,0,0,1,.31-1,1.38,1.38,0,0,1,.53-.29,8.88,8.88,0,0,1,1.59-.42c.25,0,.53,0,.77-.11A4.45,4.45,0,0,1,7.06,21L16,20,6.4,21.9a4.74,4.74,0,0,0-2,.53,2.54,2.54,0,0,0-.29.28A2.2,2.2,0,0,1,3.9,23a1.31,1.31,0,0,0-.3.6,6.47,6.47,0,0,0-.37,1.9c0,.24,0,.48,0,.73l0,.17a1.07,1.07,0,0,1-.07.19A3.3,3.3,0,0,0,3,28.11c0,.19.09.36.13.54A6,6,0,0,1,3.17,30Z" style="fill:#eb924d"/><path d="M118.33,11.83l-.53,0h.86Z" style="fill:#eb924d"/><path d="M121.27,26.66c.82.08,1.65.16,2.48.22a5.79,5.79,0,0,0-.6.12C122.52,26.88,121.88,26.76,121.27,26.66Z" style="fill:#eb924d"/><path d="M133.49,25.43a5,5,0,0,0,.06-1.59c-.08-1-.15-2-.23-2.95a.69.69,0,0,0-.19-.52.66.66,0,0,0-.44-.08l-3.69.12a11.26,11.26,0,0,0,3.85-1.05,1.54,1.54,0,0,0,.83-.73,1.62,1.62,0,0,0,.07-.58,45.54,45.54,0,0,0-.48-4.81,3.49,3.49,0,0,0-2.24-.68L121.36,12c-.77-.05-1.63-.08-2.45-.11l15.31-.26a.67.67,0,0,1,.42.09.59.59,0,0,1,.18.43,19.85,19.85,0,0,1-.09,2.56c0,.59.14,1.16.13,1.75,0,2.78-.19,5.68-.51,8.51a1,1,0,0,1-.84,1.12,1.82,1.82,0,0,1-.4.11A1.86,1.86,0,0,0,133.49,25.43Z" style="fill:#eb924d"/><path d="M2.27,10.15c0-.34-.21-4-.26-4A4.75,4.75,0,0,1,6.58,1Q67.38-1.08,130.8,1a4.77,4.77,0,0,1,4.59,5.13,18,18,0,0,1-.12,2.74,1.12,1.12,0,0,1-.28.59,1.16,1.16,0,0,1-.55.22c-.51.13-1,.26-1.52.37a3.79,3.79,0,0,0,1.15-1.45,1.56,1.56,0,0,0-.1-1.1,5.59,5.59,0,0,1-.27-1.73c0-.75.11-1.83-.49-2.42a6,6,0,0,0-1.6-1.12,11.13,11.13,0,0,0-4.53-.89h-.23a62.86,62.86,0,0,0-8.46.19c-.34,0-.64.13-1,.19a5.83,5.83,0,0,1-1.32,0l-2.87-.13c-1.92-.07-3.83-.12-5.75-.14-1.43,0-2.87,0-4.3,0H86.78a7.71,7.71,0,0,1-1.36,0A12.11,12.11,0,0,0,84.17,1,7.55,7.55,0,0,0,82.91,1c-1,.09-2.09.19-3.13.3a2,2,0,0,0-1.31.48,1.94,1.94,0,0,1-.32.37c-.29.21-.7.07-1,0A7.23,7.23,0,0,0,75,1.74c-.65,0-1.29.09-1.94.05a8.12,8.12,0,0,1-1.2-.2A41.13,41.13,0,0,0,67,1.14C65.85,1.06,64.67,1,63.48,1,59.65.82,55.81.89,52,1.05c-1.92.08-3.84.19-5.75.3a15.53,15.53,0,0,1-2.72.12c-.26,0-.49-.13-.74-.18a4.14,4.14,0,0,0-.79,0l-3.19,0H35.06c-.42,0-.83.08-1.24.08s-.75-.08-1.13-.08a6.25,6.25,0,0,0-2.3.46,2.11,2.11,0,0,1-.88.24c-.55,0-.94-.56-1.45-.8-1.2-.58-2.44.52-3.67.07a5.6,5.6,0,0,0-1.87-.19H20.06c-2.78,0-5.55.11-8.32.39C10.36,1.58,9,1.76,7.63,2c-.66.11-1.34.31-2,.39a.94.94,0,0,0-.54.15C4.27,3.12,2,6.31,3.63,7.43A1.74,1.74,0,0,0,4,7.61c.17.07.35.09.52.16a1.73,1.73,0,0,0,.6,0H6.46a5,5,0,0,1,1.44.14l-3.12.63a5,5,0,0,0-1,.28.85.85,0,0,1-.17.06,1,1,0,0,0-.46.56A8.23,8.23,0,0,0,3,11.17a12.67,12.67,0,0,0,.14,3.13c.13,1.31.28,2.61.48,3.91L3,18.13a.73.73,0,0,1-.52-.2.76.76,0,0,1-.11-.42C2.17,15.09,2.4,12.59,2.27,10.15Z" style="fill:#eb924d"/><path d="M135.43,39.33q-.23-3-.36-5.91c-.06-1.33,0-2.66,0-4a1.51,1.51,0,0,0-.18-.87,1.43,1.43,0,0,0-1.06-.44q-5-.64-10.08-1c3,.58,6.1,1.32,9,2.11.56.16.6.59.83,1.12a4.9,4.9,0,0,1,.26,1.71,2.15,2.15,0,0,1-.07.71c-.17.51-.71.79-1.19,1l1.09.31a.49.49,0,0,1,.23.11.46.46,0,0,1,.11.3,20.17,20.17,0,0,1,0,2.91c0,.62,0,1.25,0,1.87a4.48,4.48,0,0,0,.11.5,2.32,2.32,0,0,1-.09,1.08,3.28,3.28,0,0,1-1.33,1.77,7.82,7.82,0,0,1-3.75.95c-2.17.16-4.35.14-6.51.35l-2.15.19-4.3.32c-2.7.18-5.42.32-8.13.4-6.42.22-12.85.2-19.28.17H86.21c-.63,0-1.23.08-1.86,0a21.24,21.24,0,0,0-4.5.29,8.27,8.27,0,0,1-5.14-.69,3.35,3.35,0,0,0-1.51-.69,3,3,0,0,0-1.3.45,8.47,8.47,0,0,1-2.56.7h0a27.72,27.72,0,0,1-5.54,0c-1.37-.09-2.81.14-4.12-.35a5.24,5.24,0,0,0-3.11-.61c-.37.1-.7.3-1.05.43a6.85,6.85,0,0,1-2.16.37L51.93,45c-1.91.07-3.82.06-5.74,0a9.57,9.57,0,0,1-2.39-.26,4.46,4.46,0,0,0-1.63,0q-3.48.23-7,.11c-.95,0-1.89-.08-2.84-.15-.46,0-.94-.12-1.41-.12-.31,0-.61.11-.93.1-1.92,0-3.85,0-5.78-.05l-9.88-.1A19.29,19.29,0,0,1,8,44c-1.83-.34-3.82-1.08-4.58-2.78a5,5,0,0,1-.34-2.26,3.86,3.86,0,0,0,0-.68c0-.21-.1-.41-.13-.61a5.72,5.72,0,0,1,.28-2.17,2.18,2.18,0,0,1,.44-1A2,2,0,0,1,4.5,34a10.4,10.4,0,0,1,2.55-.37l3.73-.21.75,0a1.5,1.5,0,0,1,0-.37V33l-2.27,0c-2,0-4.58,0-5.92,1a2.72,2.72,0,0,0-.78,2c-.06.74-.08,1.49-.18,2.21a3.31,3.31,0,0,1-.19.61,2,2,0,0,0-.06.41,5.23,5.23,0,0,0,.32,2.29,4.73,4.73,0,0,0,4.18,2.93q61.16,2.7,124.31,0A4.77,4.77,0,0,0,135.43,39.33Z" style="fill:#eb924d"/><path d="M9.53,24.8c0,.54,0,1.09.06,1.63,0,.27,0,.54,0,.81a6,6,0,0,0,0,.61,3.7,3.7,0,0,1,.08.48l.07,1.39c0,.92.08,1.85.13,2.78,0,1.18.11,2.37.17,3.56a3.49,3.49,0,0,0,.49,1.79,3.53,3.53,0,0,0,.21.32,1.12,1.12,0,0,0,.49.37,9,9,0,0,0,2.35.61,30.07,30.07,0,0,0,3.67.28c16.22.58,32.44,1.15,48.66.75a14.54,14.54,0,0,1,5.88.64C71,39.32,69,39.1,67.29,39.06c-18-.41-36.06-.87-54-2.37a2,2,0,0,1-1.37-.46,1.92,1.92,0,0,1-.43-.95,29.48,29.48,0,0,1-.55-11.38,3.45,3.45,0,0,0,.09-.71c0-.24,0-.48,0-.73q0-.75.06-1.5c-.07-.12-.24-.12-.37-.11l-1,.11a5.22,5.22,0,0,1,0,1,1.51,1.51,0,0,0,0,.3,3,3,0,0,1,0,.66l0,1C9.54,24.17,9.53,24.49,9.53,24.8Z" style="fill:#eb924d"/><path d="M72.58,41c.2-.51.87-.6,1.42-.61l13.09-.26,12.37-.25a6.62,6.62,0,0,1,3.85.72l-.07-.48a5.47,5.47,0,0,1,1.39-.14,4.29,4.29,0,0,0,.79-.11c.61-.08,1.23-.11,1.84-.14,3.4-.15,6.8-.19,10.19-.37.86,0,1.71-.1,2.57-.17s1.71-.11,2.55-.23a2,2,0,0,1,.35-.06l.48,0a7.54,7.54,0,0,0,2.52-.59,4,4,0,0,0,2.21-2.34,5.89,5.89,0,0,0,.19-1.45,58,58,0,0,0-.09-6.72c-.12-.11-.4.09-.44.25a39.08,39.08,0,0,0-.92,4.94,5.6,5.6,0,0,1-.83,2.82,4.93,4.93,0,0,1-2.85,1.43c-5.63,1.3-11.45,1.43-17.23,1.55l-16.13.34c-4.48-.15-9.07.56-13.52.08A14.87,14.87,0,0,0,72.55,39a.44.44,0,0,0-.26.11.42.42,0,0,0-.08.18A3.06,3.06,0,0,0,72.58,41Z" style="fill:#eb924d"/><path d="M128.17,31.51c0-1.91,0-3.81,0-5.71l0-5.48a60.29,60.29,0,0,0-.19-6.59,9.55,9.55,0,0,1-.15-1.31,3.79,3.79,0,0,0-.41-1.77,9.71,9.71,0,0,0-1.49-2.31c-1.31-1.54-3.18-1.61-5.13-1.69s-4.09,0-6.13,0l-6.85,0L99.4,6.51l-8.34-.09-4.17,0a3.61,3.61,0,0,0-.87,0,4.56,4.56,0,0,1-.53.13,7,7,0,0,1-1.93-.22A18.39,18.39,0,0,1,84.3,2.1a35.69,35.69,0,0,1-2,4.15.46.46,0,0,1-.19.22.48.48,0,0,1-.29,0c-.21,0-.43,0-.64-.1a6.16,6.16,0,0,0-1.49-.07l-6.43,0q-6.33,0-12.66,0c-4.52,0-9,0-13.57,0l-3.68,0a7.26,7.26,0,0,0-1.55.09,6.68,6.68,0,0,1-1.73,0,1.51,1.51,0,0,1-.86-.24,1.61,1.61,0,0,1-.46-.75l-.66-1.74a17.07,17.07,0,0,0,.21,2c0,.22,0,.5-.15.6a.38.38,0,0,1-.21,0,2.24,2.24,0,0,1-.73,0,8,8,0,0,0-1.39-.06c-5.12,0-10.24,0-15.36,0-2.87,0-9.77-1.46-10.71,2.43a9.24,9.24,0,0,0-.16,1.66c-.1,1.68,0,3.37,0,5.06q.12,8.34.46,16.7c0,.85.07,1.7.18,2.55a3.36,3.36,0,0,0,.57,2.08,5.34,5.34,0,0,1,.47.56,3.3,3.3,0,0,0,1.24.94,8.7,8.7,0,0,0,3.35.66q5.58.27,11.15.45c3.73.12,7.47.23,11.2.3s7.48.12,11.21.14q5.09,0,10.17,0h5.19c1.87,0,4.13-.58,5.85.31a4.47,4.47,0,0,1,2,2A8.52,8.52,0,0,1,72.71,40a34.87,34.87,0,0,1,4.09-.33c.59,0,1.16.08,1.75.07h2.09L89,39.63l5.17-.06c3.74,0,7.47-.13,11.21-.27l2-.08q7.73-.3,15.44-.91a12.58,12.58,0,0,0,1.27-.16,3.94,3.94,0,0,0,1.82-.81,8.25,8.25,0,0,0,1.74-1.9C128.36,34.22,128.18,32.86,128.17,31.51Zm-2.79,2.58a5.73,5.73,0,0,1-1.17,1.24,1.28,1.28,0,0,1-.64.25,9.06,9.06,0,0,1-1,.12c-4.93.39-10.09.69-15.33.91l-2,.07c-3.92.14-7.57.23-11.15.27-10.62.13-21.1.2-31.14.2q-6.75,0-13.5,0C45.76,37.08,42,37,38.3,37s-7.46-.17-11.17-.29-7.45-.28-11.11-.45a6.69,6.69,0,0,1-2.39-.42.93.93,0,0,1-.25-.16c-.13-.16-.27-.35-.45-.55,0-.1,0-.21,0-.3s0-.35-.05-.52c-.09-.72-.13-1.46-.16-2.35-.23-5.5-.39-11.09-.47-16.62v-.94c0-1.37-.05-2.66,0-3.93,0-.15,0-.3,0-.45a4.52,4.52,0,0,1,.06-.75c.08-.34,1.05-.69,3-.69,1,0,2,.08,2.95.15s1.54.12,2.18.12l13.73,0h2.57c3.42,0,6.85,0,10.27,0l3.3,0c2.42,0,4.83,0,7.25,0h3c2.55,0,5.09,0,7.64,0,8.63,0,17.42.1,25.93.19,6.68.08,13.58.15,20.34.17h2.12l1.73,0c.85,0,1.54,0,2.17,0h.07c1.83.09,2.68.18,3.18.77a7.33,7.33,0,0,1,1.1,1.67,1.4,1.4,0,0,1,.18.68,7.86,7.86,0,0,0,.13,1.33c0,.11,0,.22,0,.32a40.75,40.75,0,0,1,.17,4.75v1.56l.09,11.17c0,.24,0,.47,0,.7A4,4,0,0,1,125.38,34.09Z" style="fill:url(#Áåçûìÿííûé_ãðàäèåíò_3-4)"/><polygon points="9.58 21.27 12.64 20.66 12.51 20.37 9.34 20.75 9.58 21.27" style="fill:#eb924d"/><polygon points="124.74 12.14 128.29 12.44 128.29 11.64 124.45 11.81 124.74 12.14" style="fill:#eb924d"/><polygon points="124.99 27.43 128.92 28.18 128.84 27.55 124.62 27.18 124.99 27.43" style="fill:#eb924d"/><path d="M113.5,24.07c-3-1.67-8-1.15-10.33,1.1a3.85,3.85,0,0,0,0,5.48c3.45,3.11,9.51,1.78,11.7-2.07l.13-.11C116.67,27,115.48,24.45,113.5,24.07Z" style="fill:#eb924d"/><path d="M114.21,22.6c-3-1.67-8-1.15-10.33,1.1a3.85,3.85,0,0,0,0,5.48c3.45,3.1,9.51,1.78,11.7-2.07l.13-.11C117.38,25.49,116.19,23,114.21,22.6Z" style="fill:url(#Áåçûìÿííûé_ãðàäèåíò_3-5)"/><path d="M113.5,23.55c-3-1.67-8-1.16-10.33,1.1a3.85,3.85,0,0,0,0,5.48c3.45,3.1,9.51,1.78,11.7-2.07L115,28C116.67,26.44,115.48,23.93,113.5,23.55Z" style="fill:url(#Áåçûìÿííûé_ãðàäèåíò_3-6)"/><path d="M102.13,17.91a6.19,6.19,0,0,0-6.51.69,2.43,2.43,0,0,0,0,3.46c2.17,2,6,1.12,7.38-1.3l.08-.07A1.65,1.65,0,0,0,102.13,17.91Z" style="fill:#eb924d"/><path d="M102.58,17a6.18,6.18,0,0,0-6.52.69,2.43,2.43,0,0,0,0,3.45,5.05,5.05,0,0,0,7.39-1.3l.07-.07A1.63,1.63,0,0,0,102.58,17Z" style="fill:url(#Áåçûìÿííûé_ãðàäèåíò_3-7)"/><path d="M102.13,17.58a6.19,6.19,0,0,0-6.51.69,2.43,2.43,0,0,0,0,3.46c2.17,2,6,1.12,7.38-1.3l.08-.07A1.65,1.65,0,0,0,102.13,17.58Z" style="fill:url(#Áåçûìÿííûé_ãðàäèåíò_3-8)"/><path d="M25.17,28.05a6.18,6.18,0,0,0-6.52.69,2.44,2.44,0,0,0,0,3.46A5,5,0,0,0,26,30.89l.07-.07A1.63,1.63,0,0,0,25.17,28.05Z" style="fill:#eb924d"/><path d="M25.62,27.12a6.2,6.2,0,0,0-6.52.69,2.43,2.43,0,0,0,0,3.46A5,5,0,0,0,26.48,30l.08-.07A1.63,1.63,0,0,0,25.62,27.12Z" style="fill:url(#Áåçûìÿííûé_ãðàäèåíò_3-9)"/><path d="M25.17,27.72a6.18,6.18,0,0,0-6.52.69,2.44,2.44,0,0,0,0,3.46A5,5,0,0,0,26,30.56l.07-.07A1.63,1.63,0,0,0,25.17,27.72Z" style="fill:url(#Áåçûìÿííûé_ãðàäèåíò_3-10)"/><path d="M125.86,24a98,98,0,0,1-.58,10.37,1.94,1.94,0,0,1-1.85,1.7,849.44,849.44,0,0,1-108.8.34,2,2,0,0,1-1.84-1.75,170.16,170.16,0,0,1-.9-20.94c0-1.1.1-2.19.2-3.26A2,2,0,0,1,14,8.7c38.66-1.08,75-1,109.14.79A1.93,1.93,0,0,1,125,11.11,89.7,89.7,0,0,1,125.86,24Z" style="fill:url(#Áåçûìÿííûé_ãðàäèåíò_7)"/><path d="M125.19,23.75c-.13.39-.26.79-.38,1.18A25.91,25.91,0,0,0,124,28.7a13.73,13.73,0,0,0-.19,1.91c0,.2,0,.39.06.59a1.63,1.63,0,0,1,0,.31c0,.11-.07.22-.1.33s-.36.76-.3.87c-1.17-2.06-1-4.56-1.15-6.91s-.65-5-2.65-6.33A9.47,9.47,0,0,0,115,18.28c-32.6-2.47-65.51-3.57-98.21-3.35q-.33.9-.63,1.83c-.3.93-.56,1.87-.79,2.82-.11.48-.22,1-.32,1.43a6.45,6.45,0,0,0-.23,1.36,1.88,1.88,0,0,1,0,.41,4.07,4.07,0,0,1-.16.67c-.11.47-.2.95-.28,1.44s-.12,1-.15,1.46a8.66,8.66,0,0,0,0,1.44L14,25.54q-.33-3-.65-6.07l-.33-3a3.12,3.12,0,0,0-.22-1.17L12.53,15a7.46,7.46,0,0,1-.64-1.26c0-1.1.1-2.19.2-3.26A2,2,0,0,1,14,8.7c38.66-1.08,75-1,109.14.79A1.93,1.93,0,0,1,125,11.11c.25,1.75.44,3.51.58,5.28,0,.66.1,1.32.13,2a11.45,11.45,0,0,1,.06,1.85c0,.52.11,1,0,1.54a8.89,8.89,0,0,1-.51,1.74A2.6,2.6,0,0,0,125.19,23.75Z" style="fill:#ffdf80"/><path d="M123.32,34.14c-10.63.68-21.19,1.18-31.57,1.49Q80.56,36,69.67,36h-.56c-1.37,0-2.72,0-4.07,0-17.09,0-34-.53-50.27-1.59C14.16,27.33,13.48,19.32,14,12c0-.48.06-.95.1-1.41,17.42-.47,33.31-.71,48.56-.71,7.3,0,14.37.06,21.25.16h.32l1.86,0q9.56.16,18.64.5c6.25.21,12.34.47,18.35.8.31,2.16.53,4.39.67,6.66A95.56,95.56,0,0,1,123.32,34.14Z" style="fill:url(#Áåçûìÿííûé_ãðàäèåíò_12)"/><path d="M123.71,18.05a18.75,18.75,0,0,1-.19,2.7c-.37,4.47-10.78,3.92-13.76,4.1-26.8,1.64-54,.37-80.85-.84-3.9-.17-7.8-.41-11.7-.6-2.88-.15-2.65-2.55-2.82-4.72S14.06,14.24,14,12c0-.48.06-.95.1-1.41,17.42-.47,33.31-.71,48.56-.71,21.88,0,41.64.5,60.42,1.5C123.35,13.55,123.57,15.78,123.71,18.05Z" style="fill:url(#Áåçûìÿííûé_ãðàäèåíò_12-2)"/><path d="M104.69,10.59c-1.9.38-3.56.84-4.72,2.45a96.06,96.06,0,0,0-8.7,14.71A10.28,10.28,0,0,0,90,32a4.49,4.49,0,0,0,1.76,3.65Q80.56,36,69.67,36a9.87,9.87,0,0,0,6.24-2.55,26.71,26.71,0,0,0,4.73-5.95c1.81-2.8,3.64-5.6,5.46-8.4a14.49,14.49,0,0,0,2-3.83,4.8,4.8,0,0,0-.55-4.11,3.37,3.37,0,0,0-1.47-1.1Q95.61,10.26,104.69,10.59Z" style="mix-blend-mode:screen;fill:url(#Áåçûìÿííûé_ãðàäèåíò_11)"/></g></g></g></svg>