<svg xmlns="http://www.w3.org/2000/svg" xmlns:xlink="http://www.w3.org/1999/xlink" viewBox="0 0 36.04 104.29"><defs><radialGradient id="Áåçûìÿííûé_ãðàäèåíò_79" cx="22.18" cy="48.57" r="56.43" gradientUnits="userSpaceOnUse"><stop offset="0" stop-color="#fbd767"/><stop offset="1" stop-color="#d65f6e"/></radialGradient><linearGradient id="Áåçûìÿííûé_ãðàäèåíò_97" x1="-15.62" y1="50.07" x2="26.76" y2="50.3" gradientUnits="userSpaceOnUse"><stop offset="0.27" stop-color="#4c8cff"/><stop offset="0.65" stop-color="#d65f6e"/><stop offset="0.72" stop-color="#df7d6c"/><stop offset="0.85" stop-color="#eeae69"/><stop offset="0.94" stop-color="#f8cc68"/><stop offset="1" stop-color="#fbd767"/></linearGradient><linearGradient id="Áåçûìÿííûé_ãðàäèåíò_55" x1="569.87" y1="32.76" x2="569.28" y2="44.34" gradientTransform="matrix(-1, -0.05, -0.05, 1, 592.03, 79.92)" gradientUnits="userSpaceOnUse"><stop offset="0" stop-color="#ffe48f"/><stop offset="1" stop-color="#c77781"/></linearGradient><linearGradient id="Áåçûìÿííûé_ãðàäèåíò_77" x1="570.67" y1="30.4" x2="571.86" y2="75.63" gradientTransform="matrix(-1, -0.05, -0.05, 1, 592.03, 79.92)" gradientUnits="userSpaceOnUse"><stop offset="0" stop-color="#d65f6e"/><stop offset="1" stop-color="#fbd767"/></linearGradient><linearGradient id="Áåçûìÿííûé_ãðàäèåíò_55-2" x1="573.92" y1="-49.32" x2="572.3" y2="-41.21" xlink:href="#Áåçûìÿííûé_ãðàäèåíò_55"/><linearGradient id="Áåçûìÿííûé_ãðàäèåíò_55-3" x1="26.07" y1="47.52" x2="-4.88" y2="15.46" gradientTransform="matrix(1, 0, 0, 1, 0, 0)" xlink:href="#Áåçûìÿííûé_ãðàäèåíò_55"/></defs><g style="isolation:isolate"><g id="Calque_2" data-name="Calque 2"><g id="Ñëîé_1" data-name="Ñëîé 1"><path d="M34.76,95.23A17.23,17.23,0,0,1,19,102.06v1.83c-9.45-.17-10.53-3.35-10.53-3.35L18.71,7.83Z" style="fill-rule:evenodd;fill:url(#Áåçûìÿííûé_ãðàäèåíò_79)"/><path d="M36,95.45h0l-.08,0,0,0-.13-.07h0c-.11-.06-.24-.13-.4-.2l-.11,0L35.1,95l-.1,0-.16-.07,0,0-.09,0-.08,0a.61.61,0,0,0-.14-.07l-.27-.11-.13-.06-.17-.06-.1,0L32.75,94l-.14,0-.27-.1-.21-.07c-.45-.15-.94-.3-1.45-.44l-.26-.08-.27-.07-.27-.07-.3-.07L29.33,93l-.6-.14-.27,0-.29-.06-.32-.06-.6-.11-.31,0-.32,0h0l-.38,0h-.06l-.31,0-.34,0h-.11l-.21,0H25.1c-.06-.14-.13-.28-.19-.41A5.39,5.39,0,0,0,23.55,90l-.06,0a.78.78,0,0,0,0,.14,2.88,2.88,0,0,0-.16.47,8.46,8.46,0,0,0-.23,1.22s0,.1,0,.15l0,.26H21.82l-.65,0-.32,0-.28,0h-.22l-.16,0-.28,0-.24,0h-.18l-.22,0h0l-.31,0h0l-.17,0-.27,0-.28,0-.25,0-.44.08-.18,0-.39.08-.17,0c-.37.09-.72.18-1.06.28l-.19.06-.46.15-.21.07-.2.07h0l-.19.07-.2.08-.1,0-.13,0-.54.24-.17.08-.35.18-.16.09-.17.09h0l-.31.19-.16.09-.31.21-.13.08-.14.1-.14.1-.13.1-.13.1-.13.1h0l-.12.1-.12.1-.34.31-.11.11-.11.1-.1.11a.6.6,0,0,0-.08.08l-.06.06-.15.17-.09.11-.12.14a1.83,1.83,0,0,0-.13.16l-.17.22h0l-.08.12a9,9,0,0,0-.78,1.31l0,.08c-.05.1-.09.19-.13.29l-.06.14a4,4,0,0,0-.15.4l0,.06c0,.1-.07.2-.1.3s0,0,0,.06a2.46,2.46,0,0,0-.09.34s0,0,0,.06a213,213,0,0,0,1.47-48.3A229.24,229.24,0,0,0,0,6,15,15,0,0,1,1.74,4.1h0l0,0h0l0,0H3.15l-.42-.87,0,0C7.35-.41,13-.43,17.73.54c.22,1.05,2.48,1.83,4,1.9A1.72,1.72,0,0,0,23,2.19L23,2.11a32,32,0,0,1,3.79,1.73s-.12,4.6,0,12.17v.52c0,.6,0,1.22,0,1.86,0,.16,0,.33,0,.49s0,.3,0,.46v1.39l0,.55,0,1.06,0,1c0,.25,0,.5,0,.74s0,.4,0,.59,0,.33,0,.49v.19c0,.19,0,.37,0,.55,0,.61.05,1.24.08,1.87v.12c.24,5.86.61,12.52,1.19,19.62.1,1.18.2,2.36.32,3.53,0,.48.09,1,.14,1.44.21,2,.43,4.06.68,6A362.43,362.43,0,0,0,36,95.45Z" style="fill-rule:evenodd;fill:url(#Áåçûìÿííûé_ãðàäèåíò_97)"/><path d="M17.27,101s-1.19-1.93-.62-2.28,6.45-2.78,10.55-.92,3.49,2.2,3.49,2.2l3.25-4.49a28.46,28.46,0,0,0-8.66-3c-2.06-3.81-1.83-2.64-2.29-.23a14.81,14.81,0,0,0-5.68.63c-7.8,2.51-8.85,7.67-8.85,7.67l4.79-2.39.15,1.56Z" style="fill-rule:evenodd;opacity:0.7000000000000001;mix-blend-mode:multiply;fill:url(#Áåçûìÿííûé_ãðàäèåíò_55)"/><path d="M26.2,97.66,25.05,94.4s-7.16-1.47-10.24.71-2.74,3.35-2.74,3.35a10.13,10.13,0,0,1,6.26-2.16A32.09,32.09,0,0,1,26.2,97.66Z" style="fill-rule:evenodd;fill:url(#Áåçûìÿííûé_ãðàäèåíò_77)"/><path d="M19,104.29l-.5,0c-7.24-.4-10.68-3.15-10.68-3.15a8.38,8.38,0,0,1,1.55-3.86h0c1.39-2,4-4.14,9-5.07a21,21,0,0,1,3.55-.37c.4,0,.79,0,1.18,0,0,.15,0,.28,0,.41-.05.58-.05,1-.05,1q-.62,0-1.23,0a18.82,18.82,0,0,0-3.88.37c-7.23,1.48-8.53,6.78-8.53,6.78s3.2,2.82,9.49,3.15H19Z" style="fill:#ffcdab;fill-rule:evenodd"/><path d="M36,95.45h0l-.08,0,0,0-.13-.07h0c-.11-.06-.24-.13-.4-.2l-.11,0L35.1,95l-.1,0-.16-.07,0,0-.09,0-.08,0a.61.61,0,0,0-.14-.07l-.27-.11-.13-.06-.17-.06-.1,0L32.75,94l-.14,0-.27-.1-.21-.07c-.45-.15-.94-.3-1.45-.44l-.26-.08-.27-.07-.27-.07-.3-.07L29.33,93l-.6-.14-.27,0-.29-.06-.32-.06-.6-.11-.31,0-.32,0h0l-.38,0h-.06l-.31,0-.34,0h-.11l-.21,0H25.1c-.06-.14-.13-.28-.19-.41A5.39,5.39,0,0,0,23.55,90l-.06,0a.78.78,0,0,0,0,.14,2.88,2.88,0,0,0-.16.47,8.46,8.46,0,0,0-.23,1.22s0,.1,0,.15l0,.26H21.82l-.65,0-.32,0-.28,0h-.22l-.16,0-.28,0-.24,0h-.18l-.22,0h0l-.31,0h0l-.17,0-.27,0-.28,0-.25,0-.44.08-.18,0-.39.08-.17,0c-.37.09-.72.18-1.06.28l-.19.06-.46.15-.21.07-.2.07h0l-.19.07-.2.08-.1,0-.13,0-.54.24-.17.08-.35.18-.16.09-.17.09h0l-.31.19-.16.09-.31.21-.13.08-.14.1-.14.1-.13.1-.13.1-.13.1h0l-.12.1-.12.1-.34.31-.11.11-.11.1-.1.11a.6.6,0,0,0-.08.08l-.06.06-.15.17-.09.11-.12.14a1.83,1.83,0,0,0-.13.16l-.17.22h0l-.08.12a9,9,0,0,0-.78,1.31l0,.08c-.05.1-.09.19-.13.29l-.06.14a4,4,0,0,0-.15.4l0,.06c0,.1-.07.2-.1.3s0,0,0,.06a2.46,2.46,0,0,0-.09.34s0,0,0,.06a213,213,0,0,0,1.47-48.3A229.24,229.24,0,0,0,0,6,15,15,0,0,1,1.74,4.1h0l0,0h0l0,0H3.15l-.42-.87,0,0C7.35-.41,13-.43,17.73.54c.22,1.05,2.48,1.83,4,1.9A1.72,1.72,0,0,0,23,2.19L23,2.11a32,32,0,0,1,3.79,1.73s-.12,4.6,0,12.17v.52c0,.6,0,1.22,0,1.86,0,.16,0,.33,0,.49s0,.3,0,.46v1.39l0,.55,0,1.06,0,1c0,.25,0,.5,0,.74s0,.4,0,.59,0,.33,0,.49v.19c0,.19,0,.37,0,.55,0,.61.05,1.24.08,1.87C27.06,25.9,26,6.28,23.35,5.91l-.46,0a5.32,5.32,0,0,0-1.07,0,1.53,1.53,0,0,0-1.49,1.28,38.07,38.07,0,0,0,.14,4.75c-.06-.3-1.87-10-5.78-10-3.21,0-8.23,1.37-10,5.44a8,8,0,0,0-.46,1.46A9.18,9.18,0,0,0,4,10.72c0,6.7,5.56,27.22,6.94,39.36s-.6,31.87.82,33,2,9.73,2,9.73,1.07-8,1.54-8a18.92,18.92,0,0,1,6.2-1c9.16.33,11.36,8.85,11.84,8.49s-2.21-15.7-3.91-33.86A362.43,362.43,0,0,0,36,95.45Z" style="fill:#ffd599;fill-rule:evenodd;opacity:0.5;mix-blend-mode:soft-light"/><path d="M21.59,2.47s.93,13,.77,12.9.78-13.21.78-13.21Z" style="fill-rule:evenodd;opacity:0.7000000000000001;mix-blend-mode:multiply;fill:url(#Áåçûìÿííûé_ãðàäèåíò_55-2)"/><path d="M27.06,93.72l-1.47-.18a.25.25,0,0,0,0-.07c-.12-.32-.28-.72-.47-1.14-.06-.14-.13-.28-.19-.41a5.11,5.11,0,0,0-1.42-2c.21-.43.5-.71.89-.62.81.18,1.57,1.59,2.08,2.77.05.13.11.26.16.38h0C26.9,93.19,27.06,93.72,27.06,93.72Z" style="fill:#a53456;fill-rule:evenodd"/><path d="M36,95.45s-3.94,5.94-12.82,7c-8,1-11.3-2.62-11.15-4.1s4.43-2.72,8.47-2.58,5.59,2,5.64,2.09a16.51,16.51,0,0,0-5.93-1.1c-3.12.07-6.86,1.74-6.83,2.68s3.43,2.67,9.15,2,10.9-6,10.9-6a36.28,36.28,0,0,0-6.41-1.83c-.48-.09-1-.17-1.48-.24l.8-1.37h.08A28.75,28.75,0,0,1,36,95.44Z" style="fill:#ffdaab;fill-rule:evenodd"/><path d="M14.67,55.39l-1.09-2.72L12,43.27l1.55-1.4A50.22,50.22,0,0,1,8.45,27.8c-.8-4.69-1.6-13.73-4.23-19C2.79,6,1.74,4.1,1.74,4.1l0,0h0l0,0H3.15C3.5,4.85,4,6,4.68,7.39c2.48,5.38,3.71,14.2,4.4,20.34S14.28,42,14.28,42a3.3,3.3,0,0,0-.43.35h0a10.24,10.24,0,0,0-1.11,1.2,3.4,3.4,0,0,0-.13,2,.38.38,0,0,0,0,.1v.06h0A86.69,86.69,0,0,0,14.67,55.39Z" style="fill-rule:evenodd;opacity:0.7000000000000001;mix-blend-mode:multiply;fill:url(#Áåçûìÿííûé_ãðàäèåíò_55-3)"/><path d="M12.6,45.45a3.4,3.4,0,0,1,.13-2,10.24,10.24,0,0,1,1.11-1.2A4.83,4.83,0,0,0,12.6,45.45Z" style="fill:#ffd599;fill-rule:evenodd;mix-blend-mode:soft-light"/></g></g></g></svg>