<svg xmlns="http://www.w3.org/2000/svg" xmlns:xlink="http://www.w3.org/1999/xlink" viewBox="0 0 236.08 173.81"><defs><linearGradient id="Áåçûìÿííûé_ãðàäèåíò_3" x1="176.68" y1="-86.05" x2="128.09" y2="57.39" gradientUnits="userSpaceOnUse"><stop offset="0" stop-color="#cf5c2b"/><stop offset="1" stop-color="#59173e"/></linearGradient><linearGradient id="Áåçûìÿííûé_ãðàäèåíò_3-2" x1="171.07" y1="-31.06" x2="20.62" y2="306.74" xlink:href="#Áåçûìÿííûé_ãðàäèåíò_3"/><linearGradient id="Áåçûìÿííûé_ãðàäèåíò_3-3" x1="160.72" y1="-10.8" x2="10.28" y2="327" xlink:href="#Áåçûìÿííûé_ãðàäèåíò_3"/><linearGradient id="Áåçûìÿííûé_ãðàäèåíò_3-4" x1="199.3" y1="-113.47" x2="77.63" y2="211.81" xlink:href="#Áåçûìÿííûé_ãðàäèåíò_3"/><linearGradient id="Áåçûìÿííûé_ãðàäèåíò_3-5" x1="174.25" y1="-47.25" x2="52.58" y2="278.03" xlink:href="#Áåçûìÿííûé_ãðàäèåíò_3"/><linearGradient id="Áåçûìÿííûé_ãðàäèåíò_3-6" x1="230.17" y1="-192.75" x2="107.84" y2="120.89" xlink:href="#Áåçûìÿííûé_ãðàäèåíò_3"/><linearGradient id="Áåçûìÿííûé_ãðàäèåíò_3-7" x1="119.33" y1="180.05" x2="119.33" y2="157.11" xlink:href="#Áåçûìÿííûé_ãðàäèåíò_3"/><linearGradient id="Áåçûìÿííûé_ãðàäèåíò_28" x1="177.31" y1="-2.54" x2="60.89" y2="172.44" gradientUnits="userSpaceOnUse"><stop offset="0" stop-color="#ffce3b"/><stop offset="0.11" stop-color="#fbc639"/><stop offset="0.29" stop-color="#f0b134"/><stop offset="0.5" stop-color="#df8e2c"/><stop offset="0.69" stop-color="#cc6923"/><stop offset="0.69" stop-color="#cc6a23"/><stop offset="0.79" stop-color="#e2952d"/><stop offset="0.87" stop-color="#f2b435"/><stop offset="0.95" stop-color="#fcc739"/><stop offset="1" stop-color="#ffce3b"/></linearGradient><linearGradient id="Áåçûìÿííûé_ãðàäèåíò_7" x1="211.39" y1="-60.7" x2="145.77" y2="42.71" gradientUnits="userSpaceOnUse"><stop offset="0" stop-color="#ffca2b"/><stop offset="1" stop-color="#d15b24"/></linearGradient></defs><g id="Calque_2" data-name="Calque 2"><g id="layer_1" data-name="layer 1"><path d="M236.07,160.11c0-1.17-.11-2.33-.17-3.5l-.27-5.81-.06-1.4c-.07-1.78.15-3.62-.77-5.23a1.39,1.39,0,0,0-1.12-.86,2,2,0,0,0,1.12-1.52,14.66,14.66,0,0,0,.34-2.95c0-.84-.06-1.69-.09-2.52s-.07-1.91-.1-2.87c-.07-1.91-.13-3.83-.19-5.75s-.12-3.82-.17-5.73l0-1c0-1-.05-2,0-2.93a3.15,3.15,0,0,0-.71-2,2,2,0,0,0-1.77-.75,3,3,0,0,0,1.45-.73c1-1,.85-2.59.83-3.91,0-1.89-.08-3.78-.11-5.67s-.06-3.78-.08-5.66,0-3.77-.06-5.65,0-3.74,0-5.62,0-3.74,0-5.6c0-2.93,0-5.84.06-8.77,0-1.15.15-2.19-.66-3.11a3.5,3.5,0,0,0-.39-.38c-.06,0-.36-.3-.44-.28a2.19,2.19,0,0,0,1.25-1.16,2.31,2.31,0,0,0,.21-.85c0-.71.05-1.43.06-2.15,0-2.33.07-4.76.13-7.13,0-1.26.07-2.53.1-3.79a6.28,6.28,0,0,0-1-3.16,1.56,1.56,0,0,0,.94-1.1,5.91,5.91,0,0,0,.09-1.39c.08-1.8.11-3.61.17-5.42,0-.91.06-1.81.08-2.72,0-.22,0-.45,0-.66a1.68,1.68,0,0,0,.07-.39,3.91,3.91,0,0,0-.34-1.3,2.11,2.11,0,0,0-1-1.14c.06-.15.23-.21.38-.27a1.91,1.91,0,0,0,1.11-1.6c0-.17,0-.33,0-.49,0-.54,0-1.1.07-1.64l.06-1.74q.15-3.62.31-7.23.33-7.09.75-14.19a5.48,5.48,0,0,0-5-5.81,1389.07,1389.07,0,0,0-223.44,0,5.48,5.48,0,0,0-1.06.19A8.79,8.79,0,0,0,4,6.06,4.86,4.86,0,0,0,3,7.3c-.35.5-.7,1-1,1.51C.94,10.37-.06,12.05,0,14q.17,3.54.3,7.09L.47,24.7c0,.64.05,1.28.07,1.92A13.68,13.68,0,0,0,.6,28.05a9,9,0,0,1,0,1.27A12.12,12.12,0,0,0,.65,30.8a2.34,2.34,0,0,0,.22.77c.42.74,1.47.83,2.14,1.37a6.57,6.57,0,0,0-1.89.53.56.56,0,0,0-.24.16A.65.65,0,0,0,.81,34l0,3.86a6.06,6.06,0,0,0,.08,1.65,6.46,6.46,0,0,1,.1,1.7c.07,2.52.14,5,.19,7.56,0,1.55.07,3.09.1,4.64,0,.73.05,1.46.05,2.19a.77.77,0,0,1-.06.3,2,2,0,0,0,.33,1.56,3.65,3.65,0,0,0,2.83,1.66l-1.65.59a1.81,1.81,0,0,0-1,.64,1.58,1.58,0,0,0-.19.64,50.31,50.31,0,0,0-.14,9.1c.12,3,.13,6,.14,9.06,0,2.55,0,5.09,0,7.63s0,5.1,0,7.65c0,1.83,0,3.67,0,5.5a3.39,3.39,0,0,1,0,.78,3.53,3.53,0,0,0,.06,2.11,2.47,2.47,0,0,0,1.85,1.58,2.35,2.35,0,0,0-1.43.73,2.12,2.12,0,0,0-.32,1.05,16.61,16.61,0,0,0-.11,1.87,7.4,7.4,0,0,1,0,1.63A15.28,15.28,0,0,0,1.45,113c0,1.48,0,3-.07,4.45q-.06,3.85-.14,7.7t-.19,7.72c0,.58,0,1.15,0,1.73A7.6,7.6,0,0,1,1,136a4.58,4.58,0,0,0-.14.53A2.53,2.53,0,0,0,.9,138a1.62,1.62,0,0,0,1.26,1c-.5-.11-.94.39-1,.89s-.05.9-.14,1.34a5,5,0,0,0-.08.56c-.05.37-.1.73-.13,1.1-.07.74-.1,1.48-.1,2.22a1,1,0,0,0,0,.37,1,1,0,0,0,.24.26,5.63,5.63,0,0,0,2.23,1.07l-1.93.64a1.11,1.11,0,0,0-.42.21,1.13,1.13,0,0,0-.23.81c0,.65,0,1.29,0,1.93,0,.24-.09.44-.1.67l0,1c0,1.29-.1,2.58-.14,3.87v.27Q.17,160,0,163.88a5.5,5.5,0,0,0,5.08,5.71,1484.1,1484.1,0,0,0,223.45,0,5.5,5.5,0,0,0,3.25-1.4c.18-.17.42-.33.6-.52a17.24,17.24,0,0,0,3-4.53A7.14,7.14,0,0,0,236.07,160.11Z" style="fill:url(#Áåçûìÿííûé_ãðàäèåíò_3)"/><path d="M231,165.87a1486.73,1486.73,0,0,1-223.45,0,5.52,5.52,0,0,1-5.08-5.72c0-.66,0-1.32,0-2a11.28,11.28,0,0,1,.06-1.65c0-.2.13-.35.16-.54s0-.37.06-.56c.05-.46.08-.92.12-1.37.12-1.29.25-2.58.37-3.87,0-.12,0-.24,0-.35a1.07,1.07,0,0,1,.18-.58A.87.87,0,0,1,4,149a18.05,18.05,0,0,1,6.69-1.33,49.08,49.08,0,0,0,7.27-.62l3-.41h-1c-2.21,0-4.43-.09-6.64-.27-1.27-.1-2.54-.23-3.8-.39a26.43,26.43,0,0,1-5.28-.72c-.48-.18-.8-.39-.81-.66,0-1,0-2,0-3.07a4.86,4.86,0,0,1,.1-1.53c.25-.44.12-.21.61-.41A7.71,7.71,0,0,1,5.57,139c.56-.11,1.13-.16,1.71-.22l6.13-.61-1.57-.1-7.17-.44-1.14-.07a.49.49,0,0,1-.42-.18.71.71,0,0,1,0-.21c.07-1.57.14-3.13.22-4.7.17-3.84.34-7.69.42-11.54,0-.53,0-1,0-1.57A95.25,95.25,0,0,1,4,109.48c0-.31.27-3.57.26-3.57,7.42-.54,14.86-.82,22.31-.8H28.4l-.59-.05h0q-4.39-.44-8.78-.91c-1.58-.17-3.14-.35-4.7-.58-1.27-.18-2.51-.48-3.78-.68a4.66,4.66,0,0,0-1.18,0,16.11,16.11,0,0,1-3.56-.68,2.14,2.14,0,0,1-.27-.06,1.92,1.92,0,0,1-.62-.27,1.81,1.81,0,0,1-.57-1.35,4.61,4.61,0,0,1,0-.52c0-1.38-.13-2.69-.22-4.06-.09-1.58,0-3.15,0-4.73q0-5.73,0-11.46c0-.89,0-1.78,0-2.66q0-4.4,0-8.77a10.81,10.81,0,0,0-.2-3,8.32,8.32,0,0,1,0-3.26,1.38,1.38,0,0,1,.23-.69A1.19,1.19,0,0,1,4.7,61a18.84,18.84,0,0,1,5.15-.55,31.94,31.94,0,0,0,5.05-.61c.23,0,.47-.08.7-.13a50,50,0,0,1-8-1.18,7.68,7.68,0,0,1-2.36-1,4,4,0,0,1-.39-.29,3,3,0,0,1-1.1-2.14,1.27,1.27,0,0,1,0-.28,1.47,1.47,0,0,1,.06-.27,6.29,6.29,0,0,0,0-1.68L3.8,50.33c0-1.59,0-3.18-.09-4.77a37.82,37.82,0,0,0-.28-4.65c-.11-.77-.06-1.56-.1-2.34a17,17,0,0,1,.1-2.85,4.2,4.2,0,0,1,.38-1.51h0a1.43,1.43,0,0,1,1.23-.91,16.16,16.16,0,0,0,2.59-.21q2.88-.28,5.76-.46c3.93-.26,7.88-.4,11.83-.46,1.92,0,3.85,0,5.77,0h.29c1.73,0,3.47-.06,5.2,0q-5.57-.29-11.12-.76c-1.92-.17-3.85-.35-5.78-.56-3.28-.34-6.68-.31-9.9-.62C7.9,30,6.1,29.91,4.3,29.88H4a.53.53,0,0,1-.33-.09.54.54,0,0,1-.11-.28A49.21,49.21,0,0,1,3,23.59c0-1.61-.1-3.23-.16-4.84q-.13-4.26-.33-8.51a5.5,5.5,0,0,1,5-5.73A1389.07,1389.07,0,0,1,231,4.49a5.5,5.5,0,0,1,5,5.81q-.36,5.9-.65,11.79c-.08,1.72-.15,3.44-.23,5.16,0,1-.09,2.07-.13,3.12a6.48,6.48,0,0,1-.21,1.52c-.29.89-.22,1.87-.44,2.8a1.7,1.7,0,0,1-.39.81,1.83,1.83,0,0,1-.82.35l-.08,0a64.49,64.49,0,0,1-10.26,1.54c-.64.05-1.27.08-1.91.1l12,1.18a1.69,1.69,0,0,1,1,.35,1.61,1.61,0,0,1,.35.76,8.28,8.28,0,0,1,.16.84,18.36,18.36,0,0,1,.17,3,40.34,40.34,0,0,1-.68,5.57c-.18.88-.74.94-1.34.84-.39-.07-.8-.21-1.14-.26-.94-.12-1.89-.23-2.84-.3-1.91-.15-3.82-.19-5.73-.2-1.25,0-2.49,0-3.74,0l-15.52.21.2,0c5.81,1.26,11.88.58,17.79,1.35a38.45,38.45,0,0,0,7.16.71,8,8,0,0,1,2.68,0,3,3,0,0,1,1.68,1.43,5.41,5.41,0,0,1,.65,2.48c0,.5.05,1,.08,1.47a75.58,75.58,0,0,1-.22,8.38c0,.49-.07,1-.09,1.48a1.61,1.61,0,0,1-.3,1,1.44,1.44,0,0,1-.66.34h0a5.75,5.75,0,0,1-1.65.21,4.63,4.63,0,0,0-.51,0c-.65.06-1.32.28-2,.38a17.72,17.72,0,0,1-1.93.16l.77.18,5.34,1.25a1.45,1.45,0,0,1,.65.27c.7.65.54,2.87.61,3.71.13,1.62.19,3.25.21,4.87,0,.78,0,1.55,0,2.33,0,1.34,0,2.69,0,4l0,2.82c0,3.94-.08,7.86-.11,11.8,0,1.74,0,3.5,0,5.25s.24,5.09-.73,6.78a2.08,2.08,0,0,1-1.3.92,6.81,6.81,0,0,1-1.5.24q-12.14.8-24.25,1.62h.29c9.12.18,18.24.72,27.31,1.6.43,0,.56,1,.63,1.28a21.73,21.73,0,0,1,.39,2.9c0,.16,0,.34,0,.5.24,3.11.31,6.23.34,9.35v.15l0,.89c0,.35,0,.68,0,1a49,49,0,0,1-.06,5.56,7.1,7.1,0,0,1-.36,1.63,2.61,2.61,0,0,1-.32.75,3.41,3.41,0,0,1-1.67,1.06c-.22.08-.45.14-.67.2-1.5.4-3,.72-4.55,1l.45.09c1.61.29,3.23.6,4.85.92a3.9,3.9,0,0,1,1.67.65,2.23,2.23,0,0,1,.58.75,3.7,3.7,0,0,1,.36,1.11l.06.4c.15,1.31-.06,2.6.09,3.9.08.67.12,1.33.15,2,.07,1.29.12,2.59.19,3.88s.11,2.32.16,3.48A5.48,5.48,0,0,1,231,165.87Z" style="fill:url(#Áåçûìÿííûé_ãðàäèåíò_3-2)"/><path d="M235.14,27.25c0,1-.09,2.07-.13,3.12a6.48,6.48,0,0,1-.21,1.52c-.29.89-.22,1.87-.44,2.8a1.7,1.7,0,0,1-.39.81,1.83,1.83,0,0,1-.82.35l-.08,0a64.49,64.49,0,0,1-10.26,1.54c-.64.05-1.27.08-1.91.1l12,1.18a1.69,1.69,0,0,1,1,.35,1.61,1.61,0,0,1,.35.76,8.28,8.28,0,0,1,.16.84c-5.19-.34-10.41-.49-15.73-.53a952,952,0,0,0-113.86,6.14c-18.9,2.13-37.77,4.37-56.73,5.89C33.52,53.31,18.54,55,3.77,54.89a1.47,1.47,0,0,1,.06-.27,6.29,6.29,0,0,0,0-1.68L3.8,50.33C9.88,49.79,16,49.47,22.08,49q16.17-1.19,32.3-2.82c38.35-3.87,76.45-9.26,115-11.14,2.81-.13,5.62-.26,8.43-.37-7.19-.4-14.39-.78-21.58-1.08-9.64-.42-19.32-1-29-.87-10.06.09-20.09.82-30.14,1.09-20,.53-39.91,1.69-59.9,1.94-9.88.13-20.13.73-29.91-.93-1.17-.2-2.33-.41-3.48-.64a1.43,1.43,0,0,1,1.23-.91,16.16,16.16,0,0,0,2.59-.21q2.88-.28,5.76-.46c3.93-.26,7.88-.4,11.83-.46,1.92,0,3.85,0,5.77,0h.29c1.73,0,3.47-.06,5.2,0q-5.57-.29-11.12-.76c-1.92-.17-3.85-.35-5.78-.56-3.28-.34-6.68-.31-9.9-.62C7.9,30,6.1,29.91,4.3,29.88H4a.53.53,0,0,1-.33-.09.54.54,0,0,1-.11-.28A49.21,49.21,0,0,1,3,23.59c0-1.61-.1-3.23-.16-4.84,3.41-.44,6.84-.8,10.28-1,11.29-.54,22.62-.42,33.92-1,19.57-.94,39.41-2.41,59-1.23,19.44,1.17,38.8,3.56,58.19,5.37,20.23,1.89,40.47,3.61,60.71,5.38C228.34,26.63,231.74,26.94,235.14,27.25Zm-.83,90.69c-.07-.3-.2-1.24-.63-1.28-9.07-.88-18.19-1.42-27.31-1.6h-.29q12.13-.81,24.25-1.62a6.81,6.81,0,0,0,1.5-.24,2.08,2.08,0,0,0,1.3-.92c1-1.69.73-4.91.73-6.78s0-3.51,0-5.25c-37.25-1.14-74.49-2.79-111.66-5.4,1.58-.39,3.16-.76,4.75-1.13A241.14,241.14,0,0,1,169.8,88c21.42-1,42.95-.09,64.22-2.35,0-1.34,0-2.69,0-4-22,.69-44-.19-66,.49a256.57,256.57,0,0,0-41.18,4.58c-10.2,2-20.33,4.42-30.57,6.18q-19.5-1.62-39-3.66-14.73-1.55-29.45-3.43l-1.56-.17c5.63-1.44,11.37-2.52,17.06-3.4,15.57-2.42,31.4-3.5,47.09-4.88,33.66-3,67.37-5.32,101.09-7.4,14.17-.88,28.29-1.63,42.12-4.46a75.58,75.58,0,0,0,.22-8.38c0-.47,0-1-.08-1.47-12.17-1.59-24.48-1.44-36.84-.92-17.17.73-34.33,1.58-51.48,2.78C111.64,59.8,77.58,62,44,66.63,30.15,68.55,16.82,71.71,4.12,77.09c0,.88,0,1.77,0,2.66q0,5.73,0,11.46c0,1.58-.11,3.15,0,4.73.09,1.37.22,2.68.22,4.06a4.61,4.61,0,0,0,0,.52c3.14.79,6.39,1.32,9.48,2,8.8,1.84,17.65,3.11,26.56,4.32q27.19,3.67,54.5,6.36c35.83,3.49,71.88,5.23,107.85,6.61q16,.6,32,1.07A21.73,21.73,0,0,0,234.31,117.94Zm.75,27.39a2.23,2.23,0,0,0-.58-.75,3.9,3.9,0,0,0-1.67-.65c-1.62-.32-3.24-.63-4.85-.92l-.45-.09c1.53-.25,3.05-.57,4.55-1,.22-.06.45-.12.67-.2a3.41,3.41,0,0,0,1.67-1.06,2.61,2.61,0,0,0,.32-.75,7.1,7.1,0,0,0,.36-1.63,49,49,0,0,0,.06-5.56c0-.34,0-.67,0-1-29.68,1.09-59.31,1.7-89,.23-32.6-1.61-65.2-4.71-97.7-7.65-9.29-.84-18.55-1.8-27.85-2.46-5.38-.39-11.16-1-16.82-.94-.08,3.85-.25,7.7-.42,11.54,4,1.07,8.08,1.82,11.86,2.45,8.36,1.39,16.7,2.49,25.14,3.32,16.49,1.62,33,3,49.52,4.36q14.13,1.21,28.27,2.3c-6.86.58-13.72,1.12-20.6,1.51-17.72,1-35.41,2.59-53.14,3.44-13.7.66-27.36.34-41,0,0,.11,0,.23,0,.35-.12,1.29-.25,2.58-.37,3.87,0,.45-.07.91-.12,1.37,13.06,2.28,26.58,2.17,39.79,1.59,17.75-.78,35.33-2.6,52.91-5.13,18.52-2.68,37.51-3.63,56.2-4.76l1-.06c12.21.58,24.43.93,36.68.92,15.37,0,30.7-.38,46-1.53A3.7,3.7,0,0,0,235.06,145.33Z" style="fill:url(#Áåçûìÿííûé_ãðàäèåíò_3-3)"/><path d="M52.89,156.61a7.57,7.57,0,0,1-3.75.89,2.88,2.88,0,0,1,.88.92,2.33,2.33,0,0,1,0,2.39c-.93,1.5-2.9,1.4-4.42.94A4.1,4.1,0,0,1,42.93,158a2.12,2.12,0,0,1,2-2,16.62,16.62,0,0,1-2.68-2.15C40.1,151.7,38.57,148,39.59,145c.48-1.36,2.1-2.62,3.66-2a29.5,29.5,0,0,1,5.29,2.88c.47.29.92.58,1.41.84.23.12,1.14.49.47.22a7.42,7.42,0,0,1,4.17,3.36A4.6,4.6,0,0,1,52.89,156.61Zm-16.3-17.73a3.09,3.09,0,0,1-.24-.44,3.2,3.2,0,0,0-2.76-1.54,4.19,4.19,0,0,0-1.52.36,2.3,2.3,0,0,0-1.12.86,3.21,3.21,0,0,0-.45,2.73,3.12,3.12,0,0,0,1.15,1.62,3,3,0,0,0,1.94.67,7,7,0,0,0,1.29-.18A2.78,2.78,0,0,0,36.59,138.88Zm158.86-21.1a3.75,3.75,0,0,0-3.57-2.65c-.58,0-1.07-.17-1.7-.17a7.22,7.22,0,0,0-2.81.8,6.69,6.69,0,0,0-3.65,2.86,3.57,3.57,0,0,0,.69,4.34c-.19.19-.38.37-.6.56a1.45,1.45,0,0,0,1.05,2.45,11.17,11.17,0,0,1,1.29.08,5.09,5.09,0,0,0,1.74-.3c.46-.16,1-.29,1.39-.49a1.93,1.93,0,0,0,.8-.61c.07-.08.58-.84.26-.52a1,1,0,0,0,.29-.51,6.09,6.09,0,0,0,2.62-1.4l.5-.36A3.73,3.73,0,0,0,195.45,117.78Zm-4.75-7.16a3,3,0,0,0-1-.18,4.19,4.19,0,0,0-1.07.45.81.81,0,0,0-.35,1,.86.86,0,0,0,1,.47,3.47,3.47,0,0,0,1-.25,2.75,2.75,0,0,0,.65-.71A.48.48,0,0,0,190.7,110.62Zm7.86-9.73c-.09-.22-.18-.44-.28-.66-2.11-1.44-3.79-1.59-5.06-.45a3.71,3.71,0,0,0-.67.81,2.81,2.81,0,0,0,1,3.86,3.19,3.19,0,0,0,2.38.3,11.9,11.9,0,0,0,1.24-.5l.62-.46a2.37,2.37,0,0,0,.63-1A2.66,2.66,0,0,0,198.56,100.89ZM190.2,40.58a4.44,4.44,0,0,0-.73-1.77,6.32,6.32,0,0,0-1.75-1.31,5.32,5.32,0,0,0-3.56-1.07,2,2,0,0,0-2.1,1.52,13.63,13.63,0,0,0-6-2.69c-2.09-.44-7.3-.25-6.87,3,.34,2.57,2.27,4.12,4.44,5.44s4,2.26,6.15,2c1.8.21,4,.47,4.86-1.53a2.84,2.84,0,0,0,.22-1.57,4.29,4.29,0,0,0,1.43.8,5.71,5.71,0,0,0,2.29-.1A2.27,2.27,0,0,0,190.2,40.58Zm-25.07,1.7A10.82,10.82,0,0,0,163.7,41a4.65,4.65,0,0,0-2-.64,7,7,0,0,0-2-.24,3,3,0,0,0-1.56.89.86.86,0,0,0-.23.87,3,3,0,0,0,.69,1.42,5.92,5.92,0,0,0,2,.93,5.13,5.13,0,0,0,1.91.52,10.77,10.77,0,0,0,2.1-.38A1.25,1.25,0,0,0,165.13,42.28Zm23.72,15a2.83,2.83,0,0,0-1-1.65,5,5,0,0,0-2.37-1.06,1.9,1.9,0,0,0-1.94.64,1.8,1.8,0,0,0-.14,2l.37.73a3.29,3.29,0,0,0,1.15,1.28,3.2,3.2,0,0,0,1.65.61,2.34,2.34,0,0,0,1.86-.83A2.13,2.13,0,0,0,188.85,57.27Zm-45.72,57.58c-3-1.67-7.94-1.15-10.31,1.09a3.85,3.85,0,0,0,0,5.47c3.45,3.1,9.5,1.77,11.68-2.06l.13-.12C146.29,117.73,145.11,115.22,143.13,114.85Zm-16.3-2.45a3.42,3.42,0,0,0-2.51-.58,15.74,15.74,0,0,0-1.93.54,1.7,1.7,0,0,0-1.24,1.85,1.75,1.75,0,0,0,1.7,1.46,15.27,15.27,0,0,0,2,.13,3.49,3.49,0,0,0,2.25-1.15A1.42,1.42,0,0,0,126.83,112.4ZM35.26,28c-1.34-1.9-4.2-1.53-5.91-.38a14.39,14.39,0,0,0-2.1,1.63,3.47,3.47,0,0,0-.95,1.8l-.12.84c.07-.32.07-.29,0,.09a2.37,2.37,0,0,0,2.3,2.94h.22l.1,0a3.9,3.9,0,0,0,2.7-.35,18.85,18.85,0,0,0,1.68-1C35,32.49,36.72,30.08,35.26,28ZM24,29.23a3.61,3.61,0,0,0-2,1.09A11.9,11.9,0,0,0,20.88,32a2,2,0,0,0,.74,2.73,2.11,2.11,0,0,0,2.8-.72c.13-.19.26-.37.4-.55l0,0a3.58,3.58,0,0,0,.26-.29,3.16,3.16,0,0,0,.75-1.21c.07-.21.14-.43.22-.64C26.55,30.06,25.16,28.9,24,29.23Zm22.24-8.9a2.43,2.43,0,0,0-1.68.14,4.5,4.5,0,0,0-.86.83,1.29,1.29,0,0,0-.2,1.57,1.41,1.41,0,0,0,1.5.6,3.32,3.32,0,0,0,1.17-.31,2.55,2.55,0,0,0,1-1.32A1.22,1.22,0,0,0,46.26,20.33Zm54.85,44.91a1.82,1.82,0,0,0,.16-.31,2.75,2.75,0,0,0-1-3.73,4.66,4.66,0,0,0-.6-.28,6.67,6.67,0,0,0-5-1.35,16.64,16.64,0,0,0-5.28,1.82c-2.37,1-3.06,4.26-2.15,6.38a5.11,5.11,0,0,0,1.18,1.66,24.4,24.4,0,0,0-3.88,2.12,5,5,0,0,0-1.32,1.3c-1.27,1.09-1.78,2.56-.57,4.54,2.3,3.75,8.93,2.75,12.38,1.47,2.09-.78,4.48-1.88,5.57-3.9a4.63,4.63,0,0,0-1.87-6.23A5.55,5.55,0,0,0,101.11,65.24ZM77.84,74c-.58-.13-.91.14-1.39.37l-.11,0-.15,0a4.84,4.84,0,0,1-.51.14,1.24,1.24,0,0,0-.83,1.68,1.31,1.31,0,0,0,1.82.6,6.31,6.31,0,0,0,1.09-.7c.39-.32.85-.71.8-1.27A1,1,0,0,0,77.84,74ZM70.4,69.57l-.32-.13c-1.61-1.22-4-.52-5.42.74a6.24,6.24,0,0,0-2.12,3.49A2.75,2.75,0,0,0,66,77c2.17-.73,5.12-2.21,5.4-4.61l.09-.27A2.23,2.23,0,0,0,70.4,69.57Zm151.15,86.69a3.34,3.34,0,0,0-1.6-2,3.64,3.64,0,0,0-4.22.53L214,156.33a3.07,3.07,0,0,0-.25,4.11,3.28,3.28,0,0,0,4.15.81c.69-.39,1.38-.78,2.08-1.16A3.45,3.45,0,0,0,221.55,156.26Z" style="fill:#eb924d"/><path d="M53.6,155.14a7.57,7.57,0,0,1-3.75.89,2.88,2.88,0,0,1,.88.92,2.33,2.33,0,0,1,0,2.39c-.93,1.5-2.91,1.4-4.42.95a4.11,4.11,0,0,1-2.67-3.73,2.12,2.12,0,0,1,2-2.05A16.56,16.56,0,0,1,43,152.37c-2.16-2.14-3.7-5.87-2.67-8.8.48-1.36,2.1-2.61,3.65-2a29.24,29.24,0,0,1,5.3,2.88c.46.29.91.59,1.4.84.24.12,1.15.49.47.22a7.38,7.38,0,0,1,4.17,3.36A4.59,4.59,0,0,1,53.6,155.14ZM37.3,137.41a2.61,2.61,0,0,1-.24-.43,3.09,3.09,0,0,0-1.15-1.12,3.17,3.17,0,0,0-1.62-.43,4.19,4.19,0,0,0-1.51.36,2.33,2.33,0,0,0-1.13.86,3.24,3.24,0,0,0-.44,2.73A3.07,3.07,0,0,0,32.35,141a3,3,0,0,0,1.94.67,7,7,0,0,0,1.3-.18A2.78,2.78,0,0,0,37.3,137.41ZM195.83,117a3.75,3.75,0,0,0-3.57-2.65c-.58,0-1.07-.16-1.7-.16a7.21,7.21,0,0,0-2.81.79,6.69,6.69,0,0,0-3.65,2.86,3.57,3.57,0,0,0,.69,4.34,8.09,8.09,0,0,1-.6.56,1.45,1.45,0,0,0,1.05,2.46,11.15,11.15,0,0,1,1.29.07,4.86,4.86,0,0,0,1.74-.3c.46-.16.95-.29,1.39-.49a2,2,0,0,0,.8-.6c.07-.09.58-.85.26-.53a1,1,0,0,0,.29-.51,6.09,6.09,0,0,0,2.62-1.4l.5-.36A3.71,3.71,0,0,0,195.83,117Zm-4.75-7.16a2.77,2.77,0,0,0-1-.17,3.84,3.84,0,0,0-1.07.44.81.81,0,0,0-.35,1,.85.85,0,0,0,1,.47,3.47,3.47,0,0,0,1-.25,2.6,2.6,0,0,0,.65-.71A.48.48,0,0,0,191.08,109.83Zm7.86-9.72c-.09-.23-.19-.45-.28-.67-2.11-1.44-3.79-1.59-5.06-.44a3.21,3.21,0,0,0-.67.8,2.81,2.81,0,0,0,1,3.86,3.19,3.19,0,0,0,2.38.3,11.9,11.9,0,0,0,1.24-.5l.62-.46a2.37,2.37,0,0,0,.63-1A2.69,2.69,0,0,0,198.94,100.11Zm-8-61a4.27,4.27,0,0,0-.72-1.78A6.32,6.32,0,0,0,188.43,36,5.37,5.37,0,0,0,184.86,35a2,2,0,0,0-2.09,1.52,13.55,13.55,0,0,0-6-2.68c-2.09-.45-7.3-.26-6.87,3,.34,2.57,2.26,4.12,4.44,5.44s4,2.26,6.15,2c1.79.21,4,.47,4.86-1.53a2.83,2.83,0,0,0,.21-1.57A4.49,4.49,0,0,0,187,42a5.76,5.76,0,0,0,2.3-.1A2.25,2.25,0,0,0,190.9,39.12Zm-25.07,1.69a11.57,11.57,0,0,0-1.43-1.28,4.57,4.57,0,0,0-2-.64,7.45,7.45,0,0,0-2-.24,3,3,0,0,0-1.56.89.89.89,0,0,0-.24.87,3.15,3.15,0,0,0,.69,1.42,6.06,6.06,0,0,0,2,.93,4.9,4.9,0,0,0,1.91.52,10.91,10.91,0,0,0,2.1-.38A1.25,1.25,0,0,0,165.83,40.81Zm23.73,15a2.86,2.86,0,0,0-1-1.65,5.09,5.09,0,0,0-2.38-1.06,1.89,1.89,0,0,0-1.93.64,1.79,1.79,0,0,0-.14,2l.37.73a3.29,3.29,0,0,0,1.15,1.28,3.17,3.17,0,0,0,1.65.61,2.32,2.32,0,0,0,1.85-.83A2.1,2.1,0,0,0,189.56,55.8Zm-45.72,57.58c-3-1.67-8-1.15-10.31,1.09a3.84,3.84,0,0,0,0,5.47c3.45,3.1,9.49,1.78,11.68-2.06l.12-.11C147,116.26,145.81,113.76,143.84,113.38Zm-16.3-2.45a3.47,3.47,0,0,0-2.51-.58,14.18,14.18,0,0,0-1.93.55,1.69,1.69,0,0,0-1.24,1.84,1.75,1.75,0,0,0,1.7,1.46,13.7,13.7,0,0,0,2,.13,3.49,3.49,0,0,0,2.26-1.15A1.42,1.42,0,0,0,127.54,110.93ZM35.68,27.13c-1.33-1.89-4.19-1.53-5.91-.38a16.4,16.4,0,0,0-2.1,1.63,3.41,3.41,0,0,0-.94,1.81l-.12.83c.07-.32.07-.29,0,.09a2.37,2.37,0,0,0,2.3,2.94h.21l.11,0a3.8,3.8,0,0,0,2.69-.34c.57-.29,1.15-.64,1.69-1C35.45,31.6,37.15,29.2,35.68,27.13ZM24.44,28.34a3.68,3.68,0,0,0-2,1.09,14.3,14.3,0,0,0-1.16,1.64A2,2,0,0,0,22,33.8a2.13,2.13,0,0,0,2.81-.71l.39-.56,0,0c.09-.09.17-.19.26-.29A3.14,3.14,0,0,0,26.28,31c.07-.21.15-.42.23-.63C27,29.17,25.59,28,24.44,28.34Zm22.25-8.9a2.43,2.43,0,0,0-1.68.14,4.83,4.83,0,0,0-.86.83A1.3,1.3,0,0,0,43.94,22a1.4,1.4,0,0,0,1.5.6,3.38,3.38,0,0,0,1.18-.31,2.45,2.45,0,0,0,1-1.31A1.23,1.23,0,0,0,46.69,19.44Zm55.13,44.33a3,3,0,0,0,.16-.31,2.75,2.75,0,0,0-1-3.72,4.12,4.12,0,0,0-.6-.29,6.71,6.71,0,0,0-5-1.35,16.47,16.47,0,0,0-5.29,1.83c-2.37,1-3,4.25-2.14,6.37A5.09,5.09,0,0,0,89.09,68a24.27,24.27,0,0,0-3.87,2.12,5,5,0,0,0-1.33,1.3c-1.26,1.09-1.77,2.56-.56,4.54,2.3,3.75,8.92,2.76,12.38,1.47,2.09-.78,4.48-1.88,5.57-3.9a4.63,4.63,0,0,0-1.87-6.23A5.58,5.58,0,0,0,101.82,63.77ZM78.25,73.14c-.58-.14-.91.14-1.39.37l-.1,0-.16.06-.51.13a1.25,1.25,0,0,0-.83,1.69,1.3,1.3,0,0,0,1.82.59,6,6,0,0,0,1.09-.7c.4-.31.86-.71.8-1.26A1,1,0,0,0,78.25,73.14Zm-7.44-4.42-.32-.13c-1.61-1.22-4-.52-5.42.74A6.18,6.18,0,0,0,63,72.81a2.76,2.76,0,0,0,3.43,3.34c2.17-.73,5.12-2.22,5.4-4.62,0-.08.06-.17.1-.26A2.25,2.25,0,0,0,70.81,68.72Zm151.44,86.07a3.36,3.36,0,0,0-1.59-2,3.64,3.64,0,0,0-4.22.53l-1.76,1.57a3.06,3.06,0,0,0-.25,4.11,3.27,3.27,0,0,0,4.14.81l2.09-1.16A3.43,3.43,0,0,0,222.25,154.79Z" style="fill:url(#Áåçûìÿííûé_ãðàäèåíò_3-4)"/><path d="M52.89,156.09a7.57,7.57,0,0,1-3.75.89,2.78,2.78,0,0,1,.88.92,2.31,2.31,0,0,1,0,2.38c-.93,1.51-2.9,1.41-4.42.95a4.1,4.1,0,0,1-2.67-3.73,2.11,2.11,0,0,1,2-2,16.62,16.62,0,0,1-2.68-2.15c-2.16-2.13-3.69-5.86-2.67-8.79.48-1.36,2.1-2.62,3.66-2a30.81,30.81,0,0,1,5.29,2.88c.47.3.92.59,1.41.84.23.13,1.14.5.47.22a7.47,7.47,0,0,1,4.17,3.37A4.6,4.6,0,0,1,52.89,156.09Zm-16.3-17.74a3,3,0,0,1-.24-.43,3.17,3.17,0,0,0-1.15-1.12,3.22,3.22,0,0,0-1.61-.42,4.19,4.19,0,0,0-1.52.36,2.3,2.3,0,0,0-1.12.86,3.21,3.21,0,0,0-.45,2.73A3.12,3.12,0,0,0,31.65,142a3,3,0,0,0,1.94.67,7,7,0,0,0,1.29-.18A2.79,2.79,0,0,0,36.59,138.35ZM195.45,117.5a3.75,3.75,0,0,0-3.57-2.65c-.58,0-1.07-.16-1.7-.16a7.21,7.21,0,0,0-2.81.79,6.69,6.69,0,0,0-3.65,2.86,3.57,3.57,0,0,0,.69,4.34c-.19.19-.38.37-.6.56a1.45,1.45,0,0,0,1.05,2.45,11.17,11.17,0,0,1,1.29.08,5.09,5.09,0,0,0,1.74-.3c.46-.16,1-.29,1.39-.49a2,2,0,0,0,.8-.6c.07-.09.58-.85.26-.53a1,1,0,0,0,.29-.51,6.09,6.09,0,0,0,2.62-1.4l.5-.36A3.73,3.73,0,0,0,195.45,117.5Zm-4.75-7.16a3,3,0,0,0-1-.18,4.19,4.19,0,0,0-1.07.45.81.81,0,0,0-.35,1,.86.86,0,0,0,1,.47,3.47,3.47,0,0,0,1-.25,2.75,2.75,0,0,0,.65-.71A.48.48,0,0,0,190.7,110.34Zm7.86-9.73c-.09-.22-.18-.44-.28-.66-2.11-1.44-3.79-1.59-5.06-.45a3.71,3.71,0,0,0-.67.81,2.81,2.81,0,0,0,1,3.86,3.19,3.19,0,0,0,2.38.3,11.9,11.9,0,0,0,1.24-.5l.62-.46a2.37,2.37,0,0,0,.63-1A2.66,2.66,0,0,0,198.56,100.61ZM190.2,40.06a4.38,4.38,0,0,0-.73-1.77A6.13,6.13,0,0,0,187.72,37a8.14,8.14,0,0,0-1.6-.84,8.54,8.54,0,0,0-2-.23,2,2,0,0,0-2.1,1.52,13.52,13.52,0,0,0-6-2.69c-2.09-.45-7.3-.25-6.87,3,.34,2.57,2.27,4.12,4.44,5.43s4,2.27,6.15,2c1.8.21,4,.47,4.86-1.53a2.84,2.84,0,0,0,.22-1.57,4.26,4.26,0,0,0,1.43.79,5.71,5.71,0,0,0,2.29-.09A2.28,2.28,0,0,0,190.2,40.06Zm-25.07,1.69a12.44,12.44,0,0,0-1.43-1.28,4.92,4.92,0,0,0-2-.64,7.39,7.39,0,0,0-2-.23,2.9,2.9,0,0,0-1.56.89.86.86,0,0,0-.23.87,3,3,0,0,0,.69,1.42,5.92,5.92,0,0,0,2,.93,4.93,4.93,0,0,0,1.91.51,10.75,10.75,0,0,0,2.1-.37A1.26,1.26,0,0,0,165.13,41.75Zm23.72,15a2.8,2.8,0,0,0-1-1.65A4.83,4.83,0,0,0,185.5,54a1.88,1.88,0,0,0-1.94.64,1.8,1.8,0,0,0-.14,2l.37.72a3.25,3.25,0,0,0,1.15,1.29,3.2,3.2,0,0,0,1.65.61,2.34,2.34,0,0,0,1.86-.83A2.14,2.14,0,0,0,188.85,56.75Zm-45.72,57.58c-3-1.67-7.94-1.16-10.31,1.09a3.85,3.85,0,0,0,0,5.47c3.45,3.1,9.5,1.77,11.68-2.06l.13-.12C146.29,117.21,145.11,114.7,143.13,114.33Zm-16.3-2.45a3.47,3.47,0,0,0-2.51-.59,17.79,17.79,0,0,0-1.93.55,1.7,1.7,0,0,0-1.24,1.85,1.76,1.76,0,0,0,1.7,1.46,15.27,15.27,0,0,0,2,.13,3.54,3.54,0,0,0,2.25-1.15A1.42,1.42,0,0,0,126.83,111.88ZM35.26,27.7c-1.34-1.89-4.2-1.52-5.91-.38A15.92,15.92,0,0,0,27.25,29a3.5,3.5,0,0,0-.95,1.81l-.12.83c.07-.31.07-.28,0,.09a2.37,2.37,0,0,0,2.3,2.94h.22l.1,0a3.84,3.84,0,0,0,2.7-.34c.56-.29,1.15-.64,1.68-1C35,32.17,36.72,29.77,35.26,27.7ZM24,28.91a3.74,3.74,0,0,0-2,1.09,13.24,13.24,0,0,0-1.17,1.64,2,2,0,0,0,.74,2.74,2.12,2.12,0,0,0,2.8-.72l.4-.56,0,0,.26-.3a3.16,3.16,0,0,0,.75-1.21c.07-.21.14-.42.22-.63C26.55,29.74,25.16,28.58,24,28.91ZM46.26,20a2.43,2.43,0,0,0-1.68.15,4.45,4.45,0,0,0-.86.82,1.3,1.3,0,0,0-.2,1.58,1.4,1.4,0,0,0,1.5.59,3.54,3.54,0,0,0,1.17-.3,2.59,2.59,0,0,0,1-1.32A1.24,1.24,0,0,0,46.26,20Zm54.85,44.71a1.82,1.82,0,0,0,.16-.31,2.75,2.75,0,0,0-1-3.73,6.63,6.63,0,0,0-.6-.29,6.7,6.7,0,0,0-5-1.34,16.64,16.64,0,0,0-5.28,1.82c-2.37,1-3.06,4.26-2.15,6.37a5.05,5.05,0,0,0,1.18,1.67A23.63,23.63,0,0,0,84.51,71a5,5,0,0,0-1.32,1.3c-1.27,1.09-1.78,2.56-.57,4.54,2.3,3.74,8.93,2.75,12.38,1.47,2.09-.78,4.48-1.88,5.57-3.9a4.62,4.62,0,0,0-1.87-6.23A5.55,5.55,0,0,0,101.11,64.72Zm-23.27,9c-.58-.14-.91.14-1.39.37l-.11,0-.15.06a4.77,4.77,0,0,1-.51.13A1.25,1.25,0,0,0,74.85,76a1.3,1.3,0,0,0,1.82.59,6.31,6.31,0,0,0,1.09-.7c.39-.31.85-.71.8-1.26A1,1,0,0,0,77.84,73.69ZM70.4,69.27l-.32-.13c-1.61-1.22-4-.52-5.42.74a6.18,6.18,0,0,0-2.12,3.48A2.76,2.76,0,0,0,66,76.7c2.17-.73,5.12-2.22,5.4-4.62l.09-.26A2.23,2.23,0,0,0,70.4,69.27Zm151.15,86.46a3.35,3.35,0,0,0-1.6-2,3.64,3.64,0,0,0-4.22.53L214,155.8a3.08,3.08,0,0,0-.25,4.12,3.27,3.27,0,0,0,4.15.8l2.08-1.16A3.44,3.44,0,0,0,221.55,155.73Z" style="fill:url(#Áåçûìÿííûé_ãðàäèåíò_3-5)"/><path d="M4.18,141.29A8.25,8.25,0,0,0,4,142.77a6.06,6.06,0,0,0,0,.74c0,.09,0,.17,0,.26a3.61,3.61,0,0,1,0,.8c0,.22,0,.43.06.65-.48-.18-.8-.39-.81-.66,0-1,0-2,0-3.07a4.86,4.86,0,0,1,.1-1.53c.25-.44.12-.21.61-.41A7.71,7.71,0,0,1,5.57,139c.56-.11,1.13-.16,1.71-.22l6.13-.61-1.57-.1,1.31,0,1.26-.06a7.6,7.6,0,0,0,1.06,0c-2.84.48-5.69.95-8.46,1.7a10.32,10.32,0,0,0-2.16.78,1.37,1.37,0,0,0-.48.38A1.25,1.25,0,0,0,4.18,141.29Z" style="fill:#eb924d"/><path d="M4.43,65.59v.06c0,.25.11.47.14.71.08.7-.06,1.45,0,2.16a5.8,5.8,0,0,0,1.33,3.84c1.16,1.25,3,1.61,4.65,1.91l-3.95.06a1.64,1.64,0,0,0-.79.14,1.67,1.67,0,0,0-.65,1.17,30,30,0,0,0-.69,8.24,6,6,0,0,0,2,.73,1.67,1.67,0,0,0-1.3,2.1,4.14,4.14,0,0,0,1.71,2.17c-1.14,0-1.89,1.25-2.08,2.37-.16.9-.11,1.82-.27,2.73a2.89,2.89,0,0,0,0,.88c0,.4,0,.8,0,1.2a17,17,0,0,0,.28,3.26c.11.59.26,1.19.43,1.77.09.29.19.57.3.86l.06.19a1.92,1.92,0,0,1-.62-.27A2.27,2.27,0,0,1,4.32,100c0-1.38-.13-2.69-.22-4.06-.09-1.58,0-3.15,0-4.73q0-5.73,0-11.46c0-3.82,0-7.62-.06-11.43a10.81,10.81,0,0,0-.2-3,8.32,8.32,0,0,1,0-3.26,1.38,1.38,0,0,1,.23-.69A1.19,1.19,0,0,1,4.7,61a18.84,18.84,0,0,1,5.15-.55,31.94,31.94,0,0,0,5.05-.61,10.87,10.87,0,0,0,1.28-.12c-2.76.58-5.54,1.09-8.34,1.56a7.62,7.62,0,0,0-1.71.41,2.55,2.55,0,0,0-1.32,1.1,3.61,3.61,0,0,0-.33,1.56A9.71,9.71,0,0,0,4.43,65.59Z" style="fill:#eb924d"/><path d="M26.61,105.11c-5.5.29-11,1.21-16.47,1.41a12.79,12.79,0,0,0-4.05.55c-.89.34-1.79,2.15-.73,2.8a1.7,1.7,0,0,0,.51.17,15.43,15.43,0,0,0,3,.25,11.52,11.52,0,0,0-3.65,1.47,1.62,1.62,0,0,0-.55.42,1.56,1.56,0,0,0-.24.63,5.24,5.24,0,0,0-.27,1.75,6.12,6.12,0,0,1,0,1.21,44.65,44.65,0,0,0,0,4.77,1.47,1.47,0,0,0,.1.54,1.61,1.61,0,0,0,.52.52l1.35,1a.18.18,0,0,1,.09.08.21.21,0,0,1-.09.22A7.63,7.63,0,0,0,4.3,125.3a4.65,4.65,0,0,0-.49,1.35,11.08,11.08,0,0,0,.3,3.54,2.39,2.39,0,0,0,.61,1.23,2.65,2.65,0,0,0,1,.5,39.9,39.9,0,0,0,4.74,1.14l-6.24.2s-.2,2.38-.25,2.6a1.21,1.21,0,0,0,0,.84,2.51,2.51,0,0,0,.66.91l-1.14-.07a.49.49,0,0,1-.42-.18.71.71,0,0,1,0-.21c.27-5.92.56-11.88.68-17.81A95.25,95.25,0,0,1,4,109.48c0-.31.27-3.57.26-3.57C11.72,105.37,19.16,105.09,26.61,105.11Z" style="fill:#eb924d"/><path d="M27.81,105.07h0Z" style="fill:#eb924d"/><path d="M31.29,32.11c-3.31.42-6.71,0-10,.52-1.09.18-2.16.47-3.26.58s-2,0-3,.07a26.25,26.25,0,0,0-7.48,1.41,5,5,0,0,0-2.27,1.18,3.11,3.11,0,0,0-.55.79,3.88,3.88,0,0,0-.47,1.82,2.9,2.9,0,0,1,0,.51c0,.52-.11,1-.12,1.55a12.36,12.36,0,0,0,.34,3.09,1.5,1.5,0,0,0,.38.79,1.61,1.61,0,0,0,.83.3l3.71.57-5.11.38c.11,0,.07,4.09.1,4.46.08,1.38.12,2.79.23,4.18A11.52,11.52,0,0,0,5,57c.06.2.14.41.22.61a4,4,0,0,1-.39-.29,3,3,0,0,1-1.1-2.14,1.7,1.7,0,0,1,.08-.55,6.29,6.29,0,0,0,0-1.68l-.15-7.38a37.82,37.82,0,0,0-.28-4.65c-.11-.77-.06-1.56-.1-2.34a17,17,0,0,1,.1-2.85,4.2,4.2,0,0,1,.38-1.51,1.45,1.45,0,0,1,1.24-.92,16.16,16.16,0,0,0,2.59-.21q2.88-.28,5.76-.46c3.93-.26,7.88-.4,11.83-.46,1.92,0,3.85,0,5.77,0Z" style="fill:#eb924d"/><path d="M203.8,49.56c5.81,1.26,11.88.58,17.79,1.35a38.45,38.45,0,0,0,7.16.71,8,8,0,0,1,2.68,0,3,3,0,0,1,1.68,1.43c.7,1.11.65,2.69.73,3.95a92.71,92.71,0,0,1-.31,9.86,1.61,1.61,0,0,1-.3,1,1.44,1.44,0,0,1-.66.34c0-.08,0-.13,0-.2a8.64,8.64,0,0,1,.06-1.61,16.08,16.08,0,0,0,.27-2.17c0-.28,0-.52,0-.79a1,1,0,0,0,0-.24,6.19,6.19,0,0,0-.15-1,7.21,7.21,0,0,1-.07-1.32c0-.93-.12-1.87-.24-2.8a.6.6,0,0,0-.19-.44.63.63,0,0,0-.36-.07,88.81,88.81,0,0,0-9.65.62A40.35,40.35,0,0,0,230.43,57a1.48,1.48,0,0,0,1.36-2.09,2.14,2.14,0,0,0-.65-1.39,2.34,2.34,0,0,0-.89-.33l-.56-.1q-2.81-.54-5.66-.83c-.94-.1-1.9-.17-2.85-.23s-1.84-.26-2.8-.32l-1.71-.11-5.83-.35c-1-.06-1.94-.07-2.89-.18a2.73,2.73,0,0,1-.78-.25,2.54,2.54,0,0,0-.44-.15c-.85-.18-1.73-.28-2.59-.44l-1.83-.34-.85-.16a3.91,3.91,0,0,0-.68-.14C201.79,49.58,202.79,49.56,203.8,49.56Z" style="fill:#eb924d"/><path d="M234,88.42c0,5.68-.13,11.37-.13,17,0,1.87.24,5.09-.73,6.78a2.08,2.08,0,0,1-1.3.92,4.28,4.28,0,0,0,.17-.43,13.19,13.19,0,0,0,.64-2.49,6.4,6.4,0,0,1,.18-1.15,4.35,4.35,0,0,0,.17-1.2l.3-3.61c.08-1,.16-1.94.25-2.91l.12-1.46a2.3,2.3,0,0,0,0-.64.59.59,0,0,1,0-.19c-.06-.24,0-.51-.2-.7a.75.75,0,0,0-.43-.2,18.89,18.89,0,0,0-4.54-.57,5.66,5.66,0,0,1,2-.1,4.84,4.84,0,0,0,2-.19,1.9,1.9,0,0,0,1-.86,2.59,2.59,0,0,0,.21-.61,5.52,5.52,0,0,0,0-1.15c0-.71,0-1.41,0-2.12,0-2,0-3.92-.19-5.88-.1-1.49-.24-3-.33-4.46,0-.49-.32-.74-.43-1.18s.15-1.15-.18-1.64a1.53,1.53,0,0,0-1.29-.43l-9.2-.12a31.66,31.66,0,0,0,8.54-.9,3.65,3.65,0,0,0,1-.31,2.65,2.65,0,0,0,1.1-1.34c.12-.27.2-.56.31-.84a1.42,1.42,0,0,0,.1-.29,5.85,5.85,0,0,0-.06-1.1c0-.43-.05-.86-.08-1.3a2.61,2.61,0,0,0-.33-1.4,2.74,2.74,0,0,0-1.74-.91l-4.94-1.21a10.78,10.78,0,0,1,1.3-.14l5.34,1.25a1.45,1.45,0,0,1,.65.27c.7.65.54,2.87.61,3.71.13,1.62.19,3.25.21,4.87C234.09,82.3,234,85.37,234,88.42Z" style="fill:#eb924d"/><path d="M222.81,37.41c-.64.05-1.27.08-1.91.1l12,1.18a1.69,1.69,0,0,1,1,.35,1.61,1.61,0,0,1,.35.76,15.79,15.79,0,0,1,.33,3.82,40.34,40.34,0,0,1-.68,5.57c-.18.88-.74.94-1.34.84a1.42,1.42,0,0,0,.61-1,62.69,62.69,0,0,0,0-7,4.47,4.47,0,0,0-.25-1.3,1.65,1.65,0,0,0-.53-.69,1.88,1.88,0,0,0-.36-.21.37.37,0,0,0-.14-.07c-.09,0-.15-.08-.23-.11a1.6,1.6,0,0,0-.42-.1c-.6-.1-1.18-.21-1.78-.3-2.34-.39-4.7-.69-7.06-.91a29.18,29.18,0,0,1-4.58-.63c1.13-.06,2.11-.18,3.23-.22Z" style="fill:#eb924d"/><path d="M233.69,139.7a11.4,11.4,0,0,0,.25-1.64c.08-.92.07-1.84.07-2.76a8.3,8.3,0,0,0-.14-2.39,4.6,4.6,0,0,1-.29-1.73,2.9,2.9,0,0,0-.48-2.15,3.22,3.22,0,0,0-2.42-.7l-4.47-.05c2-.24,3.94-.56,5.88-1a.95.95,0,0,0,.94-1.21c-.08-2-.13-3.93-.24-5.9-.06-1.09-.26-2-1.4-2.4a24.92,24.92,0,0,0-3.92-.68c-2.34-.35-4.67-.66-7-.94-4.67-.55-9.37-.94-14.08-1.13,9.12.18,18.24.72,27.31,1.6.43,0,.56,1,.63,1.28a24.5,24.5,0,0,1,.43,3.4c.24,3.11.31,6.23.34,9.35v.15c0,.64,0,1.27.06,1.91a49,49,0,0,1-.06,5.56,7.1,7.1,0,0,1-.36,1.63,2.61,2.61,0,0,1-.32.75,3.41,3.41,0,0,1-1.67,1.06,4.15,4.15,0,0,0,.7-1.2A6.4,6.4,0,0,0,233.69,139.7Z" style="fill:#eb924d"/><path d="M3,23.59q-.18-6.69-.49-13.35a5.5,5.5,0,0,1,5-5.73A1389.07,1389.07,0,0,1,231,4.49a5.5,5.5,0,0,1,5,5.81q-.36,5.9-.65,11.79c-.12,2.76-.25,5.51-.36,8.28a6.48,6.48,0,0,1-.21,1.52c-.29.89-.22,1.87-.44,2.8a1.7,1.7,0,0,1-.39.81,1.83,1.83,0,0,1-.82.35l-.08,0a.36.36,0,0,0,0-.1c.08-1.21.29-2.47.25-3.69a8,8,0,0,1-.07-1.2,4.53,4.53,0,0,0-.08-1.76A3.1,3.1,0,0,0,229.63,27c1.09-1,3.13-.47,3.91-1.7a3,3,0,0,0,.07-2.28,108.52,108.52,0,0,0-13.84-.56,36.24,36.24,0,0,0,11.81-1.31,3.16,3.16,0,0,0,1.67-.88,3.36,3.36,0,0,0,.56-1.68c.13-1,.22-2,.41-3,.06-.29.21-.54.27-.83a6.73,6.73,0,0,0,0-1.42,14.55,14.55,0,0,0-.36-3.29,7.46,7.46,0,0,0-.75-1.88,2.93,2.93,0,0,0-1.69-1.67,6.65,6.65,0,0,0-1.84-.34c-2.06-.18-3.46-.21-5.51-.45-2.85-.33-5.7-.62-8.54-.89q-5.78-.54-11.57-.95c-1.93-.14-3.86-.26-5.79-.38a5.81,5.81,0,0,0-1.25,0,2.37,2.37,0,0,1-.92,0,13.74,13.74,0,0,0-2.78-.35,2.79,2.79,0,0,0-2.72,1.9,2.43,2.43,0,0,1-.41-1.57,6.21,6.21,0,0,0-1.29,1.72,4.87,4.87,0,0,1-1.26-2.53,28.51,28.51,0,0,1-7-.05c-.32.85-.65,1.69-1,2.54a7.64,7.64,0,0,0-5.68-3.16,33.52,33.52,0,0,0-6.71.28,47.25,47.25,0,0,1-8.74-.06,1.46,1.46,0,0,0-1,.14,1.37,1.37,0,0,0-.38.59,11.74,11.74,0,0,0-.63,2.15,4.18,4.18,0,0,0-2.38-2.67,8.38,8.38,0,0,0-3.61-.64c-2.27,0-4.52.47-6.79.48a29.23,29.23,0,0,1-3.74-.24,36.92,36.92,0,0,0-5.46-.37c-.45,0-.89.06-1.34.12a8.28,8.28,0,0,1-1.2.18,6.35,6.35,0,0,1-.76-.13c-.52-.06-1,0-1.56,0l-3.41,0-11.68-.14-11.68-.13-5.84-.07c-.44,0-.85-.1-1.29-.08l-7.28.33-6,.26a14.9,14.9,0,0,1-2.38-.3,6,6,0,0,0-2.75.2A2.72,2.72,0,0,0,75.63,5a3.2,3.2,0,0,0-2.58-3,10.46,10.46,0,0,0-4.27.17,54.42,54.42,0,0,1-10.89.68c-.12,1-.23,2-.35,3.06a11,11,0,0,0-1.29-3.11,6.77,6.77,0,0,0-.41,4.52c-1-1.39-.81-3.61-2.3-4.42s-3.35.59-5.07.41c.06,1,.13,2,.19,2.93A3.4,3.4,0,0,0,47.1,3.72c-1.2-.81-2.29-.52-3.63-.42l-4.33.34-7.75.59a8.27,8.27,0,0,1-1.72.08,5.61,5.61,0,0,0-1.16-.18A137.36,137.36,0,0,0,9.61,5.67a10.59,10.59,0,0,0-3.32,1A4.58,4.58,0,0,0,4.65,8.12a4.49,4.49,0,0,0-.52,1.49,6.33,6.33,0,0,1-.42,1,7.08,7.08,0,0,0-.6,2.25,3.21,3.21,0,0,0,1.43,3.05c1.23.68,2.85.17,4.09.81a10.33,10.33,0,0,0-4.35.37,1.2,1.2,0,0,0-.57.32,1.17,1.17,0,0,0-.16.55,11.44,11.44,0,0,0,0,2.68c.05.43.17.86.21,1.29s.05,1,.08,1.45c.1,1.91.24,3.83.34,5.74,0,.32.09.51.08.75H4a.53.53,0,0,1-.33-.09.54.54,0,0,1-.11-.28A49.21,49.21,0,0,1,3,23.59Z" style="fill:#eb924d"/><path d="M231,165.87a1486.73,1486.73,0,0,1-223.45,0,5.52,5.52,0,0,1-5.08-5.72c0-.66,0-1.32,0-2a11.28,11.28,0,0,1,.06-1.65c0-.2.13-.35.16-.54.09-.64.13-1.29.18-1.93.12-1.29.25-2.58.37-3.87,0-.12,0-.24,0-.35a1.07,1.07,0,0,1,.18-.58A.87.87,0,0,1,4,149a18.05,18.05,0,0,1,6.69-1.33,49.08,49.08,0,0,0,7.27-.62l3-.41h.84a3.69,3.69,0,0,0,.47,0c-4.95,1.07-10,1.72-15,2.5a5.94,5.94,0,0,0-1.91.51l-.14.09a2.32,2.32,0,0,0-1.26,1.88c0,.37-.08.74-.1,1.11a2.44,2.44,0,0,0,.62,2,3.29,3.29,0,0,0,1.17.58A29.91,29.91,0,0,0,14,156.69l-6.93-.05c-.7,0-1.42,0-2.12,0-.47,0-1.32,0-1.66.38a.94.94,0,0,0-.23.54,24.19,24.19,0,0,0,.16,3.18,5.3,5.3,0,0,0,.17,1.9,3.93,3.93,0,0,0,2.77,2.3,12.16,12.16,0,0,0,1.8.34l.92.1.46.07c.14,0,.3.05.43.05a1.85,1.85,0,0,1,.23,0h1.73c1.24,0,2.49,0,3.74,0,.62,0,1.24.09,1.86.17a1.9,1.9,0,0,0,.41,0l.25,0a.67.67,0,0,1,.2,0,13.11,13.11,0,0,1,1.7.28,1.85,1.85,0,0,0,1.07,0,2,2,0,0,0,1-1.42,10,10,0,0,1,.48-1.75,13.7,13.7,0,0,1,0,1.92,1.91,1.91,0,0,0,.79,1.66,2.38,2.38,0,0,0,1.12.21l1.89,0a9.68,9.68,0,0,0,1.22-.15,10.21,10.21,0,0,1,1.83.1l1.94.13q3.87.27,7.76.49c.69,0,1.4.12,2.09.12q9.67.54,19.36.84c1.94.06,3.9,0,5.83.16a5.1,5.1,0,0,1,.7.15,2.88,2.88,0,0,0,1.68-.29,6.27,6.27,0,0,0,3-2.38c.63,2.09,2.94,3.24,5.11,3.45s4.36-.24,6.54-.15c.63,0,1.24,0,1.86,0,.42,0,.85.17,1.27.21a4.08,4.08,0,0,0,1.67-.09c.17-.06.33-.15.5-.2a6.36,6.36,0,0,1,1.85-.11c1.42,0,2.83,0,4.24,0q4.25,0,8.48.16c1.4,0,2.8.11,4.2.17a1.91,1.91,0,0,0,.75-.05c.19,0,.36-.13.55-.17a10.5,10.5,0,0,1,2-.13h.46a6.06,6.06,0,0,0,1.41-.11,7.87,7.87,0,0,1,1.75,0h2.86c3.89,0,7.79,0,11.68,0l3.27,0h1.63c3.89,0,7.77.08,11.66.12l11.67.2,5.83.13,2.92.07a5.77,5.77,0,0,0,2.07-.2,4.25,4.25,0,0,1,.93-.18c.63-.05,1.27-.08,1.9-.11a2.48,2.48,0,0,0,.61-.06,2,2,0,0,1,.8-.21,2,2,0,0,0,.59-.08,3.55,3.55,0,0,0,1.06-.5,8.94,8.94,0,0,0,1.78-1.75,14.62,14.62,0,0,0,1.65,1.86.76.76,0,0,0,.35.24c.52.14.8-.59,1.27-.84a1.61,1.61,0,0,0,1.36.71,6.05,6.05,0,0,0,1.57-.25,14.4,14.4,0,0,1,4.63-.3l.57-.89c.26.84,1.34,1.06,2.22,1.06a12.9,12.9,0,0,0,1.86-.11,6.4,6.4,0,0,1,1.57-.17,17.25,17.25,0,0,0,3.29-.07c2.58-.16,5.16-.34,7.74-.52l7.74-.57,7.54-.62c.58-.06,1.17,0,1.76-.08,1.92-.07,3.84-.15,5.76-.29,1-.07,1.92-.16,2.88-.26.47-.05,1-.09,1.43-.17a2.83,2.83,0,0,0,.41-.14,5.16,5.16,0,0,0,2.47-.86,3.09,3.09,0,0,0,.88-1.66,8,8,0,0,0,.14-1,16.46,16.46,0,0,0,.13-1.87c0-2.29,0-4.59-.07-6.89v-.68a26.87,26.87,0,0,0-.15-2.84,7,7,0,0,1-.16-1.29c0-.12,0-.25.05-.37a2.08,2.08,0,0,0-.58-1.38c-.23-.23-.48-.44-.73-.66a2.27,2.27,0,0,0-.61-.39,7.13,7.13,0,0,0-1.45-.43l-3.48-.83a2.09,2.09,0,0,1-.85-.36,6.7,6.7,0,0,1,.94-.22H228c1.61.29,3.23.6,4.85.92a3.9,3.9,0,0,1,1.67.65,2.23,2.23,0,0,1,.58.75,4.42,4.42,0,0,1,.42,1.51c.15,1.31-.06,2.6.09,3.9.08.67.12,1.33.15,2,.07,1.29.12,2.59.19,3.88s.11,2.32.16,3.48A5.48,5.48,0,0,1,231,165.87Z" style="fill:#eb924d"/><path d="M99.56,15.82c11.64.54,23.3,1.08,34.88,2.42,9.59,1.11,19.15,2.77,28.81,2.84C141.45,22.47,121.39,16.43,99.56,15.82Zm46.1,27.26c-.71,0-1.43-.06-2.14-.08-3.85-.1-7.7,0-11.54.11s-7.68.45-11.51.82q-2.88.28-5.75.62l-2.87.35-1.43.19c-.36,0-.7,0-1,0a7.75,7.75,0,0,0-1.33.38l-1.38.39c-.92.27-1.85.53-2.77.78q-2.77.77-5.58,1.4-2.32.52-4.68.93a92.64,92.64,0,0,1-11.28,1.24c-1.89.09-3.78.13-5.67.11a8.05,8.05,0,0,0-1.3,0l-2.52.36L70,51.16c-.36.05-.64.21-1,.28a12.72,12.72,0,0,1-1.38.19c-1.86.17-3.72.06-5.57.12-5.13.17-10.1,1.66-15.17,2.44a106.48,106.48,0,0,1-11.44.93l1.28,0q5.79-.23,11.58-.63t11.57-1q2.88-.28,5.77-.61c1.1-.12,2.2-.17,3.31-.23q3.49-.21,7-.56c4.67-.46,9.32-1.07,14-1.75C108.41,47.57,126.86,43.55,145.66,43.08Zm-72,68.38a59.22,59.22,0,0,0,13,2.65c2.22.26,4.46.48,6.68.74l1.72.23c.43.06.86.07,1.29.13a2.5,2.5,0,0,1,.39.11,9.65,9.65,0,0,0,1.19.14,21.85,21.85,0,0,1,2.51.61,9.8,9.8,0,0,0,3.22.45c.79,0,1.56-.29,2.35-.42a13.59,13.59,0,0,1,2.78-.18,31.18,31.18,0,0,1,5.61.62c.83.16,1.66.36,2.48.58s1.78.52,2.66.79a4.41,4.41,0,0,0,1.73.15,11.89,11.89,0,0,1,2.38.27l2.73.38q5.52.72,11.07,1c3.72.23,7.44.33,11.17.32s7.38-.13,11.06-.35c1.4-.08,2.79-.22,4.19-.29a101.64,101.64,0,0,1-14.28-.37c-2.4-.21-4.8-.48-7.19-.78a10.65,10.65,0,0,0-1.25-.15.69.69,0,0,0-.2,0,2.75,2.75,0,0,1-.57,0c-1.71.05-3.43,0-5.14,0-9.23-.44-18.31-2.74-27.55-3-1.69-.06-3.39,0-5.08.08a16.23,16.23,0,0,1-3.41-.26c-1.14-.21-2.27-.46-3.42-.66-1.73-.3-3.5-.38-5.25-.52s-3.8-.34-5.7-.55-3.78-.47-5.67-.76S75.51,111.83,73.69,111.46Zm49.76-15.41L125.8,96a9.83,9.83,0,0,1,1.88.07,2,2,0,0,0,.64,0,5.23,5.23,0,0,1,1.42.14,2.57,2.57,0,0,0,.62,0c.71,0,1.46.09,2.17.13l2.29.17c1.59.12,3.18.26,4.76.41,12.65,1.16,25.35,2.9,38.07,1.88l-44.48-3a9.76,9.76,0,0,0,2.24-.44l2.29-.5q1.08-.24,2.16-.51c.41-.09.84-.16,1.23-.28a7.85,7.85,0,0,0,.77-.38c.51-.24,1-.47,1.55-.69,1-.43,2.11-.81,3.18-1.14a48.45,48.45,0,0,1,6.62-1.52c2.26-.36,4.54-.61,6.82-.79s4.6-.31,6.9-.44l3.5-.2a3.89,3.89,0,0,0,1.17-.21c.27-.11.52-.28.79-.4a4.92,4.92,0,0,1,1.66-.34l4.28-.36a50.65,50.65,0,0,1,7.49-.25c2.36.15,4.69.63,7.05.75a45.86,45.86,0,0,0,8.27-.61,138.88,138.88,0,0,0-16.57-.67c-2.81.06-5.62.2-8.43.34-2.46.12-4.92.24-7.38.41s-4.93.37-7.39.66-4.89.67-7.31,1.16q-1.8.38-3.6.84l-1,.31a1.57,1.57,0,0,1-.43.09,1.46,1.46,0,0,0-.41.11c-1.18.4-2.39.72-3.61,1s-2.43.53-3.65.78l-.52.11-3.81.77-3.82.77-1.91.39-1,.19a1.39,1.39,0,0,1-.4.06c-.32,0-.61.14-.94.11a6.36,6.36,0,0,0-1.62.15l-1.9.28c-1.28.17-2.55.34-3.83.48a67.94,67.94,0,0,1-7.68.46ZM86.59,142.83c-1.52.14-3.08.12-4.6.11s-3.2-.08-4.79-.18c-3.19-.19-6.38-.54-9.55-1-1.6-.21-3.19-.44-4.78-.67-.75-.11-1.51-.21-2.26-.34a2.11,2.11,0,0,1-.36-.09,3.94,3.94,0,0,0-1.53,0,21.26,21.26,0,0,1-6-.22c-1.06-.22-2.09-.57-3.16-.7s-2,0-3-.16a18.4,18.4,0,0,1-2.42-.55c-5.54-1.42-11.4-1-17,.05,8.45-1,17,.75,25.36,2,1.48.23,3,.44,4.45.56,1.21.1,2.42.13,3.62.31s2.4.49,3.61.7a14,14,0,0,0,1.83.2c.3,0,.61,0,.91,0a4,4,0,0,1,.77,0c2.56.16,5.13.27,7.7.3s5,0,7.54-.15C84.18,143,85.39,142.94,86.59,142.83Zm123.3,5.31q-17,.84-34.11.64C186.39,151.48,199.11,150,209.89,148.14Z" style="fill:#eb924d"/><path d="M99.61,15c11.65.54,23.31,1.08,34.89,2.42,9.59,1.11,19.15,2.77,28.8,2.84C141.51,21.68,121.45,15.64,99.61,15Zm46.11,27.26-.58,0c-3.86-.15-7.73-.14-11.59,0s-7.72.4-11.56.75a5.77,5.77,0,0,0-1.09.18,3.89,3.89,0,0,1-1.13.07,22,22,0,0,0-2.81.22c-1.85.24-3.68.65-5.53.94a85.18,85.18,0,0,1-14.2.73l5.39.71a28.71,28.71,0,0,1-7.18,2q-3.89.71-7.78,1.24-5.7.78-11.44,1.22c-1.91.14-3.83.25-5.74.34l-1.44,0a8.09,8.09,0,0,1-1-.07c-.72,0-1.4.24-2.1.2a5.29,5.29,0,0,0-.56-.05c-.64,0-1.29.14-1.92.21l-3.85.44c-2.57.29-5.14.6-7.7.91q-7.71.91-15.39,1.93T21.16,56.38l-.62.09c11.82-.88,23.66-1.75,35.36-3.61a57.48,57.48,0,0,1,9.05-1c1.21,0,2.43.1,3.64,0a12.26,12.26,0,0,1,1.59-.17,10.46,10.46,0,0,0,1.58,0q3.73-.28,7.47-.71c5-.56,10-1.28,14.94-2.06s10-1.63,15-2.44,10-1.61,14.94-2.28S134,42.94,139,42.6Q142.36,42.38,145.72,42.29ZM164,118.64a89.06,89.06,0,0,1-11.08-.12c-2.78-.13-5.53-.73-8.32-.82s-5.54.12-8.32,0c-6.48-.27-12.79-2.17-19.24-2.76-1.75-.16-3.5-.22-5.25-.29l-4.52-.16-1.23,0a23.58,23.58,0,0,1-2.78-.28c-.5-.09-1-.26-1.49-.31-2.33-.26-4.67-.44-7-.6s-4.75-.34-7.12-.57-4.73-.51-7.09-.85c-1.22-.18-2.44-.37-3.66-.58L75.15,111a10.84,10.84,0,0,1-1.4-.28C82,113.6,90.88,113.34,99.39,115a7.86,7.86,0,0,1,2.19.57,2.28,2.28,0,0,0,.8.26,23.07,23.07,0,0,0,2.88,0c1.93,0,3.86-.18,5.79-.19a32.16,32.16,0,0,1,4.75.68c1.44.21,2.88.39,4.33.52a11.85,11.85,0,0,1,2.51.41,4,4,0,0,0,1,.27c.45,0,.91.14,1.36.2,1.83.26,3.67.49,5.5.68,3.71.38,7.44.63,11.16.76s7.46.15,11.18.06,7.34-.28,11-.57ZM142.34,92.86c.36-.13.73-.25,1.09-.36,1.86-.61,3.79-1,5.69-1.5,1-.26,2-.62,3.1-.82a52,52,0,0,1,5.39-1,4.84,4.84,0,0,1,.85,0,7.74,7.74,0,0,0,2.29-.25,54.1,54.1,0,0,1,5.66-.62l1.24,0a2.5,2.5,0,0,1,.67,0,1.73,1.73,0,0,0,.51,0,5.23,5.23,0,0,0,1-.21,16.82,16.82,0,0,1,1.85-.37,2.37,2.37,0,0,0,.7-.15,3.13,3.13,0,0,1,.81-.15c1.24-.17,2.48-.32,3.72-.39,1.82-.1,3.64-.18,5.45-.22a44.21,44.21,0,0,1,5.4.1c.52.05,1,.12,1.55.19a43.41,43.41,0,0,0,7.36.82c.6,0,1.19-.12,1.8-.17a7,7,0,0,1,1.11.11,25.76,25.76,0,0,0,3-.07l4.57-.14,9.51-.33-19.54-.69c-6.54-.23-13.08-.46-19.61-.21-1.32.06-2.64.13-4,.22-5.06.35-10.1,1-15.11,1.79-2.51.41-5,.87-7.49,1.37l-1,.22a.83.83,0,0,1-.22,0,1.79,1.79,0,0,0-.4.09l-.91.25c-.67.19-1.34.39-2,.52-1.2.24-2.42.38-3.62.6s-2.15.46-3.21.74-2.37.65-3.57,1c-.6.14-1.19.28-1.8.39l-.9.16a1.29,1.29,0,0,1-.39,0A4.68,4.68,0,0,0,132,94c-1.24.16-2.48.29-3.73.39s-2.5.16-3.75.18l-1.41,0a1.82,1.82,0,0,0-.33,0c-.07,0-.14,0-.21.06-.24,0-.49.06-.73.09l-1.93.22a4,4,0,0,0-.69.14,10.71,10.71,0,0,1-1.49.22l-3.31.48c-1.78.25-3.55.5-5.33.73a56,56,0,0,0,10.2-.11c1.44-.19,2.88-.5,4.32-.75,1-.17,2-.32,3.08-.39a37,37,0,0,1,6.81.46l5.75.75a6,6,0,0,0,1.93,0,8.27,8.27,0,0,1,2.38.09c3.86.38,7.72.78,11.59,1.11s7.71.59,11.58.68c1.83,0,3.67,0,5.5,0,.93,0,1.85-.06,2.78-.1s1.82-.18,2.72-.18l-44.49-3a10.23,10.23,0,0,0,2.24-.45c.61-.13,1.21-.29,1.82-.39a1.15,1.15,0,0,1,.32,0,2.1,2.1,0,0,0,.56,0,17.81,17.81,0,0,0,1.77-.49C140.74,93.39,141.54,93.12,142.34,92.86ZM86.65,142c-2,.11-3.9.13-5.85.09-1.29,0-2.57-.09-3.86-.17-.64-.05-1.29-.09-1.93-.15a12.2,12.2,0,0,1-1.82-.19,14.63,14.63,0,0,0-1.88-.23l-1.93-.22-3.86-.43c1.72-1.1,3.83-1.3,5.85-1.56a68.28,68.28,0,0,0,9.79-2,165.86,165.86,0,0,0-16.48,1.88c-1.49.24-3,.51-4.48.65a4.2,4.2,0,0,0-.93.15,4.53,4.53,0,0,1-1.56.07l-3.81-.13c-2.53-.11-5.06-.3-7.57-.65q-1.21-.16-2.4-.39c-1.57-.3-3.12-.68-4.7-.85a33.22,33.22,0,0,0-9.32.64l4.41,0c1.91,0,3.82,0,5.73.14,1.27.11,2.53.29,3.78.51s2.45.51,3.68.7q3.69.56,7.39,1c2.48.31,5,.59,7.45.82s5,.42,7.45.55,4.9.19,7.35.19,4.81-.08,7.2-.24C85.12,142.17,85.88,142.08,86.65,142ZM210,147.35q-17,.85-34.11.64C186.45,150.69,199.17,149.22,210,147.35Z" style="fill:url(#Áåçûìÿííûé_ãðàäèåíò_3-6)"/><path d="M10.34,26.58q.18,15.86.38,31.72.09,7.92.19,15.85L11,82.08a13.37,13.37,0,0,1,0,2.45,2.71,2.71,0,0,0-.09.51c-.2,4.22-.13,8.46-.19,12.69,0,1.81-.06,3.63-.08,5.45-.08,5.09-.24,10.19-.34,15.28q-.09,3.89-.1,7.77c0,.73,0,1.39.06,2.11.19,2.09.32,4.18.37,6.28a8.61,8.61,0,0,1-.13,2.33,10.59,10.59,0,0,0-.13,1.5c-.09,1.05-.17,2.1-.26,3.15q-.24,3.17-.5,6.31a9.64,9.64,0,0,0-.08,1.7,5.09,5.09,0,0,1,0,.55c0,.61-.21,1.19-.22,1.8a6.46,6.46,0,0,0,5.87,6.53q31.47,3.07,63.1,4a6.46,6.46,0,0,1,1.59.18,2.85,2.85,0,0,0,.87.16c1,0,2.08-.14,3.11-.21a5.42,5.42,0,0,1,1.75,0,4.12,4.12,0,0,0,.86.1l2.11.11c.68,0,1.33-.07,2-.06l2.13,0,4.25,0,8.51.08,8.5,0c2.83,0,5.67,0,8.5,0l8.51,0,8.5-.05c1.36,0,2.7,0,4.06-.12,2.82-.15,5.63-.32,8.45-.52,2.15-.16,4.31-.37,6.48-.44q6.36-.23,12.73-.5t12.72-.6q6.38-.32,12.73-.7t12.71-.8q6.36-.44,12.71-.91l1.21-.1a10.64,10.64,0,0,0,4.53-1.06,1.67,1.67,0,0,0,.81-1.14,17.06,17.06,0,0,0,.25-2.76c.07-1,.13-2.08.17-3.12.16-4.16.12-8.34-.13-12.49a22.23,22.23,0,0,1-.14-3.45c.05-.51,0-1.06,0-1.58l0-3.16q0-3.16-.11-6.33-.15-6.33-.45-12.66c-.06-1.2-.12-2.39-.19-3.59a10.1,10.1,0,0,0-.12-1.65c0-.28-.17-.53-.23-.81a11.58,11.58,0,0,1,.05-2.88q.12-3.17.2-6.33.15-6.31.12-12.64t-.28-12.65c-.14-4.16-.32-8.34-.67-12.48a38,38,0,0,1,.06-3.85l.09-4.42c.05-2.84.11-5.68.16-8.52.11-5.78.2-11.57.23-17.35C225,31.65,225,40.73,225.6,49.48s1.62,17.56.6,26.27l.11,76.85-4.58,2.48-83.07,4.38-78.45-.76-44.72-3-2.81-2.8,1.53-53.6-1-61Z" style="fill:#eb924d"/><path d="M113,162.28c-32.84,0-65.56-1.28-97.93-3.84a5,5,0,0,1-4.6-5.18c1.82-47.1,1.74-93-.25-136.3a5,5,0,0,1,4.68-5.23Q36,10.4,57.21,9.56c1.48-.06,3-.07,4.45-.17.29,0,.57-.11.87-.14a14,14,0,0,1,1.94.06,3.64,3.64,0,0,0,2.63-.65,4.17,4.17,0,0,0,1-2.91c-.1,1.09-.11,2.41.79,3a2.57,2.57,0,0,0,1.59.34c.58,0,1.16,0,1.74,0S73.17,9,73.66,9l2.12-.06,8.49-.23,8.5-.18,6.37-.12q10.39-.15,20.8-.2h10.35a15.26,15.26,0,0,1,2.79.07,2.17,2.17,0,0,0,.84-.08,4.34,4.34,0,0,0,1.65-.89,11.26,11.26,0,0,0,1.82-2.13l-.9,3c2.76,0,5.51.06,8.28.09l8.47.11,8.45.16,8.42.2,8.4.25c2.79.09,5.57.18,8.36.29s5.57.21,8.35.33l8.31.37,8.28.42,8.25.46,3,.18a5,5,0,0,1,4.69,5.16c-1.44,42.09-1.21,87.86.67,136a5,5,0,0,1-4.56,5.18C187,160.67,149.89,162.28,113,162.28Zm13.06-150.1c-36.45,0-73.52,1.18-110.91,3.55a1,1,0,0,0-.93,1q1,20.52,1.3,41.07.18,9.39.23,18.77a18.71,18.71,0,0,1,0,2.12,5.1,5.1,0,0,0,0,.78,2.31,2.31,0,0,0,.41,1.38,2.81,2.81,0,0,0,2.44.8,8.13,8.13,0,0,1,2.65,0l-3.87.67a2.53,2.53,0,0,0-.94.3,1.71,1.71,0,0,0-.71,1.3,3.57,3.57,0,0,0,.06,1,4.44,4.44,0,0,1,.06.89v2.06c0,1.37,0,2.75,0,4.12,0,2.76,0,5.52,0,8.28s-.05,5.55-.09,8.32-.08,5.57-.13,8.36-.11,5.59-.17,8.38-.14,5.62-.21,8.42-.17,5.64-.26,8.46-.19,5.65-.29,8.47c0,.9-.07,1.79-.11,2.68a1,1,0,0,0,.92,1q20.82,1.63,41.68,2.58l3.52.16,1.87.07a.64.64,0,0,0,.4-.07,2.37,2.37,0,0,1,1.24,0,1.35,1.35,0,0,0,1.3-.33,1.43,1.43,0,0,0,.17-1c-.11-1.4-.22-2.8-.32-4.2a12.37,12.37,0,0,0,1,3.69,4.13,4.13,0,0,0,2.92,2.28,16.54,16.54,0,0,0,2,0c.7,0,1.41,0,2.12.07l4.24.12,8.5.22q4.25.09,8.5.15l4.67.06q10.58.12,21.16,0c3.52,0,7,0,10.56-.1.46,0,.87-.15,1.32-.19a6.18,6.18,0,0,0,1.75-.35,5.21,5.21,0,0,0,1.52-1,11.59,11.59,0,0,0,2.32-3.36,16.63,16.63,0,0,1,2.15-3.49,66,66,0,0,0-3,8.15,8.12,8.12,0,0,1,1,0h1c.71,0,1.42,0,2.12,0s1.31,0,2,0l2.11-.06q4.24-.1,8.47-.24l8.46-.3,8.47-.36,8.46-.41,8.47-.47,8.46-.53c2.82-.19,5.64-.38,8.46-.59s5.65-.41,8.47-.64l8.45-.69,2.12-.19a1,1,0,0,0,.91-1c-1.89-48.27-2.12-94.14-.68-136.33a1,1,0,0,0-.93-1C191.21,13.14,158.89,12.18,126.07,12.18Z" style="fill:url(#Áåçûìÿííûé_ãðàäèåíò_3-7)"/><path d="M227.27,141.09q-.57-16.82-.86-33.21-.16-8.77-.24-17.4v0c-.25-25.76,0-50.59.84-74.26a4.23,4.23,0,0,0-4-4.39l-7.39-.43q-13.55-.75-27.25-1.28c-37.23-1.41-75.3-1.54-113.89-.39q-15.81.46-31.74,1.23Q28.89,11.6,15,12.48a4.28,4.28,0,0,0-3.43,2.17A4.18,4.18,0,0,0,11,16.92q1.15,25.14,1.45,51.34c.32,27.68-.08,56.12-1.2,85a4.23,4.23,0,0,0,3.91,4.4q18.21,1.44,36.53,2.35,30.54,1.5,61.34,1.5,26,0,52-1.07,29.4-1.22,58.78-3.78a4.18,4.18,0,0,0,2.22-.86,4.23,4.23,0,0,0,1.65-3.54C227.53,148.54,227.4,144.81,227.27,141.09Zm-3.23,13a1.35,1.35,0,0,1-.45.11q-29.24,2.55-58.51,3.75c-37.65,1.56-75.27,1.43-112.55-.38q-18.66-.9-37.19-2.37a1.74,1.74,0,0,1-1.61-1.74v-.08c1.1-28.26,1.5-56.07,1.22-83.17Q14.68,43,13.48,16.81a1.6,1.6,0,0,1,0-.44A1.76,1.76,0,0,1,15.12,15q13.74-.87,27.41-1.52,16.85-.81,33.57-1.3,25.14-.73,50-.73,30.51,0,60.41,1.1,13.86.53,27.57,1.27c2.94.16,5.89.33,8.82.51a1.73,1.73,0,0,1,1.64,1.8c-.85,25-1.12,51.26-.8,78.56q0,4.33.12,8.72.3,18.81,1,38.23.19,5.35.4,10.76A1.75,1.75,0,0,1,224,154.09Z" style="fill:url(#Áåçûìÿííûé_ãðàäèåíò_28)"/><path d="M42.53,13.46Q28.87,14.11,15.12,15a1.76,1.76,0,0,0-1.64,1.83q1.2,26.13,1.47,53.4l-.06.24a.82.82,0,0,1-1.49.2,17.84,17.84,0,0,1-1-2.39Q12.13,42.1,11,16.92a4.28,4.28,0,0,1,4-4.44q13.93-.87,27.79-1.54A1.86,1.86,0,0,1,42.53,13.46Z" style="fill:#ffdf80"/><path d="M189.76,12.27c-1.09.1-2.19.19-3.28.26q-29.86-1.09-60.41-1.1-24.81,0-50,.73a23.06,23.06,0,0,1-5-.91.31.31,0,0,1,0-.59,21.47,21.47,0,0,1,3.41-.95c38.59-1.15,76.66-1,113.89.39.54.11,1.08.24,1.62.37C191.07,10.73,190.72,12.17,189.76,12.27Z" style="fill:#ffdf80"/><path d="M226.17,90.46v0a11.72,11.72,0,0,1-1.37,4,.74.74,0,0,1-1.09.21c-.32-27.3-.05-53.58.8-78.56a1.73,1.73,0,0,0-1.64-1.8c-2.93-.18-5.88-.35-8.82-.51l-.44-.26a.82.82,0,0,1,0-1.41,12.28,12.28,0,0,1,2-.75l7.39.43a4.23,4.23,0,0,1,4,4.39C226.2,39.87,225.92,64.7,226.17,90.46Z" style="fill:#ffdf80"/><path d="M227.27,141.09a2,2,0,0,1-2.48.53q-.66-19.4-1-38.23a1.14,1.14,0,0,1,2.07.58c.17,1.29.34,2.6.51,3.91Q226.7,124.26,227.27,141.09Z" style="fill:#ffdf80"/><path d="M165,160.47q-26,1.07-52,1.07-30.76,0-61.34-1.5c-.85-.22-1.7-.49-2.54-.79a.8.8,0,0,1,.21-1.57l3.19-.11c37.28,1.81,74.9,1.94,112.55.38A2,2,0,0,1,165,160.47Z" style="fill:#ffdf80"/><path d="M226.16,142.37q-.57-16.82-.86-33.21-.17-8.77-.24-17.4v0c-.25-25.76,0-50.59.84-74.26a4.23,4.23,0,0,0-4-4.39l-7.39-.43q-13.54-.75-27.25-1.28C150,10,112,9.84,73.38,11q-15.81.47-31.74,1.23-13.86.66-27.79,1.54a4.16,4.16,0,0,0-2.32.89A4.18,4.18,0,0,0,11,16.92q1.15,25.14,1.45,51.34c.32,27.68-.08,56.12-1.2,85a4.23,4.23,0,0,0,3.91,4.4q18.21,1.44,36.53,2.35,30.54,1.5,61.34,1.5,26,0,52-1.07,29.4-1.22,58.78-3.78a4.18,4.18,0,0,0,2.22-.86,4.32,4.32,0,0,0,.54-2.26C226.42,149.82,226.29,146.09,226.16,142.37ZM224,154.09a1.77,1.77,0,0,1-1.56,1.39Q193.25,158,164,159.23c-37.65,1.56-75.27,1.43-112.55-.38q-18.66-.9-37.19-2.37a1.74,1.74,0,0,1-1.61-1.74v-.08c1.1-28.26,1.5-56.07,1.22-83.17q-.27-27.24-1.47-53.4a1.75,1.75,0,0,1,1.15-1.72A1.76,1.76,0,0,1,15.12,15q13.74-.87,27.41-1.52,16.85-.81,33.57-1.3,25.14-.73,50-.73,30.51,0,60.41,1.1,13.86.53,27.57,1.27c2.94.16,5.89.33,8.82.51a1.73,1.73,0,0,1,1.64,1.8c-.85,25-1.12,51.26-.8,78.56q0,4.33.12,8.72.3,18.81,1,38.23.19,5.35.4,10.76A1.75,1.75,0,0,1,224,154.09Z" style="fill:url(#Áåçûìÿííûé_ãðàäèåíò_7)"/></g></g></svg>