<svg xmlns="http://www.w3.org/2000/svg" xmlns:xlink="http://www.w3.org/1999/xlink" viewBox="0 0 36 104.29"><defs><radialGradient id="Áåçûìÿííûé_ãðàäèåíò_79" cx="-36.4" cy="48.57" r="56.43" gradientTransform="matrix(-1, 0, 0, 1, -22.51, 0)" gradientUnits="userSpaceOnUse"><stop offset="0" stop-color="#fbd767"/><stop offset="1" stop-color="#d65f6e"/></radialGradient><linearGradient id="Áåçûìÿííûé_ãðàäèåíò_97" x1="-67.52" y1="50.12" x2="-40.78" y2="50.27" gradientTransform="matrix(-1.6, 0, 0, 1, -55.92, 0)" gradientUnits="userSpaceOnUse"><stop offset="0.27" stop-color="#4c8cff"/><stop offset="0.65" stop-color="#d65f6e"/><stop offset="0.72" stop-color="#df7d6c"/><stop offset="0.85" stop-color="#eeae69"/><stop offset="0.94" stop-color="#f8cc68"/><stop offset="1" stop-color="#fbd767"/></linearGradient><linearGradient id="Áåçûìÿííûé_ãðàäèåíò_55" x1="629.55" y1="36.08" x2="628.95" y2="47.66" gradientTransform="matrix(1.59, -0.05, 0.08, 1, -991.89, 79.77)" gradientUnits="userSpaceOnUse"><stop offset="0" stop-color="#ffe48f"/><stop offset="1" stop-color="#c77781"/></linearGradient><linearGradient id="Áåçûìÿííûé_ãðàäèåíò_77" x1="629.6" y1="34.49" x2="630.72" y2="77.28" gradientTransform="matrix(1.59, -0.05, 0.08, 1, -991.89, 79.77)" gradientUnits="userSpaceOnUse"><stop offset="0" stop-color="#d65f6e"/><stop offset="1" stop-color="#fbd767"/></linearGradient><linearGradient id="Áåçûìÿííûé_ãðàäèåíò_55-2" x1="634.18" y1="-46.01" x2="632.56" y2="-37.87" xlink:href="#Áåçûìÿííûé_ãðàäèåíò_55"/><linearGradient id="Áåçûìÿííûé_ãðàäèåíò_55-3" x1="-36" y1="46.32" x2="-64.69" y2="16.6" gradientTransform="matrix(-1.6, 0, 0, 1, -55.92, 0)" xlink:href="#Áåçûìÿííûé_ãðàäèåíò_55"/></defs><g style="isolation:isolate"><g id="Calque_2" data-name="Calque 2"><g id="Ñëîé_1" data-name="Ñëîé 1"><path d="M1.28,95.23A17.2,17.2,0,0,0,17,102.06v1.83c9.44-.17,10.52-3.35,10.52-3.35L17.31,7.83Z" style="fill-rule:evenodd;fill:url(#Áåçûìÿííûé_ãðàäèåíò_79)"/><path d="M0,95.45H0l.08,0,0,0,.13-.07h0a3.69,3.69,0,0,1,.4-.2l.11,0L.94,95l.09,0,.17-.07,0,0,.09,0,.07,0,.15-.07.27-.11L2,94.54l.16-.06.11,0c.32-.13.68-.26,1.07-.4l.13,0,.28-.1.21-.07c.45-.15.93-.3,1.45-.44l.26-.08.26-.07.27-.07.31-.07L6.71,93l.6-.14.26,0,.29-.06.32-.06.6-.11.31,0,.32,0h0l.38,0h.06l.31,0,.34,0h.11l.21,0h.11c.06-.14.12-.28.19-.41A5.27,5.27,0,0,1,12.48,90l0,0,.06.14a4.29,4.29,0,0,1,.16.47A8.43,8.43,0,0,1,13,91.8s0,.1,0,.15l0,.26h1.19l.64,0,.32,0,.28,0h.22l.16,0,.29,0,.24,0h.17l.22,0h0l.3,0h0l.17,0,.27,0,.28,0,.25,0,.44.08.18,0,.39.08.16,0c.37.09.73.18,1.07.28l.19.06.45.15.22.07.19.07h0l.2.07.19.08.11,0,.13,0,.54.24.16.08.35.18.17.09.16.09h0a3.37,3.37,0,0,1,.32.19l.15.09.32.21.12.08.14.1.14.1.13.1.13.1.13.1h0l.12.1.12.1.35.31a1.14,1.14,0,0,0,.11.11l.1.1.1.11a.6.6,0,0,1,.08.08l.06.06.15.17.1.11.11.14a1.83,1.83,0,0,1,.13.16l.17.22h0l.08.12a9,9,0,0,1,.78,1.31l0,.08c.05.1.09.19.13.29l.06.14a4,4,0,0,1,.15.4l0,.06a1.71,1.71,0,0,1,.09.3.14.14,0,0,1,0,.06c0,.12.06.23.09.34s0,0,0,.06a213,213,0,0,1-1.47-48.3A229.66,229.66,0,0,1,36,6,15,15,0,0,0,34.26,4.1h0l0,0h0v0H32.86l.41-.87,0,0C28.66-.41,23-.43,18.29.54c-.22,1.05-2.48,1.83-4,1.9a1.75,1.75,0,0,1-1.25-.25A.22.22,0,0,1,13,2.11,32,32,0,0,0,9.21,3.84s.11,4.6,0,12.17v.52c0,.6,0,1.22,0,1.86,0,.16,0,.33,0,.49s0,.3,0,.46v1.39l0,.55,0,1.06,0,1c0,.25,0,.5,0,.74s0,.4,0,.59,0,.33,0,.49v.19c0,.19,0,.37,0,.55,0,.61,0,1.24-.08,1.87v.12c-.24,5.86-.61,12.52-1.19,19.62-.1,1.18-.2,2.36-.32,3.53,0,.48-.09,1-.14,1.44-.2,2-.43,4.06-.68,6A364.13,364.13,0,0,1,0,95.45Z" style="fill-rule:evenodd;fill:url(#Áåçûìÿííûé_ãðàäèåíò_97)"/><path d="M18.75,101s1.18-1.93.62-2.28-6.44-2.78-10.54-.92S5.34,100,5.34,100L2.1,95.5a28.47,28.47,0,0,1,8.65-3c2.06-3.81,1.82-2.64,2.29-.23a14.75,14.75,0,0,1,5.67.63c7.79,2.51,8.84,7.67,8.84,7.67l-4.79-2.39-.15,1.56Z" style="fill-rule:evenodd;opacity:0.7000000000000001;mix-blend-mode:multiply;fill:url(#Áåçûìÿííûé_ãðàäèåíò_55)"/><path d="M9.83,97.66,11,94.4s7.15-1.47,10.22.71S24,98.46,24,98.46a10.13,10.13,0,0,0-6.26-2.16A32,32,0,0,0,9.83,97.66Z" style="fill-rule:evenodd;fill:url(#Áåçûìÿííûé_ãðàäèåíò_77)"/><path d="M17,104.29l.5,0c7.23-.4,10.67-3.15,10.67-3.15a8.38,8.38,0,0,0-1.55-3.86h0c-1.38-2-4-4.14-8.94-5.07a21.1,21.1,0,0,0-3.56-.37c-.4,0-.79,0-1.18,0,0,.15,0,.28,0,.41,0,.58.05,1,.05,1,.4,0,.81,0,1.22,0a18.82,18.82,0,0,1,3.88.37c7.23,1.48,8.52,6.78,8.52,6.78s-3.2,2.82-9.47,3.15H17Z" style="fill:#ffcdab;fill-rule:evenodd"/><path d="M0,95.45H0l.08,0,0,0,.13-.07h0a3.69,3.69,0,0,1,.4-.2l.11,0L.94,95l.09,0,.17-.07,0,0,.09,0,.07,0,.15-.07.27-.11L2,94.54l.16-.06.11,0c.32-.13.68-.26,1.07-.4l.13,0,.28-.1.21-.07c.45-.15.93-.3,1.45-.44l.26-.08.26-.07.27-.07.31-.07L6.71,93l.6-.14.26,0,.29-.06.32-.06.6-.11.31,0,.32,0h0l.38,0h.06l.31,0,.34,0h.11l.21,0h.11c.06-.14.12-.28.19-.41A5.27,5.27,0,0,1,12.48,90l0,0,.06.14a4.29,4.29,0,0,1,.16.47A8.43,8.43,0,0,1,13,91.8s0,.1,0,.15l0,.26h1.19l.64,0,.32,0,.28,0h.22l.16,0,.29,0,.24,0h.17l.22,0h0l.3,0h0l.17,0,.27,0,.28,0,.25,0,.44.08.18,0,.39.08.16,0c.37.09.73.18,1.07.28l.19.06.45.15.22.07.19.07h0l.2.07.19.08.11,0,.13,0,.54.24.16.08.35.18.17.09.16.09h0a3.37,3.37,0,0,1,.32.19l.15.09.32.21.12.08.14.1.14.1.13.1.13.1.13.1h0l.12.1.12.1.35.31a1.14,1.14,0,0,0,.11.11l.1.1.1.11a.6.6,0,0,1,.08.08l.06.06.15.17.1.11.11.14a1.83,1.83,0,0,1,.13.16l.17.22h0l.08.12a9,9,0,0,1,.78,1.31l0,.08c.05.1.09.19.13.29l.06.14a4,4,0,0,1,.15.4l0,.06a1.71,1.71,0,0,1,.09.3.14.14,0,0,1,0,.06c0,.12.06.23.09.34s0,0,0,.06a213,213,0,0,1-1.47-48.3A229.66,229.66,0,0,1,36,6,15,15,0,0,0,34.26,4.1h0l0,0h0v0H32.86l.41-.87,0,0C28.66-.41,23-.43,18.29.54c-.22,1.05-2.48,1.83-4,1.9a1.75,1.75,0,0,1-1.25-.25A.22.22,0,0,1,13,2.11,32,32,0,0,0,9.21,3.84s.11,4.6,0,12.17v.52c0,.6,0,1.22,0,1.86,0,.16,0,.33,0,.49s0,.3,0,.46v1.39l0,.55,0,1.06,0,1c0,.25,0,.5,0,.74s0,.4,0,.59,0,.33,0,.49v.19c0,.19,0,.37,0,.55,0,.61,0,1.24-.08,1.87C9,25.9,10,6.28,12.67,5.91l.47,0a5.23,5.23,0,0,1,1.06,0,1.53,1.53,0,0,1,1.49,1.28,36.24,36.24,0,0,1-.14,4.75c.06-.3,1.87-10,5.77-10,3.21,0,8.23,1.37,10,5.44a7.34,7.34,0,0,1,.47,1.46A9.2,9.2,0,0,1,32,10.72c0,6.7-5.55,27.22-6.93,39.36s.6,31.87-.82,33-2,9.73-2,9.73-1.07-8-1.54-8a18.9,18.9,0,0,0-6.19-1c-9.16.33-11.35,8.85-11.84,8.49S4.84,76.66,6.54,58.5A364.13,364.13,0,0,1,0,95.45Z" style="fill:#ffd599;fill-rule:evenodd;opacity:0.5;mix-blend-mode:soft-light"/><path d="M14.44,2.47s-.93,13-.78,12.9-.78-13.21-.78-13.21Z" style="fill-rule:evenodd;opacity:0.7000000000000001;mix-blend-mode:multiply;fill:url(#Áåçûìÿííûé_ãðàäèåíò_55-2)"/><path d="M9,93.72l1.46-.18,0-.07c.12-.32.28-.72.47-1.14.06-.14.12-.28.19-.41a5.1,5.1,0,0,1,1.41-2c-.2-.43-.49-.71-.89-.62-.8.18-1.56,1.59-2.07,2.77-.05.13-.11.26-.16.38h0C9.13,93.19,9,93.72,9,93.72Z" style="fill:#a53456;fill-rule:evenodd"/><path d="M0,95.45s3.94,5.94,12.81,7c8,1,11.29-2.62,11.13-4.1s-4.42-2.72-8.45-2.58-5.59,2-5.64,2.09a16.49,16.49,0,0,1,5.92-1.1c3.12.07,6.86,1.74,6.83,2.68s-3.43,2.67-9.14,2-10.89-6-10.89-6A36,36,0,0,1,9,93.72c.48-.09,1-.17,1.48-.24l-.8-1.37H9.57A28.65,28.65,0,0,0,0,95.44Z" style="fill:#ffdaab;fill-rule:evenodd"/><path d="M21.35,55.39l1.08-2.72L24,43.27l-1.55-1.4A50.22,50.22,0,0,0,27.56,27.8c.8-4.69,1.59-13.73,4.23-19C33.21,6,34.26,4.1,34.26,4.1l0,0h0v0H32.86C32.5,4.85,32,6,31.32,7.39c-2.48,5.38-3.7,14.2-4.39,20.34S21.73,42,21.73,42a3.71,3.71,0,0,1,.44.35h0a10.24,10.24,0,0,1,1.11,1.2,3.59,3.59,0,0,1,.13,2s0,.06,0,.1v.06h0A87.44,87.44,0,0,1,21.35,55.39Z" style="fill-rule:evenodd;opacity:0.7000000000000001;mix-blend-mode:multiply;fill:url(#Áåçûìÿííûé_ãðàäèåíò_55-3)"/><path d="M23.42,45.45a3.59,3.59,0,0,0-.13-2,10.24,10.24,0,0,0-1.11-1.2A4.88,4.88,0,0,1,23.42,45.45Z" style="fill:#ffd599;fill-rule:evenodd;mix-blend-mode:soft-light"/></g></g></g></svg>