<svg xmlns="http://www.w3.org/2000/svg" xmlns:xlink="http://www.w3.org/1999/xlink" viewBox="0 0 171.53 189.2"><defs><linearGradient id="New_Gradient_Swatch_92" x1="86.6" y1="94.35" x2="86.6" y2="47.94" gradientUnits="userSpaceOnUse"><stop offset="0" stop-color="#692705"/><stop offset="1" stop-color="#823b00"/></linearGradient><linearGradient id="linear-gradient" x1="147.49" y1="79.15" x2="162.25" y2="64.39" gradientUnits="userSpaceOnUse"><stop offset="0" stop-color="#4a1b04"/><stop offset="1" stop-color="#823b00"/></linearGradient><linearGradient id="New_Gradient_Swatch_92-2" x1="85.85" y1="48.24" x2="85.85" y2="1.53" xlink:href="#New_Gradient_Swatch_92"/><linearGradient id="New_Gradient_Swatch_92-3" x1="85.94" y1="140.38" x2="85.94" y2="93.84" xlink:href="#New_Gradient_Swatch_92"/><linearGradient id="New_Gradient_Swatch_92-4" x1="85.88" y1="189.2" x2="85.88" y2="139.64" xlink:href="#New_Gradient_Swatch_92"/><radialGradient id="New_Gradient_Swatch_91" cx="15.73" cy="-4.52" r="168.64" gradientUnits="userSpaceOnUse"><stop offset="0" stop-color="#f59547"/><stop offset="1" stop-color="#a14c1f"/></radialGradient><radialGradient id="New_Gradient_Swatch_91-2" cx="10.48" cy="42.7" r="178.36" xlink:href="#New_Gradient_Swatch_91"/><radialGradient id="New_Gradient_Swatch_88" cx="87.59" cy="-34.29" r="157.89" gradientUnits="userSpaceOnUse"><stop offset="0" stop-color="#cfa04d"/><stop offset="1" stop-color="#fff"/></radialGradient><radialGradient id="New_Gradient_Swatch_88-2" cx="33.36" cy="-55.59" r="113.4" xlink:href="#New_Gradient_Swatch_88"/><radialGradient id="New_Gradient_Swatch_91-3" cx="11.17" cy="91.67" r="129.18" xlink:href="#New_Gradient_Swatch_91"/><radialGradient id="New_Gradient_Swatch_88-3" cx="6.91" cy="75.56" r="110.09" xlink:href="#New_Gradient_Swatch_88"/><radialGradient id="New_Gradient_Swatch_88-4" cx="111" cy="50.89" r="108.67" xlink:href="#New_Gradient_Swatch_88"/><radialGradient id="New_Gradient_Swatch_91-4" cx="16.7" cy="137.13" r="146.66" xlink:href="#New_Gradient_Swatch_91"/><radialGradient id="New_Gradient_Swatch_88-5" cx="130.68" cy="45.85" r="121.92" xlink:href="#New_Gradient_Swatch_88"/><radialGradient id="New_Gradient_Swatch_88-6" cx="59.65" cy="1.94" r="101.81" xlink:href="#New_Gradient_Swatch_88"/><radialGradient id="New_Gradient_Swatch_88-7" cx="24.34" cy="122.54" r="100.27" xlink:href="#New_Gradient_Swatch_88"/><radialGradient id="New_Gradient_Swatch_88-8" cx="114.74" cy="211.68" r="128.61" xlink:href="#New_Gradient_Swatch_88"/><radialGradient id="New_Gradient_Swatch_88-9" cx="141" cy="105.54" r="57.52" xlink:href="#New_Gradient_Swatch_88"/><linearGradient id="New_Gradient_Swatch_90" x1="15.93" y1="3.65" x2="121.18" y2="3.65" gradientUnits="userSpaceOnUse"><stop offset="0" stop-color="#a48a7b"/><stop offset="1" stop-color="#945534"/></linearGradient><linearGradient id="New_Gradient_Swatch_90-2" x1="15.35" y1="60.18" x2="108.71" y2="60.18" xlink:href="#New_Gradient_Swatch_90"/><linearGradient id="New_Gradient_Swatch_90-3" x1="15.59" y1="105.27" x2="119.14" y2="105.27" xlink:href="#New_Gradient_Swatch_90"/><linearGradient id="New_Gradient_Swatch_90-4" x1="16.11" y1="157.11" x2="123.55" y2="157.11" xlink:href="#New_Gradient_Swatch_90"/><radialGradient id="radial-gradient" cx="82.56" cy="130.57" r="190.7" gradientUnits="userSpaceOnUse"><stop offset="0" stop-color="#a48a7b"/><stop offset="1" stop-color="#fff"/></radialGradient><linearGradient id="linear-gradient-2" x1="85.76" y1="181.41" x2="85.76" y2="7.3" gradientUnits="userSpaceOnUse"><stop offset="0" stop-color="#edd6b9"/><stop offset="1" stop-color="#d4b492"/></linearGradient><radialGradient id="radial-gradient-2" cx="29.89" cy="177.34" r="21.27" xlink:href="#radial-gradient"/><linearGradient id="linear-gradient-3" x1="36.42" y1="164.94" x2="29.16" y2="170.2" gradientUnits="userSpaceOnUse"><stop offset="0" stop-color="#edd6b9"/><stop offset="1" stop-color="#bf9f7e"/></linearGradient><radialGradient id="radial-gradient-3" cx="84.74" cy="92.7" r="128.8" gradientUnits="userSpaceOnUse"><stop offset="0" stop-color="#ca9e67"/><stop offset="1"/></radialGradient><radialGradient id="radial-gradient-4" cx="83.24" cy="92.8" r="109.84" xlink:href="#radial-gradient-3"/><radialGradient id="radial-gradient-5" cx="25.21" cy="171.27" r="19.13" gradientUnits="userSpaceOnUse"><stop offset="0"/><stop offset="1" stop-color="#a3805f"/></radialGradient><radialGradient id="radial-gradient-6" cx="105.59" cy="134.77" r="113.13" gradientUnits="userSpaceOnUse"><stop offset="0" stop-color="#fff"/><stop offset="1" stop-color="#a48a7b"/></radialGradient><radialGradient id="radial-gradient-7" cx="89.32" cy="-45.37" r="98.91" xlink:href="#radial-gradient"/><linearGradient id="New_Gradient_Swatch_92-5" x1="85.39" y1="168.66" x2="85.39" y2="146.14" xlink:href="#New_Gradient_Swatch_92"/><radialGradient id="New_Gradient_Swatch_91-5" cx="64.14" cy="145.34" r="61.11" gradientTransform="translate(3.72) scale(0.93 1)" xlink:href="#New_Gradient_Swatch_91"/><radialGradient id="New_Gradient_Swatch_88-10" cx="62.53" cy="144.43" r="21.12" gradientTransform="translate(3.72) scale(0.93 1)" xlink:href="#New_Gradient_Swatch_88"/><radialGradient id="New_Gradient_Swatch_88-11" cx="84.72" cy="143.59" r="46.35" gradientTransform="translate(3.72) scale(0.93 1)" xlink:href="#New_Gradient_Swatch_88"/><radialGradient id="radial-gradient-8" cx="87.42" cy="148.81" r="26.38" gradientTransform="translate(3.72) scale(0.93 1)" xlink:href="#New_Gradient_Swatch_90"/><linearGradient id="linear-gradient-4" x1="85.39" y1="166.05" x2="85.39" y2="147.5" gradientUnits="userSpaceOnUse"><stop offset="0" stop-color="#823b00"/><stop offset="1" stop-color="#692705"/></linearGradient><linearGradient id="New_Gradient_Swatch_89" x1="85.39" y1="164.94" x2="85.39" y2="148.62" gradientUnits="userSpaceOnUse"><stop offset="0" stop-color="#349400"/><stop offset="1" stop-color="#7bcf00"/></linearGradient><radialGradient id="radial-gradient-9" cx="87.64" cy="143.98" r="35.57" gradientTransform="translate(3.72) scale(0.93 1)" gradientUnits="userSpaceOnUse"><stop offset="0" stop-color="#73d439"/><stop offset="1" stop-color="#050f05"/></radialGradient><radialGradient id="radial-gradient-10" cx="87.66" cy="146.24" r="32.45" xlink:href="#radial-gradient-9"/><radialGradient id="radial-gradient-11" cx="66.93" cy="144.72" r="56.62" gradientTransform="translate(3.72) scale(0.93 1)" gradientUnits="userSpaceOnUse"><stop offset="0" stop-color="#73d439"/><stop offset="1"/></radialGradient><radialGradient id="radial-gradient-12" cx="105.03" cy="170.22" r="33.22" xlink:href="#radial-gradient-11"/><linearGradient id="linear-gradient-5" x1="60.64" y1="153.03" x2="76.61" y2="153.03" gradientUnits="userSpaceOnUse"><stop offset="0" stop-color="#b4ff87"/><stop offset="1"/></linearGradient><linearGradient id="linear-gradient-6" x1="113.06" y1="162.14" x2="136.55" y2="162.14" xlink:href="#linear-gradient-5"/><radialGradient id="radial-gradient-13" cx="141.76" cy="12.9" r="39.52" xlink:href="#radial-gradient"/><linearGradient id="linear-gradient-7" x1="134.67" y1="15.89" x2="121.62" y2="28.75" gradientUnits="userSpaceOnUse"><stop offset="0" stop-color="#bf9f7e"/><stop offset="1" stop-color="#edd6b9"/></linearGradient><radialGradient id="radial-gradient-14" cx="133.54" cy="1.15" r="32.94" xlink:href="#radial-gradient-5"/><linearGradient id="linear-gradient-8" x1="6.43" y1="45.88" x2="28.08" y2="37.13" gradientUnits="userSpaceOnUse"><stop offset="0" stop-color="#2e0103"/><stop offset="0.08" stop-color="#3e0506"/><stop offset="0.23" stop-color="#540a0b"/><stop offset="0.38" stop-color="#610e0e"/><stop offset="0.5" stop-color="#660f0f"/><stop offset="0.64" stop-color="#600e0e"/><stop offset="0.83" stop-color="#4f0b0b"/><stop offset="1" stop-color="#380808"/></linearGradient><linearGradient id="linear-gradient-9" x1="19.51" y1="40.78" x2="29.98" y2="40.78" gradientUnits="userSpaceOnUse"><stop offset="0" stop-color="#420000"/><stop offset="1" stop-color="#8a1f1f"/></linearGradient><linearGradient id="New_Gradient_Swatch_103" x1="3.47" y1="39.56" x2="15.02" y2="34.89" gradientUnits="userSpaceOnUse"><stop offset="0" stop-color="#660f0f"/><stop offset="0.39" stop-color="#c4353c"/><stop offset="0.48" stop-color="#ad292e"/><stop offset="0.67" stop-color="#841315"/><stop offset="0.81" stop-color="#6a0506"/><stop offset="0.9" stop-color="#610000"/></linearGradient><radialGradient id="radial-gradient-15" cx="4.23" cy="20.06" r="30.83" gradientUnits="userSpaceOnUse"><stop offset="0" stop-color="#ed6161"/><stop offset="1"/></radialGradient><linearGradient id="linear-gradient-10" x1="3.1" y1="38.6" x2="14.49" y2="34" gradientUnits="userSpaceOnUse"><stop offset="0.1" stop-color="#6b4200"/><stop offset="0.5" stop-color="#ffc261"/><stop offset="1" stop-color="#6b4200"/></linearGradient><linearGradient id="linear-gradient-11" x1="143.45" y1="37.13" x2="165.1" y2="45.88" gradientUnits="userSpaceOnUse"><stop offset="0" stop-color="#380808"/><stop offset="0.17" stop-color="#4f0b0b"/><stop offset="0.36" stop-color="#600e0e"/><stop offset="0.5" stop-color="#660f0f"/><stop offset="0.62" stop-color="#610e0e"/><stop offset="0.77" stop-color="#540a0b"/><stop offset="0.92" stop-color="#3e0506"/><stop offset="1" stop-color="#2e0103"/></linearGradient><linearGradient id="linear-gradient-12" x1="141.56" y1="40.78" x2="152.02" y2="40.78" gradientUnits="userSpaceOnUse"><stop offset="0" stop-color="#8a1f1f"/><stop offset="1" stop-color="#420000"/></linearGradient><linearGradient id="linear-gradient-13" x1="156.51" y1="34.89" x2="168.07" y2="39.56" gradientUnits="userSpaceOnUse"><stop offset="0.1" stop-color="#610000"/><stop offset="0.19" stop-color="#6a0506"/><stop offset="0.33" stop-color="#841315"/><stop offset="0.52" stop-color="#ad292e"/><stop offset="0.61" stop-color="#c4353c"/><stop offset="1" stop-color="#660f0f"/></linearGradient><radialGradient id="radial-gradient-16" cx="171.55" cy="19.21" r="30.62" xlink:href="#radial-gradient-15"/><linearGradient id="linear-gradient-14" x1="157.04" y1="34" x2="168.44" y2="38.6" gradientUnits="userSpaceOnUse"><stop offset="0" stop-color="#6b4200"/><stop offset="0.5" stop-color="#ffc261"/><stop offset="0.9" stop-color="#6b4200"/></linearGradient><radialGradient id="New_Gradient_Swatch_102" cx="-18.87" cy="39.86" r="106.84" gradientUnits="userSpaceOnUse"><stop offset="0.33" stop-color="#701d24"/><stop offset="0.37" stop-color="#cc4545"/><stop offset="0.38" stop-color="#b22e2e"/><stop offset="0.4" stop-color="#9c1919"/><stop offset="0.41" stop-color="#8c0b0b"/><stop offset="0.43" stop-color="#830303"/><stop offset="0.46" stop-color="maroon"/><stop offset="0.66" stop-color="#990d0d"/><stop offset="0.85" stop-color="#a81414"/><stop offset="1" stop-color="#ad1717"/></radialGradient><radialGradient id="New_Gradient_Swatch_102-2" cx="-87.15" cy="39.86" r="106.84" gradientTransform="matrix(-1, 0, 0, 1, 103.26, 0)" xlink:href="#New_Gradient_Swatch_102"/><linearGradient id="New_Gradient_Swatch_104" x1="11.84" y1="22.55" x2="85.84" y2="22.55" gradientUnits="userSpaceOnUse"><stop offset="0" stop-color="#d69705"/><stop offset="0.07" stop-color="#ffdd6e"/><stop offset="0.52" stop-color="#eba605"/><stop offset="1" stop-color="#ffd570"/></linearGradient><linearGradient id="linear-gradient-15" x1="85.84" y1="22.5" x2="159.86" y2="22.5" gradientUnits="userSpaceOnUse"><stop offset="0" stop-color="#ffd570"/><stop offset="0.48" stop-color="#eba605"/><stop offset="0.93" stop-color="#ffdd6e"/><stop offset="1" stop-color="#d69705"/></linearGradient><radialGradient id="radial-gradient-17" cx="85.77" cy="57.63" r="92.89" gradientUnits="userSpaceOnUse"><stop offset="0" stop-color="#d11919"/><stop offset="0.25" stop-color="#911115"/><stop offset="0.55" stop-color="#4a0911"/><stop offset="0.76" stop-color="#1e030e"/><stop offset="0.87" stop-color="#0d010d"/></radialGradient><linearGradient id="linear-gradient-16" x1="85.75" y1="140.22" x2="85.75" y2="119.27" xlink:href="#linear-gradient-2"/><linearGradient id="linear-gradient-17" x1="112.45" y1="138.59" x2="120.27" y2="125.05" gradientUnits="userSpaceOnUse"><stop offset="0" stop-color="#e86f0c"/><stop offset="0.69" stop-color="#fc940d"/><stop offset="1" stop-color="#e86f0c"/></linearGradient><radialGradient id="radial-gradient-18" cx="115.31" cy="129.55" r="7.34" gradientUnits="userSpaceOnUse"><stop offset="0" stop-color="#fff369"/><stop offset="0.11" stop-color="#faef67"/><stop offset="0.23" stop-color="#ede262"/><stop offset="0.36" stop-color="#d6cc58"/><stop offset="0.5" stop-color="#b7ae4b"/><stop offset="0.64" stop-color="#8e873b"/><stop offset="0.78" stop-color="#5c5826"/><stop offset="0.92" stop-color="#23210e"/><stop offset="1"/></radialGradient><radialGradient id="radial-gradient-19" cx="111.46" cy="129.05" r="10.65" gradientUnits="userSpaceOnUse"><stop offset="0.51" stop-color="#fff"/><stop offset="0.68" stop-color="#e6ddc3"/><stop offset="1" stop-color="#b09444"/></radialGradient><radialGradient id="radial-gradient-20" cx="110.04" cy="122.74" r="13.66" gradientUnits="userSpaceOnUse"><stop offset="0" stop-color="#fcf80d"/><stop offset="1" stop-color="#fc9c0d"/></radialGradient><radialGradient id="radial-gradient-21" cx="106.11" cy="121.39" r="16.69" gradientUnits="userSpaceOnUse"><stop offset="0" stop-color="#fcf80d"/><stop offset="1" stop-color="#f78a0c"/></radialGradient><radialGradient id="radial-gradient-22" cx="115.42" cy="130.96" r="9.64" gradientUnits="userSpaceOnUse"><stop offset="0.51" stop-color="#fff"/><stop offset="0.69" stop-color="#ffe2c3"/><stop offset="1" stop-color="#ffa84b"/></radialGradient><linearGradient id="linear-gradient-18" x1="107.74" y1="133.89" x2="113.75" y2="123.48" gradientUnits="userSpaceOnUse"><stop offset="0" stop-color="#fc940d"/><stop offset="1" stop-color="#e86f0c"/></linearGradient><radialGradient id="radial-gradient-23" cx="115.59" cy="131.36" r="9.35" xlink:href="#radial-gradient-19"/><radialGradient id="radial-gradient-24" cx="105.78" cy="121.58" r="12.43" xlink:href="#radial-gradient-18"/></defs><g style="isolation:isolate"><g id="Calque_2" data-name="Calque 2"><g id="Layer_1" data-name="Layer 1"><path d="M17.65,48.34c44.76.36,92.14-.82,136.39-.23a13,13,0,0,1,2.12,2c.08,7.58-.11,15.29-.44,23.11l-1.49,1.39,1.37,1.25c-.28,5.94-.63,11.94-1,18-11,1.27-126.74,0-134.62-1.15l-2.12-1.94c-1.31-10.61-.87-37.46-.21-42.39Z" style="fill-rule:evenodd;fill:url(#New_Gradient_Swatch_92)"/><path d="M153.6,71.22l2.12,2-1.49,1.39-.75-.69-.07,1.47-4.69,4.39-2.12-1.94q3.39-3.36,7-6.57Z" style="fill-rule:evenodd;fill:url(#linear-gradient)"/><path d="M18.38,2.38c4.74-1.23,93.36-1.53,135,2l2.12,1.94c.57,3.23,0,35.81-1.55,41.27-45.89,1.07-87.65.87-133.16-.28l-2.12-1.95c-.9-5.11-.13-17.23-.47-27.19a109.08,109.08,0,0,0,12.13-1.39l-1.6-.14c-3.59-.31-7.14-.62-10.6-.82L16,13.82c-.11-5.59,2-10.29,2.39-11.44Z" style="fill-rule:evenodd;fill:url(#New_Gradient_Swatch_92-2)"/><path d="M18.89,94.66c10.18-.84,112.88-1.39,134,.14a14.15,14.15,0,0,1,2.12,2c.94,5.22,1.52,33.47.85,43.63-45.89-.76-91.88-1.1-138,0a16.23,16.23,0,0,1-2.12-1.95c-.42-8.84,2.38-39.62,3.11-43.77Z" style="fill-rule:evenodd;fill:url(#New_Gradient_Swatch_92-3)"/><path d="M20.78,141.82c10.81-1,113.2-2.82,131.45-1.95a19.19,19.19,0,0,1,2.13,1.95c.41,6.14.69,12.28.88,18.42-4.27-.39-9-1.21-12.41-1.89,3.57,1.17,7.07,1.69,10.37,2.89l2.12,1.88c.19,7.95.23,15.9.17,23.86a312.51,312.51,0,0,1-34.82,2.22Q69.52,186.7,18.37,187A12.7,12.7,0,0,1,16.25,185c-.13-4.14,2-10.43,2.21-16.66,3.22.64,6.57,1.17,10,1.63l-4.56-1.63-5.39-1.91a17.76,17.76,0,0,1-2.12-2c.46-9.91,3.46-19.26,4.37-22.69Z" style="fill-rule:evenodd;fill:url(#New_Gradient_Swatch_92-4)"/><path d="M16.26.43c4.82-1.25,96.5.28,137.11,3.9.57,3.22,0,35.8-1.56,41.26-45.88,1.08-87.64.87-133.15-.28-1.12-2.39-2.19-17.13-2.59-29.14A111.76,111.76,0,0,0,28.2,14.79l-1.6-.14C23,14.33,19.45,14,16,13.82c-.18-6.66-.13-12.09.27-13.39Z" style="fill-rule:evenodd;fill:url(#New_Gradient_Swatch_91)"/><path d="M15.53,46.39c45.54.37,93.59,1.12,138.51,1.72.08,7.58-.11,15.29-.44,23.11-.95.86-1.9,1.73-2.83,2.6s-1.85,1.73-2.76,2.61l-1.41,1.36c2.32-1.3,4.62-2.61,6.88-3.92-.28,5.93-.63,11.93-1,18-11,1.27-126.75,0-134.62-1.14-1.4-8.21-3-39-2.33-44.34Z" style="fill-rule:evenodd;fill:url(#New_Gradient_Swatch_91-2)"/><path d="M18,42.23a119.78,119.78,0,0,0,13.83,3.39l-10.52-.24c-.95-.24-1.9-.5-2.85-.77A22,22,0,0,1,18,42.23ZM131.15,30.17a22.52,22.52,0,0,0-2.76-.49,15.38,15.38,0,0,0-2.54-.1,15.81,15.81,0,0,0-2.5.29,5.92,5.92,0,0,0-1.59.57,10.78,10.78,0,0,0-2.71,2,7.24,7.24,0,0,0-1,1.28,7.68,7.68,0,0,0-.7,1.44,4.31,4.31,0,0,0,.06,3.26,3.19,3.19,0,0,0,.91,1.25,7.56,7.56,0,0,0,1.88,1.16,10.66,10.66,0,0,0,2.29.72,19.11,19.11,0,0,0,3.12.36,15.08,15.08,0,0,0,2.93-.17,22.29,22.29,0,0,0,3.52-.85,20.12,20.12,0,0,0,3.23-1.38,4.84,4.84,0,0,0,1.43-1.17,4.34,4.34,0,0,0,.85-1.6,2.93,2.93,0,0,0,0-1.5,4.88,4.88,0,0,0-.71-1.51,8.06,8.06,0,0,0-1.38-1.54,7.14,7.14,0,0,0-1.64-1.1,14.21,14.21,0,0,0-2.68-.94ZM133,33.38c2.77,2.45.39,4.47-2.65,5.67a13.58,13.58,0,0,1-8.23.88,7.35,7.35,0,0,1-3.31-1.47,2.43,2.43,0,0,1-.74-1.75,4.18,4.18,0,0,1,.73-2.19,7.12,7.12,0,0,1,6.2-3.25c2.37-.09,6.17.49,8,2.11Zm20.35-7.86c-2.06-.54-4.21-1.09-6.5-1.6-6.31-1.42-12.26-2.89-18.66-2.85a42.92,42.92,0,0,0-23.93,7.3c-2.76,1.85-4.1,3.51-4.34,5.14a5.84,5.84,0,0,0,1.66,5,69.16,69.16,0,0,0,7.73,7.69l-3.71,0A81.48,81.48,0,0,1,99,39.49c-2-2.25-3-4.35-2.68-6.5.58-3.87,8.81-8,13.26-9.77,15.08-5.88,22.51-4.63,37.54-.49,2.1.58,4.18,1.14,6.23,1.66l0,1.13Zm.14-5.71c-2.52-.44-5-.88-7.41-1.28-22.57-3.71-30-4.07-52.6,5.92a32.82,32.82,0,0,0-9.38,6.07,3.65,3.65,0,0,0-.25,5.35,92,92,0,0,0,10.26,8.19c1.09.76,2.09,1.51,3,2.23H94.21c-.45-.32-.91-.65-1.38-1C88.7,42.4,83.15,38.5,81.3,36.56a5.1,5.1,0,0,1-1.07-1.69A4.87,4.87,0,0,1,79.9,33a4.5,4.5,0,0,1,.48-1.77,6.41,6.41,0,0,1,1.2-1.64c2.06-2,6.13-4.24,10.7-6.27a158.47,158.47,0,0,1,18.52-6.72c8.47-2.43,12.44-2,21-1.11,4.95.5,9.67,1.28,14.47,2.07,2.37.39,4.76.78,7.21,1.15,0,.38,0,.76,0,1.14Zm.09-6.64c-4.16-.61-8.32-1.25-12.48-1.82-7.09-1-15.57-3-22.52-1.8-10.36,1.77-26.65,9.9-37.53,14a115.2,115.2,0,0,0-12.68,5.27c-10,5.23-6.63,7.77,2.53,11.67,3.34,1.42,6.83,2.81,10,4.35.92.44,1.82.93,2.72,1.45l-5.65,0c-5.23-2.46-11.19-4.59-16-7.09-4-2.09-4.44-4.28-3.16-6.32,2.73-4.34,15.91-9.1,20.87-11,4.74-1.78,9.43-3.66,14.13-5.51,7.48-2.94,16.73-7.16,24.67-7.89,7.16-.66,15.62.81,22.81,1.8,4.11.56,8.21,1.12,12.31,1.62v1.28Zm0-4.46c-12.83-2.33-25-6.15-39.25-3.5-7.9,1.47-13.86,4.07-22.52,7.13-10.55,3.72-21.22,7.24-32,10.36-7,2-16.53,3.36-22.64,6.45-5.77,2.93-2.93,5.62,2.2,8.08C44.65,39.76,50.2,41.71,55.6,44c1.59.67,3.24,1.39,4.94,2.14l-6-.08-1.38-.58c-5.64-2.35-11.43-4.38-16.94-7a14.85,14.85,0,0,1-4.09-2.69c-3.29-3.33-.18-6.08,3.09-7.73,6.5-3.3,16.39-4.67,23.76-6.81C70.1,18,81.18,14.3,92.14,10.43c9.07-3.19,15.46-5.34,22-6.35s13.19-.87,22.75.5c5.56.79,11.09,1.82,16.65,2.65,0,.45,0,.95,0,1.48ZM16,12.22c3.51.4,7.11.89,10.75,1.2C42.81,14.83,53,15,68.51,9.46a79.37,79.37,0,0,1,14-3.86C89.19,4.44,95,2.81,101,1.43l6.21.24c-3.66.79-7.29,1.77-10.93,2.76-4.55,1.23-8.89,2.4-13.53,3.2A79,79,0,0,0,68.9,11.45c-15.65,5.57-26,4.62-42.3,3.2C23,14.33,19.45,14,16,13.82c0-.54,0-1.08,0-1.6Zm0-8.08c1.05.28,2.15.6,3.33,1,19.52,5.77,31.23-.89,49.85-3.81L73.41.6C77,.69,80.55.78,84.17.89c-5,.9-10,1.8-14.88,2.57C53.52,5.93,34.55,11.11,18.87,6.92c-1.05-.29-2-.54-3-.77q0-1.08,0-2Zm33.68-4a94.24,94.24,0,0,1-26-.08c6-.1,15.11-.07,26,.08ZM152.55,40.37c-1.56.35-3.23.73-5,1.14a78.24,78.24,0,0,0-9.38,3.07c-1.27.48-2.49.94-3.7,1.36l-5.64.09a47.5,47.5,0,0,0,7.56-2.6,68,68,0,0,1,8.88-3.11c2.7-.69,5.22-1.3,7.41-1.8-.05.65-.1,1.26-.16,1.85Zm-33.77,5.78c-.4-.15-.8-.32-1.19-.49a20.78,20.78,0,0,1-7-5c-1.69-1.92-2.51-3.93-2.14-5.6a3.45,3.45,0,0,1,.2-.62,13.81,13.81,0,0,1,4.87-5.21,24.41,24.41,0,0,1,7.69-3.57,24.81,24.81,0,0,1,7.1-.64,48.43,48.43,0,0,1,7.43,1c3.32.68,6.62,1.61,9.77,2.5l.16.05c2.69.75,5.22,1.41,7.5,2q0,1-.09,1.89L152,32.18c-5.77-1.56-11.75-4-17.52-5.3a40,40,0,0,0-6.75-1,20.56,20.56,0,0,0-6.31.6,23.09,23.09,0,0,0-7,3.76c-3.73,2.78-6,5.38-2.52,9.6a18.17,18.17,0,0,0,6.15,4.65A21.79,21.79,0,0,0,122.15,46l.41.09-3.78,0Z" style="fill:#b7805c;opacity:0.5;mix-blend-mode:multiply"/><path d="M39.37,37.23C44.65,39.76,50.2,41.71,55.6,44c1.59.67,3.24,1.39,4.94,2.14q8.71.1,17.4.15c-5.23-2.46-11.19-4.59-16-7.09-4-2.09-4.44-4.28-3.16-6.32,2.73-4.34,15.91-9.1,20.87-11,4.74-1.78,9.43-3.66,14.13-5.51,7.48-2.94,16.73-7.16,24.67-7.89,7.16-.66,15.62.81,22.81,1.8,4.11.56,8.21,1.12,12.31,1.62,0-1.16,0-2.23,0-3.18-12.83-2.33-25-6.15-39.25-3.5-7.9,1.47-13.86,4.07-22.52,7.13-10.55,3.72-21.22,7.24-32,10.36-7,2-16.53,3.36-22.64,6.45-5.77,2.93-2.93,5.62,2.2,8.08Z" style="fill-rule:evenodd;mix-blend-mode:multiply;fill:url(#New_Gradient_Swatch_88)"/><path d="M26.7,13.42C42.81,14.83,53,15,68.51,9.46a79.37,79.37,0,0,1,14-3.86c5.65-1,10.68-2.3,15.71-3.52L101,1.43c-5.59-.2-11.22-.38-16.79-.54l-5.24.94C75.68,2.4,72.45,3,69.29,3.46,53.52,5.93,34.55,11.11,18.87,6.92l-.44-.12c-.89-.24-1.73-.45-2.53-.65,0,1.76,0,3.83,0,6.07l2.16.25c2.82.34,5.69.7,8.59.95Z" style="fill-rule:evenodd;mix-blend-mode:multiply;fill:url(#New_Gradient_Swatch_88-2)"/><path d="M16.77,92.72c10.61-.89,121.65.46,136.12,2.08.94,5.23,1.52,33.47.85,43.63-45.89-.76-91.88-1.09-138,0-.87-3,.16-41.05,1-45.71Z" style="fill-rule:evenodd;fill:url(#New_Gradient_Swatch_91-3)"/><path d="M17.52,138.39l-1.81-.31a2.15,2.15,0,0,0,.07.35l1.74,0Zm136.39-3.66A308.22,308.22,0,0,0,121.44,138l15.95.2c5.5-.61,10.93-1.15,16.45-1.58,0-.59,0-1.22.07-1.87Zm.1-5-.84.08c-19.87,2-40,4.11-59.59,8l10.93.07c16.46-3,31.61-4.81,48.8-6.53l.68-.06c0-.5,0-1,0-1.53Zm0-5.88c-3.35.75-6.85,1.48-10.77,2-11.51,1.59-19,.91-32.28,3.85-9.74,2.14-19.46,4.43-29.29,5.69-6.55.85-13.1,1.71-19.67,2.38q9.42,0,18.83,0l1.08-.14c16.31-2.09,32.27-6.61,48.52-9,4.33-.65,8.73-.43,13.06-1,3.63-.5,7.09-1.14,10.52-1.78v-1.92ZM39.39,138c-8-1-15.11-2.94-23.91-4.07,0,.86,0,1.62.07,2.27,4.54.55,9.06,1.24,13.58,2L39.39,138ZM154,116.69l-1.78.23c-11.57,1.54-24.19,3.45-35.39,6.14-4,1-7.1,1.93-10,2.84a80.27,80.27,0,0,1-17.89,3.89c-4.79.49-9.61.69-14.4,1.14-12.7,1.22-23.17,3.71-36.36,2.12-3.55-.43-7.08-1.59-10.64-2-4-.47-8-.77-12-1,0,.73,0,1.43,0,2.1q6,.24,11.91.62c3.54.23,7,1,10.56,1.37,13.32,1.61,23.74,0,36.55-1.26,4.8-.45,9.62-.3,14.41-.8a80.65,80.65,0,0,0,18.17-3.95c13.41-4.17,22.07-6.57,36.43-8.48,3.51-.46,7-.84,10.49-1.14l0-1.84Zm-.1-4.82q-5.83.76-11.67,1.69a212.74,212.74,0,0,0-29.44,6.3c-6.79,2.06-14.31,4.77-21.16,6.17s-17.08,2.18-24.4,2.58c-6.57.35-12.78,1.55-18.73,1.54-6.86,0-13.61-1.12-20.5-1.74-4.29-.39-8.36-.82-12.49-1.2,0,.55,0,1.09,0,1.62,4.15.21,8.28.51,12.39.87,6.89.61,13.67,1.7,20.66,1.71,6,0,12.23-1.33,18.87-1.68,7.4-.4,17.64-.2,24.72-1.64,6.9-1.4,14.22-4.87,21.07-6.94a180.7,180.7,0,0,1,21.71-4.66c6.1-1,12.55-1.88,19-2.59,0-.68,0-1.36-.05-2Zm-.15-5.11q-5.53.78-11.16,1.54a130.65,130.65,0,0,0-14.71,2.53c-4.92,1.23-9.69,2.94-14.45,4.65-8.15,2.93-16.67,6-25.13,7.81-6,1.3-11.14,1.47-17.13,1.92-4.39.34-8.75.57-13.16.8-6.73.37-15.86-.34-25.53-1-5.63-.36-11.42-.83-16.94-1.26,0,.58,0,1.15,0,1.71,5.65.28,11.35.65,16.92,1,8.75.61,16.71,1.48,25.65,1,4.42-.23,8.78-1,13.19-1.37,6.06-.46,11.86.4,18-.93,13.39-2.89,25.81-10.06,38.62-13.27,5.94-1.49,15.47-2.84,25.9-3.93,0-.43,0-.85,0-1.27Zm-.29-6.28c-3.32.8-6.81,1.62-10.55,2.46a244.62,244.62,0,0,0-25.36,6.64c-7.33,2.45-14.51,5.91-21.59,8.24-25.28,8.29-36.17,5.67-57.07,4-7.71-.63-15.54-1.52-23.28-2.16l0,1.88c7.77.49,15.6,1.18,23.19,1.8,21.07,1.73,35.48,3.32,58-4,3.87-1.26,7.64-2.65,11.4-4.05,12.1-4.49,22.42-8,35-10.78,3-.69,6.6-1.52,10.31-2.4,0-.53-.05-1-.08-1.55Zm-3-5.89c-4.18,1.26-8.36,2.53-12.6,3.74-16.44,4.67-32,13.08-47.14,17.59-6.76,2-14.6,2.38-21.65,2.8-23,1.36-37.72-1.19-53.32-3.06,0,.79,0,1.58-.05,2.36,6,.77,11.94,1.55,17.91,1.88a334.22,334.22,0,0,0,35.53.34c7.18-.37,15-1.09,21.88-3.14,5.24-1.56,10.11-4.08,15.23-6,10.68-3.94,21.27-7.66,32.23-10.78,5.05-1.43,9.87-2.89,14.68-4.33-.05-.49-.11-.9-.17-1.23-.65-.07-1.51-.14-2.53-.21ZM78.47,92.76c-5.54,2-11.78,2.42-19.13.58-1.1-.27-2.17-.54-3.2-.82l-6.58,0,9.23,2.89c10.4,3.24,18.9,1.76,26.46-2.52l-6.78-.09ZM96,93c-5.61,3.93-12,6.88-24.89,8.5-7.69,1-19.93-2.64-32.94-5.13a192.32,192.32,0,0,0-21.46-3.14c-.07.6-.15,1.44-.22,2.47,7,.46,14.06,1.45,21.08,2.56,11,1.73,21.87,5,33.16,4.53C84,102.21,91.27,98.47,99,93.07L96,93Zm15,.28a108.08,108.08,0,0,1-12.7,8.17C83,109.4,69.85,109.89,50,107.76c-11.43-1.22-22.55-4.26-33.87-5.68,0,.91-.08,1.86-.12,2.84,11.37,1.43,22.64,3.93,34.08,4.87,18.83,1.56,32.57,1.75,48.94-6.72,3.86-2,7.48-4.29,11.09-6.58,1.71-1.08,3.39-2.11,5.07-3.11L111,93.29Zm22.19.56c-20.54,9.6-43.26,19.93-60.8,20.63-16.87.67-37.22-3-56.55-5,0,.67-.05,1.34-.07,2,19.13,1.76,38.8,5.07,56.68,4.36,13.92-.55,27.78-4.76,40.25-10.23,6.54-2.87,12.87-6.16,19.42-9q3-1.34,6.07-2.62l-5-.16Z" style="fill:#b7805c;opacity:0.5;mix-blend-mode:multiply"/><path d="M70.71,102.8c-11.29.51-22.15-2.8-33.16-4.53-7-1.11-14-2.1-21.08-2.56-.12,1.68-.24,3.87-.36,6.37,11.32,1.42,22.44,4.46,33.87,5.68,19.87,2.13,33,1.64,48.31-6.3A108.08,108.08,0,0,0,111,93.29l-12-.22c-7.73,5.4-15,9.14-28.29,9.73Z" style="fill-rule:evenodd;mix-blend-mode:multiply;fill:url(#New_Gradient_Swatch_88-3)"/><path d="M132.11,96.63c-6.55,2.87-12.88,6.16-19.42,9-12.47,5.47-26.33,9.68-40.25,10.23-17.88.71-37.55-2.6-56.68-4.36,0,1.37-.08,2.75-.11,4.13,15.6,1.87,30.33,4.42,53.32,3.06,7-.42,14.89-.78,21.65-2.8,15.17-4.51,30.7-12.92,47.14-17.59,4.24-1.21,8.42-2.48,12.6-3.74-2.83-.2-7-.39-12.18-.58q-3,1.29-6.07,2.62Z" style="fill-rule:evenodd;mix-blend-mode:multiply;fill:url(#New_Gradient_Swatch_88-4)"/><path d="M18.66,139.87c11.38-1.07,124.36-1,133.57,0,.42,6.14.7,12.28.89,18.42-4.28-.39-9-1.21-12.41-1.89,4.23,1.65,8.46,3.16,12.48,4.77.2,8,.24,15.91.18,23.86a307.94,307.94,0,0,1-34.82,2.22Q67.4,184.75,16.25,185c-.26-4-.2-11.13.09-18.61,3.22.64,6.57,1.18,10,1.63l-4.55-1.62-5.39-1.92c.45-10.4,1.29-21,2.25-24.64Z" style="fill-rule:evenodd;fill:url(#New_Gradient_Swatch_91-4)"/><path d="M110.34,47.51c-.63.27-1.27.54-1.93.79a53.44,53.44,0,0,1-31,2.39c-3.85-.84-6.14-2.07-7.25-3.72l-4.81-.06a6.78,6.78,0,0,0,.78,2c2.47,4.2,13.93,5.29,19.86,5.28,13.07,0,21-2,29.2-6.64l-4.84-.07Zm12.15.17C103.74,58.41,94,61.24,66.81,60.09a41.53,41.53,0,0,1-13.67-2.76c-2.52-1.08-3.81-3.47-2.78-6.06a46.79,46.79,0,0,1,2.24-4.51l-2.9,0a40.3,40.3,0,0,0-2.61,4.9,6.37,6.37,0,0,0-.44,2.43,6.19,6.19,0,0,0,.51,2.35,5.7,5.7,0,0,0,1.39,1.83,7.91,7.91,0,0,0,2.14,1.35C54,61,59.74,61.71,66,62a198.32,198.32,0,0,0,24.5-.61c10.9-1,15.27-3.34,24.77-8.24,3.38-1.74,6.6-3.56,9.79-5.42l-2.54,0Zm15.48.21c-3.37,1.94-6.73,3.89-10.13,5.79-7.72,4.32-16.56,10.47-25.13,12.25-12.76,2.64-35.36.62-49.82.83a147.13,147.13,0,0,1-17.08-.35c-14-1.51-11.28-6-2.54-14.6,1.74-1.72,3.55-3.46,5.3-5.2l-4.4,0c-3.7,3.65-7.53,7.26-10.61,10.82-3.65,4.22-3.12,6.94-.68,8.72,5.17,3.77,22.59,3.3,29.19,3.21,6.3-.09,12.58,0,18.87,0,10,0,22.64.7,32.14-2,8.57-2.48,17.64-8,25.47-12.39,4.16-2.33,8.3-4.65,12.47-6.91l-3.05,0Zm10.59.15c-15.89,9-28.87,21-48.72,24.82-9.8,1.88-17.89,1.57-29.31,2-13.91.48-27.87,1.24-41.74,2.51-3.73.34-7.92,1-12.16,1.64.06.7.11,1.38.17,2,4.06-.6,8.05-1.22,11.67-1.55,14.41-1.32,28.9-2.11,43.34-2.61,12-.41,20.32-.83,28.34-2.62s15.63-5,26-10.86c8.9-5.05,17.48-10.66,26.62-15.29L148.56,48ZM24.93,91.13A100.75,100.75,0,0,1,45,88.67a100.14,100.14,0,0,0,18-1.88c16.25-3.31,29.51-3,46.05-9C119.59,74,130.46,67.5,140.33,62c4.54-2.55,9.08-5.09,13.72-7.57,0-.89,0-1.76,0-2.64-5,2.66-9.89,5.4-14.78,8.14C129.49,65.38,119,72.64,108.49,76.4c-9.41,3.38-19.24,4.46-29.15,5.53-5.81.64-11.37,1.26-17.1,2.42A98.18,98.18,0,0,1,44.53,86.2a85.24,85.24,0,0,0-26.11,4.59c1.19.11,3.43.23,6.51.34Zm49.94,1C84,90,93,87.68,101.07,85.28c10.15-3,20.14-8.27,29.39-13.33,3.84-2.1,7.68-4.28,11.5-6.45,4-2.28,8-4.53,12-6.73,0-.87,0-1.74,0-2.6-4.42,2.38-8.75,4.84-13.11,7.31C128.83,70.35,113.47,80,100.61,83.83,89.69,87.05,77,89.5,64.55,92l10.32.13Zm17.5.17a116.14,116.14,0,0,0,19.28-6.15A283.79,283.79,0,0,0,137,73.21c5.6-3.1,11.23-6.24,16.91-9.29,0-.78,0-1.55.07-2.33-6.08,3.44-12,7-17.72,10.29a230.54,230.54,0,0,1-25,13.14c-8.52,3.65-16.92,5.36-25.71,7.19l6.86.06Zm13.57.09c1.48-.49,2.94-1,4.39-1.56,12.32-4.66,24.8-11.68,36.46-17.83l6.88-3.62c0-.84.07-1.68.1-2.52-15.18,8.39-30.21,17-44.12,22.27q-4.62,1.74-9.37,3.23l5.66,0Zm15.41,0c10.77-4.68,21.6-10.15,32-15.5q.07-1.53.15-3A342.47,342.47,0,0,1,117.42,92.4Zm16.39-.07.62-.31c4.61-2.26,9-4.43,13.23-6.56l1.31-.66c0-.75.09-1.5.13-2.24-.76.37-1.53.75-2.29,1.14-4.32,2.15-8.72,4.35-13.22,6.56l-4.36,2.1,4.58,0Z" style="fill:#b7805c;opacity:0.5;mix-blend-mode:multiply"/><path d="M71.81,76.86c-14.44.5-28.93,1.29-43.34,2.61-3.62.33-7.61,1-11.67,1.55.34,4.15.71,7.64,1.06,9.71.94.13,3.42.27,7.07.4-3.08-.11-5.32-.23-6.51-.34A85.24,85.24,0,0,1,44.53,86.2a98.18,98.18,0,0,0,17.71-1.85c5.73-1.16,11.29-1.78,17.1-2.42,9.91-1.07,19.74-2.15,29.15-5.53,10.47-3.76,21-11,30.79-16.51,4.89-2.74,9.76-5.48,14.78-8.14,0-1.22,0-2.43,0-3.64l-1.26,0c-9.14,4.63-17.72,10.24-26.62,15.29-10.38,5.9-18,9.06-26,10.86s-16.39,2.21-28.34,2.62Z" style="fill-rule:evenodd;mix-blend-mode:multiply;fill:url(#New_Gradient_Swatch_88-5)"/><path d="M77.4,50.69a53.44,53.44,0,0,0,31-2.39c.66-.25,1.3-.52,1.93-.79C97,47.32,83.57,47.14,70.15,47c1.11,1.65,3.4,2.88,7.25,3.72Z" style="fill-rule:evenodd;mix-blend-mode:multiply;fill:url(#New_Gradient_Swatch_88-6)"/><path d="M35.46,185c-1.3-.28-2.62-.54-3.95-.79-4.91-.92-10.3-1.72-15.4-2.78,0,.71,0,1.38.06,2,3.86.6,7.87,1,11.69,1.55l7.6,0Zm20.8.22c-2.35-.77-4.71-1.48-7.12-2.05a151.77,151.77,0,0,0-15-2.54c-5.95-.8-12.08-1.64-18.07-2.83,0,.7,0,1.38,0,2,10.89,1.8,22.21,1.88,32.52,4.34,1.12.26,2.36.59,3.68,1l4,.06Zm19.77.41c-3.12-.77-6.39-1.6-9.85-2.52a245.5,245.5,0,0,0-25.58-5.79c-7.64-1.21-15.63-1.45-23-2.66l-1.48-.25c0,.56,0,1.11,0,1.65l1.55.26c4,.67,8,1.17,12,1.66a258,258,0,0,1,36.09,6.59l3.43.9,6.85.16Zm34.84,1.24-.12,0c-15.47-4.76-31.1-6.91-46.89-10.15S31.17,173.54,16.19,171l0,1.18c4.53.62,9.13.73,13.67,1.31,11.31,1.44,22.45,3,33.61,5.3,12.39,2.54,23.68,4.32,36.25,7.52l.51.13c3.56.14,7.11.29,10.67.45ZM41.31,139.3c-.35.17-.73.34-1.14.5-7.72,3-15.14,5.11-22.33,5-.11.9-.22,1.88-.32,2.92,7.89.26,16.21-2.1,24.9-5.42a14.4,14.4,0,0,0,5.13-3.06l-6.24.07Zm22.14-.17c.26.66.48,1.28.66,1.84a4.57,4.57,0,0,1-2.9,6c-2.85,1-10.25,2.35-16.09,3.13-11.14,1.48-17.28,4.25-28,2.54,0,.57-.09,1.16-.13,1.75,9.51,1.41,17.53-.68,28.81-2.18,6.26-.84,14.65-1.95,17.83-3A6.45,6.45,0,0,0,65.77,148a5.9,5.9,0,0,0,1.49-1.9,5.44,5.44,0,0,0,.52-2.23,7.41,7.41,0,0,0-.34-2.47,15.42,15.42,0,0,0-.89-2.23Zm11.74,0a99.35,99.35,0,0,1,7.17,9c7.91,11.46,2.69,12.3-9.66,11.35-4.5-.34-9.15-.81-13.51-.92-10.19-.26-21.2,2.83-31.7,2.81a68.07,68.07,0,0,1-10.88-.86c0,.59-.07,1.18-.09,1.77a68.52,68.52,0,0,0,10.84.84c4.36,0,8.65-.35,12.93-.71a179.08,179.08,0,0,1,20.08-.64c7.52.19,15.82,1.38,22.93,1.38,5.64,0,7.4-2.15,7.2-5.13-.31-4.7-6.83-12.95-11.94-18.88Zm12.85,0q3.63,3.61,7.34,7.17c6.45,6.2,16.14,13.13,21,20,4.61,6.51-.1,7.84-7.18,7.61-7.28-.23-14.52-1.27-21.78-1.88-20.53-1.72-49-1.19-71.1-5.58,0,.7-.06,1.39-.08,2.07a136.25,136.25,0,0,0,22,3.16c7.15.47,14.31.48,21.46,1,9.88.66,19.74,1.61,29.62,2.44,7.58.64,15.13,1.71,22.73,2a18.67,18.67,0,0,0,6.08-.62c5.58-1.76,3.78-6.56,1.18-10.24-5.19-7.33-15.24-14.49-22.06-21q-3.11-3-6.18-6Zm65.15,22.08c-5.13-2-10.62-3.95-16-6.18-12.25-5.07-21.34-9.27-30.07-15.86h-3.85c9.76,7.56,19.75,11.66,33.31,17.27,5.76,2.38,11.44,4.73,16.68,7.28l-.06-2.5Zm-.36-10.57-2.56-.51a64.15,64.15,0,0,1-25.66-10.84l-2.44,0c8.69,6,17.84,11,27.45,13.1l3.32.76c0-.82-.07-1.65-.11-2.48Zm-.55-10-2.8-.91c-1.86-.08-4.45-.16-7.61-.22,3.59,1.5,7.1,2.79,10.6,4.1-.06-1-.12-2-.19-3Z" style="fill:#b7805c;opacity:0.5;mix-blend-mode:multiply"/><path d="M27.49,161.32c10.5,0,21.51-3.07,31.7-2.81,4.36.11,9,.58,13.51.92,12.35.95,17.57.11,9.66-11.35a99.35,99.35,0,0,0-7.17-9l-8.64,0a15.42,15.42,0,0,1,.89,2.23,7.41,7.41,0,0,1,.34,2.47,5.44,5.44,0,0,1-.52,2.23,5.9,5.9,0,0,1-1.49,1.9,6.45,6.45,0,0,1-2.16,1.24c-3.18,1.08-11.57,2.19-17.83,3-11.28,1.5-19.3,3.59-28.81,2.18-.13,1.95-.26,4-.36,6.06a68.07,68.07,0,0,0,10.88.86Z" style="fill-rule:evenodd;mix-blend-mode:multiply;fill:url(#New_Gradient_Swatch_88-7)"/><path d="M112,177c-7.6-.25-15.15-1.32-22.73-2-9.88-.83-19.74-1.78-29.62-2.44-7.15-.48-14.31-.49-21.46-1a136.25,136.25,0,0,1-22-3.16c0,.85-.05,1.68-.07,2.51,15,2.54,31.77,2.45,47.67,5.71s31.42,5.39,46.89,10.15l.12,0,7.68.36A307.94,307.94,0,0,0,153.37,185c0-7.12,0-14.24-.12-21.36-5.24-2.55-10.92-4.9-16.68-7.28-13.56-5.61-23.55-9.71-33.31-17.27-4,0-8.09,0-12.21,0q3.08,3,6.18,6c6.82,6.55,16.87,13.71,22.06,21,2.6,3.68,4.4,8.48-1.18,10.24A18.67,18.67,0,0,1,112,177Z" style="fill-rule:evenodd;mix-blend-mode:multiply;fill:url(#New_Gradient_Swatch_88-8)"/><path d="M124.61,139.25a64.15,64.15,0,0,0,25.66,10.84l2.56.51q-.15-3.51-.36-7c-3.5-1.31-7-2.6-10.6-4.1-4.66-.1-10.56-.17-17.26-.23Z" style="fill-rule:evenodd;mix-blend-mode:multiply;fill:url(#New_Gradient_Swatch_88-9)"/><path d="M17.77,1.37c34,1.1,69.09,1,103.41.91C77.1.18,20-.55,16.26.43a18.62,18.62,0,0,0-.33,3.71c1.05.28,2.15.6,3.33,1A53,53,0,0,0,31.84,7.3,90.47,90.47,0,0,1,17.63,3.42a6.83,6.83,0,0,1,.14-2Z" style="fill-rule:evenodd;mix-blend-mode:screen;fill:url(#New_Gradient_Swatch_90)"/><path d="M16.83,47.59q10.11.36,20.26.48l-3.82,3.74c-8.74,8.64-11.47,13.09,2.54,14.6a147.13,147.13,0,0,0,17.08.35c1.49,0,3.06,0,4.7,0-2.23-.08-4.47-.15-6.7-.2-3.84-.09-24.62.28-24.54-5.18,0-3.41,6.65-8.31,9.26-10.47C36.77,50,38,49,39.14,48.09c23.17.26,46.45-.2,69.57-.6-22.49-.31-45.27-.62-67.71-.86H38.57q-11.59-.12-23-.22c-.44,3.31,0,16.22.75,27.58.14-7.9,1.14-19.4.55-26.38Z" style="fill-rule:evenodd;mix-blend-mode:screen;fill:url(#New_Gradient_Swatch_90-2)"/><path d="M18.88,94.47l7.28-.16c3.92.57,7.89,1.28,12,2.07,12.76,2.44,24.79,6,32.5,5.18A72.78,72.78,0,0,1,54,99.25c-7-1.7-13.81-3.44-20.72-5.06,28.65-.47,57.23-.42,85.89-.72-31.14-.73-74.42-1.18-93.5-1H23.58l-4.2.09h0l-.65,0h0l-1.1,0h0l-.83.06s0,.07,0,.11h0a.37.37,0,0,0,0,.12h0s0,.08,0,.11h0s0,.07,0,.1h0c-.42,3.33-.87,14.46-1.1,24.87.94-8,1.84-15.93,3.29-23.64Z" style="fill-rule:evenodd;mix-blend-mode:screen;fill:url(#New_Gradient_Swatch_90-3)"/><path d="M17.28,166.61h-.94c-.12,3-.2,6-.23,8.72q.57-3.81,1.05-7.57c3.17.27,6,.43,9.19.48-3.1-.41-6.14-.89-9.07-1.44ZM69.14,143a8.67,8.67,0,0,0-.58-2.1c18.29-.29,36.56-.72,55-1.66-16.3-.15-37-.19-55.81-.12H66.55c-23.33.08-43.43.33-47.89.75-1,3.6-1.8,14.24-2.25,24.64l1.08.39c.94-7.74,1.66-15.44,2.45-23.34,15.89-.27,31.64-.4,47.36-.64,0,.14.1.28.14.43a7.41,7.41,0,0,1,.34,2.47,5.44,5.44,0,0,1-.52,2.23,5.9,5.9,0,0,1-1.49,1.9,6.45,6.45,0,0,1-2.16,1.24c-3.18,1.08-11.57,2.19-17.83,3-2.93.39-5.64.81-8.21,1.21,6.48-.66,13-1.4,19.37-2.26,4.58-.62,13-1.8,12.2-8.17Z" style="fill-rule:evenodd;mix-blend-mode:screen;fill:url(#New_Gradient_Swatch_90-4)"/><path d="M115.8,6.22c-6.93-2.35-57.63-1.85-85.93.21a3.68,3.68,0,0,0-3.41,3.76c.05,2,.08,3.75.13,6.37l10.12,1.22-10,2.1q.53,28.8.18,57.91l5.35,2.07-5.4,1.65c-.41,27.59-1.46,55.25-3.25,82.73a43.72,43.72,0,0,0,7.84,17.88,3.62,3.62,0,0,0,3.35,1.46c12.28-1.35,73.87-.71,102.34,1.71a1.84,1.84,0,0,0,2-1.87q-.3-12.33-.36-24.63l-3.86-2.64,1.84-2.31-.27-1.83,2.27-1.51q0-43.09,2.83-85.77l-2.91-1.66,1.56-2.72L136,58.07l6-1.37c.84-11.8,1.82-22.5,3-34.25-5.85-4.33-25.64-15-29.25-16.23Z" style="fill-rule:evenodd;mix-blend-mode:multiply;fill:url(#radial-gradient)"/><path d="M118.41,9.54C110.78,7.45,54.64,6.69,25,7.84q.18,5.69.32,11.38l10.57,1.19-10.49,2Q26,50,25.72,77.89l5.6,2-5.64,1.57c-.35,26.44-1.38,52.94-3.17,79.27L35.4,180c1.83.85,77.45,1.61,107.8,1.39q-.39-12.8-.5-25.57l-4-2.54,1.91-2.21-.28-1.75,2.36-1.44q-.09-41.3,2.74-82.19l-3.05-1.59L144,61.47l-4.32-2.2L146,58q1.29-17,3.06-33.85v0L118.41,9.54Z" style="fill-rule:evenodd;fill:url(#linear-gradient-2)"/><path d="M22.51,160.73c3,1.57,17.73,7.15,18.3,8.52.45,1.08-4.93,8.66-5.41,10.73L22.51,160.73Z" style="fill-rule:evenodd;mix-blend-mode:multiply;fill:url(#radial-gradient-2)"/><path d="M22.51,160.73c5.23,2.54,10.49,5,15.51,8A113,113,0,0,0,35.4,180c-1.31,0-12.94-17.85-12.89-19.25Z" style="fill-rule:evenodd;fill:url(#linear-gradient-3)"/><path d="M125.89,27.88c3.08,3.13,5.67,6.7,5.58,9.83-.29,9.51,11.11,4.2,7.31,17.52-2.2,7.72,3.16,9,2.46,15-.49,4.3-4.11,5.38-4.84,12.71-.74,7.54-.5,18.12,1.83,21.64,5.35,8-2.65,21.36-.82,29.18a95.15,95.15,0,0,1,2.3,18.35l-1,1.2,1,.65a12.94,12.94,0,0,1-.54,3.77c-2.55,6.6-4.26,1.89-7.28,10.61-2,5.65-8.55,6.57-15.32,5.58-10.87-1.59-18.2-8.69-27.45-8.7-8.16,0-11.7,7-20.22,7.92-5,.54-10.08-.9-15.27.68-11.82,3.59-5.81-12.1-20.09-14.83-10.28-2-1.73-23.55-1.56-29.48.49-16.11-4.32-16.34-3-36.1.26-3.88,2.9-6,.32-12.9l2.06-.57L28.73,79c-3.08-10.57,8-23.36,3.12-41.36-1.62-6-2.47-11.6-1.86-16.07l5.89-1.12-5.55-.63c1.43-5.81,5.92-9.28,15.38-8.59C64.12,12.56,69.47,14.43,87.15,18c6.26,1.28,13.56,2.5,19.3,3.05,10.8,1,14.16,1.41,19.44,6.79Z" style="fill-rule:evenodd;opacity:0.5;mix-blend-mode:screen;fill:url(#radial-gradient-3)"/><path d="M107.21,27.81c12.22.18,21.36,7.89,22,20.75.44,9,9.88,12.55-2,28.88-6.24,8.55,8.45,24.3,3.78,34.51-3.78,8.23,3.58,13.93,1.17,21-2.72,7.93,6.81,15.59-1.41,24.69-7.51,8.31-10.33,12.67-23.68,8.43-2.69-.85-12.52-4.44-22.4-1.9-1.63.42-4.78,1-7.72,1.8-22.59,5.87-10.88-4.4-27.64-5.5-4.34-.29-4.12-4.3-7.66-4.7-11.19-1.24-9-14.78-4.49-24.12,3-6.22,2.35-14.32-1-21-8.76-17.82-.43-28.45,7.1-37.8C48,66.87,43,50.19,41.24,45c-4.06-12.13,1.58-13.54,6-22.87C50,16.22,63.61,17.05,68.6,21.05c9.89,7.91,34.86,6.7,38.61,6.76Z" style="fill-rule:evenodd;opacity:0.5;mix-blend-mode:screen;fill:url(#radial-gradient-4)"/><path d="M35.88,169.91c-1.45-3.64-8.18-6.4-12.27-7.54l-.47-.13a4.82,4.82,0,0,1-.63-1.51l.42.2c5.1,2.47,10.21,4.91,15.09,7.78A113,113,0,0,0,35.4,180a.67.67,0,0,1-.35-.2l.08-.21c.92-2.54,1.74-7.18.75-9.66Z" style="fill-rule:evenodd;mix-blend-mode:screen;fill:url(#radial-gradient-5)"/><path d="M125.37,180.34c12.75-.12,16.44-7.18,17.45-15.38q.13,8.21.38,16.41c-23.07.17-72.31-.23-95.4-.81,18.14-.79,24.34-2.83,40-5.64,10.7-1.92,12.61-.35,22.77,3a43.25,43.25,0,0,0,14.79,2.46Z" style="fill-rule:evenodd;opacity:0.4;mix-blend-mode:multiply;fill:url(#radial-gradient-6)"/><path d="M116.3,9.15c-4.06.29-9.35,1.61-14,2.55a34.06,34.06,0,0,1-14.74-.08A271.15,271.15,0,0,0,55.2,7.31c25.06-.07,52.23.6,61.1,1.84Z" style="fill-rule:evenodd;opacity:0.35000000000000003;mix-blend-mode:multiply;fill:url(#radial-gradient-7)"/><path d="M59.24,146.14l52.31.53c5.62,0,10.22,4.94,10.22,11s-4.6,11-10.22,11l-52.31-.53A10.34,10.34,0,0,1,50.12,162a4.59,4.59,0,0,1,1.32-.77,4.51,4.51,0,0,0-1.51.36,11.33,11.33,0,0,1-.91-4.47c0-6,4.6-11,10.22-11Z" style="fill-rule:evenodd;fill:url(#New_Gradient_Swatch_92-5)"/><path d="M59.24,146.11l52.31.53A10.34,10.34,0,0,1,121.77,157a10.52,10.52,0,0,1-10.22,10.4l-52.31-.52a10.38,10.38,0,0,1-8.69-5,4.09,4.09,0,0,1,1.77-.87c-.69.07-1.39.15-2.12.25A10.19,10.19,0,0,1,49,156.51a10.34,10.34,0,0,1,10.22-10.4Z" style="fill-rule:evenodd;fill:url(#New_Gradient_Swatch_91-5)"/><path d="M118.23,164.79c-3.58.07-5.89,1.19-9.45,1.73-2.87.43-44.9-.22-47.95.4h3.73l.59-.11c1.21-.19,42.49.4,43.7.22s2.11-.37,3.13-.58a36.73,36.73,0,0,1,5-.74,12.3,12.3,0,0,0,1.23-.92Zm1.62-1.78-1.42.09c-1.41.09-2.81.21-4.2.34-1,.1-2,.22-3,.36-3.23.47-46.81.53-49.93,1.34-1.11.29-2,.59-2.8.87-.61.2-1.18.4-1.8.57a8.36,8.36,0,0,0,1.41.27l.47-.16c3.75-1.27,46.22-1.47,50.23-2.05a94.35,94.35,0,0,1,10.3-.77,9.72,9.72,0,0,0,.7-.86Zm.93-1.56c-2.13.08-4.49.26-6.27.46-2,.23-4,.53-6,.87-2.84.49-45.52.48-48.27,1.39-1.69.56-3.55,1.28-5.29,1.73.29.14.59.27.89.38,1.51-.5,3-1.23,4.52-1.72a46.66,46.66,0,0,1,6.06-1.41c4.5-.82,49.73-.79,54-.94.15-.25.28-.5.41-.76Zm.67-1.87c-4.34.2-8.51,1-12.87,1.61-1.38.2-42.81-.13-44.16.24a39.28,39.28,0,0,0-4,1.41,54.69,54.69,0,0,1-6.74,2.31c.24.16.48.32.74.46,3.45-1,6.7-2.93,10-3.84s51.43-1.19,56.79-1.41c.09-.25.16-.51.23-.78Zm.3-3.07c-4.57.67-8,1.81-13.08,3.05-2.33.56-44.64.58-47.13,1.49-2,.74-4,1.8-6,2.5-1,.36-1.93.65-2.79.89l.44.35c.82-.21,1.68-.48,2.58-.8,1.08-.38,2.13-.81,3.19-1.23,3.37-1.37,46.31-1.9,49.83-2.75,2.88-.7,7.32-1.94,9.95-2.35,1.12-.17,2.12-.3,3.05-.41a1.48,1.48,0,0,0,0-.21c0-.18,0-.36,0-.53Zm-.41-2.43-1.17.25c-4.45.88-48.65,2-53,3.3-4.58,1.42-8.92,4-13.16,5.35a15.13,15.13,0,0,1-2.28.51l.33.35a15.21,15.21,0,0,0,2-.51c1.46-.47,2.82-1.24,4.25-1.81,3-1.19,5.94-2.33,9-3.27,3.39-1.05,46.47-1.63,50-2.52,1.38-.35,2.77-.63,4.17-.93-.06-.24-.12-.48-.19-.72ZM62,150.69v.11a1.66,1.66,0,0,1-.12.61,1.38,1.38,0,0,1-.31.47,3.77,3.77,0,0,1-.52.37,10.31,10.31,0,0,1,.95-1.56Zm4.12-3.31.32.23a3.1,3.1,0,0,1,1.5,1.94,2.32,2.32,0,0,1-.57,1.9c-2.19,2.71-4.45,4.88-7.43,5.34v.14c0,.24,0,.47,0,.7,3.26-.36,5.81-2.77,8.28-5.83a3.23,3.23,0,0,0,.93-2.45c-.11-.8-1-1.64-2.08-2.34-.33.11-.66.23-1,.37Zm4.83-.85a10.79,10.79,0,0,1,2.48,1.89,1.46,1.46,0,0,1,.09,2A32.23,32.23,0,0,1,70,153.52c-3.34,2.56-4.27,4.51-9.83,5.4,0,.15.06.29.1.43,4.72-.45,6.6-2.62,10.17-5.35a39.17,39.17,0,0,0,4-3.31,1.9,1.9,0,0,0,.37-.63,2,2,0,0,0,.11-.72,1.93,1.93,0,0,0-.16-.67,2.42,2.42,0,0,0-.42-.62,9.35,9.35,0,0,0-2.09-1.52Zm-5.57-.42A27.41,27.41,0,0,1,68,147.35l-.88,4.4c-1.15.54-2.36,1.06-3.45,1.64-2.56,1.36-4.86,3.73-7.46,5.19a16.3,16.3,0,0,1-6.27,2.11c.08.17.16.34.25.5a16.73,16.73,0,0,0,6.22-2.12c1.08-.61,2.09-1.3,3.1-2a49.55,49.55,0,0,1,4.87-3c1.88-1,44.14-1.31,45.9-2.31,1.39-.79,1.54-1.61,1.09-2.38-.54-1-42.36-2.48-44.08-3.29Zm53.91,4.17a8.37,8.37,0,0,1-1.24.78c-1.82.95-3.75,1.68-5.62,2.54-6.28,2.85-54.95,7.59-61.61,8.73.1.14.2.29.31.43a32,32,0,0,0,9-2.9c1.83-.88,3.6-1.88,5.43-2.75,2.52-1.2,45.14-1.8,47.68-3,2-.88,4-1.65,5.88-2.65a6.85,6.85,0,0,0,.72-.43c-.19-.27-.39-.54-.6-.79Zm-59.11,4.44h0a8.21,8.21,0,0,0,1.6-.58,7.32,7.32,0,0,0,2.43-1.87,2.69,2.69,0,0,0,.74-2.12,1,1,0,0,0-.07-.23,3.86,3.86,0,0,0-.9-1.28c-.13.11-.27.21-.4.33a2,2,0,0,1,.17,3,6.4,6.4,0,0,1-2.13,1.75,7.13,7.13,0,0,1-1.37.55c0,.16-.08.31-.11.47Z" style="fill:#b7805c;opacity:0.5;mix-blend-mode:multiply"/><path d="M70,153.52a32.23,32.23,0,0,0,3.56-3.09,1.46,1.46,0,0,0-.09-2A10.79,10.79,0,0,0,71,146.53h-.79a10,10,0,0,0-3.06.48c1.06.7,2,1.54,2.08,2.34a3.23,3.23,0,0,1-.93,2.45c-2.47,3.06-5,5.47-8.28,5.83a10.82,10.82,0,0,0,.16,1.29c5.56-.89,6.49-2.84,9.83-5.4Z" style="fill-rule:evenodd;mix-blend-mode:multiply;fill:url(#New_Gradient_Swatch_88-10)"/><path d="M112.44,153.6c1.87-.86,3.8-1.59,5.62-2.54a8.37,8.37,0,0,0,1.24-.78,10.12,10.12,0,0,0-7.75-3.64l-44.3-.53c1.72.81,43.54,2.34,44.08,3.29.45.77.3,1.59-1.09,2.38-1.76,1-44,1.31-45.9,2.31a49.55,49.55,0,0,0-4.87,3c-1,.7-2,1.39-3.1,2a16.72,16.72,0,0,1-6.23,2.12l.06.1c.73-.1,1.43-.18,2.12-.25a4.09,4.09,0,0,0-1.77.87l.28.42c6.66-1.14,55.33-5.88,61.61-8.73Z" style="fill-rule:evenodd;mix-blend-mode:multiply;fill:url(#New_Gradient_Swatch_88-11)"/><path d="M58.92,146.82l53,.52a10.59,10.59,0,0,1,8.28,4.18,10.36,10.36,0,0,0-8.6-4.88l-52.31-.53A10.39,10.39,0,0,0,50.63,151a10.62,10.62,0,0,1,8.29-4.17Z" style="fill-rule:evenodd;mix-blend-mode:screen;fill:url(#radial-gradient-8)"/><path d="M65.37,165.52h-6.1a9.17,9.17,0,0,1-9-9,9,9,0,0,1,8.92-9h6.13l46.18.53a9,9,0,0,1,8.92,9,9.19,9.19,0,0,1-9,9l-46.15-.53Z" style="fill-rule:evenodd;opacity:0.75;fill:url(#linear-gradient-4)"/><path d="M59.14,147.89h6.23l46.27.52a9.17,9.17,0,0,1,7.77,4.39,9,9,0,0,0-7.86-4.77l-46.18-.53H59.24a9,9,0,0,0-7.87,4.77,9.18,9.18,0,0,1,7.77-4.38Z" style="fill:#683c11;fill-rule:evenodd;opacity:0.5;mix-blend-mode:multiply"/><path d="M65.37,165.52h-6.1a9.62,9.62,0,0,1-7.58-4.29h0a9.42,9.42,0,0,0,7.69,4.67h6l46.05.52a9.35,9.35,0,0,0,7.73-4.76,9.6,9.6,0,0,1-7.63,4.38l-46.15-.53Z" style="fill:#ca9e67;fill-rule:evenodd;opacity:0.65;mix-blend-mode:screen"/><path d="M111.49,164.94a8.11,8.11,0,0,0,7.93-7.9,7.92,7.92,0,0,0-7.87-7.9l-52.31-.52a7.92,7.92,0,0,0-7.88,7.89,8.12,8.12,0,0,0,7.93,7.9l52.2.53Z" style="fill-rule:evenodd;fill:url(#New_Gradient_Swatch_89)"/><path d="M111.21,163.55c3.85-.18,7.55-2.9,7.55-7s-3.59-7-7.5-7l-51.73-.52c-3.91,0-7.5,2.95-7.5,7s3.7,6.77,7.55,7l51.63.53Z" style="fill-rule:evenodd;mix-blend-mode:screen;fill:url(#radial-gradient-9)"/><path d="M111.32,161.68a5.3,5.3,0,0,0,5.17-5.27,5.22,5.22,0,0,0-5.13-5.27c-4,0-48-.53-51.93-.53a5.27,5.27,0,0,0,0,10.54c3.94.09,47.93.61,51.86.53Z" style="fill-rule:evenodd;mix-blend-mode:screen;fill:url(#radial-gradient-10)"/><path d="M53.41,157.28c4.43,1.12,59.37-3.82,58.67-6.56-.15-.59-41.37-1.48-44.2-1.47H60.31c-3.22,0-6.07.94-7.64,4.27-.49,1.05-.92,3.33.74,3.75Z" style="fill-rule:evenodd;opacity:0.5;mix-blend-mode:screen;fill:url(#radial-gradient-11)"/><path d="M116.65,159.21c-2.51-.69-52.07,2.24-51.67,3.8.08.33.75.54,2.35.53l44.35.52c3.84,0,7.19-4.24,5-4.85Z" style="fill-rule:evenodd;mix-blend-mode:screen;fill:url(#radial-gradient-12)"/><path d="M70.67,150c-2.62.07-5.11,1-6.54,3.5-.87,1.53-.93,3.11,1.17,2.35a29.64,29.64,0,0,0,7.92-4.27c2.38-1.8-1.61-1.61-2.55-1.58Z" style="fill-rule:evenodd;mix-blend-mode:screen;fill:url(#linear-gradient-5)"/><path d="M111.46,164a6.56,6.56,0,0,0,4.75-2.14c.87-.93,1.25-1.89-.19-1.43a27.56,27.56,0,0,0-5.76,2.6c-1.85,1.1.62,1,1.2,1Z" style="fill-rule:evenodd;mix-blend-mode:screen;fill:url(#linear-gradient-6)"/><path d="M111.49,164.94l-52.2-.53a8.51,8.51,0,0,1-7.2-4.62,8.37,8.37,0,0,0,7.26,5l52.09.53a8.36,8.36,0,0,0,7.26-5,8.52,8.52,0,0,1-7.21,4.63Z" style="fill:#683c11;fill-rule:evenodd;opacity:0.5;mix-blend-mode:multiply"/><path d="M118.42,9.55,149,24.12c-.75,2.09-7.74,9.4-9.07,9.5S121.55,12.45,118.42,9.55Z" style="fill-rule:evenodd;mix-blend-mode:multiply;fill:url(#radial-gradient-13)"/><path d="M138.74,29.88A256.66,256.66,0,0,0,118.41,9.54c2.28.07,30.69,12.32,30.62,14.58a57.32,57.32,0,0,1-10.29,5.76Z" style="fill-rule:evenodd;fill:url(#linear-gradient-7)"/><path d="M124.79,12.58c1.59,6.51,15.26,14.81,20,14.26a53,53,0,0,1-6,3,259,259,0,0,0-20.28-20.3l0,0a37.56,37.56,0,0,1,6.25,2.19,5.15,5.15,0,0,0,.13.85Z" style="fill-rule:evenodd;mix-blend-mode:screen;fill:url(#radial-gradient-14)"/><path d="M141.33,47.79c4.18-.08,8.36-.15,12.61-.25.71-2.5,1.21-10.66,1.49-19.1-.43,1.75-1.2,4.28-2.12,7a31.16,31.16,0,0,1-3.91-.55,71.77,71.77,0,0,1,4.82-12.46,3.23,3.23,0,0,0-.09-3.78c-5-5.41-24.86-8.11-68.36-8.11h0c-43.5,0-63.39,2.7-68.37,8.11a3.23,3.23,0,0,0-.09,3.78A71,71,0,0,1,22.13,34.9a30.65,30.65,0,0,1-3.91.55c-.52-1.54-1-3-1.37-4.31.5,7,1.15,12.75,1.81,14.17l1.22,1.12-4.35,0a93.51,93.51,0,0,0-.07,10.79c4.72,1.46,11.65-.12,14.6-5.2a5.8,5.8,0,0,0,.26-3.8c-.75-2.54-1.54-5.1-2.5-9.33,8.28-2.5,25.53-6.16,58-6.16h0c32.42,0,49.66,3.66,57.94,6.16C142.81,42.87,142.05,45.37,141.33,47.79Z" style="fill:#1d1d1b;fill-rule:evenodd;opacity:0.5"/><path d="M156.16,50.06a13,13,0,0,0-2.12-2l-12.75-.17a2.17,2.17,0,0,0-.07.24,5.67,5.67,0,0,0,.26,3.8c3,5.1,9.92,6.67,14.64,5.19C156.14,54.79,156.19,52.41,156.16,50.06Z" style="fill:#1d1d1b;fill-rule:evenodd;opacity:0.5"/><path d="M10.13,52.84c4.63,3.45,16.49.88,19.17-3.08A3.74,3.74,0,0,0,30,47c.08-.35-5.66-16.36-6.13-20.35-.35,4.66-13.7,5.6-17,4.67C5.72,36.09,6,50,10.13,52.84Z" style="fill-rule:evenodd;fill:url(#linear-gradient-8)"/><path d="M19.66,41.22c-.93-4.14,2.75-6.49,7-6.67C28,40.57,29,43.54,30,47c-1.25-4.26-9.34-1.39-10.32-5.79Z" style="fill-rule:evenodd;fill:url(#linear-gradient-9)"/><path d="M10.59,23.91c1.3,5.29,5.57,17.48,8,22.05-2.26-3-7.19-1.93-9.06.92-1,1.56-1.25,4.41.62,6-.63-.36-2.39-1.75-3.21-5.05A114.73,114.73,0,0,0,.43,30c-2.33-4.82,5.37-9.25,10.16-6.05Z" style="fill-rule:evenodd;fill:url(#New_Gradient_Swatch_103)"/><path d="M5.15,23a7.72,7.72,0,0,0-3.22,1.54C3.28,26.32,10,43.75,9.82,46.46a6.33,6.33,0,0,1,3.1-2C11.06,41.28,5.61,25.07,5.15,23Z" style="fill-rule:evenodd;mix-blend-mode:screen;fill:url(#radial-gradient-15)"/><path d="M11.24,26.31c-.12-.42-.24-.82-.34-1.21A7.43,7.43,0,0,0,2,26.24a4.33,4.33,0,0,0-1.3,4.21c.15.32.31.66.46,1a4.41,4.41,0,0,1,1.31-3.92A7.33,7.33,0,0,1,11.24,26.31Zm5.88,16.54a5.89,5.89,0,0,0-5.91-.5C8,43.68,6.15,47,7.78,50.13c-.53-2.75,1.5-5.37,4-6.4,2.09-.88,4.51-.92,6,.55C17.55,43.83,17.34,43.36,17.12,42.85Z" style="fill-rule:evenodd;fill:url(#linear-gradient-10)"/><path d="M161.4,52.84c-4.63,3.45-16.48.88-19.17-3.08a3.69,3.69,0,0,1-.67-2.75c-.09-.35,5.65-16.36,6.12-20.35.36,4.66,13.7,5.6,17,4.67,1.1,4.76.84,18.68-3.31,21.51Z" style="fill-rule:evenodd;fill:url(#linear-gradient-11)"/><path d="M151.88,41.22c.92-4.14-2.76-6.49-7-6.67-1.31,6-2.34,9-3.32,12.46,1.25-4.26,9.34-1.39,10.32-5.79Z" style="fill-rule:evenodd;fill:url(#linear-gradient-12)"/><path d="M160.94,23.91c-1.3,5.29-5.57,17.48-8,22.05,2.27-3,7.2-1.93,9.07.92,1,1.56,1.24,4.41-.63,6,.63-.36,2.4-1.75,3.21-5.05A114.73,114.73,0,0,1,171.1,30c2.34-4.82-5.37-9.25-10.16-6.05Z" style="fill-rule:evenodd;fill:url(#linear-gradient-13)"/><path d="M166.39,23a7.84,7.84,0,0,1,3.22,1.54c-1.35,1.76-8.06,19.19-7.89,21.9a6.32,6.32,0,0,0-3.11-2c1.87-3.17,7.31-19.38,7.78-21.43Z" style="fill-rule:evenodd;mix-blend-mode:screen;fill:url(#radial-gradient-16)"/><path d="M169.57,26.24a7.43,7.43,0,0,0-8.94-1.14c-.1.39-.21.79-.34,1.21a7.32,7.32,0,0,1,8.81,1.22,4.38,4.38,0,0,1,1.31,3.92l.46-1A4.28,4.28,0,0,0,169.57,26.24Zm-9.24,16.11c-2-.82-4.4-.78-5.92.5-.22.51-.43,1-.63,1.43,1.51-1.47,3.93-1.43,6-.55,2.45,1,4.47,3.65,3.94,6.4C165.38,47,163.56,43.68,160.33,42.35Z" style="fill-rule:evenodd;fill:url(#linear-gradient-14)"/><path d="M12,13.43c-.89,1-.93,2.52-.1,4.07,3.85,7.2,6.85,18.75,7.75,23.72-.33-1.84,1.13-3.35,4.06-4.52,8.59-3.44,22.58-5.15,62.05-5.15V4.67C38.84,4.67,17.39,7.59,12,13.43Z" style="fill-rule:evenodd;fill:url(#New_Gradient_Swatch_102)"/><path d="M159.52,13.43c.89,1,.93,2.52.1,4.07-3.84,7.2-6.85,18.75-7.74,23.72.33-1.84-1.14-3.35-4.06-4.52-8.59-3.44-22.59-5.15-62-5.15V4.67c46.92,0,68.38,2.92,73.75,8.76Z" style="fill-rule:evenodd;fill:url(#New_Gradient_Swatch_102-2)"/><path d="M85.77,28.39c-40.35,0-55.22,1.85-63.43,5.57-2,.85-3.23,1.91-3.57,3.14.15.61.29,1.2.41,1.75.22-1.39,1.56-2.58,3.85-3.52C31.43,31.75,45.86,30,85.77,30h.07V28.39ZM13.39,16.16c5.75-5.55,26.33-8.32,72.38-8.32h.07V6.26h-.07c-46.49,0-67.51,2.85-73.07,8.54a3,3,0,0,0-.81,2.67s0,0,0,0c.15.29.31.58.45.88a3,3,0,0,1,1-2.22Z" style="fill-rule:evenodd;fill:url(#New_Gradient_Swatch_104)"/><path d="M85.91,28.39c40.34,0,55.21,1.85,63.42,5.57,2,.85,3.11,1.81,3.45,3-.15.62-.28,1.19-.4,1.74-.22-1.39-1.44-2.47-3.74-3.41C140.24,31.75,125.81,30,85.91,30h-.07V28.39Zm72.38-12.23C152.53,10.61,132,7.84,85.91,7.84h-.07V6.26h.07c46.48,0,67.5,2.85,73.06,8.54a2.33,2.33,0,0,1,.85,2.3l-.53,1a2.44,2.44,0,0,0-1-2Z" style="fill-rule:evenodd;fill:url(#linear-gradient-15)"/><path d="M159.52,13.43c-5.37-5.84-26.83-8.76-73.75-8.76h0C38.84,4.67,17.39,7.59,12,13.43c-.89,1-.93,2.52-.1,4.07,3.85,7.2,6.85,18.75,7.75,23.72-.33-1.84,1.13-3.35,4.06-4.52,8.59-3.44,22.58-5.15,62.05-5.15s53.46,1.71,62.05,5.15c2.92,1.17,4.39,2.68,4.06,4.52.89-5,3.9-16.52,7.74-23.72C160.45,16,160.41,14.39,159.52,13.43Z" style="fill-rule:evenodd;opacity:0.30000000000000004;mix-blend-mode:screen;fill:url(#radial-gradient-17)"/><path d="M115.62,140.22H56.29a10.47,10.47,0,0,1-10.47-10.47h0a10.48,10.48,0,0,1,10.47-10.48h59.33c5.79,0,10.06,4.69,10.06,10.48h0C125.68,135.53,121.41,140.22,115.62,140.22Z" style="fill-rule:evenodd;mix-blend-mode:multiply;fill:url(#linear-gradient-16)"/><path d="M55.76,120.13H116a10.46,10.46,0,0,1,8.52,4.39,10.47,10.47,0,0,0-9.07-5.25H56.32a10.47,10.47,0,0,0-9.07,5.25A10.46,10.46,0,0,1,55.76,120.13Z" style="fill:#cbbba0;fill-rule:evenodd;mix-blend-mode:multiply"/><path d="M115.2,140.51l-58.86.36a10.48,10.48,0,0,1-10.47-10.35h0a10.28,10.28,0,0,0,10.47,10.24H115.2a10.48,10.48,0,0,0,10.48-10.47h0s0-.09,0-.13A10.47,10.47,0,0,1,115.2,140.51Z" style="fill:#cbbba0;fill-rule:evenodd;mix-blend-mode:screen"/><path d="M118.85,124.41c2.53,1.92,3,6,1,9.44s-5.77,5.07-8.7,3.84a21.52,21.52,0,0,1-2.25-1.13l3.91-6.77,3.91-6.77a18.65,18.65,0,0,1,2.1,1.39Z" style="fill-rule:evenodd;fill:url(#linear-gradient-17)"/><path d="M118.77,125.32c1.75,1.33,2.34,4.28,1.3,6.86s-3.33,3.86-5.29,3a13.3,13.3,0,0,1-1.52-.75l2-5.05,2-5a13.82,13.82,0,0,1,1.44.95Z" style="fill-rule:evenodd;mix-blend-mode:screen;fill:url(#radial-gradient-18)"/><path d="M119,125.18c2.16,1.64,2.64,5.18,1,8.22-1.51,2.82-4.33,4.27-6.71,3.63a5.65,5.65,0,0,1-4.4-.47,21.52,21.52,0,0,0,2.25,1.13c2.93,1.23,6.7-.39,8.7-3.84s1.5-7.52-1-9.44a18,18,0,0,0-2.09-1.38,5.35,5.35,0,0,1,1.9,1.88l.36.27Z" style="fill-rule:evenodd;mix-blend-mode:multiply;fill:url(#radial-gradient-19)"/><path d="M117.19,123.33c2.87,1.66,3.5,5.94,1.41,9.56s-6.11,5.2-9,3.55-3.5-5.94-1.41-9.56,6.11-5.2,9-3.55Z" style="fill:#fcce3a;fill-rule:evenodd;mix-blend-mode:screen"/><path d="M116.75,123c3,1.75,3.75,6.2,1.59,9.94s-6.37,5.35-9.41,3.6-3.74-6.21-1.58-9.94,6.36-5.35,9.4-3.6Z" style="fill-rule:evenodd;fill:url(#radial-gradient-20)"/><path d="M113.62,135.26a.57.57,0,0,1-.41.38.58.58,0,0,1-.49-.08,4,4,0,0,1-2.66-.24c-2.41-1.12-3.19-4.54-1.75-7.64a7.06,7.06,0,0,1,3.48-3.54.53.53,0,0,1,.43-.45.57.57,0,0,1,.57.14,4.45,4.45,0,0,1,1-.08.36.36,0,0,1,.4-.14.39.39,0,0,1,.28.21,4.32,4.32,0,0,1,.86.28c2.41,1.13,3.19,4.55,1.74,7.65a7.07,7.07,0,0,1-3.41,3.51Z" style="fill:#fffce4;fill-rule:evenodd;mix-blend-mode:screen"/><path d="M115.71,124.4c2.27,1.31,2.75,4.74,1.06,7.66s-4.89,4.22-7.16,2.91-2.74-4.74-1.06-7.66,4.89-4.22,7.16-2.91Z" style="fill-rule:evenodd;fill:url(#radial-gradient-21)"/><path d="M109.79,128.47c1.59-2.77,4.63-4,6.78-2.76a3.73,3.73,0,0,1,.82.65,4,4,0,0,0-1.68-2c-2.27-1.31-5.47,0-7.16,2.91s-1.21,6.35,1.06,7.66a3,3,0,0,0,.51.24c-1.55-1.47-1.74-4.3-.33-6.74Z" style="fill-rule:evenodd;opacity:0.5;mix-blend-mode:multiply;fill:url(#radial-gradient-22)"/><path d="M109.3,127.74c1.54-2.67,4.36-4,6.56-3.19l.21.09-.18-.13-.18-.11c-2.27-1.31-5.47,0-7.16,2.91s-1.21,6.35,1.06,7.66l.18.1.21.09-.18-.14c-1.8-1.51-2.06-4.6-.52-7.28Z" style="fill-rule:evenodd;fill:url(#linear-gradient-18)"/><path d="M114.28,124.33a4,4,0,0,1,1.58.22l.21.09-.18-.13-.18-.11c-2.27-1.31-5.47,0-7.16,2.91s-1.21,6.35,1.06,7.66l.18.1.21.09-.18-.14a3.65,3.65,0,0,1-.72-.8c-1.67-1.4-1.95-4.3-.56-6.8s3.75-3.62,5.74-3.09Z" style="fill-rule:evenodd;mix-blend-mode:multiply;fill:url(#radial-gradient-23)"/><path d="M116.22,125.67c-4-1.83-7.78,3.41-7.23,6.8,2.22-.83,5.93-2.66,7.23-6.8Z" style="fill-rule:evenodd;mix-blend-mode:screen;fill:url(#radial-gradient-24)"/></g></g></g></svg>