<svg xmlns="http://www.w3.org/2000/svg" xmlns:xlink="http://www.w3.org/1999/xlink" viewBox="0 0 173.81 236.08"><defs><style>.cls-1{fill:url(#Áåçûìÿííûé_ãðàäèåíò_3);}.cls-2{fill:url(#Áåçûìÿííûé_ãðàäèåíò_3-2);}.cls-3{fill:url(#Áåçûìÿííûé_ãðàäèåíò_3-3);}.cls-4{fill:#eb924d;}.cls-5{fill:url(#Áåçûìÿííûé_ãðàäèåíò_3-4);}.cls-6{fill:url(#Áåçûìÿííûé_ãðàäèåíò_3-5);}.cls-7{fill:url(#Áåçûìÿííûé_ãðàäèåíò_3-6);}.cls-8{fill:url(#Áåçûìÿííûé_ãðàäèåíò_3-7);}.cls-9{fill:url(#Áåçûìÿííûé_ãðàäèåíò_28);}.cls-10{fill:#ffdf80;}.cls-11{fill:url(#Áåçûìÿííûé_ãðàäèåíò_7);}</style><linearGradient id="Áåçûìÿííûé_ãðàäèåíò_3" x1="145.54" y1="-54.91" x2="96.95" y2="88.53" gradientTransform="translate(204.94 31.14) rotate(90)" gradientUnits="userSpaceOnUse"><stop offset="0" stop-color="#cf5c2b"/><stop offset="1" stop-color="#59173e"/></linearGradient><linearGradient id="Áåçûìÿííûé_ãðàäèåíò_3-2" x1="139.93" y1="0.07" x2="-10.51" y2="337.88" xlink:href="#Áåçûìÿííûé_ãðàäèåíò_3"/><linearGradient id="Áåçûìÿííûé_ãðàäèåíò_3-3" x1="129.59" y1="20.34" x2="-20.86" y2="358.14" xlink:href="#Áåçûìÿííûé_ãðàäèåíò_3"/><linearGradient id="Áåçûìÿííûé_ãðàäèåíò_3-4" x1="168.17" y1="-82.33" x2="46.49" y2="242.95" xlink:href="#Áåçûìÿííûé_ãðàäèåíò_3"/><linearGradient id="Áåçûìÿííûé_ãðàäèåíò_3-5" x1="143.11" y1="-16.12" x2="21.44" y2="309.16" xlink:href="#Áåçûìÿííûé_ãðàäèåíò_3"/><linearGradient id="Áåçûìÿííûé_ãðàäèåíò_3-6" x1="199.04" y1="-161.62" x2="76.71" y2="152.03" xlink:href="#Áåçûìÿííûé_ãðàäèåíò_3"/><linearGradient id="Áåçûìÿííûé_ãðàäèåíò_3-7" x1="88.16" y1="211.22" x2="88.16" y2="188.29" xlink:href="#Áåçûìÿííûé_ãðàäèåíò_3"/><linearGradient id="Áåçûìÿííûé_ãðàäèåíò_28" x1="146.18" y1="28.6" x2="29.75" y2="203.57" gradientTransform="translate(204.94 31.14) rotate(90)" gradientUnits="userSpaceOnUse"><stop offset="0" stop-color="#ffce3b"/><stop offset="0.11" stop-color="#fbc639"/><stop offset="0.29" stop-color="#f0b134"/><stop offset="0.5" stop-color="#df8e2c"/><stop offset="0.69" stop-color="#cc6923"/><stop offset="0.69" stop-color="#cc6a23"/><stop offset="0.79" stop-color="#e2952d"/><stop offset="0.87" stop-color="#f2b435"/><stop offset="0.95" stop-color="#fcc739"/><stop offset="1" stop-color="#ffce3b"/></linearGradient><linearGradient id="Áåçûìÿííûé_ãðàäèåíò_7" x1="180.25" y1="-29.56" x2="114.63" y2="73.84" gradientTransform="translate(204.94 31.14) rotate(90)" gradientUnits="userSpaceOnUse"><stop offset="0" stop-color="#ffca2b"/><stop offset="1" stop-color="#d15b24"/></linearGradient></defs><g id="Calque_2" data-name="Calque 2"><g id="layer_1" data-name="layer 1"><path class="cls-1" d="M13.7,236.07l3.49-.17,5.82-.27,1.4-.06c1.77-.07,3.62.15,5.23-.77a1.4,1.4,0,0,0,.86-1.12A2,2,0,0,0,32,234.8a14.58,14.58,0,0,0,2.95.34c.84,0,1.68-.06,2.52-.09l2.87-.1,5.74-.19,5.73-.17,1.05,0c1,0,2-.05,2.94,0a3.15,3.15,0,0,0,2-.71,2,2,0,0,0,.75-1.77,3,3,0,0,0,.73,1.45c1,1,2.59.85,3.9.83l5.68-.11,5.66-.08,5.64-.06,5.63,0,5.6,0c2.92,0,5.84,0,8.77.06,1.15,0,2.19.15,3.11-.66a2.72,2.72,0,0,0,.37-.39c0-.06.31-.36.28-.44a2.29,2.29,0,0,0,2,1.46c.71,0,1.43.05,2.15.06,2.33,0,4.76.07,7.13.13l3.79.11a6.39,6.39,0,0,0,3.16-1,1.54,1.54,0,0,0,1.1.94,5.88,5.88,0,0,0,1.39.09c1.8.08,3.61.11,5.41.17l2.73.08c.22,0,.44,0,.66,0a1.68,1.68,0,0,0,.39.07,3.91,3.91,0,0,0,1.3-.34,2.13,2.13,0,0,0,1.14-1c.14,0,.2.22.26.37a1.93,1.93,0,0,0,1.61,1.11,3.91,3.91,0,0,0,.49,0c.54,0,1.1.05,1.64.07l1.74.06,7.22.31q7.11.33,14.2.75a5.48,5.48,0,0,0,5.81-5,1390.22,1390.22,0,0,0,0-223.44,5.48,5.48,0,0,0-.19-1.06A8.61,8.61,0,0,0,167.75,4a4.7,4.7,0,0,0-1.24-1c-.5-.35-1-.69-1.51-1-1.56-1-3.25-2-5.16-1.92l-7.09.31-3.64.14-1.92.07a13.68,13.68,0,0,0-1.43.06,7.9,7.9,0,0,1-1.28,0A12.08,12.08,0,0,0,143,.65a2.27,2.27,0,0,0-.77.22c-.75.42-.83,1.47-1.37,2.14a6.57,6.57,0,0,0-.53-1.89.48.48,0,0,0-.16-.23.58.58,0,0,0-.37-.08L136,.83a6.06,6.06,0,0,0-1.65.08,6.51,6.51,0,0,1-1.71.1c-2.52.07-5,.14-7.55.19l-4.64.1c-.73,0-1.46.06-2.19.05a1.12,1.12,0,0,1-.31-.05,2,2,0,0,0-1.55.32,3.65,3.65,0,0,0-1.66,2.83L114.1,2.8a1.87,1.87,0,0,0-.64-1,1.58,1.58,0,0,0-.65-.19,50.18,50.18,0,0,0-9.09-.14c-3,.13-6,.13-9.06.14-2.55,0-5.09,0-7.64,0H79.38c-1.83,0-3.67,0-5.5,0a3.39,3.39,0,0,1-.78,0A3.53,3.53,0,0,0,71,1.66a2.45,2.45,0,0,0-1.58,1.85,2.35,2.35,0,0,0-.73-1.43,2.12,2.12,0,0,0-1.05-.32,16.61,16.61,0,0,0-1.87-.11,7.4,7.4,0,0,1-1.63,0,15.32,15.32,0,0,0-3.32-.19l-4.45-.07-7.71-.14-7.71-.19c-.58,0-1.15,0-1.73,0a7.58,7.58,0,0,1-1.43,0,4.58,4.58,0,0,0-.53-.14A2.53,2.53,0,0,0,35.86.9a1.65,1.65,0,0,0-1,1.26c.12-.5-.39-.94-.88-1s-.91-.05-1.34-.14A5,5,0,0,0,32.1.9C31.73.85,31.37.8,31,.77c-.74-.07-1.48-.1-2.22-.1a1,1,0,0,0-.37,0,1,1,0,0,0-.26.24,5.65,5.65,0,0,0-1.08,2.23l-.63-1.93a1.11,1.11,0,0,0-.21-.42,1.13,1.13,0,0,0-.81-.23H23.49c-.24,0-.44-.09-.68-.1l-1,0L18,.33h-.27L9.93,0A5.5,5.5,0,0,0,4.22,5.08a1484.1,1484.1,0,0,0,0,223.45,5.5,5.5,0,0,0,1.4,3.25c.17.18.33.42.51.6a17.45,17.45,0,0,0,4.54,3A7.14,7.14,0,0,0,13.7,236.07Z"/><path class="cls-2" d="M7.94,231A1485.4,1485.4,0,0,1,8,7.57a5.51,5.51,0,0,1,5.72-5.08c.66,0,1.32,0,2,0a11.28,11.28,0,0,1,1.65.06c.19,0,.35.13.54.16l.56.06,1.37.12,3.87.37.35,0a1.07,1.07,0,0,1,.58.18.94.94,0,0,1,.28.46,18.05,18.05,0,0,1,1.33,6.69,49.08,49.08,0,0,0,.62,7.27c.14,1,.27,2,.41,3v-1c0-2.21.09-4.43.27-6.64.1-1.27.23-2.54.39-3.8a26.43,26.43,0,0,1,.72-5.28c.18-.48.39-.8.66-.81,1,0,2,0,3.07,0a4.86,4.86,0,0,1,1.53.1c.43.25.21.12.41.61a7.68,7.68,0,0,1,.56,1.47A16,16,0,0,1,35,7.28q.32,3.06.62,6.13c0-.52.06-1,.1-1.57.13-2.38.29-4.78.44-7.17,0-.38,0-.76.07-1.14a.51.51,0,0,1,.17-.42.82.82,0,0,1,.22,0l4.7.22c3.84.17,7.69.34,11.54.42.53,0,1.05,0,1.57,0A95.33,95.33,0,0,1,64.33,4c.3,0,3.57.27,3.57.26.54,7.42.82,14.86.8,22.31,0,.6,0,1.19,0,1.79,0-.2,0-.4,0-.59h0q.44-4.39.91-8.78c.17-1.58.35-3.14.57-4.7.19-1.27.49-2.51.69-3.78a5.17,5.17,0,0,0,0-1.18,16.11,16.11,0,0,1,.68-3.56,2.14,2.14,0,0,1,.06-.27,1.92,1.92,0,0,1,.27-.62,1.81,1.81,0,0,1,1.35-.57,4.52,4.52,0,0,1,.52,0c1.37,0,2.69-.13,4.06-.22,1.58-.09,3.15,0,4.73,0q5.73,0,11.46,0h2.66l8.77,0a10.81,10.81,0,0,0,3-.2,8.32,8.32,0,0,1,3.26,0,1.38,1.38,0,0,1,.69.23,1.19,1.19,0,0,1,.32.58,18.88,18.88,0,0,1,.55,5.15,33.14,33.14,0,0,0,.6,5.05c0,.23.09.47.14.7a50,50,0,0,1,1.18-8,7.78,7.78,0,0,1,1-2.36,2.82,2.82,0,0,1,.29-.39,3,3,0,0,1,2.14-1.1,1.27,1.27,0,0,1,.28,0l.27.06a6.29,6.29,0,0,0,1.68,0l2.61-.06,4.77-.09a39.89,39.89,0,0,0,4.65-.27,22.71,22.71,0,0,1,2.33-.11,17.06,17.06,0,0,1,2.86.1,4.2,4.2,0,0,1,1.51.38h0a1.42,1.42,0,0,1,.9,1.24,18.7,18.7,0,0,0,.21,2.58c.2,1.92.35,3.84.47,5.76.26,3.93.39,7.88.46,11.83,0,1.92,0,3.85,0,5.77v.29c0,1.73.07,3.47,0,5.2q.28-5.57.76-11.12.26-2.88.55-5.78c.35-3.28.32-6.68.63-9.9.18-1.79.28-3.59.31-5.39,0-.1,0-.2,0-.3a.53.53,0,0,1,.09-.33.54.54,0,0,1,.28-.11A49,49,0,0,1,150.22,3l4.84-.16q4.26-.13,8.51-.33a5.5,5.5,0,0,1,5.73,5,1390.22,1390.22,0,0,1,0,223.44,5.5,5.5,0,0,1-5.81,5q-5.89-.36-11.8-.64c-1.71-.09-3.43-.16-5.15-.24l-3.12-.13a6.4,6.4,0,0,1-1.52-.21c-.89-.28-1.87-.22-2.8-.44a1.7,1.7,0,0,1-.81-.39,1.73,1.73,0,0,1-.35-.82s0-.05,0-.08a63.37,63.37,0,0,1-1.54-10.26c-.05-.64-.08-1.27-.1-1.91q-.6,6-1.18,12a1.75,1.75,0,0,1-.35,1,1.61,1.61,0,0,1-.76.35c-.29.07-.56.12-.84.16a18.36,18.36,0,0,1-3,.17,38.86,38.86,0,0,1-5.57-.68c-.88-.18-.94-.74-.84-1.34.07-.39.21-.8.25-1.14.13-.94.23-1.89.31-2.84.15-1.91.19-3.82.2-5.73,0-1.25,0-2.49,0-3.74-.07-5.17-.15-10.35-.21-15.52a1.18,1.18,0,0,0,0,.2c-1.26,5.81-.58,11.88-1.35,17.8a38.26,38.26,0,0,0-.71,7.15,8,8,0,0,1,0,2.68,3,3,0,0,1-1.44,1.68,5.34,5.34,0,0,1-2.47.65c-.5,0-1,.05-1.47.08a75.58,75.58,0,0,1-8.38-.22l-1.48-.09a1.59,1.59,0,0,1-1-.3,1.44,1.44,0,0,1-.34-.66v0a5.13,5.13,0,0,1-.21-1.65,4.63,4.63,0,0,0,0-.51c-.07-.65-.29-1.32-.38-2a17.72,17.72,0,0,1-.16-1.93c-.07.26-.12.52-.19.77-.41,1.79-.83,3.56-1.24,5.35a1.46,1.46,0,0,1-.27.64c-.65.7-2.87.54-3.71.61-1.62.13-3.25.19-4.88.21-.77,0-1.54,0-2.32,0-1.35,0-2.69,0-4,0l-2.81,0c-3.94,0-7.86-.08-11.8-.11l-5.25,0c-1.88,0-5.1.24-6.78-.73a2,2,0,0,1-.92-1.3,6.26,6.26,0,0,1-.24-1.5q-.8-12.14-1.62-24.25s0-.09,0-.12v0a.17.17,0,0,1,0-.07c0,.17,0,.35,0,.52-.18,9.12-.72,18.24-1.6,27.31,0,.43-1,.56-1.28.63a21.73,21.73,0,0,1-2.9.39l-.51,0c-3.11.24-6.23.31-9.34.34H43l-.89,0-1,0a48.89,48.89,0,0,1-5.55-.06,7.65,7.65,0,0,1-1.63-.35,2.67,2.67,0,0,1-.75-.33,3.41,3.41,0,0,1-1.06-1.67,5.67,5.67,0,0,1-.2-.67c-.4-1.5-.72-3-1-4.55l-.09.45c-.3,1.61-.61,3.23-.92,4.85a3.79,3.79,0,0,1-.66,1.67,2,2,0,0,1-.74.58,3.7,3.7,0,0,1-1.11.36l-.41.06c-1.3.15-2.59-.06-3.89.09-.67.08-1.33.12-2,.15l-3.88.19-3.48.16A5.48,5.48,0,0,1,7.94,231Z"/><path class="cls-3" d="M146.56,235.14l-3.12-.13a6.4,6.4,0,0,1-1.52-.21c-.89-.28-1.87-.22-2.8-.44a1.7,1.7,0,0,1-.81-.39,1.73,1.73,0,0,1-.35-.82s0-.05,0-.08a63.37,63.37,0,0,1-1.54-10.26c-.05-.64-.08-1.27-.1-1.91q-.6,6-1.18,12a1.75,1.75,0,0,1-.35,1,1.61,1.61,0,0,1-.76.35c-.29.07-.56.12-.84.16.33-5.19.49-10.41.53-15.73a952,952,0,0,0-6.14-113.86c-2.13-18.9-4.38-37.77-5.89-56.72-1.18-14.59-2.85-29.57-2.75-44.34l.27.06a6.29,6.29,0,0,0,1.68,0l2.61-.06c.54,6.08.86,12.16,1.31,18.28q1.18,16.17,2.81,32.3c3.88,38.35,9.27,76.45,11.15,115q.19,4.22.36,8.43c.41-7.19.79-14.39,1.09-21.58.41-9.64,1-19.32.87-29-.09-10.06-.82-20.09-1.09-30.14-.54-20-1.69-39.91-1.95-59.9-.12-9.88-.72-20.13.94-29.91.2-1.17.41-2.33.64-3.48a1.42,1.42,0,0,1,.9,1.24,18.7,18.7,0,0,0,.21,2.58c.2,1.92.35,3.84.47,5.76.26,3.93.39,7.88.46,11.83,0,1.92,0,3.85,0,5.77v.29c0,1.73.07,3.47,0,5.2q.28-5.57.76-11.12.26-2.88.55-5.78c.35-3.28.32-6.68.63-9.9.18-1.79.28-3.59.31-5.39,0-.1,0-.2,0-.3a.53.53,0,0,1,.09-.33.54.54,0,0,1,.28-.11A49,49,0,0,1,150.22,3l4.84-.16c.44,3.41.8,6.84,1,10.28.53,11.29.42,22.62,1,33.92,1,19.58,2.42,39.41,1.24,59s-3.56,38.8-5.37,58.19c-1.9,20.23-3.62,40.47-5.38,60.71C147.17,228.34,146.86,231.74,146.56,235.14Zm-90.69-.83c.3-.07,1.23-.2,1.28-.63.88-9.07,1.42-18.19,1.6-27.31,0-.17,0-.35,0-.52a.17.17,0,0,0,0,.07v0s0,.08,0,.12q.81,12.13,1.62,24.25a6.26,6.26,0,0,0,.24,1.5,2,2,0,0,0,.92,1.3c1.68,1,4.9.73,6.78.73l5.25,0c1.14-37.25,2.78-74.49,5.4-111.66.38,1.58.76,3.16,1.13,4.75a241.14,241.14,0,0,1,5.74,42.83c1,21.42.08,42.95,2.34,64.22,1.35,0,2.69,0,4,0-.7-22,.19-44-.5-66a255.43,255.43,0,0,0-4.57-41.18c-2-10.2-4.42-20.33-6.18-30.57q1.61-19.5,3.66-39,1.55-14.73,3.43-29.45c.06-.52.11-1,.17-1.56,1.44,5.63,2.52,11.37,3.39,17.06,2.43,15.57,3.51,31.4,4.89,47.09,3,33.66,5.32,67.37,7.4,101.09.88,14.17,1.63,28.29,4.46,42.12a75.58,75.58,0,0,0,8.38.22c.47,0,1,0,1.47-.08,1.59-12.17,1.44-24.48.92-36.84-.73-17.17-1.58-34.33-2.78-51.48-2.37-33.8-4.54-67.86-9.2-101.44-1.92-13.85-5.09-27.18-10.46-39.88H94.06q-5.73,0-11.46,0c-1.58,0-3.15-.11-4.73,0-1.37.09-2.69.22-4.06.22a4.52,4.52,0,0,0-.52,0c-.8,3.14-1.32,6.39-2,9.48-1.84,8.8-3.11,17.65-4.32,26.56q-3.68,27.19-6.37,54.5c-3.48,35.83-5.22,71.88-6.6,107.85q-.6,16-1.07,32A21.73,21.73,0,0,0,55.87,234.31Zm-27.39.75a2,2,0,0,0,.74-.58,3.79,3.79,0,0,0,.66-1.67c.31-1.62.62-3.24.92-4.85l.09-.45c.25,1.53.57,3.05,1,4.55a5.67,5.67,0,0,0,.2.67,3.41,3.41,0,0,0,1.06,1.67,2.67,2.67,0,0,0,.75.33,7.65,7.65,0,0,0,1.63.35,48.89,48.89,0,0,0,5.55.06l1,0c-1.09-29.68-1.7-59.31-.23-89,1.61-32.6,4.7-65.2,7.65-97.7.84-9.29,1.8-18.55,2.46-27.85.39-5.38,1-11.16.94-16.82-3.85-.08-7.7-.25-11.54-.42-1.07,4-1.82,8.08-2.45,11.86-1.4,8.36-2.49,16.7-3.32,25.14-1.63,16.49-3,33-4.36,49.52Q30,104,28.93,118.1c-.58-6.86-1.12-13.72-1.51-20.6-1-17.72-2.59-35.41-3.44-53.14-.67-13.7-.34-27.36,0-41l-.35,0-3.87-.37L18.4,2.82c-2.28,13.06-2.17,26.58-1.59,39.79.78,17.75,2.6,35.33,5.13,52.91C24.62,114,25.56,133,26.7,151.72c0,.34,0,.68.05,1-.57,12.21-.92,24.43-.91,36.68,0,15.37.38,30.7,1.53,46A3.7,3.7,0,0,0,28.48,235.06Z"/><path class="cls-4" d="M17.2,52.89a7.57,7.57,0,0,1-.89-3.75,2.88,2.88,0,0,1-.92.88A2.33,2.33,0,0,1,13,50c-1.5-.93-1.4-2.9-.95-4.42a4.12,4.12,0,0,1,3.73-2.67,2.12,2.12,0,0,1,2,2A16.56,16.56,0,0,1,20,42.26c2.14-2.16,5.87-3.69,8.8-2.67,1.36.48,2.61,2.1,2,3.66a29.5,29.5,0,0,1-2.88,5.29c-.29.47-.59.92-.84,1.41-.12.23-.49,1.14-.22.47a7.42,7.42,0,0,1-3.36,4.17A4.6,4.6,0,0,1,17.2,52.89Zm17.73-16.3a3.62,3.62,0,0,1,.43-.24,3,3,0,0,0,1.12-1.15,3.13,3.13,0,0,0,.43-1.61,4.19,4.19,0,0,0-.36-1.52A2.3,2.3,0,0,0,35.69,31,3.21,3.21,0,0,0,33,30.5a3.08,3.08,0,0,0-1.62,1.15,3,3,0,0,0-.67,1.94,7,7,0,0,0,.18,1.29A2.78,2.78,0,0,0,34.93,36.59ZM56,195.45a3.75,3.75,0,0,0,2.65-3.57c0-.58.16-1.07.16-1.7a7.21,7.21,0,0,0-.79-2.81,6.69,6.69,0,0,0-2.86-3.65,3.57,3.57,0,0,0-4.34.69c-.19-.19-.38-.38-.56-.59a1.45,1.45,0,0,0-2.46,1,11.15,11.15,0,0,1-.07,1.29,5.09,5.09,0,0,0,.3,1.74c.16.46.29,1,.49,1.39a2,2,0,0,0,.6.8c.09.07.85.58.53.26a1,1,0,0,0,.51.29,6.09,6.09,0,0,0,1.4,2.62l.36.5A3.71,3.71,0,0,0,56,195.45Zm7.16-4.75a2.77,2.77,0,0,0,.17-1,3.84,3.84,0,0,0-.44-1.07.8.8,0,0,0-1-.34.83.83,0,0,0-.47,1,3.39,3.39,0,0,0,.25,1,2.6,2.6,0,0,0,.71.65A.48.48,0,0,0,63.19,190.7Zm9.72,7.86.67-.28c1.44-2.11,1.59-3.79.45-5.06a3.71,3.71,0,0,0-.81-.67,2.81,2.81,0,0,0-3.86,1,3.19,3.19,0,0,0-.3,2.38,11.08,11.08,0,0,0,.5,1.24l.46.62a2.27,2.27,0,0,0,1,.63A2.64,2.64,0,0,0,72.91,198.56Zm60.31-8.36a4.38,4.38,0,0,0,1.77-.73,6,6,0,0,0,1.32-1.75,7.83,7.83,0,0,0,.83-1.6,8,8,0,0,0,.24-2,2,2,0,0,0-1.52-2.1,13.5,13.5,0,0,0,2.68-6c.45-2.09.25-7.3-3-6.87-2.58.34-4.12,2.27-5.44,4.44s-2.26,4-2,6.15c-.21,1.8-.47,4,1.53,4.86a2.82,2.82,0,0,0,1.56.22,4.44,4.44,0,0,0-.79,1.43,5.71,5.71,0,0,0,.1,2.29A2.26,2.26,0,0,0,133.22,190.2Zm-1.69-25.07a11.57,11.57,0,0,0,1.28-1.43,4.65,4.65,0,0,0,.64-2,7.4,7.4,0,0,0,.24-2,3,3,0,0,0-.89-1.56.88.88,0,0,0-.87-.23,3.1,3.1,0,0,0-1.42.69,5.92,5.92,0,0,0-.93,2,5,5,0,0,0-.52,1.91,10.77,10.77,0,0,0,.38,2.1A1.25,1.25,0,0,0,131.53,165.13Zm-15,23.72a2.86,2.86,0,0,0,1.65-1,5,5,0,0,0,1.06-2.37,1.87,1.87,0,0,0-.64-1.93,1.79,1.79,0,0,0-2-.15l-.73.37a3.37,3.37,0,0,0-1.28,1.15,3.2,3.2,0,0,0-.61,1.65,2.34,2.34,0,0,0,.83,1.86A2.13,2.13,0,0,0,116.54,188.85ZM59,143.13c1.67-3,1.15-7.94-1.09-10.31a3.85,3.85,0,0,0-5.47,0c-3.1,3.45-1.78,9.5,2.06,11.68l.11.13C56.08,146.29,58.58,145.11,59,143.13Zm2.44-16.3a3.43,3.43,0,0,0,.59-2.51,14.18,14.18,0,0,0-.55-1.93,1.69,1.69,0,0,0-1.84-1.24,1.75,1.75,0,0,0-1.46,1.7,13.75,13.75,0,0,0-.13,2,3.49,3.49,0,0,0,1.15,2.25A1.41,1.41,0,0,0,61.4,126.83Zm84.39-91.57c1.9-1.34,1.53-4.2.38-5.91a15,15,0,0,0-1.63-2.1,3.47,3.47,0,0,0-1.8-.95l-.84-.12c.32.07.29.07-.09,0a2.38,2.38,0,0,0-2.94,2.3v.22l0,.1a3.79,3.79,0,0,0,.35,2.7c.28.56.64,1.15,1,1.69C141.32,35,143.72,36.72,145.79,35.26ZM144.58,24a3.68,3.68,0,0,0-1.09-2,12.53,12.53,0,0,0-1.64-1.17,2,2,0,0,0-2.73.74,2.11,2.11,0,0,0,.72,2.8l.55.4,0,0,.29.27a3.14,3.14,0,0,0,1.21.74l.64.22C143.75,26.55,144.91,25.16,144.58,24Zm8.9,22.24a2.43,2.43,0,0,0-.14-1.68,4.83,4.83,0,0,0-.83-.86,1.29,1.29,0,0,0-1.57-.2,1.41,1.41,0,0,0-.6,1.5,3.32,3.32,0,0,0,.31,1.17,2.51,2.51,0,0,0,1.32,1A1.23,1.23,0,0,0,153.48,46.26Zm-44.91,54.85a1.82,1.82,0,0,0,.31.16,2.74,2.74,0,0,0,3.72-1,3.67,3.67,0,0,0,.29-.6,6.75,6.75,0,0,0,1.35-5,16.42,16.42,0,0,0-1.83-5.28c-1-2.37-4.25-3.06-6.37-2.15a5.11,5.11,0,0,0-1.66,1.18,24.4,24.4,0,0,0-2.12-3.88,5,5,0,0,0-1.3-1.32c-1.09-1.27-2.56-1.78-4.54-.57C92.67,84.92,93.66,91.55,95,95c.78,2.09,1.88,4.48,3.9,5.58a4.64,4.64,0,0,0,6.23-1.88A5.55,5.55,0,0,0,108.57,101.11ZM99.82,77.84c.13-.58-.15-.91-.37-1.39,0,0,0-.07,0-.11a.86.86,0,0,1-.05-.15,4.25,4.25,0,0,1-.14-.51,1.24,1.24,0,0,0-1.68-.83,1.31,1.31,0,0,0-.6,1.82,6.31,6.31,0,0,0,.7,1.09c.32.39.71.85,1.26.8A1,1,0,0,0,99.82,77.84Zm4.42-7.44c0-.11.08-.21.13-.32,1.21-1.61.52-4-.75-5.42a6.18,6.18,0,0,0-3.48-2.12A2.75,2.75,0,0,0,96.81,66c.73,2.17,2.21,5.12,4.61,5.4l.26.09A2.24,2.24,0,0,0,104.24,70.4ZM17.55,221.55a3.34,3.34,0,0,0,2-1.6,3.64,3.64,0,0,0-.53-4.22L17.48,214a3.07,3.07,0,0,0-4.11-.25,3.28,3.28,0,0,0-.81,4.15c.39.69.78,1.38,1.16,2.08A3.45,3.45,0,0,0,17.55,221.55Z"/><path class="cls-5" d="M18.67,53.6a7.46,7.46,0,0,1-.89-3.75,2.88,2.88,0,0,1-.92.88,2.33,2.33,0,0,1-2.39,0c-1.5-.93-1.4-2.91-1-4.42a4.11,4.11,0,0,1,3.73-2.67,2.12,2.12,0,0,1,2.05,2A16.56,16.56,0,0,1,21.44,43c2.14-2.16,5.87-3.7,8.8-2.67,1.36.48,2.61,2.1,2,3.65a29.24,29.24,0,0,1-2.88,5.3c-.29.46-.59.91-.84,1.4-.12.24-.49,1.15-.22.47A7.38,7.38,0,0,1,25,55.29,4.59,4.59,0,0,1,18.67,53.6ZM36.4,37.3a2.61,2.61,0,0,1,.43-.24A3.09,3.09,0,0,0,38,35.91a3.17,3.17,0,0,0,.43-1.62A4,4,0,0,0,38,32.78a2.27,2.27,0,0,0-.86-1.13,3.21,3.21,0,0,0-2.72-.44,3.12,3.12,0,0,0-1.62,1.14,3,3,0,0,0-.67,1.94,6.26,6.26,0,0,0,.18,1.3A2.78,2.78,0,0,0,36.4,37.3ZM56.82,195.83a3.77,3.77,0,0,0,2.65-3.57c0-.58.16-1.07.16-1.7a7.38,7.38,0,0,0-.79-2.81A6.69,6.69,0,0,0,56,184.1a3.57,3.57,0,0,0-4.34.69,8.09,8.09,0,0,1-.56-.6,1.45,1.45,0,0,0-2.46,1.05,11.15,11.15,0,0,1-.07,1.29,4.86,4.86,0,0,0,.3,1.74c.16.46.29.95.49,1.39a2,2,0,0,0,.6.8c.09.07.85.58.53.26A1,1,0,0,0,51,191a6,6,0,0,0,1.4,2.62l.36.5A3.71,3.71,0,0,0,56.82,195.83ZM64,191.08a2.77,2.77,0,0,0,.17-1A3.86,3.86,0,0,0,63.7,189a.8.8,0,0,0-1-.35.86.86,0,0,0-.48,1,3.48,3.48,0,0,0,.26,1,2.71,2.71,0,0,0,.7.65A.49.49,0,0,0,64,191.08Zm9.72,7.86.67-.28c1.44-2.11,1.59-3.79.44-5.06a3.65,3.65,0,0,0-.8-.67,2.82,2.82,0,0,0-3.87,1,3.19,3.19,0,0,0-.3,2.38c.13.42.33.83.5,1.24l.47.62a2.37,2.37,0,0,0,1,.63A2.69,2.69,0,0,0,73.7,198.94Zm61-8a4.23,4.23,0,0,0,1.77-.72,6.16,6.16,0,0,0,1.32-1.75,7.91,7.91,0,0,0,.83-1.61,7.51,7.51,0,0,0,.23-2,2,2,0,0,0-1.51-2.09,13.5,13.5,0,0,0,2.68-6c.45-2.09.25-7.3-3-6.87-2.58.34-4.12,2.26-5.44,4.44s-2.26,4-2,6.15c-.2,1.79-.46,4,1.53,4.86a2.86,2.86,0,0,0,1.57.21,4.66,4.66,0,0,0-.79,1.43,5.76,5.76,0,0,0,.1,2.3A2.25,2.25,0,0,0,134.69,190.9ZM133,165.83a11.57,11.57,0,0,0,1.28-1.43,4.7,4.7,0,0,0,.64-2,7.4,7.4,0,0,0,.24-2,3,3,0,0,0-.89-1.56.89.89,0,0,0-.87-.24,3.1,3.1,0,0,0-1.42.69,6.29,6.29,0,0,0-.94,2,4.89,4.89,0,0,0-.51,1.91,10.77,10.77,0,0,0,.38,2.1A1.24,1.24,0,0,0,133,165.83Zm-15,23.73a2.86,2.86,0,0,0,1.65-1,5,5,0,0,0,1.06-2.38,1.89,1.89,0,0,0-.64-1.93,1.79,1.79,0,0,0-2-.14l-.73.37a3.29,3.29,0,0,0-1.28,1.15,3.08,3.08,0,0,0-.61,1.65,2.28,2.28,0,0,0,.83,1.85A2.1,2.1,0,0,0,118,189.56ZM60.43,143.84c1.67-3,1.15-7.94-1.09-10.31a3.84,3.84,0,0,0-5.47,0c-3.1,3.45-1.78,9.49,2.06,11.68l.11.12C57.55,147,60.05,145.81,60.43,143.84Zm2.44-16.3a3.47,3.47,0,0,0,.59-2.51,14.18,14.18,0,0,0-.55-1.93,1.69,1.69,0,0,0-1.84-1.24,1.74,1.74,0,0,0-1.46,1.7,13.7,13.7,0,0,0-.13,2,3.53,3.53,0,0,0,1.14,2.26A1.42,1.42,0,0,0,62.87,127.54Zm83.81-91.86c1.89-1.33,1.52-4.19.38-5.91a17.35,17.35,0,0,0-1.63-2.1,3.41,3.41,0,0,0-1.81-.94l-.83-.12c.31.07.28.07-.09,0a2.37,2.37,0,0,0-2.94,2.3,1.87,1.87,0,0,0,0,.21.52.52,0,0,1,0,.11,3.8,3.8,0,0,0,.34,2.69c.29.57.64,1.15,1,1.69C142.21,35.45,144.61,37.15,146.68,35.68Zm-1.21-11.24a3.74,3.74,0,0,0-1.09-2,14.3,14.3,0,0,0-1.64-1.16,2,2,0,0,0-2.74.74,2.12,2.12,0,0,0,.72,2.8l.56.4,0,0,.3.26a3,3,0,0,0,1.21.74l.63.23C144.64,27,145.8,25.59,145.47,24.44Zm8.9,22.25a2.43,2.43,0,0,0-.15-1.68,4.45,4.45,0,0,0-.82-.86,1.32,1.32,0,0,0-1.58-.21,1.41,1.41,0,0,0-.59,1.5,3.6,3.6,0,0,0,.3,1.18,2.51,2.51,0,0,0,1.32,1A1.23,1.23,0,0,0,154.37,46.69ZM110,101.82l.31.16a2.75,2.75,0,0,0,3.72-1c.11-.2.2-.4.29-.6a6.75,6.75,0,0,0,1.35-5,16.47,16.47,0,0,0-1.83-5.29c-1-2.37-4.25-3-6.37-2.14a5.24,5.24,0,0,0-1.66,1.17,24.27,24.27,0,0,0-2.12-3.87,5.16,5.16,0,0,0-1.3-1.33c-1.09-1.26-2.56-1.77-4.54-.56-3.75,2.3-2.76,8.93-1.47,12.38.78,2.09,1.88,4.48,3.89,5.57a4.64,4.64,0,0,0,6.24-1.87A5.56,5.56,0,0,0,110,101.82Zm-9.37-23.57c.13-.58-.14-.91-.37-1.39a.45.45,0,0,0,0-.1.76.76,0,0,0,0-.16,3.8,3.8,0,0,1-.13-.51,1.25,1.25,0,0,0-1.69-.83,1.29,1.29,0,0,0-.59,1.82,6.47,6.47,0,0,0,.69,1.09c.32.4.72.86,1.27.81A1,1,0,0,0,100.67,78.25Zm4.42-7.44c0-.1.09-.21.13-.31,1.22-1.62.52-4-.74-5.43A6.25,6.25,0,0,0,101,63a2.76,2.76,0,0,0-3.34,3.43c.73,2.17,2.21,5.12,4.62,5.4l.26.1A2.25,2.25,0,0,0,105.09,70.81ZM19,222.25a3.36,3.36,0,0,0,2-1.59,3.64,3.64,0,0,0-.53-4.22L19,214.68a3.06,3.06,0,0,0-4.11-.25,3.27,3.27,0,0,0-.81,4.14l1.16,2.09A3.43,3.43,0,0,0,19,222.25Z"/><path class="cls-6" d="M17.72,52.89a7.57,7.57,0,0,1-.89-3.75,2.78,2.78,0,0,1-.92.88,2.33,2.33,0,0,1-2.39,0c-1.5-.93-1.4-2.9-.94-4.42a4.1,4.1,0,0,1,3.73-2.67,2.12,2.12,0,0,1,2,2,16.62,16.62,0,0,1,2.15-2.68c2.13-2.16,5.86-3.69,8.79-2.67,1.36.48,2.62,2.1,2,3.66a29.5,29.5,0,0,1-2.88,5.29c-.29.47-.58.92-.84,1.41-.12.23-.49,1.14-.22.47A7.42,7.42,0,0,1,24,54.59,4.6,4.6,0,0,1,17.72,52.89Zm17.74-16.3a2.52,2.52,0,0,1,.43-.24A3.17,3.17,0,0,0,37,35.2a3.22,3.22,0,0,0,.42-1.61,4.19,4.19,0,0,0-.36-1.52A2.3,2.3,0,0,0,36.21,31a3.21,3.21,0,0,0-2.73-.45,3.12,3.12,0,0,0-1.62,1.15,3,3,0,0,0-.67,1.94,7,7,0,0,0,.18,1.29A2.79,2.79,0,0,0,35.46,36.59ZM56.31,195.45A3.75,3.75,0,0,0,59,191.88c0-.58.16-1.07.16-1.7a7.21,7.21,0,0,0-.79-2.81,6.69,6.69,0,0,0-2.86-3.65,3.57,3.57,0,0,0-4.34.69c-.19-.19-.38-.38-.56-.59a1.45,1.45,0,0,0-2.46,1,11.15,11.15,0,0,1-.07,1.29,4.86,4.86,0,0,0,.3,1.74c.16.46.29,1,.49,1.39a2,2,0,0,0,.6.8c.09.07.85.58.53.26a1,1,0,0,0,.51.29,6.09,6.09,0,0,0,1.4,2.62l.36.5A3.71,3.71,0,0,0,56.31,195.45Zm7.16-4.75a2.77,2.77,0,0,0,.17-1,3.84,3.84,0,0,0-.44-1.07.8.8,0,0,0-1-.34.83.83,0,0,0-.47,1,3.39,3.39,0,0,0,.25,1,2.6,2.6,0,0,0,.71.65A.48.48,0,0,0,63.47,190.7Zm9.72,7.86.67-.28c1.44-2.11,1.59-3.79.45-5.06a3.71,3.71,0,0,0-.81-.67,2.81,2.81,0,0,0-3.86,1,3.19,3.19,0,0,0-.3,2.38,11.08,11.08,0,0,0,.5,1.24l.46.62a2.27,2.27,0,0,0,1,.63A2.64,2.64,0,0,0,73.19,198.56Zm60.56-8.36a4.44,4.44,0,0,0,1.77-.73,6.18,6.18,0,0,0,1.31-1.75,7.83,7.83,0,0,0,.83-1.6,8,8,0,0,0,.24-2,2,2,0,0,0-1.52-2.1,13.5,13.5,0,0,0,2.68-6c.45-2.09.26-7.3-3-6.87-2.57.34-4.12,2.27-5.44,4.44s-2.26,4-2,6.15c-.21,1.8-.47,4,1.53,4.86a2.84,2.84,0,0,0,1.57.22,4.29,4.29,0,0,0-.8,1.43,5.71,5.71,0,0,0,.1,2.29A2.27,2.27,0,0,0,133.75,190.2Zm-1.7-25.07a10.82,10.82,0,0,0,1.28-1.43,4.65,4.65,0,0,0,.64-2,7.4,7.4,0,0,0,.24-2,3,3,0,0,0-.89-1.56.88.88,0,0,0-.87-.23,3.15,3.15,0,0,0-1.42.69,5.92,5.92,0,0,0-.93,2,5.13,5.13,0,0,0-.52,1.91,10.77,10.77,0,0,0,.38,2.1A1.25,1.25,0,0,0,132.05,165.13Zm-15,23.72a2.83,2.83,0,0,0,1.65-1,5,5,0,0,0,1.06-2.37,1.87,1.87,0,0,0-.64-1.93,1.79,1.79,0,0,0-2-.15l-.73.37a3.37,3.37,0,0,0-1.28,1.15,3.2,3.2,0,0,0-.61,1.65,2.34,2.34,0,0,0,.83,1.86A2.13,2.13,0,0,0,117.06,188.85ZM59.48,143.13c1.67-3,1.15-7.94-1.09-10.31a3.85,3.85,0,0,0-5.47,0c-3.1,3.45-1.77,9.5,2.06,11.68l.12.13C56.6,146.29,59.11,145.11,59.48,143.13Zm2.45-16.3a3.42,3.42,0,0,0,.58-2.51,15.74,15.74,0,0,0-.54-1.93,1.7,1.7,0,0,0-1.85-1.24,1.75,1.75,0,0,0-1.46,1.7,15.27,15.27,0,0,0-.13,2,3.49,3.49,0,0,0,1.15,2.25A1.42,1.42,0,0,0,61.93,126.83Zm84.18-91.57c1.89-1.34,1.52-4.2.38-5.91a16.61,16.61,0,0,0-1.63-2.1,3.54,3.54,0,0,0-1.81-.95l-.83-.12c.31.07.28.07-.09,0a2.37,2.37,0,0,0-2.94,2.3,2,2,0,0,0,0,.22.44.44,0,0,1,0,.1,3.84,3.84,0,0,0,.34,2.7c.29.56.64,1.15,1,1.69C141.64,35,144,36.72,146.11,35.26ZM144.9,24a3.74,3.74,0,0,0-1.09-2,13.24,13.24,0,0,0-1.64-1.17,2,2,0,0,0-2.74.74,2.12,2.12,0,0,0,.72,2.8l.56.4,0,0,.29.27a3.22,3.22,0,0,0,1.21.74l.64.22C144.07,26.55,145.23,25.16,144.9,24Zm8.9,22.24a2.43,2.43,0,0,0-.15-1.68,4.22,4.22,0,0,0-.83-.86,1.29,1.29,0,0,0-1.57-.2,1.4,1.4,0,0,0-.59,1.5,3.54,3.54,0,0,0,.3,1.17,2.59,2.59,0,0,0,1.32,1A1.24,1.24,0,0,0,153.8,46.26Zm-44.71,54.85a1.82,1.82,0,0,0,.31.16,2.75,2.75,0,0,0,3.73-1,4.66,4.66,0,0,0,.28-.6,6.67,6.67,0,0,0,1.35-5,16.64,16.64,0,0,0-1.82-5.28c-1-2.37-4.26-3.06-6.38-2.15a5.11,5.11,0,0,0-1.66,1.18,24.4,24.4,0,0,0-2.12-3.88,5,5,0,0,0-1.3-1.32c-1.09-1.27-2.56-1.78-4.54-.57-3.75,2.3-2.75,8.93-1.47,12.38.78,2.09,1.88,4.48,3.9,5.58a4.64,4.64,0,0,0,6.23-1.88A5.55,5.55,0,0,0,109.09,101.11Zm-9-23.27c.13-.58-.14-.91-.37-1.39,0,0,0-.07,0-.11a.86.86,0,0,0,0-.15,4.23,4.23,0,0,1-.13-.51,1.25,1.25,0,0,0-1.69-.83,1.29,1.29,0,0,0-.59,1.82,6.9,6.9,0,0,0,.69,1.09c.32.39.72.85,1.27.8A1,1,0,0,0,100.12,77.84Zm4.42-7.44c0-.11.09-.21.13-.32,1.22-1.61.52-4-.74-5.42a6.25,6.25,0,0,0-3.48-2.12A2.76,2.76,0,0,0,97.11,66c.73,2.17,2.21,5.12,4.62,5.4l.26.09A2.23,2.23,0,0,0,104.54,70.4ZM18.07,221.55a3.34,3.34,0,0,0,2-1.6,3.64,3.64,0,0,0-.53-4.22L18,214a3.07,3.07,0,0,0-4.11-.25,3.28,3.28,0,0,0-.81,4.15c.39.69.78,1.38,1.16,2.08A3.45,3.45,0,0,0,18.07,221.55Z"/><path class="cls-4" d="M32.52,4.18A8.35,8.35,0,0,0,31,4a6.06,6.06,0,0,0-.74,0l-.26,0a3.67,3.67,0,0,1-.81,0c-.21,0-.43,0-.64.06.18-.48.39-.8.66-.81,1,0,2,0,3.07,0a4.86,4.86,0,0,1,1.53.1c.43.25.21.12.41.61a7.68,7.68,0,0,1,.56,1.47A16,16,0,0,1,35,7.28q.32,3.06.62,6.13c0-.52.06-1,.1-1.57,0,.44,0,.87,0,1.31s0,.83.06,1.26a9.48,9.48,0,0,0,0,1.06C35.43,12.63,35,9.79,34.21,7a10.32,10.32,0,0,0-.78-2.16,1.37,1.37,0,0,0-.38-.48A1.3,1.3,0,0,0,32.52,4.18Z"/><path class="cls-4" d="M108.22,4.43h-.06c-.25,0-.47.11-.71.14-.7.08-1.45-.06-2.16,0a5.78,5.78,0,0,0-3.84,1.33c-1.25,1.17-1.62,3-1.91,4.66l-.06-4a1.64,1.64,0,0,0-.14-.79,1.67,1.67,0,0,0-1.17-.65,30,30,0,0,0-8.24-.69,6,6,0,0,0-.73,2,1.67,1.67,0,0,0-2.1-1.3,4.14,4.14,0,0,0-2.17,1.71c0-1.14-1.25-1.89-2.37-2.08-.91-.16-1.83-.11-2.73-.27a2.89,2.89,0,0,0-.88,0c-.4,0-.8,0-1.2,0a17,17,0,0,0-3.26.28,17.56,17.56,0,0,0-1.77.43l-.87.3-.18.06a1.92,1.92,0,0,1,.27-.62,2.26,2.26,0,0,1,1.87-.59c1.37,0,2.69-.13,4.06-.22,1.58-.09,3.15,0,4.73,0q5.73,0,11.46,0c3.82,0,7.62,0,11.43-.06a10.81,10.81,0,0,0,3-.2,8.32,8.32,0,0,1,3.26,0,1.38,1.38,0,0,1,.69.23,1.19,1.19,0,0,1,.32.58,18.88,18.88,0,0,1,.55,5.15,33.14,33.14,0,0,0,.6,5.05c0,.43.07.86.13,1.28-.58-2.76-1.09-5.54-1.56-8.34a7.62,7.62,0,0,0-.41-1.71A2.55,2.55,0,0,0,111,4.81a3.66,3.66,0,0,0-1.57-.33A11.84,11.84,0,0,0,108.22,4.43Z"/><path class="cls-4" d="M68.7,26.61c-.29-5.5-1.21-11-1.41-16.47a13.08,13.08,0,0,0-.55-4.05c-.34-.89-2.15-1.79-2.8-.73a1.7,1.7,0,0,0-.17.51,14.7,14.7,0,0,0-.25,3,11.52,11.52,0,0,0-1.47-3.65,1.75,1.75,0,0,0-.42-.55A1.72,1.72,0,0,0,61,4.46a5.3,5.3,0,0,0-1.76-.27,6,6,0,0,1-1.2,0,44.65,44.65,0,0,0-4.77,0,1.44,1.44,0,0,0-.54.1,1.61,1.61,0,0,0-.52.52c-.32.45-.64.91-1,1.35a.18.18,0,0,1-.08.09A.21.21,0,0,1,51,6.14,7.63,7.63,0,0,0,48.51,4.3a4.65,4.65,0,0,0-1.35-.49,11.17,11.17,0,0,0-3.55.3,2.4,2.4,0,0,0-1.22.61,2.65,2.65,0,0,0-.5,1,40.37,40.37,0,0,0-1.14,4.74c-.07-2.08-.13-4.16-.2-6.24,0,0-2.38-.2-2.6-.25a1.21,1.21,0,0,0-.84,0,2.51,2.51,0,0,0-.91.66c0-.38,0-.76.07-1.14a.51.51,0,0,1,.17-.42.82.82,0,0,1,.22,0c5.91.27,11.88.56,17.81.68A95.33,95.33,0,0,1,64.33,4c.3,0,3.57.27,3.57.26C68.44,11.72,68.72,19.16,68.7,26.61Z"/><path class="cls-4" d="M68.74,27.81h0a.57.57,0,0,0,0,.13A.49.49,0,0,0,68.74,27.81Z"/><path class="cls-4" d="M141.69,31.29c-.41-3.31.05-6.71-.51-10-.18-1.09-.47-2.16-.58-3.26s0-2-.07-3a26.25,26.25,0,0,0-1.41-7.48,5,5,0,0,0-1.18-2.27,3.11,3.11,0,0,0-.79-.55,4,4,0,0,0-1.82-.47,2.9,2.9,0,0,1-.51,0c-.52,0-1-.11-1.55-.12a13,13,0,0,0-3.1.34,1.51,1.51,0,0,0-.78.38,1.61,1.61,0,0,0-.3.83l-.57,3.72c-.12-1.71-.25-3.42-.38-5.12,0,.11-4.1.07-4.46.1-1.38.08-2.79.12-4.18.23a11.52,11.52,0,0,0-2.68.42,6.32,6.32,0,0,0-.61.22,2.82,2.82,0,0,1,.29-.39,3,3,0,0,1,2.14-1.1,1.75,1.75,0,0,1,.55.08,6.29,6.29,0,0,0,1.68,0l7.38-.15a39.89,39.89,0,0,0,4.65-.27,22.71,22.71,0,0,1,2.33-.11,17.06,17.06,0,0,1,2.86.1,4.2,4.2,0,0,1,1.51.38,1.43,1.43,0,0,1,.91,1.25,18.7,18.7,0,0,0,.21,2.58c.2,1.92.35,3.84.47,5.76.26,3.93.39,7.88.46,11.83,0,1.92,0,3.85,0,5.77Z"/><path class="cls-4" d="M124.25,203.8c-1.26,5.81-.58,11.88-1.35,17.8a38.26,38.26,0,0,0-.71,7.15,8,8,0,0,1,0,2.68,3,3,0,0,1-1.44,1.68c-1.1.7-2.68.65-3.94.73a92.71,92.71,0,0,1-9.86-.31,1.59,1.59,0,0,1-1-.3,1.44,1.44,0,0,1-.34-.66h.19a8.64,8.64,0,0,1,1.61.06,16.43,16.43,0,0,0,2.18.27h1a6.06,6.06,0,0,0,1-.15,7.31,7.31,0,0,1,1.32-.07c.94,0,1.88-.12,2.81-.24a.6.6,0,0,0,.44-.19.63.63,0,0,0,.07-.36,91.41,91.41,0,0,0-.62-9.65,40.35,40.35,0,0,0,1.26,8.19,2,2,0,0,0,.81,1.34,2.07,2.07,0,0,0,1.28,0,2.22,2.22,0,0,0,1.39-.66,2.17,2.17,0,0,0,.32-.89c0-.18.08-.37.11-.56q.54-2.81.83-5.66c.1-.94.17-1.89.23-2.85s.25-1.84.32-2.8c0-.56.07-1.14.11-1.71.11-1.95.23-3.89.34-5.83.07-1,.08-1.94.19-2.89a2.32,2.32,0,0,1,.25-.77,3,3,0,0,0,.15-.45c.18-.85.28-1.73.44-2.59.11-.62.22-1.22.34-1.83l.16-.85a3.73,3.73,0,0,0,.14-.68C124.23,201.79,124.25,202.79,124.25,203.8Z"/><path class="cls-4" d="M85.39,234c-5.69,0-11.37-.12-17-.13-1.88,0-5.1.24-6.78-.73a2,2,0,0,1-.92-1.3,4.28,4.28,0,0,0,.43.17,13.09,13.09,0,0,0,2.48.64,6.37,6.37,0,0,1,1.16.18,4.3,4.3,0,0,0,1.2.17l3.61.3,2.91.25,1.45.12a2.32,2.32,0,0,0,.64,0,.73.73,0,0,1,.2,0c.23-.06.51,0,.7-.2a.75.75,0,0,0,.2-.43,18.89,18.89,0,0,0,.57-4.54,5.92,5.92,0,0,1,.1,2,4.84,4.84,0,0,0,.18,2,2.05,2.05,0,0,0,.86,1,3.45,3.45,0,0,0,.62.2,5.51,5.51,0,0,0,1.15,0l2.12,0c2,0,3.92,0,5.88-.19,1.49-.1,3-.24,4.46-.33.48,0,.74-.32,1.17-.43s1.16.15,1.64-.18a1.51,1.51,0,0,0,.44-1.29l.12-9.2a31.66,31.66,0,0,0,.9,8.54,3.63,3.63,0,0,0,.3,1,2.71,2.71,0,0,0,1.35,1.1c.27.12.56.2.84.31a1.24,1.24,0,0,0,.29.1,5.85,5.85,0,0,0,1.1-.06l1.29-.08a2.57,2.57,0,0,0,1.4-.33,2.75,2.75,0,0,0,.92-1.74l1.21-4.94a9.09,9.09,0,0,1,.13,1.3c-.41,1.79-.83,3.56-1.24,5.35a1.46,1.46,0,0,1-.27.64c-.65.7-2.87.54-3.71.61-1.62.13-3.25.19-4.88.21C91.51,234.09,88.44,234,85.39,234Z"/><path class="cls-4" d="M136.4,222.81c-.05-.64-.08-1.27-.1-1.91q-.6,6-1.18,12a1.75,1.75,0,0,1-.35,1,1.61,1.61,0,0,1-.76.35,15.79,15.79,0,0,1-3.82.33,38.86,38.86,0,0,1-5.57-.68c-.88-.18-.94-.74-.84-1.34a1.42,1.42,0,0,0,1,.61,62.7,62.7,0,0,0,7,0,4.41,4.41,0,0,0,1.3-.25,1.62,1.62,0,0,0,.7-.53,1.88,1.88,0,0,0,.21-.36.61.61,0,0,0,.07-.14c0-.09.08-.15.11-.23a1.27,1.27,0,0,0,.09-.42c.1-.6.21-1.18.31-1.78.39-2.34.69-4.7.91-7.06a30.57,30.57,0,0,1,.62-4.58c.07,1.13.19,2.11.23,3.23C136.35,221.65,136.38,222.24,136.4,222.81Z"/><path class="cls-4" d="M34.11,233.69a11.26,11.26,0,0,0,1.63.25c.92.08,1.85.07,2.77.07a8.32,8.32,0,0,0,2.39-.14,4.58,4.58,0,0,1,1.72-.29,2.89,2.89,0,0,0,2.15-.48,3.19,3.19,0,0,0,.71-2.42c0-1.49,0-3,.05-4.47.24,2,.56,3.94,1,5.88a1.22,1.22,0,0,0,.37.78,1.24,1.24,0,0,0,.83.16c2-.08,3.94-.13,5.9-.24,1.1-.06,2-.26,2.41-1.4a26.13,26.13,0,0,0,.68-3.92c.35-2.34.66-4.67.94-7,.54-4.68.94-9.38,1.13-14.09-.18,9.12-.72,18.24-1.6,27.31,0,.43-1,.56-1.28.63a24.45,24.45,0,0,1-3.41.43c-3.11.24-6.23.31-9.34.34H43c-.64,0-1.27,0-1.92.06a48.89,48.89,0,0,1-5.55-.06,7.65,7.65,0,0,1-1.63-.35,2.67,2.67,0,0,1-.75-.33,3.41,3.41,0,0,1-1.06-1.67,4.15,4.15,0,0,0,1.2.7A6,6,0,0,0,34.11,233.69Z"/><path class="cls-4" d="M150.22,3q6.69-.18,13.35-.49a5.5,5.5,0,0,1,5.73,5,1390.22,1390.22,0,0,1,0,223.44,5.5,5.5,0,0,1-5.81,5q-5.89-.36-11.8-.64c-2.75-.13-5.51-.26-8.27-.37a6.4,6.4,0,0,1-1.52-.21c-.89-.28-1.87-.22-2.8-.44a1.7,1.7,0,0,1-.81-.39,1.73,1.73,0,0,1-.35-.82s0-.05,0-.08l.09,0c1.21.08,2.48.29,3.69.25a7,7,0,0,1,1.21-.06,4.73,4.73,0,0,0,1.76-.09,3.1,3.1,0,0,0,2.09-3.56c1,1.09.47,3.13,1.7,3.91a3,3,0,0,0,2.28.07,110.31,110.31,0,0,0,.56-13.84,36.23,36.23,0,0,0,1.3,11.81,3.24,3.24,0,0,0,.89,1.67,3.36,3.36,0,0,0,1.68.56c1,.13,2,.22,3,.41.29.06.54.21.83.27a6.06,6.06,0,0,0,1.41,0,14.64,14.64,0,0,0,3.3-.36,7.6,7.6,0,0,0,1.87-.74,3,3,0,0,0,1.68-1.7,7,7,0,0,0,.34-1.84c.18-2.05.21-3.46.45-5.51.33-2.85.62-5.69.89-8.54q.54-5.78.95-11.57.19-2.9.38-5.79a5.81,5.81,0,0,0,0-1.25,2.37,2.37,0,0,1,0-.92,13.07,13.07,0,0,0,.36-2.78,2.79,2.79,0,0,0-1.9-2.72,2.43,2.43,0,0,1,1.57-.41,6.21,6.21,0,0,0-1.72-1.29,4.83,4.83,0,0,1,2.53-1.26,28.43,28.43,0,0,1,0-7l-2.53-1a7.68,7.68,0,0,0,3.16-5.68,33.52,33.52,0,0,0-.28-6.71,47.25,47.25,0,0,1,.06-8.74,1.37,1.37,0,0,0-.15-1,1.36,1.36,0,0,0-.58-.39,11.62,11.62,0,0,0-2.16-.63,4.19,4.19,0,0,0,2.68-2.38,8.38,8.38,0,0,0,.64-3.61c0-2.27-.47-4.52-.49-6.79a31.18,31.18,0,0,1,.25-3.74,38.33,38.33,0,0,0,.37-5.46c0-.45-.06-.89-.12-1.34a8.08,8.08,0,0,1-.18-1.2c0-.26.09-.51.12-.76a11.47,11.47,0,0,0,0-1.55c0-1.14,0-2.28,0-3.42,0-3.89.09-7.79.14-11.68s.09-7.78.13-11.68c0-1.94,0-3.89.07-5.84,0-.44.1-.85.08-1.29l-.33-7.28-.27-6a16.16,16.16,0,0,1,.31-2.38,6,6,0,0,0-.2-2.75,2.72,2.72,0,0,0-3.13-1.87,3.2,3.2,0,0,0,3-2.58,10.63,10.63,0,0,0-.17-4.27A54.37,54.37,0,0,1,171,57.89l-3.06-.35A11,11,0,0,0,171,56.25a6.77,6.77,0,0,0-4.52-.41c1.38-1,3.61-.81,4.42-2.3s-.59-3.35-.41-5.07l-2.93.19a3.4,3.4,0,0,0,2.51-1.56c.8-1.19.52-2.29.42-3.62s-.22-2.9-.34-4.34q-.28-3.87-.59-7.75a8.27,8.27,0,0,1-.08-1.72,5,5,0,0,0,.17-1.16,135.81,135.81,0,0,0-1.53-18.9,10.59,10.59,0,0,0-1-3.32,4.66,4.66,0,0,0-1.48-1.64,4.57,4.57,0,0,0-1.49-.52,6.33,6.33,0,0,1-1-.42,7.08,7.08,0,0,0-2.25-.6,3.21,3.21,0,0,0-3.05,1.43c-.68,1.23-.17,2.85-.81,4.1a10.53,10.53,0,0,0-.37-4.36,1.2,1.2,0,0,0-.32-.57,1.17,1.17,0,0,0-.55-.16,11.44,11.44,0,0,0-2.68,0c-.44.05-.87.18-1.29.21l-1.45.08c-1.92.11-3.83.24-5.74.34-.32,0-.51.09-.75.08,0-.1,0-.2,0-.3a.53.53,0,0,1,.09-.33.54.54,0,0,1,.28-.11A49,49,0,0,1,150.22,3Z"/><path class="cls-4" d="M7.94,231A1485.4,1485.4,0,0,1,8,7.57a5.51,5.51,0,0,1,5.72-5.08c.66,0,1.32,0,2,0a11.28,11.28,0,0,1,1.65.06c.19,0,.35.13.54.16.64.09,1.29.13,1.93.18l3.87.37.35,0a1.07,1.07,0,0,1,.58.18.94.94,0,0,1,.28.46,18.05,18.05,0,0,1,1.33,6.69,49.08,49.08,0,0,0,.62,7.27c.14,1,.27,2,.41,3v.26c0,.19,0,.38,0,.58a3.69,3.69,0,0,0,0,.47c-1.07-4.95-1.73-10-2.5-15a5.71,5.71,0,0,0-.52-1.91l-.08-.14a2.32,2.32,0,0,0-1.88-1.26c-.37,0-.74-.08-1.11-.1a2.43,2.43,0,0,0-2,.62,3.13,3.13,0,0,0-.58,1.17A29.91,29.91,0,0,0,17.12,14q0-3.46.05-6.93c0-.7,0-1.42,0-2.12,0-.47,0-1.32-.38-1.66a1,1,0,0,0-.54-.23,24.11,24.11,0,0,0-3.18.16,5.28,5.28,0,0,0-1.9.17A3.93,3.93,0,0,0,8.88,6.2,12.16,12.16,0,0,0,8.54,8c0,.31-.07.61-.1.92,0,.15,0,.31-.07.46a3.34,3.34,0,0,0,0,.43,1.81,1.81,0,0,1,0,.23c0,.23,0,.47,0,.71v1c0,1.24,0,2.49,0,3.74,0,.62-.09,1.24-.17,1.86a1.9,1.9,0,0,0,0,.41,2.13,2.13,0,0,0,0,.25.67.67,0,0,1,0,.2,13.11,13.11,0,0,1-.28,1.7,1.85,1.85,0,0,0,0,1.07,2,2,0,0,0,1.42,1,10.28,10.28,0,0,1,1.75.48,13.7,13.7,0,0,1-1.92,0,1.9,1.9,0,0,0-1.66.79A2.38,2.38,0,0,0,7.3,24.4c0,.63,0,1.26,0,1.89a9.68,9.68,0,0,0,.15,1.22,10.21,10.21,0,0,1-.1,1.83c0,.65-.09,1.29-.13,1.94Q6.91,35.15,6.69,39c0,.69-.12,1.4-.12,2.09Q6,50.8,5.73,60.49c-.06,1.94,0,3.9-.17,5.83a3.23,3.23,0,0,1-.15.7,3,3,0,0,0,.3,1.68,6.31,6.31,0,0,0,2.37,3c-2.08.63-3.23,2.94-3.44,5.11s.24,4.36.15,6.54c0,.63,0,1.24,0,1.86,0,.42-.17.85-.21,1.27a3.92,3.92,0,0,0,.09,1.67c0,.17.14.33.2.5A6.36,6.36,0,0,1,5,90.45c0,1.42,0,2.83,0,4.24q0,4.25-.16,8.48c0,1.4-.11,2.8-.18,4.2a2.37,2.37,0,0,0,.05.75c.06.19.14.36.18.55a11.37,11.37,0,0,1,.13,2v.46a6.06,6.06,0,0,0,.12,1.41,8.53,8.53,0,0,1,0,1.75v2.86c0,3.89,0,7.79,0,11.68,0,1.09,0,2.18,0,3.27v1.63c0,3.89-.08,7.77-.12,11.66s-.13,7.78-.21,11.67c0,1.94-.08,3.89-.12,5.83,0,1,0,2-.08,2.92a6.26,6.26,0,0,0,.2,2.07,3.75,3.75,0,0,1,.19.93c0,.63.08,1.27.11,1.9a2.07,2.07,0,0,0,.06.61,2,2,0,0,1,.21.8,2,2,0,0,0,.08.59,3.55,3.55,0,0,0,.5,1.06,9.17,9.17,0,0,0,1.74,1.78,15.25,15.25,0,0,0-1.85,1.65.78.78,0,0,0-.25.35c-.14.52.6.8.85,1.27a1.61,1.61,0,0,0-.71,1.36A6.05,6.05,0,0,0,6,181.77a14.4,14.4,0,0,1,.3,4.63l.89.57c-.84.26-1.06,1.34-1.07,2.22a14.52,14.52,0,0,0,.12,1.86,6.4,6.4,0,0,1,.17,1.57,17.25,17.25,0,0,0,.07,3.29q.24,3.87.52,7.74t.57,7.74c.2,2.52.4,5,.62,7.54.06.58,0,1.17.07,1.76.08,1.92.16,3.84.3,5.76.07,1,.15,1.92.25,2.88.06.47.1,1,.18,1.43,0,.15.1.27.13.41a5.17,5.17,0,0,0,.87,2.47,3.09,3.09,0,0,0,1.66.88,8,8,0,0,0,1,.14,16.46,16.46,0,0,0,1.87.13l6.89-.07H22a27.06,27.06,0,0,0,2.85-.15,7,7,0,0,1,1.29-.16l.36.05a2.08,2.08,0,0,0,1.39-.58c.22-.23.44-.48.65-.73a2.08,2.08,0,0,0,.4-.61,7.13,7.13,0,0,0,.43-1.45c.28-1.16.56-2.32.83-3.48a2,2,0,0,1,.36-.85c.05.42.21.53.22.94V228c-.3,1.61-.61,3.23-.92,4.85a3.79,3.79,0,0,1-.66,1.67,2,2,0,0,1-.74.58,4.41,4.41,0,0,1-1.52.42c-1.3.15-2.59-.06-3.89.09-.67.08-1.33.12-2,.15l-3.88.19-3.48.16A5.48,5.48,0,0,1,7.94,231Z"/><path class="cls-4" d="M158,99.56c-.54,11.64-1.08,23.3-2.42,34.88-1.11,9.59-2.77,19.15-2.84,28.81C151.34,141.45,157.38,121.39,158,99.56Zm-27.26,46.1c0-.71.05-1.43.07-2.14.11-3.85.06-7.7-.1-11.54s-.45-7.68-.83-11.51c-.18-1.92-.39-3.84-.61-5.75-.12-1-.23-1.91-.36-2.87l-.18-1.43c-.05-.36,0-.7-.05-1a8,8,0,0,0-.38-1.33c-.13-.46-.26-.92-.4-1.38-.26-.92-.52-1.85-.77-2.77-.51-1.85-1-3.71-1.41-5.58-.34-1.55-.65-3.11-.92-4.67a92.86,92.86,0,0,1-1.24-11.28c-.1-1.89-.13-3.79-.11-5.68a8.05,8.05,0,0,0,0-1.3c-.12-.84-.24-1.68-.37-2.52s-.28-1.92-.41-2.87c-.05-.36-.21-.64-.28-1a12.72,12.72,0,0,1-.19-1.38c-.18-1.85-.06-3.72-.12-5.57-.17-5.13-1.66-10.1-2.44-15.17a106.48,106.48,0,0,1-.93-11.44c0,.43,0,.85,0,1.28.15,3.86.36,7.73.63,11.58s.59,7.72,1,11.57c.18,1.92.39,3.85.61,5.77.12,1.1.16,2.2.23,3.31q.21,3.49.56,7c.45,4.67,1.06,9.32,1.75,14C126.23,108.41,130.26,126.86,130.73,145.66Zm-68.38-72a59.22,59.22,0,0,0-2.65,13c-.26,2.22-.48,4.46-.75,6.68-.06.58-.15,1.15-.22,1.72s-.07.86-.13,1.29a2.5,2.5,0,0,1-.11.39A9.65,9.65,0,0,0,58.35,98c-.14.85-.39,1.68-.61,2.51a9.81,9.81,0,0,0-.46,3.22c.06.79.29,1.56.43,2.35a14.33,14.33,0,0,1,.18,2.78,32.11,32.11,0,0,1-.62,5.61c-.16.83-.36,1.66-.58,2.48s-.52,1.78-.8,2.66a4.82,4.82,0,0,0-.15,1.73,11.19,11.19,0,0,1-.26,2.38c-.14.91-.26,1.82-.38,2.73-.49,3.68-.83,7.37-1.05,11.07s-.32,7.44-.31,11.17.13,7.38.35,11.06c.08,1.4.22,2.79.29,4.19a101.64,101.64,0,0,1,.37-14.28c.21-2.4.48-4.8.78-7.19a10.65,10.65,0,0,0,.15-1.25.69.69,0,0,0,0-.2,2.69,2.69,0,0,1,0-.57c-.05-1.71,0-3.43,0-5.14.44-9.23,2.73-18.31,3.05-27.55,0-1.69,0-3.39-.08-5.08a16.23,16.23,0,0,1,.26-3.41c.21-1.14.46-2.27.66-3.42.3-1.73.38-3.5.52-5.25s.34-3.8.55-5.7.47-3.78.76-5.67S62,75.51,62.35,73.69Zm15.41,49.76.06,2.35a10.72,10.72,0,0,1-.07,1.88,2.3,2.3,0,0,0,0,.64,4.86,4.86,0,0,1-.13,1.42,2.15,2.15,0,0,0,0,.62,19.76,19.76,0,0,1-.14,2.17c0,.76-.1,1.53-.16,2.29-.12,1.59-.26,3.18-.41,4.76C75.71,152.23,74,164.93,75,177.65l3-44.48a10.35,10.35,0,0,0,.45,2.24c.16.76.33,1.52.5,2.29s.33,1.44.5,2.16c.1.41.17.84.29,1.23a7.85,7.85,0,0,0,.38.77c.24.51.47,1,.69,1.55.43,1,.81,2.11,1.14,3.18a50,50,0,0,1,1.52,6.62c.36,2.26.6,4.54.79,6.82s.31,4.6.44,6.9c.06,1.17.13,2.33.2,3.5a4.22,4.22,0,0,0,.2,1.17c.11.27.29.52.41.79a4.92,4.92,0,0,1,.34,1.66c.12,1.43.23,2.85.35,4.28a50.65,50.65,0,0,1,.26,7.49c-.15,2.36-.64,4.69-.75,7.05a45.86,45.86,0,0,0,.61,8.27A138.88,138.88,0,0,0,87,184.57c-.06-2.81-.2-5.62-.34-8.43-.12-2.46-.24-4.92-.41-7.38s-.37-4.93-.66-7.39-.67-4.89-1.16-7.31c-.25-1.2-.53-2.4-.85-3.59-.09-.35-.2-.69-.3-1a2.07,2.07,0,0,1-.1-.43,1.17,1.17,0,0,0-.1-.41c-.4-1.18-.72-2.39-1-3.61s-.53-2.43-.78-3.65c0-.17-.07-.35-.11-.52-.26-1.27-.51-2.54-.77-3.81l-.78-3.82c-.13-.63-.25-1.27-.38-1.91-.07-.31-.13-.63-.2-1a2.76,2.76,0,0,1-.06-.4c0-.32-.13-.61-.1-.94a6.84,6.84,0,0,0-.15-1.62c-.1-.63-.19-1.27-.28-1.9-.17-1.28-.34-2.55-.48-3.83a67.94,67.94,0,0,1-.46-7.68C77.61,117.12,77.68,120.29,77.76,123.45ZM31,86.59c-.14-1.52-.12-3.08-.11-4.6s.07-3.2.17-4.79c.2-3.19.55-6.38,1-9.55.21-1.6.44-3.19.67-4.78.11-.75.21-1.51.34-2.26a2.11,2.11,0,0,1,.09-.36,3.94,3.94,0,0,0,0-1.53,21.64,21.64,0,0,1,.21-6c.23-1.06.58-2.09.71-3.16s0-2,.15-3a20.2,20.2,0,0,1,.56-2.42c1.42-5.54,1-11.4,0-17,1,8.45-.75,17-2,25.36-.23,1.48-.44,3-.56,4.45-.1,1.21-.13,2.42-.31,3.62s-.49,2.4-.7,3.61a14,14,0,0,0-.2,1.83c0,.3,0,.61,0,.91a5,5,0,0,1,0,.77c-.16,2.56-.27,5.13-.3,7.7s0,5,.15,7.54C30.78,84.18,30.87,85.39,31,86.59Zm-5.31,123.3q-.86-17-.64-34.11C22.33,186.39,23.8,199.11,25.67,209.89Z"/><path class="cls-7" d="M158.78,99.61c-.54,11.65-1.08,23.31-2.42,34.89-1.11,9.59-2.77,19.15-2.84,28.8C152.13,141.51,158.16,121.45,158.78,99.61Zm-27.26,46.11c0-.19,0-.39,0-.58.15-3.86.14-7.73,0-11.59s-.39-7.72-.74-11.56a5.08,5.08,0,0,0-.19-1.09,3.89,3.89,0,0,1-.06-1.13,22,22,0,0,0-.22-2.81c-.25-1.85-.65-3.68-.94-5.52a85.35,85.35,0,0,1-.73-14.21l-.71,5.39a28.59,28.59,0,0,1-2-7.18q-.7-3.89-1.24-7.78-.78-5.7-1.22-11.44c-.14-1.91-.25-3.83-.34-5.74L123.08,69c0-.35.06-.65.08-1,0-.72-.24-1.4-.2-2.1a5.29,5.29,0,0,0,.05-.56c0-.64-.14-1.29-.21-1.92-.15-1.28-.29-2.57-.44-3.85q-.45-3.85-.91-7.7-.93-7.71-1.93-15.39t-2.09-15.37l-.09-.62c.87,11.82,1.75,23.66,3.61,35.36A57.48,57.48,0,0,1,122,65c0,1.21-.1,2.43,0,3.64a12.26,12.26,0,0,1,.17,1.59,10.46,10.46,0,0,0,0,1.58q.28,3.73.71,7.47c.56,5,1.28,10,2.06,15s1.62,10,2.44,14.95,1.61,10,2.28,14.94S130.87,134,131.2,139Q131.43,142.36,131.52,145.72ZM55.17,164a87.17,87.17,0,0,1,.12-11.08c.13-2.78.73-5.53.82-8.31s-.12-5.55,0-8.33c.27-6.48,2.17-12.79,2.76-19.24.16-1.75.22-3.5.29-5.24l.16-4.53c0-.41,0-.82,0-1.23a23.58,23.58,0,0,1,.28-2.78c.09-.5.26-1,.31-1.49.26-2.33.44-4.67.6-7s.34-4.75.57-7.12.51-4.73.85-7.09c.17-1.22.37-2.44.58-3.66.1-.57.2-1.13.31-1.69a10.84,10.84,0,0,1,.28-1.4C60.21,82,60.47,90.88,58.86,99.39a7.86,7.86,0,0,1-.57,2.19,2.28,2.28,0,0,0-.26.8,23.07,23.07,0,0,0-.05,2.88c0,1.93.18,3.86.18,5.79a30.86,30.86,0,0,1-.67,4.75c-.21,1.44-.39,2.88-.52,4.33a11.85,11.85,0,0,1-.41,2.51,4.52,4.52,0,0,0-.28,1c0,.45-.13.91-.2,1.36-.26,1.83-.48,3.67-.67,5.5-.38,3.71-.63,7.44-.76,11.16s-.15,7.46-.06,11.18.28,7.34.57,11ZM81,142.34l.36,1.09c.61,1.86,1,3.79,1.5,5.69.26,1,.62,2,.82,3.1a49.43,49.43,0,0,1,1,5.39,3.46,3.46,0,0,1,0,.85,8.47,8.47,0,0,0,.25,2.29,54.12,54.12,0,0,1,.63,5.66c0,.42,0,.83,0,1.25a2.43,2.43,0,0,1,0,.66,2.15,2.15,0,0,0,0,.51,5.23,5.23,0,0,0,.21,1,16.82,16.82,0,0,1,.37,1.85,2.37,2.37,0,0,0,.15.7,3.62,3.62,0,0,1,.15.81c.17,1.24.32,2.48.39,3.72.1,1.82.18,3.64.22,5.46a42.17,42.17,0,0,1-.11,5.39c0,.52-.11,1-.18,1.55a42.42,42.42,0,0,0-.82,7.36c0,.6.12,1.2.17,1.8a7,7,0,0,1-.11,1.11,23.77,23.77,0,0,0,.06,3l.15,4.57.33,9.51.69-19.54c.23-6.54.46-13.08.2-19.61q-.08-2-.21-4c-.35-5.06-1-10.1-1.79-15.11-.42-2.51-.88-5-1.38-7.49-.06-.32-.14-.63-.21-1a.83.83,0,0,1,0-.22,2,2,0,0,0-.1-.4l-.24-.91c-.19-.67-.39-1.34-.53-2-.24-1.2-.37-2.41-.59-3.62s-.46-2.15-.74-3.21-.66-2.37-1-3.57c-.14-.6-.28-1.19-.39-1.8-.06-.3-.11-.6-.16-.9a1.29,1.29,0,0,1,0-.39,4.68,4.68,0,0,0-.11-1.05c-.16-1.24-.29-2.48-.39-3.73s-.16-2.49-.19-3.75c0-.47,0-.94,0-1.41,0-.1,0-.22,0-.33s0-.14-.06-.21c0-.24-.06-.49-.09-.73-.07-.64-.15-1.28-.23-1.93a3.23,3.23,0,0,0-.13-.69,10.71,10.71,0,0,1-.22-1.49L78,114.4c-.25-1.77-.5-3.55-.73-5.33a56,56,0,0,0,.11,10.2c.19,1.44.5,2.88.75,4.32a29.1,29.1,0,0,1,.38,3.08,36.16,36.16,0,0,1-.45,6.81q-.39,2.86-.76,5.75a5.68,5.68,0,0,0,0,1.93,9,9,0,0,1-.09,2.38c-.38,3.86-.79,7.72-1.11,11.59s-.59,7.71-.68,11.58c0,1.83,0,3.67,0,5.5,0,.93,0,1.85.1,2.78s.18,1.82.18,2.72l3-44.49a9.68,9.68,0,0,0,.45,2.24c.13.61.29,1.21.39,1.82a1.72,1.72,0,0,1,0,.32,2.1,2.1,0,0,0,0,.56,17.81,17.81,0,0,0,.49,1.77C80.42,140.74,80.69,141.54,81,142.34ZM31.77,86.65q-.16-2.93-.09-5.85c0-1.29.09-2.57.17-3.86,0-.64.09-1.29.15-1.93a12.2,12.2,0,0,1,.19-1.82,14.63,14.63,0,0,0,.23-1.88c.07-.64.14-1.28.22-1.93.14-1.28.29-2.57.43-3.86,1.09,1.72,1.29,3.83,1.56,5.85a68.28,68.28,0,0,0,2,9.79,165.86,165.86,0,0,0-1.88-16.48c-.25-1.49-.51-3-.65-4.47a4.19,4.19,0,0,0-.15-.94,4.53,4.53,0,0,1-.07-1.56c0-1.27.07-2.54.13-3.81.11-2.53.3-5.06.65-7.57.11-.8.24-1.61.39-2.4.3-1.57.67-3.12.85-4.7a33.22,33.22,0,0,0-.64-9.32c0,1.47,0,2.94,0,4.41,0,1.91,0,3.82-.14,5.73-.11,1.27-.29,2.53-.51,3.78s-.52,2.45-.7,3.68c-.37,2.46-.72,4.92-1,7.39s-.59,5-.82,7.45-.42,5-.55,7.45-.19,4.9-.19,7.35.08,4.81.24,7.2C31.64,85.12,31.72,85.88,31.77,86.65ZM26.46,210q-.86-17-.65-34.11C23.12,186.45,24.59,199.17,26.46,210Z"/><path class="cls-4" d="M147.23,10.34l-31.72.38-15.85.19L91.73,11a13.37,13.37,0,0,1-2.45,0,2.86,2.86,0,0,0-.51-.09c-4.22-.2-8.46-.13-12.69-.19l-5.45-.08c-5.1-.08-10.19-.24-15.28-.34q-3.89-.09-7.77-.09a18.53,18.53,0,0,0-2.11,0c-2.09.19-4.18.32-6.28.37a8.61,8.61,0,0,1-2.33-.13,10.59,10.59,0,0,0-1.5-.13l-3.15-.26-6.31-.5a9.64,9.64,0,0,0-1.7-.08,5.09,5.09,0,0,1-.56,0c-.6,0-1.18-.21-1.79-.22a6.53,6.53,0,0,0-3.55,1,6.63,6.63,0,0,0-3,4.87q-3.06,31.47-4,63.1a6.46,6.46,0,0,1-.18,1.59,2.85,2.85,0,0,0-.16.87c0,1,.14,2.08.21,3.11a5.42,5.42,0,0,1,0,1.75,4.12,4.12,0,0,0-.1.86L11,88.62c0,.68.08,1.33.07,2l0,2.13c0,1.42,0,2.83,0,4.25,0,2.84-.05,5.67-.07,8.51s0,5.66,0,8.5,0,5.67,0,8.5,0,5.67,0,8.51,0,5.67.05,8.5c0,1.36,0,2.7.11,4.06.16,2.82.33,5.63.53,8.45.15,2.15.37,4.31.44,6.48q.23,6.36.5,12.73T13.1,184q.32,6.38.7,12.73t.8,12.71q.44,6.36.91,12.71l.09,1.21a10.94,10.94,0,0,0,1.06,4.53,1.72,1.72,0,0,0,1.15.81,16.86,16.86,0,0,0,2.76.25c1,.07,2.08.13,3.12.17q6.24.24,12.49-.13a21,21,0,0,1,3.45-.13c.51,0,1.06,0,1.57,0l3.17,0q3.16,0,6.33-.11,6.33-.15,12.65-.45l3.6-.18a13,13,0,0,0,1.65-.12c.28-.06.53-.18.81-.24a11.58,11.58,0,0,1,2.88.05q3.17.12,6.32.2,6.33.15,12.65.12t12.65-.28c4.16-.14,8.33-.32,12.47-.67a38.29,38.29,0,0,1,3.86.06l4.42.09,8.52.16c5.78.11,11.56.2,17.35.23-8.37-2.65-17.45-2.66-26.2-2.05s-17.56,1.62-26.27.6l-76.85.11-2.49-4.58-4.37-83.07.76-78.45,3.05-44.72L21,12.68l53.6,1.53,61-1Z"/><path class="cls-8" d="M11.52,113c0-32.84,1.29-65.56,3.85-97.93a5,5,0,0,1,5.18-4.6c47.1,1.82,93,1.74,136.3-.25a5,5,0,0,1,5.23,4.68q1.33,21.14,2.17,42.3c.06,1.48.07,3,.17,4.45,0,.29.11.57.13.87a14,14,0,0,1-.05,1.94,3.6,3.6,0,0,0,.65,2.63,4.17,4.17,0,0,0,2.91,1c-1.1-.1-2.41-.11-3,.79a2.63,2.63,0,0,0-.35,1.6c0,.57,0,1.15,0,1.73s.12.94.14,1.43l.06,2.12q.12,4.25.23,8.5c.06,2.83.13,5.66.18,8.49q.06,3.2.11,6.37.17,10.41.2,20.8,0,5.18,0,10.35a15.26,15.26,0,0,1-.07,2.79,2,2,0,0,0,.08.84,4.34,4.34,0,0,0,.89,1.65,11.26,11.26,0,0,0,2.13,1.82l-3-.9c0,2.76-.06,5.51-.09,8.28s-.07,5.65-.11,8.47-.1,5.63-.16,8.45-.13,5.61-.21,8.42-.15,5.6-.24,8.4-.19,5.58-.29,8.37-.21,5.56-.33,8.34-.24,5.54-.38,8.31-.27,5.52-.41,8.28-.3,5.5-.46,8.25l-.18,3a5,5,0,0,1-5.16,4.69c-42.09-1.44-87.86-1.21-136,.67a5,5,0,0,1-5.18-4.56C13.14,187,11.52,149.89,11.52,113Zm150.11,13.06c0-36.45-1.18-73.52-3.55-110.91a1,1,0,0,0-1-.93q-20.52,1-41.07,1.3-9.39.18-18.77.23a18.71,18.71,0,0,1-2.12,0,5.1,5.1,0,0,0-.78,0,2.36,2.36,0,0,0-1.39.41,2.83,2.83,0,0,0-.79,2.44,8.42,8.42,0,0,1,0,2.65c-.22-1.29-.45-2.58-.68-3.87a2.35,2.35,0,0,0-.29-.94,1.71,1.71,0,0,0-1.3-.71,3.55,3.55,0,0,0-1,.06,4.44,4.44,0,0,1-.89.06H81.77c-2.77,0-5.53,0-8.29,0l-8.31-.09c-2.79,0-5.57-.08-8.36-.13l-8.39-.17L40,15.13l-8.45-.26-8.48-.29-2.67-.11a1,1,0,0,0-1,.92q-1.63,20.82-2.59,41.68l-.15,3.52c0,.62-.05,1.25-.08,1.87a.72.72,0,0,0,.08.4,2.37,2.37,0,0,1,0,1.24,1.38,1.38,0,0,0,.32,1.3,1.46,1.46,0,0,0,1,.17l4.2-.32a12.29,12.29,0,0,0-3.69,1,4.17,4.17,0,0,0-2.29,2.92,16.55,16.55,0,0,0,0,2c0,.7,0,1.41-.07,2.12,0,1.41-.08,2.83-.13,4.24q-.12,4.26-.21,8.5t-.15,8.5l-.06,4.67q-.12,10.58,0,21.16c0,3.52,0,7,.1,10.56,0,.46.14.87.19,1.32a6.18,6.18,0,0,0,.35,1.75,5.21,5.21,0,0,0,1,1.52,11.59,11.59,0,0,0,3.36,2.32A16.89,16.89,0,0,1,24,140a66,66,0,0,0-8.15-3,6.68,6.68,0,0,1,0,1c0,.35,0,.7,0,1,0,.71,0,1.42,0,2.12s0,1.31,0,2l.06,2.11q.11,4.24.24,8.47t.3,8.46q.16,4.23.36,8.47c.13,2.82.26,5.64.41,8.46s.31,5.65.47,8.47.34,5.64.53,8.46.38,5.64.58,8.46.42,5.65.64,8.47.46,5.63.7,8.45l.18,2.12a1,1,0,0,0,1,.91c48.27-1.89,94.14-2.12,136.32-.68a1,1,0,0,0,1-.93C160.67,191.21,161.63,158.89,161.63,126.07Z"/><path class="cls-9" d="M32.72,227.27q16.81-.57,33.21-.86,8.77-.16,17.4-.24h0c25.76-.25,50.59,0,74.26.84a4.23,4.23,0,0,0,4.39-4q.23-3.69.43-7.39.75-13.55,1.28-27.25c1.41-37.23,1.54-75.3.39-113.89q-.47-15.81-1.23-31.74-.66-13.86-1.54-27.79a4.28,4.28,0,0,0-2.17-3.43,4.18,4.18,0,0,0-2.27-.55q-25.14,1.15-51.34,1.45c-27.68.32-56.12-.08-85-1.2a4.23,4.23,0,0,0-4.4,3.91q-1.44,18.21-2.35,36.53-1.5,30.54-1.5,61.34,0,26,1.07,52,1.21,29.4,3.78,58.78A4.18,4.18,0,0,0,18,226a4.23,4.23,0,0,0,3.54,1.65C25.27,227.53,29,227.4,32.72,227.27Zm-13-3.23a1.35,1.35,0,0,1-.11-.45q-2.55-29.24-3.75-58.51c-1.56-37.65-1.43-75.27.38-112.55q.9-18.66,2.37-37.19a1.74,1.74,0,0,1,1.74-1.61h.08c28.26,1.1,56.07,1.5,83.17,1.22q27.24-.27,53.4-1.47a1.6,1.6,0,0,1,.44,0,1.76,1.76,0,0,1,1.39,1.6q.87,13.74,1.52,27.41.81,16.85,1.3,33.57.73,25.14.73,50,0,30.51-1.1,60.41-.53,13.86-1.27,27.57c-.16,2.94-.33,5.89-.51,8.82a1.73,1.73,0,0,1-1.8,1.64c-25-.85-51.26-1.12-78.56-.8l-8.72.12q-18.81.3-38.23,1l-10.76.4A1.75,1.75,0,0,1,19.72,224Z"/><path class="cls-10" d="M160.35,42.53q-.65-13.66-1.52-27.41A1.76,1.76,0,0,0,157,13.48q-26.13,1.2-53.4,1.47l-.24-.06a.82.82,0,0,1-.2-1.49,17.84,17.84,0,0,1,2.39-1q26.16-.3,51.34-1.45a4.28,4.28,0,0,1,4.44,4q.87,13.93,1.54,27.79A1.86,1.86,0,0,1,160.35,42.53Z"/><path class="cls-10" d="M161.54,189.76c-.1-1.09-.19-2.19-.26-3.28q1.09-29.86,1.1-60.41,0-24.81-.73-50a23.06,23.06,0,0,1,.91-5,.31.31,0,0,1,.59,0,21.47,21.47,0,0,1,.95,3.41c1.15,38.59,1,76.66-.39,113.89-.11.54-.24,1.08-.37,1.62C163.08,191.07,161.64,190.72,161.54,189.76Z"/><path class="cls-10" d="M83.35,226.17h0a11.72,11.72,0,0,1-4-1.37.74.74,0,0,1-.21-1.09c27.3-.32,53.58-.05,78.56.8a1.73,1.73,0,0,0,1.8-1.64c.18-2.93.35-5.88.51-8.82l.26-.44a.82.82,0,0,1,1.41,0,12.28,12.28,0,0,1,.75,2q-.21,3.7-.43,7.39a4.23,4.23,0,0,1-4.39,4C133.94,226.2,109.11,225.92,83.35,226.17Z"/><path class="cls-10" d="M32.72,227.27a2,2,0,0,1-.53-2.48q19.39-.66,38.23-1a1.14,1.14,0,0,1-.58,2.07l-3.91.51Q49.55,226.7,32.72,227.27Z"/><path class="cls-10" d="M13.34,165q-1.06-26-1.07-52,0-30.76,1.5-61.34c.22-.85.49-1.7.79-2.54a.8.8,0,0,1,1.57.21c0,1.06.08,2.13.11,3.19-1.81,37.28-1.94,74.9-.38,112.55A2,2,0,0,1,13.34,165Z"/><path class="cls-11" d="M31.44,226.16q16.81-.57,33.21-.86,8.77-.17,17.4-.24h0c25.76-.25,50.59,0,74.26.84a4.23,4.23,0,0,0,4.39-4q.22-3.69.43-7.39.75-13.54,1.28-27.25c1.41-37.23,1.54-75.3.39-113.89q-.47-15.81-1.23-31.74-.66-13.86-1.54-27.79a4.16,4.16,0,0,0-.89-2.32,4.18,4.18,0,0,0-2.27-.55q-25.14,1.15-51.34,1.45c-27.68.32-56.12-.08-85-1.2a4.23,4.23,0,0,0-4.4,3.91q-1.44,18.21-2.35,36.53-1.5,30.54-1.5,61.34,0,26,1.07,52,1.21,29.4,3.78,58.78A4.18,4.18,0,0,0,18,226a4.32,4.32,0,0,0,2.26.54C24,226.42,27.72,226.29,31.44,226.16ZM19.72,224a1.77,1.77,0,0,1-1.39-1.56Q15.78,193.25,14.58,164C13,126.32,13.15,88.7,15,51.42q.9-18.66,2.37-37.19a1.74,1.74,0,0,1,1.74-1.61h.08c28.26,1.1,56.07,1.5,83.17,1.22q27.24-.27,53.4-1.47a1.75,1.75,0,0,1,1.72,1.15,1.76,1.76,0,0,1,1.39,1.6q.87,13.74,1.52,27.41.81,16.85,1.3,33.57.73,25.14.73,50,0,30.51-1.1,60.41-.53,13.86-1.27,27.57c-.16,2.94-.33,5.89-.51,8.82a1.73,1.73,0,0,1-1.8,1.64c-25-.85-51.26-1.12-78.56-.8l-8.72.12q-18.81.3-38.23,1l-10.76.4A1.75,1.75,0,0,1,19.72,224Z"/></g></g></svg>