<svg xmlns="http://www.w3.org/2000/svg" xmlns:xlink="http://www.w3.org/1999/xlink" viewBox="0 0 139.12 157.51"><defs><style>.cls-1{isolation:isolate;}.cls-2{fill:url(#Áåçûìÿííûé_ãðàäèåíò_369);}.cls-12,.cls-13,.cls-14,.cls-3,.cls-5,.cls-6,.cls-7,.cls-9{mix-blend-mode:multiply;}.cls-12,.cls-13,.cls-14,.cls-3,.cls-5{opacity:0.49;}.cls-3{fill:url(#Áåçûìÿííûé_ãðàäèåíò_155);}.cls-4{fill:url(#Áåçûìÿííûé_ãðàäèåíò_38);}.cls-5{fill:url(#Áåçûìÿííûé_ãðàäèåíò_163);}.cls-6,.cls-7{opacity:0.24;}.cls-6{fill:url(#Áåçûìÿííûé_ãðàäèåíò_163-2);}.cls-7{fill:url(#Áåçûìÿííûé_ãðàäèåíò_163-3);}.cls-8{fill:url(#Áåçûìÿííûé_ãðàäèåíò_11);}.cls-9{opacity:0.32;fill:url(#Áåçûìÿííûé_ãðàäèåíò_147);}.cls-10{fill:#72370f;}.cls-11,.cls-19{fill:#ffffea;}.cls-12{fill:url(#Áåçûìÿííûé_ãðàäèåíò_153);}.cls-13{fill:url(#Áåçûìÿííûé_ãðàäèåíò_152);}.cls-14{fill:url(#Áåçûìÿííûé_ãðàäèåíò_152-2);}.cls-15,.cls-17{mix-blend-mode:color-dodge;}.cls-15{fill:url(#Áåçûìÿííûé_ãðàäèåíò_250);}.cls-16,.cls-18{mix-blend-mode:screen;}.cls-16{fill:url(#Áåçûìÿííûé_ãðàäèåíò_182);}.cls-17{fill:url(#Áåçûìÿííûé_ãðàäèåíò_250-2);}.cls-18{fill:url(#Áåçûìÿííûé_ãðàäèåíò_183);}.cls-19{opacity:0.6;}</style><linearGradient id="Áåçûìÿííûé_ãðàäèåíò_369" x1="-4.25" y1="73.04" x2="31.2" y2="108.49" gradientUnits="userSpaceOnUse"><stop offset="0" stop-color="#fff24c"/><stop offset="1" stop-color="#feb22b"/></linearGradient><linearGradient id="Áåçûìÿííûé_ãðàäèåíò_155" y1="95.74" x2="29.87" y2="95.74" gradientUnits="userSpaceOnUse"><stop offset="0" stop-color="#fff"/><stop offset="0.15" stop-color="#e0b7c9"/><stop offset="0.31" stop-color="#c37698"/><stop offset="0.44" stop-color="#ad4372"/><stop offset="0.56" stop-color="#9d1f57"/><stop offset="0.66" stop-color="#940846"/><stop offset="0.72" stop-color="#900040"/></linearGradient><linearGradient id="Áåçûìÿííûé_ãðàäèåíò_38" x1="10.91" y1="38.83" x2="142.68" y2="170.59" gradientUnits="userSpaceOnUse"><stop offset="0" stop-color="#ffea00"/><stop offset="1" stop-color="#ff5e00"/></linearGradient><linearGradient id="Áåçûìÿííûé_ãðàäèåíò_163" x1="59.75" y1="77.94" x2="59.75" y2="40.01" gradientUnits="userSpaceOnUse"><stop offset="0" stop-color="#fff"/><stop offset="0.21" stop-color="#e0b7c9"/><stop offset="0.42" stop-color="#c37698"/><stop offset="0.61" stop-color="#ad4372"/><stop offset="0.78" stop-color="#9d1f57"/><stop offset="0.91" stop-color="#940846"/><stop offset="1" stop-color="#900040"/></linearGradient><linearGradient id="Áåçûìÿííûé_ãðàäèåíò_163-2" x1="52.82" y1="48.91" x2="52.82" y2="25.68" xlink:href="#Áåçûìÿííûé_ãðàäèåíò_163"/><linearGradient id="Áåçûìÿííûé_ãðàäèåíò_163-3" x1="65.71" y1="48.91" x2="65.71" y2="25.66" xlink:href="#Áåçûìÿííûé_ãðàäèåíò_163"/><linearGradient id="Áåçûìÿííûé_ãðàäèåíò_11" x1="57.11" y1="42.16" x2="63.15" y2="71.29" gradientUnits="userSpaceOnUse"><stop offset="0" stop-color="#ff9000"/><stop offset="1" stop-color="#e2223b"/></linearGradient><linearGradient id="Áåçûìÿííûé_ãðàäèåíò_147" x1="59.48" y1="69.76" x2="59.48" y2="50.57" gradientUnits="userSpaceOnUse"><stop offset="0" stop-color="#900057"/><stop offset="0.24" stop-color="#ad4283"/><stop offset="0.61" stop-color="#d9a7c5"/><stop offset="0.88" stop-color="#f4e6ef"/><stop offset="1" stop-color="#fff"/></linearGradient><linearGradient id="Áåçûìÿííûé_ãðàäèåíò_153" x1="45.97" y1="9.3" x2="71.05" y2="34.38" gradientUnits="userSpaceOnUse"><stop offset="0" stop-color="#900040"/><stop offset="0.09" stop-color="#940846"/><stop offset="0.22" stop-color="#9d1f57"/><stop offset="0.39" stop-color="#ad4372"/><stop offset="0.58" stop-color="#c37698"/><stop offset="0.79" stop-color="#e0b7c9"/><stop offset="1" stop-color="#fff"/></linearGradient><linearGradient id="Áåçûìÿííûé_ãðàäèåíò_152" x1="45.29" y1="35.61" x2="99.27" y2="161.15" gradientUnits="userSpaceOnUse"><stop offset="0.28" stop-color="#900040"/><stop offset="0.34" stop-color="#940846"/><stop offset="0.44" stop-color="#9d1f57"/><stop offset="0.56" stop-color="#ad4372"/><stop offset="0.69" stop-color="#c37698"/><stop offset="0.85" stop-color="#e0b7c9"/><stop offset="1" stop-color="#fff"/></linearGradient><linearGradient id="Áåçûìÿííûé_ãðàäèåíò_152-2" x1="67.79" y1="25.94" x2="121.77" y2="151.47" xlink:href="#Áåçûìÿííûé_ãðàäèåíò_152"/><linearGradient id="Áåçûìÿííûé_ãðàäèåíò_250" x1="43.74" y1="12.96" x2="48.05" y2="17.27" gradientUnits="userSpaceOnUse"><stop offset="0" stop-color="#fffff9"/><stop offset="0.14" stop-color="#cbcbc6"/><stop offset="0.31" stop-color="#8e8e8b"/><stop offset="0.48" stop-color="#5b5b59"/><stop offset="0.64" stop-color="#343432"/><stop offset="0.78" stop-color="#171717"/><stop offset="0.91" stop-color="#060606"/><stop offset="1"/></linearGradient><linearGradient id="Áåçûìÿííûé_ãðàäèåíò_182" x1="69.15" y1="50.85" x2="49.4" y2="125.12" gradientUnits="userSpaceOnUse"><stop offset="0" stop-color="#ff0"/><stop offset="0.19" stop-color="#c5c500"/><stop offset="0.49" stop-color="#717100"/><stop offset="0.73" stop-color="#343400"/><stop offset="0.91" stop-color="#0e0e00"/><stop offset="1"/></linearGradient><linearGradient id="Áåçûìÿííûé_ãðàäèåíò_250-2" x1="68.2" y1="-7.08" x2="61.33" y2="16.26" xlink:href="#Áåçûìÿííûé_ãðàäèåíò_250"/><linearGradient id="Áåçûìÿííûé_ãðàäèåíò_183" x1="61.81" y1="6.56" x2="66.46" y2="45.43" gradientUnits="userSpaceOnUse"><stop offset="0" stop-color="#ff0"/><stop offset="0.09" stop-color="#f2f200"/><stop offset="0.26" stop-color="#cece00"/><stop offset="0.49" stop-color="#959500"/><stop offset="0.77" stop-color="#474700"/><stop offset="1"/></linearGradient></defs><g class="cls-1"><g id="Calque_2" data-name="Calque 2"><g id="Ñëîé_1" data-name="Ñëîé 1"><path class="cls-2" d="M6.39,111.79S-4.84,103.7,2.47,88s30.27-6.26,30.27-6.26Z"/><path class="cls-3" d="M6.39,111.79,29.87,85.05c-.15-2.45-.95-4.21-2.61-5-.58-.14-1.2-.27-1.84-.4a7.21,7.21,0,0,0-1.29.06C6.12,82.3,2,103.83,2,103.83L.13,96A17.51,17.51,0,0,0,6.39,111.79Z"/><path class="cls-4" d="M29.87,48.64S32.55,30.05,47.22,24.5c0,0-4.5-.13-4.76-5.54s5.74-6.46,8.87-4.37c0,0-4.56-9.27,3.2-13.25S69.6,2.71,72,11s7.83,11,7.83,11S97,28.35,93.15,56.21c0,0,3.66-4.83,8.87-2s.59,12.4.59,12.4a2.69,2.69,0,0,1,2.87,0c1.63.91-.91,4.63-.91,4.63s5.15-7.37,11-2.55c0,0-4.44-6.91,1-10s11.74,5.94,12.78,9.72c0,0,1.83-4.5,6.72,3.92s2.55,14.22,2.55,14.22,4.76,54.6-46.52,67.72S9.26,137.1,5.54,117.73,16.69,80.15,24.33,75.65a17.11,17.11,0,0,1-3.4-11.22s-4.11-.85-4.17-4.24S20,57.51,20,57.51s-3.07-8,.84-12.39S29.68,45.7,29.87,48.64Z"/><path class="cls-5" d="M34.58,54.24s5.34,20.48,27.33,18.92,23-17.53,23-17.53L59.75,60.17l-16.3-2.61Z"/><path class="cls-6" d="M54.6,45.92c4-11.63-3.13-15.4-4.53-6.93S54.6,45.92,54.6,45.92Z"/><path class="cls-7" d="M61.9,46c1.63-13.18,6.15-14.56,7.61-7.22L65.71,46Z"/><path class="cls-8" d="M53.76,56.46S47.23,41.58,37.32,46.28s4,23.48,22.57,23.48,28.83-12,23.75-17.48S60.41,51.11,53.76,56.46Z"/><path class="cls-9" d="M84,52.66C82.51,58.4,73.19,65.33,59.11,65.33c-12,0-22.13-7.92-25-14.76-.87,7.22,11,19.19,25.8,19.19C78,69.76,88.25,58.3,84,52.66Z"/><path class="cls-10" d="M68.68,38.15c2.24,1-.25,10.87-5.21,11.73S64.6,36.36,68.68,38.15Z"/><path class="cls-11" d="M67.51,38.86c1.28.49.07,4.57-2.09,4S66.09,38.32,67.51,38.86Z"/><path class="cls-10" d="M52.55,37c2.5.19,4,10-.35,12.36S48,36.7,52.55,37Z"/><path class="cls-11" d="M51.73,38.07c1.39,0,1.84,4.14-.4,4.35S50.18,38,51.73,38.07Z"/><path class="cls-12" d="M65.57,16.67c-6.1,0-17.42-10.85-11.69-14.93-5,3.06-4,8.54-3.16,11.25a13.14,13.14,0,0,0,.61,1.6s5,4.31-1.26,6.26c-5.42,1.69-7.39-.34-7.61-1.93.26,5.45,4.76,5.58,4.76,5.58a9.52,9.52,0,0,0,8.36-2.35S66.27,25.55,73.32,21C73.32,21,66.94,21.5,65.57,16.67Z"/><path class="cls-13" d="M92,154.33c51.28-13.12,46.52-67.72,46.52-67.72s2.35-5.81-2.55-14.22-6.72-3.92-6.72-3.92c-1-3.78-7.37-12.78-12.78-9.72s-1,10-1,10c-5.81-4.82-11,2.55-11,2.55s2.54-3.72.91-4.63a2.69,2.69,0,0,0-2.87,0s4.63-9.53-.59-12.4a7.05,7.05,0,0,0-2.49-.84c2.73.89-3.25,7.63-3.25,7.63,8.75-5,11.09,18.26-30.71,22.18s-38.83-21.4-38.83-21.4-4.83.91-4.57-1.76,5.48-1.5,5.48-1.5c-5.41-.72-10.46-9.63-6.61-13.67-.08.08-.16.14-.24.23C16.89,49.49,20,57.51,20,57.51s-3.27-.71-3.2,2.68,4.17,4.24,4.17,4.24a17.11,17.11,0,0,0,3.4,11.22C35.48,94.83,69.51,87.2,69.51,87.2l-4.87,6.85c13.9-8.81,23.68-6.46,23.68-6.46,8.42-13.51,13.31-8.6,13.31-8.6,7.05-9,10.18,0,10.18,0s13.9-7.06,19.18,9.58-8.81,25.05-8.81,25.05c4.5-7.64-2.35-12.92-2.35-12.92a7.22,7.22,0,0,0-1.56-9.59c-5.09-4.31-10.57,4.38-10.57,4.38s9.39-9.08,10,0-6.07,12.65-6.07,12.65c5.29-1.76,6.27-5.29,6.27-5.29,3.52,7.05,0,24.27-32.1,23.88s-29.55-22.12-29.55-22.12c-3.72,16.84,17.09,24.66,17.09,24.66-10.7,11-48.6,17.62-62.83.12C21.73,146.93,50.35,165,92,154.33Z"/><path class="cls-14" d="M138.56,86.61s2.35-5.81-2.55-14.22-6.72-3.92-6.72-3.92c-1-3.78-7.37-12.78-12.78-9.72s-1,10-1,10c-5.36-4.45-10.16,1.48-10.86,2.42l-.1.13A69.88,69.88,0,0,1,78.93,84.93l9.92-2.24-.53,4.9a18.69,18.69,0,0,1,10.56-10.7,2,2,0,0,1,2.75,2.1c4.89-6.91,9.3-6.61,11.87-5.46a2,2,0,0,1,.59,3.28L111.81,79s18.27-9.86,21.53,10.49-11.94,26.09-11.94,26.09c-14.48,20.16-46.6,14.29-46.6,14.29,25.76,8,52.28-6.46,52.28-6.46-11.81,27.82-43.34,32.89-51.34,33.74A102.27,102.27,0,0,0,92,154.33C143.32,141.21,138.56,86.61,138.56,86.61Z"/><path class="cls-15" d="M52.11,15.42a7,7,0,0,0-.78-.83c-2.87-1.92-8.16-1.19-8.8,3.14C45,14.72,48.85,14.7,52.11,15.42Z"/><path class="cls-16" d="M44.88,113c10.59-7.86,14.71-16.1,15.21-17.17l0-.12,0,.12c-.72,1.58-8.52,19.87,18.45,18.83,28.18-1.07,38.55-25.54,9.78-27.1,0,0-9.78-2.35-23.68,6.46l4.87-6.85s-34,7.63-45.18-11.55C19.39,78.56,11.44,87.2,7.43,98.17,2.42,117.73,33.53,121.44,44.88,113Z"/><path class="cls-17" d="M54.53,1.34a9.53,9.53,0,0,0-1.59,1.05,9.84,9.84,0,0,1,.94-.65,3.78,3.78,0,0,0-.59.52c7.37-3,16.39,4.8,18.75,11a6.06,6.06,0,0,0,1.89,2.58A22,22,0,0,1,72,11C69.6,2.71,62.29-2.64,54.53,1.34Z"/><path class="cls-18" d="M81.08,40.24c16.89-4.84,4.15-14.7-.94-18.06L79.78,22a9.25,9.25,0,0,1-1.49-1l-5,0c-7,4.57-17.74,1.17-17.74,1.17a9.52,9.52,0,0,1-8.36,2.35,23.34,23.34,0,0,0-4,2C30.44,35,60.55,46.13,81.08,40.24Z"/><path class="cls-11" d="M44.08,30.54a21.88,21.88,0,0,1,13.81-3.61c.48,0,.63.52.23.72-1.69.83-5.64,2.34-13.63,3.56C44,31.29,43.71,30.8,44.08,30.54Z"/><path class="cls-11" d="M39.66,33.13c.08-.66.53-1.79,2.76-1.78a.53.53,0,0,1,.37.14c.42.41,1.28,1.62-2.58,2.05C39.9,33.58,39.63,33.38,39.66,33.13Z"/><path class="cls-19" d="M49.27,110.29c-1.13,1.65-3.83,4.78-8.18,5.09-.3,0-.46-.46-.23-.7,1-1,3.23-2.93,8.07-5C49.22,109.54,49.47,110,49.27,110.29Z"/><path class="cls-19" d="M51.71,107.24a1.8,1.8,0,0,1-1.5,2.07.25.25,0,0,1-.25-.1c-.32-.36-1-1.47,1.36-2.32C51.5,106.82,51.7,107,51.71,107.24Z"/><path class="cls-11" d="M36.3,52c.17-1.45,1.17-3.92,6-3.9a1.22,1.22,0,0,1,.82.31c.92.9,2.8,3.55-5.65,4.49C36.84,53,36.23,52.55,36.3,52Z"/><path class="cls-19" d="M99.67,106.58c-.13-1,.12-2.88,3.45-3.71a.8.8,0,0,1,.61.07c.79.46,2.53,1.94-3.08,4A.69.69,0,0,1,99.67,106.58Z"/><path class="cls-11" d="M44.72,52.67a1.7,1.7,0,0,1,1.86-1.62.31.31,0,0,1,.25.13c.27.36.83,1.42-1.75,1.85A.33.33,0,0,1,44.72,52.67Z"/><path class="cls-11" d="M26.59,97.2c5.62-11.23,17.17-9.09,10,2.07s-15.39,14-15.39,14S19.26,104.94,23.25,91c2.82-9.84,5.44-7.51,5.52-2.85C28.83,91.82,26.59,97.2,26.59,97.2Z"/></g></g></g></svg>