<svg xmlns="http://www.w3.org/2000/svg" xmlns:xlink="http://www.w3.org/1999/xlink" viewBox="0 0 101.42 142.9"><defs><style>.cls-1{isolation:isolate;}.cls-2{fill:#aa3d91;}.cls-3{fill:url(#Áåçûìÿííûé_ãðàäèåíò_3073);}.cls-13,.cls-14,.cls-15,.cls-16,.cls-4{mix-blend-mode:screen;}.cls-4{fill:url(#Áåçûìÿííûé_ãðàäèåíò_3360);}.cls-10,.cls-11,.cls-12,.cls-5,.cls-6,.cls-7,.cls-8,.cls-9{mix-blend-mode:multiply;opacity:0.21;}.cls-5{fill:url(#Áåçûìÿííûé_ãðàäèåíò_3356);}.cls-6{fill:url(#Áåçûìÿííûé_ãðàäèåíò_3356-2);}.cls-7{fill:url(#Áåçûìÿííûé_ãðàäèåíò_3356-3);}.cls-8{fill:url(#Áåçûìÿííûé_ãðàäèåíò_3356-4);}.cls-9{fill:url(#Áåçûìÿííûé_ãðàäèåíò_3356-5);}.cls-10{fill:url(#Áåçûìÿííûé_ãðàäèåíò_3356-6);}.cls-11{fill:url(#Áåçûìÿííûé_ãðàäèåíò_3357);}.cls-12{fill:url(#Áåçûìÿííûé_ãðàäèåíò_3356-7);}.cls-13{fill:url(#Áåçûìÿííûé_ãðàäèåíò_3358);}.cls-14{fill:url(#Áåçûìÿííûé_ãðàäèåíò_3358-2);}.cls-15{fill:url(#Áåçûìÿííûé_ãðàäèåíò_3358-3);}.cls-16{fill:url(#Áåçûìÿííûé_ãðàäèåíò_3359);}</style><linearGradient id="Áåçûìÿííûé_ãðàäèåíò_3073" x1="-24.12" y1="12.83" x2="104.08" y2="141.03" gradientUnits="userSpaceOnUse"><stop offset="0.26" stop-color="#febd83"/><stop offset="0.46" stop-color="#e79091"/><stop offset="0.91" stop-color="#ad20b3"/><stop offset="1" stop-color="#a109ba"/></linearGradient><linearGradient id="Áåçûìÿííûé_ãðàäèåíò_3360" x1="-25.56" y1="14.27" x2="102.64" y2="142.47" gradientUnits="userSpaceOnUse"><stop offset="0" stop-color="#ff778b"/><stop offset="0.1" stop-color="#ee6f82"/><stop offset="0.3" stop-color="#c15a69"/><stop offset="0.58" stop-color="#793942"/><stop offset="0.92" stop-color="#170b0d"/><stop offset="1"/></linearGradient><linearGradient id="Áåçûìÿííûé_ãðàäèåíò_3356" x1="-62.52" y1="-59.93" x2="106.06" y2="108.65" gradientUnits="userSpaceOnUse"><stop offset="0.24" stop-color="#921abf"/><stop offset="0.3" stop-color="#9827c3"/><stop offset="0.41" stop-color="#a848cc"/><stop offset="0.56" stop-color="#c27fdb"/><stop offset="0.74" stop-color="#e6c9f0"/><stop offset="0.86" stop-color="#fff"/></linearGradient><linearGradient id="Áåçûìÿííûé_ãðàäèåíò_3356-2" x1="-43.71" y1="32.42" x2="84.49" y2="160.62" xlink:href="#Áåçûìÿííûé_ãðàäèåíò_3356"/><linearGradient id="Áåçûìÿííûé_ãðàäèåíò_3356-3" x1="-23.31" y1="12.02" x2="104.89" y2="140.22" xlink:href="#Áåçûìÿííûé_ãðàäèåíò_3356"/><linearGradient id="Áåçûìÿííûé_ãðàäèåíò_3356-4" x1="-48.56" y1="37.27" x2="79.64" y2="165.47" xlink:href="#Áåçûìÿííûé_ãðàäèåíò_3356"/><linearGradient id="Áåçûìÿííûé_ãðàäèåíò_3356-5" x1="-5.03" y1="-6.26" x2="123.17" y2="121.94" xlink:href="#Áåçûìÿííûé_ãðàäèåíò_3356"/><linearGradient id="Áåçûìÿííûé_ãðàäèåíò_3356-6" x1="95.75" y1="91.08" x2="95.82" y2="91.15" xlink:href="#Áåçûìÿííûé_ãðàäèåíò_3356"/><linearGradient id="Áåçûìÿííûé_ãðàäèåíò_3357" x1="16.87" y1="68.88" x2="84.95" y2="136.96" gradientUnits="userSpaceOnUse"><stop offset="0" stop-color="#921abf"/><stop offset="0.1" stop-color="#9827c3"/><stop offset="0.28" stop-color="#a848cc"/><stop offset="0.52" stop-color="#c27fdb"/><stop offset="0.81" stop-color="#e6c9f0"/><stop offset="1" stop-color="#fff"/></linearGradient><linearGradient id="Áåçûìÿííûé_ãðàäèåíò_3356-7" x1="45.5" y1="10.25" x2="62.21" y2="26.96" xlink:href="#Áåçûìÿííûé_ãðàäèåíò_3356"/><linearGradient id="Áåçûìÿííûé_ãðàäèåíò_3358" x1="16.27" y1="-15.02" x2="65.51" y2="34.22" gradientUnits="userSpaceOnUse"><stop offset="0" stop-color="#ff778b"/><stop offset="0.07" stop-color="#eb6e80"/><stop offset="0.42" stop-color="#883f4a"/><stop offset="0.7" stop-color="#3f1d22"/><stop offset="0.9" stop-color="#110809"/><stop offset="1"/></linearGradient><linearGradient id="Áåçûìÿííûé_ãðàäèåíò_3358-2" x1="-6.53" y1="7.79" x2="60.91" y2="75.22" xlink:href="#Áåçûìÿííûé_ãðàäèåíò_3358"/><linearGradient id="Áåçûìÿííûé_ãðàäèåíò_3358-3" x1="4.16" y1="-2.9" x2="51.41" y2="44.35" xlink:href="#Áåçûìÿííûé_ãðàäèåíò_3358"/><linearGradient id="Áåçûìÿííûé_ãðàäèåíò_3359" x1="14.88" y1="25.91" x2="46.22" y2="57.24" gradientUnits="userSpaceOnUse"><stop offset="0.25" stop-color="#ff778b"/><stop offset="0.3" stop-color="#eb6e80"/><stop offset="0.56" stop-color="#883f4a"/><stop offset="0.77" stop-color="#3f1d22"/><stop offset="0.92" stop-color="#110809"/><stop offset="1"/></linearGradient></defs><g class="cls-1"><g id="Calque_2" data-name="Calque 2"><g id="Ñëîé_2" data-name="Ñëîé 2"><path class="cls-2" d="M7.3,130.19a2.07,2.07,0,0,1-3.84.72C.82,126.33-1.89,118.71,1.8,110c6-14.13,15.36-9.19,15.36-9.19l-3.88,15.54S9,118.71,7.3,130.19Z"/><path class="cls-3" d="M36.59,5.46s-7.07-2.8-11.3,11.86S24.58,39.57,1.8,110c0,0,4.77-5,8.3,0s1.94,33.9,12.54,32.84,9.83-12.18,19.13-12.36,9.47,13.25,23.25,8,6.36-30.55,12.18-38c5.07-6.44,18.13-5.29,23.67-14.37a3.86,3.86,0,0,0-2.1-5.64c-5.08-1.68-13.67-7-18.21-24.14C73.85,31.09,65.9,9.19,52.3,8.13c0,0-.7-8.47-5.82-8.12A13.93,13.93,0,0,0,36.59,5.46Z"/><path class="cls-4" d="M17.16,105.1c4.12,18.17,6.53,4.62,6.53,4.62s6,19.19,14.3,8,10.7-.78,11.77,3.5,11.32,10.09,15.67-16.36,8-25.71,12.88-19,16.48.81,13.57-9.32a26.77,26.77,0,0,1-2.64-2.6c.76,1.82,2.62,7.56-3.56,9.55-7.37,2.37-6.72.42-10.42-3.62S69.2,74.3,67.08,87.6s-4.59,28.73-12,31-5.79-8.94-10.83-9.89-7.05,7.48-9.11,10-10.86-8.46-9.7-15.89c0,0-1.91,5.3-3.79,5.65s-4-3-5.18-11.85c-.84-6.3-6.06-5.75-9.16-4Q6.21,96.16,5,100S13,86.93,17.16,105.1Z"/><path class="cls-5" d="M36.59,5.46S29.22,19.25,26.8,63.11C26.8,63.11,23.73,13.38,36.59,5.46Z"/><path class="cls-6" d="M32.33,136.81c9-12.77,9.76-71.76,4.6-69.93s-18.71,71.6-21.31,69.47c1.46,4.08,3.6,6.86,7,6.52a12,12,0,0,0,8.22-4.3c.07-.08.16-.17.23-.26C31.52,137.82,31.93,137.32,32.33,136.81Z"/><path class="cls-7" d="M73.89,122.51c.07-.67.13-1.33.18-2,1.05-21.16-20-90.8-24.31-82.83-4.48,8.24-2.81,92.77,1.65,98.44,3,2.81,6.48,5.08,13.61,2.34,6.23-2.4,8.12-8.87,8.86-15.93Z"/><path class="cls-8" d="M25,76.53C20,93.72,12.39,119.71,11.24,113c1.32,5.38,1.83,15.48,4.07,22.44C13.81,125.15,25,76.53,25,76.53Z"/><path class="cls-9" d="M68.85,57.7c-1.42,6.59,11.53,38.14,18.21,37.23a42.92,42.92,0,0,0,8.77-3.82C76.43,103.1,70.26,51.1,68.85,57.7Z"/><path class="cls-10" d="M95.83,91.11l-.07,0Z"/><path class="cls-11" d="M94.25,78.29c6,5.48-.09,18.67-9.41,12.73-8.42-5.36-14.76-26-15.91-29.95.06.42.14.86.23,1.32,0,.12,0,.25.08.37.08.41.18.83.28,1.26,0,.07,0,.14,0,.22.13.5.26,1,.41,1.56l.12.4c.12.45.26.9.4,1.37l.11.35c.18.57.37,1.15.57,1.73a3.38,3.38,0,0,0,.11.34l.54,1.54c0,.13.1.26.14.39.23.62.46,1.24.71,1.87l.06.15c.22.58.46,1.17.7,1.75,0,.13.1.25.16.38.52,1.27,1.08,2.54,1.66,3.79l.15.33c.29.61.58,1.22.87,1.81s.63,1.26.94,1.86c0,.08.09.16.13.24.29.55.58,1.08.87,1.6l.09.15c.32.57.64,1.12,1,1.66a.83.83,0,0,1,.08.12c.3.49.59,1,.89,1.4l.13.2c.41.61.82,1.19,1.23,1.73-1.65-.4-11-2.28-10.15,7.19,1,10.37.63,39.6-10.84,14.88s-12-68.69-12-68.69l-.37.45c-1.93,17.33-1.32,59.32.83,79.88.11,1,.22,2,.33,2.84l-.07-.21c-.34-1.1-2.18-6.25-6.65-5.62-1.51.22-3.84,2.23-6.36,4.59-5.82,5.47-12.66,12.86-12.84,4.6C23.26,119,33,75.21,33,75.21c-3.76,11.48-8.61,32.33-12.29,46.46,0,0-3.08,4.07-4.77,2.46-.51-.49-.9-1.5-1-3.33-.54-7.82,6.36-31.38,6.36-31.38-3,9.84-6.06,19.46-8,23.12C9.39,100,1.8,110,1.8,110s4.77-5,8.3,0a9.21,9.21,0,0,1,1.14,3q.12.49.24,1s0,.06,0,.09c.07.34.14.69.21,1.06,0,0,0,.09,0,.14.07.36.13.72.19,1.1l0,.14c.06.39.12.79.19,1.2v.08c.22,1.5.44,3.12.67,4.79,0,.13,0,.25,0,.38,0,.31.09.63.13.94s.07.48.1.72.07.49.11.73.09.57.13.86.07.41.1.62l.15.94c0,.19.07.37.1.55.06.34.12.66.18,1l.09.5.21,1c0,.15,0,.29.09.44.07.36.15.71.24,1.06,0,.12,0,.24.08.36.09.38.19.76.29,1.13a2.17,2.17,0,0,0,.07.24c.12.45.25.88.38,1.3s.21.62.32.91a18.94,18.94,0,0,0,1.21,2.75l.06.11c.2.34.4.67.62,1l.14.19a7.67,7.67,0,0,0,.68.81l.09.1a6.36,6.36,0,0,0,.85.72l.14.09a6.35,6.35,0,0,0,.77.41l.3.11a5.57,5.57,0,0,0,.73.19l.31.05a5.22,5.22,0,0,0,1.12,0,14,14,0,0,0,1.68-.28l.46-.12c.37-.1.73-.21,1.08-.34l.41-.16a10.47,10.47,0,0,0,1.26-.61l.1-.06q.54-.33,1-.69l.35-.27c.24-.19.47-.39.7-.6l.31-.29c.3-.28.58-.58.85-.88l.23-.25c.43-.5.84-1,1.24-1.51,2.45-3.11,4.57-6.21,9.44-6.3,4.48-.08,6.85,3,9.64,5.6l.52.49.09.07.47.41.14.11.44.35.17.13.44.3.2.14.43.26.24.13.43.23.27.13.44.18.29.11c.15.06.3.1.46.15l.32.09.48.11.34.06.5.07.37,0,.54,0h.39a5.44,5.44,0,0,0,.57,0l.42,0,.61-.09.45-.06.67-.14.45-.1.8-.23.39-.11c.42-.13.84-.28,1.28-.45a12.55,12.55,0,0,0,1.17-.53l.37-.21a8.1,8.1,0,0,0,.7-.42c.14-.09.27-.19.4-.29s.39-.28.57-.43l.38-.35.49-.46.36-.4c.14-.16.28-.32.41-.49l.34-.45c.12-.17.24-.34.35-.52s.21-.32.31-.49l.3-.53.28-.54c.09-.18.16-.35.24-.53s.19-.4.27-.61.11-.28.16-.42a25.62,25.62,0,0,0,.92-3,.36.36,0,0,1,0-.1c.08-.35.16-.71.23-1.07,0-.07,0-.14,0-.21.07-.36.13-.73.19-1.09l0-.21c.06-.38.12-.76.17-1.15l0-.14c.05-.42.1-.83.14-1.25.08-.69.14-1.35.19-2,.62-8,.19-16.27,3.13-20,2.2-2.8,5.91-4.16,9.86-5.56.71-.25,1.44-.5,2.16-.77l.13,0c.72-.27,1.43-.54,2.15-.83l.07,0a27.74,27.74,0,0,0,4.18-2.11c-.33.2-.66.39-1,.55.33-.18.66-.35,1-.55a15.4,15.4,0,0,0,5.1-5,3.87,3.87,0,0,0-2.09-5.67A20,20,0,0,1,94.25,78.29Z"/><path class="cls-12" d="M52.3,8.13s-8.77-6.59,3.36,21.2C55.66,29.33,46.24,8.37,52.3,8.13Z"/><path class="cls-13" d="M52.3,8.13c-5,.2.56,14.56,2.64,19.52.23.55.46,1.09.72,1.68,9.89,21.72,10.77,23.48,10.77,23.48S53.92,22.79,55.94,15c1.91-7.37,8.09.29,8.71,1.09C61.1,11.41,57.05,8.5,52.3,8.13Z"/><path class="cls-14" d="M25,27.38C29,7.43,36.59,5.46,36.59,5.46s-7.07-2.8-11.3,11.86C22,28.85,23.42,36,13.11,72.87,13.11,72.87,21,47.34,25,27.38Z"/><path class="cls-15" d="M46.48,0a13.93,13.93,0,0,0-9.89,5.45l-.08.14c-.74,1.52-7.22,15.73-9.6,55.6.2-1.8,5-43.44,13.85-53.75S51.92,6,52.08,6.63C51.6,4.21,50.22-.25,46.48,0Z"/><path class="cls-16" d="M38.7,26.85S34.8,48.16,29,63.11c0,0,14.75-38.6,18.33-6l.09.84c.38-10.28,1.14-18.05,2.35-20.28C49.76,37.68,39,54.75,38.7,26.85Z"/></g></g></g></svg>