<svg xmlns="http://www.w3.org/2000/svg" xmlns:xlink="http://www.w3.org/1999/xlink" viewBox="0 0 201.87 84.25"><defs><style>.cls-1{isolation:isolate;}.cls-2{fill:#477c24;}.cls-3{fill:url(#Áåçûìÿííûé_ãðàäèåíò_886);}.cls-10,.cls-11,.cls-25,.cls-4,.cls-5,.cls-6,.cls-7,.cls-8,.cls-9{mix-blend-mode:screen;}.cls-10,.cls-11,.cls-4,.cls-5,.cls-6,.cls-7,.cls-8,.cls-9{opacity:0.72;}.cls-4{fill:url(#Áåçûìÿííûé_ãðàäèåíò_878);}.cls-5{fill:url(#Áåçûìÿííûé_ãðàäèåíò_878-2);}.cls-6{fill:url(#Áåçûìÿííûé_ãðàäèåíò_878-3);}.cls-7{fill:url(#Áåçûìÿííûé_ãðàäèåíò_878-4);}.cls-8{fill:url(#Áåçûìÿííûé_ãðàäèåíò_878-5);}.cls-9{fill:url(#Áåçûìÿííûé_ãðàäèåíò_878-6);}.cls-10{fill:url(#Áåçûìÿííûé_ãðàäèåíò_878-7);}.cls-11{fill:url(#Áåçûìÿííûé_ãðàäèåíò_878-8);}.cls-12,.cls-13,.cls-14,.cls-15,.cls-16,.cls-17,.cls-18,.cls-19,.cls-20,.cls-21,.cls-22,.cls-23,.cls-24{mix-blend-mode:multiply;}.cls-12,.cls-13,.cls-14,.cls-15,.cls-16,.cls-17,.cls-18,.cls-19,.cls-20,.cls-21,.cls-22,.cls-23{opacity:0.47;}.cls-12{fill:url(#Áåçûìÿííûé_ãðàäèåíò_881);}.cls-13{fill:url(#Áåçûìÿííûé_ãðàäèåíò_884);}.cls-14{fill:url(#Áåçûìÿííûé_ãðàäèåíò_884-2);}.cls-15{fill:url(#Áåçûìÿííûé_ãðàäèåíò_881-2);}.cls-16{fill:url(#Áåçûìÿííûé_ãðàäèåíò_881-3);}.cls-17{fill:url(#Áåçûìÿííûé_ãðàäèåíò_881-4);}.cls-18{fill:url(#Áåçûìÿííûé_ãðàäèåíò_881-5);}.cls-19{fill:url(#Áåçûìÿííûé_ãðàäèåíò_881-6);}.cls-20{fill:url(#Áåçûìÿííûé_ãðàäèåíò_881-7);}.cls-21{fill:url(#Áåçûìÿííûé_ãðàäèåíò_881-8);}.cls-22{fill:url(#Áåçûìÿííûé_ãðàäèåíò_881-9);}.cls-23{fill:url(#Áåçûìÿííûé_ãðàäèåíò_881-10);}.cls-24{fill:#8fc42a;opacity:0.28;}.cls-25{fill:#fff;opacity:0.82;}</style><linearGradient id="Áåçûìÿííûé_ãðàäèåíò_886" x1="78.58" y1="-34.13" x2="108.98" y2="62" gradientUnits="userSpaceOnUse"><stop offset="0.25" stop-color="#477c24"/><stop offset="0.45" stop-color="#629924"/><stop offset="0.82" stop-color="#91ca24"/><stop offset="1" stop-color="#a3dd24"/></linearGradient><linearGradient id="Áåçûìÿííûé_ãðàäèåíò_878" x1="120.2" y1="4.5" x2="171.26" y2="55.56" gradientUnits="userSpaceOnUse"><stop offset="0"/><stop offset="0.11" stop-color="#030500"/><stop offset="0.25" stop-color="#0d1400"/><stop offset="0.39" stop-color="#1d2d00"/><stop offset="0.55" stop-color="#344f00"/><stop offset="0.71" stop-color="#517b00"/><stop offset="0.88" stop-color="#74b000"/><stop offset="1" stop-color="#90db00"/></linearGradient><linearGradient id="Áåçûìÿííûé_ãðàäèåíò_878-2" x1="83.84" y1="-2.44" x2="144.83" y2="58.56" xlink:href="#Áåçûìÿííûé_ãðàäèåíò_878"/><linearGradient id="Áåçûìÿííûé_ãðàäèåíò_878-3" x1="109.1" y1="-12.95" x2="180.22" y2="58.17" xlink:href="#Áåçûìÿííûé_ãðàäèåíò_878"/><linearGradient id="Áåçûìÿííûé_ãðàäèåíò_878-4" x1="61.5" y1="7.08" x2="121.92" y2="67.5" xlink:href="#Áåçûìÿííûé_ãðàäèåíò_878"/><linearGradient id="Áåçûìÿííûé_ãðàäèåíò_878-5" x1="12.99" y1="34.56" x2="12.99" y2="51.9" xlink:href="#Áåçûìÿííûé_ãðàäèåíò_878"/><linearGradient id="Áåçûìÿííûé_ãðàäèåíò_878-6" x1="33.75" y1="24.44" x2="33.75" y2="60.95" xlink:href="#Áåçûìÿííûé_ãðàäèåíò_878"/><linearGradient id="Áåçûìÿííûé_ãðàäèåíò_878-7" x1="49.4" y1="24.53" x2="49.4" y2="65.24" xlink:href="#Áåçûìÿííûé_ãðàäèåíò_878"/><linearGradient id="Áåçûìÿííûé_ãðàäèåíò_878-8" x1="55.91" y1="19.44" x2="105.56" y2="69.09" xlink:href="#Áåçûìÿííûé_ãðàäèåíò_878"/><linearGradient id="Áåçûìÿííûé_ãðàäèåíò_881" x1="118.91" y1="1.41" x2="130.65" y2="13.16" gradientUnits="userSpaceOnUse"><stop offset="0.11" stop-color="#fff"/><stop offset="0.19" stop-color="#fbfdfa"/><stop offset="0.3" stop-color="#f1f7ea"/><stop offset="0.43" stop-color="#e1ecd0"/><stop offset="0.56" stop-color="#c9deac"/><stop offset="0.7" stop-color="#abcc7e"/><stop offset="0.84" stop-color="#86b646"/><stop offset="0.99" stop-color="#5c9c04"/><stop offset="1" stop-color="#599a00"/></linearGradient><linearGradient id="Áåçûìÿííûé_ãðàäèåíò_884" x1="64.12" y1="0.17" x2="83.94" y2="19.99" gradientUnits="userSpaceOnUse"><stop offset="0" stop-color="#599a00"/><stop offset="0.48" stop-color="#a7ca78"/><stop offset="1" stop-color="#fff"/></linearGradient><linearGradient id="Áåçûìÿííûé_ãðàäèåíò_884-2" x1="19.04" y1="6.02" x2="40.28" y2="27.26" xlink:href="#Áåçûìÿííûé_ãðàäèåíò_884"/><linearGradient id="Áåçûìÿííûé_ãðàäèåíò_881-2" x1="4.19" y1="31.45" x2="14.33" y2="41.59" xlink:href="#Áåçûìÿííûé_ãðàäèåíò_881"/><linearGradient id="Áåçûìÿííûé_ãðàäèåíò_881-3" x1="44.11" y1="31.25" x2="93.69" y2="80.83" xlink:href="#Áåçûìÿííûé_ãðàäèåíò_881"/><linearGradient id="Áåçûìÿííûé_ãðàäèåíò_881-4" x1="32.05" y1="36.85" x2="54.15" y2="58.95" xlink:href="#Áåçûìÿííûé_ãðàäèåíò_881"/><linearGradient id="Áåçûìÿííûé_ãðàäèåíò_881-5" x1="18.1" y1="40.13" x2="33.11" y2="55.13" xlink:href="#Áåçûìÿííûé_ãðàäèåíò_881"/><linearGradient id="Áåçûìÿííûé_ãðàäèåíò_881-6" x1="79.26" y1="2.14" x2="139.73" y2="62.6" xlink:href="#Áåçûìÿííûé_ãðàäèåíò_881"/><linearGradient id="Áåçûìÿííûé_ãðàäèåíò_881-7" x1="144.17" y1="9.11" x2="187.54" y2="52.47" xlink:href="#Áåçûìÿííûé_ãðàäèåíò_881"/><linearGradient id="Áåçûìÿííûé_ãðàäèåíò_881-8" x1="125" y1="15.46" x2="168.48" y2="58.94" xlink:href="#Áåçûìÿííûé_ãðàäèåíò_881"/><linearGradient id="Áåçûìÿííûé_ãðàäèåíò_881-9" x1="61.47" y1="12.72" x2="116.93" y2="68.18" xlink:href="#Áåçûìÿííûé_ãðàäèåíò_881"/><linearGradient id="Áåçûìÿííûé_ãðàäèåíò_881-10" x1="114.15" y1="-4.64" x2="155.62" y2="36.83" xlink:href="#Áåçûìÿííûé_ãðàäèåíò_881"/></defs><g class="cls-1"><g id="Calque_2" data-name="Calque 2"><g id="Ñëîé_1" data-name="Ñëîé 1"><path class="cls-2" d="M36.4,33.15S53,70,67.33,79.81,87.59,56.63,87.59,56.63L68.23,37C48.21,26.52,36.4,33.15,36.4,33.15Z"/><path class="cls-2" d="M199.68,40.09l-7.38-8.84-48.69-4.4C116.77,21.62,73.41,13.94,86,21.64l-36-3.26L68.23,37a72.59,72.59,0,0,1,16.4,11.31c25.78,24,30.73,20.88,30.73,20.88L83.74,38.86S125.37,66.94,132,66.25s2.74-4.2,2.74-4.2S71.3,24.27,87.17,32.31s75.46,22.94,83.88,22.8c4.17-.07,3-6.1-.17-12.06C189.47,43.35,199.68,40.09,199.68,40.09Z"/><path class="cls-3" d="M39.26,4.6s.1-1.48,8.67-.37S58.93,6,58.93,6s1.27-4.1,6.66-2.68S71,2.4,72.41.82s2.86-.8,5.48,1.82S94.7,13,108.19,13.27s21.07-1.59,26.57-7.93,7.93-5.08,11.11-.43a16.27,16.27,0,0,1,2.64,9.84,24.31,24.31,0,0,0,10.37-6c4.86-4.76,10-.32,9.2,4.13s-2,10.68,4.23,10c2.78-.28,6.52-.75,9.82-1.19,7.65-1,15.4,2.78,18.56,9.81.22.5.42,1,.6,1.54,2.85,8.46-5.19,9.41-13.33,5.81s-13.11-3.27-13.11,5.72-1.49,13.22-7.41,8.67S161.1,39.39,152.11,41s-5.82,17.45-13.86,22.84-9.94.53-13.64-2.11-5.08.21-6,3.17-3,6.67-7.19,2.65-6.88-6-10.16,1.76S94.15,84.55,80.08,84.24,61.57,73.45,58.4,65.52s-6.88-4.66-9.52-1.38-5.71,3.49-8.78-1.37-4.23-8-12.37-2.54S9.54,62.77,9.22,56.1s5-8.35-4-12.37S.12,31.35,7.53,31.14s8.35-.95,3.38-6.55S8,16.12,15,17.82s12.26.63,9.73-8S20.59-3.14,39.26,4.6Z"/><path class="cls-4" d="M103.51,21.2s17.45,8.09,43,12.69,28.17,8.49,28.13,15.57a46.84,46.84,0,0,0,.22-4.88c0-9,5-9.31,13.11-5.72-7.19-3.38-8-2.43-16.23-2.9S118.9,28.18,103.51,21.2Z"/><path class="cls-5" d="M136.35,37.33c-16-3-51.72-15.18-67.59-24.7,0,0,17,12.38,43.79,21.9,25,8.88,34.26,7.32,32.11,17,1.38-5.08,2.77-9.77,7.45-10.6a7.69,7.69,0,0,1,7.76,2.54l-.08-.1C154.59,37.54,152.37,40.29,136.35,37.33Z"/><path class="cls-6" d="M93,12s16.18,7.61,39.82,7.77,27.71-6.71,32.15-8.3-2.54,12.16,3.7,12.27c0,0-33.63,8.88-83.92-12.37,0,0,32.07,17.85,72.34,16.49s44.81,2.55,44.71,8.69a9.18,9.18,0,0,0-.55-3.5c-.18-.53-.38-1-.6-1.54-3.16-7-10.91-10.82-18.56-9.81-3.3.44-7,.91-9.82,1.19-6.24.64-5.08-5.6-4.23-10s-4.34-8.89-9.2-4.13a24.31,24.31,0,0,1-10.37,6C135.08,19.93,111.44,17.71,93,12Z"/><path class="cls-7" d="M91,37.33C65.52,18.79,58.8,13.2,57,11.55c2.56,2.63,13.37,13.21,37.12,30.57C117,58.85,118.76,63.48,118.68,64.58c.95-2.85,2.35-5.42,5.93-2.87a17.53,17.53,0,0,1,1.69,1.41C122.07,58.17,125.07,62.17,91,37.33Z"/><path class="cls-8" d="M9.73,51.9c1.45-2.68,6.64-10.58,11.15-17.34C16.25,40.37,10.19,45.9,5.1,43.68l.1,0C11.93,46.74,10.66,48.44,9.73,51.9Z"/><path class="cls-9" d="M28.52,59.72C34.92,55.62,36.7,57.37,39,61c-3.6-6.52-6.75-30.58-7.49-36.51C32.16,30.33,34.47,54.11,28.52,59.72Z"/><path class="cls-10" d="M47.82,46.9c4.81,11.13,2.09,15.9,1.27,17,2.59-3.15,6.12-6,9.18,1.35C54.89,56,45.77,43.44,40.52,24.53A115.23,115.23,0,0,0,47.82,46.9Z"/><path class="cls-11" d="M94.62,57.21c4.81,5.65,5.93,10.44,5.82,13.91.27-.61.53-1.22.79-1.83,2.66-6.28,4.9-6.18,7.91-3.78C104.38,61.66,56.39,19,56.39,19S84.63,45.47,94.62,57.21Z"/><path class="cls-12" d="M136,6.67c4.15-6.25,6.44-5.33,6.48-5.31-2-1-4.22,0-7.69,4-5.5,6.34-13.09,8.25-26.57,7.93l-1.08-.06.16,0C119.11,14.54,131.79,13,136,6.67Z"/><path class="cls-13" d="M62.63,3.54c2.1-.45,23.9,11.74,26.12,11.53s-14.91-8.31-15.54-12S75.07.34,75.07.34l.42.23c-1.24-.8-2.16-.77-3.08.25C71,2.4,71,4.7,65.59,3.27S58.93,6,58.93,6c3.17,2.24,7.82,5.6,7.82,5.6S60.53,4,62.63,3.54Z"/><path class="cls-14" d="M28.52,21.2c3.23-.74-1.43-8.46-3.75-14.07s7.93-4.86,12.37-1S51.31,16.23,51.31,16.23,37.67,6.39,39.26,4.6c-18.67-7.74-17-3.49-14.49,5.18s-2.65,9.73-9.73,8c-3-.72-5.06-.61-6.1.16C12.71,16,25.3,21.94,28.52,21.2Z"/><path class="cls-15" d="M20.36,35.19A16.84,16.84,0,0,1,5.94,40.66C.11,40.1-.15,37.27.63,35-.84,37.8.12,41.46,5.2,43.73l-.1,0C10,45.82,15.8,40.76,20.36,35.19Z"/><path class="cls-16" d="M56.39,19s16.5,16.94,23.06,34S88,92,67.35,79.82a19.94,19.94,0,0,0,12.73,4.42c13,.29,17.21-6.06,20.36-13.12.11-3.47-1-8.26-5.82-13.91C84.63,45.47,56.39,19,56.39,19Z"/><path class="cls-17" d="M47.82,46.9a126.85,126.85,0,0,1-6.59-19.23c1.21,5.57,3.55,17.37,3.63,25.68.1,10.5-5.77,8.75-8,1.95A28.24,28.24,0,0,0,39,61l1.13,1.82c3.07,4.86,6.14,4.65,8.78,1.37l.21-.26C49.91,62.8,52.63,58,47.82,46.9Z"/><path class="cls-18" d="M31.71,26.52c-1.42,7.8-7.11,34.87-17.63,33-3-.55-4.45-2-4.86-3.8,0,.14,0,.27,0,.41.32,6.67,10.36,9.63,18.51,4.13l.79-.51C33.93,54.62,32.52,34.58,31.71,26.52Z"/><path class="cls-19" d="M112.55,34.53C85.74,25,68.76,12.63,68.76,12.63S85.37,25,99.12,32.94s27.81,9.73,31.73,19.67-11.79,5-28-6.7c21.5,15.33,19.77,12.93,23.43,17.21,2.78,2.54,5.21,5.23,12,.7,3.86-2.58,5.13-7.58,6.41-12.25C146.81,41.85,137.57,43.41,112.55,34.53Z"/><path class="cls-20" d="M201.84,36.55a8.93,8.93,0,0,0-.06-1.24c-.66-5.41-7.27-8.7-44.65-7.45a140.53,140.53,0,0,1-29.44-2.21h0c26.79,6.23,49.74,3.19,57.57,6.46s-19,3.36-26,2.24c5.83.9,10.38,1.48,12.51,1.61,8.25.47,9-.48,16.23,2.9,7.44,3.29,14.76,2.76,13.8-3.79a1.94,1.94,0,0,1,0,.24C201.82,35.72,201.84,36.13,201.84,36.55Z"/><path class="cls-21" d="M146.5,33.89a210.61,210.61,0,0,1-31.66-8.28c9.52,3.57,23.32,8.41,34.41,10.94C166.4,40.47,165,47,159.07,42.66c.23.24.47.48.72.76l.08.1c2.52,2.79,4.11,7.07,7.57,9.73,4.71,3.61,6.6,1.67,7.19-3.79C174.67,42.38,172,38.49,146.5,33.89Z"/><path class="cls-22" d="M94.15,42.12C75.46,28.46,64.81,19,59.86,14.33c5.55,5.4,18.51,17.84,31.8,29.5,17.61,15.44,23.39,27.11,2.19,8.34,7.58,6.69,13.74,12.09,15.29,13.34l-.6-.45a29.38,29.38,0,0,1,2.85,2.47c4.23,4,6.24.31,7.19-2.65,0-.1.07-.2.1-.3C118.76,63.48,117,58.85,94.15,42.12Z"/><path class="cls-23" d="M165,11.47c-4.44,1.59-8.51,8.46-32.15,8.3A108.68,108.68,0,0,1,96.22,13.3c5.21,2.37,20,8.49,33.78,8.75,16.26.3,35.27,2.31,30.78,3a59.11,59.11,0,0,0,7.93-1.27C162.47,23.63,169.45,9.88,165,11.47Z"/><path class="cls-24" d="M49.94,17.39c1.43-1.09,13.43,14,10.57,14.72S47.45,19.3,49.94,17.39Z"/><path class="cls-24" d="M125.68,41.18c1.43-.39,13.43,5.07,10.57,5.31S123.19,41.87,125.68,41.18Z"/><path class="cls-24" d="M55.25,20.25c1.71-.55-3.7-4.63-3.94-4S54.27,20.57,55.25,20.25Z"/><path class="cls-24" d="M190,30.62c.88-1.56-5.86-.91-5.62-.3S189.46,31.51,190,30.62Z"/><path class="cls-24" d="M55.25,8.67C54.91,7,62.56,11.32,62,13.27S55.54,10.1,55.25,8.67Z"/><path class="cls-24" d="M66.23,8.29c.6-1.06,4.44.93,4,2.12S65.67,9.27,66.23,8.29Z"/><path class="cls-24" d="M158.61,19.31c1-.66,3.51,2.87,2.54,3.71S157.66,19.92,158.61,19.31Z"/><path class="cls-24" d="M80.79,49.77c.6-1.07,4.44.93,4,2.12S80.23,50.74,80.79,49.77Z"/><path class="cls-24" d="M132.52,48.39c.6-1.06,4.44.93,4,2.12S132,49.36,132.52,48.39Z"/><path class="cls-24" d="M70.67,9.22c.08-.79,2.85.4,2.3,1S70.59,10,70.67,9.22Z"/><path class="cls-24" d="M113.53,37.57c.06-.79,1.89.4,1.52,1S113.48,38.37,113.53,37.57Z"/><path class="cls-24" d="M159.87,17.89c0-.8,1.88.39,1.51,1S159.82,18.68,159.87,17.89Z"/><path class="cls-24" d="M22.19,58.41c-.48-1.13,3.42-3,4.09-1.89S22.63,59.44,22.19,58.41Z"/><path class="cls-24" d="M25.61,55.42c-.58-.54,2-2,2.21-1.21S26.2,56,25.61,55.42Z"/><path class="cls-24" d="M143.72,4.15c-.41-1.88-6.34,2.74-6.26,4.14S144.23,6.45,143.72,4.15Z"/><path class="cls-24" d="M139.28,9.37c.49-.83,4.36.45,3.73,1.1S138.47,10.75,139.28,9.37Z"/><path class="cls-24" d="M94.51,68.78c1.92,0-1.13-6.82-2.52-7.08S92.15,68.72,94.51,68.78Z"/><path class="cls-24" d="M90.51,63.21c.68.67-1.49,4.13-2,3.35S89.37,62.09,90.51,63.21Z"/><path class="cls-24" d="M121.59,15.81c-1-.42,4.6-.8,3.57,0S122.7,16.28,121.59,15.81Z"/><path class="cls-24" d="M119.93,15.34c.36-.59-1.35-1-1.67-.27S119.29,16.39,119.93,15.34Z"/><path class="cls-24" d="M102.81,21.66c.36-.59-1.35-1-1.67-.27S102.17,22.71,102.81,21.66Z"/><path class="cls-24" d="M61.78,45.09c.36-.59-1.35-1-1.66-.27S61.15,46.13,61.78,45.09Z"/><path class="cls-24" d="M57.86,43.28c.36-.59-1.35-1-1.67-.27S57.22,44.33,57.86,43.28Z"/><path class="cls-24" d="M16.32,21.49c-.89-.57,4.67,0,3.52.6S17.33,22.15,16.32,21.49Z"/><path class="cls-24" d="M14.75,20.76c.46-.53-1.16-1.23-1.59-.55S14,21.68,14.75,20.76Z"/><path class="cls-25" d="M103.36,63.79c1.17-.9-4.78-6.61-6.18-7.24S101.05,65.56,103.36,63.79Z"/><path class="cls-25" d="M120.32,59.75c.9-.37-2.11-3.75-4.12-3S118.31,60.6,120.32,59.75Z"/><path class="cls-25" d="M114.84,57.69c.58,0,.46-2.27-1-2.38S113.21,57.74,114.84,57.69Z"/><path class="cls-25" d="M53.71,59.9c.57,0,.46-2.27-1-2.38S52.08,60,53.71,59.9Z"/><path class="cls-25" d="M149.12,40.94c-2.09-1-7.87,1.47-5,1.52S149.92,41.31,149.12,40.94Z"/><path class="cls-25" d="M141.68,40.82c.6.44,2.67,0,2.9-.56S140.88,40.25,141.68,40.82Z"/><path class="cls-25" d="M190.68,24.5c-1.31-1.9-18.8-.39-18.88.4S192.48,27.12,190.68,24.5Z"/><path class="cls-25" d="M193.27,25.89c.42-1-1.53-1.49-1.83-1.11S192.67,27.27,193.27,25.89Z"/></g></g></g></svg>