<svg xmlns="http://www.w3.org/2000/svg" xmlns:xlink="http://www.w3.org/1999/xlink" viewBox="0 0 121.89 151.15"><defs><style>.cls-1{isolation:isolate;}.cls-2{fill:#0048bd;}.cls-100,.cls-101,.cls-3,.cls-31,.cls-5,.cls-68,.cls-8,.cls-87,.cls-88,.cls-9,.cls-90,.cls-91,.cls-92,.cls-98,.cls-99{mix-blend-mode:multiply;}.cls-3,.cls-91,.cls-92{opacity:0.71;}.cls-3{fill:url(#Áåçûìÿííûé_ãðàäèåíò_211);}.cls-4{fill:url(#Áåçûìÿííûé_ãðàäèåíò_116);}.cls-100,.cls-101,.cls-5,.cls-68,.cls-8,.cls-9,.cls-98,.cls-99{opacity:0.56;}.cls-5{fill:url(#Áåçûìÿííûé_ãðàäèåíò_122);}.cls-6{fill:url(#Áåçûìÿííûé_ãðàäèåíò_118);}.cls-7{fill:url(#Áåçûìÿííûé_ãðàäèåíò_118-2);}.cls-8{fill:url(#Áåçûìÿííûé_ãðàäèåíò_122-2);}.cls-9{fill:url(#Áåçûìÿííûé_ãðàäèåíò_122-3);}.cls-10{fill:url(#Áåçûìÿííûé_ãðàäèåíò_838);}.cls-102,.cls-103,.cls-104,.cls-105,.cls-11,.cls-12,.cls-13,.cls-49,.cls-69,.cls-70,.cls-71,.cls-72,.cls-73,.cls-74,.cls-75,.cls-76,.cls-77,.cls-78,.cls-79,.cls-80,.cls-81,.cls-82,.cls-83,.cls-84,.cls-85,.cls-86,.cls-93{mix-blend-mode:screen;}.cls-11{fill:url(#Áåçûìÿííûé_ãðàäèåíò_229);}.cls-12{fill:url(#Áåçûìÿííûé_ãðàäèåíò_230);}.cls-13{fill:url(#Áåçûìÿííûé_ãðàäèåíò_231);}.cls-14{fill:url(#Áåçûìÿííûé_ãðàäèåíò_91);}.cls-15{fill:url(#Áåçûìÿííûé_ãðàäèåíò_91-2);}.cls-16{fill:url(#Áåçûìÿííûé_ãðàäèåíò_91-3);}.cls-17{fill:url(#Áåçûìÿííûé_ãðàäèåíò_91-4);}.cls-18{fill:url(#Áåçûìÿííûé_ãðàäèåíò_91-5);}.cls-19{fill:url(#Áåçûìÿííûé_ãðàäèåíò_91-6);}.cls-20{fill:url(#Áåçûìÿííûé_ãðàäèåíò_91-7);}.cls-21{fill:url(#Áåçûìÿííûé_ãðàäèåíò_91-8);}.cls-22{fill:url(#Áåçûìÿííûé_ãðàäèåíò_91-9);}.cls-23{fill:url(#Áåçûìÿííûé_ãðàäèåíò_91-10);}.cls-24{fill:url(#Áåçûìÿííûé_ãðàäèåíò_91-11);}.cls-25{fill:url(#Áåçûìÿííûé_ãðàäèåíò_91-12);}.cls-26{fill:url(#Áåçûìÿííûé_ãðàäèåíò_91-13);}.cls-27{fill:url(#Áåçûìÿííûé_ãðàäèåíò_91-14);}.cls-28{fill:url(#Áåçûìÿííûé_ãðàäèåíò_91-15);}.cls-29{fill:url(#Áåçûìÿííûé_ãðàäèåíò_91-16);}.cls-30{fill:url(#Áåçûìÿííûé_ãðàäèåíò_91-17);}.cls-32{fill:url(#Áåçûìÿííûé_ãðàäèåíò_91-18);}.cls-33{fill:url(#Áåçûìÿííûé_ãðàäèåíò_91-19);}.cls-34{fill:url(#Áåçûìÿííûé_ãðàäèåíò_91-20);}.cls-35{fill:url(#Áåçûìÿííûé_ãðàäèåíò_91-21);}.cls-36{fill:url(#Áåçûìÿííûé_ãðàäèåíò_91-22);}.cls-37{fill:url(#Áåçûìÿííûé_ãðàäèåíò_91-23);}.cls-38{fill:url(#Áåçûìÿííûé_ãðàäèåíò_91-24);}.cls-39{fill:url(#Áåçûìÿííûé_ãðàäèåíò_91-25);}.cls-40{fill:url(#Áåçûìÿííûé_ãðàäèåíò_91-26);}.cls-41{fill:url(#Áåçûìÿííûé_ãðàäèåíò_91-27);}.cls-42{fill:url(#Áåçûìÿííûé_ãðàäèåíò_91-28);}.cls-43{fill:url(#Áåçûìÿííûé_ãðàäèåíò_91-29);}.cls-44{fill:url(#Áåçûìÿííûé_ãðàäèåíò_91-30);}.cls-45{fill:url(#Áåçûìÿííûé_ãðàäèåíò_91-31);}.cls-46{fill:url(#Áåçûìÿííûé_ãðàäèåíò_91-32);}.cls-47{fill:url(#Áåçûìÿííûé_ãðàäèåíò_91-33);}.cls-48{fill:url(#Áåçûìÿííûé_ãðàäèåíò_91-34);}.cls-50{fill:url(#Áåçûìÿííûé_ãðàäèåíò_91-35);}.cls-51{fill:url(#Áåçûìÿííûé_ãðàäèåíò_91-36);}.cls-52{fill:url(#Áåçûìÿííûé_ãðàäèåíò_91-37);}.cls-53{fill:url(#Áåçûìÿííûé_ãðàäèåíò_91-38);}.cls-54{fill:url(#Áåçûìÿííûé_ãðàäèåíò_91-39);}.cls-55{fill:url(#Áåçûìÿííûé_ãðàäèåíò_91-40);}.cls-56{fill:url(#Áåçûìÿííûé_ãðàäèåíò_91-41);}.cls-57{fill:url(#Áåçûìÿííûé_ãðàäèåíò_91-42);}.cls-58{fill:url(#Áåçûìÿííûé_ãðàäèåíò_91-43);}.cls-59{fill:url(#Áåçûìÿííûé_ãðàäèåíò_91-44);}.cls-60{fill:url(#Áåçûìÿííûé_ãðàäèåíò_91-45);}.cls-61{fill:url(#Áåçûìÿííûé_ãðàäèåíò_91-46);}.cls-62{fill:url(#Áåçûìÿííûé_ãðàäèåíò_91-47);}.cls-63{fill:url(#Áåçûìÿííûé_ãðàäèåíò_91-48);}.cls-64{fill:url(#Áåçûìÿííûé_ãðàäèåíò_91-49);}.cls-65{fill:url(#Áåçûìÿííûé_ãðàäèåíò_91-50);}.cls-66{fill:url(#Áåçûìÿííûé_ãðàäèåíò_91-51);}.cls-67{fill:#00ffdb;}.cls-68{fill:url(#Áåçûìÿííûé_ãðàäèåíò_123);}.cls-69{fill:url(#Áåçûìÿííûé_ãðàäèåíò_125);}.cls-70{fill:url(#Áåçûìÿííûé_ãðàäèåíò_125-2);}.cls-71{fill:url(#Áåçûìÿííûé_ãðàäèåíò_125-3);}.cls-72{fill:url(#Áåçûìÿííûé_ãðàäèåíò_125-4);}.cls-73{fill:url(#Áåçûìÿííûé_ãðàäèåíò_192);}.cls-74{fill:url(#Áåçûìÿííûé_ãðàäèåíò_192-2);}.cls-75{fill:url(#Áåçûìÿííûé_ãðàäèåíò_194);}.cls-76{fill:url(#Áåçûìÿííûé_ãðàäèåíò_194-2);}.cls-77{fill:url(#Áåçûìÿííûé_ãðàäèåíò_194-3);}.cls-78{fill:url(#Áåçûìÿííûé_ãðàäèåíò_194-4);}.cls-79{fill:url(#Áåçûìÿííûé_ãðàäèåíò_194-5);}.cls-80{fill:url(#Áåçûìÿííûé_ãðàäèåíò_194-6);}.cls-81,.cls-82,.cls-83{opacity:0.5;}.cls-81{fill:url(#Áåçûìÿííûé_ãðàäèåíò_203);}.cls-82{fill:url(#Áåçûìÿííûé_ãðàäèåíò_203-2);}.cls-83{fill:url(#Áåçûìÿííûé_ãðàäèåíò_203-3);}.cls-84{fill:url(#Áåçûìÿííûé_ãðàäèåíò_806);}.cls-85{fill:url(#Áåçûìÿííûé_ãðàäèåíò_806-2);}.cls-86{fill:url(#Áåçûìÿííûé_ãðàäèåíò_806-3);}.cls-87{opacity:0.77;}.cls-88{fill:#97009c;opacity:0.22;}.cls-89{fill:#fff;}.cls-90{opacity:0.81;fill:url(#Áåçûìÿííûé_ãðàäèåíò_217);}.cls-91{fill:url(#Áåçûìÿííûé_ãðàäèåíò_217-2);}.cls-92{fill:url(#Áåçûìÿííûé_ãðàäèåíò_217-3);}.cls-93{fill:url(#Áåçûìÿííûé_ãðàäèåíò_228);}.cls-94{fill:url(#Áåçûìÿííûé_ãðàäèåíò_119);}.cls-95{fill:url(#Áåçûìÿííûé_ãðàäèåíò_119-2);}.cls-96{fill:url(#Áåçûìÿííûé_ãðàäèåíò_119-3);}.cls-97{fill:url(#Áåçûìÿííûé_ãðàäèåíò_119-4);}.cls-98{fill:url(#Áåçûìÿííûé_ãðàäèåíò_122-4);}.cls-99{fill:url(#Áåçûìÿííûé_ãðàäèåíò_122-5);}.cls-100{fill:url(#Áåçûìÿííûé_ãðàäèåíò_122-6);}.cls-101{fill:url(#Áåçûìÿííûé_ãðàäèåíò_122-7);}.cls-102{fill:url(#Áåçûìÿííûé_ãðàäèåíò_125-5);}.cls-103{fill:url(#Áåçûìÿííûé_ãðàäèåíò_125-6);}.cls-104{fill:url(#Áåçûìÿííûé_ãðàäèåíò_125-7);}.cls-105{fill:url(#Áåçûìÿííûé_ãðàäèåíò_125-8);}</style><linearGradient id="Áåçûìÿííûé_ãðàäèåíò_211" x1="95.57" y1="147.7" x2="95.57" y2="106" gradientUnits="userSpaceOnUse"><stop offset="0.55" stop-color="#004f97"/><stop offset="1" stop-color="#fff"/></linearGradient><linearGradient id="Áåçûìÿííûé_ãðàäèåíò_116" x1="50.38" y1="6.8" x2="57.88" y2="53.72" gradientUnits="userSpaceOnUse"><stop offset="0.02" stop-color="#ae00a2"/><stop offset="0.4" stop-color="#9015a0"/><stop offset="0.77" stop-color="#7a249f"/><stop offset="1" stop-color="#72299f"/></linearGradient><linearGradient id="Áåçûìÿííûé_ãðàäèåíò_122" x1="50.38" y1="6.8" x2="57.89" y2="53.72" gradientUnits="userSpaceOnUse"><stop offset="0" stop-color="#fff"/><stop offset="0.03" stop-color="#f9effa"/><stop offset="0.14" stop-color="#e3b8eb"/><stop offset="0.26" stop-color="#d086dd"/><stop offset="0.37" stop-color="#c05dd2"/><stop offset="0.49" stop-color="#b33bc9"/><stop offset="0.61" stop-color="#a921c1"/><stop offset="0.73" stop-color="#a20fbc"/><stop offset="0.86" stop-color="#9d04b9"/><stop offset="1" stop-color="#9c00b8"/></linearGradient><linearGradient id="Áåçûìÿííûé_ãðàäèåíò_118" x1="102.04" y1="71.02" x2="107.38" y2="80.27" gradientUnits="userSpaceOnUse"><stop offset="0" stop-color="#ae00a2"/><stop offset="0.15" stop-color="#9f0aa1"/><stop offset="0.47" stop-color="#861ba0"/><stop offset="0.76" stop-color="#77259f"/><stop offset="1" stop-color="#72299f"/></linearGradient><linearGradient id="Áåçûìÿííûé_ãðàäèåíò_118-2" x1="28" y1="68.22" x2="23.8" y2="82.59" xlink:href="#Áåçûìÿííûé_ãðàäèåíò_118"/><linearGradient id="Áåçûìÿííûé_ãðàäèåíò_122-2" x1="102.04" y1="71.02" x2="107.38" y2="80.27" xlink:href="#Áåçûìÿííûé_ãðàäèåíò_122"/><linearGradient id="Áåçûìÿííûé_ãðàäèåíò_122-3" x1="28" y1="68.22" x2="23.8" y2="82.59" xlink:href="#Áåçûìÿííûé_ãðàäèåíò_122"/><linearGradient id="Áåçûìÿííûé_ãðàäèåíò_838" x1="60.56" y1="169.07" x2="60.56" y2="26.6" gradientUnits="userSpaceOnUse"><stop offset="0" stop-color="#0048bd"/><stop offset="0.02" stop-color="#004bbd"/><stop offset="0.36" stop-color="#0090ba"/><stop offset="0.66" stop-color="#00c2b7"/><stop offset="0.88" stop-color="#00e0b6"/><stop offset="1" stop-color="#00ecb5"/></linearGradient><linearGradient id="Áåçûìÿííûé_ãðàäèåíò_229" x1="28.89" y1="124.89" x2="28.89" y2="99.93" gradientUnits="userSpaceOnUse"><stop offset="0" stop-color="#b3e7d8"/><stop offset="1"/></linearGradient><linearGradient id="Áåçûìÿííûé_ãðàäèåíò_230" x1="107.74" y1="106.71" x2="107.74" y2="87.97" gradientUnits="userSpaceOnUse"><stop offset="0.33" stop-color="#b3e7d8"/><stop offset="1"/></linearGradient><linearGradient id="Áåçûìÿííûé_ãðàäèåíò_231" x1="57.48" y1="94.15" x2="57.48" y2="74.64" gradientUnits="userSpaceOnUse"><stop offset="0.4" stop-color="#b3e7d8"/><stop offset="0.45" stop-color="#92bcb0"/><stop offset="0.53" stop-color="#6c8b82"/><stop offset="0.6" stop-color="#4b605a"/><stop offset="0.68" stop-color="#303d39"/><stop offset="0.76" stop-color="#1b2220"/><stop offset="0.84" stop-color="#0c0f0e"/><stop offset="0.92" stop-color="#030404"/><stop offset="1"/></linearGradient><linearGradient id="Áåçûìÿííûé_ãðàäèåíò_91" x1="55.23" y1="148.94" x2="55.23" y2="72.86" gradientUnits="userSpaceOnUse"><stop offset="0.06" stop-color="#ff00fe"/><stop offset="0.18" stop-color="#ff39e6"/><stop offset="0.29" stop-color="#ff6dd0"/><stop offset="0.41" stop-color="#ff9abd"/><stop offset="0.53" stop-color="#ffbead"/><stop offset="0.65" stop-color="#ffdba1"/><stop offset="0.77" stop-color="#ffef99"/><stop offset="0.88" stop-color="#fffb94"/><stop offset="1" stop-color="#ffff92"/></linearGradient><linearGradient id="Áåçûìÿííûé_ãðàäèåíò_91-2" x1="33.71" y1="148.94" x2="33.71" y2="72.86" xlink:href="#Áåçûìÿííûé_ãðàäèåíò_91"/><linearGradient id="Áåçûìÿííûé_ãðàäèåíò_91-3" x1="17.3" y1="148.94" x2="17.3" y2="72.86" xlink:href="#Áåçûìÿííûé_ãðàäèåíò_91"/><linearGradient id="Áåçûìÿííûé_ãðàäèåíò_91-4" x1="16.45" y1="148.94" x2="16.45" y2="72.86" xlink:href="#Áåçûìÿííûé_ãðàäèåíò_91"/><linearGradient id="Áåçûìÿííûé_ãðàäèåíò_91-5" x1="40.05" y1="148.94" x2="40.05" y2="72.86" xlink:href="#Áåçûìÿííûé_ãðàäèåíò_91"/><linearGradient id="Áåçûìÿííûé_ãðàäèåíò_91-6" x1="44.51" y1="148.94" x2="44.51" y2="72.86" xlink:href="#Áåçûìÿííûé_ãðàäèåíò_91"/><linearGradient id="Áåçûìÿííûé_ãðàäèåíò_91-7" x1="83.9" y1="148.94" x2="83.9" y2="72.86" xlink:href="#Áåçûìÿííûé_ãðàäèåíò_91"/><linearGradient id="Áåçûìÿííûé_ãðàäèåíò_91-8" x1="87.95" y1="148.94" x2="87.95" y2="72.86" xlink:href="#Áåçûìÿííûé_ãðàäèåíò_91"/><linearGradient id="Áåçûìÿííûé_ãðàäèåíò_91-9" x1="90.36" y1="148.94" x2="90.36" y2="72.86" xlink:href="#Áåçûìÿííûé_ãðàäèåíò_91"/><linearGradient id="Áåçûìÿííûé_ãðàäèåíò_91-10" x1="55.37" y1="148.94" x2="55.37" y2="72.86" xlink:href="#Áåçûìÿííûé_ãðàäèåíò_91"/><linearGradient id="Áåçûìÿííûé_ãðàäèåíò_91-11" x1="52.15" y1="148.94" x2="52.15" y2="72.86" xlink:href="#Áåçûìÿííûé_ãðàäèåíò_91"/><linearGradient id="Áåçûìÿííûé_ãðàäèåíò_91-12" x1="93.71" y1="148.94" x2="93.71" y2="72.86" xlink:href="#Áåçûìÿííûé_ãðàäèåíò_91"/><linearGradient id="Áåçûìÿííûé_ãðàäèåíò_91-13" x1="98.26" y1="148.94" x2="98.26" y2="72.86" xlink:href="#Áåçûìÿííûé_ãðàäèåíò_91"/><linearGradient id="Áåçûìÿííûé_ãðàäèåíò_91-14" x1="82.7" y1="148.94" x2="82.7" y2="72.86" xlink:href="#Áåçûìÿííûé_ãðàäèåíò_91"/><linearGradient id="Áåçûìÿííûé_ãðàäèåíò_91-15" x1="74.12" y1="148.93" x2="74.12" y2="72.87" xlink:href="#Áåçûìÿííûé_ãðàäèåíò_91"/><linearGradient id="Áåçûìÿííûé_ãðàäèåíò_91-16" x1="64.05" y1="148.94" x2="64.05" y2="72.86" xlink:href="#Áåçûìÿííûé_ãðàäèåíò_91"/><linearGradient id="Áåçûìÿííûé_ãðàäèåíò_91-17" x1="80.6" y1="148.94" x2="80.6" y2="72.86" xlink:href="#Áåçûìÿííûé_ãðàäèåíò_91"/><linearGradient id="Áåçûìÿííûé_ãðàäèåíò_91-18" x1="55.13" y1="148.34" x2="55.13" y2="72.26" xlink:href="#Áåçûìÿííûé_ãðàäèåíò_91"/><linearGradient id="Áåçûìÿííûé_ãðàäèåíò_91-19" x1="33.01" y1="148.78" x2="33.01" y2="72.69" xlink:href="#Áåçûìÿííûé_ãðàäèåíò_91"/><linearGradient id="Áåçûìÿííûé_ãðàäèåíò_91-20" x1="6.79" y1="26.43" x2="6.79" y2="-49.66" gradientTransform="translate(7.67 120.04) rotate(8.96)" xlink:href="#Áåçûìÿííûé_ãðàäèåíò_91"/><linearGradient id="Áåçûìÿííûé_ãðàäèåíò_91-21" x1="-7.19" y1="-34.68" x2="-7.19" y2="-110.76" gradientTransform="matrix(0.97, 0.23, -0.23, 0.97, 6.04, 181.71)" xlink:href="#Áåçûìÿííûé_ãðàäèåíò_91"/><linearGradient id="Áåçûìÿííûé_ãðàäèåíò_91-22" x1="39.57" y1="148.51" x2="39.57" y2="72.43" xlink:href="#Áåçûìÿííûé_ãðàäèåíò_91"/><linearGradient id="Áåçûìÿííûé_ãðàäèåíò_91-23" x1="44.04" y1="148.55" x2="44.04" y2="72.47" xlink:href="#Áåçûìÿííûé_ãðàäèåíò_91"/><linearGradient id="Áåçûìÿííûé_ãðàäèåíò_91-24" x1="83.55" y1="150.26" x2="83.55" y2="71.98" xlink:href="#Áåçûìÿííûé_ãðàäèåíò_91"/><linearGradient id="Áåçûìÿííûé_ãðàäèåíò_91-25" x1="88.1" y1="147.87" x2="88.1" y2="71.81" xlink:href="#Áåçûìÿííûé_ãðàäèåíò_91"/><linearGradient id="Áåçûìÿííûé_ãðàäèåíò_91-26" x1="90.71" y1="148.6" x2="90.71" y2="72.51" xlink:href="#Áåçûìÿííûé_ãðàäèåíò_91"/><linearGradient id="Áåçûìÿííûé_ãðàäèåíò_91-27" x1="55.26" y1="148.34" x2="55.26" y2="72.25" xlink:href="#Áåçûìÿííûé_ãðàäèåíò_91"/><linearGradient id="Áåçûìÿííûé_ãðàäèåíò_91-28" x1="52.28" y1="148.14" x2="52.28" y2="72.06" xlink:href="#Áåçûìÿííûé_ãðàäèåíò_91"/><linearGradient id="Áåçûìÿííûé_ãðàäèåíò_91-29" x1="94.18" y1="148.34" x2="94.18" y2="72.26" xlink:href="#Áåçûìÿííûé_ãðàäèåíò_91"/><linearGradient id="Áåçûìÿííûé_ãðàäèåíò_91-30" x1="98.32" y1="149.32" x2="98.32" y2="70.1" xlink:href="#Áåçûìÿííûé_ãðàäèåíò_91"/><linearGradient id="Áåçûìÿííûé_ãðàäèåíò_91-31" x1="84.79" y1="149.15" x2="84.79" y2="66.35" xlink:href="#Áåçûìÿííûé_ãðàäèåíò_91"/><linearGradient id="Áåçûìÿííûé_ãðàäèåíò_91-32" x1="74.86" y1="148.76" x2="74.86" y2="72.69" xlink:href="#Áåçûìÿííûé_ãðàäèåíò_91"/><linearGradient id="Áåçûìÿííûé_ãðàäèåíò_91-33" x1="65.68" y1="148.79" x2="65.68" y2="72.71" xlink:href="#Áåçûìÿííûé_ãðàäèåíò_91"/><linearGradient id="Áåçûìÿííûé_ãðàäèåíò_91-34" x1="78.92" y1="232.48" x2="78.92" y2="156.4" gradientTransform="translate(-16.01 -74.57) rotate(-6.17)" xlink:href="#Áåçûìÿííûé_ãðàäèåíò_91"/><linearGradient id="Áåçûìÿííûé_ãðàäèåíò_91-35" x1="55.09" y1="148.34" x2="55.09" y2="72.26" xlink:href="#Áåçûìÿííûé_ãðàäèåíò_91"/><linearGradient id="Áåçûìÿííûé_ãðàäèåíò_91-36" x1="32.31" y1="148.78" x2="32.31" y2="72.69" xlink:href="#Áåçûìÿííûé_ãðàäèåíò_91"/><linearGradient id="Áåçûìÿííûé_ãðàäèåíò_91-37" x1="6.86" y1="26.43" x2="6.86" y2="-49.66" gradientTransform="translate(7.67 120.04) rotate(8.96)" xlink:href="#Áåçûìÿííûé_ãðàäèåíò_91"/><linearGradient id="Áåçûìÿííûé_ãðàäèåíò_91-38" x1="-7.66" y1="-34.68" x2="-7.66" y2="-110.76" gradientTransform="matrix(0.97, 0.23, -0.23, 0.97, 6.04, 181.71)" xlink:href="#Áåçûìÿííûé_ãðàäèåíò_91"/><linearGradient id="Áåçûìÿííûé_ãðàäèåíò_91-39" x1="39.02" y1="148.51" x2="39.02" y2="72.43" xlink:href="#Áåçûìÿííûé_ãðàäèåíò_91"/><linearGradient id="Áåçûìÿííûé_ãðàäèåíò_91-40" x1="43.47" y1="148.55" x2="43.47" y2="72.47" xlink:href="#Áåçûìÿííûé_ãðàäèåíò_91"/><linearGradient id="Áåçûìÿííûé_ãðàäèåíò_91-41" x1="83.64" y1="150.26" x2="83.64" y2="71.98" xlink:href="#Áåçûìÿííûé_ãðàäèåíò_91"/><linearGradient id="Áåçûìÿííûé_ãðàäèåíò_91-42" x1="88.34" y1="147.89" x2="88.34" y2="71.8" xlink:href="#Áåçûìÿííûé_ãðàäèåíò_91"/><linearGradient id="Áåçûìÿííûé_ãðàäèåíò_91-43" x1="90.96" y1="148.6" x2="90.96" y2="72.51" xlink:href="#Áåçûìÿííûé_ãðàäèåíò_91"/><linearGradient id="Áåçûìÿííûé_ãðàäèåíò_91-44" x1="54.67" y1="148.34" x2="54.67" y2="72.25" xlink:href="#Áåçûìÿííûé_ãðàäèåíò_91"/><linearGradient id="Áåçûìÿííûé_ãðàäèåíò_91-45" x1="54.62" y1="148.15" x2="54.62" y2="72.06" xlink:href="#Áåçûìÿííûé_ãðàäèåíò_91"/><linearGradient id="Áåçûìÿííûé_ãðàäèåíò_91-46" x1="94.88" y1="148.34" x2="94.88" y2="72.25" xlink:href="#Áåçûìÿííûé_ãðàäèåíò_91"/><linearGradient id="Áåçûìÿííûé_ãðàäèåíò_91-47" x1="98.54" y1="149.31" x2="98.54" y2="70.1" xlink:href="#Áåçûìÿííûé_ãðàäèåíò_91"/><linearGradient id="Áåçûìÿííûé_ãðàäèåíò_91-48" x1="85.45" y1="149.15" x2="85.45" y2="66.35" xlink:href="#Áåçûìÿííûé_ãðàäèåíò_91"/><linearGradient id="Áåçûìÿííûé_ãðàäèåíò_91-49" x1="76.09" y1="148.77" x2="76.09" y2="72.68" xlink:href="#Áåçûìÿííûé_ãðàäèåíò_91"/><linearGradient id="Áåçûìÿííûé_ãðàäèåíò_91-50" x1="66.83" y1="148.79" x2="66.83" y2="72.71" xlink:href="#Áåçûìÿííûé_ãðàäèåíò_91"/><linearGradient id="Áåçûìÿííûé_ãðàäèåíò_91-51" x1="79.51" y1="232.48" x2="79.51" y2="156.4" gradientTransform="translate(-16.01 -74.57) rotate(-6.17)" xlink:href="#Áåçûìÿííûé_ãðàäèåíò_91"/><linearGradient id="Áåçûìÿííûé_ãðàäèåíò_123" x1="52.5" y1="20.88" x2="85.19" y2="20.88" gradientUnits="userSpaceOnUse"><stop offset="0" stop-color="#9c00b8"/><stop offset="0.14" stop-color="#9d04b9"/><stop offset="0.27" stop-color="#a20fbc"/><stop offset="0.39" stop-color="#a921c1"/><stop offset="0.51" stop-color="#b33bc9"/><stop offset="0.63" stop-color="#c05dd2"/><stop offset="0.74" stop-color="#d086dd"/><stop offset="0.86" stop-color="#e3b8eb"/><stop offset="0.97" stop-color="#f9effa"/><stop offset="1" stop-color="#fff"/></linearGradient><linearGradient id="Áåçûìÿííûé_ãðàäèåíò_125" x1="23.74" y1="20.3" x2="47.17" y2="43.72" gradientUnits="userSpaceOnUse"><stop offset="0" stop-color="#e52ea8"/><stop offset="0.23" stop-color="#9d1f73"/><stop offset="0.47" stop-color="#5a1242"/><stop offset="0.67" stop-color="#29081e"/><stop offset="0.82" stop-color="#0b0208"/><stop offset="0.91"/></linearGradient><linearGradient id="Áåçûìÿííûé_ãðàäèåíò_125-2" x1="99.37" y1="71.14" x2="104.74" y2="76.51" xlink:href="#Áåçûìÿííûé_ãðàäèåíò_125"/><linearGradient id="Áåçûìÿííûé_ãðàäèåíò_125-3" x1="6.99" y1="81.05" x2="7.46" y2="81.52" xlink:href="#Áåçûìÿííûé_ãðàäèåíò_125"/><linearGradient id="Áåçûìÿííûé_ãðàäèåíò_125-4" x1="15.24" y1="70.62" x2="24.09" y2="79.47" xlink:href="#Áåçûìÿííûé_ãðàäèåíò_125"/><linearGradient id="Áåçûìÿííûé_ãðàäèåíò_192" x1="34.79" y1="90.93" x2="25.75" y2="99.97" gradientUnits="userSpaceOnUse"><stop offset="0"/><stop offset="0.08" stop-color="#171719"/><stop offset="0.34" stop-color="#5f5b66"/><stop offset="0.57" stop-color="#9892a3"/><stop offset="0.76" stop-color="#c1bacf"/><stop offset="0.91" stop-color="#dad2ea"/><stop offset="1" stop-color="#e3dbf4"/></linearGradient><linearGradient id="Áåçûìÿííûé_ãðàäèåíò_192-2" x1="16.26" y1="86.62" x2="9.53" y2="93.35" xlink:href="#Áåçûìÿííûé_ãðàäèåíò_192"/><linearGradient id="Áåçûìÿííûé_ãðàäèåíò_194" x1="23.15" y1="70.73" x2="23.15" y2="58.01" gradientUnits="userSpaceOnUse"><stop offset="0" stop-color="#e3dbf4"/><stop offset="0.09" stop-color="#dad2ea"/><stop offset="0.24" stop-color="#c1bacf"/><stop offset="0.43" stop-color="#9892a3"/><stop offset="0.66" stop-color="#5f5b66"/><stop offset="0.92" stop-color="#171719"/><stop offset="1"/></linearGradient><linearGradient id="Áåçûìÿííûé_ãðàäèåíò_194-2" x1="90.27" y1="76.65" x2="90.27" y2="34.61" xlink:href="#Áåçûìÿííûé_ãðàäèåíò_194"/><linearGradient id="Áåçûìÿííûé_ãðàäèåíò_194-3" x1="53.26" y1="84.29" x2="53.26" y2="77.23" xlink:href="#Áåçûìÿííûé_ãðàäèåíò_194"/><linearGradient id="Áåçûìÿííûé_ãðàäèåíò_194-4" x1="40.94" y1="82.4" x2="40.94" y2="70.7" xlink:href="#Áåçûìÿííûé_ãðàäèåíò_194"/><linearGradient id="Áåçûìÿííûé_ãðàäèåíò_194-5" x1="100.43" y1="88.26" x2="100.43" y2="79.73" xlink:href="#Áåçûìÿííûé_ãðàäèåíò_194"/><linearGradient id="Áåçûìÿííûé_ãðàäèåíò_194-6" x1="116.26" y1="86.82" x2="116.26" y2="77.07" xlink:href="#Áåçûìÿííûé_ãðàäèåíò_194"/><linearGradient id="Áåçûìÿííûé_ãðàäèåíò_203" x1="54.72" y1="59.95" x2="54.72" y2="42.72" gradientUnits="userSpaceOnUse"><stop offset="0"/><stop offset="0.33" stop-color="#54113e"/><stop offset="0.65" stop-color="#a22076"/><stop offset="0.88" stop-color="#d22a9a"/><stop offset="1" stop-color="#e52ea8"/></linearGradient><linearGradient id="Áåçûìÿííûé_ãðàäèåíò_203-2" x1="107.2" y1="81.29" x2="107.2" y2="74.21" xlink:href="#Áåçûìÿííûé_ãðàäèåíò_203"/><linearGradient id="Áåçûìÿííûé_ãðàäèåíò_203-3" x1="22.9" y1="90.73" x2="22.9" y2="76.24" xlink:href="#Áåçûìÿííûé_ãðàäèåíò_203"/><linearGradient id="Áåçûìÿííûé_ãðàäèåíò_806" x1="25.63" y1="18.82" x2="48.63" y2="41.82" gradientUnits="userSpaceOnUse"><stop offset="0" stop-color="#ff81ff"/><stop offset="0.01" stop-color="#f97ef9"/><stop offset="0.2" stop-color="#af58af"/><stop offset="0.38" stop-color="#703970"/><stop offset="0.54" stop-color="#402040"/><stop offset="0.68" stop-color="#1d0f1d"/><stop offset="0.8" stop-color="#080408"/><stop offset="0.87"/></linearGradient><linearGradient id="Áåçûìÿííûé_ãðàäèåíò_806-2" x1="99.4" y1="71.75" x2="103.41" y2="75.76" xlink:href="#Áåçûìÿííûé_ãðàäèåíò_806"/><linearGradient id="Áåçûìÿííûé_ãðàäèåíò_806-3" x1="17.5" y1="68.75" x2="25" y2="76.25" xlink:href="#Áåçûìÿííûé_ãðàäèåíò_806"/><linearGradient id="Áåçûìÿííûé_ãðàäèåíò_217" x1="80.35" y1="148.94" x2="80.35" y2="88.88" gradientUnits="userSpaceOnUse"><stop offset="0" stop-color="#fff"/><stop offset="1" stop-color="#0072c0"/></linearGradient><linearGradient id="Áåçûìÿííûé_ãðàäèåíò_217-2" x1="59.34" y1="152.21" x2="59.34" y2="129.61" xlink:href="#Áåçûìÿííûé_ãðàäèåíò_217"/><linearGradient id="Áåçûìÿííûé_ãðàäèåíò_217-3" x1="50.37" y1="151.15" x2="50.37" y2="144.41" xlink:href="#Áåçûìÿííûé_ãðàäèåíò_217"/><linearGradient id="Áåçûìÿííûé_ãðàäèåíò_228" x1="67.42" y1="117.84" x2="67.42" y2="99.21" gradientUnits="userSpaceOnUse"><stop offset="0"/><stop offset="1" stop-color="#b3e7d8"/></linearGradient><linearGradient id="Áåçûìÿííûé_ãðàäèåíò_119" x1="108.62" y1="121.76" x2="108.62" y2="114.49" gradientUnits="userSpaceOnUse"><stop offset="0" stop-color="#72299f"/><stop offset="0.24" stop-color="#77259f"/><stop offset="0.53" stop-color="#861ba0"/><stop offset="0.85" stop-color="#9f0aa1"/><stop offset="1" stop-color="#ae00a2"/></linearGradient><linearGradient id="Áåçûìÿííûé_ãðàäèåíò_119-2" x1="75.86" y1="125.16" x2="75.86" y2="121.22" xlink:href="#Áåçûìÿííûé_ãðàäèåíò_119"/><linearGradient id="Áåçûìÿííûé_ãðàäèåíò_119-3" x1="14.71" y1="126.24" x2="14.71" y2="116.54" xlink:href="#Áåçûìÿííûé_ãðàäèåíò_119"/><linearGradient id="Áåçûìÿííûé_ãðàäèåíò_119-4" x1="29.77" y1="142.38" x2="29.77" y2="139.33" xlink:href="#Áåçûìÿííûé_ãðàäèåíò_119"/><linearGradient id="Áåçûìÿííûé_ãðàäèåíò_122-4" x1="108.62" y1="121.76" x2="108.62" y2="115.07" xlink:href="#Áåçûìÿííûé_ãðàäèåíò_122"/><linearGradient id="Áåçûìÿííûé_ãðàäèåíò_122-5" x1="75.86" y1="125.16" x2="75.86" y2="121.96" xlink:href="#Áåçûìÿííûé_ãðàäèåíò_122"/><linearGradient id="Áåçûìÿííûé_ãðàäèåíò_122-6" x1="14.71" y1="126.24" x2="14.71" y2="118.8" xlink:href="#Áåçûìÿííûé_ãðàäèåíò_122"/><linearGradient id="Áåçûìÿííûé_ãðàäèåíò_122-7" x1="29.77" y1="142.38" x2="29.77" y2="140.17" xlink:href="#Áåçûìÿííûé_ãðàäèåíò_122"/><linearGradient id="Áåçûìÿííûé_ãðàäèåíò_125-5" x1="106.19" y1="114.31" x2="110.04" y2="118.16" xlink:href="#Áåçûìÿííûé_ãðàäèåíò_125"/><linearGradient id="Áåçûìÿííûé_ãðàäèåíò_125-6" x1="74.29" y1="121.24" x2="76.23" y2="123.18" xlink:href="#Áåçûìÿííûé_ãðàäèåíò_125"/><linearGradient id="Áåçûìÿííûé_ãðàäèåíò_125-7" x1="11.63" y1="117.11" x2="16.18" y2="121.66" xlink:href="#Áåçûìÿííûé_ãðàäèåíò_125"/><linearGradient id="Áåçûìÿííûé_ãðàäèåíò_125-8" x1="29.59" y1="139.63" x2="30.48" y2="140.53" xlink:href="#Áåçûìÿííûé_ãðàäèåíò_125"/></defs><g class="cls-1"><g id="Calque_2" data-name="Calque 2"><g id="Ñëîé_1" data-name="Ñëîé 1"><path class="cls-2" d="M113.49,121.76c9.55,1,9.39-8.69.6-13.25-8.61-4.47-25.56-3.27-25.24,6s14.26,8.08,11.74,17.63-18.9,12.15-25.16,11.18c0,0,11.23-7.56,7.29-20.85S68.4,117,70.85,123s11,5.59,7.55,1.89l-1.13-1.26.16.7.41.87c1.12.75,1.06,2.66-2.17,1.85s-6.16-4.66-3.66-8.4,7-3.55,9.14.44c3.14,5.89,2.84,16.64-7.23,22.79s4.48,6.84,13.08,4.91,14.71-6.76,16.08-14.11-5-9.64-8.51-11.31-7.36-6.24-3.83-10.93,13.24-5.12,19.48-3.14c11.1,3.53,12.39,14.76,3.27,13.59s-4.87-3.31-4.87-3.31l-1.45-.38,0,2.1,4.75,2.35Z"/><path class="cls-3" d="M113.49,121.76c9.55,1,9.39-8.69.6-13.25-8.61-4.47-25.56-3.27-25.24,6s14.26,8.08,11.74,17.63-18.9,12.15-25.16,11.18c0,0,11.23-7.56,7.29-20.85S68.4,117,70.85,123s11,5.59,7.55,1.89l-1.13-1.26.16.7.41.87c1.12.75,1.06,2.66-2.17,1.85s-6.16-4.66-3.66-8.4,7-3.55,9.14.44c3.14,5.89,2.84,16.64-7.23,22.79s4.48,6.84,13.08,4.91,14.71-6.76,16.08-14.11-5-9.64-8.51-11.31-7.36-6.24-3.83-10.93,13.24-5.12,19.48-3.14c11.1,3.53,12.39,14.76,3.27,13.59s-4.87-3.31-4.87-3.31l-1.45-.38,0,2.1,4.75,2.35Z"/><path class="cls-4" d="M15.16,70.13c-4.76-2.59-4.31-21.36,3.24-30.39s12.32-9,17-19.23S37.24,5.87,42.85,1.29s10,4.12,12.58,9.29c5,9.93,11.35,22.32,27,13.81,7.36-4,18.64-5.81,20,13.48S64.27,72.13,64.27,72.13Z"/><path class="cls-5" d="M15.16,70.13l.82,0a51.87,51.87,0,0,1,5.19-3.72c3.36-2.13,8.78-5.94,11,2.26.21.79.4,1.49.58,2.14l31.55,1.28s39.48-15,38.13-34.26c-1-13.68-6.92-16.75-12.93-16,11.77-.88,8.23,33-8.68,37.18-17.6,4.39-29.88-9.8-42.1-4.77S10.8,60.51,13.51,49.69C11.05,58.5,11.81,68.31,15.16,70.13Z"/><path class="cls-6" d="M102,86.83c-8.13,1.43-9.55-3-8.26-8.06s9.16-11.42,15-10.71,14.38,7.41,13,12.19C119.81,87.1,109.27,85.56,102,86.83Z"/><path class="cls-7" d="M9.69,91.67s-5.55-1.61-2.77-9.61,10.9-13.48,14.25-15.61,8.78-5.94,11,2.26,2.19,7.8,5.36,13.61-.24,17.85-6.61,15.18C22,93.76,9.69,91.67,9.69,91.67Z"/><path class="cls-8" d="M113.92,76c-5.42-1.51-8.94-1.29-15.35,3.53-6.08,4.56-4.58-1.34-4.41-2a8.06,8.06,0,0,0-.41,1.16c-1.29,5,.13,9.49,8.26,8.06,7.26-1.27,17.8.27,19.74-6.58.49-1.72-.32-3.7-1.82-5.56C121.76,78.12,119.34,77.54,113.92,76Z"/><path class="cls-9" d="M30.7,85.54c-2.24-4-4.83-.22-9.3-4.5S13.67,78,10.14,82c-3.15,3.61-3.49.75-2.61-1.51-.22.51-.43,1-.61,1.55-2.78,8,2.77,9.61,2.77,9.61S22,93.76,30.89,97.5c4.79,2,7.9-4.32,7.8-10C37.41,93.92,32.93,89.48,30.7,85.54Z"/><path class="cls-10" d="M108.52,77.09c-8.7,1.49-14.12,4.65-14.16,6.8s2.87,3,2.87,3c1.75,3.13,8.39,0,8.39,0a5.48,5.48,0,0,0,.89.3,11.16,11.16,0,0,1-4.5,9.47c-6.71,5.1-7.81,8.14-6.39,12.94s6.78,18.74-6.51,27-17.49,1-17.49,1,.58-7.94-6.06-11.87-7.87-10.2-4.71-12.58,7.74-2.57,15.48-3.58,15.84-5.32,17-11.19c1.54-7.75-5.58-14.07-11.51-17-3.08-1.54-3.88-3.33-3.94-4.7C95.6,76.38,95.3,61.37,95.3,61.37c7.91-4.3,4.39-13,4.39-13,5.09-5.09,2.33-13.77,2.33-13.77.66,2.89,0,12.48-9.47,20C81.93,63.12,66.4,63.27,58.31,61.8s-25.37-7-36.13-1.37-7,9.7-7,9.7a5.84,5.84,0,0,0,.15.6,51.34,51.34,0,0,1,5.86-4.28c3.36-2.13,8.78-5.94,11,2.26s2.19,7.8,5.36,13.61l0,.07a30.92,30.92,0,0,0,4.87-.29c6.73,5.69,19.94-1.37,21.72-2.37,1.5,2.34,4.73,5,11.69,6.59C89.88,89.48,95.43,98.66,86,103.69s-32.71-2.17-39.1,3c-4.45,3.62-2.83,9.55.78,12.65s5.68,6.45,4.13,9.68c0,0,2.19-6.07-8.65-8.91s-20.8.7-24.51-5.07c-3.54-5.49-1.87-11.2,4.29-17.87a11,11,0,0,0,1.56-.2c1.67,1.94,4.51.82,4.51.82a5.31,5.31,0,0,0,5.39-.34,4.13,4.13,0,0,0,2-3.19c.31-4.84-5.25-2.33-9.81-8.08-5-6.35-11.3-6.22-16.45-2.88C6.06,86,6.59,88.47,6.73,88.94a.73.73,0,0,0,0,.08c-1,2.45,3.26,3.36,3.26,3.36,1.51,3.1,6,2.37,6,2.37a6.86,6.86,0,0,0,1,.92c-4.79,6.38-5.88,16.59,1.27,20.87,7.74,4.65,16.1,2.81,23.45,8.62,6.45,5.08,5.29,15-1.42,19.87,0,0,5.35-10.88-.64-16s-11.87-1.17-20.13,5-18.19,3.87-19.22-5c-.9-7.83,5.67-16.85,11.22-11.62l1.29,2.73,1-.78a9.19,9.19,0,0,0-1.59-2.89c-1.29-1.71-7.89-4.25-11.32,6-3.26,9.81,2.84,16.3,11.53,15.66s12.5-8.37,19.74-8.9,9.42,7.18,4.82,15c0,0,1.76-7.14-3.1-9.59s-11.27,7.35-5.85,6.73l2.45,0-.12-.3a11.43,11.43,0,0,1-2.13-.15c-.83-.19-2.91-.13-1.19-3.07s6.71-4.48,8.39,0S33,149.63,33,149.63s-1.66-5.84-14.31-1.44c1.65-.53,10.48-3.08,13.31,3,0,0,5.84-6.45,4.16-.77,0,0,2.49-4.74,1.55-.87,0,0,5.23-3.26,3.81.06,0,0,31.42-9.06,21.35,1.58,0,0,4.94-4.2,4.35-1.62.46-1.07,1.88-3,6-2.25,5.55,1,14.65.45,22.59-11.42s1.67-21.16.25-27.35,4.39-7.74,10.84-11.48c4.23-2.46,4.82-7.06,4.64-10.21a20.13,20.13,0,0,0,3.62-1.47,6.52,6.52,0,0,0,5.45-3.19C122.85,78.78,117.4,75.58,108.52,77.09Z"/><path class="cls-11" d="M51.17,124.89c-1-1.69-3.28-3.53-8-4.77-10.84-2.84-20.8.7-24.51-5.07-3.54-5.49-1.87-11.2,4.29-17.87a11,11,0,0,0,1.56-.2c1.67,1.94,4.51.82,4.51.82a5.31,5.31,0,0,0,5.39-.34,4.13,4.13,0,0,0,2-3.19c.31-4.84-5.25-2.33-9.81-8.08-5-6.35-11.3-6.22-16.45-2.88C6.06,86,6.59,88.47,6.73,88.94a.73.73,0,0,0,0,.08c-1,2.45,3.26,3.36,3.26,3.36,1.51,3.1,6,2.37,6,2.37a6.86,6.86,0,0,0,1,.92A19.67,19.67,0,0,0,13.64,103c.07-.3.15-.61.23-.91-2.2,8.63,3.29,16.5,13.65,17A45.25,45.25,0,0,1,36,120.27C41,120.5,49.1,121.58,51.17,124.89Z"/><path class="cls-12" d="M99.36,99.61c5.61-3,10.23-4.87,11.65-7.83a6,6,0,0,1-.25.71,13.55,13.55,0,0,0,.79-5.67,20.13,20.13,0,0,0,3.62-1.47,6.52,6.52,0,0,0,5.45-3.19c2.23-3.38-3.22-6.58-12.1-5.07-8.7,1.49-14.12,4.65-14.16,6.8s2.87,3,2.87,3c1.75,3.13,8.39,0,8.39,0a5.48,5.48,0,0,0,.89.3,11.16,11.16,0,0,1-4.5,9.47c-5.28,4-7.07,6.75-6.91,10.07a6.31,6.31,0,0,1,0-.87A8.39,8.39,0,0,1,99.36,99.61Z"/><path class="cls-13" d="M15.16,70.13a5.84,5.84,0,0,0,.15.6,51.34,51.34,0,0,1,5.86-4.28c3.36-2.13,8.78-5.94,11,2.26s2.19,7.8,5.36,13.61l0,.07a30.92,30.92,0,0,0,4.87-.29c6.73,5.69,19.94-1.37,21.72-2.37,1.5,2.34,4.73,5,11.69,6.59C83.73,88.1,89,91.79,90.32,95.57c-.46-3.69-2.32-9-9.14-10-10.65-1.61,2.4-3.36,8.22,1.43a27.28,27.28,0,0,0-7.58-5.6c-3.08-1.54-3.88-3.33-3.94-4.7C95.6,76.38,95.3,61.37,95.3,61.37a9.21,9.21,0,0,0,5.14-7.7c-1.58-1.18-2.91-2.19-3.87-2.92a28.29,28.29,0,0,1-4,3.91C81.93,63.12,66.4,63.27,58.31,61.8c-6.26-1.13-18.05-4.74-28-3.67l-8.9,2.75C11.63,66.32,15.16,70.13,15.16,70.13Z"/><path class="cls-14" d="M48.59,140.12C50,144.51,66.52,132.05,61,121.76c-.26-.37-.51-.75-.73-1.13,1.73,9.87-8.13,18.86-10,17.88-2.13-1.1,1.55-9.48,1.55-9.48S47.17,135.74,48.59,140.12Z"/><path class="cls-15" d="M31.1,120.62c1,.22,2,.47,3,.76h.06c2.16.36,3.4-2.31.05-2.5l-2.46-.09C33.88,119.18,35.24,121.24,31.1,120.62Z"/><path class="cls-16" d="M13.53,109.86c0-2.4,1.28-5.41,5.88-8.19a30,30,0,0,1,2-2.7c-2.63,1.17-6.86,3.91-8.18,7A14,14,0,0,0,13.53,109.86Z"/><path class="cls-17" d="M15.26,113.76A10.22,10.22,0,0,0,18,116.32c-1.19-1.85-1.71-4.57-1-8.56l0-.22s0-.07,0-.11a13.85,13.85,0,0,1,1.32-3.83C14.89,105.83,13.74,110.79,15.26,113.76Z"/><path class="cls-18" d="M38.55,123.1l-.1,0a20.88,20.88,0,0,1,2.7,1.66l.12.07c3.65,2.12,2.15-4.37-3-5.56l-1.51-.17C38.93,119.45,44.38,125.19,38.55,123.1Z"/><path class="cls-19" d="M45.68,131.22a12.46,12.46,0,0,1,.29,4c1.24-5.46,3.62-12.7-1.76-14.8l-1-.3c-.58-.15-1.16-.28-1.73-.39C45.57,121,45.68,131.22,45.68,131.22Z"/><path class="cls-20" d="M87,89.34c.39-4.29-4-7.37-4.07-7.41-.37-.21-.73-.4-1.09-.58s-.72-.38-1-.57c6,4.13,7,10,2.71,8.24a21.34,21.34,0,0,1,2.75,1.67A1.56,1.56,0,0,0,87,89.34Z"/><path class="cls-21" d="M90,88.9c2.18,4.19-.87,4-2.61,2.71,2.72,2.38,3.85,5.1,3,7.6,1.72-3.66,2.55-7.74-.09-11.2-.25-.32-.52-.63-.79-.93L89.4,87a26,26,0,0,0-5.49-4.43A17.59,17.59,0,0,1,90,88.9Z"/><path class="cls-22" d="M91,141.7c.66-.62,1.32-1.3,2-2,1.79-3-3-3.54-4.72-2.54l-.29.17-.5.27C89.66,136.82,92.88,139.53,91,141.7Z"/><path class="cls-23" d="M52.91,142.38c-8.25,2.68-8.55-.78-8-3.07a13.4,13.4,0,0,1-1.79,3l0,.09c-1.91,3.81,7.19,4.32,15.38-1.87S70.2,129.68,66.4,126.3c-.27-.19-.54-.39-.84-.56a16.56,16.56,0,0,1-1.6-1.09C65.43,126.77,64.66,138.56,52.91,142.38Z"/><path class="cls-24" d="M59.2,117.15a5,5,0,0,1,.39-2.38c.87-4.19,1.82-11.94-10.65-9.14a7.09,7.09,0,0,0-2,1.07,7,7,0,0,0-2.65,4.73C46.08,105.8,53.94,106.05,59.2,117.15Z"/><path class="cls-25" d="M93.94,138.44c.63-.8,1.26-1.65,1.88-2.58.2-.31.4-.62.59-.93.82-2.61-2.17-2.25-3.77-1.08a18.87,18.87,0,0,1-1.77,1.5l.06,0C93.48,134,95.45,136.41,93.94,138.44Z"/><path class="cls-26" d="M98.24,131.34a21,21,0,0,0,1.12-3.71,2.61,2.61,0,0,0-1.88-2.41c-.1.44-.2.88-.33,1.32C98.34,126.85,99.24,128,98.24,131.34Z"/><path class="cls-27" d="M77.88,147.61a18.83,18.83,0,0,0,7.05-1.75c5.71-3.1.73-7.07-2.83-6a7.37,7.37,0,0,1-1,.25,14.45,14.45,0,0,1-1.67.3C85,139.74,86,147.22,77.88,147.61Z"/><path class="cls-28" d="M67.26,110.78c.84-.15,1.72-.28,2.69-.41s16.65-5,8.85-4.92c-1.4.1-2.83.14-4.3.13C77.71,105.83,75.57,108.28,67.26,110.78Z"/><path class="cls-29" d="M60.85,113.16a7.66,7.66,0,0,1,1-.63c1.74-1.57,15.3-6,4.58-7.32-3-.2-6-.41-8.78-.47C64.3,105.09,67.47,107.69,60.85,113.16Z"/><path class="cls-30" d="M83.23,104.74c2-.32-.82,3.2-10.53,5.29l3.63-.45c.65-.08,1.3-.2,2-.33A17.72,17.72,0,0,0,88.49,102,12.52,12.52,0,0,1,86,103.69,12.35,12.35,0,0,1,83.23,104.74Z"/><g class="cls-31"><path class="cls-32" d="M61.05,121.77l-.31-.45c-.13-.18-.24-.36-.35-.54a1.19,1.19,0,0,0-.09-.15c1.73,9.87-8.13,18.86-10,17.88a1.26,1.26,0,0,1-.59-1c-.72-1.15.08-4.13.86-6.37-1.21,2.25-2.74,5.86-2,8.66,2,3.28,16.15-7.5,12.92-17.19a8.53,8.53,0,0,0-.41-.87Z"/><path class="cls-33" d="M31.78,118.8c2.1.38,3.46,2.44-.68,1.82.48.1,1,.22,1.49.35.35.08.67.17,1,.26,1.42-.25,2-1.85.2-2.36l-2-.07Z"/><path class="cls-34" d="M13.22,106v.2c.89-1.87,2.79-3.81,6.5-5.32.34-.38.7-.75,1.07-1.12.19-.25.4-.5.61-.75C18.77,100.14,14.54,102.88,13.22,106Z"/><path class="cls-35" d="M18.31,103.6c-3.42,2.23-4.57,7.19-3,10.16l.29.36c.09.12.18.24.28.35l.28.29c-.67-2.06-.52-4.78,1-8.42a1.67,1.67,0,0,0,.08-.2s0-.07.05-.1.1-.19.14-.29a14.47,14.47,0,0,1,.9-2.15Z"/><path class="cls-36" d="M36.85,119.07c2.19.49,7.47,6.1,1.7,4l-.1,0c.46.23.91.49,1.36.76s.89.57,1.33.89c2.14.53,1.2-3.47-2.1-5.26-.24-.08-.47-.16-.72-.22C37.83,119.17,37.34,119.11,36.85,119.07Z"/><path class="cls-37" d="M41.44,119.73c4.13,1.23,4.24,11.49,4.24,11.49,0,.16.06.34.1.52,1.06-4.57,1.82-9.46-1.89-11.41l-.72-.21C42.59,120,42,119.84,41.44,119.73Z"/><path class="cls-38" d="M80.92,80.85l.26.21c5.62,4.11,6.5,9.67,2.32,8,.47.25,1,.51,1.4.79l.09,0,.58.36a1.69,1.69,0,0,0,.59-1.29c.3-3.37-2.2-6-3.42-7.09l-.92-.49A9.32,9.32,0,0,1,80.92,80.85Z"/><path class="cls-39" d="M86.65,84.43c-.42-.33-.85-.66-1.29-1l.55.51A16.27,16.27,0,0,1,90,88.9c2.18,4.19-.87,4-2.61,2.71a11.81,11.81,0,0,1,1.73,1.84,8,8,0,0,1,1.1,1.9.58.58,0,0,0,0,.11c.87-2.89.87-5.88-1.13-8.51l-.8-.93a.74.74,0,0,1-.12-.13c-.28-.3-.59-.59-.89-.88l-.42-.36Z"/><path class="cls-40" d="M91.81,140.85c.37-.38.74-.77,1.11-1.19,1.79-3-3-3.54-4.72-2.54l-.1.06C90.15,136.65,92.87,138.85,91.81,140.85Z"/><path class="cls-41" d="M65.56,125.74c-.32-.2-.63-.4-.92-.6l-.59-.42a1.09,1.09,0,0,1,0,.17c1.27,2.58.21,13.79-11.19,17.49-5.85,1.9-7.7.71-8.08-1a2.84,2.84,0,0,1-.3-1.32c-.13.24-.26.48-.4.72a.35.35,0,0,1-.05.08,12.76,12.76,0,0,1-1,1.39l0,.09a2.09,2.09,0,0,0-.24,1.11c1.37,2.06,8.69,1.5,15.41-3.58,6.52-4.93,10.11-8.91,9.34-12a4.73,4.73,0,0,0-1.19-1.58C66.13,126.11,65.86,125.91,65.56,125.74Z"/><path class="cls-42" d="M59.37,115.41a2.58,2.58,0,0,1,.08-.26c0-.12.08-.24.13-.36s0-.13,0-.2c.86-4.21,1.63-11.72-10.68-9a7,7,0,0,0-1,.43l-.17.08a6.7,6.7,0,0,0-.86.56,8.38,8.38,0,0,0-.68.64,1.8,1.8,0,0,0-.19.2c-.14.16-.28.32-.41.49l-.16.21a5,5,0,0,0-.43.69.61.61,0,0,0-.07.14,6.28,6.28,0,0,0-.27.59s0,0,0,0a5.94,5.94,0,0,0-.17.92c1.8-5.55,9.48-5.37,14.74,5.33,0-.07,0-.13,0-.2A3.59,3.59,0,0,1,59.37,115.41Z"/><path class="cls-43" d="M94.9,137.17c.31-.43.62-.86.92-1.31s.4-.62.59-.93c.82-2.61-2.17-2.25-3.77-1.08-.27.26-.54.5-.83.74C94,133.7,95.58,135.41,94.9,137.17Z"/><path class="cls-44" d="M99,129c.13-.46.25-.92.34-1.37a2.61,2.61,0,0,0-1.88-2.41c-.06.27-.13.54-.2.81C98.39,126.31,99.24,127.11,99,129Z"/><path class="cls-45" d="M83.07,146.61l.9-.33.06,0,.9-.39c5.71-3.1.73-7.07-2.83-6h0C85.44,140.29,86.35,144.54,83.07,146.61Z"/><path class="cls-46" d="M78.8,105.45c-.75,0-1.46.09-2.2.11,1.83.61-.59,2.77-7.85,5l1.2-.17C71,110.23,86.59,105.42,78.8,105.45Z"/><path class="cls-47" d="M66.4,105.21l-1.24-.08c-1.45-.1-2.88-.19-4.28-.26,4.41.78,6.08,3,1.89,7C66.23,110,76,106.36,66.4,105.21Z"/><path class="cls-48" d="M88.49,102l-.5.41a.39.39,0,0,1-.1.08c-.15.12-.3.24-.46.35l-.28.19-.38.25c-.24.15-.49.29-.76.43s-.45.22-.68.33c.23.61-2.13,3.07-8.1,5.41l1.06-.18A17.72,17.72,0,0,0,88.49,102Z"/></g><g class="cls-49"><path class="cls-50" d="M50.05,137.91a1,1,0,0,1-.37-.38,1.26,1.26,0,0,0,.59,1c1.9,1,11.76-8,10-17.88l-.18-.36C61.65,130,51.94,138.88,50.05,137.91Z"/><path class="cls-51" d="M31.1,120.62c4.14.62,2.78-1.44.68-1.82l-.85,0c1.57.52,2.37,1.88-.1,1.79l.24,0Z"/><path class="cls-52" d="M21.4,99l.31-.38c-2.51.75-6.16,2.4-8.12,4.67a18,18,0,0,0-.37,2.7C14.54,102.88,18.77,100.14,21.4,99Z"/><path class="cls-53" d="M15.26,113.76c-1.52-3-.37-7.93,3-10.16.12-.21.22-.42.34-.62-3.26,1.63-5.15,5.6-4.56,8.59a10.35,10.35,0,0,0,1.48,2.55Z"/><path class="cls-54" d="M38.55,123.1c5.77,2.07.49-3.54-1.68-4,2.33,1.37,5.55,5.22,1,3.68l.6.3Z"/><path class="cls-55" d="M45.68,131.22s-.11-10.26-4.24-11.49l-.18,0c2.28,1.45,3.08,6,3.35,8.81a11.22,11.22,0,0,1,1.06,2.71Z"/><path class="cls-56" d="M83.5,89c4.18,1.71,3.3-3.85-2.32-8,4.89,4.14,5.47,9.22,1.5,7.54,0,0,0,0,.06.05.25.11.49.24.73.36Z"/><path class="cls-57" d="M87.4,91.61c1.74,1.3,4.79,1.48,2.61-2.71A16.27,16.27,0,0,0,85.91,84a15.44,15.44,0,0,1,2.93,3.86c2.14,4.11-.74,4-2.5,2.79l.52.53.54.45Z"/><path class="cls-58" d="M89,136.64c-.3.19-.61.36-.91.54l.11-.06c1.68-1,6.51-.48,4.72,2.54l.79-.93C94.52,136.37,90.74,135.89,89,136.64Z"/><path class="cls-59" d="M52.91,142.38c11.4-3.7,12.46-14.91,11.19-17.49.88,3.39-.75,13.42-11.4,16.88-5.12,1.67-7.18,1-7.87-.35C45.21,143.09,47.06,144.28,52.91,142.38Z"/><path class="cls-60" d="M48.94,105.63c12.31-2.76,11.54,4.75,10.68,9a4,4,0,0,1,.22-.61c.62-3,1.27-7.74-2.86-9.26A24.17,24.17,0,0,0,48.94,105.63Z"/><path class="cls-61" d="M93.26,133.24c-.2.21-.42.42-.63.62,1.61-1.18,4.6-1.54,3.78,1.07.25-.42.5-.83.72-1.24C97.27,131.8,94.71,132.19,93.26,133.24Z"/><path class="cls-62" d="M97.6,124.63l-.12.59a2.61,2.61,0,0,1,1.88,2.41c-.09.45-.21.91-.34,1.37,0,0,0,.09,0,.13a20.08,20.08,0,0,0,.61-3A2.87,2.87,0,0,0,97.6,124.63Z"/><path class="cls-63" d="M84.21,139.12a21.27,21.27,0,0,1-2.17.77h.06c3.56-1.09,8.54,2.88,2.83,6a20.67,20.67,0,0,0,3.54-2.1C89.94,141.2,86.93,138.81,84.21,139.12Z"/><path class="cls-64" d="M78.8,105.45c7.79,0-7.77,4.78-8.85,4.92l.55-.07.72-.1c1-.14,16.15-4.8,9.17-4.91-.53.06-1.08.12-1.64.16Z"/><path class="cls-65" d="M66.4,105.21c9.55,1.15-.17,4.82-3.63,6.7l-.27.26a9.49,9.49,0,0,1,1-.44c3.23-1.75,11.6-5,5.45-6.36l-2.57-.16Z"/><path class="cls-66" d="M88.48,102a17.63,17.63,0,0,1-10.19,7.27l-1.06.18,0,0a30.2,30.2,0,0,0,4.37-1,17.89,17.89,0,0,0,8-7.66A7.44,7.44,0,0,1,88.48,102Z"/></g><path class="cls-67" d="M61.82,71.93S53.75,63.8,39.3,67.35c0,0,13.29-4.64,22.52,2.71a10.27,10.27,0,0,0-8.07-7.61A11.67,11.67,0,0,1,62.5,68C66,73.42,71,69.37,74.12,65.42s14.66-7.36,20-4.46c0,0-6.58-2.62-14.65,2.72,0,0,7.82-4.24,12.51,3,0,0-7-9.48-14.77,2.52,0,0,8.25-4.39,9.77,1.55a4.17,4.17,0,0,0-4.39-2.33c-3.1.52-5.38,4.57-4.73,8.27C95.6,76.38,95.3,61.37,95.3,61.37c7.91-4.3,4.39-13,4.39-13,5.09-5.09,2.33-13.77,2.33-13.77.66,2.89,0,12.48-9.47,20C81.93,63.12,66.4,63.27,58.31,61.8s-25.37-7-36.13-1.37-7,9.7-7,9.7a5.84,5.84,0,0,0,.15.6,51.34,51.34,0,0,1,5.86-4.28c3.36-2.13,8.78-5.94,11,2.26.39,1.47.72,2.65,1,3.65C38.73,68.64,49.12,64.43,61.82,71.93Z"/><path class="cls-67" d="M42.4,82.1c6.73,5.69,19.94-1.37,21.72-2.37C57.75,70.58,42.4,82.1,42.4,82.1Z"/><path class="cls-67" d="M62.5,75.74S49.21,64.37,33.32,73c1.16,4,1.71,4.79,4.18,9.33l0,.07a30.92,30.92,0,0,0,4.87-.29S54.92,70.9,62.5,75.74Z"/><path class="cls-67" d="M16.3,94.09s.87-1.15,1.87-.43c0,0,.36-3.5-6.61-1.76,0,0,4.46-1.94,6.62,0,0,0,.41-4.36-8.55-3.2,0,0,6.17-1.87,8.55,1.17,0,0,.25-5.71-2.91-6.46,0,0,3.1,0,3.81,5.75a5.38,5.38,0,0,0,2.09-5.75s1.55,2.71-.42,4.84-.45,4.84,4.84,2.87,5.55,3.68,5.55,3.68-.71-4.93-6-3.06c0,0,4.29.45,4.07,4.22,0,0-.12-3.3-3.18-2.95,0,0,1.26,1.21-.76,3A3.3,3.3,0,0,0,26,93.85c-.21-1-1.84,1.82-3,3.33a11,11,0,0,0,1.56-.2c1.67,1.94,4.51.82,4.51.82a5.31,5.31,0,0,0,5.39-.34,4.13,4.13,0,0,0,2-3.19c.31-4.84-5.25-2.33-9.81-8.08-5-6.35-11.3-6.22-16.45-2.88C6.06,86,6.59,88.47,6.73,88.94a.73.73,0,0,0,0,.08c-1,2.45,3.26,3.36,3.26,3.36,1.51,3.1,6,2.37,6,2.37a6.86,6.86,0,0,0,1,.92C19.46,92.41,16.3,94.09,16.3,94.09Z"/><path class="cls-67" d="M108.52,77.09c-8.7,1.49-14.12,4.65-14.16,6.8s2.87,3,2.87,3c1.75,3.13,8.39,0,8.39,0a5.48,5.48,0,0,0,.89.3c0-6.27-1.05-1.63-1.05-1.63s0-2.42,1.05-1.9c0,0-3.28-3.32-8.31,2.65,0,0,3.71-6.83,7.74-3.77,0,0-.8-2.68-5.93-1.46,0,0,4.58-1.9,6.19.58,0,0-.52-1.58-3.25-2a5.79,5.79,0,0,1,3.56,1.37c1.52,1.39,3.37,1.13,6-2s5.65.24,5.65.24a3.88,3.88,0,0,0-4.45-.84s4.56-1.09,5.29,4.3c0,0-1.29-6.19-5.85-2.66,0,0,4.32-1.49,2.65,4.3,0,0,1.33-6.13-3.32-3.14,0,0,2.5-.3,2.58,3.5,0,0-.23-3.16-2.45-3s-1,2.35-1.1,5a20.13,20.13,0,0,0,3.62-1.47,6.52,6.52,0,0,0,5.45-3.19C122.85,78.78,117.4,75.58,108.52,77.09Z"/><path class="cls-68" d="M68,36.06c9,3,9.35-9.62,17.24-13a24.66,24.66,0,0,0-2.79,1.32c-15.62,8.51-22-3.88-27-13.81C54.62,9,53.64,7,52.5,5.22,60,18.77,58.66,32.9,68,36.06Z"/><path class="cls-69" d="M42.85,1.29c-5.61,4.58-2.71,9-7.42,19.22S26,30.71,18.4,39.74a26.8,26.8,0,0,0-4.89,9.95c-2.46,9.84,10.28,9.77,21.79,5.89-8.8,2.19-12.7-11.71.39-17.78,13.93-6.45,4.39-14.32,3-23.87S52,1.42,56.74,15.26a57.89,57.89,0,0,0-4.24-10C50,1.27,46.71-1.86,42.85,1.29Z"/><path class="cls-70" d="M108.72,68.06c-5.37-.66-12.49,4.75-14.56,9.55-.17.63-1.67,6.52,4.41,2a29.27,29.27,0,0,1,4.68-3l-.09,0c-6.51,3.15-1.15-11.72,9-7.6A13,13,0,0,0,108.72,68.06Z"/><path class="cls-71" d="M6.92,82.06c.15-.46.35-.9.54-1.34a1.72,1.72,0,0,0,.07-.21C7.31,81,7.1,81.53,6.92,82.06Z"/><path class="cls-72" d="M21.17,66.45l-.59.38-.21.14-.48.31-.27.19-.63.42-.35.25-.56.4-.37.28-.51.38-.38.3c-.28.21-.56.44-.84.67A29.46,29.46,0,0,0,7.46,80.72c-.78,2.22-.37,4.8,2.68,1.3,3.53-4,6.8-5.25,11.26-1-3.63-3.51-2.33-7.83.48-10.63,3.38-3.37,8.94-4.57,10.84.44-.18-.65-.37-1.35-.58-2.14C30,60.51,24.53,64.32,21.17,66.45Z"/><path class="cls-73" d="M33.54,93.29c-1.29-.62-1.94.1-2.49.81.07.42.09.7.09.7a5.42,5.42,0,0,0-.15-.62c-.51.67-1,1.3-1.8.84a4.73,4.73,0,0,1,0,.94,4.43,4.43,0,0,0-.19-1c-1.37-.59-2.87,1-3.53.85L25.3,96a2.65,2.65,0,0,0,.16-.24c-.14-.07-.23-.24-.27-.57a.76.76,0,0,0-.39-.61c-.57.77-1.26,1.83-1.85,2.57a11,11,0,0,0,1.56-.2c1.67,1.94,4.51.82,4.51.82a5.31,5.31,0,0,0,5.39-.34,4.13,4.13,0,0,0,2-3.19c.14-2.24-1-2.9-2.67-3.54C36.22,91.71,36.07,94.48,33.54,93.29Z"/><path class="cls-74" d="M6.73,88.94a.73.73,0,0,0,0,.08c-1,2.45,3.26,3.36,3.26,3.36,1.51,3.1,6,2.37,6,2.37a6.86,6.86,0,0,0,1,.92,6.11,6.11,0,0,0,.85-1.41,1.74,1.74,0,0,1-.75-.51,5.29,5.29,0,0,0-.83.34,2.16,2.16,0,0,1,.69-.54,3.33,3.33,0,0,1-.16-1.81c-.94-.4-2.54-.52-5.27.16,0,0,3-1.29,5.24-.71-.08-.24-.27-.38-.72-.33-1.53.17-2.78-1.24-2-2.25a18,18,0,0,0-4.4.09,14.82,14.82,0,0,1,4.88-.52l.09-.06c1.46-.79-4.39-3.56-2.66-5.82a17.86,17.86,0,0,0-1.8,1C6.06,86,6.59,88.47,6.73,88.94Z"/><path class="cls-75" d="M31.77,58a23.5,23.5,0,0,0-9.59,2.42c-10.75,5.67-7,9.7-7,9.7a5.84,5.84,0,0,0,.15.6,51.34,51.34,0,0,1,5.86-4.28c2-1.25,4.66-3.08,7-2.71C27.54,61.36,28.38,59,31.77,58Z"/><path class="cls-76" d="M95.3,61.37c7.91-4.3,4.39-13,4.39-13,5.09-5.09,2.33-13.77,2.33-13.77.66,2.89,0,12.48-9.47,20a31.36,31.36,0,0,1-7.09,4.21,24.73,24.73,0,0,0,5.37-2.4c4.86-3,4.13,1.63,2.12,4a7.45,7.45,0,0,1,1.19.5,9.52,9.52,0,0,0-1.32-.35,2.89,2.89,0,0,1-2,1.11c-1.37,0-1.3,1.12-1.07,2.39A10,10,0,0,1,92,66.64a10.68,10.68,0,0,0-2.22-2.1c.29,1.54.59,3.08-1.29,2.77-1.19-.2-1.81.56-2.4,1.57A4.37,4.37,0,0,1,87,70.71a4.68,4.68,0,0,0-1.13-1.44c-1.12,2-2.35,4.63-7.42,2.86a8,8,0,0,0-.57,4.52C95.6,76.38,95.3,61.37,95.3,61.37Z"/><path class="cls-77" d="M49.71,78A39,39,0,0,0,42.4,82.1c6.73,5.69,19.94-1.37,21.72-2.37a7.91,7.91,0,0,0-2.72-2.5,35.78,35.78,0,0,1-5.84,3.28C52,81.71,53.4,79.05,49.71,78Z"/><path class="cls-78" d="M44.26,77.56c-7.59.44-5-4.58-5.33-6.86A26.85,26.85,0,0,0,33.32,73c1.16,4,1.71,4.79,4.18,9.33l0,.07a30.92,30.92,0,0,0,4.87-.29,42.22,42.22,0,0,1,6.16-4.4A19.37,19.37,0,0,0,44.26,77.56Z"/><path class="cls-79" d="M105.66,84.83c-.12.37-.2.71-.2.71a4.76,4.76,0,0,1,.05-.62c-2.47,1.64-3.65-.49-4.9-.92a13.47,13.47,0,0,0-2.41,2.29A14,14,0,0,1,99.85,84c-1.62.54-4.6-1.73-.57-4.25-3.13,1.38-4.9,2.93-4.92,4.16,0,2.15,2.87,3,2.87,3,1.75,3.13,8.39,0,8.39,0a5.48,5.48,0,0,0,.89.3,18.17,18.17,0,0,0-.12-2.74,3.72,3.72,0,0,0-.73.4Z"/><path class="cls-80" d="M116.48,77.07a5.52,5.52,0,0,1,3.27,2.65c.53,1-.38.86-1.35.94a6.67,6.67,0,0,1,.64,2.15,8,8,0,0,0-.85-2.13,1.55,1.55,0,0,0-1.47,1.12c-.13.44-.31.64-.51.71a9.78,9.78,0,0,1-.37,1.94,9.1,9.1,0,0,0,.17-1.91c-.53,0-1.15-.58-1.54-.22a4.56,4.56,0,0,1,.63,2.49,4.81,4.81,0,0,0-.79-2.24,3,3,0,0,0-.17.9c-.1,1.35-1.25,1.29-2.75,1a16.32,16.32,0,0,1,.16,2.31,20.13,20.13,0,0,0,3.62-1.47,6.52,6.52,0,0,0,5.45-3.19C122.06,80,120.29,77.88,116.48,77.07Z"/><path class="cls-81" d="M38.69,54.32c12.22-5,24.5,9.16,42.1,4.77,7.15-1.78,11.9-8.86,14.12-16.37-4.84,13.78-23.58,18.43-33,14.44C51.57,52.77,47.11,46.58,39,51.61s-20.77,7.93-24.45,4C18.32,59.7,29.49,58.11,38.69,54.32Z"/><path class="cls-82" d="M113.3,75.33c-3.57-2-8-1.36-11.74,1.93-3.48,3.1-7.39,4.27-7.67,1.95-.11,1.65.45,3.53,4.68.36,6.41-4.82,9.93-5,15.35-3.53,4.63,1.28,7.06,1.89,6.53-.1C120.79,77.45,116.84,77.27,113.3,75.33Z"/><path class="cls-83" d="M31.27,85.8c-1.9-4.29-3.1-2.18-6.1-3.13s-5-4.54-7.42-6.12S11.88,80,10,81.61s-3,1.84-2.9.45c-.18,1.67.57,2.75,3,0,3.53-4,6.8-5.25,11.26-1s7.06.55,9.3,4.5,6.71,8.38,8,1.91C37.75,90.87,33.17,90.09,31.27,85.8Z"/><path class="cls-84" d="M43.82,1C37.92,4.58,37.41,14.32,39,23.61S28.12,28.69,20.29,39.52s-1.12,22,18.93,9.72S59.17,20.71,55,11.1,47.17-1,43.82,1Z"/><path class="cls-85" d="M94.53,78.87c-.32-1.47,4.87-9.58,12.35-10.65S95.69,84.19,94.53,78.87Z"/><path class="cls-86" d="M26.14,64.37c-7.74,3.11-15.27,10-15.74,12.86s8.43-.16,14.41-1.84S32.89,61.66,26.14,64.37Z"/><g class="cls-87"><path class="cls-88" d="M66.3,50.83C67.66,51.28,67,56.1,65,55S64.94,50.38,66.3,50.83Z"/><path class="cls-88" d="M69,52.17c1-.51,1-1.38,0-1.38S68.34,52.47,69,52.17Z"/><path class="cls-88" d="M78.53,52.27c-.33-1.15,3.08-1.42,3.2-.3S78.86,53.43,78.53,52.27Z"/><path class="cls-88" d="M33.38,84.13c-.33-1.15,3.08-1.42,3.2-.3S33.71,85.29,33.38,84.13Z"/><path class="cls-88" d="M83.2,28c.85-.07.87-.77.29-.83S82.67,28.08,83.2,28Z"/><path class="cls-88" d="M25.55,67.89c-.83-.38.21-1.88,1.25-1.19S26.39,68.26,25.55,67.89Z"/><path class="cls-88" d="M27.41,74.17c1.16-.3,1.24-2.44-.25-2S26.26,74.47,27.41,74.17Z"/><path class="cls-88" d="M23.71,76.76c-.52-.81.2-1.17.65-.53S23.71,76.76,23.71,76.76Z"/><path class="cls-88" d="M108.55,73.43c-1.62-.28-.63-2.48,1-2.13S110.17,73.72,108.55,73.43Z"/><path class="cls-88" d="M110.17,69c.46-.37.92.75.26,1.09S109.71,69.39,110.17,69Z"/><path class="cls-88" d="M113.17,73a.74.74,0,0,0-.75-1.25C111.79,72,112.42,73.63,113.17,73Z"/><path class="cls-88" d="M45.38,32.94c-1.62-.29-.64-2.49,1-2.14S47,33.23,45.38,32.94Z"/><path class="cls-88" d="M47,28.52c.46-.38.92.75.25,1.08S46.53,28.89,47,28.52Z"/><path class="cls-88" d="M50,32.46a.74.74,0,0,0-.75-1.26C48.61,31.49,49.25,33.13,50,32.46Z"/><path class="cls-88" d="M49.91,39.35c-1.22-1.09.87-3,2.25-2.25S51,40.33,49.91,39.35Z"/><path class="cls-88" d="M48.41,13.24c-1.11-.52-.54-1.92.39-1.33S48.9,13.48,48.41,13.24Z"/><path class="cls-88" d="M85.57,38.85c1.13-1.52,3.29,1.61,1.67,2.51S84.71,40,85.57,38.85Z"/><path class="cls-88" d="M88.44,31.9c.94-.51,1.46.56.54,1S87.5,32.41,88.44,31.9Z"/><path class="cls-88" d="M83.07,55.66c.47.2,1.41,1.84-1,.92S80.6,54.62,83.07,55.66Z"/></g><path class="cls-89" d="M21.62,39.76c.43-1.92,4-2.44,5.72-.53S20.36,45.3,21.62,39.76Z"/><path class="cls-89" d="M20.55,41.59c.54-.36,2.38,3.4.86,4.1S19.6,42.21,20.55,41.59Z"/><path class="cls-89" d="M46,49.66c.06-.65,4.14.3,3.73,1.92S45.91,50.79,46,49.66Z"/><path class="cls-89" d="M20.39,46.06c1,.3.1,1.59-.33,1.31S19.82,45.88,20.39,46.06Z"/><path class="cls-89" d="M17,76.91c.68-.14.58.91.24.89S16.64,77,17,76.91Z"/><path class="cls-89" d="M98.36,74.34c-.1-.69,2.56-3.74,3-2S98.46,75,98.36,74.34Z"/><path class="cls-89" d="M97.13,75.46c-.27-.61,1.13-.94,1.82-.51S97.67,76.65,97.13,75.46Z"/><path class="cls-89" d="M14.91,78.17c-.63-.23.22-1.28,1.06-1.4S16.16,78.64,14.91,78.17Z"/><path class="cls-89" d="M45.84,2.65c1-.2.84,1.35.34,1.31S45.26,2.76,45.84,2.65Z"/><path class="cls-89" d="M42.72,4.51c-.93-.35.32-1.89,1.55-2.07S44.56,5.2,42.72,4.51Z"/><path class="cls-89" d="M24,67.2c1.21.49-5,4.69-6.3,3.6S22.81,66.7,24,67.2Z"/><path class="cls-90" d="M89.83,100.39c1-1.56,4.46-8-2.9-12.53S74.27,86.26,69.18,84a27.84,27.84,0,0,0,6.63,2.3C87.17,88.87,93,95.34,89.83,100.39Z"/><path class="cls-91" d="M99.36,99.61a8.39,8.39,0,0,0-4.26,6.23,10.9,10.9,0,0,0,.52,3.74,50.87,50.87,0,0,1,2,8.25c1,5.16.67,14.45-5.85,20.61-8.39,7.93-20.57,2.59-20.19-.83A14.24,14.24,0,0,0,68.35,128c6.17,7.88-8.67,6.3-10.73-2.59s-17.54-8.62-12-17.42c-2.76,3.61-1.14,8.58,2.06,11.32,3.61,3.1,5.68,6.45,4.13,9.68-.49,2.7-1,13.28-1.46,3.93s-12.43-13.41-22.84-13.88-15.85-8.34-13.65-17c-1.54,5.48-.6,11.42,4.43,14.43,7.74,4.65,16.1,2.81,23.45,8.62,6.45,5.08,5.29,15-1.42,19.87,4.52-21.32-9.67-18.78-17.48-12.13-7.24,6.16-14.21,5.09-15.18,4.91a14.12,14.12,0,0,0,4.75.42c8.69-.65,12.5-8.37,19.74-8.9s9.42,7.18,4.82,15c0,0,1.76-7.14-3.1-9.59s-11.27,7.35-5.85,6.73l2.45,0-.12-.3a11.43,11.43,0,0,1-2.13-.15c-.83-.19-2.91-.13-1.19-3.07s6.71-4.48,8.39,0S33,149.63,33,149.63s-1.66-5.84-14.31-1.44c1.65-.53,10.48-3.08,13.31,3,0,0,5.84-6.45,4.16-.77,0,0,2.49-4.74,1.55-.87,0,0,5.23-3.26,3.81.06,0,0,31.42-9.06,21.35,1.58,0,0,4.94-4.2,4.35-1.62.46-1.07,1.88-3,6-2.25,5.55,1,14.65.45,22.59-11.42s1.67-21.16.25-27.35,4.39-7.74,10.84-11.48a8.89,8.89,0,0,0,4.1-5.25C109.59,94.74,105,96.56,99.36,99.61Z"/><path class="cls-92" d="M73.11,145.86c-3.23-2.39-5.85,2.2-5.85,2.2.16-2.58-1.58-.45-1.58-.45s2.78-4.39-2.9-4.46-20,5.1-20,5.1c2.23-3.87-4.14.26-4.14.26,1.33-4.58-1.82-.52-1.82-.52,1.25-3.87-2.15-.29-2.15-.29s2.84-7.32.35-10.53a7,7,0,0,1,.36.78C37.11,142.4,33,149.63,33,149.63s-1.66-5.84-14.31-1.44c1.65-.53,10.48-3.08,13.31,3,0,0,5.84-6.45,4.16-.77,0,0,2.49-4.74,1.55-.87,0,0,5.23-3.26,3.81.06,0,0,31.42-9.06,21.35,1.58,0,0,4.94-4.2,4.35-1.62.46-1.07,1.88-3,6-2.25a19.33,19.33,0,0,0,8.79-.34C81.81,147,76.27,148.21,73.11,145.86Z"/><path class="cls-93" d="M50.65,117.84c-7-4.47,4.83-13.23,21.08-11.68,16.59,1.58,18.66-6.94,18.67-7-.57,1.65-2,3.2-4.39,4.48-9.42,5-32.71-2.17-39.1,3A8.4,8.4,0,0,0,45.63,108C42.36,113.21,46.37,115.23,50.65,117.84Z"/><path class="cls-94" d="M113.49,120.85c-1.8-1-.47-3.87-3.4-5.72s-7.61.56-6,3.66,7,2.8,9.42,3a4.64,4.64,0,0,1-1.68-.48C111,120.85,113.49,120.85,113.49,120.85Z"/><path class="cls-95" d="M78.4,124.85s-.25-.49-.94-2.21-3.53-1.94-4-.32,1.62,2.5,3,2.5a2.62,2.62,0,0,1,1.48.34S77.32,124.1,78.4,124.85Z"/><path class="cls-96" d="M12.21,116.54a5.67,5.67,0,0,0,2.87,2.16A4.53,4.53,0,0,1,18.17,124c-.58,2.49-5.22,3.26-6.61.71s1.16-5.22,0-7.19C11.56,117.48,13.4,119,12.21,116.54Z"/><path class="cls-97" d="M28,141.52a1.84,1.84,0,0,1,1.31.47c.71.56,2,.73,2.16-1.09s-1.6-1.83-2-1.14-.61,1.39-1.27,1.29C28.23,141.05,29,141.35,28,141.52Z"/><path class="cls-98" d="M104.07,118.79c1.59,3.1,7,2.8,9.42,3a4.64,4.64,0,0,1-1.68-.48c-.81-.43,1.68-.43,1.68-.43-1.16-.63-1-2.06-1.56-3.48.61,2.65-9.42-.18-6.46-2.3C104.08,115.82,103.26,117.21,104.07,118.79Z"/><path class="cls-99" d="M73.61,122a1.39,1.39,0,0,0-.2.36c-.57,1.75,1.62,2.5,3,2.5a2.62,2.62,0,0,1,1.48.34s-.52-1.06.56-.31c0,0-.25-.49-.94-2.21a.35.35,0,0,0,0-.08C77.81,123.91,72.88,123.33,73.61,122Z"/><path class="cls-100" d="M11.56,124.67c1.39,2.55,6,1.78,6.61-.71a4.23,4.23,0,0,0,0-1.87c.55,3-6-.11-6.33-3.29C11.83,120.54,10.46,122.65,11.56,124.67Z"/><path class="cls-101" d="M28.23,141.05s.73.3-.2.47a1.84,1.84,0,0,1,1.31.47c.71.56,2,.73,2.16-1.09,0-.08,0-.13,0-.2-.2,1.05-2.83.67-2.22-.53C29,140.7,28.76,141.13,28.23,141.05Z"/><path class="cls-102" d="M110.09,115.13a4.7,4.7,0,0,0-4.62-.06c-1.26.9-.17,1.93,1.45,2.61-2.14-1.16,2.94-3.54,4.66-1.06A4.4,4.4,0,0,0,110.09,115.13Z"/><path class="cls-103" d="M73.61,122c-.27.51.24.91,1,1.14-1.42-.63,1.86-1.6,2.63-.89C76.34,121,74.35,120.89,73.61,122Z"/><path class="cls-104" d="M15.08,118.7a5.67,5.67,0,0,1-2.87-2.16c1.19,2.49-.65.94-.65.94a2.36,2.36,0,0,1,.31,1.3,5.24,5.24,0,0,0,2.42,3.35c-2-2.24,1.07-3.57,3.13-1.7A5.49,5.49,0,0,0,15.08,118.7Z"/><path class="cls-105" d="M29.73,141.17c-.71-.38.94-1.93,1.5-1.4a1.09,1.09,0,0,0-1.73,0,4.23,4.23,0,0,0-.23.41C29,140.64,29.3,141,29.73,141.17Z"/></g></g></g></svg>