<svg xmlns="http://www.w3.org/2000/svg" xmlns:xlink="http://www.w3.org/1999/xlink" viewBox="0 0 556.43 651.7"><defs><linearGradient id="Áåçûìÿííûé_ãðàäèåíò_119" x1="294.9" y1="639.01" x2="294.9" y2="520.92" gradientUnits="userSpaceOnUse"><stop offset="0" stop-color="#fe775e"/><stop offset="1" stop-color="#ff986a"/></linearGradient><linearGradient id="Áåçûìÿííûé_ãðàäèåíò_75" x1="294.9" y1="632.61" x2="332.63" y2="632.61" gradientUnits="userSpaceOnUse"><stop offset="0.05" stop-color="#511a31"/><stop offset="0.98" stop-color="#6b1a29"/></linearGradient><linearGradient id="Áåçûìÿííûé_ãðàäèåíò_156" x1="263.69" y1="636.14" x2="309.49" y2="636.14" gradientUnits="userSpaceOnUse"><stop offset="0" stop-color="#bf4042"/><stop offset="1" stop-color="#fff"/></linearGradient><linearGradient id="linear-gradient" x1="358.71" y1="363.74" x2="175.21" y2="133.19" gradientUnits="userSpaceOnUse"><stop offset="0" stop-color="#ffa166"/><stop offset="0.49" stop-color="#ec615c"/><stop offset="0.61" stop-color="#ef6b5e"/><stop offset="0.83" stop-color="#f78762"/><stop offset="1" stop-color="#ffa166"/></linearGradient><linearGradient id="Áåçûìÿííûé_ãðàäèåíò_68" x1="167.3" y1="99.93" x2="194.6" y2="99.93" gradientUnits="userSpaceOnUse"><stop offset="0.05" stop-color="#bd5689"/><stop offset="0.23" stop-color="#c0608f"/><stop offset="0.56" stop-color="#c87c9f"/><stop offset="0.98" stop-color="#d5a8b9"/><stop offset="1" stop-color="#d6abba"/></linearGradient><linearGradient id="Áåçûìÿííûé_ãðàäèåíò_68-2" x1="239.69" y1="507.04" x2="286.01" y2="507.04" xlink:href="#Áåçûìÿííûé_ãðàäèåíò_68"/><linearGradient id="Áåçûìÿííûé_ãðàäèåíò_42" x1="151.97" y1="45.88" x2="278.28" y2="45.88" gradientUnits="userSpaceOnUse"><stop offset="0.02" stop-color="#752a29"/><stop offset="0.95" stop-color="#863131"/></linearGradient><linearGradient id="Áåçûìÿííûé_ãðàäèåíò_55" x1="331.65" y1="193.8" x2="331.65" y2="98.49" gradientUnits="userSpaceOnUse"><stop offset="0.05" stop-color="#d18da4"/><stop offset="0.14" stop-color="#d88b9a"/><stop offset="0.3" stop-color="#ea847e"/><stop offset="0.45" stop-color="#ff7c5e"/><stop offset="0.82" stop-color="#ff9668"/><stop offset="1" stop-color="#ffa46d"/></linearGradient><linearGradient id="Áåçûìÿííûé_ãðàäèåíò_52" x1="268.75" y1="123.99" x2="297.58" y2="123.99" gradientUnits="userSpaceOnUse"><stop offset="0.05" stop-color="#ff6f59"/><stop offset="0.16" stop-color="#ff7863"/><stop offset="0.35" stop-color="#ff907f"/><stop offset="0.61" stop-color="#ffb7ac"/><stop offset="0.9" stop-color="#ffece9"/><stop offset="1" stop-color="#fff"/></linearGradient><linearGradient id="Áåçûìÿííûé_ãðàäèåíò_55-2" x1="313.24" y1="58.88" x2="329.96" y2="103.05" xlink:href="#Áåçûìÿííûé_ãðàäèåíò_55"/><linearGradient id="Áåçûìÿííûé_ãðàäèåíò_42-2" x1="372.32" y1="360.38" x2="474.02" y2="360.38" xlink:href="#Áåçûìÿííûé_ãðàäèåíò_42"/><linearGradient id="Áåçûìÿííûé_ãðàäèåíò_75-2" x1="144.9" y1="622.06" x2="144.9" y2="518.28" gradientTransform="matrix(0.94, -0.02, 0.03, 1.08, 114.98, -18.82)" xlink:href="#Áåçûìÿííûé_ãðàäèåíò_75"/><linearGradient id="Áåçûìÿííûé_ãðàäèåíò_74" x1="328" y1="135.75" x2="328" y2="118.53" gradientUnits="userSpaceOnUse"><stop offset="0" stop-color="#d6abba"/><stop offset="0.02" stop-color="#d5a8b9"/><stop offset="0.44" stop-color="#c87c9f"/><stop offset="0.77" stop-color="#c0608f"/><stop offset="0.95" stop-color="#bd5689"/></linearGradient><linearGradient id="Áåçûìÿííûé_ãðàäèåíò_74-2" x1="359.44" y1="137.69" x2="359.44" y2="124.53" xlink:href="#Áåçûìÿííûé_ãðàäèåíò_74"/><radialGradient id="Áåçûìÿííûé_ãðàäèåíò_51" cx="341.58" cy="131.12" r="38.32" gradientTransform="translate(0 63.3) scale(1 0.63)" xlink:href="#Áåçûìÿííûé_ãðàäèåíò_52"/><radialGradient id="Áåçûìÿííûé_ãðàäèåíò_51-2" cx="-1285.73" cy="76.5" r="20.07" gradientTransform="translate(711.91 63.3) scale(0.45 0.63)" xlink:href="#Áåçûìÿííûé_ãðàäèåíò_52"/><linearGradient id="Áåçûìÿííûé_ãðàäèåíò_78" x1="331.65" y1="193.8" x2="331.65" y2="137.69" gradientUnits="userSpaceOnUse"><stop offset="0.05" stop-color="#b85677"/><stop offset="0.23" stop-color="#c1607f"/><stop offset="0.56" stop-color="#d87c95"/><stop offset="0.98" stop-color="#fda8b8"/><stop offset="1" stop-color="#ffabba"/></linearGradient><linearGradient id="Áåçûìÿííûé_ãðàäèåíò_41" x1="283.5" y1="133.7" x2="283.5" y2="115.75" gradientUnits="userSpaceOnUse"><stop offset="0" stop-color="#ffabba"/><stop offset="0.02" stop-color="#fda8b8"/><stop offset="0.44" stop-color="#d87c95"/><stop offset="0.77" stop-color="#c1607f"/><stop offset="0.95" stop-color="#b85677"/></linearGradient><linearGradient id="Áåçûìÿííûé_ãðàäèåíò_41-2" x1="328.9" y1="158.29" x2="328.9" y2="146.81" xlink:href="#Áåçûìÿííûé_ãðàäèåíò_41"/><linearGradient id="Áåçûìÿííûé_ãðàäèåíò_41-3" x1="337.03" y1="159.68" x2="337.03" y2="147.72" xlink:href="#Áåçûìÿííûé_ãðàäèåíò_41"/><linearGradient id="Áåçûìÿííûé_ãðàäèåíò_78-2" x1="132.82" y1="110.85" x2="136.11" y2="110.85" xlink:href="#Áåçûìÿííûé_ãðàäèåíò_78"/><linearGradient id="Áåçûìÿííûé_ãðàäèåíò_68-3" x1="151.97" y1="65.68" x2="250.77" y2="65.68" xlink:href="#Áåçûìÿííûé_ãðàäèåíò_68"/><linearGradient id="Áåçûìÿííûé_ãðàäèåíò_78-3" x1="296.93" y1="309.87" x2="357.91" y2="309.87" xlink:href="#Áåçûìÿííûé_ãðàäèåíò_78"/><linearGradient id="Áåçûìÿííûé_ãðàäèåíò_68-4" x1="145.9" y1="154.13" x2="265.38" y2="154.13" xlink:href="#Áåçûìÿííûé_ãðàäèåíò_68"/><linearGradient id="Áåçûìÿííûé_ãðàäèåíò_68-5" x1="1009.58" y1="2927.09" x2="1170.7" y2="2927.09" gradientTransform="matrix(0.25, 0.97, -0.74, 0.2, 2171.75, -1472.88)" xlink:href="#Áåçûìÿííûé_ãðàäèåíò_68"/><linearGradient id="Áåçûìÿííûé_ãðàäèåíò_68-6" x1="541.16" y1="-858.38" x2="681.78" y2="-858.38" gradientTransform="matrix(0.7, -0.45, 0.5, 0.78, 263.99, 1150.39)" xlink:href="#Áåçûìÿííûé_ãðàäèåíò_68"/><linearGradient id="Áåçûìÿííûé_ãðàäèåíò_68-7" x1="4212.43" y1="1540.04" x2="4370.53" y2="1540.04" gradientTransform="matrix(-0.83, 0.08, -0.09, -0.92, 4038.98, 1299.11)" xlink:href="#Áåçûìÿííûé_ãðàäèåíò_68"/><linearGradient id="Áåçûìÿííûé_ãðàäèåíò_68-8" x1="15.31" y1="273.74" x2="440.46" y2="273.74" xlink:href="#Áåçûìÿííûé_ãðàäèåíò_68"/><linearGradient id="Áåçûìÿííûé_ãðàäèåíò_68-9" x1="-42.88" y1="220.6" x2="337.45" y2="220.6" xlink:href="#Áåçûìÿííûé_ãðàäèåíò_68"/><linearGradient id="Áåçûìÿííûé_ãðàäèåíò_75-3" x1="216.09" y1="492.94" x2="216.09" y2="159.43" xlink:href="#Áåçûìÿííûé_ãðàäèåíò_75"/><linearGradient id="Áåçûìÿííûé_ãðàäèåíò_68-10" x1="167.82" y1="314.63" x2="329.5" y2="314.63" xlink:href="#Áåçûìÿííûé_ãðàäèåíò_68"/><linearGradient id="Áåçûìÿííûé_ãðàäèåíò_68-11" x1="196.84" y1="341.95" x2="265.38" y2="341.95" xlink:href="#Áåçûìÿííûé_ãðàäèåíò_68"/><linearGradient id="Áåçûìÿííûé_ãðàäèåíò_68-12" x1="199.68" y1="335.79" x2="265.64" y2="335.79" xlink:href="#Áåçûìÿííûé_ãðàäèåíò_68"/><linearGradient id="Áåçûìÿííûé_ãðàäèåíò_68-13" x1="119.92" y1="562.33" x2="223.58" y2="562.33" gradientTransform="matrix(0.94, -0.02, 0.03, 1.08, 114.98, -18.82)" xlink:href="#Áåçûìÿííûé_ãðàäèåíò_68"/><linearGradient id="Áåçûìÿííûé_ãðàäèåíò_68-14" x1="404.04" y1="371.66" x2="461.36" y2="371.66" xlink:href="#Áåçûìÿííûé_ãðàäèåíò_68"/><linearGradient id="Áåçûìÿííûé_ãðàäèåíò_42-3" x1="404.03" y1="377.67" x2="458.04" y2="377.67" xlink:href="#Áåçûìÿííûé_ãðàäèåíò_42"/><linearGradient id="Áåçûìÿííûé_ãðàäèåíò_41-4" x1="433.97" y1="344" x2="453.41" y2="344" xlink:href="#Áåçûìÿííûé_ãðàäèåíò_41"/><linearGradient id="Áåçûìÿííûé_ãðàäèåíò_68-15" x1="260.97" y1="514.14" x2="285.15" y2="514.14" xlink:href="#Áåçûìÿííûé_ãðàäèåíò_68"/><linearGradient id="Áåçûìÿííûé_ãðàäèåíò_68-16" x1="334.44" y1="594.95" x2="366.56" y2="594.95" gradientTransform="matrix(1.05, -0.03, 0.03, 1.36, -130.72, -255.88)" xlink:href="#Áåçûìÿííûé_ãðàäèåíò_68"/><linearGradient id="Áåçûìÿííûé_ãðàäèåíò_68-17" x1="75.07" y1="544.07" x2="116.57" y2="544.07" xlink:href="#Áåçûìÿííûé_ãðàäèåíò_68"/><linearGradient id="Áåçûìÿííûé_ãðàäèåíò_68-18" x1="112.58" y1="506.91" x2="147.78" y2="506.91" xlink:href="#Áåçûìÿííûé_ãðàäèåíò_68"/><linearGradient id="Áåçûìÿííûé_ãðàäèåíò_75-4" x1="87.54" y1="657.13" x2="87.54" y2="539" xlink:href="#Áåçûìÿííûé_ãðàäèåíò_75"/><linearGradient id="Áåçûìÿííûé_ãðàäèåíò_74-3" x1="66.11" y1="585.48" x2="110.84" y2="585.48" xlink:href="#Áåçûìÿííûé_ãðàäèåíò_74"/><linearGradient id="Áåçûìÿííûé_ãðàäèåíò_68-19" x1="365.06" y1="1023.43" x2="416.14" y2="1023.43" gradientTransform="matrix(0.96, -0.27, -0.27, -0.96, 142.3, 1113.29)" xlink:href="#Áåçûìÿííûé_ãðàäèåíò_68"/><linearGradient id="Áåçûìÿííûé_ãðàäèåíò_42-4" x1="365.06" y1="1028.79" x2="413.18" y2="1028.79" gradientTransform="matrix(0.96, -0.27, -0.27, -0.96, 142.3, 1113.29)" xlink:href="#Áåçûìÿííûé_ãðàäèåíò_42"/><linearGradient id="Áåçûìÿííûé_ãðàäèåíò_41-5" x1="391.73" y1="998.79" x2="409.06" y2="998.79" gradientTransform="matrix(0.96, -0.27, -0.27, -0.96, 142.3, 1113.29)" xlink:href="#Áåçûìÿííûé_ãðàäèåíò_41"/><linearGradient id="Áåçûìÿííûé_ãðàäèåíò_68-20" x1="65.72" y1="302.07" x2="378.02" y2="302.07" xlink:href="#Áåçûìÿííûé_ãðàäèåíò_68"/><linearGradient id="Áåçûìÿííûé_ãðàäèåíò_42-5" x1="336.8" y1="1005.05" x2="427.42" y2="1005.05" gradientTransform="matrix(0.96, -0.27, -0.27, -0.96, 142.3, 1113.29)" xlink:href="#Áåçûìÿííûé_ãðàäèåíò_42"/><linearGradient id="Áåçûìÿííûé_ãðàäèåíò_75-5" x1="46.22" y1="633.03" x2="87.57" y2="633.03" xlink:href="#Áåçûìÿííûé_ãðàäèåíò_75"/><linearGradient id="Áåçûìÿííûé_ãðàäèåíò_156-2" x1="52.71" y1="640.3" x2="59.37" y2="640.3" xlink:href="#Áåçûìÿííûé_ãðàäèåíò_156"/><linearGradient id="Áåçûìÿííûé_ãðàäèåíò_156-3" x1="42.4" y1="640.72" x2="50.59" y2="640.72" xlink:href="#Áåçûìÿííûé_ãðàäèåíò_156"/><linearGradient id="Áåçûìÿííûé_ãðàäèåíò_156-4" x1="34.39" y1="641.3" x2="40.37" y2="641.3" xlink:href="#Áåçûìÿííûé_ãðàäèåíò_156"/><linearGradient id="Áåçûìÿííûé_ãðàäèåíò_68-21" x1="497.52" y1="88.16" x2="247.26" y2="112.47" xlink:href="#Áåçûìÿííûé_ãðàäèåíò_68"/><linearGradient id="Áåçûìÿííûé_ãðàäèåíò_68-22" x1="-551.8" y1="163.14" x2="-761.05" y2="183.46" gradientTransform="matrix(0.65, 0.03, -0.04, 1, 795.79, -57.07)" xlink:href="#Áåçûìÿííûé_ãðàäèåíò_68"/><radialGradient id="Áåçûìÿííûé_ãðàäèåíò_57" cx="4322.75" cy="86.45" r="102.34" gradientTransform="matrix(-0.82, 0.11, 0.13, 0.92, 3940.05, -188.1)" gradientUnits="userSpaceOnUse"><stop offset="0" stop-color="#b3819d"/><stop offset="1" stop-color="#785ca6"/></radialGradient><linearGradient id="Áåçûìÿííûé_ãðàäèåíò_32" x1="4313.78" y1="200.62" x2="4239.77" y2="-96.21" gradientTransform="matrix(-0.82, 0.11, 0.13, 0.92, 3940.05, -188.1)" gradientUnits="userSpaceOnUse"><stop offset="0" stop-color="#b2c9ff"/><stop offset="0.21" stop-color="#8e7bbb"/><stop offset="1" stop-color="#f6ecf2"/></linearGradient><radialGradient id="radial-gradient" cx="4231.45" cy="47.56" r="179.67" gradientTransform="matrix(-0.82, 0.11, 0.13, 0.92, 3940.05, -188.1)" gradientUnits="userSpaceOnUse"><stop offset="0" stop-color="#d91a1a"/><stop offset="0.99" stop-color="#692525"/></radialGradient><linearGradient id="Áåçûìÿííûé_ãðàäèåíò_8" x1="4209.19" y1="61.76" x2="4381.63" y2="61.76" gradientTransform="matrix(-0.82, 0.11, 0.13, 0.92, 3940.05, -188.1)" gradientUnits="userSpaceOnUse"><stop offset="0.02" stop-color="#ab9ce3"/><stop offset="1" stop-color="#fff"/></linearGradient><linearGradient id="Áåçûìÿííûé_ãðàäèåíò_45" x1="4351.13" y1="72.07" x2="4351.13" y2="-66.55" gradientTransform="matrix(-0.82, 0.11, 0.13, 0.92, 3940.05, -188.1)" gradientUnits="userSpaceOnUse"><stop offset="0.02" stop-color="#e2dceb"/><stop offset="1" stop-color="#fff"/></linearGradient><linearGradient id="Áåçûìÿííûé_ãðàäèåíò_45-2" x1="4348.06" y1="90.54" x2="4369.54" y2="90.54" xlink:href="#Áåçûìÿííûé_ãðàäèåíò_45"/></defs><g style="isolation:isolate"><g id="Calque_2" data-name="Calque 2"><g id="circus"><polygon points="0 651.7 107.93 651.22 98.32 646.35 353.85 640.7 289.55 633.3 60.49 633.66 74.51 641.74 0 651.7" style="fill:#bf3e6d;fill-rule:evenodd;opacity:0.47000000000000003;mix-blend-mode:multiply"/><path d="M247.35,532.17a383.86,383.86,0,0,0,14.8,74.76S256,633.83,257.71,639h84.75s-.61-5.06-2.46-6.91l-2.47-.25-2.47-3.57s-14.19-.62-20-2.22-37.63-15.06-41.21-22.7.9-82.44.9-82.44S252.28,529,247.35,532.17Z" style="fill-rule:evenodd;fill:url(#Áåçûìÿííûé_ãðàäèåíò_119)"/><polygon points="253.88 638.76 255.55 645.24 344.75 644.13 346.97 637.53 253.88 638.76" style="fill:#30101d;fill-rule:evenodd"/><path d="M294.9,638.22l26.16-9.91-.93-1.3,5.12.58,7.38,2.85s-10.09.11-23.14,7.78Z" style="fill-rule:evenodd;fill:url(#Áåçûìÿííûé_ãðàäèåíò_75)"/><path d="M340,632.1s-9.13.62-10.49,0S337.34,631.36,340,632.1Z" style="fill:#ffead1;fill-rule:evenodd;mix-blend-mode:soft-light"/><path d="M263.69,638.63s13.88-11,45.8-.41Z" style="fill-rule:evenodd;opacity:0.5;mix-blend-mode:multiply;fill:url(#Áåçûìÿííûé_ãðàäèåíò_156)"/><path d="M266.32,346.87s2.6,3.77,2.6,4.81-1.3,1.57-1.3,1.57,38.81,79.08,46.54,94.13a107.37,107.37,0,0,1,9.9,30L254.89,352.1Z" style="fill:#ffff9a;fill-rule:evenodd"/><path d="M290.83,112.12l-3.44.2s1.79,8.24,2.51-2.23-1.81-21.58,45.45-29.2l-32.09,34.78-10.62,1.53Z" style="fill:#ffd;fill-rule:evenodd"/><path d="M293.63,115.23s-8.1-12.9-19.24-9.55-9,28.6,0,34.8l5.83,2-4.74,11.65-17,4.44-3.38-.81-28.85-6.53-15.48-21.53L180.4,111.79l6.82-13.14L122.5,111.07s-1.37,4.24,12,30.32c17.11,41.84,48.4,71.15,54,69.84,0,0-.17,45.46,0,55s7,33.33,7,33.33,4,21.15,2.72,26c0,0-10.27,3.94-10,4.88s3.65,4.18,3.65,4.18S163.55,377.89,147.44,403,105,488.19,105,488.19s-14.22,22.31-22.16,33-7.53,34.25-7.53,34.25l12,3.23,167.83-242Z" style="fill:#ffd;fill-rule:evenodd"/><path d="M355.46,87.64s9.35,5.67,11.44,11.73l4.5,1.15-3.66,7.34,1.36,4.26,7.31,3a26.48,26.48,0,0,1-9.27,13l4.26,20.3s12,3.81,14.83,8.35l-10.87,1.72s.45,25-1.45,28.32-34.22,10.14-46.47,10l7.82,9.42s25.5,21.95,22.65,38.68c4.82-3.25,25.44-22.52,100.37-44.11L347.76,297.18l-3.22,20.65,31.71,10.22,4.67-1.86s22,6.43,32.26,6.56,26.54-1.38,28.84,0,8.69,12.45,14.21,14.65,19.53,1.15,19.53,1.15,1.26,10.13,0,12.64-13.16,5-13.16,5l.1,5.46-28.73,4L382,356l-42.29-23.22L295.51,201.29Z" style="fill:#ffff9a;fill-rule:evenodd"/><path d="M379.75,333.07s-6.84-2.22-18.47-7.2l-21.36-6.36c2.75-5.3,7.24-22,6.29-44.18A104.8,104.8,0,0,0,354,253.05c3.77-18.74-3.43-27.25-11.63-35.25C331,206.77,318,195.07,318,195.07a22.35,22.35,0,0,1,1.92-2l-25.83-58.53-5.25.91S282.54,150.15,276,158.5l-19.13,4-.75.17c-.24-.08-1.64-.48-3.67-1-7.12-1.95-22.56-6-27.3-7.17-.91-.27-1.42-.38-1.42-.38a97.45,97.45,0,0,0-14.06-19.54l0,0c-1.11-1.17-2.23-2.28-3.36-3.4-8-7.83-15.38-5.72-28.12-19,0,0,0,0,0,0,.5-.69,6.38-9.06,11.72-17.7,1-1.64,2-3.3,3-4.9.13-.22.25-.42.36-.64.48-.82.93-1.64,1.37-2.43v-.07c.27-.47.51-.91.75-1.35,0,0-19.82-6.92-32.27-29,0,0-.69.5-1.84,1.39s-2.6,2-4.35,3.52c-.79.65-1.61,1.38-2.48,2.15-5.42,4.74-12,11.3-15.77,17.7-7,12.06-17.54,27.54-16.15,30.36,19.38,39.27,35.38,81.54,71.31,98.09-3.47,12.92-2.55,40.23-1.52,57.62.57,9.18,1.15,15.6,1.15,15.6l2.35,7.64,1.32-.88,2.51,11.7,3.17,15c30.24,29.7,60.17,29.77,60.5,29.77a21.69,21.69,0,0,1,2-2.95c4-5.16,10.42-10.54,16.51-15,4.78-3.5,9.28-6.39,12.1-8.14a26,26,0,0,1,2.23-1.35l.78-.49c2.59,10.35,2.21,26.46,2.21,26.46v5.58l5.56,6.76,12.41,6.33a84.37,84.37,0,0,0,9.64,2.59c10.1,2,25.78,3.53,47.14.94A66,66,0,0,1,379.75,333.07Z" style="fill-rule:evenodd;fill:url(#linear-gradient)"/><path d="M286,480.78V479c-.08-7.56-.32-15.84-.8-24-.88-13.37-2.43-26.47-5.25-35.82-2.91-9.63-5.57-20.77-7.84-31.23,0-.16,0-.28,0-.4-.48-2.35-1-4.66-1.39-6.89-3.07-15.32-5-27.73-5.22-29a.31.31,0,0,1,0-.12l-4.89-1.91-10.67-4.22,0,0-7.52-3s0,0-.08,0l-3.82-1.51-18.54-7.32-17.11-6.76-2.86-1.16a.3.3,0,0,1-.16-.08,3.27,3.27,0,0,0-.44.16c-.64.2-2,.68-3.42,1.23-2.19.84-4.5,1.8-4.78,2.31a.75.75,0,0,0-.08.32c0,1.39,3.34,5.21,3.34,5.21s-11.77,15.72-44.6,69.2v0c-.28.52-.6,1-.92,1.51-9.19,15.05-16.43,28.26-22.2,39.64q-2.38,4.71-4.46,9-2.74,5.73-5,10.74c-8.2,18.15-11.86,29.33-15.08,34-5,7.28-13.57,17.47-18.47,25.54v0c-.83,1.32-1.55,2.59-2.15,3.78a27.43,27.43,0,0,0-1.51,4.38c-.16.56-.28,1.16-.44,1.79s-.28,1.28-.44,2c-.27,1.32-.55,2.75-.83,4.22-.72,3.86-1.39,8.12-1.95,12.3-.12.91-.24,1.83-.36,2.7-.32,2.27-.6,4.42-.83,6.49v0q-.42,3.28-.72,6c-.36,3.46-5.81,28.13-8.08,37.28,0,.2-.08.36-.12.52-.2-.36-2.19,3.42-2.35,3.06C62,611.06,60,613.37,58,615.6c-1,1.07-2,2.11-3,3.14a97.89,97.89,0,0,1-8.79,8.32c-11.7,9.51-15.16,10.15-16.08,12.49a7.59,7.59,0,0,0,0,4.74H61.89l.52,1.15L87,644.37l2-.08S87.6,635,87,620.33c-.08-1.35-.12-2.74-.16-4.17l.56-2,3.34-12.26,6.09-22.2,1,.23s1.51-2.9,6.2-10.34c.44-.68.92-1.43,1.36-2.19h0c.71-1.15,1.51-2.39,2.38-3.74.2-.28.36-.56.56-.84.08-.12.16-.27.24-.39.72-1.12,1.51-2.27,2.31-3.51,1.63-2.5,3.46-5.29,5.57-8.31q4-6.09,9.27-13.65c5-7.24,5.81-22,7.56-23.76a9.44,9.44,0,0,1,1.43-1.11l.2-.12,3.11-2c3.66-2.27,8.27-4.94,9.63-6.29l0,0a35.73,35.73,0,0,0,3.26-5.69c.76-1.43,1.59-3.14,2.59-5,.55-1,1.11-2.11,1.79-3.26a12.81,12.81,0,0,1,.87-1.6v0c.64-1.19,1.31-2.42,2.11-3.74,0,0,0-.08.08-.16s.2-.31.28-.51c.28-.48.6-1,.87-1.52,1.64-2.78,3.43-5.73,5.46-8.71l0,0A162.24,162.24,0,0,1,175,459.85c8.08-10,19.14-26.62,28.38-41.1,2.82-4.46,5.45-8.72,7.8-12.5,1.67-2.67,3.14-5.05,4.45-7.16,3.15-5.18,5.06-8.4,5.06-8.4h6.76s4.1,18.82,8.76,41.43c.11.43.19.87.27,1.31,2.67,12.89,5.46,26.9,7.76,39.31,1,5.26,1.83,10.27,2.59,14.73l.24,1.55v0h0v.08a1.41,1.41,0,0,1,0,.24c1,6.2,1.67,11.34,2,14.76a16.83,16.83,0,0,1,0,3.9c-1.87,9.83-9.39,24.11-9.39,31.12,0,3.54,2.74,11.34,5.45,18.22,1,2.59,2.07,5.06,2.9,7.09a.25.25,0,0,1,.08.15s0,.08.08.12c1.32,3.11,2.27,5.22,2.27,5.22l27.1-17s0-.28,0-.8c.16-4.82,1.07-29.73,1.79-31.4l0,0c.56-1.27,3.42-4.21,5.05-7,.24-.44.44-.88.64-1.31l0,0a5.47,5.47,0,0,0,.44-1.95c0-1.24.36-10.19.4-22.33v-2.38C286,484,286,482.45,286,480.78Z" style="fill:#ec615c;fill-rule:evenodd"/><path d="M194.6,86.32v.08c-5.81,10.62-15.76,24.75-16.39,25.66a0,0,0,0,1,0,0s-8.2,2.27-10.87,1.12C167.3,113.22,187.28,95,194.6,86.32Z" style="fill-rule:evenodd;opacity:0.5;mix-blend-mode:multiply;fill:url(#Áåçûìÿííûé_ãðàäèåíò_68)"/><path d="M193.24,88.82c-.11.22-.23.42-.36.64-.93,1.6-1.93,3.26-3,4.9-16-3.72-29.52-22-35.5-31.35.87-.77,1.69-1.5,2.48-2.15A85.71,85.71,0,0,0,193.24,88.82Z" style="fill:#40004c;fill-rule:evenodd;opacity:0.30000000000000004"/><path d="M286,485.64V488s0,0-.08,0c-1.24.32-21.53,6.25-27.58,15.8,0,0,1,1.51,2.63,3.5l0,.08a0,0,0,0,0,0,0l0,0,.12.12c2.7,3.38,7,7.8,11,8.44,5.49.87,11.06-2.51,12.61-3.5a3.25,3.25,0,0,0,.32-.24c-.2.43-.4.87-.64,1.31-1.63,2.83-4.49,5.77-5.05,7l0,0c-.72,1.67-1.63,26.58-1.79,31.4,0,.52,0,.8,0,.8L248.2,564.74l-.71.28.63-.4a.25.25,0,0,0-.08-.15c-.83-2-1.87-4.5-2.9-7.09-2.71-6.88-5.45-14.68-5.45-18.22,0-7,7.52-21.29,9.39-31.12a16.83,16.83,0,0,0,0-3.9c-.28-3.42-1-8.56-2-14.76a1.41,1.41,0,0,0,0-.24v-.08h0v0l-.24-1.55c-.76-4.46-1.63-9.47-2.59-14.73l20.85-23.67,3.67,1.07,1.19.36,15.2,4.46c.48,8.19.72,16.47.8,24v1.79C286,482.45,286,484,286,485.64Z" style="fill-rule:evenodd;opacity:0.5;mix-blend-mode:multiply;fill:url(#Áåçûìÿííûé_ãðàäèåíò_68-2)"/><path d="M278.28,30.18S265.55,34.26,262,36.45s-8,11.12-9.83,12.36-17.48,4.15-23.71,7c-5.49,2.51-20.91,11.84-24.52,14-.67,1.33-1.51,3.08-2.42,5.21-.19.44-.39.88-.57,1.35a118.85,118.85,0,0,0-4.79,14S172.85,88.34,152,56.77l.11-.05c14.13-5.63,28.73-11.72,41.2-15.84,9.55-3.17,17.83-5.18,23.66-4.94L210.23,24.4l1.39-.22s-.33-11.26.76-12.48S233.49,7.85,241.67,5A101,101,0,0,1,254,1.29s9.71,11.3,9.35,20.8c0,0,9.46-2.36,12.9.91Z" style="fill-rule:evenodd;fill:url(#Áåçûìÿííûé_ãðàäèåíò_42)"/><path d="M284.89,143.77s-4.32,51.56,23.07,67.46c0,0,6.43-12.33,12-18.17L292,137.69l-3.19-2.27Z" style="fill:#6d0024;fill-rule:evenodd;opacity:0.6000000000000001"/><path d="M371.4,174.57v0c-.06,5.16-.61,8.71-1.37,10.09-1.57,2.73-19.1,10.92-44.79,8.76s-30.59-14.6-31.56-16.74c-.9-2-2.16-24.62-1.68-39v-.23c0-.92.08-1.78.12-2.63a280,280,0,0,1,3.95-30.74c15.07-5.72,43.18-6.07,53.11-5.29s14.23,2.73,14.23,2.73,4.85,9.54,4.66,13.63c0,0-3.2,8.68-3.41,10.42s3.21,14.7,5.37,29.89A130.15,130.15,0,0,1,371.4,174.57Z" style="fill:url(#Áåçûìÿííûé_ãðàäèåíò_55)"/><path d="M297.58,120.87s-8.05-14-16.88-14.28S269,113,268.76,120.87s6.75,20.39,14.41,20.52,10.9-6.88,10.9-6.88Z" style="fill:#ffa166"/><path d="M297.58,120.87s-8.05-14-16.88-14.28S269,113,268.76,120.87s6.75,20.39,14.41,20.52,10.9-6.88,10.9-6.88Z" style="opacity:0.5;mix-blend-mode:multiply;fill:url(#Áåçûìÿííûé_ãðàäèåíò_52)"/><path d="M364.23,97c-.93-3.78-10.89-16.15-28.88-16.15a39.91,39.91,0,0,0-14.72,2.94s-.06,0-.08,0a50.84,50.84,0,0,0-25,21.19l.47,2.51-.47,1.09c52.11-13.79,68.78-5.31,68.78-5.31l1.42,3.23.06,0C364.81,104,365.15,100.82,364.23,97Z" style="fill-rule:evenodd;fill:url(#Áåçûìÿííûé_ãðàäèåíò_55-2)"/><path d="M474,350.32v8.36c-2.74,4.59-13.65,5-13.65,5,3.31,10.13-3.7,25.32-3.7,25.32a114.83,114.83,0,0,1-14.41-.18c-9.72-.6-32.13,2.71-33.69,1.74s-4.67-13.23-4.67-13.23l-1.56.18-2.61-2.05-.1-.09-23,3.7a74.2,74.2,0,0,1-4.32-23.1v0c-.25-18,8.3-25.84,8.3-25.84s24.16,6.72,31.74,7.89,25.41-.49,27.75.29,9.93,9.07,14.41,10.32S474,350.32,474,350.32Z" style="fill-rule:evenodd;fill:url(#Áåçûìÿííûé_ãðàäèåíò_42-2)"/><path d="M257.23,612.14a182.3,182.3,0,0,1,29.54-2.3c.61-2,2.32-7.88,2.29-8.83v0l-.07-.08-3.5.08-1.56-65.16a30.59,30.59,0,0,0-11.15,1.41,1,1,0,0,0-.33.1.43.43,0,0,1-.26.09,80.48,80.48,0,0,0-17.51,8.25c-1,.55-1.91,1.15-2.9,1.79-.44.27-.92.55-1.36.86-1.87,1.24-3.52,2.38-4.91,3.38-.22.18-.41.31-.59.45s-.11,0-.15.09c-2.45,1.82-3.91,3-3.91,3a5.28,5.28,0,0,1,.16.57Z" style="fill-rule:evenodd;fill:url(#Áåçûìÿííûé_ãðàäèåíò_75-2)"/><path d="M314.42,122.56s-.15,10.71,7.86,12.86,14.62-6.33,19.3-16.36C341.58,119.06,325,116.53,314.42,122.56Z" style="fill-rule:evenodd;opacity:0.5;mix-blend-mode:multiply;fill:url(#Áåçûìÿííûé_ãðàäèåíò_74)"/><path d="M354.54,125.87a11.7,11.7,0,0,0,0,5.52c.74,2.86,2.27,6,5.14,6.3s5.08-10.26,5-12.11S357,124.64,354.54,125.87Z" style="fill-rule:evenodd;opacity:0.5;mix-blend-mode:multiply;fill:url(#Áåçûìÿííûé_ãðàäèåíò_74-2)"/><path d="M360.67,146.18s12.07,2.87,20.25,10.07h-7l-8.27-5,3.47,4.26a81,81,0,0,0-20.32.78c-10.9,1.85-14.8,4-14.8,4l-6.39-.8,8.14-7.86-8.08,7.2-13.24-1.26s11.49-9.64,23.47-10.71c0,0,8.86,2.14,12.85,2.53S360.67,146.18,360.67,146.18Z" style="fill:#95343d;fill-rule:evenodd"/><ellipse cx="341.58" cy="146.18" rx="38.32" ry="24.22" style="opacity:0.5;mix-blend-mode:multiply;fill:url(#Áåçûìÿííûé_ãðàäèåíò_51)"/><path d="M141.86,111.65c0,7-4.05,12.69-9,12.69s-9-5.68-9-12.69,4-12.68,9-12.68S141.86,104.65,141.86,111.65Z" style="fill-rule:evenodd;opacity:0.30000000000000004;mix-blend-mode:multiply;fill:url(#Áåçûìÿííûé_ãðàäèåíò_51-2)"/><path d="M322.31,122c.1-1.23,8-4.94,12.17-4.74s4.7,1.36,4,4.09c-1.09,4-5.06,10-9.51,9.15A8.05,8.05,0,0,1,322.31,122Z" style="fill:#db6560;fill-rule:evenodd"/><path d="M322.67,122.21c.15-.58,11.74-2.15,15.44-.85,0,0-3.44,9.94-9.18,9.09A7.05,7.05,0,0,1,322.67,122.21Z" style="fill:#ffe2dd;fill-rule:evenodd"/><path d="M333.92,128.41s-.51,2.44-6.11,6.1A15.17,15.17,0,0,0,337,124.8Z" style="fill:#db514a;fill-rule:evenodd"/><path d="M330.22,125s-.12-7.71,8.5-4.24a6.55,6.55,0,0,1-3.41,3.88A5.79,5.79,0,0,1,330.22,125Z" style="fill:#703643;fill-rule:evenodd"/><path d="M322.28,122.27s8.79-4.14,18.24-1.75l-2.41.84S329.16,120.46,322.28,122.27Z" style="fill:#872f43;fill-rule:evenodd"/><path d="M354.55,127.83c.05-1.19,4.24-4.73,6.47-4.54s2.49,1.31,2.1,3.91c-.58,3.82-2.69,9.56-5.05,8.75C356.33,135.36,354.35,132.46,354.55,127.83Z" style="fill:#db6560;fill-rule:evenodd"/><path d="M354.74,128.07c.09-.55,6.24-2,8.21-.81,0,0-1.83,9.51-4.88,8.69S354.43,130.09,354.74,128.07Z" style="fill:#ffe2dd;fill-rule:evenodd"/><path d="M359.16,130.52c-.82-.84-.83-7.33,4-3.74a4.41,4.41,0,0,1-1.32,3.39C360.35,131.61,359.16,130.52,359.16,130.52Z" style="fill:#703643;fill-rule:evenodd"/><path d="M354.54,128.13s4.67-3.95,9.69-1.68l-1.28.81S358.19,126.4,354.54,128.13Z" style="fill:#872f43;fill-rule:evenodd"/><path d="M354.54,125.87s4.77-7.85,7.69-10.2h1.85l-2.53,2.61s3.11-3.12,6.52-3.12a31.4,31.4,0,0,1,5.84.51,26.36,26.36,0,0,1-9.25,9.91S357.56,124.61,354.54,125.87Z" style="fill:#95343d;fill-rule:evenodd"/><path d="M339.62,121.84s6.88-1.86,10.66-5.71l-1.81-.7-6.29,3.85,5.42-5.12A82.34,82.34,0,0,0,335,109.3c-8.12-2.51-20.23,1.59-20.23,1.59L313,115.34S329.29,117.23,339.62,121.84Z" style="fill:#95343d;fill-rule:evenodd"/><path d="M338.72,158.5l20.18-3.27S350.65,153.94,338.72,158.5Z" style="fill:#681923;fill-rule:evenodd"/><path d="M335.94,160.93s11,1.36,16.16.87,7.58-2.36,7.58-2.36-3.59,5.77-8.84,6.55S335.94,160.93,335.94,160.93Z" style="fill:#6a0024;fill-rule:evenodd;opacity:0.42"/><path d="M340.52,140.48a6.27,6.27,0,0,0-2.63,6.33l-1.95.25S335.68,143.07,340.52,140.48Z" style="fill:#5b0024;fill-rule:evenodd;opacity:0.42"/><path d="M337.82,146.18a98.33,98.33,0,0,1,12.31.45c10.69,1,12.82-3.23,12.82-3.23s-1.5,2.39-2.28,2.78-2.82,3.26-8.66,3.65-14.12-3-14.12-3Z" style="fill:#6f0024;fill-rule:evenodd;opacity:0.42"/><path d="M339.74,147.16s3.66-1.36,5.58,1.27A30.45,30.45,0,0,1,339.74,147.16Z" style="fill:#6f0024;fill-rule:evenodd"/><path d="M371.4,174.59c-.06,5.16-.61,8.71-1.37,10.09-1.57,2.73-19.1,10.92-44.79,8.76s-30.59-14.6-31.56-16.74c-.9-2-2.16-24.62-1.68-39,0,3,.06,35.91,9.35,41.32,9.72,5.67,62.06,5.88,65.82,4.44S371.36,175.06,371.4,174.59Z" style="fill-rule:evenodd;opacity:0.5;mix-blend-mode:multiply;fill:url(#Áåçûìÿííûé_ãðàäèåíò_78)"/><path d="M295.51,128.9s-4.69-7.85-12.35-11.7-11.68,1.21-11.68,1.21,5.84-1.4,9.25.26c0,0-5.16,9.35-.1,13.78s11.26-4.32,11.26-4.32Z" style="fill-rule:evenodd;opacity:0.5;mix-blend-mode:multiply;fill:url(#Áåçûìÿííûé_ãðàäèåíò_41)"/><path d="M290.1,122.27s-3.17-.32-4.4,3.41c-1,2.92,1.71,6.79,1.71,6.79a40,40,0,0,0,6-6.52Z" style="fill:#6f0024;fill-rule:evenodd;opacity:0.30000000000000004"/><path d="M354.54,133.7s8.84,5.8,8.41,9.7C363,143.4,361.92,140.39,354.54,133.7Z" style="fill:#6f0024;fill-rule:evenodd;opacity:0.42"/><path d="M307.18,129.65l-1.29,1.46a12.12,12.12,0,0,0,3.37,3.4,4,4,0,0,0,3.9,0Z" style="fill:#facaab"/><path d="M343.92,144.55s.28-1.87,1-2.1,1.17,2.1,1.17,2.1A1.63,1.63,0,0,1,343.92,144.55Z" style="fill:#facaab"/><path d="M319.91,158s8.63-9.29,18-11.23a49.5,49.5,0,0,0-15.36,11.48Z" style="fill-rule:evenodd;opacity:0.5;fill:url(#Áåçûìÿííûé_ãðàäèåíò_41-2)"/><path d="M330.13,159.44s7-8.55,11.45-11.72l2.34.44s-9,4.7-12.66,11.52Z" style="fill-rule:evenodd;opacity:0.5;fill:url(#Áåçûìÿííûé_ãðàäèåíò_41-3)"/><path d="M175.46,455.35l-10.3,18,0,0L151.07,498s-21.29-32-33.94-33.15q2.27-5,5-10.74,2.08-4.29,4.46-9c5.77-11.38,13-24.59,22.2-39.64.32-.51.64-1,.92-1.51Z" style="fill:#40004c;fill-rule:evenodd;opacity:0.6000000000000001"/><path d="M132.82,117.11l1.57-9.25,1.68-3.27S136.7,113.86,132.82,117.11Z" style="fill-rule:evenodd;opacity:0.5;mix-blend-mode:multiply;fill:url(#Áåçûìÿííûé_ãðàäèåíò_78-2)"/><path d="M201.54,75.09c-.19.44-.37.88-.57,1.35a118.85,118.85,0,0,0-4.79,14S172.85,88.34,152,56.77l.11-.05c14.13-5.63,28.73-11.72,41.2-15.84C171.42,58.08,202.45,73,201.54,75.09Z" style="fill-rule:evenodd;opacity:0.5;mix-blend-mode:multiply;fill:url(#Áåçûìÿííûé_ãðàäèåíò_68-3)"/><path d="M357.91,349.76c-8.63,8.81-24.86,14.6-31.17,15.65a82.54,82.54,0,0,1-9.6-2.55l-12.42-6.35-5.59-6.75v-5.59s.39-16.09-2.2-26.47l23-14.41L338.06,275l11.18-20.66-13.5,41.28-31.29,41.54C315.27,351.88,328,351.57,357.91,349.76Z" style="fill-rule:evenodd;opacity:0.5;mix-blend-mode:multiply;fill:url(#Áåçûìÿííûé_ãðàäèåíò_78-3)"/><path d="M214.82,173.7c4.33-15.63,1.75-23.39-5.14-39.15a97.3,97.3,0,0,1,14,19.54s.52.12,1.43.39C225.92,159.82,223.37,166,214.82,173.7Z" style="fill-rule:evenodd;opacity:0.5;mix-blend-mode:multiply;fill:url(#Áåçûìÿííûé_ãðàäèåíò_68-4)"/><path d="M256.11,169.67c13.08,3.29,21.08-.51,28.78-14.83-1.34,7.19-8.05,13.55-12.45,18.86,0,0,.51,5,.53,6C269.19,181.43,264,176.45,256.11,169.67Z" style="fill-rule:evenodd;opacity:0.5;mix-blend-mode:multiply;fill:url(#Áåçûìÿííûé_ãðàäèåíò_68-5)"/><path d="M281.56,218.06c-2.86-17-10.44-19-23.14-28.15A91.11,91.11,0,0,1,278,198.78s.76-4.06,1.55-4.26C279.58,200.36,283.73,208.23,281.56,218.06Z" style="fill-rule:evenodd;opacity:0.5;mix-blend-mode:multiply;fill:url(#Áåçûìÿííûé_ãðàäèåíò_68-6)"/><path d="M321.51,209.48c-5.2,16.41,12.53,22.16,16,39.71-5-4.88-17.77-17.42-18.51-19.85S315.09,217.24,321.51,209.48Z" style="fill-rule:evenodd;opacity:0.5;mix-blend-mode:multiply;fill:url(#Áåçûìÿííûé_ãðàäèåíò_68-7)"/><path d="M279.33,266.43c.81-.55,4.13-21.29,4.92-21.87-9.08,34.3-28,26.35-42,20.55,6.58,9.43,17.52,13.49,22.9,13.39.39-.88,6.72-6.45,10.21-11-1.43,6.9-.89,12.36-.63,16.45,1.26,2.17,15.85,15.76,23,19C285.76,291.51,281.59,281.29,279.33,266.43Z" style="fill-rule:evenodd;opacity:0.5;mix-blend-mode:multiply;fill:url(#Áåçûìÿííûé_ãðàäèåíò_68-8)"/><path d="M217.49,177.92c-6.73,4.06-10.52,14-11.67,12.89-10.13-9.5-33.9-20.71-45.66-48.38,9.82,45.21,42.68,53.28,45.78,55.07a72.75,72.75,0,0,0,5.15,20.18c-3.84-4.12-9.43-7.15-17.26-8.52,0,0,7.7,4.93,14.38,19s-19.1,89.79-9.27,66c3.8-8.13,17.95,2.69,18.55-5,6.17,16.26,15.83-12.83,20.22-14.93C230.24,243.94,200.57,199.17,217.49,177.92Z" style="fill-rule:evenodd;opacity:0.5;mix-blend-mode:multiply;fill:url(#Áåçûìÿííûé_ãðàäèåíò_68-9)"/><path d="M324.05,477.36c-20.22-4.26-56.83,10.15-95,14.36s-65.06-3.9-65.06-3.9l-9.07-7.32-46.76-37.72s10.07-1.67,24.67-35.57l15-33.27c15.08-35,51.93-48.47,51.93-48.47s.35-3.1.75-6.25S195.8,290,195.8,290l1.31-.88s27.5-23.91,40.75-64.14c9.35-28.46,12.81-48.87,14-58.42a6,6,0,0,0,.08-.8,9.89,9.89,0,0,0,.12-1c.08-.68.16-1.23.2-1.75v0c0-.52.12-1,.16-1.31s0-.64,0-.84a1.81,1.81,0,0,0,0-.32,2.59,2.59,0,0,1,4.14,0c.08.64.16,1.32.2,2,2.19,24.12-7.8,72.46-7.8,72.46s5.08,5.84,8.11,9.58c-.48.8-7.16,5.45-7.52,6.36-6,14.88-10.54,22.7-10.38,38.62a50.37,50.37,0,0,0,1.27,10.7c3.66,15.76,13.49,30.09,24.75,42.46.48.56,1,1.12,1.48,1.63-.76.84-1.16,1.32-1.16,1.32a8.61,8.61,0,0,1,1.31,3.18c0,1.19-1.55,2.63-1.55,2.63s1.16,4.77,7.52,18.5C277,378.67,283.1,391,292.37,408,316.29,451.93,324.05,477.36,324.05,477.36Z" style="fill-rule:evenodd;fill:url(#Áåçûìÿííûé_ãðàäèåíò_75-3)"/><path d="M274.23,411.42c.67,32.75-7.76,49.39-8.76,51.26.68-1.71,6.61-17.43,5.37-45.8a140.41,140.41,0,0,0-13.56-53.49,138.4,138.4,0,0,1-47.2-17.74s-3.1,17.23,3.11,45c5.61,25.07,25.34,44.09,29.2,47.71-4.41-3.58-28.77-23.79-34.66-38.68-6.48-16.35-6-54.07-6-54.07H195.4c-12,16.15-25.79,39.31-27.58,42.34a563.81,563.81,0,0,1,31.88-62.52s.35-3.1.75-6.25S195.8,290,195.8,290l1.31-.88s27.5-23.91,40.75-64.14c9.35-28.46,12.81-48.87,14-58.42-.87,8.48-2.74,24-5.29,34.34-3.62,14.8-18.7,75.81-17.15,83.72.24,1.28,1.35,2.27,3,3.07a5.28,5.28,0,0,0,.87.36c.44.2.88.32,1.31.47s1,.28,1.52.4a5.3,5.3,0,0,0,.87.2c.72.16,1.47.28,2.27.4,10.7,1.59,26.38.36,26.38.36s4.54,22.8,7.56,26.54c0,0,.08,0,.08.08a1.09,1.09,0,0,0,.56.44c4,6.72,2.15,8,8,10.74-6.09,4.46-12.54,9.83-16.52,15,.48.56,1,1.12,1.48,1.63-.76.84-1.16,1.32-1.16,1.32a8.61,8.61,0,0,1,1.31,3.18c0,1.19-1.55,2.63-1.55,2.63s1.16,4.77,7.52,18.5a6.23,6.23,0,0,1-.75,1.47C270.05,373.5,274.23,411.42,274.23,411.42Z" style="fill-rule:evenodd;opacity:0.5;mix-blend-mode:multiply;fill:url(#Áåçûìÿííûé_ãðàäèåíò_68-10)"/><path d="M198.16,328.05s38.13,36.38,67.22,23.4c0,0-13.08,7.64-30.9,2.8s-37.64-23.94-37.64-23.94Z" style="fill-rule:evenodd;opacity:0.5;mix-blend-mode:multiply;fill:url(#Áåçûìÿííûé_ãðàäèåíò_68-11)"/><path d="M199.68,325.49s38.9,24.17,66,20.16C265.64,345.65,235.47,345.75,199.68,325.49Z" style="fill-rule:evenodd;opacity:0.5;mix-blend-mode:multiply;fill:url(#Áåçûìÿííûé_ãðàäèåíò_68-12)"/><path d="M273.74,610.28c1.85-1.19,9.07-5.91,11.73-9.33,0,0-16,7.84-21.59,2.59-8.46-7.93-21.74-44.14-22.85-47.75l16.21,56.35C262.63,611.27,268.16,610.66,273.74,610.28Z" style="fill-rule:evenodd;opacity:0.5;mix-blend-mode:multiply;fill:url(#Áåçûìÿííûé_ãðàäèåíò_68-13)"/><path d="M460.38,363.65a59.59,59.59,0,0,1-17.14-3.28s-6.13,1.73-18.4,4.45a54.18,54.18,0,0,0-20.8,9.8s41.44-7.53,41.93-6.86,10.3,15.18,10.3,15.18l.6-.81S463.88,376.4,460.38,363.65Z" style="fill-rule:evenodd;opacity:0.5;mix-blend-mode:multiply;fill:url(#Áåçûìÿííûé_ãðàäèåíò_68-14)"/><path d="M401.44,374.74l-1.71.68-.1-.09-23,3.7a74.2,74.2,0,0,1-4.32-23.1c.22.84,2.16,7.63,6.64,11.82,4.81,4.5,15.72,5.12,15.72,5.12l3.5-5.12Z" style="fill:#40004c;fill-rule:evenodd;opacity:0.30000000000000004"/><path d="M369.27,366.88s-3.15-21.24,9.23-34.24c0,0-8.36,11.53-4.59,33.73Z" style="fill:#5c0027;fill-rule:evenodd;opacity:0.5"/><path d="M404,374.62s6.74-7.92,39.2-14.25c0,0,8.57,3.41,17.14,3.28a42,42,0,0,1,.65,8.18Z" style="fill:#40004c;fill-rule:evenodd;opacity:0.30000000000000004"/><path d="M458,385.58s-8.57-12.32-11.29-20.18c0,0-7.66-1.75-19.22.84A127,127,0,0,0,404,374.62s-.27,11.75,4.54,15.9c0,0,24.66-2.85,29.34-2.85s18-.26,18-.26Z" style="fill-rule:evenodd;fill:url(#Áåçûìÿííûé_ãðàäèåíò_42-3)"/><path d="M440.12,338.23s-7.4,4.08-6,7.41,13.63,4.12,13.63,4.12l5.63-1.64S447.65,346.05,440.12,338.23Z" style="fill-rule:evenodd;opacity:0.5;mix-blend-mode:multiply;fill:url(#Áåçûìÿííûé_ãðàäèåíò_41-4)"/><path d="M243,209.32c-.76,3-13.13,52.13-45.92,79.82l-1.31.88-2.35-7.64s-.6-6.41-1.16-15.6c6.73-.72,16.12-2.63,23.92-7.68C229.46,250.5,242.15,212,243,209.32Z" style="fill:#40004c;fill-rule:evenodd;opacity:0.30000000000000004"/><path d="M261,507.36s7.14,10.78,10.51,12.47,7.92.91,7.92.91a34.18,34.18,0,0,0,5.75-8.42s-7.21,6.33-13,3.74S261,507.36,261,507.36Z" style="fill-rule:evenodd;opacity:0.5;mix-blend-mode:multiply;fill:url(#Áåçûìÿííûé_ãðàäèåíò_68-15)"/><path d="M272.45,537.31a.51.51,0,0,1-.29.12c-.62.24-1.24.53-1.9.77a112.1,112.1,0,0,0-17.67,9.6c-1.06.7-2.13,1.45-3.24,2.25-.49.35-1,.69-1.51,1.1-1.81,1.15-3.66,2.53-5.58,4-.94-2.82-2.11-6.24-3.28-9.84Z" style="fill-rule:evenodd;opacity:0.5;mix-blend-mode:multiply;fill:url(#Áåçûìÿííûé_ãðàäèåíò_68-16)"/><path d="M108.69,562.44c-.08.12-.16.27-.24.39.2.32.44.6.64.88l-1.2,0-10.26-.28-3.07-.08h-.19l-18.59-.48-.71-.75v0c.23-2.07.51-4.22.83-6.49.12-.87.24-1.79.36-2.7.56-4.18,1.23-8.44,1.95-12.3.28-1.47.56-2.9.83-4.22.16-.67.28-1.35.44-2s.28-1.23.44-1.79a27.43,27.43,0,0,1,1.51-4.38c.6-1.19,1.32-2.46,2.15-3.78a33.52,33.52,0,0,0,3.74,7.84,22.86,22.86,0,0,0,8.2,7.84c.84.48,1.75.92,2.63,1.39l.75.4c3.15,1.67,6.45,3.31,9.39,4.78,3.27,1.59,6.17,2.94,8.28,3.94-2.11,3-3.94,5.81-5.57,8.31C110.2,560.17,109.41,561.32,108.69,562.44Z" style="fill-rule:evenodd;opacity:0.5;mix-blend-mode:multiply;fill:url(#Áåçûìÿííûé_ãðàäèåíò_68-17)"/><path d="M112.58,495.87s3.89,21.23,7,22S135,512,135,512l12.74-8.28s-15.54,7.19-23.13,4.85S112.58,495.87,112.58,495.87Z" style="fill-rule:evenodd;opacity:0.5;mix-blend-mode:multiply;fill:url(#Áåçûìÿííûé_ãðàäèåíò_68-18)"/><path d="M110.84,566.3,89.67,615.56c-.4-.28-.8-.52-1.19-.76s-.68-.43-1-.63a23,23,0,0,0-3.3-1.64c-.28-.11-.56-.15-.84-.27a10.07,10.07,0,0,0-1-.44c-5.33-2.27-10.75-4.22-16.08-6.49-.32-.12-.59-.28-.91-.4s-.72-.31-1.12-.51L71.09,539a28.65,28.65,0,0,1,5.33,1c.08,0,.16,0,.24.08.47.12,1,.28,1.55.44,1.15.36,2.43.8,3.78,1.31.24.08.48.2.76.32.47.2,1,.4,1.47.68A51.66,51.66,0,0,1,93.33,548c.32.2.6.4.92.64.71.48,1.47,1,2.18,1.59a58.88,58.88,0,0,1,4.62,4.1,61.92,61.92,0,0,1,6.49,7.28h0c0,.08.12.16.16.24.23.32.47.64.71,1s.44.6.64.88l.28.4h0C109.88,564.86,110.4,565.54,110.84,566.3Z" style="fill-rule:evenodd;fill:url(#Áåçûìÿííûé_ãðàäèåíò_75-4)"/><path d="M110.84,566.3,89.67,615.56c-.4-.28-.8-.52-1.19-.76.87-3.86,1.63-8.27,2.3-12.89,1.16-8.28,2-17.27,2.63-25.11.2-2.31.36-4.54.52-6.6,0-.76.08-1.48.12-2.19.12-1.71.24-3.31.32-4.7.27-4.85.35-7.92.35-7.92a93.91,93.91,0,0,1,13,6.49c.31.16.63.36,1,.56-.08.12-.16.27-.24.39.2.32.44.6.64.88l.28.4h0C109.88,564.86,110.4,565.54,110.84,566.3Z" style="fill-rule:evenodd;opacity:0.5;mix-blend-mode:multiply;fill:url(#Áåçûìÿííûé_ãðàäèåíò_74-3)"/><path d="M249.11,504.15S273.42,490.23,286,488l0-7.25-38.89,8.28S249.67,497.85,249.11,504.15Z" style="fill:#40004c;fill-rule:evenodd;opacity:0.6000000000000001"/><path d="M413.89,390.52s11.82-4.87,20.68-4.57,22.1,3,22.1,3a193,193,0,0,0-20.15,0C425.32,389.55,413.89,390.52,413.89,390.52Z" style="fill:#40004c;fill-rule:evenodd;opacity:0.30000000000000004"/><g style="mix-blend-mode:multiply"><path d="M241.39,387.31c.85,5.21,3.18,8,8.54,6.79,3.45-.79,5.47-4.18,4.85-8.33s-4.39-7.67-8.15-7.12S240.76,384.92,241.39,387.31Z" style="fill:#efc0d2;fill-rule:evenodd"/><path d="M250.33,401.6c.16-3,2.07-4.68,3.68-5a4.21,4.21,0,0,1,3.78,1.61,6.07,6.07,0,0,1,1.49,5.61,12.35,12.35,0,0,1-1.15,2.92c-.6.79-1.8.26-2.48.07-1.24-.34-1.69-1-2.55-2.35S250.27,404.25,250.33,401.6Z" style="fill:#efc0d2;fill-rule:evenodd"/><path d="M243.93,402.43c1-3.05,3,.43,1.72,2.17-.84,1.17-1.82,0-1.94-1.5Z" style="fill:#efc0d2;fill-rule:evenodd"/><path d="M198.72,458.65c1.06-3,3,.43,1.72,2.17-.84,1.17-1.81,0-1.93-1.5Z" style="fill:#efc0d2;fill-rule:evenodd"/><path d="M246.78,390.84c.71-2,2,.29,1.15,1.45-.56.78-1.21,0-1.29-1Z" style="fill:#efc0d2;fill-rule:evenodd"/><path d="M259,394.31c-1.52,3.44,2.47,5.11,2.8.79-.8-1.68-2.27-2.07-3.23-.43Z" style="fill:#efc0d2;fill-rule:evenodd"/><path d="M304.25,463.49c-1.53,3.43,2.47,5.1,2.79.79-.79-1.68-2.27-2.07-3.22-.43Z" style="fill:#efc0d2;fill-rule:evenodd"/><path d="M283.9,425.86c2.12-4.48,6.23-6.23,9.15-2.94.77.86,1.86,2.42.95,3.82-.8,1.23-4.6,0-5.67,0C286.8,426.76,285.22,426.86,283.9,425.86Z" style="fill:#efc0d2;fill-rule:evenodd"/><path d="M241.53,417.53c.28,3.16,3.66,2.06,3.16-.55-.33-1.73-2.18-2.17-2.51-.52Z" style="fill:#efc0d2;fill-rule:evenodd"/><path d="M269.62,433.26c.56-5.05,3.89,2.69.69,2.08a7.45,7.45,0,0,0-.26-1Z" style="fill:#efc0d2;fill-rule:evenodd"/><path d="M261.76,403c-.44,3.39,2.19,2.71,2.18,0,0-2.26-1.8-3.06-2.18-.7Z" style="fill:#efc0d2;fill-rule:evenodd"/><path d="M247.46,381.2c-4.75,6.6,5.49,4.63.87.95Z" style="fill:#efc0d2;fill-rule:evenodd"/><path d="M181.12,455c-4.76,6.6,5.49,4.63.87,1Z" style="fill:#efc0d2;fill-rule:evenodd"/><path d="M227.21,399c-1.17,2-.72,6.06,1.37,4.59,1.59-1.13,1.23-5.73-.72-4.23Z" style="fill:#efc0d2;fill-rule:evenodd"/><path d="M237.51,418.25c.39-2.18,2.05-2.21,2,0-.07,1.85-1.18,1.65-1.53.36Z" style="fill:#efc0d2;fill-rule:evenodd"/><path d="M306.25,297.15c-.17,1.9.8,3.33,4,4.12,2.07.51,3.66-.64,3.83-1.64s-1.56-2.48-3.78-3.14S306.2,296.23,306.25,297.15Z" style="fill:#efc0d2;fill-rule:evenodd"/><path d="M232.66,329.24c.17-3,2.08-4.68,3.69-5a4.17,4.17,0,0,1,3.78,1.6,6.07,6.07,0,0,1,1.48,5.61,12.34,12.34,0,0,1-1.14,2.92c-.6.79-1.8.26-2.48.07-1.24-.34-1.69-1-2.55-2.35S232.6,331.89,232.66,329.24Z" style="fill:#efc0d2;fill-rule:evenodd"/><path d="M226.75,303c1.05-3.05,3,.43,1.72,2.17-.84,1.17-1.82,0-1.94-1.5Z" style="fill:#efc0d2;fill-rule:evenodd"/><path d="M229.6,291.4c.71-2,2,.29,1.15,1.45-.56.78-1.21,0-1.29-1Z" style="fill:#efc0d2;fill-rule:evenodd"/><path d="M241.32,322c-1.52,3.43,2.47,5.1,2.8.78-.8-1.68-2.27-2.07-3.23-.43Z" style="fill:#efc0d2;fill-rule:evenodd"/><path d="M224.35,318.09c.28,3.16,3.66,2.06,3.16-.55-.33-1.73-2.18-2.18-2.51-.52Z" style="fill:#efc0d2;fill-rule:evenodd"/><path d="M244.1,330.59c-.44,3.39,2.19,2.71,2.18,0,0-2.26-1.8-3.05-2.18-.7Z" style="fill:#efc0d2;fill-rule:evenodd"/><path d="M210,299.51c-1.17,2-.72,6.06,1.37,4.59,1.59-1.13,1.23-5.73-.72-4.24Z" style="fill:#efc0d2;fill-rule:evenodd"/><path d="M220.33,318.81c.39-2.18,2-2.21,2,0-.07,1.85-1.18,1.64-1.53.36Z" style="fill:#efc0d2;fill-rule:evenodd"/><path d="M264.52,435.88A4.89,4.89,0,0,0,265.7,434c-.79-1.11-.83-.25-1.18.82Z" style="fill:#efc0d2;fill-rule:evenodd"/></g><path d="M324.05,477.36c-20.22-4.26-56.83,10.15-95,14.36s-65.06-3.9-65.06-3.9l-9.07-7.32c6.64,2.51,36,12.42,74.69,9.16C273.71,486,303.59,469.2,324.05,477.36Z" style="fill:#40004c;fill-rule:evenodd;opacity:0.6000000000000001"/><path d="M380.53,332.64s-3.29,1.65-4.28,4.33c0,0,5.36-2.23,14.12,0s15,5.45,25.7,5.55S428.87,344,432.7,347s10.73,6,19.1,8.27,20.26-1.65,20.26-1.65v-1.17s-18.92,1.92-25.38.81-12.27-9.57-15.81-11-20.2-.62-28.23-2.71S380.53,332.64,380.53,332.64Z" style="fill:#d2a2de;fill-rule:evenodd;mix-blend-mode:soft-light"/><path d="M406,375.2s8.93,1.46,17.19-1.47,10.33-6.6,14.94-6.85a31.68,31.68,0,0,1,6,0l.62-1.38s1.1-.16-9.93,1.33S409.36,372.48,406,375.2Z" style="fill:#d2a2de;fill-rule:evenodd;mix-blend-mode:soft-light"/><path d="M275.83,39.42C350,60,424,80.33,500.18,92.46c23.61-7,35.08-6.61,56.25-8.33-19.9-9.76-30-20.11-50.53-34.43C431,34.92,356.1,32.65,280.11,25.94,278.9,32.24,277,33.13,275.83,39.42Z" style="fill:#ffff9a;fill-rule:evenodd"/><path d="M273.51,63.71c.5.1,9.75-63.56,9.75-63.56S273.51,63.71,273.51,63.71Z" style="fill:#cc4c60;fill-rule:evenodd"/><path d="M275.83,42.9C350,63.49,424,83.82,500.18,95.94c23.61-7,35.08-10.09,56.25-11.81-19.9-9.76-30-16.63-50.53-30.95-74.95-14.78-151-19.3-227-26Z" style="fill:#84798b;fill-rule:evenodd"/><path d="M276.75,38.12c70.4,16.75,140.73,33.52,211.89,46.78,10.63-3.59,15.87-5.23,26.1-7.88-8.53-5.85-12.81-9.07-21.39-15.79C422,48.66,349.92,40.72,278.08,31.25,277.55,34,277.28,35.38,276.75,38.12Z" style="fill:#6d6075;fill-rule:evenodd"/><path d="M514.74,77c17.16,2.68,25.54,4.06,41.69,7.11-21.17,1.72-32.64,4.8-56.25,11.81C424,83.82,350,63.49,275.83,42.9c.37-1.91.55-2.87.92-4.78,70.4,16.75,140.73,33.52,211.89,46.78C499.27,81.31,504.51,79.67,514.74,77Z" style="fill:#a79fbd;fill-rule:evenodd"/><path d="M416,79.25c-3.2-3.73-4.8-5.61-8-9.37,1.26,3.29,1.89,4.93,3.16,8.2Z" style="fill:#6d6075;fill-rule:evenodd"/><path d="M516.39,91.42c-4.15-1-6.24-1.56-10.42-2.69,4.89.94,7.33,1.39,12.17,2.24Z" style="fill:#6d6075;fill-rule:evenodd"/><path d="M365.06,38.52c-.56,3-.85,4.45-1.42,7.41l-2.34-.24C362.8,42.83,363.56,41.4,365.06,38.52Z" style="fill:#6d6075;fill-rule:evenodd"/><path d="M202.4,23.36c.58-3,.85-4.47,1.44-7.46,5.16.15,10.21.43,15.18.88,3.85.29,7.6.69,11.33,1.19a318.65,318.65,0,0,1,42,8.5c-1.16,5.48-1.74,8.22-2.9,13.67a200.8,200.8,0,0,1-47.12-9.33q-4.69-1.51-9.3-3.26C209.44,26.26,205.91,24.85,202.4,23.36Z" style="fill:#695b71;fill-rule:evenodd"/><path d="M206.94,25.11a86.5,86.5,0,0,1-19.11-.54S177.06,16.07,191,8.14a78.75,78.75,0,0,1,18.68,8.15S206.14,17.86,206.94,25.11Z" style="fill:#44324e;fill-rule:evenodd"/><path d="M223.84,31.08s-10.17-8.2-7.94-14.46l2.23.13s-2.86,3.91,8.38,15.07Z" style="fill:#f65b3b;fill-rule:evenodd"/><path d="M243.71,36.23s-9.42-8.57-8.84-18l3.49.46s-2.6,4.56,8.24,18.35Z" style="fill:#f65b3b;fill-rule:evenodd"/><path d="M261.08,38.91A26.16,26.16,0,0,1,256.46,22l2.12.56s-.67,6.91,4.47,16.5Z" style="fill:#f65b3b;fill-rule:evenodd"/><path d="M187.83,24.57S160.72,16.51,191,8.14C191,8.14,180.73,11.49,187.83,24.57Z" style="fill:#f65b3b;fill-rule:evenodd"/><path d="M273.51,63.71c4.29-20.26,8.92-42.37,12.16-63.56C281.2.06,279,0,274.5,0c.75,20.58-5.07,42.81-13.15,61.48C267.12,62.51,267.63,63,273.51,63.71Z" style="fill:#ffff9a;fill-rule:evenodd"/><path d="M273.51,63.71Q278.4,31.93,283.26.15C278.79.06,276.55,0,272.09,0c.75,20.58-5.07,42.81-13.15,61.48C264.71,62.51,267.63,63,273.51,63.71Z" style="fill:#f99560;fill-rule:evenodd"/><path d="M263.34,22.08a52.87,52.87,0,0,0-13.89,7s-5.68,0-16.86.68a48.43,48.43,0,0,1-20.22-3.32s37.36-3.67,37.62-4.36,5.12-15.52,5.12-15.52l.71.54S263.23,10.29,263.34,22.08Z" style="fill-rule:evenodd;opacity:0.5;mix-blend-mode:multiply;fill:url(#Áåçûìÿííûé_ãðàäèåíò_68-19)"/><path d="M212.37,26.43s7.72,5.13,37.08,2.64a45.64,45.64,0,0,1,13.89-7,37.72,37.72,0,0,0-1.44-7.17Z" style="fill:#40004c;fill-rule:evenodd;opacity:0.30000000000000004"/><path d="M256,3.85s-4.33,12.65-4.75,20c0,0-6.14,3.37-16.67,4a112.88,112.88,0,0,1-22.19-1.44s-3.09-10,0-14.74c0,0,21.84-3.57,25.85-4.71s15.53-4.19,15.53-4.19Z" style="fill-rule:evenodd;fill:url(#Áåçûìÿííûé_ãðàäèåíò_42-4)"/><path d="M252.18,48.81s-7.33-1.7-6.92-4.9,10.68-6.86,10.68-6.86l5.22,0S256.73,40.27,252.18,48.81Z" style="fill-rule:evenodd;opacity:0.5;mix-blend-mode:multiply;fill:url(#Áåçûìÿííûé_ãðàäèåíò_41-5)"/><path d="M216.94,10.39s11.32,1.29,18.84-1.12,18.2-8,18.2-8A171.33,171.33,0,0,1,236.71,6.2C227,8.44,216.94,10.39,216.94,10.39Z" style="fill:#40004c;fill-rule:evenodd;opacity:0.30000000000000004"/><path d="M213.9,25.45A34.94,34.94,0,0,1,229,22.52c7.79.51,10.47,3.13,14.48,2.22a28.09,28.09,0,0,0,5.12-1.46l.86,1s1-.13-8.83,1.28S217.46,27,213.9,25.45Z" style="fill:#d2a2de;fill-rule:evenodd;mix-blend-mode:soft-light"/><path d="M273.23,316.44c-4.89-4.26-13-12.56-13.45-14,.64-2.11,1.67-7.26,4.22-10.28-3.62,1.19-11.16,5.31-11.16,5.31s-17.29-3-20.39-9.77a5.28,5.28,0,0,0,.87.36,6.54,6.54,0,0,0,1.31.47c.48.16,1,.28,1.52.4a5.3,5.3,0,0,0,.87.2c10.63,2.19,28.65.76,28.65.76S270.21,312.7,273.23,316.44Z" style="fill-rule:evenodd;opacity:0.5;mix-blend-mode:multiply;fill:url(#Áåçûìÿííûé_ãðàäèåíò_68-20)"/><path d="M292.64,106.59l1,8.64,3.95,5.64,10.56-17.5S304.69,97,300.65,96c-.2-.05-1.87,4.33-2.07,4.32s1.71-5.55,1.62-5.55a4.7,4.7,0,0,0-2.62.8c-.26.2-1.47,6.27-1.73,6.54s.34-3.27,0-2.78A25.92,25.92,0,0,0,292.64,106.59Z" style="fill:#8d3145"/><path d="M276.24,23c-3.46-3.26-12.9-.91-12.9-.91s0,0,0,0a9.67,9.67,0,0,1-2.09.45c-8.74.94-13.23,10.34-17.31,17a77.8,77.8,0,0,0-6.56,13.38c6.52-1.76,13.63-3.29,14.81-4.1,1.82-1.25,6.3-10.2,9.83-12.37s16.27-6.27,16.27-6.27Z" style="fill-rule:evenodd;fill:url(#Áåçûìÿííûé_ãðàäèåíò_42-5)"/><path d="M202.48,68.14s-3.23-.6-4.73-2.66c0,0,5.14.6,12.1-3.45s11.52-8.33,20.68-11,10.61-4.38,13.15-7.9S251.4,35.31,258,31.35s17.76-3.53,17.76-3.53l.29,1s-16.69,3-21.95,5.5S246,45.52,243.28,47.61s-17.17,5.46-23.54,9.22S202.48,68.14,202.48,68.14Z" style="fill:#d2a2de;fill-rule:evenodd;mix-blend-mode:soft-light"/><path d="M27.32,644.29l1,5H91.22l2.45-5.92S57.15,644.27,27.32,644.29Z" style="fill:#30101d;fill-rule:evenodd"/><path d="M46.22,627.06S67.13,631.46,67.9,644h.83s-1.66-13.08,18.84-13.46l-.49-8.38S73.66,625.78,69.59,635a59.25,59.25,0,0,0-18.35-12.47Z" style="fill-rule:evenodd;fill:url(#Áåçûìÿííûé_ãðàäèåíò_75-5)"/><path d="M59.37,636.48s-6.08,4.56-6.66,7.63h2.22A19,19,0,0,1,59.37,636.48Z" style="fill-rule:evenodd;opacity:0.5;mix-blend-mode:multiply;fill:url(#Áåçûìÿííûé_ãðàäèåíò_156-2)"/><path d="M44.23,644.11s2.31-4.83,6.36-7c0,0-6.94,2.89-8.19,7.13Z" style="fill-rule:evenodd;opacity:0.5;mix-blend-mode:multiply;fill:url(#Áåçûìÿííûé_ãðàäèåíò_156-3)"/><path d="M34.39,644.39s2.7-5,6-6.17C40.37,638.22,34.88,642.84,34.39,644.39Z" style="fill-rule:evenodd;opacity:0.5;mix-blend-mode:multiply;fill:url(#Áåçûìÿííûé_ãðàäèåíò_156-4)"/><path d="M73.22,637.16s7.33-2.7,12.6-.68C85.82,636.48,82.61,629.7,73.22,637.16Z" style="fill:#ffead1;fill-rule:evenodd;mix-blend-mode:soft-light"/><path d="M57.25,641.3l8.73-1S61.73,637.06,57.25,641.3Z" style="fill:#ffead1;fill-rule:evenodd;mix-blend-mode:soft-light"/><path d="M52.71,641.3H46.83s3.14-2.44,5.11-2.19S52.71,641.3,52.71,641.3Z" style="fill:#ffead1;fill-rule:evenodd;mix-blend-mode:soft-light"/><path d="M37.38,641.74,44,641.3S41.09,638.6,37.38,641.74Z" style="fill:#ffead1;fill-rule:evenodd;mix-blend-mode:soft-light"/><path d="M31.36,639.1l4.33,1.62S38.88,635.15,31.36,639.1Z" style="fill:#ffead1;fill-rule:evenodd;mix-blend-mode:soft-light"/><path d="M330.92,101.1c5.53-1,20.86,3.05,23,4.82,3.35-2.64,10.19-2.69,10.19-2.69s-6.18-1.57-10.19.68C348.73,103,338.83,97.91,330.92,101.1Z" style="fill-rule:evenodd;opacity:0.5;mix-blend-mode:multiply;fill:url(#Áåçûìÿííûé_ãðàäèåíò_68-21)"/><path d="M341,98.75c3-.55,11.21,2.5,12.32,3.74,1.89-1.7,5.59-1.58,5.59-1.58s-3.3-1.19-5.53.23C350.57,100.42,345.35,96.79,341,98.75Z" style="fill-rule:evenodd;opacity:0.5;mix-blend-mode:multiply;fill:url(#Áåçûìÿííûé_ãðàäèåíò_68-22)"/><path d="M373.91,366.38c-21.37,2.58-37.05,1.07-47.16-1a84.43,84.43,0,0,1-9.63-2.58l-12.41-6.33-5.57-6.76v-5.58s.4-16.11-2.19-26.46l-.8.48c1.55-28.33,6.61-35,6.61-35L354,253.05a104.5,104.5,0,0,1-7.76,22.28c1,22.17-3.54,38.88-6.29,44.17l21.37,6.37c11.62,5,18.47,7.2,18.47,7.2A65.77,65.77,0,0,0,373.91,366.38Z" style="fill:#8b6da5;fill-rule:evenodd;opacity:0.5;mix-blend-mode:multiply"/><path d="M335,264l-5.33,6.7s-9.13,150.63,127,216.52l10.94-.21S357.07,359.92,335,264Z" style="fill-rule:evenodd;fill:url(#Áåçûìÿííûé_ãðàäèåíò_57)"/><path d="M469.43,484.37s89.41-69.56,58.49-237.66l-68.58-49.46s-70,19.19-108.13,55.07C351.21,252.32,328.73,419.11,469.43,484.37Z" style="fill:#ffff9a;fill-rule:evenodd"/><path d="M467.59,487S557,417.41,526.08,249.31l-67.8-48.49S409,210.15,335,264C335,264,326.89,421.71,467.59,487Z" style="fill-rule:evenodd;fill:url(#Áåçûìÿííûé_ãðàäèåíò_32)"/><path d="M522.51,255.15s27.87,132.71-50.28,215c0,0-117.21-38.25-128.45-200.5,0,0,48.7-42.39,117.87-60.55C461.65,209.12,503.89,238,522.51,255.15Z" style="fill-rule:evenodd;fill:url(#radial-gradient)"/><path d="M458.28,200.82S511,327,467.59,487c0,0-131.78-48.35-132.64-223C335,264,377.46,228,458.28,200.82Z" style="fill-rule:evenodd;opacity:0.86;mix-blend-mode:multiply;fill:url(#Áåçûìÿííûé_ãðàäèåíò_8)"/><path d="M379.28,241.34s-27.72,16.89-36.4,27.19c0,0-.66,45.83,20.63,94.37l-8.65,5.4S333.09,313.17,335,264c0,0,25.44-19.2,44.25-29Z" style="fill-rule:evenodd;mix-blend-mode:soft-light;fill:url(#Áåçûìÿííûé_ãðàäèåíò_45)"/><path d="M377.3,389a104.21,104.21,0,0,1-10.84-20.23l-9.27,4.7a211.85,211.85,0,0,0,12.64,25.41Z" style="fill-rule:evenodd;mix-blend-mode:soft-light;fill:url(#Áåçûìÿííûé_ãðàäèåíò_45-2)"/></g></g></g></svg>