<svg xmlns="http://www.w3.org/2000/svg" xmlns:xlink="http://www.w3.org/1999/xlink" viewBox="0 0 128.19 135.03"><defs><radialGradient id="Áåçûìÿííûé_ãðàäèåíò_377" cx="63.49" cy="33.66" r="61.66" gradientUnits="userSpaceOnUse"><stop offset="0" stop-color="#e3522f"/><stop offset="0.96" stop-color="#a72a2e"/></radialGradient><radialGradient id="Áåçûìÿííûé_ãðàäèåíò_368" cx="13.42" cy="72.51" r="9.57" gradientUnits="userSpaceOnUse"><stop offset="0" stop-color="#ffc827"/><stop offset="1" stop-color="#ff741f"/></radialGradient><radialGradient id="Áåçûìÿííûé_ãðàäèåíò_368-2" cx="17.83" cy="16.84" r="8.06" xlink:href="#Áåçûìÿííûé_ãðàäèåíò_368"/><radialGradient id="Áåçûìÿííûé_ãðàäèåíò_405" cx="120.06" cy="81.12" r="16.11" gradientUnits="userSpaceOnUse"><stop offset="0" stop-color="#ffc827"/><stop offset="0.97" stop-color="#ff741f"/></radialGradient><radialGradient id="Áåçûìÿííûé_ãðàäèåíò_368-3" cx="107.44" cy="0.42" r="10.23" xlink:href="#Áåçûìÿííûé_ãðàäèåíò_368"/><radialGradient id="Áåçûìÿííûé_ãðàäèåíò_368-4" cx="64.7" cy="59.15" r="27.78" xlink:href="#Áåçûìÿííûé_ãðàäèåíò_368"/><radialGradient id="Áåçûìÿííûé_ãðàäèåíò_389" cx="64.62" cy="51.79" r="20.33" gradientUnits="userSpaceOnUse"><stop offset="0" stop-color="#7effbc"/><stop offset="0.57" stop-color="#5ba3d1"/><stop offset="1" stop-color="#7a5e89"/></radialGradient><linearGradient id="Áåçûìÿííûé_ãðàäèåíò_149" x1="44.51" y1="42.12" x2="84.31" y2="42.12" gradientUnits="userSpaceOnUse"><stop offset="0" stop-color="#c77cbd"/><stop offset="1" stop-color="#974577"/></linearGradient><radialGradient id="Áåçûìÿííûé_ãðàäèåíò_254" cx="66.95" cy="2028.47" r="22.38" gradientTransform="translate(0 -1601.78) scale(1 0.8)" gradientUnits="userSpaceOnUse"><stop offset="0" stop-color="#00ff91"/><stop offset="1" stop-color="#00c7ef"/></radialGradient><linearGradient id="Áåçûìÿííûé_ãðàäèåíò_149-2" x1="5.39" y1="29.5" x2="22.01" y2="29.5" xlink:href="#Áåçûìÿííûé_ãðàäèåíò_149"/><linearGradient id="Áåçûìÿííûé_ãðàäèåíò_149-3" x1="0" y1="88.31" x2="17.97" y2="88.31" xlink:href="#Áåçûìÿííûé_ãðàäèåíò_149"/><linearGradient id="Áåçûìÿííûé_ãðàäèåíò_149-4" x1="82.44" y1="15.68" x2="111.52" y2="15.68" xlink:href="#Áåçûìÿííûé_ãðàäèåíò_149"/><linearGradient id="Áåçûìÿííûé_ãðàäèåíò_419" x1="37.05" y1="135.03" x2="37.05" y2="106.6" gradientUnits="userSpaceOnUse"><stop offset="0" stop-color="#c2132d"/><stop offset="0.96" stop-color="#8e0a2e"/></linearGradient><radialGradient id="Áåçûìÿííûé_ãðàäèåíò_405-2" cx="36.82" cy="119.41" r="11.47" xlink:href="#Áåçûìÿííûé_ãðàäèåíò_405"/><linearGradient id="Áåçûìÿííûé_ãðàäèåíò_419-2" x1="39.32" y1="131.76" x2="39.32" y2="103.34" gradientTransform="matrix(-1, 0, 0, 1, 144.11, 0)" xlink:href="#Áåçûìÿííûé_ãðàäèåíò_419"/><radialGradient id="Áåçûìÿííûé_ãðàäèåíò_405-3" cx="39.09" cy="116.15" r="11.47" gradientTransform="matrix(-1, 0, 0, 1, 144.11, 0)" xlink:href="#Áåçûìÿííûé_ãðàäèåíò_405"/><linearGradient id="Áåçûìÿííûé_ãðàäèåíò_149-5" x1="28.27" y1="113.98" x2="49.58" y2="113.98" xlink:href="#Áåçûìÿííûé_ãðàäèåíò_149"/><linearGradient id="Áåçûìÿííûé_ãðàäèåíò_149-6" x1="91.22" y1="112.79" x2="111.29" y2="112.79" xlink:href="#Áåçûìÿííûé_ãðàäèåíò_149"/></defs><g style="isolation:isolate"><g id="Calque_2" data-name="Calque 2"><g id="game"><path d="M1.86,95.69,10.05,5.36a389.71,389.71,0,0,1,48-3.43c31.06,0,52.79.88,52.79.88l14.23,92.88Z" style="fill-rule:evenodd;fill:url(#Áåçûìÿííûé_ãðàäèåíò_377)"/><path d="M1.86,95.69S1.12,113,15.06,121.36H118l1.8-4.75L115,95.69Z" style="fill:#721332;fill-rule:evenodd"/><polygon points="125.11 95.69 123.93 100.72 2.22 100.72 1.86 95.69 125.11 95.69" style="fill:#721332;fill-rule:evenodd"/><polygon points="119.84 116.61 16.36 117.55 17.81 116.1 117.51 106.6 119.84 116.61" style="fill:#8b2032;fill-rule:evenodd"/><path d="M119.84,100.72a33.71,33.71,0,0,0-3.72,14.69l-98.31.69s-8.65-6-8.83-15.38Z" style="fill:#a75c73;fill-rule:evenodd"/><path d="M9,100.72h2.45a25.44,25.44,0,0,0,7,15.38H17.32S8.26,109.93,9,100.72Z" style="fill:#3a2f66;fill-rule:evenodd"/><polygon points="13.67 95.69 20.42 4.1 21.27 4 15.56 95.69 13.67 95.69" style="fill:#812248;fill-rule:evenodd"/><path d="M18,80.93l.19-6.36L1.86,72.1A63.52,63.52,0,0,0,.13,80.93,41.94,41.94,0,0,0,1.86,95.69l1-12,13.58-.12Z" style="fill-rule:evenodd;fill:url(#Áåçûìÿííûé_ãðàäèåíò_368)"/><path d="M18,80.93H.13s-.39,8.41,1.73,14.76L3.31,84l13.1-.42Z" style="fill:#c4434a;fill-rule:evenodd"/><path d="M22,22.7l.16-5.86L6.8,16.5a16,16,0,0,0-1.21,5.68A46.93,46.93,0,0,0,7.16,36.29l.9-11,12.51-.11Z" style="fill-rule:evenodd;fill:url(#Áåçûìÿííûé_ãðàäèåíò_368-2)"/><path d="M22,22.7H5.57s-.36,7.75,1.59,13.59L8.5,25.53l12.07-.39Z" style="fill:#c4434a;fill-rule:evenodd"/><path d="M89.41,92.84l-.54,9.26,39.32-3.89-5.41-27H117.1s1.8,10.47-3,16S89.41,92.84,89.41,92.84Z" style="fill-rule:evenodd;fill:url(#Áåçûìÿííûé_ãðàäèåíò_405)"/><path d="M128.19,98.21l-3.08,3.89H88.87l.54-9.26v5.37S110.15,100.33,128.19,98.21Z" style="fill:#bd2a4a;fill-rule:evenodd"/><path d="M117.1,71.19l-.69,4.51s.33,8.51-2.84,12C113.57,87.71,119.59,83.7,117.1,71.19Z" style="fill:#c4434a;fill-rule:evenodd"/><path d="M81.48,0l1.08,5.36s16-1.17,21.73,2.25S111.6,24,111.6,24h5.05L112.5.76Z" style="fill-rule:evenodd;fill:url(#Áåçûìÿííûé_ãðàäèåíò_368-3)"/><path d="M116.65,24l-1.74,5.14-.4-2.57h-3.69s-2.08-13.71-7.58-17.27S82.44,7,82.44,7l-1-4.88H80.15L81.48,0l1.08,5.36s15.5-2.05,22.17,2.54C110.65,12,111.6,24,111.6,24Z" style="fill:#bd2a4a;fill-rule:evenodd"/><path d="M88.06,116.9v5.34h30.75l2.71-6.14L117.7,106s-1.75,6.15-1.58,9.46l-28.06.2Z" style="fill:#bd2a4a;fill-rule:evenodd"/><path d="M64.41,19.51c-17.66,0-32,10.22-32,22.83s14.32,22.82,32,22.82,32-10.22,32-22.82S82.07,19.51,64.41,19.51Zm0,43.67c-16.5,0-29.87-9.55-29.87-21.33S47.91,20.53,64.41,20.53s29.87,9.55,29.87,21.32S80.91,63.18,64.41,63.18Z" style="fill-rule:evenodd;fill:url(#Áåçûìÿííûé_ãðàäèåíò_368-4)"/><path d="M88.06,116.9l33.46-.8L117.7,106s-2,8.11-1.58,9.46l-28.06.2Z" style="fill:#ff5f4a;fill-rule:evenodd"/><ellipse cx="64.41" cy="39.48" rx="23.4" ry="16.7" style="fill:url(#Áåçûìÿííûé_ãðàäèåíò_389)"/><ellipse cx="64.41" cy="42.12" rx="19.9" ry="18.92" style="opacity:0.8;mix-blend-mode:multiply;fill:url(#Áåçûìÿííûé_ãðàäèåíò_149)"/><ellipse cx="65.15" cy="36.98" rx="19.9" ry="14.21" style="fill:url(#Áåçûìÿííûé_ãðàäèåíò_254)"/><path d="M48.24,39.48s2.55-3.69,10-.93S66,50.43,66,50.43,49.25,48.16,48.24,39.48Z" style="fill:#fff;fill-rule:evenodd;mix-blend-mode:soft-light"/><path d="M78.67,29c-.35.61-2,.33-3.62-.62s-2.7-2.22-2.35-2.83,2-.33,3.62.62S79,28.42,78.67,29Z" style="fill:#fff;fill-rule:evenodd"/><path d="M22,22.7l-1.44,2.44L7.89,30.48l-.73,5.81S4.71,27.93,5.57,22.7Z" style="fill-rule:evenodd;opacity:0.8;mix-blend-mode:multiply;fill:url(#Áåçûìÿííûé_ãðàäèåíò_149-2)"/><path d="M18,80.93l-1.56,2.65L2.56,90.06l-.7,5.63A35.79,35.79,0,0,1,.13,80.93Z" style="fill-rule:evenodd;opacity:0.8;mix-blend-mode:multiply;fill:url(#Áåçûìÿííûé_ãðàäèåíò_149-3)"/><path d="M106.67,9.7l6.9-3,1.74,9.76-4.86,1.23S109,11.79,106.67,9.7Z" style="fill:#ffc71f;fill-rule:evenodd"/><path d="M113.57,87.71l13.55,5.13-2-10-8-1.1S116,86.17,113.57,87.71Z" style="fill:#ffc71f;fill-rule:evenodd"/><polygon points="19.43 95.69 24.84 94.91 44.51 94.01 59.74 95.69 51.17 97.47 19.43 95.69" style="fill:#b84525;fill-rule:evenodd"/><polygon points="64.41 95.69 66.96 94.01 78.95 95.74 70.29 96.11 64.41 95.69" style="fill:#b84525;fill-rule:evenodd"/><polygon points="52.13 117.23 56.04 116.9 68.1 116.9 69.75 117.23 65.06 118.09 52.5 117.5 52.13 117.23" style="fill:#a63931;fill-rule:evenodd"/><path d="M26.05,81.3c1-1.48,9.93-5.67,13.54-5.23s3.17,8,2.91,9.5-11.82,2.28-14.17.69S25.52,82.07,26.05,81.3Z" style="fill:#8275a0;fill-rule:evenodd;opacity:0.2;mix-blend-mode:multiply"/><path d="M48.4,81.81c-1.33.87,2.28,4.67,3.61,5s3.31-3.89,3.31-5S50.46,80.45,48.4,81.81Z" style="fill:#8275a0;fill-rule:evenodd;opacity:0.2;mix-blend-mode:multiply"/><path d="M38.55,14.85c-1.08.42.77,2.35,1.86,2.36,2,0,3.79-1.85,3.79-2.36S40.24,14.21,38.55,14.85Z" style="fill:#8275a0;fill-rule:evenodd;opacity:0.2;mix-blend-mode:multiply"/><path d="M45.25,15.81c1-3.24,13.14-6,15.75-5.31s6.32,3.24,6.32,4.05-5.2,3.2-11,3.18A36.56,36.56,0,0,1,45.25,15.81Z" style="fill:#8275a0;fill-rule:evenodd;opacity:0.4;mix-blend-mode:multiply"/><polygon points="114.81 28.47 114.51 41.85 116.65 43.98 116.65 47.57 120.34 71.19 121.36 71.19 114.81 28.47" style="fill:#781d3b;fill-rule:evenodd"/><path d="M111.52,23.2l-.7,3.34s-3.34-10.92-8.6-14.55S82.44,7,82.44,7l.12-1.62S98.91,3,105.25,8.29C110.38,12.62,111.52,23.2,111.52,23.2Z" style="fill-rule:evenodd;opacity:0.6000000000000001;mix-blend-mode:multiply;fill:url(#Áåçûìÿííûé_ãðàäèåíò_149-4)"/><path d="M32.43,106.6s-5,8.24-6.58,22.67L34.26,135l11.51-5.76s-.46-13.54,2.47-22.67Z" style="fill-rule:evenodd;fill:url(#Áåçûìÿííûé_ãðàäèåíò_419)"/><path d="M34.26,132.29l-.06,0-7.24-4,0-.09c2.05-13.84,7.13-21.56,7.18-21.64l.2.13c0,.08-5.08,7.73-7.14,21.47l7,3.89,8.29-4.17c0-1.12.55-14.88,3.92-21.31l.21.11c-3.46,6.62-3.89,21.13-3.89,21.27V128l-.06,0Z" style="fill:url(#Áåçûìÿííûé_ãðàäèåíò_405-2)"/><path d="M109.41,103.34s5,8.24,6.58,22.67l-8.41,5.75L96.07,126s.45-13.55-2.48-22.67Z" style="fill-rule:evenodd;fill:url(#Áåçûìÿííûé_ãðàäèåíò_419-2)"/><path d="M107.58,129l-.06,0-8.47-4.28v-.07c0-.14-.43-14.65-3.89-21.27l.21-.11c3.36,6.43,3.88,20.19,3.92,21.31l8.29,4.17,7-3.89c-2-13.74-7.08-21.39-7.13-21.47l.2-.13c0,.08,5.13,7.8,7.18,21.64V125l-.07,0Z" style="fill:url(#Áåçûìÿííûé_ãðàäèåíò_405-3)"/><path d="M28.27,116.9l17.67,3.91,0,.55h2.5v-4.1l1.17-1.38-1.34-9.28H32.43A42.52,42.52,0,0,0,28.27,116.9Z" style="fill-rule:evenodd;opacity:0.8;mix-blend-mode:multiply;fill:url(#Áåçûìÿííûé_ãðàäèåíò_149-5)"/><path d="M111.29,107.19l-16.56.69a83.34,83.34,0,0,1,1.35,14.36h-4.2l.36-5.44-1-1.21,2.37-12.25h15.82S110.76,105.91,111.29,107.19Z" style="fill-rule:evenodd;opacity:0.8;mix-blend-mode:multiply;fill:url(#Áåçûìÿííûé_ãðàäèåíò_149-6)"/></g></g></g></svg>