<svg xmlns="http://www.w3.org/2000/svg" xmlns:xlink="http://www.w3.org/1999/xlink" viewBox="0 0 100 100"><defs><linearGradient id="Áåçûìÿííûé_ãðàäèåíò_77" x1="-706.32" y1="122.5" x2="-709.93" y2="17.4" gradientTransform="matrix(-1, 0.08, 0.08, 0.94, -659.16, 40.06)" gradientUnits="userSpaceOnUse"><stop offset="0.05" stop-color="#9f3437"/><stop offset="0.98" stop-color="#c0633b"/></linearGradient><linearGradient id="Áåçûìÿííûé_ãðàäèåíò_67" x1="-748.13" y1="87.28" x2="-748.13" y2="12.97" gradientTransform="matrix(-1, 0, 0, 1, -696.16, 0)" gradientUnits="userSpaceOnUse"><stop offset="0.03" stop-color="#d8a4a4"/><stop offset="1" stop-color="#ffe5d2"/></linearGradient><linearGradient id="Áåçûìÿííûé_ãðàäèåíò_86" x1="-750.5" y1="77.7" x2="-750.5" y2="21.89" gradientTransform="matrix(-1, 0, 0, 1, -696.16, 0)" gradientUnits="userSpaceOnUse"><stop offset="0.03" stop-color="#9f254d"/><stop offset="1" stop-color="#ff463b"/></linearGradient><linearGradient id="Áåçûìÿííûé_ãðàäèåíò_67-2" x1="-752.34" y1="64.15" x2="-752.34" y2="36.1" xlink:href="#Áåçûìÿííûé_ãðàäèåíò_67"/><linearGradient id="Áåçûìÿííûé_ãðàäèåíò_93" x1="-752.34" y1="55.22" x2="-752.34" y2="44.37" gradientTransform="matrix(-1, 0, 0, 1, -696.16, 0)" gradientUnits="userSpaceOnUse"><stop offset="0.03" stop-color="#a7385d"/><stop offset="1" stop-color="#e5423b"/></linearGradient></defs><g id="Calque_2" data-name="Calque 2"><g id="layer1"><path d="M52.54,99.49A42,42,0,0,1,36.71,99C22,95.41,3.36,81.51.41,54.48c-3.22-29.56,13-47.1,30.36-52.43C35.17.7,44.08.41,44.08.41Z" style="fill:#691e35;fill-rule:evenodd"/><path d="M38.59,1.17C55.07-2,83.53-.9,97.23,34.32c9.39,24.15-5.16,60.85-42.2,65C20.7,103.09,5.23,70.77,4,52.36S15.17,5.74,38.59,1.17Z" style="fill-rule:evenodd;fill:url(#Áåçûìÿííûé_ãðàäèåíò_77)"/><ellipse cx="51.97" cy="50.13" rx="35.68" ry="37.15" style="fill:url(#Áåçûìÿííûé_ãðàäèåíò_67)"/><ellipse cx="54.33" cy="49.79" rx="26.8" ry="27.9" style="fill:url(#Áåçûìÿííûé_ãðàäèåíò_86)"/><ellipse cx="56.18" cy="50.13" rx="13.47" ry="14.03" style="fill:url(#Áåçûìÿííûé_ãðàäèåíò_67-2)"/><path d="M51,49.79a5.21,5.21,0,1,0,5.21-5.42A5.32,5.32,0,0,0,51,49.79Z" style="fill-rule:evenodd;fill:url(#Áåçûìÿííûé_ãðàäèåíò_93)"/><polygon points="74.79 93.33 74.11 93.29 83.41 12.95 84.09 13 74.79 93.33" style="fill:#7c1338"/><polygon points="48.78 99.61 48.1 99.57 56.91 0.39 57.59 0.42 48.78 99.61" style="fill:#7c1338"/><polygon points="27.19 93.89 20.17 10.84 20.85 10.81 27.87 93.85 27.19 93.89" style="fill:#7c1338"/><path d="M25,91.59l1.13-14.86,3.77,18A37.79,37.79,0,0,1,25,91.59Z" style="fill:#691e35;fill-rule:evenodd"/><polygon points="57.25 2.52 52.84 18.68 53.9 38.05 57.25 2.52" style="fill:#691e35;fill-rule:evenodd"/><polygon points="76.67 74.1 81.13 77.7 76.31 77.3 76.67 74.1" style="fill:#691e35;fill-rule:evenodd"/><polygon points="67.4 78.52 57.25 69.29 64.56 76.73 67.4 78.52" style="fill:#691e35;fill-rule:evenodd"/><polygon points="44.92 38.01 35.52 42.93 40.22 39.58 44.92 38.01" style="fill:#691e35;fill-rule:evenodd"/><path d="M83.3,16.88s-2.8,2.13-.76,6.53Z" style="fill:#691e35;fill-rule:evenodd"/><polygon points="40.22 36.1 29.85 26.03 36.47 33.47 40.22 36.1" style="fill:#691e35;fill-rule:evenodd"/><polygon points="23.34 44.37 26.47 61 26.27 77.63 23.34 44.37" style="fill:#691e35;fill-rule:evenodd"/><polygon points="89.98 51.35 71.67 44.37 79.67 48.27 89.98 51.35" style="fill:#772438;fill-rule:evenodd"/><polygon points="40.22 15.04 29.85 4.17 26.27 6.23 38 15.93 40.22 15.04" style="fill:#9b2c3a;fill-rule:evenodd;opacity:0.47000000000000003"/><path d="M4.47,42.93l11.82,3.85s-.16,10.65,2.07,15.84L4.47,57.09S3.31,48.68,4.47,42.93Z" style="fill:#9b2c3a;fill-rule:evenodd;opacity:0.47000000000000003"/><polygon points="95.23 29.65 82.24 26.03 82.54 23.41 92.49 24.39 95.23 29.65" style="fill:#9b2c3a;fill-rule:evenodd;opacity:0.47000000000000003"/><path d="M85,64.15H97.84A56.1,56.1,0,0,1,87.65,82.69L80.82,72Z" style="fill:#9b2c3a;fill-rule:evenodd;opacity:0.47000000000000003"/></g></g></svg>