<svg xmlns="http://www.w3.org/2000/svg" xmlns:xlink="http://www.w3.org/1999/xlink" viewBox="0 0 176.08 157.73"><defs><linearGradient id="Áåçûìÿííûé_ãðàäèåíò_4" x1="80.74" y1="166.71" x2="86.35" y2="-13.54" gradientUnits="userSpaceOnUse"><stop offset="0" stop-color="#726865"/><stop offset="1" stop-color="#7f7c83"/></linearGradient><linearGradient id="Áåçûìÿííûé_ãðàäèåíò_4-2" x1="129.47" y1="46.41" x2="110.78" y2="33.7" xlink:href="#Áåçûìÿííûé_ãðàäèåíò_4"/><linearGradient id="Áåçûìÿííûé_ãðàäèåíò_24" x1="88.1" y1="57" x2="103.78" y2="37.6" gradientUnits="userSpaceOnUse"><stop offset="0" stop-color="#6f5872"/><stop offset="1" stop-color="#8f9499"/></linearGradient><radialGradient id="radial-gradient" cx="209.62" cy="33" r="18.28" gradientTransform="translate(-32.75) scale(0.7 1)" gradientUnits="userSpaceOnUse"><stop offset="0" stop-color="#ab3ff9"/><stop offset="0.03" stop-color="#a03be9"/><stop offset="0.13" stop-color="#7b2db3"/><stop offset="0.24" stop-color="#5a2183"/><stop offset="0.35" stop-color="#3e175b"/><stop offset="0.46" stop-color="#280f3a"/><stop offset="0.58" stop-color="#160820"/><stop offset="0.7" stop-color="#0a040e"/><stop offset="0.82" stop-color="#020104"/><stop offset="0.96"/></radialGradient><radialGradient id="radial-gradient-2" cx="120.53" cy="-81.94" r="17.65" gradientTransform="matrix(0.65, 0.24, -0.29, 0.77, 2.03, 63.53)" xlink:href="#radial-gradient"/></defs><g style="isolation:isolate"><g id="Calque_2" data-name="Calque 2"><g id="Ñëîé_1" data-name="Ñëîé 1"><path d="M121.58,157.42c-15.75.56-72.32,1.05-100.62-5.24C3.45,148.29,0,148,0,148s26.2-9.43,49.26-10.48c16.76-.77,50.67-1,68-1l10.64,0-1,2.1,2.09-2.1,9.47.86,2.06.19v4.19l1.05-7.33,1,3.14v4.19l1.05-4.19,22,6.29S155,156.24,121.58,157.42Z" style="fill:#aa931f"/><path d="M131,143.8l-6.29,3.14-22,3.15,14.51-13.61,10.64,0-1,2.1,2.09-2.1,9.47.86a20.58,20.58,0,0,1-2.13,3.33v2.1Z" style="fill:#756515"/><polygon points="138.66 152.79 137.3 149.04 138.38 155.33 159.55 157.42 163.35 157.42 170.41 157.42 175.29 155.33 176.07 149.39 174.77 153.23 174.75 151.13 168.78 151.13 168.78 155.33 168.23 151.13 152.21 152.25 151.41 149.04 151.95 153.23 148.69 153.23 148.15 149.04 146.47 149.04 146.52 153.23 145.64 149.04 138.66 152.79" style="fill:#aa931f"/><polygon points="42.65 134.11 43.1 130.14 43.51 136.51 23.41 143.47 19.72 144.35 12.86 146 7.62 145.09 5.47 139.5 7.64 142.93 7.17 140.89 12.98 139.5 13.95 143.58 13.51 139.37 29.35 136.74 29.38 133.42 29.83 137.62 33 136.87 32.55 132.66 34.18 132.27 35.11 136.36 34.99 132.08 42.65 134.11" style="fill:#aa931f"/><polygon points="135.61 60.05 137.4 59.2 139.41 58.99 138.35 61.95 135.61 60.05" style="fill:#7648a3;opacity:0.34;mix-blend-mode:multiply"/><polygon points="135.71 34.08 140.36 48.33 134.24 45.27 135.71 34.08" style="fill:#7648a3;opacity:0.34;mix-blend-mode:multiply"/><polygon points="138.37 61.96 137.38 61.96 138.04 63.94 138.02 63.94 137.09 69.98 134.76 62.47 134.76 60.89 132.23 59.2 137.3 59.2 139.35 59.01 138.37 61.96" style="fill:#7648a3;opacity:0.34;mix-blend-mode:multiply"/><path d="M139.47,56.66l-3.64.66L139.47,59v0l-1,3h-1l.66,2-.95,6,0,.26L125.9,83.81h0L118.6,125.9h2.32l-.3,4-.7,9.26-16.68,10.59-.55.35H35.77l-9.93-19.53v0l1.32-2.65,29.49-5.3s.1-2.48,0-6.31l1.22,0,1.67,0-1.64-.54-.89-.3-.47-1.63c-.15-2.68-.4-5.78-.85-9-1.33-9.61-2.32-11.6-2.32-11.6l3-3.64-.17-1.76h0l-.49-5.2-2.28-2.6,0-.05L53,76.73h0v-.14l-.33-3.34h0v0l-1-.79-2.61-2.14h0L49,70.24,46.7,62.62l1.66-2.32H72.87l0,0,.1-.18,1.52-2.42,8.33-2.57.29-.08L81.36,37.73v0l-.16-1.53,0-.4h0l-.05,0-6.9,2.62-7.29-4.3v-.05L65.27,17.69l0-.13h0l.08,0L67,17.12l3.54-.89h0l11.9,4.7,0,0,.61.24h0l1.65-.33L79.5,3.31l.66-2,1-.32,3-1,2.57.05h1l9.07.2,3,.06.66,2L97.79,15.48l-1,5.25v.05l0,.09.86-.5h0c2.7-1.55,11.08-6.12,16-6.12,6,0,15.9,1,18.55,4.3a9.82,9.82,0,0,1,1.38,2.85c1.62,4.83,2.27,12.73,2.27,12.73l4.63,14.24Z" style="fill:url(#Áåçûìÿííûé_ãðàäèåíò_4)"/><polygon points="81.05 35.78 80.99 35.8 74.09 38.43 66.81 34.13 66.8 34.08 69.21 34.71 80.19 33.76 80.93 34.71 81.05 35.78" style="fill:#7648a3;opacity:0.44;mix-blend-mode:multiply"/><path d="M111.65,73.66l-3.91.53L105.42,73l-16.15-.74L82.2,73.87,64,71.76l-3.48-1.05,1,7.07L61,83.06l2.15,2.68,0,.05v0l1,7.14L58,94l7.18.63,1.06,25.86,1.79,1.27,16.68,1.26,4-1.37.63,3,.32-2.11,12.88.31v-2.32l3.8-20.69-.74-4L107.74,75Zm-8,27.66-2.42,18.79-.32,1.26-12.14-.21-2.53.11-2.1.38-2.23-.49-13.83-.63-.53-16.15L62.67,73.66l19.42,1h24.28l-2,11.09Z" style="fill:#f0ff97;opacity:0.14;mix-blend-mode:color-dodge"/><polygon points="106.37 74.61 105 85.91 104.05 100.79 101.24 120.21 101.2 120.53 101.22 120.21 103.1 100.47 103.83 85.8 104.68 76.3 81.98 76.3 64.78 75.88 68.68 104.7 70.58 120.21 68.05 120.53 67 104.38 65.2 94.67 60.98 94.35 64.88 94.03 64.04 87.81 63.17 85.84 63.13 85.74 62.46 84.22 62.56 79.89 61.93 73.03 81.67 74.61 106.37 74.61" style="fill:#7648a3;opacity:0.45;mix-blend-mode:multiply"/><polygon points="115.13 124.96 105.84 127.92 102.04 129.61 99.4 131.82 88 132.56 54.33 132.56 39.66 128.76 27.09 127.92 56.55 122.54 61.82 124.01 64.67 123.91 87.47 124.75 103.52 125.28 115.13 124.96" style="fill:#f0ff97;opacity:0.33;mix-blend-mode:color-dodge"/><polygon points="101.3 122.01 94.02 121.59 89.27 121.59 89.16 123.49 88.74 121.69 86.94 121.59 84.09 122.01 78.82 121.48 71.01 120.95 68.05 120.53 70.58 120.21 101.26 120.21 101.3 122.01" style="fill:#7648a3;opacity:0.34;mix-blend-mode:multiply"/><polygon points="102.57 150.09 35.66 150.09 25.73 130.56 38.18 130.56 53.7 133.94 55.28 147.45 54.65 134.15 67.63 134.99 77.87 134.68 81.03 138.26 81.35 145.34 82.3 134.99 99.19 133.94 99.61 145.97 102.57 150.09" style="fill:#7648a3;opacity:0.36;mix-blend-mode:multiply"/><polygon points="108.8 60.05 89.8 60.26 74.91 58.36 72.8 60.26 72.8 60.25 74.42 57.65 82.76 55.08 83.04 55 81.25 37.73 81.25 37.71 81.09 36.18 81.05 35.78 81.05 35.78 80.99 35.8 74.09 38.43 66.81 34.13 66.8 34.08 65.16 17.69 65.2 17.61 67.63 33.02 70.06 33.97 80.82 33.23 82.51 32.49 84.41 36.08 83.04 39.67 83.04 47.8 83.67 54.24 84.2 54.87 99.08 55.4 83.04 55.72 78.61 57.09 90.22 59.73 108.8 60.05" style="fill:#7648a3;opacity:0.34;mix-blend-mode:multiply"/><polygon points="46.62 62.58 57.71 63.32 48.21 60.26 46.62 62.58" style="fill:#f0ff97;opacity:0.14;mix-blend-mode:color-dodge"/><polygon points="58.76 72.29 52.56 73.24 52.56 73.22 51.59 72.43 48.98 70.29 55.7 72.08 58.76 72.29" style="fill:#7648a3;opacity:0.6000000000000001;mix-blend-mode:multiply"/><polygon points="56.23 89.5 62.14 92.03 53.27 93.08 56.23 89.5" style="fill:#f0ff97;opacity:0.14;mix-blend-mode:color-dodge"/><polygon points="56.02 82.74 56.04 87.7 55.54 82.5 53.26 79.9 53.27 79.89 58.76 80.52 56.02 82.74" style="fill:#7648a3;opacity:0.6000000000000001;mix-blend-mode:multiply"/><polygon points="52.53 73.24 53.7 79.47 60.03 80.63 53.27 79.89 52.53 73.24" style="fill:#f0ff97;opacity:0.14;mix-blend-mode:color-dodge"/><polygon points="46.62 62.58 49.47 69.76 55.7 71.76 59.29 72.29 55.7 72.08 48.95 70.28 46.62 62.58" style="fill:#f0ff97;opacity:0.14;mix-blend-mode:color-dodge"/><polygon points="58.76 111.35 65.52 112.61 65.52 120.53 62.67 123.49 57.39 121.38 57.72 116.25 59.4 116.2 57.76 115.66 58.02 111.56 56.02 103.22 64.78 103.22 65.52 111.88 58.76 111.35" style="fill:#7648a3;opacity:0.1;mix-blend-mode:multiply"/><polygon points="58.76 63.85 60.98 69.65 81.25 72.29 85.26 67.44 84.73 64.48 75.86 64.48 74.59 68.07 70.16 68.07 69.42 63.85 66.68 64.27 67.42 68.07 65.52 64.48 58.76 63.85" style="fill:#f0ff97;opacity:0.04;mix-blend-mode:color-dodge"/><polygon points="69.95 113.99 92.01 112.09 98.66 112.09 92.01 112.61 70.58 114.83 69.95 113.99" style="fill:#f0ff97;opacity:0.07;mix-blend-mode:color-dodge"/><polygon points="67.31 89.28 81.35 92.14 85.57 92.14 81.46 92.66 67.31 89.28" style="fill:#f0ff97;opacity:0.07;mix-blend-mode:color-dodge"/><polygon points="73.64 102.06 85.47 100.79 96.76 101.11 85.47 101.42 73.64 102.06" style="fill:#f0ff97;opacity:0.07;mix-blend-mode:color-dodge"/><polygon points="74.07 114.51 74.28 119.79 89.27 117.26 101.3 118.1 101.62 116.63 94.86 116.31 101.3 115.89 101.62 114.3 88.42 115.57 74.07 114.51" style="fill:#7648a3;opacity:0.06;mix-blend-mode:multiply"/><polygon points="67.38 95.09 66.57 81.26 68.05 78.41 85.89 79.05 93.28 80.63 93.28 79.36 93.91 80.63 101.3 81.47 102.57 80.63 103.31 87.28 103.4 94.36 104.68 76.3 64.78 75.88 67.38 95.09" style="fill:#7648a3;opacity:0.22;mix-blend-mode:multiply"/><polygon points="79.34 3.36 95.18 2.41 80.08 1.35 79.34 3.36" style="fill:#f0ff97;opacity:0.14;mix-blend-mode:color-dodge"/><polygon points="91.91 6.32 88.42 6 84.94 6.32 88.11 20.78 91.06 20.78 88.95 20.25 86.94 7.79 89.16 7.79 91.91 7.9 92.33 6.42 91.91 6.32" style="fill:#7648a3;opacity:0.45;mix-blend-mode:multiply"/><path d="M84.73,26,72.06,22.47H70.8V26.9L72.06,31l1.27-.53L72.27,26.9l-.74.11.85-.22V23.84c0,.1,12.35,2.95,12.35,2.95Z" style="fill:#7648a3;opacity:0.45;mix-blend-mode:multiply"/><polygon points="91.91 33.76 88.32 33.76 86.94 48.22 86.94 53.5 95.6 53.5 89.27 52.76 89.16 48.33 90.64 36.08 92.12 36.08 91.91 33.76" style="fill:#7648a3;opacity:0.45;mix-blend-mode:multiply"/><polygon points="95.6 52.66 92.12 36.08 92.12 33.76 88.32 33.76 91.48 33.13 92.96 33.13 92.96 36.08 95.6 52.66" style="fill:#f0ff97;opacity:0.14;mix-blend-mode:color-dodge"/><polygon points="88.32 33.76 87.16 38.93 86.94 43.26 85.36 43.26 86.94 43.58 86 48.33 86.31 53.92 93.44 53.5 87.58 53.18 88.32 33.76" style="fill:#f0ff97;opacity:0.14;mix-blend-mode:color-dodge"/><polygon points="84.94 26.27 84.94 29.43 81.03 29.75 72.06 31.23 71.32 30.59 70.58 27.32 68.68 27.32 70.48 26.8 70.48 22.47 71.01 21.73 72.8 22.05 84.94 25.53 84.94 25.95 84.73 26.8 84.73 25.95 84.07 25.77 72.06 22.68 71.01 22.78 71.22 26.9 72.05 30.92 72.06 31.02 72.69 30.78 75.12 30.38 81.14 29.54 84.62 29.33 84.94 26.27" style="fill:#f0ff97;opacity:0.14;mix-blend-mode:color-dodge"/><polygon points="91.27 20.57 92.33 11.91 92.96 11.49 92.33 11.49 92.33 9.91 93.07 8.74 92.54 7.9 92.54 6.21 91.06 5.79 89.27 5.68 86.73 5.37 84.62 5.79 81.88 5.79 84.62 6.42 86.31 14.76 86.31 15.71 87.16 18.03 87.79 20.88 91.06 20.88 91.06 20.78 88 20.67 88.11 20.14 87.58 16.77 85.26 7.16 85.15 6.53 87.05 6.32 89.69 6.32 92.12 6.53 91.91 7.9 92.01 10.22 91.7 14.76 91.06 20.46 91.17 20.88 91.27 20.57" style="fill:#f0ff97;opacity:0.14;mix-blend-mode:color-dodge"/><polygon points="41.98 128.76 60.98 124.96 48.1 129.61 54.12 132.14 41.98 128.76" style="fill:#7648a3;opacity:0.1;mix-blend-mode:multiply"/><path d="M101.3,129.4c-.1-.21-10.55,0-10.55,0l7.7,2.11Z" style="fill:#7648a3;opacity:0.1;mix-blend-mode:multiply"/><polygon points="115.13 124.96 108.37 126.34 102.89 125.6 88.11 126.86 78.5 127.18 62.35 124.44 60.98 124.96 56.55 122.54 61.82 124.01 64.67 123.91 87.47 124.75 103.52 125.28 115.13 124.96" style="fill:#7648a3;opacity:0.1;mix-blend-mode:multiply"/><polygon points="101 57.68 99.24 55.92 92.22 55.63 99.24 55.63 98.36 53.29 99.83 51.53 97.78 47.14 96.61 41.28 97.48 38.06 103.63 42.45 101 57.68" style="fill:#7648a3;opacity:0.36;mix-blend-mode:multiply"/><path d="M99.3,19.51l.23,1.28s-1.92,1.68-1.71,2.1a32.73,32.73,0,0,1,.63,3.59l-5,.74h5.17l.11,2.85L98,32.6a41.1,41.1,0,0,0-2,3.8c0,.32,4.12,6.55,4.44,7.18a12.8,12.8,0,0,0,2.11,2.11L103.83,53l-3,4.44,6.86,1.79L114,57.41l14.25-.21-6.44-1,3.38-3.59,1.79-3,6.76-4.43,1-14.46Z" style="fill:#7648a3;opacity:0.54;mix-blend-mode:multiply"/><path d="M133.08,37.05s-7,7.9-7.39,8.22a20.69,20.69,0,0,1-3.91.53s.32,4.85.53,5.38-.74,1.69-.74,1.69L115.66,55s-2.43.1-2.75.21-4.67,2.69-4.67,2.69L112.38,52,120,40.62Z" style="fill:#3d3849"/><polygon points="134.24 35.56 129.38 43.58 132.23 44.42 128.75 44.42 126 49.7 122.83 49.7 122.31 52.66 120.41 53.92 113.02 57.2 108.06 58.99 100.88 57.62 114.81 40.94 134.24 35.56" style="fill:#7648a3;opacity:0.54;mix-blend-mode:multiply"/><path d="M135.5,32.24a6,6,0,0,1-.11,1.37,9.38,9.38,0,0,1-1.8,2.82c-.45.55-1,1.13-1.48,1.72h0c-.58.65-1.19,1.3-1.8,1.93S129,41.38,128.46,42l-.42.41-.2.19-.18.17c-.36.35-.69.65-1,.9l-.13.12c-.12.1-.21.19-.31.26l-.06.06-.22.18,0,0-.08.06c-.78.52-4,.82-4.87.88h-.2a0,0,0,0,1,0,0h0a0,0,0,0,0,0,0l.06.27h0c0,.09,0,.19.07.31a32.68,32.68,0,0,1,.8,5.5,5,5,0,0,1,0,.72.65.65,0,0,1,0,.13,0,0,0,0,0,0,0l0,.08,0,0s0,0,0,0l0,0,0,0a1.8,1.8,0,0,1-.35.31l0,0-.27.15-.06,0-.13.06-.26.12h0l-.14.06-.08,0-.08,0-.24.09-.25.08-.3.08-.41.12-.1,0-.1,0h0l-.18.05h0l-.38.09h0l-.18,0-.22.05-.4.08-.2,0-.11,0-.2,0c-.1,0-.21,0-.31.06l-.1,0-.12,0-.18,0h0l-.15,0-.14,0-.28,0h0l-.18,0-1.63.29-.52.1h-.07l-.14,0-.12,0-.12,0h0l-.07,0h0l-.1,0-.09,0,0,0h-.05l-.06,0h0l-.1,0-.1,0a10.24,10.24,0,0,0-1.47.94l-.18.13-.19.14-.13.1-.43.34-.07.05-.6.49-.13.11c-.45.37-.83.71-1.07.92l-.08.07-.22.2-6.45-1.18h-.1a.86.86,0,0,1-.07-.12.54.54,0,0,0,0-.11l-.09-.16,0-.07c-.06-.12-.14-.26-.21-.42s-.07-.13-.1-.2-.09-.2-.14-.3l-.06-.14-.1-.21a.69.69,0,0,1,0-.13.3.3,0,0,1,0-.08.2.2,0,0,0,0-.08c-.09-.22-.17-.44-.25-.66a2.09,2.09,0,0,1-.08-.23l0-.15,0-.08a.83.83,0,0,0,0-.15s0,0,0-.07a2,2,0,0,1-.06-.3.22.22,0,0,1,0-.08.34.34,0,0,1,0-.1.28.28,0,0,1,0-.09.86.86,0,0,1,0-.24,3.28,3.28,0,0,1,1-1.16l.07-.06a16.29,16.29,0,0,1-.76-2.66v0a.51.51,0,0,1,.25-.45.68.68,0,0,1,.23-.09h.09a2.57,2.57,0,0,1-.78-.25l-.09,0a.5.5,0,0,1-.22-.37s0-.05,0-.07,0,0,0-.06v0a.61.61,0,0,1,0-.14,5.13,5.13,0,0,1,.64-2.32,6.16,6.16,0,0,1-.69-.57,3,3,0,0,0,.26-1.09,2.16,2.16,0,0,0,0-.36l0-.15a1.7,1.7,0,0,0,0-.22.64.64,0,0,0,0-.07.57.57,0,0,0,0-.14.65.65,0,0,0,0-.13,2.14,2.14,0,0,0-.1-.22c-.59-1.2-3.28-2.09-3.28-2.09a29.11,29.11,0,0,1-.59-3.57,1.16,1.16,0,0,1,.23-.55,6.16,6.16,0,0,1,.4-.57h0C97,34.21,99.42,31.61,99.65,30a25.93,25.93,0,0,0-.44-5.39c-.35-2.32-.75-4.44-.75-4.44a3.84,3.84,0,0,1,1.42-2.15l0,0a7.1,7.1,0,0,1,.8-.57c.3-.19.62-.37,1-.55s.73-.35,1.12-.51l.57-.23c.64-.25,1.32-.47,2-.68a78.65,78.65,0,0,1,8.87-1.84c3.28-.6,15.19,1.78,17.57,3.87A8.43,8.43,0,0,1,133.59,21,43.69,43.69,0,0,1,135.5,32.24Z" style="fill:url(#Áåçûìÿííûé_ãðàäèåíò_4-2)"/><path d="M99.25,43.11a1.7,1.7,0,0,1,0,.22A1.7,1.7,0,0,0,99.25,43.11Z" style="fill:#7648a3;opacity:0.36;mix-blend-mode:multiply"/><polygon points="129.59 17.82 129.58 17.85 129.57 17.84 129.57 17.82 129.59 17.82" style="fill:#f0ff97;opacity:0.33;mix-blend-mode:color-dodge"/><path d="M117.1,30.05s-.7-1.93-1.4-2.22S113,26.42,113,26.42l.52-.7-.93.41s-1.41-1-1.76-.94a16.86,16.86,0,0,0-2.16,1.23s-1.75,3.45-1.69,4.15.46,4.21.46,4.21l.41,2.81-.41.35,1.29-.41a14.72,14.72,0,0,0,2.1.29c.71,0,4.15-.88,4.62-.93a16.82,16.82,0,0,1,3,.87l-2.8-1.4s1.22-1.4,1.11-2.16a15.34,15.34,0,0,1,.17-2.81Z" style="fill:#f0ff97;opacity:0.33;mix-blend-mode:color-dodge"/><path d="M114.84,36.59A16.17,16.17,0,0,1,113,37c-1.68.34-4,.55-4.76-.45a32.4,32.4,0,0,1-.59-4.77c0-1.78,1.79-5.95,3.27-5.95a6.3,6.3,0,0,1,3,1.44,9.46,9.46,0,0,1,2.41,2.43C116.92,30.93,115.73,36.29,114.84,36.59Z" style="fill:#6c20cd"/><path d="M109.44,32.38a16.81,16.81,0,0,0,.7,3.75,3.13,3.13,0,0,0,1.35,1L113,37c-1.68.34-4,.55-4.76-.45a32.4,32.4,0,0,1-.59-4.77c0-1.78,1.79-5.95,3.27-5.95a6.3,6.3,0,0,1,3,1.44,4.33,4.33,0,0,0-1.85.4C110.9,28.18,109.44,32.38,109.44,32.38Z" style="fill:#555066"/><path d="M120.8,45.24Z" style="fill:#778691"/><path d="M135.39,33.61a9.38,9.38,0,0,1-1.8,2.82h0c-.44.55-1,1.13-1.48,1.72h0c-.58.65-1.19,1.31-1.8,1.93h0c-.64.67-1.27,1.3-1.85,1.87l-.42.41-.2.19-.18.17c-.36.35-.69.65-1,.9l-.13.12-.31.26-.06.06-.22.18,0,0-.08.06c-.83.55-4.44.85-5,.89.66-.17,3-.68,3.44-1.43s-3.4.13-3.4.13l2.39-2.42-.34.06,2.62-7.27,5.07-2.22,2.09-4.57L134.08,24l-.49-3C135,25.27,135.82,31.88,135.39,33.61Z" style="fill:#7648a3;opacity:0.54;mix-blend-mode:multiply"/><path d="M99.25,43.11a1.7,1.7,0,0,1,0,.22A1.7,1.7,0,0,0,99.25,43.11Z" style="fill:#7648a3;opacity:0.36;mix-blend-mode:multiply"/><path d="M111.37,50.49h0Z" style="fill:#6f6977"/><path d="M105.58,30.81s.7-2.4.88-3.28-.88-2.1-.88-2.1l-1-.94.76-1.63-1.11,1.63S103,23,102.63,23s-1.52-.53-1.7-.23a14.65,14.65,0,0,0-.2,2.63l-.64.18.64.05s-.29,1.35-.41,1.93a40.87,40.87,0,0,0,.18,5.26,7.74,7.74,0,0,0,.87,2.69,1.26,1.26,0,0,0,1,.41l2.16-2Z" style="fill:#f0ff97;opacity:0.33;mix-blend-mode:color-dodge"/><path d="M104.11,33.91a2.15,2.15,0,0,1-.28.23,5.21,5.21,0,0,1-1.5.66,7.18,7.18,0,0,1-1.79-3.87c-.3-2.38.6-6.55,1.19-6.85s2.77,1,3.88,2.26a2.36,2.36,0,0,1,.59,1C106.5,28.85,104.71,33.31,104.11,33.91Z" style="fill:#6c20cd"/><path d="M103.83,34.14a5.21,5.21,0,0,1-1.5.66,7.18,7.18,0,0,1-1.79-3.87c-.3-2.38.6-6.55,1.19-6.85s2.77,1,3.88,2.26c-.92-.38-2.59-1-3-.79-.58.29-.35,6.6,0,7.19A9.29,9.29,0,0,0,103.83,34.14Z" style="fill:#555066"/><path d="M105.54,30.82s-1.13,2.32-1.36,2.56-.76.11-1.11.41a18.87,18.87,0,0,0-1.4,3l.17.23-.35.18s-.41,1.16-.17,1.63A6.45,6.45,0,0,0,104,40.68a1.19,1.19,0,0,0,.93-.11l.35-.06.12-1.7.47-.46-.44.1s0-2.91-.15-3.32-.46-1.52-.46-1.52Z" style="fill:url(#Áåçûìÿííûé_ãðàäèåíò_24)"/><path d="M105.54,30.82s-1.13,2.32-1.36,2.56-.76.11-1.11.41a18.87,18.87,0,0,0-1.4,3l.17.23-.35.18s-.41,1.16-.17,1.63A6.45,6.45,0,0,0,104,40.68a1.19,1.19,0,0,0,.93-.11l.35-.06.12-1.7.47-.46-.44.1s0-2.91-.15-3.32-.46-1.52-.46-1.52Z" style="fill:#f0ff97;opacity:0.33;mix-blend-mode:color-dodge"/><path d="M104.87,40.52a.12.12,0,0,1-.05,0c-.52.23-2.87-1.48-2.87-2.06s1.35-4.61,2.17-4.61c.22,0,.41.45.56,1.11C105.07,36.78,105.2,40.08,104.87,40.52Z" style="fill:#3d3849"/><path d="M104.87,40.52a.12.12,0,0,1-.05,0c-.52.23-2.87-1.48-2.87-2.06s1.35-4.61,2.17-4.61c.22,0,.41.45.56,1.11a2.08,2.08,0,0,0-.91.47c-.17.29-.35,3.57-.41,3.8S104.29,40.13,104.87,40.52Z" style="fill:#555066"/><path d="M117,27.47a22.9,22.9,0,0,1,1.46,2.28,31,31,0,0,1,.35,3.51,20,20,0,0,0,1.06-3.51c0-.76-2.34-2.74-2.34-2.74l-1.58-.47Z" style="fill:#f0ff97;opacity:0.14;mix-blend-mode:color-dodge"/><path d="M99.93,48.75h0Z" style="fill:#7648a3;opacity:0.34;mix-blend-mode:multiply"/><polygon points="99.19 20.14 103.1 19.83 110.59 22.57 103.1 20.67 99.19 20.14" style="fill:#f0ff97;opacity:0.14;mix-blend-mode:color-dodge"/><polygon points="99.61 19.3 101.62 17.3 114.28 14.66 104.05 19.51 99.61 19.3" style="fill:#f0ff97;opacity:0.33;mix-blend-mode:color-dodge"/><polygon points="129.59 17.82 129.58 17.85 129.57 17.84 129.57 17.82 129.59 17.82" style="fill:#f0ff97;opacity:0.33;mix-blend-mode:color-dodge"/><polygon points="129.59 17.82 129.58 17.85 129.57 17.84 129.59 17.82" style="fill:#f0ff97;opacity:0.33;mix-blend-mode:color-dodge"/><path d="M99.3,31.55l-3,4s.74.31.84.52A32,32,0,0,0,100,38a24.14,24.14,0,0,1-.73-2.85C99.19,34.29,99.3,31.55,99.3,31.55Z" style="fill:#f0ff97;opacity:0.14;mix-blend-mode:color-dodge"/><path d="M133.48,20.64l-5,1.51-3.91,1.9-3.27.63-15.83-5.17,9.92-4.64,5.49,1.26,8.74,1.69v0h0v0h0l0-.05s-12.16-3.21-13.74-3.39-10.44,1.12-10.44,1.12h0a78.65,78.65,0,0,1,8.87-1.84c3.28-.6,15.19,1.78,17.57,3.87A7.64,7.64,0,0,1,133.48,20.64Z" style="fill:#f0ff97;opacity:0.33;mix-blend-mode:color-dodge"/><polygon points="123.8 27.22 125.58 25.51 128.22 22.63 132.34 21.21 133.47 23.44 132.96 25.97 130.81 30.31 126.31 32.4 123.8 27.22" style="fill:#7648a3;opacity:0.34;mix-blend-mode:multiply"/><path d="M108.06,40.62l.42-1.69s9.18.64,10.34.22a27.43,27.43,0,0,0,3.49-1.9s-1.9,3.16-2.43,3.9S108.06,40.62,108.06,40.62Z" style="fill:#f0ff97;opacity:0.14;mix-blend-mode:color-dodge"/><path d="M103.05,48.52s0,0,0,0S103,48.52,103.05,48.52Z" style="fill:#7648a3;opacity:0.36;mix-blend-mode:multiply"/><path d="M115.66,45.48c0,.32-.43,4.12-.53,4.33s-8.66,2.42-11,2.42a21.39,21.39,0,0,1-3.78-.29,15.63,15.63,0,0,1-.72-2.54v0a.51.51,0,0,1,.25-.45.68.68,0,0,1,.23-.09h.09l-.23,0,.47-.22,2.42.11s-2.11.42-2.21.52A6.61,6.61,0,0,0,101,51.6a6.12,6.12,0,0,0,2.33.21,16.28,16.28,0,0,0-.23-3.27c.34.05,2.27.19,2.52.21-.22,0-1.77.13-1.87.42a5.92,5.92,0,0,0,.32,2.43,4.49,4.49,0,0,0,2.63-.21c.22-.32-.42-2.64-.42-2.64l1.5-.1c-.4.06-.72.16-.76.31-.1.42.21,2.11.74,2.22a3.58,3.58,0,0,0,1.58-.11,9.91,9.91,0,0,0-.21-2.53l2.92-.41c-.26.07-2.29.34-2.39.73s-.21,2.11,0,2.11a8.88,8.88,0,0,0,2.43-.64,12,12,0,0,0-.11-2l.64-.32a9.22,9.22,0,0,1,2-.42,1.74,1.74,0,0,1,.33.23.63.63,0,0,0-.43,0c-.43.11-1.9.21-2.22.53s.1,1.69.42,1.69a3.88,3.88,0,0,0,1.8-.53c.31-.32.63-2.74.84-3s-.11-.63-.21-.73-3.06.1-3.06.42v1.37s-.11-1.37-.32-1.37-2-.21-2.11,0a13.44,13.44,0,0,0,0,2.11,15.75,15.75,0,0,0-.42-2.11c-.11,0-2.22.1-2.22.31v1.8a6.89,6.89,0,0,0-.53-1.8c-.21-.1-2.32.11-2.32.43v1.37s-.1-1.69-.42-1.8-2-.52-2-.52l-.21,2.32A10.84,10.84,0,0,0,101.2,46c-.22-.32-1.06-.21-1.27,0a4,4,0,0,0-.53,1.9,4.17,4.17,0,0,0,.52.83,3.6,3.6,0,0,1-.48-.19l-.09,0a.45.45,0,0,1-.22-.37s0-.05,0-.07h0s0,0,0-.06v0a.61.61,0,0,1,0-.14,5.26,5.26,0,0,1,.64-2.32,4.66,4.66,0,0,1-.66-.55l.75.14s3.69,1.23,4.22,1.34S115.66,45.16,115.66,45.48Z" style="fill:#7648a3;opacity:0.34;mix-blend-mode:multiply"/><path d="M119,44.85A26.22,26.22,0,0,1,119,49c-.22.85-3.38,1.48-3.38,1.48s2.21-1.79,2.53-2.64S119,44.85,119,44.85Z" style="fill:#7648a3;opacity:0.36;mix-blend-mode:multiply"/><polygon points="118.93 37.56 124.63 34.29 123.78 31.55 119.14 33.23 118.93 37.56" style="fill:#7648a3;opacity:0.19;mix-blend-mode:multiply"/><path d="M110.8,22.68s3.26,1.23,3.9,1.35a38.61,38.61,0,0,0,4.74-.65l3-2.51L122,16.49l.76,4.55-2.92,2.64s-3.22.46-3,.87,5.49,2.22,5.49,2.22l2.57-1.05s-2,1.11-2,1.46,2.45,6.67,2.8,6.72a46,46,0,0,0,4.79-2.22l2.34-4.32L131,32.28s-4.35,2.22-4.64,2.75-3.27,6.33-3.27,6.33,2.11-6.93,2-7.46-2.46-6.07-2.75-6.43-6.72-2.28-6.72-2.28Z" style="fill:#7648a3;opacity:0.34;mix-blend-mode:multiply"/><path d="M95.2,37.25l.72,2.11c.1.31,3.16.74,3.16.74S96,39.67,96,39.88a1.26,1.26,0,0,1-.21.53Z" style="fill:#7648a3;opacity:0.36;mix-blend-mode:multiply"/><path d="M95.2,37.18l1,2.07,2.74.83a13.07,13.07,0,0,1-3-.65C95.81,39.15,95.2,37.18,95.2,37.18Z" style="fill:#f0ff97;opacity:0.33;mix-blend-mode:color-dodge"/><path d="M106.36,44.53c-.19,0-6.12-.74-6.22-.53a8,8,0,0,1-1.06,1V44.9a.46.46,0,0,0,0-.09,3.07,3.07,0,0,0,.21-1,2.16,2.16,0,0,0,0-.36s0-.1,0-.15a1.7,1.7,0,0,0,0-.22.14.14,0,0,0,0-.07.74.74,0,0,0,0-.14.65.65,0,0,0,0-.13,1.47,1.47,0,0,0-.1-.22,2.73,2.73,0,0,0-.88-.92l2.29,1.53Z" style="fill:#f0ff97;opacity:0.14;mix-blend-mode:color-dodge"/><polygon points="101.94 41.47 104.89 42.63 106.47 42.42 105.31 41.36 104.36 41.36 101.94 39.99 101.94 41.47" style="fill:#7648a3;opacity:0.36;mix-blend-mode:multiply"/><path d="M115.66,53.92l-4,.64L107,58.36l-5.12-.84-.94-.07h-.1a.86.86,0,0,1-.07-.12.54.54,0,0,0,0-.11l-.09-.16,0-.07c-.06-.12-.14-.26-.21-.42s-.07-.13-.1-.2-.09-.2-.14-.3l-.06-.14-.1-.21a.69.69,0,0,1,0-.13.3.3,0,0,1,0-.08.2.2,0,0,0,0-.08c-.09-.22-.17-.44-.25-.66a2.09,2.09,0,0,1-.08-.23l0-.15,0-.08a.83.83,0,0,0,0-.15s0,0,0-.07a2,2,0,0,1-.06-.3.22.22,0,0,1,0-.08.34.34,0,0,1,0-.1.28.28,0,0,1,0-.09.86.86,0,0,1,0-.24,3.28,3.28,0,0,1,1-1.16h.07s-.88.88-.88,1.47a1,1,0,0,0,.2.43l-.12-.3a5,5,0,0,1,1.06.85c.21.31,3,.63,4.85.63s4.44-1.48,5.07-1.69A32.8,32.8,0,0,1,115.66,53.92Z" style="fill:#f0ff97;opacity:0.14;mix-blend-mode:color-dodge"/><path d="M120.91,45.22v-.13l.08.12Z" style="fill:#7648a3;opacity:0.36;mix-blend-mode:multiply"/><path d="M121.74,51.36a5,5,0,0,1,0,.72.65.65,0,0,1,0,.13,0,0,0,0,0,0,0l0,.08,0,0s0,0,0,0l0,0,0,0a1.8,1.8,0,0,1-.35.31l0,0-.27.15-.06,0-.13.06-.26.12h0l-.14.06-.08,0-.08,0-.24.09-.25.08-.3.08-.41.12-.1,0-.1,0h0l-.18.05h0l-.38.09h0l-.18,0-.22.05-.4.08-.2,0-.11,0-.2,0c-.1,0-.21,0-.31.06l-.1,0-.12,0-.18,0h0l-.15,0-.14,0-.28,0h0l-.18,0-1.63.29-.52.1h-.07l-.14,0-.12,0-.12,0h0l-.07,0h0l-.1,0-.09,0,0,0h-.05l-.06,0h-.06s7.32-2,8.2-3.22c.67-.9.66-4.39.62-6A32.68,32.68,0,0,1,121.74,51.36Z" style="fill:#7648a3;opacity:0.36;mix-blend-mode:multiply"/><polygon points="124 55.61 126.53 51.6 136.77 51.6 137.09 54.56 131.17 56.24 124 55.61" style="fill:#f0ff97;opacity:0.14;mix-blend-mode:color-dodge"/><polygon points="133.92 45.8 127.58 49.91 136.87 50.97 139.41 48.12 133.92 45.8" style="fill:#f0ff97;opacity:0.33;mix-blend-mode:color-dodge"/><polygon points="131.6 56.67 137.51 55.08 137.51 51.92 140.36 48.33 139.41 56.67 135.71 57.3 139.41 58.99 132.02 57.09 128.22 57.2 131.6 56.67" style="fill:#7648a3;opacity:0.56;mix-blend-mode:multiply"/><polygon points="131.7 59.1 134.76 60.89 128.22 61.84 125.37 64.27 117.87 64.69 114.82 62.46 87.37 63.74 86.84 66.48 85.47 63.53 57.81 62.58 48.38 60.3 72.77 60.3 72.8 60.25 72.91 60.07 87.58 61.21 119.25 60.68 115.97 60.26 122.31 58.15 131.17 57.62 136.66 58.88 131.7 59.1" style="fill:#f0ff97;opacity:0.33;mix-blend-mode:color-dodge"/><polygon points="128.53 62.58 125.79 64.69 128.22 71.23 137.09 70.28 134.24 62.58 134.76 61.16 129.49 62.16 132.23 68.28 128.53 62.58" style="fill:#7648a3;opacity:0.34;mix-blend-mode:multiply"/><path d="M56.54,146.39l19.64-2.64L79.77,145H76.39l-2.85,3.48s-17.1.11-17,0A13.49,13.49,0,0,0,56.54,146.39Z" style="fill:#7648a3;opacity:0.11;mix-blend-mode:multiply"/><polygon points="82.41 146.18 86.36 150.09 100.14 149.77 99.08 146.18 82.41 146.18" style="fill:#7648a3;opacity:0.11;mix-blend-mode:multiply"/><path d="M108.69,75.88l8.13-2-2.11,10.45-5.81.74,6.44.74,1.8,5.07-3,4.75-7.28-.53s.31-6,.31-6.23.85-2.64.85-2.64V81.68Z" style="fill:#7648a3;opacity:0.1;mix-blend-mode:multiply"/><polygon points="38.81 148.82 37.44 132.14 52.03 136.6 51.37 144.07 50.84 144.28 50.21 139.32 50.21 148.08 47.36 146.07 38.81 148.82" style="fill:#7648a3;opacity:0.11;mix-blend-mode:multiply"/><polygon points="102.57 150.09 99.82 145.76 99.19 133.94 100.25 133.62 103.1 143.22 103.1 144.49 103.73 144.6 103.1 149.77 102.57 150.09" style="fill:#7648a3;opacity:0.23;mix-blend-mode:multiply"/><polygon points="78.5 134.68 81.98 135.2 81.03 138.26 78.5 134.68" style="fill:#7648a3;opacity:0.23;mix-blend-mode:multiply"/><path d="M120.35,115.16s-1.31-3.81-1.63-4.24-3.21-2.57-3.21-2.57l-1.44,0-8.65-2.22,8.65,1.69.64-.1-.21-1.59-3.8-4.32,2.21-2.54L111.12,102l2,2.22.64.42,1.26,1.48.21,1.58h.34l3.36,2.84Z" style="fill:#322e3f"/><polygon points="64.36 84.96 62.54 80.63 61.36 79.89 55.59 79.05 61.41 79.46 62.67 80.31 64.36 84.96" style="fill:#3d3849"/><polygon points="76.5 113.04 71.53 115.78 67.9 116.02 66.04 115.32 63.41 115.99 61.4 116.73 56.51 116.28 59.4 116.2 56.86 115.36 57.07 115.25 61.4 116.52 63.2 115.67 65.31 114.94 66.03 114.88 67.72 115.46 71.32 115.46 76.5 113.04" style="fill:#3d3849"/><polygon points="56.55 116.31 57.67 117.08 61.51 117.05 66.05 115.36 63.51 115.99 61.4 116.73 56.55 116.31" style="fill:#7648a3;opacity:0.45;mix-blend-mode:multiply"/><polygon points="56.44 113.78 57.81 114.09 61.4 116.2 63.2 115.67 61.4 116.52 57.07 115.25 56.85 115.3 56.44 113.78" style="fill:#7648a3;opacity:0.1;mix-blend-mode:multiply"/><polygon points="105.55 106.2 114.07 107.44 114.28 107.12 114.28 106.17 110.7 101.85 114.5 106.17 114.71 107.76 114.07 107.86 105.55 106.2" style="fill:#f0ff97;opacity:0.14;mix-blend-mode:color-dodge"/><polygon points="112.91 99.31 111.54 101.95 113.23 104.06 113.76 104.59 113.12 104.17 111.12 101.95 112.91 99.31" style="fill:#f0ff97;opacity:0.14;mix-blend-mode:color-dodge"/><polygon points="114.07 108.39 115.47 108.75 118.51 111.14 119.77 115.78 119.98 117.3 120.35 115.07 118.72 110.82 115.5 108.2 114.07 108.39" style="fill:#7648a3;opacity:0.23;mix-blend-mode:multiply"/><path d="M86.52,19.83a9.35,9.35,0,0,1-1.37-2.75c0-.74-.21-2.42-.21-2.42l-.63-.74,1.16-.53H83.88s-.84-1.48-1.16-2a23.21,23.21,0,0,1-.52-3.9c-.11-.64-1.27-2.43-1.17-2.85s6.65-.21,6.87-.32,4.32-1.48,4.32-1.48l-7.81.53H79.35l2.53,11.08,2.85,6.44s.53-.95.74-.84,1,1.48,1.48,1.37S86.52,19.83,86.52,19.83Z" style="fill:#969322"/><path d="M100.27,2.32,97.68,15.48a3.52,3.52,0,0,0-.92.13c-.21.1-.74,2.85-1.16,3.37s-1.16,1.06-1.16-.1.63-4.33.53-4.86-.21-.53-.53-.95-.11-.53.11-1a2.28,2.28,0,0,0,.21-1c0-.21-.32-.32-.21-.85a2.84,2.84,0,0,1,.63-1.05l.32-.64-.74-.74-.21-1.16s1-.31,1-1a9.79,9.79,0,0,0-.1-1.37l-1.59.1-2.21.11A17.71,17.71,0,0,0,95,3.68a3.72,3.72,0,0,0,.84-1.06c.21-.31,1.06-.21,1.16-.53s-6.22-.52-6.33-.95S87.87.26,86.82.06h.76l9.06.2,3,.06Z" style="fill:#969322"/><path d="M87.68,9.06c0-.32-.42-.74.43-.84a20.05,20.05,0,0,1,2-.21h1.8a11.47,11.47,0,0,0-.21,2.11,6.8,6.8,0,0,1,.1,1.37c0,.1-.18,4-.18,4a13.71,13.71,0,0,0-.56,1.6c0,.21-.1,1.27-.1,1.27l-.53-1.9.42-.42L91,15l.21-4a5.21,5.21,0,0,1-1-.63c0-.11-.21-.74-.32-.74s-.84-.11-.84-.11l-.43.53v.21l-.95.53Z" style="fill:#969322"/><path d="M89.74,9.8c.11,0,.14.09.19.23a.58.58,0,0,1,0,.37c-.05.09-.19-.05-.19-.05a.09.09,0,0,0,.05-.13c-.05-.1-.19-.19-.14-.24S89.65,9.8,89.74,9.8Z" style="fill:#969322"/><path d="M89.7,10.68s-.1,0-.1.09.05.23.1.23.09,0,.09-.09A.59.59,0,0,0,89.7,10.68Z" style="fill:#969322"/><path d="M90.05,10.63s0,.09,0,.09.06,0,.06,0v-.09Z" style="fill:#969322"/><path d="M89.84,11c0,.05,0,.14,0,.14s.09,0,.09,0V11Z" style="fill:#969322"/><path d="M89.65,10.28c0-.08-.06-.16-.1-.13s-.12,0-.09.07l.11.13Z" style="fill:#969322"/><path d="M90.65,12.53c-.11,0-.14-.09-.18-.23a.51.51,0,0,1,0-.37c0-.09.19.05.19.05a.11.11,0,0,0-.06.14c0,.09.18.19.14.23S90.74,12.54,90.65,12.53Z" style="fill:#969322"/><path d="M90.72,11.66c0,.05.09.05.1-.09s0-.23-.09-.24-.09,0-.09.09A.49.49,0,0,0,90.72,11.66Z" style="fill:#969322"/><path d="M90.34,12.74c0-.06-.08-.07-.11.07s0,.23,0,.24.09,0,.12-.07A.54.54,0,0,0,90.34,12.74Z" style="fill:#969322"/><path d="M90.36,11.69s0-.09,0-.09-.06,0-.06,0v.09Z" style="fill:#969322"/><path d="M90.59,11.33s0-.14,0-.14-.09,0-.09,0v.14Z" style="fill:#969322"/><path d="M90.76,12.06c0,.07,0,.16.09.13s.12,0,.09-.07l-.1-.13Z" style="fill:#969322"/><path d="M90,12s-.09,0-.07.06,0,.06,0,0l.07-.06Z" style="fill:#969322"/><path d="M90,11.47c.06,0,.08-.15,0-.16s-.1-.07-.11,0l0,.16Z" style="fill:#969322"/><path d="M90.54,13.43c0,.08.06.16.1.13s.12,0,.09-.07l-.1-.12Z" style="fill:#969322"/><path d="M90.54,12.48c0,.08.06.16.1.13s.12,0,.09-.07l-.1-.12Z" style="fill:#969322"/><path d="M84.48,13.17c-.1,0-.16-.05-.24-.17a.51.51,0,0,1-.09-.36c0-.1.19,0,.19,0a.09.09,0,0,0,0,.14c.07.08.22.13.19.19S84.57,13.15,84.48,13.17Z" style="fill:#969322"/><path d="M84.3,12.31s.1,0,.06-.11-.1-.21-.15-.2-.08,0-.06.11A.52.52,0,0,0,84.3,12.31Z" style="fill:#969322"/><path d="M84,12.45s0-.09,0-.09-.06,0,0,0l0,.09Z" style="fill:#969322"/><path d="M84.08,12c0-.06,0-.15,0-.14s-.11,0-.09,0l0,.13Z" style="fill:#969322"/><path d="M84.45,12.69c0,.07.1.14.13.09s.1-.06.06-.09l-.13-.09Z" style="fill:#969322"/><path d="M82.9,10.77c.1,0,.16.05.23.18a.51.51,0,0,1,.09.36c0,.1-.19,0-.19,0a.09.09,0,0,0,0-.14c-.06-.08-.22-.14-.19-.19S82.81,10.79,82.9,10.77Z" style="fill:#969322"/><path d="M83.05,11.63s-.1,0-.06.11.09.22.14.2.09,0,.07-.11A.52.52,0,0,0,83.05,11.63Z" style="fill:#969322"/><path d="M83.15,10.49s.09,0,.09-.1-.06-.23-.1-.23-.09,0-.09.1A.56.56,0,0,0,83.15,10.49Z" style="fill:#969322"/><path d="M83.39,11.5s0,.1,0,.09.07,0,.06,0l0-.09Z" style="fill:#969322"/><path d="M83.26,11.91c0,.06,0,.15,0,.14s.1,0,.09,0l0-.14Z" style="fill:#969322"/><path d="M82.92,11.25c0-.07-.1-.14-.13-.1s-.11.06-.06.09l.12.1Z" style="fill:#969322"/><path d="M83.64,11.11s.08,0,0-.07,0-.06,0,0l-.05.08Z" style="fill:#969322"/><path d="M83.77,11.63c0,.06,0,.17,0,.16s.12.05.11,0v-.16Z" style="fill:#969322"/><path d="M82.77,9.87c0-.08-.1-.14-.13-.1s-.11.06-.06.09l.13.1Z" style="fill:#969322"/><path d="M83,10.79c0-.08-.1-.14-.13-.1s-.11.05-.07.09l.13.09Z" style="fill:#969322"/><path d="M82.25,8c-.1,0-.12-.12-.15-.26a.55.55,0,0,1,.06-.37c.06-.08.17.08.17.08a.09.09,0,0,0-.06.13c0,.1.15.21.1.25S82.34,8,82.25,8Z" style="fill:#969322"/><path d="M82.43,7.14c0,.05.08.05.1-.08s0-.24-.06-.24-.09,0-.1.07A.68.68,0,0,0,82.43,7.14Z" style="fill:#969322"/><path d="M82.07,7.13s0-.09,0-.09S82,7,82,7v.09Z" style="fill:#969322"/><path d="M82.34,6.79s.06-.13,0-.13-.09-.06-.09,0l0,.14Z" style="fill:#969322"/><path d="M82.41,7.54c0,.07,0,.16.09.14s.12,0,.09-.06l-.09-.14Z" style="fill:#969322"/><path d="M81.76,5.16c.11,0,.12.11.14.26a.51.51,0,0,1-.06.36c-.07.08-.18-.08-.18-.08s.1,0,.07-.12-.14-.22-.09-.26S81.67,5.14,81.76,5.16Z" style="fill:#969322"/><path d="M81.56,6s-.08-.06-.11.08,0,.23,0,.24.09,0,.11-.07A.74.74,0,0,0,81.56,6Z" style="fill:#969322"/><path d="M82.1,5c0,.06.07.08.12,0s0-.23,0-.25-.09,0-.12,0A.65.65,0,0,0,82.1,5Z" style="fill:#969322"/><path d="M81.92,6s0,.08,0,.09,0,0,.06,0L82,6Z" style="fill:#969322"/><path d="M81.64,6.36c-.06,0-.07.12,0,.13s.08.06.09,0l0-.14Z" style="fill:#969322"/><path d="M81.59,5.61c0-.07,0-.17-.08-.14s-.12,0-.1,0l.08.14Z" style="fill:#969322"/><path d="M82.31,5.77s.09,0,.07,0,0-.06,0,0l-.08,0Z" style="fill:#969322"/><path d="M82.21,6.3c-.06,0-.1.13,0,.15s.09.09.1,0l.06-.16Z" style="fill:#969322"/><path d="M82,4.29c0-.08,0-.17-.08-.15s-.12,0-.09.06l.08.14Z" style="fill:#969322"/><path d="M81.86,5.22c0-.07,0-.16-.08-.14s-.12,0-.09.06l.07.14Z" style="fill:#969322"/><path d="M83.88,4.15c.06-.13.2-.13.41-.11a.68.68,0,0,1,.48.22c.1.11-.16.21-.16.21a.15.15,0,0,0-.16-.14c-.15,0-.35.14-.38,0S83.82,4.28,83.88,4.15Z" style="fill:#969322"/><path d="M85,4.72c-.08,0-.11.09.07.17s.33.08.36,0,0-.13-.07-.18A.88.88,0,0,0,85,4.72Z" style="fill:#969322"/><path d="M85.15,4.22c0,.06.1.09.12,0s.07-.06,0-.07l-.12,0Z" style="fill:#969322"/><path d="M85.51,4.72c0,.09.16.14.18.08s.12-.09,0-.12l-.18-.08Z" style="fill:#969322"/><path d="M84.45,4.55c-.09,0-.24,0-.22.07s0,.16,0,.14l.22-.06Z" style="fill:#969322"/><path d="M88,4.54c-.06.13-.2.12-.41.09a.72.72,0,0,1-.48-.22c-.09-.12.17-.22.17-.22a.16.16,0,0,0,.16.15c.14,0,.35-.12.38,0S88.05,4.42,88,4.54Z" style="fill:#969322"/><path d="M86.88,3.94c.09,0,.12-.1-.06-.18s-.33-.08-.35,0-.06.12.06.17A.78.78,0,0,0,86.88,3.94Z" style="fill:#969322"/><path d="M88.08,5.06c-.09,0-.13.07,0,.19s.31.14.35.09.08-.11,0-.19A1,1,0,0,0,88.08,5.06Z" style="fill:#969322"/><path d="M86.72,4.43c0-.06-.09-.1-.11-.06s-.08.06,0,.08l.12,0Z" style="fill:#969322"/><path d="M86.38,3.91c0-.08-.15-.14-.18-.08s-.12.09-.06.12l.18.08Z" style="fill:#969322"/><path d="M87.43,4.12c.1.06.24,0,.23,0s0-.17,0-.15L87.39,4Z" style="fill:#969322"/><path d="M86.94,5.06c0,.05,0,.13,0,.12s.09,0,.08,0L87,5Z" style="fill:#969322"/><path d="M86.24,4.74c0-.11-.15-.2-.19-.13s-.15.08-.09.13l.2.12Z" style="fill:#969322"/><path d="M89.11,5.19c.1.06.25,0,.23-.06s0-.17,0-.15L89.08,5Z" style="fill:#969322"/><path d="M87.87,4.64c.09.06.24,0,.22,0s0-.17,0-.15l-.22,0Z" style="fill:#969322"/><path d="M93,3.63c0-.15.13-.21.33-.27a.69.69,0,0,1,.53,0c.14.06-.06.26-.06.26a.14.14,0,0,0-.2-.06c-.13.07-.26.27-.33.2S93.05,3.76,93,3.63Z" style="fill:#969322"/><path d="M94.3,3.67c-.06.07-.06.14.14.14s.33-.08.33-.14,0-.13-.14-.13A.83.83,0,0,0,94.3,3.67Z" style="fill:#969322"/><path d="M94.23,3.16s.13,0,.13,0,0-.08,0-.08h-.13Z" style="fill:#969322"/><path d="M94.77,3.47c.06.07.2.06.19,0s.07-.14,0-.14h-.2Z" style="fill:#969322"/><path d="M93.73,3.75c-.11,0-.23.09-.18.15s0,.17.11.12l.17-.15Z" style="fill:#969322"/><path d="M97,2.27c0,.15-.14.2-.34.26a.68.68,0,0,1-.53,0c-.13-.07.07-.26.07-.26a.15.15,0,0,0,.2.07c.14-.06.27-.26.34-.19S97,2.14,97,2.27Z" style="fill:#969322"/><path d="M95.69,2.18c.07-.06.07-.13-.13-.13s-.33.06-.33.13,0,.13.13.13A.83.83,0,0,0,95.69,2.18Z" style="fill:#969322"/><path d="M97.25,2.71c-.08,0-.09.12.1.16s.34,0,.35-.06,0-.12-.1-.15A.82.82,0,0,0,97.25,2.71Z" style="fill:#969322"/><path d="M95.75,2.7c0-.05-.13-.05-.13,0s0,.09,0,.09h.13Z" style="fill:#969322"/><path d="M95.22,2.37c-.06-.06-.19-.07-.19,0S95,2.5,95,2.5h.2Z" style="fill:#969322"/><path d="M96.27,2.13c.11,0,.23-.09.18-.15s0-.16-.1-.12L96.17,2Z" style="fill:#969322"/><path d="M96.21,3.19c0,.05.05.12.08.09s.09,0,.07,0l-.09-.1Z" style="fill:#969322"/><path d="M95.44,3.18c-.06-.09-.22-.11-.23,0s-.1.14,0,.15l.22,0Z" style="fill:#969322"/><path d="M98.24,2.41c.11,0,.23-.09.18-.15s0-.17-.09-.12l-.19.15Z" style="fill:#969322"/><path d="M96.88,2.42c.11,0,.23-.08.18-.14s0-.17-.1-.12l-.18.14Z" style="fill:#969322"/><path d="M93,10.33c-.09-.24,0-.37.14-.55a.47.47,0,0,1,.49-.21c.17.06.11.45.11.45s-.15-.18-.23,0-.07.53-.18.45S93.11,10.54,93,10.33Z" style="fill:#969322"/><path d="M94.23,10c0,.13,0,.23.21.16s.26-.24.22-.34-.09-.21-.21-.16S94.23,10,94.23,10Z" style="fill:#969322"/><path d="M93.84,9.16c.07.05.14,0,.12-.05s0-.15-.06-.13l-.11,0Z" style="fill:#969322"/><path d="M94.53,9.45c.1.08.23,0,.18-.08s0-.23-.08-.21l-.18.08Z" style="fill:#969322"/><path d="M93.74,10.27a.21.21,0,0,0-.07.31c.08.07.15.25.17.15l.07-.31Z" style="fill:#969322"/><path d="M95.82,6.75c.09.24,0,.36-.16.54a.45.45,0,0,1-.5.17C95,7.4,95.07,7,95.07,7s.14.19.22,0,.09-.52.2-.43S95.74,6.54,95.82,6.75Z" style="fill:#969322"/><path d="M94.59,7.07c0-.13,0-.24-.21-.17s-.27.21-.23.32.08.21.21.17S94.59,7.07,94.59,7.07Z" style="fill:#969322"/><path d="M96.37,7.34c0,.11,0,.22.19.22s.32-.12.3-.22-.06-.22-.2-.22S96.37,7.34,96.37,7.34Z" style="fill:#969322"/><path d="M95,7.86c-.06-.05-.14,0-.12,0s0,.14,0,.13L95,8Z" style="fill:#969322"/><path d="M94.27,7.54c-.1-.08-.23,0-.19.07s0,.23.09.21l.18-.07Z" style="fill:#969322"/><path d="M95.09,6.77a.2.2,0,0,0,.08-.3c-.08-.08-.14-.25-.17-.16l-.07.3Z" style="fill:#969322"/><path d="M95.7,8.47c0,.1.12.18.13.12s.07-.07,0-.11l-.14-.12Z" style="fill:#969322"/><path d="M95,8.74c-.11-.12-.27-.1-.23,0s0,.26.07.25l.24,0Z" style="fill:#969322"/><path d="M97.1,6.49a.2.2,0,0,0,.08-.3C97.1,6.11,97,5.94,97,6l-.07.3Z" style="fill:#969322"/><path d="M95.84,7a.19.19,0,0,0,.08-.29c-.08-.08-.14-.26-.16-.16l-.08.3Z" style="fill:#969322"/><path d="M96.89,3.51c.09.24,0,.37-.14.55a.45.45,0,0,1-.5.19c-.16,0-.1-.44-.1-.44s.15.18.23,0,.08-.52.18-.44S96.81,3.3,96.89,3.51Z" style="fill:#969322"/><path d="M95.68,3.87c0-.13,0-.23-.2-.16s-.27.23-.23.34.08.21.21.16S95.68,3.87,95.68,3.87Z" style="fill:#969322"/><path d="M96.06,4.67c-.07,0-.15,0-.12,0s0,.15,0,.14l.12,0Z" style="fill:#969322"/><path d="M95.37,4.36c-.1-.08-.22,0-.18.08s0,.24.08.21l.18-.07Z" style="fill:#969322"/><path d="M96.17,3.55a.2.2,0,0,0,.08-.3c-.09-.08-.14-.25-.17-.15L96,3.4Z" style="fill:#969322"/><path d="M94.05,7.05c-.09-.24,0-.37.16-.54a.46.46,0,0,1,.5-.17c.16.07.09.45.09.45s-.14-.19-.22,0-.1.51-.2.43S94.13,7.26,94.05,7.05Z" style="fill:#969322"/><path d="M95.28,6.75c0,.13,0,.23.2.17s.28-.21.24-.32-.08-.21-.2-.17S95.28,6.75,95.28,6.75Z" style="fill:#969322"/><path d="M93.5,6.45c0-.11,0-.22-.19-.22s-.32.11-.29.22,0,.22.19.22S93.5,6.45,93.5,6.45Z" style="fill:#969322"/><path d="M94.92,6c.06,0,.14,0,.12,0s0-.15-.05-.14l-.12,0Z" style="fill:#969322"/><path d="M95.6,6.28c.11.09.23,0,.19-.06s0-.24-.07-.22l-.19.07Z" style="fill:#969322"/><path d="M94.77,7a.21.21,0,0,0-.08.3c.09.08.14.25.17.15l.08-.29Z" style="fill:#969322"/><path d="M94.19,5.33c0-.1-.12-.18-.13-.13s-.07.07,0,.12l.14.12Z" style="fill:#969322"/><path d="M94.92,5.07c.11.12.27.1.23,0s0-.26-.06-.25l-.24,0Z" style="fill:#969322"/><path d="M92.76,7.29a.2.2,0,0,0-.08.3c.08.08.14.26.16.16l.08-.3Z" style="fill:#969322"/><path d="M94,6.78a.2.2,0,0,0-.09.3c.09.08.14.26.17.16l.08-.3Z" style="fill:#969322"/><path d="M96,1.92a.48.48,0,0,1,0,.57.44.44,0,0,1-.41.33c-.17,0-.23-.4-.23-.4s.19.14.23,0-.07-.53,0-.48S95.89,1.75,96,1.92Z" style="fill:#969322"/><path d="M95,2.62c0-.13-.09-.22-.24-.09a.3.3,0,0,0-.12.39c.07.08.14.17.24.09S95,2.62,95,2.62Z" style="fill:#969322"/><path d="M95.57,3.27c-.07,0-.14,0-.1.08s.06.14.09.12l.1-.08Z" style="fill:#969322"/><path d="M94.83,3.18c-.12,0-.23,0-.16.13s.09.22.14.18L95,3.36Z" style="fill:#969322"/><path d="M95.36,2.17a.21.21,0,0,0,0-.31c-.1-.05-.21-.2-.2-.09l0,.31Z" style="fill:#969322"/><path d="M94.34,6.13c-.15-.2-.09-.34,0-.55a.45.45,0,0,1,.43-.31c.18,0,.22.4.22.4s-.19-.14-.23,0,.06.51-.07.46S94.48,6.32,94.34,6.13Z" style="fill:#969322"/><path d="M95.43,5.49c0,.13.09.22.25.11s.2-.29.13-.38-.13-.18-.24-.1S95.43,5.49,95.43,5.49Z" style="fill:#969322"/><path d="M93.65,5.72c0-.11-.05-.21-.25-.15s-.27.19-.22.29.11.19.25.15S93.65,5.72,93.65,5.72Z" style="fill:#969322"/><path d="M94.85,4.83c.08,0,.15,0,.11-.07s0-.14-.09-.12l-.1.07Z" style="fill:#969322"/><path d="M95.61,5c.12,0,.23,0,.16-.12s-.08-.22-.14-.18l-.16.12Z" style="fill:#969322"/><path d="M95,5.92a.19.19,0,0,0,0,.3c.1.06.21.21.2.11V6Z" style="fill:#969322"/><path d="M94,4.45c-.06-.08-.17-.14-.16-.08s0,.09,0,.11l.17.08Z" style="fill:#969322"/><path d="M94.6,4c.14.08.29,0,.22-.09s-.07-.25-.14-.22l-.22.09Z" style="fill:#969322"/><path d="M93.18,6.74a.2.2,0,0,0,0,.31c.1,0,.2.21.2.1s0-.3,0-.3Z" style="fill:#969322"/><path d="M94.24,5.89a.2.2,0,0,0,0,.31c.1,0,.21.2.2.1V6Z" style="fill:#969322"/><path d="M94.42,18.64c-.21-.15-.2-.3-.18-.53a.45.45,0,0,1,.3-.44c.16-.05.33.31.33.31s-.22-.07-.21.1.23.48.1.47S94.61,18.77,94.42,18.64Z" style="fill:#969322"/><path d="M95.22,17.66c.06.12.15.19.26,0s.1-.34,0-.41-.18-.13-.26,0S95.22,17.66,95.22,17.66Z" style="fill:#969322"/><path d="M94.47,17.22c.08,0,.13-.07.07-.11s-.09-.12-.12-.08l-.07.1Z" style="fill:#969322"/><path d="M95.21,17.09c.13,0,.2-.1.11-.17s-.15-.18-.19-.13L95,17Z" style="fill:#969322"/><path d="M95,18.21a.2.2,0,0,0,.11.29c.11,0,.26.13.22,0l-.11-.29Z" style="fill:#969322"/><path d="M94.81,14.12c.21.15.2.31.17.53a.45.45,0,0,1-.33.42c-.17,0-.32-.32-.32-.32s.22.08.21-.09-.2-.48-.07-.46S94.63,14,94.81,14.12Z" style="fill:#969322"/><path d="M94,15.05c0-.12-.14-.18-.26,0s-.11.33,0,.4.19.14.27,0S94,15.05,94,15.05Z" style="fill:#969322"/><path d="M95.6,14.31c0,.12.1.19.28.08s.2-.27.12-.35-.16-.15-.28-.07S95.6,14.31,95.6,14.31Z" style="fill:#969322"/><path d="M94.7,15.52c-.08,0-.13.06-.08.1s.1.12.12.08l.08-.1Z" style="fill:#969322"/><path d="M94,15.62c-.14,0-.22.09-.12.16s.14.19.18.13l.12-.15Z" style="fill:#969322"/><path d="M94.21,14.53a.19.19,0,0,0-.09-.29c-.12,0-.26-.14-.23,0l.1.29Z" style="fill:#969322"/><path d="M95.65,15.63c.08.06.2.08.18,0s0-.1,0-.11l-.18,0Z" style="fill:#969322"/><path d="M95.19,16.25c-.16,0-.28.06-.18.15s.13.22.19.17l.19-.15Z" style="fill:#969322"/><path d="M95.75,13.2a.2.2,0,0,0-.1-.29c-.11,0-.26-.14-.23,0l.1.29Z" style="fill:#969322"/><path d="M95,14.33a.19.19,0,0,0-.1-.29c-.11,0-.26-.14-.22,0l.09.3Z" style="fill:#969322"/><path d="M87.1,21.54c-.07.25-.22.29-.44.35a.44.44,0,0,1-.51-.14c-.1-.15.19-.42.19-.42s0,.24.16.16.38-.36.41-.23S87.17,21.33,87.1,21.54Z" style="fill:#969322"/><path d="M85.92,21.1c.1-.09.13-.2-.06-.26s-.35,0-.38.13-.07.22.06.26S85.92,21.1,85.92,21.1Z" style="fill:#969322"/><path d="M85.74,22c0-.09-.1-.11-.12,0s-.08.13,0,.14l.12,0Z" style="fill:#969322"/><path d="M85.38,21.3c0-.13-.16-.16-.19-.05s-.13.2-.07.21l.2.06Z" style="fill:#969322"/><path d="M86.51,21.14c.1.05.26-.08.24-.19s0-.29,0-.22l-.24.19Z" style="fill:#969322"/><path d="M82.7,22.62c.07-.24.23-.28.45-.32a.44.44,0,0,1,.5.17c.09.15-.2.41-.2.41s0-.24-.15-.17-.39.34-.42.21S82.63,22.84,82.7,22.62Z" style="fill:#969322"/><path d="M83.86,23.14c-.1.08-.14.19,0,.25a.29.29,0,0,0,.39-.11c0-.1.06-.21-.06-.25S83.86,23.14,83.86,23.14Z" style="fill:#969322"/><path d="M82.63,21.82c.1-.06.14-.17,0-.29s-.32-.11-.37,0-.09.2,0,.29S82.63,21.82,82.63,21.82Z" style="fill:#969322"/><path d="M84.06,22.28c0,.08.09.11.12,0s.08-.13,0-.14l-.12,0Z" style="fill:#969322"/><path d="M84.4,23c0,.13.15.17.19.06s.13-.19.06-.21l-.18-.07Z" style="fill:#969322"/><path d="M83.28,23.06a.2.2,0,0,0-.25.18c0,.12,0,.29,0,.23l.24-.19Z" style="fill:#969322"/><path d="M83.86,21.35c0-.1,0-.22,0-.18s-.1,0-.09.07l0,.18Z" style="fill:#969322"/><path d="M84.59,21.58c0,.16.15.25.2.13s.17-.2.1-.24l-.2-.13Z" style="fill:#969322"/><path d="M81.53,22a.2.2,0,0,0-.25.19c0,.11,0,.28,0,.22l.25-.18Z" style="fill:#969322"/><path d="M82.84,22.4a.19.19,0,0,0-.24.18c0,.12,0,.29,0,.23l.24-.19Z" style="fill:#969322"/><path d="M97.79,25.33c-.14.49-.44.58-.89.69a.88.88,0,0,1-1-.28c-.19-.29.38-.83.38-.83s0,.47.32.32.77-.73.83-.48S97.92,24.9,97.79,25.33Z" style="fill:#969322"/><path d="M95.43,24.44c.19-.18.26-.4-.13-.51s-.7,0-.76.26-.13.43.13.51S95.43,24.44,95.43,24.44Z" style="fill:#969322"/><path d="M95.06,26.16c0-.17-.2-.21-.24-.07s-.16.25-.08.27l.24.07Z" style="fill:#969322"/><path d="M94.35,24.84c-.07-.25-.32-.32-.39-.1s-.25.4-.13.43l.39.11Z" style="fill:#969322"/><path d="M96.6,24.53a.41.41,0,0,0,.49-.39c0-.22.09-.58-.08-.44l-.48.39Z" style="fill:#969322"/><path d="M89,27.49c.15-.49.45-.57.9-.65a.9.9,0,0,1,1,.34c.19.3-.39.82-.39.82s0-.48-.31-.34-.78.69-.84.43S88.84,27.92,89,27.49Z" style="fill:#969322"/><path d="M91.3,28.51c-.2.18-.27.39.11.52s.7,0,.77-.22.13-.43-.12-.51S91.3,28.51,91.3,28.51Z" style="fill:#969322"/><path d="M88.84,25.88c.2-.12.29-.33,0-.58s-.64-.22-.73,0-.18.41,0,.58S88.84,25.88,88.84,25.88Z" style="fill:#969322"/><path d="M91.7,26.8c0,.17.19.22.24.08s.16-.25.08-.27l-.24-.08Z" style="fill:#969322"/><path d="M92.38,28.16c.06.26.31.35.38.13s.26-.39.13-.43l-.37-.13Z" style="fill:#969322"/><path d="M90.14,28.36c-.2-.1-.52.15-.49.37s-.1.58.07.45l.48-.37Z" style="fill:#969322"/><path d="M91.3,24.94c.07-.2,0-.44-.06-.37s-.2,0-.18.15l.06.36Z" style="fill:#969322"/><path d="M92.77,25.41c0,.32.3.49.4.25s.33-.4.2-.48l-.4-.26Z" style="fill:#969322"/><path d="M86.63,26.31c-.19-.1-.52.15-.48.37s-.1.57.06.45l.49-.37Z" style="fill:#969322"/><path d="M89.26,27c-.19-.1-.52.15-.49.37s-.09.58.07.45l.49-.37Z" style="fill:#969322"/><path d="M80,22.06c-.36.36-.67.29-1.11.17a.91.91,0,0,1-.76-.74c0-.35.74-.54.74-.54s-.23.41.12.43,1-.26,1,0S80.3,21.74,80,22.06Z" style="fill:#969322"/><path d="M78.34,20.14c.25-.07.42-.23.13-.51a.6.6,0,0,0-.79-.15c-.16.16-.33.32-.14.51S78.34,20.14,78.34,20.14Z" style="fill:#969322"/><path d="M77.19,21.46c0-.16-.08-.28-.18-.18s-.27.15-.21.2l.18.18Z" style="fill:#969322"/><path d="M77.19,20c.07-.25-.12-.44-.28-.28s-.42.23-.32.32l.28.28Z" style="fill:#969322"/><path d="M79.32,20.78a.41.41,0,0,0,.62-.11c.07-.21.35-.46.14-.42l-.61.11Z" style="fill:#969322"/><path d="M71.22,19.68c.36-.35.67-.27,1.1-.13a.89.89,0,0,1,.71.78c0,.35-.74.53-.74.53s.24-.41-.11-.45-1,.23-.94,0S70.89,20,71.22,19.68Z" style="fill:#969322"/><path d="M72.75,21.7c-.26.06-.42.21-.15.51s.61.33.77.18.33-.32.15-.51S72.75,21.7,72.75,21.7Z" style="fill:#969322"/><path d="M71.87,18.2c.24,0,.42-.14.25-.52s-.45-.5-.63-.37-.36.27-.25.52S71.87,18.2,71.87,18.2Z" style="fill:#969322"/><path d="M73.93,20.39c-.05.17.06.29.17.19s.26-.13.21-.2l-.17-.18Z" style="fill:#969322"/><path d="M73.86,21.92c-.07.25.11.45.27.29s.42-.21.33-.31l-.27-.29Z" style="fill:#969322"/><path d="M71.81,21a.39.39,0,0,0-.61.08c-.08.22-.36.46-.16.43l.61-.09Z" style="fill:#969322"/><path d="M74.48,18.57c.15-.14.23-.37.12-.35s-.18-.07-.22,0l-.12.35Z" style="fill:#969322"/><path d="M75.54,19.69c-.13.3,0,.58.23.42s.48-.19.4-.33L76,19.36Z" style="fill:#969322"/><path d="M69.74,17.51a.4.4,0,0,0-.61.09c-.08.21-.36.46-.16.43l.61-.09Z" style="fill:#969322"/><path d="M71.68,19.43a.39.39,0,0,0-.61.08c-.08.22-.36.46-.16.43l.61-.09Z" style="fill:#969322"/><path d="M85.66,24.58c-.21.15-.36.09-.58,0a.48.48,0,0,1-.32-.44c0-.17.42-.21.42-.21s-.15.19,0,.23.53,0,.48.08S85.85,24.44,85.66,24.58Z" style="fill:#969322"/><path d="M85,23.47c.13,0,.23-.08.11-.24s-.3-.21-.39-.14-.19.13-.11.24S85,23.47,85,23.47Z" style="fill:#969322"/><path d="M84.31,24c0-.08,0-.15-.08-.1s-.14,0-.12.08l.08.11Z" style="fill:#969322"/><path d="M84.44,23.29c0-.12,0-.23-.12-.17s-.23.08-.19.14l.12.16Z" style="fill:#969322"/><path d="M85.44,23.88a.21.21,0,0,0,.32,0c0-.1.21-.21.11-.2h-.32Z" style="fill:#969322"/><path d="M81.45,22.64c.22-.14.36-.08.57,0a.48.48,0,0,1,.29.45c0,.18-.42.21-.42.21s.16-.19,0-.24-.53,0-.47-.09S81.26,22.77,81.45,22.64Z" style="fill:#969322"/><path d="M82.05,23.79c-.13,0-.23.07-.12.24s.28.22.38.16.19-.13.12-.25S82.05,23.79,82.05,23.79Z" style="fill:#969322"/><path d="M81.91,22c.11,0,.22,0,.16-.25s-.18-.29-.28-.23-.2.1-.17.24S81.91,22,81.91,22Z" style="fill:#969322"/><path d="M82.76,23.23c0,.08,0,.15.07.11s.14-.05.12-.08l-.07-.11Z" style="fill:#969322"/><path d="M82.6,24c-.06.13,0,.24.11.17s.23-.07.19-.13l-.11-.17Z" style="fill:#969322"/><path d="M81.64,23.36a.2.2,0,0,0-.31,0c-.06.1-.23.2-.12.21h.31Z" style="fill:#969322"/><path d="M83.19,22.36c.09-.06.15-.17.09-.16s-.09-.06-.12,0l-.09.16Z" style="fill:#969322"/><path d="M83.63,23c-.09.14,0,.3.08.23s.26,0,.23-.13l-.08-.23Z" style="fill:#969322"/><path d="M80.89,21.43a.2.2,0,0,0-.31,0c-.06.1-.23.2-.12.2h.31Z" style="fill:#969322"/><path d="M81.71,22.56a.2.2,0,0,0-.32,0c0,.1-.22.2-.11.2h.31Z" style="fill:#969322"/><path d="M91,25.48c-.12.09-.21.06-.34,0a.28.28,0,0,1-.19-.26c0-.11.25-.13.25-.13s-.09.11,0,.14.31,0,.28,0S91.14,25.4,91,25.48Z" style="fill:#969322"/><path d="M90.63,24.83c.08,0,.14,0,.07-.15s-.18-.12-.23-.08-.12.08-.07.14S90.63,24.83,90.63,24.83Z" style="fill:#969322"/><path d="M90.22,25.16s0-.08,0-.06-.09,0-.07,0l0,.06Z" style="fill:#969322"/><path d="M90.3,24.72c0-.08,0-.14-.07-.1s-.14.05-.11.08l.07.1Z" style="fill:#969322"/><path d="M90.89,25.07c0,.06.16.05.19,0s.13-.12.07-.12H91Z" style="fill:#969322"/><path d="M88.53,24.33c.13-.08.21,0,.33,0a.27.27,0,0,1,.18.27c0,.11-.25.12-.25.12s.09-.11,0-.14-.31,0-.28-.05S88.41,24.41,88.53,24.33Z" style="fill:#969322"/><path d="M88.88,25c-.07,0-.13,0-.07.15s.17.13.23.09.11-.08.07-.14S88.88,25,88.88,25Z" style="fill:#969322"/><path d="M88.8,23.93c.07,0,.13,0,.1-.15s-.11-.17-.17-.14-.12.06-.1.14S88.8,23.93,88.8,23.93Z" style="fill:#969322"/><path d="M89.3,24.68c0,.05,0,.09,0,.07s.09,0,.08-.05l0-.07Z" style="fill:#969322"/><path d="M89.21,25.13c0,.08,0,.14.06.11s.14,0,.12-.08l-.07-.1Z" style="fill:#969322"/><path d="M88.64,24.76a.12.12,0,0,0-.19,0c0,.06-.13.11-.07.12h.19Z" style="fill:#969322"/><path d="M89.56,24.17s.09-.1,0-.1,0,0-.07,0l-.05.1Z" style="fill:#969322"/><path d="M89.82,24.55c-.06.09,0,.18.05.14s.15,0,.13-.08l0-.13Z" style="fill:#969322"/><path d="M88.19,23.61c0-.06-.15-.06-.18,0s-.13.12-.07.12h.19Z" style="fill:#969322"/><path d="M88.68,24.28a.12.12,0,0,0-.19,0c0,.06-.13.12-.06.12h.18Z" style="fill:#969322"/><path d="M94.59,26.77c-.1.11-.2.1-.34.08a.28.28,0,0,1-.24-.21c0-.1.21-.18.21-.18s-.06.13,0,.13.31-.11.29,0S94.68,26.66,94.59,26.77Z" style="fill:#969322"/><path d="M94,26.23c.08,0,.12-.08,0-.16s-.2-.08-.24,0-.09.1,0,.15S94,26.23,94,26.23Z" style="fill:#969322"/><path d="M93.73,26.66c0-.05,0-.09-.06-.05s-.08.05-.06.06l.06,0Z" style="fill:#969322"/><path d="M93.69,26.2c0-.07,0-.13-.09-.07s-.12.08-.09.1l.09.08Z" style="fill:#969322"/><path d="M94.36,26.4c0,.05.16,0,.18,0s.09-.15,0-.13l-.18.05Z" style="fill:#969322"/><path d="M91.88,26.27c.11-.12.2-.1.33-.07s.23.11.24.22-.21.18-.21.18.06-.13,0-.14-.3.1-.28,0S91.79,26.37,91.88,26.27Z" style="fill:#969322"/><path d="M92.4,26.84c-.08,0-.12.08,0,.16s.2.08.24,0,.09-.1,0-.16S92.4,26.84,92.4,26.84Z" style="fill:#969322"/><path d="M92,25.81c.08,0,.13-.06.07-.17s-.15-.14-.2-.09-.1.09-.06.16S92,25.81,92,25.81Z" style="fill:#969322"/><path d="M92.72,26.42s0,.08.06,0,.07,0,0-.07l0,0Z" style="fill:#969322"/><path d="M92.74,26.88c0,.08,0,.13.09.08s.12-.08.09-.1l-.09-.08Z" style="fill:#969322"/><path d="M92.1,26.65a.12.12,0,0,0-.18.05c0,.06-.1.14,0,.13l.18,0Z" style="fill:#969322"/><path d="M92.84,25.85s.06-.11,0-.11-.06,0-.07,0l0,.11Z" style="fill:#969322"/><path d="M93.19,26.16c0,.1,0,.18.08.12s.14-.07.11-.11l-.08-.12Z" style="fill:#969322"/><path d="M91.38,25.65s-.16,0-.18.05-.1.14,0,.13l.19,0Z" style="fill:#969322"/><path d="M92,26.18c0-.05-.16,0-.18,0s-.1.15,0,.14l.18-.05Z" style="fill:#969322"/><path d="M97.75,24.87c-.1.11-.19.1-.33.08a.29.29,0,0,1-.25-.21c0-.1.21-.18.21-.18s-.06.13.05.13.3-.11.29,0S97.84,24.76,97.75,24.87Z" style="fill:#969322"/><path d="M97.21,24.33c.08,0,.12-.08,0-.16a.18.18,0,0,0-.25,0c0,.05-.08.1,0,.15S97.21,24.33,97.21,24.33Z" style="fill:#969322"/><path d="M96.9,24.76c0-.05,0-.09-.06-.05s-.08.05-.06.06l.06.05Z" style="fill:#969322"/><path d="M96.86,24.3c0-.07,0-.13-.09-.07s-.12.08-.09.1l.09.08Z" style="fill:#969322"/><path d="M97.52,24.5a.13.13,0,0,0,.19-.05c0-.07.09-.15,0-.13l-.18.05Z" style="fill:#969322"/><path d="M95.05,24.37c.1-.12.2-.1.33-.07a.29.29,0,0,1,.24.22c0,.11-.22.18-.22.18s.07-.13,0-.14-.3.1-.28,0S95,24.47,95.05,24.37Z" style="fill:#969322"/><path d="M95.56,24.94c-.07,0-.12.08,0,.16a.18.18,0,0,0,.24,0c0-.05.09-.1,0-.16S95.56,24.94,95.56,24.94Z" style="fill:#969322"/><path d="M95.21,23.91c.07,0,.12-.06.06-.17s-.15-.14-.2-.09-.1.09-.06.16S95.21,23.91,95.21,23.91Z" style="fill:#969322"/><path d="M95.89,24.52c0,.05,0,.08,0,.05s.08-.05.06-.07l-.06-.05Z" style="fill:#969322"/><path d="M95.91,25c0,.08,0,.13.08.08s.13-.08.1-.1L96,24.88Z" style="fill:#969322"/><path d="M95.26,24.75c0-.05-.16,0-.18.05s-.1.14,0,.13l.19,0Z" style="fill:#969322"/><path d="M96,24s.06-.11,0-.11-.06,0-.07,0l0,.11Z" style="fill:#969322"/><path d="M96.35,24.26c0,.1,0,.18.08.12s.15-.07.12-.11l-.08-.12Z" style="fill:#969322"/><path d="M94.55,23.75c0-.05-.16,0-.18.05s-.1.14,0,.13l.18,0Z" style="fill:#969322"/><path d="M95.18,24.28c0-.05-.16,0-.18,0s-.09.15,0,.14l.18-.05Z" style="fill:#969322"/><path d="M70.72,20.05a.39.39,0,0,1-.45,0,.35.35,0,0,1-.24-.33c0-.14.32-.16.32-.16s-.12.14,0,.17.41,0,.37.06S70.86,20,70.72,20.05Z" style="fill:#969322"/><path d="M70.21,19.2c.1,0,.17-.06.08-.18a.23.23,0,0,0-.3-.11c-.07.05-.14.1-.08.18S70.21,19.2,70.21,19.2Z" style="fill:#969322"/><path d="M69.68,19.64c0-.06,0-.11-.06-.08s-.11,0-.09.06l.06.08Z" style="fill:#969322"/><path d="M69.78,19.06c0-.09,0-.18-.09-.12s-.18.06-.15.1l.09.12Z" style="fill:#969322"/><path d="M70.55,19.51c0,.08.2.08.24,0s.16-.15.08-.15h-.24Z" style="fill:#969322"/><path d="M67.49,18.57a.36.36,0,0,1,.43,0,.35.35,0,0,1,.23.35c0,.13-.32.15-.32.15s.12-.14,0-.18-.41,0-.37-.07S67.34,18.67,67.49,18.57Z" style="fill:#969322"/><path d="M68,19.45c-.1,0-.18.05-.09.18s.21.17.29.12.14-.1.09-.19S68,19.45,68,19.45Z" style="fill:#969322"/><path d="M67.84,18c.09,0,.17,0,.13-.19s-.15-.22-.22-.18-.16.08-.13.19S67.84,18,67.84,18Z" style="fill:#969322"/><path d="M68.49,19c0,.06,0,.11.05.08s.11,0,.1-.06L68.58,19Z" style="fill:#969322"/><path d="M68.37,19.6c-.05.09,0,.18.08.13s.18-.05.15-.1l-.09-.13Z" style="fill:#969322"/><path d="M67.63,19.12a.15.15,0,0,0-.24,0c0,.08-.17.15-.09.16h.24Z" style="fill:#969322"/><path d="M68.82,18.35c.07,0,.11-.13.07-.13s-.07,0-.09,0l-.07.13Z" style="fill:#969322"/><path d="M69.16,18.85c-.07.11,0,.23.06.18s.2-.05.18-.1l-.06-.18Z" style="fill:#969322"/><path d="M67.06,17.64a.15.15,0,0,0-.24,0c0,.08-.17.15-.09.15H67Z" style="fill:#969322"/><path d="M67.69,18.5a.16.16,0,0,0-.24,0c0,.08-.17.16-.09.16h.24Z" style="fill:#969322"/><polygon points="83.03 21.2 75.44 19.93 75.12 19.3 70.9 17.61 70.16 19.3 70.16 16.98 65.2 17.61 65.26 17.53 66.92 17.12 70.45 16.23 70.47 16.24 82.37 20.94 82.42 20.96 83.03 21.2" style="fill:#f0ff97;opacity:0.33;mix-blend-mode:color-dodge"/><polygon points="114.71 116.1 109.22 119.16 110.48 123.49 110.48 119.05 114.71 116.1" style="fill:#f0ff97;opacity:0.14;mix-blend-mode:color-dodge"/><polygon points="100.27 2.32 96.65 20.73 96.64 20.78 94.97 21.2 95.81 12.86 97.82 6.11 98.56 3.57 98.14 0.93 98.66 0.3 99.61 0.33 100.27 2.32" style="fill:#7648a3;opacity:0.34;mix-blend-mode:multiply"/><polygon points="80.08 1.35 83.86 0.06 99.61 0.3 97.19 1.35 97.08 1.78 91.59 1.35 84.09 0.93 80.08 1.35" style="fill:#f0ff97;opacity:0.33;mix-blend-mode:color-dodge"/><path d="M84.48,83.17c-.37-1.93-1.08-2.9-2.15-2.9a1.57,1.57,0,0,0-.86.28h0c-.11-.36-.22-.54-.35-.54s-.31.12-.31.26a2.3,2.3,0,0,1,.2.9l-.09,2.66c0,.48.08,1.79.24,3.91a1.66,1.66,0,0,0,0,.42.46.46,0,0,0,0,.14.27.27,0,0,0,.25.18l.06,0c.13-.08.19-.15.19-.23l0-.17V88a2,2,0,0,0,.6.14h0l.47-.06a2.84,2.84,0,0,0,1.72-2.12,5.33,5.33,0,0,0,.13-1.25Zm-3-1.62q.07-.72.66-.72h.34a1.16,1.16,0,0,1,.8.52A5.89,5.89,0,0,1,84,84.4v.48a2.77,2.77,0,0,1-.5,1.69,1.24,1.24,0,0,1-1.09.54h-.24q-.43,0-.66-.78l-.13-2.54Z" style="fill:#6c20cd;opacity:0.45;mix-blend-mode:multiply"/><path d="M88.29,83.68s0,0,0-.05c-.49-2.26-1.15-3.4-2-3.4a.49.49,0,0,0-.53.32l0,0v.09a15.29,15.29,0,0,0-.73,4.5v.15a5.57,5.57,0,0,0,.06.85,2.71,2.71,0,0,0,.1.51c.21,1,.63,1.54,1.27,1.54a2.11,2.11,0,0,0,.72-.17q1.17-.76,1.17-3C88.39,84.6,88.35,84.13,88.29,83.68Zm-.44,1.73a3.49,3.49,0,0,1-.09.84c-.23,1-.6,1.43-1.14,1.43h-.09l-.22-.06c-.3-.17-.5-.59-.6-1.27a8.77,8.77,0,0,1-.06-1.1v-.08a13.39,13.39,0,0,1,.71-4.4c.09,0,.2.07.35.21a6.7,6.7,0,0,1,1.1,3.19,5.53,5.53,0,0,1,0,.71Z" style="fill:#6c20cd;opacity:0.45;mix-blend-mode:multiply"/><path d="M82.6,91.83a.23.23,0,0,0-.2-.11h0c-.14,0-.25.1-.3.31,0,0,0,.09,0,.29v.09q0,2.2-.26,6h-.06a36,36,0,0,1-1.36-5.74,4.09,4.09,0,0,0-.23-1.14c0-.09-.09-.13-.15-.13h-.17s-.09.08-.13.24a16.46,16.46,0,0,0-.12,2.56l0,2.32c0,1.59,0,2.54,0,2.86v.29a1,1,0,0,0,0,.27h0a.24.24,0,0,0,.25.18c.17,0,.26-.08.26-.23V96.51l0-2v0s.13.29.23.87c.2.91.39,1.68.57,2.32A12.89,12.89,0,0,0,81.48,99c.19.61.37.92.54.92l.15-.07c.09,0,.17-.38.24-1.15.11-1.18.2-3.24.27-6.2v-.21A.88.88,0,0,0,82.6,91.83Z" style="fill:#6c20cd;opacity:0.45;mix-blend-mode:multiply"/><path d="M86.29,95.46c-.08-.36-.16-.69-.25-1-.46-1.61-1-2.41-1.71-2.41-.29,0-.47.11-.53.32l0,0v.09a15.6,15.6,0,0,0-.72,4.5v.14a5.57,5.57,0,0,0,.15,1.37,1.16,1.16,0,0,1,0,.18c.23.91.64,1.36,1.24,1.36a2.39,2.39,0,0,0,.72-.17,3.33,3.33,0,0,0,1.16-3C86.4,96.41,86.35,95.93,86.29,95.46Zm-.44,1.77a3.63,3.63,0,0,1-.09.85c-.22,1-.6,1.2-1.13,1.2h-.09l-.23-.07a1.38,1.38,0,0,1-.6-1.14h0a6.9,6.9,0,0,1-.06-1V97a13.36,13.36,0,0,1,.72-4.4.62.62,0,0,1,.34.2,6.64,6.64,0,0,1,1,2.24,7.56,7.56,0,0,1,.18,1.67Z" style="fill:#6c20cd;opacity:0.45;mix-blend-mode:multiply"/><path d="M90,91.5a1.08,1.08,0,0,0-.56-.26,3.06,3.06,0,0,0-.65-.06h-.45c-.87,0-1.31.11-1.31.32s.07.21.22.28l.81,0v0c0,1,0,2.73.08,5.07,0,.9.06,1.6.11,2.12h0c.08.84.2,1.17.35,1a.31.31,0,0,0,.31-.25,10.82,10.82,0,0,1-.27-3.29c0-2,0-3.53,0-4.65v0h.1a1.81,1.81,0,0,1,1.08.22c.19,0,.28-.1.28-.25v0Z" style="fill:#6c20cd;opacity:0.45;mix-blend-mode:multiply"/><path d="M74.82,107.12v0l0-.26c-.36-1.93-1.08-2.9-2.14-2.9a1.65,1.65,0,0,0-.86.28h-.06c-.1-.36-.22-.54-.34-.54s-.31.13-.31.26a2.5,2.5,0,0,1,.2.9l-.09,2.67c0,.48.08,1.78.23,3.9a1.74,1.74,0,0,0,.07.51h0l0,.06h0a.27.27,0,0,0,.25.17c.17-.08.25-.17.25-.25l0-.17v-.09a2.19,2.19,0,0,0,.6.14h0l.47-.05c1.23-.52,1.85-1.65,1.85-3.37Zm-.46,1.42a3,3,0,0,1-.45,1.8,1.31,1.31,0,0,1-1.15.54h-.23c-.23,0-.41-.16-.55-.48a2.09,2.09,0,0,1-.11-.3l-.14-2.65.08-2.25c.06-.48.28-.71.66-.71h.35a1.17,1.17,0,0,1,.8.51,5.1,5.1,0,0,1,.6,1.6,7.38,7.38,0,0,1,.14,1.46Z" style="fill:#6c20cd;opacity:0.45;mix-blend-mode:multiply"/><path d="M78.22,110.83l-1,.13c-.18,0-.32-2.42-.4-7.27v0h.2l.4,0a.35.35,0,0,0,.22-.19v-.18a.08.08,0,0,0,0-.08h0a1.51,1.51,0,0,0-.64-.11h-.21c-.26,0-.39,0-.39.05-.76.07-1.14.2-1.14.37a.29.29,0,0,0,.08.21.3.3,0,0,0,.13.09h0l.82-.14h0c0,1.28,0,2.4.08,3.37.07,2,.15,3.27.25,3.93v0c-.45,0-.68.11-.68.31a.27.27,0,0,0,.2.26,6.66,6.66,0,0,0,1.14-.13c.75-.06,1.12-.19,1.12-.38v0C78.42,111,78.35,110.89,78.22,110.83Z" style="fill:#6c20cd;opacity:0.45;mix-blend-mode:multiply"/><path d="M81.51,108.79a18.59,18.59,0,0,1-.93-1.65,5.51,5.51,0,0,1-.72-2.29v0c.06-.72.28-1.09.65-1.09h.13c.25,0,.25.18.45.52l0,.17c0,.28.14.43.28.43s.51-.1.51-.26a.67.67,0,0,0,0-.31,2.41,2.41,0,0,0-.29-.58,1.18,1.18,0,0,0-1-.51l-.37.06a1.67,1.67,0,0,0-.88,1.6,6.72,6.72,0,0,0,.91,2.8,6,6,0,0,1,1.26,2.85v.11q-.22.81-.69.81h-.08l-.17,0a1.09,1.09,0,0,1-.74-1.09v0l0-.26c0-.08-.06-.16-.2-.25h-.08a.64.64,0,0,0-.17,0h0a.55.55,0,0,0-.37.46,1.06,1.06,0,0,0,.15.55l.09.13a2,2,0,0,0,1.5,1l.32,0a2.23,2.23,0,0,0,.53-.4,1.43,1.43,0,0,0,.41-1A3.81,3.81,0,0,0,81.51,108.79Z" style="fill:#6c20cd;opacity:0.45;mix-blend-mode:multiply"/><path d="M89.1,105.25c-.08-.53-.16-1.08-.25-1.65l0-.14c-.08-.17-.17-.26-.26-.26a.4.4,0,0,0-.29.12c-.21.55-.43,1.27-.68,2.16a38.3,38.3,0,0,1-1.56,6.06l0,.08c0,.14.1.24.29.29h0c.16,0,.47-.76.92-2.29a12.29,12.29,0,0,0,1.42.12l.5,0,.1.72c0,.9.17,1.36.38,1.36s.22-.09.28-.26C89.78,110,89.49,107.92,89.1,105.25Zm-.14,4h-.49a4.44,4.44,0,0,1-1-.12l.11-.51.4-1.88a9.34,9.34,0,0,1,.52-2h0l.21,1.42.45,3A.21.21,0,0,1,89,109.2Z" style="fill:#6c20cd;opacity:0.45;mix-blend-mode:multiply"/><path d="M93,109.8c-.42-1.53-.69-2.45-.82-2.73h0a4.11,4.11,0,0,0,1.14-2.28v-.38a2.62,2.62,0,0,0-.22-.86,1.1,1.1,0,0,0-.35-.47h0a.76.76,0,0,0-.41-.15,2,2,0,0,0-1.19.48l-.13-.07c-.2,0-.3.09-.32.34a.72.72,0,0,0-.2.24.4.4,0,0,0,.16.33,57,57,0,0,0,.07,7,1.48,1.48,0,0,0,0,.22c0,.22.11.33.24.34h.09c.14-.08.22-.17.23-.26q0-.44-.06-.87c-.06-.91-.1-1.87-.11-2.87l.61-.32s.1.12.17.33a.83.83,0,0,1,0,.15,12.74,12.74,0,0,0,.74,2.43c.35.93.6,1.39.76,1.4s.23-.05.31-.22Zm-1.66-3.12h-.08a22.23,22.23,0,0,1,0-2.63c.49-.4.84-.6,1-.58h.14a1.39,1.39,0,0,1,.37,1.24v.19l-.05.28-.08.21A2.08,2.08,0,0,1,91.35,106.68Z" style="fill:#6c20cd;opacity:0.45;mix-blend-mode:multiply"/><path d="M88.29,83.67h0s0,0,0-.05c-.49-2.26-1.15-3.4-2-3.4a.49.49,0,0,0-.53.32l0,0v.09a15.29,15.29,0,0,0-.73,4.5v.15a5.57,5.57,0,0,0,.06.85l-.35-.76-.33.52a5.33,5.33,0,0,0,.13-1.25l-.13-1.51c-.37-1.93-1.08-2.9-2.15-2.9a1.57,1.57,0,0,0-.86.28h0c-.11-.36-.22-.54-.35-.54s-.31.12-.31.26a2.3,2.3,0,0,1,.2.9l-.09,2.66c0,.48.08,1.79.24,3.91a1.66,1.66,0,0,0,0,.42l-.4-.2V86.8l-1.27-1.39.93.47.11-.81V82.86c0-.11.23-1.62.23-1.62l-.46-1v-1h.46l.93,1a2.2,2.2,0,0,1,.81-.24A13.79,13.79,0,0,1,84,80.2l.58,2.08,0,2,.55-3.11v-.58l.23-.58,1-.58,1.4,1.51Z" style="fill:#f0ff97;opacity:0.14;mix-blend-mode:color-dodge"/><path d="M98.74,106.71c-.36-1.93-1.08-2.9-2.15-2.9a1.59,1.59,0,0,0-.86.28h0c-.11-.36-.22-.54-.35-.54s-.3.12-.3.26a2.39,2.39,0,0,1,.19.9l-.09,2.66q0,.72.24,3.9a1.69,1.69,0,0,0,0,.43.58.58,0,0,0,0,.14.27.27,0,0,0,.25.18l.06,0c.13-.07.2-.14.2-.22l0-.17v-.08a2.09,2.09,0,0,0,.6.13h0l.47,0a2.85,2.85,0,0,0,1.71-2.12,5.39,5.39,0,0,0,.13-1.25Zm-3-1.62q.08-.72.66-.72h.34a1.14,1.14,0,0,1,.8.52,5.77,5.77,0,0,1,.74,3v.48a2.77,2.77,0,0,1-.5,1.69,1.23,1.23,0,0,1-1.09.54h-.24q-.43,0-.66-.78l-.13-2.54Z" style="fill:#6c20cd;opacity:0.45;mix-blend-mode:multiply"/><path d="M99.07,109l-.33.52a5.39,5.39,0,0,0,.13-1.25l-.13-1.51c-.36-1.93-1.08-2.9-2.15-2.9a1.59,1.59,0,0,0-.86.28h0c-.11-.36-.22-.54-.35-.54s-.3.12-.3.26a2.39,2.39,0,0,1,.19.9l-.09,2.66q0,.72.24,3.9a1.69,1.69,0,0,0,0,.43l-.4-.2v-1.16L93.74,109l.93.46.11-.81v-2.2c0-.12.23-1.62.23-1.62l-.46-1v-1H95l.93,1a2.35,2.35,0,0,1,.81-.23,14.34,14.34,0,0,1,1.51.23l.58,2.09,0,1.94Z" style="fill:#f0ff97;opacity:0.14;mix-blend-mode:color-dodge"/><path d="M82.09,92s0,.09,0,.29v.09q0,2.2-.26,6h-.06a36,36,0,0,1-1.36-5.74,4.09,4.09,0,0,0-.23-1.14l.3.14L81,95.15l.58.47v.69s.24-1.16.24-1.27-.24-1.39-.24-1.39L81.8,92l.23-.58.36.28C82.25,91.72,82.14,91.82,82.09,92Z" style="fill:#f0ff97;opacity:0.14;mix-blend-mode:color-dodge"/><path d="M79.68,99.72a1,1,0,0,0,0,.27l-.23-.55V95.62l-.47-.7.35.12V92.37l.42-.68a16.46,16.46,0,0,0-.12,2.56l0,2.32c0,1.59,0,2.54,0,2.86Z" style="fill:#f0ff97;opacity:0.14;mix-blend-mode:color-dodge"/><path d="M86.05,94.46h0c-.46-1.61-1-2.41-1.71-2.41-.29,0-.47.11-.53.32l0,0v.09a15.6,15.6,0,0,0-.72,4.5v.14a5.57,5.57,0,0,0,.15,1.37,1.16,1.16,0,0,1,0,.18l-.34-1-.24-1.16-.31,2.15c.11-1.18.2-3.24.27-6.2v-.21a.88.88,0,0,0-.08-.45l.47.19-.23,2.44.46-.58v-.81l.58-1,.12-.23,1.39.12Z" style="fill:#f0ff97;opacity:0.14;mix-blend-mode:color-dodge"/><path d="M89.45,91.21l-.06,0a3.06,3.06,0,0,0-.65-.06h-.45c-.87,0-1.31.11-1.31.32s.07.21.22.28l.81,0v0c0,1,0,2.73.08,5.07,0,.9.06,1.6.11,2.12h0l-.49-1.83v-2.2l-.7-.35-.69-.11.69-.12.58.23.12-1.16V92.25L87.25,92l-.7-.23v-.58l.23.23v-.23l1-.23Z" style="fill:#f0ff97;opacity:0.14;mix-blend-mode:color-dodge"/><path d="M85.77,103.44a1,1,0,0,0-.56-.26,3,3,0,0,0-.64-.05h-.45c-.88,0-1.32.1-1.32.31a.31.31,0,0,0,.23.28l.81,0v0c0,1,0,2.73.08,5.08,0,.89,0,1.6.1,2.11h0q.12,1.25.36,1a.32.32,0,0,0,.31-.25,11,11,0,0,1-.28-3.29c0-2,0-3.53,0-4.65v0h.09a1.76,1.76,0,0,1,1.09.23c.19,0,.28-.11.28-.26v0Z" style="fill:#6c20cd;opacity:0.45;mix-blend-mode:multiply"/><path d="M85.28,103.15l-.07,0a3,3,0,0,0-.64-.05h-.45c-.88,0-1.32.1-1.32.31a.31.31,0,0,0,.23.28l.81,0v0c0,1,0,2.73.08,5.08,0,.89,0,1.6.1,2.11h0l-.48-1.83v-2.21l-.7-.34-.7-.12.7-.12.58.24.12-1.16V104.2l-.47-.24-.69-.23v-.58l.23.24v-.24l1-.23Z" style="fill:#f0ff97;opacity:0.14;mix-blend-mode:color-dodge"/><path d="M76.43,108.89c0,.89.1,1.59.16,2.11h0l-.53-1.81L76,107l-.71-.33-.7-.09.7-.14.58.22.09-1.16,0-1.16-.47-.22-.7-.22,0-.57.24.22v-.23l1-.26.74.09c-.26,0-.39,0-.39.05-.76.07-1.14.2-1.14.37a.29.29,0,0,0,.08.21s0,.07.11.1h0l.82-.14h0c0,1.28,0,2.4.08,3.37C76.39,107.64,76.4,108.24,76.43,108.89Z" style="fill:#f0ff97;opacity:0.14;mix-blend-mode:color-dodge"/><path d="M74.72,105.94l.1,1.14,0-.26c-.36-1.93-1.08-2.9-2.14-2.9a1.65,1.65,0,0,0-.86.28h-.06c-.1-.36-.22-.54-.34-.54s-.31.13-.31.26a2.5,2.5,0,0,1,.2.9l-.09,2.67c0,.48.08,1.78.23,3.9a1.74,1.74,0,0,0,.07.51l-.36-.86V110l-.58-.81.23-.58.23.47v-1l-.69-.46-1.74-.23h1.74l.58.23v-1.39l.23-.93v-.81l-.58-.93.58-.35.58.35.23.12h.93l.93.46.81,1.39v.26l.35-.14Z" style="fill:#f0ff97;opacity:0.14;mix-blend-mode:color-dodge"/><path d="M80.23,107.65a6,6,0,0,1,1.26,2.85v.11q-.22.81-.69.81h-.08l-.17,0a1.09,1.09,0,0,1-.74-1.09v0l0-.26c0-.08-.06-.16-.2-.25h-.08a.64.64,0,0,0-.17,0l.42-.28-.12-.23.46.23-.11.81.11.35.7.23h.35v-1l-.7-.7.12-.11-.12-.35a12.93,12.93,0,0,1-1.16-2.2,3.4,3.4,0,0,0-.23-.93l-.12-.12.24-.81v-1h.11l.81-.47.24-.23.92.23.24.55a1.18,1.18,0,0,0-1-.51l-.37.06a1.67,1.67,0,0,0-.88,1.6A6.72,6.72,0,0,0,80.23,107.65Z" style="fill:#f0ff97;opacity:0.14;mix-blend-mode:color-dodge"/><path d="M89.13,105.18l0,.07c-.08-.53-.16-1.08-.25-1.65l0-.14c-.08-.17-.17-.26-.26-.26a.4.4,0,0,0-.29.12c-.21.55-.43,1.27-.68,2.16a38.3,38.3,0,0,1-1.56,6.06V111l-.47-.35.47-.35.11-1.51.58-.58.23-1.73.58-3.37,1-1,.46.58Z" style="fill:#f0ff97;opacity:0.14;mix-blend-mode:color-dodge"/><path d="M92.76,103.08a.76.76,0,0,0-.41-.15,2,2,0,0,0-1.19.48l-.13-.07c-.2,0-.3.09-.32.34a.72.72,0,0,0-.2.24.4.4,0,0,0,.16.33,57,57,0,0,0,.07,7,1.48,1.48,0,0,0,0,.22l-.26-.38-.23-1.51v-2.2l-.23-2,.46-.7v-.23l-.58-.93.58-.81L91,103l.81-.7.69.35Z" style="fill:#f0ff97;opacity:0.14;mix-blend-mode:color-dodge"/><polygon points="125.79 83.8 125.79 83.81 125.78 83.82 118.49 125.9 120.81 125.9 120.51 129.89 119.77 139.11 103.13 149.74 103.73 144.6 103.1 144.49 103.52 143.22 100.25 133.62 102.04 131.82 107.21 130.56 114.07 127.5 114.81 126.55 115.97 128.03 117.98 128.45 117.14 127.5 116.76 126.75 116.76 126.75 116.76 126.74 116.2 125.24 115.97 124.65 110.48 123.49 110.48 119.26 114.81 116.1 115.97 103.22 115.97 98.05 111.65 97.41 115.97 97.41 117.87 91.29 115.97 85.48 117.87 72.29 118.93 71.76 115.97 66.48 110.48 63.85 117.24 66.17 124.52 65.11 128.22 71.23 137.09 70.28 126.53 82.95 125.79 83.8" style="fill:#7648a3;opacity:0.54;mix-blend-mode:multiply"/><polygon points="116.82 85.48 125.16 84.32 124 90.76 118.72 91.29 116.82 85.48" style="fill:#7648a3;opacity:0.21;mix-blend-mode:multiply"/><polygon points="119.46 72.29 118.4 72.61 128.22 73.87 128.22 72.82 119.46 72.29" style="fill:#7648a3;opacity:0.21;mix-blend-mode:multiply"/><polygon points="115.13 116.52 117.14 119.47 110.91 119.26 115.13 116.52" style="fill:#7648a3;opacity:0.21;mix-blend-mode:multiply"/><polygon points="110.91 120.21 110.91 123.06 117.35 120.85 119.14 120.85 117.14 120.21 110.91 120.21" style="fill:#7648a3;opacity:0.21;mix-blend-mode:multiply"/><polygon points="111.65 123.28 116.08 124.33 117.35 121.27 111.65 123.28" style="fill:#f0ff97;opacity:0.08;mix-blend-mode:color-dodge"/><polygon points="100.25 133.62 112.28 131.19 102.04 131.82 100.25 133.62" style="fill:#7648a3;opacity:0.21;mix-blend-mode:multiply"/><polygon points="103.1 144.49 111.65 140.16 103.52 143.22 103.1 144.49" style="fill:#7648a3;opacity:0.21;mix-blend-mode:multiply"/><polygon points="103.73 144.49 109.75 141.75 109.85 143.75 110.38 142.59 110.59 141.43 116.29 139.64 117.77 139.11 119.14 137.53 119.77 132.88 119.37 139.37 103.1 149.77 103.73 144.49" style="fill:#7648a3;opacity:0.21;mix-blend-mode:multiply"/><polygon points="34.08 147.55 31.44 143.8 33.54 150.09 74.41 152.18 81.75 152.18 95.37 152.18 104.81 150.09 106.32 144.15 103.8 147.99 103.76 145.89 92.23 145.89 92.23 150.09 91.18 145.89 60.25 147.01 58.69 143.8 59.74 147.99 53.45 147.99 52.4 143.8 49.16 143.8 49.26 147.99 47.55 143.8 34.08 147.55" style="fill:#756515"/><path d="M33.21,131.4s3.82,3.15,4.59,3.25,2.68-3.35,3-3.44A7.74,7.74,0,0,0,42,130.06h5.73s-2,3.44-1.62,4.3,5.73,3.92,6,4.4c1.23,2.05.09-4.06,3.63-3.83,2.87.2,4.78-4.11,4.78-4.11l3.44,6A20,20,0,0,0,65,139.33c.29.38,6.69,6.6,6.69,6.6s2-6,2.3-6.6-.2-2.1-.2-2.1,1.44-3.92,1.25-4.3a45.43,45.43,0,0,0-3.63-3.16L73,127.86c.39-.48,3.54-1.53,3.54-1.53s4.68,1.34,6.69,1.63,27.12,2.48,27.12,2.48l-4.66-1.81-27.33-2.58-2.13-.32L73,127.29l-2.58,2.48H68.77L65,128.24l3-1,4.68-1.56,3.86-.49-5.09,0-8.83.92-1.4-.25-4-.29-19.44,0Z" style="fill:#7648a3;opacity:0.43;mix-blend-mode:multiply"/><path d="M68.72,117.07a10.72,10.72,0,0,0,.87-2,6.21,6.21,0,0,1-.38-1.57c0-.76,2.14-1.93,3.39-1.78A16.37,16.37,0,0,1,76,112.76s-1.25,1.86-2,2-1,1.45-1.57,1.63-2.61-.91-2.61-.91A16.59,16.59,0,0,0,69,117a17,17,0,0,0,.16,1.89Z" style="fill:#756515"/><path d="M70.05,114.74a7.12,7.12,0,0,1-.42-1.26c-.09-.51,1.82-1.54,1.82-1.54l.11,1.86.1-1.92a10,10,0,0,1,1,0,6.1,6.1,0,0,1,.6.16l-.58,1.47.87-1.39,1.92.59s-2.29.82-2.5.91,1.08.72,1.08.72a7,7,0,0,0-1.48-.51,6,6,0,0,0-.84.44l1.4.94a7.9,7.9,0,0,0-1.53-.84l-1,.52,1.9.48s-1.8-.24-2.05-.33A1.06,1.06,0,0,1,70.05,114.74Z" style="fill:#89791d;opacity:0.2;mix-blend-mode:multiply"/><path d="M45.35,111.51c.72,0,1.45-.8,1.66-.94,0,0,.14,0,.3.12l1.18.74h0l.38.23.13.08c1.2.74,2.57,1.48,3.08,1.16a17.64,17.64,0,0,0,2.73-3.15,5.63,5.63,0,0,0,.52-1.18.65.65,0,0,0,0-.13,2.6,2.6,0,0,0-.29-2.47,22.12,22.12,0,0,0-4.21-3.12c-.59-.42,1.43-1.73.93-2.09a1.37,1.37,0,0,0-.69-.15h0a5.06,5.06,0,0,0-1,.08c-1.18.17-2.37-.4-3.53.65-2,1.84-.89,5-.89,5s-1.88.22-1.83,1.22S44.62,111.53,45.35,111.51Z" style="fill:#6c20cd"/><path d="M46.92,102.43s4.62.18,2.18,3.38-3.55,4.08-4,3.22.8-2.3.8-2.3l.54.39-.56.18s-.17.61.05.68a13.42,13.42,0,0,0,2.92-2.39c.26-.43-1.63-2.34-1.94-2.27s-1,2.07-1,2.07S46.4,102.76,46.92,102.43Z" style="fill:#6c20cd"/><path d="M44.15,109.4a6.91,6.91,0,0,0,1.23,1.3c.37.15,3.35-4.27,4.58-4.5a4.16,4.16,0,0,1,2.52.54s-2.44-.24-2.76.09-2.23,4-3.24,4.85-.33.32-1,.29S44.15,109.4,44.15,109.4Z" style="fill:#6c20cd"/><path d="M52.08,112.91a17.64,17.64,0,0,0,2.73-3.15,5.63,5.63,0,0,0,.52-1.18,14.47,14.47,0,0,0-1.16-1.08c-.45-.34-3.88-.33-4.42-.2s-2.44,3.39-2.44,3.39l1.18.74h0l.38.23.13.08C50.2,112.49,51.57,113.23,52.08,112.91Z" style="fill:#6c20cd;opacity:0.79;mix-blend-mode:multiply"/><path d="M55.37,108.45a2.6,2.6,0,0,0-.29-2.47,22.12,22.12,0,0,0-4.21-3.12c-.59-.42,1.43-1.73.93-2.09a1.37,1.37,0,0,0-.69-.15c.22,0,.4.1.44.25.11.46-1.79,1.26-1.83,1.75s4.2,2.27,4.85,2.92A6.64,6.64,0,0,1,55.37,108.45Z" style="fill:#6c20cd;opacity:0.79;mix-blend-mode:multiply"/><path d="M50,103.86s1.14,1.33,1.65,1.77A19.9,19.9,0,0,0,53.88,107s-2.62-.8-3-1a7.24,7.24,0,0,1-1.22-1Z" style="fill:#6c20cd;opacity:0.79;mix-blend-mode:multiply"/><path d="M46.71,105.64s.57-1.4.9-1.27,1.11,1.18,1.11,1.18-1.08-.54-1.35-.35S46.71,105.64,46.71,105.64Z" style="fill:#6c20cd;opacity:0.79;mix-blend-mode:multiply"/><path d="M47.9,106.26s-1.28.81-1.47.52a5.43,5.43,0,0,1-.23-1.6s.57,1.06.9,1.06S47.9,106.26,47.9,106.26Z" style="fill:#6c20cd;opacity:0.79;mix-blend-mode:multiply"/><path d="M53.79,115.17s-2.11-2.71-1.59-3.26a13,13,0,0,1,2.12-1.42,8,8,0,0,1,0-2.71c.29-.58,2-2.8,2-2.8s-1.58,2.45-1.45,2.84a5.12,5.12,0,0,0,.86,1.66c.29.23.9.14,1.42.73a3.22,3.22,0,0,1,.66,1.24s11.06,6.56,13.74,7.69,27.87,8.26,27.87,8.26l2.45,2.06s-29-8.75-30.75-9.48-12.86-7.81-13.6-8-1.44.57-2,.27l-1.67-.86s-1.14.48-1.18.71S53.79,115.17,53.79,115.17Z" style="fill:#89791d"/><path d="M68.52,117.6s-1.42-3.59-1.91-3.92a11.29,11.29,0,0,1-2.84-1.46c-1.12-1-.1-5.67,1.73-7.34a32.31,32.31,0,0,1,5.94-3.64s1.16,4.26.43,5.52.91,3.32.41,4.45-4.73,2.7-4.73,2.7a31.77,31.77,0,0,0,1.23,3.16,32.26,32.26,0,0,0,3,2.21Z" style="fill:#a59025"/><path d="M66.75,112.61a13.33,13.33,0,0,1-2.42-1c-.87-.52,0-4.7,0-4.7l2.93,2.24-2.73-2.63s1-1.28,1.28-1.54a9.81,9.81,0,0,1,1-.7l1.43,2.77L67.36,104l3.36-2.11s-1.73,4.49-1.87,4.91,2.48-.69,2.48-.69a14,14,0,0,0-2.68,1.56,11.06,11.06,0,0,0-.44,1.82l3.22-.88s-3.15.91-3.22,1.2l-.54,2.17,3.17-2.21s-2.69,2.37-3.14,2.63A2.22,2.22,0,0,1,66.75,112.61Z" style="fill:#89791d;opacity:0.28;mix-blend-mode:multiply"/><path d="M64.36,116s-3.7,1.22-4.27,1.06a11,11,0,0,0-3-1.27c-1.49-.24-4.47,3.58-4.58,6.08a32.78,32.78,0,0,0,1,7s4-1.85,4.56-3.22,3.16-1.44,3.71-2.55-.95-5.42-.95-5.42a30.71,30.71,0,0,1,3.25-1.08,31.5,31.5,0,0,1,3.66.93Z" style="fill:#706116"/><path d="M59.36,117.86A13.46,13.46,0,0,0,57,116.63c-1-.34-3.62,3.07-3.62,3.07l3.62.83-3.79-.43s-.36,1.6-.37,2a11.81,11.81,0,0,0,.1,1.24l3.08-.68-3,1.27.53,4s2.37-4.24,2.61-4.61,1.06,2.36,1.06,2.36a13.88,13.88,0,0,1-.51-3.08A10.64,10.64,0,0,1,57.84,121l1.4,3.06s-1.33-3-1.15-3.28L59.42,119l.34,3.88s.11-3.61,0-4.13A2.25,2.25,0,0,0,59.36,117.86Z" style="fill:#89791d;opacity:0.27;mix-blend-mode:multiply"/><path d="M66.69,123.22a16.31,16.31,0,0,1-2.45,2.17,8.36,8.36,0,0,0-2.38.19c-1.07.36-1.71,3.9-.92,5.58A24.49,24.49,0,0,0,64,135.39s2-2.62,1.88-3.7,1.58-2,1.57-3-2.5-3.24-2.5-3.24a23.19,23.19,0,0,1,1.76-1.83,23,23,0,0,1,2.73-.65Z" style="fill:#706116"/><path d="M64,126.17a10.35,10.35,0,0,0-2,0c-.76.12-1.32,3.27-1.32,3.27l2.67-.7-2.65,1s.31,1.17.44,1.43a7.44,7.44,0,0,0,.5.78l1.79-1.5L62,132.33l1.72,2.43s.1-3.61.12-3.94S65.32,132,65.32,132a10.55,10.55,0,0,1-1.41-1.85,8.82,8.82,0,0,1,.22-1.38l2,1.53s-1.92-1.54-1.89-1.76.25-1.65.25-1.65L66,129.34s-1.17-2.42-1.42-2.73A1.5,1.5,0,0,0,64,126.17Z" style="fill:#89791d;opacity:0.31;mix-blend-mode:multiply"/><path d="M49.15,135.39c.58-.5.65-1.64.74-1.89,0,0,.13-.07.32-.1s.86-.11,1.46-.18h0l.46-.06.17,0c1.46-.2,3.08-.51,3.28-1.11a18.22,18.22,0,0,0,.14-4.41,6.84,6.84,0,0,0-.36-1.31l-.06-.13a2.74,2.74,0,0,0-1.89-1.83,23.74,23.74,0,0,0-5.53.26c-.76,0,0-2.37-.63-2.34a1.47,1.47,0,0,0-.67.35h0a6.12,6.12,0,0,0-.81.76c-.84.93-2.2,1.25-2.45,2.9C42.92,129.12,46,131,46,131s-1.39,1.44-.69,2.23S48.57,135.88,49.15,135.39Z" style="fill:#6c20cd"/><path d="M44.37,126.9s3.9-2.94,4,1.31-.18,5.71-1.13,5.31-.88-2.42-.88-2.42l.7,0-.33.52s.26.62.49.53a14.07,14.07,0,0,0,.79-3.91c-.07-.52-2.9-.82-3.1-.56s.58,2.35.58,2.35S44.16,127.52,44.37,126.9Z" style="fill:#6c20cd;opacity:0.79;mix-blend-mode:multiply"/><path d="M46.76,134.45a6.93,6.93,0,0,0,1.88.24c.39-.12-.12-5.73.74-6.74a4.44,4.44,0,0,1,2.43-1.24s-2.16,1.44-2.21,1.92.87,4.79.59,6.13,0,.48-.64.92S46.76,134.45,46.76,134.45Z" style="fill:#6c20cd;opacity:0.79;mix-blend-mode:multiply"/><path d="M55.59,132a18.22,18.22,0,0,0,.14-4.41,6.84,6.84,0,0,0-.36-1.31c-.58-.06-1.34-.12-1.68-.11-.59,0-3.4,2.33-3.75,2.79s.27,4.41.27,4.41l1.46-.18h0l.46-.06.17,0C53.77,132.94,55.39,132.63,55.59,132Z" style="fill:#6c20cd;opacity:0.79;mix-blend-mode:multiply"/><path d="M55.31,126.18a2.74,2.74,0,0,0-1.89-1.83,23.74,23.74,0,0,0-5.53.26c-.76,0,0-2.37-.63-2.34a1.47,1.47,0,0,0-.67.35c.2-.13.39-.19.53-.09.4.3-.63,2.22-.33,2.65s5-1,5.92-.85C53.41,124.4,54.68,125.56,55.31,126.18Z" style="fill:#6c20cd;opacity:0.79;mix-blend-mode:multiply"/><path d="M47.8,126.05s1.83.32,2.54.34a22.88,22.88,0,0,0,2.78-.4s-2.68,1.1-3.08,1.21a7.43,7.43,0,0,1-1.66,0Z" style="fill:#6c20cd;opacity:0.79;mix-blend-mode:multiply"/><path d="M46.34,129.67s-.46-1.53-.11-1.65a5.82,5.82,0,0,1,1.7.23s-1.25.28-1.34.61S46.34,129.67,46.34,129.67Z" style="fill:#6c20cd;opacity:0.79;mix-blend-mode:multiply"/><path d="M47.73,129.38s-.5,1.51-.86,1.41-1.25-1.16-1.25-1.16,1.18.49,1.44.26S47.73,129.38,47.73,129.38Z" style="fill:#6c20cd;opacity:0.79;mix-blend-mode:multiply"/><path d="M56.77,123.07s-3,2-2.7,2.71a13.62,13.62,0,0,0,1.63,2.15,8.44,8.44,0,0,0-.93,2.7c.1.69,1,3.49,1,3.49s-.75-3-.49-3.34a5.73,5.73,0,0,1,1.43-1.36c.37-.13,1,.17,1.67-.24a3.57,3.57,0,0,0,1.09-1s13.3-2.77,16.37-3,30.68,1.3,30.68,1.3l3.16-1.23s-32-1.18-34-1-15.53,3.4-16.33,3.28-1.23-1.06-1.92-1l-2,.3s-1-.88-.93-1.12A33.5,33.5,0,0,1,56.77,123.07Z" style="fill:#665f0a"/><path d="M72.32,125.69s-2.64,3.1-3.24,3.26a12.22,12.22,0,0,0-3.34.49c-1.46.59-2,5.63-.79,7.93A34.51,34.51,0,0,0,69.64,143s2.62-3.86,2.32-5.37,2.05-3,1.94-4.3S70.1,129,70.1,129a31.66,31.66,0,0,1,2.31-2.73,31.89,31.89,0,0,1,3.78-1.17Z" style="fill:#89791d"/><path d="M68.85,130.07a14.2,14.2,0,0,0-2.76.17c-1,.23-1.56,4.71-1.56,4.71l3.69-1.23-3.63,1.69s.55,1.62.75,2a12.25,12.25,0,0,0,.77,1.05l2.38-2.28-2,2.77,2.64,3.25s-.19-5.08-.18-5.54,2.23,1.53,2.23,1.53a14,14,0,0,1-2.13-2.48,11.34,11.34,0,0,1,.18-2l2.92,2s-2.85-2-2.81-2.3.2-2.35.2-2.35L72,134.35s-1.87-3.3-2.24-3.71A2.23,2.23,0,0,0,68.85,130.07Z" style="fill:#89791d;opacity:0.29;mix-blend-mode:multiply"/><path d="M53.11,119.6s-1.59.55-1.8,1.11-.83,2.82-.49,3a19.92,19.92,0,0,0,2.89.32s-2.16-.9-2.12-1.33.13-1.81.44-1.92,1.58-.41,1.58-.41l1.12.42,2.15-.34s20.77,6.05,27.87,7.14,26.16,2.93,26.16,2.93l-2.78-2.5s-19-1-23.61-1.62-27.24-6.93-27.24-6.93a5.48,5.48,0,0,0-.83-1c-.27-.18-1.51-.83-1.51-.83a16.18,16.18,0,0,1-.07-2c.06-.5,1.4-.13,1.4-.13s-1.17-1.07-2-.73S53.4,117,53.4,117l.83,1.12s-.87-.76-1.49-.46-2,.8-2,.8a7.22,7.22,0,0,1,1.92-.23C53.1,118.35,53.11,119.6,53.11,119.6Z" style="fill:#8e7713"/><path d="M42.18,121.65h0c.71.18,3-1.62,3.33-1.59s2.9,2.09,4.2,1.61a17.8,17.8,0,0,0,3.74-2.79,2.55,2.55,0,0,0,.24-.39A5.44,5.44,0,0,0,53,113c-1.33-1.67-4.22-1.81-4.87-2.38s-.44-2.34-1.15-2.2a14.29,14.29,0,0,0-2.09.88h0A11.72,11.72,0,0,0,42.07,111c-.42.59-.17,3.24-.17,3.24s-2.74,3.09-2.5,3.69S41.5,121.44,42.18,121.65Z" style="fill:#6c20cd"/><path d="M52.37,117.62a31,31,0,0,1-4.44-4.83c-1.33-1.66.83-1.59.18-2.16s-.44-2.34-1.15-2.2a14.68,14.68,0,0,0-2.1.89s2-.83,2.22-.48-.52,2.44.12,3.79C47.71,113.69,50.58,116.2,52.37,117.62Z" style="fill:#6c20cd;opacity:0.79;mix-blend-mode:multiply"/><path d="M42.2,121.66c.71.18,3-1.62,3.33-1.59s2.9,2.09,4.2,1.61a17.8,17.8,0,0,0,3.74-2.79s-4.8,2.13-5.4-3.64c0-.51-2.91,2-2.87,2.58a3.45,3.45,0,0,1-.8,2.21C44,120.42,42.54,121.43,42.2,121.66Z" style="fill:#6c20cd;opacity:0.79;mix-blend-mode:multiply"/><path d="M42.76,113.84a1.6,1.6,0,0,1,.38-1.4,2.44,2.44,0,0,1,2-.54c.56.18,1,2.41,1,2.67s-3.05,3.6-3.9,3.32-.44-1.19-.52-1.73S44,113,44.53,113.28s-.47,2-.47,2l.74-.74a4,4,0,0,0,.18-1.45c-.12-.49-3.68,1.47-4,2.91a2.23,2.23,0,0,0,1.08,2.78c.9.49,4.27-4.09,4.27-4.09s.24-3-.63-3.73-3.1.64-3.11,1.19A12.86,12.86,0,0,0,42.76,113.84Z" style="fill:#6c20cd"/><path d="M44.06,114.2s-1.66.66-1.87,1.45a1.82,1.82,0,0,0,.41,1.72c.27.24,3.11-3,3.11-3s-2.29,2-2.59,1.39S44.06,114.2,44.06,114.2Z" style="fill:#6c20cd;opacity:0.79;mix-blend-mode:multiply"/><path d="M40.32,116.16s-.74,1.33-.57,1.68a13.18,13.18,0,0,0,2.1,1.57l.37,1.11.09-1.08A22.7,22.7,0,0,0,44.48,118c.49-.44,2.7-3,2.7-3s-2.3,2.71-2.44,3.07.12,1.08-.17,1.5a16.66,16.66,0,0,1-2.46,1.79s-2.74-3-2.71-3.39a10.2,10.2,0,0,1,1-1.86Z" style="fill:#6c20cd"/><path d="M43.7,122.68s-1.41-.93-1.48-1.52-.11-2.94.27-3a19.77,19.77,0,0,1,2.87.39s-2.31.35-2.37.78-.31,1.78-.05,2,1.43.78,1.43.78l1.19-.14,2,.86s21.62-.82,28.77-.14,26.09,3.52,26.09,3.52l-3.31,1.74s-18.67-3.69-23.29-4.16-28.11.08-28.11.08a5.31,5.31,0,0,1-1.06.81c-.31.11-1.67.44-1.67.44a16.85,16.85,0,0,0-.55,1.9c-.06.5,1.33.47,1.33.47s-1.39.76-2.07.23-.35-2.39-.35-2.39l1.07-.88s-1,.52-1.54.09-1.74-1.26-1.74-1.26a7,7,0,0,0,1.81.68C43.39,123.88,43.7,122.68,43.7,122.68Z" style="fill:#9e8920"/><path d="M36.88,132.88h0c.68-.25,1.56-3,1.87-3.18s3.57.12,4.38-1a17.89,17.89,0,0,0,1.55-4.4c0-.15,0-.3,0-.45A5.44,5.44,0,0,0,41,119.68c-2-.64-4.5.85-5.37.74s-1.67-1.69-2.18-1.18a14.47,14.47,0,0,0-1.24,1.9h0a12.39,12.39,0,0,0-1.38,2.93c0,.73,1.67,2.79,1.67,2.79s-.55,4.1,0,4.46S36.19,133.08,36.88,132.88Z" style="fill:#6c20cd"/><path d="M43.07,123.84a31.16,31.16,0,0,1-6.38-1.52c-2-.64-.19-1.79-1.06-1.9s-1.67-1.69-2.18-1.18a14.88,14.88,0,0,0-1.25,1.91s1.24-1.83,1.58-1.64.93,2.32,2.22,3.08C37,123.18,40.79,123.66,43.07,123.84Z" style="fill:#6c20cd;opacity:0.79;mix-blend-mode:multiply"/><path d="M36.9,132.87c.68-.25,1.56-3,1.87-3.18s3.57.12,4.38-1a17.89,17.89,0,0,0,1.55-4.4s-2.8,4.46-6.51,0c-.33-.39-1.32,3.26-.95,3.75a3.45,3.45,0,0,1,.57,2.28C37.67,130.86,37.05,132.49,36.9,132.87Z" style="fill:#6c20cd;opacity:0.79;mix-blend-mode:multiply"/><path d="M33,126.07s-.68-.69-.47-1.37a2.4,2.4,0,0,1,1.34-1.55c.56-.16,2.19,1.43,2.28,1.68s-.52,4.69-1.38,4.93-1-.73-1.4-1.14.18-4,.78-4,.75,1.95.75,1.95l.2-1a3.92,3.92,0,0,0-.66-1.3c-.37-.35-2.23,3.27-1.7,4.65a2.25,2.25,0,0,0,2.45,1.71c1-.1,1.26-5.79,1.26-5.79s-1.49-2.64-2.61-2.73-2.21,2.26-1.92,2.71A13.07,13.07,0,0,0,33,126.07Z" style="fill:#6c20cd;opacity:0.79;mix-blend-mode:multiply"/><path d="M34.27,125.65s-1,1.47-.74,2.24a1.81,1.81,0,0,0,1.3,1.2c.36,0,.93-4.19.93-4.19s-.77,3-1.37,2.59S34.27,125.65,34.27,125.65Z" style="fill:#6c20cd;opacity:0.79;mix-blend-mode:multiply"/><path d="M32.26,129.36s.13,1.52.47,1.71a12.55,12.55,0,0,0,2.62.14l.93.71-.53-.95a24.29,24.29,0,0,0,1-2.43c.16-.64.55-4,.55-4s-.41,3.53-.31,3.91.69.82.7,1.33a17,17,0,0,1-1.05,2.86s-4-1-4.14-1.29a9.91,9.91,0,0,1-.21-2.1Z" style="fill:#6c20cd;opacity:0.79;mix-blend-mode:multiply"/><path d="M126,35c0,12-1.64,16-10,16s-15.8-5.25-15.8-17.26S108.61,15,117,15,126,23,126,35Z" style="mix-blend-mode:screen;fill:url(#radial-gradient)"/><path d="M110,38c-3.62,9.65-1.87,9-10,6-5.7-2.12-12.57-2.33-9-12s17.89-17,26-14S113.59,28.35,110,38Z" style="mix-blend-mode:screen;fill:url(#radial-gradient-2)"/></g></g></g></svg>