<svg xmlns="http://www.w3.org/2000/svg" viewBox="0 0 515.26 515.21"><g id="Calque_2" data-name="Calque 2"><g id="Calque_1-2" data-name="Calque 1"><path d="M485.08,515.21H29.29c-.2-1.05-1.13-1.14-1.89-1.35C10,509,0,493.54,0,474.7q.32-217,.1-434A48.6,48.6,0,0,1,1.53,27.21C6.45,10,20.46,0,39.71,0h436c1.17,0,2.35,0,3.52.05C491.31.73,501,5.77,508.38,15.49c3.37,4.45,4.33,9.92,6.88,14.7V486c-1.71.91-1.56,2.76-2.09,4.25a37.9,37.9,0,0,1-16,19.75C493.39,512.44,488.83,512.84,485.08,515.21ZM478.14,257.6q0-97.61,0-195.21c0-4.72,0-9.39-2.55-13.64C470.67,40.5,463.48,37,453.83,37q-196.2.18-392.39.09c-1.68,0-3.36,0-5,.12-9.43.82-18.73,9.75-19,19.21-.4,15.08-.19,30.18-.12,45.27a8,8,0,0,0,5.38,7.78A8.7,8.7,0,0,0,52.13,108c2.8-2.51,3.28-6.09,3.28-9.7,0-11.74,0-23.48,0-35.22,0-7,.81-7.75,7.88-7.75H452.17c7,0,7.78.81,7.78,7.84q0,194.45,0,388.91c0,7-.81,7.8-7.8,7.82-9.23,0-18.45-.15-27.67.09-6.43.16-10.11,4-9.92,9.56s3.42,8.49,10.1,8.53c10.73.05,21.46,0,32.2,0a19,19,0,0,0,10.47-3c7.57-4.83,10.89-11.68,10.88-20.72Q478,356,478.14,257.6ZM221.81,478.09h160c1.84,0,3.69,0,5.53-.08,4.52-.25,7-3,8-7.11,1-4.24-.78-7.48-4.68-9.59-2.81-1.51-5.8-1.42-8.82-1.42H65.39c-10,0-10,0-10-10.19q0-135.07,0-270.14c0-2.86.12-5.75-1.14-8.4-2-4.17-5.36-5.86-9.87-5.09s-6.76,3.45-7.1,7.87c-.15,1.83-.09,3.68-.09,5.53V284.11q0,84.51,0,169c0,4.55,0,9.06,2.45,13.16,4.78,8,11.67,11.87,21.18,11.85Q141.32,478,221.81,478.09ZM294.19,259.7c1.72-19.7-13.49-36.77-34.4-38.6-19.71-1.73-36.77,13.48-38.6,34.41-1.73,19.7,13.48,36.77,34.4,38.6C275.29,295.83,292.36,280.62,294.19,259.7ZM37.28,138c0,5.38,3.36,8.86,8.58,8.92a9.18,9.18,0,0,0,9.42-9,9.45,9.45,0,0,0-8.91-9.08A8.85,8.85,0,0,0,37.28,138Z" style="fill:#d61e00"/><path d="M478.14,257.6q0,98.37.07,196.72c0,9-3.31,15.89-10.88,20.72a19,19,0,0,1-10.47,3c-10.74,0-21.47.06-32.2,0-6.68,0-9.91-2.85-10.1-8.53s3.49-9.4,9.92-9.56c9.22-.24,18.44-.06,27.67-.09,7,0,7.8-.81,7.8-7.82q0-194.46,0-388.91c0-7-.8-7.84-7.78-7.84H63.3c-7.07,0-7.86.78-7.88,7.75,0,11.74,0,23.48,0,35.22,0,3.61-.48,7.19-3.28,9.7a8.7,8.7,0,0,1-9.43,1.52,8,8,0,0,1-5.38-7.78c-.07-15.09-.28-30.19.12-45.27.24-9.46,9.54-18.39,19-19.21,1.67-.15,3.35-.12,5-.12q196.2,0,392.39-.09c9.65,0,16.84,3.46,21.78,11.71,2.55,4.25,2.55,8.92,2.55,13.64Q478.13,160,478.14,257.6Z" style="fill:#f8493c"/><path d="M221.81,478.09q-80.49,0-161,.06c-9.51,0-16.4-3.81-21.18-11.85-2.42-4.1-2.45-8.61-2.45-13.16q0-84.51,0-169V179.48c0-1.85-.06-3.7.09-5.53.34-4.42,2.73-7.12,7.1-7.87s7.89.92,9.87,5.09c1.26,2.65,1.14,5.54,1.14,8.4q0,135.06,0,270.14c0,10.18,0,10.19,10,10.19H381.77c3,0,6-.09,8.82,1.42,3.9,2.11,5.64,5.35,4.68,9.59-.93,4.07-3.46,6.86-8,7.11-1.84.11-3.69.08-5.53.08Z" style="fill:#f8493c"/><path d="M294.19,259.7c-1.83,20.92-18.9,36.13-38.6,34.41-20.92-1.83-36.13-18.9-34.4-38.6,1.83-20.93,18.89-36.14,38.6-34.41C280.7,222.93,295.91,240,294.19,259.7Z" style="fill:#fefdfc"/><path d="M37.28,138a8.85,8.85,0,0,1,9.09-9.15,9.45,9.45,0,0,1,8.91,9.08,9.18,9.18,0,0,1-9.42,9C40.64,146.87,37.3,143.39,37.28,138Z" style="fill:#f8493c"/></g></g></svg>