<svg xmlns="http://www.w3.org/2000/svg" viewBox="0 0 516.4 516.4"><g id="Calque_2" data-name="Calque 2"><g id="Calque_1-2" data-name="Calque 1"><path d="M486.1,516.33H30.31c-.2-1.05-1.13-1.14-1.89-1.35C11.05,510.16,1,494.66,1,475.82q.31-217,.1-434A48.6,48.6,0,0,1,2.55,28.33C7.48,11.12,21.49,1.13,40.73,1.13h436c1.18,0,2.35,0,3.52,0,12.08.68,21.8,5.72,29.15,15.44,3.37,4.45,4.33,9.92,6.89,14.7V487.15c-1.72.91-1.57,2.76-2.09,4.25a37.87,37.87,0,0,1-16,19.75C494.41,513.56,489.85,514,486.1,516.33Zm-6.93-257.61q0-97.61,0-195.21c0-4.72,0-9.39-2.54-13.64-4.95-8.25-12.13-11.71-21.78-11.71q-196.2.18-392.4.09c-1.67,0-3.36,0-5,.12-9.44.82-18.73,9.75-19,19.21-.39,15.08-.18,30.18-.12,45.27a8,8,0,0,0,5.38,7.78,8.7,8.7,0,0,0,9.43-1.52c2.8-2.51,3.29-6.09,3.29-9.7q0-17.61,0-35.22c0-7,.8-7.75,7.87-7.75H453.19c7,0,7.78.81,7.78,7.84q0,194.45,0,388.91c0,7-.81,7.8-7.8,7.82-9.22,0-18.45-.15-27.67.09-6.43.16-10.1,4-9.92,9.56s3.42,8.49,10.1,8.53c10.73.05,21.47,0,32.2,0a19,19,0,0,0,10.47-3c7.58-4.83,10.9-11.68,10.88-20.72Q479.05,357.09,479.17,258.72ZM222.83,479.21H382.78c1.85,0,3.69,0,5.53-.08,4.53-.25,7.06-3,8-7.11,1-4.24-.78-7.48-4.68-9.59-2.81-1.51-5.8-1.42-8.82-1.42H66.41c-10,0-10,0-10-10.19q0-135.07,0-270.14c0-2.86.13-5.75-1.14-8.4-2-4.17-5.36-5.86-9.87-5.09s-6.76,3.45-7.1,7.87c-.14,1.83-.08,3.68-.08,5.53q0,52.31,0,104.63,0,84.51,0,169c0,4.55,0,9.06,2.46,13.16,4.77,8,11.66,11.87,21.17,11.85Q142.35,479.08,222.83,479.21Zm72.38-218.39c1.73-19.7-13.48-36.77-34.4-38.6-19.7-1.73-36.77,13.48-38.6,34.41-1.72,19.7,13.49,36.77,34.4,38.6C276.31,297,293.38,281.74,295.21,260.82ZM38.31,139.13c0,5.38,3.36,8.86,8.57,8.92a9.18,9.18,0,0,0,9.42-9A9.44,9.44,0,0,0,47.4,130,8.84,8.84,0,0,0,38.31,139.13Z" style="fill:#d61e00"/><path d="M516.29,31.31c-2.56-4.78-3.52-10.25-6.89-14.7-7.35-9.72-17.07-14.76-29.15-15.44-1.17-.06-2.34,0-3.52,0h-436c-19.24,0-33.25,10-38.18,27.2A48.6,48.6,0,0,0,1.12,41.78q0,217-.1,434c0,18.84,10,34.34,27.4,39.16.76.21,1.69.3,1.89,1.35-9.21,0-18.43-.09-27.65.06-2.13,0-3-.37-2.56-2.57a13.12,13.12,0,0,0,0-2.51Q.13,258.11,0,4.89C0,.81.83,0,4.91,0Q258.34.2,511.77,0c3.81,0,4.75.89,4.62,4.65C516.07,13.53,516.29,22.42,516.29,31.31Z" style="fill:#fefdfc"/><path d="M486.1,516.33c3.75-2.37,8.31-2.77,12.1-5.18a37.87,37.87,0,0,0,16-19.75c.52-1.49.37-3.34,2.09-4.25,0,8.89-.1,17.78.06,26.66,0,2.17-.41,2.62-2.58,2.59C504.55,516.24,495.32,516.33,486.1,516.33Z" style="fill:#fefdfc"/><path d="M479.17,258.72q0,98.36.06,196.72c0,9-3.3,15.89-10.88,20.72a19,19,0,0,1-10.47,3c-10.73,0-21.47.06-32.2,0-6.68,0-9.91-2.85-10.1-8.53s3.49-9.4,9.92-9.56c9.22-.24,18.45-.06,27.67-.09,7,0,7.8-.81,7.8-7.82q0-194.46,0-388.91c0-7-.8-7.84-7.78-7.84H64.32c-7.07,0-7.86.78-7.87,7.75q0,17.61,0,35.22c0,3.61-.49,7.19-3.29,9.7a8.7,8.7,0,0,1-9.43,1.52,8,8,0,0,1-5.38-7.78c-.06-15.09-.27-30.19.12-45.27.25-9.46,9.54-18.39,19-19.21,1.66-.15,3.35-.12,5-.12q196.2,0,392.4-.09c9.65,0,16.83,3.46,21.78,11.71,2.54,4.25,2.54,8.92,2.54,13.64Q479.15,161.12,479.17,258.72Z" style="fill:#f8493c"/><path d="M222.83,479.21q-80.47,0-161,.06c-9.51,0-16.4-3.81-21.17-11.85-2.43-4.1-2.46-8.61-2.46-13.16q0-84.51,0-169,0-52.32,0-104.63c0-1.85-.06-3.7.08-5.53.34-4.42,2.73-7.12,7.1-7.87s7.9.92,9.87,5.09c1.27,2.65,1.14,5.54,1.14,8.4q0,135.06,0,270.14c0,10.18,0,10.19,10,10.19H382.79c3,0,6-.09,8.82,1.42,3.9,2.11,5.65,5.35,4.68,9.59-.92,4.07-3.45,6.86-8,7.11-1.84.11-3.68.08-5.53.08Z" style="fill:#f8493c"/><path d="M295.21,260.82c-1.83,20.92-18.9,36.13-38.6,34.41-20.91-1.83-36.12-18.9-34.4-38.6,1.83-20.93,18.9-36.14,38.6-34.41C281.73,224.05,296.94,241.12,295.21,260.82Z" style="fill:#fefdfc"/><path d="M38.31,139.13A8.84,8.84,0,0,1,47.4,130a9.44,9.44,0,0,1,8.9,9.08,9.18,9.18,0,0,1-9.42,9C41.67,148,38.33,144.51,38.31,139.13Z" style="fill:#f8493c"/></g></g></svg>