<svg xmlns="http://www.w3.org/2000/svg" viewBox="0 0 516.4 516.4"><g id="Calque_2" data-name="Calque 2"><g id="Calque_1-2" data-name="Calque 1"><path d="M29.77.62H485.62c1.2,1.62,3.19,1.41,4.81,1.95,8.73,2.93,15.26,8.44,20.19,16.14,2.43,3.78,2.82,8.34,5.19,12.09V486.58c-1,.2-1.15,1.13-1.36,1.89-4.82,17.37-20.31,27.43-39.16,27.4q-217-.32-434.07-.1a48.31,48.31,0,0,1-13.45-1.44C10.56,509.39.59,495.41.59,476.13q0-218,0-436c0-1.17,0-2.35.05-3.52C1.33,24.52,6.4,14.83,16.1,7.46,20.28,4.29,25.56,3.58,29.77.62ZM258.44,37.73H65.24c-2.68,0-5.38-.07-8,.12-9.47.66-19,9.46-19.24,18.91-.46,15.24-.2,30.51-.14,45.77A7.87,7.87,0,0,0,42.9,110a8.78,8.78,0,0,0,9.48-1.23c2.93-2.43,3.49-6,3.5-9.59,0-11.24,0-22.47,0-33.71,0-9.37.18-9.56,9.59-9.56h385.4c9.42,0,9.6.19,9.6,9.56V450.82c0,1.51,0,3,0,4.53-.07,3.23-1.71,5-5,5.07-1.34.05-2.69,0-4,0-8.72,0-17.44-.13-26.16.07-6.54.14-10.29,3.76-10.23,9.27.07,5.94,3.33,8.8,10.31,8.83,10.57.05,21.14,0,31.7,0a19.73,19.73,0,0,0,11-3.14c8-5.12,10.74-12.5,10.73-21.82q-.19-195.43-.09-390.88c0-1.34-.06-2.68,0-4a18.35,18.35,0,0,0-3.14-10.43c-4.9-7.56-11.82-10.69-20.84-10.67Q356.56,37.85,258.44,37.73Zm-36,440.91H382c1.84,0,3.69,0,5.53-.05,4.76-.15,7.43-3,8.33-7.3.95-4.53-1.14-7.73-5.3-9.72-2.72-1.29-5.55-1.11-8.39-1.11H64.69c-8.35,0-8.79-.44-8.79-8.85V180.49c0-2.85.15-5.7-1-8.42a8.65,8.65,0,0,0-10.17-5.37c-4.36.83-6.68,3.6-6.95,8-.12,1.84-.07,3.69-.07,5.53q0,74.94,0,149.89,0,62.12,0,124.24c0,4.4.2,8.71,2.55,12.63,4.7,7.83,11.44,11.71,20.75,11.69Q141.73,478.53,222.48,478.64Zm-111.35-331a36.94,36.94,0,0,0,36.63,37c20,0,36.91-16.89,36.84-36.88a36.74,36.74,0,0,0-73.47-.09Zm257.35,257.6a36.64,36.64,0,0,0,36.78-36.68c0-20.24-16.75-37-36.81-36.8a37.28,37.28,0,0,0-36.67,36.56C331.48,388.3,348.23,405.16,368.48,405.24ZM37.76,138.55c0,5.38,3.43,8.94,8.67,9a9.19,9.19,0,0,0,9.33-9.18c-.14-4.57-4.62-8.86-9.25-8.88A8.82,8.82,0,0,0,37.76,138.55Z" style="fill:#d61e00"/><path d="M30.28.12c-4.2,3-9.49,3.67-13.66,6.84C6.92,14.33,1.85,24,1.16,36.1c-.07,1.17,0,2.35,0,3.52q0,218,0,436c0,19.28,10,33.26,27.18,38.2a48.23,48.23,0,0,0,13.45,1.44q217,0,434.07.1c18.84,0,34.34-10,39.16-27.4.21-.76.31-1.69,1.35-1.89,0,9.22-.09,18.45.07,27.67,0,2.17-.42,3-2.59,2.54a10.35,10.35,0,0,0-2,0q-253.57,0-507.17.09c-3.77,0-4.62-.85-4.62-4.62Q.17,258.19,0,4.64C0,.87.83-.13,4.63,0,13.17.34,21.73.12,30.28.12Z" style="fill:#fefcfc"/><path d="M516.32,30.3c-2.36-3.75-2.76-8.31-5.18-12.09A37.7,37.7,0,0,0,491,2.07c-1.62-.54-3.61-.33-4.82-1.95,9.15,0,18.3.1,27.45-.08,2.36,0,2.86.46,2.81,2.82C516.22,12,516.32,21.15,516.32,30.3Z" style="fill:#fefcfc"/><path d="M259,37.23q98.12,0,196.22-.06c9,0,15.94,3.11,20.83,10.67a18.36,18.36,0,0,1,3.15,10.43c0,1.34,0,2.68,0,4q0,195.45.09,390.88c0,9.32-2.74,16.7-10.74,21.82a19.67,19.67,0,0,1-10.94,3.14c-10.57,0-21.13,0-31.7,0-7,0-10.24-2.89-10.31-8.83-.06-5.51,3.69-9.13,10.23-9.27,8.71-.2,17.44-.06,26.16-.07,1.34,0,2.68,0,4,0,3.26-.11,4.9-1.84,5-5.07,0-1.51,0-3,0-4.53V65c0-9.37-.19-9.56-9.6-9.56H66c-9.41,0-9.59.19-9.6,9.57,0,11.23,0,22.47,0,33.7,0,3.6-.57,7.16-3.51,9.59a8.76,8.76,0,0,1-9.47,1.23A7.86,7.86,0,0,1,38.33,102c-.07-15.26-.32-30.52.13-45.77.29-9.45,9.78-18.25,19.25-18.91,2.67-.19,5.36-.12,8.05-.12Z" style="fill:#f8493c"/><path d="M223,478.14q-80.73,0-161.48.05c-9.31,0-16-3.86-20.76-11.69-2.35-3.92-2.55-8.23-2.54-12.63q0-62.12,0-124.24V179.74c0-1.84,0-3.69.07-5.53.28-4.41,2.6-7.18,7-8a8.65,8.65,0,0,1,10.17,5.37c1.15,2.72,1,5.57,1,8.42q0,135.56,0,271.11c0,8.41.44,8.85,8.79,8.85H382.64c2.84,0,5.67-.18,8.38,1.11,4.17,2,6.25,5.19,5.31,9.72-.9,4.32-3.57,7.15-8.33,7.3-1.85.06-3.69.05-5.54.05Z" style="fill:#f8493c"/><path d="M111.65,147.14a36.74,36.74,0,0,1,73.47.09c.07,20-16.83,36.9-36.84,36.88A36.93,36.93,0,0,1,111.65,147.14Z" style="fill:#fefcfc"/><path d="M369,404.74c-20.24-.08-37-16.94-36.69-36.92A37.28,37.28,0,0,1,369,331.26c20-.18,36.8,16.56,36.81,36.8A36.65,36.65,0,0,1,369,404.74Z" style="fill:#fefcfc"/><path d="M38.28,138.05A8.82,8.82,0,0,1,47,129c4.64,0,9.12,4.31,9.25,8.88A9.18,9.18,0,0,1,47,147C41.71,147,38.27,143.43,38.28,138.05Z" style="fill:#f8493c"/></g></g></svg>