<svg xmlns="http://www.w3.org/2000/svg" viewBox="0 0 515.22 515.26"><g id="Calque_2" data-name="Calque 2"><g id="Calque_1-2" data-name="Calque 1"><path d="M29.18,0H485c1.2,1.63,3.19,1.41,4.82,2C498.57,4.89,505.1,10.4,510,18.1c2.42,3.78,2.81,8.34,5.18,12.08V486c-1,.2-1.14,1.13-1.35,1.88-4.83,17.38-20.32,27.43-39.17,27.41q-217-.32-434.06-.11a48.6,48.6,0,0,1-13.45-1.43C10,508.78,0,494.79,0,475.52q0-218,0-436C0,38.33,0,37.15.06,36,.75,23.91,5.81,14.22,15.52,6.84,19.69,3.67,25,3,29.18,0ZM257.86,37.12H64.65c-2.68,0-5.37-.07-8,.12-9.47.67-19,9.47-19.25,18.91-.46,15.25-.2,30.52-.13,45.77a7.85,7.85,0,0,0,5.08,7.47,8.77,8.77,0,0,0,9.48-1.22c2.94-2.44,3.49-6,3.51-9.6,0-11.23,0-22.47,0-33.7,0-9.38.19-9.56,9.59-9.56q192.71,0,385.41,0c9.41,0,9.6.18,9.6,9.55V450.2c0,1.51,0,3,0,4.53-.07,3.23-1.71,5-5,5.08-1.34,0-2.68,0-4,0-8.73,0-17.45-.13-26.17.06-6.53.14-10.29,3.76-10.22,9.28.07,5.93,3.33,8.8,10.31,8.83,10.57.05,21.13,0,31.7,0a19.59,19.59,0,0,0,10.94-3.14c8-5.11,10.74-12.49,10.73-21.82Q478,257.62,478.1,62.18c0-1.34-.06-2.69,0-4a18.46,18.46,0,0,0-3.15-10.43C470,40.16,463.09,37,454.08,37.05Q356,37.25,257.86,37.12ZM221.89,478H381.36c1.85,0,3.69,0,5.53,0,4.77-.16,7.44-3,8.34-7.31.94-4.52-1.15-7.72-5.31-9.71-2.71-1.3-5.55-1.12-8.39-1.12H64.1c-8.35,0-8.79-.45-8.79-8.86V179.88c0-2.85.15-5.71-1-8.43a8.67,8.67,0,0,0-10.17-5.37c-4.35.83-6.67,3.61-7,8-.11,1.84-.07,3.69-.07,5.54V329.51q0,62.13,0,124.24c0,4.41.19,8.72,2.54,12.63,4.71,7.83,11.44,11.71,20.76,11.69Q141.16,477.91,221.89,478ZM110.55,147a36.92,36.92,0,0,0,36.63,37c20,0,36.91-16.88,36.84-36.87a36.74,36.74,0,0,0-73.47-.1Zm257.34,257.6a36.64,36.64,0,0,0,36.79-36.68c0-20.23-16.76-37-36.82-36.79A37.26,37.26,0,0,0,331.2,367.7C330.89,387.69,347.65,404.55,367.89,404.62ZM37.17,137.93c0,5.39,3.43,8.94,8.68,9a9.18,9.18,0,0,0,9.32-9.17c-.14-4.57-4.61-8.87-9.25-8.88A8.81,8.81,0,0,0,37.17,137.93Z" style="fill:#d61e00"/><path d="M258.37,36.62q98.11,0,196.23-.07c9,0,15.93,3.11,20.83,10.67a18.46,18.46,0,0,1,3.15,10.43c0,1.35,0,2.69,0,4q0,195.44.09,390.87c0,9.33-2.74,16.71-10.73,21.82a19.65,19.65,0,0,1-11,3.14c-10.56,0-21.13.05-31.69,0-7,0-10.25-2.9-10.31-8.83-.07-5.52,3.68-9.13,10.22-9.28,8.72-.19,17.44-.06,26.16-.06,1.35,0,2.69,0,4,0,3.25-.12,4.89-1.85,5-5.08,0-1.51,0-3,0-4.52V64.36c0-9.37-.18-9.55-9.6-9.55H65.42c-9.41,0-9.59.18-9.59,9.56,0,11.23,0,22.47,0,33.7,0,3.6-.56,7.16-3.5,9.6a8.77,8.77,0,0,1-9.48,1.22,7.87,7.87,0,0,1-5.09-7.46c-.06-15.26-.32-30.53.14-45.78.28-9.44,9.78-18.24,19.24-18.91,2.68-.19,5.37-.12,8.05-.12Z" style="fill:#f8493c"/><path d="M222.41,477.52q-80.74,0-161.48.05c-9.32,0-16-3.86-20.76-11.69-2.35-3.91-2.55-8.22-2.55-12.63q0-62.12,0-124.24V179.13c0-1.85,0-3.7.07-5.54.27-4.4,2.59-7.18,6.95-8A8.67,8.67,0,0,1,54.83,171c1.15,2.72,1,5.58,1,8.43v271.1c0,8.41.44,8.86,8.79,8.86H382.05c2.84,0,5.68-.18,8.39,1.12,4.16,2,6.25,5.19,5.31,9.71-.91,4.32-3.57,7.15-8.34,7.31-1.84,0-3.69,0-5.53,0Z" style="fill:#f8493c"/><path d="M111.06,146.52a36.74,36.74,0,0,1,73.47.1c.07,20-16.82,36.9-36.84,36.87A36.93,36.93,0,0,1,111.06,146.52Z" style="fill:#fefcfc"/><path d="M368.41,404.12c-20.24-.07-37-16.93-36.7-36.92a37.27,37.27,0,0,1,36.67-36.55c20.06-.18,36.81,16.56,36.82,36.79A36.65,36.65,0,0,1,368.41,404.12Z" style="fill:#fefcfc"/><path d="M37.69,137.43a8.8,8.8,0,0,1,8.75-9.07c4.63,0,9.11,4.31,9.25,8.88a9.18,9.18,0,0,1-9.32,9.17C41.12,146.37,37.69,142.82,37.69,137.43Z" style="fill:#f8493c"/></g></g></svg>