<svg xmlns="http://www.w3.org/2000/svg" viewBox="0 0 516.4 516.4"><g id="Calque_2" data-name="Calque 2"><g id="Calque_1-2" data-name="Calque 1"><path d="M515.81,30.76V486.54c-1,.2-1.15,1.13-1.36,1.89-4.82,17.36-20.31,27.42-39.16,27.4q-217-.32-434.07-.1a48.31,48.31,0,0,1-13.45-1.44C10.57,509.35.59,495.35.59,476.09q0-218,0-436c0-1.18,0-2.35.05-3.52C1.33,24.48,6.4,14.79,16.1,7.41,20.28,4.24,25.56,3.54,29.77.57H485.62c1.2,1.63,3.19,1.41,4.81,2,8.73,2.93,15.26,8.44,20.19,16.14C513.05,22.45,513.44,27,515.81,30.76ZM258.47,37.69H72.33c-4.87,0-9.74-.11-14.59.11C48,38.25,38.26,47,38,56.68c-.48,15.24-.31,30.51-.1,45.77a8.41,8.41,0,0,0,10.39,8.13c4.66-1,7.57-5,7.62-11,.1-11.9,0-23.81,0-35.71,0-7.25.73-8,8.17-8q194.21,0,388.39,0c7.31,0,8,.73,8,8.11V452.32c0,7.36-.72,8.07-8,8.09-9.23,0-18.45-.17-27.67.1-6.19.18-9.77,3.91-9.7,9.26.08,5.77,3.3,8.76,9.84,8.8,10.73.07,21.46,0,32.2,0a19.62,19.62,0,0,0,10.94-3.15c8-5.12,10.72-12.51,10.71-21.83q-.19-195.42-.09-390.84c0-1.51-.06-3-.05-4.53a17.76,17.76,0,0,0-2.86-9.5c-4.86-7.81-11.86-11.13-21.09-11.11Q356.58,37.82,258.47,37.69ZM222.15,478.6h160c1.84,0,3.69,0,5.53-.07,4.76-.23,7.35-3.13,8.19-7.46s-1.12-7.41-5-9.4c-2.85-1.45-5.85-1.26-8.86-1.26H65.52c-9.44,0-9.62-.19-9.62-9.53V180.27c0-2.67.13-5.36-.89-7.93-1.71-4.35-5.22-6.45-10-5.72s-7,3.58-7.28,8.22c-.11,1.84-.06,3.69-.06,5.53q0,135.56,0,271.11c0,2.18.06,4.36,0,6.54a17.68,17.68,0,0,0,2.84,9.5c4.74,7.61,11.5,11.15,20.57,11.13Q141.66,478.47,222.15,478.6ZM259.9,294.7c20.93-1.68,36.42-18.68,34.85-38.26-1.67-20.93-18.68-36.42-38.25-34.85-20.94,1.68-36.43,18.68-34.86,38.25C223.31,280.77,240.32,296.26,259.9,294.7ZM111.12,148a37,37,0,0,0,36.53,36.57c19.95.14,36.9-16.72,37-36.77a36.75,36.75,0,1,0-73.49.2ZM405.26,368.54c0-20.23-16.72-37-36.79-36.82s-36.92,17.13-36.68,37a36.74,36.74,0,0,0,73.47-.21ZM37.76,138.64c.05,5.3,3.59,8.85,8.78,8.84a9.17,9.17,0,0,0,9.22-9.24c-.19-4.41-4.9-8.85-9.37-8.82S37.71,133.88,37.76,138.64Z" style="fill:#d61e00"/><path d="M30.28.12c-4.2,3-9.49,3.67-13.66,6.84C6.92,14.33,1.85,24,1.16,36.1c-.07,1.17,0,2.35,0,3.52q0,218,0,436c0,19.27,10,33.26,27.18,38.2a48.23,48.23,0,0,0,13.45,1.44q217,0,434.07.1c18.85,0,34.34-10,39.16-27.4.21-.75.31-1.68,1.35-1.89,0,9.22-.09,18.45.07,27.67,0,2.17-.42,3-2.59,2.54a10.35,10.35,0,0,0-2,0q-253.57,0-507.17.09c-3.77,0-4.62-.85-4.62-4.62Q.17,258.19,0,4.64C0,.87.83-.13,4.63,0,13.17.34,21.73.12,30.28.12Z" style="fill:#fefcfc"/><path d="M516.32,30.3c-2.36-3.75-2.76-8.31-5.18-12.09A37.7,37.7,0,0,0,491,2.07c-1.62-.54-3.61-.33-4.82-1.95,9.15,0,18.3.1,27.45-.08,2.36,0,2.86.46,2.81,2.82C516.22,12,516.32,21.15,516.32,30.3Z" style="fill:#fefcfc"/><path d="M259,37.23q98.1,0,196.21-.06c9.23,0,16.23,3.29,21.09,11.11a17.66,17.66,0,0,1,2.85,9.5c0,1.51.06,3,.06,4.52q0,195.44.09,390.85c0,9.32-2.73,16.71-10.72,21.82a19.69,19.69,0,0,1-10.94,3.16c-10.73,0-21.46.06-32.19,0-6.54,0-9.76-3-9.84-8.79-.07-5.36,3.5-9.09,9.7-9.26,9.21-.27,18.44-.09,27.67-.11,7.31,0,8-.73,8-8.09V63.53c0-7.38-.72-8.1-8-8.1H64.59c-7.44,0-8.16.71-8.17,8,0,11.91.06,23.81,0,35.72-.05,6.05-3,10.05-7.62,11A8.42,8.42,0,0,1,38.37,102c-.21-15.25-.38-30.52.1-45.77.31-9.67,10-18.43,19.79-18.88,4.85-.22,9.72-.1,14.58-.1Z" style="fill:#f8493c"/><path d="M222.66,478.14q-80.49,0-161,.05c-9.07,0-15.83-3.51-20.56-11.12a17.69,17.69,0,0,1-2.84-9.51c0-2.18-.05-4.36-.05-6.54q0-135.55,0-271.11c0-1.84,0-3.69.06-5.53.26-4.63,2.65-7.5,7.29-8.22s8.24,1.38,10,5.72c1,2.58.88,5.26.88,7.94v270.6c0,9.35.19,9.53,9.63,9.53H382.46c3,0,6-.19,8.86,1.25,3.92,2,5.88,5.11,5,9.41s-3.43,7.23-8.19,7.46c-1.84.09-3.69.06-5.53.06Z" style="fill:#f8493c"/><path d="M260.41,294.24c-19.57,1.57-36.58-13.92-38.26-34.85-1.57-19.58,13.93-36.58,34.86-38.26,19.58-1.56,36.58,13.93,38.26,34.86C296.84,275.57,281.35,292.56,260.41,294.24Z" style="fill:#fefcfc"/><path d="M111.64,147.53a36.65,36.65,0,0,1,36.57-36.88c20.22-.07,37,16.58,36.91,36.69s-17,36.91-37,36.76A36.94,36.94,0,0,1,111.64,147.53Z" style="fill:#fefcfc"/><path d="M405.78,368.08a36.74,36.74,0,0,1-73.47.22c-.25-19.9,16.57-36.88,36.68-37S405.79,347.85,405.78,368.08Z" style="fill:#fefcfc"/><path d="M38.28,138.19c-.05-4.76,4.1-9.19,8.63-9.22s9.18,4.4,9.36,8.81A9.17,9.17,0,0,1,47.06,147C41.86,147,38.33,143.48,38.28,138.19Z" style="fill:#f8493c"/></g></g></svg>