<svg xmlns="http://www.w3.org/2000/svg" viewBox="0 0 515.22 515.26"><g id="Calque_2" data-name="Calque 2"><g id="Calque_1-2" data-name="Calque 1"><path d="M515.22,30.18V486c-1,.2-1.14,1.13-1.35,1.89-4.82,17.36-20.31,27.42-39.17,27.4q-217-.32-434.06-.11a48.22,48.22,0,0,1-13.45-1.43C10,508.78,0,494.78,0,475.52q0-218,0-436C0,38.33,0,37.16.06,36,.75,23.91,5.81,14.22,15.52,6.84,19.69,3.67,25,3,29.18,0H485c1.2,1.62,3.19,1.41,4.82,2C498.57,4.89,505.1,10.4,510,18.1,512.46,21.88,512.85,26.44,515.22,30.18ZM257.89,37.12H71.74c-4.86,0-9.73-.11-14.59.11-9.79.44-19.47,9.2-19.78,18.88-.48,15.24-.32,30.51-.1,45.76A8.41,8.41,0,0,0,47.66,110c4.65-1,7.56-5,7.61-11,.11-11.9,0-23.81,0-35.71,0-7.25.73-8,8.17-8q194.19,0,388.39,0c7.3,0,8,.73,8,8.1q0,194.18,0,388.33c0,7.37-.72,8.08-8,8.1-9.22,0-18.45-.17-27.67.1-6.19.18-9.76,3.91-9.69,9.26.08,5.77,3.29,8.76,9.83,8.8,10.73.07,21.47,0,32.2,0a19.6,19.6,0,0,0,10.94-3.15c8-5.12,10.72-12.51,10.71-21.83q-.18-195.42-.09-390.84c0-1.51,0-3,0-4.53a17.59,17.59,0,0,0-2.86-9.5c-4.85-7.81-11.85-11.13-21.09-11.11Q356,37.25,257.89,37.12ZM221.56,478h160c1.85,0,3.7,0,5.54-.06,4.76-.23,7.34-3.13,8.19-7.46s-1.12-7.41-5-9.41c-2.84-1.44-5.85-1.25-8.86-1.25H64.94c-9.44,0-9.63-.19-9.63-9.53V179.7c0-2.68.13-5.36-.89-7.94-1.71-4.34-5.21-6.45-10-5.71s-7,3.58-7.29,8.22c-.1,1.84-.06,3.68-.06,5.53V450.91c0,2.18.06,4.36.06,6.53A17.6,17.6,0,0,0,40,467c4.73,7.61,11.49,11.15,20.56,11.13Q141.07,477.9,221.56,478Zm37.75-183.91c20.94-1.67,36.43-18.67,34.86-38.25-1.68-20.93-18.68-36.42-38.26-34.85-20.93,1.68-36.43,18.68-34.86,38.25C222.73,280.2,239.73,295.69,259.31,294.12ZM110.54,147.42A36.94,36.94,0,0,0,147.07,184c20,.14,36.9-16.72,37-36.77a36.74,36.74,0,1,0-73.48.2ZM404.68,368c0-20.23-16.73-37-36.79-36.82s-36.93,17.13-36.68,37a36.74,36.74,0,0,0,73.47-.21ZM37.17,138.07c0,5.29,3.59,8.85,8.79,8.84a9.17,9.17,0,0,0,9.21-9.25c-.18-4.41-4.89-8.84-9.36-8.81S37.13,133.31,37.17,138.07Z" style="fill:#d61e00"/><path d="M258.4,36.66q98.12,0,196.21-.07c9.24,0,16.23,3.3,21.09,11.12a17.76,17.76,0,0,1,2.86,9.5c0,1.51.05,3,.05,4.52q0,195.42.09,390.85c0,9.32-2.72,16.71-10.71,21.82a19.69,19.69,0,0,1-10.94,3.16c-10.73,0-21.47.06-32.2,0-6.54,0-9.76-3-9.83-8.79-.08-5.36,3.5-9.09,9.69-9.27,9.22-.26,18.45-.08,27.67-.1,7.32,0,8-.73,8-8.09q0-194.16,0-388.33c0-7.38-.72-8.11-8-8.11H64c-7.44,0-8.17.71-8.18,8,0,11.91.06,23.81,0,35.72,0,6-3,10-7.62,11a8.42,8.42,0,0,1-10.39-8.14c-.21-15.25-.38-30.52.11-45.77.3-9.67,10-18.43,19.78-18.88,4.85-.22,9.72-.1,14.59-.11Z" style="fill:#f8493c"/><path d="M222.08,477.57q-80.49,0-161,.05c-9.07,0-15.83-3.51-20.57-11.12A17.77,17.77,0,0,1,37.69,457c0-2.18,0-4.36,0-6.54V179.34c0-1.84,0-3.69.06-5.53.26-4.63,2.65-7.5,7.28-8.22s8.25,1.38,10,5.72c1,2.58.89,5.26.89,7.94v270.6c0,9.35.19,9.53,9.62,9.53H381.88c3,0,6-.19,8.86,1.26,3.92,2,5.88,5.11,5,9.41s-3.43,7.23-8.2,7.46c-1.84.09-3.68.06-5.53.06Z" style="fill:#f8493c"/><path d="M259.83,293.67c-19.58,1.57-36.58-13.92-38.26-34.85-1.57-19.58,13.92-36.58,34.86-38.26C276,219,293,234.49,294.69,255.42,296.25,275,280.76,292,259.83,293.67Z" style="fill:#fefcfc"/><path d="M111.06,147a36.74,36.74,0,1,1,73.48-.19c-.06,20-17,36.91-36.95,36.76A36.94,36.94,0,0,1,111.06,147Z" style="fill:#fefcfc"/><path d="M405.19,367.51a36.74,36.74,0,0,1-73.47.22c-.24-19.9,16.58-36.88,36.68-37S405.2,347.28,405.19,367.51Z" style="fill:#fefcfc"/><path d="M37.69,137.61c0-4.76,4.1-9.19,8.64-9.21s9.18,4.4,9.36,8.81a9.17,9.17,0,0,1-9.22,9.24C41.28,146.47,37.74,142.91,37.69,137.61Z" style="fill:#f8493c"/></g></g></svg>