<svg xmlns="http://www.w3.org/2000/svg" viewBox="0 0 515.22 515.26"><g id="Calque_2" data-name="Calque 2"><g id="Calque_1-2" data-name="Calque 1"><path d="M515.22,30.18V486c-1,.2-1.14,1.13-1.35,1.89-4.82,17.36-20.32,27.42-39.17,27.4q-217-.32-434.06-.11a48.22,48.22,0,0,1-13.45-1.43C10,508.78,0,494.78,0,475.52q0-218,0-436C0,38.33,0,37.16.06,36,.75,23.91,5.81,14.22,15.52,6.84,19.69,3.67,25,3,29.18,0H485c1.2,1.62,3.2,1.41,4.82,2C498.57,4.89,505.1,10.39,510,18.1,512.46,21.88,512.86,26.43,515.22,30.18ZM258,37.12H64.78c-2.68,0-5.37-.06-8,.11-9.5.63-19.06,9.34-19.36,18.79-.5,15.24-.28,30.51-.13,45.77,0,4.56,2.72,7.41,7.36,8.19s7.67-1.63,9.62-5.53c1.07-2.13,1.1-4.52,1.1-6.89q-.06-17.36,0-34.71c0-6.67.88-7.54,7.58-7.54q194.7,0,389.39,0c6.72,0,7.61.87,7.61,7.51q0,194.67,0,389.34c0,6.89-.82,7.66-7.95,7.67-9.05,0-18.11-.12-27.16.07-6.56.13-10.33,3.72-10.29,9.21,0,6,3.3,8.86,10.25,8.9,10.73.05,21.46,0,32.19,0,7.09,0,12.44-3.42,16.77-8.76,4.09-5,4.43-11,4.43-17.1q-.08-194.43,0-388.84c0-1.84-.06-3.69-.06-5.53a17.66,17.66,0,0,0-2.81-9.51c-4.83-7.82-11.8-11.21-21.05-11.19Q356.08,37.25,258,37.12ZM221.65,478H381.12c1.85,0,3.7.05,5.54,0,4.69-.25,8-3.09,8.65-7.56s-1.46-7.67-5.63-9.57c-2.74-1.24-5.58-1-8.41-1H64.34c-8.64,0-9-.39-9-9.12q0-135.3,0-270.61c0-2.67.2-5.35-.75-8-1.69-4.65-5.24-6.9-10.17-6.09-4.63.76-7,3.67-7.2,8.3-.09,1.67-.06,3.35-.06,5V451.5c0,2,.06,4,.06,6A17.58,17.58,0,0,0,40.07,467c4.75,7.6,11.54,11.07,20.6,11.05Q141.16,477.9,221.65,478ZM147,110.53a36.73,36.73,0,0,0,.24,73.46c20,0,36.91-16.93,36.81-36.9A36.94,36.94,0,0,0,147,110.53Zm221,0c-20.24,0-37,16.77-36.8,36.82S348.4,184.27,368.27,184a36.73,36.73,0,0,0-.28-73.45ZM147.18,404.62c20.23,0,37-16.7,36.84-36.77s-17.11-36.92-37-36.69a36.73,36.73,0,0,0,.18,73.46ZM404.68,368c0-20.23-16.73-37-36.79-36.82s-36.93,17.13-36.68,37a36.74,36.74,0,0,0,73.47-.21ZM45.84,128.85c-4.53,0-8.7,4.43-8.67,9.19,0,5.3,3.56,8.87,8.75,8.87a9.18,9.18,0,0,0,9.25-9.21C55,133.29,50.32,128.84,45.84,128.85Z" style="fill:#d61e00"/><path d="M258.59,37.21q98.1,0,196.21-.07c9.25,0,16.21,3.37,21.05,11.18a17.72,17.72,0,0,1,2.81,9.52c0,1.84,0,3.69,0,5.53q0,194.41.05,388.83c0,6.16-.34,12.08-4.43,17.11-4.33,5.33-9.68,8.73-16.77,8.75-10.73,0-21.46.08-32.19,0-6.95,0-10.21-2.93-10.25-8.89,0-5.49,3.73-9.08,10.28-9.21,9.06-.19,18.11-.05,27.17-.07,7.13,0,7.95-.78,7.95-7.67q0-194.67,0-389.34c0-6.64-.89-7.51-7.61-7.51H63.52c-6.7,0-7.57.87-7.58,7.54q0,17.36,0,34.71c0,2.37,0,4.76-1.1,6.89-2,3.9-4.89,6.33-9.62,5.53s-7.32-3.64-7.36-8.19c-.15-15.26-.37-30.53.13-45.77.3-9.46,9.86-18.16,19.36-18.79,2.67-.17,5.36-.11,8-.11Z" style="fill:#f8493c"/><path d="M222.27,478.11q-80.49,0-161,.06c-9.06,0-15.85-3.45-20.61-11.05a17.69,17.69,0,0,1-2.88-9.5c0-2-.06-4-.06-6V179.48c0-1.68,0-3.36,0-5,.23-4.64,2.58-7.54,7.2-8.31,4.94-.81,8.49,1.44,10.18,6.1.95,2.61.75,5.29.75,8q0,135.3,0,270.61c0,8.72.39,9.11,9,9.11H381.89c2.83,0,5.67-.23,8.4,1,4.18,1.89,6.29,5,5.64,9.57s-4,7.31-8.66,7.56c-1.83.09-3.68,0-5.53,0Z" style="fill:#f8493c"/><path d="M147.59,110.62a36.91,36.91,0,0,1,37,36.55c.11,20-16.77,36.9-36.8,36.91a36.73,36.73,0,0,1-.24-73.46Z" style="fill:#fefcfc"/><path d="M368.6,110.61a36.73,36.73,0,0,1,.29,73.46c-19.87.29-36.88-16.52-37.08-36.64S348.36,110.63,368.6,110.61Z" style="fill:#fefcfc"/><path d="M147.8,404.7a36.73,36.73,0,0,1-.18-73.46c19.91-.22,36.89,16.61,37,36.7S168,404.72,147.8,404.7Z" style="fill:#fefcfc"/><path d="M405.3,368.05a36.74,36.74,0,0,1-73.47.22c-.25-19.9,16.57-36.88,36.68-37S405.3,347.82,405.3,368.05Z" style="fill:#fefcfc"/><path d="M46.46,128.94c4.47,0,9.17,4.44,9.33,8.84A9.18,9.18,0,0,1,46.54,147c-5.19,0-8.71-3.57-8.75-8.87C37.76,133.37,41.93,129,46.46,128.94Z" style="fill:#f8493c"/></g></g></svg>