<svg xmlns="http://www.w3.org/2000/svg" viewBox="0 0 516.4 516.4"><g id="Calque_2" data-name="Calque 2"><g id="Calque_1-2" data-name="Calque 1"><path d="M515.7,30.21V486c-1,.21-1.14,1.14-1.35,1.89-4.82,17.37-20.31,27.43-39.16,27.4q-217-.31-434.07-.1a48.6,48.6,0,0,1-13.45-1.43C10.46,508.81.49,494.81.49,475.55q0-218,0-436c0-1.17,0-2.35.05-3.52C1.23,23.94,6.3,14.24,16,6.87,20.17,3.7,25.46,3,29.66,0H485.52c1.2,1.62,3.19,1.41,4.81,2a37.72,37.72,0,0,1,20.19,16.15C512.94,21.91,513.34,26.46,515.7,30.21ZM258.46,37.14H65.27c-2.68,0-5.38-.06-8,.11-9.49.63-19,9.33-19.36,18.79-.49,15.24-.28,30.51-.13,45.77,0,4.55,2.73,7.41,7.36,8.19s7.67-1.63,9.63-5.53c1.06-2.13,1.1-4.52,1.09-6.89q-.06-17.36,0-34.71c0-6.67.88-7.54,7.58-7.54q194.7,0,389.4,0c6.72,0,7.6.87,7.6,7.51q0,194.67,0,389.34c0,6.89-.81,7.66-7.94,7.67-9.06,0-18.12-.12-27.17.07-6.55.13-10.33,3.72-10.29,9.21,0,6,3.31,8.86,10.25,8.89,10.73.05,21.47,0,32.2,0,7.08,0,12.43-3.41,16.76-8.75,4.1-5,4.43-10.95,4.43-17.11q-.08-194.42,0-388.83c0-1.84-.06-3.69-.05-5.53a17.73,17.73,0,0,0-2.82-9.52c-4.83-7.81-11.8-11.2-21-11.18Q356.56,37.28,258.46,37.14ZM222.14,478.06H381.61c1.84,0,3.69.06,5.53,0,4.7-.25,8-3.1,8.66-7.56s-1.47-7.68-5.64-9.57c-2.73-1.24-5.57-1-8.41-1H64.82c-8.64,0-9-.4-9-9.12q0-135.3,0-270.61c0-2.67.2-5.35-.75-8-1.69-4.66-5.25-6.91-10.18-6.1-4.63.77-7,3.68-7.2,8.31-.08,1.67,0,3.35,0,5q0,136.05,0,272.11c0,2,0,4,0,6a17.78,17.78,0,0,0,2.89,9.49c4.76,7.6,11.55,11.07,20.61,11.05Q141.65,477.93,222.14,478.06Zm-74.68-367.5a36.73,36.73,0,0,0,.23,73.46c20,0,36.91-16.93,36.81-36.91A36.93,36.93,0,0,0,147.46,110.56Zm221,0c-20.24,0-37,16.78-36.79,36.82s17.2,36.93,37.08,36.64a36.73,36.73,0,0,0-.29-73.46ZM147.66,404.64c20.23,0,37-16.69,36.85-36.76s-17.11-36.92-37-36.69a36.73,36.73,0,0,0,.18,73.45ZM405.16,368c0-20.23-16.73-37-36.79-36.81s-36.92,17.13-36.68,37a36.74,36.74,0,0,0,73.47-.22ZM46.32,128.88c-4.53,0-8.7,4.43-8.66,9.19,0,5.3,3.55,8.87,8.75,8.87a9.18,9.18,0,0,0,9.25-9.22C55.49,133.32,50.8,128.87,46.32,128.88Z" style="fill:#d61e00"/><path d="M30.28.12c-4.2,3-9.49,3.67-13.66,6.84C6.92,14.33,1.85,24,1.16,36.1c-.07,1.17,0,2.35,0,3.52q0,218,0,436c0,19.27,10,33.26,27.18,38.2a48.23,48.23,0,0,0,13.45,1.44q217,0,434.07.1c18.85,0,34.34-10,39.16-27.4.21-.75.31-1.68,1.35-1.89,0,9.22-.09,18.45.07,27.67,0,2.17-.42,3-2.59,2.54a10.35,10.35,0,0,0-2,0q-253.57,0-507.17.09c-3.77,0-4.62-.85-4.62-4.62Q.17,258.19,0,4.64C0,.87.83-.13,4.63,0,13.17.34,21.73.12,30.28.12Z" style="fill:#fefcfc"/><path d="M516.32,30.3c-2.36-3.75-2.76-8.31-5.18-12.09A37.7,37.7,0,0,0,491,2.07c-1.62-.54-3.61-.33-4.82-1.95,9.15,0,18.3.1,27.45-.08,2.36,0,2.86.46,2.81,2.82C516.22,12,516.32,21.15,516.32,30.3Z" style="fill:#fefcfc"/><path d="M259.08,37.23q98.1,0,196.2-.06c9.25,0,16.22,3.36,21.05,11.18a17.73,17.73,0,0,1,2.82,9.52c0,1.84.05,3.68.05,5.53q0,194.41,0,388.83c0,6.16-.33,12.08-4.43,17.11-4.33,5.33-9.68,8.73-16.76,8.75-10.74,0-21.47.08-32.2,0-6.94,0-10.21-2.94-10.25-8.89,0-5.5,3.74-9.08,10.29-9.22,9.05-.18,18.11,0,27.16-.06,7.14,0,7.95-.78,7.95-7.67q0-194.67,0-389.34c0-6.64-.88-7.51-7.6-7.51H64c-6.7,0-7.56.87-7.58,7.54q0,17.36,0,34.7c0,2.38,0,4.77-1.1,6.9-1.95,3.9-4.89,6.32-9.62,5.53s-7.32-3.64-7.36-8.2c-.15-15.25-.36-30.52.13-45.76.31-9.46,9.86-18.17,19.36-18.79,2.67-.18,5.36-.11,8-.11Z" style="fill:#f8493c"/><path d="M222.76,478.14q-80.49,0-161,.06c-9.06,0-15.85-3.45-20.61-11.06a17.73,17.73,0,0,1-2.89-9.49c0-2-.05-4-.05-6q0-136.06,0-272.12c0-1.67,0-3.35.06-5,.22-4.64,2.57-7.55,7.2-8.31,4.93-.81,8.49,1.44,10.18,6.1.94,2.61.75,5.29.75,8q0,135.3,0,270.6c0,8.73.38,9.12,9,9.12H382.37c2.83,0,5.68-.23,8.41,1,4.17,1.89,6.28,5,5.64,9.56s-4,7.32-8.66,7.56c-1.84.1-3.69.05-5.53.05Z" style="fill:#f8493c"/><path d="M148.08,110.65a36.92,36.92,0,0,1,37,36.55c.1,20-16.78,36.9-36.81,36.91a36.73,36.73,0,0,1-.23-73.46Z" style="fill:#fefcfc"/><path d="M369.09,110.64a36.73,36.73,0,0,1,.28,73.46c-19.87.28-36.88-16.52-37.07-36.64S348.85,110.66,369.09,110.64Z" style="fill:#fefcfc"/><path d="M148.28,404.73a36.73,36.73,0,0,1-.18-73.46c19.92-.22,36.89,16.61,37,36.7S168.51,404.75,148.28,404.73Z" style="fill:#fefcfc"/><path d="M405.78,368.08a36.74,36.74,0,0,1-73.47.22c-.25-19.9,16.57-36.88,36.68-37S405.79,347.85,405.78,368.08Z" style="fill:#fefcfc"/><path d="M46.94,129c4.48,0,9.17,4.44,9.33,8.84A9.16,9.16,0,0,1,47,147c-5.2,0-8.72-3.56-8.75-8.87C38.24,133.4,42.41,129,46.94,129Z" style="fill:#f8493c"/></g></g></svg>