<svg xmlns="http://www.w3.org/2000/svg" viewBox="0 0 515.26 515.21"><g id="Calque_2" data-name="Calque 2"><g id="Calque_1-2" data-name="Calque 1"><path d="M515.26,30.19V486c-1.71.91-1.56,2.76-2.09,4.25a37.79,37.79,0,0,1-16,19.74c-3.79,2.42-8.35,2.83-12.1,5.19H29.29c-.2-1-1.13-1.14-1.89-1.35C10,509,0,493.54,0,474.7q.32-217,.1-434A48.22,48.22,0,0,1,1.53,27.21C6.46,10,20.46,0,39.71,0h436c1.17,0,2.35,0,3.52.05C491.3.73,501,5.77,508.38,15.48,511.75,19.94,512.71,25.41,515.26,30.19ZM257.81,37.12H64.65c-2.68,0-5.38-.07-8.05.13-9.45.71-18.87,9.56-19.14,19-.44,15.07-.26,30.18-.13,45.27,0,4.86,3,7.8,7.62,8.51,5.79.89,10.36-3.87,10.43-11.21.12-11.91,0-23.81,0-35.72,0-7,.82-7.8,7.82-7.8H452.08c7.06,0,7.87.79,7.87,7.75q0,194.45,0,388.88c0,7.24-.73,7.93-8.19,7.95-9.22,0-18.45-.18-27.66.11-6.13.19-9.68,4-9.54,9.4.14,5.74,3.35,8.62,10,8.65,10.73.07,21.46,0,32.19,0a19.56,19.56,0,0,0,10.92-3.23c8-5.16,10.59-12.6,10.58-21.9q-.19-175.83-.09-351.66c0-14.08,0-28.17,0-42.26a20,20,0,0,0-3-11c-4.92-7.79-12-11-21.17-11Q355.91,37.26,257.81,37.12ZM222,478.09H381.44c1.84,0,3.69,0,5.53-.06,4.77-.15,7.43-3,8.32-7.32.93-4.52-1.16-7.72-5.33-9.7-2.71-1.29-5.54-1.11-8.38-1.11H64.19c-8.32,0-8.77-.46-8.77-8.88V179.88c0-2.67.18-5.37-.84-7.95-1.79-4.49-5-6.56-9.85-5.88-4.65.65-7.1,3.45-7.43,8.08-.13,1.84-.07,3.69-.07,5.54V334.6q0,59.63,0,119.23c0,4.4.21,8.71,2.56,12.63,4.71,7.83,11.45,11.69,20.76,11.67Q141.26,478,222,478.09ZM110.64,147.44A36.93,36.93,0,0,0,147.17,184c20,.14,36.89-16.73,36.94-36.77a36.74,36.74,0,1,0-73.47.2Zm257.57-36.9a36.93,36.93,0,0,0-36.94,36.66c0,20,16.92,36.91,36.9,36.81a36.74,36.74,0,0,0,0-73.47ZM147.29,404.67c20.23,0,37-16.72,36.82-36.79S167,331,147.08,331.2a36.74,36.74,0,0,0,.21,73.47Zm257.44-36.42a36.92,36.92,0,0,0-36.55-37.05c-20-.12-36.89,16.76-36.91,36.8a36.73,36.73,0,0,0,73.46.25ZM294.18,259.76c1.74-19.73-13.43-36.81-34.34-38.65-19.73-1.74-36.8,13.43-38.65,34.34-1.73,19.73,13.44,36.81,34.35,38.65C275.27,295.84,292.34,280.68,294.18,259.76ZM37.28,138.08c0,5.3,3.59,8.86,8.78,8.85a9.18,9.18,0,0,0,9.22-9.25c-.18-4.41-4.89-8.84-9.36-8.81S37.24,133.32,37.28,138.08Z" style="fill:#d61e00"/><path d="M257.81,37.12q98.08,0,196.18-.07c9.22,0,16.25,3.19,21.17,11a20,20,0,0,1,3,11c0,14.09,0,28.18,0,42.26q0,175.83.09,351.66c0,9.3-2.6,16.74-10.58,21.9a19.56,19.56,0,0,1-10.92,3.23c-10.73,0-21.46.06-32.19,0-6.63,0-9.84-2.91-10-8.65-.14-5.37,3.41-9.21,9.54-9.4,9.21-.29,18.44-.09,27.66-.11,7.46,0,8.19-.71,8.19-7.95q0-194.43,0-388.88c0-7-.81-7.75-7.87-7.75H63.24c-7,0-7.8.81-7.82,7.8,0,11.91.08,23.81,0,35.72-.07,7.34-4.64,12.1-10.43,11.21-4.63-.71-7.58-3.65-7.62-8.51-.13-15.09-.31-30.2.13-45.27.27-9.46,9.69-18.31,19.14-19,2.67-.2,5.37-.13,8.05-.13Z" style="fill:#f8493c"/><path d="M222,478.08q-80.73,0-161.46.05c-9.31,0-16.05-3.84-20.76-11.67-2.35-3.92-2.56-8.23-2.56-12.63q0-59.61,0-119.23V179.67c0-1.85-.06-3.7.07-5.54.33-4.63,2.78-7.43,7.43-8.08,4.82-.68,8.06,1.39,9.85,5.88,1,2.58.83,5.28.84,7.95V451c0,8.42.45,8.88,8.77,8.88H381.58c2.84,0,5.67-.18,8.38,1.11,4.17,2,6.26,5.18,5.33,9.7-.89,4.33-3.55,7.17-8.32,7.32-1.84.07-3.69.06-5.53.06Z" style="fill:#f8493c"/><path d="M110.64,147.44a36.74,36.74,0,1,1,73.47-.2c-.05,20-17,36.91-36.94,36.77A36.93,36.93,0,0,1,110.64,147.44Z" style="fill:#fefcfc"/><path d="M368.21,110.54a36.74,36.74,0,0,1,0,73.47c-20,.1-36.9-16.78-36.9-36.81A36.93,36.93,0,0,1,368.21,110.54Z" style="fill:#fefcfc"/><path d="M147.29,404.67a36.74,36.74,0,0,1-.21-73.47c19.9-.24,36.88,16.58,37,36.68S167.52,404.68,147.29,404.67Z" style="fill:#fefcfc"/><path d="M404.73,368.25a36.73,36.73,0,0,1-73.46-.25c0-20,17-36.92,36.91-36.8A36.92,36.92,0,0,1,404.73,368.25Z" style="fill:#fefcfc"/><path d="M294.18,259.76c-1.84,20.92-18.91,36.08-38.64,34.34-20.91-1.84-36.08-18.92-34.35-38.65,1.85-20.91,18.92-36.08,38.65-34.34C280.75,223,295.92,240,294.18,259.76Z" style="fill:#fefcfc"/><path d="M37.28,138.08c0-4.76,4.11-9.19,8.64-9.21s9.18,4.4,9.36,8.81a9.18,9.18,0,0,1-9.22,9.25C40.87,146.94,37.33,143.38,37.28,138.08Z" style="fill:#f8493c"/></g></g></svg>