<svg xmlns="http://www.w3.org/2000/svg" viewBox="0 0 516.4 516.4"><g id="Calque_2" data-name="Calque 2"><g id="Calque_1-2" data-name="Calque 1"><path d="M516.29,31.31V487.15c-1.72.91-1.57,2.76-2.09,4.25a37.81,37.81,0,0,1-16,19.74c-3.79,2.42-8.34,2.83-12.1,5.19H30.31c-.2-1-1.13-1.14-1.89-1.35C11.06,510.16,1,494.66,1,475.82q.31-217,.1-434A48.6,48.6,0,0,1,2.55,28.33C7.48,11.12,21.49,1.13,40.73,1.13h436c1.18,0,2.35,0,3.52,0,12.08.68,21.8,5.72,29.15,15.43C512.77,21.06,513.74,26.53,516.29,31.31ZM258.83,38.24H65.67c-2.68,0-5.37-.07-8,.13-9.46.71-18.87,9.56-19.15,19-.44,15.08-.25,30.18-.13,45.27,0,4.86,3,7.8,7.62,8.51,5.79.89,10.37-3.87,10.44-11.21.11-11.91,0-23.81,0-35.72,0-7,.81-7.8,7.82-7.8H453.1c7.07,0,7.87.79,7.87,7.75q0,194.45,0,388.88c0,7.24-.74,7.93-8.19,7.95-9.23,0-18.46-.18-27.67.11-6.13.19-9.67,4-9.54,9.4.14,5.74,3.35,8.62,10,8.65,10.73.07,21.46,0,32.2,0A19.55,19.55,0,0,0,468.67,476c8-5.16,10.59-12.6,10.58-21.9q-.19-175.83-.08-351.66c0-14.08-.05-28.17,0-42.26a20,20,0,0,0-3-11c-4.92-7.79-11.95-11-21.17-11Q356.93,38.38,258.83,38.24ZM223,479.21H382.46c1.85,0,3.69,0,5.53-.06,4.77-.15,7.43-3,8.32-7.32.94-4.52-1.16-7.72-5.32-9.7-2.72-1.29-5.55-1.11-8.39-1.11H65.21c-8.32,0-8.77-.46-8.77-8.88V181c0-2.67.18-5.36-.84-7.95-1.78-4.49-5-6.56-9.85-5.88-4.64.65-7.1,3.45-7.42,8.08-.13,1.84-.07,3.69-.07,5.54q0,77.46,0,154.93,0,59.63,0,119.23c0,4.4.2,8.71,2.55,12.63,4.71,7.83,11.45,11.69,20.77,11.67Q142.29,479.09,223,479.21ZM111.66,148.56a36.94,36.94,0,0,0,36.53,36.57c19.95.14,36.89-16.73,36.94-36.77a36.74,36.74,0,1,0-73.47.2Zm257.58-36.9a36.94,36.94,0,0,0-36.95,36.66c0,20,16.93,36.91,36.9,36.81a36.74,36.74,0,0,0,.05-73.47ZM148.31,405.79c20.23,0,37-16.72,36.82-36.79s-17.13-36.92-37-36.68a36.74,36.74,0,0,0,.21,73.47Zm257.44-36.42a36.91,36.91,0,0,0-36.54-37.05c-20-.12-36.9,16.76-36.92,36.8a36.73,36.73,0,0,0,73.46.25ZM295.2,260.88c1.74-19.73-13.43-36.81-34.34-38.65-19.73-1.74-36.8,13.43-38.64,34.34-1.74,19.73,13.43,36.81,34.34,38.65C276.3,297,293.36,281.8,295.2,260.88ZM38.31,139.2c0,5.3,3.58,8.86,8.77,8.85a9.18,9.18,0,0,0,9.22-9.25c-.18-4.41-4.89-8.84-9.36-8.81S38.26,134.44,38.31,139.2Z" style="fill:#d61e00"/><path d="M516.29,31.31c-2.55-4.78-3.52-10.25-6.89-14.71-7.35-9.71-17.07-14.75-29.15-15.43-1.17-.06-2.34,0-3.52,0h-436c-19.24,0-33.25,10-38.18,27.2A48.6,48.6,0,0,0,1.12,41.78q0,217-.1,434c0,18.84,10,34.34,27.4,39.16.76.21,1.69.31,1.89,1.35-9.21,0-18.43-.09-27.65.06-2.13,0-3-.37-2.56-2.57a13.12,13.12,0,0,0,0-2.51Q.13,258.11,0,4.89C0,.81.83,0,4.91,0Q258.34.2,511.77,0c3.81,0,4.75.89,4.62,4.65C516.07,13.53,516.29,22.42,516.29,31.31Z" style="fill:#fefcfc"/><path d="M486.1,516.33c3.76-2.36,8.31-2.77,12.1-5.19a37.81,37.81,0,0,0,16-19.74c.52-1.49.37-3.34,2.09-4.25,0,8.89-.1,17.78.06,26.66,0,2.17-.41,2.62-2.58,2.59C504.55,516.24,495.32,516.33,486.1,516.33Z" style="fill:#fefcfc"/><path d="M258.83,38.24q98.1,0,196.18-.07c9.22,0,16.25,3.19,21.17,11a20,20,0,0,1,3,11c0,14.09,0,28.18,0,42.26q0,175.83.08,351.66c0,9.3-2.6,16.74-10.58,21.9a19.55,19.55,0,0,1-10.91,3.23c-10.74,0-21.47.06-32.2,0-6.63,0-9.84-2.91-10-8.65-.13-5.37,3.41-9.21,9.54-9.4,9.21-.29,18.44-.09,27.67-.11,7.45,0,8.18-.71,8.19-7.95q0-194.43,0-388.88c0-7-.8-7.75-7.87-7.75H64.27c-7,0-7.81.81-7.82,7.8,0,11.91.07,23.81,0,35.72-.07,7.34-4.65,12.1-10.44,11.21-4.63-.71-7.58-3.65-7.62-8.51-.12-15.09-.31-30.19.13-45.27.28-9.46,9.69-18.31,19.15-19,2.67-.2,5.36-.13,8-.13Z" style="fill:#f8493c"/><path d="M223,479.2q-80.73,0-161.46.05c-9.32,0-16.06-3.84-20.77-11.67-2.35-3.92-2.56-8.23-2.55-12.63q0-59.61,0-119.23,0-77.46,0-154.93c0-1.85-.06-3.7.07-5.54.32-4.63,2.78-7.43,7.42-8.08,4.82-.68,8.07,1.39,9.85,5.88,1,2.59.84,5.28.84,7.95V452.14c0,8.42.45,8.88,8.77,8.88H382.6c2.84,0,5.67-.18,8.39,1.11,4.16,2,6.26,5.18,5.32,9.7-.89,4.33-3.55,7.17-8.32,7.32-1.84.07-3.68.06-5.53.06Z" style="fill:#f8493c"/><path d="M111.66,148.56a36.74,36.74,0,1,1,73.47-.2c0,20-17,36.91-36.94,36.77A36.94,36.94,0,0,1,111.66,148.56Z" style="fill:#fefcfc"/><path d="M369.24,111.66a36.74,36.74,0,0,1-.05,73.47c-20,.1-36.89-16.78-36.9-36.81A36.94,36.94,0,0,1,369.24,111.66Z" style="fill:#fefcfc"/><path d="M148.31,405.79a36.74,36.74,0,0,1-.21-73.47c19.9-.24,36.88,16.58,37,36.68S168.54,405.8,148.31,405.79Z" style="fill:#fefcfc"/><path d="M405.75,369.37a36.73,36.73,0,0,1-73.46-.25c0-20,16.95-36.92,36.92-36.8A36.91,36.91,0,0,1,405.75,369.37Z" style="fill:#fefcfc"/><path d="M295.2,260.88c-1.84,20.92-18.9,36.08-38.64,34.34-20.91-1.84-36.08-18.92-34.34-38.65,1.84-20.91,18.91-36.08,38.64-34.34C281.77,224.07,296.94,241.15,295.2,260.88Z" style="fill:#fefcfc"/><path d="M38.31,139.2c-.05-4.76,4.1-9.19,8.63-9.21s9.18,4.4,9.36,8.81a9.18,9.18,0,0,1-9.22,9.25C41.89,148.06,38.36,144.5,38.31,139.2Z" style="fill:#f8493c"/></g></g></svg>