<svg xmlns="http://www.w3.org/2000/svg" viewBox="0 0 515.15 515.23"><g id="Calque_2" data-name="Calque 2"><g id="Calque_1-2" data-name="Calque 1"><path d="M0,486.05V29.18c1.62-.74,1.54-2.43,2-3.77,2.52-7.92,7.45-14,14-18.92,4-3,9.1-3.7,13.19-6.49H485c.26,1.1,1.23.87,2,1.1,18.38,5.59,28.18,18.69,28.19,38q0,218.54,0,437.07a42.77,42.77,0,0,1-1.44,11.93c-4.92,17.07-18.86,27.15-37.71,27.15q-218.5,0-437,0c-1.17,0-2.35,0-3.52-.08A37.38,37.38,0,0,1,6.55,499.3C3.55,495.26,2.79,490.16,0,486.05ZM257.76,37.12H64.6c-2.51,0-5-.05-7.54.09-10,.56-19.51,9.55-19.76,19.49-.36,14.91-.22,29.84-.09,44.77,0,5,3.26,8.16,8,8.68,5.53.59,9.94-4.2,10-11.25.11-11.74,0-23.48,0-35.22,0-7.74.62-8.37,8.26-8.37H451.4c7.78,0,8.43.62,8.44,8.19q0,194.21,0,388.4c0,7.28-.73,8-8.12,8-9.22,0-18.45-.17-27.66.11-6.16.19-9.72,4-9.61,9.35.11,5.74,3.33,8.67,9.92,8.71,10.73.06,21.46,0,32.19,0a19.56,19.56,0,0,0,10.92-3.2c8-5.14,10.65-12.56,10.64-21.87q-.19-169.54-.08-339.09c0-18.11,0-36.22,0-54.33a20.74,20.74,0,0,0-3-11.51c-4.9-7.79-11.91-11.06-21.13-11Q355.84,37.26,257.76,37.12Zm-35.88,441H381.32c1.85,0,3.69,0,5.53-.05,4.77-.16,7.43-3,8.32-7.32.94-4.53-1.16-7.72-5.33-9.7-2.71-1.29-5.54-1.11-8.38-1.11H64.09c-8.34,0-8.78-.45-8.78-8.86q0-135.57,0-271.15c0-2.84.14-5.7-1-8.42a8.65,8.65,0,0,0-10.17-5.37c-4.35.83-6.67,3.61-6.94,8-.12,1.83-.07,3.68-.07,5.53V453.32c0,4-.07,8,1.9,11.77,4.53,8.69,11.47,13.06,21.41,13.05Q141.16,478,221.88,478.11Zm-111.35-331c0,20.22,16.64,37,36.73,36.88S184.18,167,184,147a36.73,36.73,0,0,0-73.46.11Zm294.09.16a36.65,36.65,0,0,0-36.7-36.77c-20.24,0-37,16.8-36.77,36.84A37.28,37.28,0,0,0,367.72,184C387.72,184.31,404.56,167.55,404.62,147.31ZM147,404.68a36.93,36.93,0,0,0,37-36.58c.09-20-16.8-36.91-36.82-36.89a36.74,36.74,0,0,0-.2,73.47Zm257.64-36.46a36.92,36.92,0,0,0-36.59-37c-20-.07-36.9,16.83-36.87,36.84a36.73,36.73,0,0,0,73.46.17ZM147.16,220.87a36.75,36.75,0,0,0,.07,73.49c20.09,0,36.8-16.76,36.76-36.78A37.12,37.12,0,0,0,147.16,220.87Zm257.45,36.49c-.16-20.23-16.91-36.8-36.91-36.5-20.24.31-36.83,17.11-36.54,37,.28,20.19,17.15,36.8,37,36.48A36.75,36.75,0,0,0,404.61,257.36ZM37.17,137.82c-.05,5.36,3.34,9,8.51,9.11a9.16,9.16,0,0,0,9.48-9c0-4.4-4.55-8.93-9.09-9.07S37.22,133.09,37.17,137.82Z" style="fill:#d61e00"/><path d="M257.76,37.12q98.08,0,196.18-.07c9.22,0,16.23,3.25,21.13,11a20.74,20.74,0,0,1,3,11.51c0,18.11,0,36.22,0,54.33q0,169.55.08,339.09c0,9.31-2.65,16.73-10.64,21.87a19.56,19.56,0,0,1-10.92,3.2c-10.73,0-21.46.05-32.19,0-6.59,0-9.81-3-9.92-8.71-.11-5.37,3.45-9.16,9.61-9.35,9.21-.28,18.44-.09,27.66-.11,7.39,0,8.12-.72,8.12-8q0-194.21,0-388.4c0-7.57-.66-8.19-8.44-8.19H63.57c-7.64,0-8.25.63-8.26,8.37,0,11.74.07,23.48,0,35.22-.07,7-4.48,11.84-10,11.25-4.79-.52-8-3.65-8-8.68-.13-14.93-.27-29.86.09-44.77.25-9.94,9.77-18.93,19.76-19.49,2.51-.14,5-.09,7.54-.09Z" style="fill:#f8493c"/><path d="M221.88,478.1q-80.73,0-161.45,0c-9.94,0-16.88-4.36-21.41-13.05-2-3.76-1.9-7.75-1.9-11.77V179.66c0-1.85,0-3.7.07-5.53.27-4.41,2.59-7.19,6.94-8a8.65,8.65,0,0,1,10.17,5.37c1.15,2.72,1,5.58,1,8.42q0,135.59,0,271.15c0,8.41.44,8.86,8.78,8.86H381.46c2.84,0,5.67-.18,8.38,1.11,4.17,2,6.27,5.17,5.33,9.7-.89,4.32-3.55,7.16-8.32,7.32-1.84.06-3.68.05-5.53.05Z" style="fill:#f8493c"/><path d="M110.53,147.15A36.73,36.73,0,0,1,184,147c.19,19.92-16.67,36.89-36.73,37S110.49,167.37,110.53,147.15Z" style="fill:#fefcfc"/><path d="M404.62,147.31c-.06,20.24-16.9,37-36.9,36.72a37.28,37.28,0,0,1-36.57-36.65c-.21-20,16.53-36.81,36.77-36.84A36.65,36.65,0,0,1,404.62,147.31Z" style="fill:#fefcfc"/><path d="M147,404.68a36.74,36.74,0,0,1,.2-73.47c20,0,36.91,16.91,36.82,36.89A36.93,36.93,0,0,1,147,404.68Z" style="fill:#fefcfc"/><path d="M404.61,368.22a36.73,36.73,0,0,1-73.46-.17c0-20,16.88-36.91,36.87-36.84A36.92,36.92,0,0,1,404.61,368.22Z" style="fill:#fefcfc"/><path d="M147.16,220.87A37.12,37.12,0,0,1,184,257.58c0,20-16.67,36.74-36.76,36.78a36.75,36.75,0,0,1-.07-73.49Z" style="fill:#fefcfc"/><path d="M404.61,257.36a36.75,36.75,0,0,1-36.41,37c-19.89.32-36.76-16.29-37-36.48-.29-19.89,16.3-36.69,36.54-37C387.7,220.56,404.45,237.13,404.61,257.36Z" style="fill:#fefcfc"/><path d="M37.17,137.82c0-4.73,4.37-9.08,8.9-8.93s9.09,4.67,9.09,9.07a9.16,9.16,0,0,1-9.48,9C40.51,146.81,37.12,143.18,37.17,137.82Z" style="fill:#f8493c"/></g></g></svg>