<svg xmlns="http://www.w3.org/2000/svg" viewBox="0 0 516.4 516.4"><g id="Calque_2" data-name="Calque 2"><g id="Calque_1-2" data-name="Calque 1"><path d="M.12,486.11V29.25c1.62-.75,1.54-2.43,2-3.77,2.51-7.92,7.45-14,14-18.92,4-3,9.1-3.7,13.18-6.49H485.08c.25,1.09,1.22.87,2,1.1,18.38,5.59,28.19,18.69,28.19,38q0,218.52,0,437.06a42.79,42.79,0,0,1-1.44,11.94c-4.91,17.06-18.85,27.15-37.71,27.15q-218.49,0-437,0c-1.18,0-2.35,0-3.52-.08A37.42,37.42,0,0,1,6.66,499.37C3.67,495.33,2.91,490.23.12,486.11ZM257.88,37.19H64.72c-2.52,0-5,0-7.55.1-10,.56-19.5,9.55-19.75,19.48-.37,14.92-.22,29.85-.09,44.78,0,5,3.26,8.16,8.05,8.67,5.52.6,9.93-4.19,10-11.24.12-11.74,0-23.48,0-35.22,0-7.74.63-8.37,8.27-8.37H451.51c7.79,0,8.44.63,8.44,8.2q0,194.21,0,388.39c0,7.29-.73,8-8.13,8-9.22,0-18.44-.17-27.66.11-6.16.19-9.71,4-9.61,9.35.12,5.74,3.34,8.67,9.92,8.71,10.73.06,21.46,0,32.2,0A19.55,19.55,0,0,0,467.59,475c8-5.15,10.65-12.56,10.64-21.87Q478,283.55,478.14,114c0-18.11,0-36.22,0-54.34a20.79,20.79,0,0,0-3-11.5c-4.91-7.79-11.91-11.06-21.14-11Q356,37.33,257.88,37.19ZM222,478.17H381.44c1.84,0,3.69,0,5.53-.05,4.77-.16,7.43-3,8.32-7.32.93-4.53-1.17-7.72-5.33-9.71-2.71-1.29-5.55-1.1-8.39-1.1H64.2c-8.33,0-8.78-.45-8.78-8.86V180c0-2.85.15-5.7-1-8.42a8.65,8.65,0,0,0-10.17-5.37c-4.35.83-6.67,3.61-7,8-.11,1.84-.06,3.69-.06,5.54q0,70.92,0,141.86,0,65.9,0,131.8c0,4-.07,8,1.89,11.76,4.54,8.7,11.48,13.07,21.42,13.05Q141.26,478.1,222,478.17Zm-111.36-331c0,20.22,16.64,37,36.73,36.87s36.92-17.06,36.73-37a36.73,36.73,0,0,0-73.46.11Zm294.1.16A36.66,36.66,0,0,0,368,110.61c-20.24,0-37,16.79-36.78,36.84a37.29,37.29,0,0,0,36.58,36.65C387.84,184.37,404.67,167.62,404.74,147.38ZM147.09,404.75a36.93,36.93,0,0,0,37-36.58c.08-20-16.81-36.91-36.82-36.9a36.74,36.74,0,0,0-.2,73.48Zm257.64-36.46a36.93,36.93,0,0,0-36.59-37c-20-.07-36.9,16.83-36.87,36.84a36.73,36.73,0,0,0,73.46.17ZM147.27,220.94a36.75,36.75,0,0,0,.07,73.49c20.09,0,36.8-16.76,36.76-36.78A37.1,37.1,0,0,0,147.27,220.94Zm257.45,36.49c-.15-20.24-16.9-36.8-36.9-36.5-20.24.31-36.83,17.11-36.55,37,.29,20.19,17.15,36.8,37.05,36.48A36.75,36.75,0,0,0,404.72,257.43ZM37.29,137.89c-.06,5.36,3.34,9,8.51,9.11a9.17,9.17,0,0,0,9.48-9c0-4.39-4.55-8.92-9.09-9.07S37.34,133.16,37.29,137.89Z" style="fill:#d61e00"/><path d="M.12,486.11c2.79,4.12,3.55,9.22,6.54,13.26A37.42,37.42,0,0,0,35.6,515.21c1.17.07,2.34.08,3.52.08q218.49,0,437,0c18.86,0,32.8-10.09,37.71-27.15a42.79,42.79,0,0,0,1.44-11.94q0-218.54,0-437.06c0-19.27-9.81-32.37-28.19-38-.75-.23-1.72,0-2-1.1,9.55,0,19.11.08,28.67-.07,2.17,0,3,.42,2.54,2.59a10.36,10.36,0,0,0,0,2q0,253.59.09,507.17c0,3.78-.85,4.63-4.62,4.63q-253.55-.17-507.1,0c-3.77,0-4.77-.83-4.63-4.63C.34,503.23.12,494.67.12,486.11Z" style="fill:#fefcfc"/><path d="M29.29.07c-4.08,2.79-9.18,3.49-13.18,6.49-6.57,4.92-11.51,11-14,18.92-.43,1.34-.35,3-2,3.77,0-8.89.09-17.78-.07-26.66C0,.42.47,0,2.63,0,11.52.16,20.41.07,29.29.07Z" style="fill:#fefcfc"/><path d="M257.88,37.19q98.08,0,196.17-.07c9.23,0,16.23,3.25,21.14,11a20.79,20.79,0,0,1,3,11.5c0,18.12,0,36.23,0,54.34q0,169.55.09,339.09c0,9.31-2.65,16.72-10.64,21.87a19.55,19.55,0,0,1-10.92,3.19c-10.74,0-21.47.06-32.2,0-6.58,0-9.8-3-9.92-8.71-.1-5.37,3.45-9.16,9.61-9.35,9.22-.28,18.44-.09,27.66-.11,7.4,0,8.13-.72,8.13-8q0-194.19,0-388.39c0-7.57-.65-8.2-8.44-8.2H63.69c-7.64,0-8.26.63-8.27,8.37,0,11.74.08,23.48,0,35.22-.07,7-4.48,11.84-10,11.24-4.79-.51-8-3.64-8.05-8.67-.13-14.93-.28-29.86.09-44.78.25-9.93,9.77-18.92,19.75-19.48,2.51-.14,5-.1,7.55-.1Z" style="fill:#f8493c"/><path d="M222,478.17q-80.73,0-161.45,0c-9.94,0-16.88-4.35-21.42-13.05-2-3.75-1.89-7.74-1.89-11.76q0-65.91,0-131.8,0-70.93,0-141.86c0-1.85-.05-3.7.06-5.54.28-4.4,2.6-7.18,7-8a8.65,8.65,0,0,1,10.17,5.37c1.15,2.72,1,5.57,1,8.42V451.12c0,8.41.45,8.86,8.78,8.86H381.57c2.84,0,5.68-.19,8.39,1.1,4.16,2,6.26,5.18,5.33,9.71-.89,4.32-3.55,7.16-8.32,7.32-1.84.06-3.69.05-5.53.05Z" style="fill:#f8493c"/><path d="M110.64,147.22a36.73,36.73,0,0,1,73.46-.11c.19,19.92-16.66,36.89-36.73,37S110.61,167.44,110.64,147.22Z" style="fill:#fefcfc"/><path d="M404.74,147.38c-.07,20.24-16.9,37-36.9,36.72a37.29,37.29,0,0,1-36.58-36.65c-.2-20,16.54-36.82,36.78-36.84A36.66,36.66,0,0,1,404.74,147.38Z" style="fill:#fefcfc"/><path d="M147.09,404.75a36.74,36.74,0,0,1,.2-73.48c20,0,36.9,16.92,36.82,36.9A36.93,36.93,0,0,1,147.09,404.75Z" style="fill:#fefcfc"/><path d="M404.73,368.29a36.73,36.73,0,0,1-73.46-.17c0-20,16.88-36.91,36.87-36.84A36.93,36.93,0,0,1,404.73,368.29Z" style="fill:#fefcfc"/><path d="M147.27,220.94a37.1,37.1,0,0,1,36.83,36.71c0,20-16.67,36.74-36.76,36.78a36.75,36.75,0,0,1-.07-73.49Z" style="fill:#fefcfc"/><path d="M404.72,257.43a36.75,36.75,0,0,1-36.4,37c-19.9.32-36.76-16.29-37.05-36.48-.28-19.89,16.31-36.69,36.55-37C387.82,220.63,404.57,237.19,404.72,257.43Z" style="fill:#fefcfc"/><path d="M37.29,137.89c.05-4.73,4.37-9.08,8.9-8.94s9.09,4.68,9.09,9.07a9.17,9.17,0,0,1-9.48,9C40.63,146.88,37.23,143.25,37.29,137.89Z" style="fill:#f8493c"/></g></g></svg>