<svg xmlns="http://www.w3.org/2000/svg" xmlns:xlink="http://www.w3.org/1999/xlink" viewBox="0 0 175.16 174.8"><defs><linearGradient id="Áåçûìÿííûé_ãðàäèåíò_133" x1="20" y1="174.8" x2="20" y2="151.32" gradientUnits="userSpaceOnUse"><stop offset="0" stop-color="#ffeadb"/><stop offset="0.99" stop-color="#c245ba"/></linearGradient><linearGradient id="Áåçûìÿííûé_ãðàäèåíò_133-2" x1="125.07" y1="173.41" x2="125.07" y2="151.89" xlink:href="#Áåçûìÿííûé_ãðàäèåíò_133"/><linearGradient id="Áåçûìÿííûé_ãðàäèåíò_133-3" x1="69.15" y1="45.25" x2="69.15" y2="24.03" xlink:href="#Áåçûìÿííûé_ãðàäèåíò_133"/><linearGradient id="Áåçûìÿííûé_ãðàäèåíò_133-4" x1="72.53" y1="25.96" x2="72.53" y2="5.55" xlink:href="#Áåçûìÿííûé_ãðàäèåíò_133"/><linearGradient id="Áåçûìÿííûé_ãðàäèåíò_290" x1="74.28" y1="48.81" x2="74.28" y2="0.01" gradientUnits="userSpaceOnUse"><stop offset="0.01" stop-color="#792c27"/><stop offset="0.99" stop-color="#70132f"/></linearGradient><linearGradient id="Áåçûìÿííûé_ãðàäèåíò_133-5" x1="95.28" y1="72.91" x2="95.28" y2="25.43" xlink:href="#Áåçûìÿííûé_ãðàäèåíò_133"/><linearGradient id="Áåçûìÿííûé_ãðàäèåíò_290-2" x1="68.15" y1="25.51" x2="85.05" y2="25.51" xlink:href="#Áåçûìÿííûé_ãðàäèåíò_290"/><linearGradient id="Áåçûìÿííûé_ãðàäèåíò_290-3" x1="56.08" y1="34.93" x2="56.08" y2="28.14" xlink:href="#Áåçûìÿííûé_ãðàäèåíò_290"/><linearGradient id="Áåçûìÿííûé_ãðàäèåíò_14" x1="78.96" y1="79.18" x2="78.96" y2="34.65" gradientUnits="userSpaceOnUse"><stop offset="0.01" stop-color="#83637c"/><stop offset="1" stop-color="#ffeadb"/></linearGradient><linearGradient id="Áåçûìÿííûé_ãðàäèåíò_4" x1="66.86" y1="52.69" x2="66.86" y2="42.47" gradientUnits="userSpaceOnUse"><stop offset="0.01" stop-color="#c245ba"/><stop offset="1" stop-color="#ffeadb"/></linearGradient><linearGradient id="Áåçûìÿííûé_ãðàäèåíò_290-4" x1="71.06" y1="64.23" x2="71.06" y2="46.3" xlink:href="#Áåçûìÿííûé_ãðàäèåíò_290"/><linearGradient id="Áåçûìÿííûé_ãðàäèåíò_133-6" x1="107.51" y1="51.02" x2="107.51" y2="35.74" xlink:href="#Áåçûìÿííûé_ãðàäèåíò_133"/><linearGradient id="Áåçûìÿííûé_ãðàäèåíò_133-7" x1="105.16" y1="50.18" x2="105.16" y2="40.98" xlink:href="#Áåçûìÿííûé_ãðàäèåíò_133"/></defs><g style="isolation:isolate"><g id="Calque_2" data-name="Calque 2"><g id="layer1"><path d="M139.42,172.79s26.94-4.28,30.32-7,4.15-7.87,4.15-7.87S151.1,156.53,139.42,172.79Z" style="fill:#67363f;fill-rule:evenodd"/><polygon points="34.91 169.4 46.17 172.79 31.78 152.47 34.91 169.4" style="fill:#67363f;fill-rule:evenodd"/><path d="M77.1,78.88a58.23,58.23,0,0,1-.95,9.82S71.54,120,78,120.24s30.15-28.11,33.2-34.59c0,0-5.47-14.36-7-27.89l-3-4.89Z" style="fill:#e15558"/><path d="M76.86,84.7s3.36,6.2,14.32.69,13.27-27.08,13.27-27.08l-.43-3h-1.43l-25.73,23Z" style="fill:#862043;fill-rule:evenodd"/><path d="M43.7,174.13l-6.31-3.29.47-.74,5.3.77c-9.66-15.07-29.25-19.55-29.25-19.55l-1.3,2.3-2.09-2.3S11.85,150,13.68,148c3.73-4.09,9.57-11,10.48-15,1.35-6,2.12-14.15,2.53-15.25s9-5.34,16.78-9.56c4-2.2,11.34-7.16,17.47-11.45a1.13,1.13,0,0,0,.21-.15c3.37-2.36,6.36-4.49,8.21-5.82l2-1.43s.89-3.44,1.07-4,4.47-3.18,4.47-3.18c-2.35,6.65,2.84,12.9,2.84,12.9s.26,15.49,2.92,15.62S90.72,96,90.72,96s18.13-7.46,18.8-10.42a13.45,13.45,0,0,0-.5-6.37h2.2s1,1.14,2.6,2.9c3.46,3.76,9.79,10.38,15.34,14.65,8.14,6.26,23.72,13.72,25.25,16.6s2.54,9.15,5.58,18.8c2,6.2,7.64,14.89,11.47,20.33,1.77,2.52,3.13,4.35,3.56,4.91l.14.17c-.51,5.08-5.06,9.11-5.06,9.11l-.63-1.62,3.74-5.86c-15.75-1.25-33.79,13.61-33.79,13.61l-2.39.29-2.32-3.82-2.48-4.09" style="fill:#cdb6b2;fill-rule:evenodd"/><path d="M175.16,157.55c-.51,5.08-5.06,9.11-5.06,9.11l-.63-1.62,3.74-5.86c-15.75-1.25-33.79,13.61-33.79,13.61l-2.39.29-2.32-3.82S157,148.9,171.46,152.47l3.56,4.91Z" style="fill:#ab9096;fill-rule:evenodd"/><path d="M116.13,123.48l20.32-12.81s-12.53,15-20.32,19.1Z" style="fill:#7c2c77;fill-rule:evenodd;opacity:0.4;mix-blend-mode:multiply"/><path d="M130.53,157.86l1.7,7.31a53.76,53.76,0,0,0-2.92,8l-17.72.25c-2.61-8.8-4.67-17.56-4.61-23.15.17-14.72,11.62-26.26,12.15-26.78-.13.62-2.46,11.25-2.13,20.82.35,9.87,5.9,19.22,5.9,19.22,1.18-6.05,9.33-18.25,9.33-18.25C131,148.41,130.53,157.86,130.53,157.86Z" style="fill:#7c0477;fill-rule:evenodd;opacity:0.4;mix-blend-mode:multiply"/><path d="M37.86,170.1l5.3.77c-9.66-15.07-29.25-19.55-29.25-19.55l-1.3,2.3-2.09-2.3s4.17-4.34,6-6.34c0,0,14.48,1.82,28.49,22.19l1.15,7-2.78-.09-6-3.28Z" style="fill:#ab9096;fill-rule:evenodd"/><path d="M46.17,174.21l-2.47-.08-6.31-3.29.47-.74,5.3.77c-9.66-15.07-29.25-19.55-29.25-19.55l-1.3,2.3-2.09-2.3c13.76-3.31,31,14.84,31,14.84-1.3-7.28-9.2-25-9.68-26.09C38.56,151.53,45,167.17,45,167.17s-.12-14.95-1-20.68-2.63-14.86-2.63-14.86l8.81,8.26,2.24-30,8.54-13.18.6-.93c-.13.26-.27.51-.39.78-5.58,11.29-5.6,32.52-5.6,32.52,19.23.37,50.49-18.46,51.57-19.09C90.34,123.48,60,136,60,136H93.41l20.43-15.73,11.49-15.72c-.26.94-9.23,32.95-8.27,40.45s5.84,18.54,5.84,18.54a143.81,143.81,0,0,1,11.81-24.27c-2.8,4.57-3.6,19.71-3.6,19.71l5.34,10.18c9.83-13.8,17.26-17.09,17.26-17.09-5,2.37-11.16,15.41-11.16,15.41,17.87-10.67,32.61-9.91,32.61-9.91-.51,5.08-5.06,9.11-5.06,9.11l-.63-1.62,3.74-5.86c-15.75-1.25-33.79,13.61-33.79,13.61l-2.39.29-2.32-3.82-2.48-4.09c-2.72,4.57-2.46,7.73-2.46,7.73" style="fill:#7c2c77;fill-rule:evenodd;opacity:0.4;mix-blend-mode:multiply"/><path d="M46.17,174.21s-1.77-4-2.15-30.13,6.61-42.43,6.61-42.43,7.33-3.92,10-6.58l0,0,.88.75s-8.25,14.15-8.42,36c0,0,11.38,3.73,21.44,3.22,9.9-.5,34.5-12.17,35.28-12.53h0s5.42-11.47,12.62-31.57l1.71-.79s3.8,4.24,6.35,5.67v2l-1.37-1s-9.45,14.39-14.71,50.55c0,0-4.66,2.41,2.74,26" style="fill:#8b4638;fill-rule:evenodd"/><path d="M64.56,138.15,69.18,136l-19-2.55c1.42-17,10.22-37.72,10.48-38.36l0,0,.88.75s-8.25,14.15-8.42,36c0,0,11.38,3.73,21.44,3.22,9.9-.5,34.5-12.17,35.28-12.53C96.81,134,64.56,138.15,64.56,138.15Z" style="fill:#66044f;fill-rule:evenodd;opacity:0.4;mix-blend-mode:multiply"/><path d="M117.19,173.31l-7.81.1s2.11-18.29,3-28.14c1.44-15.5,14-47.68,15.21-48.63a4.71,4.71,0,0,1,2.92-.84v2l-1.37-1s-9.45,14.39-14.71,50.55c0,0,1,16.38,2.74,26" style="fill:#66044f;fill-rule:evenodd;opacity:0.4;mix-blend-mode:multiply"/><g style="opacity:0.31"><path d="M83.7,137.45c-.83.11-1.76.06-2.34.76a3.88,3.88,0,0,0-.68,2.47,9.57,9.57,0,0,0,1.41,4.65c2.22,2.64,6.85,1.17,9-.82,1.34-1.26,2.49-3.75,1.24-5.48-.85-1.17-2.18-1.41-3.48-1.69a13,13,0,0,0-2.81-.53,8.51,8.51,0,0,0-3.61,1.08Z" style="fill:#29354d;fill-rule:evenodd"/><path d="M80,147a.89.89,0,0,1-.5-.41,4.18,4.18,0,0,1,1.15.37c.36.16.82.32.76.8a1.86,1.86,0,0,1-.55,1,1.28,1.28,0,0,1-1,.22,1.1,1.1,0,0,1-1.11-.83c-.18-.72.17-1.41,1-1.3Z" style="fill:#29354d;fill-rule:evenodd"/><path d="M73.37,144.33c-.32,0-.45,0-.63.28s-.14.39,0,.64a1.76,1.76,0,0,0,2,.82.82.82,0,0,0,.42-1.34,1.66,1.66,0,0,0-.63-.45,3.56,3.56,0,0,0-1,0Z" style="fill:#29354d;fill-rule:evenodd"/><path d="M101.44,135.58l-.7-.36-.76,0a17,17,0,0,0-3.69.6,9.19,9.19,0,0,0-2.48,1c-.33.21-.83.6-.86,1s.6.88,1,1.07a8.52,8.52,0,0,0,2.26.78c.41.08.84.09,1.25.21s.54.19.82.27l1,.14a13.58,13.58,0,0,0,4.66-.42,5.81,5.81,0,0,0,2.26-1.1c.33-.26.86-.69,1-1.14.19-1-1.18-2.1-2-2.45a4.13,4.13,0,0,0-2-.23C102.1,135.11,101.07,135.36,101.44,135.58Z" style="fill:#29354d;fill-rule:evenodd"/><path d="M94.56,140.73a.88.88,0,0,1,.65-.21c.31,0,.62.09.76.39.25.55-.45,1-.93,1.11s-.72.08-.93-.3.2-.63.47-.8Z" style="fill:#29354d;fill-rule:evenodd"/></g><path d="M85,173.72l-38.82.49c-1-5.07,0-13.1,0-13.1a201.58,201.58,0,0,1,28-3.49,97,97,0,0,1,16.28.24c5.83,20.64,4.43,15.73,4.43,15.73" style="fill:#aa5036;fill-rule:evenodd"/><path d="M52.41,174.13a98.6,98.6,0,0,1,0-14.17h.34a99,99,0,0,0,0,14.16Z" style="fill:#7c1338"/><polygon points="67.05 174 65.23 158.29 65.57 158.25 67.38 174 67.05 174" style="fill:#7c1338"/><path d="M85,173.72h-.2c0-7.59-2.25-17-2.32-17.38l.33-.06C82.88,156.68,85,166.12,85,173.72Z" style="fill:#7c1338"/><path d="M90.44,157.86a97,97,0,0,0-16.28-.24c1.15,1.5,6.4,5.33,10.83,16.1l7.49-.31C92.23,165.69,92.27,164.33,90.44,157.86Z" style="fill:#66044f;fill-rule:evenodd;opacity:0.4;mix-blend-mode:multiply"/><path d="M113.17,90.13c-.85,1.87-15.93,8.4-17.37,10.17S85.19,119.52,81,120.24s-6.22-22.83-6.22-22.83-4.07-4.25-5.4-6.65l2-1.43s.89-3.44,1.07-4,4.46-3.18,4.46-3.18c-2.34,6.65,2.85,12.9,2.85,12.9s.26,15.49,2.92,15.62S90.72,96,90.72,96s18.13-7.46,18.8-10.42a13.45,13.45,0,0,0-.5-6.37h2.2s1,1.14,2.6,2.9C113.82,82.09,114,88.27,113.17,90.13Z" style="fill:#ab9096;fill-rule:evenodd"/><path d="M79.71,95.05a72.31,72.31,0,0,1-6.22-8.89l3.37-4S76.28,89.54,79.71,95.05Z" style="fill:#7c525a;fill-rule:evenodd"/><path d="M0,174.8c1.27-4.44,2.1-5.31,6.54-11.67a127.6,127.6,0,0,0,7.37-11.81C33.05,156.45,40,166.78,40,166.78s-2.77,4.35-4.76,7.56Z" style="fill:#ff8e65"/><path d="M0,174.8c1.49-4.52,2.1-5.31,6.54-11.67a127.6,127.6,0,0,0,7.37-11.81C33.05,156.45,40,166.78,40,166.78s-2.6,4-4.76,7.56H29a15.32,15.32,0,0,0-5.1-4.1c-5.19-2.4-16.17,1-19.61,4.48Z" style="fill-rule:evenodd;opacity:0.58;mix-blend-mode:multiply;fill:url(#Áåçûìÿííûé_ãðàäèåíò_133)"/><path d="M29,174.42c-2.25-2.69-5.61-5.35-10.12-5a12.41,12.41,0,0,1,12.84,4.91Z" style="fill:#c34854;fill-rule:evenodd"/><path d="M13.26,152.47s17,5.94,23.73,19l3-4.71S32.72,155,13.91,151.32Z" style="fill:#862043;fill-rule:evenodd"/><path d="M90.32,173.65c-1.83-6.48-3.78-13.56-4.32-14.14-1-1-8-.95-8-.95,0-.35.1-.7.16-1l0-.16.17-.78,0,0a13,13,0,0,1,1.06-2.82L78,153c4-1.19,16-1.46,16.68-1.09l.24.26,0,0c1,1.3,3.67,6.69,5.9,11.15A90.62,90.62,0,0,0,107,173.41c1.93.36,32.44-.62,32.44-.62,21.08-15.12,27.72-13.25,27.72-13.25a117.07,117.07,0,0,1,5,12.93Z" style="fill:#ff8e65"/><path d="M139.42,172.79c21.08-15.12,27.72-13.25,27.72-13.25a108.39,108.39,0,0,1,5,12.93l-81.76.94c-2.47-8.9-4.12-13.64-4.36-13.9-1-1-8-.95-8-.95,0-.35.1-.7.16-1l0-.16.17-.78,0,0s7.09-.35,8.7-.66a7,7,0,0,0,3.06-1.7C91.81,154,92,153,92,153c1.09.12,2.67-1.09,2.67-1.09l.24.26,0,0c1,1.3,3.67,6.69,5.9,11.15a59,59,0,0,0,6.9,10.08" style="fill-rule:evenodd;opacity:0.58;mix-blend-mode:multiply;fill:url(#Áåçûìÿííûé_ãðàäèåíò_133-2)"/><path d="M142.59,172.79s13.67-10.72,25.42-11.3l-.91-2.11s-11.48-.45-27.68,13.41Z" style="fill:#862043;fill-rule:evenodd"/><path d="M79.46,153.73s9.76.37,10.29.81,1.46,5.2,1.46,5.2-.52-4.75-1-5.55S79.46,153.73,79.46,153.73Z" style="fill:#c34854;fill-rule:evenodd"/><path d="M77.84,92.66s.94,16.7,4.79,18c0,0-2.92-2.33-2.92-15.62Z" style="fill:#7c525a;fill-rule:evenodd"/><path d="M172.3,153.66S154.58,136,150.68,128.58l11.37,8.54S167.66,147.74,172.3,153.66Z" style="fill:#7c2c77;fill-rule:evenodd;opacity:0.4;mix-blend-mode:multiply"/><path d="M131.19,161.42C129.6,145.86,136,133.58,141.6,126a61.75,61.75,0,0,1,12.72-12.81l.19.28a61.67,61.67,0,0,0-12.65,12.74c-5.58,7.52-11.91,19.71-10.34,35.16Z" style="fill:#937078"/><path d="M43.86,144.14C37.22,125.69,26.7,118,26.59,117.88l.2-.28c.11.08,10.71,7.87,17.38,26.42Z" style="fill:#937078"/><path d="M134.71,150.77s-.28-10.41,4.71-15.83,9.23,5,8.64,11.26-10,11.09-11.61,10.5S134.71,150.77,134.71,150.77Z" style="fill:#e15558;fill-rule:evenodd"/><path d="M149.73,148.88c-2.2-2.19-.3-7,1-7.4s3.68,3.36,3,4.76S150.63,149.79,149.73,148.88Z" style="fill:#e15558;fill-rule:evenodd"/><path d="M134.71,150.77s.29-10.94,4.71-13.89,7.39,1.35,7.39,1.35-1.63-6.15-5.4-4.81S134.92,141.8,134.71,150.77Z" style="fill:#862043;fill-rule:evenodd"/><path d="M153.71,145.27s-3.36-3.68-4.93,0C148.78,145.27,150.75,135.82,153.71,145.27Z" style="fill:#862043;fill-rule:evenodd"/><path d="M109,109.47c-1.1,2.57-3.69,6.51-5.35,7.29-2.27,1.08-10.7,3.9-11.53,4.2,1.14-.3,15.2-3.92,9,.51-6.46,4.62-21.49,6.5-20.84,5.27,2.1-4,28.22-20.25,29.12-19.46C109.65,107.52,109.45,108.38,109,109.47Z" style="fill:#e15558;fill-rule:evenodd"/><path d="M110.92,115.91a6.48,6.48,0,0,1-3.27,3.45,4.71,4.71,0,0,1-3.4-.27c-.65-.31-1.06-.65-.91-.79.81-.75,6.17-3.56,7.3-3.08C110.91,115.34,111,115.58,110.92,115.91Z" style="fill:#e15558;fill-rule:evenodd"/><path d="M109,109.47c-11.87,2.93-28.71,17.27-28.71,17.27,2.1-4,28.22-20.25,29.12-19.46C109.65,107.52,109.45,108.38,109,109.47Z" style="fill:#862043;fill-rule:evenodd"/><path d="M110.92,115.91c-4-.91-6.65,3.16-6.65,3.16l0,0c-.65-.31-1.06-.65-.91-.79.81-.75,6.17-3.56,7.3-3.08C110.91,115.34,111,115.58,110.92,115.91Z" style="fill:#862043;fill-rule:evenodd"/><path d="M50.16,160.38l7.53-7.24,2.46.68S63.28,148.06,64,148s8.39,4.49,8.39,4.49l2.13-1.15,4.9,2.42a16.74,16.74,0,0,0-1.27,3.72l6.6-1.31a4.59,4.59,0,0,1,3.43,1.5,36.79,36.79,0,0,1-1.11,6.44c-.73,2-10.76,8.38-12,8.7s-12.25-13.53-12.25-13.53A56.67,56.67,0,0,0,50.16,160.38Z" style="fill:#e4d7d5;fill-rule:evenodd"/><path d="M88.22,157.65s-1.73,6.43-4.15,7.68-19.91-6.93-19.91-6.93l-10.38-.13,3.91-5.13-7.53,7.24L62.82,160l6.07,11.52L71,173.9l11.89-.15L88,165.33Z" style="fill:#66044f;fill-rule:evenodd;opacity:0.4;mix-blend-mode:multiply"/><path d="M78.19,157.46l-3.5.81L68,156.7s6.79-3.56,7.93-3.56a21.72,21.72,0,0,1,3.56.6Z" style="fill:#66044f;fill-rule:evenodd;opacity:0.4;mix-blend-mode:multiply"/><path d="M72.43,152.47a41.22,41.22,0,0,0-6.83,3.83s.5-6.56-1.56-8.32A42.24,42.24,0,0,1,72.43,152.47Z" style="fill:#66044f;fill-rule:evenodd;opacity:0.4;mix-blend-mode:multiply"/><path d="M64.32,94.35s9.1,21.32,20.46,19,29.45-14.73,36.45-23.61l-10-10.54H109s-4.16-12.13-4.8-22.5L89.7,60.79,77.1,78.88l-.24,3.27L72.4,85.33l-1.07,4Z" style="fill:#6d0475;fill-rule:evenodd;opacity:0.61;mix-blend-mode:multiply"/><path d="M102.37,56.46c0,.22,0,.42-.06.62a16.53,16.53,0,0,1-1.25,5c-1.85,3.82-3.37,4.61-6.69,7.79-3.66,3.48-8.08,6.25-10.78,7.17s-9.73,2.29-10.87,2.09S65.89,74,63.37,68.89c-.68-1.34-3.34-7.76-4.55-10.18-.62-1.23-2-3.94-3.27-6.55l0,0c-1.18-2.48-2.19-4.88-2.19-5.82a3.75,3.75,0,0,1,1.08-2.54,2.68,2.68,0,0,0,.52-1.13,60.19,60.19,0,0,0,0-6.93s-1.15-1.26-1.85-2.16-1.65-2.35-1.46-3.74a2.53,2.53,0,0,1,.95-1.52c.5-.45,1-.77,1.16-1.15A5.7,5.7,0,0,0,53.83,26c.08-2.5,0-8,.73-9.26C58.9,8.65,67.94,6,76.08,5.55s15.11,1.16,16,1.75c1.79,1.2,6.11,8.65,7.79,18C101.22,32.69,103.27,47.37,102.37,56.46Z" style="fill:#ff8e65"/><path d="M85.05,27.73s3.23,3.85.64,7.55c-6.73,2.57-10.59,5.52-13,4.1s-7.12-7.85-7.12-7.85c-1.73-.08-4.74,2.83-4.74,2.83s.27,6.69-.32,8.21-1.57,2.68-3,2.68a5.83,5.83,0,0,1-3.11-1.47,2.68,2.68,0,0,0,.52-1.13,60.19,60.19,0,0,0,0-6.93s-1.15-1.26-1.85-2.16-1.65-2.35-1.46-3.74a2.53,2.53,0,0,1,.95-1.52l4.34.57s4.33.29,6.07-.73,4.83-3.34,4.83-3.34A34.33,34.33,0,0,1,75.94,24C80.53,24.15,85.05,27.73,85.05,27.73Z" style="fill-rule:evenodd;opacity:0.58;mix-blend-mode:multiply;fill:url(#Áåçûìÿííûé_ãðàäèåíò_133-3)"/><path d="M87.72,17.72s.22-4.54-5.64-5.08-12.45,1.57-20.24,8a37.39,37.39,0,0,1-8,5.35c.08-2.5,0-8,.73-9.26C58.9,8.65,67.94,6,76.08,5.55l15.15,7Z" style="fill-rule:evenodd;opacity:0.58;mix-blend-mode:multiply;fill:url(#Áåçûìÿííûé_ãðàäèåíò_133-4)"/><path d="M99.52,48.81a7,7,0,0,1-4.31-3.56s.16-3.39,1-8.93C97.93,25.51,93,24.41,87.5,21.37c0,0,1.53-7.19-3-10.23a.63.63,0,0,0-.18-.12,6.64,6.64,0,0,0-2.24-.95c-7.38-1.85-9.44,2-18.93,5.45-4.89,1.8-7.86,8.75-9.1,9.78h0l-.23.12c-1.05.18-8.59-4-8.85-11.26,0,0,3.76,1.43,6.63.33S56.16,4.09,63,.2a52.6,52.6,0,0,1,8.46,0c2.63.41,6.36,2,9.4,3.39,4.16,1.9,11.47.7,14.13,2.6s7.83,23.17,8.55,28.46C103.57,34.65,98.56,42.5,99.52,48.81Z" style="fill:url(#Áåçûìÿííûé_ãðàäèåíò_290)"/><path d="M94.59,26s0,7-1,9.32-5.34,7-5.34,7,.94,12.41,1.87,19.1a25.8,25.8,0,0,1-.84,11.48s8.93-6.29,13-15.83L99.78,33.39l-1-8Z" style="fill-rule:evenodd;opacity:0.58;mix-blend-mode:multiply;fill:url(#Áåçûìÿííûé_ãðàäèåíò_133-5)"/><path d="M68.15,24.41s1,3.31,3.52,3.9c0,0,8-1.69,13.38-.59a5.76,5.76,0,0,0-2.48-4.38,17.9,17.9,0,0,0-12.39,1.07l.7,1.72a6.39,6.39,0,0,1-1.59-1.72Z" style="fill:url(#Áåçûìÿííûé_ãðàäèåíò_290-2)"/><path d="M59.2,29.29a5.63,5.63,0,0,1,1.65,3.17,8.51,8.51,0,0,1-.15,2.47s-.65-1-3.31-1.24a9.59,9.59,0,0,0-3.61.68,5,5,0,0,1-2.17-6.08,9.21,9.21,0,0,1,6.08,1l1.48,2.59-.84-2.67Z" style="fill:url(#Áåçûìÿííûé_ãðàäèåíò_290-3)"/><path d="M72.84,38.33c.66.39,2.59.67,5-.24s3.93-3.52,3.83-4.21-4.8-3.35-8.14-2.23C70.74,32.58,72.84,38.33,72.84,38.33Z" style="fill:#e4dbff"/><g id="open"><path d="M81.65,33.88s-1.25-3.32-9-3.15a7.73,7.73,0,0,0,0,7.12S77.16,39.46,81.65,33.88Z" style="fill:#b83b4c;fill-rule:evenodd"/><path d="M72.68,37.85h0c-.17-.3,3.92,1.76,9-4h0c.56,1.41-4.9,6.39-8.81,4.45Z" style="fill:#6b2430"/><path d="M72.68,37.85c5.3,0,9.22-4.32,9-4a13.52,13.52,0,0,1-4,3.22,7.9,7.9,0,0,1-5,.75" style="fill:#c75967;fill-rule:evenodd"/></g><path d="M73.7,38.61a4.32,4.32,0,0,0,3.16.29,8.52,8.52,0,0,0,4.45-4S78,39.59,73.7,38.61Z" style="fill:#c75967;fill-rule:evenodd"/><path d="M60.88,38.48s0,.16,0,.45a15.58,15.58,0,0,1-.33,3.64c-.56,1.2-3.76,2-4.48.72-.49-.92-.81-4.3-.51-6.37.13-.88.37-1.51.75-1.61C57.55,35,60.73,37.35,60.88,38.48Z" style="fill:#e4dbff"/><path d="M102.37,56.46a17.42,17.42,0,0,1-1.31,5.65c-1.85,3.82-3.37,4.61-6.69,7.79-3.66,3.48-8.08,6.25-10.78,7.17s-9.73,2.29-10.87,2.09S65.89,74,63.37,68.89c-.68-1.34-3.34-7.76-4.55-10.18-.62-1.23-2-3.94-3.27-6.55a100.11,100.11,0,0,1,8.35,9.22c3.88,5,11.49-1.9,15.81-9.72s19.07-17,19.07-17S99.5,47.29,102.37,56.46Z" style="opacity:0.31;mix-blend-mode:multiply;fill:url(#Áåçûìÿííûé_ãðàäèåíò_14)"/><path d="M60.88,38.48s0,.16,0,.45c-1.34-2.18-5.3-2-5.3-2l0,0c.13-.88.37-1.51.75-1.61C57.55,35,60.73,37.35,60.88,38.48Z" style="fill:#b83b4c;fill-rule:evenodd"/><path d="M56.26,43.54A1.93,1.93,0,0,0,58,44.64c1.23,0,2.3-1.73,2.3-1.73S58.13,44.79,56.26,43.54Z" style="fill:#c75967;fill-rule:evenodd"/><path d="M60.86,38.93s-.71-1.45-3.46-2.25-3.25,0-3.21.15,1.29.63,1.29.63l.06-.36A6.71,6.71,0,0,1,60.86,38.93Z" style="fill:#6b2430"/><path d="M74.28,50.24s-1.15-5-3.51-5.92-3.38-1-4.31-1.41-4.6-1-6.17.87-.44,8.63-.44,8.63,0,.89,4.47-.51A46.06,46.06,0,0,1,74.28,50.24Z" style="fill-rule:evenodd;opacity:0.31;mix-blend-mode:multiply;fill:url(#Áåçûìÿííûé_ãðàäèåíò_4)"/><path d="M57.53,37.2s.19,5.41,2.08,5.45c1.34,0,1.25-3.72,1.25-3.72S59.1,37,57.53,37.2Z" style="fill:#6b2430"/><path d="M58,39.38a.46.46,0,1,1-.45-.45A.45.45,0,0,1,58,39.38Z" style="fill:#fff"/><path d="M59.85,52.41a11.54,11.54,0,0,0,4.24-1.32c2.58-1.27,4.65-2.54,9.14-3a3.58,3.58,0,0,0-1.44-2.88,5.35,5.35,0,0,1,2.49,5s-2.81,1.09-4.21,1.56S67.75,53.37,67,53.7C65,54.59,60.54,53.18,59.85,52.41Z" style="fill:#bd4751;fill-rule:evenodd"/><path d="M68.34,51.9a3.85,3.85,0,0,1,1.4-2,3.36,3.36,0,0,1,2.65-.33S69.32,50.44,68.34,51.9Z" style="fill:#9c254c;fill-rule:evenodd"/><path d="M60.49,52.33A13.23,13.23,0,0,0,64,51.71c1.61-.57,2.78-1.76,4.14-2.49,0,0-2.21.88-4.54,2.09S60.49,52.33,60.49,52.33Z" style="fill:#9c254c;fill-rule:evenodd"/><path d="M66,48.3c-.29-.12,0-1.33.66-1.61s1.95.55,2,.89S66.86,48.66,66,48.3Z" style="fill:#fff;fill-rule:evenodd;mix-blend-mode:soft-light"/><path d="M65.89,41.63s-.19-5.83.57-7.56C66.46,34.07,66.42,40,65.89,41.63Z" style="fill:#fff;fill-rule:evenodd;mix-blend-mode:soft-light"/><path d="M63.9,59.6a26.29,26.29,0,0,0,2,3.5c.39.28,2.26-.18,2.26-.18s6.44-1.57,7-2.31,3.47-4.7,4-7.19C79.2,53.42,72.23,60.28,63.9,59.6Z" style="fill:#e7754c;fill-rule:evenodd"/><path d="M63.07,59.1c2.41,1.55,1.67-.63,2.82-.79A10.61,10.61,0,0,0,69.51,58a8.62,8.62,0,0,0,2.88-1.52c1.19-.8,2.93-.89,6.81-3a27.26,27.26,0,0,1-10.86,6.12C64.61,60.67,63.07,59.1,63.07,59.1Z" style="fill:#b1484c;fill-rule:evenodd"/><path d="M68.15,62.92a34.78,34.78,0,0,1,6.2-2.2,14,14,0,0,0,3-3.54,17.32,17.32,0,0,1-3,4.3A23.27,23.27,0,0,0,68.15,62.92Z" style="fill:#9f344c;fill-rule:evenodd"/><path d="M88.69,48.22c-1.59,5.84-8.43,7.61-8.43,7.61s-1.35-1.73-2.43-1.22c-11,5.32-13.93,5-13.93,5-3,1.06-3.06,4.63-3.06,4.63-5-.53-7.28-5.65-7.41-6,1.9,2.4,5.5,2.57,5.5,2.57.33-3.47,3-7.52,3-7.52l3.21.36c1.82-.35,7.41-3,7.41-3C77.14,45.32,80,46.39,80,46.39l-1.48.81h0c1.18.27,4,4,4,4,1.44-.28,5.85-2.87,6.13-3Z" style="fill:url(#Áåçûìÿííûé_ãðàäèåíò_290-4)"/><path d="M98.17,42s1.19-7.81,5.88-9.27c4.36-1.36,8.16.75,8.82,1.56s3.33,7.44.42,14.27C111,54,106,56.92,102.9,56.91c-2.26,0-3.31-2.39-3.31-2.39S97.17,45.81,98.17,42Z" style="fill:#ff8e65"/><path d="M102.15,47.07s1.3-9.88,3.85-10.88,4.71-.22,5.78,1.47,1.79,8.14,0,11c0,0,1-8.21-.47-10.18s-4.92-.77-5.88,0,1.43,2.33,2.92,5.93-.2,6.43-1.63,6.59-2-.57-1.57-2.37S103.74,45.35,102.15,47.07Z" style="fill-rule:evenodd;opacity:0.58;mix-blend-mode:multiply;fill:url(#Áåçûìÿííûé_ãðàäèåíò_133-6)"/><path d="M102.39,45.56s.61-4.22,1.47-4.55,3.73,1.66,4.25,4.83-2.65,4.8-2.86,4.22-.69-5.69-3.1-3Z" style="fill-rule:evenodd;opacity:0.58;mix-blend-mode:multiply;fill:url(#Áåçûìÿííûé_ãðàäèåíò_133-7)"/><path d="M102.31,57.08a16.53,16.53,0,0,1-1.25,5c-1.85,3.82-3.37,4.61-6.69,7.79-3.66,3.48-8.08,6.25-10.78,7.17s-9.73,2.29-10.87,2.09a45.23,45.23,0,0,0,16-5.88C96.83,68.56,101.66,58.47,102.31,57.08Z" style="fill:#c34854;fill-rule:evenodd"/><path d="M84.26,10.94C79.74,8.23,70.39-1.16,65,2.06S53.84,25.43,53.84,25.43l.23-.12h0c1.24-1,4.21-8,9.1-9.78,9.49-3.47,11.55-7.3,18.93-5.45a7.18,7.18,0,0,1,2.19.91A.1.1,0,0,0,84.26,10.94Zm-23,3.91C65.36,6.89,72,9.38,72,9.38,68.15,13.36,61.29,14.85,61.29,14.85Z" style="fill:#680463;fill-rule:evenodd;opacity:0.4;mix-blend-mode:multiply"/><path d="M87.21,14.85s3.83,5.5,13.49,6.82l1,3.84a25.53,25.53,0,0,1-14-7.78Z" style="fill:#fff;fill-rule:evenodd;opacity:0.5;mix-blend-mode:soft-light"/><path d="M86.06,12.6s8.33,2.77,12.72,2.25l-.73-2.25s-3.77,2-12.56-.67Z" style="fill:#fff;fill-rule:evenodd;opacity:0.5;mix-blend-mode:soft-light"/><path d="M88.69,48.22c-1.59,5.84-8.43,7.61-8.43,7.61s-1.35-1.73-2.43-1.22c-11,5.32-13.93,5-13.93,5-3,1.06-3.06,4.63-3.06,4.63a7.91,7.91,0,0,1,2.23-5.56l1.25-4.39-.42,4.39s7.43-1.1,11-3.28L72.74,51l3,4a8.44,8.44,0,0,0,2.92-2.35c1.54-1.76,0-5.18-.07-5.47h0l3.82.8.2,3.26-1.42,3.35c.11,0,4.47,0,7.55-6.38Z" style="fill:#680463;fill-rule:evenodd;opacity:0.4;mix-blend-mode:multiply"/><path d="M85.35,42.49s-.37-2.16,0-2.44,2.33-.9,2.79-.41S86.69,42.65,85.35,42.49Z" style="fill:#fff;fill-rule:evenodd;mix-blend-mode:soft-light"/><g style="mix-blend-mode:screen"><path d="M61.06,62.93l-.1.56c1,2.33,2,4.65,2.4,5.4C65.89,74,71.59,79,72.73,79.16a4.92,4.92,0,0,0,.62,0l.36-.18C72.08,78.51,61.06,62.93,61.06,62.93Zm3.36,31.35c-1,.72-2.12,1.5-3.28,2.3.13-.26.26-.52.41-.78l-.9-.75v0c-2.68,2.66-10,6.58-10,6.58s-.36.93-.88,2.66c-2.43,1.6-4.64,3-6.3,3.87-7.76,4.2-16.33,8.44-16.77,9.55l-.1.15.05,0c-.41,1.54-1.19,9.29-2.48,15.07-.93,4-6.76,10.89-10.47,15l-1.06,1.13c-1.16,1.24-2.12,2.2-2.12,2.2l4.75-.34,7.69-4.8,6.81-25.91L54.2,105.71,72.08,90.12l.31-4.8c-.18.57-1.06,4-1.06,4ZM53.84,25.43V26a6.25,6.25,0,0,1-.11,1.21c-.1.31-.54.62-1,1a7.32,7.32,0,0,0-1.13.16,4.88,4.88,0,0,0,2.11,6c.6.73,1.22,1.4,1.22,1.4s0,.26,0,.62c-.64.1-.8.38-.77.49s.44.28.8.44a45.63,45.63,0,0,1,0,5.36,3.07,3.07,0,0,1-.52,1.14,3.65,3.65,0,0,0-1.08,2.55c0,.93,1,3.33,2.19,5.81v0c1.24,2.6,2.66,5.31,3.28,6.55l.36.72a8.61,8.61,0,0,0-.26,1.4s-3.59-.18-5.5-2.58c.13.33,2.4,5.44,7.44,6L60,57.07c-3.12-4.59-4.44-13.14-4.44-13.14v-7l-.85-2.84c-1-1.86,0-5.5,0-5.5l-.46-3.87-1.47-3.85c3.66-3.71,4-13.75,9.52-18.21C65.81-.24,74,1.38,79.33,2.88A35.47,35.47,0,0,0,71.49.19,52.73,52.73,0,0,0,63,.19c-6.86,3.9-8.54,13.22-11.4,14.33S45,14.18,45,14.18C45.24,21.46,52.78,25.61,53.84,25.43ZM12.6,153.63c-1.26,2.17-3.38,5.68-6.06,9.5-4.44,6.34-5.45,8-6.54,11.67l4.29-.07a9.84,9.84,0,0,1,1-.84l8-21.42-.87.95Z" style="fill:#ffb864;fill-rule:evenodd;opacity:0.45;mix-blend-mode:color"/><path d="M79.33,2.88C74,1.38,65.81-.24,62.25,2.65c-5.5,4.46-5.86,14.5-9.52,18.21l1.47,3.85.46,3.87s-.95,3.64,0,5.5l.85,2.84v7S56.86,52.48,60,57.07l.88,7.15c-5-.52-7.31-5.63-7.44-6,1.91,2.4,5.5,2.58,5.5,2.58a8.61,8.61,0,0,1,.26-1.4l-.36-.72c-.62-1.24-2-3.95-3.28-6.55v0c-1.19-2.48-2.19-4.88-2.19-5.81a3.65,3.65,0,0,1,1.08-2.55A3.07,3.07,0,0,0,55,42.64a45.63,45.63,0,0,0,0-5.36c-.36-.16-.78-.34-.8-.44s.13-.39.77-.49c0-.36,0-.62,0-.62s-.62-.67-1.22-1.4a4.88,4.88,0,0,1-2.11-6,7.32,7.32,0,0,1,1.13-.16c.44-.36.88-.67,1-1A6.25,6.25,0,0,0,53.84,26v-.52c-1.06.18-8.6-4-8.85-11.25,0,0,3.76,1.42,6.63.34S56.16,4.09,63,.19a52.73,52.73,0,0,1,8.47,0A35.47,35.47,0,0,1,79.33,2.88Z" style="fill:#ffb864;fill-rule:evenodd"/><path d="M73.71,79l-.36.18a4.92,4.92,0,0,1-.62,0C71.59,79,65.89,74,63.36,68.89,63,68.14,62,65.82,61,63.49l.1-.56S72.08,78.51,73.71,79Z" style="fill:#ffb864;fill-rule:evenodd"/><path d="M72.39,85.32l-.31,4.8L54.2,105.71,29.76,120.26,23,146.17,15.26,151l-4.75.34s1-1,2.12-2.2L13.69,148c3.71-4.1,9.54-11,10.47-15,1.29-5.78,2.07-13.53,2.48-15.07l-.05,0,.1-.15c.44-1.11,9-5.35,16.77-9.55,1.66-.91,3.87-2.27,6.3-3.87.52-1.73.88-2.66.88-2.66s7.33-3.92,10-6.58v0l.9.75c-.15.26-.28.52-.41.78,1.16-.8,2.25-1.58,3.28-2.3l6.91-5S72.21,85.89,72.39,85.32Z" style="fill:#ffb864;fill-rule:evenodd"/></g></g></g></g></svg>