<svg xmlns="http://www.w3.org/2000/svg" xmlns:xlink="http://www.w3.org/1999/xlink" viewBox="0 0 835.35 523.72"><defs><linearGradient id="Áåçûìÿííûé_ãðàäèåíò_32" x1="812.67" y1="261.29" x2="812.67" y2="214.39" gradientUnits="userSpaceOnUse"><stop offset="0.03" stop-color="#ffc4a4"/><stop offset="1" stop-color="#ffd8bb"/></linearGradient><radialGradient id="Áåçûìÿííûé_ãðàäèåíò_39" cx="821.62" cy="389.9" r="13.2" gradientTransform="translate(0 -84.99) scale(1 0.99)" gradientUnits="userSpaceOnUse"><stop offset="0.01" stop-color="#a8adc5"/><stop offset="1" stop-color="#7e798c"/></radialGradient><radialGradient id="Áåçûìÿííûé_ãðàäèåíò_101" cx="811.9" cy="297.56" r="15.21" gradientUnits="userSpaceOnUse"><stop offset="0" stop-color="#b1c0d4"/><stop offset="0.97" stop-color="#9e9ab3"/></radialGradient><radialGradient id="Áåçûìÿííûé_ãðàäèåíò_39-2" cx="822.13" cy="358.04" r="19.02" xlink:href="#Áåçûìÿííûé_ãðàäèåíò_39"/><linearGradient id="Áåçûìÿííûé_ãðàäèåíò_32-2" x1="267.91" y1="85.74" x2="315.22" y2="85.74" xlink:href="#Áåçûìÿííûé_ãðàäèåíò_32"/><linearGradient id="Áåçûìÿííûé_ãðàäèåíò_24" x1="208.92" y1="83.71" x2="233.98" y2="83.71" gradientUnits="userSpaceOnUse"><stop offset="0" stop-color="#ff614a"/><stop offset="0.98" stop-color="#ff905e"/></linearGradient></defs><g style="isolation:isolate"><g id="Calque_2" data-name="Calque 2"><g id="layer1"><path d="M379.83,493.79l-5.26,28.57-65.28,1.36s-.3-15.06.14-29.93Z" style="fill:#3a1a33;fill-rule:evenodd"/><path d="M235.24,493.79l-9.62,29.93H169.19s-.3-15.06.14-29.93Z" style="fill:#3a1a33;fill-rule:evenodd"/><path d="M795,259.62l-2.12-37.19s21.59-12,39.69-6.69l-4,45.55Z" style="fill-rule:evenodd;fill:url(#Áåçûìÿííûé_ãðàäèåíò_32)"/><path d="M808.06,216.48s3.65-14.94,10-16.52l.88.81a28.27,28.27,0,0,0-9.68,15.71Z" style="fill:#bf5d6b;fill-rule:evenodd"/><path d="M792.83,222.43s3.1,28.28,6.29,31.85,22,2.33,26,1.46,7.08-36.13,7.08-36.13l-3.66,41.68-33.57.47Z" style="fill:#691e35;fill-rule:evenodd;opacity:0.2"/><rect x="790.41" y="297.53" width="42.98" height="7.42" style="fill:url(#Áåçûìÿííûé_ãðàäèåíò_39)"/><path d="M833.39,297.53a251.42,251.42,0,0,0-43,0S807.72,299.75,833.39,297.53Z" style="fill-rule:evenodd;fill:url(#Áåçûìÿííûé_ãðàäèåíò_101)"/><path d="M787.1,261.1l1.81,20.43,44.14-1,2.3-19.47a89.45,89.45,0,0,0-20-2.48C793.81,258.62,787.1,261.1,787.1,261.1Z" style="fill-rule:evenodd;fill:url(#Áåçûìÿííûé_ãðàäèåíò_39-2)"/><path d="M788.91,281.53s29,2.58,44.14-1C833.05,280.57,809.32,277.72,788.91,281.53Z" style="fill:#4a3f6d;fill-rule:evenodd"/><path d="M805.57,280.87s7.81-1.67,12.51,0l-1.35,16.66H807Z" style="fill:#564c77;fill-rule:evenodd"/><path d="M817.5,259.06l-.33,18.71,10.08.48,1.27-17S826.88,258.88,817.5,259.06Z" style="fill:#fff;fill-rule:evenodd;opacity:0.5"/><polygon points="788.91 262.41 790.07 261.76 791.32 279.55 790.07 279.55 788.91 262.41" style="fill:#fff;fill-rule:evenodd;opacity:0.5;mix-blend-mode:soft-light"/><polygon points="818.09 298.41 818.55 304.95 823.21 304.95 822.85 298.52 818.09 298.41" style="fill:#fff;fill-rule:evenodd;opacity:0.5"/><path d="M822.36,222.43c-1.61-1.06-2.84,7.25-1.89,9.6s1.79,5.1,2.58,5.13S826.1,224.87,822.36,222.43Z" style="fill:#fff;fill-rule:evenodd"/><path d="M819,214.53s1.94,3.7,3.32,3.86,2.17-3.86,2.17-3.86A26.17,26.17,0,0,0,819,214.53Z" style="fill:#fff;fill-rule:evenodd"/><path d="M818,282.3a83.73,83.73,0,0,0,15.08-1.73l2.3-19.47s-2.66-.69-6.69-1.34l3.86-44a35.51,35.51,0,0,0-9.41-1.32,26.67,26.67,0,0,0-4.15.11h0a57.87,57.87,0,0,0-9.61,1.61,28.42,28.42,0,0,1,9.6-15.38l-.88-.81c-6.37,1.58-10,16.52-10,16.52h0a76.55,76.55,0,0,0-15.26,6l2,37.21a39.23,39.23,0,0,0-7.74,1.46l1.81,20.43s7.46.66,16.79.86l1.23,14.26c-5.18.09-10.79.35-16.52.88V305h43v-7.42s-6.7-.67-16.59-.87Z" style="fill:#690123;fill-rule:evenodd;opacity:0.25"/><path d="M0,434.43s5.63,4.66,25.07,12.31,154,1.76,188.26-9.24S262.06,376,262.06,376l-4.57-11.64-146.9,42.93h-75S2.64,428.88,0,434.43Z" style="fill:#67363f;fill-rule:evenodd"/><path d="M389.51,446.57a29.56,29.56,0,0,1-5.15,14.36s-202.23,2.14-231.15,1.9S57.68,465,46.05,464s-20.23-6.51-21.23-9.31S28.25,422,28.25,422s134.38-54.62,225.35-47.82c0,0,2.56.81,8,2.21,7.86,2,21.76,5.27,42.74,9.21,35.56,6.64,77.52,36.56,80.33,39.91C386.6,427.73,390.3,436.88,389.51,446.57Z" style="fill:#3b465c;fill-rule:evenodd"/><path d="M389.51,446.57a29.56,29.56,0,0,1-5.15,14.36s-202.23,2.14-231.15,1.9S57.68,465,46.05,464s-20.23-6.51-21.23-9.31S28.25,422,28.25,422s134.38-54.62,225.35-47.82c0,0,2.56.81,8,2.21-2.89,2.89-20.79,21.23-21.11,30.89,0,0,88.67,18,123.47,24.36L251.79,420.36s111.37,28.51,137.7,26.11Z" style="fill:#450036;opacity:0.42"/><path d="M386.89,296.94s-4.29,3.4-18.81.13l-2.57,1.46s-8.91.3-16.17.14a154.1,154.1,0,0,0-16.31.38c-1.7.27-11.29-1.54-11.29-1.54l0-.3L324.34,274s38.63,1,42.2,1.79a3.38,3.38,0,0,1,1,.45C372.56,279.23,386.76,294.7,386.89,296.94Z" style="fill:#ff8e65"/><path d="M325.25,288.46A22.75,22.75,0,0,1,320,299.8H269.36s-13.31-37.31,1-51.49c0,0,5.78,4.67,7.05,4.84s17.92-3.92,22.35-3.24c1.81.29,5.11,3.59,8.37,7.42,2.22,2.59,4.43,5.43,6.16,7.72,1.62,2.14,2.81,3.78,3.21,4.35l.16.22h5.21S326.85,278.77,325.25,288.46Z" style="fill:#bc9d98;fill-rule:evenodd"/><polygon points="314.32 265.05 314.13 265.03 308.16 257.33 314.32 265.05" style="fill:#5b0036;opacity:0.42"/><path d="M325.25,288.46A22.75,22.75,0,0,1,320,299.8H269.36s-13.31-37.31,1-51.49c0,0,5.78,4.67,7.05,4.84l11.09,8.37,25.6,3.51,3.4,4.37.16.22s3.19,15.41,1.79,23.86c0,0,3.91.22,5.72-4.94C325.2,288.52,325.23,288.49,325.25,288.46Z" style="fill:#5b0036;opacity:0.42"/><path d="M270.39,248.31l31.95,51.49h-33S263.12,263.89,270.39,248.31Z" style="fill:#5b0036;fill-rule:evenodd;opacity:0.42"/><path d="M276.51,97.53s29.41-13.41,50.64-45.76c0,0,27.8,29.58,41.1,70a51.07,51.07,0,0,1-30.83,26.6S297.48,135.41,276.51,97.53Z" style="fill:#813f2b;fill-rule:evenodd"/><path d="M276.51,97.53s14-32.34,50.64-45.76C327.15,51.77,312.83,83.44,276.51,97.53Z" style="fill:#cb734f;fill-rule:evenodd"/><polygon points="308.4 82.2 315.22 82.2 327.15 71.46 320.85 70.26 308.4 82.2" style="fill:#cb734f;fill-rule:evenodd"/><polygon points="308.4 82.2 298.63 87.19 280.18 104.71 288.58 119.48 319.74 139.92 364.58 131.5 308.4 82.2" style="fill:#5b0036;fill-rule:evenodd;opacity:0.42"/><polygon points="327.15 71.46 345.06 92.95 343.78 105.86 338.32 109.65 315.22 82.2 327.15 71.46" style="fill:#9a5239;fill-rule:evenodd"/><polygon points="308.4 82.2 311.55 85.66 331.67 106.25 336.25 107.19 315.22 82.2 308.4 82.2" style="fill:#722924;fill-rule:evenodd"/><path d="M280.6,93.84s12.53-26.64,43.87-39.92C324.47,53.92,308.74,82.85,280.6,93.84Z" style="fill:#722924;fill-rule:evenodd"/><path d="M315.22,67.22s-5.46,5.71-11,8c-2.7,1.14-14.52,2.5-14.52,2.5s-5-1.69-7.77,1.18-2.22,7.82-2.22,7.82-12.58,7.45-11.81,10.8,12.66,6.74,12.66,6.74,12.4-4.86,20.08-20.56l2.12-3.62A100.27,100.27,0,0,0,315.22,67.22Z" style="fill-rule:evenodd;fill:url(#Áåçûìÿííûé_ãðàäèåíò_32-2)"/><path d="M375.28,89l-32.4,32.08-3.69,3.67c-5.38-.73-19.63-9.51-19.44-11.88s2.72-16.28,2.72-16.28l9.21,9.61,8.26,1.73c4.43-5.38,4-14.85,4-14.85L333.81,79.64s5.29-7.66,7.91-8.77,8.62-.43,9.72,0,8,5.7,8,5.7l8.89,1.72Z" style="fill:#ff8e65"/><path d="M266.29,72.33c.16.75-6.24,6-9.51,7.66h0c-1.64.79-4.72-4.42-7.42-9.88s-5-11.18-5-11.18l1.73-3.75,0,0c.75.46,12.9,7.72,15.71,10.12a15.22,15.22,0,0,1,1.27,1.27A16.17,16.17,0,0,1,266.29,72.33Z" style="fill:#f67865"/><path d="M361.89,97.52l-19,23.6-3.69,3.67c-5.38-.73-19.63-9.51-19.44-11.88s2.72-16.28,2.72-16.28l9.21,9.61,8.26,1.73c4.43-5.38,4-14.85,4-14.85L333.81,79.64s5.29-7.66,7.91-8.77c0,0,12.13,7.15,15.37,11.34S361.89,97.52,361.89,97.52Z" style="fill:#5b0036;fill-rule:evenodd;opacity:0.42"/><path d="M256.86,106.45a5.09,5.09,0,0,1-.43,1.84,34.74,34.74,0,0,1-5.94,1.24c-13.61,2.32-45.85,6.94-45.85,6.94L193,114l-1.65-.35s-29.43-33.5-30.94-57.8,59.51-41.53,76-32.65l1.87,2.95,5.48,8.72,1.51,2v0l1.94,2.59-1.1,15.72L246,57.4s0,0,.06.05c.67.46,6,4.29,7.34,6.34,1.06,1.65,2.59,9.1,3.4,16.2.27,2.25.49,4.46.57,6.43A156.52,156.52,0,0,1,256.86,106.45Z" style="fill:#ff8e65"/><path d="M256.78,80h0c.27,2.25.49,4.46.57,6.43a156.52,156.52,0,0,1-.46,20l-6.37,3.08c-13.61,2.32-45.85,6.94-45.85,6.94L193,114l-4.37-5.21,40.44-51.4L235.56,35l2.73-8.8,5.48,8.72,1.51,2v0S239.53,61,239.8,65.2c.21,3.21,6.56,4.48,9.53,4.91.92.11,1.51.16,1.51.16s1.38-3.48.78-5.07-5.1-7.13-5.61-7.75c1,.46,14,6.78,17.09,9.15a16.17,16.17,0,0,1,3.19,5.73C266.45,73.08,260.05,78.32,256.78,80Z" style="fill:#952a5c;fill-rule:evenodd;opacity:0.42"/><path d="M213.7,95.24s9.31,13.59,19.15,4.23c0,0-5.4,12.67-5.4,14.71,0,5.74,25.36-7.5,25.36-7.5-.86,4.94-23.22,9.46-27.8,11.53-7.93,3.58-25.67-2.85-25.67-2.85S207.36,101.81,213.7,95.24Z" style="fill:#5b0036;opacity:0.49"/><path d="M422.83,167.91c-.13.21-.3.43-.46.67-4.34,5.64-22.06,14.15-22.06,14.15-38.26,19.12-94.87,24-110,25l-2.64.16-1.22,0S267.47,247.77,267.31,264s5.27,72,5.27,72c-14.31,18.07-50.44,24.68-50.44,24.68,1.32.38,2.67.73,4.05,1h0c15.23,3.29,32.64,1.92,32.64,1.92L262.05,376l-3.95-8.8a183.27,183.27,0,0,1-21.11,28,108.8,108.8,0,0,1-11.56,11.2.07.07,0,0,1-.05,0c-1.43,1.1-2.35,1.62-2.59,1.43-1.27-1,2.29-15.36,2.29-15.36-9.2-1.52-21.46,13.06-21.46,13.06l-6.4,12.26c-19.85,5.89-63.21,15.74-86,20.82l-14.69,3.21L109,431.62a165,165,0,0,1-24,5.37c-12.67,1.89-44.26.32-49.41,0-.46,0-.73,0-.73,0l16.36-15.88C23,416.77,0,434.42,0,434.42c10.48-21.73,34.53-48.84,34.53-48.84l3.33-18.41c-7.16-3.86-10.67-7.94-12.37-10.8a11.59,11.59,0,0,1-1.54-3.7c5.1-18.42,29.16-41.29,32.05-47.06a.18.18,0,0,1,0-.08,1,1,0,0,1,.1-.22c0-.08.06-.16.11-.27a3.21,3.21,0,0,0,.33-.78,5.15,5.15,0,0,1,.21-.52.84.84,0,0,0,.08-.21c1.46-4.13,3-11.5,4.51-22.6v0c1.3-9.31,2.57-21.22,3.84-36,3.07-36,13.15-71.79,15.52-75.19,2.08-2.94,15.18-13.64,27.7-21.33l.27-.16.44-.25c1.78-1.08,3.48-2.1,5.18-3,14-7.51,30.29-14.75,30.29-14.75,15.61-23.24,60-13.74,60-13.74s59.94-16.2,67.94-14.25,27.73,19.25,33.72,21l.22.08a27.07,27.07,0,0,0,2.67.46l.08,0h0a.56.56,0,0,0,.1,0c9.16,1.16,29.79,1,29.79,1,1.64-8.7,16.74-22.57,16.74-22.57s22-18.61,29.16-15l0,0c7.16,3.62,16.61,32.18,16.61,32.18s19.9,34.92,21.33,45.85A4.33,4.33,0,0,1,422.83,167.91Z" style="fill:#cdb6b2;fill-rule:evenodd"/><path d="M401.72,119.41s-9.45-28.56-16.61-32.18c.52.59,8.89,10.26,8.56,20l-19.57-5c1,.54,17.09,9.37,19.73,11.69,0,0-22.16-.54-30.18,1.43s-24.46,9.43-24.46,9.43,25.48-1.65,31.45-1,28.49,17.38,28.49,17.38-29.52-2.37-48.79-6.64c-18.36-4.08-39-10.15-40.94-10.72a.56.56,0,0,1-.1,0h0l-.08,0-2.89-.54.22.08a447.82,447.82,0,0,0,44.84,16.6c25.9,8.24,35.45,11.53,36.56,11.94-2.73-.6-53.86-11.69-76.92-20.12-23.68-8.69-38.42-29.53-38.42-29.53-8-2-67.94,14.25-67.94,14.25s-44.41-9.5-60,13.74c0,0-16.3,7.24-30.29,14.75-1.7.89-3.4,1.91-5.18,3,2.53-1.37,11.2-6,15.25-6.75,4.78-.83,18.93,10.7,18.93,10.7s-74.14,108.37-82,129v0L56,305.53a1,1,0,0,1,.1-.22c0-.08.06-.16.11-.27s.19-.46.33-.78a5.15,5.15,0,0,1,.21-.52.84.84,0,0,0,.08-.21c6.38-14.93,46.5-106.17,90.89-134,0,0,3.94,12.31,24.13,6.15,0,0-13-1-13.93-4.8s16-12.45,16-12.45,20.6-21.14,35-30.7c14.18-9.4,56-24.16,57.35-24.6-1.19,1.14-78.54,74.33-91.4,87.78s-96,106.16-98.33,108.84c2.19-1.81,72.12-60.16,96-88,24.22-28.26,55-69.17,55-69.17s39.42-35.4,40.45-35.4-16,91.67-20.31,114.67-60.88,87.48-73.55,98.74C161.8,331.5,126.21,344.65,124,345.46c2.24-.43,38.5-7.45,58.1-17.36,20.22-10.24,64.56-79.79,64.56-79.79s3.51-6.15,9.93-7.5l-29.13,78.43,34-61.69c-.73,2.43-24.71,80.16-28.92,83.51s-44.44,11.39-44.44,11.39l11.23-6.59c-2.59.52-85.7,17.34-99,19.5s-62.8-16.58-64.26-17.12l7.32,8.13H25.5c1.7,2.86,5.21,6.94,12.37,10.8l-3.33,18.41,16.61-.43v36L34.79,437s.27,0,.73,0c4.48.13,28.32.86,30,.86l3.07-46s29.16-10.39,45.26-6.29l-4.86,46-12.48,10.2,14.69-3.21,6-53,55.33-5.53,24.73,37.74L176.89,382.5s7.53-14.33,21.46-13.82l27.84,23.19-3.4,16a10.71,10.71,0,0,0,2.59-1.43.07.07,0,0,0,.05,0c2.33-1.59,6.13-4.81,11.56-11.2l-32.24-26.36s6.19-5.13,21.44-7.15c-1.38-.3-2.73-.65-4.05-1,0,0,36.13-6.61,50.44-24.68,0,0-5.46-55.78-5.27-72s19.09-56.08,19.09-56.08,69.39-2.91,113.91-25.16c0,0,17.72-8.51,22.06-14.15l.68-3.32C421.62,154.33,401.72,119.41,401.72,119.41Z" style="fill:#5b0036;opacity:0.42"/><path d="M235.24,54.07c-2.92,12.8-12,27.54-20.39,39.51-7.29,10.47-14,18.79-15.5,21.78-3.16,6.4-17,0-17,0l-.49.49-4.1,4.21s2.73,5.11,2.89,9.56c.05,1.73-1.54,4.37-3.54,7.16-.75,1.05-1.56,2.13-2.32,3.18-2.48,3.27-4.78,6.29-4.7,7.72.16,3.08,6.13,6.92,6.78,10.1.38,1.89-3.86,4-7.62,6.08-2.59,1.48-5,3-5.45,4.42-1.13,3.57,8.07,7.4,8.07,7.4s-12.52,2-16.12-4.07c-3-5.19,5.76-5.65,11-8.64a8.8,8.8,0,0,0,2.43-2c4.11-5-23.27-10.36-28.75-18.41a6.08,6.08,0,0,1-.43-5.8c2.83-7.75,16.74-16.72,24.73-16.2l-.51-1.79a45.32,45.32,0,0,0-8.7-2.32c-4.86-.75-7.26-.59-7.86-1.94s-.27-14.91-2.78-30.81v0c-.1-.76-.24-1.54-.37-2.33s-.25-1.4-.38-2.07l-.06-.36a167.54,167.54,0,0,0-4-16.55c-.43-1.54-.84-2.94-1.19-4.24l-.41-1.59a23.11,23.11,0,0,1-.78-5.37c0-4.16,4.38-14.07,13.85-21.39l.08-.05c.06,0,.11-.08.19-.13l.27-.19a41,41,0,0,1,14.93-7,27.66,27.66,0,0,1,8.18-6.4c1.81-.94,4.19-2.11,6.89-3.32l.19-.11s.05,0,.08,0a.15.15,0,0,0,.11,0c12.82-5.91,33.34-13.82,45-12.23a0,0,0,0,0,0,0l0,0a12.71,12.71,0,0,1,4.13,1.16,6.35,6.35,0,0,1,2.08,1.76C239.2,10.09,240.12,32.47,235.24,54.07Z" style="fill:#844638;fill-rule:evenodd"/><path d="M164.22,118.78s11.93-12.3,18.16-3.42l-4.61,4.7s-6.9-2.73-13,.51Z" style="fill:#3b465c;fill-rule:evenodd"/><path d="M222.79,407.82l-10-10.89a25.68,25.68,0,0,1,13.37-5.05Z" style="fill:#8f4d55;fill-rule:evenodd"/><path d="M272.58,336S255,346,246.5,346.35a19.73,19.73,0,0,1-14-5.29l-44.44,11.39,11.23-6.59S110.4,363.81,98,365.52s-61.89-17.28-61.89-17.28l7.32,8.13H25.5l9,8.8,3.33,2,13.29,18v26l8.45-25.58s48.58-2.54,54.22,0l-3.09,29.2,6.43-29.2s54-6.1,61.38-9.6,12.32-8.33,19.81-7.3l19.2,16-12.8-15.86a45.09,45.09,0,0,1,21.44-7.15l-4-1S261.48,352,272.58,336Z" style="fill:#5b0036;opacity:0.42"/><polygon points="96.43 441.84 96.43 434.87 108.97 431.61 96.43 441.84" style="fill:#8f4d55;fill-rule:evenodd"/><path d="M36.79,420.67l-2,16.31,16.37-15.85A55.82,55.82,0,0,0,36.79,420.67Z" style="fill:#8f4d55;fill-rule:evenodd"/><path d="M245.28,36.9l.91,17,4.65-11.46S249,36.53,245.28,36.9Z" style="fill:#844638;fill-rule:evenodd"/><path d="M181.07,13.1s21.61,2.6,29.28,12.83.68,44.44-6.14,57.78-25.85,29-25.85,29a7.07,7.07,0,0,0-3.49-.44s29.43-23.53,34-47.11,3.55-32.11,0-38.58S190,14.76,181.07,13.1Z" style="fill:#fff;fill-rule:evenodd;opacity:0.5;mix-blend-mode:soft-light"/><path d="M182.1,12.63s23.38.43,34.21,11.85,5.89,40.71,5.89,40.71l5.28,2.44s7.11-28.82-6-43.49-38-12.28-38-12.28Z" style="fill:#fff;fill-rule:evenodd;opacity:0.5;mix-blend-mode:soft-light"/><path d="M257.45,80.09s9.94,5.53,12.66,10l-.76.85L264.74,88l3.92,3.75s-6.78,8.11-11.4,9.47l-4.45,1.87s5-15.82,4-23.09Z" style="fill:#844638;fill-rule:evenodd"/><path d="M222.15,360.63s-30.56,7.8-68.42,15.73-119.2,9.21-119.2,9.21-.25-14.32,3.33-18.42L43,366.9l21.74-4.61s30.44,7.42,35.05,7.93,61.39-13.81,61.39-13.81S208,355.64,222.15,360.63Z" style="fill:#60204a;fill-rule:evenodd"/><path d="M36.06,366.13s-7.67,5.5-8.69,7.44,7.16,12,7.16,12l-2,2.27S20.72,376.23,21.4,373.57s13.13-8.4,13.13-8.4Z" style="fill:#bc9d98;fill-rule:evenodd"/><path d="M165.5,356.37l3.7-3.92h8.06s4,13.94,1.28,23.53l-10.36,2.3-2.68-2,3.19-.51s5.5-9.84,1.54-20.84l-2.69,1.49Z" style="fill:#bc9d98;fill-rule:evenodd"/><path d="M182.1,12.63a38.84,38.84,0,0,0-3.73,2.67A99.64,99.64,0,0,0,160.8,33l0,.06c-1.67,2.16-3.29,4.45-4.86,6.94a65.41,65.41,0,0,0-7.29,17.2v0a.29.29,0,0,1,0,.14,110.84,110.84,0,0,0-3.7,26.27l-.75-4.4-.06-.36a73.06,73.06,0,0,1,1.35-19.76c2.6-12.12,7.62-18.71,8-19.25C142.6,45.65,138.9,58.12,138.9,58.12l-.41-1.59c4.19-12,15.23-18.44,15.23-18.44l10.51-12.66c-4.76-.6-11,3.29-12.4,4.16A40.93,40.93,0,0,1,167,22.35a27.66,27.66,0,0,1,8.18-6.4C177,15,179.4,13.84,182.1,12.63Z" style="fill:#5b0036;fill-rule:evenodd;opacity:0.42"/><path d="M235.24,54.07c-5.46,24-32.76,54.9-35.89,61.29s-17,0-17,0l-4.59,4.7s2.73,5.11,2.89,9.56c.05,1.73-1.54,4.37-3.54,7.16,0,0-3.83-10.58-9.84-13-14.53-5.77-27.28,13-27.28,13,2.83-7.75,16.74-16.72,24.73-16.2l-.51-1.79a45.32,45.32,0,0,0-8.7-2.32c-4.86-.75-7.26-.59-7.86-1.94s-.27-14.91-2.78-30.81v0l-.75-4.4-.06-.36a167.54,167.54,0,0,0-4-16.55l5.34-3.21,3.19-1.94v0a.29.29,0,0,1,0,.14c-.24,1.86-1.94,16.25,1.57,26.32l10.26-48.84c-1.16,6.29-4.78,26.84-3.62,36.58,0,0,26.6-12.28,36.67-32.4,0,0,2.4-11.5-15-23.73.89.3,12.47,4.72,20.92,24.08,0,0,13.77-11.44,12.21-20.3S195,10.17,182.48,12.44C184.18,12,208,6,214.77,18.6c0,0,15.39-13.42,12.66-18.39v0h0l0,0,6.21,2.92C239.2,10.09,240.12,32.47,235.24,54.07Z" style="fill:#5b0036;fill-rule:evenodd;opacity:0.49"/><path d="M214.85,93.58c-7.29,10.47-14,18.79-15.5,21.78-3.16,6.4-17,0-17,0l-.49.49c-.91-1.08-2.94-3.24-5-3.7,0,0,8.74-.68,11.69-3.35,7.27-6.58,16-14.66,20.44-32.56Z" style="fill:#900477;fill-rule:evenodd;opacity:0.4;mix-blend-mode:multiply"/><path d="M233.08,98.38a11.18,11.18,0,0,1-6.94,3.73,12.72,12.72,0,0,1-6.16-.84,23.88,23.88,0,0,1-9.56-12.58,32.38,32.38,0,0,1-.86-16.36s5.75-7.27,11.42-7.13a10.85,10.85,0,0,1,5,1.46A18.68,18.68,0,0,1,231,70.92S236,85.42,233.08,98.38Z" style="fill:url(#Áåçûìÿííûé_ãðàäèåíò_24)"/><path d="M233.08,98.38a11.18,11.18,0,0,1-6.94,3.73,12.72,12.72,0,0,1-6.16-.84,23.88,23.88,0,0,1-9.56-12.58c2.49,1,7.91-2,7.91-2s-2.45-8.88-1-11.69,8-4.94,8.53-5.77a4.8,4.8,0,0,0,0-2.62H226A18.68,18.68,0,0,1,231,70.92S236,85.42,233.08,98.38Z" style="fill:#952a5c;opacity:0.42"/><path d="M231.66,76.16s-4.68-3.87-8-3.83a6.42,6.42,0,0,0-6,3.91c-.46,1.57.35,11.55,2.18,15.86s6.82,5.62,6.82,5.62A15.59,15.59,0,0,1,221,91.55c-2.05-4.14-1.45-12.5-1-13.65s3.41-2.64,4.18-2.47,2.13,2.3,2.13,2.72-2,2.78-2.64,4.57a9.91,9.91,0,0,0,.93,7.12c1.2,2,5.72,2,6.44,1.36S233.58,80.16,231.66,76.16Z" style="fill:#5b0036;opacity:0.49"/><path d="M232.43,62.9s-5.54,21.61-12.71,33.5a38.26,38.26,0,0,1-18.34,15.74l-2,3.22s20.38-8,28.82-23.31,9.16-49.59,9.16-49.59Z" style="fill:#612234;fill-rule:evenodd"/><path d="M238.31,21.83s5.8,71.63-5.46,102a223.18,223.18,0,0,0,3.48-40.1A392.92,392.92,0,0,0,234,42.46Z" style="fill:#612234;fill-rule:evenodd"/><path d="M166.69,119.46s-20.63,12.55-21,20.47,21.92,15.17,23.37,16.79.11,4.27.11,4.27,1.84-3.5.56-5.2-19.69-7.77-21.31-17.14S170.2,119,170.2,119Z" style="fill:#fff;fill-rule:evenodd;opacity:0.5;mix-blend-mode:soft-light"/><path d="M171.89,119s-15.18,13.77-15,21.74,14,13.3,15,16.63-5.85,5.94-5.85,5.94,6.27-1.76,7.9-4.92-13.22-12-12.71-20.12,12.07-19.23,12.07-19.23Z" style="fill:#fff;fill-rule:evenodd;opacity:0.5;mix-blend-mode:soft-light"/><path d="M176.89,157.78c.38,1.89-3.86,4-7.62,6.08l-2.51-.89a8.8,8.8,0,0,0,2.43-2c4.11-5-23.27-10.36-28.75-18.41,23.92,7.29,34.34-2.65,34.34-2.65l0,0c-2.48,3.27-4.78,6.29-4.7,7.72C170.27,150.76,176.24,154.6,176.89,157.78Z" style="fill:#5b0036;fill-rule:evenodd;opacity:0.42"/><path d="M255.32,60.88s3.89,6.34,7.78,5.72A47.9,47.9,0,0,0,255.32,60.88Z" style="fill:#ffc483;fill-rule:evenodd"/><path d="M266.29,72.33l-5,2.32-4.67,4.26.17,1.09S265.27,74.64,266.29,72.33Z" style="fill:#5b0036;fill-rule:evenodd;opacity:0.42"/><path d="M286.4,207.89l-28.95,8.86-47,63.26s37-37.14,46.17-39.2l-18.93,51,28.63-43.47,7.22-9.44Z" style="fill:#5b0036;opacity:0.53"/><path d="M345.06,124.44s17.36-9.25,22.13-9.7,31.07,25.83,31.07,25.83-19.18-14.46-26.6-16.53S345.06,124.44,345.06,124.44Z" style="fill:#5b0036;fill-rule:evenodd;opacity:0.42"/><path d="M345.85,133.54s32.21,11.55,42,14.83S409,155.1,409,155.1L396,140.93Z" style="fill:#5b0036;fill-rule:evenodd;opacity:0.2"/><path d="M422.37,168.58c-4.34,5.64-22.06,14.15-22.06,14.15-38.26,19.12-94.87,24-110,25l-2.64.16-1.22,0-28.94,8.86,28.94-11,85.27-23.54L303.87,176s51.92.83,71.41,0S422.37,168.58,422.37,168.58Z" style="fill:#5b0036;fill-rule:evenodd;opacity:0.2"/><polygon points="36.08 348.24 70.68 306.28 46.13 326.4 36.08 348.24" style="fill:#5b0036;opacity:0.42"/><path d="M386.89,296.94s-2.29,1.84-9.26,1.51h-.1a53.48,53.48,0,0,1-9.45-1.38l-2.57,1.46s-8.91.3-16.17.14a154.1,154.1,0,0,0-16.31.38c-1.7.27-11.29-1.54-11.29-1.54l0-.3c1.73-3,4.54-9.8,3.32-19.68l41.45-1.7,1,.45C372.56,279.23,386.76,294.7,386.89,296.94Z" style="fill:#5b0036;fill-rule:evenodd;opacity:0.42"/><path d="M377.63,298.45h-.1a53.48,53.48,0,0,1-9.45-1.38l-2.57,1.46s2.7-10.47-.89-12-23.41,0-23.41,0l-5.29-2.43,5.51,1.62s22.08-2.16,24.16.81C368.43,290.59,377.63,298.45,377.63,298.45Z" style="fill:#5b0036;fill-rule:evenodd;opacity:0.42"/><path d="M362.65,289.27s-5.63.06-7,2.87,3.26,4.82,7.55,5.06C363.16,297.2,364.44,292.08,362.65,289.27Z" style="fill:#ffb89a;fill-rule:evenodd;mix-blend-mode:soft-light"/><g style="opacity:0.31"><path d="M122.74,294.88c-.65.78-1.51,1.5-1.46,2.59a4.78,4.78,0,0,0,1.43,2.75c1.08,1.11,3.53,2.77,5.05,3,4.14.52,7-4.57,7.29-8.08.15-2.22-.87-5.36-3.39-5.87-1.71-.34-3.09.53-4.48,1.35a15.94,15.94,0,0,0-2.92,1.83,10.26,10.26,0,0,0-2.31,3.92Z" style="fill:#29354d;fill-rule:evenodd"/><path d="M127.29,306.32a1.11,1.11,0,0,1-.78,0,5.31,5.31,0,0,1,1.32-.62c.45-.14,1-.38,1.32.09a2.22,2.22,0,0,1,.37,1.37,1.61,1.61,0,0,1-.72,1,1.35,1.35,0,0,1-1.67.17c-.74-.49-1-1.39-.18-1.95Z" style="fill:#29354d;fill-rule:evenodd"/><path d="M119.22,309.45c-.25.3-.38.4-.33.76s.19.47.55.55a2.15,2.15,0,0,0,2.47-.94,1,1,0,0,0-.73-1.53,1.81,1.81,0,0,0-.92.12,4.08,4.08,0,0,0-.89.87Z" style="fill:#29354d;fill-rule:evenodd"/><path d="M136.94,278.69c-.31.07-.62.16-.92.26l-.66.64a20.34,20.34,0,0,0-2.78,3.55,11.1,11.1,0,0,0-1.35,2.95,2.09,2.09,0,0,0,.09,1.63c.38.48,1.25.28,1.73.15a10.68,10.68,0,0,0,2.64-1.15c.43-.27.81-.61,1.27-.84s.64-.28.95-.44.68-.46,1-.71a16.08,16.08,0,0,0,3.79-4.18,7.06,7.06,0,0,0,1.1-2.83,3,3,0,0,0-.09-1.79c-.67-1.07-2.76-.89-3.73-.58a5.14,5.14,0,0,0-1.94,1.42C137.14,277.73,136.43,278.79,136.94,278.69Z" style="fill:#29354d;fill-rule:evenodd"/><path d="M65.58,325.44l-.68.19-.48.47a14.78,14.78,0,0,0-2,2.61,8.14,8.14,0,0,0-1,2.16,1.58,1.58,0,0,0,.06,1.19c.29.35.92.2,1.27.11a7.29,7.29,0,0,0,1.94-.85c.32-.19.6-.44.93-.61l.7-.32c.25-.17.5-.34.74-.52a11.64,11.64,0,0,0,2.78-3.07,5.1,5.1,0,0,0,.81-2.07,2.25,2.25,0,0,0-.07-1.31c-.49-.79-2-.65-2.74-.42a3.64,3.64,0,0,0-1.42,1C65.72,324.74,65.2,325.52,65.58,325.44Z" style="fill:#29354d;fill-rule:evenodd"/><path d="M135.06,288.9a1,1,0,0,1,.4-.72c.3-.23.63-.44,1-.28.68.27.45,1.29.09,1.74s-.58.66-1.08.5-.33-.73-.23-1.1Z" style="fill:#29354d;fill-rule:evenodd"/><path d="M321.1,160.89a9.47,9.47,0,0,0-3.67-.88,6.68,6.68,0,0,0-3.14,1c-1.13.76-2.62,2.44-2.48,3.46.39,2.77,7.62,4.53,12.15,4.57,2.87,0,6.61-.75,6.6-2.44,0-1.15-1.47-2-2.86-2.93a20.79,20.79,0,0,0-3.09-1.89,24.56,24.56,0,0,0-5.57-1.4Z" style="fill:#29354d;fill-rule:evenodd"/><path d="M307.7,164.3c-.21-.18-.29-.35-.25-.52a5.09,5.09,0,0,1,1.12.86c.31.29.74.64.23.88a4.11,4.11,0,0,1-1.64.29,3.48,3.48,0,0,1-1.49-.45c-.64-.32-1-.7-.65-1.1a2.05,2.05,0,0,1,2.44-.19Z" style="fill:#29354d;fill-rule:evenodd"/><path d="M301.65,159a2,2,0,0,0-1.06-.2c-.45,0-.54.15-.55.39,0,.63.55,1.34,1.83,1.61.95.2,1.86,0,1.76-.54a1,1,0,0,0-.39-.6,7.71,7.71,0,0,0-1.33-.57Z" style="fill:#29354d;fill-rule:evenodd"/><path d="M345.35,169.8c-.17-.2-.36-.4-.56-.6l-1-.42a42.9,42.9,0,0,0-5.24-1.73,27.28,27.28,0,0,0-4.1-.8,4.75,4.75,0,0,0-2,.11c-.51.27,0,.84.25,1.16a11,11,0,0,0,2.15,1.71c.45.28,1,.53,1.4.82.25.21.52.42.8.62s.76.44,1.16.65a31.51,31.51,0,0,0,6.3,2.38,17.58,17.58,0,0,0,3.87.64,6.94,6.94,0,0,0,2.26-.12c1.19-.48.43-1.87-.22-2.5a7.24,7.24,0,0,0-2.3-1.24C346.62,169.9,345.08,169.46,345.35,169.8Z" style="fill:#29354d;fill-rule:evenodd"/><path d="M331.88,168.89a2.26,2.26,0,0,1,1,.24c.36.19.7.4.6.65-.18.46-1.52.34-2.19.11s-1-.35-.92-.69.85-.25,1.34-.2Z" style="fill:#29354d;fill-rule:evenodd"/><path d="M104,274.87c-.19.23-.48.43-.49.74a1.09,1.09,0,0,0,.56.93,1.61,1.61,0,0,0,2-.43c.32-.44.62-1.22.2-1.71a1.39,1.39,0,0,0-.79-.29c-.58,0-1,.44-1.4.79Z" style="fill:#29354d;fill-rule:evenodd"/><path d="M93.07,258.66a17.73,17.73,0,0,0-1.54,5.25,8.46,8.46,0,0,0,.1,3.4c.16.49.35,1,.93,1.11a2.82,2.82,0,0,0,1.78-.5,5.69,5.69,0,0,0,1.13-1.06,28.89,28.89,0,0,0,2.26-3.24,19.93,19.93,0,0,0,1-1.88,12.63,12.63,0,0,0,1.22-2.86c.3-1.41.11-3.37-1.27-4.2a3.13,3.13,0,0,0-3.44.39,7.41,7.41,0,0,0-1.67,2.17,13.76,13.76,0,0,0-1,2.39,7.64,7.64,0,0,0-.37,2.64Z" style="fill:#29354d;fill-rule:evenodd"/><path d="M89.48,269.89a2.4,2.4,0,0,1-.53-.7,3,3,0,0,1-.07-.73,2.1,2.1,0,0,1,.25-1.41.8.8,0,0,1,.74-.39c.29,0,.53.46.68.69a2.88,2.88,0,0,1,.21,2,.73.73,0,0,1-.27.48c-.16.11-.46.14-.55.28Z" style="fill:#29354d;fill-rule:evenodd"/><path d="M92.88,276.46c-.2-.21-.68-.5-.62-.86a1.73,1.73,0,0,1,.38-.64.64.64,0,0,1,1.09.13,1.32,1.32,0,0,1,.08,1.33c-.12.23-.57.58-.76.19Z" style="fill:#29354d;fill-rule:evenodd"/><path d="M146.67,277.57a48.92,48.92,0,0,0-10.76,8.68c-.76.86-1.07,2.5-1.44,3.61-.53,1.55-.65,3.09-1.67,4.41-1.3,1.67-2.48,3.42-3.69,5.15-1.59,2.25-2.38,4.86-3.6,7.29-.9,1.78-2.29,5.16-1.43,7.1a3.71,3.71,0,0,1,.42,1.83c0,1.55-.48,3.68.68,4.88,1.82,1.87,4.27,1.33,6.59,1.13,1.4-.12,2.78-.16,4.17-.41a16.42,16.42,0,0,0,3.6-1.28,28.33,28.33,0,0,0,5.14-2.33,43.66,43.66,0,0,0,3.88-2.87c2-1.67,3.22-3.87,5.61-5.13,3.32-1.75,7.12-2.81,10.13-5.1a9.53,9.53,0,0,0,3.32-4.07,22,22,0,0,0,1-5.82A24.94,24.94,0,0,0,165.19,280a14.47,14.47,0,0,0-8.11-6c-1.46-.5-3.1-1.15-4.67-.78A9.85,9.85,0,0,0,146.67,277.57Z" style="fill:#29354d;fill-rule:evenodd;opacity:0.5"/><path d="M153.83,317.13c-1,.37-3,.52-3.34,1.7-.17.58,0,.91.59,1.05a3.81,3.81,0,0,0,3.08-.87c.57-.49,1.42-1.13,1-2-.5-1.08-1.4-.32-2,.14Z" style="fill:#29354d;fill-rule:evenodd"/><path d="M160,260.52c.47-.42,1.24-1.48,2-1.31.44.11.92.9,1,1.31a3,3,0,0,1-.18,2,3.27,3.27,0,0,1-.94,1.61c-3,2.53-3.61-3.44-2.22-3.58Z" style="fill:#29354d;fill-rule:evenodd"/></g><path d="M423.05,165.26c-1.43-10.93-21.33-45.85-21.33-45.85s-9.45-28.56-16.61-32.18l0,0c-2.22-1.11-5.85-.09-9.81,1.84l-6.93-10.75-8.89-1.72s-6.91-5.27-8-5.7-6.53-1-9.33-.12a184,184,0,0,0-15-19,91.36,91.36,0,0,0-37.41,26h0s-5-1.69-7.77,1.18-2.22,7.82-2.22,7.82-12.58,7.45-11.81,10.8,12.66,6.73,12.66,6.74l0,0-.45.42,1.11,1.94c-3.43-2.2-6.51-3.9-8.7-4.43s-8,.26-15.49,1.69c.06-.82.11-1.72.15-2.68h0c4.62-1.36,11.4-9.47,11.4-9.47L264.74,88l4.61,2.9.76-.85c-2.72-4.44-12.66-10-12.66-10l-.68-.09c0,.29.06.61.08.93,0-.32-.06-.62-.1-.94h0a45,45,0,0,0,7.52-5.44l.22-.19L265,74a.3.3,0,0,1,.08-.08c.78-.75,1.27-1.33,1.23-1.54a16.17,16.17,0,0,0-3.19-5.73,15.22,15.22,0,0,0-1.27-1.27,74,74,0,0,0-6.44-4.41l-.07,0h0c-4.19-2.66-8.76-5.4-9.21-5.67l.09-1.34,4.63-11.41s-1.83-5.93-5.56-5.56h0v0l-1.51-2-5.12-8.14c-.19-3.12-.34-4.91-.34-4.91v.05c-.41-8.58-2-15.43-4.6-18.75a6.35,6.35,0,0,0-2.08-1.76A12.71,12.71,0,0,0,227.49.21l0,0h0v0C216.21-1.33,196.7,6,183.82,11.83l-.42,0-1,.61h0l0,0-.23.14-1,.47h0c-2.27,1-4.28,2-5.86,2.85a27.66,27.66,0,0,0-8.18,6.4,44.36,44.36,0,0,0-4.27,1.29c-.91.33-1.75.72-2.61,1.1-.43.19-.9.35-1.32.56-.91.44-1.75.93-2.6,1.41-.32.19-.66.35-1,.53-1,.61-1.92,1.26-2.82,1.92-.11.08-.24.15-.35.24l-.27.19c-.08.05-.13.1-.19.13l-.08.05c-9.47,7.32-13.85,17.23-13.85,21.39a23.11,23.11,0,0,0,.78,5.37l.41,1.59c.35,1.3.76,2.7,1.19,4.24a167.54,167.54,0,0,1,4,16.55l.06.36.75,4.4v0c2.51,15.9,2.22,29.48,2.78,30.81s3,1.19,7.86,1.94a48.36,48.36,0,0,1,6.09,1.43c-6.77,2.35-12.89,6.19-17,12.31,0,0-16.3,7.24-30.29,14.75-1.7.89-3.4,1.91-5.18,3l-.44.25-.27.16c-12.52,7.69-25.62,18.39-27.7,21.33-2.37,3.4-12.45,39.2-15.52,75.19-1.27,14.8-2.54,26.71-3.84,36v0L56,305.53a.18.18,0,0,0,0,.08c-2.89,5.77-26.95,28.64-32,47.06a11.59,11.59,0,0,0,1.54,3.7l6.29,10.12c-3.7,1.86-9.91,5.22-10.39,7.08-.68,2.66,11.17,14.26,11.17,14.26l2-2.26s-8.18-10.06-7.16-12c.8-1.51,5.61-5.17,7.7-6.72l2.77.3h0c-3.57,4.1-3.32,18.41-3.32,18.41h0s-24,27-34.48,48.74l-.06.11s5.63,4.66,25.07,12.31h0c-.38,4-.54,7.08-.25,7.91,1,2.8,9.59,8.29,21.23,9.31s78.27-1.4,107.16-1.13,231.15-1.9,231.15-1.9a29.56,29.56,0,0,0,5.15-14.36c.79-9.69-2.91-18.84-4.8-21.08-2.81-3.35-44.77-33.27-80.33-39.91-20.74-3.9-34.56-7.13-42.46-9.14.08-.28.14-.46.14-.46l0-.06-3.17-12.34s-17.41,1.37-32.64-1.92h0l-4-1h0c.62-.12,22.79-4.29,39.09-14.81,4.71-2.89,8.76-6.18,11.31-9.87,0,0-1.74-17.77-3.22-36.16H320a22.46,22.46,0,0,0,1.76-2.35v.06s9.59,1.81,11.29,1.54a154.1,154.1,0,0,1,16.31-.38c7.26.16,16.17-.14,16.17-.14l2.57-1.46q1.37.31,2.61.54c.83.16,1.61.29,2.36.4h0c.68.1,1.31.17,1.93.24l.26,0,1.29.1.81.06h.43c.73,0,1.4,0,2,0h.36c.63,0,1.21-.06,1.74-.11l.42-.05,1-.15.45-.09c.36-.07.69-.15,1-.23l.34-.11.51-.17.28-.11.45-.2.16-.09.21-.12.08-.05.07-.05c-.13-2.24-14.33-17.71-19.33-20.66a3.38,3.38,0,0,0-1-.45c-3.56-.76-42-1.78-42.19-1.79a33.83,33.83,0,0,0-1.45-4.42h-5.21l-.16-.22c-.4-.57-1.59-2.21-3.21-4.35-1.73-2.29-3.94-5.13-6.16-7.72-3.26-3.83-6.56-7.13-8.37-7.42-4.43-.68-21.06,3.42-22.35,3.24s-7.05-4.84-7.05-4.84h0c.92-3.07,2-6.27,3.13-9.46l12.89-31,1.22,0,2.64-.16,2.83-.2h0l1.66-.13.8-.06.16,0c7.67-.61,19.46-1.8,33-4l.4-.06c1.12-.18,2.26-.36,3.4-.56l.56-.09,3.43-.6.42-.07c3.62-.65,7.33-1.37,11.08-2.17l.64-.13,2.89-.64,1.54-.34,2.64-.61,1.84-.45,2.52-.62,2-.51,2.41-.63,2.22-.62,2.2-.61,3.09-.92,2.56-.79,3-1,1.78-.6,2.6-.9,1.83-.66,2.5-.94,1.8-.7,2.51-1,1.68-.7c.91-.38,1.8-.78,2.7-1.18l1.38-.62c1.35-.62,2.67-1.25,4-1.9,0,0,17.72-8.51,22.06-14.15.16-.24.33-.46.46-.67A4.33,4.33,0,0,0,423.05,165.26Zm-223.7-49.9,1.15.4-1.29-.19C199.25,115.5,199.31,115.44,199.35,115.36Z" style="fill:#700123;fill-rule:evenodd;opacity:0.31"/><g style="mix-blend-mode:screen"><path d="M368.34,78.29l-8.88-1.73s-6.91-5.26-8-5.69-6.53-1-9.31-.11c0,0,10,4.83,19.76,8.48a29,29,0,0,1,12.74,8.85Zm-78.59-.57a11.32,11.32,0,0,0-3.22-.48A6.23,6.23,0,0,0,282,78.91c-2.81,2.86-2.21,7.83-2.21,7.83s-12.59,7.43-11.83,10.78,12.66,6.75,12.66,6.75l0,0-.43.41,6.64-.43,13.85-20.55c17.79-12.61,26.49-31.94,26.49-31.94A91.13,91.13,0,0,0,289.75,77.72ZM264.74,88l4.59,2.89.79-.86c-1.73-2.84-6.4-6.08-9.56-8.08.94,3.68-3.3,19.25-3.3,19.25,4.62-1.35,11.4-9.45,11.4-9.45Zm1.54-15.69a16,16,0,0,0-3.18-5.72,15.22,15.22,0,0,0-1.27-1.27,70.18,70.18,0,0,0-6.43-4.4.35.35,0,0,0-.08,0c-2.11-1.33-4.27-2.68-6-3.73s-3-1.81-3.22-1.94l-.1,2.24C260.75,64.39,266.28,72.32,266.28,72.32ZM250.84,42.46s-1.84-5.94-5.56-5.56l.83,18.31.11-1.35ZM227.46.18h0v0C216.22-1.33,196.7,6,183.82,11.82l-.43,0-1,.6,0,0-.24.14-1,.48c-2.27,1-4.29,2-5.86,2.84a27.66,27.66,0,0,0-8.18,6.4c-1.48.38-2.92.81-4.27,1.29-.91.33-1.75.73-2.61,1.11-.44.19-.9.35-1.33.54-.89.43-1.75.95-2.59,1.43-.32.16-.65.33-1,.51-1,.63-1.92,1.27-2.81,1.92l-.35.24a2.33,2.33,0,0,1-.27.19l-.19.14-.08.05c-9.48,7.32-13.85,17.23-13.85,21.39a23.19,23.19,0,0,0,.78,5.37l.41,1.59c.35,1.3.75,2.7,1.18,4.24a164.32,164.32,0,0,1,4,16.55l0,.35.76,4.4v.06c.92,5.94,1.49,11.61,1.84,16.39.05-1.46.59-14.66,2.29-31.73,1.81-18.09,15.2-36,15.2-36s7.48-8.2,30.4-19.73S229,.94,229,.94l1-.19a12.26,12.26,0,0,0-2.51-.54ZM114.33,145c-1.7.9-3.41,1.92-5.19,3-.19.11-.32.19-.43.24l-.27.17c-12.53,7.69-25.62,18.38-27.7,21.33-2.38,3.4-12.45,39.2-15.53,75.19-1.27,14.8-2.53,26.7-3.83,36v0L56,305.52a.32.32,0,0,0,0,.08c-2.89,5.78-26.95,28.65-32,47.07a11.3,11.3,0,0,0,1.54,3.69l0,.06,17.93-.06-7.32-8.12,10-21.85,20.74-17,2.65-33.32,4.13-16.25s16.55-63.86,27-79.27,24.79-39.37,24.79-39.37l-2.67-.65C120,142,117.11,143.47,114.33,145ZM31.92,387.2l.65.65c-2.35,2.75-6.56,7.77-11.34,14C13.94,411.28,5.3,423.46.06,434.31c0,.06,0,.08,0,.11l43-49.06-8.43.22Z" style="fill:#ffb864;fill-rule:evenodd;opacity:0.35000000000000003"/><path d="M269.33,90.9,264.74,88l3.92,3.75s-6.78,8.1-11.4,9.45c0,0,4.24-15.57,3.3-19.25,3.16,2,7.83,5.24,9.56,8.08Z" style="fill:#ffb864;fill-rule:evenodd"/><path d="M327.17,51.78s-8.7,19.33-26.49,31.94l-13.85,20.55-6.64.43.43-.41,0,0s-11.88-3.41-12.66-6.75,11.83-10.78,11.83-10.78-.6-5,2.21-7.83a6.23,6.23,0,0,1,4.56-1.67,11.32,11.32,0,0,1,3.22.48A91.13,91.13,0,0,1,327.17,51.78Z" style="fill:#ffb864;fill-rule:evenodd"/><path d="M266.28,72.32S260.75,64.39,246,57.45l.1-2.24c.25.13,1.49.89,3.22,1.94s3.88,2.4,6,3.73a.35.35,0,0,1,.08,0,70.18,70.18,0,0,1,6.43,4.4,15.22,15.22,0,0,1,1.27,1.27A16,16,0,0,1,266.28,72.32Z" style="fill:#ffb864;fill-rule:evenodd"/><path d="M374.63,88.09a29,29,0,0,0-12.74-8.85c-9.75-3.65-19.76-8.48-19.76-8.48,2.78-.92,8.26-.3,9.31.11s8,5.69,8,5.69l8.88,1.73Z" style="fill:#ffb864;fill-rule:evenodd"/><path d="M230,.75l-1,.19s-11.5.16-34.4,11.69-30.4,19.73-30.4,19.73-28.13,8.09-23,25.54c5.92,20.34,5.6,40.75,5.55,42.21-.35-4.78-.92-10.45-1.84-16.39v-.06l-.76-4.4,0-.35a164.32,164.32,0,0,0-4-16.55c-.43-1.54-.83-2.94-1.18-4.24l-.41-1.59a23.19,23.19,0,0,1-.78-5.37c0-4.16,4.37-14.07,13.85-21.39l.08-.05.19-.14a2.33,2.33,0,0,0,.27-.19l.35-.24c.89-.65,1.84-1.29,2.81-1.92.32-.18.65-.35,1-.51.84-.48,1.7-1,2.59-1.43.43-.19.89-.35,1.33-.54.86-.38,1.7-.78,2.61-1.11,1.35-.48,2.79-.91,4.27-1.29a27.66,27.66,0,0,1,8.18-6.4c1.57-.81,3.59-1.81,5.86-2.84l1-.48.24-.14,0,0,1-.6.43,0C196.7,6,216.22-1.33,227.43.21v0h0l0,0A12.26,12.26,0,0,1,230,.75Z" style="fill:#ffb864;fill-rule:evenodd"/><path d="M125.45,141.2s-14.31,23.92-24.79,39.37-27,79.27-27,79.27l-4.13,16.25-2.65,33.32-20.74,17-10,21.85,7.32,8.12-17.93.06,0-.06A11.3,11.3,0,0,1,24,352.67c5.1-18.42,29.16-41.29,32.05-47.07a.32.32,0,0,1,0-.08l5.35-24.59v0c1.3-9.32,2.56-21.22,3.83-36,3.08-36,13.15-71.79,15.53-75.19,2.08-2.95,15.17-13.64,27.7-21.33l.27-.17c.11-.05.24-.13.43-.24,1.78-1.08,3.49-2.1,5.19-3,2.78-1.48,5.64-3,8.45-4.4Z" style="fill:#ffb864;fill-rule:evenodd"/><path d="M43,385.36,0,434.42s0-.05,0-.11c5.24-10.85,13.88-23,21.17-32.5,4.78-6.19,9-11.21,11.34-14l-.65-.65,2.62-1.62Z" style="fill:#ffb864;fill-rule:evenodd"/><path d="M310.3,124.32s22.63,6.28,39.69,10,50.25,7.39,50.25,7.39S378,126.4,372.77,124.57,310.3,124.32,310.3,124.32Z" style="fill:#ffb864;fill-rule:evenodd"/><path d="M277.44,253.15l10.66,8,23.7,3.86,7,10.78,6.33,1.7,41.45-1.7s-27.87-1.5-42.17-1.69l-1.47-4.52-5.28,0s-12.51-17.86-17.83-19.69S277.44,253.15,277.44,253.15Z" style="fill:#ffb864;fill-rule:evenodd"/><path d="M139.8,137.4s13.52-15.82,24.94-16.82C164.74,120.58,149.45,117.45,139.8,137.4Z" style="fill:#ffb864;fill-rule:evenodd"/><path d="M21.4,373.57l12.32-6.47-.47-1.33S23.44,369.72,21.4,373.57Z" style="fill:#ffb864;fill-rule:evenodd"/><polygon points="308.4 82.2 315.22 82.2 327.15 71.46 320.85 70.26 308.4 82.2" style="fill:#ffb864;fill-rule:evenodd"/></g><path d="M749.88,285.15c.4,1.94-3.89,6.5-11.26,10.61a63,63,0,0,1-32.59,7.8,73.09,73.09,0,0,1-15.5-2.43,113.5,113.5,0,0,1-32.75-15l22.68.92s10.31-5.64,27.54-9a.3.3,0,0,0,.16,0l3.19-.57C730.6,274.32,749,281,749.88,285.15Z" style="fill:#e4be99;fill-rule:evenodd"/><path d="M711.32,300.32s-8.29.43-20.79.81c-27.46.84-75.3,1.38-100.63-3.54,0,0,6.48-48.44,20.14-65.15a160.06,160.06,0,0,1,37.86,0s29.37-9.39,37.31-8.07a2.06,2.06,0,0,1,.38,0C690.85,225.66,702.3,255,708,278.1c.3,1.19.57,2.35.84,3.51q.72,3.28,1.29,6.29A58.69,58.69,0,0,1,711.32,300.32Z" style="fill:#daa572;fill-rule:evenodd"/><path d="M651.68,289.68s57.94,7.91,56.91-9.11l4,19.91a67.36,67.36,0,0,1-19.9,1.19S676.84,300.75,651.68,289.68Z" style="fill:#772a52;fill-rule:evenodd"/><path d="M738.62,295.76a63,63,0,0,1-32.59,7.8,73.09,73.09,0,0,1-15.5-2.43c-27.46.84-75.3,1.38-100.63-3.54,0,0,6.48-48.44,20.14-65.15,10.91,3.16,58.4,5.94,58.4,5.94l-20.54-5.94,21.57,3.24,12.66-5.88,3.08-5.43a2.06,2.06,0,0,1,.38,0C690.85,225.66,702.3,255,708,278.1a.3.3,0,0,0,.16,0l.68,3.54,1.16,6.26.13,0Z" style="fill:#9a044f;opacity:0.4;mix-blend-mode:multiply"/><path d="M564.58,284s23.46-10,53.64-7.32,42.07,18.67,77.23,25.59Z" style="fill:#e4a890;fill-rule:evenodd"/><path d="M562.91,306s-15.87-4.74-12.56-13.47c3.07-8.11,49.79-23.28,88.33-7.93,25.25,10.05,52.51,20,75.37,18.7C714.05,303.33,639.82,308.16,562.91,306Z" style="fill:#a15551;fill-rule:evenodd"/></g></g></g></svg>