<svg xmlns="http://www.w3.org/2000/svg" xmlns:xlink="http://www.w3.org/1999/xlink" viewBox="0 0 423.25 511.76"><defs><linearGradient id="Áåçûìÿííûé_ãðàäèåíò_32" x1="267.91" y1="73.78" x2="315.22" y2="73.78" gradientUnits="userSpaceOnUse"><stop offset="0.03" stop-color="#ffc4a4"/><stop offset="1" stop-color="#ffd8bb"/></linearGradient><linearGradient id="Áåçûìÿííûé_ãðàäèåíò_24" x1="205.7" y1="83.84" x2="230.76" y2="83.84" gradientTransform="translate(-0.12 0.33)" gradientUnits="userSpaceOnUse"><stop offset="0" stop-color="#ff614a"/><stop offset="0.98" stop-color="#ff905e"/></linearGradient><linearGradient id="Áåçûìÿííûé_ãðàäèåíò_24-2" x1="207.87" y1="76.48" x2="232.93" y2="76.48" gradientTransform="translate(27.19 -46.08) rotate(14.12)" xlink:href="#Áåçûìÿííûé_ãðàäèåíò_24"/></defs><g style="isolation:isolate"><g id="Calque_2" data-name="Calque 2"><g id="layer1"><path d="M379.83,481.82l-5.26,28.58-65.28,1.36s-.3-15.06.14-29.94Z" style="fill:#3a1a33;fill-rule:evenodd"/><path d="M235.24,481.82l-9.62,29.94H169.19s-.3-15.06.14-29.94Z" style="fill:#3a1a33;fill-rule:evenodd"/><path d="M0,422.46s5.63,4.67,25.07,12.31,154,1.76,188.26-9.24S262.06,364,262.06,364l-4.57-11.64L110.59,395.3h-75S2.64,416.92,0,422.46Z" style="fill:#67363f;fill-rule:evenodd"/><path d="M389.51,434.61A29.56,29.56,0,0,1,384.36,449s-202.23,2.14-231.15,1.89S57.68,453,46.05,452s-20.23-6.51-21.23-9.32S28.25,410,28.25,410,162.63,355.39,253.6,362.2c0,0,2.56.81,8,2.21,7.86,2,21.76,5.27,42.74,9.21,35.56,6.64,77.52,36.56,80.33,39.9C386.6,415.76,390.3,424.92,389.51,434.61Z" style="fill:#3b465c;fill-rule:evenodd"/><path d="M389.51,434.61A29.56,29.56,0,0,1,384.36,449s-202.23,2.14-231.15,1.89S57.68,453,46.05,452s-20.23-6.51-21.23-9.32S28.25,410,28.25,410,162.63,355.39,253.6,362.2c0,0,2.56.81,8,2.21-2.89,2.89-20.79,21.22-21.11,30.89,0,0,88.67,18,123.47,24.35L251.79,408.39s111.37,28.52,137.7,26.11Z" style="fill:#450036;opacity:0.42"/><path d="M386.89,285s-4.29,3.4-18.81.13l-2.57,1.46s-8.91.3-16.17.13a157,157,0,0,0-16.31.38c-1.7.27-11.29-1.54-11.29-1.54l0-.29,2.57-23.17s38.63,1,42.2,1.78a3.73,3.73,0,0,1,1,.46C372.56,267.26,386.76,282.74,386.89,285Z" style="fill:#ff8e65"/><path d="M325.25,276.5A22.75,22.75,0,0,1,320,287.84H269.36s-13.31-37.32,1-51.49c0,0,5.78,4.67,7.05,4.83s17.92-3.91,22.35-3.24c1.81.3,5.11,3.59,8.37,7.43,2.22,2.59,4.43,5.42,6.16,7.72,1.62,2.13,2.81,3.78,3.21,4.35l.16.21h5.21S326.85,266.81,325.25,276.5Z" style="fill:#bc9d98;fill-rule:evenodd"/><polygon points="314.32 253.09 314.13 253.06 308.16 245.37 314.32 253.09" style="fill:#5b0036;opacity:0.42"/><path d="M325.25,276.5A22.75,22.75,0,0,1,320,287.84H269.36s-13.31-37.32,1-51.49c0,0,5.78,4.67,7.05,4.83l11.09,8.37,25.6,3.51,3.4,4.38.16.21s3.19,15.42,1.79,23.87c0,0,3.91.22,5.72-4.94C325.2,276.55,325.23,276.53,325.25,276.5Z" style="fill:#5b0036;opacity:0.42"/><path d="M270.39,236.35l31.95,51.49h-33S263.12,251.93,270.39,236.35Z" style="fill:#5b0036;fill-rule:evenodd;opacity:0.42"/><path d="M276.51,85.56s29.41-13.4,50.64-45.76c0,0,27.8,29.59,41.1,70a51.07,51.07,0,0,1-30.83,26.61S297.48,123.45,276.51,85.56Z" style="fill:#813f2b;fill-rule:evenodd"/><path d="M276.51,85.56s14-32.33,50.64-45.76C327.15,39.8,312.83,71.47,276.51,85.56Z" style="fill:#cb734f;fill-rule:evenodd"/><polygon points="308.4 70.24 315.22 70.24 327.15 59.5 320.85 58.3 308.4 70.24" style="fill:#cb734f;fill-rule:evenodd"/><polygon points="308.4 70.24 298.63 75.22 280.18 92.75 288.58 107.52 319.74 127.96 364.58 119.54 308.4 70.24" style="fill:#5b0036;fill-rule:evenodd;opacity:0.42"/><polygon points="327.15 59.5 345.06 80.98 343.78 93.9 338.32 97.69 315.22 70.24 327.15 59.5" style="fill:#9a5239;fill-rule:evenodd"/><polygon points="308.4 70.24 311.55 73.69 331.67 94.29 336.25 95.23 315.22 70.24 308.4 70.24" style="fill:#722924;fill-rule:evenodd"/><path d="M280.6,81.88S293.13,55.23,324.47,42C324.47,42,308.74,70.89,280.6,81.88Z" style="fill:#722924;fill-rule:evenodd"/><path d="M315.22,55.25s-5.46,5.72-11,8c-2.7,1.13-14.52,2.5-14.52,2.5s-5-1.69-7.77,1.18-2.22,7.82-2.22,7.82-12.58,7.45-11.81,10.79S280.6,92.3,280.6,92.3s12.4-4.86,20.08-20.56l2.12-3.61A99.93,99.93,0,0,0,315.22,55.25Z" style="fill-rule:evenodd;fill:url(#Áåçûìÿííûé_ãðàäèåíò_32)"/><path d="M375.28,77.08l-32.4,32.07-3.69,3.67c-5.38-.72-19.63-9.5-19.44-11.88s2.72-16.28,2.72-16.28l9.21,9.62L339.94,96c4.43-5.37,4-14.85,4-14.85L333.81,67.68s5.29-7.67,7.91-8.77,8.62-.44,9.72,0,8,5.69,8,5.69l8.89,1.73Z" style="fill:#ff8e65"/><path d="M361.89,85.55l-19,23.6-3.69,3.67c-5.38-.72-19.63-9.5-19.44-11.88s2.72-16.28,2.72-16.28l9.21,9.62L339.94,96c4.43-5.37,4-14.85,4-14.85L333.81,67.68s5.29-7.67,7.91-8.77c0,0,12.13,7.15,15.37,11.34S361.89,85.55,361.89,85.55Z" style="fill:#5b0036;fill-rule:evenodd;opacity:0.42"/><g id="no_hover" data-name="no hover"><path d="M262.94,72.78c.17.76-6.23,6-9.5,7.67h0c-1.64.78-4.72-4.43-7.42-9.88s-5-11.18-5-11.18l1.73-3.75,0,0c.75.46,12.9,7.73,15.71,10.13a13.84,13.84,0,0,1,1.27,1.27A15.91,15.91,0,0,1,262.94,72.78Z" style="fill:#f67865"/><path d="M253.52,106.91a5.09,5.09,0,0,1-.43,1.84,35.92,35.92,0,0,1-5.94,1.24c-13.61,2.32-45.85,6.94-45.85,6.94l-11.66-2.46-1.65-.35s-29.43-33.51-30.94-57.81,59.51-41.52,76-32.64L235,26.61l5.48,8.72,1.51,2v0L243.88,40l-1.1,15.71-.17,2.19s0,0,.06.06c.67.45,6,4.29,7.34,6.34,1.05,1.65,2.59,9.1,3.4,16.2.27,2.24.49,4.46.57,6.43A156.58,156.58,0,0,1,253.52,106.91Z" style="fill:#ff8e65"/><path d="M253.44,80.45h0c.27,2.24.49,4.46.57,6.43a156.58,156.58,0,0,1-.46,20L247.15,110c-13.61,2.32-45.85,6.94-45.85,6.94l-11.66-2.46-4.37-5.21,40.44-51.41,6.51-22.44,2.73-8.8,5.48,8.72,1.51,2v0s-5.75,24.08-5.48,28.29c.21,3.22,6.56,4.49,9.53,4.92.92.11,1.51.16,1.51.16s1.38-3.48.78-5.08-5.1-7.12-5.61-7.74c1,.45,14,6.77,17.09,9.15a15.91,15.91,0,0,1,3.18,5.72C263.11,73.54,256.71,78.78,253.44,80.45Z" style="fill:#952a5c;fill-rule:evenodd;opacity:0.42"/><path d="M254.11,80.55s9.93,5.52,12.66,10l-.76.86-4.61-2.9,3.92,3.75s-6.78,8.11-11.4,9.47l-4.46,1.87s5-15.82,4-23.09Z" style="fill:#844638;fill-rule:evenodd"/><path d="M210.35,95.7s9.32,13.58,19.16,4.23c0,0-5.4,12.67-5.4,14.7,0,5.75,25.35-7.5,25.35-7.5-.85,5-23.21,9.47-27.79,11.53-7.93,3.59-25.67-2.84-25.67-2.84S204,102.27,210.35,95.7Z" style="fill:#5b0036;opacity:0.49"/><path d="M422.94,156c-.13.21-.29.43-.46.67-4.34,5.65-22.06,14.15-22.06,14.15-38.25,19.12-94.87,24-110,25l-2.64.16-1.22,0S267.58,235.83,267.42,252s5.27,72,5.27,72c-14.31,18.06-50.44,24.67-50.44,24.67,1.32.38,2.67.73,4.05,1h0C241.56,353,259,351.64,259,351.64L262.16,364l-3.94-8.8a183.44,183.44,0,0,1-21.12,28,109.91,109.91,0,0,1-11.55,11.2.1.1,0,0,1-.06,0c-1.43,1.11-2.35,1.62-2.59,1.43-1.27-1,2.29-15.36,2.29-15.36-9.2-1.52-21.46,13.06-21.46,13.06l-6.4,12.26c-19.85,5.89-63.21,15.74-86.05,20.82l-14.69,3.21,12.48-10.2a165,165,0,0,1-24,5.37c-12.67,1.89-44.26.32-49.41,0-.46,0-.73,0-.73,0l16.36-15.88C23.13,404.83.12,422.48.12,422.48c10.48-21.73,34.54-48.84,34.54-48.84L38,355.23c-7.16-3.86-10.67-7.94-12.37-10.8a11.59,11.59,0,0,1-1.54-3.7c5.1-18.42,29.16-41.29,32.05-47.06a.18.18,0,0,1,0-.08.75.75,0,0,1,.11-.22,1.55,1.55,0,0,1,.1-.27,3.21,3.21,0,0,0,.33-.78c.05-.16.13-.33.21-.52a.84.84,0,0,0,.08-.21c1.46-4.13,3-11.5,4.51-22.6v0c1.3-9.31,2.57-21.22,3.84-36,3.08-36,13.15-71.79,15.52-75.19,2.08-2.94,15.18-13.64,27.7-21.33a2,2,0,0,0,.27-.16l.44-.25c1.78-1.08,3.48-2.1,5.18-3,14-7.51,30.29-14.74,30.29-14.74,15.61-23.25,60-13.75,60-13.75s59.94-16.2,67.93-14.25,27.73,19.25,33.72,21l.22.08a27.07,27.07,0,0,0,2.67.46l.08,0h0a.54.54,0,0,0,.11,0c9.15,1.16,29.78.95,29.78.95,1.64-8.7,16.74-22.57,16.74-22.57s22-18.61,29.16-15l0,0c7.16,3.62,16.61,32.19,16.61,32.19s19.9,34.91,21.33,45.84A4.33,4.33,0,0,1,422.94,156Z" style="fill:#cdb6b2;fill-rule:evenodd"/><path d="M401.83,107.48s-9.45-28.57-16.61-32.19c.52.6,8.89,10.26,8.56,20l-19.57-5c1,.54,17.09,9.37,19.73,11.69,0,0-22.16-.54-30.18,1.44s-24.46,9.42-24.46,9.42,25.48-1.65,31.45-1,28.49,17.38,28.49,17.38-29.52-2.37-48.79-6.64c-18.36-4.08-39-10.15-40.93-10.72a.54.54,0,0,1-.11,0h0l-.08,0-2.89-.54.22.08A447.82,447.82,0,0,0,351.47,128c25.9,8.24,35.45,11.53,36.56,11.94-2.73-.59-53.86-11.69-76.92-20.12-23.68-8.69-38.42-29.53-38.42-29.53-8-2-67.93,14.25-67.93,14.25s-44.42-9.5-60,13.75c0,0-16.3,7.23-30.29,14.74-1.7.89-3.4,1.91-5.18,3,2.53-1.37,11.2-6,15.25-6.75,4.78-.83,18.93,10.7,18.93,10.7S69.3,248.33,61.49,269v0l-5.34,24.6a.75.75,0,0,1,.11-.22,1.55,1.55,0,0,1,.1-.27c.08-.22.19-.46.33-.78.05-.16.13-.33.21-.52a.84.84,0,0,0,.08-.21c6.38-14.93,46.5-106.17,90.89-134,0,0,3.94,12.31,24.13,6.15,0,0-13-1-13.93-4.8s16-12.45,16-12.45,20.6-21.14,35-30.7c14.18-9.4,56-24.16,57.35-24.6-1.19,1.14-78.54,74.34-91.4,87.78S79,285.14,76.64,287.81c2.19-1.81,72.12-60.16,96-88,24.22-28.27,55-69.18,55-69.18S267,95.24,268,95.24s-16,91.67-20.31,114.67-60.88,87.48-73.55,98.74c-12.25,10.91-47.84,24.06-50,24.87,2.24-.43,38.5-7.45,58.1-17.36,20.22-10.23,64.56-79.79,64.56-79.79s3.51-6.15,9.93-7.5L227.57,307.3l34-61.69c-.73,2.43-24.71,80.16-28.92,83.51s-44.44,11.39-44.44,11.39l11.23-6.59c-2.59.52-85.7,17.34-99,19.5s-62.8-16.58-64.26-17.12l7.32,8.13H25.61c1.7,2.86,5.21,6.94,12.37,10.8l-3.32,18.41,16.6-.43v36L34.9,425.05s.27,0,.73,0c4.48.13,28.32.86,30,.86l3.07-46s29.17-10.39,45.26-6.29l-4.86,46-12.48,10.2,14.69-3.21,6-53,55.33-5.53,24.73,37.74L177,370.56s7.53-14.33,21.46-13.82l27.84,23.19-3.4,16a10.71,10.71,0,0,0,2.59-1.43.1.1,0,0,0,.06,0c2.32-1.59,6.12-4.8,11.55-11.2l-32.24-26.36s6.19-5.13,21.44-7.15c-1.38-.3-2.73-.65-4.05-1,0,0,36.13-6.61,50.44-24.67,0,0-5.46-55.79-5.27-72S286.51,196,286.51,196,355.9,193,400.42,170.79c0,0,17.72-8.5,22.06-14.15l.68-3.32C421.73,142.39,401.83,107.48,401.83,107.48Z" style="fill:#5b0036;opacity:0.42"/><path d="M231.89,54.53c-2.91,12.8-12,27.54-20.38,39.5-7.29,10.48-14,18.79-15.5,21.79-3.16,6.4-17,0-17,0l-.49.49-4.1,4.21s2.73,5.1,2.89,9.56c0,1.72-1.54,4.37-3.54,7.15-.76,1.05-1.57,2.13-2.32,3.19-2.49,3.26-4.78,6.29-4.7,7.72.16,3.08,6.13,6.91,6.78,10.1.38,1.89-3.86,4-7.62,6.07-2.59,1.49-5,3-5.45,4.43-1.13,3.56,8.07,7.4,8.07,7.4s-12.53,2.05-16.12-4.08c-3-5.18,5.75-5.64,11-8.64a8.92,8.92,0,0,0,2.43-2c4.11-5-23.27-10.37-28.75-18.41a6.09,6.09,0,0,1-.43-5.81c2.83-7.75,16.74-16.71,24.73-16.2l-.52-1.78a45.07,45.07,0,0,0-8.69-2.32c-4.86-.76-7.26-.6-7.86-2s-.27-14.9-2.78-30.8v-.06c-.11-.75-.24-1.54-.38-2.32s-.24-1.4-.37-2.08l-.06-.35a166.84,166.84,0,0,0-4-16.55c-.44-1.54-.84-2.94-1.19-4.24L135.15,57a23.19,23.19,0,0,1-.78-5.38c0-4.15,4.37-14.06,13.85-21.38a.26.26,0,0,1,.08-.05,1.5,1.5,0,0,0,.19-.14l.27-.19a40.88,40.88,0,0,1,14.93-7,27.66,27.66,0,0,1,8.18-6.4c1.81-.95,4.19-2.11,6.89-3.32A.65.65,0,0,1,179,13s.05-.06.08-.06a.22.22,0,0,0,.11,0C192,7,212.48-.93,224.09.67a0,0,0,0,0,0,0l0,0a12.23,12.23,0,0,1,4.13,1.16,6.2,6.2,0,0,1,2.08,1.75C235.86,10.55,236.78,32.93,231.89,54.53Z" style="fill:#844638;fill-rule:evenodd"/><path d="M160.88,119.24s11.93-12.3,18.16-3.42l-4.61,4.7s-6.9-2.73-13,.51Z" style="fill:#3b465c;fill-rule:evenodd"/><path d="M241.94,37.36l.91,17,4.65-11.46S245.67,37,241.94,37.36Z" style="fill:#844638;fill-rule:evenodd"/><path d="M177.73,13.56s21.6,2.6,29.28,12.83.68,44.44-6.15,57.77-25.84,29-25.84,29a7,7,0,0,0-3.49-.44s29.43-23.53,34-47.11,3.55-32.11,0-38.58S186.66,15.22,177.73,13.56Z" style="fill:#fff;fill-rule:evenodd;opacity:0.5;mix-blend-mode:soft-light"/><path d="M178.76,13.09s23.38.42,34.21,11.85,5.88,40.71,5.88,40.71l5.29,2.44s7.11-28.83-6-43.49-38-12.28-38-12.28Z" style="fill:#fff;fill-rule:evenodd;opacity:0.5;mix-blend-mode:soft-light"/><path d="M178.76,13.09A37.57,37.57,0,0,0,175,15.76a99.29,99.29,0,0,0-17.57,17.71l0,.05c-1.68,2.16-3.3,4.46-4.86,6.94a65.55,65.55,0,0,0-7.29,17.2v.06a.26.26,0,0,1,0,.13,110.9,110.9,0,0,0-3.7,26.27l-.75-4.4-.06-.35a73.06,73.06,0,0,1,1.35-19.76c2.59-12.13,7.62-18.71,8-19.25-10.85,5.75-14.55,18.22-14.55,18.22L135.15,57c4.19-12,15.23-18.44,15.23-18.44l10.5-12.67c-4.75-.59-11,3.3-12.39,4.16a41,41,0,0,1,15.2-7.23,27.66,27.66,0,0,1,8.18-6.4C173.68,15.46,176.06,14.3,178.76,13.09Z" style="fill:#5b0036;fill-rule:evenodd;opacity:0.42"/><path d="M231.89,54.53c-5.45,24-32.75,54.89-35.88,61.29s-17,0-17,0l-4.59,4.7s2.73,5.1,2.89,9.56c0,1.72-1.54,4.37-3.54,7.15,0,0-3.83-10.57-9.84-13-14.53-5.77-27.28,13-27.28,13,2.83-7.75,16.74-16.71,24.73-16.2l-.52-1.78a45.07,45.07,0,0,0-8.69-2.32c-4.86-.76-7.26-.6-7.86-2s-.27-14.9-2.78-30.8v-.06l-.75-4.4-.06-.35a166.84,166.84,0,0,0-4-16.55l5.34-3.21,3.19-2v.06a.26.26,0,0,1,0,.13c-.24,1.86-1.94,16.26,1.57,26.33l10.26-48.85c-1.16,6.29-4.78,26.84-3.62,36.59,0,0,26.59-12.29,36.67-32.4,0,0,2.4-11.5-15-23.73.89.29,12.47,4.72,20.92,24.08,0,0,13.77-11.45,12.21-20.3s-16.56-8.94-29.08-6.67c1.7-.46,25.54-6.48,32.29,6.15,0,0,15.39-13.42,12.66-18.38v0h0l0,0,6.21,2.91C235.86,10.55,236.78,32.93,231.89,54.53Z" style="fill:#5b0036;fill-rule:evenodd;opacity:0.49"/><path d="M211.51,94c-7.29,10.48-14,18.79-15.5,21.79-3.16,6.4-17,0-17,0l-.49.49c-.92-1.08-2.94-3.24-5-3.7,0,0,8.75-.69,11.7-3.35,7.27-6.58,16-14.66,20.43-32.56Z" style="fill:#900477;fill-rule:evenodd;opacity:0.4;mix-blend-mode:multiply"/><path d="M229.73,98.84a11.1,11.1,0,0,1-6.93,3.72,12.64,12.64,0,0,1-6.16-.83,23.88,23.88,0,0,1-9.56-12.59,32.37,32.37,0,0,1-.86-16.36s5.75-7.26,11.42-7.13a11,11,0,0,1,5,1.46,18.61,18.61,0,0,1,5,4.27S232.62,85.88,229.73,98.84Z" style="fill:url(#Áåçûìÿííûé_ãðàäèåíò_24)"/><path d="M229.73,98.84a11.1,11.1,0,0,1-6.93,3.72,12.64,12.64,0,0,1-6.16-.83,23.88,23.88,0,0,1-9.56-12.59c2.49,1,7.91-1.94,7.91-1.94s-2.45-8.88-1-11.69,8-4.94,8.53-5.78a4.8,4.8,0,0,0,0-2.62h.06a18.61,18.61,0,0,1,5,4.27S232.62,85.88,229.73,98.84Z" style="fill:#952a5c;opacity:0.42"/><path d="M228.32,76.62s-4.68-3.87-8-3.84a6.43,6.43,0,0,0-6,3.92c-.47,1.57.34,11.55,2.18,15.85s6.82,5.63,6.82,5.63A15.5,15.5,0,0,1,217.62,92c-2.05-4.14-1.45-12.49-1-13.65s3.41-2.64,4.18-2.47,2.13,2.3,2.13,2.73-2,2.77-2.65,4.56a9.91,9.91,0,0,0,.94,7.12c1.2,2,5.71,2,6.44,1.37S230.24,80.61,228.32,76.62Z" style="fill:#5b0036;opacity:0.49"/><path d="M229.09,63.36s-5.55,21.6-12.71,33.5A38.33,38.33,0,0,1,198,112.6l-2,3.22s20.38-8,28.82-23.31S234,42.91,234,42.91Z" style="fill:#612234;fill-rule:evenodd"/><path d="M235,22.29s5.8,71.63-5.46,102A223.37,223.37,0,0,0,233,84.16a393.18,393.18,0,0,0-2.35-41.25Z" style="fill:#612234;fill-rule:evenodd"/><path d="M163.35,119.92s-20.64,12.55-21,20.47,21.92,15.17,23.37,16.79.11,4.27.11,4.27,1.83-3.5.56-5.21-19.69-7.76-21.31-17.14,21.76-19.6,21.76-19.6Z" style="fill:#fff;fill-rule:evenodd;opacity:0.5;mix-blend-mode:soft-light"/><path d="M168.55,119.5s-15.18,13.76-15,21.74,14,13.3,15,16.62-5.85,5.94-5.85,5.94,6.27-1.76,7.9-4.91-13.22-12-12.71-20.13S170,119.53,170,119.53Z" style="fill:#fff;fill-rule:evenodd;opacity:0.5;mix-blend-mode:soft-light"/><path d="M252,61.33s3.89,6.34,7.78,5.73A47.48,47.48,0,0,0,252,61.33Z" style="fill:#ffc483;fill-rule:evenodd"/><path d="M262.94,72.78l-5,2.32-4.67,4.26.17,1.1S261.93,75.1,262.94,72.78Z" style="fill:#5b0036;fill-rule:evenodd;opacity:0.42"/></g><g id="hover" style="opacity:0"><path d="M268.54,81.74c0,.78-7.51,4.3-11.09,5.12h0c-1.79.35-3.51-5.45-4.8-11.4s-2.09-12-2.09-12l2.59-3.22,0,0c.62.63,10.64,10.64,12.77,13.66a12.27,12.27,0,0,1,.92,1.54A15.94,15.94,0,0,1,268.54,81.74Z" style="fill:#f67865"/><path d="M251.08,112.54a5.34,5.34,0,0,1-.87,1.68,36.09,36.09,0,0,1-6.06-.25c-13.77-1.06-46.16-4.45-46.16-4.45l-10.71-5.23-1.51-.74S165.4,63.88,169.86,39.94s67.84-25.75,81.7-13.11l1.09,3.31,3.18,9.79,1,2.31v0l1.25,3-4.91,15-.69,2.08s0,0,0,.07c.55.61,4.79,5.63,5.58,7.95.62,1.85.29,9.45-.65,16.54-.29,2.23-.62,4.43-1,6.37A159.8,159.8,0,0,1,251.08,112.54Z" style="fill:#ff8e65"/><path d="M257.45,86.86h0c-.29,2.23-.62,4.43-1,6.37a159.8,159.8,0,0,1-5.33,19.31L244.15,114c-13.77-1.06-46.16-4.45-46.16-4.45l-10.71-5.23-3-6.12,51.76-40L247.85,38l4.8-7.87,3.18,9.79,1,2.31v0s-11.45,21.95-12.22,26.1c-.57,3.17,5.27,5.95,8,7.09l1.43.53s2.19-3,2-4.73-3.21-8.16-3.56-8.89c.83.68,12,10,14.34,13.05a15.94,15.94,0,0,1,1.7,6.32C268.51,82.52,261,86,257.45,86.86Z" style="fill:#952a5c;fill-rule:evenodd;opacity:0.42"/><path d="M258.08,87.12s8.28,7.78,9.85,12.74l-.95.64-3.76-3.93,2.89,4.59s-8.56,6.21-13.37,6.41l-4.78.72s8.74-14.11,9.48-21.42Z" style="fill:#844638;fill-rule:evenodd"/><path d="M212,91.14s5.72,15.45,17.55,8.77c0,0-8.34,11-8.83,13-1.4,5.57,26.42-1.09,26.42-1.09-2,4.59-24.83,3.51-29.77,4.4-8.57,1.54-24.2-9-24.2-9S204.2,96,212,91.14Z" style="fill:#5b0036;opacity:0.49"/><path d="M422.87,156c-.14.22-.3.43-.46.68-4.35,5.64-22.06,14.14-22.06,14.14-38.26,19.12-94.88,24-110,25l-2.65.16-1.21.06s-18.93,39.88-19.09,56.08,5.26,72,5.26,72c-14.31,18.06-50.43,24.68-50.43,24.68,1.32.37,2.67.73,4,1h0c15.23,3.3,32.65,1.92,32.65,1.92l3.18,12.39-3.94-8.8a182.93,182.93,0,0,1-21.11,28,108.74,108.74,0,0,1-11.56,11.2s0,0-.05,0c-1.43,1.11-2.35,1.62-2.6,1.43-1.26-1,2.3-15.36,2.3-15.36-9.21-1.51-21.47,13.07-21.47,13.07l-6.39,12.26c-19.85,5.88-63.21,15.74-86,20.81l-14.69,3.21L109,419.71a164.58,164.58,0,0,1-24,5.37c-12.66,1.89-44.25.33-49.41,0-.46,0-.73,0-.73,0l16.37-15.87C23.05,404.86.05,422.52.05,422.52c10.47-21.74,34.53-48.85,34.53-48.85l3.32-18.41c-7.15-3.86-10.66-7.94-12.36-10.8a11.3,11.3,0,0,1-1.54-3.7c5.1-18.41,29.16-41.28,32.05-47.06a.24.24,0,0,1,0-.08,2.24,2.24,0,0,1,.11-.22c0-.08.06-.16.11-.27a3.44,3.44,0,0,0,.32-.78c.06-.16.14-.32.22-.51s.05-.14.08-.22c1.46-4.13,3-11.5,4.51-22.6v0c1.3-9.32,2.56-21.23,3.83-36,3.08-36,13.15-71.8,15.53-75.2,2.08-2.94,15.17-13.63,27.7-21.33a2,2,0,0,0,.27-.16c.11,0,.24-.13.43-.24,1.78-1.08,3.48-2.11,5.19-3,14-7.51,30.29-14.74,30.29-14.74,15.61-23.25,60-13.75,60-13.75s59.94-16.2,67.93-14.25,27.73,19.25,33.73,21l.21.08a22.56,22.56,0,0,0,2.67.46l.09,0h0s.06,0,.11,0c9.15,1.16,29.78.94,29.78.94C340.87,104.19,356,90.31,356,90.31s22-18.6,29.16-15l0,0c7.15,3.62,16.6,32.19,16.6,32.19s19.9,34.91,21.33,45.84A4.34,4.34,0,0,1,422.87,156Z" style="fill:#cdb6b2;fill-rule:evenodd"/><path d="M401.75,107.51s-9.45-28.57-16.6-32.19c.51.6,8.88,10.26,8.56,20l-19.58-5c1,.54,17.09,9.37,19.74,11.69,0,0-22.17-.54-30.19,1.43s-24.46,9.42-24.46,9.42,25.49-1.65,31.46-1,28.48,17.39,28.48,17.39-29.51-2.38-48.79-6.64c-18.36-4.08-39-10.16-40.93-10.72-.05,0-.08,0-.11,0h0l-.09,0-2.88-.54.21.08A451.19,451.19,0,0,0,351.4,128c25.89,8.23,35.45,11.53,36.56,11.93-2.73-.59-53.87-11.69-76.93-20.11-23.68-8.7-38.42-29.54-38.42-29.54-8-2-67.93,14.25-67.93,14.25s-44.41-9.5-60,13.75c0,0-16.31,7.23-30.29,14.74-1.71.89-3.41,1.92-5.19,3,2.54-1.38,11.21-6.05,15.26-6.75,4.78-.84,18.92,10.69,18.92,10.69S69.22,248.37,61.42,269v0l-5.35,24.6a2.24,2.24,0,0,1,.11-.22c0-.08.06-.16.11-.27s.19-.46.32-.78c.06-.16.14-.32.22-.51s.05-.14.08-.22c6.37-14.93,46.49-106.16,90.88-134,0,0,3.94,12.31,24.14,6.16,0,0-13-1-13.93-4.81s16-12.45,16-12.45,20.6-21.14,35-30.7c14.17-9.39,56.05-24.16,57.34-24.59-1.18,1.13-78.54,74.33-91.39,87.77s-96,106.17-98.33,108.84c2.18-1.81,72.11-60.15,96-88,24.22-28.27,55-69.18,55-69.18s39.42-35.39,40.44-35.39S252,186.94,247.64,210s-60.89,87.48-73.55,98.74c-12.26,10.9-47.84,24.05-50.06,24.86,2.24-.43,38.5-7.45,58.11-17.36,20.22-10.23,64.55-79.78,64.55-79.78s3.51-6.16,9.94-7.51L227.5,307.34l34-61.7c-.73,2.43-24.7,80.16-28.92,83.51s-44.44,11.4-44.44,11.4L199.34,334c-2.6.51-85.7,17.33-99,19.49s-62.8-16.58-64.26-17.12l7.32,8.13H25.54c1.7,2.86,5.21,6.94,12.36,10.8l-3.32,18.41,16.61-.43v36L34.82,425.08s.27,0,.73,0c4.49.13,28.33.86,30,.86l3.08-46s29.16-10.39,45.25-6.29l-4.86,46-12.47,10.2,14.69-3.21,6-53,55.32-5.53,24.74,37.75L176.92,370.6s7.54-14.34,21.47-13.83L226.23,380l-3.41,16a10.84,10.84,0,0,0,2.6-1.43s.05,0,.05,0c2.32-1.59,6.13-4.8,11.56-11.2l-32.24-26.35s6.18-5.13,21.44-7.16c-1.38-.29-2.73-.65-4-1,0,0,36.12-6.62,50.43-24.68,0,0-5.45-55.78-5.26-72S286.44,196,286.44,196s69.39-2.92,113.91-25.17c0,0,17.71-8.5,22.06-14.14l.67-3.33C421.65,142.42,401.75,107.51,401.75,107.51Z" style="fill:#5b0036;opacity:0.42"/><path d="M242.88,56.47c-5.95,11.7-18.37,23.78-29.41,33.34-9.62,8.38-18.2,14.8-20.34,17.35-4.62,5.43-16.47-4.15-16.47-4.15l-.59.36-5,3.08s1.4,5.62.47,10c-.37,1.69-2.56,3.87-5.17,6.08-1,.84-2,1.69-3,2.52-3.21,2.57-6.17,4.94-6.44,6.35-.59,3,4.26,8.2,4.11,11.44-.1,1.93-4.71,2.91-8.87,4-2.87.81-5.54,1.67-6.37,3-2,3.18,6,9.15,6,9.15s-12.65-1.07-14.64-7.89c-1.67-5.76,6.95-4.07,12.76-5.7a8.76,8.76,0,0,0,2.84-1.32c5.2-3.84-20-15.73-23.39-24.87a6.1,6.1,0,0,1,1-5.73c4.64-6.83,20.31-12.13,27.94-9.68l-.06-1.86a46.12,46.12,0,0,0-7.87-4.37c-4.53-1.92-6.9-2.35-7.14-3.8s3.37-14.52,4.81-30.55l0-.06c.08-.76.14-1.55.2-2.34s.1-1.42.14-2.11l0-.35a166.1,166.1,0,0,0,.16-17c0-1.6-.09-3.06-.12-4.4V35.26a23.22,23.22,0,0,1,.55-5.41c1-4,7.67-12.57,18.65-17.35l.09,0a2.11,2.11,0,0,0,.22-.08l.3-.12a41,41,0,0,1,16.2-3.19A27.77,27.77,0,0,1,194,4.86c2-.48,4.57-1,7.49-1.54a.76.76,0,0,1,.21-.06s.06,0,.09,0a.4.4,0,0,0,.11,0C215.75.62,237.58-2,248.45,2.33c0,0,0,0,0,0l0,0a12.69,12.69,0,0,1,3.72,2.13,6.23,6.23,0,0,1,1.59,2.21C257.45,14.78,252.89,36.71,242.88,56.47Z" style="fill:#844638;fill-rule:evenodd"/><path d="M158.22,101.9s14.58-9,18.45,1.11l-5.61,3.44s-6-4.33-12.78-2.69Z" style="fill:#3b465c;fill-rule:evenodd"/><path d="M256.81,42.27,253.54,59l7.31-10S260.52,42.82,256.81,42.27Z" style="fill:#844638;fill-rule:evenodd"/><path d="M200.35,3.52s20.31,7.79,25.26,19.59-10.19,43.26-20.05,54.53S173.41,99.5,173.41,99.5a7,7,0,0,0-3.27-1.28s34.27-15.65,44.49-37.39,11.28-30.28,9.42-37.41S208.6,7.31,200.35,3.52Z" style="fill:#fff;fill-rule:evenodd;opacity:0.5;mix-blend-mode:soft-light"/><path d="M201.46,3.32S224,9.43,231.74,23.15s-4.22,40.92-4.22,40.92l4.53,3.66S246,41.5,236.8,24.08,202.91,2.89,202.91,2.89Z" style="fill:#fff;fill-rule:evenodd;opacity:0.5;mix-blend-mode:soft-light"/><path d="M201.46,3.32A35.61,35.61,0,0,0,197.19,5a99.19,99.19,0,0,0-21.37,12.89l0,.05a84,84,0,0,0-6.4,5.54,65.35,65.35,0,0,0-11.27,14.9v0a.36.36,0,0,1-.06.13,110.94,110.94,0,0,0-10,24.57l.34-4.45,0-.35a73.08,73.08,0,0,1,6.13-18.84C160,28.36,166.5,23.2,167,22.78c-11.93,2.93-18.56,14.12-18.56,14.12V35.26c7-10.61,19.27-14.17,19.27-14.17L181,11.37c-4.46-1.74-11.51.5-13,1a40.86,40.86,0,0,1,16.5-3.31A27.77,27.77,0,0,1,194,4.86C196,4.38,198.54,3.84,201.46,3.32Z" style="fill:#5b0036;fill-rule:evenodd;opacity:0.42"/><path d="M242.88,56.47c-11.15,22-45.15,45.24-49.75,50.69S176.66,103,176.66,103l-5.6,3.44s1.4,5.62.47,10c-.37,1.69-2.56,3.87-5.17,6.08,0,0-1.14-11.19-6.39-15-12.68-9.14-29.62,5.92-29.62,5.92,4.64-6.83,20.31-12.13,27.94-9.68l-.06-1.86a46.12,46.12,0,0,0-7.87-4.37c-4.53-1.92-6.9-2.35-7.14-3.8s3.37-14.52,4.81-30.55l0-.06.34-4.45,0-.35a166.1,166.1,0,0,0,.16-17l6-1.81,3.56-1.11v0a.36.36,0,0,1-.06.13c-.69,1.74-5.85,15.29-4.9,25.91L175,19.6c-2.66,5.82-11.18,24.87-12.43,34.6,0,0,28.79-5.43,43.46-22.48,0,0,5.14-10.57-8.79-26.68.79.5,10.94,7.62,14.41,28.46,0,0,16.15-7.74,16.79-16.71S214.57,4.08,201.87,3.23c1.76,0,26.35-.06,29.81,13.84,0,0,18.2-9.26,16.77-14.74v0h0l0,0,5.31,4.34C257.45,14.78,252.89,36.71,242.88,56.47Z" style="fill:#5b0036;fill-rule:evenodd;opacity:0.49"/><path d="M213.47,89.81c-9.62,8.38-18.2,14.8-20.34,17.35-4.62,5.43-16.47-4.15-16.47-4.15l-.59.36c-.63-1.27-2.06-3.86-3.92-4.8,0,0,8.65,1.47,12.16-.4,8.66-4.61,19.13-10.3,27.76-26.59Z" style="fill:#900477;fill-rule:evenodd;opacity:0.4;mix-blend-mode:multiply"/><path d="M230,98.91a11.15,11.15,0,0,1-7.64,1.92,12.6,12.6,0,0,1-5.77-2.31A23.86,23.86,0,0,1,210.37,84a32.55,32.55,0,0,1,3.15-16.08s7.35-5.64,12.82-4.13a10.74,10.74,0,0,1,4.46,2.63,18.51,18.51,0,0,1,3.86,5.36S235.94,87.05,230,98.91Z" style="fill:url(#Áåçûìÿííûé_ãðàäèåíò_24-2)"/><path d="M230,98.91a11.15,11.15,0,0,1-7.64,1.92,12.6,12.6,0,0,1-5.77-2.31A23.86,23.86,0,0,1,210.37,84c2.17,1.57,8.15,0,8.15,0s-.22-9.21,1.91-11.57,9-2.83,9.68-3.53a4.83,4.83,0,0,0,.64-2.54l.05,0a18.51,18.51,0,0,1,3.86,5.36S235.94,87.05,230,98.91Z" style="fill:#952a5c;opacity:0.42"/><path d="M234,77s-3.59-4.9-6.83-5.68a6.44,6.44,0,0,0-6.79,2.33c-.84,1.41-2.48,11.29-1.76,15.91s5.25,7.12,5.25,7.12a15.58,15.58,0,0,1-4-7.37c-1-4.52,1.65-12.47,2.38-13.48s3.95-1.73,4.66-1.38,1.5,2.76,1.4,3.17-2.62,2.2-3.68,3.78a9.92,9.92,0,0,0-.83,7.13c.68,2.2,5.06,3.34,5.92,2.9S234.91,81.36,234,77Z" style="fill:#5b0036;opacity:0.49"/><path d="M238,64.35S227.36,84,217.51,93.73a38.36,38.36,0,0,1-21.63,10.8l-2.76,2.62s21.71-2.75,33.64-15.57,21-45.87,21-45.87Z" style="fill:#612234;fill-rule:evenodd"/><path d="M253.73,26s-11.85,70.88-30.17,97.57a223.13,223.13,0,0,0,13.15-38,390.53,390.53,0,0,0,7.78-40.58Z" style="fill:#612234;fill-rule:evenodd"/><path d="M160.45,103.17s-23.07,7.13-25.33,14.73,17.55,20.06,18.56,22-.93,4.17-.93,4.17,2.63-3,1.81-4.91-17.2-12.34-16.48-21.82S164,103.61,164,103.61Z" style="fill:#fff;fill-rule:evenodd;opacity:0.5;mix-blend-mode:soft-light"/><path d="M165.6,104s-18.07,9.65-19.85,17.43,10.31,16.31,10.49,19.78-7.12,4.34-7.12,4.34,6.51-.18,8.86-2.85-9.9-14.82-7.41-22.61S167,104.4,167,104.4Z" style="fill:#fff;fill-rule:evenodd;opacity:0.5;mix-blend-mode:soft-light"/><path d="M260.7,68s2.23,7.09,6.14,7.45A47.77,47.77,0,0,0,260.7,68Z" style="fill:#ffc483;fill-rule:evenodd"/><path d="M268.54,81.74l-5.43,1-5.57,3-.1,1.1S267,83.74,268.54,81.74Z" style="fill:#5b0036;fill-rule:evenodd;opacity:0.42"/></g><path d="M144.14,67.3l-.06-.35" style="fill:#844638;fill-rule:evenodd"/><path d="M222.79,395.86l-10-10.89a25.68,25.68,0,0,1,13.37-5.05Z" style="fill:#8f4d55;fill-rule:evenodd"/><path d="M272.58,324S255,334.05,246.5,334.39a19.72,19.72,0,0,1-14-5.3l-44.44,11.4,11.23-6.59S110.4,351.84,98,353.56s-61.89-17.28-61.89-17.28l7.32,8.12H25.5l9,8.8,3.33,2,13.29,18v26l8.45-25.58s48.58-2.54,54.22,0l-3.09,29.2,6.43-29.2s54-6.1,61.38-9.6,12.32-8.34,19.81-7.3l19.2,16-12.8-15.86a45.09,45.09,0,0,1,21.44-7.15l-4-1S261.48,340,272.58,324Z" style="fill:#5b0036;opacity:0.42"/><polygon points="96.43 429.88 96.43 422.91 108.97 419.65 96.43 429.88" style="fill:#8f4d55;fill-rule:evenodd"/><path d="M36.79,408.71l-2,16.31,16.37-15.86A56,56,0,0,0,36.79,408.71Z" style="fill:#8f4d55;fill-rule:evenodd"/><path d="M222.15,348.67s-30.56,7.8-68.42,15.73-119.2,9.21-119.2,9.21-.25-14.33,3.33-18.42l5.11-.26,21.74-4.6s30.44,7.42,35.05,7.93,61.39-13.81,61.39-13.81S208,343.68,222.15,348.67Z" style="fill:#60204a;fill-rule:evenodd"/><path d="M36.06,354.17s-7.67,5.49-8.69,7.43,7.16,12,7.16,12l-2,2.26S20.72,364.27,21.4,361.6s13.13-8.4,13.13-8.4Z" style="fill:#bc9d98;fill-rule:evenodd"/><path d="M165.5,344.41l3.7-3.93h8.06s4,13.94,1.28,23.54l-10.36,2.3-2.68-2.05,3.19-.51s5.5-9.85,1.54-20.85l-2.69,1.5Z" style="fill:#bc9d98;fill-rule:evenodd"/><path d="M144.14,67.3l-.06-.35" style="fill:#5b0036;fill-rule:evenodd;opacity:0.42"/><path d="M144.14,67.3l-.06-.35" style="fill:#5b0036;fill-rule:evenodd;opacity:0.49"/><path d="M286.4,195.93l-28.95,8.86-47,63.26s37-37.15,46.17-39.21l-18.93,51,28.63-43.47,7.22-9.45Z" style="fill:#5b0036;opacity:0.53"/><path d="M345.06,112.48s17.36-9.25,22.13-9.7,31.07,25.83,31.07,25.83-19.18-14.47-26.6-16.53S345.06,112.48,345.06,112.48Z" style="fill:#5b0036;fill-rule:evenodd;opacity:0.42"/><path d="M345.85,121.57s32.21,11.56,42,14.84S409,143.14,409,143.14L396,129Z" style="fill:#5b0036;fill-rule:evenodd;opacity:0.2"/><path d="M422.37,156.62c-4.34,5.64-22.06,14.15-22.06,14.15-38.26,19.11-94.87,23.95-110,24.94l-2.64.17-1.22.05-28.94,8.86,28.94-11,85.27-23.55L303.87,164s51.92.84,71.41,0S422.37,156.62,422.37,156.62Z" style="fill:#5b0036;fill-rule:evenodd;opacity:0.2"/><polygon points="36.08 336.28 70.68 294.31 46.13 314.44 36.08 336.28" style="fill:#5b0036;opacity:0.42"/><path d="M386.89,285s-2.29,1.83-9.26,1.51h-.1a53.48,53.48,0,0,1-9.45-1.38l-2.57,1.46s-8.91.3-16.17.13a157,157,0,0,0-16.31.38c-1.7.27-11.29-1.54-11.29-1.54l0-.29c1.73-3.05,4.54-9.8,3.32-19.69l41.45-1.7,1,.46C372.56,267.26,386.76,282.74,386.89,285Z" style="fill:#5b0036;fill-rule:evenodd;opacity:0.42"/><path d="M377.63,286.49h-.1a53.48,53.48,0,0,1-9.45-1.38l-2.57,1.46s2.7-10.48-.89-12-23.41,0-23.41,0l-5.29-2.43,5.51,1.62s22.08-2.16,24.16.81C368.43,278.63,377.63,286.49,377.63,286.49Z" style="fill:#5b0036;fill-rule:evenodd;opacity:0.42"/><path d="M362.65,277.3s-5.63.07-7,2.88,3.26,4.82,7.55,5.05C363.16,285.23,364.44,280.12,362.65,277.3Z" style="fill:#ffb89a;fill-rule:evenodd;mix-blend-mode:soft-light"/><g style="opacity:0.31"><path d="M122.74,282.92c-.65.78-1.51,1.5-1.46,2.59a4.78,4.78,0,0,0,1.43,2.75c1.08,1.11,3.53,2.77,5.05,3,4.14.53,7-4.57,7.29-8.07.15-2.22-.87-5.37-3.39-5.87-1.71-.34-3.09.53-4.48,1.35a14.93,14.93,0,0,0-2.92,1.83,10.19,10.19,0,0,0-2.31,3.92Z" style="fill:#29354d;fill-rule:evenodd"/><path d="M127.29,294.35a1.06,1.06,0,0,1-.78,0,5,5,0,0,1,1.32-.62c.45-.15,1-.38,1.32.09a2.21,2.21,0,0,1,.37,1.36,1.59,1.59,0,0,1-.72,1,1.33,1.33,0,0,1-1.67.18c-.74-.49-1-1.39-.18-2Z" style="fill:#29354d;fill-rule:evenodd"/><path d="M119.22,297.48c-.25.3-.38.4-.33.77s.19.46.55.54a2.12,2.12,0,0,0,2.47-.94,1,1,0,0,0-.73-1.52,1.92,1.92,0,0,0-.92.11,4.59,4.59,0,0,0-.89.87Z" style="fill:#29354d;fill-rule:evenodd"/><path d="M136.94,266.72c-.31.08-.62.17-.92.27l-.66.63a20.79,20.79,0,0,0-2.78,3.56,11.1,11.1,0,0,0-1.35,2.95,2.07,2.07,0,0,0,.09,1.62c.38.49,1.25.29,1.73.16a10.71,10.71,0,0,0,2.64-1.16c.43-.26.81-.6,1.27-.84a10.26,10.26,0,0,0,.95-.44c.35-.22.68-.46,1-.7a16,16,0,0,0,3.79-4.19,7,7,0,0,0,1.1-2.82,3,3,0,0,0-.09-1.79c-.67-1.07-2.76-.89-3.73-.58a5,5,0,0,0-1.94,1.42C137.14,265.77,136.43,266.83,136.94,266.72Z" style="fill:#29354d;fill-rule:evenodd"/><path d="M65.58,313.48c-.23,0-.46.12-.68.19l-.48.47a15.08,15.08,0,0,0-2,2.6,8.28,8.28,0,0,0-1,2.16,1.6,1.6,0,0,0,.06,1.2c.29.35.92.2,1.27.11a7.63,7.63,0,0,0,1.94-.85c.32-.19.6-.44.93-.61s.47-.21.7-.33.5-.33.74-.51a11.8,11.8,0,0,0,2.78-3.07,5.22,5.22,0,0,0,.81-2.07,2.24,2.24,0,0,0-.07-1.31c-.49-.79-2-.66-2.74-.43a3.74,3.74,0,0,0-1.42,1C65.72,312.78,65.2,313.56,65.58,313.48Z" style="fill:#29354d;fill-rule:evenodd"/><path d="M135.06,276.93a1,1,0,0,1,.4-.72,1,1,0,0,1,1-.28c.68.28.45,1.29.09,1.75s-.58.66-1.08.5-.33-.73-.23-1.1Z" style="fill:#29354d;fill-rule:evenodd"/><path d="M321.1,148.93a9.47,9.47,0,0,0-3.67-.88,6.57,6.57,0,0,0-3.14,1c-1.13.76-2.62,2.44-2.48,3.46.39,2.76,7.62,4.52,12.15,4.57,2.87,0,6.61-.75,6.6-2.44,0-1.15-1.47-2-2.86-2.93a20,20,0,0,0-3.09-1.89,23.55,23.55,0,0,0-5.57-1.4Z" style="fill:#29354d;fill-rule:evenodd"/><path d="M307.7,152.33c-.21-.17-.29-.34-.25-.51a5.39,5.39,0,0,1,1.12.85c.31.3.74.65.23.89a4.49,4.49,0,0,1-1.64.29,3.48,3.48,0,0,1-1.49-.45c-.64-.33-1-.71-.65-1.1a2.05,2.05,0,0,1,2.44-.19Z" style="fill:#29354d;fill-rule:evenodd"/><path d="M301.65,147.08a2,2,0,0,0-1.06-.2c-.45.05-.54.14-.55.38,0,.63.55,1.34,1.83,1.62.95.2,1.86,0,1.76-.54a1.1,1.1,0,0,0-.39-.61,8.58,8.58,0,0,0-1.33-.56Z" style="fill:#29354d;fill-rule:evenodd"/><path d="M345.35,157.84a6.32,6.32,0,0,0-.56-.6l-1-.42a42.9,42.9,0,0,0-5.24-1.73,27.28,27.28,0,0,0-4.1-.8,4.75,4.75,0,0,0-2,.11c-.51.27,0,.84.25,1.15a10.67,10.67,0,0,0,2.15,1.72c.45.28,1,.52,1.4.82.25.21.52.42.8.62l1.16.65a32.13,32.13,0,0,0,6.3,2.38,18.19,18.19,0,0,0,3.87.64,6.93,6.93,0,0,0,2.26-.13c1.19-.48.43-1.86-.22-2.49a7.45,7.45,0,0,0-2.3-1.25C346.62,157.94,345.08,157.5,345.35,157.84Z" style="fill:#29354d;fill-rule:evenodd"/><path d="M331.88,156.92a2.39,2.39,0,0,1,1,.25c.36.19.7.4.6.65-.18.45-1.52.34-2.19.11s-1-.36-.92-.7.85-.24,1.34-.19Z" style="fill:#29354d;fill-rule:evenodd"/><path d="M104,262.91c-.19.23-.48.43-.49.74a1.06,1.06,0,0,0,.56.92,1.61,1.61,0,0,0,2-.42c.32-.44.62-1.23.2-1.71a1.32,1.32,0,0,0-.79-.29c-.58,0-1,.44-1.4.78Z" style="fill:#29354d;fill-rule:evenodd"/><path d="M93.07,246.7A17.73,17.73,0,0,0,91.53,252a8.41,8.41,0,0,0,.1,3.39c.16.5.35,1,.93,1.12a2.82,2.82,0,0,0,1.78-.5,5.74,5.74,0,0,0,1.13-1.07,27.17,27.17,0,0,0,2.26-3.24,18.61,18.61,0,0,0,1-1.87,12.52,12.52,0,0,0,1.22-2.87c.3-1.41.11-3.36-1.27-4.2a3.15,3.15,0,0,0-3.44.4,7.5,7.5,0,0,0-1.67,2.16,14.1,14.1,0,0,0-1,2.39,7.64,7.64,0,0,0-.37,2.64Z" style="fill:#29354d;fill-rule:evenodd"/><path d="M89.48,257.92a2.23,2.23,0,0,1-.53-.69,3,3,0,0,1-.07-.73,2.12,2.12,0,0,1,.25-1.42.78.78,0,0,1,.74-.38c.29.05.53.45.68.69a2.86,2.86,0,0,1,.21,2,.73.73,0,0,1-.27.49c-.16.11-.46.14-.55.27Z" style="fill:#29354d;fill-rule:evenodd"/><path d="M92.88,264.5c-.2-.21-.68-.5-.62-.87a1.77,1.77,0,0,1,.38-.63.64.64,0,0,1,1.09.13,1.32,1.32,0,0,1,.08,1.33c-.12.23-.57.57-.76.19Z" style="fill:#29354d;fill-rule:evenodd"/><path d="M146.67,265.61a48.92,48.92,0,0,0-10.76,8.68c-.76.85-1.07,2.5-1.44,3.6-.53,1.56-.65,3.1-1.67,4.42-1.3,1.67-2.48,3.42-3.69,5.15-1.59,2.25-2.38,4.86-3.6,7.29-.9,1.78-2.29,5.15-1.43,7.09a3.72,3.72,0,0,1,.42,1.84c0,1.55-.48,3.68.68,4.88,1.82,1.87,4.27,1.33,6.59,1.13,1.4-.13,2.78-.16,4.17-.41a17,17,0,0,0,3.6-1.29,29,29,0,0,0,5.14-2.32,45.72,45.72,0,0,0,3.88-2.87c2-1.68,3.22-3.88,5.61-5.13,3.32-1.75,7.12-2.81,10.13-5.11a9.45,9.45,0,0,0,3.32-4.06,22,22,0,0,0,1-5.83A24.91,24.91,0,0,0,165.19,268a14.42,14.42,0,0,0-8.11-6c-1.46-.5-3.1-1.16-4.67-.78A9.85,9.85,0,0,0,146.67,265.61Z" style="fill:#29354d;fill-rule:evenodd;opacity:0.5"/><path d="M153.83,305.17c-1,.36-3,.52-3.34,1.69-.17.59,0,.92.59,1.06a3.81,3.81,0,0,0,3.08-.87c.57-.49,1.42-1.13,1-2-.5-1.07-1.4-.31-2,.15Z" style="fill:#29354d;fill-rule:evenodd"/><path d="M160,248.55c.47-.41,1.24-1.47,2-1.3.44.11.92.9,1,1.31a3,3,0,0,1-.18,2,3.26,3.26,0,0,1-.94,1.62c-3,2.53-3.61-3.45-2.22-3.59Z" style="fill:#29354d;fill-rule:evenodd"/></g></g></g></g></svg>