<svg xmlns="http://www.w3.org/2000/svg" xmlns:xlink="http://www.w3.org/1999/xlink" viewBox="0 0 197.49 135.12"><defs><linearGradient id="Áåçûìÿííûé_ãðàäèåíò_32" x1="51.17" y1="135.09" x2="51.17" y2="12.11" gradientUnits="userSpaceOnUse"><stop offset="0.03" stop-color="#ffc4a4"/><stop offset="1" stop-color="#ffd8bb"/></linearGradient><radialGradient id="Áåçûìÿííûé_ãðàäèåíò_101" cx="95.27" cy="43.38" r="31.61" gradientTransform="translate(-6.01 16.61) rotate(-7.43)" gradientUnits="userSpaceOnUse"><stop offset="0" stop-color="#b1c0d4"/><stop offset="0.97" stop-color="#9e9ab3"/></radialGradient><radialGradient id="Áåçûìÿííûé_ãðàäèåíò_48" cx="166.83" cy="29.63" r="26.45" gradientTransform="translate(-6.01 16.61) rotate(-7.43)" gradientUnits="userSpaceOnUse"><stop offset="0.02" stop-color="#503653"/><stop offset="0.95" stop-color="#3e2645"/></radialGradient><linearGradient id="Áåçûìÿííûé_ãðàäèåíò_32-2" x1="51.21" y1="135.12" x2="51.21" y2="12.14" xlink:href="#Áåçûìÿííûé_ãðàäèåíò_32"/><radialGradient id="Áåçûìÿííûé_ãðàäèåíò_101-2" cx="93.64" cy="52.74" r="32.26" gradientTransform="matrix(1, 0, 0, 1, 0, 0)" xlink:href="#Áåçûìÿííûé_ãðàäèåíò_101"/><radialGradient id="Áåçûìÿííûé_ãðàäèåíò_48-2" cx="166.18" cy="38.98" r="26.45" gradientTransform="matrix(1, 0, 0, 1, 0, 0)" xlink:href="#Áåçûìÿííûé_ãðàäèåíò_48"/></defs><g style="isolation:isolate"><g id="Calque_2" data-name="Calque 2"><g id="layer1"><polygon points="1.4 12.11 40.05 12.11 60.46 17.81 58.41 12.11 99.48 16.71 100.94 135.09 64.47 130.76 3.57 134.66 11.56 60.15 1.4 12.11" style="fill-rule:evenodd;fill:url(#Áåçûìÿííûé_ãðàäèåíò_32)"/><polygon points="11.56 60.15 53.84 55.24 8.24 91.14 11.56 60.15" style="fill:#691e35;fill-rule:evenodd;opacity:0.2"/><polygon points="57.54 57.44 100.47 96.73 100.94 55.24 57.54 57.44" style="fill:#691e35;fill-rule:evenodd;opacity:0.5700000000000001"/><polygon points="58.41 12.11 57.54 17 60.46 17.81 58.41 12.11" style="fill:#bf5d6b;fill-rule:evenodd"/><polygon points="51.5 40.86 60.46 17.81 58.41 12.11 71.24 13.55 55.31 41.56 51.5 40.86" style="fill:#691e35;fill-rule:evenodd;opacity:0.2"/><polygon points="52.59 41.06 52.5 38.29 53.84 34.34 50.49 41.06 52.74 56.1 55.74 66.91 52.59 41.06" style="fill:#bf5059;fill-rule:evenodd"/><polygon points="100.94 135.09 68.67 102.63 79.24 130.22 100.94 135.09" style="fill:#691e35;fill-rule:evenodd;opacity:0.2"/><polygon points="3.57 134.66 65.28 131.81 100.94 135.09 64.47 130.76 3.57 134.66" style="fill:#bf5d6b;fill-rule:evenodd"/><polygon points="19.24 21.81 26.68 58.39 21.29 80.87 19.24 118.86 67.06 115.16 86.56 120.63 90.76 29.78 57.28 26 54.9 32.12 40.05 23.26 19.24 21.81" style="fill:#691e35;fill-rule:evenodd;opacity:0.48"/><g id="hover"><path d="M129.47,25.64s-41.89,16-78,15.22l2.24,14.23s51.8,25.37,81.8-9.78C135.54,45.31,131.74,38.05,129.47,25.64Z" style="fill-rule:evenodd;fill:url(#Áåçûìÿííûé_ãðàäèåíò_101)"/><path d="M52.64,49.72s41.71,15.17,69.67-3.56l1.25,9.6s8.24-5,12-10.45c0,0-3-1.54-6.07-19.67,0,0-40.58,15.53-78,15.22Z" style="fill:#47203d;fill-rule:evenodd;opacity:0.31"/><polygon points="86.83 63.71 90.86 55.21 95.81 55.09 93.25 63.94 86.83 63.71" style="fill:#fff;fill-rule:evenodd;opacity:0.5;mix-blend-mode:soft-light"/><polygon points="99.74 54.59 99.41 63.64 100.9 63.44 101.14 54.4 99.74 54.59" style="fill:#fff;fill-rule:evenodd;opacity:0.5;mix-blend-mode:soft-light"/><path d="M131.25,7.55l-4.36.27s-2.65,23,9.89,42.16l4.37-1.32Z" style="fill:#2f1b3a;fill-rule:evenodd"/><path d="M131.25,7.55s-1.76,24.67,9.9,41.11l2.26-8.54s16-.26,21.12-1.46c6.38-1.48,24.24-9.89,24.24-9.89l3.56,3.29A38.41,38.41,0,0,0,186.9,0l-3.61,8.14L141.47,23.48S135.83,10.76,131.25,7.55Z" style="fill-rule:evenodd;fill:url(#Áåçûìÿííûé_ãðàäèåíò_48)"/><path d="M186.9,0s-4.34,13.27,5.43,32.06C192.33,32.06,199.05,17.31,186.9,0Z" style="fill:#5a4560;fill-rule:evenodd"/><path d="M141.47,23.48s-7.38,1.48,1.94,16.64l-2.26,8.54s-13.46-18.61-9.9-41.11C131.25,7.55,136.75,11,141.47,23.48Z" style="fill:#5a4560;fill-rule:evenodd"/><path d="M186.9,0l-3.61,8.14s-1.15,9.39,5.48,20.63l3.56,3.29S181.91,17.06,186.9,0Z" style="fill:#2f1b3a;fill-rule:evenodd"/><path d="M157,39.69c-7.86-13.28-2.92-20.85-2.71-21.16l.49.33c-.05.07-4.94,7.6,2.73,20.53Z" style="fill:#2f1b3a"/><path d="M172.87,35.85c-8-9.63-6.42-21.57-6.41-21.68l.58.08c0,.12-1.58,11.8,6.28,21.22Z" style="fill:#2f1b3a"/><path d="M182.89,31.5c-7.1-11.32-4.56-21.62-4.53-21.72l.57.14c0,.1-2.5,10.17,4.46,21.27Z" style="fill:#2f1b3a"/></g><polygon points="1.41 12.09 0.14 13.38 10.69 60.13 6.81 90.17 3.57 134.64 6.32 134.47 8.24 91.12 11.57 60.13 1.41 12.09" style="fill:#bf5d6b;fill-rule:evenodd"/><g id="hover-2" data-name="hover" style="opacity:0"><polygon points="1.44 12.14 40.09 12.14 60.49 17.85 58.44 12.14 99.52 16.75 100.97 135.12 64.51 130.79 3.61 134.69 11.6 60.18 1.44 12.14" style="fill-rule:evenodd;fill:url(#Áåçûìÿííûé_ãðàäèåíò_32-2)"/><polygon points="11.6 60.18 53.88 55.27 8.28 91.17 11.6 60.18" style="fill:#691e35;fill-rule:evenodd;opacity:0.2"/><polygon points="57.57 57.47 100.5 96.76 100.97 55.27 57.57 57.47" style="fill:#691e35;fill-rule:evenodd;opacity:0.5700000000000001"/><polygon points="58.44 12.14 57.57 17.03 60.49 17.85 58.44 12.14" style="fill:#bf5d6b;fill-rule:evenodd"/><polygon points="51.53 40.89 60.49 17.85 58.44 12.14 71.27 13.58 55.34 41.6 51.53 40.89" style="fill:#691e35;fill-rule:evenodd;opacity:0.2"/><polygon points="52.62 41.09 52.53 38.32 53.88 34.37 50.53 41.09 52.78 56.13 55.78 66.94 52.62 41.09" style="fill:#bf5059;fill-rule:evenodd"/><polygon points="100.97 135.12 68.71 102.66 79.28 130.25 100.97 135.12" style="fill:#691e35;fill-rule:evenodd;opacity:0.2"/><polygon points="3.61 134.69 65.32 131.84 100.97 135.12 64.51 130.79 3.61 134.69" style="fill:#bf5d6b;fill-rule:evenodd"/><polygon points="19.28 21.84 26.71 58.42 21.32 80.9 19.28 118.89 67.09 115.19 86.6 120.66 90.8 29.81 57.31 26.03 54.93 32.15 40.09 23.29 19.28 21.84" style="fill:#691e35;fill-rule:evenodd;opacity:0.48"/><path d="M132.52,35.82S87,46.26,51.27,40.86l2.35,14.38s48.09,31.84,82.38.87C136,56.11,133.17,48.41,132.52,35.82Z" style="fill-rule:evenodd;fill:url(#Áåçûìÿííûé_ãðàäèåíò_101-2)"/><path d="M52.42,49.72s40.21,20.48,70.35,5.52v9.68S131.58,61,136,56.11c0,0-2.74-1.91-3.48-20.29,0,0-53.31,11.44-81.25,5Z" style="fill:#47203d;fill-rule:evenodd;opacity:0.31"/><polygon points="85.32 68.06 90.41 60.15 95.34 60.67 91.66 69.12 85.32 68.06" style="fill:#fff;fill-rule:evenodd;opacity:0.5;mix-blend-mode:soft-light"/><polygon points="99.31 60.68 97.81 69.61 99.31 69.61 100.72 60.68 99.31 60.68" style="fill:#fff;fill-rule:evenodd;opacity:0.5;mix-blend-mode:soft-light"/><path d="M136.63,18.11l-4.36-.3s-5.6,22.51,4.36,43.08l4.5-.74Z" style="fill:#2f1b3a;fill-rule:evenodd"/><path d="M136.63,18.11s-4.94,24.24,4.5,42L144.47,52s15.87,1.8,21.14,1.28c6.51-.64,25.32-6.68,25.32-6.68L194,50.31a38.43,38.43,0,0,0-1.24-32.5l-4.63,7.61-43.44,9.81S140.75,21.88,136.63,18.11Z" style="fill-rule:evenodd;fill:url(#Áåçûìÿííûé_ãðàäèåíò_48-2)"/><path d="M192.78,17.81s-6,12.61,1.24,32.5C194,50.31,202.6,36.55,192.78,17.81Z" style="fill:#5a4560;fill-rule:evenodd"/><path d="M144.71,35.23s-7.51.51-.24,16.75l-3.34,8.17s-10.94-20.19-4.5-42C136.63,18.11,141.64,22.27,144.71,35.23Z" style="fill:#5a4560;fill-rule:evenodd"/><path d="M192.78,17.81l-4.63,7.61s-2.35,9.16,2.78,21.16L194,50.31S185.64,34.09,192.78,17.81Z" style="fill:#2f1b3a;fill-rule:evenodd"/><path d="M158,53.3c-6.08-14.18-.2-21,.05-21.33l.44.39c-.06.07-5.88,6.9,0,20.71Z" style="fill:#2f1b3a"/><path d="M174.24,51.55c-6.72-10.58-3.58-22.21-3.55-22.33l.57.16c0,.11-3.1,11.5,3.48,21.86Z" style="fill:#2f1b3a"/><path d="M184.74,48.54c-5.58-12.15-1.73-22-1.69-22.14l.55.22c0,.1-3.8,9.76,1.67,21.67Z" style="fill:#2f1b3a"/><polygon points="1.27 12.19 0 13.48 10.55 60.23 6.67 90.27 3.43 134.74 6.19 134.57 8.1 91.22 11.43 60.23 1.27 12.19" style="fill:#bf5d6b;fill-rule:evenodd"/></g></g></g></g></svg>