<svg xmlns="http://www.w3.org/2000/svg" xmlns:xlink="http://www.w3.org/1999/xlink" viewBox="0 0 197.33 135.09"><defs><linearGradient id="Áåçûìÿííûé_ãðàäèåíò_32" x1="51.03" y1="135.09" x2="51.03" y2="12.11" gradientUnits="userSpaceOnUse"><stop offset="0.03" stop-color="#ffc4a4"/><stop offset="1" stop-color="#ffd8bb"/></linearGradient><radialGradient id="Áåçûìÿííûé_ãðàäèåíò_101" cx="95.13" cy="43.38" r="31.61" gradientTransform="translate(-6.01 16.59) rotate(-7.43)" gradientUnits="userSpaceOnUse"><stop offset="0" stop-color="#b1c0d4"/><stop offset="0.97" stop-color="#9e9ab3"/></radialGradient><radialGradient id="Áåçûìÿííûé_ãðàäèåíò_48" cx="166.7" cy="29.63" r="26.45" gradientTransform="translate(-6.01 16.59) rotate(-7.43)" gradientUnits="userSpaceOnUse"><stop offset="0.02" stop-color="#503653"/><stop offset="0.95" stop-color="#3e2645"/></radialGradient><linearGradient id="Áåçûìÿííûé_ãðàäèåíò_32-2" x1="51.04" y1="135.09" x2="51.04" y2="12.11" xlink:href="#Áåçûìÿííûé_ãðàäèåíò_32"/><radialGradient id="Áåçûìÿííûé_ãðàäèåíò_101-2" cx="93.47" cy="52.7" r="32.26" gradientTransform="matrix(1, 0, 0, 1, 0, 0)" xlink:href="#Áåçûìÿííûé_ãðàäèåíò_101"/><radialGradient id="Áåçûìÿííûé_ãðàäèåíò_48-2" cx="166.02" cy="38.95" r="26.45" gradientTransform="matrix(1, 0, 0, 1, 0, 0)" xlink:href="#Áåçûìÿííûé_ãðàäèåíò_48"/></defs><g style="isolation:isolate"><g id="Calque_2" data-name="Calque 2"><g id="layer1"><g style="opacity:0"><polygon points="1.27 12.11 39.91 12.11 60.32 17.81 58.27 12.11 99.35 16.71 100.8 135.09 64.33 130.76 3.43 134.66 11.43 60.15 1.27 12.11" style="fill-rule:evenodd;fill:url(#Áåçûìÿííûé_ãðàäèåíò_32)"/><polygon points="11.43 60.15 53.71 55.24 8.1 91.14 11.43 60.15" style="fill:#691e35;fill-rule:evenodd;opacity:0.2"/><polygon points="57.4 57.44 100.33 96.73 100.8 55.24 57.4 57.44" style="fill:#691e35;fill-rule:evenodd;opacity:0.5700000000000001"/><polygon points="58.27 12.11 57.4 17 60.32 17.81 58.27 12.11" style="fill:#bf5d6b;fill-rule:evenodd"/><polygon points="51.36 40.86 60.32 17.81 58.27 12.11 71.1 13.55 55.17 41.56 51.36 40.86" style="fill:#691e35;fill-rule:evenodd;opacity:0.2"/><polygon points="52.45 41.06 52.36 38.29 53.71 34.34 50.35 41.06 52.6 56.1 55.6 66.91 52.45 41.06" style="fill:#bf5059;fill-rule:evenodd"/><polygon points="100.8 135.09 68.54 102.63 79.1 130.22 100.8 135.09" style="fill:#691e35;fill-rule:evenodd;opacity:0.2"/><polygon points="3.43 134.66 65.14 131.81 100.8 135.09 64.33 130.76 3.43 134.66" style="fill:#bf5d6b;fill-rule:evenodd"/><polygon points="19.1 21.81 26.54 58.39 21.15 80.87 19.1 118.86 66.92 115.16 86.43 120.63 90.63 29.78 57.14 26 54.76 32.12 39.91 23.26 19.1 21.81" style="fill:#691e35;fill-rule:evenodd;opacity:0.48"/><g id="hover"><path d="M129.33,25.64s-41.89,16-78,15.22L53.6,55.09s51.81,25.37,81.8-9.78C135.4,45.31,131.6,38.05,129.33,25.64Z" style="fill-rule:evenodd;fill:url(#Áåçûìÿííûé_ãðàäèåíò_101)"/><path d="M52.5,49.72s41.71,15.17,69.67-3.56l1.25,9.6s8.24-5,12-10.45c0,0-3-1.54-6.07-19.67,0,0-40.58,15.53-78,15.22Z" style="fill:#47203d;fill-rule:evenodd;opacity:0.31"/><polygon points="86.69 63.71 90.72 55.21 95.67 55.09 93.12 63.94 86.69 63.71" style="fill:#fff;fill-rule:evenodd;opacity:0.5;mix-blend-mode:soft-light"/><polygon points="99.61 54.59 99.27 63.64 100.76 63.44 101 54.4 99.61 54.59" style="fill:#fff;fill-rule:evenodd;opacity:0.5;mix-blend-mode:soft-light"/><path d="M131.11,7.55l-4.36.27s-2.64,23,9.89,42.16L141,48.66Z" style="fill:#2f1b3a;fill-rule:evenodd"/><path d="M131.11,7.55S129.35,32.22,141,48.66l2.25-8.54s16-.26,21.12-1.46c6.38-1.48,24.25-9.89,24.25-9.89l3.55,3.29A38.41,38.41,0,0,0,186.76,0l-3.61,8.14L141.34,23.48S135.69,10.76,131.11,7.55Z" style="fill-rule:evenodd;fill:url(#Áåçûìÿííûé_ãðàäèåíò_48)"/><path d="M186.76,0s-4.34,13.27,5.43,32.06C192.19,32.06,198.91,17.31,186.76,0Z" style="fill:#5a4560;fill-rule:evenodd"/><path d="M141.34,23.48S134,25,143.27,40.12L141,48.66s-13.47-18.61-9.91-41.11C131.11,7.55,136.62,11,141.34,23.48Z" style="fill:#5a4560;fill-rule:evenodd"/><path d="M186.76,0l-3.61,8.14s-1.15,9.39,5.49,20.63l3.55,3.29S181.77,17.06,186.76,0Z" style="fill:#2f1b3a;fill-rule:evenodd"/><path d="M156.85,39.69c-7.86-13.28-2.92-20.85-2.71-21.16l.49.33c0,.07-4.93,7.6,2.73,20.53Z" style="fill:#2f1b3a"/><path d="M172.74,35.85c-8-9.63-6.43-21.57-6.41-21.68l.58.08c0,.12-1.59,11.8,6.28,21.22Z" style="fill:#2f1b3a"/><path d="M182.75,31.5c-7.1-11.32-4.56-21.62-4.53-21.72l.57.14c0,.1-2.5,10.17,4.46,21.27Z" style="fill:#2f1b3a"/></g><polygon points="1.27 12.09 0 13.38 10.55 60.13 6.67 90.17 3.43 134.64 6.19 134.47 8.1 91.12 11.43 60.13 1.27 12.09" style="fill:#bf5d6b;fill-rule:evenodd"/></g><g id="hover-2" data-name="hover"><polygon points="1.28 12.11 39.92 12.11 60.33 17.81 58.28 12.11 99.36 16.71 100.81 135.09 64.34 130.76 3.44 134.66 11.44 60.15 1.28 12.11" style="fill-rule:evenodd;fill:url(#Áåçûìÿííûé_ãðàäèåíò_32-2)"/><polygon points="11.44 60.15 53.72 55.24 8.11 91.14 11.44 60.15" style="fill:#691e35;fill-rule:evenodd;opacity:0.2"/><polygon points="57.41 57.44 100.34 96.73 100.81 55.24 57.41 57.44" style="fill:#691e35;fill-rule:evenodd;opacity:0.5700000000000001"/><polygon points="58.28 12.11 57.41 17 60.33 17.81 58.28 12.11" style="fill:#bf5d6b;fill-rule:evenodd"/><polygon points="51.37 40.86 60.33 17.81 58.28 12.11 71.11 13.55 55.18 41.56 51.37 40.86" style="fill:#691e35;fill-rule:evenodd;opacity:0.2"/><polygon points="52.46 41.06 52.37 38.29 53.72 34.34 50.36 41.06 52.62 56.1 55.62 66.91 52.46 41.06" style="fill:#bf5059;fill-rule:evenodd"/><polygon points="100.81 135.09 68.55 102.63 79.11 130.22 100.81 135.09" style="fill:#691e35;fill-rule:evenodd;opacity:0.2"/><polygon points="3.44 134.66 65.15 131.81 100.81 135.09 64.34 130.76 3.44 134.66" style="fill:#bf5d6b;fill-rule:evenodd"/><polygon points="19.11 21.81 26.55 58.39 21.16 80.87 19.11 118.86 66.93 115.16 86.44 120.63 90.64 29.78 57.15 26 54.77 32.12 39.92 23.26 19.11 21.81" style="fill:#691e35;fill-rule:evenodd;opacity:0.48"/><path d="M132.36,35.79s-45.57,10.44-81.25,5L53.46,55.2s48.09,31.85,82.38.88C135.84,56.08,133,48.38,132.36,35.79Z" style="fill-rule:evenodd;fill:url(#Áåçûìÿííûé_ãðàäèåíò_101-2)"/><path d="M52.25,49.68s40.21,20.49,70.36,5.52v9.69s8.81-3.89,13.23-8.81c0,0-2.75-1.91-3.48-20.29,0,0-53.32,11.44-81.25,5Z" style="fill:#47203d;fill-rule:evenodd;opacity:0.31"/><polygon points="85.15 68.03 90.25 60.12 95.18 60.64 91.5 69.09 85.15 68.03" style="fill:#fff;fill-rule:evenodd;opacity:0.5;mix-blend-mode:soft-light"/><polygon points="99.14 60.65 97.64 69.58 99.14 69.58 100.55 60.65 99.14 60.65" style="fill:#fff;fill-rule:evenodd;opacity:0.5;mix-blend-mode:soft-light"/><path d="M136.46,18.08l-4.36-.3s-5.6,22.51,4.36,43.08l4.51-.74Z" style="fill:#2f1b3a;fill-rule:evenodd"/><path d="M136.46,18.08s-4.93,24.24,4.51,42l3.34-8.18s15.87,1.81,21.13,1.29c6.52-.64,25.32-6.68,25.32-6.68l3.1,3.73a38.43,38.43,0,0,0-1.24-32.5L188,25.39,144.54,35.2S140.59,21.85,136.46,18.08Z" style="fill-rule:evenodd;fill:url(#Áåçûìÿííûé_ãðàäèåíò_48-2)"/><path d="M192.62,17.78s-6,12.6,1.24,32.5C193.86,50.28,202.43,36.52,192.62,17.78Z" style="fill:#5a4560;fill-rule:evenodd"/><path d="M144.54,35.2s-7.51.51-.23,16.74L141,60.12s-10.95-20.19-4.51-42C136.46,18.08,141.47,22.24,144.54,35.2Z" style="fill:#5a4560;fill-rule:evenodd"/><path d="M192.62,17.78,188,25.39s-2.36,9.16,2.77,21.16l3.1,3.73S185.47,34.06,192.62,17.78Z" style="fill:#2f1b3a;fill-rule:evenodd"/><path d="M157.83,53.27c-6.08-14.18-.2-21,0-21.33l.44.39c-.06.07-5.87,6.9.05,20.71Z" style="fill:#2f1b3a"/><path d="M174.08,51.52c-6.73-10.58-3.58-22.22-3.55-22.33l.56.16c0,.11-3.1,11.5,3.49,21.86Z" style="fill:#2f1b3a"/><path d="M184.57,48.51c-5.57-12.15-1.72-22-1.68-22.14l.54.22c0,.1-3.79,9.76,1.68,21.67Z" style="fill:#2f1b3a"/><polygon points="1.27 12.11 0 13.4 10.55 60.15 6.67 90.18 3.44 134.66 6.19 134.48 8.11 91.14 11.43 60.15 1.27 12.11" style="fill:#bf5d6b;fill-rule:evenodd"/></g></g></g></g></svg>