<svg xmlns="http://www.w3.org/2000/svg" xmlns:xlink="http://www.w3.org/1999/xlink" viewBox="0 0 42.62 92.75"><defs><linearGradient id="Áåçûìÿííûé_ãðàäèåíò_32" x1="22.59" y1="54.18" x2="22.59" y2="12.75" gradientUnits="userSpaceOnUse"><stop offset="0.03" stop-color="#ffc4a4"/><stop offset="1" stop-color="#ffd8bb"/></linearGradient><radialGradient id="Áåçûìÿííûé_ãðàäèåíò_39" cx="30.49" cy="178.13" r="11.66" gradientTransform="translate(0 -87.05) scale(1 0.99)" gradientUnits="userSpaceOnUse"><stop offset="0.01" stop-color="#a8adc5"/><stop offset="1" stop-color="#7e798c"/></radialGradient><radialGradient id="Áåçûìÿííûé_ãðàäèåíò_101" cx="21.9" cy="86.22" r="13.44" gradientUnits="userSpaceOnUse"><stop offset="0" stop-color="#b1c0d4"/><stop offset="0.97" stop-color="#9e9ab3"/></radialGradient><radialGradient id="Áåçûìÿííûé_ãðàäèåíò_39-2" cx="30.95" cy="149.97" r="16.81" xlink:href="#Áåçûìÿííûé_ãðàäèåíò_39"/></defs><g style="isolation:isolate"><g id="Calque_2" data-name="Calque 2"><g id="layer1"><path d="M6.93,52.71,5.05,19.85S24.14,9.27,40.12,13.93L36.59,54.18Z" style="fill-rule:evenodd;fill:url(#Áåçûìÿííûé_ãðàäèåíò_32)"/><path d="M18.51,14.59S21.73,1.39,27.37,0l.78.71a25,25,0,0,0-8.56,13.88Z" style="fill:#bf5d6b;fill-rule:evenodd"/><path d="M5.05,19.85S7.8,44.83,10.61,48s19.44,2.07,23,1.3,6.25-31.93,6.25-31.93L36.59,54.18l-29.66.41Z" style="fill:#691e35;fill-rule:evenodd;opacity:0.2"/><rect x="2.92" y="86.19" width="37.97" height="6.56" style="fill:url(#Áåçûìÿííûé_ãðàäèåíò_39)"/><path d="M40.89,86.19a223,223,0,0,0-38,0S18.21,88.16,40.89,86.19Z" style="fill-rule:evenodd;fill:url(#Áåçûìÿííûé_ãðàäèåíò_101)"/><path d="M0,54,1.59,72.06l39-.84,2-17.21a79,79,0,0,0-17.69-2.19C5.92,51.82,0,54,0,54Z" style="fill-rule:evenodd;fill:url(#Áåçûìÿííûé_ãðàäèåíò_39-2)"/><path d="M1.59,72.06s25.62,2.28,39-.84C40.59,71.22,19.63,68.7,1.59,72.06Z" style="fill:#4a3f6d;fill-rule:evenodd"/><path d="M16.31,71.48s6.91-1.48,11.06,0l-1.2,14.71H17.58Z" style="fill:#564c77;fill-rule:evenodd"/><path d="M26.85,52.21l-.29,16.53,8.91.42,1.12-15S35.14,52.05,26.85,52.21Z" style="fill:#fff;fill-rule:evenodd;opacity:0.5"/><polygon points="1.59 55.17 2.62 54.59 3.72 70.31 2.62 70.31 1.59 55.17" style="fill:#fff;fill-rule:evenodd;opacity:0.5;mix-blend-mode:soft-light"/><polygon points="27.37 86.97 27.78 92.75 31.9 92.75 31.58 87.07 27.37 86.97" style="fill:#fff;fill-rule:evenodd;opacity:0.5"/><path d="M31.15,19.85c-1.43-.94-2.51,6.4-1.68,8.48s1.59,4.5,2.29,4.53S34.45,22,31.15,19.85Z" style="fill:#fff;fill-rule:evenodd"/><path d="M28.15,12.87s1.7,3.27,2.93,3.41S33,12.87,33,12.87A22.46,22.46,0,0,0,28.15,12.87Z" style="fill:#fff;fill-rule:evenodd"/></g></g></g></svg>