<svg xmlns="http://www.w3.org/2000/svg" xmlns:xlink="http://www.w3.org/1999/xlink" viewBox="0 0 164.45 263.35"><defs><linearGradient id="Áåçûìÿííûé_ãðàäèåíò_77" x1="902.4" y1="216.73" x2="893.05" y2="-55.96" gradientTransform="matrix(-1, 0.08, 0.08, 0.94, 969.2, -18.78)" gradientUnits="userSpaceOnUse"><stop offset="0.05" stop-color="#9f3437"/><stop offset="0.98" stop-color="#c0633b"/></linearGradient><linearGradient id="Áåçûìÿííûé_ãðàäèåíò_67" x1="873.32" y1="226.55" x2="873.32" y2="33.68" gradientTransform="matrix(-1, 0, 0, 1, 943.37, 0)" gradientUnits="userSpaceOnUse"><stop offset="0.03" stop-color="#d8a4a4"/><stop offset="1" stop-color="#ffe5d2"/></linearGradient><linearGradient id="Áåçûìÿííûé_ãðàäèåíò_86" x1="869.49" y1="201.67" x2="869.49" y2="56.82" gradientTransform="matrix(-1, 0, 0, 1, 943.37, 0)" gradientUnits="userSpaceOnUse"><stop offset="0.03" stop-color="#9f254d"/><stop offset="1" stop-color="#ff463b"/></linearGradient><linearGradient id="Áåçûìÿííûé_ãðàäèåíò_67-2" x1="865.83" y1="166.52" x2="865.83" y2="93.71" xlink:href="#Áåçûìÿííûé_ãðàäèåíò_67"/><linearGradient id="Áåçûìÿííûé_ãðàäèåíò_93" x1="865.83" y1="143.32" x2="865.83" y2="115.17" gradientTransform="matrix(-1, 0, 0, 1, 943.37, 0)" gradientUnits="userSpaceOnUse"><stop offset="0.03" stop-color="#a7385d"/><stop offset="1" stop-color="#e5423b"/></linearGradient><linearGradient id="Áåçûìÿííûé_ãðàäèåíò_77-2" x1="904.5" y1="221.27" x2="895.15" y2="-51.42" gradientTransform="matrix(-1, 0.02, 0.02, 0.95, 976.24, 31.8)" xlink:href="#Áåçûìÿííûé_ãðàäèåíò_77"/><linearGradient id="Áåçûìÿííûé_ãðàäèåíò_67-3" x1="877.44" y1="231.21" x2="877.44" y2="38.34" gradientTransform="matrix(-1, -0.06, -0.06, 1, 949.39, 49.09)" xlink:href="#Áåçûìÿííûé_ãðàäèåíò_67"/><linearGradient id="Áåçûìÿííûé_ãðàäèåíò_86-2" x1="875.66" y1="206.33" x2="875.66" y2="61.49" gradientTransform="matrix(0, -1, -1, 0, 201.46, 1008.85)" xlink:href="#Áåçûìÿííûé_ãðàäèåíò_86"/><linearGradient id="Áåçûìÿííûé_ãðàäèåíò_67-4" x1="872" y1="171.18" x2="872" y2="98.37" gradientTransform="matrix(0, -1, -1, 0, 205.93, 1006.27)" xlink:href="#Áåçûìÿííûé_ãðàäèåíò_67"/><linearGradient id="Áåçûìÿííûé_ãðàäèåíò_93-2" x1="872" y1="147.98" x2="872" y2="119.84" gradientTransform="matrix(-1, -0.06, -0.06, 1, 949.39, 49.09)" xlink:href="#Áåçûìÿííûé_ãðàäèåíò_93"/></defs><g id="Calque_2" data-name="Calque 2"><g id="layer1"><path d="M24.29,5.62C57-2.71,113.4.23,140.57,91.66c18.63,62.68-10.22,157.94-83.68,168.61C33.78,263.63,15,256.18.12,243V18.51A60.65,60.65,0,0,1,24.29,5.62Z" style="fill:#690123;fill-rule:evenodd;opacity:0.35000000000000003"/><path d="M70.33,258.24a64,64,0,0,1-31.4-1.39C26.4,252.9,12.44,244,.12,229.57V23.75a79.66,79.66,0,0,1,27-18.43c8.73-3.5,26.4-4.26,26.4-4.26Z" style="fill:#691e35;fill-rule:evenodd"/><path d="M42.66,3.05c32.68-8.34,89.12-5.39,116.29,86,18.63,62.67-10.22,157.93-83.68,168.6-34,4.94-58.66-13.5-75.14-39.15V37.38C11.08,20.4,25.35,7.46,42.66,3.05Z" style="fill-rule:evenodd;fill:url(#Áåçûìÿííûé_ãðàäèåíò_77)"/><path d="M.12,151.21c7.06,43.11,35.31,75.34,69.08,75.34,39.08,0,70.77-43.18,70.77-96.44S108.28,33.68,69.2,33.68C35.43,33.68,7.18,65.9.12,109Z" style="fill-rule:evenodd;fill:url(#Áåçûìÿííûé_ãðàäèåíò_67)"/><ellipse cx="73.88" cy="129.25" rx="53.15" ry="72.42" style="fill:url(#Áåçûìÿííûé_ãðàäèåíò_86)"/><ellipse cx="77.54" cy="130.11" rx="26.72" ry="36.41" style="fill:url(#Áåçûìÿííûé_ãðàäèåíò_67-2)"/><path d="M67.21,129.25c0,7.77,4.62,14.07,10.33,14.07s10.33-6.3,10.33-14.07-4.63-14.08-10.33-14.08S67.21,121.48,67.21,129.25Z" style="fill-rule:evenodd;fill:url(#Áåçûìÿííûé_ãðàäèåíò_93)"/><rect x="18.34" y="137.26" width="209.33" height="1.35" transform="translate(-25.42 248.06) rotate(-84.85)" style="fill:#7c1338"/><rect x="-58.09" y="129.1" width="258.03" height="1.35" transform="translate(-63.27 191.93) rotate(-86.19)" style="fill:#7c1338"/><rect x="13.09" y="27.87" width="1.35" height="216.01" transform="translate(-8.74 1.17) rotate(-3.7)" style="fill:#7c1338"/><path d="M15.62,237.74l2.24-38.57,7.46,46.68A75.73,75.73,0,0,1,15.62,237.74Z" style="fill:#691e35;fill-rule:evenodd"/><polygon points="79.67 6.54 70.93 48.5 73.03 98.77 79.67 6.54" style="fill:#691e35;fill-rule:evenodd"/><polygon points="118.19 192.33 127.03 201.67 117.46 200.63 118.19 192.33" style="fill:#691e35;fill-rule:evenodd"/><polygon points="99.8 203.82 79.67 179.84 94.16 199.18 99.8 203.82" style="fill:#691e35;fill-rule:evenodd"/><polygon points="55.23 98.66 36.57 111.44 45.9 102.74 55.23 98.66" style="fill:#691e35;fill-rule:evenodd"/><path d="M131.33,43.82s-5.55,5.52-1.5,16.94Z" style="fill:#691e35;fill-rule:evenodd"/><polygon points="45.9 93.71 25.32 67.57 38.45 86.89 45.9 93.71" style="fill:#691e35;fill-rule:evenodd"/><polygon points="12.43 115.17 18.62 158.34 18.23 201.5 12.43 115.17" style="fill:#691e35;fill-rule:evenodd"/><polygon points="144.58 133.3 108.26 115.17 124.12 125.3 144.58 133.3" style="fill:#772438;fill-rule:evenodd"/><polygon points="45.9 39.03 25.32 10.83 18.23 16.18 41.49 41.36 45.9 39.03" style="fill:#9b2c3a;fill-rule:evenodd;opacity:0.47000000000000003"/><path d="M.14,151.21a83.16,83.16,0,0,0,2.4,11.34L.13,161.29Z" style="fill:#9b2c3a;fill-rule:evenodd;opacity:0.47000000000000003"/><polygon points="155 76.96 129.23 67.57 129.83 60.76 149.56 63.31 155 76.96" style="fill:#9b2c3a;fill-rule:evenodd;opacity:0.47000000000000003"/><path d="M134.74,166.52h25.43A165.51,165.51,0,0,1,140,214.64l-13.55-27.79Z" style="fill:#9b2c3a;fill-rule:evenodd;opacity:0.47000000000000003"/><g id="hover" style="opacity:0"><path d="M25,7C58.13.49,114.32,6.62,136.27,99.45c15,63.62-19.15,157.1-93.09,163.59-16.85,1.48-31.12-2.57-43-10.23l0-234.35A60.65,60.65,0,0,1,25,7Z" style="fill:#690123;fill-rule:evenodd;opacity:0.35000000000000003"/><path d="M56.7,261.77a64,64,0,0,1-31.27-3.16A78.53,78.53,0,0,1,.13,242.37S.05,23.55.13,23.47A79.39,79.39,0,0,1,27.91,6.82c8.92-3,26.61-2.76,26.61-2.76Z" style="fill:#691e35;fill-rule:evenodd"/><path d="M43.53,5.43C76.63-1,132.81,5.09,154.76,97.91c15.05,63.63-19.15,157.11-93.09,163.6C35,263.86,14.73,252.3,0,234.5L.13,35.93C11.86,20.3,26.49,8.76,43.53,5.43Z" style="fill-rule:evenodd;fill:url(#Áåçûìÿííûé_ãðàäèåíò_77-2)"/><path d="M.13,181.73c11,27.72,32.06,46.92,57.24,48.34,39,2.22,73.1-39.1,76.12-92.27S107.31,39.72,68.29,37.51C39.24,35.86,12.92,58.34.13,91.88Z" style="fill-rule:evenodd;fill:url(#Áåçûìÿííûé_ãðàäèåíò_67-3)"/><ellipse cx="67.55" cy="133.19" rx="72.42" ry="53.15" transform="translate(-69.25 193.09) rotate(-86.75)" style="fill:url(#Áåçûìÿííûé_ãðàäèåíò_86-2)"/><ellipse cx="71.16" cy="134.26" rx="36.41" ry="26.72" transform="translate(-66.92 197.7) rotate(-86.75)" style="fill:url(#Áåçûìÿííûé_ãðàäèåíò_67-4)"/><path d="M60.89,132.81c-.44,7.77,3.82,14.32,9.52,14.64S81.08,141.74,81.52,134,77.7,119.67,72,119.35,61.33,125.05,60.89,132.81Z" style="fill-rule:evenodd;fill:url(#Áåçûìÿííûé_ãðàäèåíò_93-2)"/><rect x="11.44" y="143.98" width="209.33" height="1.35" transform="translate(-43.95 238.39) rotate(-81.6)" style="fill:#7c1338"/><rect x="-64.44" y="132.88" width="258.03" height="1.35" transform="translate(-75.9 181.24) rotate(-82.95)" style="fill:#7c1338"/><rect x="6.48" y="28.4" width="1.35" height="216.01" transform="translate(-1.08 0.06) rotate(-0.45)" style="fill:#7c1338"/><path d="M3.24,238.21l4.42-38.38,4.81,47A75.71,75.71,0,0,1,3.24,238.21Z" style="fill:#691e35;fill-rule:evenodd"/><polygon points="80.28 11.01 69.18 52.4 68.43 102.71 80.28 11.01" style="fill:#691e35;fill-rule:evenodd"/><polygon points="108.22 198.68 116.51 208.51 107.02 206.93 108.22 198.68" style="fill:#691e35;fill-rule:evenodd"/><polygon points="89.21 209.11 70.46 184.03 83.84 204.16 89.21 209.11" style="fill:#691e35;fill-rule:evenodd"/><polygon points="50.66 101.6 31.31 113.3 41.12 105.14 50.66 101.6" style="fill:#691e35;fill-rule:evenodd"/><path d="M129.75,51.16s-5.86,5.19-2.46,16.82Z" style="fill:#691e35;fill-rule:evenodd"/><polygon points="41.63 96.12 22.57 68.87 34.58 88.89 41.63 96.12" style="fill:#691e35;fill-rule:evenodd"/><polygon points="6.99 115.66 10.74 159.11 7.9 202.18 6.99 115.66" style="fill:#691e35;fill-rule:evenodd"/><polygon points="137.91 141.24 102.68 121.09 117.94 132.09 137.91 141.24" style="fill:#772438;fill-rule:evenodd"/><polygon points="44.73 41.53 25.78 12.21 18.39 17.15 40.19 43.61 44.73 41.53" style="fill:#9b2c3a;fill-rule:evenodd;opacity:0.47000000000000003"/><polygon points="151.5 85.58 126.31 74.75 127.29 67.98 146.84 71.65 151.5 85.58" style="fill:#9b2c3a;fill-rule:evenodd;opacity:0.47000000000000003"/><path d="M126.21,173.85l25.39,1.44a165.59,165.59,0,0,1-22.9,46.9l-11.95-28.51Z" style="fill:#9b2c3a;fill-rule:evenodd;opacity:0.47000000000000003"/></g></g></g></svg>